  0
SECTION
  2
HEADER
  9
$ANGBASE
  50
0.0
  9
$ANGDIR
  70
1
  9
$MEASUREMENT
  70
1
  0
ENDSEC
  0
SECTION
  2
TABLES
  0
TABLE
  2
LTYPE
  70
4
  0
LTYPE
  5
40F
  2
CONTINUOUS
  70
0
  3
Solid line
  72
65
  73
0
  40
0.0
  0
LTYPE
  5
410
  2
DASHDOT
 70
0
  3
Dash Dot ____ _ ____ _
 72
65
 73
4
 40
2.0
 49
1.25
 49
-0.25
 49
0.25
 49
-0.25
  0
LTYPE
  5
411
  2
DASHED
 70
0
  3
Dashed __ __ __ __ __
 72
65
 73
2
 40
0.75
 49
0.5
 49
-0.25
  0
LTYPE
  5
43B
  2
DOTTED
 70
0
  3
Dotted .  .  .  .
 72
65
 73
2
 40
0.2
 49
0.0
 49
-0.2
  0
ENDTAB
  0
TABLE
  2
STYLE
  70
4
  0
STYLE
  2
KICAD
  70
0
  40
0
  41
1
  42
1
  50
0
  71
0
  3
isocp.shx
  0
STYLE
  2
KICADB
  70
0
  40
0
  41
1
  42
1
  50
0
  71
0
  3
isocp.shx
  0
STYLE
  2
KICADI
  70
0
  40
0
  41
1
  42
1
  50
15
  71
0
  3
isocp.shx
  0
STYLE
  2
KICADBI
  70
0
  40
0
  41
1
  42
1
  50
15
  71
0
  3
isocp.shx
  0
ENDTAB
  0
TABLE
  2
LAYER
  70
1
  0
LAYER
  2
BLACK
  70
0
  62
7
  6
CONTINUOUS
  0
ENDTAB
  0
ENDSEC
  0
SECTION
  2
ENTITIES
0
LINE
8
BLACK
6
CONTINUOUS
10
162.354
20
-83.262
11
162.673
21
-83.2787
0
LINE
8
BLACK
6
CONTINUOUS
10
162.673
20
-83.2787
11
162.988
21
-83.3286
0
LINE
8
BLACK
6
CONTINUOUS
10
162.988
20
-83.3286
11
163.297
21
-83.4113
0
LINE
8
BLACK
6
CONTINUOUS
10
163.297
20
-83.4113
11
163.595
21
-83.5257
0
LINE
8
BLACK
6
CONTINUOUS
10
163.595
20
-83.5257
11
163.879
21
-83.6706
0
LINE
8
BLACK
6
CONTINUOUS
10
163.879
20
-83.6706
11
164.147
21
-83.8445
0
LINE
8
BLACK
6
CONTINUOUS
10
164.147
20
-83.8445
11
164.395
21
-84.0454
0
LINE
8
BLACK
6
CONTINUOUS
10
164.395
20
-84.0454
11
164.621
21
-84.2712
0
LINE
8
BLACK
6
CONTINUOUS
10
164.621
20
-84.2712
11
164.822
21
-84.5193
0
LINE
8
BLACK
6
CONTINUOUS
10
164.822
20
-84.5193
11
164.995
21
-84.787
0
LINE
8
BLACK
6
CONTINUOUS
10
164.995
20
-84.787
11
165.14
21
-85.0715
0
LINE
8
BLACK
6
CONTINUOUS
10
165.14
20
-85.0715
11
165.255
21
-85.3695
0
LINE
8
BLACK
6
CONTINUOUS
10
165.255
20
-85.3695
11
165.337
21
-85.6779
0
LINE
8
BLACK
6
CONTINUOUS
10
165.337
20
-85.6779
11
165.387
21
-85.9932
0
LINE
8
BLACK
6
CONTINUOUS
10
165.387
20
-85.9932
11
165.404
21
-86.312
0
LINE
8
BLACK
6
CONTINUOUS
10
165.404
20
-86.312
11
165.404
21
-101.14
0
LINE
8
BLACK
6
CONTINUOUS
10
165.404
20
-101.14
11
165.404
21
-101.14
0
LINE
8
BLACK
6
CONTINUOUS
10
165.404
20
-101.14
11
165.387
21
-101.459
0
LINE
8
BLACK
6
CONTINUOUS
10
165.387
20
-101.459
11
165.337
21
-101.774
0
LINE
8
BLACK
6
CONTINUOUS
10
165.337
20
-101.774
11
165.255
21
-102.083
0
LINE
8
BLACK
6
CONTINUOUS
10
165.255
20
-102.083
11
165.14
21
-102.381
0
LINE
8
BLACK
6
CONTINUOUS
10
165.14
20
-102.381
11
164.995
21
-102.665
0
LINE
8
BLACK
6
CONTINUOUS
10
164.995
20
-102.665
11
164.822
21
-102.933
0
LINE
8
BLACK
6
CONTINUOUS
10
164.822
20
-102.933
11
164.621
21
-103.181
0
LINE
8
BLACK
6
CONTINUOUS
10
164.621
20
-103.181
11
164.395
21
-103.407
0
LINE
8
BLACK
6
CONTINUOUS
10
164.395
20
-103.407
11
164.147
21
-103.608
0
LINE
8
BLACK
6
CONTINUOUS
10
164.147
20
-103.608
11
163.879
21
-103.781
0
LINE
8
BLACK
6
CONTINUOUS
10
163.879
20
-103.781
11
163.595
21
-103.926
0
LINE
8
BLACK
6
CONTINUOUS
10
163.595
20
-103.926
11
163.297
21
-104.041
0
LINE
8
BLACK
6
CONTINUOUS
10
163.297
20
-104.041
11
162.988
21
-104.123
0
LINE
8
BLACK
6
CONTINUOUS
10
162.988
20
-104.123
11
162.673
21
-104.173
0
LINE
8
BLACK
6
CONTINUOUS
10
162.673
20
-104.173
11
162.354
21
-104.19
0
LINE
8
BLACK
6
CONTINUOUS
10
162.354
20
-104.19
11
126.952
21
-104.19
0
LINE
8
BLACK
6
CONTINUOUS
10
126.952
20
-104.19
11
126.633
21
-104.173
0
LINE
8
BLACK
6
CONTINUOUS
10
126.633
20
-104.173
11
126.318
21
-104.123
0
LINE
8
BLACK
6
CONTINUOUS
10
126.318
20
-104.123
11
126.009
21
-104.041
0
LINE
8
BLACK
6
CONTINUOUS
10
126.009
20
-104.041
11
125.711
21
-103.926
0
LINE
8
BLACK
6
CONTINUOUS
10
125.711
20
-103.926
11
125.427
21
-103.781
0
LINE
8
BLACK
6
CONTINUOUS
10
125.427
20
-103.781
11
125.159
21
-103.608
0
LINE
8
BLACK
6
CONTINUOUS
10
125.159
20
-103.608
11
124.911
21
-103.407
0
LINE
8
BLACK
6
CONTINUOUS
10
124.911
20
-103.407
11
124.685
21
-103.181
0
LINE
8
BLACK
6
CONTINUOUS
10
124.685
20
-103.181
11
124.484
21
-102.933
0
LINE
8
BLACK
6
CONTINUOUS
10
124.484
20
-102.933
11
124.311
21
-102.665
0
LINE
8
BLACK
6
CONTINUOUS
10
124.311
20
-102.665
11
124.166
21
-102.381
0
LINE
8
BLACK
6
CONTINUOUS
10
124.166
20
-102.381
11
124.051
21
-102.083
0
LINE
8
BLACK
6
CONTINUOUS
10
124.051
20
-102.083
11
123.969
21
-101.774
0
LINE
8
BLACK
6
CONTINUOUS
10
123.969
20
-101.774
11
123.919
21
-101.459
0
LINE
8
BLACK
6
CONTINUOUS
10
123.919
20
-101.459
11
123.902
21
-101.14
0
LINE
8
BLACK
6
CONTINUOUS
10
123.902
20
-101.14
11
123.902
21
-101.14
0
LINE
8
BLACK
6
CONTINUOUS
10
123.902
20
-101.14
11
123.902
21
-86.312
0
LINE
8
BLACK
6
CONTINUOUS
10
123.902
20
-86.312
11
123.902
21
-86.312
0
LINE
8
BLACK
6
CONTINUOUS
10
123.902
20
-86.312
11
123.919
21
-85.9932
0
LINE
8
BLACK
6
CONTINUOUS
10
123.919
20
-85.9932
11
123.969
21
-85.6779
0
LINE
8
BLACK
6
CONTINUOUS
10
123.969
20
-85.6779
11
124.051
21
-85.3695
0
LINE
8
BLACK
6
CONTINUOUS
10
124.051
20
-85.3695
11
124.166
21
-85.0715
0
LINE
8
BLACK
6
CONTINUOUS
10
124.166
20
-85.0715
11
124.311
21
-84.787
0
LINE
8
BLACK
6
CONTINUOUS
10
124.311
20
-84.787
11
124.484
21
-84.5193
0
LINE
8
BLACK
6
CONTINUOUS
10
124.484
20
-84.5193
11
124.685
21
-84.2712
0
LINE
8
BLACK
6
CONTINUOUS
10
124.685
20
-84.2712
11
124.911
21
-84.0454
0
LINE
8
BLACK
6
CONTINUOUS
10
124.911
20
-84.0454
11
125.159
21
-83.8445
0
LINE
8
BLACK
6
CONTINUOUS
10
125.159
20
-83.8445
11
125.427
21
-83.6706
0
LINE
8
BLACK
6
CONTINUOUS
10
125.427
20
-83.6706
11
125.711
21
-83.5257
0
LINE
8
BLACK
6
CONTINUOUS
10
125.711
20
-83.5257
11
126.009
21
-83.4113
0
LINE
8
BLACK
6
CONTINUOUS
10
126.009
20
-83.4113
11
126.318
21
-83.3286
0
LINE
8
BLACK
6
CONTINUOUS
10
126.318
20
-83.3286
11
126.633
21
-83.2787
0
LINE
8
BLACK
6
CONTINUOUS
10
126.633
20
-83.2787
11
126.952
21
-83.262
0
LINE
8
BLACK
6
CONTINUOUS
10
126.952
20
-83.262
11
162.354
21
-83.262
0
LINE
8
BLACK
6
CONTINUOUS
10
126.952
20
-83.362
11
126.786
21
-83.362
0
LINE
8
BLACK
6
CONTINUOUS
10
126.786
20
-83.362
11
126.457
21
-83.3991
0
LINE
8
BLACK
6
CONTINUOUS
10
126.457
20
-83.3991
11
126.134
21
-83.4728
0
LINE
8
BLACK
6
CONTINUOUS
10
126.134
20
-83.4728
11
125.821
21
-83.5823
0
LINE
8
BLACK
6
CONTINUOUS
10
125.821
20
-83.5823
11
125.523
21
-83.726
0
LINE
8
BLACK
6
CONTINUOUS
10
125.523
20
-83.726
11
125.242
21
-83.9023
0
LINE
8
BLACK
6
CONTINUOUS
10
125.242
20
-83.9023
11
124.983
21
-84.1089
0
LINE
8
BLACK
6
CONTINUOUS
10
124.983
20
-84.1089
11
124.749
21
-84.3432
0
LINE
8
BLACK
6
CONTINUOUS
10
124.749
20
-84.3432
11
124.542
21
-84.6022
0
LINE
8
BLACK
6
CONTINUOUS
10
124.542
20
-84.6022
11
124.366
21
-84.8828
0
LINE
8
BLACK
6
CONTINUOUS
10
124.366
20
-84.8828
11
124.222
21
-85.1813
0
LINE
8
BLACK
6
CONTINUOUS
10
124.222
20
-85.1813
11
124.113
21
-85.494
0
LINE
8
BLACK
6
CONTINUOUS
10
124.113
20
-85.494
11
124.039
21
-85.8171
0
LINE
8
BLACK
6
CONTINUOUS
10
124.039
20
-85.8171
11
124.002
21
-86.1463
0
LINE
8
BLACK
6
CONTINUOUS
10
124.002
20
-86.1463
11
124.002
21
-86.312
0
LINE
8
BLACK
6
CONTINUOUS
10
124.002
20
-86.312
11
124.002
21
-101.14
0
LINE
8
BLACK
6
CONTINUOUS
10
124.002
20
-101.14
11
124.002
21
-101.14
0
LINE
8
BLACK
6
CONTINUOUS
10
124.002
20
-101.14
11
124.002
21
-101.306
0
LINE
8
BLACK
6
CONTINUOUS
10
124.002
20
-101.306
11
124.039
21
-101.635
0
LINE
8
BLACK
6
CONTINUOUS
10
124.039
20
-101.635
11
124.113
21
-101.958
0
LINE
8
BLACK
6
CONTINUOUS
10
124.113
20
-101.958
11
124.222
21
-102.271
0
LINE
8
BLACK
6
CONTINUOUS
10
124.222
20
-102.271
11
124.366
21
-102.569
0
LINE
8
BLACK
6
CONTINUOUS
10
124.366
20
-102.569
11
124.542
21
-102.85
0
LINE
8
BLACK
6
CONTINUOUS
10
124.542
20
-102.85
11
124.749
21
-103.109
0
LINE
8
BLACK
6
CONTINUOUS
10
124.749
20
-103.109
11
124.983
21
-103.343
0
LINE
8
BLACK
6
CONTINUOUS
10
124.983
20
-103.343
11
125.242
21
-103.55
0
LINE
8
BLACK
6
CONTINUOUS
10
125.242
20
-103.55
11
125.523
21
-103.726
0
LINE
8
BLACK
6
CONTINUOUS
10
125.523
20
-103.726
11
125.821
21
-103.87
0
LINE
8
BLACK
6
CONTINUOUS
10
125.821
20
-103.87
11
126.134
21
-103.979
0
LINE
8
BLACK
6
CONTINUOUS
10
126.134
20
-103.979
11
126.457
21
-104.053
0
LINE
8
BLACK
6
CONTINUOUS
10
126.457
20
-104.053
11
126.786
21
-104.09
0
LINE
8
BLACK
6
CONTINUOUS
10
126.786
20
-104.09
11
126.952
21
-104.09
0
LINE
8
BLACK
6
CONTINUOUS
10
126.952
20
-104.09
11
162.354
21
-104.09
0
LINE
8
BLACK
6
CONTINUOUS
10
162.354
20
-104.09
11
162.52
21
-104.09
0
LINE
8
BLACK
6
CONTINUOUS
10
162.52
20
-104.09
11
162.849
21
-104.053
0
LINE
8
BLACK
6
CONTINUOUS
10
162.849
20
-104.053
11
163.172
21
-103.979
0
LINE
8
BLACK
6
CONTINUOUS
10
163.172
20
-103.979
11
163.485
21
-103.87
0
LINE
8
BLACK
6
CONTINUOUS
10
163.485
20
-103.87
11
163.783
21
-103.726
0
LINE
8
BLACK
6
CONTINUOUS
10
163.783
20
-103.726
11
164.064
21
-103.55
0
LINE
8
BLACK
6
CONTINUOUS
10
164.064
20
-103.55
11
164.323
21
-103.343
0
LINE
8
BLACK
6
CONTINUOUS
10
164.323
20
-103.343
11
164.557
21
-103.109
0
LINE
8
BLACK
6
CONTINUOUS
10
164.557
20
-103.109
11
164.764
21
-102.85
0
LINE
8
BLACK
6
CONTINUOUS
10
164.764
20
-102.85
11
164.94
21
-102.569
0
LINE
8
BLACK
6
CONTINUOUS
10
164.94
20
-102.569
11
165.084
21
-102.271
0
LINE
8
BLACK
6
CONTINUOUS
10
165.084
20
-102.271
11
165.193
21
-101.958
0
LINE
8
BLACK
6
CONTINUOUS
10
165.193
20
-101.958
11
165.267
21
-101.635
0
LINE
8
BLACK
6
CONTINUOUS
10
165.267
20
-101.635
11
165.304
21
-101.306
0
LINE
8
BLACK
6
CONTINUOUS
10
165.304
20
-101.306
11
165.304
21
-101.14
0
LINE
8
BLACK
6
CONTINUOUS
10
165.304
20
-101.14
11
165.304
21
-101.14
0
LINE
8
BLACK
6
CONTINUOUS
10
165.304
20
-101.14
11
165.304
21
-86.312
0
LINE
8
BLACK
6
CONTINUOUS
10
165.304
20
-86.312
11
165.304
21
-86.1463
0
LINE
8
BLACK
6
CONTINUOUS
10
165.304
20
-86.1463
11
165.267
21
-85.8171
0
LINE
8
BLACK
6
CONTINUOUS
10
165.267
20
-85.8171
11
165.193
21
-85.494
0
LINE
8
BLACK
6
CONTINUOUS
10
165.193
20
-85.494
11
165.084
21
-85.1813
0
LINE
8
BLACK
6
CONTINUOUS
10
165.084
20
-85.1813
11
164.94
21
-84.8828
0
LINE
8
BLACK
6
CONTINUOUS
10
164.94
20
-84.8828
11
164.764
21
-84.6022
0
LINE
8
BLACK
6
CONTINUOUS
10
164.764
20
-84.6022
11
164.557
21
-84.3432
0
LINE
8
BLACK
6
CONTINUOUS
10
164.557
20
-84.3432
11
164.323
21
-84.1089
0
LINE
8
BLACK
6
CONTINUOUS
10
164.323
20
-84.1089
11
164.064
21
-83.9023
0
LINE
8
BLACK
6
CONTINUOUS
10
164.064
20
-83.9023
11
163.783
21
-83.726
0
LINE
8
BLACK
6
CONTINUOUS
10
163.783
20
-83.726
11
163.485
21
-83.5823
0
LINE
8
BLACK
6
CONTINUOUS
10
163.485
20
-83.5823
11
163.172
21
-83.4728
0
LINE
8
BLACK
6
CONTINUOUS
10
163.172
20
-83.4728
11
162.849
21
-83.3991
0
LINE
8
BLACK
6
CONTINUOUS
10
162.849
20
-83.3991
11
162.52
21
-83.362
0
LINE
8
BLACK
6
CONTINUOUS
10
162.52
20
-83.362
11
162.354
21
-83.362
0
LINE
8
BLACK
6
CONTINUOUS
10
162.354
20
-83.362
11
126.952
21
-83.362
  0
ENDSEC
  0
EOF
