  0
SECTION
  2
HEADER
  9
$ANGBASE
  50
0.0
  9
$ANGDIR
  70
1
  9
$MEASUREMENT
  70
1
  0
ENDSEC
  0
SECTION
  2
TABLES
  0
TABLE
  2
LTYPE
  70
4
  0
LTYPE
  5
40F
  2
CONTINUOUS
  70
0
  3
Solid line
  72
65
  73
0
  40
0.0
  0
LTYPE
  5
410
  2
DASHDOT
 70
0
  3
Dash Dot ____ _ ____ _
 72
65
 73
4
 40
2.0
 49
1.25
 49
-0.25
 49
0.25
 49
-0.25
  0
LTYPE
  5
411
  2
DASHED
 70
0
  3
Dashed __ __ __ __ __
 72
65
 73
2
 40
0.75
 49
0.5
 49
-0.25
  0
LTYPE
  5
43B
  2
DOTTED
 70
0
  3
Dotted .  .  .  .
 72
65
 73
2
 40
0.2
 49
0.0
 49
-0.2
  0
ENDTAB
  0
TABLE
  2
STYLE
  70
4
  0
STYLE
  2
KICAD
  70
0
  40
0
  41
1
  42
1
  50
0
  71
0
  3
isocp.shx
  0
STYLE
  2
KICADB
  70
0
  40
0
  41
1
  42
1
  50
0
  71
0
  3
isocp.shx
  0
STYLE
  2
KICADI
  70
0
  40
0
  41
1
  42
1
  50
15
  71
0
  3
isocp.shx
  0
STYLE
  2
KICADBI
  70
0
  40
0
  41
1
  42
1
  50
15
  71
0
  3
isocp.shx
  0
ENDTAB
  0
TABLE
  2
LAYER
  70
1
  0
LAYER
  2
BLACK
  70
0
  62
7
  6
CONTINUOUS
  0
ENDTAB
  0
ENDSEC
  0
SECTION
  2
ENTITIES
0
LINE
8
BLACK
6
CONTINUOUS
10
147.316
20
-97.4519
11
147.509
21
-97.5269
0
LINE
8
BLACK
6
CONTINUOUS
10
147.509
20
-97.5269
11
147.686
21
-97.6362
0
LINE
8
BLACK
6
CONTINUOUS
10
147.686
20
-97.6362
11
147.839
21
-97.7761
0
LINE
8
BLACK
6
CONTINUOUS
10
147.839
20
-97.7761
11
147.964
21
-97.9418
0
LINE
8
BLACK
6
CONTINUOUS
10
147.964
20
-97.9418
11
148.057
21
-98.1276
0
LINE
8
BLACK
6
CONTINUOUS
10
148.057
20
-98.1276
11
148.114
21
-98.3273
0
LINE
8
BLACK
6
CONTINUOUS
10
148.114
20
-98.3273
11
148.133
21
-98.534
0
LINE
8
BLACK
6
CONTINUOUS
10
148.133
20
-98.534
11
148.114
21
-98.7407
0
LINE
8
BLACK
6
CONTINUOUS
10
148.114
20
-98.7407
11
148.057
21
-98.9404
0
LINE
8
BLACK
6
CONTINUOUS
10
148.057
20
-98.9404
11
147.964
21
-99.1262
0
LINE
8
BLACK
6
CONTINUOUS
10
147.964
20
-99.1262
11
147.839
21
-99.2919
0
LINE
8
BLACK
6
CONTINUOUS
10
147.839
20
-99.2919
11
147.686
21
-99.4318
0
LINE
8
BLACK
6
CONTINUOUS
10
147.686
20
-99.4318
11
147.509
21
-99.5411
0
LINE
8
BLACK
6
CONTINUOUS
10
147.509
20
-99.5411
11
147.316
21
-99.6161
0
LINE
8
BLACK
6
CONTINUOUS
10
147.316
20
-99.6161
11
147.112
21
-99.6542
0
LINE
8
BLACK
6
CONTINUOUS
10
147.112
20
-99.6542
11
146.904
21
-99.6542
0
LINE
8
BLACK
6
CONTINUOUS
10
146.904
20
-99.6542
11
146.7
21
-99.6161
0
LINE
8
BLACK
6
CONTINUOUS
10
146.7
20
-99.6161
11
146.507
21
-99.5411
0
LINE
8
BLACK
6
CONTINUOUS
10
146.507
20
-99.5411
11
146.33
21
-99.4318
0
LINE
8
BLACK
6
CONTINUOUS
10
146.33
20
-99.4318
11
146.177
21
-99.2919
0
LINE
8
BLACK
6
CONTINUOUS
10
146.177
20
-99.2919
11
146.052
21
-99.1262
0
LINE
8
BLACK
6
CONTINUOUS
10
146.052
20
-99.1262
11
145.959
21
-98.9404
0
LINE
8
BLACK
6
CONTINUOUS
10
145.959
20
-98.9404
11
145.902
21
-98.7407
0
LINE
8
BLACK
6
CONTINUOUS
10
145.902
20
-98.7407
11
145.883
21
-98.534
0
LINE
8
BLACK
6
CONTINUOUS
10
145.883
20
-98.534
11
145.902
21
-98.3273
0
LINE
8
BLACK
6
CONTINUOUS
10
145.902
20
-98.3273
11
145.959
21
-98.1276
0
LINE
8
BLACK
6
CONTINUOUS
10
145.959
20
-98.1276
11
146.052
21
-97.9418
0
LINE
8
BLACK
6
CONTINUOUS
10
146.052
20
-97.9418
11
146.177
21
-97.7761
0
LINE
8
BLACK
6
CONTINUOUS
10
146.177
20
-97.7761
11
146.33
21
-97.6362
0
LINE
8
BLACK
6
CONTINUOUS
10
146.33
20
-97.6362
11
146.507
21
-97.5269
0
LINE
8
BLACK
6
CONTINUOUS
10
146.507
20
-97.5269
11
146.7
21
-97.4519
0
LINE
8
BLACK
6
CONTINUOUS
10
146.7
20
-97.4519
11
146.904
21
-97.4138
0
LINE
8
BLACK
6
CONTINUOUS
10
146.904
20
-97.4138
11
147.112
21
-97.4138
0
LINE
8
BLACK
6
CONTINUOUS
10
147.112
20
-97.4138
11
147.316
21
-97.4519
0
LINE
8
BLACK
6
CONTINUOUS
10
143.956
20
-96.0619
11
144.149
21
-96.1369
0
LINE
8
BLACK
6
CONTINUOUS
10
144.149
20
-96.1369
11
144.326
21
-96.2462
0
LINE
8
BLACK
6
CONTINUOUS
10
144.326
20
-96.2462
11
144.479
21
-96.3861
0
LINE
8
BLACK
6
CONTINUOUS
10
144.479
20
-96.3861
11
144.604
21
-96.5518
0
LINE
8
BLACK
6
CONTINUOUS
10
144.604
20
-96.5518
11
144.697
21
-96.7376
0
LINE
8
BLACK
6
CONTINUOUS
10
144.697
20
-96.7376
11
144.754
21
-96.9373
0
LINE
8
BLACK
6
CONTINUOUS
10
144.754
20
-96.9373
11
144.773
21
-97.144
0
LINE
8
BLACK
6
CONTINUOUS
10
144.773
20
-97.144
11
144.754
21
-97.3507
0
LINE
8
BLACK
6
CONTINUOUS
10
144.754
20
-97.3507
11
144.697
21
-97.5504
0
LINE
8
BLACK
6
CONTINUOUS
10
144.697
20
-97.5504
11
144.604
21
-97.7362
0
LINE
8
BLACK
6
CONTINUOUS
10
144.604
20
-97.7362
11
144.479
21
-97.9019
0
LINE
8
BLACK
6
CONTINUOUS
10
144.479
20
-97.9019
11
144.326
21
-98.0418
0
LINE
8
BLACK
6
CONTINUOUS
10
144.326
20
-98.0418
11
144.149
21
-98.1511
0
LINE
8
BLACK
6
CONTINUOUS
10
144.149
20
-98.1511
11
143.956
21
-98.2261
0
LINE
8
BLACK
6
CONTINUOUS
10
143.956
20
-98.2261
11
143.752
21
-98.2642
0
LINE
8
BLACK
6
CONTINUOUS
10
143.752
20
-98.2642
11
143.544
21
-98.2642
0
LINE
8
BLACK
6
CONTINUOUS
10
143.544
20
-98.2642
11
143.34
21
-98.2261
0
LINE
8
BLACK
6
CONTINUOUS
10
143.34
20
-98.2261
11
143.147
21
-98.1511
0
LINE
8
BLACK
6
CONTINUOUS
10
143.147
20
-98.1511
11
142.97
21
-98.0418
0
LINE
8
BLACK
6
CONTINUOUS
10
142.97
20
-98.0418
11
142.817
21
-97.9019
0
LINE
8
BLACK
6
CONTINUOUS
10
142.817
20
-97.9019
11
142.692
21
-97.7362
0
LINE
8
BLACK
6
CONTINUOUS
10
142.692
20
-97.7362
11
142.599
21
-97.5504
0
LINE
8
BLACK
6
CONTINUOUS
10
142.599
20
-97.5504
11
142.542
21
-97.3507
0
LINE
8
BLACK
6
CONTINUOUS
10
142.542
20
-97.3507
11
142.523
21
-97.144
0
LINE
8
BLACK
6
CONTINUOUS
10
142.523
20
-97.144
11
142.542
21
-96.9373
0
LINE
8
BLACK
6
CONTINUOUS
10
142.542
20
-96.9373
11
142.599
21
-96.7376
0
LINE
8
BLACK
6
CONTINUOUS
10
142.599
20
-96.7376
11
142.692
21
-96.5518
0
LINE
8
BLACK
6
CONTINUOUS
10
142.692
20
-96.5518
11
142.817
21
-96.3861
0
LINE
8
BLACK
6
CONTINUOUS
10
142.817
20
-96.3861
11
142.97
21
-96.2462
0
LINE
8
BLACK
6
CONTINUOUS
10
142.97
20
-96.2462
11
143.147
21
-96.1369
0
LINE
8
BLACK
6
CONTINUOUS
10
143.147
20
-96.1369
11
143.34
21
-96.0619
0
LINE
8
BLACK
6
CONTINUOUS
10
143.34
20
-96.0619
11
143.544
21
-96.0238
0
LINE
8
BLACK
6
CONTINUOUS
10
143.544
20
-96.0238
11
143.752
21
-96.0238
0
LINE
8
BLACK
6
CONTINUOUS
10
143.752
20
-96.0238
11
143.956
21
-96.0619
0
LINE
8
BLACK
6
CONTINUOUS
10
150.676
20
-96.0619
11
150.869
21
-96.1369
0
LINE
8
BLACK
6
CONTINUOUS
10
150.869
20
-96.1369
11
151.046
21
-96.2462
0
LINE
8
BLACK
6
CONTINUOUS
10
151.046
20
-96.2462
11
151.199
21
-96.3861
0
LINE
8
BLACK
6
CONTINUOUS
10
151.199
20
-96.3861
11
151.324
21
-96.5518
0
LINE
8
BLACK
6
CONTINUOUS
10
151.324
20
-96.5518
11
151.417
21
-96.7376
0
LINE
8
BLACK
6
CONTINUOUS
10
151.417
20
-96.7376
11
151.474
21
-96.9373
0
LINE
8
BLACK
6
CONTINUOUS
10
151.474
20
-96.9373
11
151.493
21
-97.144
0
LINE
8
BLACK
6
CONTINUOUS
10
151.493
20
-97.144
11
151.474
21
-97.3507
0
LINE
8
BLACK
6
CONTINUOUS
10
151.474
20
-97.3507
11
151.417
21
-97.5504
0
LINE
8
BLACK
6
CONTINUOUS
10
151.417
20
-97.5504
11
151.324
21
-97.7362
0
LINE
8
BLACK
6
CONTINUOUS
10
151.324
20
-97.7362
11
151.199
21
-97.9019
0
LINE
8
BLACK
6
CONTINUOUS
10
151.199
20
-97.9019
11
151.046
21
-98.0418
0
LINE
8
BLACK
6
CONTINUOUS
10
151.046
20
-98.0418
11
150.869
21
-98.1511
0
LINE
8
BLACK
6
CONTINUOUS
10
150.869
20
-98.1511
11
150.676
21
-98.2261
0
LINE
8
BLACK
6
CONTINUOUS
10
150.676
20
-98.2261
11
150.472
21
-98.2642
0
LINE
8
BLACK
6
CONTINUOUS
10
150.472
20
-98.2642
11
150.264
21
-98.2642
0
LINE
8
BLACK
6
CONTINUOUS
10
150.264
20
-98.2642
11
150.06
21
-98.2261
0
LINE
8
BLACK
6
CONTINUOUS
10
150.06
20
-98.2261
11
149.867
21
-98.1511
0
LINE
8
BLACK
6
CONTINUOUS
10
149.867
20
-98.1511
11
149.69
21
-98.0418
0
LINE
8
BLACK
6
CONTINUOUS
10
149.69
20
-98.0418
11
149.537
21
-97.9019
0
LINE
8
BLACK
6
CONTINUOUS
10
149.537
20
-97.9019
11
149.412
21
-97.7362
0
LINE
8
BLACK
6
CONTINUOUS
10
149.412
20
-97.7362
11
149.319
21
-97.5504
0
LINE
8
BLACK
6
CONTINUOUS
10
149.319
20
-97.5504
11
149.262
21
-97.3507
0
LINE
8
BLACK
6
CONTINUOUS
10
149.262
20
-97.3507
11
149.243
21
-97.144
0
LINE
8
BLACK
6
CONTINUOUS
10
149.243
20
-97.144
11
149.262
21
-96.9373
0
LINE
8
BLACK
6
CONTINUOUS
10
149.262
20
-96.9373
11
149.319
21
-96.7376
0
LINE
8
BLACK
6
CONTINUOUS
10
149.319
20
-96.7376
11
149.412
21
-96.5518
0
LINE
8
BLACK
6
CONTINUOUS
10
149.412
20
-96.5518
11
149.537
21
-96.3861
0
LINE
8
BLACK
6
CONTINUOUS
10
149.537
20
-96.3861
11
149.69
21
-96.2462
0
LINE
8
BLACK
6
CONTINUOUS
10
149.69
20
-96.2462
11
149.867
21
-96.1369
0
LINE
8
BLACK
6
CONTINUOUS
10
149.867
20
-96.1369
11
150.06
21
-96.0619
0
LINE
8
BLACK
6
CONTINUOUS
10
150.06
20
-96.0619
11
150.264
21
-96.0238
0
LINE
8
BLACK
6
CONTINUOUS
10
150.264
20
-96.0238
11
150.472
21
-96.0238
0
LINE
8
BLACK
6
CONTINUOUS
10
150.472
20
-96.0238
11
150.676
21
-96.0619
0
LINE
8
BLACK
6
CONTINUOUS
10
127.263
20
-95.7116
11
127.425
21
-95.7839
0
LINE
8
BLACK
6
CONTINUOUS
10
127.425
20
-95.7839
11
127.569
21
-95.8883
0
LINE
8
BLACK
6
CONTINUOUS
10
127.569
20
-95.8883
11
127.688
21
-96.0204
0
LINE
8
BLACK
6
CONTINUOUS
10
127.688
20
-96.0204
11
127.777
21
-96.1743
0
LINE
8
BLACK
6
CONTINUOUS
10
127.777
20
-96.1743
11
127.831
21
-96.3433
0
LINE
8
BLACK
6
CONTINUOUS
10
127.831
20
-96.3433
11
127.85
21
-96.52
0
LINE
8
BLACK
6
CONTINUOUS
10
127.85
20
-96.52
11
127.831
21
-96.6967
0
LINE
8
BLACK
6
CONTINUOUS
10
127.831
20
-96.6967
11
127.777
21
-96.8657
0
LINE
8
BLACK
6
CONTINUOUS
10
127.777
20
-96.8657
11
127.688
21
-97.0196
0
LINE
8
BLACK
6
CONTINUOUS
10
127.688
20
-97.0196
11
127.569
21
-97.1517
0
LINE
8
BLACK
6
CONTINUOUS
10
127.569
20
-97.1517
11
127.425
21
-97.2561
0
LINE
8
BLACK
6
CONTINUOUS
10
127.425
20
-97.2561
11
127.263
21
-97.3284
0
LINE
8
BLACK
6
CONTINUOUS
10
127.263
20
-97.3284
11
127.089
21
-97.3653
0
LINE
8
BLACK
6
CONTINUOUS
10
127.089
20
-97.3653
11
126.911
21
-97.3653
0
LINE
8
BLACK
6
CONTINUOUS
10
126.911
20
-97.3653
11
126.737
21
-97.3284
0
LINE
8
BLACK
6
CONTINUOUS
10
126.737
20
-97.3284
11
126.575
21
-97.2561
0
LINE
8
BLACK
6
CONTINUOUS
10
126.575
20
-97.2561
11
126.431
21
-97.1517
0
LINE
8
BLACK
6
CONTINUOUS
10
126.431
20
-97.1517
11
126.312
21
-97.0196
0
LINE
8
BLACK
6
CONTINUOUS
10
126.312
20
-97.0196
11
126.223
21
-96.8657
0
LINE
8
BLACK
6
CONTINUOUS
10
126.223
20
-96.8657
11
126.169
21
-96.6967
0
LINE
8
BLACK
6
CONTINUOUS
10
126.169
20
-96.6967
11
126.15
21
-96.52
0
LINE
8
BLACK
6
CONTINUOUS
10
126.15
20
-96.52
11
126.169
21
-96.3433
0
LINE
8
BLACK
6
CONTINUOUS
10
126.169
20
-96.3433
11
126.223
21
-96.1743
0
LINE
8
BLACK
6
CONTINUOUS
10
126.223
20
-96.1743
11
126.312
21
-96.0204
0
LINE
8
BLACK
6
CONTINUOUS
10
126.312
20
-96.0204
11
126.431
21
-95.8883
0
LINE
8
BLACK
6
CONTINUOUS
10
126.431
20
-95.8883
11
126.575
21
-95.7839
0
LINE
8
BLACK
6
CONTINUOUS
10
126.575
20
-95.7839
11
126.737
21
-95.7116
0
LINE
8
BLACK
6
CONTINUOUS
10
126.737
20
-95.7116
11
126.911
21
-95.6747
0
LINE
8
BLACK
6
CONTINUOUS
10
126.911
20
-95.6747
11
127.089
21
-95.6747
0
LINE
8
BLACK
6
CONTINUOUS
10
127.089
20
-95.6747
11
127.263
21
-95.7116
0
LINE
8
BLACK
6
CONTINUOUS
10
161.648
20
-90.8001
11
162.002
21
-90.8602
0
LINE
8
BLACK
6
CONTINUOUS
10
162.002
20
-90.8602
11
162.347
21
-90.9596
0
LINE
8
BLACK
6
CONTINUOUS
10
162.347
20
-90.9596
11
162.678
21
-91.0969
0
LINE
8
BLACK
6
CONTINUOUS
10
162.678
20
-91.0969
11
162.993
21
-91.2705
0
LINE
8
BLACK
6
CONTINUOUS
10
162.993
20
-91.2705
11
163.285
21
-91.4781
0
LINE
8
BLACK
6
CONTINUOUS
10
163.285
20
-91.4781
11
163.553
21
-91.7173
0
LINE
8
BLACK
6
CONTINUOUS
10
163.553
20
-91.7173
11
163.792
21
-91.9848
0
LINE
8
BLACK
6
CONTINUOUS
10
163.792
20
-91.9848
11
164
21
-92.2775
0
LINE
8
BLACK
6
CONTINUOUS
10
164
20
-92.2775
11
164.173
21
-92.5916
0
LINE
8
BLACK
6
CONTINUOUS
10
164.173
20
-92.5916
11
164.31
21
-92.9231
0
LINE
8
BLACK
6
CONTINUOUS
10
164.31
20
-92.9231
11
164.41
21
-93.2679
0
LINE
8
BLACK
6
CONTINUOUS
10
164.41
20
-93.2679
11
164.47
21
-93.6217
0
LINE
8
BLACK
6
CONTINUOUS
10
164.47
20
-93.6217
11
164.49
21
-93.98
0
LINE
8
BLACK
6
CONTINUOUS
10
164.49
20
-93.98
11
164.47
21
-94.3383
0
LINE
8
BLACK
6
CONTINUOUS
10
164.47
20
-94.3383
11
164.41
21
-94.6921
0
LINE
8
BLACK
6
CONTINUOUS
10
164.41
20
-94.6921
11
164.31
21
-95.0369
0
LINE
8
BLACK
6
CONTINUOUS
10
164.31
20
-95.0369
11
164.173
21
-95.3684
0
LINE
8
BLACK
6
CONTINUOUS
10
164.173
20
-95.3684
11
164
21
-95.6825
0
LINE
8
BLACK
6
CONTINUOUS
10
164
20
-95.6825
11
163.792
21
-95.9752
0
LINE
8
BLACK
6
CONTINUOUS
10
163.792
20
-95.9752
11
163.553
21
-96.2427
0
LINE
8
BLACK
6
CONTINUOUS
10
163.553
20
-96.2427
11
163.285
21
-96.4819
0
LINE
8
BLACK
6
CONTINUOUS
10
163.285
20
-96.4819
11
162.993
21
-96.6895
0
LINE
8
BLACK
6
CONTINUOUS
10
162.993
20
-96.6895
11
162.678
21
-96.8631
0
LINE
8
BLACK
6
CONTINUOUS
10
162.678
20
-96.8631
11
162.347
21
-97.0004
0
LINE
8
BLACK
6
CONTINUOUS
10
162.347
20
-97.0004
11
162.002
21
-97.0998
0
LINE
8
BLACK
6
CONTINUOUS
10
162.002
20
-97.0998
11
161.648
21
-97.1599
0
LINE
8
BLACK
6
CONTINUOUS
10
161.648
20
-97.1599
11
161.29
21
-97.18
0
LINE
8
BLACK
6
CONTINUOUS
10
161.29
20
-97.18
11
160.932
21
-97.1599
0
LINE
8
BLACK
6
CONTINUOUS
10
160.932
20
-97.1599
11
160.578
21
-97.0998
0
LINE
8
BLACK
6
CONTINUOUS
10
160.578
20
-97.0998
11
160.233
21
-97.0004
0
LINE
8
BLACK
6
CONTINUOUS
10
160.233
20
-97.0004
11
159.902
21
-96.8631
0
LINE
8
BLACK
6
CONTINUOUS
10
159.902
20
-96.8631
11
159.587
21
-96.6895
0
LINE
8
BLACK
6
CONTINUOUS
10
159.587
20
-96.6895
11
159.295
21
-96.4819
0
LINE
8
BLACK
6
CONTINUOUS
10
159.295
20
-96.4819
11
159.027
21
-96.2427
0
LINE
8
BLACK
6
CONTINUOUS
10
159.027
20
-96.2427
11
158.788
21
-95.9752
0
LINE
8
BLACK
6
CONTINUOUS
10
158.788
20
-95.9752
11
158.58
21
-95.6825
0
LINE
8
BLACK
6
CONTINUOUS
10
158.58
20
-95.6825
11
158.407
21
-95.3684
0
LINE
8
BLACK
6
CONTINUOUS
10
158.407
20
-95.3684
11
158.27
21
-95.0369
0
LINE
8
BLACK
6
CONTINUOUS
10
158.27
20
-95.0369
11
158.17
21
-94.6921
0
LINE
8
BLACK
6
CONTINUOUS
10
158.17
20
-94.6921
11
158.11
21
-94.3383
0
LINE
8
BLACK
6
CONTINUOUS
10
158.11
20
-94.3383
11
158.09
21
-93.98
0
LINE
8
BLACK
6
CONTINUOUS
10
158.09
20
-93.98
11
158.11
21
-93.6217
0
LINE
8
BLACK
6
CONTINUOUS
10
158.11
20
-93.6217
11
158.17
21
-93.2679
0
LINE
8
BLACK
6
CONTINUOUS
10
158.17
20
-93.2679
11
158.27
21
-92.9231
0
LINE
8
BLACK
6
CONTINUOUS
10
158.27
20
-92.9231
11
158.407
21
-92.5916
0
LINE
8
BLACK
6
CONTINUOUS
10
158.407
20
-92.5916
11
158.58
21
-92.2775
0
LINE
8
BLACK
6
CONTINUOUS
10
158.58
20
-92.2775
11
158.788
21
-91.9848
0
LINE
8
BLACK
6
CONTINUOUS
10
158.788
20
-91.9848
11
159.027
21
-91.7173
0
LINE
8
BLACK
6
CONTINUOUS
10
159.027
20
-91.7173
11
159.295
21
-91.4781
0
LINE
8
BLACK
6
CONTINUOUS
10
159.295
20
-91.4781
11
159.587
21
-91.2705
0
LINE
8
BLACK
6
CONTINUOUS
10
159.587
20
-91.2705
11
159.902
21
-91.0969
0
LINE
8
BLACK
6
CONTINUOUS
10
159.902
20
-91.0969
11
160.233
21
-90.9596
0
LINE
8
BLACK
6
CONTINUOUS
10
160.233
20
-90.9596
11
160.578
21
-90.8602
0
LINE
8
BLACK
6
CONTINUOUS
10
160.578
20
-90.8602
11
160.932
21
-90.8001
0
LINE
8
BLACK
6
CONTINUOUS
10
160.932
20
-90.8001
11
161.29
21
-90.78
0
LINE
8
BLACK
6
CONTINUOUS
10
161.29
20
-90.78
11
161.648
21
-90.8001
0
LINE
8
BLACK
6
CONTINUOUS
10
130.794
20
-93.883
11
130.875
21
-93.9372
0
LINE
8
BLACK
6
CONTINUOUS
10
130.875
20
-93.9372
11
130.929
21
-94.0183
0
LINE
8
BLACK
6
CONTINUOUS
10
130.929
20
-94.0183
11
130.948
21
-94.114
0
LINE
8
BLACK
6
CONTINUOUS
10
130.948
20
-94.114
11
130.948
21
-94.939
0
LINE
8
BLACK
6
CONTINUOUS
10
130.948
20
-94.939
11
130.929
21
-95.0347
0
LINE
8
BLACK
6
CONTINUOUS
10
130.929
20
-95.0347
11
130.875
21
-95.1158
0
LINE
8
BLACK
6
CONTINUOUS
10
130.875
20
-95.1158
11
130.794
21
-95.17
0
LINE
8
BLACK
6
CONTINUOUS
10
130.794
20
-95.17
11
130.698
21
-95.189
0
LINE
8
BLACK
6
CONTINUOUS
10
130.698
20
-95.189
11
129.398
21
-95.189
0
LINE
8
BLACK
6
CONTINUOUS
10
129.398
20
-95.189
11
129.302
21
-95.17
0
LINE
8
BLACK
6
CONTINUOUS
10
129.302
20
-95.17
11
129.221
21
-95.1158
0
LINE
8
BLACK
6
CONTINUOUS
10
129.221
20
-95.1158
11
129.167
21
-95.0347
0
LINE
8
BLACK
6
CONTINUOUS
10
129.167
20
-95.0347
11
129.148
21
-94.939
0
LINE
8
BLACK
6
CONTINUOUS
10
129.148
20
-94.939
11
129.148
21
-94.114
0
LINE
8
BLACK
6
CONTINUOUS
10
129.148
20
-94.114
11
129.167
21
-94.0183
0
LINE
8
BLACK
6
CONTINUOUS
10
129.167
20
-94.0183
11
129.221
21
-93.9372
0
LINE
8
BLACK
6
CONTINUOUS
10
129.221
20
-93.9372
11
129.302
21
-93.883
0
LINE
8
BLACK
6
CONTINUOUS
10
129.302
20
-93.883
11
129.398
21
-93.864
0
LINE
8
BLACK
6
CONTINUOUS
10
129.398
20
-93.864
11
130.698
21
-93.864
0
LINE
8
BLACK
6
CONTINUOUS
10
130.698
20
-93.864
11
130.794
21
-93.883
0
LINE
8
BLACK
6
CONTINUOUS
10
133.588
20
-93.883
11
133.669
21
-93.9372
0
LINE
8
BLACK
6
CONTINUOUS
10
133.669
20
-93.9372
11
133.723
21
-94.0183
0
LINE
8
BLACK
6
CONTINUOUS
10
133.723
20
-94.0183
11
133.742
21
-94.114
0
LINE
8
BLACK
6
CONTINUOUS
10
133.742
20
-94.114
11
133.742
21
-94.939
0
LINE
8
BLACK
6
CONTINUOUS
10
133.742
20
-94.939
11
133.723
21
-95.0347
0
LINE
8
BLACK
6
CONTINUOUS
10
133.723
20
-95.0347
11
133.669
21
-95.1158
0
LINE
8
BLACK
6
CONTINUOUS
10
133.669
20
-95.1158
11
133.588
21
-95.17
0
LINE
8
BLACK
6
CONTINUOUS
10
133.588
20
-95.17
11
133.492
21
-95.189
0
LINE
8
BLACK
6
CONTINUOUS
10
133.492
20
-95.189
11
132.192
21
-95.189
0
LINE
8
BLACK
6
CONTINUOUS
10
132.192
20
-95.189
11
132.096
21
-95.17
0
LINE
8
BLACK
6
CONTINUOUS
10
132.096
20
-95.17
11
132.015
21
-95.1158
0
LINE
8
BLACK
6
CONTINUOUS
10
132.015
20
-95.1158
11
131.961
21
-95.0347
0
LINE
8
BLACK
6
CONTINUOUS
10
131.961
20
-95.0347
11
131.942
21
-94.939
0
LINE
8
BLACK
6
CONTINUOUS
10
131.942
20
-94.939
11
131.942
21
-94.114
0
LINE
8
BLACK
6
CONTINUOUS
10
131.942
20
-94.114
11
131.961
21
-94.0183
0
LINE
8
BLACK
6
CONTINUOUS
10
131.961
20
-94.0183
11
132.015
21
-93.9372
0
LINE
8
BLACK
6
CONTINUOUS
10
132.015
20
-93.9372
11
132.096
21
-93.883
0
LINE
8
BLACK
6
CONTINUOUS
10
132.096
20
-93.883
11
132.192
21
-93.864
0
LINE
8
BLACK
6
CONTINUOUS
10
132.192
20
-93.864
11
133.492
21
-93.864
0
LINE
8
BLACK
6
CONTINUOUS
10
133.492
20
-93.864
11
133.588
21
-93.883
0
LINE
8
BLACK
6
CONTINUOUS
10
136.357
20
-93.883
11
136.438
21
-93.9372
0
LINE
8
BLACK
6
CONTINUOUS
10
136.438
20
-93.9372
11
136.492
21
-94.0183
0
LINE
8
BLACK
6
CONTINUOUS
10
136.492
20
-94.0183
11
136.511
21
-94.114
0
LINE
8
BLACK
6
CONTINUOUS
10
136.511
20
-94.114
11
136.511
21
-94.914
0
LINE
8
BLACK
6
CONTINUOUS
10
136.511
20
-94.914
11
136.492
21
-95.0097
0
LINE
8
BLACK
6
CONTINUOUS
10
136.492
20
-95.0097
11
136.438
21
-95.0908
0
LINE
8
BLACK
6
CONTINUOUS
10
136.438
20
-95.0908
11
136.357
21
-95.145
0
LINE
8
BLACK
6
CONTINUOUS
10
136.357
20
-95.145
11
136.261
21
-95.164
0
LINE
8
BLACK
6
CONTINUOUS
10
136.261
20
-95.164
11
135.011
21
-95.164
0
LINE
8
BLACK
6
CONTINUOUS
10
135.011
20
-95.164
11
134.915
21
-95.145
0
LINE
8
BLACK
6
CONTINUOUS
10
134.915
20
-95.145
11
134.834
21
-95.0908
0
LINE
8
BLACK
6
CONTINUOUS
10
134.834
20
-95.0908
11
134.78
21
-95.0097
0
LINE
8
BLACK
6
CONTINUOUS
10
134.78
20
-95.0097
11
134.761
21
-94.914
0
LINE
8
BLACK
6
CONTINUOUS
10
134.761
20
-94.914
11
134.761
21
-94.114
0
LINE
8
BLACK
6
CONTINUOUS
10
134.761
20
-94.114
11
134.78
21
-94.0183
0
LINE
8
BLACK
6
CONTINUOUS
10
134.78
20
-94.0183
11
134.834
21
-93.9372
0
LINE
8
BLACK
6
CONTINUOUS
10
134.834
20
-93.9372
11
134.915
21
-93.883
0
LINE
8
BLACK
6
CONTINUOUS
10
134.915
20
-93.883
11
135.011
21
-93.864
0
LINE
8
BLACK
6
CONTINUOUS
10
135.011
20
-93.864
11
136.261
21
-93.864
0
LINE
8
BLACK
6
CONTINUOUS
10
136.261
20
-93.864
11
136.357
21
-93.883
0
LINE
8
BLACK
6
CONTINUOUS
10
127.263
20
-93.1716
11
127.425
21
-93.2439
0
LINE
8
BLACK
6
CONTINUOUS
10
127.425
20
-93.2439
11
127.569
21
-93.3483
0
LINE
8
BLACK
6
CONTINUOUS
10
127.569
20
-93.3483
11
127.688
21
-93.4804
0
LINE
8
BLACK
6
CONTINUOUS
10
127.688
20
-93.4804
11
127.777
21
-93.6343
0
LINE
8
BLACK
6
CONTINUOUS
10
127.777
20
-93.6343
11
127.831
21
-93.8033
0
LINE
8
BLACK
6
CONTINUOUS
10
127.831
20
-93.8033
11
127.85
21
-93.98
0
LINE
8
BLACK
6
CONTINUOUS
10
127.85
20
-93.98
11
127.831
21
-94.1567
0
LINE
8
BLACK
6
CONTINUOUS
10
127.831
20
-94.1567
11
127.777
21
-94.3257
0
LINE
8
BLACK
6
CONTINUOUS
10
127.777
20
-94.3257
11
127.688
21
-94.4796
0
LINE
8
BLACK
6
CONTINUOUS
10
127.688
20
-94.4796
11
127.569
21
-94.6117
0
LINE
8
BLACK
6
CONTINUOUS
10
127.569
20
-94.6117
11
127.425
21
-94.7161
0
LINE
8
BLACK
6
CONTINUOUS
10
127.425
20
-94.7161
11
127.263
21
-94.7884
0
LINE
8
BLACK
6
CONTINUOUS
10
127.263
20
-94.7884
11
127.089
21
-94.8253
0
LINE
8
BLACK
6
CONTINUOUS
10
127.089
20
-94.8253
11
126.911
21
-94.8253
0
LINE
8
BLACK
6
CONTINUOUS
10
126.911
20
-94.8253
11
126.737
21
-94.7884
0
LINE
8
BLACK
6
CONTINUOUS
10
126.737
20
-94.7884
11
126.575
21
-94.7161
0
LINE
8
BLACK
6
CONTINUOUS
10
126.575
20
-94.7161
11
126.431
21
-94.6117
0
LINE
8
BLACK
6
CONTINUOUS
10
126.431
20
-94.6117
11
126.312
21
-94.4796
0
LINE
8
BLACK
6
CONTINUOUS
10
126.312
20
-94.4796
11
126.223
21
-94.3257
0
LINE
8
BLACK
6
CONTINUOUS
10
126.223
20
-94.3257
11
126.169
21
-94.1567
0
LINE
8
BLACK
6
CONTINUOUS
10
126.169
20
-94.1567
11
126.15
21
-93.98
0
LINE
8
BLACK
6
CONTINUOUS
10
126.15
20
-93.98
11
126.169
21
-93.8033
0
LINE
8
BLACK
6
CONTINUOUS
10
126.169
20
-93.8033
11
126.223
21
-93.6343
0
LINE
8
BLACK
6
CONTINUOUS
10
126.223
20
-93.6343
11
126.312
21
-93.4804
0
LINE
8
BLACK
6
CONTINUOUS
10
126.312
20
-93.4804
11
126.431
21
-93.3483
0
LINE
8
BLACK
6
CONTINUOUS
10
126.431
20
-93.3483
11
126.575
21
-93.2439
0
LINE
8
BLACK
6
CONTINUOUS
10
126.575
20
-93.2439
11
126.737
21
-93.1716
0
LINE
8
BLACK
6
CONTINUOUS
10
126.737
20
-93.1716
11
126.911
21
-93.1347
0
LINE
8
BLACK
6
CONTINUOUS
10
126.911
20
-93.1347
11
127.089
21
-93.1347
0
LINE
8
BLACK
6
CONTINUOUS
10
127.089
20
-93.1347
11
127.263
21
-93.1716
0
LINE
8
BLACK
6
CONTINUOUS
10
127.85
20
-92.29
11
126.15
21
-92.29
0
LINE
8
BLACK
6
CONTINUOUS
10
126.15
20
-92.29
11
126.15
21
-90.59
0
LINE
8
BLACK
6
CONTINUOUS
10
126.15
20
-90.59
11
127.85
21
-90.59
0
LINE
8
BLACK
6
CONTINUOUS
10
127.85
20
-90.59
11
127.85
21
-92.29
0
LINE
8
BLACK
6
CONTINUOUS
10
130.794
20
-90.758
11
130.875
21
-90.8122
0
LINE
8
BLACK
6
CONTINUOUS
10
130.875
20
-90.8122
11
130.929
21
-90.8933
0
LINE
8
BLACK
6
CONTINUOUS
10
130.929
20
-90.8933
11
130.948
21
-90.989
0
LINE
8
BLACK
6
CONTINUOUS
10
130.948
20
-90.989
11
130.948
21
-91.814
0
LINE
8
BLACK
6
CONTINUOUS
10
130.948
20
-91.814
11
130.929
21
-91.9097
0
LINE
8
BLACK
6
CONTINUOUS
10
130.929
20
-91.9097
11
130.875
21
-91.9908
0
LINE
8
BLACK
6
CONTINUOUS
10
130.875
20
-91.9908
11
130.794
21
-92.045
0
LINE
8
BLACK
6
CONTINUOUS
10
130.794
20
-92.045
11
130.698
21
-92.064
0
LINE
8
BLACK
6
CONTINUOUS
10
130.698
20
-92.064
11
129.398
21
-92.064
0
LINE
8
BLACK
6
CONTINUOUS
10
129.398
20
-92.064
11
129.302
21
-92.045
0
LINE
8
BLACK
6
CONTINUOUS
10
129.302
20
-92.045
11
129.221
21
-91.9908
0
LINE
8
BLACK
6
CONTINUOUS
10
129.221
20
-91.9908
11
129.167
21
-91.9097
0
LINE
8
BLACK
6
CONTINUOUS
10
129.167
20
-91.9097
11
129.148
21
-91.814
0
LINE
8
BLACK
6
CONTINUOUS
10
129.148
20
-91.814
11
129.148
21
-90.989
0
LINE
8
BLACK
6
CONTINUOUS
10
129.148
20
-90.989
11
129.167
21
-90.8933
0
LINE
8
BLACK
6
CONTINUOUS
10
129.167
20
-90.8933
11
129.221
21
-90.8122
0
LINE
8
BLACK
6
CONTINUOUS
10
129.221
20
-90.8122
11
129.302
21
-90.758
0
LINE
8
BLACK
6
CONTINUOUS
10
129.302
20
-90.758
11
129.398
21
-90.739
0
LINE
8
BLACK
6
CONTINUOUS
10
129.398
20
-90.739
11
130.698
21
-90.739
0
LINE
8
BLACK
6
CONTINUOUS
10
130.698
20
-90.739
11
130.794
21
-90.758
0
LINE
8
BLACK
6
CONTINUOUS
10
133.588
20
-90.758
11
133.669
21
-90.8122
0
LINE
8
BLACK
6
CONTINUOUS
10
133.669
20
-90.8122
11
133.723
21
-90.8933
0
LINE
8
BLACK
6
CONTINUOUS
10
133.723
20
-90.8933
11
133.742
21
-90.989
0
LINE
8
BLACK
6
CONTINUOUS
10
133.742
20
-90.989
11
133.742
21
-91.814
0
LINE
8
BLACK
6
CONTINUOUS
10
133.742
20
-91.814
11
133.723
21
-91.9097
0
LINE
8
BLACK
6
CONTINUOUS
10
133.723
20
-91.9097
11
133.669
21
-91.9908
0
LINE
8
BLACK
6
CONTINUOUS
10
133.669
20
-91.9908
11
133.588
21
-92.045
0
LINE
8
BLACK
6
CONTINUOUS
10
133.588
20
-92.045
11
133.492
21
-92.064
0
LINE
8
BLACK
6
CONTINUOUS
10
133.492
20
-92.064
11
132.192
21
-92.064
0
LINE
8
BLACK
6
CONTINUOUS
10
132.192
20
-92.064
11
132.096
21
-92.045
0
LINE
8
BLACK
6
CONTINUOUS
10
132.096
20
-92.045
11
132.015
21
-91.9908
0
LINE
8
BLACK
6
CONTINUOUS
10
132.015
20
-91.9908
11
131.961
21
-91.9097
0
LINE
8
BLACK
6
CONTINUOUS
10
131.961
20
-91.9097
11
131.942
21
-91.814
0
LINE
8
BLACK
6
CONTINUOUS
10
131.942
20
-91.814
11
131.942
21
-90.989
0
LINE
8
BLACK
6
CONTINUOUS
10
131.942
20
-90.989
11
131.961
21
-90.8933
0
LINE
8
BLACK
6
CONTINUOUS
10
131.961
20
-90.8933
11
132.015
21
-90.8122
0
LINE
8
BLACK
6
CONTINUOUS
10
132.015
20
-90.8122
11
132.096
21
-90.758
0
LINE
8
BLACK
6
CONTINUOUS
10
132.096
20
-90.758
11
132.192
21
-90.739
0
LINE
8
BLACK
6
CONTINUOUS
10
132.192
20
-90.739
11
133.492
21
-90.739
0
LINE
8
BLACK
6
CONTINUOUS
10
133.492
20
-90.739
11
133.588
21
-90.758
0
LINE
8
BLACK
6
CONTINUOUS
10
136.357
20
-90.783
11
136.438
21
-90.8372
0
LINE
8
BLACK
6
CONTINUOUS
10
136.438
20
-90.8372
11
136.492
21
-90.9183
0
LINE
8
BLACK
6
CONTINUOUS
10
136.492
20
-90.9183
11
136.511
21
-91.014
0
LINE
8
BLACK
6
CONTINUOUS
10
136.511
20
-91.014
11
136.511
21
-91.814
0
LINE
8
BLACK
6
CONTINUOUS
10
136.511
20
-91.814
11
136.492
21
-91.9097
0
LINE
8
BLACK
6
CONTINUOUS
10
136.492
20
-91.9097
11
136.438
21
-91.9908
0
LINE
8
BLACK
6
CONTINUOUS
10
136.438
20
-91.9908
11
136.357
21
-92.045
0
LINE
8
BLACK
6
CONTINUOUS
10
136.357
20
-92.045
11
136.261
21
-92.064
0
LINE
8
BLACK
6
CONTINUOUS
10
136.261
20
-92.064
11
135.011
21
-92.064
0
LINE
8
BLACK
6
CONTINUOUS
10
135.011
20
-92.064
11
134.915
21
-92.045
0
LINE
8
BLACK
6
CONTINUOUS
10
134.915
20
-92.045
11
134.834
21
-91.9908
0
LINE
8
BLACK
6
CONTINUOUS
10
134.834
20
-91.9908
11
134.78
21
-91.9097
0
LINE
8
BLACK
6
CONTINUOUS
10
134.78
20
-91.9097
11
134.761
21
-91.814
0
LINE
8
BLACK
6
CONTINUOUS
10
134.761
20
-91.814
11
134.761
21
-91.014
0
LINE
8
BLACK
6
CONTINUOUS
10
134.761
20
-91.014
11
134.78
21
-90.9183
0
LINE
8
BLACK
6
CONTINUOUS
10
134.78
20
-90.9183
11
134.834
21
-90.8372
0
LINE
8
BLACK
6
CONTINUOUS
10
134.834
20
-90.8372
11
134.915
21
-90.783
0
LINE
8
BLACK
6
CONTINUOUS
10
134.915
20
-90.783
11
135.011
21
-90.764
0
LINE
8
BLACK
6
CONTINUOUS
10
135.011
20
-90.764
11
136.261
21
-90.764
0
LINE
8
BLACK
6
CONTINUOUS
10
136.261
20
-90.764
11
136.357
21
-90.783
0
LINE
8
BLACK
6
CONTINUOUS
10
151.493
20
-91.549
11
149.243
21
-91.549
0
LINE
8
BLACK
6
CONTINUOUS
10
149.243
20
-91.549
11
149.243
21
-89.299
0
LINE
8
BLACK
6
CONTINUOUS
10
149.243
20
-89.299
11
151.493
21
-89.299
0
LINE
8
BLACK
6
CONTINUOUS
10
151.493
20
-89.299
11
151.493
21
-91.549
0
LINE
8
BLACK
6
CONTINUOUS
10
143.956
20
-89.3419
11
144.149
21
-89.4169
0
LINE
8
BLACK
6
CONTINUOUS
10
144.149
20
-89.4169
11
144.326
21
-89.5262
0
LINE
8
BLACK
6
CONTINUOUS
10
144.326
20
-89.5262
11
144.479
21
-89.6661
0
LINE
8
BLACK
6
CONTINUOUS
10
144.479
20
-89.6661
11
144.604
21
-89.8318
0
LINE
8
BLACK
6
CONTINUOUS
10
144.604
20
-89.8318
11
144.697
21
-90.0176
0
LINE
8
BLACK
6
CONTINUOUS
10
144.697
20
-90.0176
11
144.754
21
-90.2173
0
LINE
8
BLACK
6
CONTINUOUS
10
144.754
20
-90.2173
11
144.773
21
-90.424
0
LINE
8
BLACK
6
CONTINUOUS
10
144.773
20
-90.424
11
144.754
21
-90.6307
0
LINE
8
BLACK
6
CONTINUOUS
10
144.754
20
-90.6307
11
144.697
21
-90.8304
0
LINE
8
BLACK
6
CONTINUOUS
10
144.697
20
-90.8304
11
144.604
21
-91.0162
0
LINE
8
BLACK
6
CONTINUOUS
10
144.604
20
-91.0162
11
144.479
21
-91.1819
0
LINE
8
BLACK
6
CONTINUOUS
10
144.479
20
-91.1819
11
144.326
21
-91.3218
0
LINE
8
BLACK
6
CONTINUOUS
10
144.326
20
-91.3218
11
144.149
21
-91.4311
0
LINE
8
BLACK
6
CONTINUOUS
10
144.149
20
-91.4311
11
143.956
21
-91.5061
0
LINE
8
BLACK
6
CONTINUOUS
10
143.956
20
-91.5061
11
143.752
21
-91.5442
0
LINE
8
BLACK
6
CONTINUOUS
10
143.752
20
-91.5442
11
143.544
21
-91.5442
0
LINE
8
BLACK
6
CONTINUOUS
10
143.544
20
-91.5442
11
143.34
21
-91.5061
0
LINE
8
BLACK
6
CONTINUOUS
10
143.34
20
-91.5061
11
143.147
21
-91.4311
0
LINE
8
BLACK
6
CONTINUOUS
10
143.147
20
-91.4311
11
142.97
21
-91.3218
0
LINE
8
BLACK
6
CONTINUOUS
10
142.97
20
-91.3218
11
142.817
21
-91.1819
0
LINE
8
BLACK
6
CONTINUOUS
10
142.817
20
-91.1819
11
142.692
21
-91.0162
0
LINE
8
BLACK
6
CONTINUOUS
10
142.692
20
-91.0162
11
142.599
21
-90.8304
0
LINE
8
BLACK
6
CONTINUOUS
10
142.599
20
-90.8304
11
142.542
21
-90.6307
0
LINE
8
BLACK
6
CONTINUOUS
10
142.542
20
-90.6307
11
142.523
21
-90.424
0
LINE
8
BLACK
6
CONTINUOUS
10
142.523
20
-90.424
11
142.542
21
-90.2173
0
LINE
8
BLACK
6
CONTINUOUS
10
142.542
20
-90.2173
11
142.599
21
-90.0176
0
LINE
8
BLACK
6
CONTINUOUS
10
142.599
20
-90.0176
11
142.692
21
-89.8318
0
LINE
8
BLACK
6
CONTINUOUS
10
142.692
20
-89.8318
11
142.817
21
-89.6661
0
LINE
8
BLACK
6
CONTINUOUS
10
142.817
20
-89.6661
11
142.97
21
-89.5262
0
LINE
8
BLACK
6
CONTINUOUS
10
142.97
20
-89.5262
11
143.147
21
-89.4169
0
LINE
8
BLACK
6
CONTINUOUS
10
143.147
20
-89.4169
11
143.34
21
-89.3419
0
LINE
8
BLACK
6
CONTINUOUS
10
143.34
20
-89.3419
11
143.544
21
-89.3038
0
LINE
8
BLACK
6
CONTINUOUS
10
143.544
20
-89.3038
11
143.752
21
-89.3038
0
LINE
8
BLACK
6
CONTINUOUS
10
143.752
20
-89.3038
11
143.956
21
-89.3419
0
LINE
8
BLACK
6
CONTINUOUS
10
147.316
20
-87.9519
11
147.509
21
-88.0269
0
LINE
8
BLACK
6
CONTINUOUS
10
147.509
20
-88.0269
11
147.686
21
-88.1362
0
LINE
8
BLACK
6
CONTINUOUS
10
147.686
20
-88.1362
11
147.839
21
-88.2761
0
LINE
8
BLACK
6
CONTINUOUS
10
147.839
20
-88.2761
11
147.964
21
-88.4418
0
LINE
8
BLACK
6
CONTINUOUS
10
147.964
20
-88.4418
11
148.057
21
-88.6276
0
LINE
8
BLACK
6
CONTINUOUS
10
148.057
20
-88.6276
11
148.114
21
-88.8273
0
LINE
8
BLACK
6
CONTINUOUS
10
148.114
20
-88.8273
11
148.133
21
-89.034
0
LINE
8
BLACK
6
CONTINUOUS
10
148.133
20
-89.034
11
148.114
21
-89.2407
0
LINE
8
BLACK
6
CONTINUOUS
10
148.114
20
-89.2407
11
148.057
21
-89.4404
0
LINE
8
BLACK
6
CONTINUOUS
10
148.057
20
-89.4404
11
147.964
21
-89.6262
0
LINE
8
BLACK
6
CONTINUOUS
10
147.964
20
-89.6262
11
147.839
21
-89.7919
0
LINE
8
BLACK
6
CONTINUOUS
10
147.839
20
-89.7919
11
147.686
21
-89.9318
0
LINE
8
BLACK
6
CONTINUOUS
10
147.686
20
-89.9318
11
147.509
21
-90.0411
0
LINE
8
BLACK
6
CONTINUOUS
10
147.509
20
-90.0411
11
147.316
21
-90.1161
0
LINE
8
BLACK
6
CONTINUOUS
10
147.316
20
-90.1161
11
147.112
21
-90.1542
0
LINE
8
BLACK
6
CONTINUOUS
10
147.112
20
-90.1542
11
146.904
21
-90.1542
0
LINE
8
BLACK
6
CONTINUOUS
10
146.904
20
-90.1542
11
146.7
21
-90.1161
0
LINE
8
BLACK
6
CONTINUOUS
10
146.7
20
-90.1161
11
146.507
21
-90.0411
0
LINE
8
BLACK
6
CONTINUOUS
10
146.507
20
-90.0411
11
146.33
21
-89.9318
0
LINE
8
BLACK
6
CONTINUOUS
10
146.33
20
-89.9318
11
146.177
21
-89.7919
0
LINE
8
BLACK
6
CONTINUOUS
10
146.177
20
-89.7919
11
146.052
21
-89.6262
0
LINE
8
BLACK
6
CONTINUOUS
10
146.052
20
-89.6262
11
145.959
21
-89.4404
0
LINE
8
BLACK
6
CONTINUOUS
10
145.959
20
-89.4404
11
145.902
21
-89.2407
0
LINE
8
BLACK
6
CONTINUOUS
10
145.902
20
-89.2407
11
145.883
21
-89.034
0
LINE
8
BLACK
6
CONTINUOUS
10
145.883
20
-89.034
11
145.902
21
-88.8273
0
LINE
8
BLACK
6
CONTINUOUS
10
145.902
20
-88.8273
11
145.959
21
-88.6276
0
LINE
8
BLACK
6
CONTINUOUS
10
145.959
20
-88.6276
11
146.052
21
-88.4418
0
LINE
8
BLACK
6
CONTINUOUS
10
146.052
20
-88.4418
11
146.177
21
-88.2761
0
LINE
8
BLACK
6
CONTINUOUS
10
146.177
20
-88.2761
11
146.33
21
-88.1362
0
LINE
8
BLACK
6
CONTINUOUS
10
146.33
20
-88.1362
11
146.507
21
-88.0269
0
LINE
8
BLACK
6
CONTINUOUS
10
146.507
20
-88.0269
11
146.7
21
-87.9519
0
LINE
8
BLACK
6
CONTINUOUS
10
146.7
20
-87.9519
11
146.904
21
-87.9138
0
LINE
8
BLACK
6
CONTINUOUS
10
146.904
20
-87.9138
11
147.112
21
-87.9138
0
LINE
8
BLACK
6
CONTINUOUS
10
147.112
20
-87.9138
11
147.316
21
-87.9519
  0
ENDSEC
  0
EOF
