%TF.GenerationSoftware,KiCad,Pcbnew,8.0.3*%
%TF.CreationDate,2024-11-13T10:17:17-07:00*%
%TF.ProjectId,EcoCar Canbus V4,45636f43-6172-4204-9361-6e6275732056,rev?*%
%TF.SameCoordinates,Original*%
%TF.FileFunction,Legend,Bot*%
%TF.FilePolarity,Positive*%
%FSLAX46Y46*%
G04 Gerber Fmt 4.6, Leading zero omitted, Abs format (unit mm)*
G04 Created by KiCad (PCBNEW 8.0.3) date 2024-11-13 10:17:17*
%MOMM*%
%LPD*%
G01*
G04 APERTURE LIST*
%ADD10C,0.150000*%
%ADD11C,0.800000*%
%ADD12C,7.000000*%
%ADD13C,4.500000*%
%ADD14O,1.500000X2.000000*%
%ADD15C,6.000000*%
%ADD16O,2.000000X1.500000*%
G04 APERTURE END LIST*
D10*
X153190478Y-122747438D02*
X153190478Y-120747438D01*
X153190478Y-120747438D02*
X152714288Y-120747438D01*
X152714288Y-120747438D02*
X152428573Y-120842676D01*
X152428573Y-120842676D02*
X152238097Y-121033152D01*
X152238097Y-121033152D02*
X152142859Y-121223628D01*
X152142859Y-121223628D02*
X152047621Y-121604580D01*
X152047621Y-121604580D02*
X152047621Y-121890295D01*
X152047621Y-121890295D02*
X152142859Y-122271247D01*
X152142859Y-122271247D02*
X152238097Y-122461723D01*
X152238097Y-122461723D02*
X152428573Y-122652200D01*
X152428573Y-122652200D02*
X152714288Y-122747438D01*
X152714288Y-122747438D02*
X153190478Y-122747438D01*
X150428573Y-122652200D02*
X150619049Y-122747438D01*
X150619049Y-122747438D02*
X151000002Y-122747438D01*
X151000002Y-122747438D02*
X151190478Y-122652200D01*
X151190478Y-122652200D02*
X151285716Y-122461723D01*
X151285716Y-122461723D02*
X151285716Y-121699819D01*
X151285716Y-121699819D02*
X151190478Y-121509342D01*
X151190478Y-121509342D02*
X151000002Y-121414104D01*
X151000002Y-121414104D02*
X150619049Y-121414104D01*
X150619049Y-121414104D02*
X150428573Y-121509342D01*
X150428573Y-121509342D02*
X150333335Y-121699819D01*
X150333335Y-121699819D02*
X150333335Y-121890295D01*
X150333335Y-121890295D02*
X151285716Y-122080771D01*
X149571430Y-122652200D02*
X149380954Y-122747438D01*
X149380954Y-122747438D02*
X149000002Y-122747438D01*
X149000002Y-122747438D02*
X148809525Y-122652200D01*
X148809525Y-122652200D02*
X148714287Y-122461723D01*
X148714287Y-122461723D02*
X148714287Y-122366485D01*
X148714287Y-122366485D02*
X148809525Y-122176009D01*
X148809525Y-122176009D02*
X149000002Y-122080771D01*
X149000002Y-122080771D02*
X149285716Y-122080771D01*
X149285716Y-122080771D02*
X149476192Y-121985533D01*
X149476192Y-121985533D02*
X149571430Y-121795057D01*
X149571430Y-121795057D02*
X149571430Y-121699819D01*
X149571430Y-121699819D02*
X149476192Y-121509342D01*
X149476192Y-121509342D02*
X149285716Y-121414104D01*
X149285716Y-121414104D02*
X149000002Y-121414104D01*
X149000002Y-121414104D02*
X148809525Y-121509342D01*
X147857144Y-122747438D02*
X147857144Y-121414104D01*
X147857144Y-120747438D02*
X147952382Y-120842676D01*
X147952382Y-120842676D02*
X147857144Y-120937914D01*
X147857144Y-120937914D02*
X147761906Y-120842676D01*
X147761906Y-120842676D02*
X147857144Y-120747438D01*
X147857144Y-120747438D02*
X147857144Y-120937914D01*
X146047620Y-121414104D02*
X146047620Y-123033152D01*
X146047620Y-123033152D02*
X146142858Y-123223628D01*
X146142858Y-123223628D02*
X146238096Y-123318866D01*
X146238096Y-123318866D02*
X146428573Y-123414104D01*
X146428573Y-123414104D02*
X146714287Y-123414104D01*
X146714287Y-123414104D02*
X146904763Y-123318866D01*
X146047620Y-122652200D02*
X146238096Y-122747438D01*
X146238096Y-122747438D02*
X146619049Y-122747438D01*
X146619049Y-122747438D02*
X146809525Y-122652200D01*
X146809525Y-122652200D02*
X146904763Y-122556961D01*
X146904763Y-122556961D02*
X147000001Y-122366485D01*
X147000001Y-122366485D02*
X147000001Y-121795057D01*
X147000001Y-121795057D02*
X146904763Y-121604580D01*
X146904763Y-121604580D02*
X146809525Y-121509342D01*
X146809525Y-121509342D02*
X146619049Y-121414104D01*
X146619049Y-121414104D02*
X146238096Y-121414104D01*
X146238096Y-121414104D02*
X146047620Y-121509342D01*
X145095239Y-121414104D02*
X145095239Y-122747438D01*
X145095239Y-121604580D02*
X145000001Y-121509342D01*
X145000001Y-121509342D02*
X144809525Y-121414104D01*
X144809525Y-121414104D02*
X144523810Y-121414104D01*
X144523810Y-121414104D02*
X144333334Y-121509342D01*
X144333334Y-121509342D02*
X144238096Y-121699819D01*
X144238096Y-121699819D02*
X144238096Y-122747438D01*
X142523810Y-122652200D02*
X142714286Y-122747438D01*
X142714286Y-122747438D02*
X143095239Y-122747438D01*
X143095239Y-122747438D02*
X143285715Y-122652200D01*
X143285715Y-122652200D02*
X143380953Y-122461723D01*
X143380953Y-122461723D02*
X143380953Y-121699819D01*
X143380953Y-121699819D02*
X143285715Y-121509342D01*
X143285715Y-121509342D02*
X143095239Y-121414104D01*
X143095239Y-121414104D02*
X142714286Y-121414104D01*
X142714286Y-121414104D02*
X142523810Y-121509342D01*
X142523810Y-121509342D02*
X142428572Y-121699819D01*
X142428572Y-121699819D02*
X142428572Y-121890295D01*
X142428572Y-121890295D02*
X143380953Y-122080771D01*
X140714286Y-122747438D02*
X140714286Y-120747438D01*
X140714286Y-122652200D02*
X140904762Y-122747438D01*
X140904762Y-122747438D02*
X141285715Y-122747438D01*
X141285715Y-122747438D02*
X141476191Y-122652200D01*
X141476191Y-122652200D02*
X141571429Y-122556961D01*
X141571429Y-122556961D02*
X141666667Y-122366485D01*
X141666667Y-122366485D02*
X141666667Y-121795057D01*
X141666667Y-121795057D02*
X141571429Y-121604580D01*
X141571429Y-121604580D02*
X141476191Y-121509342D01*
X141476191Y-121509342D02*
X141285715Y-121414104D01*
X141285715Y-121414104D02*
X140904762Y-121414104D01*
X140904762Y-121414104D02*
X140714286Y-121509342D01*
X138238095Y-122747438D02*
X138238095Y-120747438D01*
X138238095Y-121509342D02*
X138047619Y-121414104D01*
X138047619Y-121414104D02*
X137666666Y-121414104D01*
X137666666Y-121414104D02*
X137476190Y-121509342D01*
X137476190Y-121509342D02*
X137380952Y-121604580D01*
X137380952Y-121604580D02*
X137285714Y-121795057D01*
X137285714Y-121795057D02*
X137285714Y-122366485D01*
X137285714Y-122366485D02*
X137380952Y-122556961D01*
X137380952Y-122556961D02*
X137476190Y-122652200D01*
X137476190Y-122652200D02*
X137666666Y-122747438D01*
X137666666Y-122747438D02*
X138047619Y-122747438D01*
X138047619Y-122747438D02*
X138238095Y-122652200D01*
X136619047Y-121414104D02*
X136142857Y-122747438D01*
X135666666Y-121414104D02*
X136142857Y-122747438D01*
X136142857Y-122747438D02*
X136333333Y-123223628D01*
X136333333Y-123223628D02*
X136428571Y-123318866D01*
X136428571Y-123318866D02*
X136619047Y-123414104D01*
X133476189Y-122176009D02*
X132523808Y-122176009D01*
X133666665Y-122747438D02*
X132999999Y-120747438D01*
X132999999Y-120747438D02*
X132333332Y-122747438D01*
X131666665Y-121414104D02*
X131666665Y-122747438D01*
X131666665Y-121604580D02*
X131571427Y-121509342D01*
X131571427Y-121509342D02*
X131380951Y-121414104D01*
X131380951Y-121414104D02*
X131095236Y-121414104D01*
X131095236Y-121414104D02*
X130904760Y-121509342D01*
X130904760Y-121509342D02*
X130809522Y-121699819D01*
X130809522Y-121699819D02*
X130809522Y-122747438D01*
X128999998Y-122747438D02*
X128999998Y-120747438D01*
X128999998Y-122652200D02*
X129190474Y-122747438D01*
X129190474Y-122747438D02*
X129571427Y-122747438D01*
X129571427Y-122747438D02*
X129761903Y-122652200D01*
X129761903Y-122652200D02*
X129857141Y-122556961D01*
X129857141Y-122556961D02*
X129952379Y-122366485D01*
X129952379Y-122366485D02*
X129952379Y-121795057D01*
X129952379Y-121795057D02*
X129857141Y-121604580D01*
X129857141Y-121604580D02*
X129761903Y-121509342D01*
X129761903Y-121509342D02*
X129571427Y-121414104D01*
X129571427Y-121414104D02*
X129190474Y-121414104D01*
X129190474Y-121414104D02*
X128999998Y-121509342D01*
X128047617Y-122747438D02*
X128047617Y-121414104D01*
X128047617Y-121795057D02*
X127952379Y-121604580D01*
X127952379Y-121604580D02*
X127857141Y-121509342D01*
X127857141Y-121509342D02*
X127666665Y-121414104D01*
X127666665Y-121414104D02*
X127476188Y-121414104D01*
X126047617Y-122652200D02*
X126238093Y-122747438D01*
X126238093Y-122747438D02*
X126619046Y-122747438D01*
X126619046Y-122747438D02*
X126809522Y-122652200D01*
X126809522Y-122652200D02*
X126904760Y-122461723D01*
X126904760Y-122461723D02*
X126904760Y-121699819D01*
X126904760Y-121699819D02*
X126809522Y-121509342D01*
X126809522Y-121509342D02*
X126619046Y-121414104D01*
X126619046Y-121414104D02*
X126238093Y-121414104D01*
X126238093Y-121414104D02*
X126047617Y-121509342D01*
X126047617Y-121509342D02*
X125952379Y-121699819D01*
X125952379Y-121699819D02*
X125952379Y-121890295D01*
X125952379Y-121890295D02*
X126904760Y-122080771D01*
X125095236Y-122747438D02*
X125095236Y-121414104D01*
X125095236Y-120747438D02*
X125190474Y-120842676D01*
X125190474Y-120842676D02*
X125095236Y-120937914D01*
X125095236Y-120937914D02*
X124999998Y-120842676D01*
X124999998Y-120842676D02*
X125095236Y-120747438D01*
X125095236Y-120747438D02*
X125095236Y-120937914D01*
X122619045Y-122747438D02*
X122619045Y-120747438D01*
X122619045Y-120747438D02*
X121952378Y-122176009D01*
X121952378Y-122176009D02*
X121285712Y-120747438D01*
X121285712Y-120747438D02*
X121285712Y-122747438D01*
X119571426Y-122652200D02*
X119761902Y-122747438D01*
X119761902Y-122747438D02*
X120142855Y-122747438D01*
X120142855Y-122747438D02*
X120333331Y-122652200D01*
X120333331Y-122652200D02*
X120428569Y-122461723D01*
X120428569Y-122461723D02*
X120428569Y-121699819D01*
X120428569Y-121699819D02*
X120333331Y-121509342D01*
X120333331Y-121509342D02*
X120142855Y-121414104D01*
X120142855Y-121414104D02*
X119761902Y-121414104D01*
X119761902Y-121414104D02*
X119571426Y-121509342D01*
X119571426Y-121509342D02*
X119476188Y-121699819D01*
X119476188Y-121699819D02*
X119476188Y-121890295D01*
X119476188Y-121890295D02*
X120428569Y-122080771D01*
X118333331Y-122747438D02*
X118523807Y-122652200D01*
X118523807Y-122652200D02*
X118619045Y-122461723D01*
X118619045Y-122461723D02*
X118619045Y-120747438D01*
X116809521Y-122652200D02*
X116999997Y-122747438D01*
X116999997Y-122747438D02*
X117380950Y-122747438D01*
X117380950Y-122747438D02*
X117571426Y-122652200D01*
X117571426Y-122652200D02*
X117666664Y-122461723D01*
X117666664Y-122461723D02*
X117666664Y-121699819D01*
X117666664Y-121699819D02*
X117571426Y-121509342D01*
X117571426Y-121509342D02*
X117380950Y-121414104D01*
X117380950Y-121414104D02*
X116999997Y-121414104D01*
X116999997Y-121414104D02*
X116809521Y-121509342D01*
X116809521Y-121509342D02*
X116714283Y-121699819D01*
X116714283Y-121699819D02*
X116714283Y-121890295D01*
X116714283Y-121890295D02*
X117666664Y-122080771D01*
X115857140Y-121414104D02*
X115857140Y-122747438D01*
X115857140Y-121604580D02*
X115761902Y-121509342D01*
X115761902Y-121509342D02*
X115571426Y-121414104D01*
X115571426Y-121414104D02*
X115285711Y-121414104D01*
X115285711Y-121414104D02*
X115095235Y-121509342D01*
X115095235Y-121509342D02*
X114999997Y-121699819D01*
X114999997Y-121699819D02*
X114999997Y-122747438D01*
X113190473Y-122652200D02*
X113380949Y-122747438D01*
X113380949Y-122747438D02*
X113761902Y-122747438D01*
X113761902Y-122747438D02*
X113952378Y-122652200D01*
X113952378Y-122652200D02*
X114047616Y-122556961D01*
X114047616Y-122556961D02*
X114142854Y-122366485D01*
X114142854Y-122366485D02*
X114142854Y-121795057D01*
X114142854Y-121795057D02*
X114047616Y-121604580D01*
X114047616Y-121604580D02*
X113952378Y-121509342D01*
X113952378Y-121509342D02*
X113761902Y-121414104D01*
X113761902Y-121414104D02*
X113380949Y-121414104D01*
X113380949Y-121414104D02*
X113190473Y-121509342D01*
X112333330Y-122747438D02*
X112333330Y-121414104D01*
X112333330Y-120747438D02*
X112428568Y-120842676D01*
X112428568Y-120842676D02*
X112333330Y-120937914D01*
X112333330Y-120937914D02*
X112238092Y-120842676D01*
X112238092Y-120842676D02*
X112333330Y-120747438D01*
X112333330Y-120747438D02*
X112333330Y-120937914D01*
X110523806Y-121414104D02*
X110523806Y-122747438D01*
X111380949Y-121414104D02*
X111380949Y-122461723D01*
X111380949Y-122461723D02*
X111285711Y-122652200D01*
X111285711Y-122652200D02*
X111095235Y-122747438D01*
X111095235Y-122747438D02*
X110809520Y-122747438D01*
X110809520Y-122747438D02*
X110619044Y-122652200D01*
X110619044Y-122652200D02*
X110523806Y-122556961D01*
X108714282Y-122652200D02*
X108904758Y-122747438D01*
X108904758Y-122747438D02*
X109285711Y-122747438D01*
X109285711Y-122747438D02*
X109476187Y-122652200D01*
X109476187Y-122652200D02*
X109571425Y-122556961D01*
X109571425Y-122556961D02*
X109666663Y-122366485D01*
X109666663Y-122366485D02*
X109666663Y-121795057D01*
X109666663Y-121795057D02*
X109571425Y-121604580D01*
X109571425Y-121604580D02*
X109476187Y-121509342D01*
X109476187Y-121509342D02*
X109285711Y-121414104D01*
X109285711Y-121414104D02*
X108904758Y-121414104D01*
X108904758Y-121414104D02*
X108714282Y-121509342D01*
%LPC*%
D11*
%TO.C,REF\u002A\u002A*%
X74875000Y-119500000D03*
X75643845Y-117643845D03*
X75643845Y-121356155D03*
X77500000Y-116875000D03*
D12*
X77500000Y-119500000D03*
D11*
X77500000Y-122125000D03*
X79356155Y-117643845D03*
X79356155Y-121356155D03*
X80125000Y-119500000D03*
%TD*%
D13*
%TO.C,J5*%
X135095000Y-114000000D03*
X168395000Y-114000000D03*
D14*
X153115000Y-113305000D03*
X150345000Y-113360000D03*
X154500000Y-116200000D03*
X151730000Y-116200000D03*
X148960000Y-116200000D03*
D15*
X158578000Y-113400000D03*
X144858000Y-113400000D03*
%TD*%
D13*
%TO.C,J6*%
X179300000Y-104665000D03*
X179300000Y-71365000D03*
D16*
X178605000Y-86645000D03*
X178660000Y-89415000D03*
X181500000Y-85260000D03*
X181500000Y-88030000D03*
X181500000Y-90800000D03*
D15*
X178700000Y-81182000D03*
X178700000Y-94902000D03*
%TD*%
D13*
%TO.C,J3*%
X126965000Y-62750000D03*
X93665000Y-62750000D03*
D14*
X108945000Y-63445000D03*
X111715000Y-63390000D03*
X107560000Y-60550000D03*
X110330000Y-60550000D03*
X113100000Y-60550000D03*
D15*
X103482000Y-63350000D03*
X117202000Y-63350000D03*
%TD*%
D11*
%TO.C,REF\u002A\u002A*%
X181875000Y-57500000D03*
X182643845Y-55643845D03*
X182643845Y-59356155D03*
X184500000Y-54875000D03*
D12*
X184500000Y-57500000D03*
D11*
X184500000Y-60125000D03*
X186356155Y-55643845D03*
X186356155Y-59356155D03*
X187125000Y-57500000D03*
%TD*%
D13*
%TO.C,J4*%
X168163000Y-62750000D03*
X134863000Y-62750000D03*
D14*
X150143000Y-63445000D03*
X152913000Y-63390000D03*
X148758000Y-60550000D03*
X151528000Y-60550000D03*
X154298000Y-60550000D03*
D15*
X144680000Y-63350000D03*
X158400000Y-63350000D03*
%TD*%
D11*
%TO.C,REF\u002A\u002A*%
X74875000Y-57500000D03*
X75643845Y-55643845D03*
X75643845Y-59356155D03*
X77500000Y-54875000D03*
D12*
X77500000Y-57500000D03*
D11*
X77500000Y-60125000D03*
X79356155Y-55643845D03*
X79356155Y-59356155D03*
X80125000Y-57500000D03*
%TD*%
%TO.C,REF\u002A\u002A*%
X181875000Y-119500000D03*
X182643845Y-117643845D03*
X182643845Y-121356155D03*
X184500000Y-116875000D03*
D12*
X184500000Y-119500000D03*
D11*
X184500000Y-122125000D03*
X186356155Y-117643845D03*
X186356155Y-121356155D03*
X187125000Y-119500000D03*
%TD*%
D13*
%TO.C,J2*%
X93695000Y-114000000D03*
X126995000Y-114000000D03*
D14*
X111715000Y-113305000D03*
X108945000Y-113360000D03*
X113100000Y-116200000D03*
X110330000Y-116200000D03*
X107560000Y-116200000D03*
D15*
X117178000Y-113400000D03*
X103458000Y-113400000D03*
%TD*%
D16*
%TO.C,J1*%
X83390000Y-86845000D03*
X83445000Y-89615000D03*
X80550000Y-85460000D03*
X80550000Y-88230000D03*
X80550000Y-91000000D03*
D13*
X82750000Y-71595000D03*
X82750000Y-104895000D03*
D15*
X83350000Y-81358000D03*
X83350000Y-95078000D03*
%TD*%
G36*
X169943039Y-78319685D02*
G01*
X169988794Y-78372489D01*
X170000000Y-78424000D01*
X170000000Y-84275844D01*
X169980315Y-84342883D01*
X169927511Y-84388638D01*
X169875845Y-84399844D01*
X90123845Y-84300154D01*
X90056830Y-84280386D01*
X90011141Y-84227524D01*
X90000000Y-84176154D01*
X90000000Y-78424000D01*
X90019685Y-78356961D01*
X90072489Y-78311206D01*
X90124000Y-78300000D01*
X169876000Y-78300000D01*
X169943039Y-78319685D01*
G37*
%LPD*%
M02*
