%TF.GenerationSoftware,KiCad,Pcbnew,8.0.3*%
%TF.CreationDate,2024-11-13T10:17:17-07:00*%
%TF.ProjectId,EcoCar Canbus V4,45636f43-6172-4204-9361-6e6275732056,rev?*%
%TF.SameCoordinates,Original*%
%TF.FileFunction,Copper,L2,Bot*%
%TF.FilePolarity,Positive*%
%FSLAX46Y46*%
G04 Gerber Fmt 4.6, Leading zero omitted, Abs format (unit mm)*
G04 Created by KiCad (PCBNEW 8.0.3) date 2024-11-13 10:17:17*
%MOMM*%
%LPD*%
G01*
G04 APERTURE LIST*
%TA.AperFunction,Conductor*%
%ADD10C,3.324903*%
%TD*%
%ADD11C,0.300000*%
%TA.AperFunction,NonConductor*%
%ADD12C,0.300000*%
%TD*%
%TA.AperFunction,NonConductor*%
%ADD13C,0.200000*%
%TD*%
%TA.AperFunction,ComponentPad*%
%ADD14C,0.800000*%
%TD*%
%TA.AperFunction,ComponentPad*%
%ADD15C,7.000000*%
%TD*%
%TA.AperFunction,ComponentPad*%
%ADD16C,4.500000*%
%TD*%
%TA.AperFunction,ComponentPad*%
%ADD17O,1.500000X2.000000*%
%TD*%
%TA.AperFunction,ComponentPad*%
%ADD18C,6.000000*%
%TD*%
%TA.AperFunction,ComponentPad*%
%ADD19O,2.000000X1.500000*%
%TD*%
%TA.AperFunction,ViaPad*%
%ADD20C,0.600000*%
%TD*%
%TA.AperFunction,ViaPad*%
%ADD21C,0.800000*%
%TD*%
%TA.AperFunction,Conductor*%
%ADD22C,6.000000*%
%TD*%
%TA.AperFunction,Conductor*%
%ADD23C,0.200000*%
%TD*%
%TA.AperFunction,Conductor*%
%ADD24C,2.000000*%
%TD*%
%TA.AperFunction,Conductor*%
%ADD25C,3.000000*%
%TD*%
G04 APERTURE END LIST*
%TO.N,GND*%
D10*
X105062451Y-113400000D02*
G75*
G02*
X101737549Y-113400000I-1662451J0D01*
G01*
X101737549Y-113400000D02*
G75*
G02*
X105062451Y-113400000I1662451J0D01*
G01*
D11*
D12*
X124214287Y-43878328D02*
X123357144Y-43878328D01*
X123785715Y-43878328D02*
X123785715Y-42378328D01*
X123785715Y-42378328D02*
X123642858Y-42592614D01*
X123642858Y-42592614D02*
X123500001Y-42735471D01*
X123500001Y-42735471D02*
X123357144Y-42806900D01*
X124785715Y-42521185D02*
X124857143Y-42449757D01*
X124857143Y-42449757D02*
X125000001Y-42378328D01*
X125000001Y-42378328D02*
X125357143Y-42378328D01*
X125357143Y-42378328D02*
X125500001Y-42449757D01*
X125500001Y-42449757D02*
X125571429Y-42521185D01*
X125571429Y-42521185D02*
X125642858Y-42664042D01*
X125642858Y-42664042D02*
X125642858Y-42806900D01*
X125642858Y-42806900D02*
X125571429Y-43021185D01*
X125571429Y-43021185D02*
X124714286Y-43878328D01*
X124714286Y-43878328D02*
X125642858Y-43878328D01*
X126571429Y-42378328D02*
X126714286Y-42378328D01*
X126714286Y-42378328D02*
X126857143Y-42449757D01*
X126857143Y-42449757D02*
X126928572Y-42521185D01*
X126928572Y-42521185D02*
X127000000Y-42664042D01*
X127000000Y-42664042D02*
X127071429Y-42949757D01*
X127071429Y-42949757D02*
X127071429Y-43306900D01*
X127071429Y-43306900D02*
X127000000Y-43592614D01*
X127000000Y-43592614D02*
X126928572Y-43735471D01*
X126928572Y-43735471D02*
X126857143Y-43806900D01*
X126857143Y-43806900D02*
X126714286Y-43878328D01*
X126714286Y-43878328D02*
X126571429Y-43878328D01*
X126571429Y-43878328D02*
X126428572Y-43806900D01*
X126428572Y-43806900D02*
X126357143Y-43735471D01*
X126357143Y-43735471D02*
X126285714Y-43592614D01*
X126285714Y-43592614D02*
X126214286Y-43306900D01*
X126214286Y-43306900D02*
X126214286Y-42949757D01*
X126214286Y-42949757D02*
X126285714Y-42664042D01*
X126285714Y-42664042D02*
X126357143Y-42521185D01*
X126357143Y-42521185D02*
X126428572Y-42449757D01*
X126428572Y-42449757D02*
X126571429Y-42378328D01*
X127714285Y-43735471D02*
X127785714Y-43806900D01*
X127785714Y-43806900D02*
X127714285Y-43878328D01*
X127714285Y-43878328D02*
X127642857Y-43806900D01*
X127642857Y-43806900D02*
X127714285Y-43735471D01*
X127714285Y-43735471D02*
X127714285Y-43878328D01*
X128714286Y-42378328D02*
X128857143Y-42378328D01*
X128857143Y-42378328D02*
X129000000Y-42449757D01*
X129000000Y-42449757D02*
X129071429Y-42521185D01*
X129071429Y-42521185D02*
X129142857Y-42664042D01*
X129142857Y-42664042D02*
X129214286Y-42949757D01*
X129214286Y-42949757D02*
X129214286Y-43306900D01*
X129214286Y-43306900D02*
X129142857Y-43592614D01*
X129142857Y-43592614D02*
X129071429Y-43735471D01*
X129071429Y-43735471D02*
X129000000Y-43806900D01*
X129000000Y-43806900D02*
X128857143Y-43878328D01*
X128857143Y-43878328D02*
X128714286Y-43878328D01*
X128714286Y-43878328D02*
X128571429Y-43806900D01*
X128571429Y-43806900D02*
X128500000Y-43735471D01*
X128500000Y-43735471D02*
X128428571Y-43592614D01*
X128428571Y-43592614D02*
X128357143Y-43306900D01*
X128357143Y-43306900D02*
X128357143Y-42949757D01*
X128357143Y-42949757D02*
X128428571Y-42664042D01*
X128428571Y-42664042D02*
X128500000Y-42521185D01*
X128500000Y-42521185D02*
X128571429Y-42449757D01*
X128571429Y-42449757D02*
X128714286Y-42378328D01*
X130142857Y-42378328D02*
X130285714Y-42378328D01*
X130285714Y-42378328D02*
X130428571Y-42449757D01*
X130428571Y-42449757D02*
X130500000Y-42521185D01*
X130500000Y-42521185D02*
X130571428Y-42664042D01*
X130571428Y-42664042D02*
X130642857Y-42949757D01*
X130642857Y-42949757D02*
X130642857Y-43306900D01*
X130642857Y-43306900D02*
X130571428Y-43592614D01*
X130571428Y-43592614D02*
X130500000Y-43735471D01*
X130500000Y-43735471D02*
X130428571Y-43806900D01*
X130428571Y-43806900D02*
X130285714Y-43878328D01*
X130285714Y-43878328D02*
X130142857Y-43878328D01*
X130142857Y-43878328D02*
X130000000Y-43806900D01*
X130000000Y-43806900D02*
X129928571Y-43735471D01*
X129928571Y-43735471D02*
X129857142Y-43592614D01*
X129857142Y-43592614D02*
X129785714Y-43306900D01*
X129785714Y-43306900D02*
X129785714Y-42949757D01*
X129785714Y-42949757D02*
X129857142Y-42664042D01*
X129857142Y-42664042D02*
X129928571Y-42521185D01*
X129928571Y-42521185D02*
X130000000Y-42449757D01*
X130000000Y-42449757D02*
X130142857Y-42378328D01*
X131571428Y-42378328D02*
X131714285Y-42378328D01*
X131714285Y-42378328D02*
X131857142Y-42449757D01*
X131857142Y-42449757D02*
X131928571Y-42521185D01*
X131928571Y-42521185D02*
X131999999Y-42664042D01*
X131999999Y-42664042D02*
X132071428Y-42949757D01*
X132071428Y-42949757D02*
X132071428Y-43306900D01*
X132071428Y-43306900D02*
X131999999Y-43592614D01*
X131999999Y-43592614D02*
X131928571Y-43735471D01*
X131928571Y-43735471D02*
X131857142Y-43806900D01*
X131857142Y-43806900D02*
X131714285Y-43878328D01*
X131714285Y-43878328D02*
X131571428Y-43878328D01*
X131571428Y-43878328D02*
X131428571Y-43806900D01*
X131428571Y-43806900D02*
X131357142Y-43735471D01*
X131357142Y-43735471D02*
X131285713Y-43592614D01*
X131285713Y-43592614D02*
X131214285Y-43306900D01*
X131214285Y-43306900D02*
X131214285Y-42949757D01*
X131214285Y-42949757D02*
X131285713Y-42664042D01*
X131285713Y-42664042D02*
X131357142Y-42521185D01*
X131357142Y-42521185D02*
X131428571Y-42449757D01*
X131428571Y-42449757D02*
X131571428Y-42378328D01*
X132999999Y-42378328D02*
X133142856Y-42378328D01*
X133142856Y-42378328D02*
X133285713Y-42449757D01*
X133285713Y-42449757D02*
X133357142Y-42521185D01*
X133357142Y-42521185D02*
X133428570Y-42664042D01*
X133428570Y-42664042D02*
X133499999Y-42949757D01*
X133499999Y-42949757D02*
X133499999Y-43306900D01*
X133499999Y-43306900D02*
X133428570Y-43592614D01*
X133428570Y-43592614D02*
X133357142Y-43735471D01*
X133357142Y-43735471D02*
X133285713Y-43806900D01*
X133285713Y-43806900D02*
X133142856Y-43878328D01*
X133142856Y-43878328D02*
X132999999Y-43878328D01*
X132999999Y-43878328D02*
X132857142Y-43806900D01*
X132857142Y-43806900D02*
X132785713Y-43735471D01*
X132785713Y-43735471D02*
X132714284Y-43592614D01*
X132714284Y-43592614D02*
X132642856Y-43306900D01*
X132642856Y-43306900D02*
X132642856Y-42949757D01*
X132642856Y-42949757D02*
X132714284Y-42664042D01*
X132714284Y-42664042D02*
X132785713Y-42521185D01*
X132785713Y-42521185D02*
X132857142Y-42449757D01*
X132857142Y-42449757D02*
X132999999Y-42378328D01*
X135285712Y-43878328D02*
X135285712Y-42878328D01*
X135285712Y-43021185D02*
X135357141Y-42949757D01*
X135357141Y-42949757D02*
X135499998Y-42878328D01*
X135499998Y-42878328D02*
X135714284Y-42878328D01*
X135714284Y-42878328D02*
X135857141Y-42949757D01*
X135857141Y-42949757D02*
X135928570Y-43092614D01*
X135928570Y-43092614D02*
X135928570Y-43878328D01*
X135928570Y-43092614D02*
X135999998Y-42949757D01*
X135999998Y-42949757D02*
X136142855Y-42878328D01*
X136142855Y-42878328D02*
X136357141Y-42878328D01*
X136357141Y-42878328D02*
X136499998Y-42949757D01*
X136499998Y-42949757D02*
X136571427Y-43092614D01*
X136571427Y-43092614D02*
X136571427Y-43878328D01*
X137285712Y-43878328D02*
X137285712Y-42878328D01*
X137285712Y-43021185D02*
X137357141Y-42949757D01*
X137357141Y-42949757D02*
X137499998Y-42878328D01*
X137499998Y-42878328D02*
X137714284Y-42878328D01*
X137714284Y-42878328D02*
X137857141Y-42949757D01*
X137857141Y-42949757D02*
X137928570Y-43092614D01*
X137928570Y-43092614D02*
X137928570Y-43878328D01*
X137928570Y-43092614D02*
X137999998Y-42949757D01*
X137999998Y-42949757D02*
X138142855Y-42878328D01*
X138142855Y-42878328D02*
X138357141Y-42878328D01*
X138357141Y-42878328D02*
X138499998Y-42949757D01*
X138499998Y-42949757D02*
X138571427Y-43092614D01*
X138571427Y-43092614D02*
X138571427Y-43878328D01*
D13*
X71000000Y-50500000D02*
X71000000Y-44413580D01*
X191000000Y-50500000D02*
X191000000Y-44413580D01*
X71000000Y-45000000D02*
X191000000Y-45000000D01*
X71000000Y-45000000D02*
X191000000Y-45000000D01*
X71000000Y-45000000D02*
X72126504Y-44413579D01*
X71000000Y-45000000D02*
X72126504Y-45586421D01*
X191000000Y-45000000D02*
X189873496Y-45586421D01*
X191000000Y-45000000D02*
X189873496Y-44413579D01*
D11*
D12*
X58378328Y-95499998D02*
X58378328Y-94499998D01*
X58378328Y-94499998D02*
X59878328Y-95142855D01*
X58378328Y-93214284D02*
X58378328Y-93928570D01*
X58378328Y-93928570D02*
X59092614Y-93999998D01*
X59092614Y-93999998D02*
X59021185Y-93928570D01*
X59021185Y-93928570D02*
X58949757Y-93785713D01*
X58949757Y-93785713D02*
X58949757Y-93428570D01*
X58949757Y-93428570D02*
X59021185Y-93285713D01*
X59021185Y-93285713D02*
X59092614Y-93214284D01*
X59092614Y-93214284D02*
X59235471Y-93142855D01*
X59235471Y-93142855D02*
X59592614Y-93142855D01*
X59592614Y-93142855D02*
X59735471Y-93214284D01*
X59735471Y-93214284D02*
X59806900Y-93285713D01*
X59806900Y-93285713D02*
X59878328Y-93428570D01*
X59878328Y-93428570D02*
X59878328Y-93785713D01*
X59878328Y-93785713D02*
X59806900Y-93928570D01*
X59806900Y-93928570D02*
X59735471Y-93999998D01*
X59735471Y-92499999D02*
X59806900Y-92428570D01*
X59806900Y-92428570D02*
X59878328Y-92499999D01*
X59878328Y-92499999D02*
X59806900Y-92571427D01*
X59806900Y-92571427D02*
X59735471Y-92499999D01*
X59735471Y-92499999D02*
X59878328Y-92499999D01*
X58378328Y-91499998D02*
X58378328Y-91357141D01*
X58378328Y-91357141D02*
X58449757Y-91214284D01*
X58449757Y-91214284D02*
X58521185Y-91142856D01*
X58521185Y-91142856D02*
X58664042Y-91071427D01*
X58664042Y-91071427D02*
X58949757Y-90999998D01*
X58949757Y-90999998D02*
X59306900Y-90999998D01*
X59306900Y-90999998D02*
X59592614Y-91071427D01*
X59592614Y-91071427D02*
X59735471Y-91142856D01*
X59735471Y-91142856D02*
X59806900Y-91214284D01*
X59806900Y-91214284D02*
X59878328Y-91357141D01*
X59878328Y-91357141D02*
X59878328Y-91499998D01*
X59878328Y-91499998D02*
X59806900Y-91642856D01*
X59806900Y-91642856D02*
X59735471Y-91714284D01*
X59735471Y-91714284D02*
X59592614Y-91785713D01*
X59592614Y-91785713D02*
X59306900Y-91857141D01*
X59306900Y-91857141D02*
X58949757Y-91857141D01*
X58949757Y-91857141D02*
X58664042Y-91785713D01*
X58664042Y-91785713D02*
X58521185Y-91714284D01*
X58521185Y-91714284D02*
X58449757Y-91642856D01*
X58449757Y-91642856D02*
X58378328Y-91499998D01*
X58378328Y-90071427D02*
X58378328Y-89928570D01*
X58378328Y-89928570D02*
X58449757Y-89785713D01*
X58449757Y-89785713D02*
X58521185Y-89714285D01*
X58521185Y-89714285D02*
X58664042Y-89642856D01*
X58664042Y-89642856D02*
X58949757Y-89571427D01*
X58949757Y-89571427D02*
X59306900Y-89571427D01*
X59306900Y-89571427D02*
X59592614Y-89642856D01*
X59592614Y-89642856D02*
X59735471Y-89714285D01*
X59735471Y-89714285D02*
X59806900Y-89785713D01*
X59806900Y-89785713D02*
X59878328Y-89928570D01*
X59878328Y-89928570D02*
X59878328Y-90071427D01*
X59878328Y-90071427D02*
X59806900Y-90214285D01*
X59806900Y-90214285D02*
X59735471Y-90285713D01*
X59735471Y-90285713D02*
X59592614Y-90357142D01*
X59592614Y-90357142D02*
X59306900Y-90428570D01*
X59306900Y-90428570D02*
X58949757Y-90428570D01*
X58949757Y-90428570D02*
X58664042Y-90357142D01*
X58664042Y-90357142D02*
X58521185Y-90285713D01*
X58521185Y-90285713D02*
X58449757Y-90214285D01*
X58449757Y-90214285D02*
X58378328Y-90071427D01*
X58378328Y-88642856D02*
X58378328Y-88499999D01*
X58378328Y-88499999D02*
X58449757Y-88357142D01*
X58449757Y-88357142D02*
X58521185Y-88285714D01*
X58521185Y-88285714D02*
X58664042Y-88214285D01*
X58664042Y-88214285D02*
X58949757Y-88142856D01*
X58949757Y-88142856D02*
X59306900Y-88142856D01*
X59306900Y-88142856D02*
X59592614Y-88214285D01*
X59592614Y-88214285D02*
X59735471Y-88285714D01*
X59735471Y-88285714D02*
X59806900Y-88357142D01*
X59806900Y-88357142D02*
X59878328Y-88499999D01*
X59878328Y-88499999D02*
X59878328Y-88642856D01*
X59878328Y-88642856D02*
X59806900Y-88785714D01*
X59806900Y-88785714D02*
X59735471Y-88857142D01*
X59735471Y-88857142D02*
X59592614Y-88928571D01*
X59592614Y-88928571D02*
X59306900Y-88999999D01*
X59306900Y-88999999D02*
X58949757Y-88999999D01*
X58949757Y-88999999D02*
X58664042Y-88928571D01*
X58664042Y-88928571D02*
X58521185Y-88857142D01*
X58521185Y-88857142D02*
X58449757Y-88785714D01*
X58449757Y-88785714D02*
X58378328Y-88642856D01*
X58378328Y-87214285D02*
X58378328Y-87071428D01*
X58378328Y-87071428D02*
X58449757Y-86928571D01*
X58449757Y-86928571D02*
X58521185Y-86857143D01*
X58521185Y-86857143D02*
X58664042Y-86785714D01*
X58664042Y-86785714D02*
X58949757Y-86714285D01*
X58949757Y-86714285D02*
X59306900Y-86714285D01*
X59306900Y-86714285D02*
X59592614Y-86785714D01*
X59592614Y-86785714D02*
X59735471Y-86857143D01*
X59735471Y-86857143D02*
X59806900Y-86928571D01*
X59806900Y-86928571D02*
X59878328Y-87071428D01*
X59878328Y-87071428D02*
X59878328Y-87214285D01*
X59878328Y-87214285D02*
X59806900Y-87357143D01*
X59806900Y-87357143D02*
X59735471Y-87428571D01*
X59735471Y-87428571D02*
X59592614Y-87500000D01*
X59592614Y-87500000D02*
X59306900Y-87571428D01*
X59306900Y-87571428D02*
X58949757Y-87571428D01*
X58949757Y-87571428D02*
X58664042Y-87500000D01*
X58664042Y-87500000D02*
X58521185Y-87428571D01*
X58521185Y-87428571D02*
X58449757Y-87357143D01*
X58449757Y-87357143D02*
X58378328Y-87214285D01*
X59878328Y-84928572D02*
X58878328Y-84928572D01*
X59021185Y-84928572D02*
X58949757Y-84857143D01*
X58949757Y-84857143D02*
X58878328Y-84714286D01*
X58878328Y-84714286D02*
X58878328Y-84500000D01*
X58878328Y-84500000D02*
X58949757Y-84357143D01*
X58949757Y-84357143D02*
X59092614Y-84285715D01*
X59092614Y-84285715D02*
X59878328Y-84285715D01*
X59092614Y-84285715D02*
X58949757Y-84214286D01*
X58949757Y-84214286D02*
X58878328Y-84071429D01*
X58878328Y-84071429D02*
X58878328Y-83857143D01*
X58878328Y-83857143D02*
X58949757Y-83714286D01*
X58949757Y-83714286D02*
X59092614Y-83642857D01*
X59092614Y-83642857D02*
X59878328Y-83642857D01*
X59878328Y-82928572D02*
X58878328Y-82928572D01*
X59021185Y-82928572D02*
X58949757Y-82857143D01*
X58949757Y-82857143D02*
X58878328Y-82714286D01*
X58878328Y-82714286D02*
X58878328Y-82500000D01*
X58878328Y-82500000D02*
X58949757Y-82357143D01*
X58949757Y-82357143D02*
X59092614Y-82285715D01*
X59092614Y-82285715D02*
X59878328Y-82285715D01*
X59092614Y-82285715D02*
X58949757Y-82214286D01*
X58949757Y-82214286D02*
X58878328Y-82071429D01*
X58878328Y-82071429D02*
X58878328Y-81857143D01*
X58878328Y-81857143D02*
X58949757Y-81714286D01*
X58949757Y-81714286D02*
X59092614Y-81642857D01*
X59092614Y-81642857D02*
X59878328Y-81642857D01*
D13*
X70500000Y-51000000D02*
X60413580Y-51000000D01*
X70500000Y-126000000D02*
X60413580Y-126000000D01*
X61000000Y-51000000D02*
X61000000Y-126000000D01*
X61000000Y-51000000D02*
X61000000Y-126000000D01*
X61000000Y-51000000D02*
X61586421Y-52126504D01*
X61000000Y-51000000D02*
X60413579Y-52126504D01*
X61000000Y-126000000D02*
X60413579Y-124873496D01*
X61000000Y-126000000D02*
X61586421Y-124873496D01*
%TD*%
D14*
%TO.P,REF\u002A\u002A,1*%
%TO.N,N/C*%
X74875000Y-119500000D03*
X75643845Y-117643845D03*
X75643845Y-121356155D03*
X77500000Y-116875000D03*
D15*
X77500000Y-119500000D03*
D14*
X77500000Y-122125000D03*
X79356155Y-117643845D03*
X79356155Y-121356155D03*
X80125000Y-119500000D03*
%TD*%
D16*
%TO.P,J5,*%
%TO.N,*%
X135095000Y-114000000D03*
X168395000Y-114000000D03*
D17*
%TO.P,J5,1*%
%TO.N,12V*%
X153115000Y-113305000D03*
%TO.P,J5,2*%
%TO.N,CAN+*%
X150345000Y-113360000D03*
%TO.P,J5,3*%
%TO.N,12V*%
X154500000Y-116200000D03*
%TO.P,J5,4*%
X151730000Y-116200000D03*
%TO.P,J5,5*%
%TO.N,CAN-*%
X148960000Y-116200000D03*
D18*
%TO.P,J5,8,A1*%
%TO.N,7V*%
X158578000Y-113400000D03*
%TO.P,J5,9,A2*%
%TO.N,GND*%
X144858000Y-113400000D03*
%TD*%
D16*
%TO.P,J6,*%
%TO.N,*%
X179300000Y-104665000D03*
X179300000Y-71365000D03*
D19*
%TO.P,J6,1*%
%TO.N,12V*%
X178605000Y-86645000D03*
%TO.P,J6,2*%
%TO.N,CAN+*%
X178660000Y-89415000D03*
%TO.P,J6,3*%
%TO.N,12V*%
X181500000Y-85260000D03*
%TO.P,J6,4*%
X181500000Y-88030000D03*
%TO.P,J6,5*%
%TO.N,CAN-*%
X181500000Y-90800000D03*
D18*
%TO.P,J6,8,A1*%
%TO.N,7V*%
X178700000Y-81182000D03*
%TO.P,J6,9,A2*%
%TO.N,GND*%
X178700000Y-94902000D03*
%TD*%
D16*
%TO.P,J3,*%
%TO.N,*%
X126965000Y-62750000D03*
X93665000Y-62750000D03*
D17*
%TO.P,J3,1*%
%TO.N,12V*%
X108945000Y-63445000D03*
%TO.P,J3,2*%
%TO.N,CAN+*%
X111715000Y-63390000D03*
%TO.P,J3,3*%
%TO.N,12V*%
X107560000Y-60550000D03*
%TO.P,J3,4*%
X110330000Y-60550000D03*
%TO.P,J3,5*%
%TO.N,CAN-*%
X113100000Y-60550000D03*
D18*
%TO.P,J3,8,A1*%
%TO.N,7V*%
X103482000Y-63350000D03*
%TO.P,J3,9,A2*%
%TO.N,GND*%
X117202000Y-63350000D03*
%TD*%
D14*
%TO.P,REF\u002A\u002A,1*%
%TO.N,N/C*%
X181875000Y-57500000D03*
X182643845Y-55643845D03*
X182643845Y-59356155D03*
X184500000Y-54875000D03*
D15*
X184500000Y-57500000D03*
D14*
X184500000Y-60125000D03*
X186356155Y-55643845D03*
X186356155Y-59356155D03*
X187125000Y-57500000D03*
%TD*%
D16*
%TO.P,J4,*%
%TO.N,*%
X168163000Y-62750000D03*
X134863000Y-62750000D03*
D17*
%TO.P,J4,1*%
%TO.N,12V*%
X150143000Y-63445000D03*
%TO.P,J4,2*%
%TO.N,CAN+*%
X152913000Y-63390000D03*
%TO.P,J4,3*%
%TO.N,12V*%
X148758000Y-60550000D03*
%TO.P,J4,4*%
X151528000Y-60550000D03*
%TO.P,J4,5*%
%TO.N,CAN-*%
X154298000Y-60550000D03*
D18*
%TO.P,J4,8,A1*%
%TO.N,7V*%
X144680000Y-63350000D03*
%TO.P,J4,9,A2*%
%TO.N,GND*%
X158400000Y-63350000D03*
%TD*%
D14*
%TO.P,REF\u002A\u002A,1*%
%TO.N,N/C*%
X74875000Y-57500000D03*
X75643845Y-55643845D03*
X75643845Y-59356155D03*
X77500000Y-54875000D03*
D15*
X77500000Y-57500000D03*
D14*
X77500000Y-60125000D03*
X79356155Y-55643845D03*
X79356155Y-59356155D03*
X80125000Y-57500000D03*
%TD*%
%TO.P,REF\u002A\u002A,1*%
%TO.N,N/C*%
X181875000Y-119500000D03*
X182643845Y-117643845D03*
X182643845Y-121356155D03*
X184500000Y-116875000D03*
D15*
X184500000Y-119500000D03*
D14*
X184500000Y-122125000D03*
X186356155Y-117643845D03*
X186356155Y-121356155D03*
X187125000Y-119500000D03*
%TD*%
D16*
%TO.P,J2,*%
%TO.N,*%
X93695000Y-114000000D03*
X126995000Y-114000000D03*
D17*
%TO.P,J2,1*%
%TO.N,12V*%
X111715000Y-113305000D03*
%TO.P,J2,2*%
%TO.N,CAN+*%
X108945000Y-113360000D03*
%TO.P,J2,3*%
%TO.N,12V*%
X113100000Y-116200000D03*
%TO.P,J2,4*%
X110330000Y-116200000D03*
%TO.P,J2,5*%
%TO.N,CAN-*%
X107560000Y-116200000D03*
D18*
%TO.P,J2,8,A1*%
%TO.N,7V*%
X117178000Y-113400000D03*
%TO.P,J2,9,A2*%
%TO.N,GND*%
X103458000Y-113400000D03*
%TD*%
D19*
%TO.P,J1,1*%
%TO.N,CAN+*%
X83390000Y-86845000D03*
%TO.P,J1,2*%
%TO.N,12V*%
X83445000Y-89615000D03*
%TO.P,J1,3*%
%TO.N,CAN-*%
X80550000Y-85460000D03*
%TO.P,J1,4*%
%TO.N,12V*%
X80550000Y-88230000D03*
%TO.P,J1,5*%
X80550000Y-91000000D03*
D16*
%TO.P,J1,8*%
%TO.N,N/C*%
X82750000Y-71595000D03*
X82750000Y-104895000D03*
D18*
%TO.P,J1,A1*%
%TO.N,7V*%
X83350000Y-81358000D03*
%TO.P,J1,A2*%
%TO.N,GND*%
X83350000Y-95078000D03*
%TD*%
D20*
%TO.N,CAN-*%
X113100000Y-89200000D03*
X154300000Y-91100000D03*
X154300000Y-89100000D03*
X113100000Y-91100000D03*
D21*
%TO.N,GND*%
X102485716Y-107836000D03*
X97405716Y-77356000D03*
X122805716Y-115456000D03*
X97405716Y-112916000D03*
X132965716Y-110376000D03*
X125345716Y-100216000D03*
X176145716Y-54496000D03*
X122805716Y-62116000D03*
X138045716Y-123076000D03*
X188845716Y-77356000D03*
X122805716Y-123076000D03*
X168525716Y-72276000D03*
X138045716Y-102756000D03*
X94865716Y-77356000D03*
X92325716Y-92596000D03*
X115185716Y-67196000D03*
X77085716Y-79896000D03*
X87245716Y-64656000D03*
X173605716Y-72276000D03*
X132965716Y-100216000D03*
X173605716Y-77356000D03*
X138045716Y-67196000D03*
X168525716Y-107836000D03*
X163445716Y-107836000D03*
X150745716Y-107836000D03*
X176145716Y-69736000D03*
X188845716Y-79896000D03*
X168525716Y-69736000D03*
X82165716Y-54496000D03*
X143125716Y-105296000D03*
X77085716Y-74816000D03*
X105025716Y-105296000D03*
X158365716Y-69736000D03*
X188845716Y-123076000D03*
X176145716Y-110376000D03*
X165985716Y-95136000D03*
X138045716Y-105296000D03*
X132965716Y-59576000D03*
X140585716Y-95136000D03*
X140585716Y-64656000D03*
X188845716Y-74816000D03*
X132965716Y-87516000D03*
X125345716Y-123076000D03*
X105025716Y-87516000D03*
X173605716Y-64656000D03*
X122805716Y-100216000D03*
X89785716Y-74816000D03*
X132965716Y-95136000D03*
X122805716Y-87516000D03*
X130425716Y-97676000D03*
X122805716Y-72276000D03*
X89785716Y-62116000D03*
X138045716Y-97676000D03*
X165985716Y-67196000D03*
X132965716Y-92596000D03*
X145665716Y-92596000D03*
X135505716Y-59576000D03*
X173605716Y-107836000D03*
X130425716Y-102756000D03*
X110105716Y-110376000D03*
X117725716Y-72276000D03*
X125345716Y-74816000D03*
X74545716Y-72276000D03*
X115185716Y-77356000D03*
X112645716Y-123076000D03*
X186305716Y-62116000D03*
X97405716Y-62116000D03*
X163445716Y-64656000D03*
X87245716Y-112916000D03*
X188845716Y-97676000D03*
X165985716Y-123076000D03*
X168525716Y-123076000D03*
X168525716Y-97676000D03*
X97405716Y-74816000D03*
X155825716Y-72276000D03*
X99945716Y-123076000D03*
X188845716Y-112916000D03*
X163445716Y-62116000D03*
X84705716Y-62116000D03*
X105025716Y-102756000D03*
X145665716Y-95136000D03*
X181225716Y-74816000D03*
X84705716Y-64656000D03*
X165985716Y-92596000D03*
X120265716Y-69736000D03*
X140585716Y-62116000D03*
X87245716Y-110376000D03*
X94865716Y-102756000D03*
X176145716Y-87516000D03*
X77085716Y-62116000D03*
X140585716Y-74816000D03*
X135505716Y-123076000D03*
X99945716Y-54496000D03*
X171065716Y-97676000D03*
X84705716Y-100216000D03*
X92325716Y-123076000D03*
X158365716Y-72276000D03*
X102485716Y-57036000D03*
X155825716Y-77356000D03*
X153285716Y-95136000D03*
X130425716Y-62116000D03*
X150745716Y-123076000D03*
X92325716Y-100216000D03*
X171065716Y-102756000D03*
X125345716Y-110376000D03*
X130425716Y-95136000D03*
X127885716Y-74816000D03*
X99945716Y-87516000D03*
X158365716Y-77356000D03*
X102485716Y-95136000D03*
X79625716Y-100216000D03*
X135505716Y-95136000D03*
X132965716Y-72276000D03*
X94865716Y-107836000D03*
X145665716Y-97676000D03*
X97405716Y-102756000D03*
X145665716Y-123076000D03*
X87245716Y-62116000D03*
X178685716Y-54496000D03*
X165985716Y-105296000D03*
X130425716Y-107836000D03*
X120265716Y-59576000D03*
X97405716Y-87516000D03*
X140585716Y-92596000D03*
X130425716Y-64656000D03*
X89785716Y-97676000D03*
X168525716Y-110376000D03*
X84705716Y-67196000D03*
X122805716Y-112916000D03*
X125345716Y-92596000D03*
X122805716Y-110376000D03*
X79625716Y-67196000D03*
X105025716Y-54496000D03*
X138045716Y-62116000D03*
X130425716Y-87516000D03*
X102485716Y-123076000D03*
X138045716Y-110376000D03*
X82165716Y-123076000D03*
X163445716Y-59576000D03*
X102485716Y-92596000D03*
X74545716Y-79896000D03*
X74545716Y-64656000D03*
X165985716Y-74816000D03*
X138045716Y-59576000D03*
X110105716Y-77356000D03*
X178685716Y-120536000D03*
X163445716Y-123076000D03*
X102485716Y-105296000D03*
X89785716Y-100216000D03*
X143125716Y-107836000D03*
X107565716Y-123076000D03*
X94865716Y-67196000D03*
X188845716Y-95136000D03*
X135505716Y-97676000D03*
X89785716Y-92596000D03*
X117725716Y-69736000D03*
X89785716Y-102756000D03*
X92325716Y-105296000D03*
X160905716Y-67196000D03*
X145665716Y-105296000D03*
X150745716Y-102756000D03*
X127885716Y-72276000D03*
X138045716Y-92596000D03*
X163445716Y-105296000D03*
X130425716Y-115456000D03*
X188845716Y-110376000D03*
X163445716Y-74816000D03*
X87245716Y-57036000D03*
X115185716Y-59576000D03*
X115185716Y-72276000D03*
X94865716Y-92596000D03*
X135505716Y-87516000D03*
X97405716Y-115456000D03*
X94865716Y-74816000D03*
X102485716Y-102756000D03*
X97405716Y-95136000D03*
X74545716Y-97676000D03*
X107565716Y-69736000D03*
X186305716Y-64656000D03*
X89785716Y-77356000D03*
X173605716Y-95136000D03*
X107565716Y-87516000D03*
X140585716Y-77356000D03*
X127885716Y-92596000D03*
X130425716Y-112916000D03*
X77085716Y-82436000D03*
X74545716Y-100216000D03*
X145665716Y-100216000D03*
X125345716Y-67196000D03*
X99945716Y-95136000D03*
X140585716Y-107836000D03*
X92325716Y-67196000D03*
X125345716Y-95136000D03*
X105025716Y-57036000D03*
X79625716Y-77356000D03*
X150745716Y-110376000D03*
X127885716Y-100216000D03*
X160905716Y-69736000D03*
X150745716Y-77356000D03*
X125345716Y-105296000D03*
X94865716Y-95136000D03*
X110105716Y-69736000D03*
X77085716Y-72276000D03*
X168525716Y-67196000D03*
X135505716Y-110376000D03*
X160905716Y-59576000D03*
X130425716Y-72276000D03*
X140585716Y-105296000D03*
X82165716Y-57036000D03*
X140585716Y-97676000D03*
X112645716Y-100216000D03*
X173605716Y-105296000D03*
X155825716Y-123076000D03*
X110105716Y-95136000D03*
X138045716Y-95136000D03*
X102485716Y-87516000D03*
X89785716Y-67196000D03*
X135505716Y-69736000D03*
X127885716Y-69736000D03*
X89785716Y-72276000D03*
X122805716Y-64656000D03*
X132965716Y-74816000D03*
X82165716Y-67196000D03*
X132965716Y-97676000D03*
X143125716Y-92596000D03*
X107565716Y-74816000D03*
X84705716Y-110376000D03*
X110105716Y-74816000D03*
X99945716Y-57036000D03*
X84705716Y-107836000D03*
X125345716Y-87516000D03*
X122805716Y-107836000D03*
X138045716Y-72276000D03*
X107565716Y-72276000D03*
X165985716Y-110376000D03*
X171065716Y-95136000D03*
X173605716Y-74816000D03*
X160905716Y-72276000D03*
X160905716Y-74816000D03*
X153285716Y-102756000D03*
X130425716Y-100216000D03*
X92325716Y-95136000D03*
X89785716Y-57036000D03*
X127885716Y-59576000D03*
X163445716Y-102756000D03*
X173605716Y-97676000D03*
X94865716Y-69736000D03*
X74545716Y-107836000D03*
X89785716Y-115456000D03*
X74545716Y-74816000D03*
X97405716Y-69736000D03*
X122805716Y-74816000D03*
X74545716Y-102756000D03*
X176145716Y-107836000D03*
X74545716Y-95136000D03*
X99945716Y-97676000D03*
X158365716Y-74816000D03*
X140585716Y-87516000D03*
X138045716Y-87516000D03*
X110105716Y-107836000D03*
X165985716Y-107836000D03*
X122805716Y-105296000D03*
X188845716Y-54496000D03*
X176145716Y-102756000D03*
X89785716Y-95136000D03*
X125345716Y-97676000D03*
X82165716Y-120536000D03*
X74545716Y-92596000D03*
X74545716Y-105296000D03*
X143125716Y-95136000D03*
X188845716Y-87516000D03*
X165985716Y-100216000D03*
X110105716Y-105296000D03*
X168525716Y-87516000D03*
X122805716Y-59576000D03*
X150745716Y-95136000D03*
X173605716Y-123076000D03*
X127885716Y-87516000D03*
X122805716Y-69736000D03*
X92325716Y-72276000D03*
X105025716Y-107836000D03*
X188845716Y-92596000D03*
X127885716Y-67196000D03*
X130425716Y-110376000D03*
X140585716Y-72276000D03*
X105025716Y-123076000D03*
X87245716Y-72276000D03*
X132965716Y-107836000D03*
X82165716Y-100216000D03*
X87245716Y-102756000D03*
X130425716Y-92596000D03*
X94865716Y-105296000D03*
X135505716Y-100216000D03*
X135505716Y-105296000D03*
X74545716Y-62116000D03*
X97405716Y-100216000D03*
X92325716Y-107836000D03*
X112645716Y-95136000D03*
X163445716Y-77356000D03*
X97405716Y-54496000D03*
X135505716Y-102756000D03*
X140585716Y-69736000D03*
X105025716Y-100216000D03*
X150745716Y-67196000D03*
X145665716Y-87516000D03*
X117725716Y-123076000D03*
X135505716Y-77356000D03*
X84705716Y-59576000D03*
X125345716Y-77356000D03*
X99945716Y-105296000D03*
X130425716Y-77356000D03*
X150745716Y-97676000D03*
X138045716Y-69736000D03*
X171065716Y-67196000D03*
X127885716Y-123076000D03*
X94865716Y-59576000D03*
X84705716Y-74816000D03*
X102485716Y-100216000D03*
X160905716Y-77356000D03*
X188845716Y-102756000D03*
X112645716Y-102756000D03*
X155825716Y-67196000D03*
X178685716Y-107836000D03*
X97405716Y-57036000D03*
X188845716Y-100216000D03*
X105025716Y-95136000D03*
X74545716Y-112916000D03*
X188845716Y-67196000D03*
X89785716Y-54496000D03*
X92325716Y-74816000D03*
X176145716Y-123076000D03*
X127885716Y-110376000D03*
X173605716Y-102756000D03*
X117725716Y-77356000D03*
X120265716Y-77356000D03*
X110105716Y-72276000D03*
X74545716Y-67196000D03*
X87245716Y-105296000D03*
X107565716Y-67196000D03*
X188845716Y-62116000D03*
X110105716Y-92596000D03*
X168525716Y-100216000D03*
X94865716Y-123076000D03*
X127885716Y-95136000D03*
X92325716Y-59576000D03*
X176145716Y-100216000D03*
X122805716Y-77356000D03*
X143125716Y-102756000D03*
X140585716Y-59576000D03*
X165985716Y-87516000D03*
X82165716Y-59576000D03*
X84705716Y-77356000D03*
X94865716Y-87516000D03*
X82165716Y-77356000D03*
X127885716Y-105296000D03*
X89785716Y-107836000D03*
X143125716Y-123076000D03*
X171065716Y-74816000D03*
X127885716Y-107836000D03*
X87245716Y-92596000D03*
X87245716Y-97676000D03*
X110105716Y-100216000D03*
X171065716Y-105296000D03*
X163445716Y-87516000D03*
X153285716Y-97676000D03*
X188845716Y-105296000D03*
X132965716Y-105296000D03*
X188845716Y-84976000D03*
X150745716Y-105296000D03*
X140585716Y-123076000D03*
X171065716Y-123076000D03*
X87245716Y-123076000D03*
X79625716Y-64656000D03*
X107565716Y-77356000D03*
X110105716Y-87516000D03*
X176145716Y-74816000D03*
X97405716Y-72276000D03*
X74545716Y-84976000D03*
X74545716Y-110376000D03*
X115185716Y-74816000D03*
X87245716Y-74816000D03*
X132965716Y-102756000D03*
X99945716Y-107836000D03*
X140585716Y-67196000D03*
X92325716Y-102756000D03*
X97405716Y-59576000D03*
X143125716Y-97676000D03*
X163445716Y-95136000D03*
X97405716Y-92596000D03*
X143125716Y-87516000D03*
X181225716Y-100216000D03*
X163445716Y-72276000D03*
X171065716Y-107836000D03*
X87245716Y-69736000D03*
X163445716Y-69736000D03*
X127885716Y-97676000D03*
X178685716Y-57036000D03*
X176145716Y-105296000D03*
X87245716Y-67196000D03*
X163445716Y-112916000D03*
X120265716Y-72276000D03*
X168525716Y-95136000D03*
X99945716Y-102756000D03*
X165985716Y-69736000D03*
X173605716Y-92596000D03*
X79625716Y-102756000D03*
X140585716Y-100216000D03*
X82165716Y-64656000D03*
X87245716Y-107836000D03*
X160905716Y-123076000D03*
X89785716Y-105296000D03*
X188845716Y-115456000D03*
X99945716Y-92596000D03*
X165985716Y-77356000D03*
X140585716Y-102756000D03*
X120265716Y-67196000D03*
X155825716Y-69736000D03*
X163445716Y-67196000D03*
X84705716Y-57036000D03*
X165985716Y-97676000D03*
X89785716Y-69736000D03*
X173605716Y-87516000D03*
X77085716Y-64656000D03*
X150745716Y-72276000D03*
X168525716Y-102756000D03*
X171065716Y-87516000D03*
X130425716Y-69736000D03*
X178685716Y-123076000D03*
X97405716Y-67196000D03*
X148205716Y-123076000D03*
X105025716Y-92596000D03*
X173605716Y-67196000D03*
X132965716Y-77356000D03*
X132965716Y-69736000D03*
X163445716Y-115456000D03*
X188845716Y-107836000D03*
X117725716Y-74816000D03*
X110105716Y-123076000D03*
X130425716Y-105296000D03*
X138045716Y-107836000D03*
X125345716Y-72276000D03*
X163445716Y-92596000D03*
X77085716Y-77356000D03*
X97405716Y-123076000D03*
X92325716Y-77356000D03*
X135505716Y-67196000D03*
X143125716Y-100216000D03*
X176145716Y-67196000D03*
X168525716Y-74816000D03*
X188845716Y-90056000D03*
X97405716Y-105296000D03*
X150745716Y-87516000D03*
X74545716Y-77356000D03*
X82165716Y-62116000D03*
X122805716Y-97676000D03*
X122805716Y-102756000D03*
X138045716Y-64656000D03*
X74545716Y-82436000D03*
X84705716Y-123076000D03*
X163445716Y-110376000D03*
X125345716Y-69736000D03*
X102485716Y-97676000D03*
X132965716Y-123076000D03*
X92325716Y-57036000D03*
X94865716Y-110376000D03*
X115185716Y-123076000D03*
X112645716Y-107836000D03*
X171065716Y-77356000D03*
X186305716Y-112916000D03*
X97405716Y-97676000D03*
X153285716Y-100216000D03*
X153285716Y-105296000D03*
X74545716Y-115456000D03*
X173605716Y-110376000D03*
X87245716Y-100216000D03*
X150745716Y-74816000D03*
X140585716Y-112916000D03*
X105025716Y-97676000D03*
X122805716Y-67196000D03*
X94865716Y-57036000D03*
X110105716Y-102756000D03*
X168525716Y-77356000D03*
X178685716Y-100216000D03*
X89785716Y-59576000D03*
X135505716Y-74816000D03*
X130425716Y-67196000D03*
X92325716Y-87516000D03*
X99945716Y-110376000D03*
X163445716Y-100216000D03*
X125345716Y-107836000D03*
X140585716Y-115456000D03*
X138045716Y-100216000D03*
X115185716Y-69736000D03*
X127885716Y-77356000D03*
X74545716Y-69736000D03*
X158365716Y-123076000D03*
X176145716Y-72276000D03*
X163445716Y-97676000D03*
X171065716Y-69736000D03*
X110105716Y-97676000D03*
X79625716Y-69736000D03*
X92325716Y-54496000D03*
X171065716Y-72276000D03*
X188845716Y-72276000D03*
X165985716Y-102756000D03*
X74545716Y-87516000D03*
X165985716Y-72276000D03*
X173605716Y-69736000D03*
X130425716Y-59576000D03*
X181225716Y-123076000D03*
X148205716Y-87516000D03*
X94865716Y-97676000D03*
X155825716Y-74816000D03*
X112645716Y-105296000D03*
X140585716Y-110376000D03*
X97405716Y-107836000D03*
X97405716Y-110376000D03*
X138045716Y-77356000D03*
X153285716Y-123076000D03*
X87245716Y-59576000D03*
X188845716Y-64656000D03*
X77085716Y-67196000D03*
X92325716Y-110376000D03*
X178685716Y-74816000D03*
X120265716Y-123076000D03*
X145665716Y-107836000D03*
X92325716Y-97676000D03*
X84705716Y-54496000D03*
X112645716Y-110376000D03*
X112645716Y-97676000D03*
X130425716Y-123076000D03*
X89785716Y-123076000D03*
X89785716Y-110376000D03*
X79625716Y-97676000D03*
X77085716Y-69736000D03*
X135505716Y-92596000D03*
X122805716Y-92596000D03*
X102485716Y-54496000D03*
X87245716Y-77356000D03*
X188845716Y-69736000D03*
X122805716Y-95136000D03*
X94865716Y-72276000D03*
X135505716Y-72276000D03*
X188845716Y-117996000D03*
X89785716Y-112916000D03*
X125345716Y-102756000D03*
X79625716Y-62116000D03*
X153285716Y-107836000D03*
X94865716Y-100216000D03*
X168525716Y-105296000D03*
X145665716Y-102756000D03*
X135505716Y-107836000D03*
X125345716Y-59576000D03*
X173605716Y-100216000D03*
X168525716Y-59576000D03*
X138045716Y-74816000D03*
X92325716Y-69736000D03*
X97405716Y-64656000D03*
X171065716Y-110376000D03*
X120265716Y-74816000D03*
X165985716Y-59576000D03*
X130425716Y-74816000D03*
X150745716Y-100216000D03*
X82165716Y-74816000D03*
X74545716Y-90056000D03*
X79625716Y-74816000D03*
X110105716Y-67196000D03*
X168525716Y-92596000D03*
X173605716Y-112916000D03*
X99945716Y-100216000D03*
X171065716Y-100216000D03*
X183765716Y-62116000D03*
X127885716Y-102756000D03*
X94865716Y-54496000D03*
X87245716Y-54496000D03*
X150745716Y-69736000D03*
X188845716Y-82436000D03*
X153285716Y-110376000D03*
X188845716Y-59576000D03*
X89785716Y-64656000D03*
X132965716Y-67196000D03*
D20*
%TO.N,CAN+*%
X149800000Y-90375000D03*
X108500000Y-90375000D03*
X149800000Y-91800000D03*
X108500000Y-91900000D03*
%TD*%
D22*
%TO.N,7V*%
X103500000Y-81358000D02*
X117200000Y-81358000D01*
X178524000Y-81358000D02*
X178700000Y-81182000D01*
X117200000Y-81358000D02*
X144700000Y-81358000D01*
X103482000Y-63350000D02*
X103482000Y-81340000D01*
X144700000Y-81358000D02*
X158500000Y-81358000D01*
X144680000Y-63350000D02*
X144680000Y-81338000D01*
X117178000Y-113400000D02*
X117178000Y-81380000D01*
X158500000Y-81358000D02*
X178524000Y-81358000D01*
X144680000Y-81338000D02*
X144700000Y-81358000D01*
X158578000Y-113400000D02*
X158578000Y-81436000D01*
X103482000Y-81340000D02*
X103500000Y-81358000D01*
X158578000Y-81436000D02*
X158500000Y-81358000D01*
X117178000Y-81380000D02*
X117200000Y-81358000D01*
X83350000Y-81358000D02*
X103500000Y-81358000D01*
D23*
%TO.N,CAN-*%
X113100000Y-91100000D02*
X113100000Y-89200000D01*
X154300000Y-89100000D02*
X154300000Y-91100000D01*
%TO.N,CAN+*%
X149800000Y-90375000D02*
X149800000Y-91800000D01*
X108500000Y-90375000D02*
X108500000Y-91900000D01*
D24*
%TO.N,12V*%
X148758000Y-60550000D02*
X148758000Y-59758000D01*
X181840000Y-85260000D02*
X184900000Y-82200000D01*
D25*
X149500000Y-120100000D02*
X154100000Y-120100000D01*
D24*
X151700000Y-117700000D02*
X154100000Y-120100000D01*
D25*
X79489340Y-90495405D02*
X78984745Y-91000000D01*
X108000000Y-56700000D02*
X112600000Y-56700000D01*
D24*
X111715000Y-114815000D02*
X113100000Y-116200000D01*
X148758000Y-60550000D02*
X150050000Y-60550000D01*
D25*
X184900000Y-86000000D02*
X184900000Y-89900000D01*
D24*
X107560000Y-60550000D02*
X107560000Y-60540000D01*
X110330000Y-118270000D02*
X108500000Y-120100000D01*
X109700000Y-58400000D02*
X108000000Y-56700000D01*
X181500000Y-88030000D02*
X182930000Y-88030000D01*
X184800000Y-89900000D02*
X184900000Y-89900000D01*
X108945000Y-61935000D02*
X107560000Y-60550000D01*
D25*
X76984745Y-89600000D02*
X76984745Y-93000000D01*
X76984745Y-94565255D02*
X76984745Y-96000000D01*
D24*
X150143000Y-63445000D02*
X150143000Y-61935000D01*
D25*
X104800000Y-120100000D02*
X107700000Y-120100000D01*
D24*
X80550000Y-88230000D02*
X81935000Y-89615000D01*
X151730000Y-116200000D02*
X151730000Y-117870000D01*
X151528000Y-59072000D02*
X153900000Y-56700000D01*
X78354745Y-88230000D02*
X76984745Y-89600000D01*
X110365000Y-60550000D02*
X110365000Y-59065000D01*
X183200000Y-86330000D02*
X183200000Y-85700000D01*
D25*
X115900000Y-56700000D02*
X145700000Y-56700000D01*
D24*
X110330000Y-58970000D02*
X112600000Y-56700000D01*
D25*
X159100000Y-56700000D02*
X172600000Y-56700000D01*
X116300000Y-120100000D02*
X144200000Y-120100000D01*
D24*
X154500000Y-116200000D02*
X154500000Y-117400000D01*
D25*
X114200000Y-120100000D02*
X116300000Y-120100000D01*
D24*
X110365000Y-59065000D02*
X109700000Y-58400000D01*
X154500000Y-117400000D02*
X157200000Y-120100000D01*
X80550000Y-88230000D02*
X78354745Y-88230000D01*
D25*
X172600000Y-56700000D02*
X184900000Y-69000000D01*
X88800000Y-120100000D02*
X104800000Y-120100000D01*
D24*
X151528000Y-60550000D02*
X151528000Y-59072000D01*
X181500000Y-88030000D02*
X183200000Y-86330000D01*
D25*
X107700000Y-120100000D02*
X108500000Y-120100000D01*
X78984745Y-91000000D02*
X76984745Y-93000000D01*
X184900000Y-108200000D02*
X184900000Y-95000000D01*
D24*
X178605000Y-86645000D02*
X180115000Y-86645000D01*
D25*
X184900000Y-91500000D02*
X184900000Y-95000000D01*
X145700000Y-56700000D02*
X148200000Y-56700000D01*
D24*
X158135000Y-56700000D02*
X159100000Y-56700000D01*
X151700000Y-116200000D02*
X151700000Y-117700000D01*
X80550000Y-88230000D02*
X79489340Y-88230000D01*
D25*
X76984745Y-85725405D02*
X76984745Y-89600000D01*
D24*
X110330000Y-60550000D02*
X110330000Y-58970000D01*
X184900000Y-94235000D02*
X184900000Y-95000000D01*
X79489340Y-88230000D02*
X76984745Y-85725405D01*
X153115000Y-113305000D02*
X153115000Y-114815000D01*
D25*
X153900000Y-56700000D02*
X159100000Y-56700000D01*
X157200000Y-120100000D02*
X173000000Y-120100000D01*
D24*
X108945000Y-61935000D02*
X110330000Y-60550000D01*
X145030000Y-120100000D02*
X144200000Y-120100000D01*
X107560000Y-60550000D02*
X107560000Y-57140000D01*
D25*
X184900000Y-69000000D02*
X184900000Y-82200000D01*
D24*
X180115000Y-86645000D02*
X181500000Y-88030000D01*
D25*
X112800000Y-120100000D02*
X114200000Y-120100000D01*
D24*
X108945000Y-63445000D02*
X108945000Y-61935000D01*
D25*
X148200000Y-56700000D02*
X149000000Y-56700000D01*
D24*
X111715000Y-113305000D02*
X111715000Y-114815000D01*
X181450000Y-88015000D02*
X182885000Y-88015000D01*
X113100000Y-116200000D02*
X113100000Y-116900000D01*
D25*
X184900000Y-84800000D02*
X184900000Y-86000000D01*
D24*
X182930000Y-88030000D02*
X184800000Y-89900000D01*
X81935000Y-89615000D02*
X83445000Y-89615000D01*
X107560000Y-60550000D02*
X110330000Y-60550000D01*
X153115000Y-114815000D02*
X151730000Y-116200000D01*
X153115000Y-114815000D02*
X154500000Y-116200000D01*
X150143000Y-61935000D02*
X151528000Y-60550000D01*
D25*
X155600000Y-120100000D02*
X157200000Y-120100000D01*
D24*
X107560000Y-57140000D02*
X108000000Y-56700000D01*
X181500000Y-85260000D02*
X181840000Y-85260000D01*
X110330000Y-116200000D02*
X110330000Y-118270000D01*
X148758000Y-59758000D02*
X145700000Y-56700000D01*
D25*
X76984745Y-93000000D02*
X76984745Y-96000000D01*
D24*
X180115000Y-86645000D02*
X181500000Y-85260000D01*
X151730000Y-117870000D02*
X149500000Y-120100000D01*
X153115000Y-117615000D02*
X155600000Y-120100000D01*
X107560000Y-60540000D02*
X109700000Y-58400000D01*
X153115000Y-113305000D02*
X153115000Y-117615000D01*
X113100000Y-116900000D02*
X116300000Y-120100000D01*
D25*
X149000000Y-56700000D02*
X153900000Y-56700000D01*
X154100000Y-120100000D02*
X155600000Y-120100000D01*
X173000000Y-120100000D02*
X184900000Y-108200000D01*
D24*
X110335000Y-116200000D02*
X110335000Y-117635000D01*
D25*
X76984745Y-108284745D02*
X88800000Y-120100000D01*
D24*
X107565000Y-119965000D02*
X107700000Y-120100000D01*
D25*
X144200000Y-120100000D02*
X149500000Y-120100000D01*
D24*
X110335000Y-117635000D02*
X112800000Y-120100000D01*
D25*
X184900000Y-82200000D02*
X184900000Y-84800000D01*
D24*
X110600000Y-116200000D02*
X112800000Y-118400000D01*
D25*
X108500000Y-120100000D02*
X112800000Y-120100000D01*
D24*
X110330000Y-116200000D02*
X110600000Y-116200000D01*
X182885000Y-88015000D02*
X184900000Y-86000000D01*
X111715000Y-114815000D02*
X110330000Y-116200000D01*
X80550000Y-91000000D02*
X81935000Y-89615000D01*
D25*
X76984745Y-96000000D02*
X76984745Y-108284745D01*
X184900000Y-89900000D02*
X184900000Y-91500000D01*
D24*
X148200000Y-56700000D02*
X150200000Y-58700000D01*
X150143000Y-61935000D02*
X148758000Y-60550000D01*
D25*
X112600000Y-56700000D02*
X115900000Y-56700000D01*
D24*
X150050000Y-60550000D02*
X151528000Y-59072000D01*
%TD*%
%TA.AperFunction,Conductor*%
%TO.N,GND*%
G36*
X81992980Y-84586632D02*
G01*
X82051276Y-84609010D01*
X82054213Y-84610181D01*
X82169295Y-84657850D01*
X82208953Y-84669879D01*
X82217375Y-84672769D01*
X82266801Y-84691742D01*
X82386753Y-84723883D01*
X82390547Y-84724966D01*
X82498422Y-84757690D01*
X82547569Y-84767465D01*
X82550724Y-84768093D01*
X82558629Y-84769937D01*
X82621191Y-84786701D01*
X82621198Y-84786703D01*
X82621199Y-84786703D01*
X82621206Y-84786705D01*
X82732167Y-84804278D01*
X82736831Y-84805111D01*
X82835750Y-84824789D01*
X82835751Y-84824789D01*
X82835756Y-84824790D01*
X82900626Y-84831178D01*
X82907869Y-84832107D01*
X82983596Y-84844102D01*
X83081681Y-84849241D01*
X83083865Y-84849356D01*
X83089530Y-84849783D01*
X83117733Y-84852560D01*
X83178031Y-84858500D01*
X83255086Y-84858500D01*
X83261576Y-84858670D01*
X83349999Y-84863304D01*
X83350000Y-84863304D01*
X83350001Y-84863304D01*
X83438424Y-84858670D01*
X83444914Y-84858500D01*
X103328031Y-84858500D01*
X103671969Y-84858500D01*
X113553500Y-84858500D01*
X113620539Y-84878185D01*
X113666294Y-84930989D01*
X113677500Y-84982500D01*
X113677500Y-88393097D01*
X113657815Y-88460136D01*
X113605011Y-88505891D01*
X113535853Y-88515835D01*
X113487529Y-88498091D01*
X113449525Y-88474212D01*
X113279254Y-88414631D01*
X113279249Y-88414630D01*
X113100004Y-88394435D01*
X113099996Y-88394435D01*
X112920750Y-88414630D01*
X112920745Y-88414631D01*
X112750476Y-88474211D01*
X112597737Y-88570184D01*
X112470184Y-88697737D01*
X112374211Y-88850476D01*
X112314631Y-89020745D01*
X112314630Y-89020750D01*
X112294435Y-89199996D01*
X112294435Y-89200003D01*
X112314630Y-89379249D01*
X112314631Y-89379254D01*
X112374211Y-89549523D01*
X112425770Y-89631578D01*
X112457711Y-89682412D01*
X112470185Y-89702263D01*
X112472445Y-89705097D01*
X112473334Y-89707275D01*
X112473889Y-89708158D01*
X112473734Y-89708255D01*
X112498855Y-89769783D01*
X112499500Y-89782412D01*
X112499500Y-90517587D01*
X112479815Y-90584626D01*
X112472450Y-90594896D01*
X112470186Y-90597734D01*
X112374211Y-90750476D01*
X112314631Y-90920745D01*
X112314630Y-90920750D01*
X112294435Y-91099996D01*
X112294435Y-91100003D01*
X112314630Y-91279249D01*
X112314631Y-91279254D01*
X112374211Y-91449523D01*
X112437646Y-91550478D01*
X112470184Y-91602262D01*
X112597738Y-91729816D01*
X112750478Y-91825789D01*
X112920745Y-91885368D01*
X112920750Y-91885369D01*
X113099996Y-91905565D01*
X113100000Y-91905565D01*
X113100004Y-91905565D01*
X113279249Y-91885369D01*
X113279252Y-91885368D01*
X113279255Y-91885368D01*
X113449522Y-91825789D01*
X113487527Y-91801909D01*
X113554764Y-91782908D01*
X113621599Y-91803275D01*
X113666813Y-91856543D01*
X113677500Y-91906902D01*
X113677500Y-113305085D01*
X113677330Y-113311575D01*
X113672696Y-113399999D01*
X113672696Y-113400000D01*
X113677330Y-113488423D01*
X113677500Y-113494913D01*
X113677500Y-113571967D01*
X113686215Y-113660467D01*
X113686642Y-113666128D01*
X113691898Y-113766404D01*
X113703890Y-113842119D01*
X113704820Y-113849363D01*
X113711209Y-113914240D01*
X113711212Y-113914256D01*
X113730875Y-114013110D01*
X113731731Y-114017902D01*
X113749294Y-114128791D01*
X113749296Y-114128800D01*
X113766067Y-114191391D01*
X113767909Y-114199290D01*
X113778310Y-114251578D01*
X113811014Y-114359391D01*
X113812127Y-114363290D01*
X113844257Y-114483196D01*
X113844261Y-114483210D01*
X113846419Y-114488831D01*
X113852063Y-114558472D01*
X113819161Y-114620110D01*
X113758157Y-114654174D01*
X113688422Y-114649850D01*
X113642972Y-114620944D01*
X113251819Y-114229791D01*
X113218334Y-114168468D01*
X113215500Y-114142110D01*
X113215500Y-113186902D01*
X113178553Y-112953631D01*
X113134215Y-112817173D01*
X113105568Y-112729008D01*
X113105566Y-112729005D01*
X113105566Y-112729003D01*
X113049002Y-112617991D01*
X112998343Y-112518567D01*
X112859517Y-112327490D01*
X112692510Y-112160483D01*
X112501433Y-112021657D01*
X112290996Y-111914433D01*
X112066368Y-111841446D01*
X111833097Y-111804500D01*
X111833092Y-111804500D01*
X111596908Y-111804500D01*
X111596903Y-111804500D01*
X111363631Y-111841446D01*
X111139003Y-111914433D01*
X110928566Y-112021657D01*
X110819550Y-112100862D01*
X110737490Y-112160483D01*
X110737488Y-112160485D01*
X110737487Y-112160485D01*
X110570485Y-112327487D01*
X110570485Y-112327488D01*
X110570483Y-112327490D01*
X110528774Y-112384896D01*
X110431655Y-112518568D01*
X110345316Y-112688017D01*
X110297342Y-112738812D01*
X110229521Y-112755607D01*
X110163386Y-112733069D01*
X110119935Y-112678354D01*
X110116901Y-112670038D01*
X110103884Y-112629975D01*
X110014524Y-112454595D01*
X109898828Y-112295354D01*
X109759646Y-112156172D01*
X109600405Y-112040476D01*
X109425029Y-111951117D01*
X109237826Y-111890290D01*
X109043422Y-111859500D01*
X109043417Y-111859500D01*
X108846583Y-111859500D01*
X108846578Y-111859500D01*
X108652173Y-111890290D01*
X108464970Y-111951117D01*
X108289594Y-112040476D01*
X108198741Y-112106485D01*
X108130354Y-112156172D01*
X108130352Y-112156174D01*
X108130351Y-112156174D01*
X107991174Y-112295351D01*
X107991174Y-112295352D01*
X107991172Y-112295354D01*
X107967826Y-112327487D01*
X107875476Y-112454594D01*
X107786117Y-112629970D01*
X107725290Y-112817173D01*
X107694500Y-113011577D01*
X107694500Y-113708422D01*
X107725290Y-113902826D01*
X107786117Y-114090029D01*
X107839757Y-114195303D01*
X107875476Y-114265405D01*
X107991172Y-114424646D01*
X107991174Y-114424648D01*
X108130354Y-114563828D01*
X108135974Y-114567911D01*
X108178639Y-114623242D01*
X108184617Y-114692855D01*
X108152010Y-114754650D01*
X108091171Y-114789006D01*
X108024769Y-114786159D01*
X107978093Y-114770993D01*
X107852826Y-114730290D01*
X107658422Y-114699500D01*
X107658417Y-114699500D01*
X107461583Y-114699500D01*
X107461578Y-114699500D01*
X107267173Y-114730290D01*
X107079970Y-114791117D01*
X106904594Y-114880476D01*
X106847108Y-114922243D01*
X106745354Y-114996172D01*
X106745352Y-114996174D01*
X106745351Y-114996174D01*
X106606174Y-115135351D01*
X106606174Y-115135352D01*
X106606172Y-115135354D01*
X106575840Y-115177102D01*
X106490476Y-115294594D01*
X106401117Y-115469970D01*
X106340290Y-115657173D01*
X106309500Y-115851577D01*
X106309500Y-116548422D01*
X106340290Y-116742826D01*
X106401117Y-116930029D01*
X106415904Y-116959049D01*
X106490476Y-117105405D01*
X106606172Y-117264646D01*
X106745354Y-117403828D01*
X106904595Y-117519524D01*
X106987455Y-117561743D01*
X107079970Y-117608882D01*
X107079972Y-117608882D01*
X107079975Y-117608884D01*
X107180317Y-117641487D01*
X107267173Y-117669709D01*
X107461578Y-117700500D01*
X107461583Y-117700500D01*
X107658422Y-117700500D01*
X107852826Y-117669709D01*
X107918186Y-117648472D01*
X108040025Y-117608884D01*
X108215405Y-117519524D01*
X108374646Y-117403828D01*
X108513828Y-117264646D01*
X108605183Y-117138907D01*
X108660512Y-117096243D01*
X108730126Y-117090264D01*
X108791921Y-117122870D01*
X108826278Y-117183709D01*
X108829500Y-117211794D01*
X108829500Y-117597110D01*
X108809815Y-117664149D01*
X108793181Y-117684791D01*
X108414791Y-118063181D01*
X108353468Y-118096666D01*
X108327110Y-118099500D01*
X89679996Y-118099500D01*
X89612957Y-118079815D01*
X89592315Y-118063181D01*
X85529134Y-114000000D01*
X90939473Y-114000000D01*
X90959563Y-114332136D01*
X90959563Y-114332141D01*
X90959564Y-114332142D01*
X91019544Y-114659441D01*
X91019545Y-114659445D01*
X91019546Y-114659449D01*
X91118530Y-114977104D01*
X91118534Y-114977116D01*
X91118537Y-114977123D01*
X91255102Y-115280557D01*
X91427246Y-115565318D01*
X91427251Y-115565326D01*
X91632460Y-115827255D01*
X91867744Y-116062539D01*
X92129673Y-116267748D01*
X92129678Y-116267751D01*
X92129682Y-116267754D01*
X92414443Y-116439898D01*
X92717877Y-116576463D01*
X92717890Y-116576467D01*
X92717895Y-116576469D01*
X92850754Y-116617869D01*
X93035559Y-116675456D01*
X93362858Y-116735436D01*
X93695000Y-116755527D01*
X94027142Y-116735436D01*
X94354441Y-116675456D01*
X94672123Y-116576463D01*
X94975557Y-116439898D01*
X95260318Y-116267754D01*
X95278552Y-116253469D01*
X95385485Y-116169692D01*
X95522252Y-116062542D01*
X95757542Y-115827252D01*
X95940879Y-115593239D01*
X95962748Y-115565326D01*
X95962748Y-115565324D01*
X95962754Y-115565318D01*
X96134898Y-115280557D01*
X96271463Y-114977123D01*
X96370456Y-114659441D01*
X96430436Y-114332142D01*
X96450527Y-114000000D01*
X96430436Y-113667858D01*
X96370456Y-113340559D01*
X96271463Y-113022877D01*
X96134898Y-112719443D01*
X95962754Y-112434682D01*
X95962751Y-112434678D01*
X95962748Y-112434673D01*
X95757539Y-112172744D01*
X95522255Y-111937460D01*
X95260326Y-111732251D01*
X95260318Y-111732246D01*
X94975557Y-111560102D01*
X94672123Y-111423537D01*
X94672116Y-111423534D01*
X94672104Y-111423530D01*
X94354449Y-111324546D01*
X94354445Y-111324545D01*
X94354441Y-111324544D01*
X94027142Y-111264564D01*
X94027141Y-111264563D01*
X94027136Y-111264563D01*
X93695000Y-111244473D01*
X93362863Y-111264563D01*
X93362858Y-111264564D01*
X93035559Y-111324544D01*
X93035556Y-111324544D01*
X93035550Y-111324546D01*
X92717895Y-111423530D01*
X92717879Y-111423536D01*
X92717877Y-111423537D01*
X92524656Y-111510498D01*
X92414447Y-111560100D01*
X92414445Y-111560101D01*
X92129673Y-111732251D01*
X91867744Y-111937460D01*
X91632460Y-112172744D01*
X91427251Y-112434673D01*
X91255101Y-112719445D01*
X91255100Y-112719447D01*
X91118536Y-113022880D01*
X91118530Y-113022895D01*
X91019546Y-113340550D01*
X91019544Y-113340556D01*
X91019544Y-113340559D01*
X90977137Y-113571967D01*
X90959563Y-113667863D01*
X90939473Y-114000000D01*
X85529134Y-114000000D01*
X79021564Y-107492430D01*
X78988079Y-107431107D01*
X78985245Y-107404749D01*
X78985245Y-104895000D01*
X79994473Y-104895000D01*
X80014563Y-105227136D01*
X80014563Y-105227141D01*
X80014564Y-105227142D01*
X80074544Y-105554441D01*
X80074545Y-105554445D01*
X80074546Y-105554449D01*
X80173530Y-105872104D01*
X80173534Y-105872116D01*
X80173537Y-105872123D01*
X80310102Y-106175557D01*
X80482246Y-106460318D01*
X80482251Y-106460326D01*
X80687460Y-106722255D01*
X80922744Y-106957539D01*
X81184673Y-107162748D01*
X81184678Y-107162751D01*
X81184682Y-107162754D01*
X81469443Y-107334898D01*
X81772877Y-107471463D01*
X81772890Y-107471467D01*
X81772895Y-107471469D01*
X81984665Y-107537458D01*
X82090559Y-107570456D01*
X82417858Y-107630436D01*
X82750000Y-107650527D01*
X83082142Y-107630436D01*
X83409441Y-107570456D01*
X83727123Y-107471463D01*
X84030557Y-107334898D01*
X84315318Y-107162754D01*
X84577252Y-106957542D01*
X84812542Y-106722252D01*
X85017754Y-106460318D01*
X85189898Y-106175557D01*
X85326463Y-105872123D01*
X85425456Y-105554441D01*
X85485436Y-105227142D01*
X85505527Y-104895000D01*
X85485436Y-104562858D01*
X85425456Y-104235559D01*
X85326463Y-103917877D01*
X85189898Y-103614443D01*
X85017754Y-103329682D01*
X85017751Y-103329678D01*
X85017748Y-103329673D01*
X84812539Y-103067744D01*
X84577255Y-102832460D01*
X84315326Y-102627251D01*
X84274317Y-102602460D01*
X84030557Y-102455102D01*
X83727123Y-102318537D01*
X83727116Y-102318534D01*
X83727104Y-102318530D01*
X83409449Y-102219546D01*
X83409445Y-102219545D01*
X83409441Y-102219544D01*
X83082142Y-102159564D01*
X83082141Y-102159563D01*
X83082136Y-102159563D01*
X82750000Y-102139473D01*
X82417863Y-102159563D01*
X82417858Y-102159564D01*
X82090559Y-102219544D01*
X82090556Y-102219544D01*
X82090550Y-102219546D01*
X81772895Y-102318530D01*
X81772879Y-102318536D01*
X81772877Y-102318537D01*
X81597993Y-102397246D01*
X81469447Y-102455100D01*
X81469445Y-102455101D01*
X81184673Y-102627251D01*
X80922744Y-102832460D01*
X80687460Y-103067744D01*
X80482251Y-103329673D01*
X80310101Y-103614445D01*
X80310100Y-103614447D01*
X80173536Y-103917880D01*
X80173530Y-103917895D01*
X80074546Y-104235550D01*
X80074544Y-104235556D01*
X80074544Y-104235559D01*
X80026122Y-104499786D01*
X80014563Y-104562863D01*
X79994473Y-104895000D01*
X78985245Y-104895000D01*
X78985245Y-93879995D01*
X79004930Y-93812956D01*
X79021559Y-93792319D01*
X80284909Y-92528968D01*
X80346232Y-92495484D01*
X80391988Y-92494177D01*
X80431908Y-92500500D01*
X80431909Y-92500500D01*
X80668097Y-92500500D01*
X80901368Y-92463553D01*
X81125992Y-92390568D01*
X81336434Y-92283343D01*
X81527510Y-92144517D01*
X82520209Y-91151819D01*
X82581532Y-91118334D01*
X82607890Y-91115500D01*
X83563097Y-91115500D01*
X83796368Y-91078553D01*
X84020992Y-91005568D01*
X84231433Y-90898343D01*
X84422510Y-90759517D01*
X84589517Y-90592510D01*
X84728343Y-90401433D01*
X84741813Y-90374996D01*
X107694435Y-90374996D01*
X107694435Y-90375003D01*
X107714630Y-90554249D01*
X107714631Y-90554254D01*
X107774211Y-90724523D01*
X107870185Y-90877263D01*
X107872445Y-90880097D01*
X107873334Y-90882275D01*
X107873889Y-90883158D01*
X107873734Y-90883255D01*
X107898855Y-90944783D01*
X107899500Y-90957412D01*
X107899500Y-91317587D01*
X107879815Y-91384626D01*
X107872450Y-91394896D01*
X107870186Y-91397734D01*
X107774211Y-91550476D01*
X107714631Y-91720745D01*
X107714630Y-91720750D01*
X107694435Y-91899996D01*
X107694435Y-91900003D01*
X107714630Y-92079249D01*
X107714631Y-92079254D01*
X107774211Y-92249523D01*
X107862835Y-92390566D01*
X107870184Y-92402262D01*
X107997738Y-92529816D01*
X108150478Y-92625789D01*
X108320745Y-92685368D01*
X108320750Y-92685369D01*
X108499996Y-92705565D01*
X108500000Y-92705565D01*
X108500004Y-92705565D01*
X108679249Y-92685369D01*
X108679252Y-92685368D01*
X108679255Y-92685368D01*
X108849522Y-92625789D01*
X109002262Y-92529816D01*
X109129816Y-92402262D01*
X109225789Y-92249522D01*
X109285368Y-92079255D01*
X109292077Y-92019709D01*
X109305565Y-91900003D01*
X109305565Y-91899996D01*
X109285369Y-91720750D01*
X109285368Y-91720745D01*
X109270981Y-91679630D01*
X109225789Y-91550478D01*
X109129816Y-91397738D01*
X109129814Y-91397736D01*
X109129813Y-91397734D01*
X109127550Y-91394896D01*
X109126659Y-91392715D01*
X109126111Y-91391842D01*
X109126264Y-91391745D01*
X109101144Y-91330209D01*
X109100500Y-91317587D01*
X109100500Y-90957412D01*
X109120185Y-90890373D01*
X109127555Y-90880097D01*
X109129810Y-90877267D01*
X109129816Y-90877262D01*
X109225789Y-90724522D01*
X109285368Y-90554255D01*
X109285369Y-90554249D01*
X109305565Y-90375003D01*
X109305565Y-90374996D01*
X109285369Y-90195750D01*
X109285368Y-90195745D01*
X109259398Y-90121527D01*
X109225789Y-90025478D01*
X109129816Y-89872738D01*
X109002262Y-89745184D01*
X108980608Y-89731578D01*
X108849523Y-89649211D01*
X108679254Y-89589631D01*
X108679249Y-89589630D01*
X108500004Y-89569435D01*
X108499996Y-89569435D01*
X108320750Y-89589630D01*
X108320745Y-89589631D01*
X108150476Y-89649211D01*
X107997737Y-89745184D01*
X107870184Y-89872737D01*
X107774211Y-90025476D01*
X107714631Y-90195745D01*
X107714630Y-90195750D01*
X107694435Y-90374996D01*
X84741813Y-90374996D01*
X84835568Y-90190992D01*
X84908553Y-89966368D01*
X84922269Y-89879768D01*
X84945500Y-89733097D01*
X84945500Y-89496902D01*
X84908553Y-89263631D01*
X84862590Y-89122173D01*
X84835568Y-89039008D01*
X84835566Y-89039005D01*
X84835566Y-89039003D01*
X84728342Y-88828566D01*
X84589517Y-88637490D01*
X84422510Y-88470483D01*
X84231433Y-88331657D01*
X84158381Y-88294435D01*
X84061983Y-88245317D01*
X84011187Y-88197342D01*
X83994392Y-88129521D01*
X84016930Y-88063386D01*
X84071645Y-88019935D01*
X84079944Y-88016907D01*
X84120025Y-88003884D01*
X84295405Y-87914524D01*
X84454646Y-87798828D01*
X84593828Y-87659646D01*
X84709524Y-87500405D01*
X84798884Y-87325025D01*
X84859709Y-87137826D01*
X84867999Y-87085483D01*
X84890500Y-86943422D01*
X84890500Y-86746577D01*
X84859709Y-86552173D01*
X84798882Y-86364970D01*
X84749998Y-86269030D01*
X84709524Y-86189595D01*
X84593828Y-86030354D01*
X84454646Y-85891172D01*
X84295405Y-85775476D01*
X84250952Y-85752826D01*
X84120029Y-85686117D01*
X83932826Y-85625290D01*
X83738422Y-85594500D01*
X83738417Y-85594500D01*
X83041583Y-85594500D01*
X83041578Y-85594500D01*
X82847173Y-85625290D01*
X82659970Y-85686117D01*
X82484594Y-85775476D01*
X82393741Y-85841485D01*
X82325354Y-85891172D01*
X82325352Y-85891174D01*
X82325351Y-85891174D01*
X82186174Y-86030351D01*
X82186169Y-86030357D01*
X82182083Y-86035981D01*
X82126749Y-86078642D01*
X82057135Y-86084615D01*
X81995343Y-86052004D01*
X81960991Y-85991162D01*
X81963839Y-85924772D01*
X82019709Y-85752826D01*
X82033225Y-85667488D01*
X82050500Y-85558422D01*
X82050500Y-85361577D01*
X82019709Y-85167173D01*
X81958882Y-84979970D01*
X81902699Y-84869706D01*
X81869524Y-84804595D01*
X81869522Y-84804592D01*
X81869521Y-84804590D01*
X81848228Y-84775283D01*
X81824747Y-84709477D01*
X81840572Y-84641423D01*
X81890677Y-84592728D01*
X81959155Y-84578852D01*
X81992980Y-84586632D01*
G37*
%TD.AperFunction*%
%TA.AperFunction,Conductor*%
G36*
X155020539Y-84878185D02*
G01*
X155066294Y-84930989D01*
X155077500Y-84982500D01*
X155077500Y-88446060D01*
X155057815Y-88513099D01*
X155005011Y-88558854D01*
X154935853Y-88568798D01*
X154872297Y-88539773D01*
X154865819Y-88533741D01*
X154802262Y-88470184D01*
X154649523Y-88374211D01*
X154479254Y-88314631D01*
X154479249Y-88314630D01*
X154300004Y-88294435D01*
X154299996Y-88294435D01*
X154120750Y-88314630D01*
X154120745Y-88314631D01*
X153950476Y-88374211D01*
X153797737Y-88470184D01*
X153670184Y-88597737D01*
X153574211Y-88750476D01*
X153514631Y-88920745D01*
X153514630Y-88920750D01*
X153494435Y-89099996D01*
X153494435Y-89100003D01*
X153514630Y-89279249D01*
X153514631Y-89279254D01*
X153574211Y-89449523D01*
X153611360Y-89508645D01*
X153662247Y-89589631D01*
X153670185Y-89602263D01*
X153672445Y-89605097D01*
X153673334Y-89607275D01*
X153673889Y-89608158D01*
X153673734Y-89608255D01*
X153698855Y-89669783D01*
X153699500Y-89682412D01*
X153699500Y-90517587D01*
X153679815Y-90584626D01*
X153672450Y-90594896D01*
X153670186Y-90597734D01*
X153574211Y-90750476D01*
X153514631Y-90920745D01*
X153514630Y-90920750D01*
X153494435Y-91099996D01*
X153494435Y-91100003D01*
X153514630Y-91279249D01*
X153514631Y-91279254D01*
X153574211Y-91449523D01*
X153637646Y-91550478D01*
X153670184Y-91602262D01*
X153797738Y-91729816D01*
X153950478Y-91825789D01*
X154120745Y-91885368D01*
X154120750Y-91885369D01*
X154299996Y-91905565D01*
X154300000Y-91905565D01*
X154300004Y-91905565D01*
X154479249Y-91885369D01*
X154479252Y-91885368D01*
X154479255Y-91885368D01*
X154649522Y-91825789D01*
X154802262Y-91729816D01*
X154865819Y-91666259D01*
X154927142Y-91632774D01*
X154996834Y-91637758D01*
X155052767Y-91679630D01*
X155077184Y-91745094D01*
X155077500Y-91753940D01*
X155077500Y-113305085D01*
X155077330Y-113311575D01*
X155072696Y-113399999D01*
X155072696Y-113400000D01*
X155077330Y-113488423D01*
X155077500Y-113494913D01*
X155077500Y-113571967D01*
X155086215Y-113660467D01*
X155086642Y-113666128D01*
X155091898Y-113766404D01*
X155103890Y-113842119D01*
X155104820Y-113849363D01*
X155111209Y-113914240D01*
X155111212Y-113914256D01*
X155130875Y-114013110D01*
X155131731Y-114017902D01*
X155149294Y-114128791D01*
X155149296Y-114128800D01*
X155166067Y-114191391D01*
X155167909Y-114199290D01*
X155178310Y-114251578D01*
X155211014Y-114359391D01*
X155212127Y-114363290D01*
X155244257Y-114483196D01*
X155244261Y-114483210D01*
X155246419Y-114488831D01*
X155252063Y-114558472D01*
X155219161Y-114620110D01*
X155158157Y-114654174D01*
X155088422Y-114649850D01*
X155042972Y-114620944D01*
X154651819Y-114229791D01*
X154618334Y-114168468D01*
X154615500Y-114142110D01*
X154615500Y-113186902D01*
X154578553Y-112953631D01*
X154534215Y-112817173D01*
X154505568Y-112729008D01*
X154505566Y-112729005D01*
X154505566Y-112729003D01*
X154449002Y-112617991D01*
X154398343Y-112518567D01*
X154259517Y-112327490D01*
X154092510Y-112160483D01*
X153901433Y-112021657D01*
X153690996Y-111914433D01*
X153466368Y-111841446D01*
X153233097Y-111804500D01*
X153233092Y-111804500D01*
X152996908Y-111804500D01*
X152996903Y-111804500D01*
X152763631Y-111841446D01*
X152539003Y-111914433D01*
X152328566Y-112021657D01*
X152219550Y-112100862D01*
X152137490Y-112160483D01*
X152137488Y-112160485D01*
X152137487Y-112160485D01*
X151970485Y-112327487D01*
X151970485Y-112327488D01*
X151970483Y-112327490D01*
X151928774Y-112384896D01*
X151831655Y-112518568D01*
X151745316Y-112688017D01*
X151697342Y-112738812D01*
X151629521Y-112755607D01*
X151563386Y-112733069D01*
X151519935Y-112678354D01*
X151516901Y-112670038D01*
X151503884Y-112629975D01*
X151414524Y-112454595D01*
X151298828Y-112295354D01*
X151159646Y-112156172D01*
X151000405Y-112040476D01*
X150825029Y-111951117D01*
X150637826Y-111890290D01*
X150443422Y-111859500D01*
X150443417Y-111859500D01*
X150246583Y-111859500D01*
X150246578Y-111859500D01*
X150052173Y-111890290D01*
X149864970Y-111951117D01*
X149689594Y-112040476D01*
X149598741Y-112106485D01*
X149530354Y-112156172D01*
X149530352Y-112156174D01*
X149530351Y-112156174D01*
X149391174Y-112295351D01*
X149391174Y-112295352D01*
X149391172Y-112295354D01*
X149367826Y-112327487D01*
X149275476Y-112454594D01*
X149186117Y-112629970D01*
X149125290Y-112817173D01*
X149094500Y-113011577D01*
X149094500Y-113708422D01*
X149125290Y-113902826D01*
X149186117Y-114090029D01*
X149239757Y-114195303D01*
X149275476Y-114265405D01*
X149391172Y-114424646D01*
X149391174Y-114424648D01*
X149530354Y-114563828D01*
X149535974Y-114567911D01*
X149578639Y-114623242D01*
X149584617Y-114692855D01*
X149552010Y-114754650D01*
X149491171Y-114789006D01*
X149424769Y-114786159D01*
X149378093Y-114770993D01*
X149252826Y-114730290D01*
X149058422Y-114699500D01*
X149058417Y-114699500D01*
X148861583Y-114699500D01*
X148861578Y-114699500D01*
X148667173Y-114730290D01*
X148479970Y-114791117D01*
X148304594Y-114880476D01*
X148247108Y-114922243D01*
X148145354Y-114996172D01*
X148145352Y-114996174D01*
X148145351Y-114996174D01*
X148006174Y-115135351D01*
X148006174Y-115135352D01*
X148006172Y-115135354D01*
X147975840Y-115177102D01*
X147890476Y-115294594D01*
X147801117Y-115469970D01*
X147740290Y-115657173D01*
X147709500Y-115851577D01*
X147709500Y-116548422D01*
X147740290Y-116742826D01*
X147801117Y-116930029D01*
X147815904Y-116959049D01*
X147890476Y-117105405D01*
X148006172Y-117264646D01*
X148145354Y-117403828D01*
X148304595Y-117519524D01*
X148387455Y-117561743D01*
X148479970Y-117608882D01*
X148479972Y-117608882D01*
X148479975Y-117608884D01*
X148580317Y-117641487D01*
X148667173Y-117669709D01*
X148861578Y-117700500D01*
X148861583Y-117700500D01*
X149058422Y-117700500D01*
X149252826Y-117669709D01*
X149318186Y-117648472D01*
X149440025Y-117608884D01*
X149615405Y-117519524D01*
X149615409Y-117519520D01*
X149617244Y-117518586D01*
X149685913Y-117505690D01*
X149750654Y-117531966D01*
X149790911Y-117589073D01*
X149793903Y-117658878D01*
X149761220Y-117716752D01*
X149414792Y-118063181D01*
X149353469Y-118096666D01*
X149327111Y-118099500D01*
X116472889Y-118099500D01*
X116405850Y-118079815D01*
X116385208Y-118063181D01*
X114636819Y-116314792D01*
X114603334Y-116253469D01*
X114600500Y-116227111D01*
X114600500Y-116081906D01*
X114600479Y-116081640D01*
X114600500Y-116081540D01*
X114600500Y-116077036D01*
X114601446Y-116077036D01*
X114614845Y-116013263D01*
X114663897Y-115963508D01*
X114732062Y-115948170D01*
X114797699Y-115972120D01*
X114811778Y-115984233D01*
X114832494Y-116004949D01*
X114842761Y-116013263D01*
X114965893Y-116112973D01*
X114966500Y-116113468D01*
X115090240Y-116215019D01*
X115095062Y-116218241D01*
X115104194Y-116224966D01*
X115117634Y-116235851D01*
X115117637Y-116235853D01*
X115117641Y-116235856D01*
X115251591Y-116322843D01*
X115252947Y-116323736D01*
X115376208Y-116406097D01*
X115376207Y-116406097D01*
X115391805Y-116414434D01*
X115400885Y-116419795D01*
X115425348Y-116435682D01*
X115537589Y-116492871D01*
X115557121Y-116502824D01*
X115559279Y-116503951D01*
X115679538Y-116568231D01*
X115699427Y-116576469D01*
X115706847Y-116579542D01*
X115715673Y-116583610D01*
X115752264Y-116602255D01*
X115879276Y-116651010D01*
X115882213Y-116652181D01*
X115997295Y-116699850D01*
X116036953Y-116711879D01*
X116045375Y-116714769D01*
X116094801Y-116733742D01*
X116214753Y-116765883D01*
X116218547Y-116766966D01*
X116326422Y-116799690D01*
X116375569Y-116809465D01*
X116378724Y-116810093D01*
X116386629Y-116811937D01*
X116449191Y-116828701D01*
X116449198Y-116828703D01*
X116449199Y-116828703D01*
X116449206Y-116828705D01*
X116560167Y-116846278D01*
X116564831Y-116847111D01*
X116663750Y-116866789D01*
X116663751Y-116866789D01*
X116663756Y-116866790D01*
X116728626Y-116873178D01*
X116735869Y-116874107D01*
X116811596Y-116886102D01*
X116909681Y-116891241D01*
X116911865Y-116891356D01*
X116917530Y-116891783D01*
X116945733Y-116894560D01*
X117006031Y-116900500D01*
X117083086Y-116900500D01*
X117089576Y-116900670D01*
X117177999Y-116905304D01*
X117178000Y-116905304D01*
X117178001Y-116905304D01*
X117266424Y-116900670D01*
X117272914Y-116900500D01*
X117349963Y-116900500D01*
X117349969Y-116900500D01*
X117438512Y-116891778D01*
X117444097Y-116891357D01*
X117544404Y-116886102D01*
X117620134Y-116874106D01*
X117627367Y-116873178D01*
X117646192Y-116871324D01*
X117692243Y-116866790D01*
X117692246Y-116866789D01*
X117692250Y-116866789D01*
X117791141Y-116847117D01*
X117795848Y-116846276D01*
X117906794Y-116828705D01*
X117969380Y-116811934D01*
X117977275Y-116810093D01*
X117979308Y-116809688D01*
X118029578Y-116799690D01*
X118137452Y-116766966D01*
X118141221Y-116765889D01*
X118261199Y-116733742D01*
X118310643Y-116714761D01*
X118319009Y-116711890D01*
X118358705Y-116699850D01*
X118473836Y-116652160D01*
X118476721Y-116651010D01*
X118603736Y-116602255D01*
X118640312Y-116583617D01*
X118649137Y-116579548D01*
X118676462Y-116568231D01*
X118796720Y-116503951D01*
X118796741Y-116503940D01*
X118798899Y-116502813D01*
X118930652Y-116435682D01*
X118955123Y-116419789D01*
X118964175Y-116414443D01*
X118979787Y-116406100D01*
X119103079Y-116323717D01*
X119104309Y-116322906D01*
X119238366Y-116235851D01*
X119251794Y-116224976D01*
X119260956Y-116218228D01*
X119265760Y-116215019D01*
X119389724Y-116113283D01*
X119389909Y-116113132D01*
X119523506Y-116004949D01*
X119782949Y-115745506D01*
X119891132Y-115611909D01*
X119891283Y-115611724D01*
X119993019Y-115487760D01*
X119996229Y-115482954D01*
X120002979Y-115473790D01*
X120013846Y-115460372D01*
X120013845Y-115460372D01*
X120013851Y-115460366D01*
X120100906Y-115326309D01*
X120101717Y-115325079D01*
X120184100Y-115201787D01*
X120192443Y-115186175D01*
X120197789Y-115177123D01*
X120213682Y-115152652D01*
X120280821Y-115020882D01*
X120281940Y-115018741D01*
X120318083Y-114951122D01*
X120346231Y-114898462D01*
X120357548Y-114871137D01*
X120361617Y-114862312D01*
X120380255Y-114825736D01*
X120429010Y-114698721D01*
X120430160Y-114695836D01*
X120477850Y-114580705D01*
X120489890Y-114541009D01*
X120492761Y-114532643D01*
X120511742Y-114483199D01*
X120543889Y-114363221D01*
X120544966Y-114359452D01*
X120577690Y-114251578D01*
X120588093Y-114199275D01*
X120589937Y-114191368D01*
X120606705Y-114128794D01*
X120624276Y-114017848D01*
X120625123Y-114013110D01*
X120627731Y-114000000D01*
X124239473Y-114000000D01*
X124259563Y-114332136D01*
X124259563Y-114332141D01*
X124259564Y-114332142D01*
X124319544Y-114659441D01*
X124319545Y-114659445D01*
X124319546Y-114659449D01*
X124418530Y-114977104D01*
X124418534Y-114977116D01*
X124418537Y-114977123D01*
X124555102Y-115280557D01*
X124727246Y-115565318D01*
X124727251Y-115565326D01*
X124932460Y-115827255D01*
X125167744Y-116062539D01*
X125429673Y-116267748D01*
X125429678Y-116267751D01*
X125429682Y-116267754D01*
X125714443Y-116439898D01*
X126017877Y-116576463D01*
X126017890Y-116576467D01*
X126017895Y-116576469D01*
X126150754Y-116617869D01*
X126335559Y-116675456D01*
X126662858Y-116735436D01*
X126995000Y-116755527D01*
X127327142Y-116735436D01*
X127654441Y-116675456D01*
X127972123Y-116576463D01*
X128275557Y-116439898D01*
X128560318Y-116267754D01*
X128578552Y-116253469D01*
X128685485Y-116169692D01*
X128822252Y-116062542D01*
X129057542Y-115827252D01*
X129240879Y-115593239D01*
X129262748Y-115565326D01*
X129262748Y-115565324D01*
X129262754Y-115565318D01*
X129434898Y-115280557D01*
X129571463Y-114977123D01*
X129670456Y-114659441D01*
X129730436Y-114332142D01*
X129750527Y-114000000D01*
X132339473Y-114000000D01*
X132359563Y-114332136D01*
X132359563Y-114332141D01*
X132359564Y-114332142D01*
X132419544Y-114659441D01*
X132419545Y-114659445D01*
X132419546Y-114659449D01*
X132518530Y-114977104D01*
X132518534Y-114977116D01*
X132518537Y-114977123D01*
X132655102Y-115280557D01*
X132827246Y-115565318D01*
X132827251Y-115565326D01*
X133032460Y-115827255D01*
X133267744Y-116062539D01*
X133529673Y-116267748D01*
X133529678Y-116267751D01*
X133529682Y-116267754D01*
X133814443Y-116439898D01*
X134117877Y-116576463D01*
X134117890Y-116576467D01*
X134117895Y-116576469D01*
X134250754Y-116617869D01*
X134435559Y-116675456D01*
X134762858Y-116735436D01*
X135095000Y-116755527D01*
X135427142Y-116735436D01*
X135754441Y-116675456D01*
X136072123Y-116576463D01*
X136375557Y-116439898D01*
X136660318Y-116267754D01*
X136678552Y-116253469D01*
X136785485Y-116169692D01*
X136922252Y-116062542D01*
X137157542Y-115827252D01*
X137340879Y-115593239D01*
X137362748Y-115565326D01*
X137362748Y-115565324D01*
X137362754Y-115565318D01*
X137534898Y-115280557D01*
X137671463Y-114977123D01*
X137770456Y-114659441D01*
X137830436Y-114332142D01*
X137850527Y-114000000D01*
X137830436Y-113667858D01*
X137770456Y-113340559D01*
X137671463Y-113022877D01*
X137534898Y-112719443D01*
X137362754Y-112434682D01*
X137362751Y-112434678D01*
X137362748Y-112434673D01*
X137157539Y-112172744D01*
X136922255Y-111937460D01*
X136660326Y-111732251D01*
X136660318Y-111732246D01*
X136375557Y-111560102D01*
X136072123Y-111423537D01*
X136072116Y-111423534D01*
X136072104Y-111423530D01*
X135754449Y-111324546D01*
X135754445Y-111324545D01*
X135754441Y-111324544D01*
X135427142Y-111264564D01*
X135427141Y-111264563D01*
X135427136Y-111264563D01*
X135095000Y-111244473D01*
X134762863Y-111264563D01*
X134762858Y-111264564D01*
X134435559Y-111324544D01*
X134435556Y-111324544D01*
X134435550Y-111324546D01*
X134117895Y-111423530D01*
X134117879Y-111423536D01*
X134117877Y-111423537D01*
X133924656Y-111510498D01*
X133814447Y-111560100D01*
X133814445Y-111560101D01*
X133529673Y-111732251D01*
X133267744Y-111937460D01*
X133032460Y-112172744D01*
X132827251Y-112434673D01*
X132655101Y-112719445D01*
X132655100Y-112719447D01*
X132518536Y-113022880D01*
X132518530Y-113022895D01*
X132419546Y-113340550D01*
X132419544Y-113340556D01*
X132419544Y-113340559D01*
X132377137Y-113571967D01*
X132359563Y-113667863D01*
X132339473Y-114000000D01*
X129750527Y-114000000D01*
X129730436Y-113667858D01*
X129670456Y-113340559D01*
X129571463Y-113022877D01*
X129434898Y-112719443D01*
X129262754Y-112434682D01*
X129262751Y-112434678D01*
X129262748Y-112434673D01*
X129057539Y-112172744D01*
X128822255Y-111937460D01*
X128560326Y-111732251D01*
X128560318Y-111732246D01*
X128275557Y-111560102D01*
X127972123Y-111423537D01*
X127972116Y-111423534D01*
X127972104Y-111423530D01*
X127654449Y-111324546D01*
X127654445Y-111324545D01*
X127654441Y-111324544D01*
X127327142Y-111264564D01*
X127327141Y-111264563D01*
X127327136Y-111264563D01*
X126995000Y-111244473D01*
X126662863Y-111264563D01*
X126662858Y-111264564D01*
X126335559Y-111324544D01*
X126335556Y-111324544D01*
X126335550Y-111324546D01*
X126017895Y-111423530D01*
X126017879Y-111423536D01*
X126017877Y-111423537D01*
X125824656Y-111510498D01*
X125714447Y-111560100D01*
X125714445Y-111560101D01*
X125429673Y-111732251D01*
X125167744Y-111937460D01*
X124932460Y-112172744D01*
X124727251Y-112434673D01*
X124555101Y-112719445D01*
X124555100Y-112719447D01*
X124418536Y-113022880D01*
X124418530Y-113022895D01*
X124319546Y-113340550D01*
X124319544Y-113340556D01*
X124319544Y-113340559D01*
X124277137Y-113571967D01*
X124259563Y-113667863D01*
X124239473Y-114000000D01*
X120627731Y-114000000D01*
X120644789Y-113914250D01*
X120651179Y-113849363D01*
X120652108Y-113842125D01*
X120664102Y-113766402D01*
X120669265Y-113667863D01*
X120669357Y-113666097D01*
X120669778Y-113660512D01*
X120678500Y-113571969D01*
X120678500Y-113494913D01*
X120678670Y-113488423D01*
X120683304Y-113400000D01*
X120683304Y-113399999D01*
X120678670Y-113311575D01*
X120678500Y-113305085D01*
X120678500Y-90374996D01*
X148994435Y-90374996D01*
X148994435Y-90375003D01*
X149014630Y-90554249D01*
X149014631Y-90554254D01*
X149074211Y-90724523D01*
X149170185Y-90877263D01*
X149172445Y-90880097D01*
X149173334Y-90882275D01*
X149173889Y-90883158D01*
X149173734Y-90883255D01*
X149198855Y-90944783D01*
X149199500Y-90957412D01*
X149199500Y-91217587D01*
X149179815Y-91284626D01*
X149172450Y-91294896D01*
X149170186Y-91297734D01*
X149074211Y-91450476D01*
X149014631Y-91620745D01*
X149014630Y-91620750D01*
X148994435Y-91799996D01*
X148994435Y-91800003D01*
X149014630Y-91979249D01*
X149014631Y-91979254D01*
X149074211Y-92149523D01*
X149137045Y-92249522D01*
X149170184Y-92302262D01*
X149297738Y-92429816D01*
X149450478Y-92525789D01*
X149461984Y-92529815D01*
X149620745Y-92585368D01*
X149620750Y-92585369D01*
X149799996Y-92605565D01*
X149800000Y-92605565D01*
X149800004Y-92605565D01*
X149979249Y-92585369D01*
X149979252Y-92585368D01*
X149979255Y-92585368D01*
X150149522Y-92525789D01*
X150302262Y-92429816D01*
X150429816Y-92302262D01*
X150525789Y-92149522D01*
X150585368Y-91979255D01*
X150585369Y-91979249D01*
X150605565Y-91800003D01*
X150605565Y-91799996D01*
X150585369Y-91620750D01*
X150585368Y-91620745D01*
X150583234Y-91614646D01*
X150525789Y-91450478D01*
X150525188Y-91449522D01*
X150489494Y-91392715D01*
X150429816Y-91297738D01*
X150429814Y-91297736D01*
X150429813Y-91297734D01*
X150427550Y-91294896D01*
X150426659Y-91292715D01*
X150426111Y-91291842D01*
X150426264Y-91291745D01*
X150401144Y-91230209D01*
X150400500Y-91217587D01*
X150400500Y-90957412D01*
X150420185Y-90890373D01*
X150427555Y-90880097D01*
X150429810Y-90877267D01*
X150429816Y-90877262D01*
X150525789Y-90724522D01*
X150585368Y-90554255D01*
X150585369Y-90554249D01*
X150605565Y-90375003D01*
X150605565Y-90374996D01*
X150585369Y-90195750D01*
X150585368Y-90195745D01*
X150559398Y-90121527D01*
X150525789Y-90025478D01*
X150429816Y-89872738D01*
X150302262Y-89745184D01*
X150280608Y-89731578D01*
X150149523Y-89649211D01*
X149979254Y-89589631D01*
X149979249Y-89589630D01*
X149800004Y-89569435D01*
X149799996Y-89569435D01*
X149620750Y-89589630D01*
X149620745Y-89589631D01*
X149450476Y-89649211D01*
X149297737Y-89745184D01*
X149170184Y-89872737D01*
X149074211Y-90025476D01*
X149014631Y-90195745D01*
X149014630Y-90195750D01*
X148994435Y-90374996D01*
X120678500Y-90374996D01*
X120678500Y-84982500D01*
X120698185Y-84915461D01*
X120750989Y-84869706D01*
X120802500Y-84858500D01*
X144528031Y-84858500D01*
X144871969Y-84858500D01*
X154953500Y-84858500D01*
X155020539Y-84878185D01*
G37*
%TD.AperFunction*%
%TA.AperFunction,Conductor*%
G36*
X179755309Y-84718249D02*
G01*
X179784900Y-84781543D01*
X179775575Y-84850788D01*
X179750006Y-84887966D01*
X179529792Y-85108181D01*
X179468469Y-85141666D01*
X179442111Y-85144500D01*
X178486903Y-85144500D01*
X178253631Y-85181446D01*
X178029003Y-85254433D01*
X177818566Y-85361657D01*
X177709550Y-85440862D01*
X177627490Y-85500483D01*
X177627488Y-85500485D01*
X177627487Y-85500485D01*
X177460485Y-85667487D01*
X177460485Y-85667488D01*
X177460483Y-85667490D01*
X177446950Y-85686117D01*
X177321657Y-85858566D01*
X177214433Y-86069003D01*
X177141446Y-86293631D01*
X177104500Y-86526902D01*
X177104500Y-86763097D01*
X177141446Y-86996368D01*
X177214433Y-87220996D01*
X177256439Y-87303436D01*
X177321657Y-87431433D01*
X177460483Y-87622510D01*
X177627490Y-87789517D01*
X177818567Y-87928343D01*
X177906151Y-87972969D01*
X177988016Y-88014682D01*
X178038812Y-88062657D01*
X178055607Y-88130478D01*
X178033069Y-88196613D01*
X177978354Y-88240064D01*
X177970041Y-88243097D01*
X177929974Y-88256115D01*
X177754594Y-88345476D01*
X177687209Y-88394435D01*
X177595354Y-88461172D01*
X177595352Y-88461174D01*
X177595351Y-88461174D01*
X177456174Y-88600351D01*
X177456174Y-88600352D01*
X177456172Y-88600354D01*
X177429191Y-88637490D01*
X177340476Y-88759594D01*
X177251117Y-88934970D01*
X177190290Y-89122173D01*
X177159500Y-89316577D01*
X177159500Y-89513422D01*
X177190290Y-89707826D01*
X177251117Y-89895029D01*
X177321744Y-90033642D01*
X177340476Y-90070405D01*
X177456172Y-90229646D01*
X177595354Y-90368828D01*
X177754595Y-90484524D01*
X177819485Y-90517587D01*
X177929970Y-90573882D01*
X177929972Y-90573882D01*
X177929975Y-90573884D01*
X178003390Y-90597738D01*
X178117173Y-90634709D01*
X178311578Y-90665500D01*
X178311583Y-90665500D01*
X179008422Y-90665500D01*
X179202826Y-90634709D01*
X179390025Y-90573884D01*
X179565405Y-90484524D01*
X179724646Y-90368828D01*
X179863828Y-90229646D01*
X179867908Y-90224029D01*
X179923236Y-90181362D01*
X179992849Y-90175381D01*
X180054645Y-90207985D01*
X180089005Y-90268822D01*
X180086159Y-90335231D01*
X180030290Y-90507173D01*
X179999500Y-90701577D01*
X179999500Y-90898422D01*
X180030290Y-91092826D01*
X180091117Y-91280029D01*
X180148089Y-91391842D01*
X180180476Y-91455405D01*
X180296172Y-91614646D01*
X180435354Y-91753828D01*
X180594595Y-91869524D01*
X180625691Y-91885368D01*
X180769970Y-91958882D01*
X180769972Y-91958882D01*
X180769975Y-91958884D01*
X180870317Y-91991487D01*
X180957173Y-92019709D01*
X181151578Y-92050500D01*
X181151583Y-92050500D01*
X181848422Y-92050500D01*
X182042826Y-92019709D01*
X182230025Y-91958884D01*
X182405405Y-91869524D01*
X182564646Y-91753828D01*
X182687819Y-91630655D01*
X182749142Y-91597170D01*
X182818834Y-91602154D01*
X182874767Y-91644026D01*
X182899184Y-91709490D01*
X182899500Y-91718336D01*
X182899500Y-107320003D01*
X182879815Y-107387042D01*
X182863181Y-107407684D01*
X172207685Y-118063181D01*
X172146362Y-118096666D01*
X172120004Y-118099500D01*
X157372890Y-118099500D01*
X157305851Y-118079815D01*
X157285209Y-118063181D01*
X156036819Y-116814791D01*
X156003334Y-116753468D01*
X156000500Y-116727110D01*
X156000500Y-116081906D01*
X156000479Y-116081640D01*
X156000500Y-116081540D01*
X156000500Y-116077036D01*
X156001446Y-116077036D01*
X156014845Y-116013263D01*
X156063897Y-115963508D01*
X156132062Y-115948170D01*
X156197699Y-115972120D01*
X156211778Y-115984233D01*
X156232494Y-116004949D01*
X156242761Y-116013263D01*
X156365893Y-116112973D01*
X156366500Y-116113468D01*
X156490240Y-116215019D01*
X156495062Y-116218241D01*
X156504194Y-116224966D01*
X156517634Y-116235851D01*
X156517637Y-116235853D01*
X156517641Y-116235856D01*
X156651591Y-116322843D01*
X156652947Y-116323736D01*
X156776208Y-116406097D01*
X156776207Y-116406097D01*
X156791805Y-116414434D01*
X156800885Y-116419795D01*
X156825348Y-116435682D01*
X156937589Y-116492871D01*
X156957121Y-116502824D01*
X156959279Y-116503951D01*
X157079538Y-116568231D01*
X157099427Y-116576469D01*
X157106847Y-116579542D01*
X157115673Y-116583610D01*
X157152264Y-116602255D01*
X157279276Y-116651010D01*
X157282213Y-116652181D01*
X157397295Y-116699850D01*
X157436953Y-116711879D01*
X157445375Y-116714769D01*
X157494801Y-116733742D01*
X157614753Y-116765883D01*
X157618547Y-116766966D01*
X157726422Y-116799690D01*
X157775569Y-116809465D01*
X157778724Y-116810093D01*
X157786629Y-116811937D01*
X157849191Y-116828701D01*
X157849198Y-116828703D01*
X157849199Y-116828703D01*
X157849206Y-116828705D01*
X157960167Y-116846278D01*
X157964831Y-116847111D01*
X158063750Y-116866789D01*
X158063751Y-116866789D01*
X158063756Y-116866790D01*
X158128626Y-116873178D01*
X158135869Y-116874107D01*
X158211596Y-116886102D01*
X158309681Y-116891241D01*
X158311865Y-116891356D01*
X158317530Y-116891783D01*
X158345733Y-116894560D01*
X158406031Y-116900500D01*
X158483086Y-116900500D01*
X158489576Y-116900670D01*
X158577999Y-116905304D01*
X158578000Y-116905304D01*
X158578001Y-116905304D01*
X158666424Y-116900670D01*
X158672914Y-116900500D01*
X158749963Y-116900500D01*
X158749969Y-116900500D01*
X158838512Y-116891778D01*
X158844097Y-116891357D01*
X158944404Y-116886102D01*
X159020134Y-116874106D01*
X159027367Y-116873178D01*
X159046192Y-116871324D01*
X159092243Y-116866790D01*
X159092246Y-116866789D01*
X159092250Y-116866789D01*
X159191141Y-116847117D01*
X159195848Y-116846276D01*
X159306794Y-116828705D01*
X159369380Y-116811934D01*
X159377275Y-116810093D01*
X159379308Y-116809688D01*
X159429578Y-116799690D01*
X159537452Y-116766966D01*
X159541221Y-116765889D01*
X159661199Y-116733742D01*
X159710643Y-116714761D01*
X159719009Y-116711890D01*
X159758705Y-116699850D01*
X159873836Y-116652160D01*
X159876721Y-116651010D01*
X160003736Y-116602255D01*
X160040312Y-116583617D01*
X160049137Y-116579548D01*
X160076462Y-116568231D01*
X160196720Y-116503951D01*
X160196741Y-116503940D01*
X160198899Y-116502813D01*
X160330652Y-116435682D01*
X160355123Y-116419789D01*
X160364175Y-116414443D01*
X160379787Y-116406100D01*
X160503079Y-116323717D01*
X160504309Y-116322906D01*
X160638366Y-116235851D01*
X160651794Y-116224976D01*
X160660956Y-116218228D01*
X160665760Y-116215019D01*
X160789724Y-116113283D01*
X160789909Y-116113132D01*
X160923506Y-116004949D01*
X161182949Y-115745506D01*
X161291132Y-115611909D01*
X161291283Y-115611724D01*
X161393019Y-115487760D01*
X161396229Y-115482954D01*
X161402979Y-115473790D01*
X161413846Y-115460372D01*
X161413845Y-115460372D01*
X161413851Y-115460366D01*
X161500906Y-115326309D01*
X161501717Y-115325079D01*
X161584100Y-115201787D01*
X161592443Y-115186175D01*
X161597789Y-115177123D01*
X161613682Y-115152652D01*
X161680821Y-115020882D01*
X161681940Y-115018741D01*
X161718083Y-114951122D01*
X161746231Y-114898462D01*
X161757548Y-114871137D01*
X161761617Y-114862312D01*
X161780255Y-114825736D01*
X161829010Y-114698721D01*
X161830160Y-114695836D01*
X161877850Y-114580705D01*
X161889890Y-114541009D01*
X161892761Y-114532643D01*
X161911742Y-114483199D01*
X161943889Y-114363221D01*
X161944966Y-114359452D01*
X161977690Y-114251578D01*
X161988093Y-114199275D01*
X161989937Y-114191368D01*
X162006705Y-114128794D01*
X162024276Y-114017848D01*
X162025123Y-114013110D01*
X162027731Y-114000000D01*
X165639473Y-114000000D01*
X165659563Y-114332136D01*
X165659563Y-114332141D01*
X165659564Y-114332142D01*
X165719544Y-114659441D01*
X165719545Y-114659445D01*
X165719546Y-114659449D01*
X165818530Y-114977104D01*
X165818534Y-114977116D01*
X165818537Y-114977123D01*
X165955102Y-115280557D01*
X166127246Y-115565318D01*
X166127251Y-115565326D01*
X166332460Y-115827255D01*
X166567744Y-116062539D01*
X166829673Y-116267748D01*
X166829678Y-116267751D01*
X166829682Y-116267754D01*
X167114443Y-116439898D01*
X167417877Y-116576463D01*
X167417890Y-116576467D01*
X167417895Y-116576469D01*
X167550754Y-116617869D01*
X167735559Y-116675456D01*
X168062858Y-116735436D01*
X168395000Y-116755527D01*
X168727142Y-116735436D01*
X169054441Y-116675456D01*
X169372123Y-116576463D01*
X169675557Y-116439898D01*
X169960318Y-116267754D01*
X169978552Y-116253469D01*
X170085485Y-116169692D01*
X170222252Y-116062542D01*
X170457542Y-115827252D01*
X170640879Y-115593239D01*
X170662748Y-115565326D01*
X170662748Y-115565324D01*
X170662754Y-115565318D01*
X170834898Y-115280557D01*
X170971463Y-114977123D01*
X171070456Y-114659441D01*
X171130436Y-114332142D01*
X171150527Y-114000000D01*
X171130436Y-113667858D01*
X171070456Y-113340559D01*
X170971463Y-113022877D01*
X170834898Y-112719443D01*
X170662754Y-112434682D01*
X170662751Y-112434678D01*
X170662748Y-112434673D01*
X170457539Y-112172744D01*
X170222255Y-111937460D01*
X169960326Y-111732251D01*
X169960318Y-111732246D01*
X169675557Y-111560102D01*
X169372123Y-111423537D01*
X169372116Y-111423534D01*
X169372104Y-111423530D01*
X169054449Y-111324546D01*
X169054445Y-111324545D01*
X169054441Y-111324544D01*
X168727142Y-111264564D01*
X168727141Y-111264563D01*
X168727136Y-111264563D01*
X168395000Y-111244473D01*
X168062863Y-111264563D01*
X168062858Y-111264564D01*
X167735559Y-111324544D01*
X167735556Y-111324544D01*
X167735550Y-111324546D01*
X167417895Y-111423530D01*
X167417879Y-111423536D01*
X167417877Y-111423537D01*
X167224656Y-111510498D01*
X167114447Y-111560100D01*
X167114445Y-111560101D01*
X166829673Y-111732251D01*
X166567744Y-111937460D01*
X166332460Y-112172744D01*
X166127251Y-112434673D01*
X165955101Y-112719445D01*
X165955100Y-112719447D01*
X165818536Y-113022880D01*
X165818530Y-113022895D01*
X165719546Y-113340550D01*
X165719544Y-113340556D01*
X165719544Y-113340559D01*
X165677137Y-113571967D01*
X165659563Y-113667863D01*
X165639473Y-114000000D01*
X162027731Y-114000000D01*
X162044789Y-113914250D01*
X162051179Y-113849363D01*
X162052108Y-113842125D01*
X162064102Y-113766402D01*
X162069265Y-113667863D01*
X162069357Y-113666097D01*
X162069778Y-113660512D01*
X162078500Y-113571969D01*
X162078500Y-113494913D01*
X162078670Y-113488423D01*
X162083304Y-113400000D01*
X162083304Y-113399999D01*
X162078670Y-113311575D01*
X162078500Y-113305085D01*
X162078500Y-104665000D01*
X176544473Y-104665000D01*
X176564563Y-104997136D01*
X176564563Y-104997141D01*
X176564564Y-104997142D01*
X176624544Y-105324441D01*
X176624545Y-105324445D01*
X176624546Y-105324449D01*
X176723530Y-105642104D01*
X176723534Y-105642116D01*
X176723537Y-105642123D01*
X176860102Y-105945557D01*
X176999139Y-106175552D01*
X177032251Y-106230326D01*
X177237460Y-106492255D01*
X177472744Y-106727539D01*
X177734673Y-106932748D01*
X177734678Y-106932751D01*
X177734682Y-106932754D01*
X178019443Y-107104898D01*
X178322877Y-107241463D01*
X178322890Y-107241467D01*
X178322895Y-107241469D01*
X178534665Y-107307458D01*
X178640559Y-107340456D01*
X178967858Y-107400436D01*
X179300000Y-107420527D01*
X179632142Y-107400436D01*
X179959441Y-107340456D01*
X180277123Y-107241463D01*
X180580557Y-107104898D01*
X180865318Y-106932754D01*
X181127252Y-106727542D01*
X181362542Y-106492252D01*
X181567754Y-106230318D01*
X181739898Y-105945557D01*
X181876463Y-105642123D01*
X181975456Y-105324441D01*
X182035436Y-104997142D01*
X182055527Y-104665000D01*
X182035436Y-104332858D01*
X181975456Y-104005559D01*
X181876463Y-103687877D01*
X181739898Y-103384443D01*
X181567754Y-103099682D01*
X181567751Y-103099678D01*
X181567748Y-103099673D01*
X181362539Y-102837744D01*
X181127255Y-102602460D01*
X180865326Y-102397251D01*
X180735117Y-102318537D01*
X180580557Y-102225102D01*
X180277123Y-102088537D01*
X180277116Y-102088534D01*
X180277104Y-102088530D01*
X179959449Y-101989546D01*
X179959445Y-101989545D01*
X179959441Y-101989544D01*
X179632142Y-101929564D01*
X179632141Y-101929563D01*
X179632136Y-101929563D01*
X179300000Y-101909473D01*
X178967863Y-101929563D01*
X178967858Y-101929564D01*
X178640559Y-101989544D01*
X178640556Y-101989544D01*
X178640550Y-101989546D01*
X178322895Y-102088530D01*
X178322879Y-102088536D01*
X178322877Y-102088537D01*
X178165064Y-102159563D01*
X178019447Y-102225100D01*
X178019445Y-102225101D01*
X177734673Y-102397251D01*
X177472744Y-102602460D01*
X177237460Y-102837744D01*
X177032251Y-103099673D01*
X176860101Y-103384445D01*
X176860100Y-103384447D01*
X176723536Y-103687880D01*
X176723530Y-103687895D01*
X176624546Y-104005550D01*
X176564563Y-104332863D01*
X176544473Y-104665000D01*
X162078500Y-104665000D01*
X162078500Y-84982500D01*
X162098185Y-84915461D01*
X162150989Y-84869706D01*
X162202500Y-84858500D01*
X178695966Y-84858500D01*
X178695969Y-84858500D01*
X179038250Y-84824789D01*
X179375578Y-84757690D01*
X179626333Y-84681623D01*
X179696196Y-84681001D01*
X179755309Y-84718249D01*
G37*
%TD.AperFunction*%
%TA.AperFunction,Conductor*%
G36*
X171787043Y-58720185D02*
G01*
X171807685Y-58736819D01*
X182863181Y-69792315D01*
X182896666Y-69853638D01*
X182899500Y-69879996D01*
X182899500Y-82027110D01*
X182879815Y-82094149D01*
X182863181Y-82114791D01*
X181969691Y-83008280D01*
X181908368Y-83041765D01*
X181838676Y-83036781D01*
X181782743Y-82994909D01*
X181758326Y-82929445D01*
X181771525Y-82864304D01*
X181802817Y-82802892D01*
X181803903Y-82800809D01*
X181868231Y-82680462D01*
X181879548Y-82653137D01*
X181883612Y-82644322D01*
X181902255Y-82607736D01*
X181951002Y-82480742D01*
X181952152Y-82477857D01*
X181999851Y-82362705D01*
X182011894Y-82322999D01*
X182014768Y-82314624D01*
X182033742Y-82265199D01*
X182065886Y-82145230D01*
X182066963Y-82141462D01*
X182099690Y-82033578D01*
X182110094Y-81981270D01*
X182111937Y-81973369D01*
X182128705Y-81910794D01*
X182146281Y-81799818D01*
X182147111Y-81795172D01*
X182166789Y-81696249D01*
X182173180Y-81631349D01*
X182174101Y-81624165D01*
X182186102Y-81548404D01*
X182191356Y-81448141D01*
X182191783Y-81442481D01*
X182200501Y-81353965D01*
X182200501Y-81276894D01*
X182200671Y-81270404D01*
X182205304Y-81182000D01*
X182205304Y-81181999D01*
X182200671Y-81093595D01*
X182200501Y-81087105D01*
X182200501Y-81010034D01*
X182191783Y-80921517D01*
X182191356Y-80915852D01*
X182187577Y-80843747D01*
X182186102Y-80815596D01*
X182174105Y-80739856D01*
X182173179Y-80732634D01*
X182166790Y-80667763D01*
X182166789Y-80667752D01*
X182159122Y-80629209D01*
X182147111Y-80568831D01*
X182146278Y-80564167D01*
X182128705Y-80453206D01*
X182113555Y-80396667D01*
X182111937Y-80390629D01*
X182110093Y-80382724D01*
X182099691Y-80330427D01*
X182099690Y-80330426D01*
X182099690Y-80330422D01*
X182066968Y-80222553D01*
X182065876Y-80218727D01*
X182033742Y-80098801D01*
X182032097Y-80094516D01*
X182014776Y-80049392D01*
X182011879Y-80040949D01*
X181999850Y-80001293D01*
X181956108Y-79895692D01*
X181952173Y-79886192D01*
X181951002Y-79883255D01*
X181902255Y-79756264D01*
X181902254Y-79756263D01*
X181902253Y-79756259D01*
X181883616Y-79719683D01*
X181879547Y-79710857D01*
X181868231Y-79683538D01*
X181803901Y-79563185D01*
X181802812Y-79561097D01*
X181735681Y-79429346D01*
X181719809Y-79404906D01*
X181714444Y-79395821D01*
X181706103Y-79380216D01*
X181706097Y-79380206D01*
X181650924Y-79297634D01*
X181623630Y-79256784D01*
X181622809Y-79255538D01*
X181551796Y-79146188D01*
X181535851Y-79121634D01*
X181524981Y-79108211D01*
X181518239Y-79099057D01*
X181515022Y-79094242D01*
X181515019Y-79094237D01*
X181413414Y-78970433D01*
X181412901Y-78969804D01*
X181304952Y-78836498D01*
X181304949Y-78836494D01*
X181045506Y-78577051D01*
X180912194Y-78469097D01*
X180911565Y-78468584D01*
X180787765Y-78366983D01*
X180787761Y-78366980D01*
X180782920Y-78363745D01*
X180773784Y-78357015D01*
X180760371Y-78346153D01*
X180760370Y-78346152D01*
X180760366Y-78346149D01*
X180626485Y-78259205D01*
X180625158Y-78258330D01*
X180501811Y-78175913D01*
X180501784Y-78175896D01*
X180486174Y-78167552D01*
X180477100Y-78162193D01*
X180452659Y-78146321D01*
X180375471Y-78106992D01*
X180320887Y-78079179D01*
X180318823Y-78078102D01*
X180280889Y-78057826D01*
X180198462Y-78013769D01*
X180198455Y-78013766D01*
X180198445Y-78013761D01*
X180171153Y-78002456D01*
X180162314Y-77998382D01*
X180125736Y-77979745D01*
X179998745Y-77930997D01*
X179995779Y-77929814D01*
X179880705Y-77882149D01*
X179880704Y-77882148D01*
X179880700Y-77882147D01*
X179841036Y-77870115D01*
X179832594Y-77867219D01*
X179830705Y-77866494D01*
X179824273Y-77864024D01*
X179783208Y-77848261D01*
X179783204Y-77848259D01*
X179783199Y-77848258D01*
X179663280Y-77816125D01*
X179659401Y-77815017D01*
X179551578Y-77782310D01*
X179499290Y-77771909D01*
X179491391Y-77770067D01*
X179428800Y-77753296D01*
X179428791Y-77753294D01*
X179317902Y-77735731D01*
X179313110Y-77734875D01*
X179214259Y-77715212D01*
X179214251Y-77715211D01*
X179214250Y-77715211D01*
X179198448Y-77713654D01*
X179149372Y-77708820D01*
X179142134Y-77707891D01*
X179075025Y-77697263D01*
X179066404Y-77695898D01*
X179066402Y-77695897D01*
X179066401Y-77695897D01*
X178966140Y-77690642D01*
X178960479Y-77690215D01*
X178894037Y-77683672D01*
X178871969Y-77681499D01*
X178871967Y-77681499D01*
X178794894Y-77681499D01*
X178788406Y-77681329D01*
X178741595Y-77678875D01*
X178700001Y-77676696D01*
X178699999Y-77676696D01*
X178658404Y-77678875D01*
X178611593Y-77681329D01*
X178605106Y-77681499D01*
X178528031Y-77681499D01*
X178508409Y-77683431D01*
X178439520Y-77690215D01*
X178433859Y-77690642D01*
X178333593Y-77695898D01*
X178333592Y-77695898D01*
X178257877Y-77707890D01*
X178250634Y-77708820D01*
X178185762Y-77715209D01*
X178185752Y-77715210D01*
X178185751Y-77715211D01*
X178093804Y-77733500D01*
X178086891Y-77734875D01*
X178082100Y-77735730D01*
X177971210Y-77753294D01*
X177971206Y-77753294D01*
X177971206Y-77753295D01*
X177958450Y-77756712D01*
X177908609Y-77770067D01*
X177900712Y-77771908D01*
X177848416Y-77782311D01*
X177740605Y-77815014D01*
X177736707Y-77816127D01*
X177616803Y-77848257D01*
X177616801Y-77848257D01*
X177614177Y-77849265D01*
X177569743Y-77857500D01*
X148304500Y-77857500D01*
X148237461Y-77837815D01*
X148191706Y-77785011D01*
X148180500Y-77733500D01*
X148180500Y-71365000D01*
X176544473Y-71365000D01*
X176564563Y-71697136D01*
X176564563Y-71697141D01*
X176564564Y-71697142D01*
X176624544Y-72024441D01*
X176624545Y-72024445D01*
X176624546Y-72024449D01*
X176723530Y-72342104D01*
X176723534Y-72342116D01*
X176723537Y-72342123D01*
X176860102Y-72645557D01*
X176999139Y-72875552D01*
X177032251Y-72930326D01*
X177237460Y-73192255D01*
X177472744Y-73427539D01*
X177734673Y-73632748D01*
X177734678Y-73632751D01*
X177734682Y-73632754D01*
X178019443Y-73804898D01*
X178322877Y-73941463D01*
X178322890Y-73941467D01*
X178322895Y-73941469D01*
X178534665Y-74007458D01*
X178640559Y-74040456D01*
X178967858Y-74100436D01*
X179300000Y-74120527D01*
X179632142Y-74100436D01*
X179959441Y-74040456D01*
X180277123Y-73941463D01*
X180580557Y-73804898D01*
X180865318Y-73632754D01*
X181127252Y-73427542D01*
X181362542Y-73192252D01*
X181567754Y-72930318D01*
X181739898Y-72645557D01*
X181876463Y-72342123D01*
X181975456Y-72024441D01*
X182035436Y-71697142D01*
X182055527Y-71365000D01*
X182035436Y-71032858D01*
X181975456Y-70705559D01*
X181876463Y-70387877D01*
X181739898Y-70084443D01*
X181567754Y-69799682D01*
X181567751Y-69799678D01*
X181567748Y-69799673D01*
X181362539Y-69537744D01*
X181127255Y-69302460D01*
X180865326Y-69097251D01*
X180735117Y-69018537D01*
X180580557Y-68925102D01*
X180277123Y-68788537D01*
X180277116Y-68788534D01*
X180277104Y-68788530D01*
X179959449Y-68689546D01*
X179959445Y-68689545D01*
X179959441Y-68689544D01*
X179632142Y-68629564D01*
X179632141Y-68629563D01*
X179632136Y-68629563D01*
X179300000Y-68609473D01*
X178967863Y-68629563D01*
X178967858Y-68629564D01*
X178640559Y-68689544D01*
X178640556Y-68689544D01*
X178640550Y-68689546D01*
X178322895Y-68788530D01*
X178322879Y-68788536D01*
X178322877Y-68788537D01*
X178165064Y-68859563D01*
X178019447Y-68925100D01*
X178019445Y-68925101D01*
X177734673Y-69097251D01*
X177472744Y-69302460D01*
X177237460Y-69537744D01*
X177032251Y-69799673D01*
X176860101Y-70084445D01*
X176860100Y-70084447D01*
X176723536Y-70387880D01*
X176723530Y-70387895D01*
X176624546Y-70705550D01*
X176564563Y-71032863D01*
X176544473Y-71365000D01*
X148180500Y-71365000D01*
X148180500Y-63444913D01*
X148180670Y-63438423D01*
X148185304Y-63350000D01*
X148185304Y-63349999D01*
X148180670Y-63261575D01*
X148180500Y-63255085D01*
X148180500Y-63178034D01*
X148171783Y-63089530D01*
X148171356Y-63083865D01*
X148169140Y-63041577D01*
X148166102Y-62983596D01*
X148154107Y-62907869D01*
X148153178Y-62900626D01*
X148146790Y-62835756D01*
X148129731Y-62750000D01*
X148127111Y-62736831D01*
X148126278Y-62732167D01*
X148108705Y-62621206D01*
X148091937Y-62558629D01*
X148090093Y-62550724D01*
X148084023Y-62520208D01*
X148079690Y-62498422D01*
X148046966Y-62390547D01*
X148045883Y-62386753D01*
X148013742Y-62266801D01*
X148011581Y-62261173D01*
X148005931Y-62191534D01*
X148038829Y-62129894D01*
X148099829Y-62095824D01*
X148169565Y-62100142D01*
X148215025Y-62129052D01*
X148606181Y-62520208D01*
X148639666Y-62581531D01*
X148642500Y-62607889D01*
X148642500Y-63563097D01*
X148679446Y-63796368D01*
X148752433Y-64020996D01*
X148859657Y-64231433D01*
X148998483Y-64422510D01*
X149165490Y-64589517D01*
X149356567Y-64728343D01*
X149455991Y-64779002D01*
X149567003Y-64835566D01*
X149567005Y-64835566D01*
X149567008Y-64835568D01*
X149687412Y-64874689D01*
X149791631Y-64908553D01*
X150024903Y-64945500D01*
X150024908Y-64945500D01*
X150261097Y-64945500D01*
X150494368Y-64908553D01*
X150549929Y-64890500D01*
X150718992Y-64835568D01*
X150929433Y-64728343D01*
X151120510Y-64589517D01*
X151287517Y-64422510D01*
X151426343Y-64231433D01*
X151512682Y-64061982D01*
X151560657Y-64011187D01*
X151628478Y-63994392D01*
X151694612Y-64016929D01*
X151738064Y-64071644D01*
X151741098Y-64079959D01*
X151754117Y-64120029D01*
X151843476Y-64295405D01*
X151959172Y-64454646D01*
X152098354Y-64593828D01*
X152257595Y-64709524D01*
X152294528Y-64728342D01*
X152432970Y-64798882D01*
X152432972Y-64798882D01*
X152432975Y-64798884D01*
X152475001Y-64812539D01*
X152620173Y-64859709D01*
X152814578Y-64890500D01*
X152814583Y-64890500D01*
X153011422Y-64890500D01*
X153205826Y-64859709D01*
X153393025Y-64798884D01*
X153568405Y-64709524D01*
X153727646Y-64593828D01*
X153866828Y-64454646D01*
X153982524Y-64295405D01*
X154071884Y-64120025D01*
X154132709Y-63932826D01*
X154154322Y-63796368D01*
X154163500Y-63738422D01*
X154163500Y-63041577D01*
X154132709Y-62847173D01*
X154101135Y-62750000D01*
X165407473Y-62750000D01*
X165427563Y-63082136D01*
X165427563Y-63082141D01*
X165427564Y-63082142D01*
X165487544Y-63409441D01*
X165487545Y-63409445D01*
X165487546Y-63409449D01*
X165586530Y-63727104D01*
X165586534Y-63727116D01*
X165586537Y-63727123D01*
X165723102Y-64030557D01*
X165777190Y-64120029D01*
X165895251Y-64315326D01*
X166100460Y-64577255D01*
X166335744Y-64812539D01*
X166597673Y-65017748D01*
X166597678Y-65017751D01*
X166597682Y-65017754D01*
X166882443Y-65189898D01*
X167185877Y-65326463D01*
X167185890Y-65326467D01*
X167185895Y-65326469D01*
X167397665Y-65392458D01*
X167503559Y-65425456D01*
X167830858Y-65485436D01*
X168163000Y-65505527D01*
X168495142Y-65485436D01*
X168822441Y-65425456D01*
X169140123Y-65326463D01*
X169443557Y-65189898D01*
X169728318Y-65017754D01*
X169990252Y-64812542D01*
X170225542Y-64577252D01*
X170430754Y-64315318D01*
X170602898Y-64030557D01*
X170739463Y-63727123D01*
X170838456Y-63409441D01*
X170898436Y-63082142D01*
X170918527Y-62750000D01*
X170898436Y-62417858D01*
X170838456Y-62090559D01*
X170787344Y-61926533D01*
X170739469Y-61772895D01*
X170739467Y-61772890D01*
X170739463Y-61772877D01*
X170602898Y-61469443D01*
X170430754Y-61184682D01*
X170430751Y-61184678D01*
X170430748Y-61184673D01*
X170225539Y-60922744D01*
X169990255Y-60687460D01*
X169728326Y-60482251D01*
X169728318Y-60482246D01*
X169443557Y-60310102D01*
X169140123Y-60173537D01*
X169140116Y-60173534D01*
X169140104Y-60173530D01*
X168822449Y-60074546D01*
X168822445Y-60074545D01*
X168822441Y-60074544D01*
X168495142Y-60014564D01*
X168495141Y-60014563D01*
X168495136Y-60014563D01*
X168163000Y-59994473D01*
X167830863Y-60014563D01*
X167767786Y-60026122D01*
X167503559Y-60074544D01*
X167503556Y-60074544D01*
X167503550Y-60074546D01*
X167185895Y-60173530D01*
X167185879Y-60173536D01*
X167185877Y-60173537D01*
X166882443Y-60310102D01*
X166840339Y-60335555D01*
X166597673Y-60482251D01*
X166335744Y-60687460D01*
X166100460Y-60922744D01*
X165895251Y-61184673D01*
X165842592Y-61271782D01*
X165723102Y-61469443D01*
X165595111Y-61753828D01*
X165586536Y-61772880D01*
X165586530Y-61772895D01*
X165487546Y-62090550D01*
X165487544Y-62090556D01*
X165487544Y-62090559D01*
X165470771Y-62182086D01*
X165427563Y-62417863D01*
X165407473Y-62750000D01*
X154101135Y-62750000D01*
X154071882Y-62659970D01*
X154016218Y-62550724D01*
X153982524Y-62484595D01*
X153866828Y-62325354D01*
X153727646Y-62186172D01*
X153726964Y-62185676D01*
X153722023Y-62182086D01*
X153679359Y-62126755D01*
X153673383Y-62057141D01*
X153705991Y-61995348D01*
X153766831Y-61960993D01*
X153833227Y-61963839D01*
X153963134Y-62006049D01*
X154005173Y-62019709D01*
X154199578Y-62050500D01*
X154199583Y-62050500D01*
X154396422Y-62050500D01*
X154590826Y-62019709D01*
X154778025Y-61958884D01*
X154953405Y-61869524D01*
X155112646Y-61753828D01*
X155251828Y-61614646D01*
X155367524Y-61455405D01*
X155456884Y-61280025D01*
X155517709Y-61092826D01*
X155548500Y-60898422D01*
X155548500Y-60201577D01*
X155517709Y-60007173D01*
X155475052Y-59875890D01*
X155456884Y-59819975D01*
X155456882Y-59819972D01*
X155456882Y-59819970D01*
X155367523Y-59644594D01*
X155303538Y-59556527D01*
X155251828Y-59485354D01*
X155112646Y-59346172D01*
X154953405Y-59230476D01*
X154778029Y-59141117D01*
X154590826Y-59080290D01*
X154396422Y-59049500D01*
X154396417Y-59049500D01*
X154199583Y-59049500D01*
X154199578Y-59049500D01*
X154005172Y-59080291D01*
X154005165Y-59080292D01*
X153958029Y-59095608D01*
X153888188Y-59097603D01*
X153828356Y-59061522D01*
X153797528Y-58998821D01*
X153805493Y-58929407D01*
X153832027Y-58890000D01*
X153985211Y-58736816D01*
X154046532Y-58703334D01*
X154072890Y-58700500D01*
X158968880Y-58700500D01*
X171720004Y-58700500D01*
X171787043Y-58720185D01*
G37*
%TD.AperFunction*%
%TA.AperFunction,Conductor*%
G36*
X145594150Y-58720185D02*
G01*
X145614792Y-58736819D01*
X147221181Y-60343208D01*
X147254666Y-60404531D01*
X147257500Y-60430889D01*
X147257500Y-60668100D01*
X147257522Y-60668381D01*
X147257500Y-60668485D01*
X147257500Y-60672964D01*
X147256558Y-60672964D01*
X147243144Y-60736755D01*
X147194083Y-60786502D01*
X147125914Y-60801827D01*
X147060282Y-60777865D01*
X147046221Y-60765766D01*
X147025509Y-60745054D01*
X147025504Y-60745050D01*
X146930479Y-60668100D01*
X146892105Y-60637025D01*
X146891476Y-60636512D01*
X146767762Y-60534983D01*
X146767761Y-60534982D01*
X146767760Y-60534981D01*
X146762946Y-60531764D01*
X146753801Y-60525028D01*
X146740374Y-60514154D01*
X146740370Y-60514151D01*
X146606407Y-60427155D01*
X146605052Y-60426262D01*
X146481803Y-60343910D01*
X146481792Y-60343903D01*
X146481787Y-60343900D01*
X146466185Y-60335560D01*
X146457106Y-60330198D01*
X146432658Y-60314321D01*
X146432650Y-60314316D01*
X146300876Y-60247173D01*
X146298740Y-60246059D01*
X146178462Y-60181769D01*
X146151155Y-60170458D01*
X146142317Y-60166384D01*
X146105742Y-60147748D01*
X146105741Y-60147747D01*
X146105736Y-60147745D01*
X146013572Y-60112366D01*
X145978734Y-60098993D01*
X145975721Y-60097790D01*
X145860712Y-60050152D01*
X145860689Y-60050144D01*
X145821050Y-60038120D01*
X145812609Y-60035224D01*
X145763209Y-60016261D01*
X145763196Y-60016257D01*
X145643290Y-59984127D01*
X145639391Y-59983014D01*
X145531578Y-59950310D01*
X145479290Y-59939909D01*
X145471391Y-59938067D01*
X145408800Y-59921296D01*
X145408791Y-59921294D01*
X145297902Y-59903731D01*
X145293110Y-59902875D01*
X145194256Y-59883212D01*
X145194240Y-59883209D01*
X145129363Y-59876820D01*
X145122125Y-59875890D01*
X145046404Y-59863898D01*
X145046385Y-59863897D01*
X144946128Y-59858642D01*
X144940467Y-59858215D01*
X144866916Y-59850972D01*
X144851969Y-59849500D01*
X144851967Y-59849500D01*
X144774914Y-59849500D01*
X144768424Y-59849330D01*
X144680001Y-59844696D01*
X144679999Y-59844696D01*
X144591576Y-59849330D01*
X144585086Y-59849500D01*
X144508031Y-59849500D01*
X144494280Y-59850854D01*
X144419531Y-59858215D01*
X144413870Y-59858642D01*
X144313601Y-59863897D01*
X144237878Y-59875890D01*
X144230639Y-59876819D01*
X144197192Y-59880114D01*
X144165750Y-59883211D01*
X144066892Y-59902875D01*
X144066887Y-59902876D01*
X144062096Y-59903731D01*
X143951209Y-59921294D01*
X143951193Y-59921297D01*
X143888610Y-59938066D01*
X143880713Y-59939908D01*
X143858547Y-59944317D01*
X143828422Y-59950310D01*
X143828419Y-59950311D01*
X143720623Y-59983009D01*
X143716725Y-59984122D01*
X143596799Y-60016258D01*
X143596797Y-60016259D01*
X143573092Y-60025358D01*
X143547383Y-60035226D01*
X143538956Y-60038118D01*
X143499310Y-60050144D01*
X143499297Y-60050149D01*
X143384276Y-60097791D01*
X143381264Y-60098992D01*
X143254269Y-60147742D01*
X143217692Y-60166379D01*
X143208855Y-60170453D01*
X143181543Y-60181766D01*
X143061258Y-60246059D01*
X143059102Y-60247184D01*
X142927362Y-60314310D01*
X142927345Y-60314319D01*
X142902890Y-60330200D01*
X142893821Y-60335555D01*
X142878228Y-60343891D01*
X142878205Y-60343904D01*
X142754928Y-60426274D01*
X142753575Y-60427166D01*
X142619630Y-60514151D01*
X142606189Y-60525035D01*
X142597062Y-60531758D01*
X142592248Y-60534975D01*
X142592237Y-60534982D01*
X142468505Y-60636526D01*
X142467878Y-60637037D01*
X142334495Y-60745050D01*
X142334485Y-60745059D01*
X142075059Y-61004485D01*
X142075050Y-61004495D01*
X141967037Y-61137878D01*
X141966526Y-61138505D01*
X141864982Y-61262237D01*
X141864975Y-61262248D01*
X141861758Y-61267062D01*
X141855035Y-61276189D01*
X141844151Y-61289630D01*
X141757166Y-61423575D01*
X141756274Y-61424928D01*
X141673904Y-61548205D01*
X141673891Y-61548228D01*
X141665555Y-61563821D01*
X141660200Y-61572890D01*
X141644319Y-61597345D01*
X141644310Y-61597362D01*
X141577184Y-61729102D01*
X141576059Y-61731258D01*
X141511766Y-61851543D01*
X141500453Y-61878855D01*
X141496379Y-61887692D01*
X141477742Y-61924269D01*
X141428992Y-62051264D01*
X141427791Y-62054276D01*
X141380149Y-62169297D01*
X141380144Y-62169310D01*
X141368118Y-62208956D01*
X141365226Y-62217383D01*
X141355358Y-62243092D01*
X141346259Y-62266797D01*
X141346258Y-62266799D01*
X141314122Y-62386725D01*
X141313009Y-62390623D01*
X141284505Y-62484594D01*
X141280310Y-62498422D01*
X141275976Y-62520208D01*
X141269908Y-62550713D01*
X141268066Y-62558610D01*
X141251297Y-62621193D01*
X141251294Y-62621209D01*
X141233731Y-62732096D01*
X141232877Y-62736882D01*
X141213211Y-62835750D01*
X141212086Y-62847173D01*
X141206819Y-62900639D01*
X141205890Y-62907878D01*
X141193897Y-62983601D01*
X141188642Y-63083870D01*
X141188215Y-63089531D01*
X141179500Y-63178032D01*
X141179500Y-63255085D01*
X141179330Y-63261575D01*
X141174696Y-63349999D01*
X141174696Y-63350000D01*
X141179330Y-63438423D01*
X141179500Y-63444913D01*
X141179500Y-77733500D01*
X141159815Y-77800539D01*
X141107011Y-77846294D01*
X141055500Y-77857500D01*
X117375079Y-77857500D01*
X117375039Y-77857499D01*
X117371969Y-77857499D01*
X117028031Y-77857499D01*
X117024961Y-77857499D01*
X117024921Y-77857500D01*
X107106500Y-77857500D01*
X107039461Y-77837815D01*
X106993706Y-77785011D01*
X106982500Y-77733500D01*
X106982500Y-63444913D01*
X106982670Y-63438423D01*
X106987304Y-63350000D01*
X106987304Y-63349999D01*
X106982670Y-63261575D01*
X106982500Y-63255085D01*
X106982500Y-63178034D01*
X106973783Y-63089530D01*
X106973356Y-63083865D01*
X106971140Y-63041577D01*
X106968102Y-62983596D01*
X106956107Y-62907869D01*
X106955178Y-62900626D01*
X106948790Y-62835756D01*
X106931731Y-62750000D01*
X106929111Y-62736831D01*
X106928278Y-62732167D01*
X106910705Y-62621206D01*
X106893937Y-62558629D01*
X106892093Y-62550724D01*
X106886023Y-62520208D01*
X106881690Y-62498422D01*
X106848966Y-62390547D01*
X106847883Y-62386753D01*
X106815742Y-62266801D01*
X106813581Y-62261173D01*
X106807931Y-62191534D01*
X106840829Y-62129894D01*
X106901829Y-62095824D01*
X106971565Y-62100142D01*
X107017025Y-62129052D01*
X107408181Y-62520208D01*
X107441666Y-62581531D01*
X107444500Y-62607889D01*
X107444500Y-63563097D01*
X107481446Y-63796368D01*
X107554433Y-64020996D01*
X107661657Y-64231433D01*
X107800483Y-64422510D01*
X107967490Y-64589517D01*
X108158567Y-64728343D01*
X108257991Y-64779002D01*
X108369003Y-64835566D01*
X108369005Y-64835566D01*
X108369008Y-64835568D01*
X108489412Y-64874689D01*
X108593631Y-64908553D01*
X108826903Y-64945500D01*
X108826908Y-64945500D01*
X109063097Y-64945500D01*
X109296368Y-64908553D01*
X109351929Y-64890500D01*
X109520992Y-64835568D01*
X109731433Y-64728343D01*
X109922510Y-64589517D01*
X110089517Y-64422510D01*
X110228343Y-64231433D01*
X110314682Y-64061982D01*
X110362657Y-64011187D01*
X110430478Y-63994392D01*
X110496612Y-64016929D01*
X110540064Y-64071644D01*
X110543098Y-64079959D01*
X110556117Y-64120029D01*
X110645476Y-64295405D01*
X110761172Y-64454646D01*
X110900354Y-64593828D01*
X111059595Y-64709524D01*
X111096528Y-64728342D01*
X111234970Y-64798882D01*
X111234972Y-64798882D01*
X111234975Y-64798884D01*
X111277001Y-64812539D01*
X111422173Y-64859709D01*
X111616578Y-64890500D01*
X111616583Y-64890500D01*
X111813422Y-64890500D01*
X112007826Y-64859709D01*
X112195025Y-64798884D01*
X112370405Y-64709524D01*
X112529646Y-64593828D01*
X112668828Y-64454646D01*
X112784524Y-64295405D01*
X112873884Y-64120025D01*
X112934709Y-63932826D01*
X112956322Y-63796368D01*
X112965500Y-63738422D01*
X112965500Y-63041577D01*
X112934709Y-62847173D01*
X112903135Y-62750000D01*
X124209473Y-62750000D01*
X124229563Y-63082136D01*
X124229563Y-63082141D01*
X124229564Y-63082142D01*
X124289544Y-63409441D01*
X124289545Y-63409445D01*
X124289546Y-63409449D01*
X124388530Y-63727104D01*
X124388534Y-63727116D01*
X124388537Y-63727123D01*
X124525102Y-64030557D01*
X124579190Y-64120029D01*
X124697251Y-64315326D01*
X124902460Y-64577255D01*
X125137744Y-64812539D01*
X125399673Y-65017748D01*
X125399678Y-65017751D01*
X125399682Y-65017754D01*
X125684443Y-65189898D01*
X125987877Y-65326463D01*
X125987890Y-65326467D01*
X125987895Y-65326469D01*
X126199665Y-65392458D01*
X126305559Y-65425456D01*
X126632858Y-65485436D01*
X126965000Y-65505527D01*
X127297142Y-65485436D01*
X127624441Y-65425456D01*
X127942123Y-65326463D01*
X128245557Y-65189898D01*
X128530318Y-65017754D01*
X128792252Y-64812542D01*
X129027542Y-64577252D01*
X129232754Y-64315318D01*
X129404898Y-64030557D01*
X129541463Y-63727123D01*
X129640456Y-63409441D01*
X129700436Y-63082142D01*
X129720527Y-62750000D01*
X132107473Y-62750000D01*
X132127563Y-63082136D01*
X132127563Y-63082141D01*
X132127564Y-63082142D01*
X132187544Y-63409441D01*
X132187545Y-63409445D01*
X132187546Y-63409449D01*
X132286530Y-63727104D01*
X132286534Y-63727116D01*
X132286537Y-63727123D01*
X132423102Y-64030557D01*
X132477190Y-64120029D01*
X132595251Y-64315326D01*
X132800460Y-64577255D01*
X133035744Y-64812539D01*
X133297673Y-65017748D01*
X133297678Y-65017751D01*
X133297682Y-65017754D01*
X133582443Y-65189898D01*
X133885877Y-65326463D01*
X133885890Y-65326467D01*
X133885895Y-65326469D01*
X134097665Y-65392458D01*
X134203559Y-65425456D01*
X134530858Y-65485436D01*
X134863000Y-65505527D01*
X135195142Y-65485436D01*
X135522441Y-65425456D01*
X135840123Y-65326463D01*
X136143557Y-65189898D01*
X136428318Y-65017754D01*
X136690252Y-64812542D01*
X136925542Y-64577252D01*
X137130754Y-64315318D01*
X137302898Y-64030557D01*
X137439463Y-63727123D01*
X137538456Y-63409441D01*
X137598436Y-63082142D01*
X137618527Y-62750000D01*
X137598436Y-62417858D01*
X137538456Y-62090559D01*
X137487344Y-61926533D01*
X137439469Y-61772895D01*
X137439467Y-61772890D01*
X137439463Y-61772877D01*
X137302898Y-61469443D01*
X137130754Y-61184682D01*
X137130751Y-61184678D01*
X137130748Y-61184673D01*
X136925539Y-60922744D01*
X136690255Y-60687460D01*
X136428326Y-60482251D01*
X136428318Y-60482246D01*
X136143557Y-60310102D01*
X135840123Y-60173537D01*
X135840116Y-60173534D01*
X135840104Y-60173530D01*
X135522449Y-60074546D01*
X135522445Y-60074545D01*
X135522441Y-60074544D01*
X135195142Y-60014564D01*
X135195141Y-60014563D01*
X135195136Y-60014563D01*
X134863000Y-59994473D01*
X134530863Y-60014563D01*
X134467786Y-60026122D01*
X134203559Y-60074544D01*
X134203556Y-60074544D01*
X134203550Y-60074546D01*
X133885895Y-60173530D01*
X133885879Y-60173536D01*
X133885877Y-60173537D01*
X133582443Y-60310102D01*
X133540339Y-60335555D01*
X133297673Y-60482251D01*
X133035744Y-60687460D01*
X132800460Y-60922744D01*
X132595251Y-61184673D01*
X132542592Y-61271782D01*
X132423102Y-61469443D01*
X132295111Y-61753828D01*
X132286536Y-61772880D01*
X132286530Y-61772895D01*
X132187546Y-62090550D01*
X132187544Y-62090556D01*
X132187544Y-62090559D01*
X132170771Y-62182086D01*
X132127563Y-62417863D01*
X132107473Y-62750000D01*
X129720527Y-62750000D01*
X129700436Y-62417858D01*
X129640456Y-62090559D01*
X129589344Y-61926533D01*
X129541469Y-61772895D01*
X129541467Y-61772890D01*
X129541463Y-61772877D01*
X129404898Y-61469443D01*
X129232754Y-61184682D01*
X129232751Y-61184678D01*
X129232748Y-61184673D01*
X129027539Y-60922744D01*
X128792255Y-60687460D01*
X128530326Y-60482251D01*
X128530318Y-60482246D01*
X128245557Y-60310102D01*
X127942123Y-60173537D01*
X127942116Y-60173534D01*
X127942104Y-60173530D01*
X127624449Y-60074546D01*
X127624445Y-60074545D01*
X127624441Y-60074544D01*
X127297142Y-60014564D01*
X127297141Y-60014563D01*
X127297136Y-60014563D01*
X126965000Y-59994473D01*
X126632863Y-60014563D01*
X126569786Y-60026122D01*
X126305559Y-60074544D01*
X126305556Y-60074544D01*
X126305550Y-60074546D01*
X125987895Y-60173530D01*
X125987879Y-60173536D01*
X125987877Y-60173537D01*
X125684443Y-60310102D01*
X125642339Y-60335555D01*
X125399673Y-60482251D01*
X125137744Y-60687460D01*
X124902460Y-60922744D01*
X124697251Y-61184673D01*
X124644592Y-61271782D01*
X124525102Y-61469443D01*
X124397111Y-61753828D01*
X124388536Y-61772880D01*
X124388530Y-61772895D01*
X124289546Y-62090550D01*
X124289544Y-62090556D01*
X124289544Y-62090559D01*
X124272771Y-62182086D01*
X124229563Y-62417863D01*
X124209473Y-62750000D01*
X112903135Y-62750000D01*
X112873882Y-62659970D01*
X112818218Y-62550724D01*
X112784524Y-62484595D01*
X112668828Y-62325354D01*
X112529646Y-62186172D01*
X112528964Y-62185676D01*
X112524023Y-62182086D01*
X112481359Y-62126755D01*
X112475383Y-62057141D01*
X112507991Y-61995348D01*
X112568831Y-61960993D01*
X112635227Y-61963839D01*
X112765134Y-62006049D01*
X112807173Y-62019709D01*
X113001578Y-62050500D01*
X113001583Y-62050500D01*
X113198422Y-62050500D01*
X113392826Y-62019709D01*
X113580025Y-61958884D01*
X113755405Y-61869524D01*
X113914646Y-61753828D01*
X114053828Y-61614646D01*
X114169524Y-61455405D01*
X114258884Y-61280025D01*
X114319709Y-61092826D01*
X114350500Y-60898422D01*
X114350500Y-60201577D01*
X114319709Y-60007173D01*
X114277052Y-59875890D01*
X114258884Y-59819975D01*
X114258882Y-59819972D01*
X114258882Y-59819970D01*
X114169523Y-59644594D01*
X114105538Y-59556527D01*
X114053828Y-59485354D01*
X113914646Y-59346172D01*
X113755405Y-59230476D01*
X113580029Y-59141117D01*
X113392826Y-59080290D01*
X113198422Y-59049500D01*
X113198417Y-59049500D01*
X113001583Y-59049500D01*
X113001578Y-59049500D01*
X112807173Y-59080290D01*
X112689613Y-59118489D01*
X112619975Y-59141116D01*
X112619972Y-59141117D01*
X112619958Y-59141122D01*
X112617077Y-59142315D01*
X112615896Y-59142441D01*
X112615342Y-59142622D01*
X112615304Y-59142505D01*
X112547607Y-59149773D01*
X112485132Y-59118489D01*
X112449489Y-59058395D01*
X112451994Y-58988570D01*
X112481959Y-58940067D01*
X112685209Y-58736819D01*
X112746532Y-58703334D01*
X112772890Y-58700500D01*
X115768880Y-58700500D01*
X145527111Y-58700500D01*
X145594150Y-58720185D01*
G37*
%TD.AperFunction*%
%TA.AperFunction,Conductor*%
G36*
X186002702Y-51500617D02*
G01*
X186386771Y-51517386D01*
X186397506Y-51518326D01*
X186775971Y-51568152D01*
X186786597Y-51570025D01*
X187159284Y-51652648D01*
X187169710Y-51655442D01*
X187533765Y-51770227D01*
X187543911Y-51773920D01*
X187896578Y-51920000D01*
X187906369Y-51924566D01*
X188244942Y-52100816D01*
X188254310Y-52106224D01*
X188576244Y-52311318D01*
X188585105Y-52317523D01*
X188887930Y-52549889D01*
X188896217Y-52556843D01*
X189177635Y-52814715D01*
X189185284Y-52822364D01*
X189443156Y-53103782D01*
X189450110Y-53112069D01*
X189682476Y-53414894D01*
X189688681Y-53423755D01*
X189893775Y-53745689D01*
X189899183Y-53755057D01*
X190075430Y-54093623D01*
X190080002Y-54103427D01*
X190226075Y-54456078D01*
X190229775Y-54466244D01*
X190344554Y-54830278D01*
X190347354Y-54840727D01*
X190429971Y-55213389D01*
X190431849Y-55224042D01*
X190481671Y-55602473D01*
X190482614Y-55613249D01*
X190499382Y-55997297D01*
X190499500Y-56002706D01*
X190499500Y-120997293D01*
X190499382Y-121002702D01*
X190482614Y-121386750D01*
X190481671Y-121397526D01*
X190431849Y-121775957D01*
X190429971Y-121786610D01*
X190347354Y-122159272D01*
X190344554Y-122169721D01*
X190229775Y-122533755D01*
X190226075Y-122543921D01*
X190080002Y-122896572D01*
X190075430Y-122906376D01*
X189899183Y-123244942D01*
X189893775Y-123254310D01*
X189688681Y-123576244D01*
X189682476Y-123585105D01*
X189450110Y-123887930D01*
X189443156Y-123896217D01*
X189185284Y-124177635D01*
X189177635Y-124185284D01*
X188896217Y-124443156D01*
X188887930Y-124450110D01*
X188585105Y-124682476D01*
X188576244Y-124688681D01*
X188254310Y-124893775D01*
X188244942Y-124899183D01*
X187906376Y-125075430D01*
X187896572Y-125080002D01*
X187543921Y-125226075D01*
X187533755Y-125229775D01*
X187169721Y-125344554D01*
X187159272Y-125347354D01*
X186786610Y-125429971D01*
X186775957Y-125431849D01*
X186397526Y-125481671D01*
X186386750Y-125482614D01*
X186002703Y-125499382D01*
X185997294Y-125499500D01*
X76002706Y-125499500D01*
X75997297Y-125499382D01*
X75613249Y-125482614D01*
X75602473Y-125481671D01*
X75224042Y-125431849D01*
X75213389Y-125429971D01*
X74840727Y-125347354D01*
X74830278Y-125344554D01*
X74466244Y-125229775D01*
X74456078Y-125226075D01*
X74103427Y-125080002D01*
X74093623Y-125075430D01*
X73755057Y-124899183D01*
X73745689Y-124893775D01*
X73423755Y-124688681D01*
X73414894Y-124682476D01*
X73112069Y-124450110D01*
X73103782Y-124443156D01*
X72822364Y-124185284D01*
X72814715Y-124177635D01*
X72556843Y-123896217D01*
X72549889Y-123887930D01*
X72317523Y-123585105D01*
X72311318Y-123576244D01*
X72106224Y-123254310D01*
X72100816Y-123244942D01*
X72077648Y-123200437D01*
X71924566Y-122906369D01*
X71919997Y-122896572D01*
X71892549Y-122830306D01*
X71773920Y-122543911D01*
X71770224Y-122533755D01*
X71706672Y-122332192D01*
X71655442Y-122169710D01*
X71652648Y-122159284D01*
X71570025Y-121786597D01*
X71568152Y-121775971D01*
X71518326Y-121397506D01*
X71517386Y-121386771D01*
X71500618Y-121002702D01*
X71500500Y-120997293D01*
X71500500Y-119500000D01*
X73494675Y-119500000D01*
X73513962Y-119892591D01*
X73513962Y-119892597D01*
X73513963Y-119892599D01*
X73571637Y-120281406D01*
X73667143Y-120662684D01*
X73799561Y-121032770D01*
X73799562Y-121032772D01*
X73967620Y-121388100D01*
X74143151Y-121680955D01*
X74169694Y-121725239D01*
X74250779Y-121834570D01*
X74403846Y-122040956D01*
X74667807Y-122332192D01*
X74901414Y-122543921D01*
X74959049Y-122596158D01*
X75274761Y-122830306D01*
X75274763Y-122830307D01*
X75611899Y-123032379D01*
X75611902Y-123032380D01*
X75611903Y-123032381D01*
X75967228Y-123200438D01*
X76337316Y-123332857D01*
X76718600Y-123428364D01*
X77107409Y-123486038D01*
X77500000Y-123505325D01*
X77892591Y-123486038D01*
X78281400Y-123428364D01*
X78662684Y-123332857D01*
X79032772Y-123200438D01*
X79388097Y-123032381D01*
X79725239Y-122830306D01*
X80040951Y-122596158D01*
X80332192Y-122332192D01*
X80596158Y-122040951D01*
X80830306Y-121725239D01*
X81032381Y-121388097D01*
X81200438Y-121032772D01*
X81332857Y-120662684D01*
X81428364Y-120281400D01*
X81486038Y-119892591D01*
X81505325Y-119500000D01*
X81486038Y-119107409D01*
X81428364Y-118718600D01*
X81332857Y-118337316D01*
X81200438Y-117967228D01*
X81032381Y-117611903D01*
X81030571Y-117608884D01*
X80830307Y-117274763D01*
X80830306Y-117274761D01*
X80596158Y-116959049D01*
X80569856Y-116930029D01*
X80332192Y-116667807D01*
X80040956Y-116403846D01*
X79932940Y-116323736D01*
X79725239Y-116169694D01*
X79631462Y-116113486D01*
X79388100Y-115967620D01*
X79032772Y-115799562D01*
X79032770Y-115799561D01*
X78662684Y-115667143D01*
X78281406Y-115571637D01*
X78281401Y-115571636D01*
X78281400Y-115571636D01*
X78092557Y-115543624D01*
X77892599Y-115513963D01*
X77892597Y-115513962D01*
X77892591Y-115513962D01*
X77500000Y-115494675D01*
X77107409Y-115513962D01*
X77107403Y-115513962D01*
X77107400Y-115513963D01*
X76718593Y-115571637D01*
X76337315Y-115667143D01*
X75967229Y-115799561D01*
X75967227Y-115799562D01*
X75611899Y-115967620D01*
X75274763Y-116169692D01*
X74959043Y-116403846D01*
X74667807Y-116667807D01*
X74403846Y-116959043D01*
X74169692Y-117274763D01*
X73967620Y-117611899D01*
X73799562Y-117967227D01*
X73799561Y-117967229D01*
X73667143Y-118337315D01*
X73571637Y-118718593D01*
X73571636Y-118718600D01*
X73513962Y-119107409D01*
X73494675Y-119500000D01*
X71500500Y-119500000D01*
X71500500Y-85594277D01*
X74984245Y-85594277D01*
X74984245Y-108415872D01*
X75001360Y-108545863D01*
X75001360Y-108545864D01*
X75018473Y-108675857D01*
X75086347Y-108929164D01*
X75186699Y-109171435D01*
X75186703Y-109171445D01*
X75268894Y-109313804D01*
X75317821Y-109398548D01*
X75387133Y-109488876D01*
X75477460Y-109606594D01*
X75477466Y-109606601D01*
X87478143Y-121607278D01*
X87478148Y-121607282D01*
X87478149Y-121607283D01*
X87574155Y-121680951D01*
X87574157Y-121680952D01*
X87574158Y-121680954D01*
X87686195Y-121766923D01*
X87686197Y-121766924D01*
X87803366Y-121834571D01*
X87913299Y-121898041D01*
X87913300Y-121898041D01*
X87913303Y-121898043D01*
X88155581Y-121998398D01*
X88408884Y-122066271D01*
X88530853Y-122082328D01*
X88668880Y-122100500D01*
X88668887Y-122100500D01*
X173131113Y-122100500D01*
X173131120Y-122100500D01*
X173261118Y-122083385D01*
X173391116Y-122066271D01*
X173644419Y-121998398D01*
X173886697Y-121898043D01*
X173996634Y-121834571D01*
X174113803Y-121766924D01*
X174225842Y-121680953D01*
X174321851Y-121607283D01*
X176429134Y-119500000D01*
X180494675Y-119500000D01*
X180513962Y-119892591D01*
X180513962Y-119892597D01*
X180513963Y-119892599D01*
X180571637Y-120281406D01*
X180667143Y-120662684D01*
X180799561Y-121032770D01*
X180799562Y-121032772D01*
X180967620Y-121388100D01*
X181143151Y-121680955D01*
X181169694Y-121725239D01*
X181250779Y-121834570D01*
X181403846Y-122040956D01*
X181667807Y-122332192D01*
X181901414Y-122543921D01*
X181959049Y-122596158D01*
X182274761Y-122830306D01*
X182274763Y-122830307D01*
X182611899Y-123032379D01*
X182611902Y-123032380D01*
X182611903Y-123032381D01*
X182967228Y-123200438D01*
X183337316Y-123332857D01*
X183718600Y-123428364D01*
X184107409Y-123486038D01*
X184500000Y-123505325D01*
X184892591Y-123486038D01*
X185281400Y-123428364D01*
X185662684Y-123332857D01*
X186032772Y-123200438D01*
X186388097Y-123032381D01*
X186725239Y-122830306D01*
X187040951Y-122596158D01*
X187332192Y-122332192D01*
X187596158Y-122040951D01*
X187830306Y-121725239D01*
X188032381Y-121388097D01*
X188200438Y-121032772D01*
X188332857Y-120662684D01*
X188428364Y-120281400D01*
X188486038Y-119892591D01*
X188505325Y-119500000D01*
X188486038Y-119107409D01*
X188428364Y-118718600D01*
X188332857Y-118337316D01*
X188200438Y-117967228D01*
X188032381Y-117611903D01*
X188030571Y-117608884D01*
X187830307Y-117274763D01*
X187830306Y-117274761D01*
X187596158Y-116959049D01*
X187569856Y-116930029D01*
X187332192Y-116667807D01*
X187040956Y-116403846D01*
X186932940Y-116323736D01*
X186725239Y-116169694D01*
X186631462Y-116113486D01*
X186388100Y-115967620D01*
X186032772Y-115799562D01*
X186032770Y-115799561D01*
X185662684Y-115667143D01*
X185281406Y-115571637D01*
X185281401Y-115571636D01*
X185281400Y-115571636D01*
X185092557Y-115543624D01*
X184892599Y-115513963D01*
X184892597Y-115513962D01*
X184892591Y-115513962D01*
X184500000Y-115494675D01*
X184107409Y-115513962D01*
X184107403Y-115513962D01*
X184107400Y-115513963D01*
X183718593Y-115571637D01*
X183337315Y-115667143D01*
X182967229Y-115799561D01*
X182967227Y-115799562D01*
X182611899Y-115967620D01*
X182274763Y-116169692D01*
X181959043Y-116403846D01*
X181667807Y-116667807D01*
X181403846Y-116959043D01*
X181169692Y-117274763D01*
X180967620Y-117611899D01*
X180799562Y-117967227D01*
X180799561Y-117967229D01*
X180667143Y-118337315D01*
X180571637Y-118718593D01*
X180571636Y-118718600D01*
X180513962Y-119107409D01*
X180494675Y-119500000D01*
X176429134Y-119500000D01*
X186407283Y-109521852D01*
X186501897Y-109398547D01*
X186566924Y-109313803D01*
X186698043Y-109086697D01*
X186798398Y-108844419D01*
X186843563Y-108675861D01*
X186866271Y-108591116D01*
X186883385Y-108461118D01*
X186900500Y-108331120D01*
X186900500Y-94868880D01*
X186900500Y-91368880D01*
X186900500Y-89768880D01*
X186900500Y-85868880D01*
X186900500Y-84668880D01*
X186900500Y-82068880D01*
X186900500Y-68868880D01*
X186899273Y-68859564D01*
X186881131Y-68721768D01*
X186881131Y-68721766D01*
X186866348Y-68609473D01*
X186866271Y-68608885D01*
X186798398Y-68355581D01*
X186698043Y-68113303D01*
X186566924Y-67886197D01*
X186497611Y-67795868D01*
X186407283Y-67678149D01*
X186407280Y-67678146D01*
X186407277Y-67678142D01*
X176229135Y-57500000D01*
X180494675Y-57500000D01*
X180513962Y-57892591D01*
X180513962Y-57892597D01*
X180513963Y-57892599D01*
X180571637Y-58281406D01*
X180667143Y-58662684D01*
X180799561Y-59032770D01*
X180799562Y-59032772D01*
X180967620Y-59388100D01*
X181169692Y-59725236D01*
X181169694Y-59725239D01*
X181401742Y-60038120D01*
X181403846Y-60040956D01*
X181667807Y-60332192D01*
X181959043Y-60596153D01*
X181959049Y-60596158D01*
X182274761Y-60830306D01*
X182274763Y-60830307D01*
X182611899Y-61032379D01*
X182611902Y-61032380D01*
X182611903Y-61032381D01*
X182967228Y-61200438D01*
X183337316Y-61332857D01*
X183718600Y-61428364D01*
X184107409Y-61486038D01*
X184500000Y-61505325D01*
X184892591Y-61486038D01*
X185281400Y-61428364D01*
X185662684Y-61332857D01*
X186032772Y-61200438D01*
X186388097Y-61032381D01*
X186725239Y-60830306D01*
X187040951Y-60596158D01*
X187332192Y-60332192D01*
X187596158Y-60040951D01*
X187830306Y-59725239D01*
X188032381Y-59388097D01*
X188200438Y-59032772D01*
X188332857Y-58662684D01*
X188428364Y-58281400D01*
X188486038Y-57892591D01*
X188505325Y-57500000D01*
X188486038Y-57107409D01*
X188428364Y-56718600D01*
X188332857Y-56337316D01*
X188200438Y-55967228D01*
X188032381Y-55611903D01*
X188016973Y-55586197D01*
X187830307Y-55274763D01*
X187784789Y-55213389D01*
X187596158Y-54959049D01*
X187544413Y-54901957D01*
X187332192Y-54667807D01*
X187040956Y-54403846D01*
X186725236Y-54169692D01*
X186388100Y-53967620D01*
X186032772Y-53799562D01*
X186032770Y-53799561D01*
X185662684Y-53667143D01*
X185281406Y-53571637D01*
X185281401Y-53571636D01*
X185281400Y-53571636D01*
X185137256Y-53550254D01*
X184892599Y-53513963D01*
X184892597Y-53513962D01*
X184892591Y-53513962D01*
X184500000Y-53494675D01*
X184107409Y-53513962D01*
X184107403Y-53513962D01*
X184107400Y-53513963D01*
X183718593Y-53571637D01*
X183337315Y-53667143D01*
X182967229Y-53799561D01*
X182967227Y-53799562D01*
X182611899Y-53967620D01*
X182274763Y-54169692D01*
X181959043Y-54403846D01*
X181667807Y-54667807D01*
X181403846Y-54959043D01*
X181169692Y-55274763D01*
X180967620Y-55611899D01*
X180799562Y-55967227D01*
X180799561Y-55967229D01*
X180667143Y-56337315D01*
X180571637Y-56718593D01*
X180571636Y-56718600D01*
X180513962Y-57107409D01*
X180494675Y-57500000D01*
X176229135Y-57500000D01*
X173921856Y-55192721D01*
X173921849Y-55192715D01*
X173793087Y-55093913D01*
X173793085Y-55093911D01*
X173713802Y-55033075D01*
X173486700Y-54901958D01*
X173486690Y-54901954D01*
X173244417Y-54801601D01*
X173244414Y-54801600D01*
X173242478Y-54801081D01*
X173242478Y-54801082D01*
X172991116Y-54733729D01*
X172991115Y-54733728D01*
X172991112Y-54733728D01*
X172861118Y-54716615D01*
X172731127Y-54699500D01*
X172731120Y-54699500D01*
X159231120Y-54699500D01*
X154031120Y-54699500D01*
X149131120Y-54699500D01*
X148331120Y-54699500D01*
X145831120Y-54699500D01*
X116031120Y-54699500D01*
X112731120Y-54699500D01*
X107868880Y-54699500D01*
X107868872Y-54699500D01*
X107637772Y-54729926D01*
X107608884Y-54733730D01*
X107357525Y-54801081D01*
X107355581Y-54801602D01*
X107355571Y-54801605D01*
X107113309Y-54901953D01*
X107113299Y-54901958D01*
X106886196Y-55033075D01*
X106678148Y-55192718D01*
X106492718Y-55378148D01*
X106333075Y-55586196D01*
X106201958Y-55813299D01*
X106201953Y-55813309D01*
X106101605Y-56055571D01*
X106101602Y-56055581D01*
X106033730Y-56308885D01*
X105999500Y-56568872D01*
X105999500Y-56831127D01*
X106029451Y-57058616D01*
X106033730Y-57091116D01*
X106038096Y-57107409D01*
X106055275Y-57171523D01*
X106059500Y-57203616D01*
X106059500Y-60668100D01*
X106059522Y-60668381D01*
X106059500Y-60668485D01*
X106059500Y-60672964D01*
X106058558Y-60672964D01*
X106045144Y-60736755D01*
X105996083Y-60786502D01*
X105927914Y-60801827D01*
X105862282Y-60777865D01*
X105848221Y-60765766D01*
X105827509Y-60745054D01*
X105827504Y-60745050D01*
X105732479Y-60668100D01*
X105694105Y-60637025D01*
X105693476Y-60636512D01*
X105569762Y-60534983D01*
X105569761Y-60534982D01*
X105569760Y-60534981D01*
X105564946Y-60531764D01*
X105555801Y-60525028D01*
X105542374Y-60514154D01*
X105542370Y-60514151D01*
X105408407Y-60427155D01*
X105407052Y-60426262D01*
X105283803Y-60343910D01*
X105283792Y-60343903D01*
X105283787Y-60343900D01*
X105268185Y-60335560D01*
X105259106Y-60330198D01*
X105234658Y-60314321D01*
X105234650Y-60314316D01*
X105102876Y-60247173D01*
X105100740Y-60246059D01*
X104980462Y-60181769D01*
X104953155Y-60170458D01*
X104944317Y-60166384D01*
X104907742Y-60147748D01*
X104907741Y-60147747D01*
X104907736Y-60147745D01*
X104815572Y-60112366D01*
X104780734Y-60098993D01*
X104777721Y-60097790D01*
X104662712Y-60050152D01*
X104662689Y-60050144D01*
X104623050Y-60038120D01*
X104614609Y-60035224D01*
X104565209Y-60016261D01*
X104565196Y-60016257D01*
X104445290Y-59984127D01*
X104441391Y-59983014D01*
X104333578Y-59950310D01*
X104281290Y-59939909D01*
X104273391Y-59938067D01*
X104210800Y-59921296D01*
X104210791Y-59921294D01*
X104099902Y-59903731D01*
X104095110Y-59902875D01*
X103996256Y-59883212D01*
X103996240Y-59883209D01*
X103931363Y-59876820D01*
X103924125Y-59875890D01*
X103848404Y-59863898D01*
X103848385Y-59863897D01*
X103748128Y-59858642D01*
X103742467Y-59858215D01*
X103668916Y-59850972D01*
X103653969Y-59849500D01*
X103653967Y-59849500D01*
X103576914Y-59849500D01*
X103570424Y-59849330D01*
X103482001Y-59844696D01*
X103481999Y-59844696D01*
X103393576Y-59849330D01*
X103387086Y-59849500D01*
X103310031Y-59849500D01*
X103296280Y-59850854D01*
X103221531Y-59858215D01*
X103215870Y-59858642D01*
X103115601Y-59863897D01*
X103039878Y-59875890D01*
X103032639Y-59876819D01*
X102999192Y-59880114D01*
X102967750Y-59883211D01*
X102868892Y-59902875D01*
X102868887Y-59902876D01*
X102864096Y-59903731D01*
X102753209Y-59921294D01*
X102753193Y-59921297D01*
X102690610Y-59938066D01*
X102682713Y-59939908D01*
X102660547Y-59944317D01*
X102630422Y-59950310D01*
X102630419Y-59950311D01*
X102522623Y-59983009D01*
X102518725Y-59984122D01*
X102398799Y-60016258D01*
X102398797Y-60016259D01*
X102375092Y-60025358D01*
X102349383Y-60035226D01*
X102340956Y-60038118D01*
X102301310Y-60050144D01*
X102301297Y-60050149D01*
X102186276Y-60097791D01*
X102183264Y-60098992D01*
X102056269Y-60147742D01*
X102019692Y-60166379D01*
X102010855Y-60170453D01*
X101983543Y-60181766D01*
X101863258Y-60246059D01*
X101861102Y-60247184D01*
X101729362Y-60314310D01*
X101729345Y-60314319D01*
X101704890Y-60330200D01*
X101695821Y-60335555D01*
X101680228Y-60343891D01*
X101680205Y-60343904D01*
X101556928Y-60426274D01*
X101555575Y-60427166D01*
X101421630Y-60514151D01*
X101408189Y-60525035D01*
X101399062Y-60531758D01*
X101394248Y-60534975D01*
X101394237Y-60534982D01*
X101270505Y-60636526D01*
X101269878Y-60637037D01*
X101136495Y-60745050D01*
X101136485Y-60745059D01*
X100877059Y-61004485D01*
X100877050Y-61004495D01*
X100769037Y-61137878D01*
X100768526Y-61138505D01*
X100666982Y-61262237D01*
X100666975Y-61262248D01*
X100663758Y-61267062D01*
X100657035Y-61276189D01*
X100646151Y-61289630D01*
X100559166Y-61423575D01*
X100558274Y-61424928D01*
X100475904Y-61548205D01*
X100475891Y-61548228D01*
X100467555Y-61563821D01*
X100462200Y-61572890D01*
X100446319Y-61597345D01*
X100446310Y-61597362D01*
X100379184Y-61729102D01*
X100378059Y-61731258D01*
X100313766Y-61851543D01*
X100302453Y-61878855D01*
X100298379Y-61887692D01*
X100279742Y-61924269D01*
X100230992Y-62051264D01*
X100229791Y-62054276D01*
X100182149Y-62169297D01*
X100182144Y-62169310D01*
X100170118Y-62208956D01*
X100167226Y-62217383D01*
X100157358Y-62243092D01*
X100148259Y-62266797D01*
X100148258Y-62266799D01*
X100116122Y-62386725D01*
X100115009Y-62390623D01*
X100086505Y-62484594D01*
X100082310Y-62498422D01*
X100077976Y-62520208D01*
X100071908Y-62550713D01*
X100070066Y-62558610D01*
X100053297Y-62621193D01*
X100053294Y-62621209D01*
X100035731Y-62732096D01*
X100034877Y-62736882D01*
X100015211Y-62835750D01*
X100014086Y-62847173D01*
X100008819Y-62900639D01*
X100007890Y-62907878D01*
X99995897Y-62983601D01*
X99990642Y-63083870D01*
X99990215Y-63089531D01*
X99981500Y-63178032D01*
X99981500Y-63255085D01*
X99981330Y-63261575D01*
X99976696Y-63349999D01*
X99976696Y-63350000D01*
X99981330Y-63438423D01*
X99981500Y-63444913D01*
X99981500Y-77733500D01*
X99961815Y-77800539D01*
X99909011Y-77846294D01*
X99857500Y-77857500D01*
X83444914Y-77857500D01*
X83438424Y-77857330D01*
X83350001Y-77852696D01*
X83349999Y-77852696D01*
X83261576Y-77857330D01*
X83255086Y-77857500D01*
X83178031Y-77857500D01*
X83164280Y-77858854D01*
X83089531Y-77866215D01*
X83083870Y-77866642D01*
X82983601Y-77871897D01*
X82907878Y-77883890D01*
X82900639Y-77884819D01*
X82867192Y-77888114D01*
X82835750Y-77891211D01*
X82736887Y-77910876D01*
X82732096Y-77911731D01*
X82621209Y-77929294D01*
X82621193Y-77929297D01*
X82558610Y-77946066D01*
X82550713Y-77947908D01*
X82528547Y-77952317D01*
X82498422Y-77958310D01*
X82498419Y-77958311D01*
X82390623Y-77991009D01*
X82386725Y-77992122D01*
X82266799Y-78024258D01*
X82266797Y-78024259D01*
X82243092Y-78033358D01*
X82217383Y-78043226D01*
X82208956Y-78046118D01*
X82169310Y-78058144D01*
X82169297Y-78058149D01*
X82054276Y-78105791D01*
X82051264Y-78106992D01*
X81924269Y-78155742D01*
X81887692Y-78174379D01*
X81878855Y-78178453D01*
X81851543Y-78189766D01*
X81731258Y-78254059D01*
X81729102Y-78255184D01*
X81597362Y-78322310D01*
X81597345Y-78322319D01*
X81572890Y-78338200D01*
X81563821Y-78343555D01*
X81548228Y-78351891D01*
X81548205Y-78351904D01*
X81424928Y-78434274D01*
X81423575Y-78435166D01*
X81289630Y-78522151D01*
X81276189Y-78533035D01*
X81267062Y-78539758D01*
X81262248Y-78542975D01*
X81262237Y-78542982D01*
X81138505Y-78644526D01*
X81137878Y-78645037D01*
X81004495Y-78753050D01*
X81004485Y-78753059D01*
X80745059Y-79012485D01*
X80745050Y-79012495D01*
X80637037Y-79145878D01*
X80636526Y-79146505D01*
X80534982Y-79270237D01*
X80534975Y-79270248D01*
X80531758Y-79275062D01*
X80525035Y-79284189D01*
X80514151Y-79297630D01*
X80427166Y-79431575D01*
X80426274Y-79432928D01*
X80343904Y-79556205D01*
X80343891Y-79556228D01*
X80335555Y-79571821D01*
X80330200Y-79580890D01*
X80314319Y-79605345D01*
X80314310Y-79605362D01*
X80247184Y-79737102D01*
X80246059Y-79739258D01*
X80181766Y-79859543D01*
X80170453Y-79886855D01*
X80166379Y-79895692D01*
X80147742Y-79932269D01*
X80098992Y-80059264D01*
X80097791Y-80062276D01*
X80050149Y-80177297D01*
X80050144Y-80177310D01*
X80038118Y-80216956D01*
X80035226Y-80225383D01*
X80025358Y-80251092D01*
X80016259Y-80274797D01*
X80016258Y-80274799D01*
X79984122Y-80394725D01*
X79983009Y-80398623D01*
X79950311Y-80506419D01*
X79939908Y-80558713D01*
X79938066Y-80566610D01*
X79921297Y-80629193D01*
X79921294Y-80629209D01*
X79903731Y-80740096D01*
X79902876Y-80744886D01*
X79883211Y-80843750D01*
X79880114Y-80875192D01*
X79876819Y-80908639D01*
X79875890Y-80915878D01*
X79863897Y-80991601D01*
X79858642Y-81091870D01*
X79858215Y-81097531D01*
X79849500Y-81186032D01*
X79849500Y-81263085D01*
X79849330Y-81269575D01*
X79844696Y-81357999D01*
X79844696Y-81358000D01*
X79849330Y-81446423D01*
X79849500Y-81452913D01*
X79849500Y-81529967D01*
X79858215Y-81618467D01*
X79858642Y-81624128D01*
X79863898Y-81724404D01*
X79875474Y-81797496D01*
X79875890Y-81800119D01*
X79876820Y-81807363D01*
X79883209Y-81872240D01*
X79883212Y-81872256D01*
X79902875Y-81971110D01*
X79903731Y-81975902D01*
X79921294Y-82086791D01*
X79921296Y-82086800D01*
X79938067Y-82149391D01*
X79939909Y-82157290D01*
X79950310Y-82209578D01*
X79983014Y-82317391D01*
X79984127Y-82321290D01*
X80016257Y-82441196D01*
X80016261Y-82441209D01*
X80035224Y-82490609D01*
X80038120Y-82499050D01*
X80050144Y-82538689D01*
X80050152Y-82538712D01*
X80097790Y-82653721D01*
X80098993Y-82656734D01*
X80147745Y-82783736D01*
X80147747Y-82783741D01*
X80147748Y-82783742D01*
X80166384Y-82820317D01*
X80170458Y-82829155D01*
X80181769Y-82856462D01*
X80246048Y-82976719D01*
X80247173Y-82978876D01*
X80314316Y-83110650D01*
X80314321Y-83110658D01*
X80330198Y-83135106D01*
X80335561Y-83144186D01*
X80343898Y-83159783D01*
X80343910Y-83159803D01*
X80426262Y-83283052D01*
X80427155Y-83284407D01*
X80514151Y-83418370D01*
X80514154Y-83418374D01*
X80525028Y-83431801D01*
X80531764Y-83440946D01*
X80534981Y-83445760D01*
X80534983Y-83445762D01*
X80636512Y-83569476D01*
X80637025Y-83570105D01*
X80745051Y-83703506D01*
X81004494Y-83962949D01*
X81049135Y-83999099D01*
X81088847Y-84056585D01*
X81091175Y-84126416D01*
X81055380Y-84186420D01*
X80992827Y-84217547D01*
X80951703Y-84217939D01*
X80898417Y-84209500D01*
X80201583Y-84209500D01*
X80201578Y-84209500D01*
X80007173Y-84240290D01*
X79819970Y-84301117D01*
X79644594Y-84390476D01*
X79598848Y-84423713D01*
X79485354Y-84506172D01*
X79485352Y-84506174D01*
X79485351Y-84506174D01*
X79346174Y-84645351D01*
X79346174Y-84645352D01*
X79346172Y-84645354D01*
X79312469Y-84691742D01*
X79230476Y-84804594D01*
X79141117Y-84979970D01*
X79113185Y-85065937D01*
X79073747Y-85123612D01*
X79009388Y-85150810D01*
X78940542Y-85138895D01*
X78889066Y-85091650D01*
X78880693Y-85075071D01*
X78799140Y-84878185D01*
X78782788Y-84838708D01*
X78778978Y-84832108D01*
X78651669Y-84611601D01*
X78492026Y-84403553D01*
X78492019Y-84403545D01*
X78306605Y-84218131D01*
X78306596Y-84218123D01*
X78098548Y-84058480D01*
X77871445Y-83927363D01*
X77871435Y-83927358D01*
X77629173Y-83827010D01*
X77629166Y-83827008D01*
X77629164Y-83827007D01*
X77375861Y-83759135D01*
X77318084Y-83751528D01*
X77115872Y-83724905D01*
X77115865Y-83724905D01*
X76853625Y-83724905D01*
X76853617Y-83724905D01*
X76622517Y-83755331D01*
X76593629Y-83759135D01*
X76454378Y-83796447D01*
X76340326Y-83827007D01*
X76340316Y-83827010D01*
X76098054Y-83927358D01*
X76098044Y-83927363D01*
X75870941Y-84058480D01*
X75662893Y-84218123D01*
X75477463Y-84403553D01*
X75317820Y-84611601D01*
X75186703Y-84838704D01*
X75186698Y-84838714D01*
X75086350Y-85080976D01*
X75086347Y-85080986D01*
X75018475Y-85334290D01*
X74984245Y-85594277D01*
X71500500Y-85594277D01*
X71500500Y-71595000D01*
X79994473Y-71595000D01*
X80014563Y-71927136D01*
X80014563Y-71927141D01*
X80014564Y-71927142D01*
X80074544Y-72254441D01*
X80074545Y-72254445D01*
X80074546Y-72254449D01*
X80173530Y-72572104D01*
X80173534Y-72572116D01*
X80173537Y-72572123D01*
X80310102Y-72875557D01*
X80482246Y-73160318D01*
X80482251Y-73160326D01*
X80687460Y-73422255D01*
X80922744Y-73657539D01*
X81184673Y-73862748D01*
X81184678Y-73862751D01*
X81184682Y-73862754D01*
X81469443Y-74034898D01*
X81772877Y-74171463D01*
X81772890Y-74171467D01*
X81772895Y-74171469D01*
X81984665Y-74237458D01*
X82090559Y-74270456D01*
X82417858Y-74330436D01*
X82750000Y-74350527D01*
X83082142Y-74330436D01*
X83409441Y-74270456D01*
X83727123Y-74171463D01*
X84030557Y-74034898D01*
X84315318Y-73862754D01*
X84577252Y-73657542D01*
X84812542Y-73422252D01*
X85017754Y-73160318D01*
X85189898Y-72875557D01*
X85326463Y-72572123D01*
X85425456Y-72254441D01*
X85485436Y-71927142D01*
X85505527Y-71595000D01*
X85485436Y-71262858D01*
X85425456Y-70935559D01*
X85326463Y-70617877D01*
X85189898Y-70314443D01*
X85017754Y-70029682D01*
X85017751Y-70029678D01*
X85017748Y-70029673D01*
X84812539Y-69767744D01*
X84577255Y-69532460D01*
X84315326Y-69327251D01*
X84274317Y-69302460D01*
X84030557Y-69155102D01*
X83727123Y-69018537D01*
X83727116Y-69018534D01*
X83727104Y-69018530D01*
X83409449Y-68919546D01*
X83409445Y-68919545D01*
X83409441Y-68919544D01*
X83082142Y-68859564D01*
X83082141Y-68859563D01*
X83082136Y-68859563D01*
X82750000Y-68839473D01*
X82417863Y-68859563D01*
X82417858Y-68859564D01*
X82090559Y-68919544D01*
X82090556Y-68919544D01*
X82090550Y-68919546D01*
X81772895Y-69018530D01*
X81772879Y-69018536D01*
X81772877Y-69018537D01*
X81597993Y-69097246D01*
X81469447Y-69155100D01*
X81469445Y-69155101D01*
X81184673Y-69327251D01*
X80922744Y-69532460D01*
X80687460Y-69767744D01*
X80482251Y-70029673D01*
X80310101Y-70314445D01*
X80310100Y-70314447D01*
X80173536Y-70617880D01*
X80173530Y-70617895D01*
X80074546Y-70935550D01*
X80074544Y-70935556D01*
X80074544Y-70935559D01*
X80026122Y-71199786D01*
X80014563Y-71262863D01*
X79994473Y-71595000D01*
X71500500Y-71595000D01*
X71500500Y-62750000D01*
X90909473Y-62750000D01*
X90929563Y-63082136D01*
X90929563Y-63082141D01*
X90929564Y-63082142D01*
X90989544Y-63409441D01*
X90989545Y-63409445D01*
X90989546Y-63409449D01*
X91088530Y-63727104D01*
X91088534Y-63727116D01*
X91088537Y-63727123D01*
X91225102Y-64030557D01*
X91279190Y-64120029D01*
X91397251Y-64315326D01*
X91602460Y-64577255D01*
X91837744Y-64812539D01*
X92099673Y-65017748D01*
X92099678Y-65017751D01*
X92099682Y-65017754D01*
X92384443Y-65189898D01*
X92687877Y-65326463D01*
X92687890Y-65326467D01*
X92687895Y-65326469D01*
X92899665Y-65392458D01*
X93005559Y-65425456D01*
X93332858Y-65485436D01*
X93665000Y-65505527D01*
X93997142Y-65485436D01*
X94324441Y-65425456D01*
X94642123Y-65326463D01*
X94945557Y-65189898D01*
X95230318Y-65017754D01*
X95492252Y-64812542D01*
X95727542Y-64577252D01*
X95932754Y-64315318D01*
X96104898Y-64030557D01*
X96241463Y-63727123D01*
X96340456Y-63409441D01*
X96400436Y-63082142D01*
X96420527Y-62750000D01*
X96400436Y-62417858D01*
X96340456Y-62090559D01*
X96289344Y-61926533D01*
X96241469Y-61772895D01*
X96241467Y-61772890D01*
X96241463Y-61772877D01*
X96104898Y-61469443D01*
X95932754Y-61184682D01*
X95932751Y-61184678D01*
X95932748Y-61184673D01*
X95727539Y-60922744D01*
X95492255Y-60687460D01*
X95230326Y-60482251D01*
X95230318Y-60482246D01*
X94945557Y-60310102D01*
X94642123Y-60173537D01*
X94642116Y-60173534D01*
X94642104Y-60173530D01*
X94324449Y-60074546D01*
X94324445Y-60074545D01*
X94324441Y-60074544D01*
X93997142Y-60014564D01*
X93997141Y-60014563D01*
X93997136Y-60014563D01*
X93665000Y-59994473D01*
X93332863Y-60014563D01*
X93269786Y-60026122D01*
X93005559Y-60074544D01*
X93005556Y-60074544D01*
X93005550Y-60074546D01*
X92687895Y-60173530D01*
X92687879Y-60173536D01*
X92687877Y-60173537D01*
X92384443Y-60310102D01*
X92342339Y-60335555D01*
X92099673Y-60482251D01*
X91837744Y-60687460D01*
X91602460Y-60922744D01*
X91397251Y-61184673D01*
X91344592Y-61271782D01*
X91225102Y-61469443D01*
X91097111Y-61753828D01*
X91088536Y-61772880D01*
X91088530Y-61772895D01*
X90989546Y-62090550D01*
X90989544Y-62090556D01*
X90989544Y-62090559D01*
X90972771Y-62182086D01*
X90929563Y-62417863D01*
X90909473Y-62750000D01*
X71500500Y-62750000D01*
X71500500Y-57500000D01*
X73494675Y-57500000D01*
X73513962Y-57892591D01*
X73513962Y-57892597D01*
X73513963Y-57892599D01*
X73571637Y-58281406D01*
X73667143Y-58662684D01*
X73799561Y-59032770D01*
X73799562Y-59032772D01*
X73967620Y-59388100D01*
X74169692Y-59725236D01*
X74169694Y-59725239D01*
X74401742Y-60038120D01*
X74403846Y-60040956D01*
X74667807Y-60332192D01*
X74959043Y-60596153D01*
X74959049Y-60596158D01*
X75274761Y-60830306D01*
X75274763Y-60830307D01*
X75611899Y-61032379D01*
X75611902Y-61032380D01*
X75611903Y-61032381D01*
X75967228Y-61200438D01*
X76337316Y-61332857D01*
X76718600Y-61428364D01*
X77107409Y-61486038D01*
X77500000Y-61505325D01*
X77892591Y-61486038D01*
X78281400Y-61428364D01*
X78662684Y-61332857D01*
X79032772Y-61200438D01*
X79388097Y-61032381D01*
X79725239Y-60830306D01*
X80040951Y-60596158D01*
X80332192Y-60332192D01*
X80596158Y-60040951D01*
X80830306Y-59725239D01*
X81032381Y-59388097D01*
X81200438Y-59032772D01*
X81332857Y-58662684D01*
X81428364Y-58281400D01*
X81486038Y-57892591D01*
X81505325Y-57500000D01*
X81486038Y-57107409D01*
X81428364Y-56718600D01*
X81332857Y-56337316D01*
X81200438Y-55967228D01*
X81032381Y-55611903D01*
X81016973Y-55586197D01*
X80830307Y-55274763D01*
X80784789Y-55213389D01*
X80596158Y-54959049D01*
X80544413Y-54901957D01*
X80332192Y-54667807D01*
X80040956Y-54403846D01*
X79725236Y-54169692D01*
X79388100Y-53967620D01*
X79032772Y-53799562D01*
X79032770Y-53799561D01*
X78662684Y-53667143D01*
X78281406Y-53571637D01*
X78281401Y-53571636D01*
X78281400Y-53571636D01*
X78137256Y-53550254D01*
X77892599Y-53513963D01*
X77892597Y-53513962D01*
X77892591Y-53513962D01*
X77500000Y-53494675D01*
X77107409Y-53513962D01*
X77107403Y-53513962D01*
X77107400Y-53513963D01*
X76718593Y-53571637D01*
X76337315Y-53667143D01*
X75967229Y-53799561D01*
X75967227Y-53799562D01*
X75611899Y-53967620D01*
X75274763Y-54169692D01*
X74959043Y-54403846D01*
X74667807Y-54667807D01*
X74403846Y-54959043D01*
X74169692Y-55274763D01*
X73967620Y-55611899D01*
X73799562Y-55967227D01*
X73799561Y-55967229D01*
X73667143Y-56337315D01*
X73571637Y-56718593D01*
X73571636Y-56718600D01*
X73513962Y-57107409D01*
X73494675Y-57500000D01*
X71500500Y-57500000D01*
X71500500Y-56002706D01*
X71500618Y-55997297D01*
X71508651Y-55813303D01*
X71517386Y-55613226D01*
X71518326Y-55602495D01*
X71568152Y-55224025D01*
X71570025Y-55213405D01*
X71652649Y-54840709D01*
X71655440Y-54830295D01*
X71770230Y-54466227D01*
X71773917Y-54456095D01*
X71920003Y-54103412D01*
X71924561Y-54093638D01*
X72100822Y-53755045D01*
X72106217Y-53745700D01*
X72311325Y-53423744D01*
X72317515Y-53414905D01*
X72549896Y-53112060D01*
X72556834Y-53103791D01*
X72814726Y-52822352D01*
X72822352Y-52814726D01*
X73103791Y-52556834D01*
X73112060Y-52549896D01*
X73414905Y-52317515D01*
X73423744Y-52311325D01*
X73745700Y-52106217D01*
X73755045Y-52100822D01*
X74093638Y-51924561D01*
X74103412Y-51920003D01*
X74456095Y-51773917D01*
X74466227Y-51770230D01*
X74830295Y-51655440D01*
X74840709Y-51652649D01*
X75213405Y-51570025D01*
X75224025Y-51568152D01*
X75602495Y-51518326D01*
X75613226Y-51517386D01*
X75997297Y-51500617D01*
X76002706Y-51500500D01*
X76065892Y-51500500D01*
X185934108Y-51500500D01*
X185997294Y-51500500D01*
X186002702Y-51500617D01*
G37*
%TD.AperFunction*%
%TD*%
M02*
