M48
; DRILL file {KiCad 8.0.3} date 2024-11-13T10:19:04-0700
; FORMAT={-:-/ absolute / metric / decimal}
; #@! TF.CreationDate,2024-11-13T10:19:04-07:00
; #@! TF.GenerationSoftware,Kicad,Pcbnew,8.0.3
; #@! TF.FileFunction,MixedPlating,1,2
FMAT,2
METRIC
; #@! TA.AperFunction,Plated,PTH,ViaDrill
T1C0.300
; #@! TA.AperFunction,Plated,PTH,ViaDrill
T2C0.500
; #@! TA.AperFunction,Plated,PTH,ComponentDrill
T3C0.500
; #@! TA.AperFunction,Plated,PTH,ComponentDrill
T4C1.000
; #@! TA.AperFunction,Plated,PTH,ComponentDrill
T5C3.000
; #@! TA.AperFunction,Plated,PTH,ComponentDrill
T6C3.500
; #@! TA.AperFunction,Plated,PTH,ComponentDrill
T7C4.000
%
G90
G05
T1
X108.5Y-90.375
X108.5Y-91.9
X113.1Y-89.2
X113.1Y-91.1
X149.8Y-90.375
X149.8Y-91.8
X154.3Y-89.1
X154.3Y-91.1
T2
X74.546Y-62.116
X74.546Y-64.656
X74.546Y-67.196
X74.546Y-69.736
X74.546Y-72.276
X74.546Y-74.816
X74.546Y-77.356
X74.546Y-79.896
X74.546Y-82.436
X74.546Y-84.976
X74.546Y-87.516
X74.546Y-90.056
X74.546Y-92.596
X74.546Y-95.136
X74.546Y-97.676
X74.546Y-100.216
X74.546Y-102.756
X74.546Y-105.296
X74.546Y-107.836
X74.546Y-110.376
X74.546Y-112.916
X74.546Y-115.456
X77.086Y-62.116
X77.086Y-64.656
X77.086Y-67.196
X77.086Y-69.736
X77.086Y-72.276
X77.086Y-74.816
X77.086Y-77.356
X77.086Y-79.896
X77.086Y-82.436
X79.626Y-62.116
X79.626Y-64.656
X79.626Y-67.196
X79.626Y-69.736
X79.626Y-74.816
X79.626Y-77.356
X79.626Y-97.676
X79.626Y-100.216
X79.626Y-102.756
X82.166Y-54.496
X82.166Y-57.036
X82.166Y-59.576
X82.166Y-62.116
X82.166Y-64.656
X82.166Y-67.196
X82.166Y-74.816
X82.166Y-77.356
X82.166Y-100.216
X82.166Y-120.536
X82.166Y-123.076
X84.706Y-54.496
X84.706Y-57.036
X84.706Y-59.576
X84.706Y-62.116
X84.706Y-64.656
X84.706Y-67.196
X84.706Y-74.816
X84.706Y-77.356
X84.706Y-100.216
X84.706Y-107.836
X84.706Y-110.376
X84.706Y-123.076
X87.246Y-54.496
X87.246Y-57.036
X87.246Y-59.576
X87.246Y-62.116
X87.246Y-64.656
X87.246Y-67.196
X87.246Y-69.736
X87.246Y-72.276
X87.246Y-74.816
X87.246Y-77.356
X87.246Y-92.596
X87.246Y-97.676
X87.246Y-100.216
X87.246Y-102.756
X87.246Y-105.296
X87.246Y-107.836
X87.246Y-110.376
X87.246Y-112.916
X87.246Y-123.076
X89.786Y-54.496
X89.786Y-57.036
X89.786Y-59.576
X89.786Y-62.116
X89.786Y-64.656
X89.786Y-67.196
X89.786Y-69.736
X89.786Y-72.276
X89.786Y-74.816
X89.786Y-77.356
X89.786Y-92.596
X89.786Y-95.136
X89.786Y-97.676
X89.786Y-100.216
X89.786Y-102.756
X89.786Y-105.296
X89.786Y-107.836
X89.786Y-110.376
X89.786Y-112.916
X89.786Y-115.456
X89.786Y-123.076
X92.326Y-54.496
X92.326Y-57.036
X92.326Y-59.576
X92.326Y-67.196
X92.326Y-69.736
X92.326Y-72.276
X92.326Y-74.816
X92.326Y-77.356
X92.326Y-87.516
X92.326Y-92.596
X92.326Y-95.136
X92.326Y-97.676
X92.326Y-100.216
X92.326Y-102.756
X92.326Y-105.296
X92.326Y-107.836
X92.326Y-110.376
X92.326Y-123.076
X94.866Y-54.496
X94.866Y-57.036
X94.866Y-59.576
X94.866Y-67.196
X94.866Y-69.736
X94.866Y-72.276
X94.866Y-74.816
X94.866Y-77.356
X94.866Y-87.516
X94.866Y-92.596
X94.866Y-95.136
X94.866Y-97.676
X94.866Y-100.216
X94.866Y-102.756
X94.866Y-105.296
X94.866Y-107.836
X94.866Y-110.376
X94.866Y-123.076
X97.406Y-54.496
X97.406Y-57.036
X97.406Y-59.576
X97.406Y-62.116
X97.406Y-64.656
X97.406Y-67.196
X97.406Y-69.736
X97.406Y-72.276
X97.406Y-74.816
X97.406Y-77.356
X97.406Y-87.516
X97.406Y-92.596
X97.406Y-95.136
X97.406Y-97.676
X97.406Y-100.216
X97.406Y-102.756
X97.406Y-105.296
X97.406Y-107.836
X97.406Y-110.376
X97.406Y-112.916
X97.406Y-115.456
X97.406Y-123.076
X99.946Y-54.496
X99.946Y-57.036
X99.946Y-87.516
X99.946Y-92.596
X99.946Y-95.136
X99.946Y-97.676
X99.946Y-100.216
X99.946Y-102.756
X99.946Y-105.296
X99.946Y-107.836
X99.946Y-110.376
X99.946Y-123.076
X102.486Y-54.496
X102.486Y-57.036
X102.486Y-87.516
X102.486Y-92.596
X102.486Y-95.136
X102.486Y-97.676
X102.486Y-100.216
X102.486Y-102.756
X102.486Y-105.296
X102.486Y-107.836
X102.486Y-123.076
X105.026Y-54.496
X105.026Y-57.036
X105.026Y-87.516
X105.026Y-92.596
X105.026Y-95.136
X105.026Y-97.676
X105.026Y-100.216
X105.026Y-102.756
X105.026Y-105.296
X105.026Y-107.836
X105.026Y-123.076
X107.566Y-67.196
X107.566Y-69.736
X107.566Y-72.276
X107.566Y-74.816
X107.566Y-77.356
X107.566Y-87.516
X107.566Y-123.076
X110.106Y-67.196
X110.106Y-69.736
X110.106Y-72.276
X110.106Y-74.816
X110.106Y-77.356
X110.106Y-87.516
X110.106Y-92.596
X110.106Y-95.136
X110.106Y-97.676
X110.106Y-100.216
X110.106Y-102.756
X110.106Y-105.296
X110.106Y-107.836
X110.106Y-110.376
X110.106Y-123.076
X112.646Y-95.136
X112.646Y-97.676
X112.646Y-100.216
X112.646Y-102.756
X112.646Y-105.296
X112.646Y-107.836
X112.646Y-110.376
X112.646Y-123.076
X115.186Y-59.576
X115.186Y-67.196
X115.186Y-69.736
X115.186Y-72.276
X115.186Y-74.816
X115.186Y-77.356
X115.186Y-123.076
X117.726Y-69.736
X117.726Y-72.276
X117.726Y-74.816
X117.726Y-77.356
X117.726Y-123.076
X120.266Y-59.576
X120.266Y-67.196
X120.266Y-69.736
X120.266Y-72.276
X120.266Y-74.816
X120.266Y-77.356
X120.266Y-123.076
X122.806Y-59.576
X122.806Y-62.116
X122.806Y-64.656
X122.806Y-67.196
X122.806Y-69.736
X122.806Y-72.276
X122.806Y-74.816
X122.806Y-77.356
X122.806Y-87.516
X122.806Y-92.596
X122.806Y-95.136
X122.806Y-97.676
X122.806Y-100.216
X122.806Y-102.756
X122.806Y-105.296
X122.806Y-107.836
X122.806Y-110.376
X122.806Y-112.916
X122.806Y-115.456
X122.806Y-123.076
X125.346Y-59.576
X125.346Y-67.196
X125.346Y-69.736
X125.346Y-72.276
X125.346Y-74.816
X125.346Y-77.356
X125.346Y-87.516
X125.346Y-92.596
X125.346Y-95.136
X125.346Y-97.676
X125.346Y-100.216
X125.346Y-102.756
X125.346Y-105.296
X125.346Y-107.836
X125.346Y-110.376
X125.346Y-123.076
X127.886Y-59.576
X127.886Y-67.196
X127.886Y-69.736
X127.886Y-72.276
X127.886Y-74.816
X127.886Y-77.356
X127.886Y-87.516
X127.886Y-92.596
X127.886Y-95.136
X127.886Y-97.676
X127.886Y-100.216
X127.886Y-102.756
X127.886Y-105.296
X127.886Y-107.836
X127.886Y-110.376
X127.886Y-123.076
X130.426Y-59.576
X130.426Y-62.116
X130.426Y-64.656
X130.426Y-67.196
X130.426Y-69.736
X130.426Y-72.276
X130.426Y-74.816
X130.426Y-77.356
X130.426Y-87.516
X130.426Y-92.596
X130.426Y-95.136
X130.426Y-97.676
X130.426Y-100.216
X130.426Y-102.756
X130.426Y-105.296
X130.426Y-107.836
X130.426Y-110.376
X130.426Y-112.916
X130.426Y-115.456
X130.426Y-123.076
X132.966Y-59.576
X132.966Y-67.196
X132.966Y-69.736
X132.966Y-72.276
X132.966Y-74.816
X132.966Y-77.356
X132.966Y-87.516
X132.966Y-92.596
X132.966Y-95.136
X132.966Y-97.676
X132.966Y-100.216
X132.966Y-102.756
X132.966Y-105.296
X132.966Y-107.836
X132.966Y-110.376
X132.966Y-123.076
X135.506Y-59.576
X135.506Y-67.196
X135.506Y-69.736
X135.506Y-72.276
X135.506Y-74.816
X135.506Y-77.356
X135.506Y-87.516
X135.506Y-92.596
X135.506Y-95.136
X135.506Y-97.676
X135.506Y-100.216
X135.506Y-102.756
X135.506Y-105.296
X135.506Y-107.836
X135.506Y-110.376
X135.506Y-123.076
X138.046Y-59.576
X138.046Y-62.116
X138.046Y-64.656
X138.046Y-67.196
X138.046Y-69.736
X138.046Y-72.276
X138.046Y-74.816
X138.046Y-77.356
X138.046Y-87.516
X138.046Y-92.596
X138.046Y-95.136
X138.046Y-97.676
X138.046Y-100.216
X138.046Y-102.756
X138.046Y-105.296
X138.046Y-107.836
X138.046Y-110.376
X138.046Y-123.076
X140.586Y-59.576
X140.586Y-62.116
X140.586Y-64.656
X140.586Y-67.196
X140.586Y-69.736
X140.586Y-72.276
X140.586Y-74.816
X140.586Y-77.356
X140.586Y-87.516
X140.586Y-92.596
X140.586Y-95.136
X140.586Y-97.676
X140.586Y-100.216
X140.586Y-102.756
X140.586Y-105.296
X140.586Y-107.836
X140.586Y-110.376
X140.586Y-112.916
X140.586Y-115.456
X140.586Y-123.076
X143.126Y-87.516
X143.126Y-92.596
X143.126Y-95.136
X143.126Y-97.676
X143.126Y-100.216
X143.126Y-102.756
X143.126Y-105.296
X143.126Y-107.836
X143.126Y-123.076
X145.666Y-87.516
X145.666Y-92.596
X145.666Y-95.136
X145.666Y-97.676
X145.666Y-100.216
X145.666Y-102.756
X145.666Y-105.296
X145.666Y-107.836
X145.666Y-123.076
X148.206Y-87.516
X148.206Y-123.076
X150.746Y-67.196
X150.746Y-69.736
X150.746Y-72.276
X150.746Y-74.816
X150.746Y-77.356
X150.746Y-87.516
X150.746Y-95.136
X150.746Y-97.676
X150.746Y-100.216
X150.746Y-102.756
X150.746Y-105.296
X150.746Y-107.836
X150.746Y-110.376
X150.746Y-123.076
X153.286Y-95.136
X153.286Y-97.676
X153.286Y-100.216
X153.286Y-102.756
X153.286Y-105.296
X153.286Y-107.836
X153.286Y-110.376
X153.286Y-123.076
X155.826Y-67.196
X155.826Y-69.736
X155.826Y-72.276
X155.826Y-74.816
X155.826Y-77.356
X155.826Y-123.076
X158.366Y-69.736
X158.366Y-72.276
X158.366Y-74.816
X158.366Y-77.356
X158.366Y-123.076
X160.906Y-59.576
X160.906Y-67.196
X160.906Y-69.736
X160.906Y-72.276
X160.906Y-74.816
X160.906Y-77.356
X160.906Y-123.076
X163.446Y-59.576
X163.446Y-62.116
X163.446Y-64.656
X163.446Y-67.196
X163.446Y-69.736
X163.446Y-72.276
X163.446Y-74.816
X163.446Y-77.356
X163.446Y-87.516
X163.446Y-92.596
X163.446Y-95.136
X163.446Y-97.676
X163.446Y-100.216
X163.446Y-102.756
X163.446Y-105.296
X163.446Y-107.836
X163.446Y-110.376
X163.446Y-112.916
X163.446Y-115.456
X163.446Y-123.076
X165.986Y-59.576
X165.986Y-67.196
X165.986Y-69.736
X165.986Y-72.276
X165.986Y-74.816
X165.986Y-77.356
X165.986Y-87.516
X165.986Y-92.596
X165.986Y-95.136
X165.986Y-97.676
X165.986Y-100.216
X165.986Y-102.756
X165.986Y-105.296
X165.986Y-107.836
X165.986Y-110.376
X165.986Y-123.076
X168.526Y-59.576
X168.526Y-67.196
X168.526Y-69.736
X168.526Y-72.276
X168.526Y-74.816
X168.526Y-77.356
X168.526Y-87.516
X168.526Y-92.596
X168.526Y-95.136
X168.526Y-97.676
X168.526Y-100.216
X168.526Y-102.756
X168.526Y-105.296
X168.526Y-107.836
X168.526Y-110.376
X168.526Y-123.076
X171.066Y-67.196
X171.066Y-69.736
X171.066Y-72.276
X171.066Y-74.816
X171.066Y-77.356
X171.066Y-87.516
X171.066Y-95.136
X171.066Y-97.676
X171.066Y-100.216
X171.066Y-102.756
X171.066Y-105.296
X171.066Y-107.836
X171.066Y-110.376
X171.066Y-123.076
X173.606Y-64.656
X173.606Y-67.196
X173.606Y-69.736
X173.606Y-72.276
X173.606Y-74.816
X173.606Y-77.356
X173.606Y-87.516
X173.606Y-92.596
X173.606Y-95.136
X173.606Y-97.676
X173.606Y-100.216
X173.606Y-102.756
X173.606Y-105.296
X173.606Y-107.836
X173.606Y-110.376
X173.606Y-112.916
X173.606Y-123.076
X176.146Y-54.496
X176.146Y-67.196
X176.146Y-69.736
X176.146Y-72.276
X176.146Y-74.816
X176.146Y-87.516
X176.146Y-100.216
X176.146Y-102.756
X176.146Y-105.296
X176.146Y-107.836
X176.146Y-110.376
X176.146Y-123.076
X178.686Y-54.496
X178.686Y-57.036
X178.686Y-74.816
X178.686Y-100.216
X178.686Y-107.836
X178.686Y-120.536
X178.686Y-123.076
X181.226Y-74.816
X181.226Y-100.216
X181.226Y-123.076
X183.766Y-62.116
X186.306Y-62.116
X186.306Y-64.656
X186.306Y-112.916
X188.846Y-54.496
X188.846Y-59.576
X188.846Y-62.116
X188.846Y-64.656
X188.846Y-67.196
X188.846Y-69.736
X188.846Y-72.276
X188.846Y-74.816
X188.846Y-77.356
X188.846Y-79.896
X188.846Y-82.436
X188.846Y-84.976
X188.846Y-87.516
X188.846Y-90.056
X188.846Y-92.596
X188.846Y-95.136
X188.846Y-97.676
X188.846Y-100.216
X188.846Y-102.756
X188.846Y-105.296
X188.846Y-107.836
X188.846Y-110.376
X188.846Y-112.916
X188.846Y-115.456
X188.846Y-117.996
X188.846Y-123.076
T3
X74.875Y-57.5
X74.875Y-119.5
X75.644Y-55.644
X75.644Y-59.356
X75.644Y-117.644
X75.644Y-121.356
X77.5Y-54.875
X77.5Y-60.125
X77.5Y-116.875
X77.5Y-122.125
X79.356Y-55.644
X79.356Y-59.356
X79.356Y-117.644
X79.356Y-121.356
X80.125Y-57.5
X80.125Y-119.5
X181.875Y-57.5
X181.875Y-119.5
X182.644Y-55.644
X182.644Y-59.356
X182.644Y-117.644
X182.644Y-121.356
X184.5Y-54.875
X184.5Y-60.125
X184.5Y-116.875
X184.5Y-122.125
X186.356Y-55.644
X186.356Y-59.356
X186.356Y-117.644
X186.356Y-121.356
X187.125Y-57.5
X187.125Y-119.5
T4
X80.55Y-85.46
X80.55Y-88.23
X80.55Y-91.0
X83.39Y-86.845
X83.445Y-89.615
X107.56Y-60.55
X107.56Y-116.2
X108.945Y-63.445
X108.945Y-113.36
X110.33Y-60.55
X110.33Y-116.2
X111.715Y-63.39
X111.715Y-113.305
X113.1Y-60.55
X113.1Y-116.2
X148.758Y-60.55
X148.96Y-116.2
X150.143Y-63.445
X150.345Y-113.36
X151.528Y-60.55
X151.73Y-116.2
X152.913Y-63.39
X153.115Y-113.305
X154.298Y-60.55
X154.5Y-116.2
X178.605Y-86.645
X178.66Y-89.415
X181.5Y-85.26
X181.5Y-88.03
X181.5Y-90.8
T5
X82.75Y-71.595
X82.75Y-104.895
X93.665Y-62.75
X93.695Y-114.0
X126.965Y-62.75
X126.995Y-114.0
X134.863Y-62.75
X135.095Y-114.0
X168.163Y-62.75
X168.395Y-114.0
X179.3Y-71.365
X179.3Y-104.665
T6
X77.5Y-57.5
X77.5Y-119.5
X184.5Y-57.5
X184.5Y-119.5
T7
X83.35Y-81.358
X83.35Y-95.078
X103.458Y-113.4
X103.482Y-63.35
X117.178Y-113.4
X117.202Y-63.35
X144.68Y-63.35
X144.858Y-113.4
X158.4Y-63.35
X158.578Y-113.4
X178.7Y-81.182
X178.7Y-94.902
M30
