%TF.GenerationSoftware,KiCad,Pcbnew,8.0.3*%
%TF.CreationDate,2024-11-13T10:17:17-07:00*%
%TF.ProjectId,EcoCar Canbus V4,45636f43-6172-4204-9361-6e6275732056,rev?*%
%TF.SameCoordinates,Original*%
%TF.FileFunction,Soldermask,Top*%
%TF.FilePolarity,Negative*%
%FSLAX46Y46*%
G04 Gerber Fmt 4.6, Leading zero omitted, Abs format (unit mm)*
G04 Created by KiCad (PCBNEW 8.0.3) date 2024-11-13 10:17:17*
%MOMM*%
%LPD*%
G01*
G04 APERTURE LIST*
G04 Aperture macros list*
%AMRoundRect*
0 Rectangle with rounded corners*
0 $1 Rounding radius*
0 $2 $3 $4 $5 $6 $7 $8 $9 X,Y pos of 4 corners*
0 Add a 4 corners polygon primitive as box body*
4,1,4,$2,$3,$4,$5,$6,$7,$8,$9,$2,$3,0*
0 Add four circle primitives for the rounded corners*
1,1,$1+$1,$2,$3*
1,1,$1+$1,$4,$5*
1,1,$1+$1,$6,$7*
1,1,$1+$1,$8,$9*
0 Add four rect primitives between the rounded corners*
20,1,$1+$1,$2,$3,$4,$5,0*
20,1,$1+$1,$4,$5,$6,$7,0*
20,1,$1+$1,$6,$7,$8,$9,0*
20,1,$1+$1,$8,$9,$2,$3,0*%
G04 Aperture macros list end*
%ADD10C,0.800000*%
%ADD11C,7.000000*%
%ADD12C,4.500000*%
%ADD13O,1.500000X2.000000*%
%ADD14C,6.000000*%
%ADD15O,2.000000X1.500000*%
%ADD16RoundRect,0.200000X-0.275000X0.200000X-0.275000X-0.200000X0.275000X-0.200000X0.275000X0.200000X0*%
G04 APERTURE END LIST*
D10*
%TO.C,REF\u002A\u002A*%
X74875000Y-119500000D03*
X75643845Y-117643845D03*
X75643845Y-121356155D03*
X77500000Y-116875000D03*
D11*
X77500000Y-119500000D03*
D10*
X77500000Y-122125000D03*
X79356155Y-117643845D03*
X79356155Y-121356155D03*
X80125000Y-119500000D03*
%TD*%
D12*
%TO.C,J5*%
X135095000Y-114000000D03*
X168395000Y-114000000D03*
D13*
X153115000Y-113305000D03*
X150345000Y-113360000D03*
X154500000Y-116200000D03*
X151730000Y-116200000D03*
X148960000Y-116200000D03*
D14*
X158578000Y-113400000D03*
X144858000Y-113400000D03*
%TD*%
D12*
%TO.C,J6*%
X179300000Y-104665000D03*
X179300000Y-71365000D03*
D15*
X178605000Y-86645000D03*
X178660000Y-89415000D03*
X181500000Y-85260000D03*
X181500000Y-88030000D03*
X181500000Y-90800000D03*
D14*
X178700000Y-81182000D03*
X178700000Y-94902000D03*
%TD*%
D12*
%TO.C,J3*%
X126965000Y-62750000D03*
X93665000Y-62750000D03*
D13*
X108945000Y-63445000D03*
X111715000Y-63390000D03*
X107560000Y-60550000D03*
X110330000Y-60550000D03*
X113100000Y-60550000D03*
D14*
X103482000Y-63350000D03*
X117202000Y-63350000D03*
%TD*%
D10*
%TO.C,REF\u002A\u002A*%
X181875000Y-57500000D03*
X182643845Y-55643845D03*
X182643845Y-59356155D03*
X184500000Y-54875000D03*
D11*
X184500000Y-57500000D03*
D10*
X184500000Y-60125000D03*
X186356155Y-55643845D03*
X186356155Y-59356155D03*
X187125000Y-57500000D03*
%TD*%
D12*
%TO.C,J4*%
X168163000Y-62750000D03*
X134863000Y-62750000D03*
D13*
X150143000Y-63445000D03*
X152913000Y-63390000D03*
X148758000Y-60550000D03*
X151528000Y-60550000D03*
X154298000Y-60550000D03*
D14*
X144680000Y-63350000D03*
X158400000Y-63350000D03*
%TD*%
D10*
%TO.C,REF\u002A\u002A*%
X74875000Y-57500000D03*
X75643845Y-55643845D03*
X75643845Y-59356155D03*
X77500000Y-54875000D03*
D11*
X77500000Y-57500000D03*
D10*
X77500000Y-60125000D03*
X79356155Y-55643845D03*
X79356155Y-59356155D03*
X80125000Y-57500000D03*
%TD*%
%TO.C,REF\u002A\u002A*%
X181875000Y-119500000D03*
X182643845Y-117643845D03*
X182643845Y-121356155D03*
X184500000Y-116875000D03*
D11*
X184500000Y-119500000D03*
D10*
X184500000Y-122125000D03*
X186356155Y-117643845D03*
X186356155Y-121356155D03*
X187125000Y-119500000D03*
%TD*%
D12*
%TO.C,J2*%
X93695000Y-114000000D03*
X126995000Y-114000000D03*
D13*
X111715000Y-113305000D03*
X108945000Y-113360000D03*
X113100000Y-116200000D03*
X110330000Y-116200000D03*
X107560000Y-116200000D03*
D14*
X117178000Y-113400000D03*
X103458000Y-113400000D03*
%TD*%
D15*
%TO.C,J1*%
X83390000Y-86845000D03*
X83445000Y-89615000D03*
X80550000Y-85460000D03*
X80550000Y-88230000D03*
X80550000Y-91000000D03*
D12*
X82750000Y-71595000D03*
X82750000Y-104895000D03*
D14*
X83350000Y-81358000D03*
X83350000Y-95078000D03*
%TD*%
D16*
%TO.C,R2*%
X170400000Y-89775000D03*
X170400000Y-91425000D03*
%TD*%
M02*
