%TF.GenerationSoftware,KiCad,Pcbnew,8.0.3*%
%TF.CreationDate,2024-11-13T10:17:17-07:00*%
%TF.ProjectId,EcoCar Canbus V4,45636f43-6172-4204-9361-6e6275732056,rev?*%
%TF.SameCoordinates,Original*%
%TF.FileFunction,Copper,L1,Top*%
%TF.FilePolarity,Positive*%
%FSLAX46Y46*%
G04 Gerber Fmt 4.6, Leading zero omitted, Abs format (unit mm)*
G04 Created by KiCad (PCBNEW 8.0.3) date 2024-11-13 10:17:17*
%MOMM*%
%LPD*%
G01*
G04 APERTURE LIST*
G04 Aperture macros list*
%AMRoundRect*
0 Rectangle with rounded corners*
0 $1 Rounding radius*
0 $2 $3 $4 $5 $6 $7 $8 $9 X,Y pos of 4 corners*
0 Add a 4 corners polygon primitive as box body*
4,1,4,$2,$3,$4,$5,$6,$7,$8,$9,$2,$3,0*
0 Add four circle primitives for the rounded corners*
1,1,$1+$1,$2,$3*
1,1,$1+$1,$4,$5*
1,1,$1+$1,$6,$7*
1,1,$1+$1,$8,$9*
0 Add four rect primitives between the rounded corners*
20,1,$1+$1,$2,$3,$4,$5,0*
20,1,$1+$1,$4,$5,$6,$7,0*
20,1,$1+$1,$6,$7,$8,$9,0*
20,1,$1+$1,$8,$9,$2,$3,0*%
G04 Aperture macros list end*
%TA.AperFunction,ComponentPad*%
%ADD10C,0.800000*%
%TD*%
%TA.AperFunction,ComponentPad*%
%ADD11C,7.000000*%
%TD*%
%TA.AperFunction,ComponentPad*%
%ADD12C,4.500000*%
%TD*%
%TA.AperFunction,ComponentPad*%
%ADD13O,1.500000X2.000000*%
%TD*%
%TA.AperFunction,ComponentPad*%
%ADD14C,6.000000*%
%TD*%
%TA.AperFunction,ComponentPad*%
%ADD15O,2.000000X1.500000*%
%TD*%
%TA.AperFunction,SMDPad,CuDef*%
%ADD16RoundRect,0.200000X-0.275000X0.200000X-0.275000X-0.200000X0.275000X-0.200000X0.275000X0.200000X0*%
%TD*%
%TA.AperFunction,ViaPad*%
%ADD17C,0.600000*%
%TD*%
%TA.AperFunction,ViaPad*%
%ADD18C,0.800000*%
%TD*%
%TA.AperFunction,Conductor*%
%ADD19C,0.200000*%
%TD*%
G04 APERTURE END LIST*
D10*
%TO.P,REF\u002A\u002A,1*%
%TO.N,N/C*%
X74875000Y-119500000D03*
X75643845Y-117643845D03*
X75643845Y-121356155D03*
X77500000Y-116875000D03*
D11*
X77500000Y-119500000D03*
D10*
X77500000Y-122125000D03*
X79356155Y-117643845D03*
X79356155Y-121356155D03*
X80125000Y-119500000D03*
%TD*%
D12*
%TO.P,J5,*%
%TO.N,*%
X135095000Y-114000000D03*
X168395000Y-114000000D03*
D13*
%TO.P,J5,1*%
%TO.N,12V*%
X153115000Y-113305000D03*
%TO.P,J5,2*%
%TO.N,CAN+*%
X150345000Y-113360000D03*
%TO.P,J5,3*%
%TO.N,12V*%
X154500000Y-116200000D03*
%TO.P,J5,4*%
X151730000Y-116200000D03*
%TO.P,J5,5*%
%TO.N,CAN-*%
X148960000Y-116200000D03*
D14*
%TO.P,J5,8,A1*%
%TO.N,7V*%
X158578000Y-113400000D03*
%TO.P,J5,9,A2*%
%TO.N,GND*%
X144858000Y-113400000D03*
%TD*%
D12*
%TO.P,J6,*%
%TO.N,*%
X179300000Y-104665000D03*
X179300000Y-71365000D03*
D15*
%TO.P,J6,1*%
%TO.N,12V*%
X178605000Y-86645000D03*
%TO.P,J6,2*%
%TO.N,CAN+*%
X178660000Y-89415000D03*
%TO.P,J6,3*%
%TO.N,12V*%
X181500000Y-85260000D03*
%TO.P,J6,4*%
X181500000Y-88030000D03*
%TO.P,J6,5*%
%TO.N,CAN-*%
X181500000Y-90800000D03*
D14*
%TO.P,J6,8,A1*%
%TO.N,7V*%
X178700000Y-81182000D03*
%TO.P,J6,9,A2*%
%TO.N,GND*%
X178700000Y-94902000D03*
%TD*%
D12*
%TO.P,J3,*%
%TO.N,*%
X126965000Y-62750000D03*
X93665000Y-62750000D03*
D13*
%TO.P,J3,1*%
%TO.N,12V*%
X108945000Y-63445000D03*
%TO.P,J3,2*%
%TO.N,CAN+*%
X111715000Y-63390000D03*
%TO.P,J3,3*%
%TO.N,12V*%
X107560000Y-60550000D03*
%TO.P,J3,4*%
X110330000Y-60550000D03*
%TO.P,J3,5*%
%TO.N,CAN-*%
X113100000Y-60550000D03*
D14*
%TO.P,J3,8,A1*%
%TO.N,7V*%
X103482000Y-63350000D03*
%TO.P,J3,9,A2*%
%TO.N,GND*%
X117202000Y-63350000D03*
%TD*%
D10*
%TO.P,REF\u002A\u002A,1*%
%TO.N,N/C*%
X181875000Y-57500000D03*
X182643845Y-55643845D03*
X182643845Y-59356155D03*
X184500000Y-54875000D03*
D11*
X184500000Y-57500000D03*
D10*
X184500000Y-60125000D03*
X186356155Y-55643845D03*
X186356155Y-59356155D03*
X187125000Y-57500000D03*
%TD*%
D12*
%TO.P,J4,*%
%TO.N,*%
X168163000Y-62750000D03*
X134863000Y-62750000D03*
D13*
%TO.P,J4,1*%
%TO.N,12V*%
X150143000Y-63445000D03*
%TO.P,J4,2*%
%TO.N,CAN+*%
X152913000Y-63390000D03*
%TO.P,J4,3*%
%TO.N,12V*%
X148758000Y-60550000D03*
%TO.P,J4,4*%
X151528000Y-60550000D03*
%TO.P,J4,5*%
%TO.N,CAN-*%
X154298000Y-60550000D03*
D14*
%TO.P,J4,8,A1*%
%TO.N,7V*%
X144680000Y-63350000D03*
%TO.P,J4,9,A2*%
%TO.N,GND*%
X158400000Y-63350000D03*
%TD*%
D10*
%TO.P,REF\u002A\u002A,1*%
%TO.N,N/C*%
X74875000Y-57500000D03*
X75643845Y-55643845D03*
X75643845Y-59356155D03*
X77500000Y-54875000D03*
D11*
X77500000Y-57500000D03*
D10*
X77500000Y-60125000D03*
X79356155Y-55643845D03*
X79356155Y-59356155D03*
X80125000Y-57500000D03*
%TD*%
%TO.P,REF\u002A\u002A,1*%
%TO.N,N/C*%
X181875000Y-119500000D03*
X182643845Y-117643845D03*
X182643845Y-121356155D03*
X184500000Y-116875000D03*
D11*
X184500000Y-119500000D03*
D10*
X184500000Y-122125000D03*
X186356155Y-117643845D03*
X186356155Y-121356155D03*
X187125000Y-119500000D03*
%TD*%
D12*
%TO.P,J2,*%
%TO.N,*%
X93695000Y-114000000D03*
X126995000Y-114000000D03*
D13*
%TO.P,J2,1*%
%TO.N,12V*%
X111715000Y-113305000D03*
%TO.P,J2,2*%
%TO.N,CAN+*%
X108945000Y-113360000D03*
%TO.P,J2,3*%
%TO.N,12V*%
X113100000Y-116200000D03*
%TO.P,J2,4*%
X110330000Y-116200000D03*
%TO.P,J2,5*%
%TO.N,CAN-*%
X107560000Y-116200000D03*
D14*
%TO.P,J2,8,A1*%
%TO.N,7V*%
X117178000Y-113400000D03*
%TO.P,J2,9,A2*%
%TO.N,GND*%
X103458000Y-113400000D03*
%TD*%
D15*
%TO.P,J1,1*%
%TO.N,CAN+*%
X83390000Y-86845000D03*
%TO.P,J1,2*%
%TO.N,12V*%
X83445000Y-89615000D03*
%TO.P,J1,3*%
%TO.N,CAN-*%
X80550000Y-85460000D03*
%TO.P,J1,4*%
%TO.N,12V*%
X80550000Y-88230000D03*
%TO.P,J1,5*%
X80550000Y-91000000D03*
D12*
%TO.P,J1,8*%
%TO.N,N/C*%
X82750000Y-71595000D03*
X82750000Y-104895000D03*
D14*
%TO.P,J1,A1*%
%TO.N,7V*%
X83350000Y-81358000D03*
%TO.P,J1,A2*%
%TO.N,GND*%
X83350000Y-95078000D03*
%TD*%
D16*
%TO.P,R2,1*%
%TO.N,CAN+*%
X170400000Y-89775000D03*
%TO.P,R2,2*%
%TO.N,CAN-*%
X170400000Y-91425000D03*
%TD*%
D17*
%TO.N,CAN-*%
X113100000Y-89200000D03*
X154300000Y-91100000D03*
X154300000Y-89100000D03*
X113100000Y-91100000D03*
D18*
%TO.N,GND*%
X102485716Y-107836000D03*
X97405716Y-77356000D03*
X122805716Y-115456000D03*
X97405716Y-112916000D03*
X132965716Y-110376000D03*
X125345716Y-100216000D03*
X176145716Y-54496000D03*
X122805716Y-62116000D03*
X138045716Y-123076000D03*
X188845716Y-77356000D03*
X122805716Y-123076000D03*
X168525716Y-72276000D03*
X138045716Y-102756000D03*
X94865716Y-77356000D03*
X92325716Y-92596000D03*
X115185716Y-67196000D03*
X77085716Y-79896000D03*
X87245716Y-64656000D03*
X173605716Y-72276000D03*
X132965716Y-100216000D03*
X173605716Y-77356000D03*
X138045716Y-67196000D03*
X168525716Y-107836000D03*
X163445716Y-107836000D03*
X150745716Y-107836000D03*
X176145716Y-69736000D03*
X188845716Y-79896000D03*
X168525716Y-69736000D03*
X82165716Y-54496000D03*
X143125716Y-105296000D03*
X77085716Y-74816000D03*
X105025716Y-105296000D03*
X158365716Y-69736000D03*
X188845716Y-123076000D03*
X176145716Y-110376000D03*
X165985716Y-95136000D03*
X138045716Y-105296000D03*
X132965716Y-59576000D03*
X140585716Y-95136000D03*
X140585716Y-64656000D03*
X188845716Y-74816000D03*
X132965716Y-87516000D03*
X125345716Y-123076000D03*
X105025716Y-87516000D03*
X173605716Y-64656000D03*
X122805716Y-100216000D03*
X89785716Y-74816000D03*
X132965716Y-95136000D03*
X122805716Y-87516000D03*
X130425716Y-97676000D03*
X122805716Y-72276000D03*
X89785716Y-62116000D03*
X138045716Y-97676000D03*
X165985716Y-67196000D03*
X132965716Y-92596000D03*
X145665716Y-92596000D03*
X135505716Y-59576000D03*
X173605716Y-107836000D03*
X130425716Y-102756000D03*
X110105716Y-110376000D03*
X117725716Y-72276000D03*
X125345716Y-74816000D03*
X74545716Y-72276000D03*
X115185716Y-77356000D03*
X112645716Y-123076000D03*
X186305716Y-62116000D03*
X97405716Y-62116000D03*
X163445716Y-64656000D03*
X87245716Y-112916000D03*
X188845716Y-97676000D03*
X165985716Y-123076000D03*
X168525716Y-123076000D03*
X168525716Y-97676000D03*
X97405716Y-74816000D03*
X155825716Y-72276000D03*
X99945716Y-123076000D03*
X188845716Y-112916000D03*
X163445716Y-62116000D03*
X84705716Y-62116000D03*
X105025716Y-102756000D03*
X145665716Y-95136000D03*
X181225716Y-74816000D03*
X84705716Y-64656000D03*
X165985716Y-92596000D03*
X120265716Y-69736000D03*
X140585716Y-62116000D03*
X87245716Y-110376000D03*
X94865716Y-102756000D03*
X176145716Y-87516000D03*
X77085716Y-62116000D03*
X140585716Y-74816000D03*
X135505716Y-123076000D03*
X99945716Y-54496000D03*
X171065716Y-97676000D03*
X84705716Y-100216000D03*
X92325716Y-123076000D03*
X158365716Y-72276000D03*
X102485716Y-57036000D03*
X155825716Y-77356000D03*
X153285716Y-95136000D03*
X130425716Y-62116000D03*
X150745716Y-123076000D03*
X92325716Y-100216000D03*
X171065716Y-102756000D03*
X125345716Y-110376000D03*
X130425716Y-95136000D03*
X127885716Y-74816000D03*
X99945716Y-87516000D03*
X158365716Y-77356000D03*
X102485716Y-95136000D03*
X79625716Y-100216000D03*
X135505716Y-95136000D03*
X132965716Y-72276000D03*
X94865716Y-107836000D03*
X145665716Y-97676000D03*
X97405716Y-102756000D03*
X145665716Y-123076000D03*
X87245716Y-62116000D03*
X178685716Y-54496000D03*
X165985716Y-105296000D03*
X130425716Y-107836000D03*
X120265716Y-59576000D03*
X97405716Y-87516000D03*
X140585716Y-92596000D03*
X130425716Y-64656000D03*
X89785716Y-97676000D03*
X168525716Y-110376000D03*
X84705716Y-67196000D03*
X122805716Y-112916000D03*
X125345716Y-92596000D03*
X122805716Y-110376000D03*
X79625716Y-67196000D03*
X105025716Y-54496000D03*
X138045716Y-62116000D03*
X130425716Y-87516000D03*
X102485716Y-123076000D03*
X138045716Y-110376000D03*
X82165716Y-123076000D03*
X163445716Y-59576000D03*
X102485716Y-92596000D03*
X74545716Y-79896000D03*
X74545716Y-64656000D03*
X165985716Y-74816000D03*
X138045716Y-59576000D03*
X110105716Y-77356000D03*
X178685716Y-120536000D03*
X163445716Y-123076000D03*
X102485716Y-105296000D03*
X89785716Y-100216000D03*
X143125716Y-107836000D03*
X107565716Y-123076000D03*
X94865716Y-67196000D03*
X188845716Y-95136000D03*
X135505716Y-97676000D03*
X89785716Y-92596000D03*
X117725716Y-69736000D03*
X89785716Y-102756000D03*
X92325716Y-105296000D03*
X160905716Y-67196000D03*
X145665716Y-105296000D03*
X150745716Y-102756000D03*
X127885716Y-72276000D03*
X138045716Y-92596000D03*
X163445716Y-105296000D03*
X130425716Y-115456000D03*
X188845716Y-110376000D03*
X163445716Y-74816000D03*
X87245716Y-57036000D03*
X115185716Y-59576000D03*
X115185716Y-72276000D03*
X94865716Y-92596000D03*
X135505716Y-87516000D03*
X97405716Y-115456000D03*
X94865716Y-74816000D03*
X102485716Y-102756000D03*
X97405716Y-95136000D03*
X74545716Y-97676000D03*
X107565716Y-69736000D03*
X186305716Y-64656000D03*
X89785716Y-77356000D03*
X173605716Y-95136000D03*
X107565716Y-87516000D03*
X140585716Y-77356000D03*
X127885716Y-92596000D03*
X130425716Y-112916000D03*
X77085716Y-82436000D03*
X74545716Y-100216000D03*
X145665716Y-100216000D03*
X125345716Y-67196000D03*
X99945716Y-95136000D03*
X140585716Y-107836000D03*
X92325716Y-67196000D03*
X125345716Y-95136000D03*
X105025716Y-57036000D03*
X79625716Y-77356000D03*
X150745716Y-110376000D03*
X127885716Y-100216000D03*
X160905716Y-69736000D03*
X150745716Y-77356000D03*
X125345716Y-105296000D03*
X94865716Y-95136000D03*
X110105716Y-69736000D03*
X77085716Y-72276000D03*
X168525716Y-67196000D03*
X135505716Y-110376000D03*
X160905716Y-59576000D03*
X130425716Y-72276000D03*
X140585716Y-105296000D03*
X82165716Y-57036000D03*
X140585716Y-97676000D03*
X112645716Y-100216000D03*
X173605716Y-105296000D03*
X155825716Y-123076000D03*
X110105716Y-95136000D03*
X138045716Y-95136000D03*
X102485716Y-87516000D03*
X89785716Y-67196000D03*
X135505716Y-69736000D03*
X127885716Y-69736000D03*
X89785716Y-72276000D03*
X122805716Y-64656000D03*
X132965716Y-74816000D03*
X82165716Y-67196000D03*
X132965716Y-97676000D03*
X143125716Y-92596000D03*
X107565716Y-74816000D03*
X84705716Y-110376000D03*
X110105716Y-74816000D03*
X99945716Y-57036000D03*
X84705716Y-107836000D03*
X125345716Y-87516000D03*
X122805716Y-107836000D03*
X138045716Y-72276000D03*
X107565716Y-72276000D03*
X165985716Y-110376000D03*
X171065716Y-95136000D03*
X173605716Y-74816000D03*
X160905716Y-72276000D03*
X160905716Y-74816000D03*
X153285716Y-102756000D03*
X130425716Y-100216000D03*
X92325716Y-95136000D03*
X89785716Y-57036000D03*
X127885716Y-59576000D03*
X163445716Y-102756000D03*
X173605716Y-97676000D03*
X94865716Y-69736000D03*
X74545716Y-107836000D03*
X89785716Y-115456000D03*
X74545716Y-74816000D03*
X97405716Y-69736000D03*
X122805716Y-74816000D03*
X74545716Y-102756000D03*
X176145716Y-107836000D03*
X74545716Y-95136000D03*
X99945716Y-97676000D03*
X158365716Y-74816000D03*
X140585716Y-87516000D03*
X138045716Y-87516000D03*
X110105716Y-107836000D03*
X165985716Y-107836000D03*
X122805716Y-105296000D03*
X188845716Y-54496000D03*
X176145716Y-102756000D03*
X89785716Y-95136000D03*
X125345716Y-97676000D03*
X82165716Y-120536000D03*
X74545716Y-92596000D03*
X74545716Y-105296000D03*
X143125716Y-95136000D03*
X188845716Y-87516000D03*
X165985716Y-100216000D03*
X110105716Y-105296000D03*
X168525716Y-87516000D03*
X122805716Y-59576000D03*
X150745716Y-95136000D03*
X173605716Y-123076000D03*
X127885716Y-87516000D03*
X122805716Y-69736000D03*
X92325716Y-72276000D03*
X105025716Y-107836000D03*
X188845716Y-92596000D03*
X127885716Y-67196000D03*
X130425716Y-110376000D03*
X140585716Y-72276000D03*
X105025716Y-123076000D03*
X87245716Y-72276000D03*
X132965716Y-107836000D03*
X82165716Y-100216000D03*
X87245716Y-102756000D03*
X130425716Y-92596000D03*
X94865716Y-105296000D03*
X135505716Y-100216000D03*
X135505716Y-105296000D03*
X74545716Y-62116000D03*
X97405716Y-100216000D03*
X92325716Y-107836000D03*
X112645716Y-95136000D03*
X163445716Y-77356000D03*
X97405716Y-54496000D03*
X135505716Y-102756000D03*
X140585716Y-69736000D03*
X105025716Y-100216000D03*
X150745716Y-67196000D03*
X145665716Y-87516000D03*
X117725716Y-123076000D03*
X135505716Y-77356000D03*
X84705716Y-59576000D03*
X125345716Y-77356000D03*
X99945716Y-105296000D03*
X130425716Y-77356000D03*
X150745716Y-97676000D03*
X138045716Y-69736000D03*
X171065716Y-67196000D03*
X127885716Y-123076000D03*
X94865716Y-59576000D03*
X84705716Y-74816000D03*
X102485716Y-100216000D03*
X160905716Y-77356000D03*
X188845716Y-102756000D03*
X112645716Y-102756000D03*
X155825716Y-67196000D03*
X178685716Y-107836000D03*
X97405716Y-57036000D03*
X188845716Y-100216000D03*
X105025716Y-95136000D03*
X74545716Y-112916000D03*
X188845716Y-67196000D03*
X89785716Y-54496000D03*
X92325716Y-74816000D03*
X176145716Y-123076000D03*
X127885716Y-110376000D03*
X173605716Y-102756000D03*
X117725716Y-77356000D03*
X120265716Y-77356000D03*
X110105716Y-72276000D03*
X74545716Y-67196000D03*
X87245716Y-105296000D03*
X107565716Y-67196000D03*
X188845716Y-62116000D03*
X110105716Y-92596000D03*
X168525716Y-100216000D03*
X94865716Y-123076000D03*
X127885716Y-95136000D03*
X92325716Y-59576000D03*
X176145716Y-100216000D03*
X122805716Y-77356000D03*
X143125716Y-102756000D03*
X140585716Y-59576000D03*
X165985716Y-87516000D03*
X82165716Y-59576000D03*
X84705716Y-77356000D03*
X94865716Y-87516000D03*
X82165716Y-77356000D03*
X127885716Y-105296000D03*
X89785716Y-107836000D03*
X143125716Y-123076000D03*
X171065716Y-74816000D03*
X127885716Y-107836000D03*
X87245716Y-92596000D03*
X87245716Y-97676000D03*
X110105716Y-100216000D03*
X171065716Y-105296000D03*
X163445716Y-87516000D03*
X153285716Y-97676000D03*
X188845716Y-105296000D03*
X132965716Y-105296000D03*
X188845716Y-84976000D03*
X150745716Y-105296000D03*
X140585716Y-123076000D03*
X171065716Y-123076000D03*
X87245716Y-123076000D03*
X79625716Y-64656000D03*
X107565716Y-77356000D03*
X110105716Y-87516000D03*
X176145716Y-74816000D03*
X97405716Y-72276000D03*
X74545716Y-84976000D03*
X74545716Y-110376000D03*
X115185716Y-74816000D03*
X87245716Y-74816000D03*
X132965716Y-102756000D03*
X99945716Y-107836000D03*
X140585716Y-67196000D03*
X92325716Y-102756000D03*
X97405716Y-59576000D03*
X143125716Y-97676000D03*
X163445716Y-95136000D03*
X97405716Y-92596000D03*
X143125716Y-87516000D03*
X181225716Y-100216000D03*
X163445716Y-72276000D03*
X171065716Y-107836000D03*
X87245716Y-69736000D03*
X163445716Y-69736000D03*
X127885716Y-97676000D03*
X178685716Y-57036000D03*
X176145716Y-105296000D03*
X87245716Y-67196000D03*
X163445716Y-112916000D03*
X120265716Y-72276000D03*
X168525716Y-95136000D03*
X99945716Y-102756000D03*
X165985716Y-69736000D03*
X173605716Y-92596000D03*
X79625716Y-102756000D03*
X140585716Y-100216000D03*
X82165716Y-64656000D03*
X87245716Y-107836000D03*
X160905716Y-123076000D03*
X89785716Y-105296000D03*
X188845716Y-115456000D03*
X99945716Y-92596000D03*
X165985716Y-77356000D03*
X140585716Y-102756000D03*
X120265716Y-67196000D03*
X155825716Y-69736000D03*
X163445716Y-67196000D03*
X84705716Y-57036000D03*
X165985716Y-97676000D03*
X89785716Y-69736000D03*
X173605716Y-87516000D03*
X77085716Y-64656000D03*
X150745716Y-72276000D03*
X168525716Y-102756000D03*
X171065716Y-87516000D03*
X130425716Y-69736000D03*
X178685716Y-123076000D03*
X97405716Y-67196000D03*
X148205716Y-123076000D03*
X105025716Y-92596000D03*
X173605716Y-67196000D03*
X132965716Y-77356000D03*
X132965716Y-69736000D03*
X163445716Y-115456000D03*
X188845716Y-107836000D03*
X117725716Y-74816000D03*
X110105716Y-123076000D03*
X130425716Y-105296000D03*
X138045716Y-107836000D03*
X125345716Y-72276000D03*
X163445716Y-92596000D03*
X77085716Y-77356000D03*
X97405716Y-123076000D03*
X92325716Y-77356000D03*
X135505716Y-67196000D03*
X143125716Y-100216000D03*
X176145716Y-67196000D03*
X168525716Y-74816000D03*
X188845716Y-90056000D03*
X97405716Y-105296000D03*
X150745716Y-87516000D03*
X74545716Y-77356000D03*
X82165716Y-62116000D03*
X122805716Y-97676000D03*
X122805716Y-102756000D03*
X138045716Y-64656000D03*
X74545716Y-82436000D03*
X84705716Y-123076000D03*
X163445716Y-110376000D03*
X125345716Y-69736000D03*
X102485716Y-97676000D03*
X132965716Y-123076000D03*
X92325716Y-57036000D03*
X94865716Y-110376000D03*
X115185716Y-123076000D03*
X112645716Y-107836000D03*
X171065716Y-77356000D03*
X186305716Y-112916000D03*
X97405716Y-97676000D03*
X153285716Y-100216000D03*
X153285716Y-105296000D03*
X74545716Y-115456000D03*
X173605716Y-110376000D03*
X87245716Y-100216000D03*
X150745716Y-74816000D03*
X140585716Y-112916000D03*
X105025716Y-97676000D03*
X122805716Y-67196000D03*
X94865716Y-57036000D03*
X110105716Y-102756000D03*
X168525716Y-77356000D03*
X178685716Y-100216000D03*
X89785716Y-59576000D03*
X135505716Y-74816000D03*
X130425716Y-67196000D03*
X92325716Y-87516000D03*
X99945716Y-110376000D03*
X163445716Y-100216000D03*
X125345716Y-107836000D03*
X140585716Y-115456000D03*
X138045716Y-100216000D03*
X115185716Y-69736000D03*
X127885716Y-77356000D03*
X74545716Y-69736000D03*
X158365716Y-123076000D03*
X176145716Y-72276000D03*
X163445716Y-97676000D03*
X171065716Y-69736000D03*
X110105716Y-97676000D03*
X79625716Y-69736000D03*
X92325716Y-54496000D03*
X171065716Y-72276000D03*
X188845716Y-72276000D03*
X165985716Y-102756000D03*
X74545716Y-87516000D03*
X165985716Y-72276000D03*
X173605716Y-69736000D03*
X130425716Y-59576000D03*
X181225716Y-123076000D03*
X148205716Y-87516000D03*
X94865716Y-97676000D03*
X155825716Y-74816000D03*
X112645716Y-105296000D03*
X140585716Y-110376000D03*
X97405716Y-107836000D03*
X97405716Y-110376000D03*
X138045716Y-77356000D03*
X153285716Y-123076000D03*
X87245716Y-59576000D03*
X188845716Y-64656000D03*
X77085716Y-67196000D03*
X92325716Y-110376000D03*
X178685716Y-74816000D03*
X120265716Y-123076000D03*
X145665716Y-107836000D03*
X92325716Y-97676000D03*
X84705716Y-54496000D03*
X112645716Y-110376000D03*
X112645716Y-97676000D03*
X130425716Y-123076000D03*
X89785716Y-123076000D03*
X89785716Y-110376000D03*
X79625716Y-97676000D03*
X77085716Y-69736000D03*
X135505716Y-92596000D03*
X122805716Y-92596000D03*
X102485716Y-54496000D03*
X87245716Y-77356000D03*
X188845716Y-69736000D03*
X122805716Y-95136000D03*
X94865716Y-72276000D03*
X135505716Y-72276000D03*
X188845716Y-117996000D03*
X89785716Y-112916000D03*
X125345716Y-102756000D03*
X79625716Y-62116000D03*
X153285716Y-107836000D03*
X94865716Y-100216000D03*
X168525716Y-105296000D03*
X145665716Y-102756000D03*
X135505716Y-107836000D03*
X125345716Y-59576000D03*
X173605716Y-100216000D03*
X168525716Y-59576000D03*
X138045716Y-74816000D03*
X92325716Y-69736000D03*
X97405716Y-64656000D03*
X171065716Y-110376000D03*
X120265716Y-74816000D03*
X165985716Y-59576000D03*
X130425716Y-74816000D03*
X150745716Y-100216000D03*
X82165716Y-74816000D03*
X74545716Y-90056000D03*
X79625716Y-74816000D03*
X110105716Y-67196000D03*
X168525716Y-92596000D03*
X173605716Y-112916000D03*
X99945716Y-100216000D03*
X171065716Y-100216000D03*
X183765716Y-62116000D03*
X127885716Y-102756000D03*
X94865716Y-54496000D03*
X87245716Y-54496000D03*
X150745716Y-69736000D03*
X188845716Y-82436000D03*
X153285716Y-110376000D03*
X188845716Y-59576000D03*
X89785716Y-64656000D03*
X132965716Y-67196000D03*
D17*
%TO.N,CAN+*%
X149800000Y-90375000D03*
X108500000Y-90375000D03*
X149800000Y-91800000D03*
X108500000Y-91900000D03*
%TD*%
D19*
%TO.N,CAN-*%
X170075000Y-91100000D02*
X170400000Y-91425000D01*
X107560000Y-91160000D02*
X107500000Y-91100000D01*
X154298000Y-60550000D02*
X154298000Y-89098000D01*
X107500000Y-91100000D02*
X108200000Y-91100000D01*
X113100000Y-60550000D02*
X113100000Y-89200000D01*
X154300000Y-89100000D02*
X154298000Y-89098000D01*
X181500000Y-90800000D02*
X178978199Y-90800000D01*
X178978199Y-90800000D02*
X178353199Y-91425000D01*
X154300000Y-91100000D02*
X170075000Y-91100000D01*
X86934314Y-87900000D02*
X90134314Y-91100000D01*
X113100000Y-91100000D02*
X154300000Y-91100000D01*
X178353199Y-91425000D02*
X170400000Y-91425000D01*
X148960000Y-116200000D02*
X148960000Y-91100000D01*
X154298000Y-89098000D02*
X154298000Y-88900000D01*
X108200000Y-91100000D02*
X113100000Y-91100000D01*
X90134314Y-91100000D02*
X107500000Y-91100000D01*
X82500000Y-87900000D02*
X86934314Y-87900000D01*
X80550000Y-85460000D02*
X80550000Y-85950000D01*
X80550000Y-85950000D02*
X82500000Y-87900000D01*
X107560000Y-116200000D02*
X107560000Y-91160000D01*
%TO.N,CAN+*%
X149800000Y-90375000D02*
X169800000Y-90375000D01*
X112649999Y-68569252D02*
X112649999Y-70041235D01*
X149410001Y-112425001D02*
X150345000Y-113360000D01*
X153847999Y-64324999D02*
X153847999Y-64916733D01*
X108500000Y-90375000D02*
X111475000Y-90375000D01*
X89483212Y-89883213D02*
X89568065Y-89968065D01*
X112649999Y-67249252D02*
X112649999Y-67369252D01*
X112649999Y-66049252D02*
X112649999Y-66169252D01*
X178166802Y-90974999D02*
X177683459Y-90974999D01*
X171599999Y-90974999D02*
X170400000Y-89775000D01*
X89734710Y-89292302D02*
X89483212Y-89543801D01*
X177443459Y-90734999D02*
X177443459Y-90343549D01*
X152913000Y-63390000D02*
X153847999Y-64324999D01*
X111914194Y-65809252D02*
X112409999Y-65809252D01*
X111674194Y-66649252D02*
X111674194Y-66769252D01*
X153600000Y-88951471D02*
X153600000Y-90375000D01*
X112409999Y-66409252D02*
X111914194Y-66409252D01*
X178660000Y-90481801D02*
X178166802Y-90974999D01*
X87952781Y-87171004D02*
X88037633Y-87255856D01*
X112649999Y-68449252D02*
X112649999Y-68569252D01*
X111674194Y-67849252D02*
X111674194Y-67969252D01*
X176603459Y-90974999D02*
X176483459Y-90974999D01*
X149800000Y-91800000D02*
X149410001Y-92189999D01*
X112649999Y-70041235D02*
X112649999Y-88801472D01*
X87361893Y-87422482D02*
X87613369Y-87171003D01*
X153105447Y-65396733D02*
X153105447Y-65516733D01*
X149800000Y-90375000D02*
X111525000Y-90375000D01*
X169800000Y-90375000D02*
X170400000Y-89775000D01*
X153847999Y-65996733D02*
X153847999Y-66116733D01*
X88037633Y-87595268D02*
X87786154Y-87846744D01*
X153847999Y-88703472D02*
X153600000Y-88951471D01*
X88801344Y-88019497D02*
X88886196Y-88104349D01*
X112649999Y-88801472D02*
X112400000Y-89051471D01*
X86445000Y-86845000D02*
X87022481Y-87422481D01*
X111674194Y-65449252D02*
X111674194Y-65569252D01*
X89975000Y-90375000D02*
X89899908Y-90299908D01*
X88634683Y-89034684D02*
X88719537Y-89119537D01*
X178660000Y-89415000D02*
X178660000Y-90481801D01*
X87786155Y-88186156D02*
X87871009Y-88271009D01*
X108010001Y-112425001D02*
X108945000Y-113360000D01*
X153345447Y-65756733D02*
X153607999Y-65756733D01*
X108500000Y-90375000D02*
X89975000Y-90375000D01*
X108010001Y-92389999D02*
X108010001Y-112425001D01*
X89568065Y-89968065D02*
X89899908Y-90299908D01*
X149410001Y-92189999D02*
X149410001Y-112425001D01*
X176483459Y-90974999D02*
X175050400Y-90974999D01*
X112649999Y-64324999D02*
X112649999Y-64969252D01*
X112400000Y-89051471D02*
X112400000Y-90375000D01*
X112409999Y-67609252D02*
X111914194Y-67609252D01*
X88886196Y-88443761D02*
X88634682Y-88695272D01*
X112409999Y-65209252D02*
X111914194Y-65209252D01*
X153847999Y-66116733D02*
X153847999Y-66188481D01*
X89058949Y-89119538D02*
X89310446Y-88868038D01*
X176843459Y-90343549D02*
X176843459Y-90734999D01*
X108500000Y-91900000D02*
X108010001Y-92389999D01*
X177203459Y-90103549D02*
X177083459Y-90103549D01*
X153607999Y-65156733D02*
X153345447Y-65156733D01*
X175050400Y-90974999D02*
X171599999Y-90974999D01*
X111715000Y-63390000D02*
X112649999Y-64324999D01*
X111914194Y-68209252D02*
X112409999Y-68209252D01*
X153847999Y-66188481D02*
X153847999Y-88703472D01*
X89649858Y-88868038D02*
X89734710Y-88952890D01*
X88210421Y-88271010D02*
X88461932Y-88019496D01*
X83390000Y-86845000D02*
X86445000Y-86845000D01*
X111914194Y-67009252D02*
X112409999Y-67009252D01*
X153345447Y-65156733D02*
G75*
G03*
X153105433Y-65396733I-47J-239967D01*
G01*
X176843459Y-90734999D02*
G75*
G02*
X176603459Y-90974959I-239959J-1D01*
G01*
X87613369Y-87171003D02*
G75*
G02*
X87952806Y-87170978I169731J-169697D01*
G01*
X111674194Y-65569252D02*
G75*
G03*
X111914194Y-65809306I240006J-48D01*
G01*
X88634682Y-88695272D02*
G75*
G03*
X88634660Y-89034706I169718J-169728D01*
G01*
X111914194Y-67609252D02*
G75*
G03*
X111674152Y-67849252I6J-240048D01*
G01*
X111914194Y-66409252D02*
G75*
G03*
X111674152Y-66649252I6J-240048D01*
G01*
X153105447Y-65516733D02*
G75*
G03*
X153345447Y-65756653I239953J33D01*
G01*
X112649999Y-67369252D02*
G75*
G02*
X112409999Y-67609299I-239999J-48D01*
G01*
X111914194Y-65209252D02*
G75*
G03*
X111674152Y-65449252I6J-240048D01*
G01*
X153607999Y-65756733D02*
G75*
G02*
X153847967Y-65996733I1J-239967D01*
G01*
X87022481Y-87422481D02*
G75*
G03*
X87361906Y-87422495I169719J169681D01*
G01*
X88037633Y-87255856D02*
G75*
G02*
X88037671Y-87595306I-169733J-169744D01*
G01*
X89483212Y-89543801D02*
G75*
G03*
X89483219Y-89883206I169688J-169699D01*
G01*
X112649999Y-64969252D02*
G75*
G02*
X112409999Y-65209299I-239999J-48D01*
G01*
X177443459Y-90343549D02*
G75*
G03*
X177203459Y-90103541I-239959J49D01*
G01*
X88719537Y-89119537D02*
G75*
G03*
X89058906Y-89119495I169663J169737D01*
G01*
X89734710Y-88952890D02*
G75*
G02*
X89734714Y-89292306I-169710J-169710D01*
G01*
X111674194Y-66769252D02*
G75*
G03*
X111914194Y-67009306I240006J-48D01*
G01*
X87786154Y-87846744D02*
G75*
G03*
X87786204Y-88186107I169746J-169656D01*
G01*
X87871009Y-88271009D02*
G75*
G03*
X88210405Y-88270995I169691J169709D01*
G01*
X112409999Y-67009252D02*
G75*
G02*
X112650048Y-67249252I1J-240048D01*
G01*
X112409999Y-65809252D02*
G75*
G02*
X112650048Y-66049252I1J-240048D01*
G01*
X177083459Y-90103549D02*
G75*
G03*
X176843549Y-90343549I41J-239951D01*
G01*
X153847999Y-64916733D02*
G75*
G02*
X153607999Y-65156699I-239999J33D01*
G01*
X177683459Y-90974999D02*
G75*
G02*
X177443501Y-90734999I41J239999D01*
G01*
X88461932Y-88019496D02*
G75*
G02*
X88801306Y-88019534I169668J-169704D01*
G01*
X88886196Y-88104349D02*
G75*
G02*
X88886241Y-88443806I-169696J-169751D01*
G01*
X112649999Y-66169252D02*
G75*
G02*
X112409999Y-66409299I-239999J-48D01*
G01*
X89310446Y-88868038D02*
G75*
G02*
X89649858Y-88868038I169706J-169708D01*
G01*
X112409999Y-68209252D02*
G75*
G02*
X112650048Y-68449252I1J-240048D01*
G01*
X111674194Y-67969252D02*
G75*
G03*
X111914194Y-68209306I240006J-48D01*
G01*
%TD*%
%TA.AperFunction,Conductor*%
%TO.N,GND*%
G36*
X186002702Y-51500617D02*
G01*
X186386771Y-51517386D01*
X186397506Y-51518326D01*
X186775971Y-51568152D01*
X186786597Y-51570025D01*
X187159284Y-51652648D01*
X187169710Y-51655442D01*
X187533765Y-51770227D01*
X187543911Y-51773920D01*
X187896578Y-51920000D01*
X187906369Y-51924566D01*
X188244942Y-52100816D01*
X188254310Y-52106224D01*
X188576244Y-52311318D01*
X188585105Y-52317523D01*
X188887930Y-52549889D01*
X188896217Y-52556843D01*
X189177635Y-52814715D01*
X189185284Y-52822364D01*
X189443156Y-53103782D01*
X189450110Y-53112069D01*
X189682476Y-53414894D01*
X189688681Y-53423755D01*
X189893775Y-53745689D01*
X189899183Y-53755057D01*
X190075430Y-54093623D01*
X190080002Y-54103427D01*
X190226075Y-54456078D01*
X190229775Y-54466244D01*
X190344554Y-54830278D01*
X190347354Y-54840727D01*
X190429971Y-55213389D01*
X190431849Y-55224042D01*
X190481671Y-55602473D01*
X190482614Y-55613249D01*
X190499382Y-55997297D01*
X190499500Y-56002706D01*
X190499500Y-120997293D01*
X190499382Y-121002702D01*
X190482614Y-121386750D01*
X190481671Y-121397526D01*
X190431849Y-121775957D01*
X190429971Y-121786610D01*
X190347354Y-122159272D01*
X190344554Y-122169721D01*
X190229775Y-122533755D01*
X190226075Y-122543921D01*
X190080002Y-122896572D01*
X190075430Y-122906376D01*
X189899183Y-123244942D01*
X189893775Y-123254310D01*
X189688681Y-123576244D01*
X189682476Y-123585105D01*
X189450110Y-123887930D01*
X189443156Y-123896217D01*
X189185284Y-124177635D01*
X189177635Y-124185284D01*
X188896217Y-124443156D01*
X188887930Y-124450110D01*
X188585105Y-124682476D01*
X188576244Y-124688681D01*
X188254310Y-124893775D01*
X188244942Y-124899183D01*
X187906376Y-125075430D01*
X187896572Y-125080002D01*
X187543921Y-125226075D01*
X187533755Y-125229775D01*
X187169721Y-125344554D01*
X187159272Y-125347354D01*
X186786610Y-125429971D01*
X186775957Y-125431849D01*
X186397526Y-125481671D01*
X186386750Y-125482614D01*
X186002703Y-125499382D01*
X185997294Y-125499500D01*
X76002706Y-125499500D01*
X75997297Y-125499382D01*
X75613249Y-125482614D01*
X75602473Y-125481671D01*
X75224042Y-125431849D01*
X75213389Y-125429971D01*
X74840727Y-125347354D01*
X74830278Y-125344554D01*
X74466244Y-125229775D01*
X74456078Y-125226075D01*
X74103427Y-125080002D01*
X74093623Y-125075430D01*
X73755057Y-124899183D01*
X73745689Y-124893775D01*
X73423755Y-124688681D01*
X73414894Y-124682476D01*
X73112069Y-124450110D01*
X73103782Y-124443156D01*
X72822364Y-124185284D01*
X72814715Y-124177635D01*
X72556843Y-123896217D01*
X72549889Y-123887930D01*
X72317523Y-123585105D01*
X72311318Y-123576244D01*
X72106224Y-123254310D01*
X72100816Y-123244942D01*
X72077648Y-123200437D01*
X71924566Y-122906369D01*
X71919997Y-122896572D01*
X71892549Y-122830306D01*
X71773920Y-122543911D01*
X71770224Y-122533755D01*
X71706672Y-122332192D01*
X71655442Y-122169710D01*
X71652648Y-122159284D01*
X71570025Y-121786597D01*
X71568152Y-121775971D01*
X71518326Y-121397506D01*
X71517386Y-121386771D01*
X71500618Y-121002702D01*
X71500500Y-120997293D01*
X71500500Y-119500000D01*
X73494675Y-119500000D01*
X73513962Y-119892591D01*
X73513962Y-119892597D01*
X73513963Y-119892599D01*
X73571637Y-120281406D01*
X73667143Y-120662684D01*
X73799561Y-121032770D01*
X73799562Y-121032772D01*
X73967620Y-121388100D01*
X74169692Y-121725236D01*
X74403846Y-122040956D01*
X74667807Y-122332192D01*
X74901414Y-122543921D01*
X74959049Y-122596158D01*
X75274761Y-122830306D01*
X75274763Y-122830307D01*
X75611899Y-123032379D01*
X75611902Y-123032380D01*
X75611903Y-123032381D01*
X75967228Y-123200438D01*
X76337316Y-123332857D01*
X76718600Y-123428364D01*
X77107409Y-123486038D01*
X77500000Y-123505325D01*
X77892591Y-123486038D01*
X78281400Y-123428364D01*
X78662684Y-123332857D01*
X79032772Y-123200438D01*
X79388097Y-123032381D01*
X79725239Y-122830306D01*
X80040951Y-122596158D01*
X80332192Y-122332192D01*
X80596158Y-122040951D01*
X80830306Y-121725239D01*
X81032381Y-121388097D01*
X81200438Y-121032772D01*
X81332857Y-120662684D01*
X81428364Y-120281400D01*
X81486038Y-119892591D01*
X81505325Y-119500000D01*
X180494675Y-119500000D01*
X180513962Y-119892591D01*
X180513962Y-119892597D01*
X180513963Y-119892599D01*
X180571637Y-120281406D01*
X180667143Y-120662684D01*
X180799561Y-121032770D01*
X180799562Y-121032772D01*
X180967620Y-121388100D01*
X181169692Y-121725236D01*
X181403846Y-122040956D01*
X181667807Y-122332192D01*
X181901414Y-122543921D01*
X181959049Y-122596158D01*
X182274761Y-122830306D01*
X182274763Y-122830307D01*
X182611899Y-123032379D01*
X182611902Y-123032380D01*
X182611903Y-123032381D01*
X182967228Y-123200438D01*
X183337316Y-123332857D01*
X183718600Y-123428364D01*
X184107409Y-123486038D01*
X184500000Y-123505325D01*
X184892591Y-123486038D01*
X185281400Y-123428364D01*
X185662684Y-123332857D01*
X186032772Y-123200438D01*
X186388097Y-123032381D01*
X186725239Y-122830306D01*
X187040951Y-122596158D01*
X187332192Y-122332192D01*
X187596158Y-122040951D01*
X187830306Y-121725239D01*
X188032381Y-121388097D01*
X188200438Y-121032772D01*
X188332857Y-120662684D01*
X188428364Y-120281400D01*
X188486038Y-119892591D01*
X188505325Y-119500000D01*
X188486038Y-119107409D01*
X188428364Y-118718600D01*
X188332857Y-118337316D01*
X188200438Y-117967228D01*
X188032381Y-117611903D01*
X188030571Y-117608884D01*
X187830307Y-117274763D01*
X187830306Y-117274761D01*
X187596158Y-116959049D01*
X187569856Y-116930029D01*
X187332192Y-116667807D01*
X187040956Y-116403846D01*
X186857457Y-116267754D01*
X186725239Y-116169694D01*
X186546462Y-116062539D01*
X186388100Y-115967620D01*
X186032772Y-115799562D01*
X186032770Y-115799561D01*
X185662684Y-115667143D01*
X185281406Y-115571637D01*
X185281401Y-115571636D01*
X185281400Y-115571636D01*
X185137256Y-115550254D01*
X184892599Y-115513963D01*
X184892597Y-115513962D01*
X184892591Y-115513962D01*
X184500000Y-115494675D01*
X184107409Y-115513962D01*
X184107403Y-115513962D01*
X184107400Y-115513963D01*
X183718593Y-115571637D01*
X183337315Y-115667143D01*
X182967229Y-115799561D01*
X182967227Y-115799562D01*
X182611899Y-115967620D01*
X182274763Y-116169692D01*
X181959043Y-116403846D01*
X181667807Y-116667807D01*
X181403846Y-116959043D01*
X181169692Y-117274763D01*
X180967620Y-117611899D01*
X180799562Y-117967227D01*
X180799561Y-117967229D01*
X180667143Y-118337315D01*
X180571637Y-118718593D01*
X180571636Y-118718600D01*
X180513962Y-119107409D01*
X180494675Y-119500000D01*
X81505325Y-119500000D01*
X81486038Y-119107409D01*
X81428364Y-118718600D01*
X81332857Y-118337316D01*
X81200438Y-117967228D01*
X81032381Y-117611903D01*
X81030571Y-117608884D01*
X80830307Y-117274763D01*
X80830306Y-117274761D01*
X80596158Y-116959049D01*
X80569856Y-116930029D01*
X80332192Y-116667807D01*
X80040956Y-116403846D01*
X79857457Y-116267754D01*
X79725239Y-116169694D01*
X79546462Y-116062539D01*
X79388100Y-115967620D01*
X79032772Y-115799562D01*
X79032770Y-115799561D01*
X78662684Y-115667143D01*
X78281406Y-115571637D01*
X78281401Y-115571636D01*
X78281400Y-115571636D01*
X78137256Y-115550254D01*
X77892599Y-115513963D01*
X77892597Y-115513962D01*
X77892591Y-115513962D01*
X77500000Y-115494675D01*
X77107409Y-115513962D01*
X77107403Y-115513962D01*
X77107400Y-115513963D01*
X76718593Y-115571637D01*
X76337315Y-115667143D01*
X75967229Y-115799561D01*
X75967227Y-115799562D01*
X75611899Y-115967620D01*
X75274763Y-116169692D01*
X74959043Y-116403846D01*
X74667807Y-116667807D01*
X74403846Y-116959043D01*
X74169692Y-117274763D01*
X73967620Y-117611899D01*
X73799562Y-117967227D01*
X73799561Y-117967229D01*
X73667143Y-118337315D01*
X73571637Y-118718593D01*
X73571636Y-118718600D01*
X73513962Y-119107409D01*
X73494675Y-119500000D01*
X71500500Y-119500000D01*
X71500500Y-114000000D01*
X90939473Y-114000000D01*
X90959563Y-114332136D01*
X90959563Y-114332141D01*
X90959564Y-114332142D01*
X91019544Y-114659441D01*
X91019545Y-114659445D01*
X91019546Y-114659449D01*
X91118530Y-114977104D01*
X91118534Y-114977116D01*
X91118537Y-114977123D01*
X91255102Y-115280557D01*
X91396201Y-115513963D01*
X91427251Y-115565326D01*
X91632460Y-115827255D01*
X91867744Y-116062539D01*
X92129673Y-116267748D01*
X92129678Y-116267751D01*
X92129682Y-116267754D01*
X92414443Y-116439898D01*
X92717877Y-116576463D01*
X92717890Y-116576467D01*
X92717895Y-116576469D01*
X92929665Y-116642458D01*
X93035559Y-116675456D01*
X93362858Y-116735436D01*
X93695000Y-116755527D01*
X94027142Y-116735436D01*
X94354441Y-116675456D01*
X94672123Y-116576463D01*
X94975557Y-116439898D01*
X95260318Y-116267754D01*
X95522252Y-116062542D01*
X95757542Y-115827252D01*
X95902881Y-115641740D01*
X95962748Y-115565326D01*
X95962748Y-115565324D01*
X95962754Y-115565318D01*
X96134898Y-115280557D01*
X96271463Y-114977123D01*
X96370456Y-114659441D01*
X96430436Y-114332142D01*
X96450527Y-114000000D01*
X96430436Y-113667858D01*
X96370456Y-113340559D01*
X96337458Y-113234665D01*
X96271469Y-113022895D01*
X96271467Y-113022890D01*
X96271463Y-113022877D01*
X96134898Y-112719443D01*
X95962754Y-112434682D01*
X95962751Y-112434678D01*
X95962748Y-112434673D01*
X95757539Y-112172744D01*
X95522255Y-111937460D01*
X95260326Y-111732251D01*
X95260318Y-111732246D01*
X94975557Y-111560102D01*
X94672123Y-111423537D01*
X94672116Y-111423534D01*
X94672104Y-111423530D01*
X94354449Y-111324546D01*
X94354445Y-111324545D01*
X94354441Y-111324544D01*
X94027142Y-111264564D01*
X94027141Y-111264563D01*
X94027136Y-111264563D01*
X93695000Y-111244473D01*
X93362863Y-111264563D01*
X93362858Y-111264564D01*
X93035559Y-111324544D01*
X93035556Y-111324544D01*
X93035550Y-111324546D01*
X92717895Y-111423530D01*
X92717879Y-111423536D01*
X92717877Y-111423537D01*
X92524656Y-111510498D01*
X92414447Y-111560100D01*
X92414445Y-111560101D01*
X92129673Y-111732251D01*
X91867744Y-111937460D01*
X91632460Y-112172744D01*
X91427251Y-112434673D01*
X91415208Y-112454595D01*
X91255102Y-112719443D01*
X91148377Y-112956577D01*
X91118536Y-113022880D01*
X91118530Y-113022895D01*
X91019546Y-113340550D01*
X90959563Y-113667863D01*
X90939473Y-114000000D01*
X71500500Y-114000000D01*
X71500500Y-104895000D01*
X79994473Y-104895000D01*
X80014563Y-105227136D01*
X80014563Y-105227141D01*
X80014564Y-105227142D01*
X80074544Y-105554441D01*
X80074545Y-105554445D01*
X80074546Y-105554449D01*
X80173530Y-105872104D01*
X80173534Y-105872116D01*
X80173537Y-105872123D01*
X80310102Y-106175557D01*
X80482246Y-106460318D01*
X80482251Y-106460326D01*
X80687460Y-106722255D01*
X80922744Y-106957539D01*
X81184673Y-107162748D01*
X81184678Y-107162751D01*
X81184682Y-107162754D01*
X81469443Y-107334898D01*
X81772877Y-107471463D01*
X81772890Y-107471467D01*
X81772895Y-107471469D01*
X81984665Y-107537458D01*
X82090559Y-107570456D01*
X82417858Y-107630436D01*
X82750000Y-107650527D01*
X83082142Y-107630436D01*
X83409441Y-107570456D01*
X83727123Y-107471463D01*
X84030557Y-107334898D01*
X84315318Y-107162754D01*
X84577252Y-106957542D01*
X84812542Y-106722252D01*
X85017754Y-106460318D01*
X85189898Y-106175557D01*
X85326463Y-105872123D01*
X85425456Y-105554441D01*
X85485436Y-105227142D01*
X85505527Y-104895000D01*
X85485436Y-104562858D01*
X85425456Y-104235559D01*
X85326463Y-103917877D01*
X85189898Y-103614443D01*
X85017754Y-103329682D01*
X85017751Y-103329678D01*
X85017748Y-103329673D01*
X84812539Y-103067744D01*
X84577255Y-102832460D01*
X84315326Y-102627251D01*
X84274317Y-102602460D01*
X84030557Y-102455102D01*
X83727123Y-102318537D01*
X83727116Y-102318534D01*
X83727104Y-102318530D01*
X83409449Y-102219546D01*
X83409445Y-102219545D01*
X83409441Y-102219544D01*
X83082142Y-102159564D01*
X83082141Y-102159563D01*
X83082136Y-102159563D01*
X82750000Y-102139473D01*
X82417863Y-102159563D01*
X82417858Y-102159564D01*
X82090559Y-102219544D01*
X82090556Y-102219544D01*
X82090550Y-102219546D01*
X81772895Y-102318530D01*
X81772879Y-102318536D01*
X81772877Y-102318537D01*
X81597993Y-102397246D01*
X81469447Y-102455100D01*
X81469445Y-102455101D01*
X81184673Y-102627251D01*
X80922744Y-102832460D01*
X80687460Y-103067744D01*
X80482251Y-103329673D01*
X80310101Y-103614445D01*
X80310100Y-103614447D01*
X80173536Y-103917880D01*
X80173530Y-103917895D01*
X80074546Y-104235550D01*
X80074544Y-104235556D01*
X80074544Y-104235559D01*
X80026122Y-104499786D01*
X80014563Y-104562863D01*
X79994473Y-104895000D01*
X71500500Y-104895000D01*
X71500500Y-90901577D01*
X79049500Y-90901577D01*
X79049500Y-91098422D01*
X79080290Y-91292826D01*
X79141117Y-91480029D01*
X79192322Y-91580524D01*
X79230476Y-91655405D01*
X79346172Y-91814646D01*
X79485354Y-91953828D01*
X79644595Y-92069524D01*
X79727455Y-92111743D01*
X79819970Y-92158882D01*
X79819972Y-92158882D01*
X79819975Y-92158884D01*
X79886416Y-92180472D01*
X80007173Y-92219709D01*
X80201578Y-92250500D01*
X80201583Y-92250500D01*
X80898422Y-92250500D01*
X81092826Y-92219709D01*
X81280025Y-92158884D01*
X81455405Y-92069524D01*
X81614646Y-91953828D01*
X81753828Y-91814646D01*
X81869524Y-91655405D01*
X81958884Y-91480025D01*
X82019709Y-91292826D01*
X82021736Y-91280029D01*
X82050500Y-91098422D01*
X82050500Y-90901577D01*
X82019709Y-90707173D01*
X81958882Y-90519970D01*
X81911743Y-90427455D01*
X81869524Y-90344595D01*
X81753828Y-90185354D01*
X81614646Y-90046172D01*
X81455405Y-89930476D01*
X81398075Y-89901265D01*
X81280029Y-89841117D01*
X81092826Y-89780290D01*
X80898422Y-89749500D01*
X80898417Y-89749500D01*
X80201583Y-89749500D01*
X80201578Y-89749500D01*
X80007173Y-89780290D01*
X79819970Y-89841117D01*
X79644594Y-89930476D01*
X79569066Y-89985351D01*
X79485354Y-90046172D01*
X79485352Y-90046174D01*
X79485351Y-90046174D01*
X79346174Y-90185351D01*
X79346174Y-90185352D01*
X79346172Y-90185354D01*
X79296485Y-90253741D01*
X79230476Y-90344594D01*
X79141117Y-90519970D01*
X79080290Y-90707173D01*
X79049500Y-90901577D01*
X71500500Y-90901577D01*
X71500500Y-85361577D01*
X79049500Y-85361577D01*
X79049500Y-85558422D01*
X79080290Y-85752826D01*
X79141117Y-85940029D01*
X79209708Y-86074646D01*
X79230476Y-86115405D01*
X79346172Y-86274646D01*
X79485354Y-86413828D01*
X79644595Y-86529524D01*
X79727455Y-86571743D01*
X79819970Y-86618882D01*
X79819972Y-86618882D01*
X79819975Y-86618884D01*
X79920317Y-86651487D01*
X80007173Y-86679709D01*
X80201578Y-86710500D01*
X80201583Y-86710500D01*
X80409903Y-86710500D01*
X80476942Y-86730185D01*
X80497584Y-86746819D01*
X80518584Y-86767819D01*
X80552069Y-86829142D01*
X80547085Y-86898834D01*
X80505213Y-86954767D01*
X80439749Y-86979184D01*
X80430903Y-86979500D01*
X80201578Y-86979500D01*
X80007173Y-87010290D01*
X79819970Y-87071117D01*
X79644594Y-87160476D01*
X79569066Y-87215351D01*
X79485354Y-87276172D01*
X79485352Y-87276174D01*
X79485351Y-87276174D01*
X79346174Y-87415351D01*
X79346174Y-87415352D01*
X79346172Y-87415354D01*
X79296485Y-87483741D01*
X79230476Y-87574594D01*
X79141117Y-87749970D01*
X79080290Y-87937173D01*
X79049500Y-88131577D01*
X79049500Y-88328422D01*
X79080290Y-88522826D01*
X79141117Y-88710029D01*
X79206843Y-88839023D01*
X79230476Y-88885405D01*
X79346172Y-89044646D01*
X79485354Y-89183828D01*
X79644595Y-89299524D01*
X79727455Y-89341743D01*
X79819970Y-89388882D01*
X79819972Y-89388882D01*
X79819975Y-89388884D01*
X79920317Y-89421487D01*
X80007173Y-89449709D01*
X80201578Y-89480500D01*
X80201583Y-89480500D01*
X80898422Y-89480500D01*
X81092826Y-89449709D01*
X81104226Y-89446005D01*
X81280025Y-89388884D01*
X81455405Y-89299524D01*
X81614646Y-89183828D01*
X81753828Y-89044646D01*
X81869524Y-88885405D01*
X81958884Y-88710025D01*
X82019709Y-88522826D01*
X82021483Y-88511624D01*
X82051408Y-88448491D01*
X82110718Y-88411557D01*
X82180580Y-88412551D01*
X82205955Y-88423631D01*
X82268216Y-88459577D01*
X82308193Y-88470288D01*
X82367853Y-88506652D01*
X82398383Y-88569499D01*
X82390089Y-88638875D01*
X82363782Y-88677744D01*
X82241171Y-88800355D01*
X82125476Y-88959594D01*
X82036117Y-89134970D01*
X81975290Y-89322173D01*
X81944500Y-89516577D01*
X81944500Y-89713422D01*
X81975290Y-89907826D01*
X82036117Y-90095029D01*
X82123604Y-90266731D01*
X82125476Y-90270405D01*
X82241172Y-90429646D01*
X82380354Y-90568828D01*
X82539595Y-90684524D01*
X82622455Y-90726743D01*
X82714970Y-90773882D01*
X82714972Y-90773882D01*
X82714975Y-90773884D01*
X82815317Y-90806487D01*
X82902173Y-90834709D01*
X83096578Y-90865500D01*
X83096583Y-90865500D01*
X83793422Y-90865500D01*
X83987826Y-90834709D01*
X84175025Y-90773884D01*
X84350405Y-90684524D01*
X84509646Y-90568828D01*
X84648828Y-90429646D01*
X84764524Y-90270405D01*
X84853884Y-90095025D01*
X84914709Y-89907826D01*
X84915748Y-89901265D01*
X84945500Y-89713422D01*
X84945500Y-89516577D01*
X84914709Y-89322173D01*
X84871400Y-89188884D01*
X84853884Y-89134975D01*
X84853882Y-89134972D01*
X84853882Y-89134970D01*
X84776871Y-88983828D01*
X84764524Y-88959595D01*
X84648828Y-88800354D01*
X84560655Y-88712181D01*
X84527170Y-88650858D01*
X84532154Y-88581166D01*
X84574026Y-88525233D01*
X84639490Y-88500816D01*
X84648336Y-88500500D01*
X86634217Y-88500500D01*
X86701256Y-88520185D01*
X86721898Y-88536819D01*
X89649453Y-91464374D01*
X89649463Y-91464385D01*
X89653793Y-91468715D01*
X89653794Y-91468716D01*
X89765598Y-91580520D01*
X89765600Y-91580521D01*
X89765604Y-91580524D01*
X89895304Y-91655405D01*
X89902530Y-91659577D01*
X90003501Y-91686632D01*
X90055256Y-91700500D01*
X90055257Y-91700500D01*
X106835500Y-91700500D01*
X106902539Y-91720185D01*
X106948294Y-91772989D01*
X106959500Y-91824500D01*
X106959500Y-114777403D01*
X106939815Y-114844442D01*
X106908386Y-114877721D01*
X106745352Y-114996173D01*
X106606174Y-115135351D01*
X106606174Y-115135352D01*
X106606172Y-115135354D01*
X106556485Y-115203741D01*
X106490476Y-115294594D01*
X106401117Y-115469970D01*
X106340290Y-115657173D01*
X106309500Y-115851577D01*
X106309500Y-116548422D01*
X106340290Y-116742826D01*
X106401117Y-116930029D01*
X106415904Y-116959049D01*
X106490476Y-117105405D01*
X106606172Y-117264646D01*
X106745354Y-117403828D01*
X106904595Y-117519524D01*
X106987455Y-117561743D01*
X107079970Y-117608882D01*
X107079972Y-117608882D01*
X107079975Y-117608884D01*
X107180317Y-117641487D01*
X107267173Y-117669709D01*
X107461578Y-117700500D01*
X107461583Y-117700500D01*
X107658422Y-117700500D01*
X107852826Y-117669709D01*
X108040025Y-117608884D01*
X108215405Y-117519524D01*
X108374646Y-117403828D01*
X108513828Y-117264646D01*
X108629524Y-117105405D01*
X108718884Y-116930025D01*
X108779709Y-116742826D01*
X108781148Y-116733739D01*
X108810500Y-116548422D01*
X108810500Y-115851577D01*
X108779709Y-115657173D01*
X108749863Y-115565318D01*
X108718884Y-115469975D01*
X108718882Y-115469972D01*
X108718882Y-115469970D01*
X108629523Y-115294594D01*
X108513828Y-115135354D01*
X108374646Y-114996172D01*
X108373964Y-114995676D01*
X108369023Y-114992086D01*
X108326359Y-114936755D01*
X108320383Y-114867141D01*
X108352991Y-114805348D01*
X108413831Y-114770993D01*
X108480227Y-114773839D01*
X108610134Y-114816049D01*
X108652173Y-114829709D01*
X108846578Y-114860500D01*
X108846583Y-114860500D01*
X109043422Y-114860500D01*
X109237826Y-114829709D01*
X109250044Y-114825739D01*
X109409772Y-114773839D01*
X109479609Y-114771844D01*
X109539442Y-114807924D01*
X109570271Y-114870625D01*
X109562307Y-114940039D01*
X109520981Y-114992083D01*
X109515357Y-114996169D01*
X109515351Y-114996174D01*
X109376174Y-115135351D01*
X109376174Y-115135352D01*
X109376172Y-115135354D01*
X109326485Y-115203741D01*
X109260476Y-115294594D01*
X109171117Y-115469970D01*
X109110290Y-115657173D01*
X109079500Y-115851577D01*
X109079500Y-116548422D01*
X109110290Y-116742826D01*
X109171117Y-116930029D01*
X109185904Y-116959049D01*
X109260476Y-117105405D01*
X109376172Y-117264646D01*
X109515354Y-117403828D01*
X109674595Y-117519524D01*
X109757455Y-117561743D01*
X109849970Y-117608882D01*
X109849972Y-117608882D01*
X109849975Y-117608884D01*
X109950317Y-117641487D01*
X110037173Y-117669709D01*
X110231578Y-117700500D01*
X110231583Y-117700500D01*
X110428422Y-117700500D01*
X110622826Y-117669709D01*
X110810025Y-117608884D01*
X110985405Y-117519524D01*
X111144646Y-117403828D01*
X111283828Y-117264646D01*
X111399524Y-117105405D01*
X111488884Y-116930025D01*
X111549709Y-116742826D01*
X111551148Y-116733739D01*
X111580500Y-116548422D01*
X111580500Y-115851577D01*
X111849500Y-115851577D01*
X111849500Y-116548422D01*
X111880290Y-116742826D01*
X111941117Y-116930029D01*
X111955904Y-116959049D01*
X112030476Y-117105405D01*
X112146172Y-117264646D01*
X112285354Y-117403828D01*
X112444595Y-117519524D01*
X112527455Y-117561743D01*
X112619970Y-117608882D01*
X112619972Y-117608882D01*
X112619975Y-117608884D01*
X112720317Y-117641487D01*
X112807173Y-117669709D01*
X113001578Y-117700500D01*
X113001583Y-117700500D01*
X113198422Y-117700500D01*
X113392826Y-117669709D01*
X113580025Y-117608884D01*
X113755405Y-117519524D01*
X113914646Y-117403828D01*
X114053828Y-117264646D01*
X114169524Y-117105405D01*
X114258884Y-116930025D01*
X114319709Y-116742826D01*
X114321148Y-116733739D01*
X114350500Y-116548422D01*
X114350500Y-115851582D01*
X114349880Y-115847669D01*
X114347896Y-115835143D01*
X114356849Y-115765851D01*
X114401843Y-115712398D01*
X114468594Y-115691756D01*
X114535909Y-115710479D01*
X114566733Y-115737705D01*
X114573042Y-115745496D01*
X114573047Y-115745501D01*
X114573051Y-115745506D01*
X114832494Y-116004949D01*
X114991311Y-116133557D01*
X115117635Y-116235852D01*
X115425343Y-116435679D01*
X115425348Y-116435682D01*
X115752264Y-116602255D01*
X116094801Y-116733742D01*
X116449206Y-116828705D01*
X116811596Y-116886102D01*
X117157734Y-116904241D01*
X117177999Y-116905304D01*
X117178000Y-116905304D01*
X117178001Y-116905304D01*
X117197203Y-116904297D01*
X117544404Y-116886102D01*
X117906794Y-116828705D01*
X118261199Y-116733742D01*
X118603736Y-116602255D01*
X118930652Y-116435682D01*
X119238366Y-116235851D01*
X119523506Y-116004949D01*
X119782949Y-115745506D01*
X120013851Y-115460366D01*
X120213682Y-115152652D01*
X120380255Y-114825736D01*
X120511742Y-114483199D01*
X120606705Y-114128794D01*
X120627104Y-114000000D01*
X124239473Y-114000000D01*
X124259563Y-114332136D01*
X124259563Y-114332141D01*
X124259564Y-114332142D01*
X124319544Y-114659441D01*
X124319545Y-114659445D01*
X124319546Y-114659449D01*
X124418530Y-114977104D01*
X124418534Y-114977116D01*
X124418537Y-114977123D01*
X124555102Y-115280557D01*
X124696201Y-115513963D01*
X124727251Y-115565326D01*
X124932460Y-115827255D01*
X125167744Y-116062539D01*
X125429673Y-116267748D01*
X125429678Y-116267751D01*
X125429682Y-116267754D01*
X125714443Y-116439898D01*
X126017877Y-116576463D01*
X126017890Y-116576467D01*
X126017895Y-116576469D01*
X126229665Y-116642458D01*
X126335559Y-116675456D01*
X126662858Y-116735436D01*
X126995000Y-116755527D01*
X127327142Y-116735436D01*
X127654441Y-116675456D01*
X127972123Y-116576463D01*
X128275557Y-116439898D01*
X128560318Y-116267754D01*
X128822252Y-116062542D01*
X129057542Y-115827252D01*
X129202881Y-115641740D01*
X129262748Y-115565326D01*
X129262748Y-115565324D01*
X129262754Y-115565318D01*
X129434898Y-115280557D01*
X129571463Y-114977123D01*
X129670456Y-114659441D01*
X129730436Y-114332142D01*
X129750527Y-114000000D01*
X132339473Y-114000000D01*
X132359563Y-114332136D01*
X132359563Y-114332141D01*
X132359564Y-114332142D01*
X132419544Y-114659441D01*
X132419545Y-114659445D01*
X132419546Y-114659449D01*
X132518530Y-114977104D01*
X132518534Y-114977116D01*
X132518537Y-114977123D01*
X132655102Y-115280557D01*
X132796201Y-115513963D01*
X132827251Y-115565326D01*
X133032460Y-115827255D01*
X133267744Y-116062539D01*
X133529673Y-116267748D01*
X133529678Y-116267751D01*
X133529682Y-116267754D01*
X133814443Y-116439898D01*
X134117877Y-116576463D01*
X134117890Y-116576467D01*
X134117895Y-116576469D01*
X134329665Y-116642458D01*
X134435559Y-116675456D01*
X134762858Y-116735436D01*
X135095000Y-116755527D01*
X135427142Y-116735436D01*
X135754441Y-116675456D01*
X136072123Y-116576463D01*
X136375557Y-116439898D01*
X136660318Y-116267754D01*
X136922252Y-116062542D01*
X137157542Y-115827252D01*
X137302881Y-115641740D01*
X137362748Y-115565326D01*
X137362748Y-115565324D01*
X137362754Y-115565318D01*
X137534898Y-115280557D01*
X137671463Y-114977123D01*
X137770456Y-114659441D01*
X137830436Y-114332142D01*
X137850527Y-114000000D01*
X137830436Y-113667858D01*
X137770456Y-113340559D01*
X137737458Y-113234665D01*
X137671469Y-113022895D01*
X137671467Y-113022890D01*
X137671463Y-113022877D01*
X137534898Y-112719443D01*
X137362754Y-112434682D01*
X137362751Y-112434678D01*
X137362748Y-112434673D01*
X137157539Y-112172744D01*
X136922255Y-111937460D01*
X136660326Y-111732251D01*
X136660318Y-111732246D01*
X136375557Y-111560102D01*
X136072123Y-111423537D01*
X136072116Y-111423534D01*
X136072104Y-111423530D01*
X135754449Y-111324546D01*
X135754445Y-111324545D01*
X135754441Y-111324544D01*
X135427142Y-111264564D01*
X135427141Y-111264563D01*
X135427136Y-111264563D01*
X135095000Y-111244473D01*
X134762863Y-111264563D01*
X134762858Y-111264564D01*
X134435559Y-111324544D01*
X134435556Y-111324544D01*
X134435550Y-111324546D01*
X134117895Y-111423530D01*
X134117879Y-111423536D01*
X134117877Y-111423537D01*
X133924656Y-111510498D01*
X133814447Y-111560100D01*
X133814445Y-111560101D01*
X133529673Y-111732251D01*
X133267744Y-111937460D01*
X133032460Y-112172744D01*
X132827251Y-112434673D01*
X132815208Y-112454595D01*
X132655102Y-112719443D01*
X132548377Y-112956577D01*
X132518536Y-113022880D01*
X132518530Y-113022895D01*
X132419546Y-113340550D01*
X132359563Y-113667863D01*
X132339473Y-114000000D01*
X129750527Y-114000000D01*
X129730436Y-113667858D01*
X129670456Y-113340559D01*
X129637458Y-113234665D01*
X129571469Y-113022895D01*
X129571467Y-113022890D01*
X129571463Y-113022877D01*
X129434898Y-112719443D01*
X129262754Y-112434682D01*
X129262751Y-112434678D01*
X129262748Y-112434673D01*
X129057539Y-112172744D01*
X128822255Y-111937460D01*
X128560326Y-111732251D01*
X128560318Y-111732246D01*
X128275557Y-111560102D01*
X127972123Y-111423537D01*
X127972116Y-111423534D01*
X127972104Y-111423530D01*
X127654449Y-111324546D01*
X127654445Y-111324545D01*
X127654441Y-111324544D01*
X127327142Y-111264564D01*
X127327141Y-111264563D01*
X127327136Y-111264563D01*
X126995000Y-111244473D01*
X126662863Y-111264563D01*
X126662858Y-111264564D01*
X126335559Y-111324544D01*
X126335556Y-111324544D01*
X126335550Y-111324546D01*
X126017895Y-111423530D01*
X126017879Y-111423536D01*
X126017877Y-111423537D01*
X125824656Y-111510498D01*
X125714447Y-111560100D01*
X125714445Y-111560101D01*
X125429673Y-111732251D01*
X125167744Y-111937460D01*
X124932460Y-112172744D01*
X124727251Y-112434673D01*
X124715208Y-112454595D01*
X124555102Y-112719443D01*
X124448377Y-112956577D01*
X124418536Y-113022880D01*
X124418530Y-113022895D01*
X124319546Y-113340550D01*
X124259563Y-113667863D01*
X124239473Y-114000000D01*
X120627104Y-114000000D01*
X120664102Y-113766404D01*
X120683304Y-113400000D01*
X120664102Y-113033596D01*
X120606705Y-112671206D01*
X120511742Y-112316801D01*
X120380255Y-111974264D01*
X120213682Y-111647348D01*
X120157024Y-111560102D01*
X120013852Y-111339635D01*
X119782952Y-111054498D01*
X119782949Y-111054494D01*
X119523506Y-110795051D01*
X119238366Y-110564149D01*
X119238364Y-110564147D01*
X118930656Y-110364320D01*
X118603739Y-110197746D01*
X118261206Y-110066260D01*
X118261199Y-110066258D01*
X117906794Y-109971295D01*
X117906790Y-109971294D01*
X117906789Y-109971294D01*
X117544405Y-109913898D01*
X117178001Y-109894696D01*
X117177999Y-109894696D01*
X116811594Y-109913898D01*
X116449211Y-109971294D01*
X116449209Y-109971294D01*
X116094793Y-110066260D01*
X115752260Y-110197746D01*
X115425343Y-110364320D01*
X115117635Y-110564147D01*
X114832498Y-110795047D01*
X114832490Y-110795054D01*
X114573054Y-111054490D01*
X114573047Y-111054498D01*
X114342147Y-111339635D01*
X114142320Y-111647343D01*
X113975746Y-111974260D01*
X113844260Y-112316793D01*
X113749294Y-112671209D01*
X113749294Y-112671211D01*
X113691898Y-113033594D01*
X113672696Y-113399999D01*
X113672696Y-113400000D01*
X113686733Y-113667858D01*
X113691898Y-113766404D01*
X113749295Y-114128794D01*
X113828569Y-114424648D01*
X113844261Y-114483209D01*
X113940085Y-114732840D01*
X113945733Y-114802481D01*
X113912833Y-114864120D01*
X113851831Y-114898187D01*
X113782095Y-114893866D01*
X113759531Y-114883004D01*
X113755410Y-114880479D01*
X113755407Y-114880477D01*
X113755405Y-114880476D01*
X113655769Y-114829709D01*
X113580029Y-114791117D01*
X113392826Y-114730290D01*
X113198422Y-114699500D01*
X113198417Y-114699500D01*
X113001583Y-114699500D01*
X113001578Y-114699500D01*
X112807173Y-114730290D01*
X112619970Y-114791117D01*
X112444594Y-114880476D01*
X112367134Y-114936755D01*
X112285354Y-114996172D01*
X112285352Y-114996174D01*
X112285351Y-114996174D01*
X112146174Y-115135351D01*
X112146174Y-115135352D01*
X112146172Y-115135354D01*
X112096485Y-115203741D01*
X112030476Y-115294594D01*
X111941117Y-115469970D01*
X111880290Y-115657173D01*
X111849500Y-115851577D01*
X111580500Y-115851577D01*
X111549709Y-115657173D01*
X111519863Y-115565318D01*
X111488884Y-115469975D01*
X111488882Y-115469972D01*
X111488882Y-115469970D01*
X111399523Y-115294594D01*
X111283828Y-115135354D01*
X111144646Y-114996172D01*
X110985405Y-114880476D01*
X110966071Y-114870625D01*
X110810029Y-114791117D01*
X110622826Y-114730290D01*
X110428422Y-114699500D01*
X110428417Y-114699500D01*
X110231583Y-114699500D01*
X110231578Y-114699500D01*
X110037173Y-114730290D01*
X109865231Y-114786159D01*
X109795389Y-114788154D01*
X109735556Y-114752074D01*
X109704728Y-114689373D01*
X109712693Y-114619959D01*
X109754030Y-114567908D01*
X109759646Y-114563828D01*
X109898828Y-114424646D01*
X110014524Y-114265405D01*
X110103884Y-114090025D01*
X110164709Y-113902826D01*
X110186316Y-113766404D01*
X110195500Y-113708422D01*
X110195500Y-113011577D01*
X110186789Y-112956577D01*
X110464500Y-112956577D01*
X110464500Y-113653422D01*
X110495290Y-113847826D01*
X110556117Y-114035029D01*
X110603890Y-114128788D01*
X110645476Y-114210405D01*
X110761172Y-114369646D01*
X110900354Y-114508828D01*
X111059595Y-114624524D01*
X111128124Y-114659441D01*
X111234970Y-114713882D01*
X111234972Y-114713882D01*
X111234975Y-114713884D01*
X111335317Y-114746487D01*
X111422173Y-114774709D01*
X111616578Y-114805500D01*
X111616583Y-114805500D01*
X111813422Y-114805500D01*
X112007826Y-114774709D01*
X112010500Y-114773840D01*
X112195025Y-114713884D01*
X112370405Y-114624524D01*
X112529646Y-114508828D01*
X112668828Y-114369646D01*
X112784524Y-114210405D01*
X112873884Y-114035025D01*
X112934709Y-113847826D01*
X112947605Y-113766404D01*
X112965500Y-113653422D01*
X112965500Y-112956577D01*
X112934709Y-112762173D01*
X112905153Y-112671211D01*
X112873884Y-112574975D01*
X112873882Y-112574972D01*
X112873882Y-112574970D01*
X112812547Y-112454594D01*
X112784524Y-112399595D01*
X112668828Y-112240354D01*
X112529646Y-112101172D01*
X112370405Y-111985476D01*
X112348392Y-111974260D01*
X112195029Y-111896117D01*
X112007826Y-111835290D01*
X111813422Y-111804500D01*
X111813417Y-111804500D01*
X111616583Y-111804500D01*
X111616578Y-111804500D01*
X111422173Y-111835290D01*
X111234970Y-111896117D01*
X111059594Y-111985476D01*
X110983894Y-112040476D01*
X110900354Y-112101172D01*
X110900352Y-112101174D01*
X110900351Y-112101174D01*
X110761174Y-112240351D01*
X110761174Y-112240352D01*
X110761172Y-112240354D01*
X110721214Y-112295351D01*
X110645476Y-112399594D01*
X110556117Y-112574970D01*
X110495290Y-112762173D01*
X110464500Y-112956577D01*
X110186789Y-112956577D01*
X110164709Y-112817173D01*
X110103882Y-112629970D01*
X110014523Y-112454594D01*
X110000056Y-112434682D01*
X109898828Y-112295354D01*
X109759646Y-112156172D01*
X109600405Y-112040476D01*
X109425029Y-111951117D01*
X109237826Y-111890290D01*
X109043422Y-111859500D01*
X109043417Y-111859500D01*
X108846583Y-111859500D01*
X108846578Y-111859500D01*
X108753899Y-111874179D01*
X108684606Y-111865224D01*
X108631154Y-111820228D01*
X108610514Y-111753477D01*
X108610501Y-111751706D01*
X108610501Y-92797409D01*
X108630186Y-92730370D01*
X108682990Y-92684615D01*
X108693547Y-92680367D01*
X108744845Y-92662417D01*
X108849522Y-92625789D01*
X109002262Y-92529816D01*
X109129816Y-92402262D01*
X109225789Y-92249522D01*
X109285368Y-92079255D01*
X109285369Y-92079249D01*
X109305565Y-91900003D01*
X109305565Y-91899996D01*
X109298623Y-91838383D01*
X109310678Y-91769561D01*
X109358027Y-91718182D01*
X109421843Y-91700500D01*
X112517588Y-91700500D01*
X112584627Y-91720185D01*
X112594903Y-91727555D01*
X112597736Y-91729814D01*
X112597738Y-91729816D01*
X112699434Y-91793716D01*
X112748426Y-91824500D01*
X112750478Y-91825789D01*
X112920745Y-91885368D01*
X112920750Y-91885369D01*
X113099996Y-91905565D01*
X113100000Y-91905565D01*
X113100004Y-91905565D01*
X113279249Y-91885369D01*
X113279252Y-91885368D01*
X113279255Y-91885368D01*
X113449522Y-91825789D01*
X113602262Y-91729816D01*
X113602267Y-91729810D01*
X113605097Y-91727555D01*
X113607275Y-91726665D01*
X113608158Y-91726111D01*
X113608255Y-91726265D01*
X113669783Y-91701145D01*
X113682412Y-91700500D01*
X148235500Y-91700500D01*
X148302539Y-91720185D01*
X148348294Y-91772989D01*
X148359500Y-91824500D01*
X148359500Y-114777403D01*
X148339815Y-114844442D01*
X148308386Y-114877721D01*
X148145352Y-114996173D01*
X148006174Y-115135351D01*
X148006174Y-115135352D01*
X148006172Y-115135354D01*
X147956485Y-115203741D01*
X147890476Y-115294594D01*
X147801117Y-115469970D01*
X147740290Y-115657173D01*
X147709500Y-115851577D01*
X147709500Y-116548422D01*
X147740290Y-116742826D01*
X147801117Y-116930029D01*
X147815904Y-116959049D01*
X147890476Y-117105405D01*
X148006172Y-117264646D01*
X148145354Y-117403828D01*
X148304595Y-117519524D01*
X148387455Y-117561743D01*
X148479970Y-117608882D01*
X148479972Y-117608882D01*
X148479975Y-117608884D01*
X148580317Y-117641487D01*
X148667173Y-117669709D01*
X148861578Y-117700500D01*
X148861583Y-117700500D01*
X149058422Y-117700500D01*
X149252826Y-117669709D01*
X149440025Y-117608884D01*
X149615405Y-117519524D01*
X149774646Y-117403828D01*
X149913828Y-117264646D01*
X150029524Y-117105405D01*
X150118884Y-116930025D01*
X150179709Y-116742826D01*
X150181148Y-116733739D01*
X150210500Y-116548422D01*
X150210500Y-115851577D01*
X150179709Y-115657173D01*
X150149863Y-115565318D01*
X150118884Y-115469975D01*
X150118882Y-115469972D01*
X150118882Y-115469970D01*
X150029523Y-115294594D01*
X149913828Y-115135354D01*
X149774646Y-114996172D01*
X149773964Y-114995676D01*
X149769023Y-114992086D01*
X149726359Y-114936755D01*
X149720383Y-114867141D01*
X149752991Y-114805348D01*
X149813831Y-114770993D01*
X149880227Y-114773839D01*
X150010134Y-114816049D01*
X150052173Y-114829709D01*
X150246578Y-114860500D01*
X150246583Y-114860500D01*
X150443422Y-114860500D01*
X150637826Y-114829709D01*
X150650044Y-114825739D01*
X150809772Y-114773839D01*
X150879609Y-114771844D01*
X150939442Y-114807924D01*
X150970271Y-114870625D01*
X150962307Y-114940039D01*
X150920981Y-114992083D01*
X150915357Y-114996169D01*
X150915351Y-114996174D01*
X150776174Y-115135351D01*
X150776174Y-115135352D01*
X150776172Y-115135354D01*
X150726485Y-115203741D01*
X150660476Y-115294594D01*
X150571117Y-115469970D01*
X150510290Y-115657173D01*
X150479500Y-115851577D01*
X150479500Y-116548422D01*
X150510290Y-116742826D01*
X150571117Y-116930029D01*
X150585904Y-116959049D01*
X150660476Y-117105405D01*
X150776172Y-117264646D01*
X150915354Y-117403828D01*
X151074595Y-117519524D01*
X151157455Y-117561743D01*
X151249970Y-117608882D01*
X151249972Y-117608882D01*
X151249975Y-117608884D01*
X151350317Y-117641487D01*
X151437173Y-117669709D01*
X151631578Y-117700500D01*
X151631583Y-117700500D01*
X151828422Y-117700500D01*
X152022826Y-117669709D01*
X152210025Y-117608884D01*
X152385405Y-117519524D01*
X152544646Y-117403828D01*
X152683828Y-117264646D01*
X152799524Y-117105405D01*
X152888884Y-116930025D01*
X152949709Y-116742826D01*
X152951148Y-116733739D01*
X152980500Y-116548422D01*
X152980500Y-115851577D01*
X153249500Y-115851577D01*
X153249500Y-116548422D01*
X153280290Y-116742826D01*
X153341117Y-116930029D01*
X153355904Y-116959049D01*
X153430476Y-117105405D01*
X153546172Y-117264646D01*
X153685354Y-117403828D01*
X153844595Y-117519524D01*
X153927455Y-117561743D01*
X154019970Y-117608882D01*
X154019972Y-117608882D01*
X154019975Y-117608884D01*
X154120317Y-117641487D01*
X154207173Y-117669709D01*
X154401578Y-117700500D01*
X154401583Y-117700500D01*
X154598422Y-117700500D01*
X154792826Y-117669709D01*
X154980025Y-117608884D01*
X155155405Y-117519524D01*
X155314646Y-117403828D01*
X155453828Y-117264646D01*
X155569524Y-117105405D01*
X155658884Y-116930025D01*
X155719709Y-116742826D01*
X155721148Y-116733739D01*
X155750500Y-116548422D01*
X155750500Y-115851582D01*
X155749880Y-115847669D01*
X155747896Y-115835143D01*
X155756849Y-115765851D01*
X155801843Y-115712398D01*
X155868594Y-115691756D01*
X155935909Y-115710479D01*
X155966733Y-115737705D01*
X155973042Y-115745496D01*
X155973047Y-115745501D01*
X155973051Y-115745506D01*
X156232494Y-116004949D01*
X156391311Y-116133557D01*
X156517635Y-116235852D01*
X156825343Y-116435679D01*
X156825348Y-116435682D01*
X157152264Y-116602255D01*
X157494801Y-116733742D01*
X157849206Y-116828705D01*
X158211596Y-116886102D01*
X158557734Y-116904241D01*
X158577999Y-116905304D01*
X158578000Y-116905304D01*
X158578001Y-116905304D01*
X158597203Y-116904297D01*
X158944404Y-116886102D01*
X159306794Y-116828705D01*
X159661199Y-116733742D01*
X160003736Y-116602255D01*
X160330652Y-116435682D01*
X160638366Y-116235851D01*
X160923506Y-116004949D01*
X161182949Y-115745506D01*
X161413851Y-115460366D01*
X161613682Y-115152652D01*
X161780255Y-114825736D01*
X161911742Y-114483199D01*
X162006705Y-114128794D01*
X162027104Y-114000000D01*
X165639473Y-114000000D01*
X165659563Y-114332136D01*
X165659563Y-114332141D01*
X165659564Y-114332142D01*
X165719544Y-114659441D01*
X165719545Y-114659445D01*
X165719546Y-114659449D01*
X165818530Y-114977104D01*
X165818534Y-114977116D01*
X165818537Y-114977123D01*
X165955102Y-115280557D01*
X166096201Y-115513963D01*
X166127251Y-115565326D01*
X166332460Y-115827255D01*
X166567744Y-116062539D01*
X166829673Y-116267748D01*
X166829678Y-116267751D01*
X166829682Y-116267754D01*
X167114443Y-116439898D01*
X167417877Y-116576463D01*
X167417890Y-116576467D01*
X167417895Y-116576469D01*
X167629665Y-116642458D01*
X167735559Y-116675456D01*
X168062858Y-116735436D01*
X168395000Y-116755527D01*
X168727142Y-116735436D01*
X169054441Y-116675456D01*
X169372123Y-116576463D01*
X169675557Y-116439898D01*
X169960318Y-116267754D01*
X170222252Y-116062542D01*
X170457542Y-115827252D01*
X170602881Y-115641740D01*
X170662748Y-115565326D01*
X170662748Y-115565324D01*
X170662754Y-115565318D01*
X170834898Y-115280557D01*
X170971463Y-114977123D01*
X171070456Y-114659441D01*
X171130436Y-114332142D01*
X171150527Y-114000000D01*
X171130436Y-113667858D01*
X171070456Y-113340559D01*
X171037458Y-113234665D01*
X170971469Y-113022895D01*
X170971467Y-113022890D01*
X170971463Y-113022877D01*
X170834898Y-112719443D01*
X170662754Y-112434682D01*
X170662751Y-112434678D01*
X170662748Y-112434673D01*
X170457539Y-112172744D01*
X170222255Y-111937460D01*
X169960326Y-111732251D01*
X169960318Y-111732246D01*
X169675557Y-111560102D01*
X169372123Y-111423537D01*
X169372116Y-111423534D01*
X169372104Y-111423530D01*
X169054449Y-111324546D01*
X169054445Y-111324545D01*
X169054441Y-111324544D01*
X168727142Y-111264564D01*
X168727141Y-111264563D01*
X168727136Y-111264563D01*
X168395000Y-111244473D01*
X168062863Y-111264563D01*
X168062858Y-111264564D01*
X167735559Y-111324544D01*
X167735556Y-111324544D01*
X167735550Y-111324546D01*
X167417895Y-111423530D01*
X167417879Y-111423536D01*
X167417877Y-111423537D01*
X167224656Y-111510498D01*
X167114447Y-111560100D01*
X167114445Y-111560101D01*
X166829673Y-111732251D01*
X166567744Y-111937460D01*
X166332460Y-112172744D01*
X166127251Y-112434673D01*
X166115208Y-112454595D01*
X165955102Y-112719443D01*
X165848377Y-112956577D01*
X165818536Y-113022880D01*
X165818530Y-113022895D01*
X165719546Y-113340550D01*
X165659563Y-113667863D01*
X165639473Y-114000000D01*
X162027104Y-114000000D01*
X162064102Y-113766404D01*
X162083304Y-113400000D01*
X162064102Y-113033596D01*
X162006705Y-112671206D01*
X161911742Y-112316801D01*
X161780255Y-111974264D01*
X161613682Y-111647348D01*
X161557024Y-111560102D01*
X161413852Y-111339635D01*
X161182952Y-111054498D01*
X161182949Y-111054494D01*
X160923506Y-110795051D01*
X160638366Y-110564149D01*
X160638364Y-110564147D01*
X160330656Y-110364320D01*
X160003739Y-110197746D01*
X159661206Y-110066260D01*
X159661199Y-110066258D01*
X159306794Y-109971295D01*
X159306790Y-109971294D01*
X159306789Y-109971294D01*
X158944405Y-109913898D01*
X158578001Y-109894696D01*
X158577999Y-109894696D01*
X158211594Y-109913898D01*
X157849211Y-109971294D01*
X157849209Y-109971294D01*
X157494793Y-110066260D01*
X157152260Y-110197746D01*
X156825343Y-110364320D01*
X156517635Y-110564147D01*
X156232498Y-110795047D01*
X156232490Y-110795054D01*
X155973054Y-111054490D01*
X155973047Y-111054498D01*
X155742147Y-111339635D01*
X155542320Y-111647343D01*
X155375746Y-111974260D01*
X155244260Y-112316793D01*
X155149294Y-112671209D01*
X155149294Y-112671211D01*
X155091898Y-113033594D01*
X155072696Y-113399999D01*
X155072696Y-113400000D01*
X155086733Y-113667858D01*
X155091898Y-113766404D01*
X155149295Y-114128794D01*
X155228569Y-114424648D01*
X155244261Y-114483209D01*
X155340085Y-114732840D01*
X155345733Y-114802481D01*
X155312833Y-114864120D01*
X155251831Y-114898187D01*
X155182095Y-114893866D01*
X155159531Y-114883004D01*
X155155410Y-114880479D01*
X155155407Y-114880477D01*
X155155405Y-114880476D01*
X155055769Y-114829709D01*
X154980029Y-114791117D01*
X154792826Y-114730290D01*
X154598422Y-114699500D01*
X154598417Y-114699500D01*
X154401583Y-114699500D01*
X154401578Y-114699500D01*
X154207173Y-114730290D01*
X154019970Y-114791117D01*
X153844594Y-114880476D01*
X153767134Y-114936755D01*
X153685354Y-114996172D01*
X153685352Y-114996174D01*
X153685351Y-114996174D01*
X153546174Y-115135351D01*
X153546174Y-115135352D01*
X153546172Y-115135354D01*
X153496485Y-115203741D01*
X153430476Y-115294594D01*
X153341117Y-115469970D01*
X153280290Y-115657173D01*
X153249500Y-115851577D01*
X152980500Y-115851577D01*
X152949709Y-115657173D01*
X152919863Y-115565318D01*
X152888884Y-115469975D01*
X152888882Y-115469972D01*
X152888882Y-115469970D01*
X152799523Y-115294594D01*
X152683828Y-115135354D01*
X152544646Y-114996172D01*
X152385405Y-114880476D01*
X152366071Y-114870625D01*
X152210029Y-114791117D01*
X152022826Y-114730290D01*
X151828422Y-114699500D01*
X151828417Y-114699500D01*
X151631583Y-114699500D01*
X151631578Y-114699500D01*
X151437173Y-114730290D01*
X151265231Y-114786159D01*
X151195389Y-114788154D01*
X151135556Y-114752074D01*
X151104728Y-114689373D01*
X151112693Y-114619959D01*
X151154030Y-114567908D01*
X151159646Y-114563828D01*
X151298828Y-114424646D01*
X151414524Y-114265405D01*
X151503884Y-114090025D01*
X151564709Y-113902826D01*
X151586316Y-113766404D01*
X151595500Y-113708422D01*
X151595500Y-113011577D01*
X151586789Y-112956577D01*
X151864500Y-112956577D01*
X151864500Y-113653422D01*
X151895290Y-113847826D01*
X151956117Y-114035029D01*
X152003890Y-114128788D01*
X152045476Y-114210405D01*
X152161172Y-114369646D01*
X152300354Y-114508828D01*
X152459595Y-114624524D01*
X152528124Y-114659441D01*
X152634970Y-114713882D01*
X152634972Y-114713882D01*
X152634975Y-114713884D01*
X152735317Y-114746487D01*
X152822173Y-114774709D01*
X153016578Y-114805500D01*
X153016583Y-114805500D01*
X153213422Y-114805500D01*
X153407826Y-114774709D01*
X153410500Y-114773840D01*
X153595025Y-114713884D01*
X153770405Y-114624524D01*
X153929646Y-114508828D01*
X154068828Y-114369646D01*
X154184524Y-114210405D01*
X154273884Y-114035025D01*
X154334709Y-113847826D01*
X154347605Y-113766404D01*
X154365500Y-113653422D01*
X154365500Y-112956577D01*
X154334709Y-112762173D01*
X154305153Y-112671211D01*
X154273884Y-112574975D01*
X154273882Y-112574972D01*
X154273882Y-112574970D01*
X154212547Y-112454594D01*
X154184524Y-112399595D01*
X154068828Y-112240354D01*
X153929646Y-112101172D01*
X153770405Y-111985476D01*
X153748392Y-111974260D01*
X153595029Y-111896117D01*
X153407826Y-111835290D01*
X153213422Y-111804500D01*
X153213417Y-111804500D01*
X153016583Y-111804500D01*
X153016578Y-111804500D01*
X152822173Y-111835290D01*
X152634970Y-111896117D01*
X152459594Y-111985476D01*
X152383894Y-112040476D01*
X152300354Y-112101172D01*
X152300352Y-112101174D01*
X152300351Y-112101174D01*
X152161174Y-112240351D01*
X152161174Y-112240352D01*
X152161172Y-112240354D01*
X152121214Y-112295351D01*
X152045476Y-112399594D01*
X151956117Y-112574970D01*
X151895290Y-112762173D01*
X151864500Y-112956577D01*
X151586789Y-112956577D01*
X151564709Y-112817173D01*
X151503882Y-112629970D01*
X151414523Y-112454594D01*
X151400056Y-112434682D01*
X151298828Y-112295354D01*
X151159646Y-112156172D01*
X151000405Y-112040476D01*
X150825029Y-111951117D01*
X150637826Y-111890290D01*
X150443422Y-111859500D01*
X150443417Y-111859500D01*
X150246583Y-111859500D01*
X150246578Y-111859500D01*
X150153899Y-111874179D01*
X150084606Y-111865224D01*
X150031154Y-111820228D01*
X150010514Y-111753477D01*
X150010501Y-111751706D01*
X150010501Y-104665000D01*
X176544473Y-104665000D01*
X176564563Y-104997136D01*
X176564563Y-104997141D01*
X176564564Y-104997142D01*
X176624544Y-105324441D01*
X176624545Y-105324445D01*
X176624546Y-105324449D01*
X176723530Y-105642104D01*
X176723534Y-105642116D01*
X176723537Y-105642123D01*
X176860102Y-105945557D01*
X176999139Y-106175552D01*
X177032251Y-106230326D01*
X177237460Y-106492255D01*
X177472744Y-106727539D01*
X177734673Y-106932748D01*
X177734678Y-106932751D01*
X177734682Y-106932754D01*
X178019443Y-107104898D01*
X178322877Y-107241463D01*
X178322890Y-107241467D01*
X178322895Y-107241469D01*
X178534665Y-107307458D01*
X178640559Y-107340456D01*
X178967858Y-107400436D01*
X179300000Y-107420527D01*
X179632142Y-107400436D01*
X179959441Y-107340456D01*
X180277123Y-107241463D01*
X180580557Y-107104898D01*
X180865318Y-106932754D01*
X181127252Y-106727542D01*
X181362542Y-106492252D01*
X181567754Y-106230318D01*
X181739898Y-105945557D01*
X181876463Y-105642123D01*
X181975456Y-105324441D01*
X182035436Y-104997142D01*
X182055527Y-104665000D01*
X182035436Y-104332858D01*
X181975456Y-104005559D01*
X181876463Y-103687877D01*
X181739898Y-103384443D01*
X181567754Y-103099682D01*
X181567751Y-103099678D01*
X181567748Y-103099673D01*
X181362539Y-102837744D01*
X181127255Y-102602460D01*
X180865326Y-102397251D01*
X180735117Y-102318537D01*
X180580557Y-102225102D01*
X180277123Y-102088537D01*
X180277116Y-102088534D01*
X180277104Y-102088530D01*
X179959449Y-101989546D01*
X179959445Y-101989545D01*
X179959441Y-101989544D01*
X179632142Y-101929564D01*
X179632141Y-101929563D01*
X179632136Y-101929563D01*
X179300000Y-101909473D01*
X178967863Y-101929563D01*
X178967858Y-101929564D01*
X178640559Y-101989544D01*
X178640556Y-101989544D01*
X178640550Y-101989546D01*
X178322895Y-102088530D01*
X178322879Y-102088536D01*
X178322877Y-102088537D01*
X178165064Y-102159563D01*
X178019447Y-102225100D01*
X178019445Y-102225101D01*
X177734673Y-102397251D01*
X177472744Y-102602460D01*
X177237460Y-102837744D01*
X177032251Y-103099673D01*
X176860101Y-103384445D01*
X176860100Y-103384447D01*
X176723536Y-103687880D01*
X176723530Y-103687895D01*
X176624546Y-104005550D01*
X176564563Y-104332863D01*
X176544473Y-104665000D01*
X150010501Y-104665000D01*
X150010501Y-92662417D01*
X150030186Y-92595378D01*
X150082990Y-92549623D01*
X150093541Y-92545377D01*
X150149522Y-92525789D01*
X150302262Y-92429816D01*
X150429816Y-92302262D01*
X150525789Y-92149522D01*
X150585368Y-91979255D01*
X150587664Y-91958884D01*
X150604369Y-91810617D01*
X150631435Y-91746203D01*
X150689030Y-91706648D01*
X150727589Y-91700500D01*
X153717588Y-91700500D01*
X153784627Y-91720185D01*
X153794903Y-91727555D01*
X153797736Y-91729814D01*
X153797738Y-91729816D01*
X153899434Y-91793716D01*
X153948426Y-91824500D01*
X153950478Y-91825789D01*
X154120745Y-91885368D01*
X154120750Y-91885369D01*
X154299996Y-91905565D01*
X154300000Y-91905565D01*
X154300004Y-91905565D01*
X154479249Y-91885369D01*
X154479252Y-91885368D01*
X154479255Y-91885368D01*
X154649522Y-91825789D01*
X154802262Y-91729816D01*
X154802267Y-91729810D01*
X154805097Y-91727555D01*
X154807275Y-91726665D01*
X154808158Y-91726111D01*
X154808255Y-91726265D01*
X154869783Y-91701145D01*
X154882412Y-91700500D01*
X169323564Y-91700500D01*
X169390603Y-91720185D01*
X169436358Y-91772989D01*
X169441945Y-91787599D01*
X169476971Y-91900000D01*
X169481522Y-91914606D01*
X169569530Y-92060188D01*
X169689811Y-92180469D01*
X169689813Y-92180470D01*
X169689815Y-92180472D01*
X169835394Y-92268478D01*
X169997804Y-92319086D01*
X170068384Y-92325500D01*
X170068387Y-92325500D01*
X170731613Y-92325500D01*
X170731616Y-92325500D01*
X170802196Y-92319086D01*
X170964606Y-92268478D01*
X171110185Y-92180472D01*
X171141135Y-92149522D01*
X171228839Y-92061819D01*
X171290162Y-92028334D01*
X171316520Y-92025500D01*
X178266530Y-92025500D01*
X178266546Y-92025501D01*
X178274142Y-92025501D01*
X178432253Y-92025501D01*
X178432256Y-92025501D01*
X178584984Y-91984577D01*
X178638242Y-91953828D01*
X178721915Y-91905520D01*
X178833719Y-91793716D01*
X178833719Y-91793714D01*
X178843923Y-91783511D01*
X178843926Y-91783506D01*
X179190615Y-91436819D01*
X179251938Y-91403334D01*
X179278296Y-91400500D01*
X180077404Y-91400500D01*
X180144443Y-91420185D01*
X180177722Y-91451614D01*
X180180475Y-91455403D01*
X180180476Y-91455405D01*
X180296172Y-91614646D01*
X180435354Y-91753828D01*
X180594595Y-91869524D01*
X180625691Y-91885368D01*
X180769970Y-91958882D01*
X180769972Y-91958882D01*
X180769975Y-91958884D01*
X180870317Y-91991487D01*
X180957173Y-92019709D01*
X181151578Y-92050500D01*
X181151583Y-92050500D01*
X181848422Y-92050500D01*
X182042826Y-92019709D01*
X182230025Y-91958884D01*
X182405405Y-91869524D01*
X182564646Y-91753828D01*
X182703828Y-91614646D01*
X182819524Y-91455405D01*
X182908884Y-91280025D01*
X182969709Y-91092826D01*
X183000000Y-90901577D01*
X183000500Y-90898422D01*
X183000500Y-90701577D01*
X182969709Y-90507173D01*
X182920204Y-90354814D01*
X182908884Y-90319975D01*
X182908882Y-90319972D01*
X182908882Y-90319970D01*
X182847499Y-90199500D01*
X182819524Y-90144595D01*
X182703828Y-89985354D01*
X182564646Y-89846172D01*
X182405405Y-89730476D01*
X182380015Y-89717539D01*
X182230029Y-89641117D01*
X182042826Y-89580290D01*
X181848422Y-89549500D01*
X181848417Y-89549500D01*
X181151583Y-89549500D01*
X181151578Y-89549500D01*
X180957173Y-89580290D01*
X180769970Y-89641117D01*
X180594594Y-89730476D01*
X180561095Y-89754815D01*
X180435354Y-89846172D01*
X180435352Y-89846174D01*
X180435351Y-89846174D01*
X180296174Y-89985351D01*
X180296169Y-89985357D01*
X180292083Y-89990981D01*
X180236749Y-90033642D01*
X180167135Y-90039615D01*
X180105343Y-90007004D01*
X180070991Y-89946162D01*
X180073839Y-89879772D01*
X180129709Y-89707826D01*
X180137541Y-89658377D01*
X180160500Y-89513422D01*
X180160500Y-89316577D01*
X180129709Y-89122173D01*
X180102946Y-89039806D01*
X180073839Y-88950227D01*
X180071845Y-88880390D01*
X180107925Y-88820557D01*
X180170625Y-88789728D01*
X180240040Y-88797692D01*
X180292086Y-88839023D01*
X180295676Y-88843964D01*
X180296172Y-88844646D01*
X180435354Y-88983828D01*
X180594595Y-89099524D01*
X180655444Y-89130528D01*
X180769970Y-89188882D01*
X180769972Y-89188882D01*
X180769975Y-89188884D01*
X180870317Y-89221487D01*
X180957173Y-89249709D01*
X181151578Y-89280500D01*
X181151583Y-89280500D01*
X181848422Y-89280500D01*
X182042826Y-89249709D01*
X182230025Y-89188884D01*
X182405405Y-89099524D01*
X182564646Y-88983828D01*
X182703828Y-88844646D01*
X182819524Y-88685405D01*
X182908884Y-88510025D01*
X182969709Y-88322826D01*
X182973366Y-88299736D01*
X183000500Y-88128422D01*
X183000500Y-87931577D01*
X182969709Y-87737173D01*
X182924756Y-87598825D01*
X182908884Y-87549975D01*
X182908882Y-87549972D01*
X182908882Y-87549970D01*
X182855106Y-87444429D01*
X182819524Y-87374595D01*
X182703828Y-87215354D01*
X182564646Y-87076172D01*
X182405405Y-86960476D01*
X182230029Y-86871117D01*
X182042826Y-86810290D01*
X181848422Y-86779500D01*
X181848417Y-86779500D01*
X181151583Y-86779500D01*
X181151578Y-86779500D01*
X180957173Y-86810290D01*
X180769970Y-86871117D01*
X180594594Y-86960476D01*
X180526032Y-87010290D01*
X180435354Y-87076172D01*
X180435352Y-87076174D01*
X180435351Y-87076174D01*
X180296174Y-87215351D01*
X180296174Y-87215352D01*
X180296172Y-87215354D01*
X180251985Y-87276172D01*
X180180476Y-87374594D01*
X180091117Y-87549970D01*
X180030290Y-87737173D01*
X179999500Y-87931577D01*
X179999500Y-88128422D01*
X180030290Y-88322826D01*
X180063045Y-88423631D01*
X180084952Y-88491055D01*
X180086159Y-88494768D01*
X180088154Y-88564609D01*
X180052074Y-88624442D01*
X179989373Y-88655271D01*
X179919959Y-88647307D01*
X179867911Y-88605974D01*
X179863828Y-88600354D01*
X179724648Y-88461174D01*
X179724646Y-88461172D01*
X179565405Y-88345476D01*
X179390029Y-88256117D01*
X179202826Y-88195290D01*
X179008422Y-88164500D01*
X179008417Y-88164500D01*
X178311583Y-88164500D01*
X178311578Y-88164500D01*
X178117173Y-88195290D01*
X177929970Y-88256117D01*
X177754594Y-88345476D01*
X177696728Y-88387519D01*
X177595354Y-88461172D01*
X177595352Y-88461174D01*
X177595351Y-88461174D01*
X177456174Y-88600351D01*
X177456174Y-88600352D01*
X177456172Y-88600354D01*
X177412315Y-88660718D01*
X177340476Y-88759594D01*
X177251117Y-88934970D01*
X177190290Y-89122173D01*
X177159500Y-89316577D01*
X177159500Y-89378966D01*
X177139815Y-89446005D01*
X177087011Y-89491760D01*
X177035524Y-89502966D01*
X177000567Y-89502972D01*
X176838183Y-89535302D01*
X176713433Y-89587001D01*
X176707092Y-89589630D01*
X176685218Y-89598695D01*
X176685214Y-89598697D01*
X176547566Y-89690707D01*
X176547561Y-89690712D01*
X176430508Y-89807810D01*
X176430503Y-89807816D01*
X176338546Y-89945496D01*
X176338543Y-89945501D01*
X176275211Y-90098483D01*
X176242943Y-90260878D01*
X176242772Y-90262623D01*
X176242426Y-90263478D01*
X176241755Y-90266859D01*
X176241114Y-90266731D01*
X176216627Y-90327417D01*
X176159602Y-90367789D01*
X176119366Y-90374499D01*
X171900096Y-90374499D01*
X171833057Y-90354814D01*
X171812415Y-90338180D01*
X171411819Y-89937584D01*
X171378334Y-89876261D01*
X171375500Y-89849903D01*
X171375500Y-89518386D01*
X171375049Y-89513422D01*
X171369086Y-89447804D01*
X171318478Y-89285394D01*
X171230472Y-89139815D01*
X171230470Y-89139813D01*
X171230469Y-89139811D01*
X171110188Y-89019530D01*
X171032252Y-88972416D01*
X170964606Y-88931522D01*
X170802196Y-88880914D01*
X170802194Y-88880913D01*
X170802192Y-88880913D01*
X170752778Y-88876423D01*
X170731616Y-88874500D01*
X170068384Y-88874500D01*
X170049145Y-88876248D01*
X169997807Y-88880913D01*
X169835393Y-88931522D01*
X169689811Y-89019530D01*
X169569530Y-89139811D01*
X169481522Y-89285393D01*
X169430913Y-89447807D01*
X169424500Y-89518386D01*
X169424500Y-89650500D01*
X169404815Y-89717539D01*
X169352011Y-89763294D01*
X169300500Y-89774500D01*
X155045953Y-89774500D01*
X154978914Y-89754815D01*
X154933159Y-89702011D01*
X154923215Y-89632853D01*
X154940959Y-89584528D01*
X154950443Y-89569435D01*
X155025789Y-89449522D01*
X155085368Y-89279255D01*
X155093693Y-89205370D01*
X155105565Y-89100003D01*
X155105565Y-89099996D01*
X155085369Y-88920750D01*
X155085368Y-88920745D01*
X155073002Y-88885405D01*
X155025789Y-88750478D01*
X154990864Y-88694896D01*
X154983236Y-88682755D01*
X154929816Y-88597738D01*
X154929815Y-88597737D01*
X154925554Y-88592394D01*
X154899145Y-88527708D01*
X154898500Y-88515080D01*
X154898500Y-86546577D01*
X177104500Y-86546577D01*
X177104500Y-86743422D01*
X177135290Y-86937826D01*
X177196117Y-87125029D01*
X177270387Y-87270791D01*
X177285476Y-87300405D01*
X177401172Y-87459646D01*
X177540354Y-87598828D01*
X177699595Y-87714524D01*
X177769162Y-87749970D01*
X177874970Y-87803882D01*
X177874972Y-87803882D01*
X177874975Y-87803884D01*
X177975317Y-87836487D01*
X178062173Y-87864709D01*
X178256578Y-87895500D01*
X178256583Y-87895500D01*
X178953422Y-87895500D01*
X179147826Y-87864709D01*
X179335025Y-87803884D01*
X179510405Y-87714524D01*
X179669646Y-87598828D01*
X179808828Y-87459646D01*
X179924524Y-87300405D01*
X180013884Y-87125025D01*
X180074709Y-86937826D01*
X180082322Y-86889759D01*
X180105500Y-86743422D01*
X180105500Y-86546577D01*
X180074709Y-86352173D01*
X180023115Y-86193386D01*
X180013884Y-86164975D01*
X180013882Y-86164972D01*
X180013882Y-86164970D01*
X179956323Y-86052004D01*
X179924524Y-85989595D01*
X179808828Y-85830354D01*
X179669646Y-85691172D01*
X179510405Y-85575476D01*
X179335029Y-85486117D01*
X179147826Y-85425290D01*
X178953422Y-85394500D01*
X178953417Y-85394500D01*
X178256583Y-85394500D01*
X178256578Y-85394500D01*
X178062173Y-85425290D01*
X177874970Y-85486117D01*
X177699594Y-85575476D01*
X177631032Y-85625290D01*
X177540354Y-85691172D01*
X177540352Y-85691174D01*
X177540351Y-85691174D01*
X177401174Y-85830351D01*
X177401174Y-85830352D01*
X177401172Y-85830354D01*
X177356985Y-85891172D01*
X177285476Y-85989594D01*
X177196117Y-86164970D01*
X177135290Y-86352173D01*
X177104500Y-86546577D01*
X154898500Y-86546577D01*
X154898500Y-81181999D01*
X175194696Y-81181999D01*
X175194696Y-81182000D01*
X175213898Y-81548405D01*
X175271294Y-81910788D01*
X175271294Y-81910790D01*
X175366260Y-82265206D01*
X175497746Y-82607739D01*
X175664320Y-82934656D01*
X175864147Y-83242364D01*
X175864149Y-83242366D01*
X176095051Y-83527506D01*
X176354494Y-83786949D01*
X176354498Y-83786952D01*
X176639635Y-84017852D01*
X176947140Y-84217547D01*
X176947348Y-84217682D01*
X177274264Y-84384255D01*
X177616801Y-84515742D01*
X177971206Y-84610705D01*
X178333596Y-84668102D01*
X178679734Y-84686241D01*
X178699999Y-84687304D01*
X178700000Y-84687304D01*
X178700001Y-84687304D01*
X178719203Y-84686297D01*
X179066404Y-84668102D01*
X179428794Y-84610705D01*
X179783199Y-84515742D01*
X180032841Y-84419913D01*
X180102480Y-84414266D01*
X180164119Y-84447166D01*
X180198187Y-84508167D01*
X180193866Y-84577903D01*
X180183008Y-84600462D01*
X180180478Y-84604589D01*
X180091117Y-84779970D01*
X180030290Y-84967173D01*
X179999500Y-85161577D01*
X179999500Y-85358422D01*
X180030290Y-85552826D01*
X180091117Y-85740029D01*
X180168129Y-85891172D01*
X180180476Y-85915405D01*
X180296172Y-86074646D01*
X180435354Y-86213828D01*
X180594595Y-86329524D01*
X180664172Y-86364975D01*
X180769970Y-86418882D01*
X180769972Y-86418882D01*
X180769975Y-86418884D01*
X180870317Y-86451487D01*
X180957173Y-86479709D01*
X181151578Y-86510500D01*
X181151583Y-86510500D01*
X181848422Y-86510500D01*
X182042826Y-86479709D01*
X182053367Y-86476284D01*
X182230025Y-86418884D01*
X182405405Y-86329524D01*
X182564646Y-86213828D01*
X182703828Y-86074646D01*
X182819524Y-85915405D01*
X182908884Y-85740025D01*
X182969709Y-85552826D01*
X182980275Y-85486116D01*
X183000500Y-85358422D01*
X183000500Y-85161577D01*
X182969709Y-84967173D01*
X182929720Y-84844101D01*
X182908884Y-84779975D01*
X182908882Y-84779972D01*
X182908882Y-84779970D01*
X182851882Y-84668101D01*
X182819524Y-84604595D01*
X182703828Y-84445354D01*
X182564646Y-84306172D01*
X182405405Y-84190476D01*
X182397445Y-84186420D01*
X182230029Y-84101117D01*
X182042826Y-84040290D01*
X181848422Y-84009500D01*
X181848417Y-84009500D01*
X181151583Y-84009500D01*
X181151581Y-84009500D01*
X181135139Y-84012104D01*
X181065846Y-84003148D01*
X181012395Y-83958151D01*
X180991756Y-83891399D01*
X181010482Y-83824085D01*
X181037711Y-83793261D01*
X181045506Y-83786949D01*
X181304949Y-83527506D01*
X181535851Y-83242366D01*
X181735682Y-82934652D01*
X181902255Y-82607736D01*
X182033742Y-82265199D01*
X182128705Y-81910794D01*
X182186102Y-81548404D01*
X182205304Y-81182000D01*
X182186102Y-80815596D01*
X182128705Y-80453206D01*
X182033742Y-80098801D01*
X181902255Y-79756264D01*
X181735682Y-79429348D01*
X181650147Y-79297635D01*
X181535852Y-79121635D01*
X181304952Y-78836498D01*
X181304949Y-78836494D01*
X181045506Y-78577051D01*
X180760366Y-78346149D01*
X180760364Y-78346147D01*
X180452656Y-78146320D01*
X180125739Y-77979746D01*
X179783206Y-77848260D01*
X179783199Y-77848258D01*
X179428794Y-77753295D01*
X179428790Y-77753294D01*
X179428789Y-77753294D01*
X179066405Y-77695898D01*
X178700001Y-77676696D01*
X178699999Y-77676696D01*
X178333594Y-77695898D01*
X177971211Y-77753294D01*
X177971209Y-77753294D01*
X177616793Y-77848260D01*
X177274260Y-77979746D01*
X176947343Y-78146320D01*
X176639635Y-78346147D01*
X176354498Y-78577047D01*
X176354490Y-78577054D01*
X176095054Y-78836490D01*
X176095047Y-78836498D01*
X175864147Y-79121635D01*
X175664320Y-79429343D01*
X175497746Y-79756260D01*
X175366260Y-80098793D01*
X175271294Y-80453209D01*
X175271294Y-80453211D01*
X175213898Y-80815594D01*
X175194696Y-81181999D01*
X154898500Y-81181999D01*
X154898500Y-71365000D01*
X176544473Y-71365000D01*
X176564563Y-71697136D01*
X176564563Y-71697141D01*
X176564564Y-71697142D01*
X176624544Y-72024441D01*
X176624545Y-72024445D01*
X176624546Y-72024449D01*
X176723530Y-72342104D01*
X176723534Y-72342116D01*
X176723537Y-72342123D01*
X176860102Y-72645557D01*
X176999139Y-72875552D01*
X177032251Y-72930326D01*
X177237460Y-73192255D01*
X177472744Y-73427539D01*
X177734673Y-73632748D01*
X177734678Y-73632751D01*
X177734682Y-73632754D01*
X178019443Y-73804898D01*
X178322877Y-73941463D01*
X178322890Y-73941467D01*
X178322895Y-73941469D01*
X178534665Y-74007458D01*
X178640559Y-74040456D01*
X178967858Y-74100436D01*
X179300000Y-74120527D01*
X179632142Y-74100436D01*
X179959441Y-74040456D01*
X180277123Y-73941463D01*
X180580557Y-73804898D01*
X180865318Y-73632754D01*
X181127252Y-73427542D01*
X181362542Y-73192252D01*
X181567754Y-72930318D01*
X181739898Y-72645557D01*
X181876463Y-72342123D01*
X181975456Y-72024441D01*
X182035436Y-71697142D01*
X182055527Y-71365000D01*
X182035436Y-71032858D01*
X181975456Y-70705559D01*
X181876463Y-70387877D01*
X181739898Y-70084443D01*
X181567754Y-69799682D01*
X181567751Y-69799678D01*
X181567748Y-69799673D01*
X181362539Y-69537744D01*
X181127255Y-69302460D01*
X180865326Y-69097251D01*
X180735117Y-69018537D01*
X180580557Y-68925102D01*
X180277123Y-68788537D01*
X180277116Y-68788534D01*
X180277104Y-68788530D01*
X179959449Y-68689546D01*
X179959445Y-68689545D01*
X179959441Y-68689544D01*
X179632142Y-68629564D01*
X179632141Y-68629563D01*
X179632136Y-68629563D01*
X179300000Y-68609473D01*
X178967863Y-68629563D01*
X178967858Y-68629564D01*
X178640559Y-68689544D01*
X178640556Y-68689544D01*
X178640550Y-68689546D01*
X178322895Y-68788530D01*
X178322879Y-68788536D01*
X178322877Y-68788537D01*
X178165064Y-68859563D01*
X178019447Y-68925100D01*
X178019445Y-68925101D01*
X177734673Y-69097251D01*
X177472744Y-69302460D01*
X177237460Y-69537744D01*
X177032251Y-69799673D01*
X176860101Y-70084445D01*
X176860100Y-70084447D01*
X176723536Y-70387880D01*
X176723530Y-70387895D01*
X176624546Y-70705550D01*
X176564563Y-71032863D01*
X176544473Y-71365000D01*
X154898500Y-71365000D01*
X154898500Y-62750000D01*
X165407473Y-62750000D01*
X165427563Y-63082136D01*
X165427563Y-63082141D01*
X165427564Y-63082142D01*
X165487544Y-63409441D01*
X165487545Y-63409445D01*
X165487546Y-63409449D01*
X165586530Y-63727104D01*
X165586534Y-63727116D01*
X165586537Y-63727123D01*
X165723102Y-64030557D01*
X165883208Y-64295405D01*
X165895251Y-64315326D01*
X166100460Y-64577255D01*
X166335744Y-64812539D01*
X166597673Y-65017748D01*
X166597678Y-65017751D01*
X166597682Y-65017754D01*
X166882443Y-65189898D01*
X167185877Y-65326463D01*
X167185890Y-65326467D01*
X167185895Y-65326469D01*
X167326219Y-65370195D01*
X167503559Y-65425456D01*
X167830858Y-65485436D01*
X168163000Y-65505527D01*
X168495142Y-65485436D01*
X168822441Y-65425456D01*
X169140123Y-65326463D01*
X169443557Y-65189898D01*
X169728318Y-65017754D01*
X169752740Y-64998621D01*
X169859845Y-64914709D01*
X169990252Y-64812542D01*
X170225542Y-64577252D01*
X170430754Y-64315318D01*
X170602898Y-64030557D01*
X170739463Y-63727123D01*
X170838456Y-63409441D01*
X170898436Y-63082142D01*
X170918527Y-62750000D01*
X170898436Y-62417858D01*
X170838456Y-62090559D01*
X170785399Y-61920291D01*
X170739469Y-61772895D01*
X170739467Y-61772890D01*
X170739463Y-61772877D01*
X170602898Y-61469443D01*
X170430754Y-61184682D01*
X170430751Y-61184678D01*
X170430748Y-61184673D01*
X170225539Y-60922744D01*
X169990255Y-60687460D01*
X169728326Y-60482251D01*
X169728318Y-60482246D01*
X169443557Y-60310102D01*
X169140123Y-60173537D01*
X169140116Y-60173534D01*
X169140104Y-60173530D01*
X168822449Y-60074546D01*
X168822445Y-60074545D01*
X168822441Y-60074544D01*
X168495142Y-60014564D01*
X168495141Y-60014563D01*
X168495136Y-60014563D01*
X168163000Y-59994473D01*
X167830863Y-60014563D01*
X167830858Y-60014564D01*
X167503559Y-60074544D01*
X167503556Y-60074544D01*
X167503550Y-60074546D01*
X167185895Y-60173530D01*
X167185879Y-60173536D01*
X167185877Y-60173537D01*
X167123575Y-60201577D01*
X166882447Y-60310100D01*
X166882445Y-60310101D01*
X166597673Y-60482251D01*
X166335744Y-60687460D01*
X166100460Y-60922744D01*
X165895251Y-61184673D01*
X165885721Y-61200438D01*
X165723102Y-61469443D01*
X165595110Y-61753830D01*
X165586536Y-61772880D01*
X165586530Y-61772895D01*
X165487546Y-62090550D01*
X165487544Y-62090556D01*
X165487544Y-62090559D01*
X165480309Y-62130039D01*
X165427563Y-62417863D01*
X165407473Y-62750000D01*
X154898500Y-62750000D01*
X154898500Y-61972596D01*
X154918185Y-61905557D01*
X154949614Y-61872278D01*
X154953403Y-61869524D01*
X154953405Y-61869524D01*
X155112646Y-61753828D01*
X155251828Y-61614646D01*
X155367524Y-61455405D01*
X155456884Y-61280025D01*
X155517709Y-61092826D01*
X155526455Y-61037604D01*
X155548500Y-60898422D01*
X155548500Y-60201577D01*
X155517709Y-60007173D01*
X155489487Y-59920317D01*
X155456884Y-59819975D01*
X155456882Y-59819972D01*
X155456882Y-59819970D01*
X155367523Y-59644594D01*
X155251828Y-59485354D01*
X155112646Y-59346172D01*
X154953405Y-59230476D01*
X154778029Y-59141117D01*
X154590826Y-59080290D01*
X154396422Y-59049500D01*
X154396417Y-59049500D01*
X154199583Y-59049500D01*
X154199578Y-59049500D01*
X154005173Y-59080290D01*
X153817970Y-59141117D01*
X153642594Y-59230476D01*
X153551741Y-59296485D01*
X153483354Y-59346172D01*
X153483352Y-59346174D01*
X153483351Y-59346174D01*
X153344174Y-59485351D01*
X153344174Y-59485352D01*
X153344172Y-59485354D01*
X153294485Y-59553741D01*
X153228476Y-59644594D01*
X153139117Y-59819970D01*
X153078290Y-60007173D01*
X153047500Y-60201577D01*
X153047500Y-60898422D01*
X153078290Y-61092826D01*
X153139117Y-61280029D01*
X153214697Y-61428362D01*
X153228476Y-61455405D01*
X153344172Y-61614646D01*
X153344174Y-61614648D01*
X153483354Y-61753828D01*
X153488974Y-61757911D01*
X153531639Y-61813242D01*
X153537617Y-61882855D01*
X153505010Y-61944650D01*
X153444171Y-61979006D01*
X153377769Y-61976159D01*
X153333712Y-61961844D01*
X153205826Y-61920290D01*
X153011422Y-61889500D01*
X153011417Y-61889500D01*
X152814583Y-61889500D01*
X152814578Y-61889500D01*
X152620173Y-61920290D01*
X152448231Y-61976159D01*
X152378389Y-61978154D01*
X152318556Y-61942074D01*
X152287728Y-61879373D01*
X152295693Y-61809959D01*
X152337030Y-61757908D01*
X152342646Y-61753828D01*
X152481828Y-61614646D01*
X152597524Y-61455405D01*
X152686884Y-61280025D01*
X152747709Y-61092826D01*
X152756455Y-61037604D01*
X152778500Y-60898422D01*
X152778500Y-60201577D01*
X152747709Y-60007173D01*
X152719487Y-59920317D01*
X152686884Y-59819975D01*
X152686882Y-59819972D01*
X152686882Y-59819970D01*
X152597523Y-59644594D01*
X152481828Y-59485354D01*
X152342646Y-59346172D01*
X152183405Y-59230476D01*
X152008029Y-59141117D01*
X151820826Y-59080290D01*
X151626422Y-59049500D01*
X151626417Y-59049500D01*
X151429583Y-59049500D01*
X151429578Y-59049500D01*
X151235173Y-59080290D01*
X151047970Y-59141117D01*
X150872594Y-59230476D01*
X150781741Y-59296485D01*
X150713354Y-59346172D01*
X150713352Y-59346174D01*
X150713351Y-59346174D01*
X150574174Y-59485351D01*
X150574174Y-59485352D01*
X150574172Y-59485354D01*
X150524485Y-59553741D01*
X150458476Y-59644594D01*
X150369117Y-59819970D01*
X150308290Y-60007173D01*
X150277500Y-60201577D01*
X150277500Y-60898422D01*
X150308290Y-61092826D01*
X150369117Y-61280029D01*
X150444697Y-61428362D01*
X150458476Y-61455405D01*
X150574172Y-61614646D01*
X150713354Y-61753828D01*
X150872595Y-61869524D01*
X150943314Y-61905557D01*
X151047970Y-61958882D01*
X151047972Y-61958882D01*
X151047975Y-61958884D01*
X151101142Y-61976159D01*
X151235173Y-62019709D01*
X151429578Y-62050500D01*
X151429583Y-62050500D01*
X151626422Y-62050500D01*
X151820826Y-62019709D01*
X151828671Y-62017160D01*
X151992772Y-61963839D01*
X152062609Y-61961844D01*
X152122442Y-61997924D01*
X152153271Y-62060625D01*
X152145307Y-62130039D01*
X152103981Y-62182083D01*
X152098357Y-62186169D01*
X152098351Y-62186174D01*
X151959174Y-62325351D01*
X151959174Y-62325352D01*
X151959172Y-62325354D01*
X151919214Y-62380351D01*
X151843476Y-62484594D01*
X151754117Y-62659970D01*
X151693290Y-62847173D01*
X151662500Y-63041577D01*
X151662500Y-63738422D01*
X151693290Y-63932826D01*
X151754117Y-64120029D01*
X151843476Y-64295405D01*
X151959172Y-64454646D01*
X152098354Y-64593828D01*
X152257595Y-64709524D01*
X152432975Y-64798884D01*
X152526049Y-64829125D01*
X152583723Y-64868563D01*
X152610921Y-64932922D01*
X152602292Y-64994503D01*
X152537226Y-65151605D01*
X152537226Y-65151606D01*
X152504936Y-65314021D01*
X152504947Y-65396233D01*
X152504947Y-65436398D01*
X152504936Y-65436582D01*
X152504939Y-65465373D01*
X152504860Y-65465642D01*
X152504879Y-65599602D01*
X152537204Y-65761993D01*
X152537205Y-65761995D01*
X152600588Y-65914954D01*
X152600590Y-65914958D01*
X152692600Y-66052612D01*
X152809704Y-66169677D01*
X152947389Y-66261640D01*
X153100373Y-66324976D01*
X153100377Y-66324978D01*
X153131461Y-66331154D01*
X153147665Y-66334374D01*
X153209583Y-66366746D01*
X153244170Y-66427454D01*
X153247499Y-66455996D01*
X153247499Y-88403374D01*
X153227814Y-88470413D01*
X153211180Y-88491055D01*
X153119481Y-88582753D01*
X153119479Y-88582756D01*
X153099370Y-88617587D01*
X153074469Y-88660717D01*
X153056555Y-88691745D01*
X153045999Y-88710029D01*
X153040423Y-88719686D01*
X152999499Y-88872414D01*
X152999499Y-88872416D01*
X152999499Y-89040517D01*
X152999500Y-89040530D01*
X152999500Y-89650500D01*
X152979815Y-89717539D01*
X152927011Y-89763294D01*
X152875500Y-89774500D01*
X150382412Y-89774500D01*
X150315373Y-89754815D01*
X150305097Y-89747445D01*
X150302263Y-89745185D01*
X150302262Y-89745184D01*
X150233553Y-89702011D01*
X150149523Y-89649211D01*
X149979254Y-89589631D01*
X149979249Y-89589630D01*
X149800004Y-89569435D01*
X149799996Y-89569435D01*
X149620750Y-89589630D01*
X149620745Y-89589631D01*
X149450476Y-89649211D01*
X149297736Y-89745185D01*
X149294903Y-89747445D01*
X149292724Y-89748334D01*
X149291842Y-89748889D01*
X149291744Y-89748734D01*
X149230217Y-89773855D01*
X149217588Y-89774500D01*
X113908787Y-89774500D01*
X113841748Y-89754815D01*
X113795993Y-89702011D01*
X113786049Y-89632853D01*
X113803794Y-89584527D01*
X113825788Y-89549524D01*
X113825789Y-89549522D01*
X113885368Y-89379255D01*
X113886664Y-89367754D01*
X113905565Y-89200003D01*
X113905565Y-89199996D01*
X113885369Y-89020750D01*
X113885368Y-89020745D01*
X113855354Y-88934970D01*
X113825789Y-88850478D01*
X113818591Y-88839023D01*
X113768683Y-88759594D01*
X113729816Y-88697738D01*
X113729814Y-88697736D01*
X113729813Y-88697734D01*
X113727550Y-88694896D01*
X113726659Y-88692715D01*
X113726111Y-88691842D01*
X113726264Y-88691745D01*
X113701144Y-88630209D01*
X113700500Y-88617587D01*
X113700500Y-62750000D01*
X124209473Y-62750000D01*
X124229563Y-63082136D01*
X124229563Y-63082141D01*
X124229564Y-63082142D01*
X124289544Y-63409441D01*
X124289545Y-63409445D01*
X124289546Y-63409449D01*
X124388530Y-63727104D01*
X124388534Y-63727116D01*
X124388537Y-63727123D01*
X124525102Y-64030557D01*
X124685208Y-64295405D01*
X124697251Y-64315326D01*
X124902460Y-64577255D01*
X125137744Y-64812539D01*
X125399673Y-65017748D01*
X125399678Y-65017751D01*
X125399682Y-65017754D01*
X125684443Y-65189898D01*
X125987877Y-65326463D01*
X125987890Y-65326467D01*
X125987895Y-65326469D01*
X126128219Y-65370195D01*
X126305559Y-65425456D01*
X126632858Y-65485436D01*
X126965000Y-65505527D01*
X127297142Y-65485436D01*
X127624441Y-65425456D01*
X127942123Y-65326463D01*
X128245557Y-65189898D01*
X128530318Y-65017754D01*
X128554740Y-64998621D01*
X128661845Y-64914709D01*
X128792252Y-64812542D01*
X129027542Y-64577252D01*
X129232754Y-64315318D01*
X129404898Y-64030557D01*
X129541463Y-63727123D01*
X129640456Y-63409441D01*
X129700436Y-63082142D01*
X129720527Y-62750000D01*
X132107473Y-62750000D01*
X132127563Y-63082136D01*
X132127563Y-63082141D01*
X132127564Y-63082142D01*
X132187544Y-63409441D01*
X132187545Y-63409445D01*
X132187546Y-63409449D01*
X132286530Y-63727104D01*
X132286534Y-63727116D01*
X132286537Y-63727123D01*
X132423102Y-64030557D01*
X132583208Y-64295405D01*
X132595251Y-64315326D01*
X132800460Y-64577255D01*
X133035744Y-64812539D01*
X133297673Y-65017748D01*
X133297678Y-65017751D01*
X133297682Y-65017754D01*
X133582443Y-65189898D01*
X133885877Y-65326463D01*
X133885890Y-65326467D01*
X133885895Y-65326469D01*
X134026219Y-65370195D01*
X134203559Y-65425456D01*
X134530858Y-65485436D01*
X134863000Y-65505527D01*
X135195142Y-65485436D01*
X135522441Y-65425456D01*
X135840123Y-65326463D01*
X136143557Y-65189898D01*
X136428318Y-65017754D01*
X136452740Y-64998621D01*
X136559845Y-64914709D01*
X136690252Y-64812542D01*
X136925542Y-64577252D01*
X137130754Y-64315318D01*
X137302898Y-64030557D01*
X137439463Y-63727123D01*
X137538456Y-63409441D01*
X137549349Y-63349999D01*
X141174696Y-63349999D01*
X141174696Y-63350000D01*
X141193898Y-63716405D01*
X141251294Y-64078788D01*
X141251294Y-64078790D01*
X141346260Y-64433206D01*
X141477746Y-64775739D01*
X141644320Y-65102656D01*
X141844147Y-65410364D01*
X141934586Y-65522046D01*
X142075051Y-65695506D01*
X142334494Y-65954949D01*
X142334498Y-65954952D01*
X142619635Y-66185852D01*
X142898189Y-66366746D01*
X142927348Y-66385682D01*
X143254264Y-66552255D01*
X143596801Y-66683742D01*
X143951206Y-66778705D01*
X144313596Y-66836102D01*
X144659734Y-66854241D01*
X144679999Y-66855304D01*
X144680000Y-66855304D01*
X144680001Y-66855304D01*
X144699203Y-66854297D01*
X145046404Y-66836102D01*
X145408794Y-66778705D01*
X145763199Y-66683742D01*
X146105736Y-66552255D01*
X146432652Y-66385682D01*
X146740366Y-66185851D01*
X147025506Y-65954949D01*
X147284949Y-65695506D01*
X147515851Y-65410366D01*
X147715682Y-65102652D01*
X147882255Y-64775736D01*
X148013742Y-64433199D01*
X148108705Y-64078794D01*
X148166102Y-63716404D01*
X148185304Y-63350000D01*
X148172023Y-63096577D01*
X148892500Y-63096577D01*
X148892500Y-63793422D01*
X148923290Y-63987826D01*
X148984117Y-64175029D01*
X149045452Y-64295405D01*
X149073476Y-64350405D01*
X149189172Y-64509646D01*
X149328354Y-64648828D01*
X149487595Y-64764524D01*
X149555025Y-64798881D01*
X149662970Y-64853882D01*
X149662972Y-64853882D01*
X149662975Y-64853884D01*
X149763317Y-64886487D01*
X149850173Y-64914709D01*
X150044578Y-64945500D01*
X150044583Y-64945500D01*
X150241422Y-64945500D01*
X150435826Y-64914709D01*
X150439725Y-64913442D01*
X150623025Y-64853884D01*
X150798405Y-64764524D01*
X150957646Y-64648828D01*
X151096828Y-64509646D01*
X151212524Y-64350405D01*
X151301884Y-64175025D01*
X151362709Y-63987826D01*
X151371420Y-63932826D01*
X151393500Y-63793422D01*
X151393500Y-63096577D01*
X151362709Y-62902173D01*
X151301882Y-62714970D01*
X151212523Y-62539594D01*
X151096828Y-62380354D01*
X150957646Y-62241172D01*
X150798405Y-62125476D01*
X150623029Y-62036117D01*
X150435826Y-61975290D01*
X150241422Y-61944500D01*
X150241417Y-61944500D01*
X150044583Y-61944500D01*
X150044578Y-61944500D01*
X149850173Y-61975290D01*
X149662970Y-62036117D01*
X149487594Y-62125476D01*
X149404059Y-62186169D01*
X149328354Y-62241172D01*
X149328352Y-62241174D01*
X149328351Y-62241174D01*
X149189174Y-62380351D01*
X149189174Y-62380352D01*
X149189172Y-62380354D01*
X149161924Y-62417858D01*
X149073476Y-62539594D01*
X148984117Y-62714970D01*
X148923290Y-62902173D01*
X148892500Y-63096577D01*
X148172023Y-63096577D01*
X148166102Y-62983596D01*
X148108705Y-62621206D01*
X148013742Y-62266801D01*
X147917913Y-62017159D01*
X147912266Y-61947519D01*
X147945166Y-61885879D01*
X148006168Y-61851812D01*
X148075904Y-61856133D01*
X148098472Y-61866997D01*
X148102595Y-61869524D01*
X148277970Y-61958882D01*
X148277972Y-61958882D01*
X148277975Y-61958884D01*
X148331142Y-61976159D01*
X148465173Y-62019709D01*
X148659578Y-62050500D01*
X148659583Y-62050500D01*
X148856422Y-62050500D01*
X149050826Y-62019709D01*
X149058671Y-62017160D01*
X149238025Y-61958884D01*
X149413405Y-61869524D01*
X149572646Y-61753828D01*
X149711828Y-61614646D01*
X149827524Y-61455405D01*
X149916884Y-61280025D01*
X149977709Y-61092826D01*
X149986455Y-61037604D01*
X150008500Y-60898422D01*
X150008500Y-60201577D01*
X149977709Y-60007173D01*
X149949487Y-59920317D01*
X149916884Y-59819975D01*
X149916882Y-59819972D01*
X149916882Y-59819970D01*
X149827523Y-59644594D01*
X149711828Y-59485354D01*
X149572646Y-59346172D01*
X149413405Y-59230476D01*
X149238029Y-59141117D01*
X149050826Y-59080290D01*
X148856422Y-59049500D01*
X148856417Y-59049500D01*
X148659583Y-59049500D01*
X148659578Y-59049500D01*
X148465173Y-59080290D01*
X148277970Y-59141117D01*
X148102594Y-59230476D01*
X148011741Y-59296485D01*
X147943354Y-59346172D01*
X147943352Y-59346174D01*
X147943351Y-59346174D01*
X147804174Y-59485351D01*
X147804174Y-59485352D01*
X147804172Y-59485354D01*
X147754485Y-59553741D01*
X147688476Y-59644594D01*
X147599117Y-59819970D01*
X147538290Y-60007173D01*
X147507500Y-60201577D01*
X147507500Y-60898423D01*
X147510103Y-60914859D01*
X147501148Y-60984152D01*
X147456152Y-61037604D01*
X147389400Y-61058243D01*
X147322086Y-61039518D01*
X147291265Y-61012293D01*
X147284954Y-61004500D01*
X147284945Y-61004490D01*
X147025509Y-60745054D01*
X147025501Y-60745047D01*
X146740364Y-60514147D01*
X146432656Y-60314320D01*
X146105739Y-60147746D01*
X145763206Y-60016260D01*
X145763199Y-60016258D01*
X145408794Y-59921295D01*
X145408790Y-59921294D01*
X145408789Y-59921294D01*
X145046405Y-59863898D01*
X144680001Y-59844696D01*
X144679999Y-59844696D01*
X144313594Y-59863898D01*
X143951211Y-59921294D01*
X143951209Y-59921294D01*
X143596793Y-60016260D01*
X143254260Y-60147746D01*
X142927343Y-60314320D01*
X142619635Y-60514147D01*
X142334498Y-60745047D01*
X142334490Y-60745054D01*
X142075054Y-61004490D01*
X142075047Y-61004498D01*
X141844147Y-61289635D01*
X141644320Y-61597343D01*
X141477746Y-61924260D01*
X141346260Y-62266793D01*
X141251294Y-62621209D01*
X141251294Y-62621211D01*
X141193898Y-62983594D01*
X141174696Y-63349999D01*
X137549349Y-63349999D01*
X137598436Y-63082142D01*
X137618527Y-62750000D01*
X137598436Y-62417858D01*
X137538456Y-62090559D01*
X137485399Y-61920291D01*
X137439469Y-61772895D01*
X137439467Y-61772890D01*
X137439463Y-61772877D01*
X137302898Y-61469443D01*
X137130754Y-61184682D01*
X137130751Y-61184678D01*
X137130748Y-61184673D01*
X136925539Y-60922744D01*
X136690255Y-60687460D01*
X136428326Y-60482251D01*
X136428318Y-60482246D01*
X136143557Y-60310102D01*
X135840123Y-60173537D01*
X135840116Y-60173534D01*
X135840104Y-60173530D01*
X135522449Y-60074546D01*
X135522445Y-60074545D01*
X135522441Y-60074544D01*
X135195142Y-60014564D01*
X135195141Y-60014563D01*
X135195136Y-60014563D01*
X134863000Y-59994473D01*
X134530863Y-60014563D01*
X134530858Y-60014564D01*
X134203559Y-60074544D01*
X134203556Y-60074544D01*
X134203550Y-60074546D01*
X133885895Y-60173530D01*
X133885879Y-60173536D01*
X133885877Y-60173537D01*
X133823575Y-60201577D01*
X133582447Y-60310100D01*
X133582445Y-60310101D01*
X133297673Y-60482251D01*
X133035744Y-60687460D01*
X132800460Y-60922744D01*
X132595251Y-61184673D01*
X132585721Y-61200438D01*
X132423102Y-61469443D01*
X132295110Y-61753830D01*
X132286536Y-61772880D01*
X132286530Y-61772895D01*
X132187546Y-62090550D01*
X132187544Y-62090556D01*
X132187544Y-62090559D01*
X132180309Y-62130039D01*
X132127563Y-62417863D01*
X132107473Y-62750000D01*
X129720527Y-62750000D01*
X129700436Y-62417858D01*
X129640456Y-62090559D01*
X129587399Y-61920291D01*
X129541469Y-61772895D01*
X129541467Y-61772890D01*
X129541463Y-61772877D01*
X129404898Y-61469443D01*
X129232754Y-61184682D01*
X129232751Y-61184678D01*
X129232748Y-61184673D01*
X129027539Y-60922744D01*
X128792255Y-60687460D01*
X128530326Y-60482251D01*
X128530318Y-60482246D01*
X128245557Y-60310102D01*
X127942123Y-60173537D01*
X127942116Y-60173534D01*
X127942104Y-60173530D01*
X127624449Y-60074546D01*
X127624445Y-60074545D01*
X127624441Y-60074544D01*
X127297142Y-60014564D01*
X127297141Y-60014563D01*
X127297136Y-60014563D01*
X126965000Y-59994473D01*
X126632863Y-60014563D01*
X126632858Y-60014564D01*
X126305559Y-60074544D01*
X126305556Y-60074544D01*
X126305550Y-60074546D01*
X125987895Y-60173530D01*
X125987879Y-60173536D01*
X125987877Y-60173537D01*
X125925575Y-60201577D01*
X125684447Y-60310100D01*
X125684445Y-60310101D01*
X125399673Y-60482251D01*
X125137744Y-60687460D01*
X124902460Y-60922744D01*
X124697251Y-61184673D01*
X124687721Y-61200438D01*
X124525102Y-61469443D01*
X124397110Y-61753830D01*
X124388536Y-61772880D01*
X124388530Y-61772895D01*
X124289546Y-62090550D01*
X124289544Y-62090556D01*
X124289544Y-62090559D01*
X124282309Y-62130039D01*
X124229563Y-62417863D01*
X124209473Y-62750000D01*
X113700500Y-62750000D01*
X113700500Y-61972596D01*
X113720185Y-61905557D01*
X113751614Y-61872278D01*
X113755403Y-61869524D01*
X113755405Y-61869524D01*
X113914646Y-61753828D01*
X114053828Y-61614646D01*
X114169524Y-61455405D01*
X114258884Y-61280025D01*
X114319709Y-61092826D01*
X114328455Y-61037604D01*
X114350500Y-60898422D01*
X114350500Y-60201577D01*
X114319709Y-60007173D01*
X114291487Y-59920317D01*
X114258884Y-59819975D01*
X114258882Y-59819972D01*
X114258882Y-59819970D01*
X114169523Y-59644594D01*
X114053828Y-59485354D01*
X113914646Y-59346172D01*
X113755405Y-59230476D01*
X113580029Y-59141117D01*
X113392826Y-59080290D01*
X113198422Y-59049500D01*
X113198417Y-59049500D01*
X113001583Y-59049500D01*
X113001578Y-59049500D01*
X112807173Y-59080290D01*
X112619970Y-59141117D01*
X112444594Y-59230476D01*
X112353741Y-59296485D01*
X112285354Y-59346172D01*
X112285352Y-59346174D01*
X112285351Y-59346174D01*
X112146174Y-59485351D01*
X112146174Y-59485352D01*
X112146172Y-59485354D01*
X112096485Y-59553741D01*
X112030476Y-59644594D01*
X111941117Y-59819970D01*
X111880290Y-60007173D01*
X111849500Y-60201577D01*
X111849500Y-60898422D01*
X111880290Y-61092826D01*
X111941117Y-61280029D01*
X112016697Y-61428362D01*
X112030476Y-61455405D01*
X112146172Y-61614646D01*
X112146174Y-61614648D01*
X112285354Y-61753828D01*
X112290974Y-61757911D01*
X112333639Y-61813242D01*
X112339617Y-61882855D01*
X112307010Y-61944650D01*
X112246171Y-61979006D01*
X112179769Y-61976159D01*
X112135712Y-61961844D01*
X112007826Y-61920290D01*
X111813422Y-61889500D01*
X111813417Y-61889500D01*
X111616583Y-61889500D01*
X111616578Y-61889500D01*
X111422173Y-61920290D01*
X111250231Y-61976159D01*
X111180389Y-61978154D01*
X111120556Y-61942074D01*
X111089728Y-61879373D01*
X111097693Y-61809959D01*
X111139030Y-61757908D01*
X111144646Y-61753828D01*
X111283828Y-61614646D01*
X111399524Y-61455405D01*
X111488884Y-61280025D01*
X111549709Y-61092826D01*
X111558455Y-61037604D01*
X111580500Y-60898422D01*
X111580500Y-60201577D01*
X111549709Y-60007173D01*
X111521487Y-59920317D01*
X111488884Y-59819975D01*
X111488882Y-59819972D01*
X111488882Y-59819970D01*
X111399523Y-59644594D01*
X111283828Y-59485354D01*
X111144646Y-59346172D01*
X110985405Y-59230476D01*
X110810029Y-59141117D01*
X110622826Y-59080290D01*
X110428422Y-59049500D01*
X110428417Y-59049500D01*
X110231583Y-59049500D01*
X110231578Y-59049500D01*
X110037173Y-59080290D01*
X109849970Y-59141117D01*
X109674594Y-59230476D01*
X109583741Y-59296485D01*
X109515354Y-59346172D01*
X109515352Y-59346174D01*
X109515351Y-59346174D01*
X109376174Y-59485351D01*
X109376174Y-59485352D01*
X109376172Y-59485354D01*
X109326485Y-59553741D01*
X109260476Y-59644594D01*
X109171117Y-59819970D01*
X109110290Y-60007173D01*
X109079500Y-60201577D01*
X109079500Y-60898422D01*
X109110290Y-61092826D01*
X109171117Y-61280029D01*
X109246697Y-61428362D01*
X109260476Y-61455405D01*
X109376172Y-61614646D01*
X109515354Y-61753828D01*
X109674595Y-61869524D01*
X109745314Y-61905557D01*
X109849970Y-61958882D01*
X109849972Y-61958882D01*
X109849975Y-61958884D01*
X109903142Y-61976159D01*
X110037173Y-62019709D01*
X110231578Y-62050500D01*
X110231583Y-62050500D01*
X110428422Y-62050500D01*
X110622826Y-62019709D01*
X110630671Y-62017160D01*
X110794772Y-61963839D01*
X110864609Y-61961844D01*
X110924442Y-61997924D01*
X110955271Y-62060625D01*
X110947307Y-62130039D01*
X110905981Y-62182083D01*
X110900357Y-62186169D01*
X110900351Y-62186174D01*
X110761174Y-62325351D01*
X110761174Y-62325352D01*
X110761172Y-62325354D01*
X110721214Y-62380351D01*
X110645476Y-62484594D01*
X110556117Y-62659970D01*
X110495290Y-62847173D01*
X110464500Y-63041577D01*
X110464500Y-63738422D01*
X110495290Y-63932826D01*
X110556117Y-64120029D01*
X110645476Y-64295405D01*
X110761172Y-64454646D01*
X110900354Y-64593828D01*
X110976055Y-64648828D01*
X111059596Y-64709525D01*
X111187446Y-64774667D01*
X111238243Y-64822641D01*
X111255038Y-64890462D01*
X111234247Y-64954054D01*
X111169404Y-65051074D01*
X111169402Y-65051077D01*
X111106032Y-65204006D01*
X111073710Y-65366352D01*
X111073694Y-65366519D01*
X111073694Y-65449131D01*
X111073679Y-65529510D01*
X111073694Y-65529753D01*
X111073694Y-65651531D01*
X111073731Y-65651913D01*
X111073732Y-65651918D01*
X111106005Y-65814316D01*
X111164231Y-65954949D01*
X111169345Y-65967299D01*
X111218158Y-66040375D01*
X111239027Y-66107055D01*
X111220532Y-66174433D01*
X111218140Y-66178153D01*
X111169408Y-66251067D01*
X111169402Y-66251077D01*
X111106032Y-66404006D01*
X111073710Y-66566352D01*
X111073694Y-66566519D01*
X111073694Y-66570195D01*
X111073694Y-66648752D01*
X111073694Y-66649132D01*
X111073688Y-66683742D01*
X111073679Y-66729510D01*
X111073694Y-66729753D01*
X111073694Y-66851531D01*
X111073731Y-66851913D01*
X111106005Y-67014316D01*
X111169345Y-67167299D01*
X111218158Y-67240375D01*
X111239027Y-67307055D01*
X111220532Y-67374433D01*
X111218140Y-67378153D01*
X111169408Y-67451067D01*
X111169402Y-67451077D01*
X111106032Y-67604006D01*
X111073710Y-67766352D01*
X111073694Y-67766519D01*
X111073694Y-67849131D01*
X111073679Y-67929510D01*
X111073694Y-67929753D01*
X111073694Y-68051531D01*
X111073731Y-68051913D01*
X111106005Y-68214316D01*
X111169345Y-68367300D01*
X111261312Y-68504977D01*
X111261315Y-68504981D01*
X111378374Y-68622067D01*
X111378376Y-68622068D01*
X111516037Y-68714068D01*
X111669002Y-68777440D01*
X111831392Y-68809749D01*
X111831394Y-68809749D01*
X111831419Y-68809752D01*
X111914179Y-68809752D01*
X111925499Y-68809752D01*
X111992538Y-68829437D01*
X112038293Y-68882241D01*
X112049499Y-68933752D01*
X112049499Y-88501374D01*
X112029814Y-88568413D01*
X112013180Y-88589055D01*
X111919481Y-88682753D01*
X111919479Y-88682755D01*
X111902491Y-88712181D01*
X111879775Y-88751527D01*
X111840423Y-88819686D01*
X111799499Y-88972414D01*
X111799499Y-88972416D01*
X111799499Y-89140517D01*
X111799500Y-89140530D01*
X111799500Y-89650500D01*
X111779815Y-89717539D01*
X111727011Y-89763294D01*
X111675500Y-89774500D01*
X109082412Y-89774500D01*
X109015373Y-89754815D01*
X109005097Y-89747445D01*
X109002263Y-89745185D01*
X109002262Y-89745184D01*
X108933553Y-89702011D01*
X108849523Y-89649211D01*
X108679254Y-89589631D01*
X108679249Y-89589630D01*
X108500004Y-89569435D01*
X108499996Y-89569435D01*
X108320750Y-89589630D01*
X108320745Y-89589631D01*
X108150476Y-89649211D01*
X107997736Y-89745185D01*
X107994903Y-89747445D01*
X107992724Y-89748334D01*
X107991842Y-89748889D01*
X107991744Y-89748734D01*
X107930217Y-89773855D01*
X107917588Y-89774500D01*
X90372271Y-89774500D01*
X90305232Y-89754815D01*
X90259477Y-89702011D01*
X90249533Y-89632853D01*
X90269168Y-89581611D01*
X90309850Y-89520722D01*
X90309855Y-89520715D01*
X90373210Y-89367754D01*
X90405507Y-89205371D01*
X90405505Y-89039809D01*
X90405505Y-89039806D01*
X90405505Y-89039805D01*
X90373205Y-88877431D01*
X90373204Y-88877429D01*
X90373204Y-88877427D01*
X90309845Y-88724468D01*
X90300197Y-88710029D01*
X90217863Y-88586807D01*
X90217855Y-88586798D01*
X90159327Y-88528272D01*
X90159328Y-88528272D01*
X90122949Y-88491894D01*
X90018574Y-88387519D01*
X90018573Y-88387518D01*
X90015942Y-88384887D01*
X90015935Y-88384881D01*
X89878286Y-88292908D01*
X89878279Y-88292904D01*
X89878276Y-88292902D01*
X89878272Y-88292900D01*
X89878268Y-88292898D01*
X89725318Y-88229545D01*
X89725316Y-88229544D01*
X89725315Y-88229544D01*
X89725310Y-88229543D01*
X89725306Y-88229542D01*
X89639272Y-88212429D01*
X89577361Y-88180045D01*
X89542787Y-88119329D01*
X89541849Y-88115019D01*
X89524690Y-88028815D01*
X89524688Y-88028810D01*
X89469447Y-87895500D01*
X89461304Y-87875850D01*
X89453857Y-87864709D01*
X89369296Y-87738196D01*
X89369291Y-87738190D01*
X89310745Y-87679663D01*
X89167784Y-87536702D01*
X89167450Y-87536428D01*
X89052570Y-87459648D01*
X89029801Y-87444430D01*
X89029800Y-87444429D01*
X88940225Y-87407314D01*
X88876851Y-87381055D01*
X88790674Y-87363903D01*
X88728768Y-87331511D01*
X88694201Y-87270791D01*
X88693266Y-87266492D01*
X88683089Y-87215354D01*
X88676124Y-87180355D01*
X88667888Y-87160476D01*
X88612759Y-87027409D01*
X88612754Y-87027401D01*
X88520774Y-86889759D01*
X88520772Y-86889756D01*
X88462237Y-86831225D01*
X88458496Y-86827484D01*
X88434332Y-86803320D01*
X88434295Y-86803278D01*
X88413725Y-86782709D01*
X88413663Y-86782596D01*
X88318867Y-86687811D01*
X88318863Y-86687807D01*
X88215699Y-86618882D01*
X88181196Y-86595830D01*
X88181186Y-86595824D01*
X88028218Y-86532474D01*
X87865825Y-86500183D01*
X87700255Y-86500194D01*
X87700254Y-86500194D01*
X87537867Y-86532509D01*
X87537860Y-86532511D01*
X87384901Y-86595884D01*
X87384900Y-86595884D01*
X87265849Y-86675448D01*
X87199173Y-86696332D01*
X87131792Y-86677853D01*
X87109268Y-86660033D01*
X86932590Y-86483355D01*
X86932588Y-86483352D01*
X86813717Y-86364481D01*
X86813716Y-86364480D01*
X86726904Y-86314360D01*
X86726904Y-86314359D01*
X86726900Y-86314358D01*
X86676785Y-86285423D01*
X86524057Y-86244499D01*
X86365943Y-86244499D01*
X86358347Y-86244499D01*
X86358331Y-86244500D01*
X84812596Y-86244500D01*
X84745557Y-86224815D01*
X84712278Y-86193386D01*
X84691636Y-86164975D01*
X84593828Y-86030354D01*
X84454646Y-85891172D01*
X84295405Y-85775476D01*
X84250952Y-85752826D01*
X84120029Y-85686117D01*
X83932826Y-85625290D01*
X83738422Y-85594500D01*
X83738417Y-85594500D01*
X83041583Y-85594500D01*
X83041578Y-85594500D01*
X82847173Y-85625290D01*
X82659970Y-85686117D01*
X82484594Y-85775476D01*
X82409066Y-85830351D01*
X82325354Y-85891172D01*
X82325352Y-85891174D01*
X82325351Y-85891174D01*
X82186174Y-86030351D01*
X82186169Y-86030357D01*
X82182083Y-86035981D01*
X82126749Y-86078642D01*
X82057135Y-86084615D01*
X81995343Y-86052004D01*
X81960991Y-85991162D01*
X81963839Y-85924772D01*
X82019709Y-85752826D01*
X82021736Y-85740029D01*
X82050500Y-85558422D01*
X82050500Y-85361577D01*
X82019709Y-85167173D01*
X81958882Y-84979970D01*
X81909946Y-84883930D01*
X81869524Y-84804595D01*
X81869522Y-84804592D01*
X81869521Y-84804590D01*
X81848228Y-84775283D01*
X81824747Y-84709477D01*
X81840572Y-84641423D01*
X81890677Y-84592728D01*
X81959155Y-84578852D01*
X81992978Y-84586632D01*
X82238906Y-84681034D01*
X82255239Y-84687304D01*
X82266801Y-84691742D01*
X82621206Y-84786705D01*
X82983596Y-84844102D01*
X83329734Y-84862241D01*
X83349999Y-84863304D01*
X83350000Y-84863304D01*
X83350001Y-84863304D01*
X83369203Y-84862297D01*
X83716404Y-84844102D01*
X84078794Y-84786705D01*
X84433199Y-84691742D01*
X84775736Y-84560255D01*
X85102652Y-84393682D01*
X85410366Y-84193851D01*
X85695506Y-83962949D01*
X85954949Y-83703506D01*
X86185851Y-83418366D01*
X86385682Y-83110652D01*
X86552255Y-82783736D01*
X86683742Y-82441199D01*
X86778705Y-82086794D01*
X86836102Y-81724404D01*
X86855304Y-81358000D01*
X86836102Y-80991596D01*
X86778705Y-80629206D01*
X86683742Y-80274801D01*
X86552255Y-79932264D01*
X86385682Y-79605348D01*
X86271387Y-79429348D01*
X86185852Y-79297635D01*
X85954952Y-79012498D01*
X85954949Y-79012494D01*
X85695506Y-78753051D01*
X85478168Y-78577054D01*
X85410364Y-78522147D01*
X85102656Y-78322320D01*
X84775739Y-78155746D01*
X84433206Y-78024260D01*
X84433199Y-78024258D01*
X84078794Y-77929295D01*
X84078790Y-77929294D01*
X84078789Y-77929294D01*
X83716405Y-77871898D01*
X83350001Y-77852696D01*
X83349999Y-77852696D01*
X82983594Y-77871898D01*
X82621211Y-77929294D01*
X82621209Y-77929294D01*
X82266793Y-78024260D01*
X81924260Y-78155746D01*
X81597343Y-78322320D01*
X81289635Y-78522147D01*
X81004498Y-78753047D01*
X81004490Y-78753054D01*
X80745054Y-79012490D01*
X80745047Y-79012498D01*
X80514147Y-79297635D01*
X80314320Y-79605343D01*
X80147746Y-79932260D01*
X80016260Y-80274793D01*
X79921294Y-80629209D01*
X79921294Y-80629211D01*
X79863898Y-80991594D01*
X79844696Y-81357999D01*
X79844696Y-81358000D01*
X79863898Y-81724405D01*
X79921294Y-82086788D01*
X79921294Y-82086790D01*
X80016260Y-82441206D01*
X80147746Y-82783739D01*
X80314320Y-83110656D01*
X80514147Y-83418364D01*
X80745047Y-83703501D01*
X80745054Y-83703509D01*
X81004495Y-83962950D01*
X81015276Y-83971680D01*
X81049135Y-83999099D01*
X81088847Y-84056585D01*
X81091175Y-84126416D01*
X81055380Y-84186420D01*
X80992827Y-84217547D01*
X80951703Y-84217939D01*
X80898417Y-84209500D01*
X80201583Y-84209500D01*
X80201578Y-84209500D01*
X80007173Y-84240290D01*
X79819970Y-84301117D01*
X79644594Y-84390476D01*
X79604077Y-84419914D01*
X79485354Y-84506172D01*
X79485352Y-84506174D01*
X79485351Y-84506174D01*
X79346174Y-84645351D01*
X79346174Y-84645352D01*
X79346172Y-84645354D01*
X79312471Y-84691739D01*
X79230476Y-84804594D01*
X79141117Y-84979970D01*
X79080290Y-85167173D01*
X79049500Y-85361577D01*
X71500500Y-85361577D01*
X71500500Y-71595000D01*
X79994473Y-71595000D01*
X80014563Y-71927136D01*
X80014563Y-71927141D01*
X80014564Y-71927142D01*
X80074544Y-72254441D01*
X80074545Y-72254445D01*
X80074546Y-72254449D01*
X80173530Y-72572104D01*
X80173534Y-72572116D01*
X80173537Y-72572123D01*
X80310102Y-72875557D01*
X80482246Y-73160318D01*
X80482251Y-73160326D01*
X80687460Y-73422255D01*
X80922744Y-73657539D01*
X81184673Y-73862748D01*
X81184678Y-73862751D01*
X81184682Y-73862754D01*
X81469443Y-74034898D01*
X81772877Y-74171463D01*
X81772890Y-74171467D01*
X81772895Y-74171469D01*
X81984665Y-74237458D01*
X82090559Y-74270456D01*
X82417858Y-74330436D01*
X82750000Y-74350527D01*
X83082142Y-74330436D01*
X83409441Y-74270456D01*
X83727123Y-74171463D01*
X84030557Y-74034898D01*
X84315318Y-73862754D01*
X84577252Y-73657542D01*
X84812542Y-73422252D01*
X85017754Y-73160318D01*
X85189898Y-72875557D01*
X85326463Y-72572123D01*
X85425456Y-72254441D01*
X85485436Y-71927142D01*
X85505527Y-71595000D01*
X85485436Y-71262858D01*
X85425456Y-70935559D01*
X85326463Y-70617877D01*
X85189898Y-70314443D01*
X85017754Y-70029682D01*
X85017751Y-70029678D01*
X85017748Y-70029673D01*
X84812539Y-69767744D01*
X84577255Y-69532460D01*
X84315326Y-69327251D01*
X84274317Y-69302460D01*
X84030557Y-69155102D01*
X83727123Y-69018537D01*
X83727116Y-69018534D01*
X83727104Y-69018530D01*
X83409449Y-68919546D01*
X83409445Y-68919545D01*
X83409441Y-68919544D01*
X83082142Y-68859564D01*
X83082141Y-68859563D01*
X83082136Y-68859563D01*
X82750000Y-68839473D01*
X82417863Y-68859563D01*
X82417858Y-68859564D01*
X82090559Y-68919544D01*
X82090556Y-68919544D01*
X82090550Y-68919546D01*
X81772895Y-69018530D01*
X81772879Y-69018536D01*
X81772877Y-69018537D01*
X81597993Y-69097246D01*
X81469447Y-69155100D01*
X81469445Y-69155101D01*
X81184673Y-69327251D01*
X80922744Y-69532460D01*
X80687460Y-69767744D01*
X80482251Y-70029673D01*
X80310101Y-70314445D01*
X80310100Y-70314447D01*
X80173536Y-70617880D01*
X80173530Y-70617895D01*
X80074546Y-70935550D01*
X80074544Y-70935556D01*
X80074544Y-70935559D01*
X80026122Y-71199786D01*
X80014563Y-71262863D01*
X79994473Y-71595000D01*
X71500500Y-71595000D01*
X71500500Y-62750000D01*
X90909473Y-62750000D01*
X90929563Y-63082136D01*
X90929563Y-63082141D01*
X90929564Y-63082142D01*
X90989544Y-63409441D01*
X90989545Y-63409445D01*
X90989546Y-63409449D01*
X91088530Y-63727104D01*
X91088534Y-63727116D01*
X91088537Y-63727123D01*
X91225102Y-64030557D01*
X91385208Y-64295405D01*
X91397251Y-64315326D01*
X91602460Y-64577255D01*
X91837744Y-64812539D01*
X92099673Y-65017748D01*
X92099678Y-65017751D01*
X92099682Y-65017754D01*
X92384443Y-65189898D01*
X92687877Y-65326463D01*
X92687890Y-65326467D01*
X92687895Y-65326469D01*
X92828219Y-65370195D01*
X93005559Y-65425456D01*
X93332858Y-65485436D01*
X93665000Y-65505527D01*
X93997142Y-65485436D01*
X94324441Y-65425456D01*
X94642123Y-65326463D01*
X94945557Y-65189898D01*
X95230318Y-65017754D01*
X95254740Y-64998621D01*
X95361845Y-64914709D01*
X95492252Y-64812542D01*
X95727542Y-64577252D01*
X95932754Y-64315318D01*
X96104898Y-64030557D01*
X96241463Y-63727123D01*
X96340456Y-63409441D01*
X96351349Y-63349999D01*
X99976696Y-63349999D01*
X99976696Y-63350000D01*
X99995898Y-63716405D01*
X100053294Y-64078788D01*
X100053294Y-64078790D01*
X100148260Y-64433206D01*
X100279746Y-64775739D01*
X100446320Y-65102656D01*
X100646147Y-65410364D01*
X100736586Y-65522046D01*
X100877051Y-65695506D01*
X101136494Y-65954949D01*
X101136498Y-65954952D01*
X101421635Y-66185852D01*
X101700189Y-66366746D01*
X101729348Y-66385682D01*
X102056264Y-66552255D01*
X102398801Y-66683742D01*
X102753206Y-66778705D01*
X103115596Y-66836102D01*
X103461734Y-66854241D01*
X103481999Y-66855304D01*
X103482000Y-66855304D01*
X103482001Y-66855304D01*
X103501203Y-66854297D01*
X103848404Y-66836102D01*
X104210794Y-66778705D01*
X104565199Y-66683742D01*
X104907736Y-66552255D01*
X105234652Y-66385682D01*
X105542366Y-66185851D01*
X105827506Y-65954949D01*
X106086949Y-65695506D01*
X106317851Y-65410366D01*
X106517682Y-65102652D01*
X106684255Y-64775736D01*
X106815742Y-64433199D01*
X106910705Y-64078794D01*
X106968102Y-63716404D01*
X106987304Y-63350000D01*
X106974023Y-63096577D01*
X107694500Y-63096577D01*
X107694500Y-63793422D01*
X107725290Y-63987826D01*
X107786117Y-64175029D01*
X107847452Y-64295405D01*
X107875476Y-64350405D01*
X107991172Y-64509646D01*
X108130354Y-64648828D01*
X108289595Y-64764524D01*
X108357025Y-64798881D01*
X108464970Y-64853882D01*
X108464972Y-64853882D01*
X108464975Y-64853884D01*
X108565317Y-64886487D01*
X108652173Y-64914709D01*
X108846578Y-64945500D01*
X108846583Y-64945500D01*
X109043422Y-64945500D01*
X109237826Y-64914709D01*
X109241725Y-64913442D01*
X109425025Y-64853884D01*
X109600405Y-64764524D01*
X109759646Y-64648828D01*
X109898828Y-64509646D01*
X110014524Y-64350405D01*
X110103884Y-64175025D01*
X110164709Y-63987826D01*
X110173420Y-63932826D01*
X110195500Y-63793422D01*
X110195500Y-63096577D01*
X110164709Y-62902173D01*
X110103882Y-62714970D01*
X110014523Y-62539594D01*
X109898828Y-62380354D01*
X109759646Y-62241172D01*
X109600405Y-62125476D01*
X109425029Y-62036117D01*
X109237826Y-61975290D01*
X109043422Y-61944500D01*
X109043417Y-61944500D01*
X108846583Y-61944500D01*
X108846578Y-61944500D01*
X108652173Y-61975290D01*
X108464970Y-62036117D01*
X108289594Y-62125476D01*
X108206059Y-62186169D01*
X108130354Y-62241172D01*
X108130352Y-62241174D01*
X108130351Y-62241174D01*
X107991174Y-62380351D01*
X107991174Y-62380352D01*
X107991172Y-62380354D01*
X107963924Y-62417858D01*
X107875476Y-62539594D01*
X107786117Y-62714970D01*
X107725290Y-62902173D01*
X107694500Y-63096577D01*
X106974023Y-63096577D01*
X106968102Y-62983596D01*
X106910705Y-62621206D01*
X106815742Y-62266801D01*
X106719913Y-62017159D01*
X106714266Y-61947519D01*
X106747166Y-61885879D01*
X106808168Y-61851812D01*
X106877904Y-61856133D01*
X106900472Y-61866997D01*
X106904595Y-61869524D01*
X107079970Y-61958882D01*
X107079972Y-61958882D01*
X107079975Y-61958884D01*
X107133142Y-61976159D01*
X107267173Y-62019709D01*
X107461578Y-62050500D01*
X107461583Y-62050500D01*
X107658422Y-62050500D01*
X107852826Y-62019709D01*
X107860671Y-62017160D01*
X108040025Y-61958884D01*
X108215405Y-61869524D01*
X108374646Y-61753828D01*
X108513828Y-61614646D01*
X108629524Y-61455405D01*
X108718884Y-61280025D01*
X108779709Y-61092826D01*
X108788455Y-61037604D01*
X108810500Y-60898422D01*
X108810500Y-60201577D01*
X108779709Y-60007173D01*
X108751487Y-59920317D01*
X108718884Y-59819975D01*
X108718882Y-59819972D01*
X108718882Y-59819970D01*
X108629523Y-59644594D01*
X108513828Y-59485354D01*
X108374646Y-59346172D01*
X108215405Y-59230476D01*
X108040029Y-59141117D01*
X107852826Y-59080290D01*
X107658422Y-59049500D01*
X107658417Y-59049500D01*
X107461583Y-59049500D01*
X107461578Y-59049500D01*
X107267173Y-59080290D01*
X107079970Y-59141117D01*
X106904594Y-59230476D01*
X106813741Y-59296485D01*
X106745354Y-59346172D01*
X106745352Y-59346174D01*
X106745351Y-59346174D01*
X106606174Y-59485351D01*
X106606174Y-59485352D01*
X106606172Y-59485354D01*
X106556485Y-59553741D01*
X106490476Y-59644594D01*
X106401117Y-59819970D01*
X106340290Y-60007173D01*
X106309500Y-60201577D01*
X106309500Y-60898423D01*
X106312103Y-60914859D01*
X106303148Y-60984152D01*
X106258152Y-61037604D01*
X106191400Y-61058243D01*
X106124086Y-61039518D01*
X106093265Y-61012293D01*
X106086954Y-61004500D01*
X106086945Y-61004490D01*
X105827509Y-60745054D01*
X105827501Y-60745047D01*
X105542364Y-60514147D01*
X105234656Y-60314320D01*
X104907739Y-60147746D01*
X104565206Y-60016260D01*
X104565199Y-60016258D01*
X104210794Y-59921295D01*
X104210790Y-59921294D01*
X104210789Y-59921294D01*
X103848405Y-59863898D01*
X103482001Y-59844696D01*
X103481999Y-59844696D01*
X103115594Y-59863898D01*
X102753211Y-59921294D01*
X102753209Y-59921294D01*
X102398793Y-60016260D01*
X102056260Y-60147746D01*
X101729343Y-60314320D01*
X101421635Y-60514147D01*
X101136498Y-60745047D01*
X101136490Y-60745054D01*
X100877054Y-61004490D01*
X100877047Y-61004498D01*
X100646147Y-61289635D01*
X100446320Y-61597343D01*
X100279746Y-61924260D01*
X100148260Y-62266793D01*
X100053294Y-62621209D01*
X100053294Y-62621211D01*
X99995898Y-62983594D01*
X99976696Y-63349999D01*
X96351349Y-63349999D01*
X96400436Y-63082142D01*
X96420527Y-62750000D01*
X96400436Y-62417858D01*
X96340456Y-62090559D01*
X96287399Y-61920291D01*
X96241469Y-61772895D01*
X96241467Y-61772890D01*
X96241463Y-61772877D01*
X96104898Y-61469443D01*
X95932754Y-61184682D01*
X95932751Y-61184678D01*
X95932748Y-61184673D01*
X95727539Y-60922744D01*
X95492255Y-60687460D01*
X95230326Y-60482251D01*
X95230318Y-60482246D01*
X94945557Y-60310102D01*
X94642123Y-60173537D01*
X94642116Y-60173534D01*
X94642104Y-60173530D01*
X94324449Y-60074546D01*
X94324445Y-60074545D01*
X94324441Y-60074544D01*
X93997142Y-60014564D01*
X93997141Y-60014563D01*
X93997136Y-60014563D01*
X93665000Y-59994473D01*
X93332863Y-60014563D01*
X93332858Y-60014564D01*
X93005559Y-60074544D01*
X93005556Y-60074544D01*
X93005550Y-60074546D01*
X92687895Y-60173530D01*
X92687879Y-60173536D01*
X92687877Y-60173537D01*
X92625575Y-60201577D01*
X92384447Y-60310100D01*
X92384445Y-60310101D01*
X92099673Y-60482251D01*
X91837744Y-60687460D01*
X91602460Y-60922744D01*
X91397251Y-61184673D01*
X91387721Y-61200438D01*
X91225102Y-61469443D01*
X91097110Y-61753830D01*
X91088536Y-61772880D01*
X91088530Y-61772895D01*
X90989546Y-62090550D01*
X90989544Y-62090556D01*
X90989544Y-62090559D01*
X90982309Y-62130039D01*
X90929563Y-62417863D01*
X90909473Y-62750000D01*
X71500500Y-62750000D01*
X71500500Y-57500000D01*
X73494675Y-57500000D01*
X73513962Y-57892591D01*
X73513962Y-57892597D01*
X73513963Y-57892599D01*
X73571637Y-58281406D01*
X73667143Y-58662684D01*
X73799561Y-59032770D01*
X73799562Y-59032772D01*
X73967620Y-59388100D01*
X74121357Y-59644594D01*
X74169694Y-59725239D01*
X74385528Y-60016258D01*
X74403846Y-60040956D01*
X74667807Y-60332192D01*
X74868566Y-60514149D01*
X74959049Y-60596158D01*
X75274761Y-60830306D01*
X75274763Y-60830307D01*
X75611899Y-61032379D01*
X75611902Y-61032380D01*
X75611903Y-61032381D01*
X75967228Y-61200438D01*
X76337316Y-61332857D01*
X76718600Y-61428364D01*
X77107409Y-61486038D01*
X77500000Y-61505325D01*
X77892591Y-61486038D01*
X78281400Y-61428364D01*
X78662684Y-61332857D01*
X79032772Y-61200438D01*
X79388097Y-61032381D01*
X79725239Y-60830306D01*
X80040951Y-60596158D01*
X80332192Y-60332192D01*
X80596158Y-60040951D01*
X80830306Y-59725239D01*
X81032381Y-59388097D01*
X81200438Y-59032772D01*
X81332857Y-58662684D01*
X81428364Y-58281400D01*
X81486038Y-57892591D01*
X81505325Y-57500000D01*
X180494675Y-57500000D01*
X180513962Y-57892591D01*
X180513962Y-57892597D01*
X180513963Y-57892599D01*
X180571637Y-58281406D01*
X180667143Y-58662684D01*
X180799561Y-59032770D01*
X180799562Y-59032772D01*
X180967620Y-59388100D01*
X181121357Y-59644594D01*
X181169694Y-59725239D01*
X181385528Y-60016258D01*
X181403846Y-60040956D01*
X181667807Y-60332192D01*
X181868566Y-60514149D01*
X181959049Y-60596158D01*
X182274761Y-60830306D01*
X182274763Y-60830307D01*
X182611899Y-61032379D01*
X182611902Y-61032380D01*
X182611903Y-61032381D01*
X182967228Y-61200438D01*
X183337316Y-61332857D01*
X183718600Y-61428364D01*
X184107409Y-61486038D01*
X184500000Y-61505325D01*
X184892591Y-61486038D01*
X185281400Y-61428364D01*
X185662684Y-61332857D01*
X186032772Y-61200438D01*
X186388097Y-61032381D01*
X186725239Y-60830306D01*
X187040951Y-60596158D01*
X187332192Y-60332192D01*
X187596158Y-60040951D01*
X187830306Y-59725239D01*
X188032381Y-59388097D01*
X188200438Y-59032772D01*
X188332857Y-58662684D01*
X188428364Y-58281400D01*
X188486038Y-57892591D01*
X188505325Y-57500000D01*
X188486038Y-57107409D01*
X188428364Y-56718600D01*
X188332857Y-56337316D01*
X188200438Y-55967228D01*
X188032381Y-55611903D01*
X187830306Y-55274761D01*
X187596158Y-54959049D01*
X187596153Y-54959043D01*
X187332192Y-54667807D01*
X187040956Y-54403846D01*
X186725236Y-54169692D01*
X186388100Y-53967620D01*
X186032772Y-53799562D01*
X186032770Y-53799561D01*
X185662684Y-53667143D01*
X185281406Y-53571637D01*
X185281401Y-53571636D01*
X185281400Y-53571636D01*
X185137256Y-53550254D01*
X184892599Y-53513963D01*
X184892597Y-53513962D01*
X184892591Y-53513962D01*
X184500000Y-53494675D01*
X184107409Y-53513962D01*
X184107403Y-53513962D01*
X184107400Y-53513963D01*
X183718593Y-53571637D01*
X183337315Y-53667143D01*
X182967229Y-53799561D01*
X182967227Y-53799562D01*
X182611899Y-53967620D01*
X182274763Y-54169692D01*
X181959043Y-54403846D01*
X181667807Y-54667807D01*
X181403846Y-54959043D01*
X181169692Y-55274763D01*
X180967620Y-55611899D01*
X180799562Y-55967227D01*
X180799561Y-55967229D01*
X180667143Y-56337315D01*
X180571637Y-56718593D01*
X180571636Y-56718600D01*
X180513962Y-57107409D01*
X180494675Y-57500000D01*
X81505325Y-57500000D01*
X81486038Y-57107409D01*
X81428364Y-56718600D01*
X81332857Y-56337316D01*
X81200438Y-55967228D01*
X81032381Y-55611903D01*
X80830306Y-55274761D01*
X80596158Y-54959049D01*
X80596153Y-54959043D01*
X80332192Y-54667807D01*
X80040956Y-54403846D01*
X79725236Y-54169692D01*
X79388100Y-53967620D01*
X79032772Y-53799562D01*
X79032770Y-53799561D01*
X78662684Y-53667143D01*
X78281406Y-53571637D01*
X78281401Y-53571636D01*
X78281400Y-53571636D01*
X78137256Y-53550254D01*
X77892599Y-53513963D01*
X77892597Y-53513962D01*
X77892591Y-53513962D01*
X77500000Y-53494675D01*
X77107409Y-53513962D01*
X77107403Y-53513962D01*
X77107400Y-53513963D01*
X76718593Y-53571637D01*
X76337315Y-53667143D01*
X75967229Y-53799561D01*
X75967227Y-53799562D01*
X75611899Y-53967620D01*
X75274763Y-54169692D01*
X74959043Y-54403846D01*
X74667807Y-54667807D01*
X74403846Y-54959043D01*
X74169692Y-55274763D01*
X73967620Y-55611899D01*
X73799562Y-55967227D01*
X73799561Y-55967229D01*
X73667143Y-56337315D01*
X73571637Y-56718593D01*
X73571636Y-56718600D01*
X73513962Y-57107409D01*
X73494675Y-57500000D01*
X71500500Y-57500000D01*
X71500500Y-56002706D01*
X71500618Y-55997297D01*
X71503377Y-55934108D01*
X71517386Y-55613226D01*
X71518326Y-55602495D01*
X71568152Y-55224025D01*
X71570025Y-55213405D01*
X71652649Y-54840709D01*
X71655440Y-54830295D01*
X71770230Y-54466227D01*
X71773917Y-54456095D01*
X71920003Y-54103412D01*
X71924561Y-54093638D01*
X72100822Y-53755045D01*
X72106217Y-53745700D01*
X72311325Y-53423744D01*
X72317515Y-53414905D01*
X72549896Y-53112060D01*
X72556834Y-53103791D01*
X72814726Y-52822352D01*
X72822352Y-52814726D01*
X73103791Y-52556834D01*
X73112060Y-52549896D01*
X73414905Y-52317515D01*
X73423744Y-52311325D01*
X73745700Y-52106217D01*
X73755045Y-52100822D01*
X74093638Y-51924561D01*
X74103412Y-51920003D01*
X74456095Y-51773917D01*
X74466227Y-51770230D01*
X74830295Y-51655440D01*
X74840709Y-51652649D01*
X75213405Y-51570025D01*
X75224025Y-51568152D01*
X75602495Y-51518326D01*
X75613226Y-51517386D01*
X75997297Y-51500617D01*
X76002706Y-51500500D01*
X76065892Y-51500500D01*
X185934108Y-51500500D01*
X185997294Y-51500500D01*
X186002702Y-51500617D01*
G37*
%TD.AperFunction*%
%TD*%
M02*
