G04 #@! TF.GenerationSoftware,KiCad,Pcbnew,8.0.2*
G04 #@! TF.CreationDate,2025-01-08T16:49:49-07:00*
G04 #@! TF.ProjectId,DC-DC-Boost-V1,44432d44-432d-4426-9f6f-73742d56312e,rev?*
G04 #@! TF.SameCoordinates,Original*
G04 #@! TF.FileFunction,Soldermask,Top*
G04 #@! TF.FilePolarity,Negative*
%FSLAX46Y46*%
G04 Gerber Fmt 4.6, Leading zero omitted, Abs format (unit mm)*
G04 Created by KiCad (PCBNEW 8.0.2) date 2025-01-08 16:49:49*
%MOMM*%
%LPD*%
G01*
G04 APERTURE LIST*
G04 Aperture macros list*
%AMRoundRect*
0 Rectangle with rounded corners*
0 $1 Rounding radius*
0 $2 $3 $4 $5 $6 $7 $8 $9 X,Y pos of 4 corners*
0 Add a 4 corners polygon primitive as box body*
4,1,4,$2,$3,$4,$5,$6,$7,$8,$9,$2,$3,0*
0 Add four circle primitives for the rounded corners*
1,1,$1+$1,$2,$3*
1,1,$1+$1,$4,$5*
1,1,$1+$1,$6,$7*
1,1,$1+$1,$8,$9*
0 Add four rect primitives between the rounded corners*
20,1,$1+$1,$2,$3,$4,$5,0*
20,1,$1+$1,$4,$5,$6,$7,0*
20,1,$1+$1,$6,$7,$8,$9,0*
20,1,$1+$1,$8,$9,$2,$3,0*%
%AMFreePoly0*
4,1,14,-0.697500,2.280000,2.027500,2.280000,2.502500,2.280000,2.502500,-2.280000,-0.697500,-2.280000,-0.697500,-2.775000,-1.602500,-2.775000,-1.602500,-2.280000,-2.027500,-2.280000,-2.027500,2.280000,-1.602500,2.280000,-1.602500,2.775000,-0.697500,2.775000,-0.697500,2.280000,-0.697500,2.280000,$1*%
%AMFreePoly1*
4,1,19,0.550000,-0.750000,0.000000,-0.750000,0.000000,-0.744911,-0.071157,-0.744911,-0.207708,-0.704816,-0.327430,-0.627875,-0.420627,-0.520320,-0.479746,-0.390866,-0.500000,-0.250000,-0.500000,0.250000,-0.479746,0.390866,-0.420627,0.520320,-0.327430,0.627875,-0.207708,0.704816,-0.071157,0.744911,0.000000,0.744911,0.000000,0.750000,0.550000,0.750000,0.550000,-0.750000,0.550000,-0.750000,
$1*%
%AMFreePoly2*
4,1,19,0.000000,0.744911,0.071157,0.744911,0.207708,0.704816,0.327430,0.627875,0.420627,0.520320,0.479746,0.390866,0.500000,0.250000,0.500000,-0.250000,0.479746,-0.390866,0.420627,-0.520320,0.327430,-0.627875,0.207708,-0.704816,0.071157,-0.744911,0.000000,-0.744911,0.000000,-0.750000,-0.550000,-0.750000,-0.550000,0.750000,0.000000,0.750000,0.000000,0.744911,0.000000,0.744911,
$1*%
G04 Aperture macros list end*
%ADD10RoundRect,0.225000X-0.250000X0.225000X-0.250000X-0.225000X0.250000X-0.225000X0.250000X0.225000X0*%
%ADD11RoundRect,0.225000X0.250000X-0.225000X0.250000X0.225000X-0.250000X0.225000X-0.250000X-0.225000X0*%
%ADD12RoundRect,0.200000X-0.275000X0.200000X-0.275000X-0.200000X0.275000X-0.200000X0.275000X0.200000X0*%
%ADD13RoundRect,0.375000X-0.625000X-0.375000X0.625000X-0.375000X0.625000X0.375000X-0.625000X0.375000X0*%
%ADD14RoundRect,0.500000X-0.500000X-1.400000X0.500000X-1.400000X0.500000X1.400000X-0.500000X1.400000X0*%
%ADD15RoundRect,0.243750X0.243750X0.456250X-0.243750X0.456250X-0.243750X-0.456250X0.243750X-0.456250X0*%
%ADD16RoundRect,0.150000X0.150000X-0.512500X0.150000X0.512500X-0.150000X0.512500X-0.150000X-0.512500X0*%
%ADD17RoundRect,0.200000X0.275000X-0.200000X0.275000X0.200000X-0.275000X0.200000X-0.275000X-0.200000X0*%
%ADD18R,0.800000X1.000000*%
%ADD19C,0.900000*%
%ADD20R,1.500000X0.700000*%
%ADD21RoundRect,0.200000X0.200000X0.275000X-0.200000X0.275000X-0.200000X-0.275000X0.200000X-0.275000X0*%
%ADD22R,1.600200X1.854200*%
%ADD23RoundRect,0.102000X1.275000X1.275000X-1.275000X1.275000X-1.275000X-1.275000X1.275000X-1.275000X0*%
%ADD24C,2.754000*%
%ADD25R,0.610000X1.910000*%
%ADD26R,1.550000X1.205000*%
%ADD27RoundRect,0.150000X0.512500X0.150000X-0.512500X0.150000X-0.512500X-0.150000X0.512500X-0.150000X0*%
%ADD28RoundRect,0.102000X0.754000X-0.754000X0.754000X0.754000X-0.754000X0.754000X-0.754000X-0.754000X0*%
%ADD29C,1.712000*%
%ADD30RoundRect,0.200000X-0.200000X-0.275000X0.200000X-0.275000X0.200000X0.275000X-0.200000X0.275000X0*%
%ADD31RoundRect,0.225000X-0.225000X-0.250000X0.225000X-0.250000X0.225000X0.250000X-0.225000X0.250000X0*%
%ADD32RoundRect,0.225000X0.225000X0.250000X-0.225000X0.250000X-0.225000X-0.250000X0.225000X-0.250000X0*%
%ADD33RoundRect,0.218750X-0.218750X-0.256250X0.218750X-0.256250X0.218750X0.256250X-0.218750X0.256250X0*%
%ADD34RoundRect,0.150000X-0.512500X-0.150000X0.512500X-0.150000X0.512500X0.150000X-0.512500X0.150000X0*%
%ADD35R,2.700000X6.200000*%
%ADD36RoundRect,0.150000X-0.150000X0.825000X-0.150000X-0.825000X0.150000X-0.825000X0.150000X0.825000X0*%
%ADD37RoundRect,0.218750X0.256250X-0.218750X0.256250X0.218750X-0.256250X0.218750X-0.256250X-0.218750X0*%
%ADD38RoundRect,0.187500X0.187500X-0.312500X0.187500X0.312500X-0.187500X0.312500X-0.187500X-0.312500X0*%
%ADD39FreePoly0,90.000000*%
%ADD40RoundRect,0.150000X-0.825000X-0.150000X0.825000X-0.150000X0.825000X0.150000X-0.825000X0.150000X0*%
%ADD41C,3.500000*%
%ADD42RoundRect,0.250000X-1.100000X0.325000X-1.100000X-0.325000X1.100000X-0.325000X1.100000X0.325000X0*%
%ADD43C,0.650000*%
%ADD44RoundRect,0.150000X-0.150000X-0.425000X0.150000X-0.425000X0.150000X0.425000X-0.150000X0.425000X0*%
%ADD45RoundRect,0.075000X-0.075000X-0.500000X0.075000X-0.500000X0.075000X0.500000X-0.075000X0.500000X0*%
%ADD46O,1.000000X2.100000*%
%ADD47O,1.000000X1.800000*%
%ADD48RoundRect,0.102000X1.000000X-2.850000X1.000000X2.850000X-1.000000X2.850000X-1.000000X-2.850000X0*%
%ADD49RoundRect,0.250000X-0.262500X-0.450000X0.262500X-0.450000X0.262500X0.450000X-0.262500X0.450000X0*%
%ADD50RoundRect,0.218750X-0.256250X0.218750X-0.256250X-0.218750X0.256250X-0.218750X0.256250X0.218750X0*%
%ADD51RoundRect,0.250000X0.250000X0.475000X-0.250000X0.475000X-0.250000X-0.475000X0.250000X-0.475000X0*%
%ADD52R,1.200000X0.400000*%
%ADD53C,5.000000*%
%ADD54O,1.500000X2.000000*%
%ADD55C,6.000000*%
%ADD56R,1.700000X1.700000*%
%ADD57O,1.700000X1.700000*%
%ADD58RoundRect,0.099250X0.297750X-0.607750X0.297750X0.607750X-0.297750X0.607750X-0.297750X-0.607750X0*%
%ADD59C,2.000000*%
%ADD60R,1.400000X1.200000*%
%ADD61R,0.240000X0.599999*%
%ADD62R,0.599999X0.240000*%
%ADD63R,2.049999X2.049999*%
%ADD64C,0.499999*%
%ADD65RoundRect,0.218750X0.218750X0.256250X-0.218750X0.256250X-0.218750X-0.256250X0.218750X-0.256250X0*%
%ADD66R,4.000000X7.000000*%
%ADD67RoundRect,0.237500X0.300000X0.237500X-0.300000X0.237500X-0.300000X-0.237500X0.300000X-0.237500X0*%
%ADD68FreePoly1,90.000000*%
%ADD69R,1.500000X1.000000*%
%ADD70FreePoly2,90.000000*%
%ADD71RoundRect,0.150000X0.825000X0.150000X-0.825000X0.150000X-0.825000X-0.150000X0.825000X-0.150000X0*%
%ADD72RoundRect,0.150000X0.150000X-0.825000X0.150000X0.825000X-0.150000X0.825000X-0.150000X-0.825000X0*%
%ADD73RoundRect,0.250000X0.600000X-0.600000X0.600000X0.600000X-0.600000X0.600000X-0.600000X-0.600000X0*%
%ADD74C,1.700000*%
%ADD75RoundRect,0.237500X-0.237500X0.250000X-0.237500X-0.250000X0.237500X-0.250000X0.237500X0.250000X0*%
%ADD76RoundRect,0.250000X0.550000X-1.500000X0.550000X1.500000X-0.550000X1.500000X-0.550000X-1.500000X0*%
%ADD77RoundRect,0.062500X-0.375000X-0.062500X0.375000X-0.062500X0.375000X0.062500X-0.375000X0.062500X0*%
%ADD78RoundRect,0.062500X-0.062500X-0.375000X0.062500X-0.375000X0.062500X0.375000X-0.062500X0.375000X0*%
%ADD79R,3.450000X3.450000*%
G04 APERTURE END LIST*
D10*
G04 #@! TO.C,C43*
X150940590Y-155715000D03*
X150940590Y-157265000D03*
G04 #@! TD*
D11*
G04 #@! TO.C,C40*
X130350000Y-140255000D03*
X130350000Y-138705000D03*
G04 #@! TD*
D12*
G04 #@! TO.C,R14*
X161830000Y-137550000D03*
X161830000Y-139200000D03*
G04 #@! TD*
D13*
G04 #@! TO.C,U11*
X89231250Y-132650000D03*
X89231250Y-134950000D03*
D14*
X95531250Y-134950000D03*
D13*
X89231250Y-137250000D03*
G04 #@! TD*
D15*
G04 #@! TO.C,D5*
X155862500Y-139000000D03*
X153987500Y-139000000D03*
G04 #@! TD*
D16*
G04 #@! TO.C,Q2*
X74728800Y-123509200D03*
X76628800Y-123509200D03*
X75678800Y-121234200D03*
G04 #@! TD*
D17*
G04 #@! TO.C,R37*
X125230000Y-111825000D03*
X125230000Y-110175000D03*
G04 #@! TD*
D10*
G04 #@! TO.C,C44*
X142150000Y-146462500D03*
X142150000Y-148012500D03*
G04 #@! TD*
G04 #@! TO.C,C69*
X119655000Y-111150000D03*
X119655000Y-112700000D03*
G04 #@! TD*
D12*
G04 #@! TO.C,R33*
X71300000Y-121075000D03*
X71300000Y-122725000D03*
G04 #@! TD*
D18*
G04 #@! TO.C,SW2*
X164295000Y-143675000D03*
X166505000Y-143675000D03*
D19*
X165405000Y-141525000D03*
X165405000Y-138525000D03*
D18*
X164295000Y-136375000D03*
X166505000Y-136375000D03*
D20*
X163645000Y-142275000D03*
X163645000Y-139275000D03*
X163645000Y-137775000D03*
G04 #@! TD*
D21*
G04 #@! TO.C,R19*
X96675000Y-146645000D03*
X95025000Y-146645000D03*
G04 #@! TD*
G04 #@! TO.C,R35*
X84775000Y-124800000D03*
X83125000Y-124800000D03*
G04 #@! TD*
D15*
G04 #@! TO.C,D4*
X155850000Y-141150000D03*
X153975000Y-141150000D03*
G04 #@! TD*
D22*
G04 #@! TO.C,Q5*
X134830000Y-116750000D03*
X132290000Y-116750000D03*
X129750000Y-116750000D03*
X127210000Y-116750000D03*
X127210000Y-128205400D03*
X129750000Y-128205400D03*
X132290000Y-128205400D03*
X134830000Y-128205400D03*
G04 #@! TD*
G04 #@! TO.C,Q6*
X154560000Y-116500000D03*
X152020000Y-116500000D03*
X149480000Y-116500000D03*
X146940000Y-116500000D03*
X146940000Y-127955400D03*
X149480000Y-127955400D03*
X152020000Y-127955400D03*
X154560000Y-127955400D03*
G04 #@! TD*
D10*
G04 #@! TO.C,C42*
X140650000Y-146487500D03*
X140650000Y-148037500D03*
G04 #@! TD*
G04 #@! TO.C,C67*
X104035000Y-126450000D03*
X104035000Y-128000000D03*
G04 #@! TD*
D23*
G04 #@! TO.C,J1*
X88225000Y-87162500D03*
D24*
X81875000Y-77662500D03*
G04 #@! TD*
D25*
G04 #@! TO.C,U13*
X89695000Y-147627500D03*
X90965000Y-147627500D03*
X92235000Y-147627500D03*
X93505000Y-147627500D03*
X93505000Y-142067500D03*
X92235000Y-142067500D03*
X90965000Y-142067500D03*
X89695000Y-142067500D03*
D26*
X90825000Y-145450000D03*
X92375000Y-145450000D03*
X90825000Y-144245000D03*
X92375000Y-144245000D03*
G04 #@! TD*
D27*
G04 #@! TO.C,Q1*
X77197300Y-127125900D03*
X77197300Y-125225900D03*
X74922300Y-126175900D03*
G04 #@! TD*
D25*
G04 #@! TO.C,U14*
X73420000Y-147282500D03*
X74690000Y-147282500D03*
X75960000Y-147282500D03*
X77230000Y-147282500D03*
X77230000Y-141722500D03*
X75960000Y-141722500D03*
X74690000Y-141722500D03*
X73420000Y-141722500D03*
D26*
X74550000Y-145105000D03*
X76100000Y-145105000D03*
X74550000Y-143900000D03*
X76100000Y-143900000D03*
G04 #@! TD*
D28*
G04 #@! TO.C,PS1*
X163750000Y-122850000D03*
D29*
X163750000Y-120310000D03*
X163750000Y-117770000D03*
X163750000Y-115230000D03*
G04 #@! TD*
D30*
G04 #@! TO.C,R24*
X90275000Y-151145000D03*
X91925000Y-151145000D03*
G04 #@! TD*
D31*
G04 #@! TO.C,C33*
X136925000Y-81750000D03*
X138475000Y-81750000D03*
G04 #@! TD*
D32*
G04 #@! TO.C,C16*
X83725000Y-116450000D03*
X82175000Y-116450000D03*
G04 #@! TD*
D33*
G04 #@! TO.C,D8*
X95062500Y-145100000D03*
X96637500Y-145100000D03*
G04 #@! TD*
D31*
G04 #@! TO.C,C19*
X78475000Y-113500000D03*
X80025000Y-113500000D03*
G04 #@! TD*
D32*
G04 #@! TO.C,C58*
X135755000Y-110775000D03*
X134205000Y-110775000D03*
G04 #@! TD*
D11*
G04 #@! TO.C,C38*
X128850000Y-140255000D03*
X128850000Y-138705000D03*
G04 #@! TD*
D34*
G04 #@! TO.C,D1*
X108720000Y-135945000D03*
X108720000Y-137845000D03*
X110995000Y-136895000D03*
G04 #@! TD*
D32*
G04 #@! TO.C,C64*
X144250000Y-130500000D03*
X142700000Y-130500000D03*
G04 #@! TD*
D15*
G04 #@! TO.C,D7*
X155862500Y-136850000D03*
X153987500Y-136850000D03*
G04 #@! TD*
D35*
G04 #@! TO.C,R12*
X76538791Y-98181769D03*
X84838791Y-98181769D03*
G04 #@! TD*
D32*
G04 #@! TO.C,C18*
X118670000Y-135055000D03*
X117120000Y-135055000D03*
G04 #@! TD*
D36*
G04 #@! TO.C,U9*
X105405000Y-144025000D03*
X104135000Y-144025000D03*
X102865000Y-144025000D03*
X101595000Y-144025000D03*
X101595000Y-148975000D03*
X102865000Y-148975000D03*
X104135000Y-148975000D03*
X105405000Y-148975000D03*
G04 #@! TD*
D21*
G04 #@! TO.C,R9*
X121720000Y-140480000D03*
X120070000Y-140480000D03*
G04 #@! TD*
D10*
G04 #@! TO.C,C51*
X97650000Y-132975000D03*
X97650000Y-134525000D03*
G04 #@! TD*
D32*
G04 #@! TO.C,C50*
X80330000Y-147797500D03*
X78780000Y-147797500D03*
G04 #@! TD*
D12*
G04 #@! TO.C,R36*
X83100000Y-121700000D03*
X83100000Y-123350000D03*
G04 #@! TD*
D37*
G04 #@! TO.C,D6*
X154000000Y-157237500D03*
X154000000Y-155662500D03*
G04 #@! TD*
D17*
G04 #@! TO.C,R48*
X102535000Y-128075000D03*
X102535000Y-126425000D03*
G04 #@! TD*
D27*
G04 #@! TO.C,D2*
X122545000Y-138945000D03*
X122545000Y-137045000D03*
X120270000Y-137995000D03*
G04 #@! TD*
D10*
G04 #@! TO.C,C22*
X119500000Y-89775000D03*
X119500000Y-91325000D03*
G04 #@! TD*
D38*
G04 #@! TO.C,U6*
X112745000Y-106392250D03*
X114015000Y-106392250D03*
X115285000Y-106392250D03*
X116555000Y-106392250D03*
D39*
X114650000Y-102900000D03*
G04 #@! TD*
D32*
G04 #@! TO.C,C41*
X104225000Y-142000000D03*
X102675000Y-142000000D03*
G04 #@! TD*
D23*
G04 #@! TO.C,J2*
X155425000Y-87212500D03*
D24*
X149075000Y-77712500D03*
G04 #@! TD*
D30*
G04 #@! TO.C,R20*
X78755000Y-146272500D03*
X80405000Y-146272500D03*
G04 #@! TD*
D21*
G04 #@! TO.C,R21*
X95306250Y-130450000D03*
X93656250Y-130450000D03*
G04 #@! TD*
D12*
G04 #@! TO.C,R40*
X135730000Y-112200000D03*
X135730000Y-113850000D03*
G04 #@! TD*
D10*
G04 #@! TO.C,C24*
X122850000Y-89775000D03*
X122850000Y-91325000D03*
G04 #@! TD*
D30*
G04 #@! TO.C,R31*
X71575000Y-127300000D03*
X73225000Y-127300000D03*
G04 #@! TD*
G04 #@! TO.C,R23*
X91975000Y-149595000D03*
X93625000Y-149595000D03*
G04 #@! TD*
D40*
G04 #@! TO.C,U2*
X113170000Y-136590000D03*
X113170000Y-137860000D03*
X113170000Y-139130000D03*
X113170000Y-140400000D03*
X118120000Y-140400000D03*
X118120000Y-139130000D03*
X118120000Y-137860000D03*
X118120000Y-136590000D03*
G04 #@! TD*
D30*
G04 #@! TO.C,R27*
X73525000Y-150800000D03*
X75175000Y-150800000D03*
G04 #@! TD*
D21*
G04 #@! TO.C,R13*
X104375000Y-151250000D03*
X102725000Y-151250000D03*
G04 #@! TD*
D11*
G04 #@! TO.C,C21*
X91750000Y-111125001D03*
X91750000Y-109575001D03*
G04 #@! TD*
D41*
G04 #@! TO.C,H4*
X163500000Y-164750000D03*
G04 #@! TD*
D30*
G04 #@! TO.C,R30*
X73280000Y-139722500D03*
X74930000Y-139722500D03*
G04 #@! TD*
D12*
G04 #@! TO.C,R25*
X88100000Y-141120000D03*
X88100000Y-142770000D03*
G04 #@! TD*
D33*
G04 #@! TO.C,D11*
X75062500Y-130137500D03*
X76637500Y-130137500D03*
G04 #@! TD*
D17*
G04 #@! TO.C,R43*
X144275000Y-114325000D03*
X144275000Y-112675000D03*
G04 #@! TD*
G04 #@! TO.C,R1*
X86725000Y-108825000D03*
X86725000Y-107175000D03*
G04 #@! TD*
G04 #@! TO.C,R17*
X152450000Y-157325000D03*
X152450000Y-155675000D03*
G04 #@! TD*
D11*
G04 #@! TO.C,C45*
X145200000Y-148025000D03*
X145200000Y-146475000D03*
G04 #@! TD*
G04 #@! TO.C,C59*
X134230000Y-113800000D03*
X134230000Y-112250000D03*
G04 #@! TD*
D10*
G04 #@! TO.C,C25*
X124550000Y-89775000D03*
X124550000Y-91325000D03*
G04 #@! TD*
D31*
G04 #@! TO.C,C53*
X72790000Y-149272500D03*
X74340000Y-149272500D03*
G04 #@! TD*
D42*
G04 #@! TO.C,C31*
X129027500Y-89055000D03*
X129027500Y-92005000D03*
G04 #@! TD*
D30*
G04 #@! TO.C,R39*
X126655000Y-109250000D03*
X128305000Y-109250000D03*
G04 #@! TD*
D12*
G04 #@! TO.C,R3*
X111145000Y-140795000D03*
X111145000Y-142445000D03*
G04 #@! TD*
D10*
G04 #@! TO.C,C23*
X121100000Y-89775000D03*
X121100000Y-91325000D03*
G04 #@! TD*
D43*
G04 #@! TO.C,J3*
X144435000Y-162395000D03*
X150215000Y-162395000D03*
D44*
X144125000Y-161320000D03*
X144925000Y-161320000D03*
D45*
X146075000Y-161320000D03*
X147075000Y-161320000D03*
X147575000Y-161320000D03*
X148575000Y-161320000D03*
D44*
X149725000Y-161320000D03*
X150525000Y-161320000D03*
X150525000Y-161320000D03*
X149725000Y-161320000D03*
D45*
X149075000Y-161320000D03*
X148075000Y-161320000D03*
X146575000Y-161320000D03*
X145575000Y-161320000D03*
D44*
X144925000Y-161320000D03*
X144125000Y-161320000D03*
D46*
X143005000Y-161895000D03*
D47*
X143005000Y-166075000D03*
D46*
X151645000Y-161895000D03*
D47*
X151645000Y-166075000D03*
G04 #@! TD*
D30*
G04 #@! TO.C,R29*
X89525000Y-140095000D03*
X91175000Y-140095000D03*
G04 #@! TD*
D48*
G04 #@! TO.C,C27*
X100250000Y-82700000D03*
X100250000Y-73000000D03*
G04 #@! TD*
D32*
G04 #@! TO.C,C37*
X162750000Y-155825000D03*
X161200000Y-155825000D03*
G04 #@! TD*
D17*
G04 #@! TO.C,C20*
X91500000Y-114500001D03*
X91500000Y-112850001D03*
G04 #@! TD*
D49*
G04 #@! TO.C,R18*
X150587500Y-136850000D03*
X152412500Y-136850000D03*
G04 #@! TD*
D37*
G04 #@! TO.C,D15*
X84700000Y-123287500D03*
X84700000Y-121712500D03*
G04 #@! TD*
D30*
G04 #@! TO.C,R41*
X122655000Y-120022300D03*
X124305000Y-120022300D03*
G04 #@! TD*
D50*
G04 #@! TO.C,FB1*
X143650000Y-146450000D03*
X143650000Y-148025000D03*
G04 #@! TD*
D51*
G04 #@! TO.C,C15*
X84000000Y-114700000D03*
X82100000Y-114700000D03*
G04 #@! TD*
D21*
G04 #@! TO.C,R2*
X111245000Y-139370000D03*
X109595000Y-139370000D03*
G04 #@! TD*
D32*
G04 #@! TO.C,C56*
X78925000Y-139700000D03*
X77375000Y-139700000D03*
G04 #@! TD*
D49*
G04 #@! TO.C,R16*
X150587500Y-139000000D03*
X152412500Y-139000000D03*
G04 #@! TD*
D52*
G04 #@! TO.C,IC1*
X122600000Y-156100000D03*
X122600000Y-156750000D03*
X122600000Y-157400000D03*
X124500000Y-157400000D03*
X124500000Y-156100000D03*
G04 #@! TD*
D17*
G04 #@! TO.C,R51*
X90400000Y-127825000D03*
X90400000Y-126175000D03*
G04 #@! TD*
D16*
G04 #@! TO.C,Q4*
X86271600Y-124207800D03*
X88171600Y-124207800D03*
X87221600Y-121932800D03*
G04 #@! TD*
D53*
G04 #@! TO.C,U15*
X81100000Y-156500000D03*
X114400000Y-156500000D03*
D54*
X96350000Y-155860000D03*
X99120000Y-155805000D03*
X94965000Y-158700000D03*
X97735000Y-158700000D03*
X100505000Y-158700000D03*
D55*
X90863000Y-155900000D03*
X104583000Y-155900000D03*
G04 #@! TD*
D17*
G04 #@! TO.C,R42*
X144275000Y-111325000D03*
X144275000Y-109675000D03*
G04 #@! TD*
D10*
G04 #@! TO.C,C46*
X87206250Y-136287500D03*
X87206250Y-137837500D03*
G04 #@! TD*
D21*
G04 #@! TO.C,R8*
X119770000Y-141970000D03*
X118120000Y-141970000D03*
G04 #@! TD*
D49*
G04 #@! TO.C,R15*
X150587500Y-141150000D03*
X152412500Y-141150000D03*
G04 #@! TD*
D17*
G04 #@! TO.C,R5*
X84800000Y-110325000D03*
X84800000Y-108675000D03*
G04 #@! TD*
D56*
G04 #@! TO.C,J5*
X91750000Y-122750000D03*
D57*
X94290000Y-122750000D03*
X96830000Y-122750000D03*
X99370000Y-122750000D03*
G04 #@! TD*
D21*
G04 #@! TO.C,R32*
X73225000Y-124200000D03*
X71575000Y-124200000D03*
G04 #@! TD*
D38*
G04 #@! TO.C,U5*
X105095000Y-93242250D03*
X106365000Y-93242250D03*
X107635000Y-93242250D03*
X108905000Y-93242250D03*
D39*
X107000000Y-89750000D03*
G04 #@! TD*
D32*
G04 #@! TO.C,C17*
X83325001Y-110250000D03*
X81775001Y-110250000D03*
G04 #@! TD*
D10*
G04 #@! TO.C,C26*
X126050000Y-89775000D03*
X126050000Y-91325000D03*
G04 #@! TD*
D48*
G04 #@! TO.C,C29*
X128250000Y-82700000D03*
X128250000Y-73000000D03*
G04 #@! TD*
D11*
G04 #@! TO.C,C13*
X94150000Y-111775000D03*
X94150000Y-110225000D03*
G04 #@! TD*
D12*
G04 #@! TO.C,R45*
X154775000Y-111925000D03*
X154775000Y-113575000D03*
G04 #@! TD*
D42*
G04 #@! TO.C,C32*
X132250000Y-89050000D03*
X132250000Y-92000000D03*
G04 #@! TD*
D12*
G04 #@! TO.C,C68*
X119655000Y-115425000D03*
X119655000Y-117075000D03*
G04 #@! TD*
D30*
G04 #@! TO.C,R26*
X75730000Y-149272500D03*
X77380000Y-149272500D03*
G04 #@! TD*
D17*
G04 #@! TO.C,R38*
X125230000Y-114900000D03*
X125230000Y-113250000D03*
G04 #@! TD*
G04 #@! TO.C,R50*
X78900000Y-127125000D03*
X78900000Y-125475000D03*
G04 #@! TD*
D58*
G04 #@! TO.C,D3*
X147300000Y-158325000D03*
X148250000Y-158325000D03*
X149200000Y-158325000D03*
X149200000Y-155815000D03*
X148250000Y-155815000D03*
X147300000Y-155815000D03*
G04 #@! TD*
D38*
G04 #@! TO.C,U4*
X104645000Y-106392250D03*
X105915000Y-106392250D03*
X107185000Y-106392250D03*
X108455000Y-106392250D03*
D39*
X106550000Y-102900000D03*
G04 #@! TD*
D32*
G04 #@! TO.C,C14*
X83325001Y-111850001D03*
X81775001Y-111850001D03*
G04 #@! TD*
D42*
G04 #@! TO.C,C30*
X135497500Y-89055000D03*
X135497500Y-92005000D03*
G04 #@! TD*
D59*
G04 #@! TO.C,SW1*
X165875000Y-146975000D03*
X165875000Y-153475000D03*
X161375000Y-146975000D03*
X161375000Y-153475000D03*
G04 #@! TD*
D11*
G04 #@! TO.C,C63*
X153275000Y-113525000D03*
X153275000Y-111975000D03*
G04 #@! TD*
D38*
G04 #@! TO.C,U7*
X113095000Y-93242250D03*
X114365000Y-93242250D03*
X115635000Y-93242250D03*
X116905000Y-93242250D03*
D39*
X115000000Y-89750000D03*
G04 #@! TD*
D60*
G04 #@! TO.C,X1*
X127350000Y-143923750D03*
X129550000Y-143923750D03*
X129550000Y-142223750D03*
X127350000Y-142223750D03*
G04 #@! TD*
D30*
G04 #@! TO.C,R46*
X142365000Y-120000000D03*
X144015000Y-120000000D03*
G04 #@! TD*
D11*
G04 #@! TO.C,C36*
X100000000Y-150525000D03*
X100000000Y-148975000D03*
G04 #@! TD*
G04 #@! TO.C,C35*
X127350000Y-140255000D03*
X127350000Y-138705000D03*
G04 #@! TD*
D48*
G04 #@! TO.C,C28*
X114250000Y-82700000D03*
X114250000Y-73000000D03*
G04 #@! TD*
D32*
G04 #@! TO.C,C62*
X154800000Y-110500000D03*
X153250000Y-110500000D03*
G04 #@! TD*
D31*
G04 #@! TO.C,C60*
X122705000Y-130522300D03*
X124255000Y-130522300D03*
G04 #@! TD*
D36*
G04 #@! TO.C,U21*
X118060000Y-111775000D03*
X116790000Y-111775000D03*
X115520000Y-111775000D03*
X114250000Y-111775000D03*
X114250000Y-116725000D03*
X115520000Y-116725000D03*
X116790000Y-116725000D03*
X118060000Y-116725000D03*
G04 #@! TD*
D30*
G04 #@! TO.C,R34*
X83175000Y-127900000D03*
X84825000Y-127900000D03*
G04 #@! TD*
D13*
G04 #@! TO.C,U12*
X72850000Y-132300000D03*
X72850000Y-134600000D03*
D14*
X79150000Y-134600000D03*
D13*
X72850000Y-136900000D03*
G04 #@! TD*
D61*
G04 #@! TO.C,U3*
X87249999Y-114000000D03*
X87750001Y-114000000D03*
X88250000Y-114000000D03*
X88749999Y-114000000D03*
X89250001Y-114000000D03*
D62*
X89899999Y-113350002D03*
X89899999Y-112850000D03*
X89899999Y-112350001D03*
X89899999Y-111850002D03*
X89899999Y-111350000D03*
D61*
X89250001Y-110700002D03*
X88749999Y-110700002D03*
X88250000Y-110700002D03*
X87750001Y-110700002D03*
X87249999Y-110700002D03*
D62*
X86600001Y-111350000D03*
X86600001Y-111850002D03*
X86600001Y-112350001D03*
X86600001Y-112850000D03*
X86600001Y-113350002D03*
D63*
X88250000Y-112350001D03*
D64*
X88250000Y-113125001D03*
X88250000Y-112324601D03*
X88250000Y-111575001D03*
X89025000Y-112350001D03*
X87475000Y-112350001D03*
G04 #@! TD*
D27*
G04 #@! TO.C,Q3*
X88699000Y-127824800D03*
X88699000Y-125924800D03*
X86424000Y-126874800D03*
G04 #@! TD*
D12*
G04 #@! TO.C,R7*
X76250000Y-114750000D03*
X76250000Y-116400000D03*
G04 #@! TD*
D31*
G04 #@! TO.C,C39*
X127575000Y-145723750D03*
X129125000Y-145723750D03*
G04 #@! TD*
D32*
G04 #@! TO.C,C55*
X95325000Y-140070000D03*
X93775000Y-140070000D03*
G04 #@! TD*
D36*
G04 #@! TO.C,U19*
X143845000Y-123525000D03*
X142575000Y-123525000D03*
X141305000Y-123525000D03*
X140035000Y-123525000D03*
X140035000Y-128475000D03*
X141305000Y-128475000D03*
X142575000Y-128475000D03*
X143845000Y-128475000D03*
G04 #@! TD*
D31*
G04 #@! TO.C,C66*
X102510000Y-129500000D03*
X104060000Y-129500000D03*
G04 #@! TD*
D41*
G04 #@! TO.C,H3*
X71500000Y-164750000D03*
G04 #@! TD*
D65*
G04 #@! TO.C,D14*
X84737500Y-126350000D03*
X83162500Y-126350000D03*
G04 #@! TD*
D31*
G04 #@! TO.C,C52*
X89025000Y-149595000D03*
X90575000Y-149595000D03*
G04 #@! TD*
D66*
G04 #@! TO.C,L1*
X90750000Y-97750000D03*
X100750000Y-97750000D03*
G04 #@! TD*
D21*
G04 #@! TO.C,R6*
X83375001Y-108750000D03*
X81725001Y-108750000D03*
G04 #@! TD*
D67*
G04 #@! TO.C,C34*
X141812500Y-81750000D03*
X140087500Y-81750000D03*
G04 #@! TD*
D22*
G04 #@! TO.C,Q7*
X103480000Y-123400000D03*
X106020000Y-123400000D03*
X108560000Y-123400000D03*
X111100000Y-123400000D03*
X111100000Y-111944600D03*
X108560000Y-111944600D03*
X106020000Y-111944600D03*
X103480000Y-111944600D03*
G04 #@! TD*
D68*
G04 #@! TO.C,JP1*
X76500000Y-113050000D03*
D69*
X76500000Y-111750000D03*
D70*
X76500000Y-110450000D03*
G04 #@! TD*
D17*
G04 #@! TO.C,R10*
X89425001Y-116925000D03*
X89425001Y-115275000D03*
G04 #@! TD*
D21*
G04 #@! TO.C,R47*
X111400000Y-131000000D03*
X109750000Y-131000000D03*
G04 #@! TD*
D10*
G04 #@! TO.C,C49*
X81175000Y-134937500D03*
X81175000Y-136487500D03*
G04 #@! TD*
D31*
G04 #@! TO.C,C65*
X142415000Y-121500000D03*
X143965000Y-121500000D03*
G04 #@! TD*
D40*
G04 #@! TO.C,U16*
X127255000Y-110845000D03*
X127255000Y-112115000D03*
X127255000Y-113385000D03*
X127255000Y-114655000D03*
X132205000Y-114655000D03*
X132205000Y-113385000D03*
X132205000Y-112115000D03*
X132205000Y-110845000D03*
G04 #@! TD*
G04 #@! TO.C,U18*
X146300000Y-110595000D03*
X146300000Y-111865000D03*
X146300000Y-113135000D03*
X146300000Y-114405000D03*
X151250000Y-114405000D03*
X151250000Y-113135000D03*
X151250000Y-111865000D03*
X151250000Y-110595000D03*
G04 #@! TD*
D71*
G04 #@! TO.C,U20*
X111035000Y-129405000D03*
X111035000Y-128135000D03*
X111035000Y-126865000D03*
X111035000Y-125595000D03*
X106085000Y-125595000D03*
X106085000Y-126865000D03*
X106085000Y-128135000D03*
X106085000Y-129405000D03*
G04 #@! TD*
D36*
G04 #@! TO.C,U17*
X124135000Y-123547300D03*
X122865000Y-123547300D03*
X121595000Y-123547300D03*
X120325000Y-123547300D03*
X120325000Y-128497300D03*
X121595000Y-128497300D03*
X122865000Y-128497300D03*
X124135000Y-128497300D03*
G04 #@! TD*
D37*
G04 #@! TO.C,D13*
X72900000Y-122587500D03*
X72900000Y-121012500D03*
G04 #@! TD*
D33*
G04 #@! TO.C,D9*
X78812500Y-144700000D03*
X80387500Y-144700000D03*
G04 #@! TD*
D41*
G04 #@! TO.C,H1*
X71500000Y-72750000D03*
G04 #@! TD*
D56*
G04 #@! TO.C,J6*
X150725000Y-147525000D03*
D57*
X150725000Y-144985000D03*
X153265000Y-147525000D03*
X153265000Y-144985000D03*
X155805000Y-147525000D03*
X155805000Y-144985000D03*
G04 #@! TD*
D33*
G04 #@! TO.C,D10*
X90693750Y-130462500D03*
X92268750Y-130462500D03*
G04 #@! TD*
D72*
G04 #@! TO.C,U8*
X137940000Y-88725000D03*
X139210000Y-88725000D03*
X140480000Y-88725000D03*
X141750000Y-88725000D03*
X141750000Y-83775000D03*
X140480000Y-83775000D03*
X139210000Y-83775000D03*
X137940000Y-83775000D03*
G04 #@! TD*
D73*
G04 #@! TO.C,J4*
X124240000Y-164790000D03*
D74*
X124240000Y-162250000D03*
X126780000Y-164790000D03*
X126780000Y-162250000D03*
X129320000Y-164790000D03*
X129320000Y-162250000D03*
X131860000Y-164790000D03*
X131860000Y-162250000D03*
X134400000Y-164790000D03*
X134400000Y-162250000D03*
G04 #@! TD*
D12*
G04 #@! TO.C,R28*
X71855000Y-140522500D03*
X71855000Y-142172500D03*
G04 #@! TD*
D21*
G04 #@! TO.C,R22*
X79725000Y-130187500D03*
X78075000Y-130187500D03*
G04 #@! TD*
D75*
G04 #@! TO.C,R4*
X85800000Y-114950000D03*
X85800000Y-116775000D03*
G04 #@! TD*
D32*
G04 #@! TO.C,C48*
X96625000Y-148150000D03*
X95075000Y-148150000D03*
G04 #@! TD*
D12*
G04 #@! TO.C,R49*
X121155000Y-111100000D03*
X121155000Y-112750000D03*
G04 #@! TD*
D76*
G04 #@! TO.C,C57*
X163000000Y-108500000D03*
X163000000Y-103100000D03*
G04 #@! TD*
D10*
G04 #@! TO.C,C47*
X70500000Y-135100000D03*
X70500000Y-136650000D03*
G04 #@! TD*
D41*
G04 #@! TO.C,H2*
X163500000Y-72750000D03*
G04 #@! TD*
D31*
G04 #@! TO.C,C54*
X163250000Y-125800000D03*
X164800000Y-125800000D03*
G04 #@! TD*
G04 #@! TO.C,C61*
X122680000Y-121522300D03*
X124230000Y-121522300D03*
G04 #@! TD*
D77*
G04 #@! TO.C,U10*
X134137500Y-141475000D03*
X134137500Y-141975000D03*
X134137500Y-142475000D03*
X134137500Y-142975000D03*
X134137500Y-143475000D03*
X134137500Y-143975000D03*
X134137500Y-144475000D03*
X134137500Y-144975000D03*
D78*
X134825000Y-145662500D03*
X135325000Y-145662500D03*
X135825000Y-145662500D03*
X136325000Y-145662500D03*
X136825000Y-145662500D03*
X137325000Y-145662500D03*
X137825000Y-145662500D03*
X138325000Y-145662500D03*
D77*
X139012500Y-144975000D03*
X139012500Y-144475000D03*
X139012500Y-143975000D03*
X139012500Y-143475000D03*
X139012500Y-142975000D03*
X139012500Y-142475000D03*
X139012500Y-141975000D03*
X139012500Y-141475000D03*
D78*
X138325000Y-140787500D03*
X137825000Y-140787500D03*
X137325000Y-140787500D03*
X136825000Y-140787500D03*
X136325000Y-140787500D03*
X135825000Y-140787500D03*
X135325000Y-140787500D03*
X134825000Y-140787500D03*
D79*
X136575000Y-143225000D03*
G04 #@! TD*
D30*
G04 #@! TO.C,R44*
X145700000Y-109000000D03*
X147350000Y-109000000D03*
G04 #@! TD*
D65*
G04 #@! TO.C,D12*
X73187500Y-125700000D03*
X71612500Y-125700000D03*
G04 #@! TD*
G36*
X117693039Y-94269685D02*
G01*
X117738794Y-94322489D01*
X117750000Y-94374000D01*
X117750000Y-99876000D01*
X117730315Y-99943039D01*
X117677511Y-99988794D01*
X117626000Y-100000000D01*
X103374000Y-100000000D01*
X103306961Y-99980315D01*
X103261206Y-99927511D01*
X103250000Y-99876000D01*
X103250000Y-94374000D01*
X103269685Y-94306961D01*
X103322489Y-94261206D01*
X103374000Y-94250000D01*
X117626000Y-94250000D01*
X117693039Y-94269685D01*
G37*
M02*
