%TF.GenerationSoftware,KiCad,Pcbnew,7.0.6*%
%TF.CreationDate,2023-12-02T19:53:02-07:00*%
%TF.ProjectId,H2 Sensor Board Lucy Rev 1,48322053-656e-4736-9f72-20426f617264,rev?*%
%TF.SameCoordinates,Original*%
%TF.FileFunction,Soldermask,Bot*%
%TF.FilePolarity,Negative*%
%FSLAX46Y46*%
G04 Gerber Fmt 4.6, Leading zero omitted, Abs format (unit mm)*
G04 Created by KiCad (PCBNEW 7.0.6) date 2023-12-02 19:53:02*
%MOMM*%
%LPD*%
G01*
G04 APERTURE LIST*
G04 Aperture macros list*
%AMRoundRect*
0 Rectangle with rounded corners*
0 $1 Rounding radius*
0 $2 $3 $4 $5 $6 $7 $8 $9 X,Y pos of 4 corners*
0 Add a 4 corners polygon primitive as box body*
4,1,4,$2,$3,$4,$5,$6,$7,$8,$9,$2,$3,0*
0 Add four circle primitives for the rounded corners*
1,1,$1+$1,$2,$3*
1,1,$1+$1,$4,$5*
1,1,$1+$1,$6,$7*
1,1,$1+$1,$8,$9*
0 Add four rect primitives between the rounded corners*
20,1,$1+$1,$2,$3,$4,$5,0*
20,1,$1+$1,$4,$5,$6,$7,0*
20,1,$1+$1,$6,$7,$8,$9,0*
20,1,$1+$1,$8,$9,$2,$3,0*%
G04 Aperture macros list end*
%ADD10RoundRect,0.250001X0.499999X-0.499999X0.499999X0.499999X-0.499999X0.499999X-0.499999X-0.499999X0*%
%ADD11C,1.500000*%
%ADD12C,3.410000*%
%ADD13C,3.200000*%
%ADD14C,4.000000*%
%ADD15R,1.600000X1.600000*%
%ADD16C,1.600000*%
%ADD17O,2.900000X3.800000*%
%ADD18R,1.700000X1.700000*%
%ADD19O,1.700000X1.700000*%
%ADD20C,2.000000*%
%ADD21C,0.900000*%
%ADD22O,1.550000X0.890000*%
%ADD23O,0.950000X1.250000*%
%ADD24C,1.400000*%
%ADD25O,1.400000X1.400000*%
%ADD26C,6.400000*%
G04 APERTURE END LIST*
D10*
%TO.C,J2*%
X94787000Y-135334000D03*
D11*
X94787000Y-132334000D03*
X94787000Y-129334000D03*
X97787000Y-135334000D03*
X97787000Y-132334000D03*
X97787000Y-129334000D03*
D12*
X90467000Y-137484000D03*
X90467000Y-127184000D03*
%TD*%
D13*
%TO.C,H3*%
X162306000Y-144780000D03*
%TD*%
D14*
%TO.C,J3*%
X96751000Y-95843000D03*
X96751000Y-120843000D03*
D15*
X98171000Y-113883000D03*
D16*
X98171000Y-111113000D03*
X98171000Y-108343000D03*
X98171000Y-105573000D03*
X98171000Y-102803000D03*
X95331000Y-112498000D03*
X95331000Y-109728000D03*
X95331000Y-106958000D03*
X95331000Y-104188000D03*
%TD*%
D13*
%TO.C,H2*%
X162306000Y-74930000D03*
%TD*%
D17*
%TO.C,J8*%
X139827000Y-106680000D03*
X162941000Y-106680000D03*
X139827000Y-84328000D03*
X162941000Y-84328000D03*
D18*
X139192000Y-99314000D03*
D19*
X139192000Y-96774000D03*
X139192000Y-94234000D03*
X139192000Y-91694000D03*
%TD*%
D20*
%TO.C,SW2*%
X148844000Y-71664000D03*
X155344000Y-71664000D03*
X148844000Y-76164000D03*
X155344000Y-76164000D03*
%TD*%
D18*
%TO.C,J4*%
X91562000Y-80391000D03*
D19*
X94102000Y-80391000D03*
X91562000Y-82931000D03*
X94102000Y-82931000D03*
X91562000Y-85471000D03*
X94102000Y-85471000D03*
X91562000Y-88011000D03*
X94102000Y-88011000D03*
X91562000Y-90551000D03*
X94102000Y-90551000D03*
%TD*%
D13*
%TO.C,H1*%
X92964000Y-74930000D03*
%TD*%
D21*
%TO.C,SW1*%
X130012000Y-71900000D03*
X127012000Y-71900000D03*
%TD*%
D20*
%TO.C,SW3*%
X139244000Y-71664000D03*
X145744000Y-71664000D03*
X139244000Y-76164000D03*
X145744000Y-76164000D03*
%TD*%
D13*
%TO.C,H4*%
X93000000Y-144780000D03*
%TD*%
D15*
%TO.C,BZ1*%
X104498000Y-99314000D03*
D16*
X110998000Y-99314000D03*
%TD*%
D22*
%TO.C,J6*%
X166015000Y-125465000D03*
D23*
X163315000Y-124465000D03*
X163315000Y-119465000D03*
D22*
X166015000Y-118465000D03*
%TD*%
D24*
%TO.C,R20*%
X109728000Y-128397000D03*
D25*
X117348000Y-128397000D03*
%TD*%
D18*
%TO.C,J5*%
X114173000Y-121412000D03*
D19*
X114173000Y-123952000D03*
X111633000Y-121412000D03*
X111633000Y-123952000D03*
X109093000Y-121412000D03*
X109093000Y-123952000D03*
X106553000Y-121412000D03*
X106553000Y-123952000D03*
X104013000Y-121412000D03*
X104013000Y-123952000D03*
%TD*%
D26*
%TO.C,U10*%
X103886000Y-82804000D03*
D18*
X129794000Y-85344000D03*
D19*
X129794000Y-82804000D03*
X129794000Y-80264000D03*
%TD*%
M02*
