%TF.GenerationSoftware,KiCad,Pcbnew,7.0.6*%
%TF.CreationDate,2023-12-02T19:53:02-07:00*%
%TF.ProjectId,H2 Sensor Board Lucy Rev 1,48322053-656e-4736-9f72-20426f617264,rev?*%
%TF.SameCoordinates,Original*%
%TF.FileFunction,Legend,Bot*%
%TF.FilePolarity,Positive*%
%FSLAX46Y46*%
G04 Gerber Fmt 4.6, Leading zero omitted, Abs format (unit mm)*
G04 Created by KiCad (PCBNEW 7.0.6) date 2023-12-02 19:53:02*
%MOMM*%
%LPD*%
G01*
G04 APERTURE LIST*
%ADD10C,0.300000*%
%ADD11C,0.150000*%
%ADD12C,0.120000*%
G04 APERTURE END LIST*
D10*
G36*
X151055411Y-89582168D02*
G01*
X151003060Y-89555993D01*
X150969828Y-89489528D01*
X150969828Y-89274635D01*
X151003060Y-89208170D01*
X151069524Y-89174939D01*
X151136858Y-89174939D01*
X151055411Y-89582168D01*
G37*
G36*
X150955542Y-88132386D02*
G01*
X150910835Y-88221799D01*
X150873830Y-88258804D01*
X150784418Y-88303510D01*
X150640952Y-88303510D01*
X150551539Y-88258804D01*
X150514535Y-88221800D01*
X150469828Y-88132385D01*
X150469828Y-87746367D01*
X150955542Y-87746367D01*
X150955542Y-88132386D01*
G37*
G36*
X152683845Y-93817796D02*
G01*
X149955542Y-93817796D01*
X149955542Y-93024938D01*
X150169828Y-93024938D01*
X150171111Y-93029728D01*
X150170139Y-93034592D01*
X150181084Y-93066947D01*
X150189924Y-93099938D01*
X150193430Y-93103444D01*
X150195020Y-93108143D01*
X150220674Y-93130688D01*
X150244828Y-93154842D01*
X150249619Y-93156125D01*
X150253344Y-93159399D01*
X150286831Y-93166096D01*
X150319828Y-93174938D01*
X151669828Y-93174938D01*
X151669828Y-93453510D01*
X151689924Y-93528510D01*
X151744828Y-93583414D01*
X151819828Y-93603510D01*
X151894828Y-93583414D01*
X151949732Y-93528510D01*
X151969828Y-93453510D01*
X151969828Y-92596367D01*
X151949732Y-92521367D01*
X151894828Y-92466463D01*
X151819828Y-92446367D01*
X151744828Y-92466463D01*
X151689924Y-92521367D01*
X151669828Y-92596367D01*
X151669828Y-92874938D01*
X150753389Y-92874938D01*
X150783037Y-92845290D01*
X150795112Y-92824374D01*
X150811135Y-92806306D01*
X150882564Y-92663450D01*
X150898131Y-92587380D01*
X150873577Y-92513719D01*
X150815482Y-92462203D01*
X150739413Y-92446636D01*
X150665752Y-92471190D01*
X150614236Y-92529285D01*
X150553693Y-92650369D01*
X150438552Y-92765510D01*
X150236623Y-92900130D01*
X150214077Y-92925784D01*
X150189924Y-92949938D01*
X150188640Y-92954729D01*
X150185367Y-92958454D01*
X150178669Y-92991941D01*
X150169828Y-93024938D01*
X149955542Y-93024938D01*
X149955542Y-90926571D01*
X150672267Y-90926571D01*
X150678567Y-91003960D01*
X150722717Y-91067832D01*
X150792889Y-91101071D01*
X150870278Y-91094771D01*
X151870278Y-90737628D01*
X151892510Y-90722260D01*
X151916939Y-90710689D01*
X151923973Y-90700512D01*
X151934150Y-90693478D01*
X151945721Y-90669049D01*
X151961089Y-90646817D01*
X151962092Y-90634487D01*
X151967389Y-90623306D01*
X151965195Y-90596366D01*
X151967389Y-90569428D01*
X151962092Y-90558246D01*
X151961089Y-90545917D01*
X151945721Y-90523684D01*
X151934150Y-90499256D01*
X151923973Y-90492221D01*
X151916939Y-90482045D01*
X151892510Y-90470473D01*
X151870278Y-90455106D01*
X150870278Y-90097963D01*
X150792889Y-90091663D01*
X150722717Y-90124902D01*
X150678567Y-90188774D01*
X150672267Y-90266163D01*
X150705506Y-90336335D01*
X150769378Y-90380485D01*
X151373846Y-90596367D01*
X150769378Y-90812249D01*
X150705506Y-90856399D01*
X150672267Y-90926571D01*
X149955542Y-90926571D01*
X149955542Y-89524939D01*
X150669828Y-89524939D01*
X150678751Y-89558240D01*
X150685664Y-89592021D01*
X150757093Y-89734878D01*
X150763179Y-89741741D01*
X150766080Y-89750444D01*
X150788620Y-89770432D01*
X150808609Y-89792973D01*
X150817311Y-89795873D01*
X150824175Y-89801960D01*
X150967031Y-89873389D01*
X151000813Y-89880302D01*
X151034114Y-89889225D01*
X151176971Y-89889225D01*
X151200613Y-89882890D01*
X151225038Y-89881315D01*
X151237501Y-89873006D01*
X151251971Y-89869129D01*
X151269277Y-89851822D01*
X151289644Y-89838245D01*
X151296283Y-89824816D01*
X151306875Y-89814225D01*
X151313209Y-89790582D01*
X151324058Y-89768642D01*
X151442798Y-89174939D01*
X151570133Y-89174939D01*
X151636597Y-89208171D01*
X151669828Y-89274634D01*
X151669828Y-89489529D01*
X151614236Y-89600714D01*
X151598669Y-89676784D01*
X151623223Y-89750445D01*
X151681318Y-89801960D01*
X151757388Y-89817527D01*
X151831049Y-89792973D01*
X151882564Y-89734878D01*
X151953992Y-89592020D01*
X151960903Y-89558244D01*
X151969828Y-89524939D01*
X151969828Y-89239225D01*
X151960906Y-89205928D01*
X151953993Y-89172144D01*
X151882564Y-89029286D01*
X151876478Y-89022423D01*
X151873577Y-89013718D01*
X151851032Y-88993726D01*
X151831049Y-88971191D01*
X151822346Y-88968290D01*
X151815482Y-88962203D01*
X151672623Y-88890775D01*
X151638847Y-88883863D01*
X151605542Y-88874939D01*
X151034114Y-88874939D01*
X151000808Y-88883863D01*
X150967033Y-88890775D01*
X150824175Y-88962203D01*
X150817312Y-88968288D01*
X150808608Y-88971190D01*
X150788620Y-88993730D01*
X150766080Y-89013718D01*
X150763178Y-89022422D01*
X150757093Y-89029285D01*
X150685664Y-89172143D01*
X150678751Y-89205923D01*
X150669828Y-89239225D01*
X150669828Y-89524939D01*
X149955542Y-89524939D01*
X149955542Y-88167796D01*
X150169828Y-88167796D01*
X150178751Y-88201097D01*
X150185664Y-88234878D01*
X150257093Y-88377735D01*
X150273115Y-88395803D01*
X150285190Y-88416718D01*
X150356618Y-88488147D01*
X150377533Y-88500222D01*
X150395603Y-88516246D01*
X150538461Y-88587674D01*
X150572236Y-88594585D01*
X150605542Y-88603510D01*
X150819828Y-88603510D01*
X150853131Y-88594586D01*
X150886910Y-88587674D01*
X151029767Y-88516246D01*
X151047836Y-88500222D01*
X151068751Y-88488148D01*
X151140180Y-88416719D01*
X151152254Y-88395804D01*
X151168278Y-88377735D01*
X151239706Y-88234877D01*
X151240485Y-88231068D01*
X151733809Y-88576395D01*
X151806775Y-88602941D01*
X151883240Y-88589447D01*
X151942713Y-88539529D01*
X151969259Y-88466563D01*
X151955765Y-88390098D01*
X151905847Y-88330625D01*
X151255542Y-87875411D01*
X151255542Y-87746367D01*
X151819828Y-87746367D01*
X151894828Y-87726271D01*
X151949732Y-87671367D01*
X151969828Y-87596367D01*
X151949732Y-87521367D01*
X151894828Y-87466463D01*
X151819828Y-87446367D01*
X150319828Y-87446367D01*
X150244828Y-87466463D01*
X150189924Y-87521367D01*
X150169828Y-87596367D01*
X150169828Y-88167796D01*
X149955542Y-88167796D01*
X149955542Y-85855143D01*
X150672267Y-85855143D01*
X150678567Y-85932532D01*
X150722717Y-85996404D01*
X150792889Y-86029643D01*
X150870278Y-86023343D01*
X151870278Y-85666200D01*
X151872658Y-85664554D01*
X151875537Y-85664211D01*
X152232680Y-85521353D01*
X152256870Y-85503255D01*
X152283037Y-85488148D01*
X152354466Y-85416719D01*
X152366540Y-85395804D01*
X152382564Y-85377735D01*
X152453992Y-85234877D01*
X152469559Y-85158808D01*
X152445005Y-85085147D01*
X152386910Y-85033632D01*
X152310840Y-85018065D01*
X152237179Y-85042619D01*
X152185664Y-85100714D01*
X152125121Y-85221799D01*
X152092676Y-85254244D01*
X151816821Y-85364586D01*
X150870278Y-85026535D01*
X150792889Y-85020235D01*
X150722717Y-85053474D01*
X150678567Y-85117346D01*
X150672267Y-85194735D01*
X150705506Y-85264907D01*
X150769378Y-85309057D01*
X151373846Y-85524939D01*
X150769378Y-85740821D01*
X150705506Y-85784971D01*
X150672267Y-85855143D01*
X149955542Y-85855143D01*
X149955542Y-84524939D01*
X150669828Y-84524939D01*
X150678751Y-84558240D01*
X150685664Y-84592021D01*
X150757093Y-84734879D01*
X150808608Y-84792974D01*
X150882270Y-84817528D01*
X150958339Y-84801961D01*
X151016434Y-84750446D01*
X151040988Y-84676784D01*
X151025421Y-84600715D01*
X150969828Y-84489529D01*
X150969828Y-84274635D01*
X151014535Y-84185220D01*
X151051539Y-84148216D01*
X151140952Y-84103511D01*
X151498704Y-84103511D01*
X151588116Y-84148216D01*
X151625121Y-84185221D01*
X151669828Y-84274634D01*
X151669828Y-84489529D01*
X151614236Y-84600716D01*
X151598669Y-84676785D01*
X151623224Y-84750446D01*
X151681319Y-84801961D01*
X151757388Y-84817528D01*
X151831049Y-84792973D01*
X151882564Y-84734878D01*
X151953993Y-84592020D01*
X151960906Y-84558235D01*
X151969828Y-84524939D01*
X151969828Y-84239225D01*
X151960903Y-84205919D01*
X151953992Y-84172144D01*
X151882564Y-84029286D01*
X151866540Y-84011216D01*
X151854466Y-83990302D01*
X151783037Y-83918873D01*
X151762122Y-83906798D01*
X151744053Y-83890775D01*
X151601196Y-83819347D01*
X151567417Y-83812434D01*
X151534114Y-83803511D01*
X151105542Y-83803511D01*
X151072236Y-83812435D01*
X151038461Y-83819347D01*
X150895603Y-83890775D01*
X150877533Y-83906798D01*
X150856618Y-83918874D01*
X150785190Y-83990303D01*
X150773115Y-84011217D01*
X150757093Y-84029286D01*
X150685664Y-84172143D01*
X150678751Y-84205923D01*
X150669828Y-84239225D01*
X150669828Y-84524939D01*
X149955542Y-84524939D01*
X149955542Y-83310654D01*
X150669828Y-83310654D01*
X150689924Y-83385654D01*
X150744828Y-83440558D01*
X150819828Y-83460654D01*
X151819828Y-83460654D01*
X151894828Y-83440558D01*
X151949732Y-83385654D01*
X151969828Y-83310654D01*
X151949732Y-83235654D01*
X151928503Y-83214425D01*
X151953992Y-83163449D01*
X151960903Y-83129673D01*
X151969828Y-83096368D01*
X151969828Y-82882082D01*
X151960903Y-82848776D01*
X151953992Y-82815001D01*
X151882564Y-82672143D01*
X151876478Y-82665280D01*
X151873577Y-82656576D01*
X151851036Y-82636588D01*
X151831049Y-82614048D01*
X151822344Y-82611146D01*
X151815482Y-82605061D01*
X151672624Y-82533632D01*
X151638843Y-82526719D01*
X151605542Y-82517796D01*
X150819828Y-82517796D01*
X150744828Y-82537892D01*
X150689924Y-82592796D01*
X150669828Y-82667796D01*
X150689924Y-82742796D01*
X150744828Y-82797700D01*
X150819828Y-82817796D01*
X151570132Y-82817796D01*
X151636596Y-82851028D01*
X151669828Y-82917491D01*
X151669828Y-83060958D01*
X151625121Y-83150371D01*
X151614839Y-83160654D01*
X150819828Y-83160654D01*
X150744828Y-83180750D01*
X150689924Y-83235654D01*
X150669828Y-83310654D01*
X149955542Y-83310654D01*
X149955542Y-81453510D01*
X150169828Y-81453510D01*
X150189924Y-81528510D01*
X150244828Y-81583414D01*
X150319828Y-81603510D01*
X151669828Y-81603510D01*
X151669828Y-82167796D01*
X151689924Y-82242796D01*
X151744828Y-82297700D01*
X151819828Y-82317796D01*
X151894828Y-82297700D01*
X151949732Y-82242796D01*
X151969828Y-82167796D01*
X151969828Y-81453510D01*
X151949732Y-81378510D01*
X151894828Y-81323606D01*
X151819828Y-81303510D01*
X150319828Y-81303510D01*
X150244828Y-81323606D01*
X150189924Y-81378510D01*
X150169828Y-81453510D01*
X149955542Y-81453510D01*
X149955542Y-81089224D01*
X152683845Y-81089224D01*
X152683845Y-93817796D01*
G37*
G36*
X149175116Y-99576786D02*
G01*
X149212121Y-99613791D01*
X149256828Y-99703204D01*
X149256828Y-99918099D01*
X149242695Y-99946367D01*
X148570962Y-99946367D01*
X148556828Y-99918098D01*
X148556828Y-99703205D01*
X148601535Y-99613790D01*
X148638539Y-99576786D01*
X148727952Y-99532081D01*
X149085704Y-99532081D01*
X149175116Y-99576786D01*
G37*
G36*
X149223597Y-97279599D02*
G01*
X149256828Y-97346062D01*
X149256828Y-97632385D01*
X149242695Y-97660653D01*
X148985400Y-97660653D01*
X148985400Y-97346062D01*
X149018631Y-97279598D01*
X149085095Y-97246367D01*
X149157133Y-97246367D01*
X149223597Y-97279599D01*
G37*
G36*
X149175116Y-95933929D02*
G01*
X149212121Y-95970934D01*
X149256828Y-96060347D01*
X149256828Y-96203814D01*
X149212121Y-96293227D01*
X149175116Y-96330232D01*
X149085704Y-96374938D01*
X148727952Y-96374938D01*
X148638539Y-96330232D01*
X148601535Y-96293228D01*
X148556828Y-96203813D01*
X148556828Y-96060348D01*
X148601535Y-95970933D01*
X148638539Y-95933929D01*
X148727952Y-95889224D01*
X149085704Y-95889224D01*
X149175116Y-95933929D01*
G37*
G36*
X149256828Y-94846671D02*
G01*
X149212121Y-94936084D01*
X149175116Y-94973089D01*
X149085704Y-95017795D01*
X148942238Y-95017795D01*
X148852824Y-94973088D01*
X148823647Y-94943911D01*
X148771114Y-94786309D01*
X148771114Y-94460652D01*
X149256828Y-94460652D01*
X149256828Y-94846671D01*
G37*
G36*
X148471114Y-94775242D02*
G01*
X148426407Y-94864655D01*
X148389403Y-94901659D01*
X148299990Y-94946367D01*
X148227952Y-94946367D01*
X148138539Y-94901660D01*
X148101535Y-94864656D01*
X148056828Y-94775241D01*
X148056828Y-94460652D01*
X148471114Y-94460652D01*
X148471114Y-94775242D01*
G37*
G36*
X149175116Y-91005358D02*
G01*
X149212121Y-91042363D01*
X149256828Y-91131776D01*
X149256828Y-91275243D01*
X149212121Y-91364656D01*
X149175116Y-91401661D01*
X149085704Y-91446367D01*
X148727952Y-91446367D01*
X148638539Y-91401661D01*
X148601535Y-91364657D01*
X148556828Y-91275242D01*
X148556828Y-91131777D01*
X148601535Y-91042362D01*
X148638539Y-91005358D01*
X148727952Y-90960653D01*
X149085704Y-90960653D01*
X149175116Y-91005358D01*
G37*
G36*
X148642411Y-87510739D02*
G01*
X148590060Y-87484564D01*
X148556828Y-87418099D01*
X148556828Y-87203205D01*
X148590060Y-87136741D01*
X148656524Y-87103510D01*
X148723858Y-87103510D01*
X148642411Y-87510739D01*
G37*
G36*
X149771114Y-100460653D02*
G01*
X147542542Y-100460653D01*
X147542542Y-100096367D01*
X147756828Y-100096367D01*
X147776924Y-100171367D01*
X147831828Y-100226271D01*
X147906828Y-100246367D01*
X149406828Y-100246367D01*
X149481828Y-100226271D01*
X149536732Y-100171367D01*
X149556828Y-100096367D01*
X149538083Y-100026409D01*
X149540993Y-100020590D01*
X149547906Y-99986805D01*
X149556828Y-99953509D01*
X149556828Y-99667795D01*
X149547903Y-99634489D01*
X149540992Y-99600714D01*
X149469564Y-99457856D01*
X149453540Y-99439786D01*
X149441466Y-99418872D01*
X149370037Y-99347443D01*
X149349122Y-99335368D01*
X149331053Y-99319345D01*
X149188196Y-99247917D01*
X149154417Y-99241004D01*
X149121114Y-99232081D01*
X148692542Y-99232081D01*
X148659236Y-99241005D01*
X148625461Y-99247917D01*
X148482603Y-99319345D01*
X148464533Y-99335368D01*
X148443618Y-99347444D01*
X148372190Y-99418873D01*
X148360115Y-99439787D01*
X148344093Y-99457856D01*
X148272664Y-99600713D01*
X148265751Y-99634493D01*
X148256828Y-99667795D01*
X148256828Y-99946367D01*
X147906828Y-99946367D01*
X147831828Y-99966463D01*
X147776924Y-100021367D01*
X147756828Y-100096367D01*
X147542542Y-100096367D01*
X147542542Y-98953510D01*
X148256828Y-98953510D01*
X148276924Y-99028510D01*
X148331828Y-99083414D01*
X148406828Y-99103510D01*
X148481828Y-99083414D01*
X148536732Y-99028510D01*
X148556828Y-98953510D01*
X148556828Y-98846063D01*
X148601535Y-98756648D01*
X148638539Y-98719644D01*
X148727952Y-98674938D01*
X149406828Y-98674938D01*
X149481828Y-98654842D01*
X149536732Y-98599938D01*
X149556828Y-98524938D01*
X149536732Y-98449938D01*
X149481828Y-98395034D01*
X149406828Y-98374938D01*
X148406828Y-98374938D01*
X148331828Y-98395034D01*
X148276924Y-98449938D01*
X148256828Y-98524938D01*
X148276924Y-98599938D01*
X148321961Y-98644975D01*
X148272664Y-98743571D01*
X148265751Y-98777351D01*
X148256828Y-98810653D01*
X148256828Y-98953510D01*
X147542542Y-98953510D01*
X147542542Y-97596367D01*
X148256828Y-97596367D01*
X148265751Y-97629668D01*
X148272664Y-97663449D01*
X148344093Y-97806306D01*
X148350179Y-97813169D01*
X148353080Y-97821872D01*
X148375620Y-97841860D01*
X148395609Y-97864401D01*
X148404311Y-97867301D01*
X148411175Y-97873388D01*
X148554031Y-97944817D01*
X148587813Y-97951730D01*
X148621114Y-97960653D01*
X149406828Y-97960653D01*
X149481828Y-97940557D01*
X149536732Y-97885653D01*
X149556828Y-97810653D01*
X149538083Y-97740695D01*
X149540993Y-97734876D01*
X149547906Y-97701091D01*
X149556828Y-97667795D01*
X149556828Y-97310653D01*
X149547906Y-97277356D01*
X149540993Y-97243572D01*
X149469564Y-97100714D01*
X149463478Y-97093851D01*
X149460577Y-97085146D01*
X149438032Y-97065154D01*
X149418049Y-97042619D01*
X149409346Y-97039718D01*
X149402482Y-97033631D01*
X149259623Y-96962203D01*
X149225847Y-96955291D01*
X149192542Y-96946367D01*
X149049685Y-96946367D01*
X149016379Y-96955291D01*
X148982604Y-96962203D01*
X148839746Y-97033631D01*
X148832883Y-97039716D01*
X148824179Y-97042618D01*
X148804191Y-97065158D01*
X148781651Y-97085146D01*
X148778749Y-97093850D01*
X148772664Y-97100713D01*
X148701236Y-97243572D01*
X148694324Y-97277347D01*
X148685400Y-97310653D01*
X148685400Y-97632385D01*
X148671266Y-97660653D01*
X148656524Y-97660653D01*
X148590060Y-97627421D01*
X148556828Y-97560956D01*
X148556828Y-97346063D01*
X148612421Y-97234877D01*
X148627988Y-97158808D01*
X148603434Y-97085146D01*
X148545339Y-97033631D01*
X148469270Y-97018064D01*
X148395608Y-97042618D01*
X148344093Y-97100713D01*
X148272664Y-97243571D01*
X148265751Y-97277351D01*
X148256828Y-97310653D01*
X148256828Y-97596367D01*
X147542542Y-97596367D01*
X147542542Y-96239224D01*
X148256828Y-96239224D01*
X148265751Y-96272525D01*
X148272664Y-96306306D01*
X148344093Y-96449163D01*
X148360115Y-96467231D01*
X148372190Y-96488146D01*
X148443618Y-96559575D01*
X148464533Y-96571650D01*
X148482603Y-96587674D01*
X148625461Y-96659102D01*
X148659236Y-96666013D01*
X148692542Y-96674938D01*
X149121114Y-96674938D01*
X149154417Y-96666014D01*
X149188196Y-96659102D01*
X149331053Y-96587674D01*
X149349122Y-96571650D01*
X149370037Y-96559576D01*
X149441466Y-96488147D01*
X149453540Y-96467232D01*
X149469564Y-96449163D01*
X149540992Y-96306305D01*
X149547903Y-96272529D01*
X149556828Y-96239224D01*
X149556828Y-96024938D01*
X149547903Y-95991632D01*
X149540992Y-95957857D01*
X149469564Y-95814999D01*
X149453540Y-95796929D01*
X149441466Y-95776015D01*
X149370037Y-95704586D01*
X149349122Y-95692511D01*
X149331053Y-95676488D01*
X149188196Y-95605060D01*
X149154417Y-95598147D01*
X149121114Y-95589224D01*
X148692542Y-95589224D01*
X148659236Y-95598148D01*
X148625461Y-95605060D01*
X148482603Y-95676488D01*
X148464533Y-95692511D01*
X148443618Y-95704587D01*
X148372190Y-95776016D01*
X148360115Y-95796930D01*
X148344093Y-95814999D01*
X148272664Y-95957856D01*
X148265751Y-95991636D01*
X148256828Y-96024938D01*
X148256828Y-96239224D01*
X147542542Y-96239224D01*
X147542542Y-94810652D01*
X147756828Y-94810652D01*
X147765751Y-94843953D01*
X147772664Y-94877734D01*
X147844093Y-95020592D01*
X147860116Y-95038661D01*
X147872191Y-95059576D01*
X147943619Y-95131004D01*
X147964534Y-95143079D01*
X147982603Y-95159102D01*
X148125459Y-95230531D01*
X148159241Y-95237444D01*
X148192542Y-95246367D01*
X148335400Y-95246367D01*
X148368701Y-95237443D01*
X148402482Y-95230531D01*
X148545339Y-95159102D01*
X148563407Y-95143079D01*
X148584323Y-95131004D01*
X148585687Y-95129639D01*
X148586476Y-95131004D01*
X148657905Y-95202433D01*
X148678819Y-95214507D01*
X148696889Y-95230531D01*
X148839747Y-95301959D01*
X148873522Y-95308870D01*
X148906828Y-95317795D01*
X149121114Y-95317795D01*
X149154417Y-95308871D01*
X149188196Y-95301959D01*
X149331053Y-95230531D01*
X149349122Y-95214507D01*
X149370037Y-95202433D01*
X149441466Y-95131004D01*
X149453540Y-95110089D01*
X149469564Y-95092020D01*
X149540992Y-94949162D01*
X149547903Y-94915386D01*
X149556828Y-94882081D01*
X149556828Y-94310652D01*
X149536732Y-94235652D01*
X149481828Y-94180748D01*
X149406828Y-94160652D01*
X147906828Y-94160652D01*
X147831828Y-94180748D01*
X147776924Y-94235652D01*
X147756828Y-94310652D01*
X147756828Y-94810652D01*
X147542542Y-94810652D01*
X147542542Y-92667796D01*
X148256828Y-92667796D01*
X148276924Y-92742796D01*
X148331828Y-92797700D01*
X148406828Y-92817796D01*
X148481828Y-92797700D01*
X148536732Y-92742796D01*
X148556828Y-92667796D01*
X148556828Y-92560349D01*
X148601535Y-92470934D01*
X148638539Y-92433930D01*
X148727952Y-92389224D01*
X149406828Y-92389224D01*
X149481828Y-92369128D01*
X149536732Y-92314224D01*
X149556828Y-92239224D01*
X149536732Y-92164224D01*
X149481828Y-92109320D01*
X149406828Y-92089224D01*
X148406828Y-92089224D01*
X148331828Y-92109320D01*
X148276924Y-92164224D01*
X148256828Y-92239224D01*
X148276924Y-92314224D01*
X148321961Y-92359261D01*
X148272664Y-92457857D01*
X148265751Y-92491637D01*
X148256828Y-92524939D01*
X148256828Y-92667796D01*
X147542542Y-92667796D01*
X147542542Y-91310653D01*
X148256828Y-91310653D01*
X148265751Y-91343954D01*
X148272664Y-91377735D01*
X148344093Y-91520592D01*
X148360115Y-91538660D01*
X148372190Y-91559575D01*
X148443618Y-91631004D01*
X148464533Y-91643079D01*
X148482603Y-91659103D01*
X148625461Y-91730531D01*
X148659236Y-91737442D01*
X148692542Y-91746367D01*
X149121114Y-91746367D01*
X149154417Y-91737443D01*
X149188196Y-91730531D01*
X149331053Y-91659103D01*
X149349122Y-91643079D01*
X149370037Y-91631005D01*
X149441466Y-91559576D01*
X149453540Y-91538661D01*
X149469564Y-91520592D01*
X149540992Y-91377734D01*
X149547903Y-91343958D01*
X149556828Y-91310653D01*
X149556828Y-91096367D01*
X149547903Y-91063061D01*
X149540992Y-91029286D01*
X149469564Y-90886428D01*
X149453540Y-90868358D01*
X149441466Y-90847444D01*
X149370037Y-90776015D01*
X149349122Y-90763940D01*
X149331053Y-90747917D01*
X149188196Y-90676489D01*
X149154417Y-90669576D01*
X149121114Y-90660653D01*
X148692542Y-90660653D01*
X148659236Y-90669577D01*
X148625461Y-90676489D01*
X148482603Y-90747917D01*
X148464533Y-90763940D01*
X148443618Y-90776016D01*
X148372190Y-90847445D01*
X148360115Y-90868359D01*
X148344093Y-90886428D01*
X148272664Y-91029285D01*
X148265751Y-91063065D01*
X148256828Y-91096367D01*
X148256828Y-91310653D01*
X147542542Y-91310653D01*
X147542542Y-90024938D01*
X148256828Y-90024938D01*
X148265751Y-90058239D01*
X148272664Y-90092020D01*
X148344093Y-90234877D01*
X148395609Y-90292972D01*
X148469270Y-90317526D01*
X148545339Y-90301959D01*
X148603434Y-90250443D01*
X148627988Y-90176782D01*
X148612421Y-90100712D01*
X148556828Y-89989527D01*
X148556828Y-89846063D01*
X148590060Y-89779598D01*
X148656524Y-89746367D01*
X148657133Y-89746367D01*
X148723597Y-89779599D01*
X148756828Y-89846062D01*
X148756828Y-90024938D01*
X148765751Y-90058239D01*
X148772664Y-90092020D01*
X148844093Y-90234877D01*
X148850179Y-90241740D01*
X148853080Y-90250443D01*
X148875620Y-90270431D01*
X148895609Y-90292972D01*
X148904311Y-90295872D01*
X148911175Y-90301959D01*
X149054031Y-90373388D01*
X149087813Y-90380301D01*
X149121114Y-90389224D01*
X149192542Y-90389224D01*
X149225843Y-90380300D01*
X149259624Y-90373388D01*
X149402482Y-90301959D01*
X149409344Y-90295873D01*
X149418049Y-90292972D01*
X149438036Y-90270431D01*
X149460577Y-90250444D01*
X149463478Y-90241739D01*
X149469564Y-90234877D01*
X149540992Y-90092019D01*
X149547903Y-90058243D01*
X149556828Y-90024938D01*
X149556828Y-89739224D01*
X149547903Y-89705918D01*
X149540992Y-89672143D01*
X149469564Y-89529285D01*
X149418049Y-89471190D01*
X149344388Y-89446636D01*
X149268318Y-89462203D01*
X149210223Y-89513718D01*
X149185669Y-89587379D01*
X149201236Y-89663449D01*
X149256828Y-89774633D01*
X149256828Y-89989528D01*
X149223596Y-90055991D01*
X149157132Y-90089224D01*
X149156524Y-90089224D01*
X149090060Y-90055992D01*
X149056828Y-89989527D01*
X149056828Y-89810653D01*
X149047906Y-89777356D01*
X149040993Y-89743572D01*
X148969564Y-89600714D01*
X148963478Y-89593851D01*
X148960577Y-89585146D01*
X148938032Y-89565154D01*
X148918049Y-89542619D01*
X148909346Y-89539718D01*
X148902482Y-89533631D01*
X148759623Y-89462203D01*
X148725847Y-89455291D01*
X148692542Y-89446367D01*
X148621114Y-89446367D01*
X148587808Y-89455291D01*
X148554033Y-89462203D01*
X148411175Y-89533631D01*
X148404312Y-89539716D01*
X148395608Y-89542618D01*
X148375620Y-89565158D01*
X148353080Y-89585146D01*
X148350178Y-89593850D01*
X148344093Y-89600713D01*
X148272664Y-89743571D01*
X148265751Y-89777351D01*
X148256828Y-89810653D01*
X148256828Y-90024938D01*
X147542542Y-90024938D01*
X147542542Y-88739224D01*
X148256828Y-88739224D01*
X148265751Y-88772525D01*
X148272664Y-88806306D01*
X148344093Y-88949163D01*
X148350179Y-88956026D01*
X148353080Y-88964729D01*
X148375620Y-88984717D01*
X148395609Y-89007258D01*
X148404311Y-89010158D01*
X148411175Y-89016245D01*
X148554031Y-89087674D01*
X148587813Y-89094587D01*
X148621114Y-89103510D01*
X149406828Y-89103510D01*
X149481828Y-89083414D01*
X149536732Y-89028510D01*
X149556828Y-88953510D01*
X149536732Y-88878510D01*
X149481828Y-88823606D01*
X149406828Y-88803510D01*
X148656524Y-88803510D01*
X148590060Y-88770278D01*
X148556828Y-88703813D01*
X148556828Y-88560348D01*
X148601535Y-88470933D01*
X148611818Y-88460652D01*
X149406828Y-88460652D01*
X149481828Y-88440556D01*
X149536732Y-88385652D01*
X149556828Y-88310652D01*
X149536732Y-88235652D01*
X149481828Y-88180748D01*
X149406828Y-88160652D01*
X148406828Y-88160652D01*
X148331828Y-88180748D01*
X148276924Y-88235652D01*
X148256828Y-88310652D01*
X148276924Y-88385652D01*
X148298152Y-88406880D01*
X148272664Y-88457856D01*
X148265751Y-88491636D01*
X148256828Y-88524938D01*
X148256828Y-88739224D01*
X147542542Y-88739224D01*
X147542542Y-87453510D01*
X148256828Y-87453510D01*
X148265751Y-87486811D01*
X148272664Y-87520592D01*
X148344093Y-87663449D01*
X148350179Y-87670312D01*
X148353080Y-87679015D01*
X148375620Y-87699003D01*
X148395609Y-87721544D01*
X148404311Y-87724444D01*
X148411175Y-87730531D01*
X148554031Y-87801960D01*
X148587813Y-87808873D01*
X148621114Y-87817796D01*
X148763971Y-87817796D01*
X148787613Y-87811461D01*
X148812038Y-87809886D01*
X148824501Y-87801577D01*
X148838971Y-87797700D01*
X148856277Y-87780393D01*
X148876644Y-87766816D01*
X148883283Y-87753387D01*
X148893875Y-87742796D01*
X148900209Y-87719153D01*
X148911058Y-87697213D01*
X149029798Y-87103510D01*
X149157133Y-87103510D01*
X149223597Y-87136742D01*
X149256828Y-87203205D01*
X149256828Y-87418100D01*
X149201236Y-87529285D01*
X149185669Y-87605355D01*
X149210223Y-87679016D01*
X149268318Y-87730531D01*
X149344388Y-87746098D01*
X149418049Y-87721544D01*
X149469564Y-87663449D01*
X149540992Y-87520591D01*
X149547903Y-87486815D01*
X149556828Y-87453510D01*
X149556828Y-87167796D01*
X149547906Y-87134499D01*
X149540993Y-87100715D01*
X149469564Y-86957857D01*
X149463478Y-86950994D01*
X149460577Y-86942289D01*
X149438032Y-86922297D01*
X149418049Y-86899762D01*
X149409346Y-86896861D01*
X149402482Y-86890774D01*
X149259623Y-86819346D01*
X149225847Y-86812434D01*
X149192542Y-86803510D01*
X148621114Y-86803510D01*
X148587808Y-86812434D01*
X148554033Y-86819346D01*
X148411175Y-86890774D01*
X148404312Y-86896859D01*
X148395608Y-86899761D01*
X148375620Y-86922301D01*
X148353080Y-86942289D01*
X148350178Y-86950993D01*
X148344093Y-86957856D01*
X148272664Y-87100714D01*
X148265751Y-87134494D01*
X148256828Y-87167796D01*
X148256828Y-87453510D01*
X147542542Y-87453510D01*
X147542542Y-86167796D01*
X147756828Y-86167796D01*
X147763078Y-86191124D01*
X147764526Y-86215230D01*
X147835954Y-86429516D01*
X147878736Y-86494312D01*
X147948185Y-86529037D01*
X148025691Y-86524384D01*
X148090488Y-86481602D01*
X148125212Y-86412153D01*
X148120559Y-86334647D01*
X148056828Y-86143455D01*
X148056828Y-85846063D01*
X148101535Y-85756648D01*
X148138539Y-85719644D01*
X148227952Y-85674939D01*
X148299990Y-85674939D01*
X148389401Y-85719644D01*
X148426406Y-85756649D01*
X148479586Y-85863009D01*
X148547021Y-86132747D01*
X148555057Y-86147224D01*
X148558378Y-86163449D01*
X148629807Y-86306307D01*
X148645830Y-86324376D01*
X148657906Y-86345292D01*
X148729335Y-86416720D01*
X148750249Y-86428794D01*
X148768318Y-86444817D01*
X148911174Y-86516246D01*
X148944956Y-86523159D01*
X148978257Y-86532082D01*
X149121114Y-86532082D01*
X149154415Y-86523158D01*
X149188196Y-86516246D01*
X149331053Y-86444817D01*
X149349121Y-86428794D01*
X149370036Y-86416720D01*
X149441465Y-86345292D01*
X149453542Y-86324374D01*
X149469564Y-86306306D01*
X149540993Y-86163448D01*
X149547906Y-86129663D01*
X149556828Y-86096367D01*
X149556828Y-85739225D01*
X149550578Y-85715899D01*
X149549131Y-85691791D01*
X149477703Y-85477505D01*
X149434921Y-85412709D01*
X149365472Y-85377984D01*
X149287966Y-85382636D01*
X149223170Y-85425418D01*
X149188445Y-85494867D01*
X149193097Y-85572373D01*
X149256828Y-85763567D01*
X149256828Y-86060957D01*
X149212122Y-86150369D01*
X149175118Y-86187374D01*
X149085704Y-86232082D01*
X149013667Y-86232082D01*
X148924253Y-86187374D01*
X148887248Y-86150370D01*
X148834069Y-86044011D01*
X148766635Y-85774273D01*
X148758598Y-85759796D01*
X148755278Y-85743570D01*
X148683849Y-85600714D01*
X148667826Y-85582645D01*
X148655752Y-85561731D01*
X148584324Y-85490302D01*
X148563408Y-85478226D01*
X148545339Y-85462203D01*
X148402482Y-85390775D01*
X148368703Y-85383862D01*
X148335400Y-85374939D01*
X148192542Y-85374939D01*
X148159236Y-85383863D01*
X148125461Y-85390775D01*
X147982603Y-85462203D01*
X147964533Y-85478226D01*
X147943618Y-85490302D01*
X147872190Y-85561731D01*
X147860115Y-85582645D01*
X147844093Y-85600714D01*
X147772664Y-85743571D01*
X147765751Y-85777351D01*
X147756828Y-85810653D01*
X147756828Y-86167796D01*
X147542542Y-86167796D01*
X147542542Y-83524939D01*
X147756828Y-83524939D01*
X147765751Y-83558240D01*
X147772664Y-83592021D01*
X147844093Y-83734879D01*
X147860116Y-83752948D01*
X147872191Y-83773863D01*
X147943619Y-83845291D01*
X147964534Y-83857366D01*
X147982603Y-83873389D01*
X148125459Y-83944818D01*
X148159241Y-83951731D01*
X148192542Y-83960654D01*
X148335400Y-83960654D01*
X148358728Y-83954403D01*
X148382835Y-83952956D01*
X148597119Y-83881527D01*
X148625882Y-83862535D01*
X148655751Y-83845291D01*
X149256828Y-83244213D01*
X149256828Y-83810654D01*
X149276924Y-83885654D01*
X149331828Y-83940558D01*
X149406828Y-83960654D01*
X149481828Y-83940558D01*
X149536732Y-83885654D01*
X149556828Y-83810654D01*
X149556828Y-82882082D01*
X149551717Y-82863007D01*
X149551717Y-82843259D01*
X149541843Y-82826156D01*
X149536732Y-82807082D01*
X149522767Y-82793117D01*
X149512894Y-82776016D01*
X149495792Y-82766142D01*
X149481828Y-82752178D01*
X149462753Y-82747066D01*
X149445651Y-82737193D01*
X149425903Y-82737193D01*
X149406828Y-82732082D01*
X149387753Y-82737193D01*
X149368005Y-82737193D01*
X149350902Y-82747066D01*
X149331828Y-82752178D01*
X149317863Y-82766142D01*
X149300762Y-82776016D01*
X148468657Y-83608120D01*
X148311059Y-83660654D01*
X148227952Y-83660654D01*
X148138539Y-83615947D01*
X148101535Y-83578943D01*
X148056828Y-83489529D01*
X148056828Y-83203206D01*
X148101534Y-83113793D01*
X148155751Y-83059577D01*
X148194574Y-82992334D01*
X148194574Y-82914688D01*
X148155751Y-82847445D01*
X148088508Y-82808622D01*
X148010862Y-82808622D01*
X147943619Y-82847445D01*
X147872191Y-82918873D01*
X147860116Y-82939787D01*
X147844093Y-82957857D01*
X147772664Y-83100715D01*
X147765751Y-83134495D01*
X147756828Y-83167797D01*
X147756828Y-83524939D01*
X147542542Y-83524939D01*
X147542542Y-82310653D01*
X147756828Y-82310653D01*
X147776924Y-82385653D01*
X147831828Y-82440557D01*
X147906828Y-82460653D01*
X148621114Y-82460653D01*
X149406828Y-82460653D01*
X149481828Y-82440557D01*
X149536732Y-82385653D01*
X149556828Y-82310653D01*
X149536732Y-82235653D01*
X149481828Y-82180749D01*
X149406828Y-82160653D01*
X148771114Y-82160653D01*
X148771114Y-81603510D01*
X149406828Y-81603510D01*
X149481828Y-81583414D01*
X149536732Y-81528510D01*
X149556828Y-81453510D01*
X149536732Y-81378510D01*
X149481828Y-81323606D01*
X149406828Y-81303510D01*
X147906828Y-81303510D01*
X147831828Y-81323606D01*
X147776924Y-81378510D01*
X147756828Y-81453510D01*
X147776924Y-81528510D01*
X147831828Y-81583414D01*
X147906828Y-81603510D01*
X148471114Y-81603510D01*
X148471114Y-82160653D01*
X147906828Y-82160653D01*
X147831828Y-82180749D01*
X147776924Y-82235653D01*
X147756828Y-82310653D01*
X147542542Y-82310653D01*
X147542542Y-81089224D01*
X149771114Y-81089224D01*
X149771114Y-100460653D01*
G37*
G36*
X154586828Y-88540310D02*
G01*
X154534294Y-88697912D01*
X154433688Y-88798517D01*
X154327328Y-88851698D01*
X154075507Y-88914653D01*
X153898149Y-88914653D01*
X153646327Y-88851697D01*
X153539968Y-88798518D01*
X153439361Y-88697911D01*
X153386828Y-88540312D01*
X153386828Y-88357510D01*
X154586828Y-88357510D01*
X154586828Y-88540310D01*
G37*
G36*
X156968597Y-86533600D02*
G01*
X157001828Y-86600063D01*
X157001828Y-86886386D01*
X156987695Y-86914654D01*
X156730400Y-86914654D01*
X156730400Y-86600063D01*
X156763631Y-86533599D01*
X156830095Y-86500368D01*
X156902133Y-86500368D01*
X156968597Y-86533600D01*
G37*
G36*
X159335116Y-85973644D02*
G01*
X159372121Y-86010649D01*
X159416828Y-86100062D01*
X159416828Y-86243529D01*
X159372121Y-86332942D01*
X159335116Y-86369947D01*
X159245704Y-86414653D01*
X158887952Y-86414653D01*
X158798539Y-86369947D01*
X158761535Y-86332943D01*
X158716828Y-86243528D01*
X158716828Y-86100063D01*
X158761535Y-86010648D01*
X158798539Y-85973644D01*
X158887952Y-85928939D01*
X159245704Y-85928939D01*
X159335116Y-85973644D01*
G37*
G36*
X154553597Y-84462171D02*
G01*
X154586828Y-84528634D01*
X154586828Y-84814957D01*
X154572695Y-84843225D01*
X154315400Y-84843225D01*
X154315400Y-84528634D01*
X154348631Y-84462170D01*
X154415095Y-84428939D01*
X154487133Y-84428939D01*
X154553597Y-84462171D01*
G37*
G36*
X157001828Y-83171491D02*
G01*
X157001828Y-83386386D01*
X156957121Y-83475799D01*
X156920116Y-83512804D01*
X156830704Y-83557510D01*
X156472952Y-83557510D01*
X156383539Y-83512804D01*
X156346535Y-83475800D01*
X156301828Y-83386385D01*
X156301828Y-83171491D01*
X156315962Y-83143224D01*
X156987695Y-83143224D01*
X157001828Y-83171491D01*
G37*
G36*
X153872542Y-82243529D02*
G01*
X153827835Y-82332942D01*
X153790830Y-82369947D01*
X153701418Y-82414653D01*
X153557952Y-82414653D01*
X153468539Y-82369947D01*
X153431535Y-82332943D01*
X153386828Y-82243528D01*
X153386828Y-81857510D01*
X153872542Y-81857510D01*
X153872542Y-82243529D01*
G37*
G36*
X156573257Y-82142254D02*
G01*
X156126168Y-81993225D01*
X156573257Y-81844195D01*
X156573257Y-82142254D01*
G37*
G36*
X159931114Y-93352400D02*
G01*
X152872542Y-93352400D01*
X152872542Y-92921796D01*
X156858971Y-92921796D01*
X156864082Y-92940870D01*
X156864082Y-92960619D01*
X156873955Y-92977721D01*
X156879067Y-92996796D01*
X156893031Y-93010760D01*
X156902905Y-93027862D01*
X156974335Y-93099291D01*
X156974335Y-93099292D01*
X157002755Y-93115699D01*
X157041577Y-93138114D01*
X157041578Y-93138114D01*
X157119224Y-93138114D01*
X157186464Y-93099292D01*
X157186466Y-93099291D01*
X157186467Y-93099290D01*
X157257895Y-93027861D01*
X157267768Y-93010759D01*
X157281732Y-92996796D01*
X157286843Y-92977721D01*
X157296717Y-92960619D01*
X157296717Y-92940870D01*
X157301828Y-92921796D01*
X157296717Y-92902721D01*
X157296717Y-92882973D01*
X157296717Y-92882972D01*
X157286842Y-92865869D01*
X157281732Y-92846796D01*
X157267767Y-92832831D01*
X157257894Y-92815730D01*
X157186466Y-92744302D01*
X157158047Y-92727894D01*
X157119224Y-92705479D01*
X157119223Y-92705479D01*
X157041577Y-92705479D01*
X157002754Y-92727893D01*
X156974335Y-92744301D01*
X156902906Y-92815729D01*
X156902905Y-92815729D01*
X156902905Y-92815730D01*
X156893031Y-92832831D01*
X156879067Y-92846796D01*
X156873956Y-92865869D01*
X156864082Y-92882972D01*
X156864082Y-92882973D01*
X156864082Y-92902721D01*
X156858971Y-92921796D01*
X152872542Y-92921796D01*
X152872542Y-92064654D01*
X155501828Y-92064654D01*
X155508078Y-92087982D01*
X155509526Y-92112088D01*
X155580954Y-92326374D01*
X155623736Y-92391170D01*
X155693185Y-92425895D01*
X155770691Y-92421242D01*
X155835488Y-92378460D01*
X155870212Y-92309011D01*
X155865559Y-92231505D01*
X155801828Y-92040313D01*
X155801828Y-91742921D01*
X155846535Y-91653506D01*
X155883539Y-91616502D01*
X155972952Y-91571797D01*
X156044990Y-91571797D01*
X156134401Y-91616502D01*
X156171406Y-91653507D01*
X156224586Y-91759867D01*
X156292021Y-92029605D01*
X156300057Y-92044082D01*
X156303378Y-92060307D01*
X156374807Y-92203165D01*
X156390830Y-92221234D01*
X156402906Y-92242150D01*
X156474335Y-92313578D01*
X156495249Y-92325652D01*
X156513318Y-92341675D01*
X156656174Y-92413104D01*
X156689956Y-92420017D01*
X156723257Y-92428940D01*
X156866114Y-92428940D01*
X156899415Y-92420016D01*
X156933196Y-92413104D01*
X157076053Y-92341675D01*
X157094121Y-92325652D01*
X157115036Y-92313578D01*
X157186465Y-92242150D01*
X157198542Y-92221232D01*
X157214564Y-92203164D01*
X157285993Y-92060306D01*
X157292906Y-92026521D01*
X157301828Y-91993225D01*
X157301828Y-91636083D01*
X157295578Y-91612757D01*
X157294131Y-91588649D01*
X157238514Y-91421796D01*
X159273971Y-91421796D01*
X159279082Y-91440870D01*
X159279082Y-91460619D01*
X159288955Y-91477721D01*
X159294067Y-91496796D01*
X159308031Y-91510760D01*
X159317905Y-91527862D01*
X159389334Y-91599291D01*
X159389335Y-91599292D01*
X159396586Y-91603478D01*
X159456577Y-91638114D01*
X159456578Y-91638114D01*
X159534224Y-91638114D01*
X159573047Y-91615698D01*
X159601466Y-91599291D01*
X159601467Y-91599290D01*
X159672895Y-91527861D01*
X159682768Y-91510759D01*
X159696732Y-91496796D01*
X159701843Y-91477721D01*
X159711717Y-91460619D01*
X159711717Y-91440870D01*
X159716828Y-91421796D01*
X159711717Y-91402721D01*
X159711717Y-91382973D01*
X159711717Y-91382972D01*
X159701842Y-91365869D01*
X159696732Y-91346796D01*
X159682767Y-91332831D01*
X159676673Y-91322276D01*
X159672894Y-91315730D01*
X159601466Y-91244302D01*
X159573047Y-91227894D01*
X159534224Y-91205479D01*
X159534223Y-91205479D01*
X159456577Y-91205479D01*
X159417754Y-91227893D01*
X159389335Y-91244301D01*
X159317906Y-91315729D01*
X159317905Y-91315729D01*
X159317905Y-91315730D01*
X159314126Y-91322276D01*
X159308031Y-91332831D01*
X159294067Y-91346796D01*
X159288956Y-91365869D01*
X159279082Y-91382972D01*
X159279082Y-91382973D01*
X159279082Y-91402721D01*
X159273971Y-91421796D01*
X157238514Y-91421796D01*
X157222703Y-91374363D01*
X157179921Y-91309567D01*
X157110472Y-91274842D01*
X157032966Y-91279494D01*
X156968170Y-91322276D01*
X156933445Y-91391725D01*
X156938097Y-91469231D01*
X157001828Y-91660425D01*
X157001828Y-91957815D01*
X156957122Y-92047227D01*
X156920118Y-92084232D01*
X156830704Y-92128940D01*
X156758667Y-92128940D01*
X156669253Y-92084232D01*
X156632248Y-92047228D01*
X156579069Y-91940869D01*
X156511635Y-91671131D01*
X156503598Y-91656654D01*
X156500278Y-91640428D01*
X156428849Y-91497572D01*
X156412826Y-91479503D01*
X156400752Y-91458589D01*
X156329324Y-91387160D01*
X156308408Y-91375084D01*
X156290339Y-91359061D01*
X156147482Y-91287633D01*
X156113703Y-91280720D01*
X156080400Y-91271797D01*
X155937542Y-91271797D01*
X155904236Y-91280721D01*
X155870461Y-91287633D01*
X155727603Y-91359061D01*
X155709533Y-91375084D01*
X155688618Y-91387160D01*
X155617190Y-91458589D01*
X155605115Y-91479503D01*
X155589093Y-91497572D01*
X155517664Y-91640429D01*
X155510751Y-91674209D01*
X155501828Y-91707511D01*
X155501828Y-92064654D01*
X152872542Y-92064654D01*
X152872542Y-90885111D01*
X157920907Y-90885111D01*
X157957828Y-90953417D01*
X158023956Y-90994111D01*
X158101571Y-90996289D01*
X159601571Y-90639146D01*
X159603562Y-90638069D01*
X159605824Y-90638067D01*
X159637577Y-90619683D01*
X159669877Y-90602225D01*
X159671063Y-90600297D01*
X159673021Y-90599164D01*
X159691328Y-90567366D01*
X159710571Y-90536097D01*
X159710634Y-90533834D01*
X159711763Y-90531874D01*
X159711719Y-90495185D01*
X159712749Y-90458482D01*
X159711672Y-90456490D01*
X159711670Y-90454229D01*
X159693286Y-90422475D01*
X159675828Y-90390176D01*
X159673900Y-90388989D01*
X159672767Y-90387032D01*
X159640969Y-90368724D01*
X159609700Y-90349482D01*
X159607437Y-90349418D01*
X159605477Y-90348290D01*
X159077554Y-90207510D01*
X159605477Y-90066731D01*
X159607437Y-90065602D01*
X159609700Y-90065539D01*
X159640969Y-90046296D01*
X159672767Y-90027989D01*
X159673900Y-90026031D01*
X159675828Y-90024845D01*
X159693286Y-89992545D01*
X159711670Y-89960792D01*
X159711672Y-89958530D01*
X159712749Y-89956539D01*
X159711719Y-89919835D01*
X159711763Y-89883147D01*
X159710634Y-89881186D01*
X159710571Y-89878924D01*
X159691328Y-89847654D01*
X159673021Y-89815857D01*
X159671063Y-89814723D01*
X159669877Y-89812796D01*
X159637577Y-89795337D01*
X159605824Y-89776954D01*
X159603562Y-89776951D01*
X159601571Y-89775875D01*
X158101571Y-89418732D01*
X158023956Y-89420910D01*
X157957828Y-89461604D01*
X157920907Y-89529910D01*
X157923085Y-89607525D01*
X157963779Y-89673653D01*
X158032085Y-89710574D01*
X158953797Y-89930029D01*
X158456751Y-90062575D01*
X158456591Y-90062666D01*
X158456404Y-90062667D01*
X158422801Y-90082121D01*
X158389461Y-90101317D01*
X158389367Y-90101477D01*
X158389207Y-90101571D01*
X158369868Y-90135158D01*
X158350558Y-90168514D01*
X158350557Y-90168698D01*
X158350465Y-90168860D01*
X158350511Y-90207718D01*
X158350465Y-90246159D01*
X158350556Y-90246318D01*
X158350557Y-90246506D01*
X158370011Y-90280108D01*
X158389207Y-90313449D01*
X158389367Y-90313542D01*
X158389461Y-90313703D01*
X158423048Y-90333041D01*
X158456404Y-90352352D01*
X158456588Y-90352352D01*
X158456750Y-90352445D01*
X158953797Y-90484991D01*
X158032085Y-90704447D01*
X157963779Y-90741368D01*
X157923085Y-90807496D01*
X157920907Y-90885111D01*
X152872542Y-90885111D01*
X152872542Y-89707510D01*
X154443971Y-89707510D01*
X154449082Y-89726584D01*
X154449082Y-89746333D01*
X154458955Y-89763435D01*
X154464067Y-89782510D01*
X154478030Y-89796473D01*
X154487454Y-89812796D01*
X154487905Y-89813576D01*
X154559335Y-89885005D01*
X154559335Y-89885006D01*
X154587755Y-89901413D01*
X154626577Y-89923828D01*
X154626578Y-89923828D01*
X154704224Y-89923828D01*
X154771464Y-89885006D01*
X154771466Y-89885005D01*
X154771467Y-89885004D01*
X154842895Y-89813575D01*
X154852768Y-89796473D01*
X154866732Y-89782510D01*
X154871843Y-89763435D01*
X154881717Y-89746333D01*
X154881717Y-89726584D01*
X154886828Y-89707510D01*
X154881717Y-89688435D01*
X154881717Y-89668687D01*
X154881717Y-89668686D01*
X154871842Y-89651583D01*
X154866732Y-89632510D01*
X154852767Y-89618545D01*
X154846405Y-89607525D01*
X154842894Y-89601444D01*
X154771466Y-89530016D01*
X154743047Y-89513608D01*
X154704224Y-89491193D01*
X154704223Y-89491193D01*
X154626577Y-89491193D01*
X154600621Y-89506179D01*
X154559335Y-89530015D01*
X154487906Y-89601443D01*
X154487905Y-89601443D01*
X154487905Y-89601444D01*
X154484394Y-89607525D01*
X154478031Y-89618545D01*
X154464067Y-89632510D01*
X154458956Y-89651583D01*
X154449082Y-89668686D01*
X154449082Y-89668687D01*
X154449082Y-89688435D01*
X154443971Y-89707510D01*
X152872542Y-89707510D01*
X152872542Y-88564653D01*
X153086828Y-88564653D01*
X153093078Y-88587981D01*
X153094526Y-88612087D01*
X153165954Y-88826373D01*
X153184953Y-88855148D01*
X153202191Y-88885005D01*
X153345048Y-89027862D01*
X153365963Y-89039937D01*
X153384032Y-89055960D01*
X153526888Y-89127389D01*
X153543114Y-89130709D01*
X153557591Y-89138746D01*
X153843305Y-89210174D01*
X153861807Y-89209862D01*
X153879685Y-89214653D01*
X154093971Y-89214653D01*
X154111848Y-89209862D01*
X154130351Y-89210174D01*
X154416065Y-89138746D01*
X154430542Y-89130709D01*
X154446767Y-89127389D01*
X154589624Y-89055960D01*
X154607693Y-89039937D01*
X154628608Y-89027862D01*
X154663245Y-88993225D01*
X155501828Y-88993225D01*
X155521924Y-89068225D01*
X155576828Y-89123129D01*
X155651828Y-89143225D01*
X156017092Y-89143225D01*
X156010751Y-89174209D01*
X156001828Y-89207511D01*
X156001828Y-89421797D01*
X156010751Y-89455098D01*
X156017664Y-89488879D01*
X156089093Y-89631736D01*
X156095179Y-89638599D01*
X156098080Y-89647302D01*
X156120620Y-89667290D01*
X156140609Y-89689831D01*
X156149311Y-89692731D01*
X156156175Y-89698818D01*
X156299031Y-89770247D01*
X156332813Y-89777160D01*
X156366114Y-89786083D01*
X157151828Y-89786083D01*
X157226828Y-89765987D01*
X157281732Y-89711083D01*
X157301828Y-89636083D01*
X157281732Y-89561083D01*
X157226828Y-89506179D01*
X157151828Y-89486083D01*
X156401524Y-89486083D01*
X156335060Y-89452851D01*
X156301828Y-89386386D01*
X156301828Y-89242921D01*
X156346535Y-89153506D01*
X156356818Y-89143225D01*
X157151828Y-89143225D01*
X157226828Y-89123129D01*
X157281732Y-89068225D01*
X157301828Y-88993225D01*
X157281732Y-88918225D01*
X157226828Y-88863321D01*
X157151828Y-88843225D01*
X155651828Y-88843225D01*
X155576828Y-88863321D01*
X155521924Y-88918225D01*
X155501828Y-88993225D01*
X154663245Y-88993225D01*
X154771466Y-88885005D01*
X154788705Y-88855145D01*
X154807703Y-88826373D01*
X154879131Y-88612087D01*
X154880578Y-88587978D01*
X154886828Y-88564653D01*
X154886828Y-88207510D01*
X154867689Y-88136082D01*
X156001828Y-88136082D01*
X156010751Y-88169383D01*
X156017664Y-88203164D01*
X156089093Y-88346021D01*
X156140609Y-88404116D01*
X156214270Y-88428670D01*
X156290339Y-88413103D01*
X156348434Y-88361587D01*
X156372988Y-88287926D01*
X156357421Y-88211856D01*
X156301828Y-88100671D01*
X156301828Y-87957206D01*
X156335060Y-87890742D01*
X156401524Y-87857511D01*
X156402133Y-87857511D01*
X156468597Y-87890743D01*
X156501828Y-87957206D01*
X156501828Y-88136082D01*
X156510751Y-88169383D01*
X156517664Y-88203164D01*
X156589093Y-88346021D01*
X156595179Y-88352884D01*
X156598080Y-88361587D01*
X156620620Y-88381575D01*
X156640609Y-88404116D01*
X156649311Y-88407016D01*
X156656175Y-88413103D01*
X156799031Y-88484532D01*
X156832813Y-88491445D01*
X156866114Y-88500368D01*
X156937542Y-88500368D01*
X156970843Y-88491444D01*
X157004624Y-88484532D01*
X157147482Y-88413103D01*
X157154344Y-88407017D01*
X157163049Y-88404116D01*
X157183036Y-88381575D01*
X157205577Y-88361588D01*
X157208478Y-88352883D01*
X157214564Y-88346021D01*
X157285992Y-88203163D01*
X157292903Y-88169387D01*
X157301828Y-88136082D01*
X157301828Y-87850368D01*
X157292903Y-87817062D01*
X157285992Y-87783287D01*
X157214564Y-87640429D01*
X157210709Y-87636082D01*
X158416828Y-87636082D01*
X158425751Y-87669383D01*
X158432664Y-87703164D01*
X158504093Y-87846021D01*
X158510179Y-87852884D01*
X158513080Y-87861587D01*
X158535620Y-87881575D01*
X158555609Y-87904116D01*
X158564311Y-87907016D01*
X158571175Y-87913103D01*
X158714031Y-87984532D01*
X158747813Y-87991445D01*
X158781114Y-88000368D01*
X159566828Y-88000368D01*
X159641828Y-87980272D01*
X159696732Y-87925368D01*
X159716828Y-87850368D01*
X159696732Y-87775368D01*
X159641828Y-87720464D01*
X159566828Y-87700368D01*
X158816524Y-87700368D01*
X158750060Y-87667136D01*
X158716828Y-87600671D01*
X158716828Y-87457206D01*
X158761535Y-87367791D01*
X158771818Y-87357510D01*
X159566828Y-87357510D01*
X159641828Y-87337414D01*
X159696732Y-87282510D01*
X159716828Y-87207510D01*
X159696732Y-87132510D01*
X159641828Y-87077606D01*
X159566828Y-87057510D01*
X158566828Y-87057510D01*
X158491828Y-87077606D01*
X158436924Y-87132510D01*
X158416828Y-87207510D01*
X158436924Y-87282510D01*
X158458152Y-87303738D01*
X158432664Y-87354714D01*
X158425751Y-87388494D01*
X158416828Y-87421796D01*
X158416828Y-87636082D01*
X157210709Y-87636082D01*
X157163049Y-87582334D01*
X157089388Y-87557780D01*
X157013318Y-87573347D01*
X156955223Y-87624862D01*
X156930669Y-87698523D01*
X156946236Y-87774593D01*
X157001828Y-87885777D01*
X157001828Y-88100672D01*
X156968596Y-88167135D01*
X156902132Y-88200368D01*
X156901524Y-88200368D01*
X156835060Y-88167136D01*
X156801828Y-88100671D01*
X156801828Y-87921797D01*
X156792906Y-87888500D01*
X156785993Y-87854716D01*
X156714564Y-87711858D01*
X156708478Y-87704995D01*
X156705577Y-87696290D01*
X156683032Y-87676298D01*
X156663049Y-87653763D01*
X156654346Y-87650862D01*
X156647482Y-87644775D01*
X156504623Y-87573347D01*
X156470847Y-87566435D01*
X156437542Y-87557511D01*
X156366114Y-87557511D01*
X156332808Y-87566435D01*
X156299033Y-87573347D01*
X156156175Y-87644775D01*
X156149312Y-87650860D01*
X156140608Y-87653762D01*
X156120620Y-87676302D01*
X156098080Y-87696290D01*
X156095178Y-87704994D01*
X156089093Y-87711857D01*
X156017664Y-87854715D01*
X156010751Y-87888495D01*
X156001828Y-87921797D01*
X156001828Y-88136082D01*
X154867689Y-88136082D01*
X154866732Y-88132510D01*
X154811828Y-88077606D01*
X154736828Y-88057510D01*
X153236828Y-88057510D01*
X153161828Y-88077606D01*
X153106924Y-88132510D01*
X153086828Y-88207510D01*
X153086828Y-88564653D01*
X152872542Y-88564653D01*
X152872542Y-86850368D01*
X156001828Y-86850368D01*
X156010751Y-86883669D01*
X156017664Y-86917450D01*
X156089093Y-87060307D01*
X156095179Y-87067170D01*
X156098080Y-87075873D01*
X156120620Y-87095861D01*
X156140609Y-87118402D01*
X156149311Y-87121302D01*
X156156175Y-87127389D01*
X156299031Y-87198818D01*
X156332813Y-87205731D01*
X156366114Y-87214654D01*
X157151828Y-87214654D01*
X157226828Y-87194558D01*
X157281732Y-87139654D01*
X157301828Y-87064654D01*
X157283083Y-86994696D01*
X157285993Y-86988877D01*
X157292906Y-86955092D01*
X157301828Y-86921796D01*
X157301828Y-86564654D01*
X157292906Y-86531357D01*
X157285993Y-86497573D01*
X157214564Y-86354715D01*
X157208478Y-86347852D01*
X157205577Y-86339147D01*
X157183032Y-86319155D01*
X157163049Y-86296620D01*
X157154346Y-86293719D01*
X157147482Y-86287632D01*
X157130096Y-86278939D01*
X158416828Y-86278939D01*
X158425751Y-86312240D01*
X158432664Y-86346021D01*
X158504093Y-86488878D01*
X158520115Y-86506946D01*
X158532190Y-86527861D01*
X158603618Y-86599290D01*
X158624533Y-86611365D01*
X158642603Y-86627389D01*
X158785461Y-86698817D01*
X158819236Y-86705728D01*
X158852542Y-86714653D01*
X159281114Y-86714653D01*
X159314417Y-86705729D01*
X159348196Y-86698817D01*
X159491053Y-86627389D01*
X159509122Y-86611365D01*
X159530037Y-86599291D01*
X159601466Y-86527862D01*
X159613540Y-86506947D01*
X159629564Y-86488878D01*
X159700992Y-86346020D01*
X159707903Y-86312244D01*
X159716828Y-86278939D01*
X159716828Y-86064653D01*
X159707903Y-86031347D01*
X159700992Y-85997572D01*
X159629564Y-85854714D01*
X159613540Y-85836644D01*
X159601466Y-85815730D01*
X159530037Y-85744301D01*
X159509122Y-85732226D01*
X159491053Y-85716203D01*
X159348196Y-85644775D01*
X159314417Y-85637862D01*
X159281114Y-85628939D01*
X158852542Y-85628939D01*
X158819236Y-85637863D01*
X158785461Y-85644775D01*
X158642603Y-85716203D01*
X158624533Y-85732226D01*
X158603618Y-85744302D01*
X158532190Y-85815731D01*
X158520115Y-85836645D01*
X158504093Y-85854714D01*
X158432664Y-85997571D01*
X158425751Y-86031351D01*
X158416828Y-86064653D01*
X158416828Y-86278939D01*
X157130096Y-86278939D01*
X157004623Y-86216204D01*
X156970847Y-86209292D01*
X156937542Y-86200368D01*
X156794685Y-86200368D01*
X156761379Y-86209292D01*
X156727604Y-86216204D01*
X156584746Y-86287632D01*
X156577883Y-86293717D01*
X156569179Y-86296619D01*
X156549191Y-86319159D01*
X156526651Y-86339147D01*
X156523749Y-86347851D01*
X156517664Y-86354714D01*
X156446236Y-86497573D01*
X156439324Y-86531348D01*
X156430400Y-86564654D01*
X156430400Y-86886385D01*
X156416266Y-86914654D01*
X156401524Y-86914654D01*
X156335060Y-86881422D01*
X156301828Y-86814957D01*
X156301828Y-86600063D01*
X156357421Y-86488878D01*
X156372988Y-86412809D01*
X156348434Y-86339147D01*
X156290339Y-86287632D01*
X156214270Y-86272065D01*
X156140608Y-86296619D01*
X156089093Y-86354714D01*
X156017664Y-86497572D01*
X156010751Y-86531352D01*
X156001828Y-86564654D01*
X156001828Y-86850368D01*
X152872542Y-86850368D01*
X152872542Y-86136082D01*
X153586828Y-86136082D01*
X153595751Y-86169383D01*
X153602664Y-86203164D01*
X153674093Y-86346021D01*
X153680179Y-86352884D01*
X153683080Y-86361587D01*
X153705620Y-86381575D01*
X153725609Y-86404116D01*
X153734311Y-86407016D01*
X153741175Y-86413103D01*
X153884031Y-86484532D01*
X153917813Y-86491445D01*
X153951114Y-86500368D01*
X154736828Y-86500368D01*
X154811828Y-86480272D01*
X154866732Y-86425368D01*
X154886828Y-86350368D01*
X154866732Y-86275368D01*
X154811828Y-86220464D01*
X154736828Y-86200368D01*
X153986524Y-86200368D01*
X153920060Y-86167136D01*
X153886828Y-86100671D01*
X153886828Y-85957206D01*
X153931535Y-85867791D01*
X153941818Y-85857510D01*
X154736828Y-85857510D01*
X154811828Y-85837414D01*
X154866732Y-85782510D01*
X154886828Y-85707510D01*
X154866732Y-85632510D01*
X154811828Y-85577606D01*
X154736828Y-85557510D01*
X153736828Y-85557510D01*
X153661828Y-85577606D01*
X153606924Y-85632510D01*
X153586828Y-85707510D01*
X153606924Y-85782510D01*
X153628152Y-85803738D01*
X153602664Y-85854714D01*
X153595751Y-85888494D01*
X153586828Y-85921796D01*
X153586828Y-86136082D01*
X152872542Y-86136082D01*
X152872542Y-85493225D01*
X156001828Y-85493225D01*
X156010751Y-85526526D01*
X156017664Y-85560307D01*
X156089093Y-85703164D01*
X156095179Y-85710027D01*
X156098080Y-85718730D01*
X156120620Y-85738718D01*
X156140609Y-85761259D01*
X156149311Y-85764159D01*
X156156175Y-85770246D01*
X156299031Y-85841675D01*
X156332813Y-85848588D01*
X156366114Y-85857511D01*
X157151828Y-85857511D01*
X157226828Y-85837415D01*
X157281732Y-85782511D01*
X157301828Y-85707511D01*
X157281732Y-85632511D01*
X157226828Y-85577607D01*
X157151828Y-85557511D01*
X156401524Y-85557511D01*
X156335060Y-85524279D01*
X156301828Y-85457814D01*
X156301828Y-85314349D01*
X156346535Y-85224934D01*
X156356818Y-85214653D01*
X157151828Y-85214653D01*
X157226828Y-85194557D01*
X157281732Y-85139653D01*
X157301828Y-85064653D01*
X157281732Y-84989653D01*
X157226828Y-84934749D01*
X157178486Y-84921796D01*
X158416828Y-84921796D01*
X158425751Y-84955097D01*
X158432664Y-84988878D01*
X158504093Y-85131735D01*
X158510179Y-85138598D01*
X158513080Y-85147301D01*
X158535620Y-85167289D01*
X158555609Y-85189830D01*
X158564311Y-85192730D01*
X158571175Y-85198817D01*
X158714031Y-85270246D01*
X158747813Y-85277159D01*
X158781114Y-85286082D01*
X159566828Y-85286082D01*
X159641828Y-85265986D01*
X159696732Y-85211082D01*
X159716828Y-85136082D01*
X159696732Y-85061082D01*
X159641828Y-85006178D01*
X159566828Y-84986082D01*
X158816524Y-84986082D01*
X158750060Y-84952850D01*
X158716828Y-84886385D01*
X158716828Y-84742920D01*
X158750060Y-84676456D01*
X158816524Y-84643225D01*
X159566828Y-84643225D01*
X159641828Y-84623129D01*
X159696732Y-84568225D01*
X159716828Y-84493225D01*
X159696732Y-84418225D01*
X159641828Y-84363321D01*
X159566828Y-84343225D01*
X158816524Y-84343225D01*
X158750060Y-84309993D01*
X158716828Y-84243528D01*
X158716828Y-84100063D01*
X158761535Y-84010648D01*
X158771818Y-84000367D01*
X159566828Y-84000367D01*
X159641828Y-83980271D01*
X159696732Y-83925367D01*
X159716828Y-83850367D01*
X159696732Y-83775367D01*
X159641828Y-83720463D01*
X159566828Y-83700367D01*
X158566828Y-83700367D01*
X158491828Y-83720463D01*
X158436924Y-83775367D01*
X158416828Y-83850367D01*
X158436924Y-83925367D01*
X158458152Y-83946595D01*
X158432664Y-83997571D01*
X158425751Y-84031351D01*
X158416828Y-84064653D01*
X158416828Y-84278939D01*
X158425751Y-84312240D01*
X158432664Y-84346021D01*
X158504093Y-84488878D01*
X158507947Y-84493224D01*
X158504093Y-84497571D01*
X158432664Y-84640428D01*
X158425751Y-84674208D01*
X158416828Y-84707510D01*
X158416828Y-84921796D01*
X157178486Y-84921796D01*
X157151828Y-84914653D01*
X156151828Y-84914653D01*
X156076828Y-84934749D01*
X156021924Y-84989653D01*
X156001828Y-85064653D01*
X156021924Y-85139653D01*
X156043152Y-85160881D01*
X156017664Y-85211857D01*
X156010751Y-85245637D01*
X156001828Y-85278939D01*
X156001828Y-85493225D01*
X152872542Y-85493225D01*
X152872542Y-84778939D01*
X153586828Y-84778939D01*
X153595751Y-84812240D01*
X153602664Y-84846021D01*
X153674093Y-84988878D01*
X153680179Y-84995741D01*
X153683080Y-85004444D01*
X153705620Y-85024432D01*
X153725609Y-85046973D01*
X153734311Y-85049873D01*
X153741175Y-85055960D01*
X153884031Y-85127389D01*
X153917813Y-85134302D01*
X153951114Y-85143225D01*
X154736828Y-85143225D01*
X154811828Y-85123129D01*
X154866732Y-85068225D01*
X154886828Y-84993225D01*
X154868083Y-84923267D01*
X154870993Y-84917448D01*
X154877906Y-84883663D01*
X154886828Y-84850367D01*
X154886828Y-84493225D01*
X154877906Y-84459928D01*
X154870993Y-84426144D01*
X154833104Y-84350367D01*
X155501828Y-84350367D01*
X155506939Y-84369441D01*
X155506939Y-84389190D01*
X155516812Y-84406292D01*
X155521924Y-84425367D01*
X155535888Y-84439331D01*
X155545762Y-84456433D01*
X155617192Y-84527862D01*
X155617192Y-84527863D01*
X155645612Y-84544270D01*
X155684434Y-84566685D01*
X155684435Y-84566685D01*
X155762081Y-84566685D01*
X155829321Y-84527863D01*
X155829323Y-84527862D01*
X155829324Y-84527861D01*
X155900752Y-84456432D01*
X155910625Y-84439330D01*
X155924589Y-84425367D01*
X155929700Y-84406292D01*
X155939574Y-84389190D01*
X155939574Y-84369441D01*
X155944685Y-84350367D01*
X156001828Y-84350367D01*
X156021924Y-84425367D01*
X156076828Y-84480271D01*
X156151828Y-84500367D01*
X157151828Y-84500367D01*
X157226828Y-84480271D01*
X157281732Y-84425367D01*
X157301828Y-84350367D01*
X157281732Y-84275367D01*
X157226828Y-84220463D01*
X157151828Y-84200367D01*
X156151828Y-84200367D01*
X156076828Y-84220463D01*
X156021924Y-84275367D01*
X156001828Y-84350367D01*
X155944685Y-84350367D01*
X155939574Y-84331292D01*
X155939574Y-84311544D01*
X155939574Y-84311543D01*
X155929699Y-84294440D01*
X155924589Y-84275367D01*
X155910624Y-84261402D01*
X155900751Y-84244301D01*
X155829323Y-84172873D01*
X155788035Y-84149035D01*
X155762081Y-84134050D01*
X155762080Y-84134050D01*
X155684434Y-84134050D01*
X155650292Y-84153762D01*
X155617192Y-84172872D01*
X155545763Y-84244300D01*
X155545762Y-84244300D01*
X155545762Y-84244301D01*
X155535888Y-84261402D01*
X155521924Y-84275367D01*
X155516813Y-84294440D01*
X155506939Y-84311543D01*
X155506939Y-84311544D01*
X155506939Y-84331292D01*
X155501828Y-84350367D01*
X154833104Y-84350367D01*
X154799564Y-84283286D01*
X154793478Y-84276423D01*
X154790577Y-84267718D01*
X154768032Y-84247726D01*
X154748049Y-84225191D01*
X154739346Y-84222290D01*
X154732482Y-84216203D01*
X154589623Y-84144775D01*
X154555847Y-84137863D01*
X154522542Y-84128939D01*
X154379685Y-84128939D01*
X154346379Y-84137863D01*
X154312604Y-84144775D01*
X154169746Y-84216203D01*
X154162883Y-84222288D01*
X154154179Y-84225190D01*
X154134191Y-84247730D01*
X154111651Y-84267718D01*
X154108749Y-84276422D01*
X154102664Y-84283285D01*
X154031236Y-84426144D01*
X154024324Y-84459919D01*
X154015400Y-84493225D01*
X154015400Y-84814957D01*
X154001266Y-84843225D01*
X153986524Y-84843225D01*
X153920060Y-84809993D01*
X153886828Y-84743528D01*
X153886828Y-84528635D01*
X153942421Y-84417449D01*
X153957988Y-84341380D01*
X153933434Y-84267718D01*
X153875339Y-84216203D01*
X153799270Y-84200636D01*
X153725608Y-84225190D01*
X153674093Y-84283285D01*
X153602664Y-84426143D01*
X153595751Y-84459923D01*
X153586828Y-84493225D01*
X153586828Y-84778939D01*
X152872542Y-84778939D01*
X152872542Y-83752000D01*
X153589267Y-83752000D01*
X153595567Y-83829389D01*
X153639717Y-83893261D01*
X153709889Y-83926500D01*
X153787278Y-83920200D01*
X154787278Y-83563057D01*
X154789658Y-83561411D01*
X154792537Y-83561068D01*
X155149680Y-83418210D01*
X155173870Y-83400112D01*
X155200037Y-83385005D01*
X155271466Y-83313576D01*
X155283540Y-83292661D01*
X155299564Y-83274592D01*
X155370992Y-83131734D01*
X155386559Y-83055665D01*
X155365745Y-82993224D01*
X155501828Y-82993224D01*
X155521924Y-83068224D01*
X155576828Y-83123128D01*
X155651828Y-83143224D01*
X156001828Y-83143224D01*
X156001828Y-83421796D01*
X156010751Y-83455097D01*
X156017664Y-83488878D01*
X156089093Y-83631735D01*
X156105115Y-83649803D01*
X156117190Y-83670718D01*
X156188618Y-83742147D01*
X156209533Y-83754222D01*
X156227603Y-83770246D01*
X156370461Y-83841674D01*
X156404236Y-83848585D01*
X156437542Y-83857510D01*
X156866114Y-83857510D01*
X156899417Y-83848586D01*
X156933196Y-83841674D01*
X157076053Y-83770246D01*
X157094122Y-83754222D01*
X157115037Y-83742148D01*
X157186466Y-83670719D01*
X157198540Y-83649804D01*
X157214564Y-83631735D01*
X157285992Y-83488877D01*
X157292903Y-83455101D01*
X157301828Y-83421796D01*
X157301828Y-83136082D01*
X157301828Y-83136081D01*
X157916828Y-83136081D01*
X157921939Y-83155155D01*
X157921939Y-83174904D01*
X157931812Y-83192006D01*
X157936924Y-83211081D01*
X157950888Y-83225045D01*
X157960762Y-83242147D01*
X158032191Y-83313576D01*
X158032192Y-83313577D01*
X158039441Y-83317762D01*
X158099434Y-83352399D01*
X158099435Y-83352399D01*
X158177081Y-83352399D01*
X158225082Y-83324685D01*
X158244323Y-83313576D01*
X158244324Y-83313575D01*
X158315752Y-83242146D01*
X158325625Y-83225044D01*
X158339589Y-83211081D01*
X158344700Y-83192006D01*
X158354574Y-83174904D01*
X158354574Y-83155155D01*
X158359685Y-83136081D01*
X158416828Y-83136081D01*
X158436924Y-83211081D01*
X158491828Y-83265985D01*
X158566828Y-83286081D01*
X159566828Y-83286081D01*
X159641828Y-83265985D01*
X159696732Y-83211081D01*
X159716828Y-83136081D01*
X159696732Y-83061081D01*
X159641828Y-83006177D01*
X159566828Y-82986081D01*
X158566828Y-82986081D01*
X158491828Y-83006177D01*
X158436924Y-83061081D01*
X158416828Y-83136081D01*
X158359685Y-83136081D01*
X158354574Y-83117006D01*
X158354574Y-83097258D01*
X158354574Y-83097257D01*
X158344699Y-83080154D01*
X158339589Y-83061081D01*
X158325624Y-83047116D01*
X158315751Y-83030015D01*
X158244323Y-82958587D01*
X158211222Y-82939476D01*
X158177081Y-82919764D01*
X158177080Y-82919764D01*
X158099434Y-82919764D01*
X158080858Y-82930489D01*
X158032192Y-82958586D01*
X157960763Y-83030014D01*
X157960762Y-83030014D01*
X157960762Y-83030015D01*
X157950888Y-83047116D01*
X157936924Y-83061081D01*
X157931813Y-83080154D01*
X157921939Y-83097257D01*
X157921939Y-83097258D01*
X157921939Y-83117006D01*
X157916828Y-83136081D01*
X157301828Y-83136081D01*
X157292906Y-83102785D01*
X157285993Y-83069001D01*
X157283083Y-83063181D01*
X157301828Y-82993224D01*
X157281732Y-82918224D01*
X157226828Y-82863320D01*
X157151828Y-82843224D01*
X155651828Y-82843224D01*
X155576828Y-82863320D01*
X155521924Y-82918224D01*
X155501828Y-82993224D01*
X155365745Y-82993224D01*
X155362005Y-82982004D01*
X155303910Y-82930489D01*
X155227840Y-82914922D01*
X155154179Y-82939476D01*
X155102664Y-82997571D01*
X155042121Y-83118656D01*
X155009676Y-83151101D01*
X154733821Y-83261443D01*
X153787278Y-82923392D01*
X153709889Y-82917092D01*
X153639717Y-82950331D01*
X153595567Y-83014203D01*
X153589267Y-83091592D01*
X153622506Y-83161764D01*
X153686378Y-83205914D01*
X154290846Y-83421795D01*
X153686378Y-83637678D01*
X153622506Y-83681828D01*
X153589267Y-83752000D01*
X152872542Y-83752000D01*
X152872542Y-82278939D01*
X153086828Y-82278939D01*
X153095751Y-82312240D01*
X153102664Y-82346021D01*
X153174093Y-82488878D01*
X153190115Y-82506946D01*
X153202190Y-82527861D01*
X153273618Y-82599290D01*
X153294533Y-82611365D01*
X153312603Y-82627389D01*
X153455461Y-82698817D01*
X153489236Y-82705728D01*
X153522542Y-82714653D01*
X153736828Y-82714653D01*
X153770131Y-82705729D01*
X153803910Y-82698817D01*
X153946767Y-82627389D01*
X153964836Y-82611365D01*
X153985751Y-82599291D01*
X154057180Y-82527862D01*
X154069254Y-82506947D01*
X154085278Y-82488878D01*
X154156706Y-82346020D01*
X154157485Y-82342211D01*
X154650809Y-82687538D01*
X154723775Y-82714084D01*
X154800240Y-82700590D01*
X154859713Y-82650672D01*
X154886259Y-82577706D01*
X154872765Y-82501241D01*
X154822847Y-82441768D01*
X154225032Y-82023297D01*
X155504873Y-82023297D01*
X155508976Y-82031503D01*
X155509526Y-82040659D01*
X155526123Y-82065797D01*
X155539598Y-82092746D01*
X155547252Y-82097800D01*
X155552307Y-82105455D01*
X155579255Y-82118929D01*
X155604394Y-82135527D01*
X157104394Y-82635528D01*
X157181900Y-82640180D01*
X157251349Y-82605456D01*
X157294131Y-82540659D01*
X157298783Y-82463153D01*
X157264059Y-82393704D01*
X157199262Y-82350923D01*
X156983311Y-82278939D01*
X157916828Y-82278939D01*
X157923078Y-82302267D01*
X157924526Y-82326373D01*
X157995954Y-82540659D01*
X158038736Y-82605455D01*
X158108185Y-82640180D01*
X158185691Y-82635527D01*
X158250488Y-82592745D01*
X158285212Y-82523296D01*
X158280559Y-82445790D01*
X158216828Y-82254598D01*
X158216828Y-81957206D01*
X158261535Y-81867791D01*
X158298539Y-81830787D01*
X158387952Y-81786082D01*
X158459990Y-81786082D01*
X158549401Y-81830787D01*
X158586406Y-81867792D01*
X158639586Y-81974152D01*
X158707021Y-82243890D01*
X158715057Y-82258367D01*
X158718378Y-82274592D01*
X158789807Y-82417450D01*
X158805830Y-82435519D01*
X158817906Y-82456435D01*
X158889335Y-82527863D01*
X158910249Y-82539937D01*
X158928318Y-82555960D01*
X159071174Y-82627389D01*
X159104956Y-82634302D01*
X159138257Y-82643225D01*
X159281114Y-82643225D01*
X159314415Y-82634301D01*
X159348196Y-82627389D01*
X159491053Y-82555960D01*
X159509121Y-82539937D01*
X159530036Y-82527863D01*
X159601465Y-82456435D01*
X159613542Y-82435517D01*
X159629564Y-82417449D01*
X159700993Y-82274591D01*
X159707906Y-82240806D01*
X159716828Y-82207510D01*
X159716828Y-81850368D01*
X159710578Y-81827042D01*
X159709131Y-81802934D01*
X159637703Y-81588648D01*
X159594921Y-81523852D01*
X159525472Y-81489127D01*
X159447966Y-81493779D01*
X159383170Y-81536561D01*
X159348445Y-81606010D01*
X159353097Y-81683516D01*
X159416828Y-81874710D01*
X159416828Y-82172100D01*
X159372122Y-82261512D01*
X159335118Y-82298517D01*
X159245704Y-82343225D01*
X159173667Y-82343225D01*
X159084253Y-82298517D01*
X159047248Y-82261513D01*
X158994069Y-82155154D01*
X158926635Y-81885416D01*
X158918598Y-81870939D01*
X158915278Y-81854713D01*
X158843849Y-81711857D01*
X158827826Y-81693788D01*
X158815752Y-81672874D01*
X158744324Y-81601445D01*
X158723408Y-81589369D01*
X158705339Y-81573346D01*
X158562482Y-81501918D01*
X158528703Y-81495005D01*
X158495400Y-81486082D01*
X158352542Y-81486082D01*
X158319236Y-81495006D01*
X158285461Y-81501918D01*
X158142603Y-81573346D01*
X158124533Y-81589369D01*
X158103618Y-81601445D01*
X158032190Y-81672874D01*
X158020115Y-81693788D01*
X158004093Y-81711857D01*
X157932664Y-81854714D01*
X157925751Y-81888494D01*
X157916828Y-81921796D01*
X157916828Y-82278939D01*
X156983311Y-82278939D01*
X156873257Y-82242254D01*
X156873257Y-81744195D01*
X157199262Y-81635527D01*
X157264059Y-81592746D01*
X157298783Y-81523297D01*
X157294131Y-81445791D01*
X157251349Y-81380994D01*
X157181900Y-81346270D01*
X157104394Y-81350922D01*
X155604394Y-81850923D01*
X155579255Y-81867520D01*
X155552307Y-81880995D01*
X155547252Y-81888649D01*
X155539598Y-81893704D01*
X155526123Y-81920652D01*
X155509526Y-81945791D01*
X155508976Y-81954946D01*
X155504873Y-81963153D01*
X155506678Y-81993224D01*
X155504873Y-82023297D01*
X154225032Y-82023297D01*
X154172542Y-81986554D01*
X154172542Y-81857510D01*
X154736828Y-81857510D01*
X154811828Y-81837414D01*
X154866732Y-81782510D01*
X154886828Y-81707510D01*
X154866732Y-81632510D01*
X154811828Y-81577606D01*
X154736828Y-81557510D01*
X153236828Y-81557510D01*
X153161828Y-81577606D01*
X153106924Y-81632510D01*
X153086828Y-81707510D01*
X153086828Y-82278939D01*
X152872542Y-82278939D01*
X152872542Y-81131984D01*
X159931114Y-81131984D01*
X159931114Y-93352400D01*
G37*
D11*
X164798333Y-122263819D02*
X164798333Y-122978104D01*
X164798333Y-122978104D02*
X164845952Y-123120961D01*
X164845952Y-123120961D02*
X164941190Y-123216200D01*
X164941190Y-123216200D02*
X165084047Y-123263819D01*
X165084047Y-123263819D02*
X165179285Y-123263819D01*
X163893571Y-122263819D02*
X164084047Y-122263819D01*
X164084047Y-122263819D02*
X164179285Y-122311438D01*
X164179285Y-122311438D02*
X164226904Y-122359057D01*
X164226904Y-122359057D02*
X164322142Y-122501914D01*
X164322142Y-122501914D02*
X164369761Y-122692390D01*
X164369761Y-122692390D02*
X164369761Y-123073342D01*
X164369761Y-123073342D02*
X164322142Y-123168580D01*
X164322142Y-123168580D02*
X164274523Y-123216200D01*
X164274523Y-123216200D02*
X164179285Y-123263819D01*
X164179285Y-123263819D02*
X163988809Y-123263819D01*
X163988809Y-123263819D02*
X163893571Y-123216200D01*
X163893571Y-123216200D02*
X163845952Y-123168580D01*
X163845952Y-123168580D02*
X163798333Y-123073342D01*
X163798333Y-123073342D02*
X163798333Y-122835247D01*
X163798333Y-122835247D02*
X163845952Y-122740009D01*
X163845952Y-122740009D02*
X163893571Y-122692390D01*
X163893571Y-122692390D02*
X163988809Y-122644771D01*
X163988809Y-122644771D02*
X164179285Y-122644771D01*
X164179285Y-122644771D02*
X164274523Y-122692390D01*
X164274523Y-122692390D02*
X164322142Y-122740009D01*
X164322142Y-122740009D02*
X164369761Y-122835247D01*
D12*
%TO.C,U10*%
X131124000Y-84074000D02*
X131124000Y-78934000D01*
X128464000Y-86674000D02*
X129794000Y-86674000D01*
X128464000Y-85344000D02*
X128464000Y-86674000D01*
X128464000Y-84074000D02*
X131124000Y-84074000D01*
X128464000Y-84074000D02*
X128464000Y-78934000D01*
X128464000Y-78934000D02*
X131124000Y-78934000D01*
%TO.C,G\u002A\u002A\u002A*%
G36*
X146158324Y-94126693D02*
G01*
X146245835Y-94126714D01*
X146328728Y-94126746D01*
X146406708Y-94126789D01*
X146479482Y-94126841D01*
X146546757Y-94126903D01*
X146608239Y-94126976D01*
X146663633Y-94127057D01*
X146712646Y-94127148D01*
X146754985Y-94127248D01*
X146790356Y-94127358D01*
X146818464Y-94127476D01*
X146839016Y-94127603D01*
X146851719Y-94127738D01*
X146856278Y-94127882D01*
X146857054Y-94129077D01*
X146857949Y-94133571D01*
X146858709Y-94141819D01*
X146859342Y-94154288D01*
X146859852Y-94171448D01*
X146860246Y-94193766D01*
X146860529Y-94221711D01*
X146860708Y-94255751D01*
X146860789Y-94296354D01*
X146860776Y-94343989D01*
X146860677Y-94399125D01*
X146860497Y-94462229D01*
X146859417Y-94794563D01*
X145783682Y-94796673D01*
X144707947Y-94798782D01*
X144680526Y-94810880D01*
X144650529Y-94824436D01*
X144574762Y-94862032D01*
X144506716Y-94901195D01*
X144445908Y-94942335D01*
X144391859Y-94985860D01*
X144344089Y-95032181D01*
X144302117Y-95081708D01*
X144265463Y-95134849D01*
X144233647Y-95192015D01*
X144223093Y-95214113D01*
X144196632Y-95281269D01*
X144177733Y-95350620D01*
X144172939Y-95379689D01*
X144169620Y-95414904D01*
X144167928Y-95453284D01*
X144167865Y-95492540D01*
X144169434Y-95530384D01*
X144172638Y-95564528D01*
X144177478Y-95592684D01*
X144180462Y-95604615D01*
X144198230Y-95654916D01*
X144223597Y-95701706D01*
X144256607Y-95745049D01*
X144297308Y-95785006D01*
X144345744Y-95821640D01*
X144376651Y-95842312D01*
X144209156Y-95984972D01*
X144198342Y-95994182D01*
X144166238Y-96021523D01*
X144136002Y-96047267D01*
X144108287Y-96070862D01*
X144083742Y-96091753D01*
X144063018Y-96109388D01*
X144046765Y-96123212D01*
X144035633Y-96132672D01*
X144030274Y-96137214D01*
X144018886Y-96146796D01*
X143991060Y-96136322D01*
X143959540Y-96123328D01*
X143900463Y-96092481D01*
X143845507Y-96055071D01*
X143795327Y-96011764D01*
X143750575Y-95963229D01*
X143711904Y-95910135D01*
X143679968Y-95853150D01*
X143655419Y-95792942D01*
X143647120Y-95766103D01*
X143631739Y-95700051D01*
X143621747Y-95629843D01*
X143617212Y-95557167D01*
X143618203Y-95483709D01*
X143624789Y-95411158D01*
X143637038Y-95341200D01*
X143654236Y-95276169D01*
X143677575Y-95212198D01*
X143706877Y-95151766D01*
X143742749Y-95093776D01*
X143785800Y-95037130D01*
X143836637Y-94980730D01*
X143847415Y-94969782D01*
X143902612Y-94918516D01*
X143962771Y-94870406D01*
X144029043Y-94824584D01*
X144102582Y-94780180D01*
X144110642Y-94775592D01*
X144128006Y-94765585D01*
X144141709Y-94757509D01*
X144150520Y-94752099D01*
X144153205Y-94750085D01*
X144152695Y-94750048D01*
X144145171Y-94749713D01*
X144130418Y-94749178D01*
X144109459Y-94748476D01*
X144083312Y-94747636D01*
X144053000Y-94746687D01*
X144019543Y-94745661D01*
X143983962Y-94744587D01*
X143947278Y-94743496D01*
X143910512Y-94742417D01*
X143874684Y-94741382D01*
X143840815Y-94740420D01*
X143809927Y-94739561D01*
X143783040Y-94738836D01*
X143761175Y-94738274D01*
X143745353Y-94737907D01*
X143736594Y-94737764D01*
X143701763Y-94737613D01*
X143702845Y-94432821D01*
X143703928Y-94128030D01*
X145277454Y-94126950D01*
X145327224Y-94126917D01*
X145441108Y-94126849D01*
X145552722Y-94126792D01*
X145661775Y-94126748D01*
X145767971Y-94126714D01*
X145871018Y-94126693D01*
X145970622Y-94126682D01*
X146066489Y-94126682D01*
X146158324Y-94126693D01*
G37*
G36*
X145357623Y-81146214D02*
G01*
X145400564Y-81146750D01*
X145438328Y-81147741D01*
X145469399Y-81149206D01*
X145506372Y-81151700D01*
X145624731Y-81162201D01*
X145736261Y-81176207D01*
X145841685Y-81193887D01*
X145941728Y-81215409D01*
X146037113Y-81240942D01*
X146128565Y-81270655D01*
X146216808Y-81304717D01*
X146302566Y-81343295D01*
X146345405Y-81364755D01*
X146422372Y-81407966D01*
X146492794Y-81454200D01*
X146557775Y-81504211D01*
X146618424Y-81558754D01*
X146629486Y-81569586D01*
X146664493Y-81605721D01*
X146695112Y-81640812D01*
X146723530Y-81677473D01*
X146751936Y-81718318D01*
X146760338Y-81731253D01*
X146793372Y-81787956D01*
X146824891Y-81851179D01*
X146854364Y-81919421D01*
X146881257Y-81991181D01*
X146905038Y-82064958D01*
X146925176Y-82139252D01*
X146941137Y-82212562D01*
X146952389Y-82283387D01*
X146954578Y-82306614D01*
X146956165Y-82337113D01*
X146957012Y-82371802D01*
X146957147Y-82408879D01*
X146956596Y-82446543D01*
X146955387Y-82482992D01*
X146953548Y-82516426D01*
X146951105Y-82545044D01*
X146948086Y-82567043D01*
X146941186Y-82601638D01*
X146919527Y-82683927D01*
X146891168Y-82761665D01*
X146855796Y-82835639D01*
X146813098Y-82906638D01*
X146782474Y-82949916D01*
X146725432Y-83019029D01*
X146661177Y-83084034D01*
X146589898Y-83144762D01*
X146511781Y-83201046D01*
X146427014Y-83252716D01*
X146412774Y-83260403D01*
X146393722Y-83270150D01*
X146372659Y-83280517D01*
X146350950Y-83290873D01*
X146329958Y-83300588D01*
X146311048Y-83309032D01*
X146295583Y-83315575D01*
X146284928Y-83319587D01*
X146280446Y-83320437D01*
X146280654Y-83316269D01*
X146282479Y-83306091D01*
X146285536Y-83292192D01*
X146290573Y-83261688D01*
X146291184Y-83216328D01*
X146284460Y-83168249D01*
X146270578Y-83117949D01*
X146249718Y-83065927D01*
X146222058Y-83012684D01*
X146187775Y-82958718D01*
X146147050Y-82904528D01*
X146131516Y-82886092D01*
X146104815Y-82856527D01*
X146074540Y-82824934D01*
X146042519Y-82793156D01*
X146010579Y-82763038D01*
X145980546Y-82736426D01*
X145972928Y-82729959D01*
X145956389Y-82716061D01*
X145942385Y-82704488D01*
X145932205Y-82696297D01*
X145927137Y-82692547D01*
X145925889Y-82692511D01*
X145919822Y-82696326D01*
X145909267Y-82705830D01*
X145894012Y-82721235D01*
X145873844Y-82742752D01*
X145848550Y-82770591D01*
X145842849Y-82776909D01*
X145811190Y-82811278D01*
X145775236Y-82849291D01*
X145735825Y-82890129D01*
X145693790Y-82932971D01*
X145649969Y-82977000D01*
X145605198Y-83021394D01*
X145560310Y-83065337D01*
X145516144Y-83108007D01*
X145473534Y-83148586D01*
X145433317Y-83186254D01*
X145396328Y-83220192D01*
X145363403Y-83249582D01*
X145335378Y-83273603D01*
X145321586Y-83285087D01*
X145293217Y-83260386D01*
X145219444Y-83194691D01*
X145140834Y-83121832D01*
X145060692Y-83044875D01*
X144980550Y-82965340D01*
X144901938Y-82884747D01*
X144826389Y-82804616D01*
X144755432Y-82726467D01*
X144736831Y-82705776D01*
X144716769Y-82684217D01*
X144701830Y-82669216D01*
X144692043Y-82660801D01*
X144687435Y-82658999D01*
X144628723Y-82704996D01*
X144563565Y-82760928D01*
X144504672Y-82817159D01*
X144452224Y-82873406D01*
X144406400Y-82929388D01*
X144367378Y-82984825D01*
X144335337Y-83039435D01*
X144310455Y-83092937D01*
X144292912Y-83145049D01*
X144282887Y-83195490D01*
X144280557Y-83243980D01*
X144286103Y-83290237D01*
X144286375Y-83291527D01*
X144289200Y-83305826D01*
X144290922Y-83316241D01*
X144291177Y-83320595D01*
X144290940Y-83320616D01*
X144285544Y-83318815D01*
X144274205Y-83314281D01*
X144258389Y-83307613D01*
X144239560Y-83299414D01*
X144185833Y-83273986D01*
X144103421Y-83228223D01*
X144024514Y-83176118D01*
X143950502Y-83118615D01*
X143882774Y-83056660D01*
X143825258Y-82994530D01*
X143771548Y-82925210D01*
X143725613Y-82852620D01*
X143687439Y-82776736D01*
X143657014Y-82697534D01*
X143634327Y-82614988D01*
X143619366Y-82529076D01*
X143616420Y-82497838D01*
X143614557Y-82458697D01*
X143613973Y-82415841D01*
X143614629Y-82371651D01*
X143616490Y-82328505D01*
X143619518Y-82288785D01*
X143623674Y-82254869D01*
X143623849Y-82253752D01*
X143639478Y-82171942D01*
X143660957Y-82087081D01*
X143687590Y-82001401D01*
X143718687Y-81917137D01*
X143753552Y-81836521D01*
X143777024Y-81789908D01*
X143822183Y-81715120D01*
X143874600Y-81644413D01*
X143934107Y-81577950D01*
X144000538Y-81515896D01*
X144073726Y-81458416D01*
X144153504Y-81405672D01*
X144239706Y-81357830D01*
X144288184Y-81334217D01*
X144376822Y-81295912D01*
X144469165Y-81262163D01*
X144565872Y-81232796D01*
X144667606Y-81207638D01*
X144775027Y-81186515D01*
X144888796Y-81169254D01*
X145009575Y-81155680D01*
X145039204Y-81153375D01*
X145076005Y-81151332D01*
X145118224Y-81149593D01*
X145164349Y-81148180D01*
X145212866Y-81147114D01*
X145262259Y-81146417D01*
X145311016Y-81146110D01*
X145357623Y-81146214D01*
G37*
G36*
X145319336Y-83549141D02*
G01*
X145392803Y-83550132D01*
X145465636Y-83552033D01*
X145535935Y-83554815D01*
X145601803Y-83558448D01*
X145661343Y-83562905D01*
X145721614Y-83568734D01*
X145845378Y-83584622D01*
X145962146Y-83605181D01*
X146071944Y-83630418D01*
X146174802Y-83660343D01*
X146270745Y-83694966D01*
X146359802Y-83734296D01*
X146442000Y-83778343D01*
X146517365Y-83827116D01*
X146585926Y-83880624D01*
X146653421Y-83943801D01*
X146714115Y-84011827D01*
X146767758Y-84084482D01*
X146814346Y-84161759D01*
X146853876Y-84243653D01*
X146886345Y-84330157D01*
X146911751Y-84421265D01*
X146930089Y-84516970D01*
X146941358Y-84617267D01*
X146945100Y-84690884D01*
X146944930Y-84779643D01*
X146939783Y-84867298D01*
X146929818Y-84952794D01*
X146915197Y-85035081D01*
X146896077Y-85113107D01*
X146872620Y-85185817D01*
X146844984Y-85252162D01*
X146821756Y-85297995D01*
X146796555Y-85340416D01*
X146768341Y-85380599D01*
X146735649Y-85420631D01*
X146697010Y-85462599D01*
X146662391Y-85497085D01*
X146594253Y-85557309D01*
X146521798Y-85611554D01*
X146443922Y-85660618D01*
X146359516Y-85705296D01*
X146342324Y-85713469D01*
X146316605Y-85725166D01*
X146290284Y-85736614D01*
X146264542Y-85747347D01*
X146240560Y-85756896D01*
X146219520Y-85764796D01*
X146202604Y-85770580D01*
X146190994Y-85773779D01*
X146185870Y-85773928D01*
X146185853Y-85773909D01*
X146183046Y-85769390D01*
X146176742Y-85758388D01*
X146167386Y-85741719D01*
X146155423Y-85720198D01*
X146141300Y-85694642D01*
X146125460Y-85665867D01*
X146108349Y-85634688D01*
X146090413Y-85601923D01*
X146072096Y-85568386D01*
X146053844Y-85534894D01*
X146036102Y-85502264D01*
X146019315Y-85471310D01*
X146003929Y-85442850D01*
X145990388Y-85417698D01*
X145979139Y-85396673D01*
X145970625Y-85380588D01*
X145965293Y-85370261D01*
X145963588Y-85366507D01*
X145967450Y-85364737D01*
X145977147Y-85360753D01*
X145990392Y-85355516D01*
X146057934Y-85325046D01*
X146124000Y-85286272D01*
X146185433Y-85240560D01*
X146241714Y-85188257D01*
X146274501Y-85150695D01*
X146304461Y-85107317D01*
X146328759Y-85060553D01*
X146347680Y-85009620D01*
X146361511Y-84953734D01*
X146370539Y-84892114D01*
X146375049Y-84823977D01*
X146374995Y-84766354D01*
X146368918Y-84695454D01*
X146356022Y-84629518D01*
X146336290Y-84568522D01*
X146309705Y-84512442D01*
X146276251Y-84461254D01*
X146235913Y-84414934D01*
X146188672Y-84373456D01*
X146134513Y-84336798D01*
X146073420Y-84304934D01*
X146005377Y-84277841D01*
X145977222Y-84268549D01*
X145911278Y-84249887D01*
X145840183Y-84233872D01*
X145763511Y-84220454D01*
X145680840Y-84209580D01*
X145591745Y-84201201D01*
X145495801Y-84195264D01*
X145392585Y-84191718D01*
X145281672Y-84190513D01*
X145223505Y-84190807D01*
X145110987Y-84193402D01*
X145006188Y-84198698D01*
X144908914Y-84206724D01*
X144818971Y-84217510D01*
X144736166Y-84231085D01*
X144660304Y-84247479D01*
X144591191Y-84266723D01*
X144528635Y-84288844D01*
X144472440Y-84313873D01*
X144448559Y-84326414D01*
X144392900Y-84361389D01*
X144344084Y-84401118D01*
X144301941Y-84445825D01*
X144266299Y-84495738D01*
X144236989Y-84551082D01*
X144213840Y-84612083D01*
X144196680Y-84678968D01*
X144196549Y-84679616D01*
X144193339Y-84701608D01*
X144190942Y-84729920D01*
X144189357Y-84762714D01*
X144188584Y-84798148D01*
X144188620Y-84834383D01*
X144189466Y-84869579D01*
X144191119Y-84901896D01*
X144193579Y-84929495D01*
X144196845Y-84950534D01*
X144200553Y-84967437D01*
X144207512Y-84996107D01*
X144214661Y-85020654D01*
X144222861Y-85043896D01*
X144232976Y-85068654D01*
X144253333Y-85109395D01*
X144285601Y-85157298D01*
X144325406Y-85201681D01*
X144372790Y-85242582D01*
X144427795Y-85280035D01*
X144490464Y-85314075D01*
X144560837Y-85344738D01*
X144566697Y-85347076D01*
X144583411Y-85354534D01*
X144593765Y-85360572D01*
X144596893Y-85364710D01*
X144595934Y-85366972D01*
X144591461Y-85376140D01*
X144583764Y-85391376D01*
X144573287Y-85411832D01*
X144560475Y-85436661D01*
X144545772Y-85465017D01*
X144529622Y-85496050D01*
X144512469Y-85528915D01*
X144494758Y-85562764D01*
X144476932Y-85596748D01*
X144459436Y-85630021D01*
X144442713Y-85661736D01*
X144427208Y-85691045D01*
X144413366Y-85717100D01*
X144401630Y-85739054D01*
X144392444Y-85756060D01*
X144386253Y-85767270D01*
X144383501Y-85771837D01*
X144383059Y-85772202D01*
X144375793Y-85772864D01*
X144362024Y-85770389D01*
X144342756Y-85765154D01*
X144318992Y-85757537D01*
X144291735Y-85747916D01*
X144261989Y-85736669D01*
X144230756Y-85724172D01*
X144199039Y-85710805D01*
X144167842Y-85696943D01*
X144138168Y-85682966D01*
X144111020Y-85669250D01*
X144069797Y-85646302D01*
X144006214Y-85605936D01*
X143945849Y-85561545D01*
X143889743Y-85514036D01*
X143838937Y-85464314D01*
X143794473Y-85413281D01*
X143757389Y-85361845D01*
X143751513Y-85352389D01*
X143734987Y-85322977D01*
X143717860Y-85289015D01*
X143701342Y-85253091D01*
X143686645Y-85217795D01*
X143674981Y-85185716D01*
X143662591Y-85144766D01*
X143644197Y-85067176D01*
X143630507Y-84984640D01*
X143621567Y-84898509D01*
X143617423Y-84810134D01*
X143618123Y-84720864D01*
X143623715Y-84632048D01*
X143634244Y-84545037D01*
X143649758Y-84461180D01*
X143654340Y-84441416D01*
X143676365Y-84364513D01*
X143704674Y-84288021D01*
X143738523Y-84213465D01*
X143777173Y-84142369D01*
X143819882Y-84076258D01*
X143865907Y-84016657D01*
X143868680Y-84013406D01*
X143926886Y-83950689D01*
X143990017Y-83892836D01*
X144058289Y-83839766D01*
X144131913Y-83791395D01*
X144211105Y-83747641D01*
X144296079Y-83708424D01*
X144387048Y-83673660D01*
X144484226Y-83643267D01*
X144587827Y-83617163D01*
X144698066Y-83595266D01*
X144815156Y-83577495D01*
X144939310Y-83563765D01*
X145070744Y-83553997D01*
X145114098Y-83551906D01*
X145178086Y-83549999D01*
X145247131Y-83549087D01*
X145319336Y-83549141D01*
G37*
G36*
X145436904Y-86087810D02*
G01*
X145568871Y-86094230D01*
X145695529Y-86105202D01*
X145816623Y-86120680D01*
X145931903Y-86140617D01*
X146041116Y-86164966D01*
X146144009Y-86193682D01*
X146240330Y-86226717D01*
X146329828Y-86264026D01*
X146412249Y-86305562D01*
X146419323Y-86309509D01*
X146498590Y-86358119D01*
X146571066Y-86411111D01*
X146636848Y-86468648D01*
X146696030Y-86530894D01*
X146748708Y-86598013D01*
X146794977Y-86670167D01*
X146834932Y-86747522D01*
X146868668Y-86830239D01*
X146896281Y-86918483D01*
X146917866Y-87012418D01*
X146933518Y-87112208D01*
X146943333Y-87218015D01*
X146943528Y-87221404D01*
X146944204Y-87243436D01*
X146944364Y-87271719D01*
X146944059Y-87304436D01*
X146943344Y-87339774D01*
X146942268Y-87375916D01*
X146940886Y-87411047D01*
X146939249Y-87443352D01*
X146937410Y-87471015D01*
X146935422Y-87492222D01*
X146932998Y-87511905D01*
X146917342Y-87610811D01*
X146896550Y-87703330D01*
X146870459Y-87789842D01*
X146838906Y-87870726D01*
X146801728Y-87946362D01*
X146758762Y-88017130D01*
X146709846Y-88083408D01*
X146654816Y-88145576D01*
X146629058Y-88171251D01*
X146561555Y-88230307D01*
X146487129Y-88284634D01*
X146405842Y-88334210D01*
X146317754Y-88379012D01*
X146222926Y-88419019D01*
X146121418Y-88454208D01*
X146013290Y-88484559D01*
X145898605Y-88510049D01*
X145777421Y-88530656D01*
X145649800Y-88546358D01*
X145515803Y-88557134D01*
X145464540Y-88559933D01*
X145335701Y-88564283D01*
X145208739Y-88564763D01*
X145084484Y-88561429D01*
X144963765Y-88554338D01*
X144847415Y-88543548D01*
X144736263Y-88529115D01*
X144631140Y-88511097D01*
X144532876Y-88489551D01*
X144505732Y-88482668D01*
X144399265Y-88451557D01*
X144299667Y-88415573D01*
X144206913Y-88374699D01*
X144120976Y-88328920D01*
X144041831Y-88278218D01*
X143969453Y-88222579D01*
X143903815Y-88161985D01*
X143844891Y-88096421D01*
X143792656Y-88025870D01*
X143778929Y-88004382D01*
X143750161Y-87952899D01*
X143723071Y-87895772D01*
X143698455Y-87834895D01*
X143677110Y-87772166D01*
X143659830Y-87709478D01*
X143654118Y-87685268D01*
X143643773Y-87637211D01*
X143635561Y-87591678D01*
X143629283Y-87546851D01*
X143624744Y-87500912D01*
X143621745Y-87452043D01*
X143620091Y-87398426D01*
X143619583Y-87338244D01*
X143619631Y-87323449D01*
X144193816Y-87323449D01*
X144194439Y-87358385D01*
X144195898Y-87391412D01*
X144198170Y-87420366D01*
X144201235Y-87443082D01*
X144209307Y-87481052D01*
X144226916Y-87539697D01*
X144250028Y-87593306D01*
X144278875Y-87642066D01*
X144313689Y-87686162D01*
X144354700Y-87725781D01*
X144402141Y-87761109D01*
X144456243Y-87792332D01*
X144517236Y-87819637D01*
X144585353Y-87843209D01*
X144660824Y-87863236D01*
X144743882Y-87879903D01*
X144771018Y-87884411D01*
X144823496Y-87892036D01*
X144877740Y-87898434D01*
X144934856Y-87903687D01*
X144995951Y-87907878D01*
X145062132Y-87911089D01*
X145134504Y-87913403D01*
X145214175Y-87914900D01*
X145264866Y-87915382D01*
X145379676Y-87914867D01*
X145486737Y-87911971D01*
X145586309Y-87906642D01*
X145678652Y-87898827D01*
X145764024Y-87888473D01*
X145842685Y-87875527D01*
X145914894Y-87859936D01*
X145980909Y-87841647D01*
X146040991Y-87820607D01*
X146095398Y-87796763D01*
X146144389Y-87770062D01*
X146188223Y-87740452D01*
X146227161Y-87707878D01*
X146243528Y-87691905D01*
X146278122Y-87651832D01*
X146306515Y-87608485D01*
X146329231Y-87560841D01*
X146346794Y-87507875D01*
X146359728Y-87448562D01*
X146361866Y-87434432D01*
X146365516Y-87397818D01*
X146367538Y-87356763D01*
X146367935Y-87313813D01*
X146366710Y-87271512D01*
X146363866Y-87232403D01*
X146359406Y-87199031D01*
X146356578Y-87184131D01*
X146340492Y-87122446D01*
X146318263Y-87066427D01*
X146289714Y-87015799D01*
X146254672Y-86970286D01*
X146212958Y-86929612D01*
X146164398Y-86893503D01*
X146137773Y-86877091D01*
X146089412Y-86851558D01*
X146036615Y-86828826D01*
X145978910Y-86808786D01*
X145915825Y-86791327D01*
X145846886Y-86776339D01*
X145771622Y-86763711D01*
X145689559Y-86753333D01*
X145600225Y-86745094D01*
X145503147Y-86738883D01*
X145496193Y-86738548D01*
X145465986Y-86737489D01*
X145429554Y-86736702D01*
X145388120Y-86736177D01*
X145342904Y-86735904D01*
X145295129Y-86735874D01*
X145246016Y-86736076D01*
X145196787Y-86736501D01*
X145148663Y-86737139D01*
X145102867Y-86737980D01*
X145060620Y-86739015D01*
X145023143Y-86740233D01*
X144991659Y-86741625D01*
X144967389Y-86743181D01*
X144933780Y-86746043D01*
X144844129Y-86755365D01*
X144762133Y-86766603D01*
X144687349Y-86779896D01*
X144619330Y-86795383D01*
X144557633Y-86813203D01*
X144501812Y-86833494D01*
X144451422Y-86856394D01*
X144406019Y-86882042D01*
X144365157Y-86910577D01*
X144328392Y-86942136D01*
X144314881Y-86955597D01*
X144280916Y-86996403D01*
X144252611Y-87042077D01*
X144229703Y-87093167D01*
X144211931Y-87150224D01*
X144199034Y-87213796D01*
X144197159Y-87228829D01*
X144195154Y-87256507D01*
X144194047Y-87288769D01*
X144193816Y-87323449D01*
X143619631Y-87323449D01*
X143619715Y-87297231D01*
X143620254Y-87257250D01*
X143621325Y-87222461D01*
X143623051Y-87191141D01*
X143625554Y-87161571D01*
X143628957Y-87132029D01*
X143633382Y-87100794D01*
X143638951Y-87066146D01*
X143640542Y-87056830D01*
X143660769Y-86960840D01*
X143687132Y-86870358D01*
X143719730Y-86785273D01*
X143758662Y-86705475D01*
X143804028Y-86630853D01*
X143855928Y-86561294D01*
X143914462Y-86496690D01*
X143979728Y-86436928D01*
X144051826Y-86381898D01*
X144130857Y-86331488D01*
X144216919Y-86285589D01*
X144310113Y-86244088D01*
X144410538Y-86206876D01*
X144433890Y-86199166D01*
X144517540Y-86174230D01*
X144604057Y-86152627D01*
X144694179Y-86134248D01*
X144788646Y-86118986D01*
X144888196Y-86106730D01*
X144993566Y-86097372D01*
X145105495Y-86090803D01*
X145224722Y-86086915D01*
X145295129Y-86086048D01*
X145299878Y-86085989D01*
X145436904Y-86087810D01*
G37*
G36*
X145508898Y-88853274D02*
G01*
X145635755Y-88860920D01*
X145755890Y-88872579D01*
X145869555Y-88888285D01*
X145977005Y-88908075D01*
X146078494Y-88931982D01*
X146174273Y-88960043D01*
X146264599Y-88992292D01*
X146353447Y-89030821D01*
X146437457Y-89075218D01*
X146515073Y-89124945D01*
X146586480Y-89180146D01*
X146651863Y-89240965D01*
X146711409Y-89307546D01*
X146765302Y-89380031D01*
X146797776Y-89431310D01*
X146836991Y-89504846D01*
X146869986Y-89582255D01*
X146896929Y-89664061D01*
X146917985Y-89750789D01*
X146933320Y-89842960D01*
X146943101Y-89941100D01*
X146943488Y-89947274D01*
X146944545Y-89974700D01*
X146945022Y-90007469D01*
X146944937Y-90043162D01*
X146944310Y-90079360D01*
X146943159Y-90113643D01*
X146941503Y-90143592D01*
X146940740Y-90153960D01*
X146930382Y-90249781D01*
X146914491Y-90339960D01*
X146893124Y-90424303D01*
X146866337Y-90502620D01*
X146834185Y-90574718D01*
X146796725Y-90640406D01*
X146785649Y-90657056D01*
X146744280Y-90711446D01*
X146695681Y-90765222D01*
X146640773Y-90817604D01*
X146580471Y-90867812D01*
X146515695Y-90915066D01*
X146447363Y-90958586D01*
X146376391Y-90997592D01*
X146367266Y-91002137D01*
X146343974Y-91013213D01*
X146318341Y-91024821D01*
X146291794Y-91036370D01*
X146265756Y-91047270D01*
X146241651Y-91056933D01*
X146220905Y-91064767D01*
X146204943Y-91070185D01*
X146195187Y-91072595D01*
X146193195Y-91072547D01*
X146190485Y-91071414D01*
X146187179Y-91068564D01*
X146182932Y-91063427D01*
X146177402Y-91055433D01*
X146170244Y-91044014D01*
X146161115Y-91028600D01*
X146149670Y-91008621D01*
X146135567Y-90983510D01*
X146118462Y-90952695D01*
X146098010Y-90915609D01*
X146073869Y-90871681D01*
X146061537Y-90849188D01*
X146041497Y-90812494D01*
X146023003Y-90778450D01*
X146006415Y-90747734D01*
X145992096Y-90721020D01*
X145980407Y-90698987D01*
X145971711Y-90682311D01*
X145966370Y-90671667D01*
X145964745Y-90667732D01*
X145968880Y-90665548D01*
X145979248Y-90660728D01*
X145994233Y-90654021D01*
X146012239Y-90646152D01*
X146065329Y-90620557D01*
X146120042Y-90588303D01*
X146170885Y-90552138D01*
X146216943Y-90512845D01*
X146257304Y-90471210D01*
X146291055Y-90428017D01*
X146317281Y-90384050D01*
X146328932Y-90358436D01*
X146343854Y-90317962D01*
X146356605Y-90274186D01*
X146366241Y-90230072D01*
X146366613Y-90227943D01*
X146370009Y-90201636D01*
X146372437Y-90169767D01*
X146373896Y-90134326D01*
X146374381Y-90097307D01*
X146373892Y-90060700D01*
X146372426Y-90026497D01*
X146369979Y-89996690D01*
X146366551Y-89973271D01*
X146359852Y-89943360D01*
X146340388Y-89880177D01*
X146314732Y-89822660D01*
X146282708Y-89770580D01*
X146244141Y-89723710D01*
X146198854Y-89681823D01*
X146146672Y-89644691D01*
X146087419Y-89612086D01*
X146045880Y-89593537D01*
X145992546Y-89573688D01*
X145934295Y-89556077D01*
X145870563Y-89540581D01*
X145800787Y-89527081D01*
X145724402Y-89515457D01*
X145640845Y-89505588D01*
X145549551Y-89497354D01*
X145530860Y-89496161D01*
X145500737Y-89494862D01*
X145464470Y-89493795D01*
X145423273Y-89492959D01*
X145378363Y-89492354D01*
X145330952Y-89491982D01*
X145282257Y-89491841D01*
X145233492Y-89491932D01*
X145185872Y-89492254D01*
X145140612Y-89492809D01*
X145098926Y-89493595D01*
X145062030Y-89494613D01*
X145031138Y-89495862D01*
X145007465Y-89497344D01*
X144918625Y-89505628D01*
X144831023Y-89516315D01*
X144750864Y-89529008D01*
X144677727Y-89543844D01*
X144611189Y-89560962D01*
X144550832Y-89580497D01*
X144496233Y-89602588D01*
X144446973Y-89627371D01*
X144402631Y-89654984D01*
X144362785Y-89685565D01*
X144327015Y-89719249D01*
X144309537Y-89738326D01*
X144274130Y-89783936D01*
X144245077Y-89832615D01*
X144222182Y-89884962D01*
X144205251Y-89941576D01*
X144194087Y-90003054D01*
X144188493Y-90069997D01*
X144188275Y-90143001D01*
X144188824Y-90157652D01*
X144192864Y-90213400D01*
X144200037Y-90263157D01*
X144210704Y-90308539D01*
X144225224Y-90351160D01*
X144243959Y-90392637D01*
X144252579Y-90408692D01*
X144284235Y-90455924D01*
X144323661Y-90499961D01*
X144370812Y-90540767D01*
X144425647Y-90578308D01*
X144488120Y-90612550D01*
X144558188Y-90643457D01*
X144570239Y-90648248D01*
X144584948Y-90654165D01*
X144595212Y-90658381D01*
X144599329Y-90660204D01*
X144599312Y-90660304D01*
X144597051Y-90665063D01*
X144591355Y-90676351D01*
X144582654Y-90693348D01*
X144571375Y-90715233D01*
X144557946Y-90741186D01*
X144542795Y-90770387D01*
X144526350Y-90802017D01*
X144509040Y-90835254D01*
X144491293Y-90869278D01*
X144473536Y-90903271D01*
X144456197Y-90936410D01*
X144439706Y-90967876D01*
X144424489Y-90996850D01*
X144410975Y-91022510D01*
X144399592Y-91044037D01*
X144390768Y-91060610D01*
X144384931Y-91071410D01*
X144382510Y-91075616D01*
X144381047Y-91075823D01*
X144372851Y-91074152D01*
X144358688Y-91070056D01*
X144339816Y-91063980D01*
X144317495Y-91056367D01*
X144292984Y-91047659D01*
X144267542Y-91038300D01*
X144242428Y-91028734D01*
X144218902Y-91019403D01*
X144198223Y-91010750D01*
X144144154Y-90985889D01*
X144065928Y-90944025D01*
X143993647Y-90897535D01*
X143926248Y-90845711D01*
X143862667Y-90787849D01*
X143842285Y-90767154D01*
X143797105Y-90715761D01*
X143758277Y-90662547D01*
X143725133Y-90606301D01*
X143697008Y-90545811D01*
X143673233Y-90479866D01*
X143653142Y-90407252D01*
X143645910Y-90375697D01*
X143634208Y-90313852D01*
X143625803Y-90251182D01*
X143620527Y-90185889D01*
X143618210Y-90116173D01*
X143618683Y-90040237D01*
X143618970Y-90029068D01*
X143620135Y-89996284D01*
X143621726Y-89963502D01*
X143623616Y-89932832D01*
X143625681Y-89906381D01*
X143627797Y-89886259D01*
X143629791Y-89871441D01*
X143647448Y-89772380D01*
X143672014Y-89678154D01*
X143703487Y-89588766D01*
X143741863Y-89504222D01*
X143787140Y-89424528D01*
X143839314Y-89349688D01*
X143898384Y-89279707D01*
X143964345Y-89214592D01*
X144037195Y-89154346D01*
X144081475Y-89122653D01*
X144159552Y-89074520D01*
X144244615Y-89030985D01*
X144336595Y-88992069D01*
X144435420Y-88957797D01*
X144541022Y-88928192D01*
X144653330Y-88903277D01*
X144772273Y-88883075D01*
X144897783Y-88867610D01*
X144936796Y-88863749D01*
X144972036Y-88860531D01*
X145004834Y-88857897D01*
X145036744Y-88855768D01*
X145069321Y-88854061D01*
X145104119Y-88852695D01*
X145142692Y-88851588D01*
X145186593Y-88850659D01*
X145237377Y-88849827D01*
X145375065Y-88849605D01*
X145508898Y-88853274D01*
G37*
G36*
X146071732Y-91362169D02*
G01*
X146153997Y-91367435D01*
X146231851Y-91375575D01*
X146318518Y-91389209D01*
X146401757Y-91407929D01*
X146478596Y-91431420D01*
X146549390Y-91459792D01*
X146614495Y-91493155D01*
X146638089Y-91507454D01*
X146695504Y-91548981D01*
X146747575Y-91596808D01*
X146794039Y-91650566D01*
X146834629Y-91709884D01*
X146869080Y-91774392D01*
X146897128Y-91843721D01*
X146918507Y-91917500D01*
X146919376Y-91921241D01*
X146925421Y-91950650D01*
X146931267Y-91984336D01*
X146936444Y-92019184D01*
X146940485Y-92052082D01*
X146942922Y-92079915D01*
X146945069Y-92132828D01*
X146943873Y-92223999D01*
X146936685Y-92314505D01*
X146923693Y-92402859D01*
X146905085Y-92487573D01*
X146881052Y-92567159D01*
X146850019Y-92646547D01*
X146809085Y-92731935D01*
X146761728Y-92814238D01*
X146708800Y-92891986D01*
X146651156Y-92963705D01*
X146645291Y-92970460D01*
X146635574Y-92982259D01*
X146630690Y-92989677D01*
X146629954Y-92993922D01*
X146632678Y-92996202D01*
X146633066Y-92996357D01*
X146641091Y-92999496D01*
X146654138Y-93004532D01*
X146669581Y-93010452D01*
X146716529Y-93032034D01*
X146762623Y-93061597D01*
X146803272Y-93097073D01*
X146837947Y-93137917D01*
X146866119Y-93183590D01*
X146887258Y-93233546D01*
X146897678Y-93270769D01*
X146906903Y-93323755D01*
X146911348Y-93380564D01*
X146911037Y-93439448D01*
X146905996Y-93498658D01*
X146896250Y-93556447D01*
X146881823Y-93611067D01*
X146872186Y-93638887D01*
X146854802Y-93678818D01*
X146835060Y-93712244D01*
X146812354Y-93740296D01*
X146800357Y-93752957D01*
X146610521Y-93743552D01*
X146581374Y-93742114D01*
X146543078Y-93740241D01*
X146507607Y-93738527D01*
X146475895Y-93737015D01*
X146448876Y-93735750D01*
X146427483Y-93734774D01*
X146412649Y-93734133D01*
X146405308Y-93733870D01*
X146389931Y-93733593D01*
X146397938Y-93707868D01*
X146403966Y-93685814D01*
X146408861Y-93653130D01*
X146407101Y-93625304D01*
X146398489Y-93601891D01*
X146382830Y-93582450D01*
X146359925Y-93566536D01*
X146329579Y-93553707D01*
X146327629Y-93553095D01*
X146324204Y-93552226D01*
X146319912Y-93551427D01*
X146314392Y-93550694D01*
X146307284Y-93550023D01*
X146298227Y-93549409D01*
X146286861Y-93548849D01*
X146272825Y-93548337D01*
X146255760Y-93547869D01*
X146235304Y-93547441D01*
X146211096Y-93547049D01*
X146182778Y-93546687D01*
X146149987Y-93546352D01*
X146112364Y-93546038D01*
X146069548Y-93545743D01*
X146021178Y-93545460D01*
X145966895Y-93545187D01*
X145906338Y-93544917D01*
X145839145Y-93544647D01*
X145764958Y-93544373D01*
X145683415Y-93544090D01*
X145594155Y-93543794D01*
X145496819Y-93543480D01*
X145438629Y-93543288D01*
X145330939Y-93542901D01*
X145231478Y-93542498D01*
X145140110Y-93542078D01*
X145056698Y-93541639D01*
X144981103Y-93541180D01*
X144913189Y-93540700D01*
X144852818Y-93540198D01*
X144799853Y-93539672D01*
X144754157Y-93539122D01*
X144715593Y-93538546D01*
X144684022Y-93537943D01*
X144659309Y-93537312D01*
X144641315Y-93536652D01*
X144629903Y-93535961D01*
X144596166Y-93532914D01*
X144514710Y-93524330D01*
X144440494Y-93514565D01*
X144372695Y-93503456D01*
X144310490Y-93490846D01*
X144253056Y-93476572D01*
X144199570Y-93460476D01*
X144149208Y-93442396D01*
X144106265Y-93424405D01*
X144032037Y-93386688D01*
X143963635Y-93342918D01*
X143901151Y-93293208D01*
X143844672Y-93237673D01*
X143794290Y-93176427D01*
X143750094Y-93109585D01*
X143712173Y-93037261D01*
X143680618Y-92959571D01*
X143655518Y-92876628D01*
X143636963Y-92788547D01*
X143636388Y-92785117D01*
X143631764Y-92756068D01*
X143628094Y-92729422D01*
X143625229Y-92703373D01*
X143623020Y-92676113D01*
X143621318Y-92645836D01*
X143619974Y-92610735D01*
X143618838Y-92569005D01*
X143618141Y-92518704D01*
X143619759Y-92427600D01*
X143625391Y-92342205D01*
X143635201Y-92261308D01*
X143649353Y-92183700D01*
X143668010Y-92108170D01*
X143691337Y-92033510D01*
X143693634Y-92026927D01*
X143725941Y-91947012D01*
X143765659Y-91868622D01*
X143811842Y-91793458D01*
X143863548Y-91723219D01*
X143882644Y-91700703D01*
X143920033Y-91661325D01*
X143962795Y-91621052D01*
X144009357Y-91581203D01*
X144058145Y-91543102D01*
X144107587Y-91508068D01*
X144156110Y-91477424D01*
X144177999Y-91464528D01*
X144331181Y-91643815D01*
X144350550Y-91666498D01*
X144377933Y-91698616D01*
X144403302Y-91728429D01*
X144426161Y-91755350D01*
X144446014Y-91778795D01*
X144462365Y-91798175D01*
X144474716Y-91812905D01*
X144482573Y-91822399D01*
X144485439Y-91826070D01*
X144483197Y-91828982D01*
X144475270Y-91835775D01*
X144462919Y-91845271D01*
X144447490Y-91856395D01*
X144416205Y-91880238D01*
X144377798Y-91914114D01*
X144340036Y-91952001D01*
X144304671Y-91992012D01*
X144273459Y-92032260D01*
X144248152Y-92070858D01*
X144236219Y-92092732D01*
X144213776Y-92144984D01*
X144196414Y-92203291D01*
X144184089Y-92267855D01*
X144176757Y-92338878D01*
X144174375Y-92416562D01*
X144176404Y-92484825D01*
X144182778Y-92549418D01*
X144193628Y-92607760D01*
X144209082Y-92660391D01*
X144229269Y-92707847D01*
X144254317Y-92750667D01*
X144254354Y-92750721D01*
X144283159Y-92787202D01*
X144317727Y-92819832D01*
X144358370Y-92848757D01*
X144405401Y-92874124D01*
X144459132Y-92896080D01*
X144519876Y-92914773D01*
X144587945Y-92930347D01*
X144663652Y-92942952D01*
X144675551Y-92944329D01*
X144696535Y-92946036D01*
X144722479Y-92947585D01*
X144752429Y-92948962D01*
X144785426Y-92950158D01*
X144820514Y-92951159D01*
X144856738Y-92951954D01*
X144893139Y-92952533D01*
X144928762Y-92952883D01*
X144962650Y-92952992D01*
X144993847Y-92952849D01*
X145021395Y-92952443D01*
X145044339Y-92951762D01*
X145061721Y-92950794D01*
X145072586Y-92949527D01*
X145075976Y-92947951D01*
X145075939Y-92947854D01*
X145073786Y-92941315D01*
X145069813Y-92928553D01*
X145064575Y-92911366D01*
X145058626Y-92891558D01*
X145050966Y-92865149D01*
X145027662Y-92773915D01*
X145008514Y-92680805D01*
X144993532Y-92586653D01*
X144982724Y-92492292D01*
X144976099Y-92398554D01*
X144976055Y-92396903D01*
X145437494Y-92396903D01*
X145437514Y-92466452D01*
X145441317Y-92540057D01*
X145448935Y-92617218D01*
X145460397Y-92697432D01*
X145475736Y-92780197D01*
X145478826Y-92795099D01*
X145487260Y-92834626D01*
X145495163Y-92869621D01*
X145503188Y-92902915D01*
X145511987Y-92937339D01*
X145516128Y-92953158D01*
X145858724Y-92953069D01*
X146201320Y-92952980D01*
X146232843Y-92912899D01*
X146261748Y-92874551D01*
X146309982Y-92801442D01*
X146350180Y-92726890D01*
X146382589Y-92650349D01*
X146407457Y-92571273D01*
X146425033Y-92489116D01*
X146426095Y-92482040D01*
X146428610Y-92458773D01*
X146430680Y-92430312D01*
X146432255Y-92398597D01*
X146433284Y-92365572D01*
X146433718Y-92333178D01*
X146433507Y-92303357D01*
X146432600Y-92278052D01*
X146430948Y-92259204D01*
X146425002Y-92223526D01*
X146412167Y-92174077D01*
X146394550Y-92131154D01*
X146371739Y-92094241D01*
X146343321Y-92062824D01*
X146308885Y-92036388D01*
X146268016Y-92014419D01*
X146220304Y-91996402D01*
X146204197Y-91991601D01*
X146148049Y-91978659D01*
X146084919Y-91969336D01*
X146015320Y-91963696D01*
X145939769Y-91961802D01*
X145871574Y-91963317D01*
X145800095Y-91968815D01*
X145735838Y-91978365D01*
X145678689Y-91992001D01*
X145628533Y-92009756D01*
X145585257Y-92031666D01*
X145548745Y-92057765D01*
X145518885Y-92088086D01*
X145515056Y-92092912D01*
X145493037Y-92127579D01*
X145474613Y-92169315D01*
X145459816Y-92217617D01*
X145448676Y-92271984D01*
X145441225Y-92331913D01*
X145437494Y-92396903D01*
X144976055Y-92396903D01*
X144973665Y-92306273D01*
X144975431Y-92216281D01*
X144981406Y-92129412D01*
X144991598Y-92046498D01*
X145006017Y-91968372D01*
X145024670Y-91895868D01*
X145047566Y-91829818D01*
X145058240Y-91804512D01*
X145092491Y-91737366D01*
X145133170Y-91675674D01*
X145180265Y-91619444D01*
X145233761Y-91568686D01*
X145293646Y-91523406D01*
X145359906Y-91483614D01*
X145432528Y-91449318D01*
X145511498Y-91420527D01*
X145596803Y-91397248D01*
X145688429Y-91379490D01*
X145786364Y-91367263D01*
X145825557Y-91364116D01*
X145904803Y-91360458D01*
X145939769Y-91360192D01*
X145987765Y-91359826D01*
X146071732Y-91362169D01*
G37*
%TD*%
M02*
