M48
; DRILL file {KiCad 7.0.6} date Sat Dec  2 19:53:00 2023
; FORMAT={-:-/ absolute / metric / decimal}
; #@! TF.CreationDate,2023-12-02T19:53:00-07:00
; #@! TF.GenerationSoftware,Kicad,Pcbnew,7.0.6
; #@! TF.FileFunction,MixedPlating,1,2
FMAT,2
METRIC
; #@! TA.AperFunction,Plated,PTH,ViaDrill
T1C0.300
; #@! TA.AperFunction,Plated,PTH,ViaDrill
T2C0.400
; #@! TA.AperFunction,Plated,PTH,ViaDrill
T3C0.500
; #@! TA.AperFunction,Plated,PTH,ComponentDrill
T4C0.500
; #@! TA.AperFunction,Plated,PTH,ComponentDrill
T5C0.550
; #@! TA.AperFunction,Plated,PTH,ComponentDrill
T6C0.700
; #@! TA.AperFunction,Plated,PTH,ComponentDrill
T7C1.000
; #@! TA.AperFunction,Plated,PTH,ComponentDrill
T8C1.020
; #@! TA.AperFunction,Plated,PTH,ComponentDrill
T9C1.100
; #@! TA.AperFunction,Plated,PTH,ComponentDrill
T10C2.410
; #@! TA.AperFunction,Plated,PTH,ComponentDrill
T11C3.200
; #@! TA.AperFunction,NonPlated,NPTH,ComponentDrill
T12C0.900
; #@! TA.AperFunction,NonPlated,NPTH,ComponentDrill
T13C2.900
; #@! TA.AperFunction,NonPlated,NPTH,ComponentDrill
T14C3.200
%
G90
G05
T1
X95.377Y-80.391
X105.664Y-141.732
X110.363Y-117.729
X111.418Y-137.954
X112.903Y-116.713
X114.554Y-109.601
X114.647Y-92.617
X115.443Y-134.865
X115.951Y-83.185
X116.078Y-108.966
X116.097Y-95.151
X116.942Y-114.808
X116.942Y-117.602
X121.92Y-134.747
X123.286Y-105.187
X124.587Y-93.345
X124.714Y-117.729
X124.714Y-126.529
X124.777Y-106.68
X125.476Y-84.963
X125.73Y-109.093
X126.072Y-106.934
X126.735Y-110.098
X127.039Y-102.274
X128.016Y-101.6
X129.159Y-103.124
X129.375Y-112.547
X131.445Y-112.051
X131.445Y-119.757
X134.62Y-78.74
X136.398Y-99.314
X136.906Y-92.617
X137.795Y-95.24
X137.795Y-100.838
X142.621Y-76.164
X142.621Y-91.186
X144.399Y-78.066
X144.399Y-116.078
X155.187Y-122.62
X156.159Y-121.006
T2
X89.165Y-72.932
X89.165Y-75.472
X89.165Y-78.012
X89.165Y-80.552
X89.165Y-83.092
X89.165Y-85.632
X89.165Y-88.172
X89.165Y-90.712
X89.165Y-93.252
X89.165Y-95.792
X89.165Y-98.332
X89.165Y-100.872
X89.165Y-103.412
X89.165Y-105.952
X89.165Y-108.492
X89.165Y-111.032
X89.165Y-113.572
X89.165Y-116.112
X89.165Y-118.652
X89.165Y-121.192
X89.165Y-123.732
X89.165Y-131.352
X89.165Y-133.892
X89.165Y-141.512
X89.165Y-144.052
X89.165Y-146.592
X91.705Y-100.872
X91.705Y-103.412
X91.705Y-105.952
X91.705Y-108.492
X91.705Y-111.032
X91.705Y-113.572
X91.705Y-116.112
X91.705Y-118.652
X91.705Y-121.192
X91.705Y-123.732
X91.705Y-131.352
X91.705Y-133.892
X91.705Y-141.512
X92.837Y-93.218
X92.964Y-96.901
X93.472Y-130.81
X93.472Y-133.604
X94.245Y-116.112
X94.245Y-118.652
X94.245Y-123.732
X94.245Y-126.272
X94.245Y-138.972
X94.245Y-141.512
X94.361Y-100.076
X96.266Y-130.81
X96.52Y-133.604
X96.785Y-72.932
X96.785Y-75.472
X96.785Y-83.092
X96.785Y-116.112
X96.785Y-126.272
X96.785Y-138.972
X96.785Y-141.512
X96.785Y-144.052
X96.785Y-146.592
X98.806Y-130.81
X98.806Y-133.604
X99.325Y-72.932
X99.325Y-75.472
X99.325Y-80.552
X99.325Y-83.092
X99.325Y-85.632
X99.325Y-98.332
X99.325Y-116.112
X99.325Y-118.652
X99.325Y-123.732
X99.325Y-126.272
X99.325Y-144.052
X99.325Y-146.592
X101.865Y-72.932
X101.865Y-75.472
X101.865Y-88.172
X101.865Y-118.652
X101.865Y-121.192
X101.865Y-123.732
X101.865Y-126.272
X101.865Y-131.352
X101.865Y-133.892
X101.865Y-144.052
X101.865Y-146.592
X102.616Y-106.68
X103.226Y-115.722
X104.394Y-108.585
X104.394Y-131.445
X104.394Y-139.954
X104.405Y-72.932
X104.405Y-75.472
X104.405Y-88.172
X104.405Y-95.792
X104.405Y-103.412
X104.405Y-105.952
X104.405Y-118.652
X104.405Y-126.272
X104.405Y-144.052
X104.405Y-146.592
X104.648Y-128.397
X105.791Y-111.76
X106.375Y-89.306
X106.832Y-117.348
X106.945Y-72.932
X106.945Y-75.472
X106.945Y-103.412
X106.945Y-105.952
X106.945Y-108.492
X106.945Y-144.052
X106.945Y-146.592
X107.022Y-98.095
X108.712Y-144.272
X109.093Y-118.872
X109.22Y-81.534
X109.485Y-72.932
X109.485Y-75.472
X109.485Y-85.632
X109.485Y-116.112
X109.485Y-146.592
X110.49Y-132.334
X110.846Y-114.249
X110.896Y-112.116
X110.998Y-133.604
X110.998Y-134.874
X111.379Y-86.995
X111.379Y-118.872
X111.404Y-130.505
X112.014Y-133.604
X112.014Y-134.874
X112.025Y-72.932
X112.025Y-103.412
X112.025Y-146.592
X112.178Y-122.682
X112.649Y-124.88
X112.776Y-107.188
X113.03Y-91.186
X113.03Y-142.748
X113.03Y-144.78
X113.157Y-75.057
X114.565Y-72.932
X114.808Y-86.995
X115.011Y-114.249
X115.316Y-103.378
X115.316Y-107.696
X115.367Y-130.454
X115.57Y-142.748
X115.57Y-144.78
X115.697Y-93.98
X116.205Y-79.502
X117.105Y-72.932
X117.105Y-105.952
X117.105Y-123.732
X117.105Y-131.352
X117.105Y-146.592
X118.999Y-89.027
X119.507Y-85.344
X119.634Y-106.553
X119.645Y-72.932
X119.645Y-144.052
X119.645Y-146.592
X119.888Y-123.317
X120.904Y-93.853
X121.285Y-91.567
X121.793Y-89.027
X121.92Y-123.317
X121.92Y-133.223
X122.174Y-110.744
X122.174Y-112.522
X122.185Y-72.932
X122.185Y-98.332
X122.185Y-131.352
X122.185Y-144.052
X122.185Y-146.592
X122.428Y-139.192
X122.809Y-127.127
X122.809Y-128.905
X123.063Y-95.885
X123.19Y-86.106
X123.825Y-100.457
X123.825Y-104.394
X123.952Y-110.744
X123.952Y-112.522
X123.952Y-123.317
X124.46Y-81.28
X124.714Y-89.027
X124.725Y-146.592
X124.841Y-139.065
X124.968Y-91.44
X125.095Y-83.947
X125.502Y-98.171
X125.502Y-104.394
X126.238Y-144.272
X126.746Y-115.57
X127.127Y-85.471
X127.254Y-94.107
X127.265Y-121.192
X127.265Y-123.732
X127.265Y-146.592
X127.508Y-89.027
X127.762Y-129.032
X127.762Y-131.572
X127.762Y-134.62
X128.725Y-106.299
X129.032Y-144.272
X129.286Y-91.44
X129.286Y-96.266
X129.54Y-127.762
X129.54Y-131.826
X129.54Y-135.636
X129.54Y-139.446
X129.805Y-146.592
X130.429Y-94.234
X130.556Y-104.521
X130.683Y-127.635
X130.81Y-97.917
X131.064Y-85.344
X131.191Y-89.027
X131.572Y-74.168
X132.08Y-106.68
X132.334Y-91.44
X132.345Y-123.732
X132.345Y-146.592
X132.588Y-114.046
X132.715Y-96.52
X133.143Y-112.232
X133.477Y-94.234
X134.356Y-112.417
X134.747Y-127.381
X134.885Y-121.192
X134.885Y-123.732
X134.885Y-146.592
X135.128Y-131.318
X135.382Y-91.44
X135.382Y-96.647
X135.382Y-105.664
X135.509Y-114.554
X136.271Y-73.533
X136.398Y-133.223
X136.525Y-127.381
X137.425Y-83.092
X137.425Y-85.632
X137.425Y-121.192
X137.425Y-123.732
X137.425Y-138.972
X137.425Y-141.512
X137.425Y-144.052
X137.425Y-146.592
X137.541Y-107.442
X137.659Y-113.157
X138.811Y-128.143
X139.192Y-73.025
X139.192Y-100.711
X139.965Y-111.032
X139.965Y-113.572
X139.965Y-121.192
X139.965Y-123.732
X139.965Y-146.592
X140.208Y-134.112
X140.462Y-129.286
X142.367Y-130.048
X142.505Y-72.932
X142.505Y-105.952
X142.505Y-108.492
X142.505Y-113.572
X142.505Y-123.732
X142.505Y-133.892
X142.505Y-146.592
X142.748Y-111.76
X142.875Y-100.457
X143.002Y-92.71
X143.002Y-96.52
X143.51Y-135.636
X144.272Y-148.082
X145.796Y-73.025
X146.05Y-136.144
X146.05Y-137.414
X146.05Y-138.938
X146.05Y-140.208
X146.05Y-141.478
X146.05Y-143.002
X146.05Y-144.526
X146.05Y-146.304
X146.05Y-148.082
X146.304Y-131.318
X146.558Y-129.794
X147.447Y-121.411
X147.447Y-122.301
X147.467Y-124.106
X147.585Y-83.092
X147.585Y-85.632
X147.585Y-93.252
X147.585Y-95.792
X147.585Y-100.872
X147.585Y-105.952
X147.585Y-108.492
X147.585Y-111.032
X147.585Y-113.572
X147.828Y-129.286
X147.917Y-119.253
X149.606Y-73.152
X149.694Y-116.332
X150.125Y-78.012
X150.125Y-85.632
X150.125Y-146.592
X150.368Y-83.566
X150.81Y-127.254
X151.511Y-118.872
X151.511Y-121.412
X151.511Y-122.301
X152.4Y-97.78
X152.665Y-72.932
X152.665Y-78.012
X152.665Y-83.092
X152.665Y-85.632
X153.162Y-148.082
X153.67Y-142.24
X154.432Y-112.313
X154.686Y-118.263
X154.94Y-141.732
X155.205Y-83.092
X155.205Y-85.632
X155.205Y-90.712
X155.205Y-95.792
X155.205Y-98.332
X155.205Y-100.872
X155.205Y-116.112
X155.205Y-146.592
X155.498Y-144.526
X155.702Y-103.124
X155.702Y-107.442
X155.956Y-134.366
X156.21Y-73.152
X156.21Y-92.456
X156.21Y-125.222
X156.464Y-118.618
X156.845Y-136.121
X156.845Y-142.24
X157.734Y-108.966
X157.745Y-78.012
X157.745Y-144.052
X157.745Y-146.592
X160.285Y-78.012
X160.285Y-80.552
X160.285Y-83.092
X160.285Y-85.632
X160.285Y-88.172
X160.285Y-90.712
X160.285Y-93.252
X160.285Y-95.792
X160.285Y-98.332
X160.285Y-100.872
X160.285Y-103.412
X160.285Y-105.952
X160.285Y-111.032
X160.285Y-126.272
X160.285Y-133.892
X160.285Y-141.512
X160.325Y-119.99
X161.029Y-121.986
X161.544Y-117.602
X162.049Y-120.712
X162.825Y-78.012
X162.825Y-80.552
X162.825Y-88.172
X162.825Y-93.252
X162.825Y-95.792
X162.825Y-98.332
X162.825Y-100.872
X162.825Y-103.412
X162.825Y-126.272
X162.825Y-133.892
X162.825Y-141.512
X162.941Y-130.175
X163.068Y-137.414
X163.576Y-90.424
X164.973Y-135.636
X164.973Y-139.065
X165.1Y-128.27
X165.1Y-131.699
X165.365Y-72.932
X165.365Y-75.472
X165.365Y-78.012
X165.365Y-80.552
X165.365Y-83.092
X165.365Y-85.632
X165.365Y-88.172
X165.365Y-90.712
X165.365Y-93.252
X165.365Y-95.792
X165.365Y-98.332
X165.365Y-100.872
X165.365Y-103.412
X165.365Y-105.952
X165.365Y-108.492
X165.365Y-111.032
X165.365Y-133.892
X165.365Y-141.512
X165.365Y-144.052
X165.365Y-146.592
T3
X102.616Y-90.17
X109.474Y-89.154
X110.949Y-111.117
X111.633Y-78.74
X112.649Y-89.154
X115.697Y-120.015
X118.745Y-125.73
X119.253Y-107.95
X128.828Y-114.628
X130.175Y-110.363
X130.175Y-124.587
X145.796Y-119.126
X147.466Y-125.711
X147.701Y-102.743
X148.082Y-90.17
X148.844Y-89.662
X148.844Y-137.16
X152.654Y-88.519
X153.543Y-88.138
X154.432Y-129.54
X155.194Y-109.982
X157.734Y-79.756
X157.734Y-112.268
X159.766Y-108.966
X163.576Y-111.506
T6
X109.728Y-128.397
X117.348Y-128.397
T7
X91.562Y-80.391
X91.562Y-82.931
X91.562Y-85.471
X91.562Y-88.011
X91.562Y-90.551
X94.102Y-80.391
X94.102Y-82.931
X94.102Y-85.471
X94.102Y-88.011
X94.102Y-90.551
X95.331Y-104.188
X95.331Y-106.958
X95.331Y-109.728
X95.331Y-112.498
X98.171Y-102.803
X98.171Y-105.573
X98.171Y-108.343
X98.171Y-111.113
X98.171Y-113.883
X104.013Y-121.412
X104.013Y-123.952
X104.498Y-99.314
X106.553Y-121.412
X106.553Y-123.952
X109.093Y-121.412
X109.093Y-123.952
X110.998Y-99.314
X111.633Y-121.412
X111.633Y-123.952
X114.173Y-121.412
X114.173Y-123.952
X129.794Y-80.264
X129.794Y-82.804
X129.794Y-85.344
X139.192Y-91.694
X139.192Y-94.234
X139.192Y-96.774
X139.192Y-99.314
T8
X94.787Y-129.334
X94.787Y-132.334
X94.787Y-135.334
X97.787Y-129.334
X97.787Y-132.334
X97.787Y-135.334
T9
X139.244Y-71.664
X139.244Y-76.164
X145.744Y-71.664
X145.744Y-76.164
X148.844Y-71.664
X148.844Y-76.164
X155.344Y-71.664
X155.344Y-76.164
T10
X90.467Y-127.184
X90.467Y-137.484
T11
X96.751Y-95.843
X96.751Y-120.843
X103.886Y-82.804
T12
X127.012Y-71.9
X130.012Y-71.9
T14
X92.964Y-74.93
X93.0Y-144.78
X162.306Y-74.93
X162.306Y-144.78
T4
G00X165.69Y-118.465
M15
G01X166.34Y-118.465
M16
G05
G00X165.69Y-125.465
M15
G01X166.34Y-125.465
M16
G05
T5
G00X163.315Y-119.615
M15
G01X163.315Y-119.315
M16
G05
G00X163.315Y-124.615
M15
G01X163.315Y-124.315
M16
G05
T13
G00X139.827Y-84.778
M15
G01X139.827Y-83.878
M16
G05
G00X139.827Y-107.13
M15
G01X139.827Y-106.23
M16
G05
G00X162.941Y-84.778
M15
G01X162.941Y-83.878
M16
G05
G00X162.941Y-107.13
M15
G01X162.941Y-106.23
M16
G05
T0
M30
