%TF.GenerationSoftware,KiCad,Pcbnew,7.0.6*%
%TF.CreationDate,2023-12-02T19:53:02-07:00*%
%TF.ProjectId,H2 Sensor Board Lucy Rev 1,48322053-656e-4736-9f72-20426f617264,rev?*%
%TF.SameCoordinates,Original*%
%TF.FileFunction,Paste,Top*%
%TF.FilePolarity,Positive*%
%FSLAX46Y46*%
G04 Gerber Fmt 4.6, Leading zero omitted, Abs format (unit mm)*
G04 Created by KiCad (PCBNEW 7.0.6) date 2023-12-02 19:53:02*
%MOMM*%
%LPD*%
G01*
G04 APERTURE LIST*
G04 Aperture macros list*
%AMRoundRect*
0 Rectangle with rounded corners*
0 $1 Rounding radius*
0 $2 $3 $4 $5 $6 $7 $8 $9 X,Y pos of 4 corners*
0 Add a 4 corners polygon primitive as box body*
4,1,4,$2,$3,$4,$5,$6,$7,$8,$9,$2,$3,0*
0 Add four circle primitives for the rounded corners*
1,1,$1+$1,$2,$3*
1,1,$1+$1,$4,$5*
1,1,$1+$1,$6,$7*
1,1,$1+$1,$8,$9*
0 Add four rect primitives between the rounded corners*
20,1,$1+$1,$2,$3,$4,$5,0*
20,1,$1+$1,$4,$5,$6,$7,0*
20,1,$1+$1,$6,$7,$8,$9,0*
20,1,$1+$1,$8,$9,$2,$3,0*%
G04 Aperture macros list end*
%ADD10RoundRect,0.140000X-0.140000X-0.170000X0.140000X-0.170000X0.140000X0.170000X-0.140000X0.170000X0*%
%ADD11R,0.250000X0.650000*%
%ADD12R,2.500000X1.700000*%
%ADD13RoundRect,0.250000X-0.475000X0.250000X-0.475000X-0.250000X0.475000X-0.250000X0.475000X0.250000X0*%
%ADD14RoundRect,0.225000X-0.250000X0.225000X-0.250000X-0.225000X0.250000X-0.225000X0.250000X0.225000X0*%
%ADD15RoundRect,0.250000X0.475000X-0.250000X0.475000X0.250000X-0.475000X0.250000X-0.475000X-0.250000X0*%
%ADD16RoundRect,0.200000X-0.200000X-0.275000X0.200000X-0.275000X0.200000X0.275000X-0.200000X0.275000X0*%
%ADD17RoundRect,0.250000X0.450000X-0.262500X0.450000X0.262500X-0.450000X0.262500X-0.450000X-0.262500X0*%
%ADD18RoundRect,0.225000X-0.225000X-0.250000X0.225000X-0.250000X0.225000X0.250000X-0.225000X0.250000X0*%
%ADD19R,2.200000X2.150000*%
%ADD20RoundRect,0.250000X-0.250000X-0.475000X0.250000X-0.475000X0.250000X0.475000X-0.250000X0.475000X0*%
%ADD21RoundRect,0.232500X0.232500X0.232500X-0.232500X0.232500X-0.232500X-0.232500X0.232500X-0.232500X0*%
%ADD22RoundRect,0.062500X0.375000X0.062500X-0.375000X0.062500X-0.375000X-0.062500X0.375000X-0.062500X0*%
%ADD23RoundRect,0.062500X0.062500X0.375000X-0.062500X0.375000X-0.062500X-0.375000X0.062500X-0.375000X0*%
%ADD24RoundRect,0.200000X0.200000X0.275000X-0.200000X0.275000X-0.200000X-0.275000X0.200000X-0.275000X0*%
%ADD25RoundRect,0.200000X0.275000X-0.200000X0.275000X0.200000X-0.275000X0.200000X-0.275000X-0.200000X0*%
%ADD26RoundRect,0.250000X-0.325000X-1.100000X0.325000X-1.100000X0.325000X1.100000X-0.325000X1.100000X0*%
%ADD27RoundRect,0.250000X-0.450000X0.262500X-0.450000X-0.262500X0.450000X-0.262500X0.450000X0.262500X0*%
%ADD28RoundRect,0.150000X0.825000X0.150000X-0.825000X0.150000X-0.825000X-0.150000X0.825000X-0.150000X0*%
%ADD29RoundRect,0.218750X-0.218750X-0.381250X0.218750X-0.381250X0.218750X0.381250X-0.218750X0.381250X0*%
%ADD30RoundRect,0.140000X-0.170000X0.140000X-0.170000X-0.140000X0.170000X-0.140000X0.170000X0.140000X0*%
%ADD31R,1.910000X0.610000*%
%ADD32R,0.723000X0.930000*%
%ADD33RoundRect,0.140000X0.140000X0.170000X-0.140000X0.170000X-0.140000X-0.170000X0.140000X-0.170000X0*%
%ADD34R,0.500000X0.350000*%
%ADD35RoundRect,0.243750X-0.243750X-0.456250X0.243750X-0.456250X0.243750X0.456250X-0.243750X0.456250X0*%
%ADD36RoundRect,0.225000X0.250000X-0.225000X0.250000X0.225000X-0.250000X0.225000X-0.250000X-0.225000X0*%
%ADD37R,0.972299X0.558000*%
%ADD38RoundRect,0.150000X0.150000X-0.587500X0.150000X0.587500X-0.150000X0.587500X-0.150000X-0.587500X0*%
%ADD39RoundRect,0.243750X-0.456250X0.243750X-0.456250X-0.243750X0.456250X-0.243750X0.456250X0.243750X0*%
%ADD40RoundRect,0.200000X-0.275000X0.200000X-0.275000X-0.200000X0.275000X-0.200000X0.275000X0.200000X0*%
%ADD41RoundRect,0.250000X0.325000X1.100000X-0.325000X1.100000X-0.325000X-1.100000X0.325000X-1.100000X0*%
%ADD42RoundRect,0.150000X0.587500X0.150000X-0.587500X0.150000X-0.587500X-0.150000X0.587500X-0.150000X0*%
%ADD43RoundRect,0.140000X0.170000X-0.140000X0.170000X0.140000X-0.170000X0.140000X-0.170000X-0.140000X0*%
%ADD44RoundRect,0.250000X-0.550000X1.500000X-0.550000X-1.500000X0.550000X-1.500000X0.550000X1.500000X0*%
%ADD45RoundRect,0.250000X-0.262500X-0.450000X0.262500X-0.450000X0.262500X0.450000X-0.262500X0.450000X0*%
%ADD46RoundRect,0.243750X0.456250X-0.243750X0.456250X0.243750X-0.456250X0.243750X-0.456250X-0.243750X0*%
%ADD47RoundRect,0.250000X0.262500X0.450000X-0.262500X0.450000X-0.262500X-0.450000X0.262500X-0.450000X0*%
%ADD48R,1.000000X0.800000*%
%ADD49R,0.700000X1.500000*%
%ADD50R,0.400000X1.200000*%
%ADD51R,1.400000X1.200000*%
%ADD52R,2.900000X5.400000*%
%ADD53O,1.550000X0.890000*%
%ADD54O,0.950000X1.250000*%
%ADD55R,1.350000X0.400000*%
%ADD56R,1.550000X1.200000*%
%ADD57R,1.550000X1.500000*%
%ADD58RoundRect,0.243750X0.243750X0.456250X-0.243750X0.456250X-0.243750X-0.456250X0.243750X-0.456250X0*%
%ADD59R,2.000000X1.500000*%
%ADD60R,2.000000X3.800000*%
%ADD61RoundRect,0.225000X-0.375000X0.225000X-0.375000X-0.225000X0.375000X-0.225000X0.375000X0.225000X0*%
%ADD62RoundRect,0.250000X-1.500000X-0.550000X1.500000X-0.550000X1.500000X0.550000X-1.500000X0.550000X0*%
%ADD63RoundRect,0.225000X-0.225000X-0.375000X0.225000X-0.375000X0.225000X0.375000X-0.225000X0.375000X0*%
%ADD64RoundRect,0.150000X0.512500X0.150000X-0.512500X0.150000X-0.512500X-0.150000X0.512500X-0.150000X0*%
%ADD65RoundRect,0.150000X-0.150000X0.512500X-0.150000X-0.512500X0.150000X-0.512500X0.150000X0.512500X0*%
G04 APERTURE END LIST*
D10*
%TO.C,C7*%
X120043000Y-107950000D03*
X121003000Y-107950000D03*
%TD*%
D11*
%TO.C,U8*%
X150604000Y-120309000D03*
X150154000Y-120309000D03*
X149704000Y-120309000D03*
X149254000Y-120309000D03*
X148804000Y-120309000D03*
X148354000Y-120309000D03*
X148354000Y-123409000D03*
X148804000Y-123409000D03*
X149254000Y-123409000D03*
X149704000Y-123409000D03*
X150154000Y-123409000D03*
X150604000Y-123409000D03*
D12*
X149479000Y-121859000D03*
%TD*%
D10*
%TO.C,C29*%
X131854000Y-97409000D03*
X132814000Y-97409000D03*
%TD*%
D13*
%TO.C,C22*%
X156845000Y-131765000D03*
X156845000Y-133665000D03*
%TD*%
D14*
%TO.C,C18*%
X130252000Y-140957000D03*
X130252000Y-142507000D03*
%TD*%
D15*
%TO.C,C23*%
X156845000Y-137221000D03*
X156845000Y-135321000D03*
%TD*%
D16*
%TO.C,R3*%
X116142000Y-134747000D03*
X117792000Y-134747000D03*
%TD*%
%TO.C,R2*%
X116218200Y-133197600D03*
X117868200Y-133197600D03*
%TD*%
D17*
%TO.C,R5*%
X104394000Y-134262500D03*
X104394000Y-132437500D03*
%TD*%
D18*
%TO.C,C15*%
X126733000Y-137922000D03*
X128283000Y-137922000D03*
%TD*%
D13*
%TO.C,C24*%
X156845000Y-139394000D03*
X156845000Y-141294000D03*
%TD*%
D19*
%TO.C,D10*%
X106975000Y-128270000D03*
X102575000Y-128270000D03*
%TD*%
D20*
%TO.C,C13*%
X149672000Y-117729000D03*
X151572000Y-117729000D03*
%TD*%
D21*
%TO.C,U1*%
X124281000Y-112773000D03*
X124281000Y-111623000D03*
X124281000Y-110473000D03*
X123131000Y-112773000D03*
X123131000Y-111623000D03*
X123131000Y-110473000D03*
X121981000Y-112773000D03*
X121981000Y-111623000D03*
X121981000Y-110473000D03*
D22*
X125568500Y-113373000D03*
X125568500Y-112873000D03*
X125568500Y-112373000D03*
X125568500Y-111873000D03*
X125568500Y-111373000D03*
X125568500Y-110873000D03*
X125568500Y-110373000D03*
X125568500Y-109873000D03*
D23*
X124881000Y-109185500D03*
X124381000Y-109185500D03*
X123881000Y-109185500D03*
X123381000Y-109185500D03*
X122881000Y-109185500D03*
X122381000Y-109185500D03*
X121881000Y-109185500D03*
X121381000Y-109185500D03*
D22*
X120693500Y-109873000D03*
X120693500Y-110373000D03*
X120693500Y-110873000D03*
X120693500Y-111373000D03*
X120693500Y-111873000D03*
X120693500Y-112373000D03*
X120693500Y-112873000D03*
X120693500Y-113373000D03*
D23*
X121381000Y-114060500D03*
X121881000Y-114060500D03*
X122381000Y-114060500D03*
X122881000Y-114060500D03*
X123381000Y-114060500D03*
X123881000Y-114060500D03*
X124381000Y-114060500D03*
X124881000Y-114060500D03*
%TD*%
D24*
%TO.C,R27*%
X120840000Y-133223000D03*
X119190000Y-133223000D03*
%TD*%
D17*
%TO.C,R24*%
X115062000Y-81303500D03*
X115062000Y-79478500D03*
%TD*%
D25*
%TO.C,R25*%
X127127000Y-84518000D03*
X127127000Y-82868000D03*
%TD*%
D26*
%TO.C,C28*%
X125779000Y-135382000D03*
X128729000Y-135382000D03*
%TD*%
D27*
%TO.C,R7*%
X100076000Y-135485500D03*
X100076000Y-137310500D03*
%TD*%
D28*
%TO.C,U7*%
X108266000Y-113665000D03*
X108266000Y-112395000D03*
X108266000Y-111125000D03*
X108266000Y-109855000D03*
X103316000Y-109855000D03*
X103316000Y-111125000D03*
X103316000Y-112395000D03*
X103316000Y-113665000D03*
%TD*%
D29*
%TO.C,FB1*%
X134400000Y-109601000D03*
X136525000Y-109601000D03*
%TD*%
D30*
%TO.C,C8*%
X126746000Y-113566000D03*
X126746000Y-114526000D03*
%TD*%
D27*
%TO.C,R6*%
X106426000Y-134342500D03*
X106426000Y-136167500D03*
%TD*%
D17*
%TO.C,R16*%
X147828000Y-117879500D03*
X147828000Y-116054500D03*
%TD*%
D31*
%TO.C,U4*%
X108704000Y-132325000D03*
X108704000Y-133595000D03*
X108704000Y-134865000D03*
X108704000Y-136135000D03*
X114264000Y-136135000D03*
X114264000Y-134865000D03*
X114264000Y-133595000D03*
X114264000Y-132325000D03*
D32*
X110881500Y-133455000D03*
X110881500Y-135005000D03*
X112086500Y-133455000D03*
X112086500Y-135005000D03*
%TD*%
D30*
%TO.C,C3*%
X137160000Y-73447000D03*
X137160000Y-74407000D03*
%TD*%
D33*
%TO.C,C5*%
X103604000Y-108585000D03*
X102644000Y-108585000D03*
%TD*%
D14*
%TO.C,C26*%
X155187000Y-118671000D03*
X155187000Y-120221000D03*
%TD*%
D34*
%TO.C,U9*%
X133876000Y-98339000D03*
X133876000Y-98989000D03*
X133876000Y-99639000D03*
X133876000Y-100289000D03*
X131826000Y-100289000D03*
X131826000Y-99639000D03*
X131826000Y-98989000D03*
X131826000Y-98339000D03*
%TD*%
D27*
%TO.C,R19*%
X162407600Y-113159000D03*
X162407600Y-114984000D03*
%TD*%
D35*
%TO.C,D2*%
X150022000Y-127305000D03*
X151897000Y-127305000D03*
%TD*%
D36*
%TO.C,C31*%
X125603000Y-82817000D03*
X125603000Y-81267000D03*
%TD*%
D37*
%TO.C,D13*%
X159858451Y-122920801D03*
X159858451Y-121970800D03*
X159858451Y-121020799D03*
X157133549Y-121020799D03*
X157133549Y-121970800D03*
X157133549Y-122920801D03*
%TD*%
D27*
%TO.C,R23*%
X113108500Y-81383500D03*
X113108500Y-83208500D03*
%TD*%
D38*
%TO.C,D11*%
X156784000Y-112313500D03*
X158684000Y-112313500D03*
X157734000Y-110438500D03*
%TD*%
D27*
%TO.C,R9*%
X122886000Y-140057500D03*
X122886000Y-141882500D03*
%TD*%
D39*
%TO.C,D14*%
X164439600Y-113134000D03*
X164439600Y-115009000D03*
%TD*%
D14*
%TO.C,C10*%
X132461000Y-111305000D03*
X132461000Y-112855000D03*
%TD*%
D40*
%TO.C,R21*%
X135382000Y-97664000D03*
X135382000Y-99314000D03*
%TD*%
D41*
%TO.C,C16*%
X131523000Y-128778000D03*
X128573000Y-128778000D03*
%TD*%
D42*
%TO.C,Q2*%
X110998000Y-83246000D03*
X110998000Y-81346000D03*
X109123000Y-82296000D03*
%TD*%
D17*
%TO.C,R15*%
X119761000Y-120595000D03*
X119761000Y-118770000D03*
%TD*%
D24*
%TO.C,R28*%
X120840000Y-134747000D03*
X119190000Y-134747000D03*
%TD*%
D43*
%TO.C,C4*%
X109982000Y-112138400D03*
X109982000Y-111178400D03*
%TD*%
D13*
%TO.C,C25*%
X106680000Y-137734000D03*
X106680000Y-139634000D03*
%TD*%
D44*
%TO.C,C20*%
X114356500Y-139125000D03*
X114356500Y-144725000D03*
%TD*%
D45*
%TO.C,R11*%
X148917500Y-144154000D03*
X150742500Y-144154000D03*
%TD*%
D46*
%TO.C,D8*%
X119761000Y-124000500D03*
X119761000Y-122125500D03*
%TD*%
D47*
%TO.C,R10*%
X155379500Y-127305000D03*
X153554500Y-127305000D03*
%TD*%
D30*
%TO.C,C1*%
X132080000Y-107851000D03*
X132080000Y-108811000D03*
%TD*%
D33*
%TO.C,C14*%
X149578000Y-119253000D03*
X148618000Y-119253000D03*
%TD*%
D48*
%TO.C,SW1*%
X132162000Y-73010000D03*
X132162000Y-70800000D03*
X124862000Y-73010000D03*
X124862000Y-70800000D03*
D49*
X130762000Y-73660000D03*
X127762000Y-73660000D03*
X126262000Y-73660000D03*
%TD*%
D10*
%TO.C,C35*%
X121313000Y-86106000D03*
X122273000Y-86106000D03*
%TD*%
D46*
%TO.C,F1*%
X160477200Y-114983500D03*
X160477200Y-113108500D03*
%TD*%
D15*
%TO.C,C21*%
X145923000Y-134173000D03*
X145923000Y-132273000D03*
%TD*%
D33*
%TO.C,C27*%
X159484000Y-119989600D03*
X158524000Y-119989600D03*
%TD*%
D50*
%TO.C,IC1*%
X114158000Y-118679000D03*
X114808000Y-118679000D03*
X115458000Y-118679000D03*
X115458000Y-116779000D03*
X114158000Y-116779000D03*
%TD*%
D51*
%TO.C,U2*%
X130259000Y-107354000D03*
X128059000Y-107354000D03*
X128059000Y-109054000D03*
X130259000Y-109054000D03*
%TD*%
D52*
%TO.C,L1*%
X133102000Y-140716000D03*
X143002000Y-140716000D03*
%TD*%
D53*
%TO.C,J6*%
X166015000Y-125465000D03*
D54*
X163315000Y-124465000D03*
X163315000Y-119465000D03*
D53*
X166015000Y-118465000D03*
D55*
X163315000Y-123265000D03*
X163315000Y-122615000D03*
X163315000Y-121965000D03*
X163315000Y-121315000D03*
X163315000Y-120665000D03*
D56*
X166015000Y-124865000D03*
D57*
X166015000Y-122965000D03*
X166015000Y-120965000D03*
D56*
X166015000Y-119065000D03*
%TD*%
D58*
%TO.C,D3*%
X154245000Y-144154000D03*
X152370000Y-144154000D03*
%TD*%
D13*
%TO.C,C11*%
X134366000Y-111318000D03*
X134366000Y-113218000D03*
%TD*%
D59*
%TO.C,U3*%
X148234000Y-129653000D03*
X148234000Y-131953000D03*
D60*
X154534000Y-131953000D03*
D59*
X148234000Y-134253000D03*
%TD*%
D38*
%TO.C,Q1*%
X102682000Y-141829000D03*
X104582000Y-141829000D03*
X103632000Y-139954000D03*
%TD*%
D33*
%TO.C,C6*%
X148943000Y-124587000D03*
X147983000Y-124587000D03*
%TD*%
D30*
%TO.C,C2*%
X157353000Y-71656000D03*
X157353000Y-72616000D03*
%TD*%
D16*
%TO.C,R18*%
X152076000Y-120208000D03*
X153726000Y-120208000D03*
%TD*%
D17*
%TO.C,R13*%
X124079000Y-120595000D03*
X124079000Y-118770000D03*
%TD*%
D45*
%TO.C,R1*%
X127738500Y-75819000D03*
X129563500Y-75819000D03*
%TD*%
D43*
%TO.C,C30*%
X130810000Y-99667000D03*
X130810000Y-98707000D03*
%TD*%
D47*
%TO.C,R4*%
X114348900Y-130505200D03*
X112523900Y-130505200D03*
%TD*%
D46*
%TO.C,D4*%
X108641500Y-143237500D03*
X108641500Y-141362500D03*
%TD*%
D36*
%TO.C,C19*%
X155187000Y-125047000D03*
X155187000Y-123497000D03*
%TD*%
D25*
%TO.C,R22*%
X135636000Y-102488000D03*
X135636000Y-100838000D03*
%TD*%
D39*
%TO.C,D12*%
X145796000Y-116029500D03*
X145796000Y-117904500D03*
%TD*%
D14*
%TO.C,C9*%
X128016000Y-113906000D03*
X128016000Y-115456000D03*
%TD*%
D61*
%TO.C,D5*%
X119380000Y-82932000D03*
X119380000Y-86232000D03*
%TD*%
D43*
%TO.C,C32*%
X106934000Y-133040000D03*
X106934000Y-132080000D03*
%TD*%
D62*
%TO.C,C34*%
X159887000Y-137287000D03*
X165487000Y-137287000D03*
%TD*%
D46*
%TO.C,D7*%
X121920000Y-124000500D03*
X121920000Y-122125500D03*
%TD*%
D17*
%TO.C,R14*%
X121920000Y-120595000D03*
X121920000Y-118770000D03*
%TD*%
D27*
%TO.C,R8*%
X124918000Y-140057500D03*
X124918000Y-141882500D03*
%TD*%
D46*
%TO.C,D1*%
X100076000Y-140891500D03*
X100076000Y-139016500D03*
%TD*%
D47*
%TO.C,R29*%
X108251000Y-88138000D03*
X106426000Y-88138000D03*
%TD*%
D63*
%TO.C,D15*%
X108078000Y-85979000D03*
X111378000Y-85979000D03*
%TD*%
D27*
%TO.C,R12*%
X108641500Y-137831500D03*
X108641500Y-139656500D03*
%TD*%
D62*
%TO.C,C33*%
X159887000Y-130048000D03*
X165487000Y-130048000D03*
%TD*%
D64*
%TO.C,U11*%
X123814000Y-84831000D03*
X123814000Y-83881000D03*
X123814000Y-82931000D03*
X121539000Y-82931000D03*
X121539000Y-84831000D03*
%TD*%
D46*
%TO.C,D6*%
X124079000Y-124000500D03*
X124079000Y-122125500D03*
%TD*%
D41*
%TO.C,C17*%
X131523000Y-132080000D03*
X128573000Y-132080000D03*
%TD*%
D59*
%TO.C,U6*%
X154534000Y-141619000D03*
X154534000Y-139319000D03*
D60*
X148234000Y-139319000D03*
D59*
X154534000Y-137019000D03*
%TD*%
D16*
%TO.C,R17*%
X152076000Y-123510000D03*
X153726000Y-123510000D03*
%TD*%
D13*
%TO.C,C12*%
X136525000Y-111318000D03*
X136525000Y-113218000D03*
%TD*%
D65*
%TO.C,U5*%
X128662000Y-139578500D03*
X127712000Y-139578500D03*
X126762000Y-139578500D03*
X126762000Y-141853500D03*
X127712000Y-141853500D03*
X128662000Y-141853500D03*
%TD*%
D25*
%TO.C,R26*%
X101346000Y-112585000D03*
X101346000Y-110935000D03*
%TD*%
D39*
%TO.C,D9*%
X158496000Y-115010500D03*
X158496000Y-116885500D03*
%TD*%
M02*
