  0
SECTION
  2
HEADER
  9
$ANGBASE
  50
0.0
  9
$ANGDIR
  70
1
  9
$MEASUREMENT
  70
0
  0
ENDSEC
  0
SECTION
  2
TABLES
  0
TABLE
  2
LTYPE
  70
4
  0
LTYPE
  5
40F
  2
CONTINUOUS
  70
0
  3
Solid line
  72
65
  73
0
  40
0.0
  0
LTYPE
  5
410
  2
DASHDOT
 70
0
  3
Dash Dot ____ _ ____ _
 72
65
 73
4
 40
2.0
 49
1.25
 49
-0.25
 49
0.25
 49
-0.25
  0
LTYPE
  5
411
  2
DASHED
 70
0
  3
Dashed __ __ __ __ __
 72
65
 73
2
 40
0.75
 49
0.5
 49
-0.25
  0
LTYPE
  5
43B
  2
DOTTED
 70
0
  3
Dotted .  .  .  .
 72
65
 73
2
 40
0.2
 49
0.0
 49
-0.2
  0
ENDTAB
  0
TABLE
  2
STYLE
  70
4
  0
STYLE
  2
KICAD
  70
0
  40
0
  41
1
  42
1
  50
0
  71
0
  3
isocp.shx
  0
STYLE
  2
KICADB
  70
0
  40
0
  41
1
  42
1
  50
0
  71
0
  3
isocp.shx
  0
STYLE
  2
KICADI
  70
0
  40
0
  41
1
  42
1
  50
15
  71
0
  3
isocp.shx
  0
STYLE
  2
KICADBI
  70
0
  40
0
  41
1
  42
1
  50
15
  71
0
  3
isocp.shx
  0
ENDTAB
  0
TABLE
  2
LAYER
  70
1
  0
LAYER
  2
BLACK
  70
0
  62
7
  6
CONTINUOUS
  0
ENDTAB
  0
ENDSEC
  0
SECTION
  2
ENTITIES
0
LINE
8
BLACK
6
CONTINUOUS
10
7.3366141732283463
20
-2.1171259842519685
11
7.3529512204724412
21
-2.1178016929133858
0
LINE
8
BLACK
6
CONTINUOUS
10
7.3529512204724412
20
-2.1178016929133858
11
7.3691766929133857
21
-2.1198241732283463
0
LINE
8
BLACK
6
CONTINUOUS
10
7.3691766929133857
20
-2.1198241732283463
11
7.3851797244094488
21
-2.12317968503937
0
LINE
8
BLACK
6
CONTINUOUS
10
7.3851797244094488
20
-2.12317968503937
11
7.4008509842519681
21
-2.1278451968503935
0
LINE
8
BLACK
6
CONTINUOUS
10
7.4008509842519681
20
-2.1278451968503935
11
7.4160834645669294
21
-2.133788937007874
0
LINE
8
BLACK
6
CONTINUOUS
10
7.4160834645669294
20
-2.133788937007874
11
7.4307730708661417
21
-2.1409702362204723
0
LINE
8
BLACK
6
CONTINUOUS
10
7.4307730708661417
20
-2.1409702362204723
11
7.4448194488188975
21
-2.1493400787401575
0
LINE
8
BLACK
6
CONTINUOUS
10
7.4448194488188975
20
-2.1493400787401575
11
7.4581267322834641
21
-2.1588412992125985
0
LINE
8
BLACK
6
CONTINUOUS
10
7.4581267322834641
20
-2.1588412992125985
11
7.4706039370078736
21
-2.1694089370078742
0
LINE
8
BLACK
6
CONTINUOUS
10
7.4706039370078736
20
-2.1694089370078742
11
7.4821658661417318
21
-2.1809708661417324
0
LINE
8
BLACK
6
CONTINUOUS
10
7.4821658661417318
20
-2.1809708661417324
11
7.492733503937008
21
-2.1934480708661415
0
LINE
8
BLACK
6
CONTINUOUS
10
7.492733503937008
20
-2.1934480708661415
11
7.5022347244094485
21
-2.2067553543307086
0
LINE
8
BLACK
6
CONTINUOUS
10
7.5022347244094485
20
-2.2067553543307086
11
7.5106045669291337
21
-2.2208017322834643
0
LINE
8
BLACK
6
CONTINUOUS
10
7.5106045669291337
20
-2.2208017322834643
11
7.5177858661417325
21
-2.2354913385826771
0
LINE
8
BLACK
6
CONTINUOUS
10
7.5177858661417325
20
-2.2354913385826771
11
7.5237296062992121
21
-2.250723818897638
0
LINE
8
BLACK
6
CONTINUOUS
10
7.5237296062992121
20
-2.250723818897638
11
7.528395118110236
21
-2.2663950787401572
0
LINE
8
BLACK
6
CONTINUOUS
10
7.528395118110236
20
-2.2663950787401572
11
7.5317506299212598
21
-2.2823981102362203
0
LINE
8
BLACK
6
CONTINUOUS
10
7.5317506299212598
20
-2.2823981102362203
11
7.5337731102362202
21
-2.2986235826771653
0
LINE
8
BLACK
6
CONTINUOUS
10
7.5337731102362202
20
-2.2986235826771653
11
7.534448818897638
21
-2.3149606299212597
0
LINE
8
BLACK
6
CONTINUOUS
10
7.534448818897638
20
-2.3149606299212597
11
7.534448818897638
21
-5.8582677165354333
0
LINE
8
BLACK
6
CONTINUOUS
10
7.534448818897638
20
-5.8582677165354333
11
7.5337731102362202
21
-5.8746047637795273
0
LINE
8
BLACK
6
CONTINUOUS
10
7.5337731102362202
20
-5.8746047637795273
11
7.5317506299212598
21
-5.8908302362204727
0
LINE
8
BLACK
6
CONTINUOUS
10
7.5317506299212598
20
-5.8908302362204727
11
7.528395118110236
21
-5.9068332677165349
0
LINE
8
BLACK
6
CONTINUOUS
10
7.528395118110236
20
-5.9068332677165349
11
7.5237296062992121
21
-5.9225045275590551
0
LINE
8
BLACK
6
CONTINUOUS
10
7.5237296062992121
20
-5.9225045275590551
11
7.5177858661417325
21
-5.9377370078740155
0
LINE
8
BLACK
6
CONTINUOUS
10
7.5177858661417325
20
-5.9377370078740155
11
7.5106045669291337
21
-5.9524266141732278
0
LINE
8
BLACK
6
CONTINUOUS
10
7.5106045669291337
20
-5.9524266141732278
11
7.5022347244094485
21
-5.9664729921259845
0
LINE
8
BLACK
6
CONTINUOUS
10
7.5022347244094485
20
-5.9664729921259845
11
7.492733503937008
21
-5.9797802755905511
0
LINE
8
BLACK
6
CONTINUOUS
10
7.492733503937008
20
-5.9797802755905511
11
7.4821658661417318
21
-5.9922574803149606
0
LINE
8
BLACK
6
CONTINUOUS
10
7.4821658661417318
20
-5.9922574803149606
11
7.4706039370078736
21
-6.0038194094488189
0
LINE
8
BLACK
6
CONTINUOUS
10
7.4706039370078736
20
-6.0038194094488189
11
7.4581267322834641
21
-6.0143870472440941
0
LINE
8
BLACK
6
CONTINUOUS
10
7.4581267322834641
20
-6.0143870472440941
11
7.4448194488188975
21
-6.0238882677165355
0
LINE
8
BLACK
6
CONTINUOUS
10
7.4448194488188975
20
-6.0238882677165355
11
7.4307730708661417
21
-6.0322581102362207
0
LINE
8
BLACK
6
CONTINUOUS
10
7.4307730708661417
20
-6.0322581102362207
11
7.4160834645669294
21
-6.0394394094488186
0
LINE
8
BLACK
6
CONTINUOUS
10
7.4160834645669294
20
-6.0394394094488186
11
7.4008509842519681
21
-6.0453831496062991
0
LINE
8
BLACK
6
CONTINUOUS
10
7.4008509842519681
20
-6.0453831496062991
11
7.3851797244094488
21
-6.050048661417323
0
LINE
8
BLACK
6
CONTINUOUS
10
7.3851797244094488
20
-6.050048661417323
11
7.3691766929133857
21
-6.0534041732283459
0
LINE
8
BLACK
6
CONTINUOUS
10
7.3691766929133857
20
-6.0534041732283459
11
7.3529512204724412
21
-6.0554266535433072
0
LINE
8
BLACK
6
CONTINUOUS
10
7.3529512204724412
20
-6.0554266535433072
11
7.3366141732283463
21
-6.0561023622047241
0
LINE
8
BLACK
6
CONTINUOUS
10
7.3366141732283463
20
-6.0561023622047241
11
3.7933070866141732
21
-6.0561023622047241
0
LINE
8
BLACK
6
CONTINUOUS
10
3.7933070866141732
20
-6.0561023622047241
11
3.7769700393700787
21
-6.0554266535433072
0
LINE
8
BLACK
6
CONTINUOUS
10
3.7769700393700787
20
-6.0554266535433072
11
3.7607445669291337
21
-6.0534041732283459
0
LINE
8
BLACK
6
CONTINUOUS
10
3.7607445669291337
20
-6.0534041732283459
11
3.7447415354330706
21
-6.050048661417323
0
LINE
8
BLACK
6
CONTINUOUS
10
3.7447415354330706
20
-6.050048661417323
11
3.7290702755905509
21
-6.0453831496062991
0
LINE
8
BLACK
6
CONTINUOUS
10
3.7290702755905509
20
-6.0453831496062991
11
3.7138377952755905
21
-6.0394394094488186
0
LINE
8
BLACK
6
CONTINUOUS
10
3.7138377952755905
20
-6.0394394094488186
11
3.6991481889763778
21
-6.0322581102362207
0
LINE
8
BLACK
6
CONTINUOUS
10
3.6991481889763778
20
-6.0322581102362207
11
3.685101811023622
21
-6.0238882677165355
0
LINE
8
BLACK
6
CONTINUOUS
10
3.685101811023622
20
-6.0238882677165355
11
3.6717945275590549
21
-6.0143870472440941
0
LINE
8
BLACK
6
CONTINUOUS
10
3.6717945275590549
20
-6.0143870472440941
11
3.6593173228346454
21
-6.0038194094488189
0
LINE
8
BLACK
6
CONTINUOUS
10
3.6593173228346454
20
-6.0038194094488189
11
3.6477553937007872
21
-5.9922574803149606
0
LINE
8
BLACK
6
CONTINUOUS
10
3.6477553937007872
20
-5.9922574803149606
11
3.6371877559055119
21
-5.9797802755905511
0
LINE
8
BLACK
6
CONTINUOUS
10
3.6371877559055119
20
-5.9797802755905511
11
3.627686535433071
21
-5.9664729921259845
0
LINE
8
BLACK
6
CONTINUOUS
10
3.627686535433071
20
-5.9664729921259845
11
3.6193166929133858
21
-5.9524266141732278
0
LINE
8
BLACK
6
CONTINUOUS
10
3.6193166929133858
20
-5.9524266141732278
11
3.6121353937007874
21
-5.9377370078740155
0
LINE
8
BLACK
6
CONTINUOUS
10
3.6121353937007874
20
-5.9377370078740155
11
3.606191653543307
21
-5.9225045275590551
0
LINE
8
BLACK
6
CONTINUOUS
10
3.606191653543307
20
-5.9225045275590551
11
3.6015261417322835
21
-5.9068332677165349
0
LINE
8
BLACK
6
CONTINUOUS
10
3.6015261417322835
20
-5.9068332677165349
11
3.5981706299212597
21
-5.8908302362204727
0
LINE
8
BLACK
6
CONTINUOUS
10
3.5981706299212597
20
-5.8908302362204727
11
3.5961481496062992
21
-5.8746047637795273
0
LINE
8
BLACK
6
CONTINUOUS
10
3.5961481496062992
20
-5.8746047637795273
11
3.5954724409448819
21
-5.8582677165354333
0
LINE
8
BLACK
6
CONTINUOUS
10
3.5954724409448819
20
-5.8582677165354333
11
3.5954724409448819
21
-2.3149606299212597
0
LINE
8
BLACK
6
CONTINUOUS
10
3.5954724409448819
20
-2.3149606299212597
11
3.5961481496062992
21
-2.2986235826771653
0
LINE
8
BLACK
6
CONTINUOUS
10
3.5961481496062992
20
-2.2986235826771653
11
3.5981706299212597
21
-2.2823981102362203
0
LINE
8
BLACK
6
CONTINUOUS
10
3.5981706299212597
20
-2.2823981102362203
11
3.6015261417322835
21
-2.2663950787401572
0
LINE
8
BLACK
6
CONTINUOUS
10
3.6015261417322835
20
-2.2663950787401572
11
3.606191653543307
21
-2.250723818897638
0
LINE
8
BLACK
6
CONTINUOUS
10
3.606191653543307
20
-2.250723818897638
11
3.6121353937007874
21
-2.2354913385826771
0
LINE
8
BLACK
6
CONTINUOUS
10
3.6121353937007874
20
-2.2354913385826771
11
3.6193166929133858
21
-2.2208017322834643
0
LINE
8
BLACK
6
CONTINUOUS
10
3.6193166929133858
20
-2.2208017322834643
11
3.627686535433071
21
-2.2067553543307086
0
LINE
8
BLACK
6
CONTINUOUS
10
3.627686535433071
20
-2.2067553543307086
11
3.6371877559055119
21
-2.1934480708661415
0
LINE
8
BLACK
6
CONTINUOUS
10
3.6371877559055119
20
-2.1934480708661415
11
3.6477553937007872
21
-2.1809708661417324
0
LINE
8
BLACK
6
CONTINUOUS
10
3.6477553937007872
20
-2.1809708661417324
11
3.6593173228346454
21
-2.1694089370078742
0
LINE
8
BLACK
6
CONTINUOUS
10
3.6593173228346454
20
-2.1694089370078742
11
3.6717945275590549
21
-2.1588412992125985
0
LINE
8
BLACK
6
CONTINUOUS
10
3.6717945275590549
20
-2.1588412992125985
11
3.685101811023622
21
-2.1493400787401575
0
LINE
8
BLACK
6
CONTINUOUS
10
3.685101811023622
20
-2.1493400787401575
11
3.6991481889763778
21
-2.1409702362204723
0
LINE
8
BLACK
6
CONTINUOUS
10
3.6991481889763778
20
-2.1409702362204723
11
3.7138377952755905
21
-2.133788937007874
0
LINE
8
BLACK
6
CONTINUOUS
10
3.7138377952755905
20
-2.133788937007874
11
3.7290702755905509
21
-2.1278451968503935
0
LINE
8
BLACK
6
CONTINUOUS
10
3.7290702755905509
20
-2.1278451968503935
11
3.7447415354330706
21
-2.12317968503937
0
LINE
8
BLACK
6
CONTINUOUS
10
3.7447415354330706
20
-2.12317968503937
11
3.7607445669291337
21
-2.1198241732283463
0
LINE
8
BLACK
6
CONTINUOUS
10
3.7607445669291337
20
-2.1198241732283463
11
3.7769700393700787
21
-2.1178016929133858
0
LINE
8
BLACK
6
CONTINUOUS
10
3.7769700393700787
20
-2.1178016929133858
11
3.7933070866141732
21
-2.1171259842519685
0
LINE
8
BLACK
6
CONTINUOUS
10
3.7933070866141732
20
-2.1171259842519685
11
7.3366141732283463
21
-2.1171259842519685
0
LINE
8
BLACK
6
CONTINUOUS
10
3.7933070866141732
20
-2.1190944881889764
11
3.7852059842519683
21
-2.1190944881889764
0
LINE
8
BLACK
6
CONTINUOUS
10
3.7852059842519683
20
-2.1190944881889764
11
3.7690591732283463
21
-2.1204324803149608
0
LINE
8
BLACK
6
CONTINUOUS
10
3.7690591732283463
20
-2.1204324803149608
11
3.7530779921259843
21
-2.1230992519685037
0
LINE
8
BLACK
6
CONTINUOUS
10
3.7530779921259843
20
-2.1230992519685037
11
3.7373716141732283
21
-2.1270766535433072
0
LINE
8
BLACK
6
CONTINUOUS
10
3.7373716141732283
20
-2.1270766535433072
11
3.7220473228346456
21
-2.1323374803149604
0
LINE
8
BLACK
6
CONTINUOUS
10
3.7220473228346456
20
-2.1323374803149604
11
3.7072098031496061
21
-2.1388458267716537
0
LINE
8
BLACK
6
CONTINUOUS
10
3.7072098031496061
20
-2.1388458267716537
11
3.6929604330708661
21
-2.1465572047244095
0
LINE
8
BLACK
6
CONTINUOUS
10
3.6929604330708661
20
-2.1465572047244095
11
3.6793965354330709
21
-2.155418937007874
0
LINE
8
BLACK
6
CONTINUOUS
10
3.6793965354330709
20
-2.155418937007874
11
3.6666107480314958
21
-2.1653705118110236
0
LINE
8
BLACK
6
CONTINUOUS
10
3.6666107480314958
20
-2.1653705118110236
11
3.6546903937007875
21
-2.1763439370078741
0
LINE
8
BLACK
6
CONTINUOUS
10
3.6546903937007875
20
-2.1763439370078741
11
3.643716968503937
21
-2.1882642913385828
0
LINE
8
BLACK
6
CONTINUOUS
10
3.643716968503937
20
-2.1882642913385828
11
3.6337653937007874
21
-2.2010500787401575
0
LINE
8
BLACK
6
CONTINUOUS
10
3.6337653937007874
20
-2.2010500787401575
11
3.6249036614173229
21
-2.2146139763779527
0
LINE
8
BLACK
6
CONTINUOUS
10
3.6249036614173229
20
-2.2146139763779527
11
3.6171922834645667
21
-2.2288633464566927
0
LINE
8
BLACK
6
CONTINUOUS
10
3.6171922834645667
20
-2.2288633464566927
11
3.6106839370078738
21
-2.2437008661417321
0
LINE
8
BLACK
6
CONTINUOUS
10
3.6106839370078738
20
-2.2437008661417321
11
3.6054231102362202
21
-2.2590251574803148
0
LINE
8
BLACK
6
CONTINUOUS
10
3.6054231102362202
20
-2.2590251574803148
11
3.6014457086614171
21
-2.2747315354330708
0
LINE
8
BLACK
6
CONTINUOUS
10
3.6014457086614171
20
-2.2747315354330708
11
3.5987789370078738
21
-2.2907127165354328
0
LINE
8
BLACK
6
CONTINUOUS
10
3.5987789370078738
20
-2.2907127165354328
11
3.5974409448818898
21
-2.3068595275590549
0
LINE
8
BLACK
6
CONTINUOUS
10
3.5974409448818898
20
-2.3068595275590549
11
3.5974409448818898
21
-2.3149606299212597
0
LINE
8
BLACK
6
CONTINUOUS
10
3.5974409448818898
20
-2.3149606299212597
11
3.5974409448818898
21
-5.8582677165354333
0
LINE
8
BLACK
6
CONTINUOUS
10
3.5974409448818898
20
-5.8582677165354333
11
3.5974409448818898
21
-5.8663688188976373
0
LINE
8
BLACK
6
CONTINUOUS
10
3.5974409448818898
20
-5.8663688188976373
11
3.5987789370078738
21
-5.8825156299212598
0
LINE
8
BLACK
6
CONTINUOUS
10
3.5987789370078738
20
-5.8825156299212598
11
3.6014457086614171
21
-5.8984968110236222
0
LINE
8
BLACK
6
CONTINUOUS
10
3.6014457086614171
20
-5.8984968110236222
11
3.6054231102362202
21
-5.9142031889763782
0
LINE
8
BLACK
6
CONTINUOUS
10
3.6054231102362202
20
-5.9142031889763782
11
3.6106839370078738
21
-5.9295274803149605
0
LINE
8
BLACK
6
CONTINUOUS
10
3.6106839370078738
20
-5.9295274803149605
11
3.6171922834645667
21
-5.9443649999999995
0
LINE
8
BLACK
6
CONTINUOUS
10
3.6171922834645667
20
-5.9443649999999995
11
3.6249036614173229
21
-5.95861437007874
0
LINE
8
BLACK
6
CONTINUOUS
10
3.6249036614173229
20
-5.95861437007874
11
3.6337653937007874
21
-5.9721782677165356
0
LINE
8
BLACK
6
CONTINUOUS
10
3.6337653937007874
20
-5.9721782677165356
11
3.643716968503937
21
-5.9849640551181098
0
LINE
8
BLACK
6
CONTINUOUS
10
3.643716968503937
20
-5.9849640551181098
11
3.6546903937007875
21
-5.9968844094488185
0
LINE
8
BLACK
6
CONTINUOUS
10
3.6546903937007875
20
-5.9968844094488185
11
3.6666107480314958
21
-6.0078578346456695
0
LINE
8
BLACK
6
CONTINUOUS
10
3.6666107480314958
20
-6.0078578346456695
11
3.6793965354330709
21
-6.0178094094488186
0
LINE
8
BLACK
6
CONTINUOUS
10
3.6793965354330709
20
-6.0178094094488186
11
3.6929604330708661
21
-6.0266711417322831
0
LINE
8
BLACK
6
CONTINUOUS
10
3.6929604330708661
20
-6.0266711417322831
11
3.7072098031496061
21
-6.0343825196850389
0
LINE
8
BLACK
6
CONTINUOUS
10
3.7072098031496061
20
-6.0343825196850389
11
3.7220473228346456
21
-6.0408908661417318
0
LINE
8
BLACK
6
CONTINUOUS
10
3.7220473228346456
20
-6.0408908661417318
11
3.7373716141732283
21
-6.0461516929133854
0
LINE
8
BLACK
6
CONTINUOUS
10
3.7373716141732283
20
-6.0461516929133854
11
3.7530779921259843
21
-6.0501290944881889
0
LINE
8
BLACK
6
CONTINUOUS
10
3.7530779921259843
20
-6.0501290944881889
11
3.7690591732283463
21
-6.0527958661417323
0
LINE
8
BLACK
6
CONTINUOUS
10
3.7690591732283463
20
-6.0527958661417323
11
3.7852059842519683
21
-6.0541338582677167
0
LINE
8
BLACK
6
CONTINUOUS
10
3.7852059842519683
20
-6.0541338582677167
11
3.7933070866141732
21
-6.0541338582677167
0
LINE
8
BLACK
6
CONTINUOUS
10
3.7933070866141732
20
-6.0541338582677167
11
7.3366141732283463
21
-6.0541338582677167
0
LINE
8
BLACK
6
CONTINUOUS
10
7.3366141732283463
20
-6.0541338582677167
11
7.3447152755905512
21
-6.0541338582677167
0
LINE
8
BLACK
6
CONTINUOUS
10
7.3447152755905512
20
-6.0541338582677167
11
7.3608620866141727
21
-6.0527958661417323
0
LINE
8
BLACK
6
CONTINUOUS
10
7.3608620866141727
20
-6.0527958661417323
11
7.3768432677165352
21
-6.0501290944881889
0
LINE
8
BLACK
6
CONTINUOUS
10
7.3768432677165352
20
-6.0501290944881889
11
7.3925496456692912
21
-6.0461516929133854
0
LINE
8
BLACK
6
CONTINUOUS
10
7.3925496456692912
20
-6.0461516929133854
11
7.4078739370078734
21
-6.0408908661417318
0
LINE
8
BLACK
6
CONTINUOUS
10
7.4078739370078734
20
-6.0408908661417318
11
7.4227114566929133
21
-6.0343825196850389
0
LINE
8
BLACK
6
CONTINUOUS
10
7.4227114566929133
20
-6.0343825196850389
11
7.4369608267716529
21
-6.0266711417322831
0
LINE
8
BLACK
6
CONTINUOUS
10
7.4369608267716529
20
-6.0266711417322831
11
7.4505247244094486
21
-6.0178094094488186
0
LINE
8
BLACK
6
CONTINUOUS
10
7.4505247244094486
20
-6.0178094094488186
11
7.4633105118110237
21
-6.0078578346456695
0
LINE
8
BLACK
6
CONTINUOUS
10
7.4633105118110237
20
-6.0078578346456695
11
7.4752308661417324
21
-5.9968844094488185
0
LINE
8
BLACK
6
CONTINUOUS
10
7.4752308661417324
20
-5.9968844094488185
11
7.4862042913385825
21
-5.9849640551181098
0
LINE
8
BLACK
6
CONTINUOUS
10
7.4862042913385825
20
-5.9849640551181098
11
7.4961558661417325
21
-5.9721782677165356
0
LINE
8
BLACK
6
CONTINUOUS
10
7.4961558661417325
20
-5.9721782677165356
11
7.505017598425197
21
-5.95861437007874
0
LINE
8
BLACK
6
CONTINUOUS
10
7.505017598425197
20
-5.95861437007874
11
7.5127289763779528
21
-5.9443649999999995
0
LINE
8
BLACK
6
CONTINUOUS
10
7.5127289763779528
20
-5.9443649999999995
11
7.5192373228346456
21
-5.9295274803149605
0
LINE
8
BLACK
6
CONTINUOUS
10
7.5192373228346456
20
-5.9295274803149605
11
7.5244981496062993
21
-5.9142031889763782
0
LINE
8
BLACK
6
CONTINUOUS
10
7.5244981496062993
20
-5.9142031889763782
11
7.5284755511811019
21
-5.8984968110236222
0
LINE
8
BLACK
6
CONTINUOUS
10
7.5284755511811019
20
-5.8984968110236222
11
7.5311423228346452
21
-5.8825156299212598
0
LINE
8
BLACK
6
CONTINUOUS
10
7.5311423228346452
20
-5.8825156299212598
11
7.5324803149606296
21
-5.8663688188976373
0
LINE
8
BLACK
6
CONTINUOUS
10
7.5324803149606296
20
-5.8663688188976373
11
7.5324803149606296
21
-5.8582677165354333
0
LINE
8
BLACK
6
CONTINUOUS
10
7.5324803149606296
20
-5.8582677165354333
11
7.5324803149606296
21
-2.3149606299212597
0
LINE
8
BLACK
6
CONTINUOUS
10
7.5324803149606296
20
-2.3149606299212597
11
7.5324803149606296
21
-2.3068595275590549
0
LINE
8
BLACK
6
CONTINUOUS
10
7.5324803149606296
20
-2.3068595275590549
11
7.5311423228346452
21
-2.2907127165354328
0
LINE
8
BLACK
6
CONTINUOUS
10
7.5311423228346452
20
-2.2907127165354328
11
7.5284755511811019
21
-2.2747315354330708
0
LINE
8
BLACK
6
CONTINUOUS
10
7.5284755511811019
20
-2.2747315354330708
11
7.5244981496062993
21
-2.2590251574803148
0
LINE
8
BLACK
6
CONTINUOUS
10
7.5244981496062993
20
-2.2590251574803148
11
7.5192373228346456
21
-2.2437008661417321
0
LINE
8
BLACK
6
CONTINUOUS
10
7.5192373228346456
20
-2.2437008661417321
11
7.5127289763779528
21
-2.2288633464566927
0
LINE
8
BLACK
6
CONTINUOUS
10
7.5127289763779528
20
-2.2288633464566927
11
7.505017598425197
21
-2.2146139763779527
0
LINE
8
BLACK
6
CONTINUOUS
10
7.505017598425197
20
-2.2146139763779527
11
7.4961558661417325
21
-2.2010500787401575
0
LINE
8
BLACK
6
CONTINUOUS
10
7.4961558661417325
20
-2.2010500787401575
11
7.4862042913385825
21
-2.1882642913385828
0
LINE
8
BLACK
6
CONTINUOUS
10
7.4862042913385825
20
-2.1882642913385828
11
7.4752308661417324
21
-2.1763439370078741
0
LINE
8
BLACK
6
CONTINUOUS
10
7.4752308661417324
20
-2.1763439370078741
11
7.4633105118110237
21
-2.1653705118110236
0
LINE
8
BLACK
6
CONTINUOUS
10
7.4633105118110237
20
-2.1653705118110236
11
7.4505247244094486
21
-2.155418937007874
0
LINE
8
BLACK
6
CONTINUOUS
10
7.4505247244094486
20
-2.155418937007874
11
7.4369608267716529
21
-2.1465572047244095
0
LINE
8
BLACK
6
CONTINUOUS
10
7.4369608267716529
20
-2.1465572047244095
11
7.4227114566929133
21
-2.1388458267716537
0
LINE
8
BLACK
6
CONTINUOUS
10
7.4227114566929133
20
-2.1388458267716537
11
7.4078739370078734
21
-2.1323374803149604
0
LINE
8
BLACK
6
CONTINUOUS
10
7.4078739370078734
20
-2.1323374803149604
11
7.3925496456692912
21
-2.1270766535433072
0
LINE
8
BLACK
6
CONTINUOUS
10
7.3925496456692912
20
-2.1270766535433072
11
7.3768432677165352
21
-2.1230992519685037
0
LINE
8
BLACK
6
CONTINUOUS
10
7.3768432677165352
20
-2.1230992519685037
11
7.3608620866141727
21
-2.1204324803149608
0
LINE
8
BLACK
6
CONTINUOUS
10
7.3608620866141727
20
-2.1204324803149608
11
7.3447152755905512
21
-2.1190944881889764
0
LINE
8
BLACK
6
CONTINUOUS
10
7.3447152755905512
20
-2.1190944881889764
11
7.3366141732283463
21
-2.1190944881889764
0
LINE
8
BLACK
6
CONTINUOUS
10
7.3366141732283463
20
-2.1190944881889764
11
3.7933070866141732
21
-2.1190944881889764
  0
ENDSEC
  0
EOF
