G04 #@! TF.GenerationSoftware,KiCad,Pcbnew,7.0.9*
G04 #@! TF.CreationDate,2023-12-02T16:20:12-07:00*
G04 #@! TF.ProjectId,Fuel_Cell_Controller_Prototype,4675656c-5f43-4656-9c6c-5f436f6e7472,V1.0*
G04 #@! TF.SameCoordinates,Original*
G04 #@! TF.FileFunction,Paste,Top*
G04 #@! TF.FilePolarity,Positive*
%FSLAX46Y46*%
G04 Gerber Fmt 4.6, Leading zero omitted, Abs format (unit mm)*
G04 Created by KiCad (PCBNEW 7.0.9) date 2023-12-02 16:20:12*
%MOMM*%
%LPD*%
G01*
G04 APERTURE LIST*
G04 Aperture macros list*
%AMRoundRect*
0 Rectangle with rounded corners*
0 $1 Rounding radius*
0 $2 $3 $4 $5 $6 $7 $8 $9 X,Y pos of 4 corners*
0 Add a 4 corners polygon primitive as box body*
4,1,4,$2,$3,$4,$5,$6,$7,$8,$9,$2,$3,0*
0 Add four circle primitives for the rounded corners*
1,1,$1+$1,$2,$3*
1,1,$1+$1,$4,$5*
1,1,$1+$1,$6,$7*
1,1,$1+$1,$8,$9*
0 Add four rect primitives between the rounded corners*
20,1,$1+$1,$2,$3,$4,$5,0*
20,1,$1+$1,$4,$5,$6,$7,0*
20,1,$1+$1,$6,$7,$8,$9,0*
20,1,$1+$1,$8,$9,$2,$3,0*%
G04 Aperture macros list end*
%ADD10C,0.010000*%
%ADD11RoundRect,0.218750X-0.218750X-0.381250X0.218750X-0.381250X0.218750X0.381250X-0.218750X0.381250X0*%
%ADD12RoundRect,0.218750X0.256250X-0.218750X0.256250X0.218750X-0.256250X0.218750X-0.256250X-0.218750X0*%
%ADD13RoundRect,0.218750X-0.256250X0.218750X-0.256250X-0.218750X0.256250X-0.218750X0.256250X0.218750X0*%
%ADD14RoundRect,0.225000X0.225000X0.250000X-0.225000X0.250000X-0.225000X-0.250000X0.225000X-0.250000X0*%
%ADD15RoundRect,0.225000X0.250000X-0.225000X0.250000X0.225000X-0.250000X0.225000X-0.250000X-0.225000X0*%
%ADD16RoundRect,0.225000X-0.225000X-0.250000X0.225000X-0.250000X0.225000X0.250000X-0.225000X0.250000X0*%
%ADD17RoundRect,0.200000X0.275000X-0.200000X0.275000X0.200000X-0.275000X0.200000X-0.275000X-0.200000X0*%
%ADD18RoundRect,0.225000X-0.250000X0.225000X-0.250000X-0.225000X0.250000X-0.225000X0.250000X0.225000X0*%
%ADD19RoundRect,0.250000X-0.325000X-0.450000X0.325000X-0.450000X0.325000X0.450000X-0.325000X0.450000X0*%
%ADD20RoundRect,0.150000X-0.150000X0.512500X-0.150000X-0.512500X0.150000X-0.512500X0.150000X0.512500X0*%
%ADD21RoundRect,0.200000X-0.275000X0.200000X-0.275000X-0.200000X0.275000X-0.200000X0.275000X0.200000X0*%
%ADD22RoundRect,0.150000X-0.150000X0.825000X-0.150000X-0.825000X0.150000X-0.825000X0.150000X0.825000X0*%
%ADD23RoundRect,0.200000X-0.200000X-0.275000X0.200000X-0.275000X0.200000X0.275000X-0.200000X0.275000X0*%
%ADD24R,1.050000X0.650000*%
%ADD25R,1.910000X0.610000*%
%ADD26R,0.723000X0.930000*%
%ADD27RoundRect,0.200000X0.200000X0.275000X-0.200000X0.275000X-0.200000X-0.275000X0.200000X-0.275000X0*%
%ADD28RoundRect,0.150000X0.825000X0.150000X-0.825000X0.150000X-0.825000X-0.150000X0.825000X-0.150000X0*%
%ADD29RoundRect,0.135000X-0.135000X-0.185000X0.135000X-0.185000X0.135000X0.185000X-0.135000X0.185000X0*%
%ADD30R,0.762000X0.279400*%
%ADD31R,0.730000X0.660000*%
%ADD32R,0.450000X0.630000*%
%ADD33RoundRect,0.140000X0.170000X-0.140000X0.170000X0.140000X-0.170000X0.140000X-0.170000X-0.140000X0*%
%ADD34RoundRect,0.150000X-0.825000X-0.150000X0.825000X-0.150000X0.825000X0.150000X-0.825000X0.150000X0*%
%ADD35R,2.200000X1.600000*%
%ADD36R,0.558800X1.219200*%
%ADD37RoundRect,0.243750X0.456250X-0.243750X0.456250X0.243750X-0.456250X0.243750X-0.456250X-0.243750X0*%
%ADD38RoundRect,0.140000X-0.170000X0.140000X-0.170000X-0.140000X0.170000X-0.140000X0.170000X0.140000X0*%
%ADD39RoundRect,0.225000X0.225000X0.375000X-0.225000X0.375000X-0.225000X-0.375000X0.225000X-0.375000X0*%
%ADD40RoundRect,0.150000X0.150000X-0.512500X0.150000X0.512500X-0.150000X0.512500X-0.150000X-0.512500X0*%
%ADD41RoundRect,0.250000X0.325000X0.450000X-0.325000X0.450000X-0.325000X-0.450000X0.325000X-0.450000X0*%
%ADD42RoundRect,0.140000X0.140000X0.170000X-0.140000X0.170000X-0.140000X-0.170000X0.140000X-0.170000X0*%
%ADD43RoundRect,0.225000X-0.225000X-0.375000X0.225000X-0.375000X0.225000X0.375000X-0.225000X0.375000X0*%
%ADD44RoundRect,0.225000X-0.375000X0.225000X-0.375000X-0.225000X0.375000X-0.225000X0.375000X0.225000X0*%
%ADD45R,1.300000X0.450000*%
%ADD46R,1.400000X1.200000*%
%ADD47RoundRect,0.140000X-0.140000X-0.170000X0.140000X-0.170000X0.140000X0.170000X-0.140000X0.170000X0*%
%ADD48RoundRect,0.007500X-0.117500X0.412500X-0.117500X-0.412500X0.117500X-0.412500X0.117500X0.412500X0*%
%ADD49RoundRect,0.150000X0.512500X0.150000X-0.512500X0.150000X-0.512500X-0.150000X0.512500X-0.150000X0*%
%ADD50RoundRect,0.232500X-0.232500X-0.232500X0.232500X-0.232500X0.232500X0.232500X-0.232500X0.232500X0*%
%ADD51RoundRect,0.062500X-0.375000X-0.062500X0.375000X-0.062500X0.375000X0.062500X-0.375000X0.062500X0*%
%ADD52RoundRect,0.062500X-0.062500X-0.375000X0.062500X-0.375000X0.062500X0.375000X-0.062500X0.375000X0*%
%ADD53RoundRect,0.150000X-0.512500X-0.150000X0.512500X-0.150000X0.512500X0.150000X-0.512500X0.150000X0*%
%ADD54R,1.600000X2.200000*%
G04 APERTURE END LIST*
D10*
X158658000Y-108362000D02*
X158358000Y-108362000D01*
X158358000Y-107792000D01*
X158658000Y-107792000D01*
X158658000Y-108362000D01*
G36*
X158658000Y-108362000D02*
G01*
X158358000Y-108362000D01*
X158358000Y-107792000D01*
X158658000Y-107792000D01*
X158658000Y-108362000D01*
G37*
X159128000Y-108362000D02*
X158888000Y-108362000D01*
X158888000Y-107792000D01*
X159128000Y-107792000D01*
X159128000Y-108362000D01*
G36*
X159128000Y-108362000D02*
G01*
X158888000Y-108362000D01*
X158888000Y-107792000D01*
X159128000Y-107792000D01*
X159128000Y-108362000D01*
G37*
X159628000Y-108362000D02*
X159388000Y-108362000D01*
X159388000Y-107792000D01*
X159628000Y-107792000D01*
X159628000Y-108362000D01*
G36*
X159628000Y-108362000D02*
G01*
X159388000Y-108362000D01*
X159388000Y-107792000D01*
X159628000Y-107792000D01*
X159628000Y-108362000D01*
G37*
X160158000Y-108362000D02*
X159858000Y-108362000D01*
X159858000Y-107792000D01*
X160158000Y-107792000D01*
X160158000Y-108362000D01*
G36*
X160158000Y-108362000D02*
G01*
X159858000Y-108362000D01*
X159858000Y-107792000D01*
X160158000Y-107792000D01*
X160158000Y-108362000D01*
G37*
X158708000Y-107612000D02*
X158088000Y-107612000D01*
X158088000Y-107272000D01*
X158708000Y-107272000D01*
X158708000Y-107612000D01*
G36*
X158708000Y-107612000D02*
G01*
X158088000Y-107612000D01*
X158088000Y-107272000D01*
X158708000Y-107272000D01*
X158708000Y-107612000D01*
G37*
X160428000Y-107612000D02*
X159808000Y-107612000D01*
X159808000Y-107272000D01*
X160428000Y-107272000D01*
X160428000Y-107612000D01*
G36*
X160428000Y-107612000D02*
G01*
X159808000Y-107612000D01*
X159808000Y-107272000D01*
X160428000Y-107272000D01*
X160428000Y-107612000D01*
G37*
X158658000Y-107092000D02*
X158358000Y-107092000D01*
X158358000Y-106522000D01*
X158658000Y-106522000D01*
X158658000Y-107092000D01*
G36*
X158658000Y-107092000D02*
G01*
X158358000Y-107092000D01*
X158358000Y-106522000D01*
X158658000Y-106522000D01*
X158658000Y-107092000D01*
G37*
X159128000Y-107092000D02*
X158888000Y-107092000D01*
X158888000Y-106522000D01*
X159128000Y-106522000D01*
X159128000Y-107092000D01*
G36*
X159128000Y-107092000D02*
G01*
X158888000Y-107092000D01*
X158888000Y-106522000D01*
X159128000Y-106522000D01*
X159128000Y-107092000D01*
G37*
X159628000Y-107092000D02*
X159388000Y-107092000D01*
X159388000Y-106522000D01*
X159628000Y-106522000D01*
X159628000Y-107092000D01*
G36*
X159628000Y-107092000D02*
G01*
X159388000Y-107092000D01*
X159388000Y-106522000D01*
X159628000Y-106522000D01*
X159628000Y-107092000D01*
G37*
X160158000Y-107092000D02*
X159858000Y-107092000D01*
X159858000Y-106522000D01*
X160158000Y-106522000D01*
X160158000Y-107092000D01*
G36*
X160158000Y-107092000D02*
G01*
X159858000Y-107092000D01*
X159858000Y-106522000D01*
X160158000Y-106522000D01*
X160158000Y-107092000D01*
G37*
X153578000Y-108362000D02*
X153278000Y-108362000D01*
X153278000Y-107792000D01*
X153578000Y-107792000D01*
X153578000Y-108362000D01*
G36*
X153578000Y-108362000D02*
G01*
X153278000Y-108362000D01*
X153278000Y-107792000D01*
X153578000Y-107792000D01*
X153578000Y-108362000D01*
G37*
X154048000Y-108362000D02*
X153808000Y-108362000D01*
X153808000Y-107792000D01*
X154048000Y-107792000D01*
X154048000Y-108362000D01*
G36*
X154048000Y-108362000D02*
G01*
X153808000Y-108362000D01*
X153808000Y-107792000D01*
X154048000Y-107792000D01*
X154048000Y-108362000D01*
G37*
X154548000Y-108362000D02*
X154308000Y-108362000D01*
X154308000Y-107792000D01*
X154548000Y-107792000D01*
X154548000Y-108362000D01*
G36*
X154548000Y-108362000D02*
G01*
X154308000Y-108362000D01*
X154308000Y-107792000D01*
X154548000Y-107792000D01*
X154548000Y-108362000D01*
G37*
X155078000Y-108362000D02*
X154778000Y-108362000D01*
X154778000Y-107792000D01*
X155078000Y-107792000D01*
X155078000Y-108362000D01*
G36*
X155078000Y-108362000D02*
G01*
X154778000Y-108362000D01*
X154778000Y-107792000D01*
X155078000Y-107792000D01*
X155078000Y-108362000D01*
G37*
X153628000Y-107612000D02*
X153008000Y-107612000D01*
X153008000Y-107272000D01*
X153628000Y-107272000D01*
X153628000Y-107612000D01*
G36*
X153628000Y-107612000D02*
G01*
X153008000Y-107612000D01*
X153008000Y-107272000D01*
X153628000Y-107272000D01*
X153628000Y-107612000D01*
G37*
X155348000Y-107612000D02*
X154728000Y-107612000D01*
X154728000Y-107272000D01*
X155348000Y-107272000D01*
X155348000Y-107612000D01*
G36*
X155348000Y-107612000D02*
G01*
X154728000Y-107612000D01*
X154728000Y-107272000D01*
X155348000Y-107272000D01*
X155348000Y-107612000D01*
G37*
X153578000Y-107092000D02*
X153278000Y-107092000D01*
X153278000Y-106522000D01*
X153578000Y-106522000D01*
X153578000Y-107092000D01*
G36*
X153578000Y-107092000D02*
G01*
X153278000Y-107092000D01*
X153278000Y-106522000D01*
X153578000Y-106522000D01*
X153578000Y-107092000D01*
G37*
X154048000Y-107092000D02*
X153808000Y-107092000D01*
X153808000Y-106522000D01*
X154048000Y-106522000D01*
X154048000Y-107092000D01*
G36*
X154048000Y-107092000D02*
G01*
X153808000Y-107092000D01*
X153808000Y-106522000D01*
X154048000Y-106522000D01*
X154048000Y-107092000D01*
G37*
X154548000Y-107092000D02*
X154308000Y-107092000D01*
X154308000Y-106522000D01*
X154548000Y-106522000D01*
X154548000Y-107092000D01*
G36*
X154548000Y-107092000D02*
G01*
X154308000Y-107092000D01*
X154308000Y-106522000D01*
X154548000Y-106522000D01*
X154548000Y-107092000D01*
G37*
X155078000Y-107092000D02*
X154778000Y-107092000D01*
X154778000Y-106522000D01*
X155078000Y-106522000D01*
X155078000Y-107092000D01*
G36*
X155078000Y-107092000D02*
G01*
X154778000Y-107092000D01*
X154778000Y-106522000D01*
X155078000Y-106522000D01*
X155078000Y-107092000D01*
G37*
X136247800Y-90990800D02*
X135967800Y-90990800D01*
X135967800Y-90630800D01*
X136247800Y-90630800D01*
X136247800Y-90990800D01*
G36*
X136247800Y-90990800D02*
G01*
X135967800Y-90990800D01*
X135967800Y-90630800D01*
X136247800Y-90630800D01*
X136247800Y-90990800D01*
G37*
X136747800Y-90990800D02*
X136467800Y-90990800D01*
X136467800Y-90630800D01*
X136747800Y-90630800D01*
X136747800Y-90990800D01*
G36*
X136747800Y-90990800D02*
G01*
X136467800Y-90990800D01*
X136467800Y-90630800D01*
X136747800Y-90630800D01*
X136747800Y-90990800D01*
G37*
X137247800Y-90990800D02*
X136967800Y-90990800D01*
X136967800Y-90630800D01*
X137247800Y-90630800D01*
X137247800Y-90990800D01*
G36*
X137247800Y-90990800D02*
G01*
X136967800Y-90990800D01*
X136967800Y-90630800D01*
X137247800Y-90630800D01*
X137247800Y-90990800D01*
G37*
X137747800Y-90990800D02*
X137467800Y-90990800D01*
X137467800Y-90630800D01*
X137747800Y-90630800D01*
X137747800Y-90990800D01*
G36*
X137747800Y-90990800D02*
G01*
X137467800Y-90990800D01*
X137467800Y-90630800D01*
X137747800Y-90630800D01*
X137747800Y-90990800D01*
G37*
X138247800Y-90990800D02*
X137967800Y-90990800D01*
X137967800Y-90630800D01*
X138247800Y-90630800D01*
X138247800Y-90990800D01*
G36*
X138247800Y-90990800D02*
G01*
X137967800Y-90990800D01*
X137967800Y-90630800D01*
X138247800Y-90630800D01*
X138247800Y-90990800D01*
G37*
X136067800Y-90225800D02*
X135707800Y-90225800D01*
X135707800Y-89945800D01*
X136067800Y-89945800D01*
X136067800Y-90225800D01*
G36*
X136067800Y-90225800D02*
G01*
X135707800Y-90225800D01*
X135707800Y-89945800D01*
X136067800Y-89945800D01*
X136067800Y-90225800D01*
G37*
X138517800Y-90220800D02*
X138157800Y-90220800D01*
X138157800Y-89940800D01*
X138517800Y-89940800D01*
X138517800Y-90220800D01*
G36*
X138517800Y-90220800D02*
G01*
X138157800Y-90220800D01*
X138157800Y-89940800D01*
X138517800Y-89940800D01*
X138517800Y-90220800D01*
G37*
X136062800Y-89725800D02*
X135702800Y-89725800D01*
X135702800Y-89445800D01*
X136062800Y-89445800D01*
X136062800Y-89725800D01*
G36*
X136062800Y-89725800D02*
G01*
X135702800Y-89725800D01*
X135702800Y-89445800D01*
X136062800Y-89445800D01*
X136062800Y-89725800D01*
G37*
X138517800Y-89725800D02*
X138157800Y-89725800D01*
X138157800Y-89445800D01*
X138517800Y-89445800D01*
X138517800Y-89725800D01*
G36*
X138517800Y-89725800D02*
G01*
X138157800Y-89725800D01*
X138157800Y-89445800D01*
X138517800Y-89445800D01*
X138517800Y-89725800D01*
G37*
X138517800Y-89225800D02*
X138157800Y-89225800D01*
X138157800Y-88945800D01*
X138517800Y-88945800D01*
X138517800Y-89225800D01*
G36*
X138517800Y-89225800D02*
G01*
X138157800Y-89225800D01*
X138157800Y-88945800D01*
X138517800Y-88945800D01*
X138517800Y-89225800D01*
G37*
X136067800Y-89225800D02*
X135707800Y-89225800D01*
X135707800Y-88945800D01*
X136067800Y-88945800D01*
X136067800Y-89225800D01*
G36*
X136067800Y-89225800D02*
G01*
X135707800Y-89225800D01*
X135707800Y-88945800D01*
X136067800Y-88945800D01*
X136067800Y-89225800D01*
G37*
X136247800Y-88540800D02*
X135967800Y-88540800D01*
X135967800Y-88180800D01*
X136247800Y-88180800D01*
X136247800Y-88540800D01*
G36*
X136247800Y-88540800D02*
G01*
X135967800Y-88540800D01*
X135967800Y-88180800D01*
X136247800Y-88180800D01*
X136247800Y-88540800D01*
G37*
X136747800Y-88540800D02*
X136467800Y-88540800D01*
X136467800Y-88180800D01*
X136747800Y-88180800D01*
X136747800Y-88540800D01*
G36*
X136747800Y-88540800D02*
G01*
X136467800Y-88540800D01*
X136467800Y-88180800D01*
X136747800Y-88180800D01*
X136747800Y-88540800D01*
G37*
X137247800Y-88540800D02*
X136967800Y-88540800D01*
X136967800Y-88180800D01*
X137247800Y-88180800D01*
X137247800Y-88540800D01*
G36*
X137247800Y-88540800D02*
G01*
X136967800Y-88540800D01*
X136967800Y-88180800D01*
X137247800Y-88180800D01*
X137247800Y-88540800D01*
G37*
X137747800Y-88540800D02*
X137467800Y-88540800D01*
X137467800Y-88180800D01*
X137747800Y-88180800D01*
X137747800Y-88540800D01*
G36*
X137747800Y-88540800D02*
G01*
X137467800Y-88540800D01*
X137467800Y-88180800D01*
X137747800Y-88180800D01*
X137747800Y-88540800D01*
G37*
X138247800Y-88540800D02*
X137967800Y-88540800D01*
X137967800Y-88180800D01*
X138247800Y-88180800D01*
X138247800Y-88540800D01*
G36*
X138247800Y-88540800D02*
G01*
X137967800Y-88540800D01*
X137967800Y-88180800D01*
X138247800Y-88180800D01*
X138247800Y-88540800D01*
G37*
X181551000Y-84011000D02*
X179971000Y-84011000D01*
X179971000Y-82991000D01*
X181551000Y-82991000D01*
X181551000Y-84011000D01*
G36*
X181551000Y-84011000D02*
G01*
X179971000Y-84011000D01*
X179971000Y-82991000D01*
X181551000Y-82991000D01*
X181551000Y-84011000D01*
G37*
D11*
X143209500Y-80772000D03*
X145334500Y-80772000D03*
D12*
X112649000Y-114554000D03*
X112649000Y-112979000D03*
D13*
X131826000Y-97891500D03*
X131826000Y-99466500D03*
X110109000Y-105257500D03*
X110109000Y-106832500D03*
X110109000Y-92938500D03*
X110109000Y-94513500D03*
D14*
X185433000Y-101219000D03*
X183883000Y-101219000D03*
D15*
X186690000Y-118123000D03*
X186690000Y-116573000D03*
D16*
X111002200Y-85149400D03*
X112552200Y-85149400D03*
X110987000Y-77916400D03*
X112537000Y-77916400D03*
D17*
X130180500Y-99443000D03*
X130180500Y-97793000D03*
D18*
X114634500Y-105257000D03*
X114634500Y-106807000D03*
D19*
X179319500Y-121820000D03*
X181369500Y-121820000D03*
D20*
X177230500Y-117380500D03*
X175330500Y-117380500D03*
X176280500Y-119655500D03*
D21*
X113143000Y-92901000D03*
X113143000Y-94551000D03*
D22*
X167132000Y-115027000D03*
X165862000Y-115027000D03*
X164592000Y-115027000D03*
X163322000Y-115027000D03*
X163322000Y-119977000D03*
X164592000Y-119977000D03*
X165862000Y-119977000D03*
X167132000Y-119977000D03*
D21*
X191008000Y-110681000D03*
X191008000Y-112331000D03*
D17*
X182122500Y-106643000D03*
X182122500Y-104993000D03*
D21*
X113110500Y-108255000D03*
X113110500Y-109905000D03*
D15*
X148844000Y-117361000D03*
X148844000Y-115811000D03*
D23*
X185357000Y-121412000D03*
X187007000Y-121412000D03*
X158560000Y-122074000D03*
X160210000Y-122074000D03*
D24*
X135933000Y-81593000D03*
X131783000Y-81593000D03*
X135933000Y-79443000D03*
X131783000Y-79443000D03*
D25*
X116840000Y-105918000D03*
X116840000Y-107188000D03*
X116840000Y-108458000D03*
X116840000Y-109728000D03*
X122400000Y-109728000D03*
X122400000Y-108458000D03*
X122400000Y-107188000D03*
X122400000Y-105918000D03*
D26*
X119017500Y-107048000D03*
X119017500Y-108598000D03*
X120222500Y-107048000D03*
X120222500Y-108598000D03*
D17*
X178312500Y-106643000D03*
X178312500Y-104993000D03*
D23*
X155893000Y-111760000D03*
X157543000Y-111760000D03*
D27*
X187007000Y-119888000D03*
X185357000Y-119888000D03*
D17*
X112320800Y-81332200D03*
X112320800Y-79682200D03*
X189484000Y-112331000D03*
X189484000Y-110681000D03*
D28*
X153859000Y-114173000D03*
X153859000Y-112903000D03*
X153859000Y-111633000D03*
X153859000Y-110363000D03*
X148909000Y-110363000D03*
X148909000Y-111633000D03*
X148909000Y-112903000D03*
X148909000Y-114173000D03*
D17*
X187198000Y-102806000D03*
X187198000Y-101156000D03*
D21*
X110062500Y-108255000D03*
X110062500Y-109905000D03*
D15*
X145034000Y-74326000D03*
X145034000Y-72776000D03*
D16*
X158610000Y-120550000D03*
X160160000Y-120550000D03*
D21*
X124540500Y-105461000D03*
X124540500Y-107111000D03*
D29*
X183045000Y-85025000D03*
X184065000Y-85025000D03*
D30*
X160540700Y-79493999D03*
X160540700Y-78994000D03*
X160540700Y-78494001D03*
X158991300Y-78494001D03*
X158991300Y-79493999D03*
D31*
X137460000Y-100838000D03*
X138326000Y-100838000D03*
X139192000Y-100838000D03*
X137460000Y-99988000D03*
X138326000Y-99988000D03*
X139192000Y-99988000D03*
D32*
X137376000Y-101753000D03*
X138326000Y-101753000D03*
X139276000Y-101753000D03*
X139276000Y-99073000D03*
X138326000Y-99073000D03*
X137376000Y-99073000D03*
D17*
X112336000Y-88556000D03*
X112336000Y-86906000D03*
D33*
X185079000Y-81949000D03*
X185079000Y-80989000D03*
D25*
X116713000Y-93599000D03*
X116713000Y-94869000D03*
X116713000Y-96139000D03*
X116713000Y-97409000D03*
X122273000Y-97409000D03*
X122273000Y-96139000D03*
X122273000Y-94869000D03*
X122273000Y-93599000D03*
D26*
X118890500Y-94729000D03*
X118890500Y-96279000D03*
X120095500Y-94729000D03*
X120095500Y-96279000D03*
D21*
X113110500Y-105207000D03*
X113110500Y-106857000D03*
D27*
X146875000Y-110236000D03*
X145225000Y-110236000D03*
D15*
X184404000Y-112281000D03*
X184404000Y-110731000D03*
D16*
X148323000Y-78994000D03*
X149873000Y-78994000D03*
D34*
X124906000Y-116675000D03*
X124906000Y-117945000D03*
X124906000Y-119215000D03*
X124906000Y-120485000D03*
X129856000Y-120485000D03*
X129856000Y-119215000D03*
X129856000Y-117945000D03*
X129856000Y-116675000D03*
D23*
X176467000Y-82042000D03*
X178117000Y-82042000D03*
D17*
X172273000Y-111469000D03*
X172273000Y-109819000D03*
D21*
X175010500Y-113883000D03*
X175010500Y-115533000D03*
D23*
X145225000Y-111760000D03*
X146875000Y-111760000D03*
D24*
X135933000Y-85403000D03*
X131783000Y-85403000D03*
X135933000Y-83253000D03*
X131783000Y-83253000D03*
D16*
X133005400Y-90601800D03*
X134555400Y-90601800D03*
D21*
X110796800Y-79682200D03*
X110796800Y-81332200D03*
D35*
X132054600Y-88138000D03*
X129054600Y-88138000D03*
D15*
X168783000Y-120563000D03*
X168783000Y-119013000D03*
D17*
X161671000Y-122137000D03*
X161671000Y-120487000D03*
D15*
X154813000Y-118531000D03*
X154813000Y-116981000D03*
D16*
X121145000Y-99060000D03*
X122695000Y-99060000D03*
D18*
X154022000Y-103619000D03*
X154022000Y-105169000D03*
D15*
X165735000Y-110403000D03*
X165735000Y-108853000D03*
D29*
X183045000Y-81977000D03*
X184065000Y-81977000D03*
D15*
X143510000Y-74326000D03*
X143510000Y-72776000D03*
D18*
X142113000Y-87109000D03*
X142113000Y-88659000D03*
D36*
X181995500Y-108269100D03*
X180725500Y-108269100D03*
X180725500Y-115050900D03*
X181995500Y-115050900D03*
D37*
X176530000Y-80439500D03*
X176530000Y-78564500D03*
D38*
X185079000Y-85053000D03*
X185079000Y-86013000D03*
D39*
X146812000Y-113792000D03*
X143512000Y-113792000D03*
D40*
X167325000Y-111273500D03*
X168275000Y-111273500D03*
X169225000Y-111273500D03*
X169225000Y-108998500D03*
X167325000Y-108998500D03*
D18*
X126238000Y-108191000D03*
X126238000Y-109741000D03*
D31*
X139850000Y-74484000D03*
X140716000Y-74484000D03*
X141582000Y-74484000D03*
X139850000Y-73634000D03*
X140716000Y-73634000D03*
X141582000Y-73634000D03*
D32*
X139766000Y-75399000D03*
X140716000Y-75399000D03*
X141666000Y-75399000D03*
X141666000Y-72719000D03*
X140716000Y-72719000D03*
X139766000Y-72719000D03*
D41*
X177305500Y-121820000D03*
X175255500Y-121820000D03*
D11*
X187659500Y-78486000D03*
X189784500Y-78486000D03*
D18*
X159004000Y-103619000D03*
X159004000Y-105169000D03*
D14*
X183401000Y-80010000D03*
X181851000Y-80010000D03*
D23*
X165926000Y-122074000D03*
X167576000Y-122074000D03*
D21*
X124319000Y-91885000D03*
X124319000Y-93535000D03*
D18*
X122936000Y-117994000D03*
X122936000Y-119544000D03*
D42*
X153896000Y-87884000D03*
X152936000Y-87884000D03*
D43*
X188138000Y-107746000D03*
X191438000Y-107746000D03*
D15*
X135532000Y-100934000D03*
X135532000Y-99384000D03*
D21*
X125843000Y-93155000D03*
X125843000Y-94805000D03*
D27*
X172336000Y-112930000D03*
X170686000Y-112930000D03*
D40*
X185994000Y-112135500D03*
X186944000Y-112135500D03*
X187894000Y-112135500D03*
X187894000Y-109860500D03*
X185994000Y-109860500D03*
D36*
X178185500Y-108269100D03*
X176915500Y-108269100D03*
X176915500Y-115050900D03*
X178185500Y-115050900D03*
D21*
X137668000Y-83503000D03*
X137668000Y-85153000D03*
D18*
X190754000Y-85585000D03*
X190754000Y-87135000D03*
D14*
X129965248Y-122125966D03*
X128415248Y-122125966D03*
D15*
X134008000Y-100934000D03*
X134008000Y-99384000D03*
D44*
X152604000Y-116002000D03*
X152604000Y-119302000D03*
D39*
X155651000Y-70308000D03*
X152351000Y-70308000D03*
D21*
X110081000Y-95949000D03*
X110081000Y-97599000D03*
D18*
X182372000Y-86855000D03*
X182372000Y-88405000D03*
D42*
X145288000Y-83693000D03*
X144328000Y-83693000D03*
D15*
X186182000Y-78499000D03*
X186182000Y-76949000D03*
X142644000Y-100680002D03*
X142644000Y-99130002D03*
D18*
X111586500Y-108305000D03*
X111586500Y-109855000D03*
D45*
X193172000Y-84547000D03*
X193172000Y-83897000D03*
X193172000Y-83247000D03*
X193172000Y-82597000D03*
X193172000Y-81947000D03*
D15*
X170749000Y-111419000D03*
X170749000Y-109869000D03*
D46*
X143934000Y-86956000D03*
X146134000Y-86956000D03*
X146134000Y-85256000D03*
X143934000Y-85256000D03*
D47*
X148110000Y-80264000D03*
X149070000Y-80264000D03*
D21*
X114300000Y-112967000D03*
X114300000Y-114617000D03*
D20*
X182310500Y-117380500D03*
X180410500Y-117380500D03*
X181360500Y-119655500D03*
D21*
X110812000Y-86906000D03*
X110812000Y-88556000D03*
D27*
X157543000Y-110236000D03*
X155893000Y-110236000D03*
D17*
X132080000Y-119380000D03*
X132080000Y-117730000D03*
D48*
X181886000Y-82066000D03*
X181436000Y-82066000D03*
X180986000Y-82066000D03*
X180536000Y-82066000D03*
X180086000Y-82066000D03*
X179636000Y-82066000D03*
X179636000Y-84936000D03*
X180086000Y-84936000D03*
X180536000Y-84936000D03*
X180986000Y-84936000D03*
X181436000Y-84936000D03*
X181886000Y-84936000D03*
D15*
X141120000Y-100680002D03*
X141120000Y-99130002D03*
D18*
X137668000Y-79743000D03*
X137668000Y-81293000D03*
D43*
X158039000Y-114504000D03*
X161339000Y-114504000D03*
D21*
X183900500Y-115661000D03*
X183900500Y-117311000D03*
X147320000Y-93409000D03*
X147320000Y-95059000D03*
D18*
X114667000Y-92951000D03*
X114667000Y-94501000D03*
D49*
X128270000Y-99568000D03*
X128270000Y-97668000D03*
X125995000Y-98618000D03*
D43*
X169469000Y-106884000D03*
X172769000Y-106884000D03*
D40*
X156403000Y-118893500D03*
X157353000Y-118893500D03*
X158303000Y-118893500D03*
X158303000Y-116618500D03*
X156403000Y-116618500D03*
D50*
X149980000Y-82924000D03*
X149980000Y-84074000D03*
X149980000Y-85224000D03*
X151130000Y-82924000D03*
X151130000Y-84074000D03*
X151130000Y-85224000D03*
X152280000Y-82924000D03*
X152280000Y-84074000D03*
X152280000Y-85224000D03*
D51*
X148692500Y-82324000D03*
X148692500Y-82824000D03*
X148692500Y-83324000D03*
X148692500Y-83824000D03*
X148692500Y-84324000D03*
X148692500Y-84824000D03*
X148692500Y-85324000D03*
X148692500Y-85824000D03*
D52*
X149380000Y-86511500D03*
X149880000Y-86511500D03*
X150380000Y-86511500D03*
X150880000Y-86511500D03*
X151380000Y-86511500D03*
X151880000Y-86511500D03*
X152380000Y-86511500D03*
X152880000Y-86511500D03*
D51*
X153567500Y-85824000D03*
X153567500Y-85324000D03*
X153567500Y-84824000D03*
X153567500Y-84324000D03*
X153567500Y-83824000D03*
X153567500Y-83324000D03*
X153567500Y-82824000D03*
X153567500Y-82324000D03*
D52*
X152880000Y-81636500D03*
X152380000Y-81636500D03*
X151880000Y-81636500D03*
X151380000Y-81636500D03*
X150880000Y-81636500D03*
X150380000Y-81636500D03*
X149880000Y-81636500D03*
X149380000Y-81636500D03*
D14*
X164478000Y-112930000D03*
X162928000Y-112930000D03*
D53*
X116089000Y-112588000D03*
X116089000Y-114488000D03*
X118364000Y-113538000D03*
D15*
X138072000Y-74422000D03*
X138072000Y-72872000D03*
D14*
X145047000Y-82423000D03*
X143497000Y-82423000D03*
D15*
X136548000Y-74422000D03*
X136548000Y-72872000D03*
D18*
X111619000Y-95999000D03*
X111619000Y-97549000D03*
D21*
X120142000Y-111951000D03*
X120142000Y-113601000D03*
D54*
X183388000Y-76962000D03*
X183388000Y-73962000D03*
D21*
X145826000Y-93409000D03*
X145826000Y-95059000D03*
D27*
X128587000Y-101092000D03*
X126937000Y-101092000D03*
D21*
X113143000Y-95949000D03*
X113143000Y-97599000D03*
M02*
