%TF.GenerationSoftware,KiCad,Pcbnew,9.0.2*%
%TF.CreationDate,2025-08-16T13:12:48-06:00*%
%TF.ProjectId,LED light pcb,4c454420-6c69-4676-9874-207063622e6b,rev?*%
%TF.SameCoordinates,Original*%
%TF.FileFunction,Soldermask,Bot*%
%TF.FilePolarity,Negative*%
%FSLAX46Y46*%
G04 Gerber Fmt 4.6, Leading zero omitted, Abs format (unit mm)*
G04 Created by KiCad (PCBNEW 9.0.2) date 2025-08-16 13:12:48*
%MOMM*%
%LPD*%
G01*
G04 APERTURE LIST*
%ADD10C,1.576200*%
%ADD11C,1.026200*%
%ADD12C,0.010000*%
%ADD13C,3.000000*%
G04 APERTURE END LIST*
D10*
%TO.C,J1*%
X128748100Y-113700000D02*
G75*
G02*
X127171900Y-113700000I-788100J0D01*
G01*
X127171900Y-113700000D02*
G75*
G02*
X128748100Y-113700000I788100J0D01*
G01*
X128748100Y-95900000D02*
G75*
G02*
X127171900Y-95900000I-788100J0D01*
G01*
X127171900Y-95900000D02*
G75*
G02*
X128748100Y-95900000I788100J0D01*
G01*
D11*
X128013100Y-100600000D02*
G75*
G02*
X126986900Y-100600000I-513100J0D01*
G01*
X126986900Y-100600000D02*
G75*
G02*
X128013100Y-100600000I513100J0D01*
G01*
X128013100Y-104800000D02*
G75*
G02*
X126986900Y-104800000I-513100J0D01*
G01*
X126986900Y-104800000D02*
G75*
G02*
X128013100Y-104800000I513100J0D01*
G01*
X128013100Y-109000000D02*
G75*
G02*
X126986900Y-109000000I-513100J0D01*
G01*
X126986900Y-109000000D02*
G75*
G02*
X128013100Y-109000000I513100J0D01*
G01*
X133513100Y-100600000D02*
G75*
G02*
X132486900Y-100600000I-513100J0D01*
G01*
X132486900Y-100600000D02*
G75*
G02*
X133513100Y-100600000I513100J0D01*
G01*
X133513100Y-104800000D02*
G75*
G02*
X132486900Y-104800000I-513100J0D01*
G01*
X132486900Y-104800000D02*
G75*
G02*
X133513100Y-104800000I513100J0D01*
G01*
D12*
X134026200Y-110026200D02*
X131973800Y-110026200D01*
X131973800Y-107973800D01*
X134026200Y-107973800D01*
X134026200Y-110026200D01*
G36*
X134026200Y-110026200D02*
G01*
X131973800Y-110026200D01*
X131973800Y-107973800D01*
X134026200Y-107973800D01*
X134026200Y-110026200D01*
G37*
%TD*%
D13*
%TO.C,H1*%
X130500000Y-126500000D03*
%TD*%
%TO.C,H2*%
X130500000Y-86500000D03*
%TD*%
%TO.C,J1*%
X127960000Y-113700000D03*
X127960000Y-95900000D03*
%TD*%
M02*
