%TF.GenerationSoftware,KiCad,Pcbnew,8.0.6*%
%TF.CreationDate,2025-02-22T02:29:56-05:00*%
%TF.ProjectId,H2-Sensor-Board_Sally-R1.0,48322d53-656e-4736-9f72-2d426f617264,rev?*%
%TF.SameCoordinates,Original*%
%TF.FileFunction,Drillmap*%
%TF.FilePolarity,Positive*%
%FSLAX45Y45*%
G04 Gerber Fmt 4.5, Leading zero omitted, Abs format (unit mm)*
G04 Created by KiCad (PCBNEW 8.0.6) date 2025-02-22 02:29:56*
%MOMM*%
%LPD*%
G01*
G04 APERTURE LIST*
%ADD10C,0.200000*%
%ADD11C,0.100000*%
%ADD12C,0.290000*%
%ADD13C,0.320000*%
%ADD14C,0.350000*%
G04 APERTURE END LIST*
D10*
X12000000Y-13100000D02*
G75*
G02*
X11500000Y-12600000I0J500000D01*
G01*
X21000000Y-13100000D02*
X12000000Y-13100000D01*
X12000000Y-3100000D02*
X21000000Y-3100000D01*
X11500000Y-12600000D02*
X11500000Y-3600000D01*
X21000000Y-3100000D02*
G75*
G02*
X21500000Y-3600000I0J-500000D01*
G01*
X11500000Y-3600000D02*
G75*
G02*
X12000000Y-3100000I500000J0D01*
G01*
X21500000Y-12600000D02*
G75*
G02*
X21000000Y-13100000I-500000J0D01*
G01*
X21500000Y-3600000D02*
X21500000Y-12600000D01*
D11*
X17078500Y-3698000D02*
X17143500Y-3763000D01*
X17143500Y-3698000D02*
X17078500Y-3763000D01*
X17656500Y-3698000D02*
X17721500Y-3763000D01*
X17721500Y-3698000D02*
X17656500Y-3763000D01*
X21129000Y-4670000D02*
G75*
G02*
X21029000Y-4670000I-50000J0D01*
G01*
X21029000Y-4670000D02*
G75*
G02*
X21129000Y-4670000I50000J0D01*
G01*
X21129000Y-5870000D02*
G75*
G02*
X21029000Y-5870000I-50000J0D01*
G01*
X21029000Y-5870000D02*
G75*
G02*
X21129000Y-5870000I50000J0D01*
G01*
X21129000Y-6550000D02*
G75*
G02*
X21029000Y-6550000I-50000J0D01*
G01*
X21029000Y-6550000D02*
G75*
G02*
X21129000Y-6550000I50000J0D01*
G01*
X21129000Y-7750000D02*
G75*
G02*
X21029000Y-7750000I-50000J0D01*
G01*
X21029000Y-7750000D02*
G75*
G02*
X21129000Y-7750000I50000J0D01*
G01*
X21129000Y-8420000D02*
G75*
G02*
X21029000Y-8420000I-50000J0D01*
G01*
X21029000Y-8420000D02*
G75*
G02*
X21129000Y-8420000I50000J0D01*
G01*
X21129000Y-9620000D02*
G75*
G02*
X21029000Y-9620000I-50000J0D01*
G01*
X21029000Y-9620000D02*
G75*
G02*
X21129000Y-9620000I50000J0D01*
G01*
X21129000Y-10300000D02*
G75*
G02*
X21029000Y-10300000I-50000J0D01*
G01*
X21029000Y-10300000D02*
G75*
G02*
X21129000Y-10300000I50000J0D01*
G01*
X21129000Y-11500000D02*
G75*
G02*
X21029000Y-11500000I-50000J0D01*
G01*
X21029000Y-11500000D02*
G75*
G02*
X21129000Y-11500000I50000J0D01*
G01*
D12*
X12872400Y-10147700D02*
X12872400Y-10437700D01*
X12727400Y-10292700D02*
X13017400Y-10292700D01*
D11*
X12827400Y-10437700D02*
X12917400Y-10437700D01*
X12917400Y-10147700D02*
G75*
G02*
X12917400Y-10437700I0J-145000D01*
G01*
X12917400Y-10147700D02*
X12827400Y-10147700D01*
X12827400Y-10147700D02*
G75*
G03*
X12827400Y-10437700I0J-145000D01*
G01*
D12*
X12872400Y-12459100D02*
X12872400Y-12749100D01*
X12727400Y-12604100D02*
X13017400Y-12604100D01*
D11*
X12827400Y-12749100D02*
X12917400Y-12749100D01*
X12917400Y-12459100D02*
G75*
G02*
X12917400Y-12749100I0J-145000D01*
G01*
X12917400Y-12459100D02*
X12827400Y-12459100D01*
X12827400Y-12459100D02*
G75*
G03*
X12827400Y-12749100I0J-145000D01*
G01*
D12*
X15107600Y-10147700D02*
X15107600Y-10437700D01*
X14962600Y-10292700D02*
X15252600Y-10292700D01*
D11*
X15062600Y-10437700D02*
X15152600Y-10437700D01*
X15152600Y-10147700D02*
G75*
G02*
X15152600Y-10437700I0J-145000D01*
G01*
X15152600Y-10147700D02*
X15062600Y-10147700D01*
X15062600Y-10147700D02*
G75*
G03*
X15062600Y-10437700I0J-145000D01*
G01*
D12*
X15107600Y-12459100D02*
X15107600Y-12749100D01*
X14962600Y-12604100D02*
X15252600Y-12604100D01*
D11*
X15062600Y-12749100D02*
X15152600Y-12749100D01*
X15152600Y-12459100D02*
G75*
G02*
X15152600Y-12749100I0J-145000D01*
G01*
X15152600Y-12459100D02*
X15062600Y-12459100D01*
X15062600Y-12459100D02*
G75*
G03*
X15062600Y-12749100I0J-145000D01*
G01*
D13*
X12113138Y-3713138D02*
X12113138Y-3486862D01*
X11886862Y-3486862D01*
X11886862Y-3713138D01*
X12113138Y-3713138D01*
D14*
X12000000Y-12775000D02*
X12175000Y-12600000D01*
X12000000Y-12425000D01*
X11825000Y-12600000D01*
X12000000Y-12775000D01*
X21000000Y-3775000D02*
X21175000Y-3600000D01*
X21000000Y-3425000D01*
X20825000Y-3600000D01*
X21000000Y-3775000D01*
X21000000Y-12775000D02*
X21175000Y-12600000D01*
X21000000Y-12425000D01*
X20825000Y-12600000D01*
X21000000Y-12775000D01*
D10*
X11750777Y-13421484D02*
X11750777Y-13221484D01*
X11750777Y-13221484D02*
X11798396Y-13221484D01*
X11798396Y-13221484D02*
X11826967Y-13231008D01*
X11826967Y-13231008D02*
X11846015Y-13250055D01*
X11846015Y-13250055D02*
X11855539Y-13269103D01*
X11855539Y-13269103D02*
X11865062Y-13307198D01*
X11865062Y-13307198D02*
X11865062Y-13335769D01*
X11865062Y-13335769D02*
X11855539Y-13373865D01*
X11855539Y-13373865D02*
X11846015Y-13392912D01*
X11846015Y-13392912D02*
X11826967Y-13411960D01*
X11826967Y-13411960D02*
X11798396Y-13421484D01*
X11798396Y-13421484D02*
X11750777Y-13421484D01*
X11950777Y-13421484D02*
X11950777Y-13288150D01*
X11950777Y-13326246D02*
X11960301Y-13307198D01*
X11960301Y-13307198D02*
X11969824Y-13297674D01*
X11969824Y-13297674D02*
X11988872Y-13288150D01*
X11988872Y-13288150D02*
X12007920Y-13288150D01*
X12074586Y-13421484D02*
X12074586Y-13288150D01*
X12074586Y-13221484D02*
X12065062Y-13231008D01*
X12065062Y-13231008D02*
X12074586Y-13240531D01*
X12074586Y-13240531D02*
X12084110Y-13231008D01*
X12084110Y-13231008D02*
X12074586Y-13221484D01*
X12074586Y-13221484D02*
X12074586Y-13240531D01*
X12198396Y-13421484D02*
X12179348Y-13411960D01*
X12179348Y-13411960D02*
X12169824Y-13392912D01*
X12169824Y-13392912D02*
X12169824Y-13221484D01*
X12303158Y-13421484D02*
X12284110Y-13411960D01*
X12284110Y-13411960D02*
X12274586Y-13392912D01*
X12274586Y-13392912D02*
X12274586Y-13221484D01*
X12531729Y-13421484D02*
X12531729Y-13221484D01*
X12531729Y-13221484D02*
X12598396Y-13364341D01*
X12598396Y-13364341D02*
X12665062Y-13221484D01*
X12665062Y-13221484D02*
X12665062Y-13421484D01*
X12846015Y-13421484D02*
X12846015Y-13316722D01*
X12846015Y-13316722D02*
X12836491Y-13297674D01*
X12836491Y-13297674D02*
X12817443Y-13288150D01*
X12817443Y-13288150D02*
X12779348Y-13288150D01*
X12779348Y-13288150D02*
X12760301Y-13297674D01*
X12846015Y-13411960D02*
X12826967Y-13421484D01*
X12826967Y-13421484D02*
X12779348Y-13421484D01*
X12779348Y-13421484D02*
X12760301Y-13411960D01*
X12760301Y-13411960D02*
X12750777Y-13392912D01*
X12750777Y-13392912D02*
X12750777Y-13373865D01*
X12750777Y-13373865D02*
X12760301Y-13354817D01*
X12760301Y-13354817D02*
X12779348Y-13345293D01*
X12779348Y-13345293D02*
X12826967Y-13345293D01*
X12826967Y-13345293D02*
X12846015Y-13335769D01*
X12941253Y-13288150D02*
X12941253Y-13488150D01*
X12941253Y-13297674D02*
X12960301Y-13288150D01*
X12960301Y-13288150D02*
X12998396Y-13288150D01*
X12998396Y-13288150D02*
X13017443Y-13297674D01*
X13017443Y-13297674D02*
X13026967Y-13307198D01*
X13026967Y-13307198D02*
X13036491Y-13326246D01*
X13036491Y-13326246D02*
X13036491Y-13383388D01*
X13036491Y-13383388D02*
X13026967Y-13402436D01*
X13026967Y-13402436D02*
X13017443Y-13411960D01*
X13017443Y-13411960D02*
X12998396Y-13421484D01*
X12998396Y-13421484D02*
X12960301Y-13421484D01*
X12960301Y-13421484D02*
X12941253Y-13411960D01*
X13122205Y-13402436D02*
X13131729Y-13411960D01*
X13131729Y-13411960D02*
X13122205Y-13421484D01*
X13122205Y-13421484D02*
X13112682Y-13411960D01*
X13112682Y-13411960D02*
X13122205Y-13402436D01*
X13122205Y-13402436D02*
X13122205Y-13421484D01*
X13122205Y-13297674D02*
X13131729Y-13307198D01*
X13131729Y-13307198D02*
X13122205Y-13316722D01*
X13122205Y-13316722D02*
X13112682Y-13307198D01*
X13112682Y-13307198D02*
X13122205Y-13297674D01*
X13122205Y-13297674D02*
X13122205Y-13316722D01*
D11*
X11425000Y-13717500D02*
X11490000Y-13782500D01*
X11490000Y-13717500D02*
X11425000Y-13782500D01*
D10*
X11788872Y-13641484D02*
X11807920Y-13641484D01*
X11807920Y-13641484D02*
X11826967Y-13651008D01*
X11826967Y-13651008D02*
X11836491Y-13660531D01*
X11836491Y-13660531D02*
X11846015Y-13679579D01*
X11846015Y-13679579D02*
X11855539Y-13717674D01*
X11855539Y-13717674D02*
X11855539Y-13765293D01*
X11855539Y-13765293D02*
X11846015Y-13803388D01*
X11846015Y-13803388D02*
X11836491Y-13822436D01*
X11836491Y-13822436D02*
X11826967Y-13831960D01*
X11826967Y-13831960D02*
X11807920Y-13841484D01*
X11807920Y-13841484D02*
X11788872Y-13841484D01*
X11788872Y-13841484D02*
X11769824Y-13831960D01*
X11769824Y-13831960D02*
X11760301Y-13822436D01*
X11760301Y-13822436D02*
X11750777Y-13803388D01*
X11750777Y-13803388D02*
X11741253Y-13765293D01*
X11741253Y-13765293D02*
X11741253Y-13717674D01*
X11741253Y-13717674D02*
X11750777Y-13679579D01*
X11750777Y-13679579D02*
X11760301Y-13660531D01*
X11760301Y-13660531D02*
X11769824Y-13651008D01*
X11769824Y-13651008D02*
X11788872Y-13641484D01*
X11941253Y-13822436D02*
X11950777Y-13831960D01*
X11950777Y-13831960D02*
X11941253Y-13841484D01*
X11941253Y-13841484D02*
X11931729Y-13831960D01*
X11931729Y-13831960D02*
X11941253Y-13822436D01*
X11941253Y-13822436D02*
X11941253Y-13841484D01*
X12122205Y-13641484D02*
X12084110Y-13641484D01*
X12084110Y-13641484D02*
X12065062Y-13651008D01*
X12065062Y-13651008D02*
X12055539Y-13660531D01*
X12055539Y-13660531D02*
X12036491Y-13689103D01*
X12036491Y-13689103D02*
X12026967Y-13727198D01*
X12026967Y-13727198D02*
X12026967Y-13803388D01*
X12026967Y-13803388D02*
X12036491Y-13822436D01*
X12036491Y-13822436D02*
X12046015Y-13831960D01*
X12046015Y-13831960D02*
X12065062Y-13841484D01*
X12065062Y-13841484D02*
X12103158Y-13841484D01*
X12103158Y-13841484D02*
X12122205Y-13831960D01*
X12122205Y-13831960D02*
X12131729Y-13822436D01*
X12131729Y-13822436D02*
X12141253Y-13803388D01*
X12141253Y-13803388D02*
X12141253Y-13755769D01*
X12141253Y-13755769D02*
X12131729Y-13736722D01*
X12131729Y-13736722D02*
X12122205Y-13727198D01*
X12122205Y-13727198D02*
X12103158Y-13717674D01*
X12103158Y-13717674D02*
X12065062Y-13717674D01*
X12065062Y-13717674D02*
X12046015Y-13727198D01*
X12046015Y-13727198D02*
X12036491Y-13736722D01*
X12036491Y-13736722D02*
X12026967Y-13755769D01*
X12322205Y-13641484D02*
X12226967Y-13641484D01*
X12226967Y-13641484D02*
X12217443Y-13736722D01*
X12217443Y-13736722D02*
X12226967Y-13727198D01*
X12226967Y-13727198D02*
X12246015Y-13717674D01*
X12246015Y-13717674D02*
X12293634Y-13717674D01*
X12293634Y-13717674D02*
X12312682Y-13727198D01*
X12312682Y-13727198D02*
X12322205Y-13736722D01*
X12322205Y-13736722D02*
X12331729Y-13755769D01*
X12331729Y-13755769D02*
X12331729Y-13803388D01*
X12331729Y-13803388D02*
X12322205Y-13822436D01*
X12322205Y-13822436D02*
X12312682Y-13831960D01*
X12312682Y-13831960D02*
X12293634Y-13841484D01*
X12293634Y-13841484D02*
X12246015Y-13841484D01*
X12246015Y-13841484D02*
X12226967Y-13831960D01*
X12226967Y-13831960D02*
X12217443Y-13822436D01*
X12455539Y-13641484D02*
X12474586Y-13641484D01*
X12474586Y-13641484D02*
X12493634Y-13651008D01*
X12493634Y-13651008D02*
X12503158Y-13660531D01*
X12503158Y-13660531D02*
X12512682Y-13679579D01*
X12512682Y-13679579D02*
X12522205Y-13717674D01*
X12522205Y-13717674D02*
X12522205Y-13765293D01*
X12522205Y-13765293D02*
X12512682Y-13803388D01*
X12512682Y-13803388D02*
X12503158Y-13822436D01*
X12503158Y-13822436D02*
X12493634Y-13831960D01*
X12493634Y-13831960D02*
X12474586Y-13841484D01*
X12474586Y-13841484D02*
X12455539Y-13841484D01*
X12455539Y-13841484D02*
X12436491Y-13831960D01*
X12436491Y-13831960D02*
X12426967Y-13822436D01*
X12426967Y-13822436D02*
X12417443Y-13803388D01*
X12417443Y-13803388D02*
X12407920Y-13765293D01*
X12407920Y-13765293D02*
X12407920Y-13717674D01*
X12407920Y-13717674D02*
X12417443Y-13679579D01*
X12417443Y-13679579D02*
X12426967Y-13660531D01*
X12426967Y-13660531D02*
X12436491Y-13651008D01*
X12436491Y-13651008D02*
X12455539Y-13641484D01*
X12607920Y-13841484D02*
X12607920Y-13708150D01*
X12607920Y-13727198D02*
X12617443Y-13717674D01*
X12617443Y-13717674D02*
X12636491Y-13708150D01*
X12636491Y-13708150D02*
X12665063Y-13708150D01*
X12665063Y-13708150D02*
X12684110Y-13717674D01*
X12684110Y-13717674D02*
X12693634Y-13736722D01*
X12693634Y-13736722D02*
X12693634Y-13841484D01*
X12693634Y-13736722D02*
X12703158Y-13717674D01*
X12703158Y-13717674D02*
X12722205Y-13708150D01*
X12722205Y-13708150D02*
X12750777Y-13708150D01*
X12750777Y-13708150D02*
X12769824Y-13717674D01*
X12769824Y-13717674D02*
X12779348Y-13736722D01*
X12779348Y-13736722D02*
X12779348Y-13841484D01*
X12874586Y-13841484D02*
X12874586Y-13708150D01*
X12874586Y-13727198D02*
X12884110Y-13717674D01*
X12884110Y-13717674D02*
X12903158Y-13708150D01*
X12903158Y-13708150D02*
X12931729Y-13708150D01*
X12931729Y-13708150D02*
X12950777Y-13717674D01*
X12950777Y-13717674D02*
X12960301Y-13736722D01*
X12960301Y-13736722D02*
X12960301Y-13841484D01*
X12960301Y-13736722D02*
X12969824Y-13717674D01*
X12969824Y-13717674D02*
X12988872Y-13708150D01*
X12988872Y-13708150D02*
X13017443Y-13708150D01*
X13017443Y-13708150D02*
X13036491Y-13717674D01*
X13036491Y-13717674D02*
X13046015Y-13736722D01*
X13046015Y-13736722D02*
X13046015Y-13841484D01*
X13436491Y-13631960D02*
X13265063Y-13889103D01*
X13693634Y-13641484D02*
X13712682Y-13641484D01*
X13712682Y-13641484D02*
X13731729Y-13651008D01*
X13731729Y-13651008D02*
X13741253Y-13660531D01*
X13741253Y-13660531D02*
X13750777Y-13679579D01*
X13750777Y-13679579D02*
X13760301Y-13717674D01*
X13760301Y-13717674D02*
X13760301Y-13765293D01*
X13760301Y-13765293D02*
X13750777Y-13803388D01*
X13750777Y-13803388D02*
X13741253Y-13822436D01*
X13741253Y-13822436D02*
X13731729Y-13831960D01*
X13731729Y-13831960D02*
X13712682Y-13841484D01*
X13712682Y-13841484D02*
X13693634Y-13841484D01*
X13693634Y-13841484D02*
X13674586Y-13831960D01*
X13674586Y-13831960D02*
X13665063Y-13822436D01*
X13665063Y-13822436D02*
X13655539Y-13803388D01*
X13655539Y-13803388D02*
X13646015Y-13765293D01*
X13646015Y-13765293D02*
X13646015Y-13717674D01*
X13646015Y-13717674D02*
X13655539Y-13679579D01*
X13655539Y-13679579D02*
X13665063Y-13660531D01*
X13665063Y-13660531D02*
X13674586Y-13651008D01*
X13674586Y-13651008D02*
X13693634Y-13641484D01*
X13846015Y-13822436D02*
X13855539Y-13831960D01*
X13855539Y-13831960D02*
X13846015Y-13841484D01*
X13846015Y-13841484D02*
X13836491Y-13831960D01*
X13836491Y-13831960D02*
X13846015Y-13822436D01*
X13846015Y-13822436D02*
X13846015Y-13841484D01*
X13979348Y-13641484D02*
X13998396Y-13641484D01*
X13998396Y-13641484D02*
X14017444Y-13651008D01*
X14017444Y-13651008D02*
X14026967Y-13660531D01*
X14026967Y-13660531D02*
X14036491Y-13679579D01*
X14036491Y-13679579D02*
X14046015Y-13717674D01*
X14046015Y-13717674D02*
X14046015Y-13765293D01*
X14046015Y-13765293D02*
X14036491Y-13803388D01*
X14036491Y-13803388D02*
X14026967Y-13822436D01*
X14026967Y-13822436D02*
X14017444Y-13831960D01*
X14017444Y-13831960D02*
X13998396Y-13841484D01*
X13998396Y-13841484D02*
X13979348Y-13841484D01*
X13979348Y-13841484D02*
X13960301Y-13831960D01*
X13960301Y-13831960D02*
X13950777Y-13822436D01*
X13950777Y-13822436D02*
X13941253Y-13803388D01*
X13941253Y-13803388D02*
X13931729Y-13765293D01*
X13931729Y-13765293D02*
X13931729Y-13717674D01*
X13931729Y-13717674D02*
X13941253Y-13679579D01*
X13941253Y-13679579D02*
X13950777Y-13660531D01*
X13950777Y-13660531D02*
X13960301Y-13651008D01*
X13960301Y-13651008D02*
X13979348Y-13641484D01*
X14122206Y-13660531D02*
X14131729Y-13651008D01*
X14131729Y-13651008D02*
X14150777Y-13641484D01*
X14150777Y-13641484D02*
X14198396Y-13641484D01*
X14198396Y-13641484D02*
X14217444Y-13651008D01*
X14217444Y-13651008D02*
X14226967Y-13660531D01*
X14226967Y-13660531D02*
X14236491Y-13679579D01*
X14236491Y-13679579D02*
X14236491Y-13698627D01*
X14236491Y-13698627D02*
X14226967Y-13727198D01*
X14226967Y-13727198D02*
X14112682Y-13841484D01*
X14112682Y-13841484D02*
X14236491Y-13841484D01*
X14417444Y-13641484D02*
X14322206Y-13641484D01*
X14322206Y-13641484D02*
X14312682Y-13736722D01*
X14312682Y-13736722D02*
X14322206Y-13727198D01*
X14322206Y-13727198D02*
X14341253Y-13717674D01*
X14341253Y-13717674D02*
X14388872Y-13717674D01*
X14388872Y-13717674D02*
X14407920Y-13727198D01*
X14407920Y-13727198D02*
X14417444Y-13736722D01*
X14417444Y-13736722D02*
X14426967Y-13755769D01*
X14426967Y-13755769D02*
X14426967Y-13803388D01*
X14426967Y-13803388D02*
X14417444Y-13822436D01*
X14417444Y-13822436D02*
X14407920Y-13831960D01*
X14407920Y-13831960D02*
X14388872Y-13841484D01*
X14388872Y-13841484D02*
X14341253Y-13841484D01*
X14341253Y-13841484D02*
X14322206Y-13831960D01*
X14322206Y-13831960D02*
X14312682Y-13822436D01*
X14598396Y-13641484D02*
X14560301Y-13641484D01*
X14560301Y-13641484D02*
X14541253Y-13651008D01*
X14541253Y-13651008D02*
X14531729Y-13660531D01*
X14531729Y-13660531D02*
X14512682Y-13689103D01*
X14512682Y-13689103D02*
X14503158Y-13727198D01*
X14503158Y-13727198D02*
X14503158Y-13803388D01*
X14503158Y-13803388D02*
X14512682Y-13822436D01*
X14512682Y-13822436D02*
X14522206Y-13831960D01*
X14522206Y-13831960D02*
X14541253Y-13841484D01*
X14541253Y-13841484D02*
X14579348Y-13841484D01*
X14579348Y-13841484D02*
X14598396Y-13831960D01*
X14598396Y-13831960D02*
X14607920Y-13822436D01*
X14607920Y-13822436D02*
X14617444Y-13803388D01*
X14617444Y-13803388D02*
X14617444Y-13755769D01*
X14617444Y-13755769D02*
X14607920Y-13736722D01*
X14607920Y-13736722D02*
X14598396Y-13727198D01*
X14598396Y-13727198D02*
X14579348Y-13717674D01*
X14579348Y-13717674D02*
X14541253Y-13717674D01*
X14541253Y-13717674D02*
X14522206Y-13727198D01*
X14522206Y-13727198D02*
X14512682Y-13736722D01*
X14512682Y-13736722D02*
X14503158Y-13755769D01*
X14693634Y-13641484D02*
X14693634Y-13679579D01*
X14769825Y-13641484D02*
X14769825Y-13679579D01*
X15065063Y-13917674D02*
X15055539Y-13908150D01*
X15055539Y-13908150D02*
X15036491Y-13879579D01*
X15036491Y-13879579D02*
X15026968Y-13860531D01*
X15026968Y-13860531D02*
X15017444Y-13831960D01*
X15017444Y-13831960D02*
X15007920Y-13784341D01*
X15007920Y-13784341D02*
X15007920Y-13746246D01*
X15007920Y-13746246D02*
X15017444Y-13698627D01*
X15017444Y-13698627D02*
X15026968Y-13670055D01*
X15026968Y-13670055D02*
X15036491Y-13651008D01*
X15036491Y-13651008D02*
X15055539Y-13622436D01*
X15055539Y-13622436D02*
X15065063Y-13612912D01*
X15131729Y-13660531D02*
X15141253Y-13651008D01*
X15141253Y-13651008D02*
X15160301Y-13641484D01*
X15160301Y-13641484D02*
X15207920Y-13641484D01*
X15207920Y-13641484D02*
X15226968Y-13651008D01*
X15226968Y-13651008D02*
X15236491Y-13660531D01*
X15236491Y-13660531D02*
X15246015Y-13679579D01*
X15246015Y-13679579D02*
X15246015Y-13698627D01*
X15246015Y-13698627D02*
X15236491Y-13727198D01*
X15236491Y-13727198D02*
X15122206Y-13841484D01*
X15122206Y-13841484D02*
X15246015Y-13841484D01*
X15484110Y-13841484D02*
X15484110Y-13641484D01*
X15569825Y-13841484D02*
X15569825Y-13736722D01*
X15569825Y-13736722D02*
X15560301Y-13717674D01*
X15560301Y-13717674D02*
X15541253Y-13708150D01*
X15541253Y-13708150D02*
X15512682Y-13708150D01*
X15512682Y-13708150D02*
X15493634Y-13717674D01*
X15493634Y-13717674D02*
X15484110Y-13727198D01*
X15693634Y-13841484D02*
X15674587Y-13831960D01*
X15674587Y-13831960D02*
X15665063Y-13822436D01*
X15665063Y-13822436D02*
X15655539Y-13803388D01*
X15655539Y-13803388D02*
X15655539Y-13746246D01*
X15655539Y-13746246D02*
X15665063Y-13727198D01*
X15665063Y-13727198D02*
X15674587Y-13717674D01*
X15674587Y-13717674D02*
X15693634Y-13708150D01*
X15693634Y-13708150D02*
X15722206Y-13708150D01*
X15722206Y-13708150D02*
X15741253Y-13717674D01*
X15741253Y-13717674D02*
X15750777Y-13727198D01*
X15750777Y-13727198D02*
X15760301Y-13746246D01*
X15760301Y-13746246D02*
X15760301Y-13803388D01*
X15760301Y-13803388D02*
X15750777Y-13822436D01*
X15750777Y-13822436D02*
X15741253Y-13831960D01*
X15741253Y-13831960D02*
X15722206Y-13841484D01*
X15722206Y-13841484D02*
X15693634Y-13841484D01*
X15874587Y-13841484D02*
X15855539Y-13831960D01*
X15855539Y-13831960D02*
X15846015Y-13812912D01*
X15846015Y-13812912D02*
X15846015Y-13641484D01*
X16026968Y-13831960D02*
X16007920Y-13841484D01*
X16007920Y-13841484D02*
X15969825Y-13841484D01*
X15969825Y-13841484D02*
X15950777Y-13831960D01*
X15950777Y-13831960D02*
X15941253Y-13812912D01*
X15941253Y-13812912D02*
X15941253Y-13736722D01*
X15941253Y-13736722D02*
X15950777Y-13717674D01*
X15950777Y-13717674D02*
X15969825Y-13708150D01*
X15969825Y-13708150D02*
X16007920Y-13708150D01*
X16007920Y-13708150D02*
X16026968Y-13717674D01*
X16026968Y-13717674D02*
X16036491Y-13736722D01*
X16036491Y-13736722D02*
X16036491Y-13755769D01*
X16036491Y-13755769D02*
X15941253Y-13774817D01*
X16112682Y-13831960D02*
X16131730Y-13841484D01*
X16131730Y-13841484D02*
X16169825Y-13841484D01*
X16169825Y-13841484D02*
X16188872Y-13831960D01*
X16188872Y-13831960D02*
X16198396Y-13812912D01*
X16198396Y-13812912D02*
X16198396Y-13803388D01*
X16198396Y-13803388D02*
X16188872Y-13784341D01*
X16188872Y-13784341D02*
X16169825Y-13774817D01*
X16169825Y-13774817D02*
X16141253Y-13774817D01*
X16141253Y-13774817D02*
X16122206Y-13765293D01*
X16122206Y-13765293D02*
X16112682Y-13746246D01*
X16112682Y-13746246D02*
X16112682Y-13736722D01*
X16112682Y-13736722D02*
X16122206Y-13717674D01*
X16122206Y-13717674D02*
X16141253Y-13708150D01*
X16141253Y-13708150D02*
X16169825Y-13708150D01*
X16169825Y-13708150D02*
X16188872Y-13717674D01*
X16265063Y-13917674D02*
X16274587Y-13908150D01*
X16274587Y-13908150D02*
X16293634Y-13879579D01*
X16293634Y-13879579D02*
X16303158Y-13860531D01*
X16303158Y-13860531D02*
X16312682Y-13831960D01*
X16312682Y-13831960D02*
X16322206Y-13784341D01*
X16322206Y-13784341D02*
X16322206Y-13746246D01*
X16322206Y-13746246D02*
X16312682Y-13698627D01*
X16312682Y-13698627D02*
X16303158Y-13670055D01*
X16303158Y-13670055D02*
X16293634Y-13651008D01*
X16293634Y-13651008D02*
X16274587Y-13622436D01*
X16274587Y-13622436D02*
X16265063Y-13612912D01*
X16626968Y-13917674D02*
X16617444Y-13908150D01*
X16617444Y-13908150D02*
X16598396Y-13879579D01*
X16598396Y-13879579D02*
X16588872Y-13860531D01*
X16588872Y-13860531D02*
X16579349Y-13831960D01*
X16579349Y-13831960D02*
X16569825Y-13784341D01*
X16569825Y-13784341D02*
X16569825Y-13746246D01*
X16569825Y-13746246D02*
X16579349Y-13698627D01*
X16579349Y-13698627D02*
X16588872Y-13670055D01*
X16588872Y-13670055D02*
X16598396Y-13651008D01*
X16598396Y-13651008D02*
X16617444Y-13622436D01*
X16617444Y-13622436D02*
X16626968Y-13612912D01*
X16703158Y-13708150D02*
X16703158Y-13841484D01*
X16703158Y-13727198D02*
X16712682Y-13717674D01*
X16712682Y-13717674D02*
X16731730Y-13708150D01*
X16731730Y-13708150D02*
X16760301Y-13708150D01*
X16760301Y-13708150D02*
X16779349Y-13717674D01*
X16779349Y-13717674D02*
X16788873Y-13736722D01*
X16788873Y-13736722D02*
X16788873Y-13841484D01*
X16912682Y-13841484D02*
X16893634Y-13831960D01*
X16893634Y-13831960D02*
X16884111Y-13822436D01*
X16884111Y-13822436D02*
X16874587Y-13803388D01*
X16874587Y-13803388D02*
X16874587Y-13746246D01*
X16874587Y-13746246D02*
X16884111Y-13727198D01*
X16884111Y-13727198D02*
X16893634Y-13717674D01*
X16893634Y-13717674D02*
X16912682Y-13708150D01*
X16912682Y-13708150D02*
X16941254Y-13708150D01*
X16941254Y-13708150D02*
X16960301Y-13717674D01*
X16960301Y-13717674D02*
X16969825Y-13727198D01*
X16969825Y-13727198D02*
X16979349Y-13746246D01*
X16979349Y-13746246D02*
X16979349Y-13803388D01*
X16979349Y-13803388D02*
X16969825Y-13822436D01*
X16969825Y-13822436D02*
X16960301Y-13831960D01*
X16960301Y-13831960D02*
X16941254Y-13841484D01*
X16941254Y-13841484D02*
X16912682Y-13841484D01*
X17036492Y-13708150D02*
X17112682Y-13708150D01*
X17065063Y-13641484D02*
X17065063Y-13812912D01*
X17065063Y-13812912D02*
X17074587Y-13831960D01*
X17074587Y-13831960D02*
X17093634Y-13841484D01*
X17093634Y-13841484D02*
X17112682Y-13841484D01*
X17331730Y-13708150D02*
X17331730Y-13908150D01*
X17331730Y-13717674D02*
X17350777Y-13708150D01*
X17350777Y-13708150D02*
X17388873Y-13708150D01*
X17388873Y-13708150D02*
X17407920Y-13717674D01*
X17407920Y-13717674D02*
X17417444Y-13727198D01*
X17417444Y-13727198D02*
X17426968Y-13746246D01*
X17426968Y-13746246D02*
X17426968Y-13803388D01*
X17426968Y-13803388D02*
X17417444Y-13822436D01*
X17417444Y-13822436D02*
X17407920Y-13831960D01*
X17407920Y-13831960D02*
X17388873Y-13841484D01*
X17388873Y-13841484D02*
X17350777Y-13841484D01*
X17350777Y-13841484D02*
X17331730Y-13831960D01*
X17541254Y-13841484D02*
X17522206Y-13831960D01*
X17522206Y-13831960D02*
X17512682Y-13812912D01*
X17512682Y-13812912D02*
X17512682Y-13641484D01*
X17703158Y-13841484D02*
X17703158Y-13736722D01*
X17703158Y-13736722D02*
X17693635Y-13717674D01*
X17693635Y-13717674D02*
X17674587Y-13708150D01*
X17674587Y-13708150D02*
X17636492Y-13708150D01*
X17636492Y-13708150D02*
X17617444Y-13717674D01*
X17703158Y-13831960D02*
X17684111Y-13841484D01*
X17684111Y-13841484D02*
X17636492Y-13841484D01*
X17636492Y-13841484D02*
X17617444Y-13831960D01*
X17617444Y-13831960D02*
X17607920Y-13812912D01*
X17607920Y-13812912D02*
X17607920Y-13793865D01*
X17607920Y-13793865D02*
X17617444Y-13774817D01*
X17617444Y-13774817D02*
X17636492Y-13765293D01*
X17636492Y-13765293D02*
X17684111Y-13765293D01*
X17684111Y-13765293D02*
X17703158Y-13755769D01*
X17769825Y-13708150D02*
X17846015Y-13708150D01*
X17798396Y-13641484D02*
X17798396Y-13812912D01*
X17798396Y-13812912D02*
X17807920Y-13831960D01*
X17807920Y-13831960D02*
X17826968Y-13841484D01*
X17826968Y-13841484D02*
X17846015Y-13841484D01*
X17988873Y-13831960D02*
X17969825Y-13841484D01*
X17969825Y-13841484D02*
X17931730Y-13841484D01*
X17931730Y-13841484D02*
X17912682Y-13831960D01*
X17912682Y-13831960D02*
X17903158Y-13812912D01*
X17903158Y-13812912D02*
X17903158Y-13736722D01*
X17903158Y-13736722D02*
X17912682Y-13717674D01*
X17912682Y-13717674D02*
X17931730Y-13708150D01*
X17931730Y-13708150D02*
X17969825Y-13708150D01*
X17969825Y-13708150D02*
X17988873Y-13717674D01*
X17988873Y-13717674D02*
X17998396Y-13736722D01*
X17998396Y-13736722D02*
X17998396Y-13755769D01*
X17998396Y-13755769D02*
X17903158Y-13774817D01*
X18169825Y-13841484D02*
X18169825Y-13641484D01*
X18169825Y-13831960D02*
X18150777Y-13841484D01*
X18150777Y-13841484D02*
X18112682Y-13841484D01*
X18112682Y-13841484D02*
X18093635Y-13831960D01*
X18093635Y-13831960D02*
X18084111Y-13822436D01*
X18084111Y-13822436D02*
X18074587Y-13803388D01*
X18074587Y-13803388D02*
X18074587Y-13746246D01*
X18074587Y-13746246D02*
X18084111Y-13727198D01*
X18084111Y-13727198D02*
X18093635Y-13717674D01*
X18093635Y-13717674D02*
X18112682Y-13708150D01*
X18112682Y-13708150D02*
X18150777Y-13708150D01*
X18150777Y-13708150D02*
X18169825Y-13717674D01*
X18246016Y-13917674D02*
X18255539Y-13908150D01*
X18255539Y-13908150D02*
X18274587Y-13879579D01*
X18274587Y-13879579D02*
X18284111Y-13860531D01*
X18284111Y-13860531D02*
X18293635Y-13831960D01*
X18293635Y-13831960D02*
X18303158Y-13784341D01*
X18303158Y-13784341D02*
X18303158Y-13746246D01*
X18303158Y-13746246D02*
X18293635Y-13698627D01*
X18293635Y-13698627D02*
X18284111Y-13670055D01*
X18284111Y-13670055D02*
X18274587Y-13651008D01*
X18274587Y-13651008D02*
X18255539Y-13622436D01*
X18255539Y-13622436D02*
X18246016Y-13612912D01*
D11*
X11490000Y-14014000D02*
G75*
G02*
X11390000Y-14014000I-50000J0D01*
G01*
X11390000Y-14014000D02*
G75*
G02*
X11490000Y-14014000I50000J0D01*
G01*
D10*
X11855539Y-14105484D02*
X11741253Y-14105484D01*
X11798396Y-14105484D02*
X11798396Y-13905484D01*
X11798396Y-13905484D02*
X11779348Y-13934055D01*
X11779348Y-13934055D02*
X11760301Y-13953103D01*
X11760301Y-13953103D02*
X11741253Y-13962627D01*
X11941253Y-14086436D02*
X11950777Y-14095960D01*
X11950777Y-14095960D02*
X11941253Y-14105484D01*
X11941253Y-14105484D02*
X11931729Y-14095960D01*
X11931729Y-14095960D02*
X11941253Y-14086436D01*
X11941253Y-14086436D02*
X11941253Y-14105484D01*
X12074586Y-13905484D02*
X12093634Y-13905484D01*
X12093634Y-13905484D02*
X12112682Y-13915008D01*
X12112682Y-13915008D02*
X12122205Y-13924531D01*
X12122205Y-13924531D02*
X12131729Y-13943579D01*
X12131729Y-13943579D02*
X12141253Y-13981674D01*
X12141253Y-13981674D02*
X12141253Y-14029293D01*
X12141253Y-14029293D02*
X12131729Y-14067388D01*
X12131729Y-14067388D02*
X12122205Y-14086436D01*
X12122205Y-14086436D02*
X12112682Y-14095960D01*
X12112682Y-14095960D02*
X12093634Y-14105484D01*
X12093634Y-14105484D02*
X12074586Y-14105484D01*
X12074586Y-14105484D02*
X12055539Y-14095960D01*
X12055539Y-14095960D02*
X12046015Y-14086436D01*
X12046015Y-14086436D02*
X12036491Y-14067388D01*
X12036491Y-14067388D02*
X12026967Y-14029293D01*
X12026967Y-14029293D02*
X12026967Y-13981674D01*
X12026967Y-13981674D02*
X12036491Y-13943579D01*
X12036491Y-13943579D02*
X12046015Y-13924531D01*
X12046015Y-13924531D02*
X12055539Y-13915008D01*
X12055539Y-13915008D02*
X12074586Y-13905484D01*
X12265062Y-13905484D02*
X12284110Y-13905484D01*
X12284110Y-13905484D02*
X12303158Y-13915008D01*
X12303158Y-13915008D02*
X12312682Y-13924531D01*
X12312682Y-13924531D02*
X12322205Y-13943579D01*
X12322205Y-13943579D02*
X12331729Y-13981674D01*
X12331729Y-13981674D02*
X12331729Y-14029293D01*
X12331729Y-14029293D02*
X12322205Y-14067388D01*
X12322205Y-14067388D02*
X12312682Y-14086436D01*
X12312682Y-14086436D02*
X12303158Y-14095960D01*
X12303158Y-14095960D02*
X12284110Y-14105484D01*
X12284110Y-14105484D02*
X12265062Y-14105484D01*
X12265062Y-14105484D02*
X12246015Y-14095960D01*
X12246015Y-14095960D02*
X12236491Y-14086436D01*
X12236491Y-14086436D02*
X12226967Y-14067388D01*
X12226967Y-14067388D02*
X12217443Y-14029293D01*
X12217443Y-14029293D02*
X12217443Y-13981674D01*
X12217443Y-13981674D02*
X12226967Y-13943579D01*
X12226967Y-13943579D02*
X12236491Y-13924531D01*
X12236491Y-13924531D02*
X12246015Y-13915008D01*
X12246015Y-13915008D02*
X12265062Y-13905484D01*
X12455539Y-13905484D02*
X12474586Y-13905484D01*
X12474586Y-13905484D02*
X12493634Y-13915008D01*
X12493634Y-13915008D02*
X12503158Y-13924531D01*
X12503158Y-13924531D02*
X12512682Y-13943579D01*
X12512682Y-13943579D02*
X12522205Y-13981674D01*
X12522205Y-13981674D02*
X12522205Y-14029293D01*
X12522205Y-14029293D02*
X12512682Y-14067388D01*
X12512682Y-14067388D02*
X12503158Y-14086436D01*
X12503158Y-14086436D02*
X12493634Y-14095960D01*
X12493634Y-14095960D02*
X12474586Y-14105484D01*
X12474586Y-14105484D02*
X12455539Y-14105484D01*
X12455539Y-14105484D02*
X12436491Y-14095960D01*
X12436491Y-14095960D02*
X12426967Y-14086436D01*
X12426967Y-14086436D02*
X12417443Y-14067388D01*
X12417443Y-14067388D02*
X12407920Y-14029293D01*
X12407920Y-14029293D02*
X12407920Y-13981674D01*
X12407920Y-13981674D02*
X12417443Y-13943579D01*
X12417443Y-13943579D02*
X12426967Y-13924531D01*
X12426967Y-13924531D02*
X12436491Y-13915008D01*
X12436491Y-13915008D02*
X12455539Y-13905484D01*
X12607920Y-14105484D02*
X12607920Y-13972150D01*
X12607920Y-13991198D02*
X12617443Y-13981674D01*
X12617443Y-13981674D02*
X12636491Y-13972150D01*
X12636491Y-13972150D02*
X12665063Y-13972150D01*
X12665063Y-13972150D02*
X12684110Y-13981674D01*
X12684110Y-13981674D02*
X12693634Y-14000722D01*
X12693634Y-14000722D02*
X12693634Y-14105484D01*
X12693634Y-14000722D02*
X12703158Y-13981674D01*
X12703158Y-13981674D02*
X12722205Y-13972150D01*
X12722205Y-13972150D02*
X12750777Y-13972150D01*
X12750777Y-13972150D02*
X12769824Y-13981674D01*
X12769824Y-13981674D02*
X12779348Y-14000722D01*
X12779348Y-14000722D02*
X12779348Y-14105484D01*
X12874586Y-14105484D02*
X12874586Y-13972150D01*
X12874586Y-13991198D02*
X12884110Y-13981674D01*
X12884110Y-13981674D02*
X12903158Y-13972150D01*
X12903158Y-13972150D02*
X12931729Y-13972150D01*
X12931729Y-13972150D02*
X12950777Y-13981674D01*
X12950777Y-13981674D02*
X12960301Y-14000722D01*
X12960301Y-14000722D02*
X12960301Y-14105484D01*
X12960301Y-14000722D02*
X12969824Y-13981674D01*
X12969824Y-13981674D02*
X12988872Y-13972150D01*
X12988872Y-13972150D02*
X13017443Y-13972150D01*
X13017443Y-13972150D02*
X13036491Y-13981674D01*
X13036491Y-13981674D02*
X13046015Y-14000722D01*
X13046015Y-14000722D02*
X13046015Y-14105484D01*
X13436491Y-13895960D02*
X13265063Y-14153103D01*
X13693634Y-13905484D02*
X13712682Y-13905484D01*
X13712682Y-13905484D02*
X13731729Y-13915008D01*
X13731729Y-13915008D02*
X13741253Y-13924531D01*
X13741253Y-13924531D02*
X13750777Y-13943579D01*
X13750777Y-13943579D02*
X13760301Y-13981674D01*
X13760301Y-13981674D02*
X13760301Y-14029293D01*
X13760301Y-14029293D02*
X13750777Y-14067388D01*
X13750777Y-14067388D02*
X13741253Y-14086436D01*
X13741253Y-14086436D02*
X13731729Y-14095960D01*
X13731729Y-14095960D02*
X13712682Y-14105484D01*
X13712682Y-14105484D02*
X13693634Y-14105484D01*
X13693634Y-14105484D02*
X13674586Y-14095960D01*
X13674586Y-14095960D02*
X13665063Y-14086436D01*
X13665063Y-14086436D02*
X13655539Y-14067388D01*
X13655539Y-14067388D02*
X13646015Y-14029293D01*
X13646015Y-14029293D02*
X13646015Y-13981674D01*
X13646015Y-13981674D02*
X13655539Y-13943579D01*
X13655539Y-13943579D02*
X13665063Y-13924531D01*
X13665063Y-13924531D02*
X13674586Y-13915008D01*
X13674586Y-13915008D02*
X13693634Y-13905484D01*
X13846015Y-14086436D02*
X13855539Y-14095960D01*
X13855539Y-14095960D02*
X13846015Y-14105484D01*
X13846015Y-14105484D02*
X13836491Y-14095960D01*
X13836491Y-14095960D02*
X13846015Y-14086436D01*
X13846015Y-14086436D02*
X13846015Y-14105484D01*
X13979348Y-13905484D02*
X13998396Y-13905484D01*
X13998396Y-13905484D02*
X14017444Y-13915008D01*
X14017444Y-13915008D02*
X14026967Y-13924531D01*
X14026967Y-13924531D02*
X14036491Y-13943579D01*
X14036491Y-13943579D02*
X14046015Y-13981674D01*
X14046015Y-13981674D02*
X14046015Y-14029293D01*
X14046015Y-14029293D02*
X14036491Y-14067388D01*
X14036491Y-14067388D02*
X14026967Y-14086436D01*
X14026967Y-14086436D02*
X14017444Y-14095960D01*
X14017444Y-14095960D02*
X13998396Y-14105484D01*
X13998396Y-14105484D02*
X13979348Y-14105484D01*
X13979348Y-14105484D02*
X13960301Y-14095960D01*
X13960301Y-14095960D02*
X13950777Y-14086436D01*
X13950777Y-14086436D02*
X13941253Y-14067388D01*
X13941253Y-14067388D02*
X13931729Y-14029293D01*
X13931729Y-14029293D02*
X13931729Y-13981674D01*
X13931729Y-13981674D02*
X13941253Y-13943579D01*
X13941253Y-13943579D02*
X13950777Y-13924531D01*
X13950777Y-13924531D02*
X13960301Y-13915008D01*
X13960301Y-13915008D02*
X13979348Y-13905484D01*
X14112682Y-13905484D02*
X14236491Y-13905484D01*
X14236491Y-13905484D02*
X14169825Y-13981674D01*
X14169825Y-13981674D02*
X14198396Y-13981674D01*
X14198396Y-13981674D02*
X14217444Y-13991198D01*
X14217444Y-13991198D02*
X14226967Y-14000722D01*
X14226967Y-14000722D02*
X14236491Y-14019769D01*
X14236491Y-14019769D02*
X14236491Y-14067388D01*
X14236491Y-14067388D02*
X14226967Y-14086436D01*
X14226967Y-14086436D02*
X14217444Y-14095960D01*
X14217444Y-14095960D02*
X14198396Y-14105484D01*
X14198396Y-14105484D02*
X14141253Y-14105484D01*
X14141253Y-14105484D02*
X14122206Y-14095960D01*
X14122206Y-14095960D02*
X14112682Y-14086436D01*
X14331729Y-14105484D02*
X14369825Y-14105484D01*
X14369825Y-14105484D02*
X14388872Y-14095960D01*
X14388872Y-14095960D02*
X14398396Y-14086436D01*
X14398396Y-14086436D02*
X14417444Y-14057865D01*
X14417444Y-14057865D02*
X14426967Y-14019769D01*
X14426967Y-14019769D02*
X14426967Y-13943579D01*
X14426967Y-13943579D02*
X14417444Y-13924531D01*
X14417444Y-13924531D02*
X14407920Y-13915008D01*
X14407920Y-13915008D02*
X14388872Y-13905484D01*
X14388872Y-13905484D02*
X14350777Y-13905484D01*
X14350777Y-13905484D02*
X14331729Y-13915008D01*
X14331729Y-13915008D02*
X14322206Y-13924531D01*
X14322206Y-13924531D02*
X14312682Y-13943579D01*
X14312682Y-13943579D02*
X14312682Y-13991198D01*
X14312682Y-13991198D02*
X14322206Y-14010246D01*
X14322206Y-14010246D02*
X14331729Y-14019769D01*
X14331729Y-14019769D02*
X14350777Y-14029293D01*
X14350777Y-14029293D02*
X14388872Y-14029293D01*
X14388872Y-14029293D02*
X14407920Y-14019769D01*
X14407920Y-14019769D02*
X14417444Y-14010246D01*
X14417444Y-14010246D02*
X14426967Y-13991198D01*
X14598396Y-13972150D02*
X14598396Y-14105484D01*
X14550777Y-13895960D02*
X14503158Y-14038817D01*
X14503158Y-14038817D02*
X14626967Y-14038817D01*
X14693634Y-13905484D02*
X14693634Y-13943579D01*
X14769825Y-13905484D02*
X14769825Y-13943579D01*
X15065063Y-14181674D02*
X15055539Y-14172150D01*
X15055539Y-14172150D02*
X15036491Y-14143579D01*
X15036491Y-14143579D02*
X15026968Y-14124531D01*
X15026968Y-14124531D02*
X15017444Y-14095960D01*
X15017444Y-14095960D02*
X15007920Y-14048341D01*
X15007920Y-14048341D02*
X15007920Y-14010246D01*
X15007920Y-14010246D02*
X15017444Y-13962627D01*
X15017444Y-13962627D02*
X15026968Y-13934055D01*
X15026968Y-13934055D02*
X15036491Y-13915008D01*
X15036491Y-13915008D02*
X15055539Y-13886436D01*
X15055539Y-13886436D02*
X15065063Y-13876912D01*
X15169825Y-13991198D02*
X15150777Y-13981674D01*
X15150777Y-13981674D02*
X15141253Y-13972150D01*
X15141253Y-13972150D02*
X15131729Y-13953103D01*
X15131729Y-13953103D02*
X15131729Y-13943579D01*
X15131729Y-13943579D02*
X15141253Y-13924531D01*
X15141253Y-13924531D02*
X15150777Y-13915008D01*
X15150777Y-13915008D02*
X15169825Y-13905484D01*
X15169825Y-13905484D02*
X15207920Y-13905484D01*
X15207920Y-13905484D02*
X15226968Y-13915008D01*
X15226968Y-13915008D02*
X15236491Y-13924531D01*
X15236491Y-13924531D02*
X15246015Y-13943579D01*
X15246015Y-13943579D02*
X15246015Y-13953103D01*
X15246015Y-13953103D02*
X15236491Y-13972150D01*
X15236491Y-13972150D02*
X15226968Y-13981674D01*
X15226968Y-13981674D02*
X15207920Y-13991198D01*
X15207920Y-13991198D02*
X15169825Y-13991198D01*
X15169825Y-13991198D02*
X15150777Y-14000722D01*
X15150777Y-14000722D02*
X15141253Y-14010246D01*
X15141253Y-14010246D02*
X15131729Y-14029293D01*
X15131729Y-14029293D02*
X15131729Y-14067388D01*
X15131729Y-14067388D02*
X15141253Y-14086436D01*
X15141253Y-14086436D02*
X15150777Y-14095960D01*
X15150777Y-14095960D02*
X15169825Y-14105484D01*
X15169825Y-14105484D02*
X15207920Y-14105484D01*
X15207920Y-14105484D02*
X15226968Y-14095960D01*
X15226968Y-14095960D02*
X15236491Y-14086436D01*
X15236491Y-14086436D02*
X15246015Y-14067388D01*
X15246015Y-14067388D02*
X15246015Y-14029293D01*
X15246015Y-14029293D02*
X15236491Y-14010246D01*
X15236491Y-14010246D02*
X15226968Y-14000722D01*
X15226968Y-14000722D02*
X15207920Y-13991198D01*
X15484110Y-14105484D02*
X15484110Y-13905484D01*
X15569825Y-14105484D02*
X15569825Y-14000722D01*
X15569825Y-14000722D02*
X15560301Y-13981674D01*
X15560301Y-13981674D02*
X15541253Y-13972150D01*
X15541253Y-13972150D02*
X15512682Y-13972150D01*
X15512682Y-13972150D02*
X15493634Y-13981674D01*
X15493634Y-13981674D02*
X15484110Y-13991198D01*
X15693634Y-14105484D02*
X15674587Y-14095960D01*
X15674587Y-14095960D02*
X15665063Y-14086436D01*
X15665063Y-14086436D02*
X15655539Y-14067388D01*
X15655539Y-14067388D02*
X15655539Y-14010246D01*
X15655539Y-14010246D02*
X15665063Y-13991198D01*
X15665063Y-13991198D02*
X15674587Y-13981674D01*
X15674587Y-13981674D02*
X15693634Y-13972150D01*
X15693634Y-13972150D02*
X15722206Y-13972150D01*
X15722206Y-13972150D02*
X15741253Y-13981674D01*
X15741253Y-13981674D02*
X15750777Y-13991198D01*
X15750777Y-13991198D02*
X15760301Y-14010246D01*
X15760301Y-14010246D02*
X15760301Y-14067388D01*
X15760301Y-14067388D02*
X15750777Y-14086436D01*
X15750777Y-14086436D02*
X15741253Y-14095960D01*
X15741253Y-14095960D02*
X15722206Y-14105484D01*
X15722206Y-14105484D02*
X15693634Y-14105484D01*
X15874587Y-14105484D02*
X15855539Y-14095960D01*
X15855539Y-14095960D02*
X15846015Y-14076912D01*
X15846015Y-14076912D02*
X15846015Y-13905484D01*
X16026968Y-14095960D02*
X16007920Y-14105484D01*
X16007920Y-14105484D02*
X15969825Y-14105484D01*
X15969825Y-14105484D02*
X15950777Y-14095960D01*
X15950777Y-14095960D02*
X15941253Y-14076912D01*
X15941253Y-14076912D02*
X15941253Y-14000722D01*
X15941253Y-14000722D02*
X15950777Y-13981674D01*
X15950777Y-13981674D02*
X15969825Y-13972150D01*
X15969825Y-13972150D02*
X16007920Y-13972150D01*
X16007920Y-13972150D02*
X16026968Y-13981674D01*
X16026968Y-13981674D02*
X16036491Y-14000722D01*
X16036491Y-14000722D02*
X16036491Y-14019769D01*
X16036491Y-14019769D02*
X15941253Y-14038817D01*
X16112682Y-14095960D02*
X16131730Y-14105484D01*
X16131730Y-14105484D02*
X16169825Y-14105484D01*
X16169825Y-14105484D02*
X16188872Y-14095960D01*
X16188872Y-14095960D02*
X16198396Y-14076912D01*
X16198396Y-14076912D02*
X16198396Y-14067388D01*
X16198396Y-14067388D02*
X16188872Y-14048341D01*
X16188872Y-14048341D02*
X16169825Y-14038817D01*
X16169825Y-14038817D02*
X16141253Y-14038817D01*
X16141253Y-14038817D02*
X16122206Y-14029293D01*
X16122206Y-14029293D02*
X16112682Y-14010246D01*
X16112682Y-14010246D02*
X16112682Y-14000722D01*
X16112682Y-14000722D02*
X16122206Y-13981674D01*
X16122206Y-13981674D02*
X16141253Y-13972150D01*
X16141253Y-13972150D02*
X16169825Y-13972150D01*
X16169825Y-13972150D02*
X16188872Y-13981674D01*
X16265063Y-14181674D02*
X16274587Y-14172150D01*
X16274587Y-14172150D02*
X16293634Y-14143579D01*
X16293634Y-14143579D02*
X16303158Y-14124531D01*
X16303158Y-14124531D02*
X16312682Y-14095960D01*
X16312682Y-14095960D02*
X16322206Y-14048341D01*
X16322206Y-14048341D02*
X16322206Y-14010246D01*
X16322206Y-14010246D02*
X16312682Y-13962627D01*
X16312682Y-13962627D02*
X16303158Y-13934055D01*
X16303158Y-13934055D02*
X16293634Y-13915008D01*
X16293634Y-13915008D02*
X16274587Y-13886436D01*
X16274587Y-13886436D02*
X16265063Y-13876912D01*
X16626968Y-14181674D02*
X16617444Y-14172150D01*
X16617444Y-14172150D02*
X16598396Y-14143579D01*
X16598396Y-14143579D02*
X16588872Y-14124531D01*
X16588872Y-14124531D02*
X16579349Y-14095960D01*
X16579349Y-14095960D02*
X16569825Y-14048341D01*
X16569825Y-14048341D02*
X16569825Y-14010246D01*
X16569825Y-14010246D02*
X16579349Y-13962627D01*
X16579349Y-13962627D02*
X16588872Y-13934055D01*
X16588872Y-13934055D02*
X16598396Y-13915008D01*
X16598396Y-13915008D02*
X16617444Y-13886436D01*
X16617444Y-13886436D02*
X16626968Y-13876912D01*
X16703158Y-13972150D02*
X16703158Y-14105484D01*
X16703158Y-13991198D02*
X16712682Y-13981674D01*
X16712682Y-13981674D02*
X16731730Y-13972150D01*
X16731730Y-13972150D02*
X16760301Y-13972150D01*
X16760301Y-13972150D02*
X16779349Y-13981674D01*
X16779349Y-13981674D02*
X16788873Y-14000722D01*
X16788873Y-14000722D02*
X16788873Y-14105484D01*
X16912682Y-14105484D02*
X16893634Y-14095960D01*
X16893634Y-14095960D02*
X16884111Y-14086436D01*
X16884111Y-14086436D02*
X16874587Y-14067388D01*
X16874587Y-14067388D02*
X16874587Y-14010246D01*
X16874587Y-14010246D02*
X16884111Y-13991198D01*
X16884111Y-13991198D02*
X16893634Y-13981674D01*
X16893634Y-13981674D02*
X16912682Y-13972150D01*
X16912682Y-13972150D02*
X16941254Y-13972150D01*
X16941254Y-13972150D02*
X16960301Y-13981674D01*
X16960301Y-13981674D02*
X16969825Y-13991198D01*
X16969825Y-13991198D02*
X16979349Y-14010246D01*
X16979349Y-14010246D02*
X16979349Y-14067388D01*
X16979349Y-14067388D02*
X16969825Y-14086436D01*
X16969825Y-14086436D02*
X16960301Y-14095960D01*
X16960301Y-14095960D02*
X16941254Y-14105484D01*
X16941254Y-14105484D02*
X16912682Y-14105484D01*
X17036492Y-13972150D02*
X17112682Y-13972150D01*
X17065063Y-13905484D02*
X17065063Y-14076912D01*
X17065063Y-14076912D02*
X17074587Y-14095960D01*
X17074587Y-14095960D02*
X17093634Y-14105484D01*
X17093634Y-14105484D02*
X17112682Y-14105484D01*
X17331730Y-13972150D02*
X17331730Y-14172150D01*
X17331730Y-13981674D02*
X17350777Y-13972150D01*
X17350777Y-13972150D02*
X17388873Y-13972150D01*
X17388873Y-13972150D02*
X17407920Y-13981674D01*
X17407920Y-13981674D02*
X17417444Y-13991198D01*
X17417444Y-13991198D02*
X17426968Y-14010246D01*
X17426968Y-14010246D02*
X17426968Y-14067388D01*
X17426968Y-14067388D02*
X17417444Y-14086436D01*
X17417444Y-14086436D02*
X17407920Y-14095960D01*
X17407920Y-14095960D02*
X17388873Y-14105484D01*
X17388873Y-14105484D02*
X17350777Y-14105484D01*
X17350777Y-14105484D02*
X17331730Y-14095960D01*
X17541254Y-14105484D02*
X17522206Y-14095960D01*
X17522206Y-14095960D02*
X17512682Y-14076912D01*
X17512682Y-14076912D02*
X17512682Y-13905484D01*
X17703158Y-14105484D02*
X17703158Y-14000722D01*
X17703158Y-14000722D02*
X17693635Y-13981674D01*
X17693635Y-13981674D02*
X17674587Y-13972150D01*
X17674587Y-13972150D02*
X17636492Y-13972150D01*
X17636492Y-13972150D02*
X17617444Y-13981674D01*
X17703158Y-14095960D02*
X17684111Y-14105484D01*
X17684111Y-14105484D02*
X17636492Y-14105484D01*
X17636492Y-14105484D02*
X17617444Y-14095960D01*
X17617444Y-14095960D02*
X17607920Y-14076912D01*
X17607920Y-14076912D02*
X17607920Y-14057865D01*
X17607920Y-14057865D02*
X17617444Y-14038817D01*
X17617444Y-14038817D02*
X17636492Y-14029293D01*
X17636492Y-14029293D02*
X17684111Y-14029293D01*
X17684111Y-14029293D02*
X17703158Y-14019769D01*
X17769825Y-13972150D02*
X17846015Y-13972150D01*
X17798396Y-13905484D02*
X17798396Y-14076912D01*
X17798396Y-14076912D02*
X17807920Y-14095960D01*
X17807920Y-14095960D02*
X17826968Y-14105484D01*
X17826968Y-14105484D02*
X17846015Y-14105484D01*
X17988873Y-14095960D02*
X17969825Y-14105484D01*
X17969825Y-14105484D02*
X17931730Y-14105484D01*
X17931730Y-14105484D02*
X17912682Y-14095960D01*
X17912682Y-14095960D02*
X17903158Y-14076912D01*
X17903158Y-14076912D02*
X17903158Y-14000722D01*
X17903158Y-14000722D02*
X17912682Y-13981674D01*
X17912682Y-13981674D02*
X17931730Y-13972150D01*
X17931730Y-13972150D02*
X17969825Y-13972150D01*
X17969825Y-13972150D02*
X17988873Y-13981674D01*
X17988873Y-13981674D02*
X17998396Y-14000722D01*
X17998396Y-14000722D02*
X17998396Y-14019769D01*
X17998396Y-14019769D02*
X17903158Y-14038817D01*
X18169825Y-14105484D02*
X18169825Y-13905484D01*
X18169825Y-14095960D02*
X18150777Y-14105484D01*
X18150777Y-14105484D02*
X18112682Y-14105484D01*
X18112682Y-14105484D02*
X18093635Y-14095960D01*
X18093635Y-14095960D02*
X18084111Y-14086436D01*
X18084111Y-14086436D02*
X18074587Y-14067388D01*
X18074587Y-14067388D02*
X18074587Y-14010246D01*
X18074587Y-14010246D02*
X18084111Y-13991198D01*
X18084111Y-13991198D02*
X18093635Y-13981674D01*
X18093635Y-13981674D02*
X18112682Y-13972150D01*
X18112682Y-13972150D02*
X18150777Y-13972150D01*
X18150777Y-13972150D02*
X18169825Y-13981674D01*
X18246016Y-14181674D02*
X18255539Y-14172150D01*
X18255539Y-14172150D02*
X18274587Y-14143579D01*
X18274587Y-14143579D02*
X18284111Y-14124531D01*
X18284111Y-14124531D02*
X18293635Y-14095960D01*
X18293635Y-14095960D02*
X18303158Y-14048341D01*
X18303158Y-14048341D02*
X18303158Y-14010246D01*
X18303158Y-14010246D02*
X18293635Y-13962627D01*
X18293635Y-13962627D02*
X18284111Y-13934055D01*
X18284111Y-13934055D02*
X18274587Y-13915008D01*
X18274587Y-13915008D02*
X18255539Y-13886436D01*
X18255539Y-13886436D02*
X18246016Y-13876912D01*
X11390000Y-14178000D02*
X11390000Y-14378000D01*
X11290000Y-14278000D02*
X11490000Y-14278000D01*
X11741253Y-14188531D02*
X11750777Y-14179008D01*
X11750777Y-14179008D02*
X11769824Y-14169484D01*
X11769824Y-14169484D02*
X11817443Y-14169484D01*
X11817443Y-14169484D02*
X11836491Y-14179008D01*
X11836491Y-14179008D02*
X11846015Y-14188531D01*
X11846015Y-14188531D02*
X11855539Y-14207579D01*
X11855539Y-14207579D02*
X11855539Y-14226627D01*
X11855539Y-14226627D02*
X11846015Y-14255198D01*
X11846015Y-14255198D02*
X11731729Y-14369484D01*
X11731729Y-14369484D02*
X11855539Y-14369484D01*
X11941253Y-14350436D02*
X11950777Y-14359960D01*
X11950777Y-14359960D02*
X11941253Y-14369484D01*
X11941253Y-14369484D02*
X11931729Y-14359960D01*
X11931729Y-14359960D02*
X11941253Y-14350436D01*
X11941253Y-14350436D02*
X11941253Y-14369484D01*
X12046015Y-14369484D02*
X12084110Y-14369484D01*
X12084110Y-14369484D02*
X12103158Y-14359960D01*
X12103158Y-14359960D02*
X12112682Y-14350436D01*
X12112682Y-14350436D02*
X12131729Y-14321865D01*
X12131729Y-14321865D02*
X12141253Y-14283769D01*
X12141253Y-14283769D02*
X12141253Y-14207579D01*
X12141253Y-14207579D02*
X12131729Y-14188531D01*
X12131729Y-14188531D02*
X12122205Y-14179008D01*
X12122205Y-14179008D02*
X12103158Y-14169484D01*
X12103158Y-14169484D02*
X12065062Y-14169484D01*
X12065062Y-14169484D02*
X12046015Y-14179008D01*
X12046015Y-14179008D02*
X12036491Y-14188531D01*
X12036491Y-14188531D02*
X12026967Y-14207579D01*
X12026967Y-14207579D02*
X12026967Y-14255198D01*
X12026967Y-14255198D02*
X12036491Y-14274246D01*
X12036491Y-14274246D02*
X12046015Y-14283769D01*
X12046015Y-14283769D02*
X12065062Y-14293293D01*
X12065062Y-14293293D02*
X12103158Y-14293293D01*
X12103158Y-14293293D02*
X12122205Y-14283769D01*
X12122205Y-14283769D02*
X12131729Y-14274246D01*
X12131729Y-14274246D02*
X12141253Y-14255198D01*
X12265062Y-14169484D02*
X12284110Y-14169484D01*
X12284110Y-14169484D02*
X12303158Y-14179008D01*
X12303158Y-14179008D02*
X12312682Y-14188531D01*
X12312682Y-14188531D02*
X12322205Y-14207579D01*
X12322205Y-14207579D02*
X12331729Y-14245674D01*
X12331729Y-14245674D02*
X12331729Y-14293293D01*
X12331729Y-14293293D02*
X12322205Y-14331388D01*
X12322205Y-14331388D02*
X12312682Y-14350436D01*
X12312682Y-14350436D02*
X12303158Y-14359960D01*
X12303158Y-14359960D02*
X12284110Y-14369484D01*
X12284110Y-14369484D02*
X12265062Y-14369484D01*
X12265062Y-14369484D02*
X12246015Y-14359960D01*
X12246015Y-14359960D02*
X12236491Y-14350436D01*
X12236491Y-14350436D02*
X12226967Y-14331388D01*
X12226967Y-14331388D02*
X12217443Y-14293293D01*
X12217443Y-14293293D02*
X12217443Y-14245674D01*
X12217443Y-14245674D02*
X12226967Y-14207579D01*
X12226967Y-14207579D02*
X12236491Y-14188531D01*
X12236491Y-14188531D02*
X12246015Y-14179008D01*
X12246015Y-14179008D02*
X12265062Y-14169484D01*
X12455539Y-14169484D02*
X12474586Y-14169484D01*
X12474586Y-14169484D02*
X12493634Y-14179008D01*
X12493634Y-14179008D02*
X12503158Y-14188531D01*
X12503158Y-14188531D02*
X12512682Y-14207579D01*
X12512682Y-14207579D02*
X12522205Y-14245674D01*
X12522205Y-14245674D02*
X12522205Y-14293293D01*
X12522205Y-14293293D02*
X12512682Y-14331388D01*
X12512682Y-14331388D02*
X12503158Y-14350436D01*
X12503158Y-14350436D02*
X12493634Y-14359960D01*
X12493634Y-14359960D02*
X12474586Y-14369484D01*
X12474586Y-14369484D02*
X12455539Y-14369484D01*
X12455539Y-14369484D02*
X12436491Y-14359960D01*
X12436491Y-14359960D02*
X12426967Y-14350436D01*
X12426967Y-14350436D02*
X12417443Y-14331388D01*
X12417443Y-14331388D02*
X12407920Y-14293293D01*
X12407920Y-14293293D02*
X12407920Y-14245674D01*
X12407920Y-14245674D02*
X12417443Y-14207579D01*
X12417443Y-14207579D02*
X12426967Y-14188531D01*
X12426967Y-14188531D02*
X12436491Y-14179008D01*
X12436491Y-14179008D02*
X12455539Y-14169484D01*
X12607920Y-14369484D02*
X12607920Y-14236150D01*
X12607920Y-14255198D02*
X12617443Y-14245674D01*
X12617443Y-14245674D02*
X12636491Y-14236150D01*
X12636491Y-14236150D02*
X12665063Y-14236150D01*
X12665063Y-14236150D02*
X12684110Y-14245674D01*
X12684110Y-14245674D02*
X12693634Y-14264722D01*
X12693634Y-14264722D02*
X12693634Y-14369484D01*
X12693634Y-14264722D02*
X12703158Y-14245674D01*
X12703158Y-14245674D02*
X12722205Y-14236150D01*
X12722205Y-14236150D02*
X12750777Y-14236150D01*
X12750777Y-14236150D02*
X12769824Y-14245674D01*
X12769824Y-14245674D02*
X12779348Y-14264722D01*
X12779348Y-14264722D02*
X12779348Y-14369484D01*
X12874586Y-14369484D02*
X12874586Y-14236150D01*
X12874586Y-14255198D02*
X12884110Y-14245674D01*
X12884110Y-14245674D02*
X12903158Y-14236150D01*
X12903158Y-14236150D02*
X12931729Y-14236150D01*
X12931729Y-14236150D02*
X12950777Y-14245674D01*
X12950777Y-14245674D02*
X12960301Y-14264722D01*
X12960301Y-14264722D02*
X12960301Y-14369484D01*
X12960301Y-14264722D02*
X12969824Y-14245674D01*
X12969824Y-14245674D02*
X12988872Y-14236150D01*
X12988872Y-14236150D02*
X13017443Y-14236150D01*
X13017443Y-14236150D02*
X13036491Y-14245674D01*
X13036491Y-14245674D02*
X13046015Y-14264722D01*
X13046015Y-14264722D02*
X13046015Y-14369484D01*
X13436491Y-14159960D02*
X13265063Y-14417103D01*
X13693634Y-14169484D02*
X13712682Y-14169484D01*
X13712682Y-14169484D02*
X13731729Y-14179008D01*
X13731729Y-14179008D02*
X13741253Y-14188531D01*
X13741253Y-14188531D02*
X13750777Y-14207579D01*
X13750777Y-14207579D02*
X13760301Y-14245674D01*
X13760301Y-14245674D02*
X13760301Y-14293293D01*
X13760301Y-14293293D02*
X13750777Y-14331388D01*
X13750777Y-14331388D02*
X13741253Y-14350436D01*
X13741253Y-14350436D02*
X13731729Y-14359960D01*
X13731729Y-14359960D02*
X13712682Y-14369484D01*
X13712682Y-14369484D02*
X13693634Y-14369484D01*
X13693634Y-14369484D02*
X13674586Y-14359960D01*
X13674586Y-14359960D02*
X13665063Y-14350436D01*
X13665063Y-14350436D02*
X13655539Y-14331388D01*
X13655539Y-14331388D02*
X13646015Y-14293293D01*
X13646015Y-14293293D02*
X13646015Y-14245674D01*
X13646015Y-14245674D02*
X13655539Y-14207579D01*
X13655539Y-14207579D02*
X13665063Y-14188531D01*
X13665063Y-14188531D02*
X13674586Y-14179008D01*
X13674586Y-14179008D02*
X13693634Y-14169484D01*
X13846015Y-14350436D02*
X13855539Y-14359960D01*
X13855539Y-14359960D02*
X13846015Y-14369484D01*
X13846015Y-14369484D02*
X13836491Y-14359960D01*
X13836491Y-14359960D02*
X13846015Y-14350436D01*
X13846015Y-14350436D02*
X13846015Y-14369484D01*
X14046015Y-14369484D02*
X13931729Y-14369484D01*
X13988872Y-14369484D02*
X13988872Y-14169484D01*
X13988872Y-14169484D02*
X13969825Y-14198055D01*
X13969825Y-14198055D02*
X13950777Y-14217103D01*
X13950777Y-14217103D02*
X13931729Y-14226627D01*
X14236491Y-14369484D02*
X14122206Y-14369484D01*
X14179348Y-14369484D02*
X14179348Y-14169484D01*
X14179348Y-14169484D02*
X14160301Y-14198055D01*
X14160301Y-14198055D02*
X14141253Y-14217103D01*
X14141253Y-14217103D02*
X14122206Y-14226627D01*
X14407920Y-14236150D02*
X14407920Y-14369484D01*
X14360301Y-14159960D02*
X14312682Y-14302817D01*
X14312682Y-14302817D02*
X14436491Y-14302817D01*
X14503158Y-14188531D02*
X14512682Y-14179008D01*
X14512682Y-14179008D02*
X14531729Y-14169484D01*
X14531729Y-14169484D02*
X14579348Y-14169484D01*
X14579348Y-14169484D02*
X14598396Y-14179008D01*
X14598396Y-14179008D02*
X14607920Y-14188531D01*
X14607920Y-14188531D02*
X14617444Y-14207579D01*
X14617444Y-14207579D02*
X14617444Y-14226627D01*
X14617444Y-14226627D02*
X14607920Y-14255198D01*
X14607920Y-14255198D02*
X14493634Y-14369484D01*
X14493634Y-14369484D02*
X14617444Y-14369484D01*
X14693634Y-14169484D02*
X14693634Y-14207579D01*
X14769825Y-14169484D02*
X14769825Y-14207579D01*
X15065063Y-14445674D02*
X15055539Y-14436150D01*
X15055539Y-14436150D02*
X15036491Y-14407579D01*
X15036491Y-14407579D02*
X15026968Y-14388531D01*
X15026968Y-14388531D02*
X15017444Y-14359960D01*
X15017444Y-14359960D02*
X15007920Y-14312341D01*
X15007920Y-14312341D02*
X15007920Y-14274246D01*
X15007920Y-14274246D02*
X15017444Y-14226627D01*
X15017444Y-14226627D02*
X15026968Y-14198055D01*
X15026968Y-14198055D02*
X15036491Y-14179008D01*
X15036491Y-14179008D02*
X15055539Y-14150436D01*
X15055539Y-14150436D02*
X15065063Y-14140912D01*
X15179348Y-14169484D02*
X15198396Y-14169484D01*
X15198396Y-14169484D02*
X15217444Y-14179008D01*
X15217444Y-14179008D02*
X15226968Y-14188531D01*
X15226968Y-14188531D02*
X15236491Y-14207579D01*
X15236491Y-14207579D02*
X15246015Y-14245674D01*
X15246015Y-14245674D02*
X15246015Y-14293293D01*
X15246015Y-14293293D02*
X15236491Y-14331388D01*
X15236491Y-14331388D02*
X15226968Y-14350436D01*
X15226968Y-14350436D02*
X15217444Y-14359960D01*
X15217444Y-14359960D02*
X15198396Y-14369484D01*
X15198396Y-14369484D02*
X15179348Y-14369484D01*
X15179348Y-14369484D02*
X15160301Y-14359960D01*
X15160301Y-14359960D02*
X15150777Y-14350436D01*
X15150777Y-14350436D02*
X15141253Y-14331388D01*
X15141253Y-14331388D02*
X15131729Y-14293293D01*
X15131729Y-14293293D02*
X15131729Y-14245674D01*
X15131729Y-14245674D02*
X15141253Y-14207579D01*
X15141253Y-14207579D02*
X15150777Y-14188531D01*
X15150777Y-14188531D02*
X15160301Y-14179008D01*
X15160301Y-14179008D02*
X15179348Y-14169484D01*
X15484110Y-14369484D02*
X15484110Y-14169484D01*
X15569825Y-14369484D02*
X15569825Y-14264722D01*
X15569825Y-14264722D02*
X15560301Y-14245674D01*
X15560301Y-14245674D02*
X15541253Y-14236150D01*
X15541253Y-14236150D02*
X15512682Y-14236150D01*
X15512682Y-14236150D02*
X15493634Y-14245674D01*
X15493634Y-14245674D02*
X15484110Y-14255198D01*
X15693634Y-14369484D02*
X15674587Y-14359960D01*
X15674587Y-14359960D02*
X15665063Y-14350436D01*
X15665063Y-14350436D02*
X15655539Y-14331388D01*
X15655539Y-14331388D02*
X15655539Y-14274246D01*
X15655539Y-14274246D02*
X15665063Y-14255198D01*
X15665063Y-14255198D02*
X15674587Y-14245674D01*
X15674587Y-14245674D02*
X15693634Y-14236150D01*
X15693634Y-14236150D02*
X15722206Y-14236150D01*
X15722206Y-14236150D02*
X15741253Y-14245674D01*
X15741253Y-14245674D02*
X15750777Y-14255198D01*
X15750777Y-14255198D02*
X15760301Y-14274246D01*
X15760301Y-14274246D02*
X15760301Y-14331388D01*
X15760301Y-14331388D02*
X15750777Y-14350436D01*
X15750777Y-14350436D02*
X15741253Y-14359960D01*
X15741253Y-14359960D02*
X15722206Y-14369484D01*
X15722206Y-14369484D02*
X15693634Y-14369484D01*
X15874587Y-14369484D02*
X15855539Y-14359960D01*
X15855539Y-14359960D02*
X15846015Y-14340912D01*
X15846015Y-14340912D02*
X15846015Y-14169484D01*
X16026968Y-14359960D02*
X16007920Y-14369484D01*
X16007920Y-14369484D02*
X15969825Y-14369484D01*
X15969825Y-14369484D02*
X15950777Y-14359960D01*
X15950777Y-14359960D02*
X15941253Y-14340912D01*
X15941253Y-14340912D02*
X15941253Y-14264722D01*
X15941253Y-14264722D02*
X15950777Y-14245674D01*
X15950777Y-14245674D02*
X15969825Y-14236150D01*
X15969825Y-14236150D02*
X16007920Y-14236150D01*
X16007920Y-14236150D02*
X16026968Y-14245674D01*
X16026968Y-14245674D02*
X16036491Y-14264722D01*
X16036491Y-14264722D02*
X16036491Y-14283769D01*
X16036491Y-14283769D02*
X15941253Y-14302817D01*
X16112682Y-14359960D02*
X16131730Y-14369484D01*
X16131730Y-14369484D02*
X16169825Y-14369484D01*
X16169825Y-14369484D02*
X16188872Y-14359960D01*
X16188872Y-14359960D02*
X16198396Y-14340912D01*
X16198396Y-14340912D02*
X16198396Y-14331388D01*
X16198396Y-14331388D02*
X16188872Y-14312341D01*
X16188872Y-14312341D02*
X16169825Y-14302817D01*
X16169825Y-14302817D02*
X16141253Y-14302817D01*
X16141253Y-14302817D02*
X16122206Y-14293293D01*
X16122206Y-14293293D02*
X16112682Y-14274246D01*
X16112682Y-14274246D02*
X16112682Y-14264722D01*
X16112682Y-14264722D02*
X16122206Y-14245674D01*
X16122206Y-14245674D02*
X16141253Y-14236150D01*
X16141253Y-14236150D02*
X16169825Y-14236150D01*
X16169825Y-14236150D02*
X16188872Y-14245674D01*
X16436492Y-14293293D02*
X16588873Y-14293293D01*
X16512682Y-14369484D02*
X16512682Y-14217103D01*
X16922206Y-14236150D02*
X16922206Y-14369484D01*
X16874587Y-14159960D02*
X16826968Y-14302817D01*
X16826968Y-14302817D02*
X16950777Y-14302817D01*
X17169825Y-14359960D02*
X17188873Y-14369484D01*
X17188873Y-14369484D02*
X17226968Y-14369484D01*
X17226968Y-14369484D02*
X17246016Y-14359960D01*
X17246016Y-14359960D02*
X17255539Y-14340912D01*
X17255539Y-14340912D02*
X17255539Y-14331388D01*
X17255539Y-14331388D02*
X17246016Y-14312341D01*
X17246016Y-14312341D02*
X17226968Y-14302817D01*
X17226968Y-14302817D02*
X17198396Y-14302817D01*
X17198396Y-14302817D02*
X17179349Y-14293293D01*
X17179349Y-14293293D02*
X17169825Y-14274246D01*
X17169825Y-14274246D02*
X17169825Y-14264722D01*
X17169825Y-14264722D02*
X17179349Y-14245674D01*
X17179349Y-14245674D02*
X17198396Y-14236150D01*
X17198396Y-14236150D02*
X17226968Y-14236150D01*
X17226968Y-14236150D02*
X17246016Y-14245674D01*
X17369825Y-14369484D02*
X17350777Y-14359960D01*
X17350777Y-14359960D02*
X17341254Y-14340912D01*
X17341254Y-14340912D02*
X17341254Y-14169484D01*
X17474587Y-14369484D02*
X17455539Y-14359960D01*
X17455539Y-14359960D02*
X17446016Y-14350436D01*
X17446016Y-14350436D02*
X17436492Y-14331388D01*
X17436492Y-14331388D02*
X17436492Y-14274246D01*
X17436492Y-14274246D02*
X17446016Y-14255198D01*
X17446016Y-14255198D02*
X17455539Y-14245674D01*
X17455539Y-14245674D02*
X17474587Y-14236150D01*
X17474587Y-14236150D02*
X17503158Y-14236150D01*
X17503158Y-14236150D02*
X17522206Y-14245674D01*
X17522206Y-14245674D02*
X17531730Y-14255198D01*
X17531730Y-14255198D02*
X17541254Y-14274246D01*
X17541254Y-14274246D02*
X17541254Y-14331388D01*
X17541254Y-14331388D02*
X17531730Y-14350436D01*
X17531730Y-14350436D02*
X17522206Y-14359960D01*
X17522206Y-14359960D02*
X17503158Y-14369484D01*
X17503158Y-14369484D02*
X17474587Y-14369484D01*
X17598397Y-14236150D02*
X17674587Y-14236150D01*
X17626968Y-14169484D02*
X17626968Y-14340912D01*
X17626968Y-14340912D02*
X17636492Y-14359960D01*
X17636492Y-14359960D02*
X17655539Y-14369484D01*
X17655539Y-14369484D02*
X17674587Y-14369484D01*
X17731730Y-14359960D02*
X17750777Y-14369484D01*
X17750777Y-14369484D02*
X17788873Y-14369484D01*
X17788873Y-14369484D02*
X17807920Y-14359960D01*
X17807920Y-14359960D02*
X17817444Y-14340912D01*
X17817444Y-14340912D02*
X17817444Y-14331388D01*
X17817444Y-14331388D02*
X17807920Y-14312341D01*
X17807920Y-14312341D02*
X17788873Y-14302817D01*
X17788873Y-14302817D02*
X17760301Y-14302817D01*
X17760301Y-14302817D02*
X17741254Y-14293293D01*
X17741254Y-14293293D02*
X17731730Y-14274246D01*
X17731730Y-14274246D02*
X17731730Y-14264722D01*
X17731730Y-14264722D02*
X17741254Y-14245674D01*
X17741254Y-14245674D02*
X17760301Y-14236150D01*
X17760301Y-14236150D02*
X17788873Y-14236150D01*
X17788873Y-14236150D02*
X17807920Y-14245674D01*
X17884111Y-14445674D02*
X17893635Y-14436150D01*
X17893635Y-14436150D02*
X17912682Y-14407579D01*
X17912682Y-14407579D02*
X17922206Y-14388531D01*
X17922206Y-14388531D02*
X17931730Y-14359960D01*
X17931730Y-14359960D02*
X17941254Y-14312341D01*
X17941254Y-14312341D02*
X17941254Y-14274246D01*
X17941254Y-14274246D02*
X17931730Y-14226627D01*
X17931730Y-14226627D02*
X17922206Y-14198055D01*
X17922206Y-14198055D02*
X17912682Y-14179008D01*
X17912682Y-14179008D02*
X17893635Y-14150436D01*
X17893635Y-14150436D02*
X17884111Y-14140912D01*
X18246016Y-14445674D02*
X18236492Y-14436150D01*
X18236492Y-14436150D02*
X18217444Y-14407579D01*
X18217444Y-14407579D02*
X18207920Y-14388531D01*
X18207920Y-14388531D02*
X18198397Y-14359960D01*
X18198397Y-14359960D02*
X18188873Y-14312341D01*
X18188873Y-14312341D02*
X18188873Y-14274246D01*
X18188873Y-14274246D02*
X18198397Y-14226627D01*
X18198397Y-14226627D02*
X18207920Y-14198055D01*
X18207920Y-14198055D02*
X18217444Y-14179008D01*
X18217444Y-14179008D02*
X18236492Y-14150436D01*
X18236492Y-14150436D02*
X18246016Y-14140912D01*
X18322206Y-14236150D02*
X18322206Y-14369484D01*
X18322206Y-14255198D02*
X18331730Y-14245674D01*
X18331730Y-14245674D02*
X18350777Y-14236150D01*
X18350777Y-14236150D02*
X18379349Y-14236150D01*
X18379349Y-14236150D02*
X18398397Y-14245674D01*
X18398397Y-14245674D02*
X18407920Y-14264722D01*
X18407920Y-14264722D02*
X18407920Y-14369484D01*
X18531730Y-14369484D02*
X18512682Y-14359960D01*
X18512682Y-14359960D02*
X18503158Y-14350436D01*
X18503158Y-14350436D02*
X18493635Y-14331388D01*
X18493635Y-14331388D02*
X18493635Y-14274246D01*
X18493635Y-14274246D02*
X18503158Y-14255198D01*
X18503158Y-14255198D02*
X18512682Y-14245674D01*
X18512682Y-14245674D02*
X18531730Y-14236150D01*
X18531730Y-14236150D02*
X18560301Y-14236150D01*
X18560301Y-14236150D02*
X18579349Y-14245674D01*
X18579349Y-14245674D02*
X18588873Y-14255198D01*
X18588873Y-14255198D02*
X18598397Y-14274246D01*
X18598397Y-14274246D02*
X18598397Y-14331388D01*
X18598397Y-14331388D02*
X18588873Y-14350436D01*
X18588873Y-14350436D02*
X18579349Y-14359960D01*
X18579349Y-14359960D02*
X18560301Y-14369484D01*
X18560301Y-14369484D02*
X18531730Y-14369484D01*
X18655539Y-14236150D02*
X18731730Y-14236150D01*
X18684111Y-14169484D02*
X18684111Y-14340912D01*
X18684111Y-14340912D02*
X18693635Y-14359960D01*
X18693635Y-14359960D02*
X18712682Y-14369484D01*
X18712682Y-14369484D02*
X18731730Y-14369484D01*
X18950778Y-14236150D02*
X18950778Y-14436150D01*
X18950778Y-14245674D02*
X18969825Y-14236150D01*
X18969825Y-14236150D02*
X19007920Y-14236150D01*
X19007920Y-14236150D02*
X19026968Y-14245674D01*
X19026968Y-14245674D02*
X19036492Y-14255198D01*
X19036492Y-14255198D02*
X19046016Y-14274246D01*
X19046016Y-14274246D02*
X19046016Y-14331388D01*
X19046016Y-14331388D02*
X19036492Y-14350436D01*
X19036492Y-14350436D02*
X19026968Y-14359960D01*
X19026968Y-14359960D02*
X19007920Y-14369484D01*
X19007920Y-14369484D02*
X18969825Y-14369484D01*
X18969825Y-14369484D02*
X18950778Y-14359960D01*
X19160301Y-14369484D02*
X19141254Y-14359960D01*
X19141254Y-14359960D02*
X19131730Y-14340912D01*
X19131730Y-14340912D02*
X19131730Y-14169484D01*
X19322206Y-14369484D02*
X19322206Y-14264722D01*
X19322206Y-14264722D02*
X19312682Y-14245674D01*
X19312682Y-14245674D02*
X19293635Y-14236150D01*
X19293635Y-14236150D02*
X19255539Y-14236150D01*
X19255539Y-14236150D02*
X19236492Y-14245674D01*
X19322206Y-14359960D02*
X19303159Y-14369484D01*
X19303159Y-14369484D02*
X19255539Y-14369484D01*
X19255539Y-14369484D02*
X19236492Y-14359960D01*
X19236492Y-14359960D02*
X19226968Y-14340912D01*
X19226968Y-14340912D02*
X19226968Y-14321865D01*
X19226968Y-14321865D02*
X19236492Y-14302817D01*
X19236492Y-14302817D02*
X19255539Y-14293293D01*
X19255539Y-14293293D02*
X19303159Y-14293293D01*
X19303159Y-14293293D02*
X19322206Y-14283769D01*
X19388873Y-14236150D02*
X19465063Y-14236150D01*
X19417444Y-14169484D02*
X19417444Y-14340912D01*
X19417444Y-14340912D02*
X19426968Y-14359960D01*
X19426968Y-14359960D02*
X19446016Y-14369484D01*
X19446016Y-14369484D02*
X19465063Y-14369484D01*
X19607920Y-14359960D02*
X19588873Y-14369484D01*
X19588873Y-14369484D02*
X19550778Y-14369484D01*
X19550778Y-14369484D02*
X19531730Y-14359960D01*
X19531730Y-14359960D02*
X19522206Y-14340912D01*
X19522206Y-14340912D02*
X19522206Y-14264722D01*
X19522206Y-14264722D02*
X19531730Y-14245674D01*
X19531730Y-14245674D02*
X19550778Y-14236150D01*
X19550778Y-14236150D02*
X19588873Y-14236150D01*
X19588873Y-14236150D02*
X19607920Y-14245674D01*
X19607920Y-14245674D02*
X19617444Y-14264722D01*
X19617444Y-14264722D02*
X19617444Y-14283769D01*
X19617444Y-14283769D02*
X19522206Y-14302817D01*
X19788873Y-14369484D02*
X19788873Y-14169484D01*
X19788873Y-14359960D02*
X19769825Y-14369484D01*
X19769825Y-14369484D02*
X19731730Y-14369484D01*
X19731730Y-14369484D02*
X19712682Y-14359960D01*
X19712682Y-14359960D02*
X19703159Y-14350436D01*
X19703159Y-14350436D02*
X19693635Y-14331388D01*
X19693635Y-14331388D02*
X19693635Y-14274246D01*
X19693635Y-14274246D02*
X19703159Y-14255198D01*
X19703159Y-14255198D02*
X19712682Y-14245674D01*
X19712682Y-14245674D02*
X19731730Y-14236150D01*
X19731730Y-14236150D02*
X19769825Y-14236150D01*
X19769825Y-14236150D02*
X19788873Y-14245674D01*
X19865063Y-14445674D02*
X19874587Y-14436150D01*
X19874587Y-14436150D02*
X19893635Y-14407579D01*
X19893635Y-14407579D02*
X19903159Y-14388531D01*
X19903159Y-14388531D02*
X19912682Y-14359960D01*
X19912682Y-14359960D02*
X19922206Y-14312341D01*
X19922206Y-14312341D02*
X19922206Y-14274246D01*
X19922206Y-14274246D02*
X19912682Y-14226627D01*
X19912682Y-14226627D02*
X19903159Y-14198055D01*
X19903159Y-14198055D02*
X19893635Y-14179008D01*
X19893635Y-14179008D02*
X19874587Y-14150436D01*
X19874587Y-14150436D02*
X19865063Y-14140912D01*
X11460711Y-14668711D02*
X11460711Y-14527289D01*
X11319289Y-14527289D01*
X11319289Y-14668711D01*
X11460711Y-14668711D01*
X11731729Y-14489484D02*
X11855539Y-14489484D01*
X11855539Y-14489484D02*
X11788872Y-14565674D01*
X11788872Y-14565674D02*
X11817443Y-14565674D01*
X11817443Y-14565674D02*
X11836491Y-14575198D01*
X11836491Y-14575198D02*
X11846015Y-14584722D01*
X11846015Y-14584722D02*
X11855539Y-14603769D01*
X11855539Y-14603769D02*
X11855539Y-14651388D01*
X11855539Y-14651388D02*
X11846015Y-14670436D01*
X11846015Y-14670436D02*
X11836491Y-14679960D01*
X11836491Y-14679960D02*
X11817443Y-14689484D01*
X11817443Y-14689484D02*
X11760301Y-14689484D01*
X11760301Y-14689484D02*
X11741253Y-14679960D01*
X11741253Y-14679960D02*
X11731729Y-14670436D01*
X11941253Y-14670436D02*
X11950777Y-14679960D01*
X11950777Y-14679960D02*
X11941253Y-14689484D01*
X11941253Y-14689484D02*
X11931729Y-14679960D01*
X11931729Y-14679960D02*
X11941253Y-14670436D01*
X11941253Y-14670436D02*
X11941253Y-14689484D01*
X12026967Y-14508531D02*
X12036491Y-14499008D01*
X12036491Y-14499008D02*
X12055539Y-14489484D01*
X12055539Y-14489484D02*
X12103158Y-14489484D01*
X12103158Y-14489484D02*
X12122205Y-14499008D01*
X12122205Y-14499008D02*
X12131729Y-14508531D01*
X12131729Y-14508531D02*
X12141253Y-14527579D01*
X12141253Y-14527579D02*
X12141253Y-14546627D01*
X12141253Y-14546627D02*
X12131729Y-14575198D01*
X12131729Y-14575198D02*
X12017443Y-14689484D01*
X12017443Y-14689484D02*
X12141253Y-14689484D01*
X12265062Y-14489484D02*
X12284110Y-14489484D01*
X12284110Y-14489484D02*
X12303158Y-14499008D01*
X12303158Y-14499008D02*
X12312682Y-14508531D01*
X12312682Y-14508531D02*
X12322205Y-14527579D01*
X12322205Y-14527579D02*
X12331729Y-14565674D01*
X12331729Y-14565674D02*
X12331729Y-14613293D01*
X12331729Y-14613293D02*
X12322205Y-14651388D01*
X12322205Y-14651388D02*
X12312682Y-14670436D01*
X12312682Y-14670436D02*
X12303158Y-14679960D01*
X12303158Y-14679960D02*
X12284110Y-14689484D01*
X12284110Y-14689484D02*
X12265062Y-14689484D01*
X12265062Y-14689484D02*
X12246015Y-14679960D01*
X12246015Y-14679960D02*
X12236491Y-14670436D01*
X12236491Y-14670436D02*
X12226967Y-14651388D01*
X12226967Y-14651388D02*
X12217443Y-14613293D01*
X12217443Y-14613293D02*
X12217443Y-14565674D01*
X12217443Y-14565674D02*
X12226967Y-14527579D01*
X12226967Y-14527579D02*
X12236491Y-14508531D01*
X12236491Y-14508531D02*
X12246015Y-14499008D01*
X12246015Y-14499008D02*
X12265062Y-14489484D01*
X12455539Y-14489484D02*
X12474586Y-14489484D01*
X12474586Y-14489484D02*
X12493634Y-14499008D01*
X12493634Y-14499008D02*
X12503158Y-14508531D01*
X12503158Y-14508531D02*
X12512682Y-14527579D01*
X12512682Y-14527579D02*
X12522205Y-14565674D01*
X12522205Y-14565674D02*
X12522205Y-14613293D01*
X12522205Y-14613293D02*
X12512682Y-14651388D01*
X12512682Y-14651388D02*
X12503158Y-14670436D01*
X12503158Y-14670436D02*
X12493634Y-14679960D01*
X12493634Y-14679960D02*
X12474586Y-14689484D01*
X12474586Y-14689484D02*
X12455539Y-14689484D01*
X12455539Y-14689484D02*
X12436491Y-14679960D01*
X12436491Y-14679960D02*
X12426967Y-14670436D01*
X12426967Y-14670436D02*
X12417443Y-14651388D01*
X12417443Y-14651388D02*
X12407920Y-14613293D01*
X12407920Y-14613293D02*
X12407920Y-14565674D01*
X12407920Y-14565674D02*
X12417443Y-14527579D01*
X12417443Y-14527579D02*
X12426967Y-14508531D01*
X12426967Y-14508531D02*
X12436491Y-14499008D01*
X12436491Y-14499008D02*
X12455539Y-14489484D01*
X12607920Y-14689484D02*
X12607920Y-14556150D01*
X12607920Y-14575198D02*
X12617443Y-14565674D01*
X12617443Y-14565674D02*
X12636491Y-14556150D01*
X12636491Y-14556150D02*
X12665063Y-14556150D01*
X12665063Y-14556150D02*
X12684110Y-14565674D01*
X12684110Y-14565674D02*
X12693634Y-14584722D01*
X12693634Y-14584722D02*
X12693634Y-14689484D01*
X12693634Y-14584722D02*
X12703158Y-14565674D01*
X12703158Y-14565674D02*
X12722205Y-14556150D01*
X12722205Y-14556150D02*
X12750777Y-14556150D01*
X12750777Y-14556150D02*
X12769824Y-14565674D01*
X12769824Y-14565674D02*
X12779348Y-14584722D01*
X12779348Y-14584722D02*
X12779348Y-14689484D01*
X12874586Y-14689484D02*
X12874586Y-14556150D01*
X12874586Y-14575198D02*
X12884110Y-14565674D01*
X12884110Y-14565674D02*
X12903158Y-14556150D01*
X12903158Y-14556150D02*
X12931729Y-14556150D01*
X12931729Y-14556150D02*
X12950777Y-14565674D01*
X12950777Y-14565674D02*
X12960301Y-14584722D01*
X12960301Y-14584722D02*
X12960301Y-14689484D01*
X12960301Y-14584722D02*
X12969824Y-14565674D01*
X12969824Y-14565674D02*
X12988872Y-14556150D01*
X12988872Y-14556150D02*
X13017443Y-14556150D01*
X13017443Y-14556150D02*
X13036491Y-14565674D01*
X13036491Y-14565674D02*
X13046015Y-14584722D01*
X13046015Y-14584722D02*
X13046015Y-14689484D01*
X13436491Y-14479960D02*
X13265063Y-14737103D01*
X13693634Y-14489484D02*
X13712682Y-14489484D01*
X13712682Y-14489484D02*
X13731729Y-14499008D01*
X13731729Y-14499008D02*
X13741253Y-14508531D01*
X13741253Y-14508531D02*
X13750777Y-14527579D01*
X13750777Y-14527579D02*
X13760301Y-14565674D01*
X13760301Y-14565674D02*
X13760301Y-14613293D01*
X13760301Y-14613293D02*
X13750777Y-14651388D01*
X13750777Y-14651388D02*
X13741253Y-14670436D01*
X13741253Y-14670436D02*
X13731729Y-14679960D01*
X13731729Y-14679960D02*
X13712682Y-14689484D01*
X13712682Y-14689484D02*
X13693634Y-14689484D01*
X13693634Y-14689484D02*
X13674586Y-14679960D01*
X13674586Y-14679960D02*
X13665063Y-14670436D01*
X13665063Y-14670436D02*
X13655539Y-14651388D01*
X13655539Y-14651388D02*
X13646015Y-14613293D01*
X13646015Y-14613293D02*
X13646015Y-14565674D01*
X13646015Y-14565674D02*
X13655539Y-14527579D01*
X13655539Y-14527579D02*
X13665063Y-14508531D01*
X13665063Y-14508531D02*
X13674586Y-14499008D01*
X13674586Y-14499008D02*
X13693634Y-14489484D01*
X13846015Y-14670436D02*
X13855539Y-14679960D01*
X13855539Y-14679960D02*
X13846015Y-14689484D01*
X13846015Y-14689484D02*
X13836491Y-14679960D01*
X13836491Y-14679960D02*
X13846015Y-14670436D01*
X13846015Y-14670436D02*
X13846015Y-14689484D01*
X14046015Y-14689484D02*
X13931729Y-14689484D01*
X13988872Y-14689484D02*
X13988872Y-14489484D01*
X13988872Y-14489484D02*
X13969825Y-14518055D01*
X13969825Y-14518055D02*
X13950777Y-14537103D01*
X13950777Y-14537103D02*
X13931729Y-14546627D01*
X14122206Y-14508531D02*
X14131729Y-14499008D01*
X14131729Y-14499008D02*
X14150777Y-14489484D01*
X14150777Y-14489484D02*
X14198396Y-14489484D01*
X14198396Y-14489484D02*
X14217444Y-14499008D01*
X14217444Y-14499008D02*
X14226967Y-14508531D01*
X14226967Y-14508531D02*
X14236491Y-14527579D01*
X14236491Y-14527579D02*
X14236491Y-14546627D01*
X14236491Y-14546627D02*
X14226967Y-14575198D01*
X14226967Y-14575198D02*
X14112682Y-14689484D01*
X14112682Y-14689484D02*
X14236491Y-14689484D01*
X14407920Y-14489484D02*
X14369825Y-14489484D01*
X14369825Y-14489484D02*
X14350777Y-14499008D01*
X14350777Y-14499008D02*
X14341253Y-14508531D01*
X14341253Y-14508531D02*
X14322206Y-14537103D01*
X14322206Y-14537103D02*
X14312682Y-14575198D01*
X14312682Y-14575198D02*
X14312682Y-14651388D01*
X14312682Y-14651388D02*
X14322206Y-14670436D01*
X14322206Y-14670436D02*
X14331729Y-14679960D01*
X14331729Y-14679960D02*
X14350777Y-14689484D01*
X14350777Y-14689484D02*
X14388872Y-14689484D01*
X14388872Y-14689484D02*
X14407920Y-14679960D01*
X14407920Y-14679960D02*
X14417444Y-14670436D01*
X14417444Y-14670436D02*
X14426967Y-14651388D01*
X14426967Y-14651388D02*
X14426967Y-14603769D01*
X14426967Y-14603769D02*
X14417444Y-14584722D01*
X14417444Y-14584722D02*
X14407920Y-14575198D01*
X14407920Y-14575198D02*
X14388872Y-14565674D01*
X14388872Y-14565674D02*
X14350777Y-14565674D01*
X14350777Y-14565674D02*
X14331729Y-14575198D01*
X14331729Y-14575198D02*
X14322206Y-14584722D01*
X14322206Y-14584722D02*
X14312682Y-14603769D01*
X14550777Y-14489484D02*
X14569825Y-14489484D01*
X14569825Y-14489484D02*
X14588872Y-14499008D01*
X14588872Y-14499008D02*
X14598396Y-14508531D01*
X14598396Y-14508531D02*
X14607920Y-14527579D01*
X14607920Y-14527579D02*
X14617444Y-14565674D01*
X14617444Y-14565674D02*
X14617444Y-14613293D01*
X14617444Y-14613293D02*
X14607920Y-14651388D01*
X14607920Y-14651388D02*
X14598396Y-14670436D01*
X14598396Y-14670436D02*
X14588872Y-14679960D01*
X14588872Y-14679960D02*
X14569825Y-14689484D01*
X14569825Y-14689484D02*
X14550777Y-14689484D01*
X14550777Y-14689484D02*
X14531729Y-14679960D01*
X14531729Y-14679960D02*
X14522206Y-14670436D01*
X14522206Y-14670436D02*
X14512682Y-14651388D01*
X14512682Y-14651388D02*
X14503158Y-14613293D01*
X14503158Y-14613293D02*
X14503158Y-14565674D01*
X14503158Y-14565674D02*
X14512682Y-14527579D01*
X14512682Y-14527579D02*
X14522206Y-14508531D01*
X14522206Y-14508531D02*
X14531729Y-14499008D01*
X14531729Y-14499008D02*
X14550777Y-14489484D01*
X14693634Y-14489484D02*
X14693634Y-14527579D01*
X14769825Y-14489484D02*
X14769825Y-14527579D01*
X15065063Y-14765674D02*
X15055539Y-14756150D01*
X15055539Y-14756150D02*
X15036491Y-14727579D01*
X15036491Y-14727579D02*
X15026968Y-14708531D01*
X15026968Y-14708531D02*
X15017444Y-14679960D01*
X15017444Y-14679960D02*
X15007920Y-14632341D01*
X15007920Y-14632341D02*
X15007920Y-14594246D01*
X15007920Y-14594246D02*
X15017444Y-14546627D01*
X15017444Y-14546627D02*
X15026968Y-14518055D01*
X15026968Y-14518055D02*
X15036491Y-14499008D01*
X15036491Y-14499008D02*
X15055539Y-14470436D01*
X15055539Y-14470436D02*
X15065063Y-14460912D01*
X15246015Y-14689484D02*
X15131729Y-14689484D01*
X15188872Y-14689484D02*
X15188872Y-14489484D01*
X15188872Y-14489484D02*
X15169825Y-14518055D01*
X15169825Y-14518055D02*
X15150777Y-14537103D01*
X15150777Y-14537103D02*
X15131729Y-14546627D01*
X15484110Y-14689484D02*
X15484110Y-14489484D01*
X15569825Y-14689484D02*
X15569825Y-14584722D01*
X15569825Y-14584722D02*
X15560301Y-14565674D01*
X15560301Y-14565674D02*
X15541253Y-14556150D01*
X15541253Y-14556150D02*
X15512682Y-14556150D01*
X15512682Y-14556150D02*
X15493634Y-14565674D01*
X15493634Y-14565674D02*
X15484110Y-14575198D01*
X15693634Y-14689484D02*
X15674587Y-14679960D01*
X15674587Y-14679960D02*
X15665063Y-14670436D01*
X15665063Y-14670436D02*
X15655539Y-14651388D01*
X15655539Y-14651388D02*
X15655539Y-14594246D01*
X15655539Y-14594246D02*
X15665063Y-14575198D01*
X15665063Y-14575198D02*
X15674587Y-14565674D01*
X15674587Y-14565674D02*
X15693634Y-14556150D01*
X15693634Y-14556150D02*
X15722206Y-14556150D01*
X15722206Y-14556150D02*
X15741253Y-14565674D01*
X15741253Y-14565674D02*
X15750777Y-14575198D01*
X15750777Y-14575198D02*
X15760301Y-14594246D01*
X15760301Y-14594246D02*
X15760301Y-14651388D01*
X15760301Y-14651388D02*
X15750777Y-14670436D01*
X15750777Y-14670436D02*
X15741253Y-14679960D01*
X15741253Y-14679960D02*
X15722206Y-14689484D01*
X15722206Y-14689484D02*
X15693634Y-14689484D01*
X15874587Y-14689484D02*
X15855539Y-14679960D01*
X15855539Y-14679960D02*
X15846015Y-14660912D01*
X15846015Y-14660912D02*
X15846015Y-14489484D01*
X16026968Y-14679960D02*
X16007920Y-14689484D01*
X16007920Y-14689484D02*
X15969825Y-14689484D01*
X15969825Y-14689484D02*
X15950777Y-14679960D01*
X15950777Y-14679960D02*
X15941253Y-14660912D01*
X15941253Y-14660912D02*
X15941253Y-14584722D01*
X15941253Y-14584722D02*
X15950777Y-14565674D01*
X15950777Y-14565674D02*
X15969825Y-14556150D01*
X15969825Y-14556150D02*
X16007920Y-14556150D01*
X16007920Y-14556150D02*
X16026968Y-14565674D01*
X16026968Y-14565674D02*
X16036491Y-14584722D01*
X16036491Y-14584722D02*
X16036491Y-14603769D01*
X16036491Y-14603769D02*
X15941253Y-14622817D01*
X16103158Y-14765674D02*
X16112682Y-14756150D01*
X16112682Y-14756150D02*
X16131730Y-14727579D01*
X16131730Y-14727579D02*
X16141253Y-14708531D01*
X16141253Y-14708531D02*
X16150777Y-14679960D01*
X16150777Y-14679960D02*
X16160301Y-14632341D01*
X16160301Y-14632341D02*
X16160301Y-14594246D01*
X16160301Y-14594246D02*
X16150777Y-14546627D01*
X16150777Y-14546627D02*
X16141253Y-14518055D01*
X16141253Y-14518055D02*
X16131730Y-14499008D01*
X16131730Y-14499008D02*
X16112682Y-14470436D01*
X16112682Y-14470436D02*
X16103158Y-14460912D01*
X16465063Y-14765674D02*
X16455539Y-14756150D01*
X16455539Y-14756150D02*
X16436491Y-14727579D01*
X16436491Y-14727579D02*
X16426968Y-14708531D01*
X16426968Y-14708531D02*
X16417444Y-14679960D01*
X16417444Y-14679960D02*
X16407920Y-14632341D01*
X16407920Y-14632341D02*
X16407920Y-14594246D01*
X16407920Y-14594246D02*
X16417444Y-14546627D01*
X16417444Y-14546627D02*
X16426968Y-14518055D01*
X16426968Y-14518055D02*
X16436491Y-14499008D01*
X16436491Y-14499008D02*
X16455539Y-14470436D01*
X16455539Y-14470436D02*
X16465063Y-14460912D01*
X16541253Y-14556150D02*
X16541253Y-14689484D01*
X16541253Y-14575198D02*
X16550777Y-14565674D01*
X16550777Y-14565674D02*
X16569825Y-14556150D01*
X16569825Y-14556150D02*
X16598396Y-14556150D01*
X16598396Y-14556150D02*
X16617444Y-14565674D01*
X16617444Y-14565674D02*
X16626968Y-14584722D01*
X16626968Y-14584722D02*
X16626968Y-14689484D01*
X16750777Y-14689484D02*
X16731730Y-14679960D01*
X16731730Y-14679960D02*
X16722206Y-14670436D01*
X16722206Y-14670436D02*
X16712682Y-14651388D01*
X16712682Y-14651388D02*
X16712682Y-14594246D01*
X16712682Y-14594246D02*
X16722206Y-14575198D01*
X16722206Y-14575198D02*
X16731730Y-14565674D01*
X16731730Y-14565674D02*
X16750777Y-14556150D01*
X16750777Y-14556150D02*
X16779349Y-14556150D01*
X16779349Y-14556150D02*
X16798396Y-14565674D01*
X16798396Y-14565674D02*
X16807920Y-14575198D01*
X16807920Y-14575198D02*
X16817444Y-14594246D01*
X16817444Y-14594246D02*
X16817444Y-14651388D01*
X16817444Y-14651388D02*
X16807920Y-14670436D01*
X16807920Y-14670436D02*
X16798396Y-14679960D01*
X16798396Y-14679960D02*
X16779349Y-14689484D01*
X16779349Y-14689484D02*
X16750777Y-14689484D01*
X16874587Y-14556150D02*
X16950777Y-14556150D01*
X16903158Y-14489484D02*
X16903158Y-14660912D01*
X16903158Y-14660912D02*
X16912682Y-14679960D01*
X16912682Y-14679960D02*
X16931730Y-14689484D01*
X16931730Y-14689484D02*
X16950777Y-14689484D01*
X17169825Y-14556150D02*
X17169825Y-14756150D01*
X17169825Y-14565674D02*
X17188873Y-14556150D01*
X17188873Y-14556150D02*
X17226968Y-14556150D01*
X17226968Y-14556150D02*
X17246015Y-14565674D01*
X17246015Y-14565674D02*
X17255539Y-14575198D01*
X17255539Y-14575198D02*
X17265063Y-14594246D01*
X17265063Y-14594246D02*
X17265063Y-14651388D01*
X17265063Y-14651388D02*
X17255539Y-14670436D01*
X17255539Y-14670436D02*
X17246015Y-14679960D01*
X17246015Y-14679960D02*
X17226968Y-14689484D01*
X17226968Y-14689484D02*
X17188873Y-14689484D01*
X17188873Y-14689484D02*
X17169825Y-14679960D01*
X17379349Y-14689484D02*
X17360301Y-14679960D01*
X17360301Y-14679960D02*
X17350777Y-14660912D01*
X17350777Y-14660912D02*
X17350777Y-14489484D01*
X17541254Y-14689484D02*
X17541254Y-14584722D01*
X17541254Y-14584722D02*
X17531730Y-14565674D01*
X17531730Y-14565674D02*
X17512682Y-14556150D01*
X17512682Y-14556150D02*
X17474587Y-14556150D01*
X17474587Y-14556150D02*
X17455539Y-14565674D01*
X17541254Y-14679960D02*
X17522206Y-14689484D01*
X17522206Y-14689484D02*
X17474587Y-14689484D01*
X17474587Y-14689484D02*
X17455539Y-14679960D01*
X17455539Y-14679960D02*
X17446015Y-14660912D01*
X17446015Y-14660912D02*
X17446015Y-14641865D01*
X17446015Y-14641865D02*
X17455539Y-14622817D01*
X17455539Y-14622817D02*
X17474587Y-14613293D01*
X17474587Y-14613293D02*
X17522206Y-14613293D01*
X17522206Y-14613293D02*
X17541254Y-14603769D01*
X17607920Y-14556150D02*
X17684111Y-14556150D01*
X17636492Y-14489484D02*
X17636492Y-14660912D01*
X17636492Y-14660912D02*
X17646015Y-14679960D01*
X17646015Y-14679960D02*
X17665063Y-14689484D01*
X17665063Y-14689484D02*
X17684111Y-14689484D01*
X17826968Y-14679960D02*
X17807920Y-14689484D01*
X17807920Y-14689484D02*
X17769825Y-14689484D01*
X17769825Y-14689484D02*
X17750777Y-14679960D01*
X17750777Y-14679960D02*
X17741254Y-14660912D01*
X17741254Y-14660912D02*
X17741254Y-14584722D01*
X17741254Y-14584722D02*
X17750777Y-14565674D01*
X17750777Y-14565674D02*
X17769825Y-14556150D01*
X17769825Y-14556150D02*
X17807920Y-14556150D01*
X17807920Y-14556150D02*
X17826968Y-14565674D01*
X17826968Y-14565674D02*
X17836492Y-14584722D01*
X17836492Y-14584722D02*
X17836492Y-14603769D01*
X17836492Y-14603769D02*
X17741254Y-14622817D01*
X18007920Y-14689484D02*
X18007920Y-14489484D01*
X18007920Y-14679960D02*
X17988873Y-14689484D01*
X17988873Y-14689484D02*
X17950777Y-14689484D01*
X17950777Y-14689484D02*
X17931730Y-14679960D01*
X17931730Y-14679960D02*
X17922206Y-14670436D01*
X17922206Y-14670436D02*
X17912682Y-14651388D01*
X17912682Y-14651388D02*
X17912682Y-14594246D01*
X17912682Y-14594246D02*
X17922206Y-14575198D01*
X17922206Y-14575198D02*
X17931730Y-14565674D01*
X17931730Y-14565674D02*
X17950777Y-14556150D01*
X17950777Y-14556150D02*
X17988873Y-14556150D01*
X17988873Y-14556150D02*
X18007920Y-14565674D01*
X18084111Y-14765674D02*
X18093635Y-14756150D01*
X18093635Y-14756150D02*
X18112682Y-14727579D01*
X18112682Y-14727579D02*
X18122206Y-14708531D01*
X18122206Y-14708531D02*
X18131730Y-14679960D01*
X18131730Y-14679960D02*
X18141254Y-14632341D01*
X18141254Y-14632341D02*
X18141254Y-14594246D01*
X18141254Y-14594246D02*
X18131730Y-14546627D01*
X18131730Y-14546627D02*
X18122206Y-14518055D01*
X18122206Y-14518055D02*
X18112682Y-14499008D01*
X18112682Y-14499008D02*
X18093635Y-14470436D01*
X18093635Y-14470436D02*
X18084111Y-14460912D01*
X11390000Y-15018000D02*
X11490000Y-14918000D01*
X11390000Y-14818000D01*
X11290000Y-14918000D01*
X11390000Y-15018000D01*
X11731729Y-14809484D02*
X11855539Y-14809484D01*
X11855539Y-14809484D02*
X11788872Y-14885674D01*
X11788872Y-14885674D02*
X11817443Y-14885674D01*
X11817443Y-14885674D02*
X11836491Y-14895198D01*
X11836491Y-14895198D02*
X11846015Y-14904722D01*
X11846015Y-14904722D02*
X11855539Y-14923769D01*
X11855539Y-14923769D02*
X11855539Y-14971388D01*
X11855539Y-14971388D02*
X11846015Y-14990436D01*
X11846015Y-14990436D02*
X11836491Y-14999960D01*
X11836491Y-14999960D02*
X11817443Y-15009484D01*
X11817443Y-15009484D02*
X11760301Y-15009484D01*
X11760301Y-15009484D02*
X11741253Y-14999960D01*
X11741253Y-14999960D02*
X11731729Y-14990436D01*
X11941253Y-14990436D02*
X11950777Y-14999960D01*
X11950777Y-14999960D02*
X11941253Y-15009484D01*
X11941253Y-15009484D02*
X11931729Y-14999960D01*
X11931729Y-14999960D02*
X11941253Y-14990436D01*
X11941253Y-14990436D02*
X11941253Y-15009484D01*
X12131729Y-14809484D02*
X12036491Y-14809484D01*
X12036491Y-14809484D02*
X12026967Y-14904722D01*
X12026967Y-14904722D02*
X12036491Y-14895198D01*
X12036491Y-14895198D02*
X12055539Y-14885674D01*
X12055539Y-14885674D02*
X12103158Y-14885674D01*
X12103158Y-14885674D02*
X12122205Y-14895198D01*
X12122205Y-14895198D02*
X12131729Y-14904722D01*
X12131729Y-14904722D02*
X12141253Y-14923769D01*
X12141253Y-14923769D02*
X12141253Y-14971388D01*
X12141253Y-14971388D02*
X12131729Y-14990436D01*
X12131729Y-14990436D02*
X12122205Y-14999960D01*
X12122205Y-14999960D02*
X12103158Y-15009484D01*
X12103158Y-15009484D02*
X12055539Y-15009484D01*
X12055539Y-15009484D02*
X12036491Y-14999960D01*
X12036491Y-14999960D02*
X12026967Y-14990436D01*
X12265062Y-14809484D02*
X12284110Y-14809484D01*
X12284110Y-14809484D02*
X12303158Y-14819008D01*
X12303158Y-14819008D02*
X12312682Y-14828531D01*
X12312682Y-14828531D02*
X12322205Y-14847579D01*
X12322205Y-14847579D02*
X12331729Y-14885674D01*
X12331729Y-14885674D02*
X12331729Y-14933293D01*
X12331729Y-14933293D02*
X12322205Y-14971388D01*
X12322205Y-14971388D02*
X12312682Y-14990436D01*
X12312682Y-14990436D02*
X12303158Y-14999960D01*
X12303158Y-14999960D02*
X12284110Y-15009484D01*
X12284110Y-15009484D02*
X12265062Y-15009484D01*
X12265062Y-15009484D02*
X12246015Y-14999960D01*
X12246015Y-14999960D02*
X12236491Y-14990436D01*
X12236491Y-14990436D02*
X12226967Y-14971388D01*
X12226967Y-14971388D02*
X12217443Y-14933293D01*
X12217443Y-14933293D02*
X12217443Y-14885674D01*
X12217443Y-14885674D02*
X12226967Y-14847579D01*
X12226967Y-14847579D02*
X12236491Y-14828531D01*
X12236491Y-14828531D02*
X12246015Y-14819008D01*
X12246015Y-14819008D02*
X12265062Y-14809484D01*
X12455539Y-14809484D02*
X12474586Y-14809484D01*
X12474586Y-14809484D02*
X12493634Y-14819008D01*
X12493634Y-14819008D02*
X12503158Y-14828531D01*
X12503158Y-14828531D02*
X12512682Y-14847579D01*
X12512682Y-14847579D02*
X12522205Y-14885674D01*
X12522205Y-14885674D02*
X12522205Y-14933293D01*
X12522205Y-14933293D02*
X12512682Y-14971388D01*
X12512682Y-14971388D02*
X12503158Y-14990436D01*
X12503158Y-14990436D02*
X12493634Y-14999960D01*
X12493634Y-14999960D02*
X12474586Y-15009484D01*
X12474586Y-15009484D02*
X12455539Y-15009484D01*
X12455539Y-15009484D02*
X12436491Y-14999960D01*
X12436491Y-14999960D02*
X12426967Y-14990436D01*
X12426967Y-14990436D02*
X12417443Y-14971388D01*
X12417443Y-14971388D02*
X12407920Y-14933293D01*
X12407920Y-14933293D02*
X12407920Y-14885674D01*
X12407920Y-14885674D02*
X12417443Y-14847579D01*
X12417443Y-14847579D02*
X12426967Y-14828531D01*
X12426967Y-14828531D02*
X12436491Y-14819008D01*
X12436491Y-14819008D02*
X12455539Y-14809484D01*
X12607920Y-15009484D02*
X12607920Y-14876150D01*
X12607920Y-14895198D02*
X12617443Y-14885674D01*
X12617443Y-14885674D02*
X12636491Y-14876150D01*
X12636491Y-14876150D02*
X12665063Y-14876150D01*
X12665063Y-14876150D02*
X12684110Y-14885674D01*
X12684110Y-14885674D02*
X12693634Y-14904722D01*
X12693634Y-14904722D02*
X12693634Y-15009484D01*
X12693634Y-14904722D02*
X12703158Y-14885674D01*
X12703158Y-14885674D02*
X12722205Y-14876150D01*
X12722205Y-14876150D02*
X12750777Y-14876150D01*
X12750777Y-14876150D02*
X12769824Y-14885674D01*
X12769824Y-14885674D02*
X12779348Y-14904722D01*
X12779348Y-14904722D02*
X12779348Y-15009484D01*
X12874586Y-15009484D02*
X12874586Y-14876150D01*
X12874586Y-14895198D02*
X12884110Y-14885674D01*
X12884110Y-14885674D02*
X12903158Y-14876150D01*
X12903158Y-14876150D02*
X12931729Y-14876150D01*
X12931729Y-14876150D02*
X12950777Y-14885674D01*
X12950777Y-14885674D02*
X12960301Y-14904722D01*
X12960301Y-14904722D02*
X12960301Y-15009484D01*
X12960301Y-14904722D02*
X12969824Y-14885674D01*
X12969824Y-14885674D02*
X12988872Y-14876150D01*
X12988872Y-14876150D02*
X13017443Y-14876150D01*
X13017443Y-14876150D02*
X13036491Y-14885674D01*
X13036491Y-14885674D02*
X13046015Y-14904722D01*
X13046015Y-14904722D02*
X13046015Y-15009484D01*
X13436491Y-14799960D02*
X13265063Y-15057103D01*
X13693634Y-14809484D02*
X13712682Y-14809484D01*
X13712682Y-14809484D02*
X13731729Y-14819008D01*
X13731729Y-14819008D02*
X13741253Y-14828531D01*
X13741253Y-14828531D02*
X13750777Y-14847579D01*
X13750777Y-14847579D02*
X13760301Y-14885674D01*
X13760301Y-14885674D02*
X13760301Y-14933293D01*
X13760301Y-14933293D02*
X13750777Y-14971388D01*
X13750777Y-14971388D02*
X13741253Y-14990436D01*
X13741253Y-14990436D02*
X13731729Y-14999960D01*
X13731729Y-14999960D02*
X13712682Y-15009484D01*
X13712682Y-15009484D02*
X13693634Y-15009484D01*
X13693634Y-15009484D02*
X13674586Y-14999960D01*
X13674586Y-14999960D02*
X13665063Y-14990436D01*
X13665063Y-14990436D02*
X13655539Y-14971388D01*
X13655539Y-14971388D02*
X13646015Y-14933293D01*
X13646015Y-14933293D02*
X13646015Y-14885674D01*
X13646015Y-14885674D02*
X13655539Y-14847579D01*
X13655539Y-14847579D02*
X13665063Y-14828531D01*
X13665063Y-14828531D02*
X13674586Y-14819008D01*
X13674586Y-14819008D02*
X13693634Y-14809484D01*
X13846015Y-14990436D02*
X13855539Y-14999960D01*
X13855539Y-14999960D02*
X13846015Y-15009484D01*
X13846015Y-15009484D02*
X13836491Y-14999960D01*
X13836491Y-14999960D02*
X13846015Y-14990436D01*
X13846015Y-14990436D02*
X13846015Y-15009484D01*
X14046015Y-15009484D02*
X13931729Y-15009484D01*
X13988872Y-15009484D02*
X13988872Y-14809484D01*
X13988872Y-14809484D02*
X13969825Y-14838055D01*
X13969825Y-14838055D02*
X13950777Y-14857103D01*
X13950777Y-14857103D02*
X13931729Y-14866627D01*
X14112682Y-14809484D02*
X14236491Y-14809484D01*
X14236491Y-14809484D02*
X14169825Y-14885674D01*
X14169825Y-14885674D02*
X14198396Y-14885674D01*
X14198396Y-14885674D02*
X14217444Y-14895198D01*
X14217444Y-14895198D02*
X14226967Y-14904722D01*
X14226967Y-14904722D02*
X14236491Y-14923769D01*
X14236491Y-14923769D02*
X14236491Y-14971388D01*
X14236491Y-14971388D02*
X14226967Y-14990436D01*
X14226967Y-14990436D02*
X14217444Y-14999960D01*
X14217444Y-14999960D02*
X14198396Y-15009484D01*
X14198396Y-15009484D02*
X14141253Y-15009484D01*
X14141253Y-15009484D02*
X14122206Y-14999960D01*
X14122206Y-14999960D02*
X14112682Y-14990436D01*
X14303158Y-14809484D02*
X14436491Y-14809484D01*
X14436491Y-14809484D02*
X14350777Y-15009484D01*
X14541253Y-14895198D02*
X14522206Y-14885674D01*
X14522206Y-14885674D02*
X14512682Y-14876150D01*
X14512682Y-14876150D02*
X14503158Y-14857103D01*
X14503158Y-14857103D02*
X14503158Y-14847579D01*
X14503158Y-14847579D02*
X14512682Y-14828531D01*
X14512682Y-14828531D02*
X14522206Y-14819008D01*
X14522206Y-14819008D02*
X14541253Y-14809484D01*
X14541253Y-14809484D02*
X14579348Y-14809484D01*
X14579348Y-14809484D02*
X14598396Y-14819008D01*
X14598396Y-14819008D02*
X14607920Y-14828531D01*
X14607920Y-14828531D02*
X14617444Y-14847579D01*
X14617444Y-14847579D02*
X14617444Y-14857103D01*
X14617444Y-14857103D02*
X14607920Y-14876150D01*
X14607920Y-14876150D02*
X14598396Y-14885674D01*
X14598396Y-14885674D02*
X14579348Y-14895198D01*
X14579348Y-14895198D02*
X14541253Y-14895198D01*
X14541253Y-14895198D02*
X14522206Y-14904722D01*
X14522206Y-14904722D02*
X14512682Y-14914246D01*
X14512682Y-14914246D02*
X14503158Y-14933293D01*
X14503158Y-14933293D02*
X14503158Y-14971388D01*
X14503158Y-14971388D02*
X14512682Y-14990436D01*
X14512682Y-14990436D02*
X14522206Y-14999960D01*
X14522206Y-14999960D02*
X14541253Y-15009484D01*
X14541253Y-15009484D02*
X14579348Y-15009484D01*
X14579348Y-15009484D02*
X14598396Y-14999960D01*
X14598396Y-14999960D02*
X14607920Y-14990436D01*
X14607920Y-14990436D02*
X14617444Y-14971388D01*
X14617444Y-14971388D02*
X14617444Y-14933293D01*
X14617444Y-14933293D02*
X14607920Y-14914246D01*
X14607920Y-14914246D02*
X14598396Y-14904722D01*
X14598396Y-14904722D02*
X14579348Y-14895198D01*
X14693634Y-14809484D02*
X14693634Y-14847579D01*
X14769825Y-14809484D02*
X14769825Y-14847579D01*
X15065063Y-15085674D02*
X15055539Y-15076150D01*
X15055539Y-15076150D02*
X15036491Y-15047579D01*
X15036491Y-15047579D02*
X15026968Y-15028531D01*
X15026968Y-15028531D02*
X15017444Y-14999960D01*
X15017444Y-14999960D02*
X15007920Y-14952341D01*
X15007920Y-14952341D02*
X15007920Y-14914246D01*
X15007920Y-14914246D02*
X15017444Y-14866627D01*
X15017444Y-14866627D02*
X15026968Y-14838055D01*
X15026968Y-14838055D02*
X15036491Y-14819008D01*
X15036491Y-14819008D02*
X15055539Y-14790436D01*
X15055539Y-14790436D02*
X15065063Y-14780912D01*
X15122206Y-14809484D02*
X15246015Y-14809484D01*
X15246015Y-14809484D02*
X15179348Y-14885674D01*
X15179348Y-14885674D02*
X15207920Y-14885674D01*
X15207920Y-14885674D02*
X15226968Y-14895198D01*
X15226968Y-14895198D02*
X15236491Y-14904722D01*
X15236491Y-14904722D02*
X15246015Y-14923769D01*
X15246015Y-14923769D02*
X15246015Y-14971388D01*
X15246015Y-14971388D02*
X15236491Y-14990436D01*
X15236491Y-14990436D02*
X15226968Y-14999960D01*
X15226968Y-14999960D02*
X15207920Y-15009484D01*
X15207920Y-15009484D02*
X15150777Y-15009484D01*
X15150777Y-15009484D02*
X15131729Y-14999960D01*
X15131729Y-14999960D02*
X15122206Y-14990436D01*
X15484110Y-15009484D02*
X15484110Y-14809484D01*
X15569825Y-15009484D02*
X15569825Y-14904722D01*
X15569825Y-14904722D02*
X15560301Y-14885674D01*
X15560301Y-14885674D02*
X15541253Y-14876150D01*
X15541253Y-14876150D02*
X15512682Y-14876150D01*
X15512682Y-14876150D02*
X15493634Y-14885674D01*
X15493634Y-14885674D02*
X15484110Y-14895198D01*
X15693634Y-15009484D02*
X15674587Y-14999960D01*
X15674587Y-14999960D02*
X15665063Y-14990436D01*
X15665063Y-14990436D02*
X15655539Y-14971388D01*
X15655539Y-14971388D02*
X15655539Y-14914246D01*
X15655539Y-14914246D02*
X15665063Y-14895198D01*
X15665063Y-14895198D02*
X15674587Y-14885674D01*
X15674587Y-14885674D02*
X15693634Y-14876150D01*
X15693634Y-14876150D02*
X15722206Y-14876150D01*
X15722206Y-14876150D02*
X15741253Y-14885674D01*
X15741253Y-14885674D02*
X15750777Y-14895198D01*
X15750777Y-14895198D02*
X15760301Y-14914246D01*
X15760301Y-14914246D02*
X15760301Y-14971388D01*
X15760301Y-14971388D02*
X15750777Y-14990436D01*
X15750777Y-14990436D02*
X15741253Y-14999960D01*
X15741253Y-14999960D02*
X15722206Y-15009484D01*
X15722206Y-15009484D02*
X15693634Y-15009484D01*
X15874587Y-15009484D02*
X15855539Y-14999960D01*
X15855539Y-14999960D02*
X15846015Y-14980912D01*
X15846015Y-14980912D02*
X15846015Y-14809484D01*
X16026968Y-14999960D02*
X16007920Y-15009484D01*
X16007920Y-15009484D02*
X15969825Y-15009484D01*
X15969825Y-15009484D02*
X15950777Y-14999960D01*
X15950777Y-14999960D02*
X15941253Y-14980912D01*
X15941253Y-14980912D02*
X15941253Y-14904722D01*
X15941253Y-14904722D02*
X15950777Y-14885674D01*
X15950777Y-14885674D02*
X15969825Y-14876150D01*
X15969825Y-14876150D02*
X16007920Y-14876150D01*
X16007920Y-14876150D02*
X16026968Y-14885674D01*
X16026968Y-14885674D02*
X16036491Y-14904722D01*
X16036491Y-14904722D02*
X16036491Y-14923769D01*
X16036491Y-14923769D02*
X15941253Y-14942817D01*
X16112682Y-14999960D02*
X16131730Y-15009484D01*
X16131730Y-15009484D02*
X16169825Y-15009484D01*
X16169825Y-15009484D02*
X16188872Y-14999960D01*
X16188872Y-14999960D02*
X16198396Y-14980912D01*
X16198396Y-14980912D02*
X16198396Y-14971388D01*
X16198396Y-14971388D02*
X16188872Y-14952341D01*
X16188872Y-14952341D02*
X16169825Y-14942817D01*
X16169825Y-14942817D02*
X16141253Y-14942817D01*
X16141253Y-14942817D02*
X16122206Y-14933293D01*
X16122206Y-14933293D02*
X16112682Y-14914246D01*
X16112682Y-14914246D02*
X16112682Y-14904722D01*
X16112682Y-14904722D02*
X16122206Y-14885674D01*
X16122206Y-14885674D02*
X16141253Y-14876150D01*
X16141253Y-14876150D02*
X16169825Y-14876150D01*
X16169825Y-14876150D02*
X16188872Y-14885674D01*
X16265063Y-15085674D02*
X16274587Y-15076150D01*
X16274587Y-15076150D02*
X16293634Y-15047579D01*
X16293634Y-15047579D02*
X16303158Y-15028531D01*
X16303158Y-15028531D02*
X16312682Y-14999960D01*
X16312682Y-14999960D02*
X16322206Y-14952341D01*
X16322206Y-14952341D02*
X16322206Y-14914246D01*
X16322206Y-14914246D02*
X16312682Y-14866627D01*
X16312682Y-14866627D02*
X16303158Y-14838055D01*
X16303158Y-14838055D02*
X16293634Y-14819008D01*
X16293634Y-14819008D02*
X16274587Y-14790436D01*
X16274587Y-14790436D02*
X16265063Y-14780912D01*
X16626968Y-15085674D02*
X16617444Y-15076150D01*
X16617444Y-15076150D02*
X16598396Y-15047579D01*
X16598396Y-15047579D02*
X16588872Y-15028531D01*
X16588872Y-15028531D02*
X16579349Y-14999960D01*
X16579349Y-14999960D02*
X16569825Y-14952341D01*
X16569825Y-14952341D02*
X16569825Y-14914246D01*
X16569825Y-14914246D02*
X16579349Y-14866627D01*
X16579349Y-14866627D02*
X16588872Y-14838055D01*
X16588872Y-14838055D02*
X16598396Y-14819008D01*
X16598396Y-14819008D02*
X16617444Y-14790436D01*
X16617444Y-14790436D02*
X16626968Y-14780912D01*
X16703158Y-14876150D02*
X16703158Y-15009484D01*
X16703158Y-14895198D02*
X16712682Y-14885674D01*
X16712682Y-14885674D02*
X16731730Y-14876150D01*
X16731730Y-14876150D02*
X16760301Y-14876150D01*
X16760301Y-14876150D02*
X16779349Y-14885674D01*
X16779349Y-14885674D02*
X16788873Y-14904722D01*
X16788873Y-14904722D02*
X16788873Y-15009484D01*
X16912682Y-15009484D02*
X16893634Y-14999960D01*
X16893634Y-14999960D02*
X16884111Y-14990436D01*
X16884111Y-14990436D02*
X16874587Y-14971388D01*
X16874587Y-14971388D02*
X16874587Y-14914246D01*
X16874587Y-14914246D02*
X16884111Y-14895198D01*
X16884111Y-14895198D02*
X16893634Y-14885674D01*
X16893634Y-14885674D02*
X16912682Y-14876150D01*
X16912682Y-14876150D02*
X16941254Y-14876150D01*
X16941254Y-14876150D02*
X16960301Y-14885674D01*
X16960301Y-14885674D02*
X16969825Y-14895198D01*
X16969825Y-14895198D02*
X16979349Y-14914246D01*
X16979349Y-14914246D02*
X16979349Y-14971388D01*
X16979349Y-14971388D02*
X16969825Y-14990436D01*
X16969825Y-14990436D02*
X16960301Y-14999960D01*
X16960301Y-14999960D02*
X16941254Y-15009484D01*
X16941254Y-15009484D02*
X16912682Y-15009484D01*
X17036492Y-14876150D02*
X17112682Y-14876150D01*
X17065063Y-14809484D02*
X17065063Y-14980912D01*
X17065063Y-14980912D02*
X17074587Y-14999960D01*
X17074587Y-14999960D02*
X17093634Y-15009484D01*
X17093634Y-15009484D02*
X17112682Y-15009484D01*
X17331730Y-14876150D02*
X17331730Y-15076150D01*
X17331730Y-14885674D02*
X17350777Y-14876150D01*
X17350777Y-14876150D02*
X17388873Y-14876150D01*
X17388873Y-14876150D02*
X17407920Y-14885674D01*
X17407920Y-14885674D02*
X17417444Y-14895198D01*
X17417444Y-14895198D02*
X17426968Y-14914246D01*
X17426968Y-14914246D02*
X17426968Y-14971388D01*
X17426968Y-14971388D02*
X17417444Y-14990436D01*
X17417444Y-14990436D02*
X17407920Y-14999960D01*
X17407920Y-14999960D02*
X17388873Y-15009484D01*
X17388873Y-15009484D02*
X17350777Y-15009484D01*
X17350777Y-15009484D02*
X17331730Y-14999960D01*
X17541254Y-15009484D02*
X17522206Y-14999960D01*
X17522206Y-14999960D02*
X17512682Y-14980912D01*
X17512682Y-14980912D02*
X17512682Y-14809484D01*
X17703158Y-15009484D02*
X17703158Y-14904722D01*
X17703158Y-14904722D02*
X17693635Y-14885674D01*
X17693635Y-14885674D02*
X17674587Y-14876150D01*
X17674587Y-14876150D02*
X17636492Y-14876150D01*
X17636492Y-14876150D02*
X17617444Y-14885674D01*
X17703158Y-14999960D02*
X17684111Y-15009484D01*
X17684111Y-15009484D02*
X17636492Y-15009484D01*
X17636492Y-15009484D02*
X17617444Y-14999960D01*
X17617444Y-14999960D02*
X17607920Y-14980912D01*
X17607920Y-14980912D02*
X17607920Y-14961865D01*
X17607920Y-14961865D02*
X17617444Y-14942817D01*
X17617444Y-14942817D02*
X17636492Y-14933293D01*
X17636492Y-14933293D02*
X17684111Y-14933293D01*
X17684111Y-14933293D02*
X17703158Y-14923769D01*
X17769825Y-14876150D02*
X17846015Y-14876150D01*
X17798396Y-14809484D02*
X17798396Y-14980912D01*
X17798396Y-14980912D02*
X17807920Y-14999960D01*
X17807920Y-14999960D02*
X17826968Y-15009484D01*
X17826968Y-15009484D02*
X17846015Y-15009484D01*
X17988873Y-14999960D02*
X17969825Y-15009484D01*
X17969825Y-15009484D02*
X17931730Y-15009484D01*
X17931730Y-15009484D02*
X17912682Y-14999960D01*
X17912682Y-14999960D02*
X17903158Y-14980912D01*
X17903158Y-14980912D02*
X17903158Y-14904722D01*
X17903158Y-14904722D02*
X17912682Y-14885674D01*
X17912682Y-14885674D02*
X17931730Y-14876150D01*
X17931730Y-14876150D02*
X17969825Y-14876150D01*
X17969825Y-14876150D02*
X17988873Y-14885674D01*
X17988873Y-14885674D02*
X17998396Y-14904722D01*
X17998396Y-14904722D02*
X17998396Y-14923769D01*
X17998396Y-14923769D02*
X17903158Y-14942817D01*
X18169825Y-15009484D02*
X18169825Y-14809484D01*
X18169825Y-14999960D02*
X18150777Y-15009484D01*
X18150777Y-15009484D02*
X18112682Y-15009484D01*
X18112682Y-15009484D02*
X18093635Y-14999960D01*
X18093635Y-14999960D02*
X18084111Y-14990436D01*
X18084111Y-14990436D02*
X18074587Y-14971388D01*
X18074587Y-14971388D02*
X18074587Y-14914246D01*
X18074587Y-14914246D02*
X18084111Y-14895198D01*
X18084111Y-14895198D02*
X18093635Y-14885674D01*
X18093635Y-14885674D02*
X18112682Y-14876150D01*
X18112682Y-14876150D02*
X18150777Y-14876150D01*
X18150777Y-14876150D02*
X18169825Y-14885674D01*
X18246016Y-15085674D02*
X18255539Y-15076150D01*
X18255539Y-15076150D02*
X18274587Y-15047579D01*
X18274587Y-15047579D02*
X18284111Y-15028531D01*
X18284111Y-15028531D02*
X18293635Y-14999960D01*
X18293635Y-14999960D02*
X18303158Y-14952341D01*
X18303158Y-14952341D02*
X18303158Y-14914246D01*
X18303158Y-14914246D02*
X18293635Y-14866627D01*
X18293635Y-14866627D02*
X18284111Y-14838055D01*
X18284111Y-14838055D02*
X18274587Y-14819008D01*
X18274587Y-14819008D02*
X18255539Y-14790436D01*
X18255539Y-14790436D02*
X18246016Y-14780912D01*
M02*
