M48
; DRILL file {KiCad 8.0.6} date 2025-02-22T02:29:47-0500
; FORMAT={-:-/ absolute / metric / decimal}
; #@! TF.CreationDate,2025-02-22T02:29:47-05:00
; #@! TF.GenerationSoftware,Kicad,Pcbnew,8.0.6
; #@! TF.FileFunction,Plated,1,4,PTH
FMAT,2
METRIC
; #@! TA.AperFunction,Plated,PTH,ViaDrill
T1C0.300
; #@! TA.AperFunction,Plated,PTH,ViaDrill
T2C0.400
; #@! TA.AperFunction,Plated,PTH,ViaDrill
T3C0.500
; #@! TA.AperFunction,Plated,PTH,ComponentDrill
T4C0.600
; #@! TA.AperFunction,Plated,PTH,ComponentDrill
T5C1.000
; #@! TA.AperFunction,Plated,PTH,ComponentDrill
T6C1.100
; #@! TA.AperFunction,Plated,PTH,ComponentDrill
T7C3.500
; #@! TA.AperFunction,Plated,PTH,ComponentDrill
T8C4.000
%
G90
G05
T1
X116.28Y-89.521
X116.28Y-92.061
X116.28Y-94.601
X116.28Y-97.141
X116.28Y-99.681
X116.28Y-102.221
X116.28Y-104.761
X116.28Y-107.301
X116.28Y-109.841
X116.28Y-112.381
X116.28Y-114.921
X116.28Y-117.461
X116.28Y-120.001
X116.55Y-58.0
X117.15Y-47.35
X117.44Y-49.031
X117.44Y-74.431
X117.44Y-76.971
X117.44Y-79.511
X117.44Y-82.051
X117.44Y-87.131
X118.05Y-43.15
X118.5Y-51.5
X118.82Y-46.341
X118.82Y-48.881
X118.82Y-53.961
X118.82Y-56.501
X118.82Y-59.041
X118.82Y-61.581
X118.82Y-69.201
X118.82Y-74.281
X118.82Y-89.521
X118.82Y-92.061
X118.82Y-94.601
X118.82Y-97.141
X118.82Y-99.681
X118.82Y-102.221
X118.82Y-104.761
X118.82Y-107.301
X118.82Y-109.841
X118.82Y-112.381
X118.82Y-114.921
X118.82Y-117.461
X118.82Y-120.001
X119.8Y-70.8
X119.9Y-64.7
X119.98Y-76.971
X119.98Y-82.051
X119.98Y-87.131
X120.75Y-40.75
X121.36Y-46.341
X121.36Y-48.881
X121.36Y-51.421
X121.36Y-53.961
X121.36Y-56.501
X121.36Y-59.041
X121.36Y-61.581
X121.36Y-69.201
X121.36Y-71.741
X121.36Y-74.281
X121.36Y-89.521
X121.36Y-92.061
X121.36Y-94.601
X121.36Y-97.141
X121.36Y-99.681
X121.36Y-102.221
X121.36Y-104.761
X121.36Y-107.301
X121.36Y-109.841
X121.36Y-112.381
X121.36Y-114.921
X121.36Y-117.461
X121.36Y-120.001
X121.65Y-44.75
X122.4Y-64.7
X122.52Y-76.971
X122.52Y-82.051
X123.8Y-52.8
X123.9Y-33.641
X123.9Y-41.261
X123.9Y-44.4
X123.9Y-46.341
X123.9Y-48.881
X123.9Y-56.501
X123.9Y-59.041
X123.9Y-69.201
X123.9Y-71.741
X123.9Y-74.281
X123.9Y-89.521
X123.9Y-92.061
X123.9Y-94.601
X123.9Y-97.141
X123.9Y-99.681
X123.9Y-102.221
X123.9Y-104.761
X123.9Y-107.301
X123.9Y-109.841
X123.9Y-112.381
X123.9Y-114.921
X123.9Y-117.461
X123.9Y-120.001
X124.4Y-65.3
X124.5Y-39.6
X124.55Y-51.1
X124.75Y-61.2
X125.06Y-76.971
X125.06Y-82.051
X125.06Y-87.131
X125.06Y-122.691
X125.06Y-125.231
X125.06Y-127.771
X125.3Y-62.8
X125.7Y-38.4
X125.8Y-37.3
X126.0Y-57.9
X126.44Y-33.641
X126.44Y-36.181
X126.44Y-46.341
X126.44Y-48.881
X126.44Y-69.201
X126.44Y-74.281
X126.44Y-89.521
X126.44Y-92.061
X126.44Y-94.601
X126.44Y-97.141
X126.44Y-99.681
X126.44Y-104.761
X126.44Y-107.301
X126.44Y-109.841
X126.44Y-112.381
X126.44Y-114.921
X126.44Y-117.461
X126.44Y-120.001
X126.44Y-122.541
X126.44Y-127.621
X126.44Y-130.161
X127.6Y-71.891
X127.6Y-76.971
X127.6Y-79.511
X127.6Y-82.051
X127.6Y-87.131
X128.98Y-33.641
X128.98Y-36.181
X128.98Y-38.721
X128.98Y-46.341
X128.98Y-64.121
X128.98Y-69.201
X128.98Y-71.741
X128.98Y-89.521
X128.98Y-92.061
X128.98Y-94.601
X128.98Y-97.141
X128.98Y-99.681
X128.98Y-107.301
X128.98Y-109.841
X128.98Y-112.381
X128.98Y-114.921
X128.98Y-117.461
X128.98Y-120.001
X128.98Y-122.541
X128.98Y-130.161
X130.14Y-59.191
X130.14Y-76.971
X130.14Y-82.051
X130.14Y-87.131
X130.6Y-57.1
X131.52Y-33.641
X131.52Y-36.181
X131.52Y-38.721
X131.52Y-61.581
X131.52Y-64.121
X131.52Y-89.521
X131.52Y-92.061
X131.52Y-94.601
X131.52Y-97.141
X131.52Y-99.681
X131.52Y-102.221
X131.52Y-104.761
X131.52Y-107.301
X131.52Y-109.841
X131.52Y-112.381
X131.52Y-114.921
X131.52Y-117.461
X131.52Y-120.001
X131.52Y-122.541
X131.52Y-125.081
X131.52Y-127.621
X131.52Y-130.161
X132.68Y-56.651
X132.68Y-76.971
X132.68Y-82.051
X132.68Y-87.131
X134.0Y-48.5
X134.06Y-33.641
X134.06Y-36.181
X134.06Y-41.261
X134.06Y-43.801
X134.06Y-46.341
X134.06Y-99.681
X134.06Y-102.221
X134.06Y-104.761
X134.06Y-107.301
X134.06Y-109.841
X134.06Y-112.381
X134.06Y-114.921
X134.06Y-117.461
X134.06Y-120.001
X134.06Y-122.541
X134.06Y-125.081
X134.06Y-127.621
X134.06Y-130.161
X134.53Y-60.8
X136.6Y-33.641
X136.6Y-36.181
X136.6Y-71.741
X136.6Y-89.521
X136.6Y-92.061
X136.6Y-94.601
X136.6Y-97.141
X136.6Y-104.761
X136.6Y-107.301
X136.6Y-109.841
X136.6Y-112.381
X136.6Y-114.921
X136.6Y-117.461
X136.6Y-120.001
X136.6Y-122.541
X136.6Y-125.081
X136.6Y-127.621
X136.6Y-130.161
X137.76Y-76.971
X137.76Y-79.511
X137.76Y-82.051
X137.76Y-84.591
X137.76Y-87.131
X138.684Y-64.135
X139.14Y-33.641
X139.14Y-36.181
X139.14Y-48.881
X139.14Y-59.041
X139.14Y-89.521
X139.14Y-92.061
X139.14Y-94.601
X139.14Y-97.141
X139.14Y-104.761
X139.14Y-107.301
X139.14Y-109.841
X139.14Y-112.381
X139.14Y-114.921
X139.14Y-117.461
X139.14Y-120.001
X139.14Y-122.541
X139.14Y-125.081
X139.14Y-127.621
X139.14Y-130.161
X140.3Y-76.971
X140.3Y-79.511
X140.3Y-82.051
X140.3Y-84.591
X140.3Y-87.131
X140.4Y-65.8
X140.8Y-61.8
X141.4Y-52.3
X141.68Y-33.641
X141.68Y-36.181
X141.68Y-43.801
X141.68Y-71.741
X141.68Y-76.821
X141.68Y-79.361
X141.68Y-81.901
X141.68Y-84.441
X141.68Y-86.981
X141.68Y-89.521
X141.68Y-92.061
X141.68Y-94.601
X141.68Y-104.761
X141.68Y-107.301
X141.68Y-109.841
X141.68Y-112.381
X141.68Y-114.921
X141.68Y-117.461
X141.68Y-120.001
X141.68Y-122.541
X141.68Y-125.081
X141.68Y-127.621
X141.68Y-130.161
X142.1Y-45.45
X143.2Y-48.5
X143.75Y-45.3
X143.8Y-58.8
X144.22Y-33.641
X144.22Y-36.181
X144.22Y-104.761
X144.22Y-107.301
X144.22Y-109.841
X144.22Y-112.381
X144.22Y-114.921
X144.22Y-117.461
X144.22Y-120.001
X144.22Y-122.541
X144.22Y-125.081
X144.22Y-127.621
X144.22Y-130.161
X145.0Y-44.8
X145.38Y-102.371
X145.542Y-64.135
X145.7Y-61.5
X145.9Y-51.2
X146.76Y-33.641
X146.76Y-36.181
X146.76Y-46.341
X146.76Y-59.041
X146.76Y-69.201
X146.76Y-71.741
X146.76Y-76.821
X146.76Y-79.361
X146.76Y-81.901
X146.76Y-84.441
X146.76Y-86.981
X146.76Y-89.521
X146.76Y-92.061
X146.76Y-94.601
X146.76Y-97.141
X146.76Y-102.221
X146.76Y-104.761
X146.76Y-107.301
X146.76Y-109.841
X146.76Y-112.381
X146.76Y-114.921
X146.76Y-117.461
X146.76Y-120.001
X146.76Y-122.541
X146.76Y-125.081
X146.76Y-127.621
X146.76Y-130.161
X146.9Y-60.8
X147.6Y-54.421
X147.92Y-66.811
X148.95Y-74.4
X149.1Y-70.9
X149.3Y-33.641
X149.3Y-36.181
X149.3Y-38.721
X149.3Y-61.581
X149.3Y-76.821
X149.3Y-79.361
X149.3Y-81.901
X149.3Y-89.521
X149.3Y-92.061
X149.3Y-94.601
X149.3Y-97.141
X149.3Y-104.761
X149.3Y-107.301
X149.3Y-109.841
X149.3Y-112.381
X149.3Y-114.921
X149.3Y-117.461
X149.3Y-120.001
X149.3Y-122.541
X149.3Y-130.161
X150.46Y-74.431
X151.84Y-33.641
X151.84Y-36.181
X151.84Y-38.721
X151.84Y-61.581
X151.84Y-71.741
X151.84Y-74.281
X151.84Y-76.821
X151.84Y-79.361
X151.84Y-81.901
X151.84Y-89.521
X151.84Y-92.061
X151.84Y-94.601
X151.84Y-97.141
X151.84Y-107.301
X151.84Y-109.841
X151.84Y-112.381
X151.84Y-114.921
X151.84Y-117.461
X151.84Y-120.001
X151.84Y-122.541
X151.84Y-130.161
X154.38Y-33.641
X154.38Y-38.721
X154.38Y-46.341
X154.38Y-71.741
X154.38Y-74.281
X154.38Y-76.821
X154.38Y-79.361
X154.38Y-81.901
X154.38Y-89.521
X154.38Y-92.061
X154.38Y-94.601
X154.38Y-97.141
X154.38Y-102.221
X154.38Y-104.761
X154.38Y-107.301
X154.38Y-109.841
X154.38Y-112.381
X154.38Y-114.921
X154.38Y-117.461
X154.38Y-120.001
X154.38Y-122.541
X154.38Y-125.081
X154.38Y-127.621
X154.38Y-130.161
X154.49Y-59.8
X155.15Y-36.95
X155.7Y-48.4
X156.464Y-63.119
X156.92Y-33.641
X156.92Y-36.181
X156.92Y-38.721
X156.92Y-41.261
X156.92Y-43.801
X156.92Y-46.341
X156.92Y-71.741
X156.92Y-74.281
X156.92Y-76.821
X156.92Y-79.361
X156.92Y-81.901
X156.92Y-89.521
X156.92Y-92.061
X156.92Y-94.601
X156.92Y-97.141
X156.92Y-102.221
X156.92Y-104.761
X156.92Y-107.301
X156.92Y-117.461
X156.92Y-122.541
X156.92Y-127.621
X156.92Y-130.161
X158.5Y-59.0
X159.46Y-33.641
X159.46Y-36.181
X159.46Y-38.721
X159.46Y-46.341
X159.46Y-61.581
X159.46Y-130.161
X159.9Y-49.2
X160.62Y-59.191
X161.5Y-86.3
X161.6Y-83.4
X161.6Y-85.5
X161.6Y-87.581
X161.7Y-82.2
X161.8Y-68.1
X161.9Y-88.9
X161.987Y-90.105
X162.0Y-33.641
X162.0Y-36.181
X162.0Y-38.721
X162.0Y-46.341
X162.0Y-59.041
X162.0Y-61.581
X162.0Y-102.221
X162.0Y-104.761
X162.0Y-107.301
X162.0Y-109.841
X162.0Y-112.381
X162.0Y-117.461
X162.0Y-120.001
X162.0Y-122.541
X162.0Y-127.621
X162.0Y-130.161
X164.54Y-33.641
X164.54Y-36.181
X164.54Y-38.721
X164.54Y-41.261
X164.54Y-43.801
X164.54Y-46.341
X164.54Y-59.041
X164.54Y-61.581
X164.54Y-64.121
X164.54Y-66.661
X164.54Y-97.141
X164.54Y-99.681
X164.54Y-102.221
X164.54Y-104.761
X164.54Y-107.301
X164.54Y-109.841
X164.54Y-112.381
X164.54Y-117.461
X164.54Y-120.001
X164.54Y-122.541
X164.54Y-127.621
X164.54Y-130.161
X165.28Y-51.421
X165.6Y-91.86
X165.6Y-94.4
X165.65Y-89.5
X165.7Y-86.95
X165.7Y-115.071
X165.7Y-125.231
X167.08Y-33.641
X167.08Y-36.181
X167.08Y-38.721
X167.08Y-41.261
X167.08Y-43.801
X167.08Y-46.341
X167.08Y-61.581
X167.08Y-66.661
X167.08Y-112.381
X167.08Y-114.921
X167.08Y-117.461
X167.08Y-120.001
X167.08Y-122.541
X167.08Y-125.081
X167.08Y-127.621
X167.08Y-130.161
X167.767Y-57.404
X167.82Y-51.421
X169.62Y-36.181
X169.62Y-43.801
X169.62Y-46.341
X169.62Y-59.041
X169.62Y-71.741
X169.62Y-74.281
X169.62Y-76.821
X169.62Y-86.981
X169.62Y-89.521
X169.62Y-92.061
X169.62Y-94.601
X169.62Y-97.141
X169.62Y-99.681
X169.62Y-102.221
X169.62Y-104.761
X169.62Y-107.301
X169.62Y-117.461
X169.62Y-122.541
X169.62Y-127.621
X169.62Y-130.161
X169.8Y-68.0
X170.8Y-58.0
X171.9Y-34.8
X171.9Y-42.7
X172.0Y-36.3
X172.16Y-33.641
X172.16Y-51.421
X172.16Y-125.081
X172.16Y-127.621
X172.16Y-130.161
X172.5Y-44.6
X172.7Y-46.6
X172.889Y-37.354
X173.32Y-120.151
X173.8Y-54.6
X174.3Y-52.6
X174.7Y-33.8
X174.7Y-61.581
X174.7Y-109.841
X174.7Y-112.381
X174.7Y-114.921
X174.7Y-122.541
X174.7Y-125.081
X174.7Y-127.621
X174.7Y-130.161
X174.8Y-46.9
X175.188Y-37.287
X175.3Y-50.6
X175.6Y-43.0
X175.7Y-36.3
X175.9Y-34.8
X175.9Y-44.7
X175.9Y-54.6
X177.24Y-33.641
X177.24Y-36.181
X177.24Y-41.261
X177.24Y-122.541
X177.24Y-127.621
X177.24Y-130.161
X178.2Y-85.6
X178.4Y-94.751
X178.4Y-97.291
X178.4Y-99.831
X178.4Y-102.371
X178.4Y-125.231
X179.197Y-68.453
X179.3Y-50.8
X179.78Y-33.641
X179.78Y-36.181
X179.78Y-38.721
X179.78Y-41.261
X179.78Y-74.281
X179.78Y-76.821
X179.78Y-79.361
X179.78Y-84.441
X179.78Y-86.981
X179.78Y-89.521
X179.78Y-92.061
X179.78Y-94.601
X179.78Y-97.141
X179.78Y-99.681
X179.78Y-102.221
X179.78Y-104.761
X179.78Y-107.301
X179.78Y-122.541
X179.78Y-125.081
X179.78Y-127.621
X179.78Y-130.161
X179.9Y-52.8
X180.086Y-69.977
X180.4Y-85.3
X180.5Y-86.3
X180.9Y-44.7
X180.94Y-109.991
X180.94Y-115.071
X181.0Y-61.65
X181.864Y-80.01
X181.939Y-68.033
X182.2Y-80.9
X182.32Y-33.641
X182.32Y-36.181
X182.32Y-38.721
X182.32Y-41.261
X182.32Y-43.801
X182.32Y-64.121
X182.32Y-84.441
X182.32Y-86.981
X182.32Y-89.521
X182.32Y-92.061
X182.32Y-94.601
X182.32Y-97.141
X182.32Y-99.681
X182.32Y-102.221
X182.32Y-104.761
X182.32Y-107.301
X182.32Y-109.841
X182.32Y-125.081
X182.32Y-127.621
X182.32Y-130.161
X182.499Y-68.453
X182.514Y-79.375
X182.665Y-61.637
X182.8Y-50.7
X183.0Y-58.4
X183.1Y-52.8
X183.1Y-63.2
X183.5Y-61.65
X183.515Y-65.659
X184.0Y-59.2
X184.15Y-66.675
X184.473Y-86.519
X184.86Y-33.641
X184.86Y-64.121
X184.86Y-69.201
X184.86Y-74.281
X184.86Y-76.821
X184.86Y-97.141
X184.86Y-99.681
X184.86Y-102.221
X184.86Y-104.761
X184.86Y-107.301
X184.86Y-109.841
X184.86Y-112.381
X184.86Y-114.921
X184.86Y-120.001
X184.86Y-122.541
X184.86Y-127.621
X184.86Y-130.161
X185.0Y-70.577
X185.293Y-84.201
X185.9Y-50.6
X185.9Y-52.9
X186.02Y-41.411
X186.032Y-92.075
X186.544Y-70.8
X186.852Y-46.482
X186.852Y-58.42
X187.4Y-33.641
X187.4Y-41.261
X187.4Y-43.801
X187.4Y-97.141
X187.4Y-99.681
X187.4Y-102.221
X187.4Y-104.761
X187.4Y-107.301
X187.4Y-109.841
X187.4Y-112.381
X187.4Y-114.921
X187.4Y-120.001
X187.4Y-122.541
X187.4Y-125.081
X187.4Y-127.621
X187.4Y-130.161
X187.452Y-45.847
X187.579Y-59.182
X187.781Y-67.853
X187.981Y-68.524
X188.214Y-64.897
X188.214Y-69.977
X188.3Y-83.3
X188.4Y-50.8
X188.4Y-52.8
X188.722Y-89.535
X189.357Y-80.137
X189.94Y-33.641
X189.94Y-94.601
X189.94Y-97.141
X189.94Y-99.681
X189.94Y-102.221
X189.94Y-104.761
X189.94Y-107.301
X189.94Y-109.841
X189.94Y-112.381
X189.94Y-114.921
X189.94Y-120.001
X189.94Y-122.541
X189.94Y-125.081
X189.94Y-127.621
X189.94Y-130.161
X190.119Y-79.502
X190.7Y-50.8
X190.7Y-52.8
X190.7Y-77.7
X190.881Y-65.024
X190.881Y-70.485
X191.1Y-41.411
X191.1Y-43.951
X191.1Y-49.031
X191.5Y-54.3
X192.48Y-33.641
X192.48Y-41.261
X192.48Y-43.801
X192.48Y-48.881
X192.48Y-79.361
X192.48Y-81.901
X192.48Y-97.141
X192.48Y-99.681
X192.48Y-102.221
X192.48Y-104.761
X192.48Y-107.301
X192.48Y-109.841
X192.48Y-112.381
X192.48Y-114.921
X192.48Y-127.621
X192.48Y-130.161
X192.8Y-52.8
X192.8Y-76.9
X192.9Y-56.3
X192.9Y-59.0
X192.9Y-61.4
X192.9Y-67.3
X192.9Y-73.7
X193.0Y-50.8
X193.0Y-71.2
X193.485Y-92.609
X193.548Y-89.535
X194.056Y-71.0
X194.056Y-84.201
X194.756Y-67.183
X195.02Y-33.641
X195.02Y-46.341
X195.02Y-48.881
X195.02Y-53.961
X195.02Y-56.501
X195.02Y-59.041
X195.02Y-61.581
X195.02Y-112.381
X195.02Y-114.921
X195.02Y-127.621
X195.02Y-130.161
X195.2Y-50.8
X197.56Y-33.641
X197.56Y-41.261
X197.56Y-43.801
X197.56Y-46.341
X197.56Y-48.881
X197.56Y-66.661
X197.56Y-69.201
X197.56Y-71.741
X197.56Y-74.281
X197.56Y-76.821
X197.56Y-79.361
X197.56Y-81.901
X197.56Y-84.441
X197.56Y-89.521
X197.56Y-92.061
X197.56Y-94.601
X197.56Y-97.141
X197.56Y-99.681
X197.56Y-102.221
X197.56Y-104.761
X197.56Y-107.301
X197.56Y-109.841
X197.56Y-112.381
X197.56Y-114.921
X197.56Y-127.621
X197.56Y-130.161
X198.72Y-36.331
X198.72Y-38.871
X198.72Y-54.111
X198.72Y-56.651
X198.72Y-59.191
X198.72Y-61.731
X198.72Y-64.271
X200.1Y-33.641
X200.1Y-36.181
X200.1Y-38.721
X200.1Y-41.261
X200.1Y-43.801
X200.1Y-46.341
X200.1Y-48.881
X200.1Y-51.421
X200.1Y-53.961
X200.1Y-56.501
X200.1Y-59.041
X200.1Y-61.581
X200.1Y-64.121
X200.1Y-66.661
X200.1Y-69.201
X200.1Y-71.741
X200.1Y-74.281
X200.1Y-76.821
X200.1Y-79.361
X200.1Y-81.901
X200.1Y-84.441
X200.1Y-89.521
X200.1Y-92.061
X200.1Y-94.601
X200.1Y-97.141
X200.1Y-99.681
X200.1Y-102.221
X200.1Y-104.761
X200.1Y-107.301
X200.1Y-109.841
X200.1Y-112.381
X200.1Y-114.921
X200.1Y-117.461
X200.1Y-120.001
X200.1Y-121.9
X200.1Y-125.081
X200.1Y-127.621
X200.1Y-130.161
X202.64Y-33.641
X202.64Y-36.181
X202.64Y-38.721
X202.64Y-41.261
X202.64Y-43.801
X202.64Y-46.341
X202.64Y-48.881
X202.64Y-51.421
X202.64Y-53.961
X202.64Y-56.501
X202.64Y-59.041
X202.64Y-61.581
X202.64Y-64.121
X202.64Y-66.661
X202.64Y-69.201
X202.64Y-71.741
X202.64Y-74.281
X202.64Y-76.821
X202.64Y-79.361
X202.64Y-81.901
X202.64Y-84.441
X202.64Y-92.061
X202.64Y-94.601
X202.64Y-97.141
X202.64Y-99.681
X202.64Y-102.221
X202.64Y-104.761
X202.64Y-107.301
X202.64Y-109.841
X202.64Y-112.381
X202.64Y-114.921
X202.64Y-117.461
X202.64Y-120.001
X202.64Y-122.541
X202.64Y-125.081
X202.64Y-127.621
X202.64Y-130.161
X205.18Y-33.641
X205.18Y-36.181
X205.18Y-38.721
X205.18Y-41.261
X205.18Y-43.801
X205.18Y-46.341
X205.18Y-48.881
X205.18Y-56.501
X205.18Y-59.041
X205.18Y-61.581
X205.18Y-64.121
X205.18Y-66.661
X205.18Y-74.281
X205.18Y-76.821
X205.18Y-79.361
X205.18Y-81.901
X205.18Y-84.441
X205.18Y-92.061
X205.18Y-94.601
X205.18Y-97.141
X205.18Y-99.681
X205.18Y-102.221
X205.18Y-112.381
X205.18Y-114.921
X205.18Y-130.161
X207.72Y-41.261
X207.72Y-43.801
X207.72Y-46.341
X207.72Y-59.041
X207.72Y-61.581
X207.72Y-64.121
X207.72Y-66.661
X207.72Y-76.821
X207.72Y-79.361
X207.72Y-81.901
X207.72Y-94.601
X207.72Y-97.141
X207.72Y-99.681
X207.72Y-102.221
X207.72Y-104.761
X207.72Y-114.921
X207.72Y-130.161
X208.88Y-84.591
X210.26Y-41.261
X210.26Y-43.801
X210.26Y-61.581
X210.26Y-64.121
X210.26Y-66.661
X210.26Y-79.361
X210.26Y-94.601
X210.26Y-97.141
X210.26Y-99.681
X210.26Y-130.161
X210.6Y-120.0
X211.3Y-117.8
X212.8Y-41.261
X212.8Y-43.801
X212.8Y-46.341
X212.8Y-48.881
X213.96Y-38.871
X213.96Y-122.691
T2
X134.493Y-90.805
X173.15Y-45.466
X173.75Y-40.65
X174.35Y-45.466
X177.546Y-51.216
X177.546Y-52.416
X179.578Y-90.805
X186.055Y-90.805
X196.299Y-62.949
X196.68Y-53.129
X197.147Y-63.797
X197.528Y-52.281
T3
X116.117Y-85.383
X120.988Y-79.5
X125.4Y-35.85
X133.731Y-72.39
X135.509Y-69.088
X135.509Y-70.231
X136.398Y-69.596
X137.287Y-69.088
X137.287Y-70.231
X139.192Y-56.896
X139.319Y-52.07
X139.446Y-99.568
X141.224Y-58.6
X143.129Y-53.721
X143.2Y-98.3
X144.526Y-97.155
X145.276Y-68.5
X146.685Y-99.568
X155.5Y-68.5
X155.5Y-69.5
X156.5Y-68.5
X156.5Y-69.5
X157.5Y-68.5
X157.5Y-69.5
X162.0Y-66.0
X162.0Y-67.0
X162.433Y-99.568
X162.687Y-69.85
X163.5Y-66.0
X163.5Y-67.0
X164.719Y-78.74
X164.846Y-69.977
X165.215Y-82.761
X165.947Y-85.09
X166.751Y-63.246
X167.855Y-69.0
X167.894Y-60.198
X170.6Y-81.0
X170.6Y-83.2
X170.688Y-66.802
X171.45Y-105.537
X171.831Y-70.993
X172.212Y-54.737
X172.72Y-69.342
X172.72Y-123.317
X173.355Y-63.627
X173.799Y-68.008
X174.244Y-60.198
X175.387Y-67.564
X175.387Y-117.856
X176.53Y-62.484
X177.927Y-72.009
X178.181Y-106.172
X178.181Y-119.148
X179.5Y-63.3
X179.578Y-46.228
X179.578Y-47.371
X179.578Y-48.641
X180.594Y-46.736
X180.594Y-48.006
X180.594Y-121.031
X181.483Y-46.228
X181.483Y-47.371
X181.483Y-48.641
X182.499Y-46.736
X182.499Y-48.006
X183.414Y-75.311
X184.404Y-35.56
X185.039Y-56.642
X185.789Y-55.499
X186.25Y-62.25
X186.69Y-66.294
X187.706Y-66.04
X189.23Y-76.962
X189.357Y-73.533
X189.484Y-45.085
X189.484Y-58.293
X190.736Y-67.516
X192.151Y-68.453
X193.6Y-69.4
X195.3Y-64.77
X198.628Y-117.348
X198.628Y-119.507
X198.628Y-121.666
X198.628Y-123.825
X198.628Y-125.984
X202.184Y-90.424
X205.0Y-118.5
X205.0Y-119.5
X206.0Y-118.5
X206.0Y-119.5
X207.0Y-118.5
X207.0Y-119.5
X208.0Y-118.5
X208.0Y-119.5
T5
X132.5Y-78.919
X132.5Y-85.419
X136.09Y-102.292
X138.63Y-102.292
X141.17Y-102.292
X141.745Y-40.7
X143.13Y-43.595
X143.71Y-102.292
X144.515Y-40.7
X145.9Y-43.54
X147.285Y-40.7
X148.336Y-84.582
X148.336Y-87.122
X150.876Y-84.582
X150.876Y-87.122
X153.416Y-84.582
X153.416Y-87.122
X155.956Y-84.582
X155.956Y-87.122
X186.92Y-35.9
X186.92Y-38.44
X189.46Y-35.9
X189.46Y-38.44
X192.0Y-35.9
X192.0Y-38.44
X194.54Y-35.9
X194.54Y-38.44
X197.08Y-35.9
X197.08Y-38.44
X206.85Y-49.7
X206.85Y-52.7
X206.85Y-55.7
X206.85Y-68.5
X206.85Y-71.5
X206.85Y-74.5
X206.85Y-87.2
X206.85Y-90.2
X206.85Y-93.2
X206.85Y-106.0
X206.85Y-109.0
X206.85Y-112.0
X209.85Y-49.7
X209.85Y-52.7
X209.85Y-55.7
X209.85Y-68.5
X209.85Y-71.5
X209.85Y-74.5
X209.85Y-87.2
X209.85Y-90.2
X209.85Y-93.2
X209.85Y-106.0
X209.85Y-109.0
X209.85Y-112.0
T6
X156.782Y-111.252
X156.782Y-115.752
X156.782Y-121.083
X156.782Y-125.583
X163.282Y-111.252
X163.282Y-115.752
X163.282Y-121.083
X163.282Y-125.583
X169.903Y-111.252
X169.903Y-115.752
X169.903Y-121.083
X169.903Y-125.583
X176.403Y-111.252
X176.403Y-115.752
X176.403Y-121.083
X176.403Y-125.583
T7
X127.85Y-42.9
X161.15Y-42.9
T8
X137.667Y-43.5
X151.387Y-43.5
T4
X169.68Y-34.025G85X169.68Y-33.225
G05
X169.68Y-38.355G85X169.68Y-37.255
G05
X178.32Y-34.025G85X178.32Y-33.225
G05
X178.32Y-38.355G85X178.32Y-37.255
G05
M30
