%TF.GenerationSoftware,KiCad,Pcbnew,8.0.4*%
%TF.CreationDate,2025-01-13T20:54:39-07:00*%
%TF.ProjectId,RF-Board-V1-2024,52462d42-6f61-4726-942d-56312d323032,rev?*%
%TF.SameCoordinates,Original*%
%TF.FileFunction,Soldermask,Bot*%
%TF.FilePolarity,Negative*%
%FSLAX46Y46*%
G04 Gerber Fmt 4.6, Leading zero omitted, Abs format (unit mm)*
G04 Created by KiCad (PCBNEW 8.0.4) date 2025-01-13 20:54:39*
%MOMM*%
%LPD*%
G01*
G04 APERTURE LIST*
G04 Aperture macros list*
%AMRoundRect*
0 Rectangle with rounded corners*
0 $1 Rounding radius*
0 $2 $3 $4 $5 $6 $7 $8 $9 X,Y pos of 4 corners*
0 Add a 4 corners polygon primitive as box body*
4,1,4,$2,$3,$4,$5,$6,$7,$8,$9,$2,$3,0*
0 Add four circle primitives for the rounded corners*
1,1,$1+$1,$2,$3*
1,1,$1+$1,$4,$5*
1,1,$1+$1,$6,$7*
1,1,$1+$1,$8,$9*
0 Add four rect primitives between the rounded corners*
20,1,$1+$1,$2,$3,$4,$5,0*
20,1,$1+$1,$4,$5,$6,$7,0*
20,1,$1+$1,$6,$7,$8,$9,0*
20,1,$1+$1,$8,$9,$2,$3,0*%
G04 Aperture macros list end*
%ADD10C,2.529000*%
%ADD11C,2.829000*%
%ADD12C,6.400000*%
%ADD13C,2.000000*%
%ADD14C,0.650000*%
%ADD15O,1.000000X2.100000*%
%ADD16O,1.000000X1.800000*%
%ADD17C,4.500000*%
%ADD18O,1.500000X2.000000*%
%ADD19C,6.000000*%
%ADD20R,1.700000X1.700000*%
%ADD21O,1.700000X1.700000*%
%ADD22C,0.900000*%
%ADD23RoundRect,0.250000X0.475000X-0.250000X0.475000X0.250000X-0.475000X0.250000X-0.475000X-0.250000X0*%
%ADD24RoundRect,0.250000X-0.262500X-0.450000X0.262500X-0.450000X0.262500X0.450000X-0.262500X0.450000X0*%
%ADD25RoundRect,0.250000X-0.450000X0.262500X-0.450000X-0.262500X0.450000X-0.262500X0.450000X0.262500X0*%
%ADD26RoundRect,0.150000X0.825000X0.150000X-0.825000X0.150000X-0.825000X-0.150000X0.825000X-0.150000X0*%
%ADD27RoundRect,0.250000X-1.500000X-0.550000X1.500000X-0.550000X1.500000X0.550000X-1.500000X0.550000X0*%
%ADD28RoundRect,0.102000X-1.980000X1.980000X-1.980000X-1.980000X1.980000X-1.980000X1.980000X1.980000X0*%
%ADD29RoundRect,0.102000X-2.540000X0.635000X-2.540000X-0.635000X2.540000X-0.635000X2.540000X0.635000X0*%
G04 APERTURE END LIST*
D10*
%TO.C,J6*%
X143000000Y-26000000D03*
D11*
X140460000Y-23460000D03*
X145540000Y-23460000D03*
X140460000Y-28540000D03*
X145540000Y-28540000D03*
%TD*%
D12*
%TO.C,H2*%
X169025000Y-114300000D03*
%TD*%
D13*
%TO.C,SW4*%
X139500000Y-77970000D03*
X146000000Y-77970000D03*
X139500000Y-82470000D03*
X146000000Y-82470000D03*
%TD*%
%TO.C,SW6*%
X125330000Y-23400000D03*
X131830000Y-23400000D03*
X125330000Y-27900000D03*
X131830000Y-27900000D03*
%TD*%
%TO.C,SW2*%
X122150000Y-95450000D03*
X122150000Y-88950000D03*
X126650000Y-95450000D03*
X126650000Y-88950000D03*
%TD*%
D14*
%TO.C,J8*%
X131253369Y-113032500D03*
X137033369Y-113032500D03*
D15*
X129823369Y-112532500D03*
D16*
X129823369Y-116712500D03*
D15*
X138463369Y-112532500D03*
D16*
X138463369Y-116712500D03*
%TD*%
D17*
%TO.C,J1*%
X86427000Y-107319000D03*
X119727000Y-107319000D03*
D18*
X101677000Y-106679000D03*
X104447000Y-106624000D03*
X100292000Y-109519000D03*
X103062000Y-109519000D03*
X105832000Y-109519000D03*
D19*
X96190000Y-106719000D03*
X109910000Y-106719000D03*
%TD*%
D12*
%TO.C,H4*%
X79025000Y-114300000D03*
%TD*%
D13*
%TO.C,SW3*%
X93930000Y-23360000D03*
X100430000Y-23360000D03*
X93930000Y-27860000D03*
X100430000Y-27860000D03*
%TD*%
D20*
%TO.C,J4*%
X172170000Y-75020000D03*
D21*
X172170000Y-77560000D03*
%TD*%
D12*
%TO.C,H3*%
X79025000Y-24300000D03*
%TD*%
D13*
%TO.C,SW1*%
X113650000Y-95450000D03*
X113650000Y-88950000D03*
X118150000Y-95450000D03*
X118150000Y-88950000D03*
%TD*%
D22*
%TO.C,SW7*%
X108940000Y-80150000D03*
X108940000Y-83150000D03*
%TD*%
D12*
%TO.C,H1*%
X169025000Y-24300000D03*
%TD*%
D13*
%TO.C,SW5*%
X167590000Y-37290000D03*
X167590000Y-30790000D03*
X172090000Y-37290000D03*
X172090000Y-30790000D03*
%TD*%
D10*
%TO.C,J5*%
X155500000Y-58800000D03*
D11*
X158040000Y-61340000D03*
X152960000Y-61340000D03*
X158040000Y-56260000D03*
X152960000Y-56260000D03*
%TD*%
D10*
%TO.C,J3*%
X119500000Y-26000000D03*
D11*
X116960000Y-23460000D03*
X122040000Y-23460000D03*
X116960000Y-28540000D03*
X122040000Y-28540000D03*
%TD*%
D10*
%TO.C,J2*%
X87000000Y-25500000D03*
D11*
X89540000Y-28040000D03*
X84460000Y-28040000D03*
X89540000Y-22960000D03*
X84460000Y-22960000D03*
%TD*%
D23*
%TO.C,C5*%
X119300000Y-114950000D03*
X119300000Y-113050000D03*
%TD*%
D24*
%TO.C,R19*%
X114087500Y-110300000D03*
X115912500Y-110300000D03*
%TD*%
D25*
%TO.C,R5*%
X109100000Y-113287500D03*
X109100000Y-115112500D03*
%TD*%
D26*
%TO.C,U5*%
X116475000Y-112295000D03*
X116475000Y-113565000D03*
X116475000Y-114835000D03*
X116475000Y-116105000D03*
X111525000Y-116105000D03*
X111525000Y-114835000D03*
X111525000Y-113565000D03*
X111525000Y-112295000D03*
%TD*%
D27*
%TO.C,C40*%
X157175000Y-113575000D03*
X162775000Y-113575000D03*
%TD*%
D23*
%TO.C,C13*%
X106500000Y-116650000D03*
X106500000Y-114750000D03*
%TD*%
D28*
%TO.C,BT1*%
X163500000Y-96500000D03*
D29*
X163500000Y-85515000D03*
X163500000Y-107485000D03*
%TD*%
M02*
