M48
; DRILL file {KiCad 8.0.2} date 2025-01-08T16:49:49-0700
; FORMAT={-:-/ absolute / metric / decimal}
; #@! TF.CreationDate,2025-01-08T16:49:49-07:00
; #@! TF.GenerationSoftware,Kicad,Pcbnew,8.0.2
; #@! TF.FileFunction,Plated,1,2,PTH
FMAT,2
METRIC
; #@! TA.AperFunction,Plated,PTH,ComponentDrill
T1C0.203
; #@! TA.AperFunction,Plated,PTH,ViaDrill
T2C0.300
; #@! TA.AperFunction,Plated,PTH,ViaDrill
T3C0.400
; #@! TA.AperFunction,Plated,PTH,ViaDrill
T4C0.500
; #@! TA.AperFunction,Plated,PTH,ComponentDrill
T5C0.600
; #@! TA.AperFunction,Plated,PTH,ComponentDrill
T6C1.000
; #@! TA.AperFunction,Plated,PTH,ComponentDrill
T7C1.100
; #@! TA.AperFunction,Plated,PTH,ComponentDrill
T8C1.700
; #@! TA.AperFunction,Plated,PTH,ComponentDrill
T9C3.500
; #@! TA.AperFunction,Plated,PTH,ComponentDrill
T10C4.000
%
G90
G05
T1
X87.475Y-112.35
X88.25Y-111.575
X88.25Y-112.325
X88.25Y-113.125
X89.025Y-112.35
T2
X68.4Y-120.05
X69.8Y-124.05
X69.99Y-78.41
X69.99Y-80.95
X69.99Y-83.49
X69.99Y-86.03
X69.99Y-131.75
X70.33Y-138.73
X70.425Y-128.825
X70.425Y-159.25
X70.5Y-87.5
X71.5Y-143.25
X71.5Y-150.75
X72.53Y-78.41
X72.53Y-80.95
X72.53Y-83.49
X72.53Y-86.03
X72.53Y-144.45
X72.53Y-146.99
X72.53Y-152.07
X72.53Y-154.61
X72.53Y-157.15
X75.07Y-78.41
X75.07Y-80.95
X75.07Y-83.49
X75.07Y-86.03
X75.07Y-106.35
X75.07Y-108.89
X75.07Y-111.43
X75.07Y-113.97
X75.07Y-116.51
X75.07Y-131.75
X75.07Y-152.07
X75.07Y-154.61
X75.07Y-157.15
X75.07Y-162.23
X75.07Y-167.31
X76.25Y-128.25
X76.25Y-139.75
X76.5Y-107.95
X77.61Y-70.79
X77.61Y-73.33
X77.61Y-75.87
X77.61Y-78.41
X77.61Y-80.95
X77.61Y-83.49
X77.61Y-86.03
X77.61Y-106.35
X77.61Y-108.89
X77.61Y-116.51
X77.61Y-124.13
X77.61Y-131.75
X77.61Y-144.45
X77.61Y-152.07
X77.61Y-154.61
X77.61Y-157.15
X77.61Y-162.23
X77.61Y-164.77
X77.61Y-167.31
X78.2Y-121.1
X78.25Y-112.25
X79.0Y-104.5
X79.85Y-102.6
X80.15Y-70.79
X80.15Y-73.33
X80.15Y-75.87
X80.15Y-78.41
X80.15Y-80.95
X80.15Y-126.67
X80.15Y-139.37
X80.15Y-141.91
X80.15Y-149.53
X80.15Y-152.07
X80.15Y-159.69
X80.15Y-162.23
X80.15Y-164.77
X80.15Y-167.31
X80.45Y-119.95
X80.551Y-124.74
X82.0Y-103.5
X82.69Y-70.79
X82.69Y-73.33
X82.69Y-75.87
X82.69Y-131.75
X82.69Y-149.53
X82.69Y-152.07
X82.69Y-159.69
X82.69Y-162.23
X82.69Y-164.77
X82.69Y-167.31
X83.75Y-87.5
X84.9Y-107.6
X85.23Y-70.79
X85.23Y-73.33
X85.23Y-75.87
X85.23Y-131.75
X85.23Y-134.29
X85.23Y-136.83
X85.23Y-139.37
X85.23Y-141.91
X85.23Y-144.45
X85.23Y-152.07
X85.23Y-154.61
X85.23Y-159.69
X85.23Y-162.23
X85.23Y-164.77
X85.23Y-167.31
X85.25Y-112.325
X86.9Y-142.8
X86.9Y-146.4
X86.9Y-148.3
X86.9Y-151.0
X87.175Y-115.625
X87.675Y-115.1
X87.77Y-70.79
X87.77Y-73.33
X87.77Y-75.87
X87.77Y-116.51
X87.77Y-126.67
X87.77Y-131.75
X87.77Y-134.29
X87.77Y-139.37
X87.77Y-144.45
X87.77Y-149.53
X87.77Y-152.07
X87.77Y-159.69
X87.77Y-162.23
X87.77Y-164.77
X87.77Y-167.31
X88.275Y-109.8
X88.9Y-108.55
X90.31Y-70.79
X90.31Y-73.33
X90.31Y-75.87
X90.31Y-121.59
X90.31Y-124.13
X90.31Y-152.07
X90.31Y-159.69
X90.31Y-162.23
X90.31Y-164.77
X90.31Y-167.31
X92.075Y-127.825
X92.235Y-140.5
X92.85Y-70.79
X92.85Y-73.33
X92.85Y-75.87
X92.85Y-106.35
X92.85Y-124.13
X92.85Y-126.67
X92.85Y-131.75
X92.85Y-134.29
X92.85Y-152.07
X92.85Y-159.69
X92.85Y-162.23
X92.85Y-164.77
X92.85Y-167.31
X92.9Y-116.925
X92.95Y-111.125
X92.96Y-139.06
X93.925Y-128.925
X95.39Y-70.79
X95.39Y-73.33
X95.39Y-75.87
X95.39Y-106.35
X95.39Y-108.89
X95.39Y-111.43
X95.39Y-113.97
X95.39Y-121.59
X95.39Y-141.91
X95.39Y-152.07
X95.39Y-154.61
X95.39Y-157.15
X95.39Y-162.23
X95.39Y-164.77
X95.39Y-167.31
X96.35Y-139.06
X96.45Y-111.9
X97.75Y-131.6
X97.8Y-115.4
X97.93Y-70.79
X97.93Y-73.33
X97.93Y-75.87
X97.93Y-121.59
X97.93Y-136.83
X97.93Y-141.91
X97.93Y-144.45
X97.93Y-149.53
X97.93Y-162.23
X97.93Y-164.77
X97.93Y-167.31
X98.0Y-92.2
X99.5Y-103.25
X99.5Y-114.5
X100.0Y-148.0
X100.3Y-131.075
X100.47Y-121.59
X100.47Y-134.29
X100.47Y-136.83
X100.47Y-141.91
X100.47Y-144.45
X100.47Y-152.07
X100.47Y-154.61
X100.47Y-157.15
X100.47Y-162.23
X100.47Y-164.77
X100.47Y-167.31
X100.75Y-116.0
X100.85Y-90.25
X102.7Y-134.1
X102.7Y-140.75
X103.01Y-70.79
X103.01Y-73.33
X103.01Y-75.87
X103.01Y-106.35
X103.01Y-108.89
X103.01Y-113.97
X103.01Y-116.51
X103.01Y-121.59
X103.01Y-159.69
X103.01Y-162.23
X103.01Y-164.77
X103.01Y-167.31
X104.0Y-130.5
X104.0Y-132.2
X105.3Y-120.55
X105.3Y-140.25
X105.55Y-70.79
X105.55Y-73.33
X105.55Y-75.87
X105.55Y-108.89
X105.55Y-113.97
X105.55Y-116.51
X105.55Y-141.91
X105.55Y-152.07
X105.55Y-159.69
X105.55Y-162.23
X105.55Y-164.77
X105.55Y-167.31
X107.415Y-124.757
X107.625Y-129.5
X107.7Y-139.05
X107.8Y-150.78
X108.09Y-70.79
X108.09Y-73.33
X108.09Y-75.87
X108.09Y-108.89
X108.09Y-113.97
X108.09Y-116.51
X108.09Y-121.59
X108.09Y-134.29
X108.09Y-152.07
X108.09Y-154.61
X108.09Y-157.15
X108.09Y-159.69
X108.09Y-162.23
X108.09Y-164.77
X108.09Y-167.31
X108.2Y-131.075
X108.9Y-126.865
X109.36Y-148.78
X110.63Y-70.79
X110.63Y-73.33
X110.63Y-75.87
X110.63Y-106.35
X110.63Y-108.89
X110.63Y-121.59
X110.63Y-134.29
X110.63Y-144.45
X110.63Y-152.07
X110.63Y-154.61
X110.63Y-157.15
X110.63Y-159.69
X110.63Y-162.23
X110.63Y-164.77
X110.63Y-167.31
X111.0Y-118.05
X111.05Y-113.65
X113.17Y-108.89
X113.17Y-111.43
X113.17Y-116.51
X113.17Y-121.59
X113.17Y-124.13
X113.17Y-126.67
X113.17Y-129.21
X113.17Y-134.29
X113.17Y-141.91
X113.17Y-144.45
X113.17Y-152.07
X113.17Y-159.69
X113.17Y-162.23
X113.17Y-164.77
X113.17Y-167.31
X114.5Y-130.9
X114.92Y-136.64
X114.94Y-153.06
X115.71Y-70.79
X115.71Y-73.33
X115.71Y-75.87
X115.71Y-108.89
X115.71Y-121.59
X115.71Y-124.13
X115.71Y-126.67
X115.71Y-129.21
X115.71Y-134.29
X115.71Y-139.37
X115.71Y-141.91
X115.71Y-144.45
X115.71Y-152.07
X115.71Y-159.69
X115.71Y-162.23
X115.71Y-164.77
X115.71Y-167.31
X118.25Y-70.79
X118.25Y-73.33
X118.25Y-75.87
X118.25Y-106.35
X118.25Y-108.89
X118.25Y-121.59
X118.25Y-124.13
X118.25Y-126.67
X118.25Y-129.21
X118.25Y-144.45
X118.25Y-152.07
X118.25Y-154.61
X118.25Y-157.15
X118.25Y-159.69
X118.25Y-162.23
X118.25Y-164.77
X118.25Y-167.31
X119.75Y-151.73
X119.75Y-161.25
X119.8Y-130.9
X119.8Y-131.9
X120.79Y-70.79
X120.79Y-73.33
X120.79Y-75.87
X120.79Y-93.65
X120.79Y-96.19
X120.79Y-98.73
X120.79Y-101.27
X120.79Y-103.81
X120.79Y-106.35
X120.79Y-108.89
X120.79Y-113.97
X120.79Y-116.51
X120.79Y-121.59
X120.79Y-126.67
X120.79Y-134.29
X120.79Y-136.83
X120.79Y-139.37
X120.79Y-141.91
X120.79Y-144.45
X120.79Y-157.15
X120.79Y-159.69
X120.79Y-162.23
X120.79Y-164.77
X120.79Y-167.31
X121.48Y-154.5
X121.49Y-138.0
X123.33Y-70.79
X123.33Y-73.33
X123.33Y-75.87
X123.33Y-93.65
X123.33Y-96.19
X123.33Y-98.73
X123.33Y-101.27
X123.33Y-103.81
X123.33Y-106.35
X123.33Y-108.89
X123.33Y-111.43
X123.33Y-113.97
X123.33Y-116.51
X123.33Y-134.29
X123.33Y-141.91
X123.33Y-144.45
X123.33Y-159.69
X123.33Y-167.31
X123.625Y-156.15
X124.25Y-140.55
X124.4Y-133.85
X124.5Y-157.4
X124.8Y-108.7
X125.25Y-136.34
X125.25Y-149.74
X125.4Y-131.9
X125.6Y-130.9
X125.87Y-70.79
X125.87Y-73.33
X125.87Y-75.87
X125.87Y-93.65
X125.87Y-96.19
X125.87Y-98.73
X125.87Y-101.27
X125.87Y-103.81
X125.87Y-106.35
X125.87Y-116.51
X125.87Y-121.59
X125.87Y-124.13
X125.87Y-129.21
X125.87Y-159.69
X125.87Y-167.31
X125.9Y-146.59
X125.95Y-136.85
X126.4Y-158.2
X126.425Y-157.075
X126.45Y-137.59
X126.45Y-145.84
X127.125Y-159.0
X127.2Y-155.825
X128.41Y-93.65
X128.41Y-96.19
X128.41Y-98.73
X128.41Y-101.27
X128.41Y-103.81
X128.41Y-106.35
X128.41Y-121.59
X128.41Y-124.13
X128.41Y-149.53
X128.41Y-157.15
X128.41Y-159.69
X128.41Y-167.31
X130.3Y-146.7
X130.4Y-114.9
X130.8Y-153.06
X130.95Y-70.79
X130.95Y-73.33
X130.95Y-75.87
X130.95Y-93.65
X130.95Y-96.19
X130.95Y-98.73
X130.95Y-101.27
X130.95Y-103.81
X130.95Y-106.35
X130.95Y-108.89
X130.95Y-121.59
X130.95Y-124.13
X130.95Y-126.67
X130.95Y-157.15
X130.95Y-159.69
X130.95Y-167.31
X131.0Y-134.55
X131.0Y-142.89
X131.01Y-143.52
X131.2Y-154.5
X131.62Y-143.964
X132.0Y-138.2
X132.0Y-142.5
X132.4Y-145.8
X132.4Y-148.4
X132.45Y-123.61
X132.5Y-144.45
X132.5Y-146.7
X133.2Y-145.25
X133.445Y-125.985
X133.49Y-70.79
X133.49Y-73.33
X133.49Y-75.87
X133.49Y-93.65
X133.49Y-96.19
X133.49Y-98.73
X133.49Y-101.27
X133.49Y-103.81
X133.49Y-106.35
X133.49Y-108.89
X133.49Y-121.59
X133.49Y-124.13
X133.49Y-154.61
X133.49Y-157.15
X133.49Y-159.69
X133.49Y-167.31
X133.65Y-149.9
X134.1Y-115.0
X134.5Y-146.9
X134.5Y-148.95
X134.7Y-135.4
X134.7Y-139.4
X135.0Y-147.6
X135.0Y-150.78
X135.38Y-139.32
X135.5Y-148.7
X135.5Y-151.73
X135.825Y-136.35
X135.9Y-137.6
X135.995Y-139.228
X136.03Y-70.79
X136.03Y-73.33
X136.03Y-75.87
X136.03Y-78.41
X136.03Y-83.49
X136.03Y-86.03
X136.03Y-93.65
X136.03Y-96.19
X136.03Y-98.73
X136.03Y-101.27
X136.03Y-103.81
X136.03Y-106.35
X136.03Y-108.89
X136.03Y-121.59
X136.03Y-124.13
X136.03Y-126.67
X136.03Y-154.61
X136.03Y-157.15
X136.03Y-159.69
X136.03Y-162.23
X136.03Y-164.77
X136.03Y-167.31
X136.375Y-148.25
X136.375Y-150.7
X136.75Y-80.05
X136.8Y-132.25
X136.8Y-136.85
X136.8Y-138.8
X136.845Y-147.4
X137.4Y-151.791
X137.9Y-120.45
X138.25Y-80.05
X138.57Y-70.79
X138.57Y-73.33
X138.57Y-75.87
X138.57Y-78.41
X138.57Y-136.83
X138.57Y-154.61
X138.57Y-157.15
X138.57Y-159.69
X138.57Y-162.23
X138.57Y-164.77
X138.57Y-167.31
X138.65Y-133.85
X138.75Y-85.7
X139.85Y-109.55
X139.9Y-117.2
X139.9Y-131.51
X139.9Y-143.975
X140.6Y-130.9
X141.11Y-70.79
X141.11Y-73.33
X141.11Y-75.87
X141.11Y-78.41
X141.11Y-91.11
X141.11Y-93.65
X141.11Y-96.19
X141.11Y-98.73
X141.11Y-101.27
X141.11Y-103.81
X141.11Y-106.35
X141.11Y-108.89
X141.11Y-111.43
X141.11Y-113.97
X141.11Y-116.51
X141.11Y-121.59
X141.11Y-126.67
X141.11Y-154.61
X141.11Y-157.15
X141.11Y-159.69
X141.11Y-162.23
X141.11Y-164.77
X141.11Y-167.31
X141.16Y-144.475
X141.625Y-158.0
X141.9Y-141.475
X142.55Y-126.7
X142.575Y-123.525
X142.575Y-141.9
X142.6Y-158.575
X143.65Y-70.79
X143.65Y-73.33
X143.65Y-75.87
X143.65Y-78.41
X143.65Y-80.95
X143.65Y-83.49
X143.65Y-91.11
X143.65Y-93.65
X143.65Y-96.19
X143.65Y-98.73
X143.65Y-101.27
X143.65Y-103.81
X143.65Y-106.35
X143.65Y-116.51
X143.65Y-131.75
X143.65Y-136.83
X143.65Y-141.91
X143.65Y-144.45
X143.65Y-154.61
X143.65Y-157.15
X143.65Y-167.31
X144.125Y-161.32
X144.25Y-89.4
X144.25Y-107.85
X146.19Y-70.79
X146.19Y-73.33
X146.19Y-75.87
X146.19Y-78.41
X146.19Y-91.11
X146.19Y-93.65
X146.19Y-96.19
X146.19Y-98.73
X146.19Y-101.27
X146.19Y-103.81
X146.19Y-106.35
X146.19Y-121.59
X146.19Y-124.13
X146.19Y-131.75
X146.19Y-136.83
X146.19Y-141.91
X146.19Y-154.61
X146.19Y-167.31
X146.2Y-145.0
X146.2Y-164.0
X146.2Y-165.6
X146.25Y-147.9
X147.0Y-138.085
X147.0Y-145.1
X147.725Y-142.975
X147.775Y-152.291
X148.25Y-158.325
X148.5Y-142.55
X148.5Y-152.89
X148.73Y-70.79
X148.73Y-73.33
X148.73Y-75.87
X148.73Y-91.11
X148.73Y-93.65
X148.73Y-96.19
X148.73Y-98.73
X148.73Y-101.27
X148.73Y-103.81
X148.73Y-106.35
X148.73Y-108.89
X148.73Y-121.59
X148.73Y-124.13
X148.73Y-131.75
X148.73Y-136.83
X148.73Y-167.31
X149.0Y-164.0
X149.0Y-165.6
X150.525Y-161.32
X151.27Y-70.79
X151.27Y-73.33
X151.27Y-75.87
X151.27Y-78.41
X151.27Y-91.11
X151.27Y-93.65
X151.27Y-96.19
X151.27Y-98.73
X151.27Y-101.27
X151.27Y-103.81
X151.27Y-106.35
X151.27Y-108.89
X151.27Y-121.59
X151.27Y-124.13
X151.27Y-131.75
X151.27Y-154.61
X151.27Y-167.31
X153.265Y-150.7
X153.81Y-70.79
X153.81Y-73.33
X153.81Y-75.87
X153.81Y-78.41
X153.81Y-91.11
X153.81Y-93.65
X153.81Y-96.19
X153.81Y-98.73
X153.81Y-101.27
X153.81Y-103.81
X153.81Y-106.35
X153.81Y-121.59
X153.81Y-124.13
X153.81Y-131.75
X153.81Y-154.61
X153.81Y-159.69
X153.81Y-162.23
X153.81Y-164.77
X153.81Y-167.31
X155.75Y-151.75
X156.35Y-70.79
X156.35Y-73.33
X156.35Y-75.87
X156.35Y-78.41
X156.35Y-91.11
X156.35Y-93.65
X156.35Y-96.19
X156.35Y-98.73
X156.35Y-101.27
X156.35Y-103.81
X156.35Y-106.35
X156.35Y-111.43
X156.35Y-113.97
X156.35Y-116.51
X156.35Y-121.59
X156.35Y-124.13
X156.35Y-126.67
X156.35Y-129.21
X156.35Y-131.75
X156.35Y-154.61
X156.35Y-157.15
X156.35Y-159.69
X156.35Y-162.23
X156.35Y-164.77
X156.35Y-167.31
X157.15Y-109.3
X157.15Y-117.45
X157.95Y-149.9
X158.0Y-141.1
X158.89Y-70.79
X158.89Y-73.33
X158.89Y-75.87
X158.89Y-78.41
X158.89Y-91.11
X158.89Y-93.65
X158.89Y-96.19
X158.89Y-98.73
X158.89Y-101.27
X158.89Y-103.81
X158.89Y-106.35
X158.89Y-108.89
X158.89Y-111.43
X158.89Y-113.97
X158.89Y-116.51
X158.89Y-121.59
X158.89Y-124.13
X158.89Y-126.67
X158.89Y-129.21
X158.89Y-131.75
X158.89Y-136.83
X158.89Y-139.37
X158.89Y-141.91
X158.89Y-144.45
X158.89Y-146.99
X158.89Y-149.53
X158.89Y-152.07
X158.89Y-154.61
X158.89Y-157.15
X158.89Y-159.69
X158.89Y-162.23
X158.89Y-164.77
X158.89Y-167.31
X161.2Y-134.55
X161.43Y-78.41
X161.43Y-80.95
X161.43Y-83.49
X161.43Y-86.03
X161.43Y-88.57
X161.43Y-91.11
X161.43Y-93.65
X161.43Y-96.19
X161.43Y-98.73
X161.43Y-101.27
X161.43Y-103.81
X161.43Y-106.35
X161.43Y-108.89
X161.43Y-111.43
X161.43Y-113.97
X161.43Y-157.15
X161.43Y-159.69
X163.97Y-78.41
X163.97Y-80.95
X163.97Y-83.49
X163.97Y-86.03
X163.97Y-88.57
X163.97Y-91.11
X163.97Y-93.65
X163.97Y-96.19
X163.97Y-98.73
X163.97Y-106.35
X163.97Y-116.51
X163.97Y-121.59
X163.97Y-129.21
X163.97Y-131.75
X163.97Y-134.29
X163.97Y-146.99
X163.97Y-149.53
X163.97Y-152.07
X163.97Y-154.61
X163.97Y-157.15
X163.97Y-159.69
X166.51Y-78.41
X166.51Y-80.95
X166.51Y-83.49
X166.51Y-86.03
X166.51Y-88.57
X166.51Y-91.11
X166.51Y-93.65
X166.51Y-96.19
X166.51Y-98.73
X166.51Y-101.27
X166.51Y-103.81
X166.51Y-106.35
X166.51Y-108.89
X166.51Y-111.43
X166.51Y-113.97
X166.51Y-116.51
X166.51Y-121.59
X166.51Y-124.13
X166.51Y-126.67
X166.51Y-129.21
X166.51Y-131.75
X166.51Y-134.29
X166.51Y-141.91
X166.51Y-149.53
X166.51Y-152.07
X166.51Y-157.15
X166.51Y-159.69
T3
X69.5Y-119.875
X69.725Y-153.475
X82.725Y-134.95
X84.2Y-150.5
X84.2Y-156.1
X90.25Y-81.25
X95.3Y-129.35
X106.9Y-147.5
X133.65Y-147.5
X144.75Y-133.85
X144.75Y-158.75
X161.5Y-133.0
T4
X74.25Y-88.75
X74.25Y-90.25
X74.25Y-91.75
X74.25Y-93.25
X74.75Y-89.5
X74.75Y-91.0
X74.75Y-92.5
X75.25Y-88.75
X75.25Y-90.25
X75.25Y-91.75
X75.25Y-93.25
X75.75Y-89.5
X75.75Y-91.0
X75.75Y-92.5
X76.25Y-88.75
X76.25Y-90.25
X76.25Y-91.75
X76.25Y-93.25
X76.75Y-89.5
X76.75Y-91.0
X76.75Y-92.5
X77.25Y-88.75
X77.25Y-90.25
X77.25Y-91.75
X77.25Y-93.25
X77.75Y-89.5
X77.75Y-91.0
X77.75Y-92.5
X78.25Y-88.75
X78.25Y-90.25
X78.25Y-91.75
X78.25Y-93.25
X78.75Y-89.5
X78.75Y-91.0
X78.75Y-92.5
X79.25Y-88.75
X79.25Y-90.25
X79.25Y-91.75
X79.25Y-93.25
X161.5Y-120.5
T6
X91.75Y-122.75
X94.29Y-122.75
X94.965Y-158.7
X96.35Y-155.86
X96.83Y-122.75
X97.735Y-158.7
X99.12Y-155.805
X99.37Y-122.75
X100.505Y-158.7
X124.24Y-162.25
X124.24Y-164.79
X126.78Y-162.25
X126.78Y-164.79
X129.32Y-162.25
X129.32Y-164.79
X131.86Y-162.25
X131.86Y-164.79
X134.4Y-162.25
X134.4Y-164.79
X150.725Y-144.985
X150.725Y-147.525
X153.265Y-144.985
X153.265Y-147.525
X155.805Y-144.985
X155.805Y-147.525
X163.75Y-115.23
X163.75Y-117.77
X163.75Y-120.31
X163.75Y-122.85
T7
X161.375Y-146.975
X161.375Y-153.475
X165.875Y-146.975
X165.875Y-153.475
T8
X81.875Y-77.662
X88.225Y-87.162
X149.075Y-77.712
X155.425Y-87.212
T9
X81.1Y-156.5
X114.4Y-156.5
T10
X90.863Y-155.9
X104.583Y-155.9
T5
G00X143.005Y-161.345
M15
G01X143.005Y-162.445
M16
G05
G00X143.005Y-165.675
M15
G01X143.005Y-166.475
M16
G05
G00X151.645Y-161.345
M15
G01X151.645Y-162.445
M16
G05
G00X151.645Y-165.675
M15
G01X151.645Y-166.475
M16
G05
M30
