G04 #@! TF.GenerationSoftware,KiCad,Pcbnew,8.0.2*
G04 #@! TF.CreationDate,2025-01-08T16:49:49-07:00*
G04 #@! TF.ProjectId,DC-DC-Boost-V1,44432d44-432d-4426-9f6f-73742d56312e,rev?*
G04 #@! TF.SameCoordinates,Original*
G04 #@! TF.FileFunction,Legend,Bot*
G04 #@! TF.FilePolarity,Positive*
%FSLAX46Y46*%
G04 Gerber Fmt 4.6, Leading zero omitted, Abs format (unit mm)*
G04 Created by KiCad (PCBNEW 8.0.2) date 2025-01-08 16:49:49*
%MOMM*%
%LPD*%
G01*
G04 APERTURE LIST*
G04 Aperture macros list*
%AMRoundRect*
0 Rectangle with rounded corners*
0 $1 Rounding radius*
0 $2 $3 $4 $5 $6 $7 $8 $9 X,Y pos of 4 corners*
0 Add a 4 corners polygon primitive as box body*
4,1,4,$2,$3,$4,$5,$6,$7,$8,$9,$2,$3,0*
0 Add four circle primitives for the rounded corners*
1,1,$1+$1,$2,$3*
1,1,$1+$1,$4,$5*
1,1,$1+$1,$6,$7*
1,1,$1+$1,$8,$9*
0 Add four rect primitives between the rounded corners*
20,1,$1+$1,$2,$3,$4,$5,0*
20,1,$1+$1,$4,$5,$6,$7,0*
20,1,$1+$1,$6,$7,$8,$9,0*
20,1,$1+$1,$8,$9,$2,$3,0*%
G04 Aperture macros list end*
%ADD10C,0.150000*%
%ADD11C,0.120000*%
%ADD12C,0.000000*%
%ADD13C,0.900000*%
%ADD14RoundRect,0.102000X1.275000X1.275000X-1.275000X1.275000X-1.275000X-1.275000X1.275000X-1.275000X0*%
%ADD15C,2.754000*%
%ADD16RoundRect,0.102000X0.754000X-0.754000X0.754000X0.754000X-0.754000X0.754000X-0.754000X-0.754000X0*%
%ADD17C,1.712000*%
%ADD18C,3.500000*%
%ADD19C,0.650000*%
%ADD20O,1.000000X2.100000*%
%ADD21O,1.000000X1.800000*%
%ADD22C,5.000000*%
%ADD23O,1.500000X2.000000*%
%ADD24C,6.000000*%
%ADD25R,1.700000X1.700000*%
%ADD26O,1.700000X1.700000*%
%ADD27C,2.000000*%
%ADD28C,0.499999*%
%ADD29RoundRect,0.250000X0.600000X-0.600000X0.600000X0.600000X-0.600000X0.600000X-0.600000X-0.600000X0*%
%ADD30C,1.700000*%
%ADD31RoundRect,0.250000X-0.250000X-0.475000X0.250000X-0.475000X0.250000X0.475000X-0.250000X0.475000X0*%
%ADD32RoundRect,0.250000X-0.475000X0.250000X-0.475000X-0.250000X0.475000X-0.250000X0.475000X0.250000X0*%
%ADD33RoundRect,0.237500X0.300000X0.237500X-0.300000X0.237500X-0.300000X-0.237500X0.300000X-0.237500X0*%
%ADD34RoundRect,0.225000X-0.250000X0.225000X-0.250000X-0.225000X0.250000X-0.225000X0.250000X0.225000X0*%
%ADD35RoundRect,0.225000X0.225000X0.250000X-0.225000X0.250000X-0.225000X-0.250000X0.225000X-0.250000X0*%
%ADD36RoundRect,0.150000X0.150000X-0.825000X0.150000X0.825000X-0.150000X0.825000X-0.150000X-0.825000X0*%
G04 APERTURE END LIST*
D10*
X97666666Y-82859580D02*
X97714285Y-82907200D01*
X97714285Y-82907200D02*
X97857142Y-82954819D01*
X97857142Y-82954819D02*
X97952380Y-82954819D01*
X97952380Y-82954819D02*
X98095237Y-82907200D01*
X98095237Y-82907200D02*
X98190475Y-82811961D01*
X98190475Y-82811961D02*
X98238094Y-82716723D01*
X98238094Y-82716723D02*
X98285713Y-82526247D01*
X98285713Y-82526247D02*
X98285713Y-82383390D01*
X98285713Y-82383390D02*
X98238094Y-82192914D01*
X98238094Y-82192914D02*
X98190475Y-82097676D01*
X98190475Y-82097676D02*
X98095237Y-82002438D01*
X98095237Y-82002438D02*
X97952380Y-81954819D01*
X97952380Y-81954819D02*
X97857142Y-81954819D01*
X97857142Y-81954819D02*
X97714285Y-82002438D01*
X97714285Y-82002438D02*
X97666666Y-82050057D01*
X97190475Y-82954819D02*
X96999999Y-82954819D01*
X96999999Y-82954819D02*
X96904761Y-82907200D01*
X96904761Y-82907200D02*
X96857142Y-82859580D01*
X96857142Y-82859580D02*
X96761904Y-82716723D01*
X96761904Y-82716723D02*
X96714285Y-82526247D01*
X96714285Y-82526247D02*
X96714285Y-82145295D01*
X96714285Y-82145295D02*
X96761904Y-82050057D01*
X96761904Y-82050057D02*
X96809523Y-82002438D01*
X96809523Y-82002438D02*
X96904761Y-81954819D01*
X96904761Y-81954819D02*
X97095237Y-81954819D01*
X97095237Y-81954819D02*
X97190475Y-82002438D01*
X97190475Y-82002438D02*
X97238094Y-82050057D01*
X97238094Y-82050057D02*
X97285713Y-82145295D01*
X97285713Y-82145295D02*
X97285713Y-82383390D01*
X97285713Y-82383390D02*
X97238094Y-82478628D01*
X97238094Y-82478628D02*
X97190475Y-82526247D01*
X97190475Y-82526247D02*
X97095237Y-82573866D01*
X97095237Y-82573866D02*
X96904761Y-82573866D01*
X96904761Y-82573866D02*
X96809523Y-82526247D01*
X96809523Y-82526247D02*
X96761904Y-82478628D01*
X96761904Y-82478628D02*
X96714285Y-82383390D01*
X89349580Y-101007142D02*
X89397200Y-100959523D01*
X89397200Y-100959523D02*
X89444819Y-100816666D01*
X89444819Y-100816666D02*
X89444819Y-100721428D01*
X89444819Y-100721428D02*
X89397200Y-100578571D01*
X89397200Y-100578571D02*
X89301961Y-100483333D01*
X89301961Y-100483333D02*
X89206723Y-100435714D01*
X89206723Y-100435714D02*
X89016247Y-100388095D01*
X89016247Y-100388095D02*
X88873390Y-100388095D01*
X88873390Y-100388095D02*
X88682914Y-100435714D01*
X88682914Y-100435714D02*
X88587676Y-100483333D01*
X88587676Y-100483333D02*
X88492438Y-100578571D01*
X88492438Y-100578571D02*
X88444819Y-100721428D01*
X88444819Y-100721428D02*
X88444819Y-100816666D01*
X88444819Y-100816666D02*
X88492438Y-100959523D01*
X88492438Y-100959523D02*
X88540057Y-101007142D01*
X89444819Y-101959523D02*
X89444819Y-101388095D01*
X89444819Y-101673809D02*
X88444819Y-101673809D01*
X88444819Y-101673809D02*
X88587676Y-101578571D01*
X88587676Y-101578571D02*
X88682914Y-101483333D01*
X88682914Y-101483333D02*
X88730533Y-101388095D01*
X89444819Y-102911904D02*
X89444819Y-102340476D01*
X89444819Y-102626190D02*
X88444819Y-102626190D01*
X88444819Y-102626190D02*
X88587676Y-102530952D01*
X88587676Y-102530952D02*
X88682914Y-102435714D01*
X88682914Y-102435714D02*
X88730533Y-102340476D01*
X97616666Y-95159580D02*
X97664285Y-95207200D01*
X97664285Y-95207200D02*
X97807142Y-95254819D01*
X97807142Y-95254819D02*
X97902380Y-95254819D01*
X97902380Y-95254819D02*
X98045237Y-95207200D01*
X98045237Y-95207200D02*
X98140475Y-95111961D01*
X98140475Y-95111961D02*
X98188094Y-95016723D01*
X98188094Y-95016723D02*
X98235713Y-94826247D01*
X98235713Y-94826247D02*
X98235713Y-94683390D01*
X98235713Y-94683390D02*
X98188094Y-94492914D01*
X98188094Y-94492914D02*
X98140475Y-94397676D01*
X98140475Y-94397676D02*
X98045237Y-94302438D01*
X98045237Y-94302438D02*
X97902380Y-94254819D01*
X97902380Y-94254819D02*
X97807142Y-94254819D01*
X97807142Y-94254819D02*
X97664285Y-94302438D01*
X97664285Y-94302438D02*
X97616666Y-94350057D01*
X97283332Y-94254819D02*
X96664285Y-94254819D01*
X96664285Y-94254819D02*
X96997618Y-94635771D01*
X96997618Y-94635771D02*
X96854761Y-94635771D01*
X96854761Y-94635771D02*
X96759523Y-94683390D01*
X96759523Y-94683390D02*
X96711904Y-94731009D01*
X96711904Y-94731009D02*
X96664285Y-94826247D01*
X96664285Y-94826247D02*
X96664285Y-95064342D01*
X96664285Y-95064342D02*
X96711904Y-95159580D01*
X96711904Y-95159580D02*
X96759523Y-95207200D01*
X96759523Y-95207200D02*
X96854761Y-95254819D01*
X96854761Y-95254819D02*
X97140475Y-95254819D01*
X97140475Y-95254819D02*
X97235713Y-95207200D01*
X97235713Y-95207200D02*
X97283332Y-95159580D01*
X80301666Y-82084580D02*
X80349285Y-82132200D01*
X80349285Y-82132200D02*
X80492142Y-82179819D01*
X80492142Y-82179819D02*
X80587380Y-82179819D01*
X80587380Y-82179819D02*
X80730237Y-82132200D01*
X80730237Y-82132200D02*
X80825475Y-82036961D01*
X80825475Y-82036961D02*
X80873094Y-81941723D01*
X80873094Y-81941723D02*
X80920713Y-81751247D01*
X80920713Y-81751247D02*
X80920713Y-81608390D01*
X80920713Y-81608390D02*
X80873094Y-81417914D01*
X80873094Y-81417914D02*
X80825475Y-81322676D01*
X80825475Y-81322676D02*
X80730237Y-81227438D01*
X80730237Y-81227438D02*
X80587380Y-81179819D01*
X80587380Y-81179819D02*
X80492142Y-81179819D01*
X80492142Y-81179819D02*
X80349285Y-81227438D01*
X80349285Y-81227438D02*
X80301666Y-81275057D01*
X79396904Y-81179819D02*
X79873094Y-81179819D01*
X79873094Y-81179819D02*
X79920713Y-81656009D01*
X79920713Y-81656009D02*
X79873094Y-81608390D01*
X79873094Y-81608390D02*
X79777856Y-81560771D01*
X79777856Y-81560771D02*
X79539761Y-81560771D01*
X79539761Y-81560771D02*
X79444523Y-81608390D01*
X79444523Y-81608390D02*
X79396904Y-81656009D01*
X79396904Y-81656009D02*
X79349285Y-81751247D01*
X79349285Y-81751247D02*
X79349285Y-81989342D01*
X79349285Y-81989342D02*
X79396904Y-82084580D01*
X79396904Y-82084580D02*
X79444523Y-82132200D01*
X79444523Y-82132200D02*
X79539761Y-82179819D01*
X79539761Y-82179819D02*
X79777856Y-82179819D01*
X79777856Y-82179819D02*
X79873094Y-82132200D01*
X79873094Y-82132200D02*
X79920713Y-82084580D01*
X97666666Y-85109580D02*
X97714285Y-85157200D01*
X97714285Y-85157200D02*
X97857142Y-85204819D01*
X97857142Y-85204819D02*
X97952380Y-85204819D01*
X97952380Y-85204819D02*
X98095237Y-85157200D01*
X98095237Y-85157200D02*
X98190475Y-85061961D01*
X98190475Y-85061961D02*
X98238094Y-84966723D01*
X98238094Y-84966723D02*
X98285713Y-84776247D01*
X98285713Y-84776247D02*
X98285713Y-84633390D01*
X98285713Y-84633390D02*
X98238094Y-84442914D01*
X98238094Y-84442914D02*
X98190475Y-84347676D01*
X98190475Y-84347676D02*
X98095237Y-84252438D01*
X98095237Y-84252438D02*
X97952380Y-84204819D01*
X97952380Y-84204819D02*
X97857142Y-84204819D01*
X97857142Y-84204819D02*
X97714285Y-84252438D01*
X97714285Y-84252438D02*
X97666666Y-84300057D01*
X97095237Y-84633390D02*
X97190475Y-84585771D01*
X97190475Y-84585771D02*
X97238094Y-84538152D01*
X97238094Y-84538152D02*
X97285713Y-84442914D01*
X97285713Y-84442914D02*
X97285713Y-84395295D01*
X97285713Y-84395295D02*
X97238094Y-84300057D01*
X97238094Y-84300057D02*
X97190475Y-84252438D01*
X97190475Y-84252438D02*
X97095237Y-84204819D01*
X97095237Y-84204819D02*
X96904761Y-84204819D01*
X96904761Y-84204819D02*
X96809523Y-84252438D01*
X96809523Y-84252438D02*
X96761904Y-84300057D01*
X96761904Y-84300057D02*
X96714285Y-84395295D01*
X96714285Y-84395295D02*
X96714285Y-84442914D01*
X96714285Y-84442914D02*
X96761904Y-84538152D01*
X96761904Y-84538152D02*
X96809523Y-84585771D01*
X96809523Y-84585771D02*
X96904761Y-84633390D01*
X96904761Y-84633390D02*
X97095237Y-84633390D01*
X97095237Y-84633390D02*
X97190475Y-84681009D01*
X97190475Y-84681009D02*
X97238094Y-84728628D01*
X97238094Y-84728628D02*
X97285713Y-84823866D01*
X97285713Y-84823866D02*
X97285713Y-85014342D01*
X97285713Y-85014342D02*
X97238094Y-85109580D01*
X97238094Y-85109580D02*
X97190475Y-85157200D01*
X97190475Y-85157200D02*
X97095237Y-85204819D01*
X97095237Y-85204819D02*
X96904761Y-85204819D01*
X96904761Y-85204819D02*
X96809523Y-85157200D01*
X96809523Y-85157200D02*
X96761904Y-85109580D01*
X96761904Y-85109580D02*
X96714285Y-85014342D01*
X96714285Y-85014342D02*
X96714285Y-84823866D01*
X96714285Y-84823866D02*
X96761904Y-84728628D01*
X96761904Y-84728628D02*
X96809523Y-84681009D01*
X96809523Y-84681009D02*
X96904761Y-84633390D01*
X97416666Y-97459580D02*
X97464285Y-97507200D01*
X97464285Y-97507200D02*
X97607142Y-97554819D01*
X97607142Y-97554819D02*
X97702380Y-97554819D01*
X97702380Y-97554819D02*
X97845237Y-97507200D01*
X97845237Y-97507200D02*
X97940475Y-97411961D01*
X97940475Y-97411961D02*
X97988094Y-97316723D01*
X97988094Y-97316723D02*
X98035713Y-97126247D01*
X98035713Y-97126247D02*
X98035713Y-96983390D01*
X98035713Y-96983390D02*
X97988094Y-96792914D01*
X97988094Y-96792914D02*
X97940475Y-96697676D01*
X97940475Y-96697676D02*
X97845237Y-96602438D01*
X97845237Y-96602438D02*
X97702380Y-96554819D01*
X97702380Y-96554819D02*
X97607142Y-96554819D01*
X97607142Y-96554819D02*
X97464285Y-96602438D01*
X97464285Y-96602438D02*
X97416666Y-96650057D01*
X96464285Y-97554819D02*
X97035713Y-97554819D01*
X96749999Y-97554819D02*
X96749999Y-96554819D01*
X96749999Y-96554819D02*
X96845237Y-96697676D01*
X96845237Y-96697676D02*
X96940475Y-96792914D01*
X96940475Y-96792914D02*
X97035713Y-96840533D01*
X97666666Y-92609580D02*
X97714285Y-92657200D01*
X97714285Y-92657200D02*
X97857142Y-92704819D01*
X97857142Y-92704819D02*
X97952380Y-92704819D01*
X97952380Y-92704819D02*
X98095237Y-92657200D01*
X98095237Y-92657200D02*
X98190475Y-92561961D01*
X98190475Y-92561961D02*
X98238094Y-92466723D01*
X98238094Y-92466723D02*
X98285713Y-92276247D01*
X98285713Y-92276247D02*
X98285713Y-92133390D01*
X98285713Y-92133390D02*
X98238094Y-91942914D01*
X98238094Y-91942914D02*
X98190475Y-91847676D01*
X98190475Y-91847676D02*
X98095237Y-91752438D01*
X98095237Y-91752438D02*
X97952380Y-91704819D01*
X97952380Y-91704819D02*
X97857142Y-91704819D01*
X97857142Y-91704819D02*
X97714285Y-91752438D01*
X97714285Y-91752438D02*
X97666666Y-91800057D01*
X96809523Y-92038152D02*
X96809523Y-92704819D01*
X97047618Y-91657200D02*
X97285713Y-92371485D01*
X97285713Y-92371485D02*
X96666666Y-92371485D01*
X87109580Y-100607142D02*
X87157200Y-100559523D01*
X87157200Y-100559523D02*
X87204819Y-100416666D01*
X87204819Y-100416666D02*
X87204819Y-100321428D01*
X87204819Y-100321428D02*
X87157200Y-100178571D01*
X87157200Y-100178571D02*
X87061961Y-100083333D01*
X87061961Y-100083333D02*
X86966723Y-100035714D01*
X86966723Y-100035714D02*
X86776247Y-99988095D01*
X86776247Y-99988095D02*
X86633390Y-99988095D01*
X86633390Y-99988095D02*
X86442914Y-100035714D01*
X86442914Y-100035714D02*
X86347676Y-100083333D01*
X86347676Y-100083333D02*
X86252438Y-100178571D01*
X86252438Y-100178571D02*
X86204819Y-100321428D01*
X86204819Y-100321428D02*
X86204819Y-100416666D01*
X86204819Y-100416666D02*
X86252438Y-100559523D01*
X86252438Y-100559523D02*
X86300057Y-100607142D01*
X87204819Y-101559523D02*
X87204819Y-100988095D01*
X87204819Y-101273809D02*
X86204819Y-101273809D01*
X86204819Y-101273809D02*
X86347676Y-101178571D01*
X86347676Y-101178571D02*
X86442914Y-101083333D01*
X86442914Y-101083333D02*
X86490533Y-100988095D01*
X86300057Y-101940476D02*
X86252438Y-101988095D01*
X86252438Y-101988095D02*
X86204819Y-102083333D01*
X86204819Y-102083333D02*
X86204819Y-102321428D01*
X86204819Y-102321428D02*
X86252438Y-102416666D01*
X86252438Y-102416666D02*
X86300057Y-102464285D01*
X86300057Y-102464285D02*
X86395295Y-102511904D01*
X86395295Y-102511904D02*
X86490533Y-102511904D01*
X86490533Y-102511904D02*
X86633390Y-102464285D01*
X86633390Y-102464285D02*
X87204819Y-101892857D01*
X87204819Y-101892857D02*
X87204819Y-102511904D01*
X97616666Y-89859580D02*
X97664285Y-89907200D01*
X97664285Y-89907200D02*
X97807142Y-89954819D01*
X97807142Y-89954819D02*
X97902380Y-89954819D01*
X97902380Y-89954819D02*
X98045237Y-89907200D01*
X98045237Y-89907200D02*
X98140475Y-89811961D01*
X98140475Y-89811961D02*
X98188094Y-89716723D01*
X98188094Y-89716723D02*
X98235713Y-89526247D01*
X98235713Y-89526247D02*
X98235713Y-89383390D01*
X98235713Y-89383390D02*
X98188094Y-89192914D01*
X98188094Y-89192914D02*
X98140475Y-89097676D01*
X98140475Y-89097676D02*
X98045237Y-89002438D01*
X98045237Y-89002438D02*
X97902380Y-88954819D01*
X97902380Y-88954819D02*
X97807142Y-88954819D01*
X97807142Y-88954819D02*
X97664285Y-89002438D01*
X97664285Y-89002438D02*
X97616666Y-89050057D01*
X96759523Y-88954819D02*
X96949999Y-88954819D01*
X96949999Y-88954819D02*
X97045237Y-89002438D01*
X97045237Y-89002438D02*
X97092856Y-89050057D01*
X97092856Y-89050057D02*
X97188094Y-89192914D01*
X97188094Y-89192914D02*
X97235713Y-89383390D01*
X97235713Y-89383390D02*
X97235713Y-89764342D01*
X97235713Y-89764342D02*
X97188094Y-89859580D01*
X97188094Y-89859580D02*
X97140475Y-89907200D01*
X97140475Y-89907200D02*
X97045237Y-89954819D01*
X97045237Y-89954819D02*
X96854761Y-89954819D01*
X96854761Y-89954819D02*
X96759523Y-89907200D01*
X96759523Y-89907200D02*
X96711904Y-89859580D01*
X96711904Y-89859580D02*
X96664285Y-89764342D01*
X96664285Y-89764342D02*
X96664285Y-89526247D01*
X96664285Y-89526247D02*
X96711904Y-89431009D01*
X96711904Y-89431009D02*
X96759523Y-89383390D01*
X96759523Y-89383390D02*
X96854761Y-89335771D01*
X96854761Y-89335771D02*
X97045237Y-89335771D01*
X97045237Y-89335771D02*
X97140475Y-89383390D01*
X97140475Y-89383390D02*
X97188094Y-89431009D01*
X97188094Y-89431009D02*
X97235713Y-89526247D01*
X83301666Y-82184580D02*
X83349285Y-82232200D01*
X83349285Y-82232200D02*
X83492142Y-82279819D01*
X83492142Y-82279819D02*
X83587380Y-82279819D01*
X83587380Y-82279819D02*
X83730237Y-82232200D01*
X83730237Y-82232200D02*
X83825475Y-82136961D01*
X83825475Y-82136961D02*
X83873094Y-82041723D01*
X83873094Y-82041723D02*
X83920713Y-81851247D01*
X83920713Y-81851247D02*
X83920713Y-81708390D01*
X83920713Y-81708390D02*
X83873094Y-81517914D01*
X83873094Y-81517914D02*
X83825475Y-81422676D01*
X83825475Y-81422676D02*
X83730237Y-81327438D01*
X83730237Y-81327438D02*
X83587380Y-81279819D01*
X83587380Y-81279819D02*
X83492142Y-81279819D01*
X83492142Y-81279819D02*
X83349285Y-81327438D01*
X83349285Y-81327438D02*
X83301666Y-81375057D01*
X82920713Y-81375057D02*
X82873094Y-81327438D01*
X82873094Y-81327438D02*
X82777856Y-81279819D01*
X82777856Y-81279819D02*
X82539761Y-81279819D01*
X82539761Y-81279819D02*
X82444523Y-81327438D01*
X82444523Y-81327438D02*
X82396904Y-81375057D01*
X82396904Y-81375057D02*
X82349285Y-81470295D01*
X82349285Y-81470295D02*
X82349285Y-81565533D01*
X82349285Y-81565533D02*
X82396904Y-81708390D01*
X82396904Y-81708390D02*
X82968332Y-82279819D01*
X82968332Y-82279819D02*
X82349285Y-82279819D01*
X97666666Y-87609580D02*
X97714285Y-87657200D01*
X97714285Y-87657200D02*
X97857142Y-87704819D01*
X97857142Y-87704819D02*
X97952380Y-87704819D01*
X97952380Y-87704819D02*
X98095237Y-87657200D01*
X98095237Y-87657200D02*
X98190475Y-87561961D01*
X98190475Y-87561961D02*
X98238094Y-87466723D01*
X98238094Y-87466723D02*
X98285713Y-87276247D01*
X98285713Y-87276247D02*
X98285713Y-87133390D01*
X98285713Y-87133390D02*
X98238094Y-86942914D01*
X98238094Y-86942914D02*
X98190475Y-86847676D01*
X98190475Y-86847676D02*
X98095237Y-86752438D01*
X98095237Y-86752438D02*
X97952380Y-86704819D01*
X97952380Y-86704819D02*
X97857142Y-86704819D01*
X97857142Y-86704819D02*
X97714285Y-86752438D01*
X97714285Y-86752438D02*
X97666666Y-86800057D01*
X97333332Y-86704819D02*
X96666666Y-86704819D01*
X96666666Y-86704819D02*
X97095237Y-87704819D01*
X91759580Y-100907142D02*
X91807200Y-100859523D01*
X91807200Y-100859523D02*
X91854819Y-100716666D01*
X91854819Y-100716666D02*
X91854819Y-100621428D01*
X91854819Y-100621428D02*
X91807200Y-100478571D01*
X91807200Y-100478571D02*
X91711961Y-100383333D01*
X91711961Y-100383333D02*
X91616723Y-100335714D01*
X91616723Y-100335714D02*
X91426247Y-100288095D01*
X91426247Y-100288095D02*
X91283390Y-100288095D01*
X91283390Y-100288095D02*
X91092914Y-100335714D01*
X91092914Y-100335714D02*
X90997676Y-100383333D01*
X90997676Y-100383333D02*
X90902438Y-100478571D01*
X90902438Y-100478571D02*
X90854819Y-100621428D01*
X90854819Y-100621428D02*
X90854819Y-100716666D01*
X90854819Y-100716666D02*
X90902438Y-100859523D01*
X90902438Y-100859523D02*
X90950057Y-100907142D01*
X91854819Y-101859523D02*
X91854819Y-101288095D01*
X91854819Y-101573809D02*
X90854819Y-101573809D01*
X90854819Y-101573809D02*
X90997676Y-101478571D01*
X90997676Y-101478571D02*
X91092914Y-101383333D01*
X91092914Y-101383333D02*
X91140533Y-101288095D01*
X90854819Y-102478571D02*
X90854819Y-102573809D01*
X90854819Y-102573809D02*
X90902438Y-102669047D01*
X90902438Y-102669047D02*
X90950057Y-102716666D01*
X90950057Y-102716666D02*
X91045295Y-102764285D01*
X91045295Y-102764285D02*
X91235771Y-102811904D01*
X91235771Y-102811904D02*
X91473866Y-102811904D01*
X91473866Y-102811904D02*
X91664342Y-102764285D01*
X91664342Y-102764285D02*
X91759580Y-102716666D01*
X91759580Y-102716666D02*
X91807200Y-102669047D01*
X91807200Y-102669047D02*
X91854819Y-102573809D01*
X91854819Y-102573809D02*
X91854819Y-102478571D01*
X91854819Y-102478571D02*
X91807200Y-102383333D01*
X91807200Y-102383333D02*
X91759580Y-102335714D01*
X91759580Y-102335714D02*
X91664342Y-102288095D01*
X91664342Y-102288095D02*
X91473866Y-102240476D01*
X91473866Y-102240476D02*
X91235771Y-102240476D01*
X91235771Y-102240476D02*
X91045295Y-102288095D01*
X91045295Y-102288095D02*
X90950057Y-102335714D01*
X90950057Y-102335714D02*
X90902438Y-102383333D01*
X90902438Y-102383333D02*
X90854819Y-102478571D01*
X78054819Y-86338095D02*
X78864342Y-86338095D01*
X78864342Y-86338095D02*
X78959580Y-86385714D01*
X78959580Y-86385714D02*
X79007200Y-86433333D01*
X79007200Y-86433333D02*
X79054819Y-86528571D01*
X79054819Y-86528571D02*
X79054819Y-86719047D01*
X79054819Y-86719047D02*
X79007200Y-86814285D01*
X79007200Y-86814285D02*
X78959580Y-86861904D01*
X78959580Y-86861904D02*
X78864342Y-86909523D01*
X78864342Y-86909523D02*
X78054819Y-86909523D01*
X79054819Y-87909523D02*
X79054819Y-87338095D01*
X79054819Y-87623809D02*
X78054819Y-87623809D01*
X78054819Y-87623809D02*
X78197676Y-87528571D01*
X78197676Y-87528571D02*
X78292914Y-87433333D01*
X78292914Y-87433333D02*
X78340533Y-87338095D01*
D11*
G04 #@! TO.C,C9*
X94761252Y-81765000D02*
X94238748Y-81765000D01*
X94761252Y-83235000D02*
X94238748Y-83235000D01*
G04 #@! TO.C,C11*
X88265000Y-98461252D02*
X88265000Y-97938748D01*
X89735000Y-98461252D02*
X89735000Y-97938748D01*
G04 #@! TO.C,C3*
X94711252Y-93765000D02*
X94188748Y-93765000D01*
X94711252Y-95235000D02*
X94188748Y-95235000D01*
G04 #@! TO.C,C5*
X80336233Y-82715000D02*
X80628767Y-82715000D01*
X80336233Y-83735000D02*
X80628767Y-83735000D01*
G04 #@! TO.C,C8*
X94761252Y-84015000D02*
X94238748Y-84015000D01*
X94761252Y-85485000D02*
X94238748Y-85485000D01*
D12*
G04 #@! TO.C,kibuzzard-67440168*
G36*
X77306348Y-71341438D02*
G01*
X77385104Y-71455897D01*
X77459660Y-71576656D01*
X77522665Y-71696365D01*
X77228642Y-71696365D01*
X77228642Y-71238530D01*
X77306348Y-71341438D01*
G37*
G36*
X83679288Y-71435945D02*
G01*
X83740193Y-71482149D01*
X83777996Y-71549354D01*
X83795847Y-71627060D01*
X83401017Y-71627060D01*
X83411518Y-71550404D01*
X83445120Y-71484249D01*
X83503925Y-71436995D01*
X83592132Y-71419144D01*
X83679288Y-71435945D01*
G37*
G36*
X86829531Y-71435945D02*
G01*
X86890435Y-71482149D01*
X86928238Y-71549354D01*
X86946090Y-71627060D01*
X86551259Y-71627060D01*
X86561760Y-71550404D01*
X86595363Y-71484249D01*
X86654167Y-71436995D01*
X86742374Y-71419144D01*
X86829531Y-71435945D01*
G37*
G36*
X84718868Y-71441195D02*
G01*
X84789224Y-71469548D01*
X84789224Y-72005089D01*
X84727269Y-72013489D01*
X84671615Y-72015590D01*
X84581308Y-71998526D01*
X84512002Y-71947334D01*
X84467899Y-71855190D01*
X84453198Y-71715267D01*
X84464486Y-71592932D01*
X84498351Y-71503150D01*
X84555318Y-71448021D01*
X84635912Y-71429645D01*
X84718868Y-71441195D01*
G37*
G36*
X88939405Y-71447758D02*
G01*
X89003198Y-71508401D01*
X89041788Y-71602120D01*
X89054652Y-71721567D01*
X89042838Y-71841276D01*
X89007398Y-71935784D01*
X88945706Y-71997213D01*
X88855136Y-72017690D01*
X88766667Y-71997213D01*
X88702875Y-71935784D01*
X88664284Y-71841276D01*
X88651421Y-71721567D01*
X88663234Y-71602120D01*
X88698674Y-71508401D01*
X88760367Y-71447758D01*
X88850936Y-71427544D01*
X88939405Y-71447758D01*
G37*
G36*
X79495241Y-71135359D02*
G01*
X79564022Y-71222779D01*
X79595524Y-71312269D01*
X79614426Y-71425328D01*
X79620726Y-71561955D01*
X79614426Y-71699749D01*
X79595524Y-71813507D01*
X79564022Y-71903231D01*
X79495241Y-71990650D01*
X79402309Y-72019790D01*
X79400209Y-72019141D01*
X79308065Y-71990650D01*
X79239547Y-71903231D01*
X79208628Y-71813507D01*
X79190076Y-71699749D01*
X79183892Y-71561955D01*
X79184843Y-71540953D01*
X79284700Y-71540953D01*
X79317253Y-71638611D01*
X79400209Y-71679564D01*
X79486316Y-71638611D01*
X79517818Y-71540953D01*
X79486316Y-71442246D01*
X79400209Y-71400242D01*
X79317253Y-71442246D01*
X79284700Y-71540953D01*
X79184843Y-71540953D01*
X79190076Y-71425328D01*
X79208628Y-71312269D01*
X79239547Y-71222779D01*
X79308065Y-71135359D01*
X79402309Y-71106220D01*
X79495241Y-71135359D01*
G37*
G36*
X91319536Y-72417421D02*
G01*
X90769084Y-72417421D01*
X90331550Y-72417421D01*
X89682600Y-72417421D01*
X88850936Y-72417421D01*
X87920565Y-72417421D01*
X86670968Y-72417421D01*
X85238658Y-72417421D01*
X84665314Y-72417421D01*
X83520726Y-72417421D01*
X82630258Y-72417421D01*
X80007156Y-72417421D01*
X79402309Y-72417421D01*
X77906994Y-72417421D01*
X76970322Y-72417421D01*
X76829611Y-72417421D01*
X76392078Y-72417421D01*
X75780464Y-72417421D01*
X76261168Y-71696365D01*
X76829611Y-71696365D01*
X76829611Y-71908481D01*
X76970322Y-71908481D01*
X76970322Y-72215105D01*
X77228642Y-72215105D01*
X77228642Y-72000889D01*
X77906994Y-72000889D01*
X77906994Y-72215105D01*
X78755460Y-72215105D01*
X78760710Y-72162601D01*
X78759660Y-72118498D01*
X78749947Y-72017690D01*
X78720807Y-71925283D01*
X78676703Y-71840489D01*
X78622099Y-71762520D01*
X78560144Y-71690590D01*
X78493989Y-71623910D01*
X78428665Y-71561955D01*
X78950775Y-71561955D01*
X78957994Y-71723142D01*
X78979652Y-71862278D01*
X79015748Y-71979362D01*
X79066283Y-72074394D01*
X79154957Y-72167735D01*
X79266966Y-72223739D01*
X79402309Y-72242407D01*
X79537653Y-72223739D01*
X79649662Y-72167735D01*
X79738335Y-72074394D01*
X79777423Y-72000889D01*
X80007156Y-72000889D01*
X80007156Y-72215105D01*
X80855621Y-72215105D01*
X80860871Y-72162601D01*
X80859821Y-72118498D01*
X80850108Y-72017690D01*
X80820968Y-71925283D01*
X80776865Y-71840489D01*
X80722261Y-71762520D01*
X80660306Y-71690590D01*
X80594151Y-71623910D01*
X80527996Y-71561167D01*
X80466041Y-71501050D01*
X80367334Y-71387641D01*
X80328481Y-71276333D01*
X80338389Y-71251131D01*
X82113618Y-71251131D01*
X82159821Y-71490549D01*
X82219676Y-71477948D01*
X82290031Y-71466397D01*
X82359337Y-71459047D01*
X82416041Y-71456947D01*
X82523149Y-71462197D01*
X82630258Y-71482149D01*
X82630258Y-72215105D01*
X82890678Y-72215105D01*
X82890678Y-71708966D01*
X83151098Y-71708966D01*
X83152148Y-71761470D01*
X83155298Y-71805574D01*
X83795847Y-71805574D01*
X83775896Y-71891943D01*
X83716041Y-71957835D01*
X83624684Y-71999576D01*
X83510225Y-72013489D01*
X83362164Y-71996688D01*
X83243505Y-71963086D01*
X83207802Y-72183603D01*
X83350613Y-72222456D01*
X83520726Y-72238207D01*
X83640173Y-72230069D01*
X83746493Y-72205654D01*
X83838901Y-72165226D01*
X83916607Y-72109047D01*
X83978824Y-72037379D01*
X84024765Y-71950485D01*
X84053117Y-71848102D01*
X84062568Y-71729968D01*
X84061883Y-71721567D01*
X84190678Y-71721567D01*
X84198553Y-71833663D01*
X84222180Y-71934733D01*
X84261033Y-72023203D01*
X84314587Y-72097496D01*
X84382317Y-72157088D01*
X84463699Y-72201454D01*
X84558206Y-72229019D01*
X84665314Y-72238207D01*
X84767172Y-72234532D01*
X84871130Y-72223506D01*
X84967737Y-72206704D01*
X85047544Y-72185703D01*
X85047544Y-71624960D01*
X85238658Y-71624960D01*
X85238658Y-72215105D01*
X85448674Y-72215105D01*
X85448674Y-71612359D01*
X85456025Y-71517851D01*
X85474926Y-71463247D01*
X85502229Y-71438045D01*
X85534781Y-71431745D01*
X85574684Y-71434895D01*
X85612487Y-71446446D01*
X85601986Y-71534653D01*
X85597786Y-71641761D01*
X85597786Y-71839176D01*
X85807802Y-71839176D01*
X85807802Y-71612359D01*
X85827754Y-71471648D01*
X85891808Y-71431745D01*
X85922261Y-71433845D01*
X85956913Y-71440145D01*
X85956913Y-72215105D01*
X86166930Y-72215105D01*
X86166930Y-71708966D01*
X86301340Y-71708966D01*
X86302390Y-71761470D01*
X86305540Y-71805574D01*
X86946090Y-71805574D01*
X86926138Y-71891943D01*
X86866283Y-71957835D01*
X86774926Y-71999576D01*
X86660468Y-72013489D01*
X86512406Y-71996688D01*
X86393747Y-71963086D01*
X86358044Y-72183603D01*
X86500855Y-72222456D01*
X86670968Y-72238207D01*
X86790415Y-72230069D01*
X86896736Y-72205654D01*
X86989143Y-72165226D01*
X87066849Y-72109047D01*
X87129066Y-72037379D01*
X87175007Y-71950485D01*
X87203359Y-71848102D01*
X87212810Y-71729968D01*
X87202834Y-71607633D01*
X87172907Y-71501050D01*
X87126703Y-71410481D01*
X87067899Y-71336187D01*
X86998069Y-71278170D01*
X86918787Y-71236430D01*
X86890434Y-71228029D01*
X87307317Y-71228029D01*
X87352602Y-71374187D01*
X87400250Y-71514439D01*
X87450260Y-71648783D01*
X87502632Y-71777221D01*
X87572638Y-71937417D01*
X87639843Y-72083378D01*
X87704248Y-72215105D01*
X87920565Y-72215105D01*
X87983919Y-72083378D01*
X88047974Y-71937417D01*
X88112729Y-71777221D01*
X88134420Y-71719467D01*
X88386800Y-71719467D01*
X88395201Y-71831563D01*
X88420403Y-71932633D01*
X88460831Y-72021628D01*
X88514910Y-72097496D01*
X88581853Y-72158926D01*
X88660871Y-72204604D01*
X88750916Y-72232956D01*
X88850936Y-72242407D01*
X88950956Y-72232956D01*
X89007650Y-72215105D01*
X89474684Y-72215105D01*
X89682600Y-72215105D01*
X89743155Y-72071011D01*
X89807210Y-71927150D01*
X89874765Y-71783522D01*
X89945820Y-71639894D01*
X90020376Y-71496033D01*
X90098432Y-71351939D01*
X90098432Y-72215105D01*
X90331550Y-72215105D01*
X90331550Y-70915105D01*
X90123634Y-70915105D01*
X90064829Y-71011450D01*
X90006025Y-71115670D01*
X89948008Y-71223566D01*
X89891566Y-71330937D01*
X89838012Y-71436470D01*
X89788658Y-71538853D01*
X89744817Y-71633360D01*
X89707802Y-71715267D01*
X89707802Y-70915105D01*
X89474684Y-70915105D01*
X89474684Y-72215105D01*
X89007650Y-72215105D01*
X89041001Y-72204604D01*
X89120282Y-72158926D01*
X89188012Y-72097496D01*
X89242879Y-72021628D01*
X89283569Y-71932633D01*
X89308771Y-71831563D01*
X89317172Y-71719467D01*
X89308509Y-71608946D01*
X89282519Y-71508401D01*
X89241041Y-71419669D01*
X89185912Y-71344588D01*
X89117919Y-71284208D01*
X89037850Y-71239580D01*
X88948069Y-71212015D01*
X88850936Y-71202827D01*
X88752491Y-71212015D01*
X88662972Y-71239580D01*
X88583691Y-71284208D01*
X88515960Y-71344588D01*
X88461094Y-71419669D01*
X88420403Y-71508401D01*
X88395201Y-71608946D01*
X88386800Y-71719467D01*
X88134420Y-71719467D01*
X88160967Y-71648783D01*
X88208024Y-71514439D01*
X88253900Y-71374187D01*
X88298594Y-71228029D01*
X88027673Y-71228029D01*
X88006934Y-71310460D01*
X87982519Y-71398142D01*
X87955480Y-71488712D01*
X87926865Y-71579806D01*
X87897200Y-71669851D01*
X87867010Y-71757270D01*
X87809256Y-71914782D01*
X87748351Y-71757270D01*
X87715011Y-71669851D01*
X87682196Y-71579806D01*
X87650169Y-71488712D01*
X87619191Y-71398142D01*
X87591627Y-71310460D01*
X87569838Y-71228029D01*
X87307317Y-71228029D01*
X86890434Y-71228029D01*
X86833731Y-71211228D01*
X86746574Y-71202827D01*
X86612631Y-71217178D01*
X86502022Y-71260232D01*
X86414749Y-71331987D01*
X86351744Y-71431278D01*
X86313941Y-71556938D01*
X86301340Y-71708966D01*
X86166930Y-71708966D01*
X86166930Y-71265832D01*
X86005217Y-71230129D01*
X85864506Y-71217528D01*
X85766849Y-71231179D01*
X85692293Y-71276333D01*
X85608287Y-71235380D01*
X85507479Y-71217528D01*
X85373069Y-71242730D01*
X85290112Y-71318336D01*
X85249159Y-71445396D01*
X85241283Y-71528615D01*
X85238658Y-71624960D01*
X85047544Y-71624960D01*
X85047544Y-70801696D01*
X84789224Y-70757593D01*
X84789224Y-71251131D01*
X84684216Y-71216478D01*
X84583408Y-71207027D01*
X84492576Y-71216216D01*
X84413295Y-71243780D01*
X84290435Y-71348788D01*
X84247119Y-71423607D01*
X84215880Y-71511551D01*
X84196978Y-71611309D01*
X84190678Y-71721567D01*
X84061883Y-71721567D01*
X84052592Y-71607633D01*
X84022665Y-71501050D01*
X83976461Y-71410481D01*
X83917657Y-71336187D01*
X83847826Y-71278170D01*
X83768545Y-71236430D01*
X83683489Y-71211228D01*
X83596332Y-71202827D01*
X83462388Y-71217178D01*
X83351780Y-71260232D01*
X83264506Y-71331987D01*
X83201502Y-71431278D01*
X83163699Y-71556938D01*
X83151098Y-71708966D01*
X82890678Y-71708966D01*
X82890678Y-71293134D01*
X82786457Y-71259006D01*
X82679611Y-71232229D01*
X82562265Y-71214903D01*
X82426542Y-71209128D01*
X82366687Y-71211228D01*
X82283731Y-71218578D01*
X82194474Y-71231179D01*
X82113618Y-71251131D01*
X80338389Y-71251131D01*
X80376784Y-71153473D01*
X80498594Y-71110420D01*
X80626703Y-71139822D01*
X80759014Y-71238530D01*
X80887123Y-71057916D01*
X80796554Y-70981260D01*
X80692859Y-70927706D01*
X80582863Y-70896204D01*
X80473392Y-70885703D01*
X80320080Y-70908805D01*
X80189870Y-70978110D01*
X80099563Y-71094669D01*
X80065960Y-71257431D01*
X80091162Y-71386591D01*
X80158367Y-71507351D01*
X80252875Y-71620759D01*
X80359983Y-71725767D01*
X80422988Y-71785622D01*
X80490193Y-71857027D01*
X80543747Y-71931583D01*
X80565799Y-72000889D01*
X80007156Y-72000889D01*
X79777423Y-72000889D01*
X79788870Y-71979362D01*
X79824967Y-71862278D01*
X79846625Y-71723142D01*
X79853844Y-71561955D01*
X79846493Y-71402605D01*
X79824442Y-71264782D01*
X79787689Y-71148485D01*
X79736235Y-71053716D01*
X79646861Y-70960375D01*
X79535553Y-70904371D01*
X79402309Y-70885703D01*
X79266966Y-70904254D01*
X79154957Y-70959908D01*
X79066283Y-71052666D01*
X79015748Y-71147107D01*
X78979652Y-71263469D01*
X78957994Y-71401752D01*
X78950775Y-71561955D01*
X78428665Y-71561955D01*
X78427834Y-71561167D01*
X78365880Y-71501050D01*
X78267172Y-71387641D01*
X78228319Y-71276333D01*
X78276623Y-71153473D01*
X78398432Y-71110420D01*
X78526542Y-71139822D01*
X78658852Y-71238530D01*
X78786962Y-71057916D01*
X78696392Y-70981260D01*
X78592697Y-70927706D01*
X78482701Y-70896204D01*
X78373230Y-70885703D01*
X78219918Y-70908805D01*
X78089708Y-70978110D01*
X77999401Y-71094669D01*
X77965799Y-71257431D01*
X77991001Y-71386591D01*
X78058206Y-71507351D01*
X78152713Y-71620759D01*
X78259821Y-71725767D01*
X78322826Y-71785622D01*
X78390031Y-71857027D01*
X78443586Y-71931583D01*
X78465637Y-72000889D01*
X77906994Y-72000889D01*
X77228642Y-72000889D01*
X77228642Y-71908481D01*
X77770484Y-71908481D01*
X77770484Y-71719467D01*
X77724805Y-71632048D01*
X77667576Y-71533603D01*
X77601421Y-71428332D01*
X77528965Y-71320436D01*
X77451259Y-71212015D01*
X77369353Y-71105170D01*
X77285346Y-71004624D01*
X77201340Y-70915105D01*
X76970322Y-70915105D01*
X76970322Y-71696365D01*
X76829611Y-71696365D01*
X76261168Y-71696365D01*
X76392078Y-71500000D01*
X75780464Y-70582579D01*
X76392078Y-70582579D01*
X76829611Y-70582579D01*
X90331550Y-70582579D01*
X90769084Y-70582579D01*
X91319536Y-72417421D01*
G37*
D11*
G04 #@! TO.C,C1*
X94761252Y-96265000D02*
X94238748Y-96265000D01*
X94761252Y-97735000D02*
X94238748Y-97735000D01*
G04 #@! TO.C,C4*
X94761252Y-91265000D02*
X94238748Y-91265000D01*
X94761252Y-92735000D02*
X94238748Y-92735000D01*
G04 #@! TO.C,C12*
X86240000Y-98140580D02*
X86240000Y-97859420D01*
X87260000Y-98140580D02*
X87260000Y-97859420D01*
D12*
G04 #@! TO.C,kibuzzard-674400B4*
G36*
X92238919Y-71308078D02*
G01*
X92290454Y-71347173D01*
X92322441Y-71404039D01*
X92337546Y-71469790D01*
X92003459Y-71469790D01*
X92012344Y-71404927D01*
X92040777Y-71348950D01*
X92090535Y-71308966D01*
X92165171Y-71293861D01*
X92238919Y-71308078D01*
G37*
G36*
X101124218Y-71308078D02*
G01*
X101175753Y-71347173D01*
X101207740Y-71404039D01*
X101222845Y-71469790D01*
X100888758Y-71469790D01*
X100897643Y-71404927D01*
X100926076Y-71348950D01*
X100975834Y-71308966D01*
X101050470Y-71293861D01*
X101124218Y-71308078D01*
G37*
G36*
X102012748Y-71308078D02*
G01*
X102064283Y-71347173D01*
X102096270Y-71404039D01*
X102111375Y-71469790D01*
X101777288Y-71469790D01*
X101786173Y-71404927D01*
X101814606Y-71348950D01*
X101864364Y-71308966D01*
X101939000Y-71293861D01*
X102012748Y-71308078D01*
G37*
G36*
X108232457Y-71308078D02*
G01*
X108283992Y-71347173D01*
X108315979Y-71404039D01*
X108331084Y-71469790D01*
X107996997Y-71469790D01*
X108005882Y-71404927D01*
X108034315Y-71348950D01*
X108084073Y-71308966D01*
X108158709Y-71293861D01*
X108232457Y-71308078D01*
G37*
G36*
X112675107Y-71308078D02*
G01*
X112726642Y-71347173D01*
X112758629Y-71404039D01*
X112773734Y-71469790D01*
X112439646Y-71469790D01*
X112448532Y-71404927D01*
X112476965Y-71348950D01*
X112526722Y-71308966D01*
X112601359Y-71293861D01*
X112675107Y-71308078D01*
G37*
G36*
X94882296Y-71609289D02*
G01*
X94938273Y-71624394D01*
X94976480Y-71654604D01*
X94990696Y-71706139D01*
X94948047Y-71786995D01*
X94837869Y-71810985D01*
X94768564Y-71810097D01*
X94709921Y-71805654D01*
X94709921Y-71613732D01*
X94761456Y-71607512D01*
X94816545Y-71604847D01*
X94882296Y-71609289D01*
G37*
G36*
X98436415Y-71609289D02*
G01*
X98492393Y-71624394D01*
X98530600Y-71654604D01*
X98544816Y-71706139D01*
X98502167Y-71786995D01*
X98391989Y-71810985D01*
X98322684Y-71810097D01*
X98264041Y-71805654D01*
X98264041Y-71613732D01*
X98315575Y-71607512D01*
X98370664Y-71604847D01*
X98436415Y-71609289D01*
G37*
G36*
X110022845Y-71317753D02*
G01*
X110086819Y-71394759D01*
X110108144Y-71523102D01*
X110098814Y-71613954D01*
X110070826Y-71680372D01*
X109953540Y-71734572D01*
X109886900Y-71725687D01*
X109830923Y-71702585D01*
X109830923Y-71300969D01*
X109875349Y-71293861D01*
X109916222Y-71292084D01*
X110022845Y-71317753D01*
G37*
G36*
X94016201Y-71318962D02*
G01*
X94072845Y-71372940D01*
X94106831Y-71454907D01*
X94118160Y-71556866D01*
X94108608Y-71659269D01*
X94079953Y-71735460D01*
X94031751Y-71782775D01*
X93963556Y-71798546D01*
X93893362Y-71789661D01*
X93835608Y-71766559D01*
X93835608Y-71308078D01*
X93879146Y-71303635D01*
X93936900Y-71300969D01*
X94016201Y-71318962D01*
G37*
G36*
X105557982Y-71312520D02*
G01*
X105617514Y-71336511D01*
X105617514Y-71789661D01*
X105565091Y-71796769D01*
X105517999Y-71798546D01*
X105441585Y-71784107D01*
X105382942Y-71740792D01*
X105345624Y-71662823D01*
X105333184Y-71544426D01*
X105342736Y-71440913D01*
X105371391Y-71364943D01*
X105419594Y-71318296D01*
X105487789Y-71302746D01*
X105557982Y-71312520D01*
G37*
G36*
X107369695Y-71318296D02*
G01*
X107415898Y-71364943D01*
X107442554Y-71440913D01*
X107451440Y-71544426D01*
X107440999Y-71646163D01*
X107409679Y-71727464D01*
X107355256Y-71780775D01*
X107275511Y-71798546D01*
X107225753Y-71796769D01*
X107177772Y-71791438D01*
X107177772Y-71336511D01*
X107234638Y-71312520D01*
X107302167Y-71302746D01*
X107369695Y-71318296D01*
G37*
G36*
X113596512Y-71045961D02*
G01*
X113628499Y-71050404D01*
X113628499Y-71789661D01*
X113608952Y-71791438D01*
X113589404Y-71791438D01*
X113464121Y-71763005D01*
X113382377Y-71684814D01*
X113337950Y-71566640D01*
X113327954Y-71494891D01*
X113324622Y-71416478D01*
X113335285Y-71277868D01*
X113372603Y-71158805D01*
X113445462Y-71076171D01*
X113564525Y-71045073D01*
X113596512Y-71045961D01*
G37*
G36*
X114826633Y-71500000D02*
G01*
X114217299Y-72414001D01*
X113847078Y-72414001D01*
X113612506Y-72414001D01*
X112540939Y-72414001D01*
X111762587Y-72414001D01*
X110683911Y-72414001D01*
X110026399Y-72414001D01*
X108716706Y-72414001D01*
X108098289Y-72414001D01*
X107277288Y-72414001D01*
X105512667Y-72414001D01*
X104846270Y-72414001D01*
X102473895Y-72414001D01*
X101878580Y-72414001D01*
X100990050Y-72414001D01*
X100211698Y-72414001D01*
X99614606Y-72414001D01*
X98407982Y-72414001D01*
X97165818Y-72414001D01*
X95363879Y-72414001D01*
X94853863Y-72414001D01*
X93617029Y-72414001D01*
X93062587Y-72414001D01*
X92104751Y-72414001D01*
X91791989Y-72414001D01*
X91421768Y-72414001D01*
X91159296Y-71539095D01*
X91791989Y-71539095D01*
X91792877Y-71583522D01*
X91795543Y-71620840D01*
X92337546Y-71620840D01*
X92320664Y-71693922D01*
X92270018Y-71749677D01*
X92192716Y-71784996D01*
X92095866Y-71796769D01*
X91970583Y-71782553D01*
X91870180Y-71754120D01*
X91839969Y-71940711D01*
X91960810Y-71973586D01*
X92104751Y-71986914D01*
X92205822Y-71980028D01*
X92295785Y-71959370D01*
X92342497Y-71938934D01*
X92728499Y-71938934D01*
X92795361Y-71954927D01*
X92875107Y-71970921D01*
X92965070Y-71982916D01*
X93062587Y-71986914D01*
X93156327Y-71979806D01*
X93231407Y-71958481D01*
X93335365Y-71877625D01*
X93387789Y-71754120D01*
X93398451Y-71679483D01*
X93402005Y-71597738D01*
X93402005Y-71158805D01*
X93617029Y-71158805D01*
X93617029Y-72260582D01*
X93835608Y-72260582D01*
X93835608Y-71944265D01*
X93921795Y-71975363D01*
X94007982Y-71986914D01*
X94084840Y-71979140D01*
X94151924Y-71955816D01*
X94255882Y-71867851D01*
X94292534Y-71804988D01*
X94318968Y-71730129D01*
X94334961Y-71644608D01*
X94340293Y-71549758D01*
X94333629Y-71457573D01*
X94331897Y-71450242D01*
X94500228Y-71450242D01*
X94500228Y-71947819D01*
X94642393Y-71972698D01*
X94742352Y-71983360D01*
X94853863Y-71986914D01*
X94998693Y-71972698D01*
X95011266Y-71967367D01*
X95363879Y-71967367D01*
X95582457Y-71967367D01*
X95582457Y-71482229D01*
X95873895Y-71482229D01*
X95873895Y-71967367D01*
X96092474Y-71967367D01*
X96092474Y-71496446D01*
X97165818Y-71496446D01*
X97165818Y-71967367D01*
X97384396Y-71967367D01*
X97384396Y-71524879D01*
X97391060Y-71424031D01*
X97411052Y-71356058D01*
X97519453Y-71304523D01*
X97568322Y-71306300D01*
X97618968Y-71311632D01*
X97618968Y-71967367D01*
X97837546Y-71967367D01*
X97837546Y-71450242D01*
X98054348Y-71450242D01*
X98054348Y-71947819D01*
X98196512Y-71972698D01*
X98296472Y-71983360D01*
X98407982Y-71986914D01*
X98552813Y-71972698D01*
X98663879Y-71925606D01*
X98734961Y-71840307D01*
X98759840Y-71711470D01*
X98731407Y-71588853D01*
X98654994Y-71508885D01*
X98623516Y-71496446D01*
X98942877Y-71496446D01*
X98942877Y-71967367D01*
X99161456Y-71967367D01*
X99161456Y-71524879D01*
X99168120Y-71424031D01*
X99188112Y-71356058D01*
X99289404Y-71304523D01*
X99348936Y-71311632D01*
X99396028Y-71324071D01*
X99396028Y-71967367D01*
X99614606Y-71967367D01*
X99614606Y-71736349D01*
X99829630Y-71736349D01*
X99849178Y-71834087D01*
X99914041Y-71914055D01*
X100032215Y-71967367D01*
X100113516Y-71982027D01*
X100211698Y-71986914D01*
X100312102Y-71980695D01*
X100396512Y-71962036D01*
X100519129Y-71917609D01*
X100485365Y-71734572D01*
X100352974Y-71780775D01*
X100209921Y-71802100D01*
X100087304Y-71790549D01*
X100044654Y-71743457D01*
X100057982Y-71704362D01*
X100095301Y-71676817D01*
X100150390Y-71654604D01*
X100215252Y-71633279D01*
X100312990Y-71600404D01*
X100403621Y-71553312D01*
X100416960Y-71539095D01*
X100677288Y-71539095D01*
X100678176Y-71583522D01*
X100680842Y-71620840D01*
X101222845Y-71620840D01*
X101205963Y-71693922D01*
X101155317Y-71749677D01*
X101078015Y-71784996D01*
X100981165Y-71796769D01*
X100855882Y-71782553D01*
X100755478Y-71754120D01*
X100725268Y-71940711D01*
X100846108Y-71973586D01*
X100990050Y-71986914D01*
X101091121Y-71980028D01*
X101181084Y-71959370D01*
X101259275Y-71925162D01*
X101325026Y-71877625D01*
X101377671Y-71816983D01*
X101416545Y-71743457D01*
X101440535Y-71656826D01*
X101448532Y-71556866D01*
X101447083Y-71539095D01*
X101565818Y-71539095D01*
X101566706Y-71583522D01*
X101569372Y-71620840D01*
X102111375Y-71620840D01*
X102094493Y-71693922D01*
X102043847Y-71749677D01*
X101966545Y-71784996D01*
X101869695Y-71796769D01*
X101744412Y-71782553D01*
X101644008Y-71754120D01*
X101613798Y-71940711D01*
X101734638Y-71973586D01*
X101878580Y-71986914D01*
X101979650Y-71980028D01*
X102069614Y-71959370D01*
X102147805Y-71925162D01*
X102213556Y-71877625D01*
X102266201Y-71816983D01*
X102282525Y-71786107D01*
X102473895Y-71786107D01*
X102473895Y-71967367D01*
X103198936Y-71967367D01*
X103198936Y-71841195D01*
X103158507Y-71762783D01*
X103115414Y-71680372D01*
X103068322Y-71593074D01*
X103015898Y-71500000D01*
X102958366Y-71400040D01*
X102895947Y-71292084D01*
X102827752Y-71175242D01*
X102802274Y-71132149D01*
X104218968Y-71132149D01*
X104252066Y-71248324D01*
X104283831Y-71362278D01*
X104315595Y-71473788D01*
X104348693Y-71582633D01*
X104383568Y-71689035D01*
X104420664Y-71793215D01*
X104460426Y-71894952D01*
X104503297Y-71994023D01*
X104569937Y-72116640D01*
X104642797Y-72201050D01*
X104731650Y-72249919D01*
X104846270Y-72265913D01*
X104946674Y-72257027D01*
X105022199Y-72233926D01*
X104981327Y-72050889D01*
X104918241Y-72073102D01*
X104858709Y-72079321D01*
X104755640Y-72036672D01*
X104693443Y-71935380D01*
X104745570Y-71826090D01*
X104797697Y-71706731D01*
X104849824Y-71577302D01*
X104859996Y-71549758D01*
X105111052Y-71549758D01*
X105117716Y-71644608D01*
X105137708Y-71730129D01*
X105170583Y-71804988D01*
X105215898Y-71867851D01*
X105273209Y-71918275D01*
X105342070Y-71955816D01*
X105422037Y-71979140D01*
X105512667Y-71986914D01*
X105598855Y-71983805D01*
X105686819Y-71974475D01*
X105768564Y-71960258D01*
X105836092Y-71942488D01*
X106959194Y-71942488D01*
X107026278Y-71960258D01*
X107106690Y-71974475D01*
X107192877Y-71983805D01*
X107277288Y-71986914D01*
X107397042Y-71974080D01*
X107495669Y-71935577D01*
X107573168Y-71871405D01*
X107628948Y-71784922D01*
X107662416Y-71679483D01*
X107673572Y-71555089D01*
X107672388Y-71539095D01*
X107785527Y-71539095D01*
X107786415Y-71583522D01*
X107789081Y-71620840D01*
X108331084Y-71620840D01*
X108314202Y-71693922D01*
X108263556Y-71749677D01*
X108186254Y-71784996D01*
X108089404Y-71796769D01*
X107964121Y-71782553D01*
X107863717Y-71754120D01*
X107833507Y-71940711D01*
X107954348Y-71973586D01*
X108098289Y-71986914D01*
X108199360Y-71980028D01*
X108289323Y-71959370D01*
X108367514Y-71925162D01*
X108433265Y-71877625D01*
X108485911Y-71816983D01*
X108524784Y-71743457D01*
X108548774Y-71656826D01*
X108556771Y-71556866D01*
X108551844Y-71496446D01*
X108716706Y-71496446D01*
X108716706Y-71967367D01*
X108935285Y-71967367D01*
X108935285Y-71524879D01*
X108941948Y-71424031D01*
X108961940Y-71356058D01*
X109070341Y-71304523D01*
X109119210Y-71306300D01*
X109169856Y-71311632D01*
X109169856Y-71967367D01*
X109388435Y-71967367D01*
X109388435Y-71158805D01*
X109610567Y-71158805D01*
X109610567Y-71866074D01*
X109621526Y-71990468D01*
X109654401Y-72091169D01*
X109709194Y-72168174D01*
X109788273Y-72222474D01*
X109894008Y-72255053D01*
X110026399Y-72265913D01*
X110103035Y-72261914D01*
X110176561Y-72249919D01*
X110314283Y-72212601D01*
X110273411Y-72027787D01*
X110165010Y-72064216D01*
X110022845Y-72081099D01*
X109928661Y-72067771D01*
X109870018Y-72031341D01*
X109839808Y-71977141D01*
X109833766Y-71931826D01*
X110447562Y-71931826D01*
X110574622Y-71975363D01*
X110683911Y-71986914D01*
X110762324Y-71980695D01*
X110826965Y-71962036D01*
X110919372Y-71890065D01*
X110968241Y-71775444D01*
X110973997Y-71736349D01*
X111380519Y-71736349D01*
X111400066Y-71834087D01*
X111464929Y-71914055D01*
X111583104Y-71967367D01*
X111664404Y-71982027D01*
X111762587Y-71986914D01*
X111862990Y-71980695D01*
X111947401Y-71962036D01*
X112070018Y-71917609D01*
X112036254Y-71734572D01*
X111903863Y-71780775D01*
X111760810Y-71802100D01*
X111638192Y-71790549D01*
X111595543Y-71743457D01*
X111608871Y-71704362D01*
X111646189Y-71676817D01*
X111701278Y-71654604D01*
X111766141Y-71633279D01*
X111863879Y-71600404D01*
X111954509Y-71553312D01*
X111967848Y-71539095D01*
X112228176Y-71539095D01*
X112229065Y-71583522D01*
X112231730Y-71620840D01*
X112773734Y-71620840D01*
X112756852Y-71693922D01*
X112706205Y-71749677D01*
X112628903Y-71784996D01*
X112532053Y-71796769D01*
X112406771Y-71782553D01*
X112306367Y-71754120D01*
X112276157Y-71940711D01*
X112396997Y-71973586D01*
X112540939Y-71986914D01*
X112642009Y-71980028D01*
X112731973Y-71959370D01*
X112810163Y-71925162D01*
X112875915Y-71877625D01*
X112928560Y-71816983D01*
X112967433Y-71743457D01*
X112991423Y-71656826D01*
X112999420Y-71556866D01*
X112990979Y-71453352D01*
X112980625Y-71416478D01*
X113102490Y-71416478D01*
X113112041Y-71557977D01*
X113140696Y-71676817D01*
X113186234Y-71774334D01*
X113246432Y-71851858D01*
X113320402Y-71910279D01*
X113407255Y-71950485D01*
X113505216Y-71973809D01*
X113612506Y-71981583D01*
X113727126Y-71975363D01*
X113847078Y-71954927D01*
X113847078Y-70881583D01*
X113706690Y-70860258D01*
X113584073Y-70854927D01*
X113480337Y-70862924D01*
X113385931Y-70886914D01*
X113303075Y-70928009D01*
X113233992Y-70987318D01*
X113178681Y-71065065D01*
X113137142Y-71161470D01*
X113111153Y-71278090D01*
X113102490Y-71416478D01*
X112980625Y-71416478D01*
X112965656Y-71363166D01*
X112926561Y-71286531D01*
X112876803Y-71223667D01*
X112817716Y-71174576D01*
X112750632Y-71139257D01*
X112678661Y-71117932D01*
X112604913Y-71110824D01*
X112491576Y-71122967D01*
X112397984Y-71159397D01*
X112324137Y-71220113D01*
X112270826Y-71304129D01*
X112238839Y-71410456D01*
X112228176Y-71539095D01*
X111967848Y-71539095D01*
X112022037Y-71481341D01*
X112048693Y-71372052D01*
X112028257Y-71271648D01*
X111964283Y-71188126D01*
X111853217Y-71131260D01*
X111779024Y-71115933D01*
X111691504Y-71110824D01*
X111612647Y-71113934D01*
X111539566Y-71123263D01*
X111417837Y-71158805D01*
X111451601Y-71343619D01*
X111545785Y-71314297D01*
X111689727Y-71293861D01*
X111802570Y-71314297D01*
X111831892Y-71357835D01*
X111818564Y-71392488D01*
X111783023Y-71420032D01*
X111731488Y-71444023D01*
X111668402Y-71466236D01*
X111568887Y-71501777D01*
X111475591Y-71550646D01*
X111407175Y-71625283D01*
X111380519Y-71736349D01*
X110973997Y-71736349D01*
X110978903Y-71703029D01*
X110982457Y-71620840D01*
X110982457Y-71313409D01*
X111213475Y-71313409D01*
X111213475Y-71132149D01*
X110911375Y-71132149D01*
X110763879Y-71132149D01*
X110763879Y-71649273D01*
X110736335Y-71760339D01*
X110644816Y-71796769D01*
X110571957Y-71788772D01*
X110475995Y-71755897D01*
X110447562Y-71931826D01*
X109833766Y-71931826D01*
X109830923Y-71910501D01*
X109830923Y-71876737D01*
X109915333Y-71903393D01*
X109997966Y-71912278D01*
X110098173Y-71900826D01*
X110180806Y-71866469D01*
X110245866Y-71809208D01*
X110292761Y-71731610D01*
X110320898Y-71636241D01*
X110330276Y-71523102D01*
X110317640Y-71397325D01*
X110279729Y-71294848D01*
X110216545Y-71215670D01*
X110131641Y-71159397D01*
X110028571Y-71125633D01*
X109907336Y-71114378D01*
X109813547Y-71119314D01*
X109714624Y-71134123D01*
X109610567Y-71158805D01*
X109388435Y-71158805D01*
X109322906Y-71143255D01*
X109243604Y-71128595D01*
X109153641Y-71117932D01*
X109056125Y-71114378D01*
X108965050Y-71121264D01*
X108890858Y-71141922D01*
X108786900Y-71220113D01*
X108732700Y-71340953D01*
X108720705Y-71414923D01*
X108716706Y-71496446D01*
X108551844Y-71496446D01*
X108548330Y-71453352D01*
X108523007Y-71363166D01*
X108483911Y-71286531D01*
X108434154Y-71223667D01*
X108375066Y-71174576D01*
X108307982Y-71139257D01*
X108236011Y-71117932D01*
X108162264Y-71110824D01*
X108048927Y-71122967D01*
X107955335Y-71159397D01*
X107881488Y-71220113D01*
X107828176Y-71304129D01*
X107796189Y-71410456D01*
X107785527Y-71539095D01*
X107672388Y-71539095D01*
X107664193Y-71428424D01*
X107636056Y-71320912D01*
X107589162Y-71232553D01*
X107523904Y-71166900D01*
X107440679Y-71127509D01*
X107339485Y-71114378D01*
X107252409Y-71124152D01*
X107177772Y-71151696D01*
X107177772Y-70892246D01*
X110772764Y-70892246D01*
X110813637Y-70993538D01*
X110911375Y-71030856D01*
X111008225Y-70993538D01*
X111048209Y-70892246D01*
X111008225Y-70789176D01*
X110911375Y-70751858D01*
X110813637Y-70789176D01*
X110772764Y-70892246D01*
X107177772Y-70892246D01*
X107177772Y-70771405D01*
X106959194Y-70734087D01*
X106959194Y-71942488D01*
X105836092Y-71942488D01*
X105836092Y-70771405D01*
X105617514Y-70734087D01*
X105617514Y-71151696D01*
X105528661Y-71122375D01*
X105443362Y-71114378D01*
X105366504Y-71122153D01*
X105299420Y-71145477D01*
X105195462Y-71234330D01*
X105158810Y-71297637D01*
X105132377Y-71372052D01*
X105116383Y-71456462D01*
X105111052Y-71549758D01*
X104859996Y-71549758D01*
X104888031Y-71473844D01*
X104924461Y-71365166D01*
X104959113Y-71251267D01*
X104991989Y-71132149D01*
X104764525Y-71132149D01*
X104728095Y-71272536D01*
X104706993Y-71347173D01*
X104684558Y-71421809D01*
X104660789Y-71495779D01*
X104635688Y-71568417D01*
X104583265Y-71702585D01*
X104545947Y-71568417D01*
X104526843Y-71496002D01*
X104508629Y-71422698D01*
X104491080Y-71348728D01*
X104473976Y-71274313D01*
X104442877Y-71132149D01*
X104218968Y-71132149D01*
X102802274Y-71132149D01*
X102752894Y-71048627D01*
X103175834Y-71048627D01*
X103175834Y-70867367D01*
X102489889Y-70867367D01*
X102489889Y-71020194D01*
X102563192Y-71133926D01*
X102630276Y-71240549D01*
X102692029Y-71341175D01*
X102749339Y-71436914D01*
X102802873Y-71528433D01*
X102853297Y-71616397D01*
X102901056Y-71701918D01*
X102946593Y-71786107D01*
X102473895Y-71786107D01*
X102282525Y-71786107D01*
X102305074Y-71743457D01*
X102329065Y-71656826D01*
X102337062Y-71556866D01*
X102328621Y-71453352D01*
X102303297Y-71363166D01*
X102264202Y-71286531D01*
X102214444Y-71223667D01*
X102155357Y-71174576D01*
X102088273Y-71139257D01*
X102016302Y-71117932D01*
X101942554Y-71110824D01*
X101829217Y-71122967D01*
X101735626Y-71159397D01*
X101661779Y-71220113D01*
X101608467Y-71304129D01*
X101576480Y-71410456D01*
X101565818Y-71539095D01*
X101447083Y-71539095D01*
X101440091Y-71453352D01*
X101414768Y-71363166D01*
X101375672Y-71286531D01*
X101325915Y-71223667D01*
X101266827Y-71174576D01*
X101199743Y-71139257D01*
X101127772Y-71117932D01*
X101054024Y-71110824D01*
X100940687Y-71122967D01*
X100847096Y-71159397D01*
X100773249Y-71220113D01*
X100719937Y-71304129D01*
X100687950Y-71410456D01*
X100677288Y-71539095D01*
X100416960Y-71539095D01*
X100471149Y-71481341D01*
X100497805Y-71372052D01*
X100477369Y-71271648D01*
X100413394Y-71188126D01*
X100302328Y-71131260D01*
X100228136Y-71115933D01*
X100140616Y-71110824D01*
X100061759Y-71113934D01*
X99988677Y-71123263D01*
X99866948Y-71158805D01*
X99900713Y-71343619D01*
X99994897Y-71314297D01*
X100138839Y-71293861D01*
X100251682Y-71314297D01*
X100281003Y-71357835D01*
X100267675Y-71392488D01*
X100232134Y-71420032D01*
X100180600Y-71444023D01*
X100117514Y-71466236D01*
X100017999Y-71501777D01*
X99924703Y-71550646D01*
X99856286Y-71625283D01*
X99829630Y-71736349D01*
X99614606Y-71736349D01*
X99614606Y-70771405D01*
X99396028Y-70734087D01*
X99396028Y-71139257D01*
X99332053Y-71122375D01*
X99266302Y-71114378D01*
X99181448Y-71121264D01*
X99111698Y-71141922D01*
X99012183Y-71220113D01*
X98958871Y-71340953D01*
X98946876Y-71414923D01*
X98942877Y-71496446D01*
X98623516Y-71496446D01*
X98544816Y-71465347D01*
X98415091Y-71452019D01*
X98334679Y-71455574D01*
X98264041Y-71466236D01*
X98264041Y-71439580D01*
X98303136Y-71335622D01*
X98356448Y-71304301D01*
X98438192Y-71293861D01*
X98558144Y-71302746D01*
X98651440Y-71324071D01*
X98681650Y-71148142D01*
X98566141Y-71122375D01*
X98490171Y-71113712D01*
X98411537Y-71110824D01*
X98317130Y-71116821D01*
X98240050Y-71134814D01*
X98130761Y-71202342D01*
X98072118Y-71308966D01*
X98054348Y-71450242D01*
X97837546Y-71450242D01*
X97837546Y-71158805D01*
X97772017Y-71143255D01*
X97692716Y-71128595D01*
X97602752Y-71117932D01*
X97505236Y-71114378D01*
X97414162Y-71121264D01*
X97339969Y-71141922D01*
X97236011Y-71220113D01*
X97181811Y-71340953D01*
X97169816Y-71414923D01*
X97165818Y-71496446D01*
X96092474Y-71496446D01*
X96092474Y-70867367D01*
X95873895Y-70867367D01*
X95873895Y-71300969D01*
X95582457Y-71300969D01*
X95582457Y-70867367D01*
X95363879Y-70867367D01*
X95363879Y-71967367D01*
X95011266Y-71967367D01*
X95109759Y-71925606D01*
X95180842Y-71840307D01*
X95205721Y-71711470D01*
X95177288Y-71588853D01*
X95100874Y-71508885D01*
X94990696Y-71465347D01*
X94860971Y-71452019D01*
X94780559Y-71455574D01*
X94709921Y-71466236D01*
X94709921Y-71439580D01*
X94749016Y-71335622D01*
X94802328Y-71304301D01*
X94884073Y-71293861D01*
X95004024Y-71302746D01*
X95097320Y-71324071D01*
X95127530Y-71148142D01*
X95012021Y-71122375D01*
X94936052Y-71113712D01*
X94857417Y-71110824D01*
X94763011Y-71116821D01*
X94685931Y-71134814D01*
X94576642Y-71202342D01*
X94517999Y-71308966D01*
X94500228Y-71450242D01*
X94331897Y-71450242D01*
X94313637Y-71372940D01*
X94280983Y-71298082D01*
X94236335Y-71235218D01*
X94179469Y-71184572D01*
X94110163Y-71146365D01*
X94029529Y-71122375D01*
X93938677Y-71114378D01*
X93852490Y-71117932D01*
X93764525Y-71127706D01*
X93683669Y-71141922D01*
X93617029Y-71158805D01*
X93402005Y-71158805D01*
X93402005Y-71132149D01*
X93183427Y-71132149D01*
X93183427Y-71569305D01*
X93176541Y-71669931D01*
X93155882Y-71740792D01*
X93048370Y-71796769D01*
X92948855Y-71787884D01*
X92948855Y-71132149D01*
X92728499Y-71132149D01*
X92728499Y-71938934D01*
X92342497Y-71938934D01*
X92373976Y-71925162D01*
X92439727Y-71877625D01*
X92492373Y-71816983D01*
X92531246Y-71743457D01*
X92555236Y-71656826D01*
X92563233Y-71556866D01*
X92554792Y-71453352D01*
X92529469Y-71363166D01*
X92490373Y-71286531D01*
X92440616Y-71223667D01*
X92381528Y-71174576D01*
X92314444Y-71139257D01*
X92242474Y-71117932D01*
X92168726Y-71110824D01*
X92055389Y-71122967D01*
X91961797Y-71159397D01*
X91887950Y-71220113D01*
X91834638Y-71304129D01*
X91802651Y-71410456D01*
X91791989Y-71539095D01*
X91159296Y-71539095D01*
X90873367Y-70585999D01*
X91421768Y-70585999D01*
X91791989Y-70585999D01*
X113847078Y-70585999D01*
X114217299Y-70585999D01*
X114826633Y-71500000D01*
G37*
D11*
G04 #@! TO.C,C6*
X94761252Y-88765000D02*
X94238748Y-88765000D01*
X94761252Y-90235000D02*
X94238748Y-90235000D01*
G04 #@! TO.C,C2*
X83519420Y-82715000D02*
X83800580Y-82715000D01*
X83519420Y-83735000D02*
X83800580Y-83735000D01*
G04 #@! TO.C,C7*
X94811252Y-86265000D02*
X94288748Y-86265000D01*
X94811252Y-87735000D02*
X94288748Y-87735000D01*
G04 #@! TO.C,C10*
X90765000Y-98461252D02*
X90765000Y-97938748D01*
X92235000Y-98461252D02*
X92235000Y-97938748D01*
G04 #@! TO.C,U1*
X79575000Y-85775000D02*
X79575000Y-87725000D01*
X79575000Y-89675000D02*
X79575000Y-87725000D01*
X84695000Y-85775000D02*
X84695000Y-87725000D01*
X84695000Y-89675000D02*
X84695000Y-87725000D01*
X84930000Y-90665000D02*
X84600000Y-90425000D01*
X84930000Y-90185000D01*
X84930000Y-90665000D01*
G36*
X84930000Y-90665000D02*
G01*
X84600000Y-90425000D01*
X84930000Y-90185000D01*
X84930000Y-90665000D01*
G37*
G04 #@! TD*
%LPC*%
D13*
G04 #@! TO.C,SW2*
X165405000Y-141525000D03*
X165405000Y-138525000D03*
G04 #@! TD*
D14*
G04 #@! TO.C,J1*
X88225000Y-87162500D03*
D15*
X81875000Y-77662500D03*
G04 #@! TD*
D16*
G04 #@! TO.C,PS1*
X163750000Y-122850000D03*
D17*
X163750000Y-120310000D03*
X163750000Y-117770000D03*
X163750000Y-115230000D03*
G04 #@! TD*
D14*
G04 #@! TO.C,J2*
X155425000Y-87212500D03*
D15*
X149075000Y-77712500D03*
G04 #@! TD*
D18*
G04 #@! TO.C,H4*
X163500000Y-164750000D03*
G04 #@! TD*
D19*
G04 #@! TO.C,J3*
X144435000Y-162395000D03*
X150215000Y-162395000D03*
D20*
X143005000Y-161895000D03*
D21*
X143005000Y-166075000D03*
D20*
X151645000Y-161895000D03*
D21*
X151645000Y-166075000D03*
G04 #@! TD*
D22*
G04 #@! TO.C,U15*
X81100000Y-156500000D03*
X114400000Y-156500000D03*
D23*
X96350000Y-155860000D03*
X99120000Y-155805000D03*
X94965000Y-158700000D03*
X97735000Y-158700000D03*
X100505000Y-158700000D03*
D24*
X90863000Y-155900000D03*
X104583000Y-155900000D03*
G04 #@! TD*
D25*
G04 #@! TO.C,J5*
X91750000Y-122750000D03*
D26*
X94290000Y-122750000D03*
X96830000Y-122750000D03*
X99370000Y-122750000D03*
G04 #@! TD*
D27*
G04 #@! TO.C,SW1*
X165875000Y-146975000D03*
X165875000Y-153475000D03*
X161375000Y-146975000D03*
X161375000Y-153475000D03*
G04 #@! TD*
D28*
G04 #@! TO.C,U3*
X88250000Y-113125001D03*
X88250000Y-112324601D03*
X88250000Y-111575001D03*
X89025000Y-112350001D03*
X87475000Y-112350001D03*
G04 #@! TD*
D18*
G04 #@! TO.C,H3*
X71500000Y-164750000D03*
G04 #@! TD*
G04 #@! TO.C,H1*
X71500000Y-72750000D03*
G04 #@! TD*
D25*
G04 #@! TO.C,J6*
X150725000Y-147525000D03*
D26*
X150725000Y-144985000D03*
X153265000Y-147525000D03*
X153265000Y-144985000D03*
X155805000Y-147525000D03*
X155805000Y-144985000D03*
G04 #@! TD*
D29*
G04 #@! TO.C,J4*
X124240000Y-164790000D03*
D30*
X124240000Y-162250000D03*
X126780000Y-164790000D03*
X126780000Y-162250000D03*
X129320000Y-164790000D03*
X129320000Y-162250000D03*
X131860000Y-164790000D03*
X131860000Y-162250000D03*
X134400000Y-164790000D03*
X134400000Y-162250000D03*
G04 #@! TD*
D18*
G04 #@! TO.C,H2*
X163500000Y-72750000D03*
G04 #@! TD*
D31*
G04 #@! TO.C,C9*
X93550000Y-82500000D03*
X95450000Y-82500000D03*
G04 #@! TD*
D32*
G04 #@! TO.C,C11*
X89000000Y-97250000D03*
X89000000Y-99150000D03*
G04 #@! TD*
D31*
G04 #@! TO.C,C3*
X93500000Y-94500000D03*
X95400000Y-94500000D03*
G04 #@! TD*
D33*
G04 #@! TO.C,C5*
X81345000Y-83225000D03*
X79620000Y-83225000D03*
G04 #@! TD*
D31*
G04 #@! TO.C,C8*
X93550000Y-84750000D03*
X95450000Y-84750000D03*
G04 #@! TD*
G04 #@! TO.C,C1*
X93550000Y-97000000D03*
X95450000Y-97000000D03*
G04 #@! TD*
G04 #@! TO.C,C4*
X93550000Y-92000000D03*
X95450000Y-92000000D03*
G04 #@! TD*
D34*
G04 #@! TO.C,C12*
X86750000Y-97225000D03*
X86750000Y-98775000D03*
G04 #@! TD*
D31*
G04 #@! TO.C,C6*
X93550000Y-89500000D03*
X95450000Y-89500000D03*
G04 #@! TD*
D35*
G04 #@! TO.C,C2*
X84435000Y-83225000D03*
X82885000Y-83225000D03*
G04 #@! TD*
D31*
G04 #@! TO.C,C7*
X93600000Y-87000000D03*
X95500000Y-87000000D03*
G04 #@! TD*
D32*
G04 #@! TO.C,C10*
X91500000Y-97250000D03*
X91500000Y-99150000D03*
G04 #@! TD*
D36*
G04 #@! TO.C,U1*
X84040000Y-90200000D03*
X82770000Y-90200000D03*
X81500000Y-90200000D03*
X80230000Y-90200000D03*
X80230000Y-85250000D03*
X81500000Y-85250000D03*
X82770000Y-85250000D03*
X84040000Y-85250000D03*
G04 #@! TD*
%LPD*%
M02*
