%TF.GenerationSoftware,KiCad,Pcbnew,8.0.2*%
%TF.CreationDate,2025-01-08T16:49:49-07:00*%
%TF.ProjectId,DC-DC-Boost-V1,44432d44-432d-4426-9f6f-73742d56312e,rev?*%
%TF.SameCoordinates,Original*%
%TF.FileFunction,Drillmap*%
%TF.FilePolarity,Positive*%
%FSLAX45Y45*%
G04 Gerber Fmt 4.5, Leading zero omitted, Abs format (unit mm)*
G04 Created by KiCad (PCBNEW 8.0.2) date 2025-01-08 16:49:49*
%MOMM*%
%LPD*%
G01*
G04 APERTURE LIST*
%ADD10C,0.100000*%
%ADD11C,0.200000*%
%ADD12C,0.350000*%
G04 APERTURE END LIST*
D10*
X16350000Y-6875000D02*
G75*
G02*
X16750000Y-7275000I0J-400000D01*
G01*
X16750000Y-7275000D02*
X16750000Y-16475000D01*
X6750000Y-16475000D02*
X6750000Y-7275000D01*
X7150000Y-6875000D02*
X16350000Y-6875000D01*
X6750000Y-7275000D02*
G75*
G02*
X7150000Y-6875000I400000J0D01*
G01*
X16750000Y-16475000D02*
G75*
G02*
X16350000Y-16875000I-400000J0D01*
G01*
X16350000Y-16875000D02*
X7150000Y-16875000D01*
X7150000Y-16875000D02*
G75*
G02*
X6750000Y-16475000I0J400000D01*
G01*
D11*
D10*
X14411000Y-16207000D02*
X14476000Y-16272000D01*
X14476000Y-16207000D02*
X14411000Y-16272000D01*
X14989000Y-16207000D02*
X15054000Y-16272000D01*
X15054000Y-16207000D02*
X14989000Y-16272000D01*
X16585500Y-13852500D02*
G75*
G02*
X16495500Y-13852500I-45000J0D01*
G01*
X16495500Y-13852500D02*
G75*
G02*
X16585500Y-13852500I45000J0D01*
G01*
X16585500Y-14152500D02*
G75*
G02*
X16495500Y-14152500I-45000J0D01*
G01*
X16495500Y-14152500D02*
G75*
G02*
X16585500Y-14152500I45000J0D01*
G01*
D12*
X7150000Y-7100000D02*
X7150000Y-7450000D01*
X6975000Y-7275000D02*
X7325000Y-7275000D01*
X7150000Y-16300000D02*
X7150000Y-16650000D01*
X6975000Y-16475000D02*
X7325000Y-16475000D01*
X16350000Y-7100000D02*
X16350000Y-7450000D01*
X16175000Y-7275000D02*
X16525000Y-7275000D01*
X16350000Y-16300000D02*
X16350000Y-16650000D01*
X16175000Y-16475000D02*
X16525000Y-16475000D01*
D11*
X7005777Y-17191484D02*
X7005777Y-16991484D01*
X7005777Y-16991484D02*
X7053396Y-16991484D01*
X7053396Y-16991484D02*
X7081967Y-17001008D01*
X7081967Y-17001008D02*
X7101015Y-17020055D01*
X7101015Y-17020055D02*
X7110539Y-17039103D01*
X7110539Y-17039103D02*
X7120062Y-17077198D01*
X7120062Y-17077198D02*
X7120062Y-17105770D01*
X7120062Y-17105770D02*
X7110539Y-17143865D01*
X7110539Y-17143865D02*
X7101015Y-17162912D01*
X7101015Y-17162912D02*
X7081967Y-17181960D01*
X7081967Y-17181960D02*
X7053396Y-17191484D01*
X7053396Y-17191484D02*
X7005777Y-17191484D01*
X7205777Y-17191484D02*
X7205777Y-17058150D01*
X7205777Y-17096246D02*
X7215301Y-17077198D01*
X7215301Y-17077198D02*
X7224824Y-17067674D01*
X7224824Y-17067674D02*
X7243872Y-17058150D01*
X7243872Y-17058150D02*
X7262920Y-17058150D01*
X7329586Y-17191484D02*
X7329586Y-17058150D01*
X7329586Y-16991484D02*
X7320062Y-17001008D01*
X7320062Y-17001008D02*
X7329586Y-17010531D01*
X7329586Y-17010531D02*
X7339110Y-17001008D01*
X7339110Y-17001008D02*
X7329586Y-16991484D01*
X7329586Y-16991484D02*
X7329586Y-17010531D01*
X7453396Y-17191484D02*
X7434348Y-17181960D01*
X7434348Y-17181960D02*
X7424824Y-17162912D01*
X7424824Y-17162912D02*
X7424824Y-16991484D01*
X7558158Y-17191484D02*
X7539110Y-17181960D01*
X7539110Y-17181960D02*
X7529586Y-17162912D01*
X7529586Y-17162912D02*
X7529586Y-16991484D01*
X7786729Y-17191484D02*
X7786729Y-16991484D01*
X7786729Y-16991484D02*
X7853396Y-17134341D01*
X7853396Y-17134341D02*
X7920062Y-16991484D01*
X7920062Y-16991484D02*
X7920062Y-17191484D01*
X8101015Y-17191484D02*
X8101015Y-17086722D01*
X8101015Y-17086722D02*
X8091491Y-17067674D01*
X8091491Y-17067674D02*
X8072443Y-17058150D01*
X8072443Y-17058150D02*
X8034348Y-17058150D01*
X8034348Y-17058150D02*
X8015301Y-17067674D01*
X8101015Y-17181960D02*
X8081967Y-17191484D01*
X8081967Y-17191484D02*
X8034348Y-17191484D01*
X8034348Y-17191484D02*
X8015301Y-17181960D01*
X8015301Y-17181960D02*
X8005777Y-17162912D01*
X8005777Y-17162912D02*
X8005777Y-17143865D01*
X8005777Y-17143865D02*
X8015301Y-17124817D01*
X8015301Y-17124817D02*
X8034348Y-17115293D01*
X8034348Y-17115293D02*
X8081967Y-17115293D01*
X8081967Y-17115293D02*
X8101015Y-17105770D01*
X8196253Y-17058150D02*
X8196253Y-17258150D01*
X8196253Y-17067674D02*
X8215301Y-17058150D01*
X8215301Y-17058150D02*
X8253396Y-17058150D01*
X8253396Y-17058150D02*
X8272443Y-17067674D01*
X8272443Y-17067674D02*
X8281967Y-17077198D01*
X8281967Y-17077198D02*
X8291491Y-17096246D01*
X8291491Y-17096246D02*
X8291491Y-17153389D01*
X8291491Y-17153389D02*
X8281967Y-17172436D01*
X8281967Y-17172436D02*
X8272443Y-17181960D01*
X8272443Y-17181960D02*
X8253396Y-17191484D01*
X8253396Y-17191484D02*
X8215301Y-17191484D01*
X8215301Y-17191484D02*
X8196253Y-17181960D01*
X8377205Y-17172436D02*
X8386729Y-17181960D01*
X8386729Y-17181960D02*
X8377205Y-17191484D01*
X8377205Y-17191484D02*
X8367682Y-17181960D01*
X8367682Y-17181960D02*
X8377205Y-17172436D01*
X8377205Y-17172436D02*
X8377205Y-17191484D01*
X8377205Y-17067674D02*
X8386729Y-17077198D01*
X8386729Y-17077198D02*
X8377205Y-17086722D01*
X8377205Y-17086722D02*
X8367682Y-17077198D01*
X8367682Y-17077198D02*
X8377205Y-17067674D01*
X8377205Y-17067674D02*
X8377205Y-17086722D01*
D10*
X6680000Y-17487500D02*
X6745000Y-17552500D01*
X6745000Y-17487500D02*
X6680000Y-17552500D01*
D11*
X7043872Y-17411484D02*
X7062920Y-17411484D01*
X7062920Y-17411484D02*
X7081967Y-17421008D01*
X7081967Y-17421008D02*
X7091491Y-17430531D01*
X7091491Y-17430531D02*
X7101015Y-17449579D01*
X7101015Y-17449579D02*
X7110539Y-17487674D01*
X7110539Y-17487674D02*
X7110539Y-17535293D01*
X7110539Y-17535293D02*
X7101015Y-17573389D01*
X7101015Y-17573389D02*
X7091491Y-17592436D01*
X7091491Y-17592436D02*
X7081967Y-17601960D01*
X7081967Y-17601960D02*
X7062920Y-17611484D01*
X7062920Y-17611484D02*
X7043872Y-17611484D01*
X7043872Y-17611484D02*
X7024824Y-17601960D01*
X7024824Y-17601960D02*
X7015301Y-17592436D01*
X7015301Y-17592436D02*
X7005777Y-17573389D01*
X7005777Y-17573389D02*
X6996253Y-17535293D01*
X6996253Y-17535293D02*
X6996253Y-17487674D01*
X6996253Y-17487674D02*
X7005777Y-17449579D01*
X7005777Y-17449579D02*
X7015301Y-17430531D01*
X7015301Y-17430531D02*
X7024824Y-17421008D01*
X7024824Y-17421008D02*
X7043872Y-17411484D01*
X7196253Y-17592436D02*
X7205777Y-17601960D01*
X7205777Y-17601960D02*
X7196253Y-17611484D01*
X7196253Y-17611484D02*
X7186729Y-17601960D01*
X7186729Y-17601960D02*
X7196253Y-17592436D01*
X7196253Y-17592436D02*
X7196253Y-17611484D01*
X7377205Y-17411484D02*
X7339110Y-17411484D01*
X7339110Y-17411484D02*
X7320062Y-17421008D01*
X7320062Y-17421008D02*
X7310539Y-17430531D01*
X7310539Y-17430531D02*
X7291491Y-17459103D01*
X7291491Y-17459103D02*
X7281967Y-17497198D01*
X7281967Y-17497198D02*
X7281967Y-17573389D01*
X7281967Y-17573389D02*
X7291491Y-17592436D01*
X7291491Y-17592436D02*
X7301015Y-17601960D01*
X7301015Y-17601960D02*
X7320062Y-17611484D01*
X7320062Y-17611484D02*
X7358158Y-17611484D01*
X7358158Y-17611484D02*
X7377205Y-17601960D01*
X7377205Y-17601960D02*
X7386729Y-17592436D01*
X7386729Y-17592436D02*
X7396253Y-17573389D01*
X7396253Y-17573389D02*
X7396253Y-17525770D01*
X7396253Y-17525770D02*
X7386729Y-17506722D01*
X7386729Y-17506722D02*
X7377205Y-17497198D01*
X7377205Y-17497198D02*
X7358158Y-17487674D01*
X7358158Y-17487674D02*
X7320062Y-17487674D01*
X7320062Y-17487674D02*
X7301015Y-17497198D01*
X7301015Y-17497198D02*
X7291491Y-17506722D01*
X7291491Y-17506722D02*
X7281967Y-17525770D01*
X7577205Y-17411484D02*
X7481967Y-17411484D01*
X7481967Y-17411484D02*
X7472443Y-17506722D01*
X7472443Y-17506722D02*
X7481967Y-17497198D01*
X7481967Y-17497198D02*
X7501015Y-17487674D01*
X7501015Y-17487674D02*
X7548634Y-17487674D01*
X7548634Y-17487674D02*
X7567682Y-17497198D01*
X7567682Y-17497198D02*
X7577205Y-17506722D01*
X7577205Y-17506722D02*
X7586729Y-17525770D01*
X7586729Y-17525770D02*
X7586729Y-17573389D01*
X7586729Y-17573389D02*
X7577205Y-17592436D01*
X7577205Y-17592436D02*
X7567682Y-17601960D01*
X7567682Y-17601960D02*
X7548634Y-17611484D01*
X7548634Y-17611484D02*
X7501015Y-17611484D01*
X7501015Y-17611484D02*
X7481967Y-17601960D01*
X7481967Y-17601960D02*
X7472443Y-17592436D01*
X7710539Y-17411484D02*
X7729586Y-17411484D01*
X7729586Y-17411484D02*
X7748634Y-17421008D01*
X7748634Y-17421008D02*
X7758158Y-17430531D01*
X7758158Y-17430531D02*
X7767682Y-17449579D01*
X7767682Y-17449579D02*
X7777205Y-17487674D01*
X7777205Y-17487674D02*
X7777205Y-17535293D01*
X7777205Y-17535293D02*
X7767682Y-17573389D01*
X7767682Y-17573389D02*
X7758158Y-17592436D01*
X7758158Y-17592436D02*
X7748634Y-17601960D01*
X7748634Y-17601960D02*
X7729586Y-17611484D01*
X7729586Y-17611484D02*
X7710539Y-17611484D01*
X7710539Y-17611484D02*
X7691491Y-17601960D01*
X7691491Y-17601960D02*
X7681967Y-17592436D01*
X7681967Y-17592436D02*
X7672443Y-17573389D01*
X7672443Y-17573389D02*
X7662920Y-17535293D01*
X7662920Y-17535293D02*
X7662920Y-17487674D01*
X7662920Y-17487674D02*
X7672443Y-17449579D01*
X7672443Y-17449579D02*
X7681967Y-17430531D01*
X7681967Y-17430531D02*
X7691491Y-17421008D01*
X7691491Y-17421008D02*
X7710539Y-17411484D01*
X7862920Y-17611484D02*
X7862920Y-17478150D01*
X7862920Y-17497198D02*
X7872443Y-17487674D01*
X7872443Y-17487674D02*
X7891491Y-17478150D01*
X7891491Y-17478150D02*
X7920063Y-17478150D01*
X7920063Y-17478150D02*
X7939110Y-17487674D01*
X7939110Y-17487674D02*
X7948634Y-17506722D01*
X7948634Y-17506722D02*
X7948634Y-17611484D01*
X7948634Y-17506722D02*
X7958158Y-17487674D01*
X7958158Y-17487674D02*
X7977205Y-17478150D01*
X7977205Y-17478150D02*
X8005777Y-17478150D01*
X8005777Y-17478150D02*
X8024824Y-17487674D01*
X8024824Y-17487674D02*
X8034348Y-17506722D01*
X8034348Y-17506722D02*
X8034348Y-17611484D01*
X8129586Y-17611484D02*
X8129586Y-17478150D01*
X8129586Y-17497198D02*
X8139110Y-17487674D01*
X8139110Y-17487674D02*
X8158158Y-17478150D01*
X8158158Y-17478150D02*
X8186729Y-17478150D01*
X8186729Y-17478150D02*
X8205777Y-17487674D01*
X8205777Y-17487674D02*
X8215301Y-17506722D01*
X8215301Y-17506722D02*
X8215301Y-17611484D01*
X8215301Y-17506722D02*
X8224824Y-17487674D01*
X8224824Y-17487674D02*
X8243872Y-17478150D01*
X8243872Y-17478150D02*
X8272443Y-17478150D01*
X8272443Y-17478150D02*
X8291491Y-17487674D01*
X8291491Y-17487674D02*
X8301015Y-17506722D01*
X8301015Y-17506722D02*
X8301015Y-17611484D01*
X8691491Y-17401960D02*
X8520063Y-17659103D01*
X8948634Y-17411484D02*
X8967682Y-17411484D01*
X8967682Y-17411484D02*
X8986729Y-17421008D01*
X8986729Y-17421008D02*
X8996253Y-17430531D01*
X8996253Y-17430531D02*
X9005777Y-17449579D01*
X9005777Y-17449579D02*
X9015301Y-17487674D01*
X9015301Y-17487674D02*
X9015301Y-17535293D01*
X9015301Y-17535293D02*
X9005777Y-17573389D01*
X9005777Y-17573389D02*
X8996253Y-17592436D01*
X8996253Y-17592436D02*
X8986729Y-17601960D01*
X8986729Y-17601960D02*
X8967682Y-17611484D01*
X8967682Y-17611484D02*
X8948634Y-17611484D01*
X8948634Y-17611484D02*
X8929587Y-17601960D01*
X8929587Y-17601960D02*
X8920063Y-17592436D01*
X8920063Y-17592436D02*
X8910539Y-17573389D01*
X8910539Y-17573389D02*
X8901015Y-17535293D01*
X8901015Y-17535293D02*
X8901015Y-17487674D01*
X8901015Y-17487674D02*
X8910539Y-17449579D01*
X8910539Y-17449579D02*
X8920063Y-17430531D01*
X8920063Y-17430531D02*
X8929587Y-17421008D01*
X8929587Y-17421008D02*
X8948634Y-17411484D01*
X9101015Y-17592436D02*
X9110539Y-17601960D01*
X9110539Y-17601960D02*
X9101015Y-17611484D01*
X9101015Y-17611484D02*
X9091491Y-17601960D01*
X9091491Y-17601960D02*
X9101015Y-17592436D01*
X9101015Y-17592436D02*
X9101015Y-17611484D01*
X9234348Y-17411484D02*
X9253396Y-17411484D01*
X9253396Y-17411484D02*
X9272444Y-17421008D01*
X9272444Y-17421008D02*
X9281968Y-17430531D01*
X9281968Y-17430531D02*
X9291491Y-17449579D01*
X9291491Y-17449579D02*
X9301015Y-17487674D01*
X9301015Y-17487674D02*
X9301015Y-17535293D01*
X9301015Y-17535293D02*
X9291491Y-17573389D01*
X9291491Y-17573389D02*
X9281968Y-17592436D01*
X9281968Y-17592436D02*
X9272444Y-17601960D01*
X9272444Y-17601960D02*
X9253396Y-17611484D01*
X9253396Y-17611484D02*
X9234348Y-17611484D01*
X9234348Y-17611484D02*
X9215301Y-17601960D01*
X9215301Y-17601960D02*
X9205777Y-17592436D01*
X9205777Y-17592436D02*
X9196253Y-17573389D01*
X9196253Y-17573389D02*
X9186729Y-17535293D01*
X9186729Y-17535293D02*
X9186729Y-17487674D01*
X9186729Y-17487674D02*
X9196253Y-17449579D01*
X9196253Y-17449579D02*
X9205777Y-17430531D01*
X9205777Y-17430531D02*
X9215301Y-17421008D01*
X9215301Y-17421008D02*
X9234348Y-17411484D01*
X9377206Y-17430531D02*
X9386729Y-17421008D01*
X9386729Y-17421008D02*
X9405777Y-17411484D01*
X9405777Y-17411484D02*
X9453396Y-17411484D01*
X9453396Y-17411484D02*
X9472444Y-17421008D01*
X9472444Y-17421008D02*
X9481968Y-17430531D01*
X9481968Y-17430531D02*
X9491491Y-17449579D01*
X9491491Y-17449579D02*
X9491491Y-17468627D01*
X9491491Y-17468627D02*
X9481968Y-17497198D01*
X9481968Y-17497198D02*
X9367682Y-17611484D01*
X9367682Y-17611484D02*
X9491491Y-17611484D01*
X9672444Y-17411484D02*
X9577206Y-17411484D01*
X9577206Y-17411484D02*
X9567682Y-17506722D01*
X9567682Y-17506722D02*
X9577206Y-17497198D01*
X9577206Y-17497198D02*
X9596253Y-17487674D01*
X9596253Y-17487674D02*
X9643872Y-17487674D01*
X9643872Y-17487674D02*
X9662920Y-17497198D01*
X9662920Y-17497198D02*
X9672444Y-17506722D01*
X9672444Y-17506722D02*
X9681968Y-17525770D01*
X9681968Y-17525770D02*
X9681968Y-17573389D01*
X9681968Y-17573389D02*
X9672444Y-17592436D01*
X9672444Y-17592436D02*
X9662920Y-17601960D01*
X9662920Y-17601960D02*
X9643872Y-17611484D01*
X9643872Y-17611484D02*
X9596253Y-17611484D01*
X9596253Y-17611484D02*
X9577206Y-17601960D01*
X9577206Y-17601960D02*
X9567682Y-17592436D01*
X9853396Y-17411484D02*
X9815301Y-17411484D01*
X9815301Y-17411484D02*
X9796253Y-17421008D01*
X9796253Y-17421008D02*
X9786729Y-17430531D01*
X9786729Y-17430531D02*
X9767682Y-17459103D01*
X9767682Y-17459103D02*
X9758158Y-17497198D01*
X9758158Y-17497198D02*
X9758158Y-17573389D01*
X9758158Y-17573389D02*
X9767682Y-17592436D01*
X9767682Y-17592436D02*
X9777206Y-17601960D01*
X9777206Y-17601960D02*
X9796253Y-17611484D01*
X9796253Y-17611484D02*
X9834349Y-17611484D01*
X9834349Y-17611484D02*
X9853396Y-17601960D01*
X9853396Y-17601960D02*
X9862920Y-17592436D01*
X9862920Y-17592436D02*
X9872444Y-17573389D01*
X9872444Y-17573389D02*
X9872444Y-17525770D01*
X9872444Y-17525770D02*
X9862920Y-17506722D01*
X9862920Y-17506722D02*
X9853396Y-17497198D01*
X9853396Y-17497198D02*
X9834349Y-17487674D01*
X9834349Y-17487674D02*
X9796253Y-17487674D01*
X9796253Y-17487674D02*
X9777206Y-17497198D01*
X9777206Y-17497198D02*
X9767682Y-17506722D01*
X9767682Y-17506722D02*
X9758158Y-17525770D01*
X9948634Y-17411484D02*
X9948634Y-17449579D01*
X10024825Y-17411484D02*
X10024825Y-17449579D01*
X10320063Y-17687674D02*
X10310539Y-17678150D01*
X10310539Y-17678150D02*
X10291491Y-17649579D01*
X10291491Y-17649579D02*
X10281968Y-17630531D01*
X10281968Y-17630531D02*
X10272444Y-17601960D01*
X10272444Y-17601960D02*
X10262920Y-17554341D01*
X10262920Y-17554341D02*
X10262920Y-17516246D01*
X10262920Y-17516246D02*
X10272444Y-17468627D01*
X10272444Y-17468627D02*
X10281968Y-17440055D01*
X10281968Y-17440055D02*
X10291491Y-17421008D01*
X10291491Y-17421008D02*
X10310539Y-17392436D01*
X10310539Y-17392436D02*
X10320063Y-17382912D01*
X10386730Y-17430531D02*
X10396253Y-17421008D01*
X10396253Y-17421008D02*
X10415301Y-17411484D01*
X10415301Y-17411484D02*
X10462920Y-17411484D01*
X10462920Y-17411484D02*
X10481968Y-17421008D01*
X10481968Y-17421008D02*
X10491491Y-17430531D01*
X10491491Y-17430531D02*
X10501015Y-17449579D01*
X10501015Y-17449579D02*
X10501015Y-17468627D01*
X10501015Y-17468627D02*
X10491491Y-17497198D01*
X10491491Y-17497198D02*
X10377206Y-17611484D01*
X10377206Y-17611484D02*
X10501015Y-17611484D01*
X10739111Y-17611484D02*
X10739111Y-17411484D01*
X10824825Y-17611484D02*
X10824825Y-17506722D01*
X10824825Y-17506722D02*
X10815301Y-17487674D01*
X10815301Y-17487674D02*
X10796253Y-17478150D01*
X10796253Y-17478150D02*
X10767682Y-17478150D01*
X10767682Y-17478150D02*
X10748634Y-17487674D01*
X10748634Y-17487674D02*
X10739111Y-17497198D01*
X10948634Y-17611484D02*
X10929587Y-17601960D01*
X10929587Y-17601960D02*
X10920063Y-17592436D01*
X10920063Y-17592436D02*
X10910539Y-17573389D01*
X10910539Y-17573389D02*
X10910539Y-17516246D01*
X10910539Y-17516246D02*
X10920063Y-17497198D01*
X10920063Y-17497198D02*
X10929587Y-17487674D01*
X10929587Y-17487674D02*
X10948634Y-17478150D01*
X10948634Y-17478150D02*
X10977206Y-17478150D01*
X10977206Y-17478150D02*
X10996253Y-17487674D01*
X10996253Y-17487674D02*
X11005777Y-17497198D01*
X11005777Y-17497198D02*
X11015301Y-17516246D01*
X11015301Y-17516246D02*
X11015301Y-17573389D01*
X11015301Y-17573389D02*
X11005777Y-17592436D01*
X11005777Y-17592436D02*
X10996253Y-17601960D01*
X10996253Y-17601960D02*
X10977206Y-17611484D01*
X10977206Y-17611484D02*
X10948634Y-17611484D01*
X11129587Y-17611484D02*
X11110539Y-17601960D01*
X11110539Y-17601960D02*
X11101015Y-17582912D01*
X11101015Y-17582912D02*
X11101015Y-17411484D01*
X11281968Y-17601960D02*
X11262920Y-17611484D01*
X11262920Y-17611484D02*
X11224825Y-17611484D01*
X11224825Y-17611484D02*
X11205777Y-17601960D01*
X11205777Y-17601960D02*
X11196253Y-17582912D01*
X11196253Y-17582912D02*
X11196253Y-17506722D01*
X11196253Y-17506722D02*
X11205777Y-17487674D01*
X11205777Y-17487674D02*
X11224825Y-17478150D01*
X11224825Y-17478150D02*
X11262920Y-17478150D01*
X11262920Y-17478150D02*
X11281968Y-17487674D01*
X11281968Y-17487674D02*
X11291491Y-17506722D01*
X11291491Y-17506722D02*
X11291491Y-17525770D01*
X11291491Y-17525770D02*
X11196253Y-17544817D01*
X11367682Y-17601960D02*
X11386730Y-17611484D01*
X11386730Y-17611484D02*
X11424825Y-17611484D01*
X11424825Y-17611484D02*
X11443872Y-17601960D01*
X11443872Y-17601960D02*
X11453396Y-17582912D01*
X11453396Y-17582912D02*
X11453396Y-17573389D01*
X11453396Y-17573389D02*
X11443872Y-17554341D01*
X11443872Y-17554341D02*
X11424825Y-17544817D01*
X11424825Y-17544817D02*
X11396253Y-17544817D01*
X11396253Y-17544817D02*
X11377206Y-17535293D01*
X11377206Y-17535293D02*
X11367682Y-17516246D01*
X11367682Y-17516246D02*
X11367682Y-17506722D01*
X11367682Y-17506722D02*
X11377206Y-17487674D01*
X11377206Y-17487674D02*
X11396253Y-17478150D01*
X11396253Y-17478150D02*
X11424825Y-17478150D01*
X11424825Y-17478150D02*
X11443872Y-17487674D01*
X11520063Y-17687674D02*
X11529587Y-17678150D01*
X11529587Y-17678150D02*
X11548634Y-17649579D01*
X11548634Y-17649579D02*
X11558158Y-17630531D01*
X11558158Y-17630531D02*
X11567682Y-17601960D01*
X11567682Y-17601960D02*
X11577206Y-17554341D01*
X11577206Y-17554341D02*
X11577206Y-17516246D01*
X11577206Y-17516246D02*
X11567682Y-17468627D01*
X11567682Y-17468627D02*
X11558158Y-17440055D01*
X11558158Y-17440055D02*
X11548634Y-17421008D01*
X11548634Y-17421008D02*
X11529587Y-17392436D01*
X11529587Y-17392436D02*
X11520063Y-17382912D01*
X11881968Y-17687674D02*
X11872444Y-17678150D01*
X11872444Y-17678150D02*
X11853396Y-17649579D01*
X11853396Y-17649579D02*
X11843872Y-17630531D01*
X11843872Y-17630531D02*
X11834349Y-17601960D01*
X11834349Y-17601960D02*
X11824825Y-17554341D01*
X11824825Y-17554341D02*
X11824825Y-17516246D01*
X11824825Y-17516246D02*
X11834349Y-17468627D01*
X11834349Y-17468627D02*
X11843872Y-17440055D01*
X11843872Y-17440055D02*
X11853396Y-17421008D01*
X11853396Y-17421008D02*
X11872444Y-17392436D01*
X11872444Y-17392436D02*
X11881968Y-17382912D01*
X11958158Y-17478150D02*
X11958158Y-17611484D01*
X11958158Y-17497198D02*
X11967682Y-17487674D01*
X11967682Y-17487674D02*
X11986730Y-17478150D01*
X11986730Y-17478150D02*
X12015301Y-17478150D01*
X12015301Y-17478150D02*
X12034349Y-17487674D01*
X12034349Y-17487674D02*
X12043872Y-17506722D01*
X12043872Y-17506722D02*
X12043872Y-17611484D01*
X12167682Y-17611484D02*
X12148634Y-17601960D01*
X12148634Y-17601960D02*
X12139111Y-17592436D01*
X12139111Y-17592436D02*
X12129587Y-17573389D01*
X12129587Y-17573389D02*
X12129587Y-17516246D01*
X12129587Y-17516246D02*
X12139111Y-17497198D01*
X12139111Y-17497198D02*
X12148634Y-17487674D01*
X12148634Y-17487674D02*
X12167682Y-17478150D01*
X12167682Y-17478150D02*
X12196253Y-17478150D01*
X12196253Y-17478150D02*
X12215301Y-17487674D01*
X12215301Y-17487674D02*
X12224825Y-17497198D01*
X12224825Y-17497198D02*
X12234349Y-17516246D01*
X12234349Y-17516246D02*
X12234349Y-17573389D01*
X12234349Y-17573389D02*
X12224825Y-17592436D01*
X12224825Y-17592436D02*
X12215301Y-17601960D01*
X12215301Y-17601960D02*
X12196253Y-17611484D01*
X12196253Y-17611484D02*
X12167682Y-17611484D01*
X12291492Y-17478150D02*
X12367682Y-17478150D01*
X12320063Y-17411484D02*
X12320063Y-17582912D01*
X12320063Y-17582912D02*
X12329587Y-17601960D01*
X12329587Y-17601960D02*
X12348634Y-17611484D01*
X12348634Y-17611484D02*
X12367682Y-17611484D01*
X12586730Y-17478150D02*
X12586730Y-17678150D01*
X12586730Y-17487674D02*
X12605777Y-17478150D01*
X12605777Y-17478150D02*
X12643873Y-17478150D01*
X12643873Y-17478150D02*
X12662920Y-17487674D01*
X12662920Y-17487674D02*
X12672444Y-17497198D01*
X12672444Y-17497198D02*
X12681968Y-17516246D01*
X12681968Y-17516246D02*
X12681968Y-17573389D01*
X12681968Y-17573389D02*
X12672444Y-17592436D01*
X12672444Y-17592436D02*
X12662920Y-17601960D01*
X12662920Y-17601960D02*
X12643873Y-17611484D01*
X12643873Y-17611484D02*
X12605777Y-17611484D01*
X12605777Y-17611484D02*
X12586730Y-17601960D01*
X12796253Y-17611484D02*
X12777206Y-17601960D01*
X12777206Y-17601960D02*
X12767682Y-17582912D01*
X12767682Y-17582912D02*
X12767682Y-17411484D01*
X12958158Y-17611484D02*
X12958158Y-17506722D01*
X12958158Y-17506722D02*
X12948634Y-17487674D01*
X12948634Y-17487674D02*
X12929587Y-17478150D01*
X12929587Y-17478150D02*
X12891492Y-17478150D01*
X12891492Y-17478150D02*
X12872444Y-17487674D01*
X12958158Y-17601960D02*
X12939111Y-17611484D01*
X12939111Y-17611484D02*
X12891492Y-17611484D01*
X12891492Y-17611484D02*
X12872444Y-17601960D01*
X12872444Y-17601960D02*
X12862920Y-17582912D01*
X12862920Y-17582912D02*
X12862920Y-17563865D01*
X12862920Y-17563865D02*
X12872444Y-17544817D01*
X12872444Y-17544817D02*
X12891492Y-17535293D01*
X12891492Y-17535293D02*
X12939111Y-17535293D01*
X12939111Y-17535293D02*
X12958158Y-17525770D01*
X13024825Y-17478150D02*
X13101015Y-17478150D01*
X13053396Y-17411484D02*
X13053396Y-17582912D01*
X13053396Y-17582912D02*
X13062920Y-17601960D01*
X13062920Y-17601960D02*
X13081968Y-17611484D01*
X13081968Y-17611484D02*
X13101015Y-17611484D01*
X13243873Y-17601960D02*
X13224825Y-17611484D01*
X13224825Y-17611484D02*
X13186730Y-17611484D01*
X13186730Y-17611484D02*
X13167682Y-17601960D01*
X13167682Y-17601960D02*
X13158158Y-17582912D01*
X13158158Y-17582912D02*
X13158158Y-17506722D01*
X13158158Y-17506722D02*
X13167682Y-17487674D01*
X13167682Y-17487674D02*
X13186730Y-17478150D01*
X13186730Y-17478150D02*
X13224825Y-17478150D01*
X13224825Y-17478150D02*
X13243873Y-17487674D01*
X13243873Y-17487674D02*
X13253396Y-17506722D01*
X13253396Y-17506722D02*
X13253396Y-17525770D01*
X13253396Y-17525770D02*
X13158158Y-17544817D01*
X13424825Y-17611484D02*
X13424825Y-17411484D01*
X13424825Y-17601960D02*
X13405777Y-17611484D01*
X13405777Y-17611484D02*
X13367682Y-17611484D01*
X13367682Y-17611484D02*
X13348634Y-17601960D01*
X13348634Y-17601960D02*
X13339111Y-17592436D01*
X13339111Y-17592436D02*
X13329587Y-17573389D01*
X13329587Y-17573389D02*
X13329587Y-17516246D01*
X13329587Y-17516246D02*
X13339111Y-17497198D01*
X13339111Y-17497198D02*
X13348634Y-17487674D01*
X13348634Y-17487674D02*
X13367682Y-17478150D01*
X13367682Y-17478150D02*
X13405777Y-17478150D01*
X13405777Y-17478150D02*
X13424825Y-17487674D01*
X13501015Y-17687674D02*
X13510539Y-17678150D01*
X13510539Y-17678150D02*
X13529587Y-17649579D01*
X13529587Y-17649579D02*
X13539111Y-17630531D01*
X13539111Y-17630531D02*
X13548634Y-17601960D01*
X13548634Y-17601960D02*
X13558158Y-17554341D01*
X13558158Y-17554341D02*
X13558158Y-17516246D01*
X13558158Y-17516246D02*
X13548634Y-17468627D01*
X13548634Y-17468627D02*
X13539111Y-17440055D01*
X13539111Y-17440055D02*
X13529587Y-17421008D01*
X13529587Y-17421008D02*
X13510539Y-17392436D01*
X13510539Y-17392436D02*
X13501015Y-17382912D01*
D10*
X6745000Y-17784000D02*
G75*
G02*
X6655000Y-17784000I-45000J0D01*
G01*
X6655000Y-17784000D02*
G75*
G02*
X6745000Y-17784000I45000J0D01*
G01*
D11*
X7043872Y-17675484D02*
X7062920Y-17675484D01*
X7062920Y-17675484D02*
X7081967Y-17685008D01*
X7081967Y-17685008D02*
X7091491Y-17694531D01*
X7091491Y-17694531D02*
X7101015Y-17713579D01*
X7101015Y-17713579D02*
X7110539Y-17751674D01*
X7110539Y-17751674D02*
X7110539Y-17799293D01*
X7110539Y-17799293D02*
X7101015Y-17837389D01*
X7101015Y-17837389D02*
X7091491Y-17856436D01*
X7091491Y-17856436D02*
X7081967Y-17865960D01*
X7081967Y-17865960D02*
X7062920Y-17875484D01*
X7062920Y-17875484D02*
X7043872Y-17875484D01*
X7043872Y-17875484D02*
X7024824Y-17865960D01*
X7024824Y-17865960D02*
X7015301Y-17856436D01*
X7015301Y-17856436D02*
X7005777Y-17837389D01*
X7005777Y-17837389D02*
X6996253Y-17799293D01*
X6996253Y-17799293D02*
X6996253Y-17751674D01*
X6996253Y-17751674D02*
X7005777Y-17713579D01*
X7005777Y-17713579D02*
X7015301Y-17694531D01*
X7015301Y-17694531D02*
X7024824Y-17685008D01*
X7024824Y-17685008D02*
X7043872Y-17675484D01*
X7196253Y-17856436D02*
X7205777Y-17865960D01*
X7205777Y-17865960D02*
X7196253Y-17875484D01*
X7196253Y-17875484D02*
X7186729Y-17865960D01*
X7186729Y-17865960D02*
X7196253Y-17856436D01*
X7196253Y-17856436D02*
X7196253Y-17875484D01*
X7301015Y-17875484D02*
X7339110Y-17875484D01*
X7339110Y-17875484D02*
X7358158Y-17865960D01*
X7358158Y-17865960D02*
X7367682Y-17856436D01*
X7367682Y-17856436D02*
X7386729Y-17827865D01*
X7386729Y-17827865D02*
X7396253Y-17789770D01*
X7396253Y-17789770D02*
X7396253Y-17713579D01*
X7396253Y-17713579D02*
X7386729Y-17694531D01*
X7386729Y-17694531D02*
X7377205Y-17685008D01*
X7377205Y-17685008D02*
X7358158Y-17675484D01*
X7358158Y-17675484D02*
X7320062Y-17675484D01*
X7320062Y-17675484D02*
X7301015Y-17685008D01*
X7301015Y-17685008D02*
X7291491Y-17694531D01*
X7291491Y-17694531D02*
X7281967Y-17713579D01*
X7281967Y-17713579D02*
X7281967Y-17761198D01*
X7281967Y-17761198D02*
X7291491Y-17780246D01*
X7291491Y-17780246D02*
X7301015Y-17789770D01*
X7301015Y-17789770D02*
X7320062Y-17799293D01*
X7320062Y-17799293D02*
X7358158Y-17799293D01*
X7358158Y-17799293D02*
X7377205Y-17789770D01*
X7377205Y-17789770D02*
X7386729Y-17780246D01*
X7386729Y-17780246D02*
X7396253Y-17761198D01*
X7520062Y-17675484D02*
X7539110Y-17675484D01*
X7539110Y-17675484D02*
X7558158Y-17685008D01*
X7558158Y-17685008D02*
X7567682Y-17694531D01*
X7567682Y-17694531D02*
X7577205Y-17713579D01*
X7577205Y-17713579D02*
X7586729Y-17751674D01*
X7586729Y-17751674D02*
X7586729Y-17799293D01*
X7586729Y-17799293D02*
X7577205Y-17837389D01*
X7577205Y-17837389D02*
X7567682Y-17856436D01*
X7567682Y-17856436D02*
X7558158Y-17865960D01*
X7558158Y-17865960D02*
X7539110Y-17875484D01*
X7539110Y-17875484D02*
X7520062Y-17875484D01*
X7520062Y-17875484D02*
X7501015Y-17865960D01*
X7501015Y-17865960D02*
X7491491Y-17856436D01*
X7491491Y-17856436D02*
X7481967Y-17837389D01*
X7481967Y-17837389D02*
X7472443Y-17799293D01*
X7472443Y-17799293D02*
X7472443Y-17751674D01*
X7472443Y-17751674D02*
X7481967Y-17713579D01*
X7481967Y-17713579D02*
X7491491Y-17694531D01*
X7491491Y-17694531D02*
X7501015Y-17685008D01*
X7501015Y-17685008D02*
X7520062Y-17675484D01*
X7710539Y-17675484D02*
X7729586Y-17675484D01*
X7729586Y-17675484D02*
X7748634Y-17685008D01*
X7748634Y-17685008D02*
X7758158Y-17694531D01*
X7758158Y-17694531D02*
X7767682Y-17713579D01*
X7767682Y-17713579D02*
X7777205Y-17751674D01*
X7777205Y-17751674D02*
X7777205Y-17799293D01*
X7777205Y-17799293D02*
X7767682Y-17837389D01*
X7767682Y-17837389D02*
X7758158Y-17856436D01*
X7758158Y-17856436D02*
X7748634Y-17865960D01*
X7748634Y-17865960D02*
X7729586Y-17875484D01*
X7729586Y-17875484D02*
X7710539Y-17875484D01*
X7710539Y-17875484D02*
X7691491Y-17865960D01*
X7691491Y-17865960D02*
X7681967Y-17856436D01*
X7681967Y-17856436D02*
X7672443Y-17837389D01*
X7672443Y-17837389D02*
X7662920Y-17799293D01*
X7662920Y-17799293D02*
X7662920Y-17751674D01*
X7662920Y-17751674D02*
X7672443Y-17713579D01*
X7672443Y-17713579D02*
X7681967Y-17694531D01*
X7681967Y-17694531D02*
X7691491Y-17685008D01*
X7691491Y-17685008D02*
X7710539Y-17675484D01*
X7862920Y-17875484D02*
X7862920Y-17742150D01*
X7862920Y-17761198D02*
X7872443Y-17751674D01*
X7872443Y-17751674D02*
X7891491Y-17742150D01*
X7891491Y-17742150D02*
X7920063Y-17742150D01*
X7920063Y-17742150D02*
X7939110Y-17751674D01*
X7939110Y-17751674D02*
X7948634Y-17770722D01*
X7948634Y-17770722D02*
X7948634Y-17875484D01*
X7948634Y-17770722D02*
X7958158Y-17751674D01*
X7958158Y-17751674D02*
X7977205Y-17742150D01*
X7977205Y-17742150D02*
X8005777Y-17742150D01*
X8005777Y-17742150D02*
X8024824Y-17751674D01*
X8024824Y-17751674D02*
X8034348Y-17770722D01*
X8034348Y-17770722D02*
X8034348Y-17875484D01*
X8129586Y-17875484D02*
X8129586Y-17742150D01*
X8129586Y-17761198D02*
X8139110Y-17751674D01*
X8139110Y-17751674D02*
X8158158Y-17742150D01*
X8158158Y-17742150D02*
X8186729Y-17742150D01*
X8186729Y-17742150D02*
X8205777Y-17751674D01*
X8205777Y-17751674D02*
X8215301Y-17770722D01*
X8215301Y-17770722D02*
X8215301Y-17875484D01*
X8215301Y-17770722D02*
X8224824Y-17751674D01*
X8224824Y-17751674D02*
X8243872Y-17742150D01*
X8243872Y-17742150D02*
X8272443Y-17742150D01*
X8272443Y-17742150D02*
X8291491Y-17751674D01*
X8291491Y-17751674D02*
X8301015Y-17770722D01*
X8301015Y-17770722D02*
X8301015Y-17875484D01*
X8691491Y-17665960D02*
X8520063Y-17923103D01*
X8948634Y-17675484D02*
X8967682Y-17675484D01*
X8967682Y-17675484D02*
X8986729Y-17685008D01*
X8986729Y-17685008D02*
X8996253Y-17694531D01*
X8996253Y-17694531D02*
X9005777Y-17713579D01*
X9005777Y-17713579D02*
X9015301Y-17751674D01*
X9015301Y-17751674D02*
X9015301Y-17799293D01*
X9015301Y-17799293D02*
X9005777Y-17837389D01*
X9005777Y-17837389D02*
X8996253Y-17856436D01*
X8996253Y-17856436D02*
X8986729Y-17865960D01*
X8986729Y-17865960D02*
X8967682Y-17875484D01*
X8967682Y-17875484D02*
X8948634Y-17875484D01*
X8948634Y-17875484D02*
X8929587Y-17865960D01*
X8929587Y-17865960D02*
X8920063Y-17856436D01*
X8920063Y-17856436D02*
X8910539Y-17837389D01*
X8910539Y-17837389D02*
X8901015Y-17799293D01*
X8901015Y-17799293D02*
X8901015Y-17751674D01*
X8901015Y-17751674D02*
X8910539Y-17713579D01*
X8910539Y-17713579D02*
X8920063Y-17694531D01*
X8920063Y-17694531D02*
X8929587Y-17685008D01*
X8929587Y-17685008D02*
X8948634Y-17675484D01*
X9101015Y-17856436D02*
X9110539Y-17865960D01*
X9110539Y-17865960D02*
X9101015Y-17875484D01*
X9101015Y-17875484D02*
X9091491Y-17865960D01*
X9091491Y-17865960D02*
X9101015Y-17856436D01*
X9101015Y-17856436D02*
X9101015Y-17875484D01*
X9234348Y-17675484D02*
X9253396Y-17675484D01*
X9253396Y-17675484D02*
X9272444Y-17685008D01*
X9272444Y-17685008D02*
X9281968Y-17694531D01*
X9281968Y-17694531D02*
X9291491Y-17713579D01*
X9291491Y-17713579D02*
X9301015Y-17751674D01*
X9301015Y-17751674D02*
X9301015Y-17799293D01*
X9301015Y-17799293D02*
X9291491Y-17837389D01*
X9291491Y-17837389D02*
X9281968Y-17856436D01*
X9281968Y-17856436D02*
X9272444Y-17865960D01*
X9272444Y-17865960D02*
X9253396Y-17875484D01*
X9253396Y-17875484D02*
X9234348Y-17875484D01*
X9234348Y-17875484D02*
X9215301Y-17865960D01*
X9215301Y-17865960D02*
X9205777Y-17856436D01*
X9205777Y-17856436D02*
X9196253Y-17837389D01*
X9196253Y-17837389D02*
X9186729Y-17799293D01*
X9186729Y-17799293D02*
X9186729Y-17751674D01*
X9186729Y-17751674D02*
X9196253Y-17713579D01*
X9196253Y-17713579D02*
X9205777Y-17694531D01*
X9205777Y-17694531D02*
X9215301Y-17685008D01*
X9215301Y-17685008D02*
X9234348Y-17675484D01*
X9367682Y-17675484D02*
X9491491Y-17675484D01*
X9491491Y-17675484D02*
X9424825Y-17751674D01*
X9424825Y-17751674D02*
X9453396Y-17751674D01*
X9453396Y-17751674D02*
X9472444Y-17761198D01*
X9472444Y-17761198D02*
X9481968Y-17770722D01*
X9481968Y-17770722D02*
X9491491Y-17789770D01*
X9491491Y-17789770D02*
X9491491Y-17837389D01*
X9491491Y-17837389D02*
X9481968Y-17856436D01*
X9481968Y-17856436D02*
X9472444Y-17865960D01*
X9472444Y-17865960D02*
X9453396Y-17875484D01*
X9453396Y-17875484D02*
X9396253Y-17875484D01*
X9396253Y-17875484D02*
X9377206Y-17865960D01*
X9377206Y-17865960D02*
X9367682Y-17856436D01*
X9672444Y-17675484D02*
X9577206Y-17675484D01*
X9577206Y-17675484D02*
X9567682Y-17770722D01*
X9567682Y-17770722D02*
X9577206Y-17761198D01*
X9577206Y-17761198D02*
X9596253Y-17751674D01*
X9596253Y-17751674D02*
X9643872Y-17751674D01*
X9643872Y-17751674D02*
X9662920Y-17761198D01*
X9662920Y-17761198D02*
X9672444Y-17770722D01*
X9672444Y-17770722D02*
X9681968Y-17789770D01*
X9681968Y-17789770D02*
X9681968Y-17837389D01*
X9681968Y-17837389D02*
X9672444Y-17856436D01*
X9672444Y-17856436D02*
X9662920Y-17865960D01*
X9662920Y-17865960D02*
X9643872Y-17875484D01*
X9643872Y-17875484D02*
X9596253Y-17875484D01*
X9596253Y-17875484D02*
X9577206Y-17865960D01*
X9577206Y-17865960D02*
X9567682Y-17856436D01*
X9853396Y-17742150D02*
X9853396Y-17875484D01*
X9805777Y-17665960D02*
X9758158Y-17808817D01*
X9758158Y-17808817D02*
X9881968Y-17808817D01*
X9948634Y-17675484D02*
X9948634Y-17713579D01*
X10024825Y-17675484D02*
X10024825Y-17713579D01*
X10320063Y-17951674D02*
X10310539Y-17942150D01*
X10310539Y-17942150D02*
X10291491Y-17913579D01*
X10291491Y-17913579D02*
X10281968Y-17894531D01*
X10281968Y-17894531D02*
X10272444Y-17865960D01*
X10272444Y-17865960D02*
X10262920Y-17818341D01*
X10262920Y-17818341D02*
X10262920Y-17780246D01*
X10262920Y-17780246D02*
X10272444Y-17732627D01*
X10272444Y-17732627D02*
X10281968Y-17704055D01*
X10281968Y-17704055D02*
X10291491Y-17685008D01*
X10291491Y-17685008D02*
X10310539Y-17656436D01*
X10310539Y-17656436D02*
X10320063Y-17646912D01*
X10386730Y-17694531D02*
X10396253Y-17685008D01*
X10396253Y-17685008D02*
X10415301Y-17675484D01*
X10415301Y-17675484D02*
X10462920Y-17675484D01*
X10462920Y-17675484D02*
X10481968Y-17685008D01*
X10481968Y-17685008D02*
X10491491Y-17694531D01*
X10491491Y-17694531D02*
X10501015Y-17713579D01*
X10501015Y-17713579D02*
X10501015Y-17732627D01*
X10501015Y-17732627D02*
X10491491Y-17761198D01*
X10491491Y-17761198D02*
X10377206Y-17875484D01*
X10377206Y-17875484D02*
X10501015Y-17875484D01*
X10739111Y-17875484D02*
X10739111Y-17675484D01*
X10824825Y-17875484D02*
X10824825Y-17770722D01*
X10824825Y-17770722D02*
X10815301Y-17751674D01*
X10815301Y-17751674D02*
X10796253Y-17742150D01*
X10796253Y-17742150D02*
X10767682Y-17742150D01*
X10767682Y-17742150D02*
X10748634Y-17751674D01*
X10748634Y-17751674D02*
X10739111Y-17761198D01*
X10948634Y-17875484D02*
X10929587Y-17865960D01*
X10929587Y-17865960D02*
X10920063Y-17856436D01*
X10920063Y-17856436D02*
X10910539Y-17837389D01*
X10910539Y-17837389D02*
X10910539Y-17780246D01*
X10910539Y-17780246D02*
X10920063Y-17761198D01*
X10920063Y-17761198D02*
X10929587Y-17751674D01*
X10929587Y-17751674D02*
X10948634Y-17742150D01*
X10948634Y-17742150D02*
X10977206Y-17742150D01*
X10977206Y-17742150D02*
X10996253Y-17751674D01*
X10996253Y-17751674D02*
X11005777Y-17761198D01*
X11005777Y-17761198D02*
X11015301Y-17780246D01*
X11015301Y-17780246D02*
X11015301Y-17837389D01*
X11015301Y-17837389D02*
X11005777Y-17856436D01*
X11005777Y-17856436D02*
X10996253Y-17865960D01*
X10996253Y-17865960D02*
X10977206Y-17875484D01*
X10977206Y-17875484D02*
X10948634Y-17875484D01*
X11129587Y-17875484D02*
X11110539Y-17865960D01*
X11110539Y-17865960D02*
X11101015Y-17846912D01*
X11101015Y-17846912D02*
X11101015Y-17675484D01*
X11281968Y-17865960D02*
X11262920Y-17875484D01*
X11262920Y-17875484D02*
X11224825Y-17875484D01*
X11224825Y-17875484D02*
X11205777Y-17865960D01*
X11205777Y-17865960D02*
X11196253Y-17846912D01*
X11196253Y-17846912D02*
X11196253Y-17770722D01*
X11196253Y-17770722D02*
X11205777Y-17751674D01*
X11205777Y-17751674D02*
X11224825Y-17742150D01*
X11224825Y-17742150D02*
X11262920Y-17742150D01*
X11262920Y-17742150D02*
X11281968Y-17751674D01*
X11281968Y-17751674D02*
X11291491Y-17770722D01*
X11291491Y-17770722D02*
X11291491Y-17789770D01*
X11291491Y-17789770D02*
X11196253Y-17808817D01*
X11367682Y-17865960D02*
X11386730Y-17875484D01*
X11386730Y-17875484D02*
X11424825Y-17875484D01*
X11424825Y-17875484D02*
X11443872Y-17865960D01*
X11443872Y-17865960D02*
X11453396Y-17846912D01*
X11453396Y-17846912D02*
X11453396Y-17837389D01*
X11453396Y-17837389D02*
X11443872Y-17818341D01*
X11443872Y-17818341D02*
X11424825Y-17808817D01*
X11424825Y-17808817D02*
X11396253Y-17808817D01*
X11396253Y-17808817D02*
X11377206Y-17799293D01*
X11377206Y-17799293D02*
X11367682Y-17780246D01*
X11367682Y-17780246D02*
X11367682Y-17770722D01*
X11367682Y-17770722D02*
X11377206Y-17751674D01*
X11377206Y-17751674D02*
X11396253Y-17742150D01*
X11396253Y-17742150D02*
X11424825Y-17742150D01*
X11424825Y-17742150D02*
X11443872Y-17751674D01*
X11520063Y-17951674D02*
X11529587Y-17942150D01*
X11529587Y-17942150D02*
X11548634Y-17913579D01*
X11548634Y-17913579D02*
X11558158Y-17894531D01*
X11558158Y-17894531D02*
X11567682Y-17865960D01*
X11567682Y-17865960D02*
X11577206Y-17818341D01*
X11577206Y-17818341D02*
X11577206Y-17780246D01*
X11577206Y-17780246D02*
X11567682Y-17732627D01*
X11567682Y-17732627D02*
X11558158Y-17704055D01*
X11558158Y-17704055D02*
X11548634Y-17685008D01*
X11548634Y-17685008D02*
X11529587Y-17656436D01*
X11529587Y-17656436D02*
X11520063Y-17646912D01*
X11881968Y-17951674D02*
X11872444Y-17942150D01*
X11872444Y-17942150D02*
X11853396Y-17913579D01*
X11853396Y-17913579D02*
X11843872Y-17894531D01*
X11843872Y-17894531D02*
X11834349Y-17865960D01*
X11834349Y-17865960D02*
X11824825Y-17818341D01*
X11824825Y-17818341D02*
X11824825Y-17780246D01*
X11824825Y-17780246D02*
X11834349Y-17732627D01*
X11834349Y-17732627D02*
X11843872Y-17704055D01*
X11843872Y-17704055D02*
X11853396Y-17685008D01*
X11853396Y-17685008D02*
X11872444Y-17656436D01*
X11872444Y-17656436D02*
X11881968Y-17646912D01*
X11958158Y-17742150D02*
X11958158Y-17875484D01*
X11958158Y-17761198D02*
X11967682Y-17751674D01*
X11967682Y-17751674D02*
X11986730Y-17742150D01*
X11986730Y-17742150D02*
X12015301Y-17742150D01*
X12015301Y-17742150D02*
X12034349Y-17751674D01*
X12034349Y-17751674D02*
X12043872Y-17770722D01*
X12043872Y-17770722D02*
X12043872Y-17875484D01*
X12167682Y-17875484D02*
X12148634Y-17865960D01*
X12148634Y-17865960D02*
X12139111Y-17856436D01*
X12139111Y-17856436D02*
X12129587Y-17837389D01*
X12129587Y-17837389D02*
X12129587Y-17780246D01*
X12129587Y-17780246D02*
X12139111Y-17761198D01*
X12139111Y-17761198D02*
X12148634Y-17751674D01*
X12148634Y-17751674D02*
X12167682Y-17742150D01*
X12167682Y-17742150D02*
X12196253Y-17742150D01*
X12196253Y-17742150D02*
X12215301Y-17751674D01*
X12215301Y-17751674D02*
X12224825Y-17761198D01*
X12224825Y-17761198D02*
X12234349Y-17780246D01*
X12234349Y-17780246D02*
X12234349Y-17837389D01*
X12234349Y-17837389D02*
X12224825Y-17856436D01*
X12224825Y-17856436D02*
X12215301Y-17865960D01*
X12215301Y-17865960D02*
X12196253Y-17875484D01*
X12196253Y-17875484D02*
X12167682Y-17875484D01*
X12291492Y-17742150D02*
X12367682Y-17742150D01*
X12320063Y-17675484D02*
X12320063Y-17846912D01*
X12320063Y-17846912D02*
X12329587Y-17865960D01*
X12329587Y-17865960D02*
X12348634Y-17875484D01*
X12348634Y-17875484D02*
X12367682Y-17875484D01*
X12586730Y-17742150D02*
X12586730Y-17942150D01*
X12586730Y-17751674D02*
X12605777Y-17742150D01*
X12605777Y-17742150D02*
X12643873Y-17742150D01*
X12643873Y-17742150D02*
X12662920Y-17751674D01*
X12662920Y-17751674D02*
X12672444Y-17761198D01*
X12672444Y-17761198D02*
X12681968Y-17780246D01*
X12681968Y-17780246D02*
X12681968Y-17837389D01*
X12681968Y-17837389D02*
X12672444Y-17856436D01*
X12672444Y-17856436D02*
X12662920Y-17865960D01*
X12662920Y-17865960D02*
X12643873Y-17875484D01*
X12643873Y-17875484D02*
X12605777Y-17875484D01*
X12605777Y-17875484D02*
X12586730Y-17865960D01*
X12796253Y-17875484D02*
X12777206Y-17865960D01*
X12777206Y-17865960D02*
X12767682Y-17846912D01*
X12767682Y-17846912D02*
X12767682Y-17675484D01*
X12958158Y-17875484D02*
X12958158Y-17770722D01*
X12958158Y-17770722D02*
X12948634Y-17751674D01*
X12948634Y-17751674D02*
X12929587Y-17742150D01*
X12929587Y-17742150D02*
X12891492Y-17742150D01*
X12891492Y-17742150D02*
X12872444Y-17751674D01*
X12958158Y-17865960D02*
X12939111Y-17875484D01*
X12939111Y-17875484D02*
X12891492Y-17875484D01*
X12891492Y-17875484D02*
X12872444Y-17865960D01*
X12872444Y-17865960D02*
X12862920Y-17846912D01*
X12862920Y-17846912D02*
X12862920Y-17827865D01*
X12862920Y-17827865D02*
X12872444Y-17808817D01*
X12872444Y-17808817D02*
X12891492Y-17799293D01*
X12891492Y-17799293D02*
X12939111Y-17799293D01*
X12939111Y-17799293D02*
X12958158Y-17789770D01*
X13024825Y-17742150D02*
X13101015Y-17742150D01*
X13053396Y-17675484D02*
X13053396Y-17846912D01*
X13053396Y-17846912D02*
X13062920Y-17865960D01*
X13062920Y-17865960D02*
X13081968Y-17875484D01*
X13081968Y-17875484D02*
X13101015Y-17875484D01*
X13243873Y-17865960D02*
X13224825Y-17875484D01*
X13224825Y-17875484D02*
X13186730Y-17875484D01*
X13186730Y-17875484D02*
X13167682Y-17865960D01*
X13167682Y-17865960D02*
X13158158Y-17846912D01*
X13158158Y-17846912D02*
X13158158Y-17770722D01*
X13158158Y-17770722D02*
X13167682Y-17751674D01*
X13167682Y-17751674D02*
X13186730Y-17742150D01*
X13186730Y-17742150D02*
X13224825Y-17742150D01*
X13224825Y-17742150D02*
X13243873Y-17751674D01*
X13243873Y-17751674D02*
X13253396Y-17770722D01*
X13253396Y-17770722D02*
X13253396Y-17789770D01*
X13253396Y-17789770D02*
X13158158Y-17808817D01*
X13424825Y-17875484D02*
X13424825Y-17675484D01*
X13424825Y-17865960D02*
X13405777Y-17875484D01*
X13405777Y-17875484D02*
X13367682Y-17875484D01*
X13367682Y-17875484D02*
X13348634Y-17865960D01*
X13348634Y-17865960D02*
X13339111Y-17856436D01*
X13339111Y-17856436D02*
X13329587Y-17837389D01*
X13329587Y-17837389D02*
X13329587Y-17780246D01*
X13329587Y-17780246D02*
X13339111Y-17761198D01*
X13339111Y-17761198D02*
X13348634Y-17751674D01*
X13348634Y-17751674D02*
X13367682Y-17742150D01*
X13367682Y-17742150D02*
X13405777Y-17742150D01*
X13405777Y-17742150D02*
X13424825Y-17751674D01*
X13501015Y-17951674D02*
X13510539Y-17942150D01*
X13510539Y-17942150D02*
X13529587Y-17913579D01*
X13529587Y-17913579D02*
X13539111Y-17894531D01*
X13539111Y-17894531D02*
X13548634Y-17865960D01*
X13548634Y-17865960D02*
X13558158Y-17818341D01*
X13558158Y-17818341D02*
X13558158Y-17780246D01*
X13558158Y-17780246D02*
X13548634Y-17732627D01*
X13548634Y-17732627D02*
X13539111Y-17704055D01*
X13539111Y-17704055D02*
X13529587Y-17685008D01*
X13529587Y-17685008D02*
X13510539Y-17656436D01*
X13510539Y-17656436D02*
X13501015Y-17646912D01*
X6645000Y-17948000D02*
X6645000Y-18148000D01*
X6545000Y-18048000D02*
X6745000Y-18048000D01*
X6986729Y-17939484D02*
X7110539Y-17939484D01*
X7110539Y-17939484D02*
X7043872Y-18015674D01*
X7043872Y-18015674D02*
X7072443Y-18015674D01*
X7072443Y-18015674D02*
X7091491Y-18025198D01*
X7091491Y-18025198D02*
X7101015Y-18034722D01*
X7101015Y-18034722D02*
X7110539Y-18053770D01*
X7110539Y-18053770D02*
X7110539Y-18101389D01*
X7110539Y-18101389D02*
X7101015Y-18120436D01*
X7101015Y-18120436D02*
X7091491Y-18129960D01*
X7091491Y-18129960D02*
X7072443Y-18139484D01*
X7072443Y-18139484D02*
X7015301Y-18139484D01*
X7015301Y-18139484D02*
X6996253Y-18129960D01*
X6996253Y-18129960D02*
X6986729Y-18120436D01*
X7196253Y-18120436D02*
X7205777Y-18129960D01*
X7205777Y-18129960D02*
X7196253Y-18139484D01*
X7196253Y-18139484D02*
X7186729Y-18129960D01*
X7186729Y-18129960D02*
X7196253Y-18120436D01*
X7196253Y-18120436D02*
X7196253Y-18139484D01*
X7386729Y-17939484D02*
X7291491Y-17939484D01*
X7291491Y-17939484D02*
X7281967Y-18034722D01*
X7281967Y-18034722D02*
X7291491Y-18025198D01*
X7291491Y-18025198D02*
X7310539Y-18015674D01*
X7310539Y-18015674D02*
X7358158Y-18015674D01*
X7358158Y-18015674D02*
X7377205Y-18025198D01*
X7377205Y-18025198D02*
X7386729Y-18034722D01*
X7386729Y-18034722D02*
X7396253Y-18053770D01*
X7396253Y-18053770D02*
X7396253Y-18101389D01*
X7396253Y-18101389D02*
X7386729Y-18120436D01*
X7386729Y-18120436D02*
X7377205Y-18129960D01*
X7377205Y-18129960D02*
X7358158Y-18139484D01*
X7358158Y-18139484D02*
X7310539Y-18139484D01*
X7310539Y-18139484D02*
X7291491Y-18129960D01*
X7291491Y-18129960D02*
X7281967Y-18120436D01*
X7520062Y-17939484D02*
X7539110Y-17939484D01*
X7539110Y-17939484D02*
X7558158Y-17949008D01*
X7558158Y-17949008D02*
X7567682Y-17958531D01*
X7567682Y-17958531D02*
X7577205Y-17977579D01*
X7577205Y-17977579D02*
X7586729Y-18015674D01*
X7586729Y-18015674D02*
X7586729Y-18063293D01*
X7586729Y-18063293D02*
X7577205Y-18101389D01*
X7577205Y-18101389D02*
X7567682Y-18120436D01*
X7567682Y-18120436D02*
X7558158Y-18129960D01*
X7558158Y-18129960D02*
X7539110Y-18139484D01*
X7539110Y-18139484D02*
X7520062Y-18139484D01*
X7520062Y-18139484D02*
X7501015Y-18129960D01*
X7501015Y-18129960D02*
X7491491Y-18120436D01*
X7491491Y-18120436D02*
X7481967Y-18101389D01*
X7481967Y-18101389D02*
X7472443Y-18063293D01*
X7472443Y-18063293D02*
X7472443Y-18015674D01*
X7472443Y-18015674D02*
X7481967Y-17977579D01*
X7481967Y-17977579D02*
X7491491Y-17958531D01*
X7491491Y-17958531D02*
X7501015Y-17949008D01*
X7501015Y-17949008D02*
X7520062Y-17939484D01*
X7710539Y-17939484D02*
X7729586Y-17939484D01*
X7729586Y-17939484D02*
X7748634Y-17949008D01*
X7748634Y-17949008D02*
X7758158Y-17958531D01*
X7758158Y-17958531D02*
X7767682Y-17977579D01*
X7767682Y-17977579D02*
X7777205Y-18015674D01*
X7777205Y-18015674D02*
X7777205Y-18063293D01*
X7777205Y-18063293D02*
X7767682Y-18101389D01*
X7767682Y-18101389D02*
X7758158Y-18120436D01*
X7758158Y-18120436D02*
X7748634Y-18129960D01*
X7748634Y-18129960D02*
X7729586Y-18139484D01*
X7729586Y-18139484D02*
X7710539Y-18139484D01*
X7710539Y-18139484D02*
X7691491Y-18129960D01*
X7691491Y-18129960D02*
X7681967Y-18120436D01*
X7681967Y-18120436D02*
X7672443Y-18101389D01*
X7672443Y-18101389D02*
X7662920Y-18063293D01*
X7662920Y-18063293D02*
X7662920Y-18015674D01*
X7662920Y-18015674D02*
X7672443Y-17977579D01*
X7672443Y-17977579D02*
X7681967Y-17958531D01*
X7681967Y-17958531D02*
X7691491Y-17949008D01*
X7691491Y-17949008D02*
X7710539Y-17939484D01*
X7862920Y-18139484D02*
X7862920Y-18006150D01*
X7862920Y-18025198D02*
X7872443Y-18015674D01*
X7872443Y-18015674D02*
X7891491Y-18006150D01*
X7891491Y-18006150D02*
X7920063Y-18006150D01*
X7920063Y-18006150D02*
X7939110Y-18015674D01*
X7939110Y-18015674D02*
X7948634Y-18034722D01*
X7948634Y-18034722D02*
X7948634Y-18139484D01*
X7948634Y-18034722D02*
X7958158Y-18015674D01*
X7958158Y-18015674D02*
X7977205Y-18006150D01*
X7977205Y-18006150D02*
X8005777Y-18006150D01*
X8005777Y-18006150D02*
X8024824Y-18015674D01*
X8024824Y-18015674D02*
X8034348Y-18034722D01*
X8034348Y-18034722D02*
X8034348Y-18139484D01*
X8129586Y-18139484D02*
X8129586Y-18006150D01*
X8129586Y-18025198D02*
X8139110Y-18015674D01*
X8139110Y-18015674D02*
X8158158Y-18006150D01*
X8158158Y-18006150D02*
X8186729Y-18006150D01*
X8186729Y-18006150D02*
X8205777Y-18015674D01*
X8205777Y-18015674D02*
X8215301Y-18034722D01*
X8215301Y-18034722D02*
X8215301Y-18139484D01*
X8215301Y-18034722D02*
X8224824Y-18015674D01*
X8224824Y-18015674D02*
X8243872Y-18006150D01*
X8243872Y-18006150D02*
X8272443Y-18006150D01*
X8272443Y-18006150D02*
X8291491Y-18015674D01*
X8291491Y-18015674D02*
X8301015Y-18034722D01*
X8301015Y-18034722D02*
X8301015Y-18139484D01*
X8691491Y-17929960D02*
X8520063Y-18187103D01*
X8948634Y-17939484D02*
X8967682Y-17939484D01*
X8967682Y-17939484D02*
X8986729Y-17949008D01*
X8986729Y-17949008D02*
X8996253Y-17958531D01*
X8996253Y-17958531D02*
X9005777Y-17977579D01*
X9005777Y-17977579D02*
X9015301Y-18015674D01*
X9015301Y-18015674D02*
X9015301Y-18063293D01*
X9015301Y-18063293D02*
X9005777Y-18101389D01*
X9005777Y-18101389D02*
X8996253Y-18120436D01*
X8996253Y-18120436D02*
X8986729Y-18129960D01*
X8986729Y-18129960D02*
X8967682Y-18139484D01*
X8967682Y-18139484D02*
X8948634Y-18139484D01*
X8948634Y-18139484D02*
X8929587Y-18129960D01*
X8929587Y-18129960D02*
X8920063Y-18120436D01*
X8920063Y-18120436D02*
X8910539Y-18101389D01*
X8910539Y-18101389D02*
X8901015Y-18063293D01*
X8901015Y-18063293D02*
X8901015Y-18015674D01*
X8901015Y-18015674D02*
X8910539Y-17977579D01*
X8910539Y-17977579D02*
X8920063Y-17958531D01*
X8920063Y-17958531D02*
X8929587Y-17949008D01*
X8929587Y-17949008D02*
X8948634Y-17939484D01*
X9101015Y-18120436D02*
X9110539Y-18129960D01*
X9110539Y-18129960D02*
X9101015Y-18139484D01*
X9101015Y-18139484D02*
X9091491Y-18129960D01*
X9091491Y-18129960D02*
X9101015Y-18120436D01*
X9101015Y-18120436D02*
X9101015Y-18139484D01*
X9301015Y-18139484D02*
X9186729Y-18139484D01*
X9243872Y-18139484D02*
X9243872Y-17939484D01*
X9243872Y-17939484D02*
X9224825Y-17968055D01*
X9224825Y-17968055D02*
X9205777Y-17987103D01*
X9205777Y-17987103D02*
X9186729Y-17996627D01*
X9367682Y-17939484D02*
X9491491Y-17939484D01*
X9491491Y-17939484D02*
X9424825Y-18015674D01*
X9424825Y-18015674D02*
X9453396Y-18015674D01*
X9453396Y-18015674D02*
X9472444Y-18025198D01*
X9472444Y-18025198D02*
X9481968Y-18034722D01*
X9481968Y-18034722D02*
X9491491Y-18053770D01*
X9491491Y-18053770D02*
X9491491Y-18101389D01*
X9491491Y-18101389D02*
X9481968Y-18120436D01*
X9481968Y-18120436D02*
X9472444Y-18129960D01*
X9472444Y-18129960D02*
X9453396Y-18139484D01*
X9453396Y-18139484D02*
X9396253Y-18139484D01*
X9396253Y-18139484D02*
X9377206Y-18129960D01*
X9377206Y-18129960D02*
X9367682Y-18120436D01*
X9558158Y-17939484D02*
X9691491Y-17939484D01*
X9691491Y-17939484D02*
X9605777Y-18139484D01*
X9796253Y-18025198D02*
X9777206Y-18015674D01*
X9777206Y-18015674D02*
X9767682Y-18006150D01*
X9767682Y-18006150D02*
X9758158Y-17987103D01*
X9758158Y-17987103D02*
X9758158Y-17977579D01*
X9758158Y-17977579D02*
X9767682Y-17958531D01*
X9767682Y-17958531D02*
X9777206Y-17949008D01*
X9777206Y-17949008D02*
X9796253Y-17939484D01*
X9796253Y-17939484D02*
X9834349Y-17939484D01*
X9834349Y-17939484D02*
X9853396Y-17949008D01*
X9853396Y-17949008D02*
X9862920Y-17958531D01*
X9862920Y-17958531D02*
X9872444Y-17977579D01*
X9872444Y-17977579D02*
X9872444Y-17987103D01*
X9872444Y-17987103D02*
X9862920Y-18006150D01*
X9862920Y-18006150D02*
X9853396Y-18015674D01*
X9853396Y-18015674D02*
X9834349Y-18025198D01*
X9834349Y-18025198D02*
X9796253Y-18025198D01*
X9796253Y-18025198D02*
X9777206Y-18034722D01*
X9777206Y-18034722D02*
X9767682Y-18044246D01*
X9767682Y-18044246D02*
X9758158Y-18063293D01*
X9758158Y-18063293D02*
X9758158Y-18101389D01*
X9758158Y-18101389D02*
X9767682Y-18120436D01*
X9767682Y-18120436D02*
X9777206Y-18129960D01*
X9777206Y-18129960D02*
X9796253Y-18139484D01*
X9796253Y-18139484D02*
X9834349Y-18139484D01*
X9834349Y-18139484D02*
X9853396Y-18129960D01*
X9853396Y-18129960D02*
X9862920Y-18120436D01*
X9862920Y-18120436D02*
X9872444Y-18101389D01*
X9872444Y-18101389D02*
X9872444Y-18063293D01*
X9872444Y-18063293D02*
X9862920Y-18044246D01*
X9862920Y-18044246D02*
X9853396Y-18034722D01*
X9853396Y-18034722D02*
X9834349Y-18025198D01*
X9948634Y-17939484D02*
X9948634Y-17977579D01*
X10024825Y-17939484D02*
X10024825Y-17977579D01*
X10320063Y-18215674D02*
X10310539Y-18206150D01*
X10310539Y-18206150D02*
X10291491Y-18177579D01*
X10291491Y-18177579D02*
X10281968Y-18158531D01*
X10281968Y-18158531D02*
X10272444Y-18129960D01*
X10272444Y-18129960D02*
X10262920Y-18082341D01*
X10262920Y-18082341D02*
X10262920Y-18044246D01*
X10262920Y-18044246D02*
X10272444Y-17996627D01*
X10272444Y-17996627D02*
X10281968Y-17968055D01*
X10281968Y-17968055D02*
X10291491Y-17949008D01*
X10291491Y-17949008D02*
X10310539Y-17920436D01*
X10310539Y-17920436D02*
X10320063Y-17910912D01*
X10481968Y-18006150D02*
X10481968Y-18139484D01*
X10434349Y-17929960D02*
X10386730Y-18072817D01*
X10386730Y-18072817D02*
X10510539Y-18072817D01*
X10739111Y-18139484D02*
X10739111Y-17939484D01*
X10824825Y-18139484D02*
X10824825Y-18034722D01*
X10824825Y-18034722D02*
X10815301Y-18015674D01*
X10815301Y-18015674D02*
X10796253Y-18006150D01*
X10796253Y-18006150D02*
X10767682Y-18006150D01*
X10767682Y-18006150D02*
X10748634Y-18015674D01*
X10748634Y-18015674D02*
X10739111Y-18025198D01*
X10948634Y-18139484D02*
X10929587Y-18129960D01*
X10929587Y-18129960D02*
X10920063Y-18120436D01*
X10920063Y-18120436D02*
X10910539Y-18101389D01*
X10910539Y-18101389D02*
X10910539Y-18044246D01*
X10910539Y-18044246D02*
X10920063Y-18025198D01*
X10920063Y-18025198D02*
X10929587Y-18015674D01*
X10929587Y-18015674D02*
X10948634Y-18006150D01*
X10948634Y-18006150D02*
X10977206Y-18006150D01*
X10977206Y-18006150D02*
X10996253Y-18015674D01*
X10996253Y-18015674D02*
X11005777Y-18025198D01*
X11005777Y-18025198D02*
X11015301Y-18044246D01*
X11015301Y-18044246D02*
X11015301Y-18101389D01*
X11015301Y-18101389D02*
X11005777Y-18120436D01*
X11005777Y-18120436D02*
X10996253Y-18129960D01*
X10996253Y-18129960D02*
X10977206Y-18139484D01*
X10977206Y-18139484D02*
X10948634Y-18139484D01*
X11129587Y-18139484D02*
X11110539Y-18129960D01*
X11110539Y-18129960D02*
X11101015Y-18110912D01*
X11101015Y-18110912D02*
X11101015Y-17939484D01*
X11281968Y-18129960D02*
X11262920Y-18139484D01*
X11262920Y-18139484D02*
X11224825Y-18139484D01*
X11224825Y-18139484D02*
X11205777Y-18129960D01*
X11205777Y-18129960D02*
X11196253Y-18110912D01*
X11196253Y-18110912D02*
X11196253Y-18034722D01*
X11196253Y-18034722D02*
X11205777Y-18015674D01*
X11205777Y-18015674D02*
X11224825Y-18006150D01*
X11224825Y-18006150D02*
X11262920Y-18006150D01*
X11262920Y-18006150D02*
X11281968Y-18015674D01*
X11281968Y-18015674D02*
X11291491Y-18034722D01*
X11291491Y-18034722D02*
X11291491Y-18053770D01*
X11291491Y-18053770D02*
X11196253Y-18072817D01*
X11367682Y-18129960D02*
X11386730Y-18139484D01*
X11386730Y-18139484D02*
X11424825Y-18139484D01*
X11424825Y-18139484D02*
X11443872Y-18129960D01*
X11443872Y-18129960D02*
X11453396Y-18110912D01*
X11453396Y-18110912D02*
X11453396Y-18101389D01*
X11453396Y-18101389D02*
X11443872Y-18082341D01*
X11443872Y-18082341D02*
X11424825Y-18072817D01*
X11424825Y-18072817D02*
X11396253Y-18072817D01*
X11396253Y-18072817D02*
X11377206Y-18063293D01*
X11377206Y-18063293D02*
X11367682Y-18044246D01*
X11367682Y-18044246D02*
X11367682Y-18034722D01*
X11367682Y-18034722D02*
X11377206Y-18015674D01*
X11377206Y-18015674D02*
X11396253Y-18006150D01*
X11396253Y-18006150D02*
X11424825Y-18006150D01*
X11424825Y-18006150D02*
X11443872Y-18015674D01*
X11520063Y-18215674D02*
X11529587Y-18206150D01*
X11529587Y-18206150D02*
X11548634Y-18177579D01*
X11548634Y-18177579D02*
X11558158Y-18158531D01*
X11558158Y-18158531D02*
X11567682Y-18129960D01*
X11567682Y-18129960D02*
X11577206Y-18082341D01*
X11577206Y-18082341D02*
X11577206Y-18044246D01*
X11577206Y-18044246D02*
X11567682Y-17996627D01*
X11567682Y-17996627D02*
X11558158Y-17968055D01*
X11558158Y-17968055D02*
X11548634Y-17949008D01*
X11548634Y-17949008D02*
X11529587Y-17920436D01*
X11529587Y-17920436D02*
X11520063Y-17910912D01*
X11881968Y-18215674D02*
X11872444Y-18206150D01*
X11872444Y-18206150D02*
X11853396Y-18177579D01*
X11853396Y-18177579D02*
X11843872Y-18158531D01*
X11843872Y-18158531D02*
X11834349Y-18129960D01*
X11834349Y-18129960D02*
X11824825Y-18082341D01*
X11824825Y-18082341D02*
X11824825Y-18044246D01*
X11824825Y-18044246D02*
X11834349Y-17996627D01*
X11834349Y-17996627D02*
X11843872Y-17968055D01*
X11843872Y-17968055D02*
X11853396Y-17949008D01*
X11853396Y-17949008D02*
X11872444Y-17920436D01*
X11872444Y-17920436D02*
X11881968Y-17910912D01*
X11958158Y-18006150D02*
X11958158Y-18139484D01*
X11958158Y-18025198D02*
X11967682Y-18015674D01*
X11967682Y-18015674D02*
X11986730Y-18006150D01*
X11986730Y-18006150D02*
X12015301Y-18006150D01*
X12015301Y-18006150D02*
X12034349Y-18015674D01*
X12034349Y-18015674D02*
X12043872Y-18034722D01*
X12043872Y-18034722D02*
X12043872Y-18139484D01*
X12167682Y-18139484D02*
X12148634Y-18129960D01*
X12148634Y-18129960D02*
X12139111Y-18120436D01*
X12139111Y-18120436D02*
X12129587Y-18101389D01*
X12129587Y-18101389D02*
X12129587Y-18044246D01*
X12129587Y-18044246D02*
X12139111Y-18025198D01*
X12139111Y-18025198D02*
X12148634Y-18015674D01*
X12148634Y-18015674D02*
X12167682Y-18006150D01*
X12167682Y-18006150D02*
X12196253Y-18006150D01*
X12196253Y-18006150D02*
X12215301Y-18015674D01*
X12215301Y-18015674D02*
X12224825Y-18025198D01*
X12224825Y-18025198D02*
X12234349Y-18044246D01*
X12234349Y-18044246D02*
X12234349Y-18101389D01*
X12234349Y-18101389D02*
X12224825Y-18120436D01*
X12224825Y-18120436D02*
X12215301Y-18129960D01*
X12215301Y-18129960D02*
X12196253Y-18139484D01*
X12196253Y-18139484D02*
X12167682Y-18139484D01*
X12291492Y-18006150D02*
X12367682Y-18006150D01*
X12320063Y-17939484D02*
X12320063Y-18110912D01*
X12320063Y-18110912D02*
X12329587Y-18129960D01*
X12329587Y-18129960D02*
X12348634Y-18139484D01*
X12348634Y-18139484D02*
X12367682Y-18139484D01*
X12586730Y-18006150D02*
X12586730Y-18206150D01*
X12586730Y-18015674D02*
X12605777Y-18006150D01*
X12605777Y-18006150D02*
X12643873Y-18006150D01*
X12643873Y-18006150D02*
X12662920Y-18015674D01*
X12662920Y-18015674D02*
X12672444Y-18025198D01*
X12672444Y-18025198D02*
X12681968Y-18044246D01*
X12681968Y-18044246D02*
X12681968Y-18101389D01*
X12681968Y-18101389D02*
X12672444Y-18120436D01*
X12672444Y-18120436D02*
X12662920Y-18129960D01*
X12662920Y-18129960D02*
X12643873Y-18139484D01*
X12643873Y-18139484D02*
X12605777Y-18139484D01*
X12605777Y-18139484D02*
X12586730Y-18129960D01*
X12796253Y-18139484D02*
X12777206Y-18129960D01*
X12777206Y-18129960D02*
X12767682Y-18110912D01*
X12767682Y-18110912D02*
X12767682Y-17939484D01*
X12958158Y-18139484D02*
X12958158Y-18034722D01*
X12958158Y-18034722D02*
X12948634Y-18015674D01*
X12948634Y-18015674D02*
X12929587Y-18006150D01*
X12929587Y-18006150D02*
X12891492Y-18006150D01*
X12891492Y-18006150D02*
X12872444Y-18015674D01*
X12958158Y-18129960D02*
X12939111Y-18139484D01*
X12939111Y-18139484D02*
X12891492Y-18139484D01*
X12891492Y-18139484D02*
X12872444Y-18129960D01*
X12872444Y-18129960D02*
X12862920Y-18110912D01*
X12862920Y-18110912D02*
X12862920Y-18091865D01*
X12862920Y-18091865D02*
X12872444Y-18072817D01*
X12872444Y-18072817D02*
X12891492Y-18063293D01*
X12891492Y-18063293D02*
X12939111Y-18063293D01*
X12939111Y-18063293D02*
X12958158Y-18053770D01*
X13024825Y-18006150D02*
X13101015Y-18006150D01*
X13053396Y-17939484D02*
X13053396Y-18110912D01*
X13053396Y-18110912D02*
X13062920Y-18129960D01*
X13062920Y-18129960D02*
X13081968Y-18139484D01*
X13081968Y-18139484D02*
X13101015Y-18139484D01*
X13243873Y-18129960D02*
X13224825Y-18139484D01*
X13224825Y-18139484D02*
X13186730Y-18139484D01*
X13186730Y-18139484D02*
X13167682Y-18129960D01*
X13167682Y-18129960D02*
X13158158Y-18110912D01*
X13158158Y-18110912D02*
X13158158Y-18034722D01*
X13158158Y-18034722D02*
X13167682Y-18015674D01*
X13167682Y-18015674D02*
X13186730Y-18006150D01*
X13186730Y-18006150D02*
X13224825Y-18006150D01*
X13224825Y-18006150D02*
X13243873Y-18015674D01*
X13243873Y-18015674D02*
X13253396Y-18034722D01*
X13253396Y-18034722D02*
X13253396Y-18053770D01*
X13253396Y-18053770D02*
X13158158Y-18072817D01*
X13424825Y-18139484D02*
X13424825Y-17939484D01*
X13424825Y-18129960D02*
X13405777Y-18139484D01*
X13405777Y-18139484D02*
X13367682Y-18139484D01*
X13367682Y-18139484D02*
X13348634Y-18129960D01*
X13348634Y-18129960D02*
X13339111Y-18120436D01*
X13339111Y-18120436D02*
X13329587Y-18101389D01*
X13329587Y-18101389D02*
X13329587Y-18044246D01*
X13329587Y-18044246D02*
X13339111Y-18025198D01*
X13339111Y-18025198D02*
X13348634Y-18015674D01*
X13348634Y-18015674D02*
X13367682Y-18006150D01*
X13367682Y-18006150D02*
X13405777Y-18006150D01*
X13405777Y-18006150D02*
X13424825Y-18015674D01*
X13501015Y-18215674D02*
X13510539Y-18206150D01*
X13510539Y-18206150D02*
X13529587Y-18177579D01*
X13529587Y-18177579D02*
X13539111Y-18158531D01*
X13539111Y-18158531D02*
X13548634Y-18129960D01*
X13548634Y-18129960D02*
X13558158Y-18082341D01*
X13558158Y-18082341D02*
X13558158Y-18044246D01*
X13558158Y-18044246D02*
X13548634Y-17996627D01*
X13548634Y-17996627D02*
X13539111Y-17968055D01*
X13539111Y-17968055D02*
X13529587Y-17949008D01*
X13529587Y-17949008D02*
X13510539Y-17920436D01*
X13510539Y-17920436D02*
X13501015Y-17910912D01*
M02*
