M48
; DRILL file {KiCad 7.0.9} date Sat Dec  2 16:20:17 2023
; FORMAT={-:-/ absolute / metric / decimal}
; #@! TF.CreationDate,2023-12-02T16:20:17-07:00
; #@! TF.GenerationSoftware,Kicad,Pcbnew,7.0.9
; #@! TF.FileFunction,Plated,1,2,PTH
FMAT,2
METRIC
; #@! TA.AperFunction,Plated,PTH,ViaDrill
T1C0.300
; #@! TA.AperFunction,Plated,PTH,ViaDrill
T2C0.400
; #@! TA.AperFunction,Plated,PTH,ViaDrill
T3C0.500
; #@! TA.AperFunction,Plated,PTH,ComponentDrill
T4C0.550
; #@! TA.AperFunction,Plated,PTH,ComponentDrill
T5C0.850
; #@! TA.AperFunction,Plated,PTH,ComponentDrill
T6C1.000
; #@! TA.AperFunction,Plated,PTH,ComponentDrill
T7C1.100
; #@! TA.AperFunction,Plated,PTH,ComponentDrill
T8C1.300
; #@! TA.AperFunction,Plated,PTH,ComponentDrill
T9C3.200
%
G90
G05
T1
X99.5Y-67.0
X99.5Y-69.0
X99.5Y-71.0
X99.5Y-73.0
X99.5Y-75.0
X99.5Y-77.0
X99.5Y-79.0
X99.5Y-81.0
X99.5Y-83.0
X99.5Y-85.0
X99.5Y-87.0
X99.5Y-89.0
X99.5Y-91.0
X99.5Y-93.0
X99.5Y-95.0
X99.5Y-97.0
X99.5Y-99.0
X99.5Y-101.0
X99.5Y-103.0
X99.5Y-105.0
X99.5Y-107.0
X99.5Y-109.0
X99.5Y-111.0
X99.5Y-113.0
X99.5Y-115.0
X99.5Y-117.0
X99.5Y-119.0
X99.5Y-121.0
X99.5Y-123.0
X99.5Y-125.0
X99.5Y-127.0
X99.5Y-129.0
X99.5Y-131.0
X99.5Y-133.0
X100.0Y-64.5
X100.5Y-134.5
X102.0Y-63.5
X102.0Y-135.5
X102.284Y-71.924
X102.284Y-74.464
X102.284Y-82.084
X102.284Y-92.244
X102.284Y-94.784
X102.284Y-107.484
X102.284Y-110.024
X102.284Y-112.564
X102.284Y-115.104
X102.284Y-117.644
X102.284Y-120.184
X102.284Y-122.724
X102.284Y-125.264
X104.0Y-63.5
X104.0Y-135.5
X104.824Y-71.924
X104.824Y-74.464
X104.824Y-77.004
X104.824Y-79.544
X104.824Y-82.084
X104.824Y-84.624
X104.824Y-87.164
X104.824Y-92.244
X104.824Y-94.784
X104.824Y-112.564
X104.824Y-115.104
X104.824Y-117.644
X104.824Y-120.184
X104.824Y-122.724
X104.824Y-125.264
X106.0Y-63.5
X106.0Y-135.5
X107.364Y-71.924
X107.364Y-74.464
X107.364Y-82.084
X107.364Y-87.164
X107.364Y-92.244
X107.364Y-94.784
X107.364Y-102.404
X107.364Y-112.564
X107.364Y-115.104
X107.364Y-117.644
X107.364Y-120.184
X107.364Y-122.724
X107.364Y-125.264
X108.0Y-63.5
X108.0Y-135.5
X109.904Y-69.384
X109.904Y-71.924
X109.904Y-74.464
X109.904Y-99.864
X109.904Y-102.404
X109.904Y-112.564
X109.904Y-115.104
X109.904Y-117.644
X109.904Y-120.184
X109.904Y-122.724
X109.904Y-125.264
X109.904Y-127.804
X109.904Y-130.344
X109.904Y-132.884
X110.0Y-63.5
X110.0Y-135.5
X112.0Y-63.5
X112.0Y-135.5
X112.444Y-66.844
X112.444Y-69.384
X112.444Y-71.924
X112.444Y-74.464
X112.444Y-89.704
X112.444Y-99.864
X112.444Y-102.404
X112.444Y-117.644
X112.444Y-120.184
X112.444Y-122.724
X112.444Y-125.264
X112.444Y-127.804
X112.444Y-130.344
X112.444Y-132.884
X113.352Y-88.426
X114.0Y-63.5
X114.0Y-135.5
X114.114Y-78.016
X114.984Y-66.844
X114.984Y-69.384
X114.984Y-71.924
X114.984Y-74.464
X114.984Y-84.624
X114.984Y-87.164
X114.984Y-89.704
X114.984Y-99.864
X114.984Y-102.404
X114.984Y-117.644
X114.984Y-120.184
X114.984Y-122.724
X114.984Y-130.344
X114.984Y-132.884
X115.511Y-77.254
X115.511Y-81.318
X116.0Y-63.5
X116.0Y-135.5
X117.524Y-66.844
X117.524Y-69.384
X117.524Y-71.924
X117.524Y-74.464
X117.524Y-82.084
X117.524Y-84.624
X117.524Y-87.164
X117.524Y-89.704
X117.524Y-92.244
X117.524Y-99.864
X117.524Y-102.404
X117.524Y-104.944
X117.524Y-115.104
X117.524Y-117.644
X117.524Y-120.184
X117.524Y-122.724
X117.524Y-130.344
X117.524Y-132.884
X118.0Y-63.5
X118.0Y-135.5
X120.0Y-63.5
X120.0Y-135.5
X120.064Y-66.844
X120.064Y-69.384
X120.064Y-71.924
X120.064Y-74.464
X120.064Y-82.084
X120.064Y-84.624
X120.064Y-87.164
X120.064Y-89.704
X120.064Y-92.244
X120.064Y-99.864
X120.064Y-102.404
X120.064Y-104.944
X120.064Y-110.024
X120.064Y-115.104
X120.064Y-117.644
X120.064Y-120.184
X120.064Y-122.724
X120.064Y-125.264
X120.064Y-127.804
X120.064Y-130.344
X120.064Y-132.884
X120.904Y-113.538
X121.412Y-100.838
X122.0Y-63.5
X122.0Y-135.5
X122.604Y-66.844
X122.604Y-69.384
X122.604Y-71.924
X122.604Y-74.464
X122.604Y-82.084
X122.604Y-84.624
X122.604Y-87.164
X122.604Y-89.704
X122.604Y-92.244
X122.604Y-102.404
X122.604Y-104.944
X122.604Y-115.104
X122.604Y-127.804
X122.604Y-130.344
X122.604Y-132.884
X123.698Y-112.014
X123.825Y-96.139
X123.825Y-101.854
X123.952Y-108.458
X124.0Y-63.5
X124.0Y-135.5
X124.714Y-86.186
X124.714Y-115.824
X124.714Y-121.666
X124.968Y-103.632
X125.144Y-66.844
X125.144Y-69.384
X125.144Y-71.924
X125.144Y-74.464
X125.144Y-99.864
X125.144Y-122.724
X125.144Y-130.344
X125.144Y-132.884
X125.603Y-79.629
X125.73Y-90.424
X125.984Y-104.648
X126.0Y-63.5
X126.0Y-135.5
X127.684Y-66.844
X127.684Y-69.384
X127.684Y-71.924
X127.684Y-130.344
X127.684Y-132.884
X128.0Y-63.5
X128.0Y-135.5
X128.524Y-102.616
X129.794Y-106.426
X129.794Y-115.57
X129.921Y-102.616
X130.0Y-63.5
X130.0Y-135.5
X130.048Y-123.444
X130.224Y-66.844
X130.224Y-69.384
X130.224Y-71.924
X130.224Y-74.464
X130.224Y-79.544
X130.224Y-82.084
X130.224Y-84.624
X130.224Y-89.704
X130.224Y-92.244
X130.224Y-125.264
X130.224Y-130.344
X130.224Y-132.884
X131.445Y-102.616
X132.0Y-63.5
X132.0Y-135.5
X132.764Y-66.844
X132.764Y-69.384
X132.764Y-71.924
X132.764Y-74.464
X132.764Y-92.244
X132.764Y-110.024
X132.764Y-112.564
X132.764Y-115.104
X132.764Y-130.344
X132.764Y-132.884
X132.969Y-102.616
X134.0Y-63.5
X134.0Y-135.5
X134.493Y-102.616
X134.493Y-121.666
X134.62Y-120.65
X134.874Y-78.994
X135.304Y-66.844
X135.304Y-69.384
X135.304Y-71.924
X135.304Y-74.464
X135.304Y-87.164
X135.304Y-97.324
X135.304Y-110.024
X135.304Y-112.564
X135.304Y-115.104
X135.304Y-117.644
X135.304Y-122.724
X135.304Y-127.804
X135.304Y-130.344
X135.304Y-132.884
X136.0Y-63.5
X136.0Y-135.5
X136.144Y-68.072
X136.144Y-102.616
X136.22Y-92.202
X136.548Y-100.067
X136.802Y-101.683
X137.109Y-89.865
X137.844Y-66.844
X137.844Y-69.384
X137.844Y-97.324
X137.844Y-110.024
X137.844Y-112.564
X137.844Y-115.104
X137.844Y-117.644
X137.844Y-122.724
X138.0Y-63.5
X138.0Y-135.5
X138.176Y-87.249
X138.834Y-73.634
X139.065Y-86.614
X139.088Y-75.412
X139.217Y-89.51
X139.446Y-91.643
X139.7Y-84.328
X139.827Y-90.237
X139.852Y-88.367
X140.0Y-63.5
X140.0Y-135.5
X140.384Y-66.844
X140.384Y-69.384
X140.384Y-97.324
X140.384Y-130.344
X140.384Y-132.884
X140.462Y-80.772
X140.589Y-87.122
X140.589Y-102.616
X140.97Y-91.643
X141.859Y-85.217
X141.884Y-76.53
X142.0Y-63.5
X142.0Y-135.5
X142.113Y-102.616
X142.469Y-91.643
X142.494Y-77.978
X142.596Y-79.756
X142.748Y-77.216
X142.924Y-66.844
X142.924Y-69.384
X142.924Y-97.324
X142.924Y-107.484
X142.924Y-110.024
X142.924Y-112.564
X142.924Y-115.104
X142.924Y-117.644
X142.924Y-122.724
X142.924Y-130.344
X142.924Y-132.884
X143.51Y-93.218
X143.764Y-98.552
X143.764Y-120.65
X144.0Y-63.5
X144.0Y-135.5
X144.018Y-99.568
X144.12Y-91.643
X144.78Y-93.472
X144.78Y-94.996
X145.263Y-90.805
X145.464Y-66.844
X145.464Y-69.384
X145.464Y-132.884
X146.0Y-63.5
X146.0Y-135.5
X146.245Y-82.668
X146.304Y-81.534
X146.482Y-90.856
X146.558Y-106.807
X146.6Y-91.846
X146.812Y-79.756
X147.193Y-80.645
X147.345Y-88.341
X147.574Y-86.106
X147.574Y-107.442
X147.752Y-91.846
X147.782Y-87.091
X148.0Y-63.5
X148.0Y-135.5
X148.004Y-66.844
X148.004Y-99.864
X148.004Y-104.944
X148.004Y-120.184
X148.004Y-122.724
X148.209Y-88.367
X148.336Y-93.472
X149.098Y-92.801
X149.733Y-76.581
X149.86Y-80.518
X149.86Y-108.712
X149.982Y-89.022
X150.0Y-63.5
X150.0Y-135.5
X150.114Y-83.058
X150.114Y-84.074
X150.114Y-85.09
X150.114Y-94.742
X150.114Y-100.838
X150.368Y-111.76
X150.422Y-79.835
X150.544Y-66.844
X150.544Y-71.924
X150.544Y-117.644
X150.544Y-120.184
X150.544Y-130.344
X150.749Y-99.568
X150.876Y-105.156
X150.952Y-78.257
X151.003Y-110.998
X151.13Y-83.058
X151.13Y-84.074
X151.13Y-85.09
X151.384Y-95.25
X151.384Y-102.362
X152.0Y-63.5
X152.0Y-135.5
X152.146Y-83.058
X152.146Y-84.074
X152.146Y-85.09
X152.273Y-110.617
X152.4Y-103.886
X152.654Y-99.06
X152.654Y-105.918
X152.654Y-108.712
X152.654Y-117.094
X153.084Y-125.264
X153.084Y-127.804
X153.084Y-130.344
X153.415Y-109.614
X153.532Y-108.753
X153.619Y-89.103
X153.859Y-110.363
X154.0Y-63.5
X154.0Y-135.5
X154.178Y-78.994
X154.178Y-81.28
X154.559Y-85.979
X154.661Y-80.416
X154.686Y-86.868
X154.686Y-87.884
X154.838Y-89.129
X155.194Y-93.98
X155.624Y-66.844
X155.624Y-102.404
X155.624Y-120.184
X155.624Y-127.804
X155.624Y-130.344
X155.702Y-83.312
X155.829Y-108.753
X155.956Y-95.25
X156.0Y-63.5
X156.0Y-135.5
X156.21Y-106.934
X156.972Y-83.775
X157.226Y-98.806
X157.48Y-108.204
X157.734Y-106.172
X157.734Y-131.318
X158.0Y-63.5
X158.0Y-135.5
X158.164Y-66.844
X158.164Y-69.384
X158.164Y-71.924
X158.164Y-102.404
X158.75Y-81.788
X158.75Y-110.236
X158.75Y-130.302
X159.004Y-83.566
X159.639Y-109.855
X159.639Y-111.506
X160.0Y-63.5
X160.0Y-135.5
X160.528Y-78.105
X160.704Y-66.844
X160.704Y-69.384
X160.704Y-71.924
X160.704Y-82.084
X160.704Y-92.244
X160.704Y-117.644
X160.704Y-130.344
X160.704Y-132.884
X161.798Y-133.604
X162.0Y-63.5
X162.0Y-135.5
X163.244Y-66.844
X163.244Y-69.384
X163.244Y-71.924
X163.244Y-82.084
X163.244Y-102.404
X163.244Y-104.944
X163.244Y-110.024
X163.244Y-117.644
X163.244Y-130.344
X164.0Y-63.5
X164.0Y-135.5
X165.354Y-67.564
X165.784Y-77.004
X165.784Y-79.544
X165.784Y-82.084
X165.784Y-102.404
X165.784Y-104.944
X165.784Y-107.484
X165.784Y-112.564
X165.784Y-117.644
X165.784Y-130.344
X165.784Y-132.884
X166.0Y-63.5
X166.0Y-135.5
X168.0Y-63.5
X168.0Y-135.5
X168.324Y-66.844
X168.324Y-69.384
X168.324Y-71.924
X168.324Y-74.464
X168.324Y-77.004
X168.324Y-79.544
X168.324Y-82.084
X168.324Y-102.404
X168.324Y-104.944
X168.324Y-115.104
X168.324Y-117.644
X168.324Y-130.344
X169.672Y-113.03
X170.0Y-63.5
X170.0Y-135.5
X170.688Y-115.824
X170.688Y-117.602
X170.688Y-119.38
X170.864Y-66.844
X170.864Y-69.384
X170.864Y-71.924
X170.864Y-74.464
X170.864Y-77.004
X170.864Y-79.544
X170.864Y-82.084
X170.864Y-102.404
X170.864Y-104.944
X170.864Y-107.484
X170.864Y-122.724
X170.864Y-130.344
X170.864Y-132.884
X172.0Y-63.5
X172.0Y-135.5
X173.404Y-66.844
X173.404Y-69.384
X173.404Y-71.924
X173.404Y-74.464
X173.404Y-77.004
X173.404Y-79.544
X173.404Y-92.244
X173.404Y-102.404
X173.404Y-104.944
X173.404Y-110.024
X173.404Y-112.564
X173.404Y-115.104
X173.404Y-117.644
X173.404Y-120.184
X173.404Y-130.344
X173.99Y-82.296
X173.99Y-83.566
X174.0Y-63.5
X174.0Y-135.5
X175.944Y-66.844
X175.944Y-69.384
X175.944Y-71.924
X175.944Y-74.464
X175.944Y-77.004
X175.944Y-107.484
X175.944Y-110.024
X175.944Y-112.564
X175.944Y-130.344
X175.944Y-132.884
X176.0Y-63.5
X176.0Y-135.5
X176.276Y-88.392
X177.038Y-104.902
X177.546Y-87.122
X177.8Y-78.486
X178.0Y-63.5
X178.0Y-135.5
X178.308Y-103.886
X178.484Y-66.844
X178.484Y-69.384
X178.484Y-71.924
X178.484Y-74.464
X178.484Y-77.004
X178.484Y-79.544
X178.484Y-92.244
X178.484Y-102.404
X178.484Y-110.024
X179.324Y-86.106
X180.0Y-63.5
X180.0Y-135.5
X180.192Y-86.122
X180.848Y-100.203
X180.848Y-102.616
X181.024Y-66.844
X181.024Y-69.384
X181.024Y-71.924
X181.024Y-74.464
X181.024Y-77.004
X181.024Y-92.244
X181.024Y-104.944
X181.024Y-110.024
X181.024Y-112.564
X181.024Y-130.344
X181.024Y-132.884
X181.102Y-81.026
X181.102Y-87.122
X181.37Y-86.106
X181.864Y-90.17
X182.0Y-63.5
X182.0Y-135.5
X182.372Y-85.852
X183.134Y-81.026
X183.564Y-66.844
X183.564Y-69.384
X183.564Y-71.924
X183.564Y-89.704
X183.564Y-92.244
X183.564Y-99.864
X183.564Y-104.944
X183.564Y-107.484
X183.564Y-120.184
X183.564Y-122.724
X183.564Y-130.344
X183.564Y-132.884
X184.0Y-63.5
X184.0Y-135.5
X185.582Y-84.263
X186.0Y-63.5
X186.0Y-135.5
X186.104Y-66.844
X186.104Y-69.384
X186.104Y-71.924
X186.104Y-74.464
X186.104Y-79.544
X186.104Y-87.164
X186.104Y-89.704
X186.104Y-92.244
X186.104Y-115.104
X186.182Y-82.739
X187.467Y-83.501
X188.0Y-63.5
X188.0Y-135.5
X188.214Y-93.218
X188.214Y-106.68
X188.644Y-66.844
X188.644Y-69.384
X188.644Y-71.924
X188.644Y-84.624
X188.644Y-87.164
X188.644Y-89.704
X188.644Y-115.104
X188.644Y-117.644
X188.644Y-122.724
X188.644Y-125.264
X188.644Y-127.804
X188.644Y-130.344
X188.644Y-132.884
X188.722Y-78.486
X190.0Y-63.5
X190.0Y-135.5
X191.008Y-83.501
X191.184Y-71.924
X191.184Y-77.004
X191.184Y-79.544
X191.184Y-89.704
X191.184Y-92.244
X191.184Y-97.324
X191.184Y-99.864
X191.184Y-104.944
X191.184Y-120.184
X191.184Y-122.724
X191.184Y-125.264
X191.749Y-83.172
X191.749Y-83.972
X192.0Y-63.5
X192.0Y-135.5
X192.024Y-84.836
X193.724Y-71.924
X193.724Y-77.004
X193.724Y-89.704
X193.724Y-92.244
X193.724Y-99.864
X193.724Y-104.944
X193.724Y-107.484
X193.724Y-110.024
X193.724Y-112.564
X193.724Y-125.264
X194.0Y-63.5
X194.0Y-135.5
X196.0Y-63.5
X196.0Y-135.5
X196.264Y-71.924
X196.264Y-97.324
X196.264Y-99.864
X196.264Y-102.404
X196.264Y-104.944
X196.264Y-107.484
X196.264Y-110.024
X196.264Y-112.564
X196.264Y-115.104
X196.264Y-117.644
X196.264Y-120.184
X196.264Y-122.724
X196.264Y-125.264
X197.5Y-64.5
X198.0Y-134.5
X198.5Y-66.0
X198.5Y-68.0
X198.5Y-70.0
X198.5Y-72.0
X198.5Y-74.0
X198.5Y-76.0
X198.5Y-78.0
X198.5Y-80.0
X198.5Y-82.0
X198.5Y-84.0
X198.5Y-86.0
X198.5Y-88.0
X198.5Y-90.0
X198.5Y-92.0
X198.5Y-94.0
X198.5Y-96.0
X198.5Y-98.0
X198.5Y-100.0
X198.5Y-102.0
X198.5Y-104.0
X198.5Y-106.0
X198.5Y-108.0
X198.5Y-110.0
X198.5Y-112.0
X198.5Y-114.0
X198.5Y-116.0
X198.5Y-118.0
X198.5Y-120.0
X198.5Y-122.0
X198.5Y-124.0
X198.5Y-126.0
X198.5Y-128.0
X198.5Y-130.0
X198.5Y-132.0
T2
X163.957Y-121.793
T3
X109.601Y-66.548
X127.0Y-74.803
X127.0Y-94.742
X127.254Y-119.38
X127.508Y-96.52
X138.748Y-134.366
X139.7Y-108.204
X148.209Y-68.834
X148.209Y-72.771
X148.209Y-77.851
X148.59Y-97.79
X149.352Y-122.936
X150.114Y-115.824
X153.162Y-65.024
X154.432Y-97.79
X154.686Y-115.824
X154.686Y-122.428
X155.194Y-104.648
X160.274Y-105.156
X160.858Y-97.841
X163.576Y-95.758
X167.386Y-97.536
X167.386Y-107.696
X168.275Y-133.477
X172.285Y-133.35
X178.308Y-133.35
X179.451Y-113.665
X185.42Y-122.682
X185.42Y-133.477
X185.928Y-97.536
X185.928Y-108.458
X195.072Y-74.93
X195.58Y-95.123
T6
X101.986Y-98.653
X101.986Y-101.653
X101.986Y-104.653
X104.986Y-98.653
X104.986Y-101.653
X104.986Y-104.653
X123.274Y-125.33
X124.659Y-128.17
X126.044Y-125.33
X127.429Y-128.17
X128.814Y-125.33
X130.199Y-128.17
X131.584Y-125.33
X132.969Y-128.17
X134.354Y-125.33
X153.162Y-73.406
X153.162Y-75.946
X155.665Y-125.33
X155.702Y-73.406
X155.702Y-75.946
X157.05Y-128.17
X158.242Y-73.406
X158.242Y-75.946
X158.435Y-125.33
X159.82Y-128.17
X160.782Y-73.406
X160.782Y-75.946
X161.205Y-125.33
X162.59Y-128.17
X162.636Y-92.431
X163.322Y-73.406
X163.322Y-75.946
X163.975Y-125.33
X165.176Y-92.431
X165.36Y-128.17
X166.745Y-125.33
X167.716Y-92.431
X168.13Y-128.17
X169.515Y-125.33
X170.256Y-92.431
X170.9Y-128.17
X172.285Y-125.33
X173.67Y-128.17
X175.055Y-125.33
T7
X101.974Y-76.02
X101.974Y-80.52
X101.974Y-85.672
X101.974Y-90.172
X108.474Y-76.02
X108.474Y-80.52
X108.474Y-85.672
X108.474Y-90.172
T8
X193.599Y-116.337
X193.599Y-121.417
X193.802Y-97.917
X193.802Y-102.997
T9
X116.314Y-126.75
X141.314Y-126.75
X148.71Y-126.75
X182.01Y-126.75
T4
X196.697Y-79.372G85X197.347Y-79.372
G05
X196.697Y-87.122G85X197.347Y-87.122
G05
T5
X192.947Y-79.522G85X193.497Y-79.522
G05
X192.947Y-86.972G85X193.497Y-86.972
G05
T0
M30
