%TF.GenerationSoftware,KiCad,Pcbnew,7.0.9*%
%TF.CreationDate,2023-12-02T16:20:18-07:00*%
%TF.ProjectId,Fuel_Cell_Controller_Prototype,4675656c-5f43-4656-9c6c-5f436f6e7472,V1.0*%
%TF.SameCoordinates,Original*%
%TF.FileFunction,Drillmap*%
%TF.FilePolarity,Positive*%
%FSLAX45Y45*%
G04 Gerber Fmt 4.5, Leading zero omitted, Abs format (unit mm)*
G04 Created by KiCad (PCBNEW 7.0.9) date 2023-12-02 16:20:18*
%MOMM*%
%LPD*%
G01*
G04 APERTURE LIST*
%ADD10C,0.100000*%
%ADD11C,0.200000*%
%ADD12C,0.320000*%
G04 APERTURE END LIST*
D10*
X19900000Y-6600000D02*
G75*
G03*
X19600000Y-6300000I-300000J0D01*
G01*
X9900000Y-13300000D02*
G75*
G03*
X10200000Y-13600000I300000J0D01*
G01*
X9900000Y-13300000D02*
X9900000Y-6600000D01*
X10200000Y-6300000D02*
X19600000Y-6300000D01*
X19900000Y-6600000D02*
X19900000Y-13300000D01*
X10200000Y-6300000D02*
G75*
G03*
X9900000Y-6600000I0J-300000D01*
G01*
X19600000Y-13600000D02*
G75*
G03*
X19900000Y-13300000I0J300000D01*
G01*
X19600000Y-13600000D02*
X10200000Y-13600000D01*
D11*
D10*
X19387200Y-8034700D02*
X19467200Y-8114700D01*
X19467200Y-8034700D02*
X19387200Y-8114700D01*
X19387200Y-8534700D02*
X19467200Y-8614700D01*
X19467200Y-8534700D02*
X19387200Y-8614700D01*
X10642650Y-9565350D02*
G75*
G03*
X10642650Y-9565350I-50000J0D01*
G01*
X10642650Y-10765350D02*
G75*
G03*
X10642650Y-10765350I-50000J0D01*
G01*
D12*
X10400000Y-6640000D02*
X10400000Y-6960000D01*
X10240000Y-6800000D02*
X10560000Y-6800000D01*
X10400000Y-12940000D02*
X10400000Y-13260000D01*
X10240000Y-13100000D02*
X10560000Y-13100000D01*
X19400000Y-6640000D02*
X19400000Y-6960000D01*
X19240000Y-6800000D02*
X19560000Y-6800000D01*
X19400000Y-12940000D02*
X19400000Y-13260000D01*
X19240000Y-13100000D02*
X19560000Y-13100000D01*
D11*
X10155777Y-13916484D02*
X10155777Y-13716484D01*
X10155777Y-13716484D02*
X10203396Y-13716484D01*
X10203396Y-13716484D02*
X10231967Y-13726008D01*
X10231967Y-13726008D02*
X10251015Y-13745055D01*
X10251015Y-13745055D02*
X10260539Y-13764103D01*
X10260539Y-13764103D02*
X10270063Y-13802198D01*
X10270063Y-13802198D02*
X10270063Y-13830769D01*
X10270063Y-13830769D02*
X10260539Y-13868865D01*
X10260539Y-13868865D02*
X10251015Y-13887912D01*
X10251015Y-13887912D02*
X10231967Y-13906960D01*
X10231967Y-13906960D02*
X10203396Y-13916484D01*
X10203396Y-13916484D02*
X10155777Y-13916484D01*
X10355777Y-13916484D02*
X10355777Y-13783150D01*
X10355777Y-13821246D02*
X10365301Y-13802198D01*
X10365301Y-13802198D02*
X10374824Y-13792674D01*
X10374824Y-13792674D02*
X10393872Y-13783150D01*
X10393872Y-13783150D02*
X10412920Y-13783150D01*
X10479586Y-13916484D02*
X10479586Y-13783150D01*
X10479586Y-13716484D02*
X10470063Y-13726008D01*
X10470063Y-13726008D02*
X10479586Y-13735531D01*
X10479586Y-13735531D02*
X10489110Y-13726008D01*
X10489110Y-13726008D02*
X10479586Y-13716484D01*
X10479586Y-13716484D02*
X10479586Y-13735531D01*
X10603396Y-13916484D02*
X10584348Y-13906960D01*
X10584348Y-13906960D02*
X10574824Y-13887912D01*
X10574824Y-13887912D02*
X10574824Y-13716484D01*
X10708158Y-13916484D02*
X10689110Y-13906960D01*
X10689110Y-13906960D02*
X10679586Y-13887912D01*
X10679586Y-13887912D02*
X10679586Y-13716484D01*
X10936729Y-13916484D02*
X10936729Y-13716484D01*
X10936729Y-13716484D02*
X11003396Y-13859341D01*
X11003396Y-13859341D02*
X11070063Y-13716484D01*
X11070063Y-13716484D02*
X11070063Y-13916484D01*
X11251015Y-13916484D02*
X11251015Y-13811722D01*
X11251015Y-13811722D02*
X11241491Y-13792674D01*
X11241491Y-13792674D02*
X11222443Y-13783150D01*
X11222443Y-13783150D02*
X11184348Y-13783150D01*
X11184348Y-13783150D02*
X11165301Y-13792674D01*
X11251015Y-13906960D02*
X11231967Y-13916484D01*
X11231967Y-13916484D02*
X11184348Y-13916484D01*
X11184348Y-13916484D02*
X11165301Y-13906960D01*
X11165301Y-13906960D02*
X11155777Y-13887912D01*
X11155777Y-13887912D02*
X11155777Y-13868865D01*
X11155777Y-13868865D02*
X11165301Y-13849817D01*
X11165301Y-13849817D02*
X11184348Y-13840293D01*
X11184348Y-13840293D02*
X11231967Y-13840293D01*
X11231967Y-13840293D02*
X11251015Y-13830769D01*
X11346253Y-13783150D02*
X11346253Y-13983150D01*
X11346253Y-13792674D02*
X11365301Y-13783150D01*
X11365301Y-13783150D02*
X11403396Y-13783150D01*
X11403396Y-13783150D02*
X11422443Y-13792674D01*
X11422443Y-13792674D02*
X11431967Y-13802198D01*
X11431967Y-13802198D02*
X11441491Y-13821246D01*
X11441491Y-13821246D02*
X11441491Y-13878388D01*
X11441491Y-13878388D02*
X11431967Y-13897436D01*
X11431967Y-13897436D02*
X11422443Y-13906960D01*
X11422443Y-13906960D02*
X11403396Y-13916484D01*
X11403396Y-13916484D02*
X11365301Y-13916484D01*
X11365301Y-13916484D02*
X11346253Y-13906960D01*
X11527205Y-13897436D02*
X11536729Y-13906960D01*
X11536729Y-13906960D02*
X11527205Y-13916484D01*
X11527205Y-13916484D02*
X11517682Y-13906960D01*
X11517682Y-13906960D02*
X11527205Y-13897436D01*
X11527205Y-13897436D02*
X11527205Y-13916484D01*
X11527205Y-13792674D02*
X11536729Y-13802198D01*
X11536729Y-13802198D02*
X11527205Y-13811722D01*
X11527205Y-13811722D02*
X11517682Y-13802198D01*
X11517682Y-13802198D02*
X11527205Y-13792674D01*
X11527205Y-13792674D02*
X11527205Y-13811722D01*
D10*
X9815000Y-14205000D02*
X9895000Y-14285000D01*
X9895000Y-14205000D02*
X9815000Y-14285000D01*
D11*
X10193872Y-14136484D02*
X10212920Y-14136484D01*
X10212920Y-14136484D02*
X10231967Y-14146008D01*
X10231967Y-14146008D02*
X10241491Y-14155531D01*
X10241491Y-14155531D02*
X10251015Y-14174579D01*
X10251015Y-14174579D02*
X10260539Y-14212674D01*
X10260539Y-14212674D02*
X10260539Y-14260293D01*
X10260539Y-14260293D02*
X10251015Y-14298388D01*
X10251015Y-14298388D02*
X10241491Y-14317436D01*
X10241491Y-14317436D02*
X10231967Y-14326960D01*
X10231967Y-14326960D02*
X10212920Y-14336484D01*
X10212920Y-14336484D02*
X10193872Y-14336484D01*
X10193872Y-14336484D02*
X10174824Y-14326960D01*
X10174824Y-14326960D02*
X10165301Y-14317436D01*
X10165301Y-14317436D02*
X10155777Y-14298388D01*
X10155777Y-14298388D02*
X10146253Y-14260293D01*
X10146253Y-14260293D02*
X10146253Y-14212674D01*
X10146253Y-14212674D02*
X10155777Y-14174579D01*
X10155777Y-14174579D02*
X10165301Y-14155531D01*
X10165301Y-14155531D02*
X10174824Y-14146008D01*
X10174824Y-14146008D02*
X10193872Y-14136484D01*
X10346253Y-14317436D02*
X10355777Y-14326960D01*
X10355777Y-14326960D02*
X10346253Y-14336484D01*
X10346253Y-14336484D02*
X10336729Y-14326960D01*
X10336729Y-14326960D02*
X10346253Y-14317436D01*
X10346253Y-14317436D02*
X10346253Y-14336484D01*
X10470063Y-14222198D02*
X10451015Y-14212674D01*
X10451015Y-14212674D02*
X10441491Y-14203150D01*
X10441491Y-14203150D02*
X10431967Y-14184103D01*
X10431967Y-14184103D02*
X10431967Y-14174579D01*
X10431967Y-14174579D02*
X10441491Y-14155531D01*
X10441491Y-14155531D02*
X10451015Y-14146008D01*
X10451015Y-14146008D02*
X10470063Y-14136484D01*
X10470063Y-14136484D02*
X10508158Y-14136484D01*
X10508158Y-14136484D02*
X10527205Y-14146008D01*
X10527205Y-14146008D02*
X10536729Y-14155531D01*
X10536729Y-14155531D02*
X10546253Y-14174579D01*
X10546253Y-14174579D02*
X10546253Y-14184103D01*
X10546253Y-14184103D02*
X10536729Y-14203150D01*
X10536729Y-14203150D02*
X10527205Y-14212674D01*
X10527205Y-14212674D02*
X10508158Y-14222198D01*
X10508158Y-14222198D02*
X10470063Y-14222198D01*
X10470063Y-14222198D02*
X10451015Y-14231722D01*
X10451015Y-14231722D02*
X10441491Y-14241246D01*
X10441491Y-14241246D02*
X10431967Y-14260293D01*
X10431967Y-14260293D02*
X10431967Y-14298388D01*
X10431967Y-14298388D02*
X10441491Y-14317436D01*
X10441491Y-14317436D02*
X10451015Y-14326960D01*
X10451015Y-14326960D02*
X10470063Y-14336484D01*
X10470063Y-14336484D02*
X10508158Y-14336484D01*
X10508158Y-14336484D02*
X10527205Y-14326960D01*
X10527205Y-14326960D02*
X10536729Y-14317436D01*
X10536729Y-14317436D02*
X10546253Y-14298388D01*
X10546253Y-14298388D02*
X10546253Y-14260293D01*
X10546253Y-14260293D02*
X10536729Y-14241246D01*
X10536729Y-14241246D02*
X10527205Y-14231722D01*
X10527205Y-14231722D02*
X10508158Y-14222198D01*
X10670063Y-14136484D02*
X10689110Y-14136484D01*
X10689110Y-14136484D02*
X10708158Y-14146008D01*
X10708158Y-14146008D02*
X10717682Y-14155531D01*
X10717682Y-14155531D02*
X10727205Y-14174579D01*
X10727205Y-14174579D02*
X10736729Y-14212674D01*
X10736729Y-14212674D02*
X10736729Y-14260293D01*
X10736729Y-14260293D02*
X10727205Y-14298388D01*
X10727205Y-14298388D02*
X10717682Y-14317436D01*
X10717682Y-14317436D02*
X10708158Y-14326960D01*
X10708158Y-14326960D02*
X10689110Y-14336484D01*
X10689110Y-14336484D02*
X10670063Y-14336484D01*
X10670063Y-14336484D02*
X10651015Y-14326960D01*
X10651015Y-14326960D02*
X10641491Y-14317436D01*
X10641491Y-14317436D02*
X10631967Y-14298388D01*
X10631967Y-14298388D02*
X10622444Y-14260293D01*
X10622444Y-14260293D02*
X10622444Y-14212674D01*
X10622444Y-14212674D02*
X10631967Y-14174579D01*
X10631967Y-14174579D02*
X10641491Y-14155531D01*
X10641491Y-14155531D02*
X10651015Y-14146008D01*
X10651015Y-14146008D02*
X10670063Y-14136484D01*
X10860539Y-14136484D02*
X10879586Y-14136484D01*
X10879586Y-14136484D02*
X10898634Y-14146008D01*
X10898634Y-14146008D02*
X10908158Y-14155531D01*
X10908158Y-14155531D02*
X10917682Y-14174579D01*
X10917682Y-14174579D02*
X10927205Y-14212674D01*
X10927205Y-14212674D02*
X10927205Y-14260293D01*
X10927205Y-14260293D02*
X10917682Y-14298388D01*
X10917682Y-14298388D02*
X10908158Y-14317436D01*
X10908158Y-14317436D02*
X10898634Y-14326960D01*
X10898634Y-14326960D02*
X10879586Y-14336484D01*
X10879586Y-14336484D02*
X10860539Y-14336484D01*
X10860539Y-14336484D02*
X10841491Y-14326960D01*
X10841491Y-14326960D02*
X10831967Y-14317436D01*
X10831967Y-14317436D02*
X10822444Y-14298388D01*
X10822444Y-14298388D02*
X10812920Y-14260293D01*
X10812920Y-14260293D02*
X10812920Y-14212674D01*
X10812920Y-14212674D02*
X10822444Y-14174579D01*
X10822444Y-14174579D02*
X10831967Y-14155531D01*
X10831967Y-14155531D02*
X10841491Y-14146008D01*
X10841491Y-14146008D02*
X10860539Y-14136484D01*
X11012920Y-14336484D02*
X11012920Y-14203150D01*
X11012920Y-14222198D02*
X11022444Y-14212674D01*
X11022444Y-14212674D02*
X11041491Y-14203150D01*
X11041491Y-14203150D02*
X11070063Y-14203150D01*
X11070063Y-14203150D02*
X11089110Y-14212674D01*
X11089110Y-14212674D02*
X11098634Y-14231722D01*
X11098634Y-14231722D02*
X11098634Y-14336484D01*
X11098634Y-14231722D02*
X11108158Y-14212674D01*
X11108158Y-14212674D02*
X11127205Y-14203150D01*
X11127205Y-14203150D02*
X11155777Y-14203150D01*
X11155777Y-14203150D02*
X11174825Y-14212674D01*
X11174825Y-14212674D02*
X11184348Y-14231722D01*
X11184348Y-14231722D02*
X11184348Y-14336484D01*
X11279586Y-14336484D02*
X11279586Y-14203150D01*
X11279586Y-14222198D02*
X11289110Y-14212674D01*
X11289110Y-14212674D02*
X11308158Y-14203150D01*
X11308158Y-14203150D02*
X11336729Y-14203150D01*
X11336729Y-14203150D02*
X11355777Y-14212674D01*
X11355777Y-14212674D02*
X11365301Y-14231722D01*
X11365301Y-14231722D02*
X11365301Y-14336484D01*
X11365301Y-14231722D02*
X11374824Y-14212674D01*
X11374824Y-14212674D02*
X11393872Y-14203150D01*
X11393872Y-14203150D02*
X11422443Y-14203150D01*
X11422443Y-14203150D02*
X11441491Y-14212674D01*
X11441491Y-14212674D02*
X11451015Y-14231722D01*
X11451015Y-14231722D02*
X11451015Y-14336484D01*
X11841491Y-14126960D02*
X11670063Y-14384103D01*
X12098634Y-14136484D02*
X12117682Y-14136484D01*
X12117682Y-14136484D02*
X12136729Y-14146008D01*
X12136729Y-14146008D02*
X12146253Y-14155531D01*
X12146253Y-14155531D02*
X12155777Y-14174579D01*
X12155777Y-14174579D02*
X12165301Y-14212674D01*
X12165301Y-14212674D02*
X12165301Y-14260293D01*
X12165301Y-14260293D02*
X12155777Y-14298388D01*
X12155777Y-14298388D02*
X12146253Y-14317436D01*
X12146253Y-14317436D02*
X12136729Y-14326960D01*
X12136729Y-14326960D02*
X12117682Y-14336484D01*
X12117682Y-14336484D02*
X12098634Y-14336484D01*
X12098634Y-14336484D02*
X12079586Y-14326960D01*
X12079586Y-14326960D02*
X12070063Y-14317436D01*
X12070063Y-14317436D02*
X12060539Y-14298388D01*
X12060539Y-14298388D02*
X12051015Y-14260293D01*
X12051015Y-14260293D02*
X12051015Y-14212674D01*
X12051015Y-14212674D02*
X12060539Y-14174579D01*
X12060539Y-14174579D02*
X12070063Y-14155531D01*
X12070063Y-14155531D02*
X12079586Y-14146008D01*
X12079586Y-14146008D02*
X12098634Y-14136484D01*
X12251015Y-14317436D02*
X12260539Y-14326960D01*
X12260539Y-14326960D02*
X12251015Y-14336484D01*
X12251015Y-14336484D02*
X12241491Y-14326960D01*
X12241491Y-14326960D02*
X12251015Y-14317436D01*
X12251015Y-14317436D02*
X12251015Y-14336484D01*
X12384348Y-14136484D02*
X12403396Y-14136484D01*
X12403396Y-14136484D02*
X12422444Y-14146008D01*
X12422444Y-14146008D02*
X12431967Y-14155531D01*
X12431967Y-14155531D02*
X12441491Y-14174579D01*
X12441491Y-14174579D02*
X12451015Y-14212674D01*
X12451015Y-14212674D02*
X12451015Y-14260293D01*
X12451015Y-14260293D02*
X12441491Y-14298388D01*
X12441491Y-14298388D02*
X12431967Y-14317436D01*
X12431967Y-14317436D02*
X12422444Y-14326960D01*
X12422444Y-14326960D02*
X12403396Y-14336484D01*
X12403396Y-14336484D02*
X12384348Y-14336484D01*
X12384348Y-14336484D02*
X12365301Y-14326960D01*
X12365301Y-14326960D02*
X12355777Y-14317436D01*
X12355777Y-14317436D02*
X12346253Y-14298388D01*
X12346253Y-14298388D02*
X12336729Y-14260293D01*
X12336729Y-14260293D02*
X12336729Y-14212674D01*
X12336729Y-14212674D02*
X12346253Y-14174579D01*
X12346253Y-14174579D02*
X12355777Y-14155531D01*
X12355777Y-14155531D02*
X12365301Y-14146008D01*
X12365301Y-14146008D02*
X12384348Y-14136484D01*
X12517682Y-14136484D02*
X12641491Y-14136484D01*
X12641491Y-14136484D02*
X12574825Y-14212674D01*
X12574825Y-14212674D02*
X12603396Y-14212674D01*
X12603396Y-14212674D02*
X12622444Y-14222198D01*
X12622444Y-14222198D02*
X12631967Y-14231722D01*
X12631967Y-14231722D02*
X12641491Y-14250769D01*
X12641491Y-14250769D02*
X12641491Y-14298388D01*
X12641491Y-14298388D02*
X12631967Y-14317436D01*
X12631967Y-14317436D02*
X12622444Y-14326960D01*
X12622444Y-14326960D02*
X12603396Y-14336484D01*
X12603396Y-14336484D02*
X12546253Y-14336484D01*
X12546253Y-14336484D02*
X12527206Y-14326960D01*
X12527206Y-14326960D02*
X12517682Y-14317436D01*
X12831967Y-14336484D02*
X12717682Y-14336484D01*
X12774825Y-14336484D02*
X12774825Y-14136484D01*
X12774825Y-14136484D02*
X12755777Y-14165055D01*
X12755777Y-14165055D02*
X12736729Y-14184103D01*
X12736729Y-14184103D02*
X12717682Y-14193627D01*
X13012920Y-14136484D02*
X12917682Y-14136484D01*
X12917682Y-14136484D02*
X12908158Y-14231722D01*
X12908158Y-14231722D02*
X12917682Y-14222198D01*
X12917682Y-14222198D02*
X12936729Y-14212674D01*
X12936729Y-14212674D02*
X12984348Y-14212674D01*
X12984348Y-14212674D02*
X13003396Y-14222198D01*
X13003396Y-14222198D02*
X13012920Y-14231722D01*
X13012920Y-14231722D02*
X13022444Y-14250769D01*
X13022444Y-14250769D02*
X13022444Y-14298388D01*
X13022444Y-14298388D02*
X13012920Y-14317436D01*
X13012920Y-14317436D02*
X13003396Y-14326960D01*
X13003396Y-14326960D02*
X12984348Y-14336484D01*
X12984348Y-14336484D02*
X12936729Y-14336484D01*
X12936729Y-14336484D02*
X12917682Y-14326960D01*
X12917682Y-14326960D02*
X12908158Y-14317436D01*
X13098634Y-14136484D02*
X13098634Y-14174579D01*
X13174825Y-14136484D02*
X13174825Y-14174579D01*
X13470063Y-14412674D02*
X13460539Y-14403150D01*
X13460539Y-14403150D02*
X13441491Y-14374579D01*
X13441491Y-14374579D02*
X13431968Y-14355531D01*
X13431968Y-14355531D02*
X13422444Y-14326960D01*
X13422444Y-14326960D02*
X13412920Y-14279341D01*
X13412920Y-14279341D02*
X13412920Y-14241246D01*
X13412920Y-14241246D02*
X13422444Y-14193627D01*
X13422444Y-14193627D02*
X13431968Y-14165055D01*
X13431968Y-14165055D02*
X13441491Y-14146008D01*
X13441491Y-14146008D02*
X13460539Y-14117436D01*
X13460539Y-14117436D02*
X13470063Y-14107912D01*
X13536729Y-14155531D02*
X13546253Y-14146008D01*
X13546253Y-14146008D02*
X13565301Y-14136484D01*
X13565301Y-14136484D02*
X13612920Y-14136484D01*
X13612920Y-14136484D02*
X13631968Y-14146008D01*
X13631968Y-14146008D02*
X13641491Y-14155531D01*
X13641491Y-14155531D02*
X13651015Y-14174579D01*
X13651015Y-14174579D02*
X13651015Y-14193627D01*
X13651015Y-14193627D02*
X13641491Y-14222198D01*
X13641491Y-14222198D02*
X13527206Y-14336484D01*
X13527206Y-14336484D02*
X13651015Y-14336484D01*
X13889110Y-14336484D02*
X13889110Y-14136484D01*
X13974825Y-14336484D02*
X13974825Y-14231722D01*
X13974825Y-14231722D02*
X13965301Y-14212674D01*
X13965301Y-14212674D02*
X13946253Y-14203150D01*
X13946253Y-14203150D02*
X13917682Y-14203150D01*
X13917682Y-14203150D02*
X13898634Y-14212674D01*
X13898634Y-14212674D02*
X13889110Y-14222198D01*
X14098634Y-14336484D02*
X14079587Y-14326960D01*
X14079587Y-14326960D02*
X14070063Y-14317436D01*
X14070063Y-14317436D02*
X14060539Y-14298388D01*
X14060539Y-14298388D02*
X14060539Y-14241246D01*
X14060539Y-14241246D02*
X14070063Y-14222198D01*
X14070063Y-14222198D02*
X14079587Y-14212674D01*
X14079587Y-14212674D02*
X14098634Y-14203150D01*
X14098634Y-14203150D02*
X14127206Y-14203150D01*
X14127206Y-14203150D02*
X14146253Y-14212674D01*
X14146253Y-14212674D02*
X14155777Y-14222198D01*
X14155777Y-14222198D02*
X14165301Y-14241246D01*
X14165301Y-14241246D02*
X14165301Y-14298388D01*
X14165301Y-14298388D02*
X14155777Y-14317436D01*
X14155777Y-14317436D02*
X14146253Y-14326960D01*
X14146253Y-14326960D02*
X14127206Y-14336484D01*
X14127206Y-14336484D02*
X14098634Y-14336484D01*
X14279587Y-14336484D02*
X14260539Y-14326960D01*
X14260539Y-14326960D02*
X14251015Y-14307912D01*
X14251015Y-14307912D02*
X14251015Y-14136484D01*
X14431968Y-14326960D02*
X14412920Y-14336484D01*
X14412920Y-14336484D02*
X14374825Y-14336484D01*
X14374825Y-14336484D02*
X14355777Y-14326960D01*
X14355777Y-14326960D02*
X14346253Y-14307912D01*
X14346253Y-14307912D02*
X14346253Y-14231722D01*
X14346253Y-14231722D02*
X14355777Y-14212674D01*
X14355777Y-14212674D02*
X14374825Y-14203150D01*
X14374825Y-14203150D02*
X14412920Y-14203150D01*
X14412920Y-14203150D02*
X14431968Y-14212674D01*
X14431968Y-14212674D02*
X14441491Y-14231722D01*
X14441491Y-14231722D02*
X14441491Y-14250769D01*
X14441491Y-14250769D02*
X14346253Y-14269817D01*
X14517682Y-14326960D02*
X14536730Y-14336484D01*
X14536730Y-14336484D02*
X14574825Y-14336484D01*
X14574825Y-14336484D02*
X14593872Y-14326960D01*
X14593872Y-14326960D02*
X14603396Y-14307912D01*
X14603396Y-14307912D02*
X14603396Y-14298388D01*
X14603396Y-14298388D02*
X14593872Y-14279341D01*
X14593872Y-14279341D02*
X14574825Y-14269817D01*
X14574825Y-14269817D02*
X14546253Y-14269817D01*
X14546253Y-14269817D02*
X14527206Y-14260293D01*
X14527206Y-14260293D02*
X14517682Y-14241246D01*
X14517682Y-14241246D02*
X14517682Y-14231722D01*
X14517682Y-14231722D02*
X14527206Y-14212674D01*
X14527206Y-14212674D02*
X14546253Y-14203150D01*
X14546253Y-14203150D02*
X14574825Y-14203150D01*
X14574825Y-14203150D02*
X14593872Y-14212674D01*
X14670063Y-14412674D02*
X14679587Y-14403150D01*
X14679587Y-14403150D02*
X14698634Y-14374579D01*
X14698634Y-14374579D02*
X14708158Y-14355531D01*
X14708158Y-14355531D02*
X14717682Y-14326960D01*
X14717682Y-14326960D02*
X14727206Y-14279341D01*
X14727206Y-14279341D02*
X14727206Y-14241246D01*
X14727206Y-14241246D02*
X14717682Y-14193627D01*
X14717682Y-14193627D02*
X14708158Y-14165055D01*
X14708158Y-14165055D02*
X14698634Y-14146008D01*
X14698634Y-14146008D02*
X14679587Y-14117436D01*
X14679587Y-14117436D02*
X14670063Y-14107912D01*
X15031968Y-14412674D02*
X15022444Y-14403150D01*
X15022444Y-14403150D02*
X15003396Y-14374579D01*
X15003396Y-14374579D02*
X14993872Y-14355531D01*
X14993872Y-14355531D02*
X14984349Y-14326960D01*
X14984349Y-14326960D02*
X14974825Y-14279341D01*
X14974825Y-14279341D02*
X14974825Y-14241246D01*
X14974825Y-14241246D02*
X14984349Y-14193627D01*
X14984349Y-14193627D02*
X14993872Y-14165055D01*
X14993872Y-14165055D02*
X15003396Y-14146008D01*
X15003396Y-14146008D02*
X15022444Y-14117436D01*
X15022444Y-14117436D02*
X15031968Y-14107912D01*
X15108158Y-14203150D02*
X15108158Y-14336484D01*
X15108158Y-14222198D02*
X15117682Y-14212674D01*
X15117682Y-14212674D02*
X15136730Y-14203150D01*
X15136730Y-14203150D02*
X15165301Y-14203150D01*
X15165301Y-14203150D02*
X15184349Y-14212674D01*
X15184349Y-14212674D02*
X15193872Y-14231722D01*
X15193872Y-14231722D02*
X15193872Y-14336484D01*
X15317682Y-14336484D02*
X15298634Y-14326960D01*
X15298634Y-14326960D02*
X15289111Y-14317436D01*
X15289111Y-14317436D02*
X15279587Y-14298388D01*
X15279587Y-14298388D02*
X15279587Y-14241246D01*
X15279587Y-14241246D02*
X15289111Y-14222198D01*
X15289111Y-14222198D02*
X15298634Y-14212674D01*
X15298634Y-14212674D02*
X15317682Y-14203150D01*
X15317682Y-14203150D02*
X15346253Y-14203150D01*
X15346253Y-14203150D02*
X15365301Y-14212674D01*
X15365301Y-14212674D02*
X15374825Y-14222198D01*
X15374825Y-14222198D02*
X15384349Y-14241246D01*
X15384349Y-14241246D02*
X15384349Y-14298388D01*
X15384349Y-14298388D02*
X15374825Y-14317436D01*
X15374825Y-14317436D02*
X15365301Y-14326960D01*
X15365301Y-14326960D02*
X15346253Y-14336484D01*
X15346253Y-14336484D02*
X15317682Y-14336484D01*
X15441492Y-14203150D02*
X15517682Y-14203150D01*
X15470063Y-14136484D02*
X15470063Y-14307912D01*
X15470063Y-14307912D02*
X15479587Y-14326960D01*
X15479587Y-14326960D02*
X15498634Y-14336484D01*
X15498634Y-14336484D02*
X15517682Y-14336484D01*
X15736730Y-14203150D02*
X15736730Y-14403150D01*
X15736730Y-14212674D02*
X15755777Y-14203150D01*
X15755777Y-14203150D02*
X15793873Y-14203150D01*
X15793873Y-14203150D02*
X15812920Y-14212674D01*
X15812920Y-14212674D02*
X15822444Y-14222198D01*
X15822444Y-14222198D02*
X15831968Y-14241246D01*
X15831968Y-14241246D02*
X15831968Y-14298388D01*
X15831968Y-14298388D02*
X15822444Y-14317436D01*
X15822444Y-14317436D02*
X15812920Y-14326960D01*
X15812920Y-14326960D02*
X15793873Y-14336484D01*
X15793873Y-14336484D02*
X15755777Y-14336484D01*
X15755777Y-14336484D02*
X15736730Y-14326960D01*
X15946253Y-14336484D02*
X15927206Y-14326960D01*
X15927206Y-14326960D02*
X15917682Y-14307912D01*
X15917682Y-14307912D02*
X15917682Y-14136484D01*
X16108158Y-14336484D02*
X16108158Y-14231722D01*
X16108158Y-14231722D02*
X16098634Y-14212674D01*
X16098634Y-14212674D02*
X16079587Y-14203150D01*
X16079587Y-14203150D02*
X16041492Y-14203150D01*
X16041492Y-14203150D02*
X16022444Y-14212674D01*
X16108158Y-14326960D02*
X16089111Y-14336484D01*
X16089111Y-14336484D02*
X16041492Y-14336484D01*
X16041492Y-14336484D02*
X16022444Y-14326960D01*
X16022444Y-14326960D02*
X16012920Y-14307912D01*
X16012920Y-14307912D02*
X16012920Y-14288865D01*
X16012920Y-14288865D02*
X16022444Y-14269817D01*
X16022444Y-14269817D02*
X16041492Y-14260293D01*
X16041492Y-14260293D02*
X16089111Y-14260293D01*
X16089111Y-14260293D02*
X16108158Y-14250769D01*
X16174825Y-14203150D02*
X16251015Y-14203150D01*
X16203396Y-14136484D02*
X16203396Y-14307912D01*
X16203396Y-14307912D02*
X16212920Y-14326960D01*
X16212920Y-14326960D02*
X16231968Y-14336484D01*
X16231968Y-14336484D02*
X16251015Y-14336484D01*
X16393873Y-14326960D02*
X16374825Y-14336484D01*
X16374825Y-14336484D02*
X16336730Y-14336484D01*
X16336730Y-14336484D02*
X16317682Y-14326960D01*
X16317682Y-14326960D02*
X16308158Y-14307912D01*
X16308158Y-14307912D02*
X16308158Y-14231722D01*
X16308158Y-14231722D02*
X16317682Y-14212674D01*
X16317682Y-14212674D02*
X16336730Y-14203150D01*
X16336730Y-14203150D02*
X16374825Y-14203150D01*
X16374825Y-14203150D02*
X16393873Y-14212674D01*
X16393873Y-14212674D02*
X16403396Y-14231722D01*
X16403396Y-14231722D02*
X16403396Y-14250769D01*
X16403396Y-14250769D02*
X16308158Y-14269817D01*
X16574825Y-14336484D02*
X16574825Y-14136484D01*
X16574825Y-14326960D02*
X16555777Y-14336484D01*
X16555777Y-14336484D02*
X16517682Y-14336484D01*
X16517682Y-14336484D02*
X16498634Y-14326960D01*
X16498634Y-14326960D02*
X16489111Y-14317436D01*
X16489111Y-14317436D02*
X16479587Y-14298388D01*
X16479587Y-14298388D02*
X16479587Y-14241246D01*
X16479587Y-14241246D02*
X16489111Y-14222198D01*
X16489111Y-14222198D02*
X16498634Y-14212674D01*
X16498634Y-14212674D02*
X16517682Y-14203150D01*
X16517682Y-14203150D02*
X16555777Y-14203150D01*
X16555777Y-14203150D02*
X16574825Y-14212674D01*
X16651015Y-14412674D02*
X16660539Y-14403150D01*
X16660539Y-14403150D02*
X16679587Y-14374579D01*
X16679587Y-14374579D02*
X16689111Y-14355531D01*
X16689111Y-14355531D02*
X16698634Y-14326960D01*
X16698634Y-14326960D02*
X16708158Y-14279341D01*
X16708158Y-14279341D02*
X16708158Y-14241246D01*
X16708158Y-14241246D02*
X16698634Y-14193627D01*
X16698634Y-14193627D02*
X16689111Y-14165055D01*
X16689111Y-14165055D02*
X16679587Y-14146008D01*
X16679587Y-14146008D02*
X16660539Y-14117436D01*
X16660539Y-14117436D02*
X16651015Y-14107912D01*
D10*
X9895000Y-14509000D02*
G75*
G03*
X9895000Y-14509000I-50000J0D01*
G01*
D11*
X10260539Y-14600484D02*
X10146253Y-14600484D01*
X10203396Y-14600484D02*
X10203396Y-14400484D01*
X10203396Y-14400484D02*
X10184348Y-14429055D01*
X10184348Y-14429055D02*
X10165301Y-14448103D01*
X10165301Y-14448103D02*
X10146253Y-14457627D01*
X10346253Y-14581436D02*
X10355777Y-14590960D01*
X10355777Y-14590960D02*
X10346253Y-14600484D01*
X10346253Y-14600484D02*
X10336729Y-14590960D01*
X10336729Y-14590960D02*
X10346253Y-14581436D01*
X10346253Y-14581436D02*
X10346253Y-14600484D01*
X10479586Y-14400484D02*
X10498634Y-14400484D01*
X10498634Y-14400484D02*
X10517682Y-14410008D01*
X10517682Y-14410008D02*
X10527205Y-14419531D01*
X10527205Y-14419531D02*
X10536729Y-14438579D01*
X10536729Y-14438579D02*
X10546253Y-14476674D01*
X10546253Y-14476674D02*
X10546253Y-14524293D01*
X10546253Y-14524293D02*
X10536729Y-14562388D01*
X10536729Y-14562388D02*
X10527205Y-14581436D01*
X10527205Y-14581436D02*
X10517682Y-14590960D01*
X10517682Y-14590960D02*
X10498634Y-14600484D01*
X10498634Y-14600484D02*
X10479586Y-14600484D01*
X10479586Y-14600484D02*
X10460539Y-14590960D01*
X10460539Y-14590960D02*
X10451015Y-14581436D01*
X10451015Y-14581436D02*
X10441491Y-14562388D01*
X10441491Y-14562388D02*
X10431967Y-14524293D01*
X10431967Y-14524293D02*
X10431967Y-14476674D01*
X10431967Y-14476674D02*
X10441491Y-14438579D01*
X10441491Y-14438579D02*
X10451015Y-14419531D01*
X10451015Y-14419531D02*
X10460539Y-14410008D01*
X10460539Y-14410008D02*
X10479586Y-14400484D01*
X10670063Y-14400484D02*
X10689110Y-14400484D01*
X10689110Y-14400484D02*
X10708158Y-14410008D01*
X10708158Y-14410008D02*
X10717682Y-14419531D01*
X10717682Y-14419531D02*
X10727205Y-14438579D01*
X10727205Y-14438579D02*
X10736729Y-14476674D01*
X10736729Y-14476674D02*
X10736729Y-14524293D01*
X10736729Y-14524293D02*
X10727205Y-14562388D01*
X10727205Y-14562388D02*
X10717682Y-14581436D01*
X10717682Y-14581436D02*
X10708158Y-14590960D01*
X10708158Y-14590960D02*
X10689110Y-14600484D01*
X10689110Y-14600484D02*
X10670063Y-14600484D01*
X10670063Y-14600484D02*
X10651015Y-14590960D01*
X10651015Y-14590960D02*
X10641491Y-14581436D01*
X10641491Y-14581436D02*
X10631967Y-14562388D01*
X10631967Y-14562388D02*
X10622444Y-14524293D01*
X10622444Y-14524293D02*
X10622444Y-14476674D01*
X10622444Y-14476674D02*
X10631967Y-14438579D01*
X10631967Y-14438579D02*
X10641491Y-14419531D01*
X10641491Y-14419531D02*
X10651015Y-14410008D01*
X10651015Y-14410008D02*
X10670063Y-14400484D01*
X10860539Y-14400484D02*
X10879586Y-14400484D01*
X10879586Y-14400484D02*
X10898634Y-14410008D01*
X10898634Y-14410008D02*
X10908158Y-14419531D01*
X10908158Y-14419531D02*
X10917682Y-14438579D01*
X10917682Y-14438579D02*
X10927205Y-14476674D01*
X10927205Y-14476674D02*
X10927205Y-14524293D01*
X10927205Y-14524293D02*
X10917682Y-14562388D01*
X10917682Y-14562388D02*
X10908158Y-14581436D01*
X10908158Y-14581436D02*
X10898634Y-14590960D01*
X10898634Y-14590960D02*
X10879586Y-14600484D01*
X10879586Y-14600484D02*
X10860539Y-14600484D01*
X10860539Y-14600484D02*
X10841491Y-14590960D01*
X10841491Y-14590960D02*
X10831967Y-14581436D01*
X10831967Y-14581436D02*
X10822444Y-14562388D01*
X10822444Y-14562388D02*
X10812920Y-14524293D01*
X10812920Y-14524293D02*
X10812920Y-14476674D01*
X10812920Y-14476674D02*
X10822444Y-14438579D01*
X10822444Y-14438579D02*
X10831967Y-14419531D01*
X10831967Y-14419531D02*
X10841491Y-14410008D01*
X10841491Y-14410008D02*
X10860539Y-14400484D01*
X11012920Y-14600484D02*
X11012920Y-14467150D01*
X11012920Y-14486198D02*
X11022444Y-14476674D01*
X11022444Y-14476674D02*
X11041491Y-14467150D01*
X11041491Y-14467150D02*
X11070063Y-14467150D01*
X11070063Y-14467150D02*
X11089110Y-14476674D01*
X11089110Y-14476674D02*
X11098634Y-14495722D01*
X11098634Y-14495722D02*
X11098634Y-14600484D01*
X11098634Y-14495722D02*
X11108158Y-14476674D01*
X11108158Y-14476674D02*
X11127205Y-14467150D01*
X11127205Y-14467150D02*
X11155777Y-14467150D01*
X11155777Y-14467150D02*
X11174825Y-14476674D01*
X11174825Y-14476674D02*
X11184348Y-14495722D01*
X11184348Y-14495722D02*
X11184348Y-14600484D01*
X11279586Y-14600484D02*
X11279586Y-14467150D01*
X11279586Y-14486198D02*
X11289110Y-14476674D01*
X11289110Y-14476674D02*
X11308158Y-14467150D01*
X11308158Y-14467150D02*
X11336729Y-14467150D01*
X11336729Y-14467150D02*
X11355777Y-14476674D01*
X11355777Y-14476674D02*
X11365301Y-14495722D01*
X11365301Y-14495722D02*
X11365301Y-14600484D01*
X11365301Y-14495722D02*
X11374824Y-14476674D01*
X11374824Y-14476674D02*
X11393872Y-14467150D01*
X11393872Y-14467150D02*
X11422443Y-14467150D01*
X11422443Y-14467150D02*
X11441491Y-14476674D01*
X11441491Y-14476674D02*
X11451015Y-14495722D01*
X11451015Y-14495722D02*
X11451015Y-14600484D01*
X11841491Y-14390960D02*
X11670063Y-14648103D01*
X12098634Y-14400484D02*
X12117682Y-14400484D01*
X12117682Y-14400484D02*
X12136729Y-14410008D01*
X12136729Y-14410008D02*
X12146253Y-14419531D01*
X12146253Y-14419531D02*
X12155777Y-14438579D01*
X12155777Y-14438579D02*
X12165301Y-14476674D01*
X12165301Y-14476674D02*
X12165301Y-14524293D01*
X12165301Y-14524293D02*
X12155777Y-14562388D01*
X12155777Y-14562388D02*
X12146253Y-14581436D01*
X12146253Y-14581436D02*
X12136729Y-14590960D01*
X12136729Y-14590960D02*
X12117682Y-14600484D01*
X12117682Y-14600484D02*
X12098634Y-14600484D01*
X12098634Y-14600484D02*
X12079586Y-14590960D01*
X12079586Y-14590960D02*
X12070063Y-14581436D01*
X12070063Y-14581436D02*
X12060539Y-14562388D01*
X12060539Y-14562388D02*
X12051015Y-14524293D01*
X12051015Y-14524293D02*
X12051015Y-14476674D01*
X12051015Y-14476674D02*
X12060539Y-14438579D01*
X12060539Y-14438579D02*
X12070063Y-14419531D01*
X12070063Y-14419531D02*
X12079586Y-14410008D01*
X12079586Y-14410008D02*
X12098634Y-14400484D01*
X12251015Y-14581436D02*
X12260539Y-14590960D01*
X12260539Y-14590960D02*
X12251015Y-14600484D01*
X12251015Y-14600484D02*
X12241491Y-14590960D01*
X12241491Y-14590960D02*
X12251015Y-14581436D01*
X12251015Y-14581436D02*
X12251015Y-14600484D01*
X12384348Y-14400484D02*
X12403396Y-14400484D01*
X12403396Y-14400484D02*
X12422444Y-14410008D01*
X12422444Y-14410008D02*
X12431967Y-14419531D01*
X12431967Y-14419531D02*
X12441491Y-14438579D01*
X12441491Y-14438579D02*
X12451015Y-14476674D01*
X12451015Y-14476674D02*
X12451015Y-14524293D01*
X12451015Y-14524293D02*
X12441491Y-14562388D01*
X12441491Y-14562388D02*
X12431967Y-14581436D01*
X12431967Y-14581436D02*
X12422444Y-14590960D01*
X12422444Y-14590960D02*
X12403396Y-14600484D01*
X12403396Y-14600484D02*
X12384348Y-14600484D01*
X12384348Y-14600484D02*
X12365301Y-14590960D01*
X12365301Y-14590960D02*
X12355777Y-14581436D01*
X12355777Y-14581436D02*
X12346253Y-14562388D01*
X12346253Y-14562388D02*
X12336729Y-14524293D01*
X12336729Y-14524293D02*
X12336729Y-14476674D01*
X12336729Y-14476674D02*
X12346253Y-14438579D01*
X12346253Y-14438579D02*
X12355777Y-14419531D01*
X12355777Y-14419531D02*
X12365301Y-14410008D01*
X12365301Y-14410008D02*
X12384348Y-14400484D01*
X12517682Y-14400484D02*
X12641491Y-14400484D01*
X12641491Y-14400484D02*
X12574825Y-14476674D01*
X12574825Y-14476674D02*
X12603396Y-14476674D01*
X12603396Y-14476674D02*
X12622444Y-14486198D01*
X12622444Y-14486198D02*
X12631967Y-14495722D01*
X12631967Y-14495722D02*
X12641491Y-14514769D01*
X12641491Y-14514769D02*
X12641491Y-14562388D01*
X12641491Y-14562388D02*
X12631967Y-14581436D01*
X12631967Y-14581436D02*
X12622444Y-14590960D01*
X12622444Y-14590960D02*
X12603396Y-14600484D01*
X12603396Y-14600484D02*
X12546253Y-14600484D01*
X12546253Y-14600484D02*
X12527206Y-14590960D01*
X12527206Y-14590960D02*
X12517682Y-14581436D01*
X12736729Y-14600484D02*
X12774825Y-14600484D01*
X12774825Y-14600484D02*
X12793872Y-14590960D01*
X12793872Y-14590960D02*
X12803396Y-14581436D01*
X12803396Y-14581436D02*
X12822444Y-14552865D01*
X12822444Y-14552865D02*
X12831967Y-14514769D01*
X12831967Y-14514769D02*
X12831967Y-14438579D01*
X12831967Y-14438579D02*
X12822444Y-14419531D01*
X12822444Y-14419531D02*
X12812920Y-14410008D01*
X12812920Y-14410008D02*
X12793872Y-14400484D01*
X12793872Y-14400484D02*
X12755777Y-14400484D01*
X12755777Y-14400484D02*
X12736729Y-14410008D01*
X12736729Y-14410008D02*
X12727206Y-14419531D01*
X12727206Y-14419531D02*
X12717682Y-14438579D01*
X12717682Y-14438579D02*
X12717682Y-14486198D01*
X12717682Y-14486198D02*
X12727206Y-14505246D01*
X12727206Y-14505246D02*
X12736729Y-14514769D01*
X12736729Y-14514769D02*
X12755777Y-14524293D01*
X12755777Y-14524293D02*
X12793872Y-14524293D01*
X12793872Y-14524293D02*
X12812920Y-14514769D01*
X12812920Y-14514769D02*
X12822444Y-14505246D01*
X12822444Y-14505246D02*
X12831967Y-14486198D01*
X13003396Y-14467150D02*
X13003396Y-14600484D01*
X12955777Y-14390960D02*
X12908158Y-14533817D01*
X12908158Y-14533817D02*
X13031967Y-14533817D01*
X13098634Y-14400484D02*
X13098634Y-14438579D01*
X13174825Y-14400484D02*
X13174825Y-14438579D01*
X13470063Y-14676674D02*
X13460539Y-14667150D01*
X13460539Y-14667150D02*
X13441491Y-14638579D01*
X13441491Y-14638579D02*
X13431968Y-14619531D01*
X13431968Y-14619531D02*
X13422444Y-14590960D01*
X13422444Y-14590960D02*
X13412920Y-14543341D01*
X13412920Y-14543341D02*
X13412920Y-14505246D01*
X13412920Y-14505246D02*
X13422444Y-14457627D01*
X13422444Y-14457627D02*
X13431968Y-14429055D01*
X13431968Y-14429055D02*
X13441491Y-14410008D01*
X13441491Y-14410008D02*
X13460539Y-14381436D01*
X13460539Y-14381436D02*
X13470063Y-14371912D01*
X13536729Y-14419531D02*
X13546253Y-14410008D01*
X13546253Y-14410008D02*
X13565301Y-14400484D01*
X13565301Y-14400484D02*
X13612920Y-14400484D01*
X13612920Y-14400484D02*
X13631968Y-14410008D01*
X13631968Y-14410008D02*
X13641491Y-14419531D01*
X13641491Y-14419531D02*
X13651015Y-14438579D01*
X13651015Y-14438579D02*
X13651015Y-14457627D01*
X13651015Y-14457627D02*
X13641491Y-14486198D01*
X13641491Y-14486198D02*
X13527206Y-14600484D01*
X13527206Y-14600484D02*
X13651015Y-14600484D01*
X13889110Y-14600484D02*
X13889110Y-14400484D01*
X13974825Y-14600484D02*
X13974825Y-14495722D01*
X13974825Y-14495722D02*
X13965301Y-14476674D01*
X13965301Y-14476674D02*
X13946253Y-14467150D01*
X13946253Y-14467150D02*
X13917682Y-14467150D01*
X13917682Y-14467150D02*
X13898634Y-14476674D01*
X13898634Y-14476674D02*
X13889110Y-14486198D01*
X14098634Y-14600484D02*
X14079587Y-14590960D01*
X14079587Y-14590960D02*
X14070063Y-14581436D01*
X14070063Y-14581436D02*
X14060539Y-14562388D01*
X14060539Y-14562388D02*
X14060539Y-14505246D01*
X14060539Y-14505246D02*
X14070063Y-14486198D01*
X14070063Y-14486198D02*
X14079587Y-14476674D01*
X14079587Y-14476674D02*
X14098634Y-14467150D01*
X14098634Y-14467150D02*
X14127206Y-14467150D01*
X14127206Y-14467150D02*
X14146253Y-14476674D01*
X14146253Y-14476674D02*
X14155777Y-14486198D01*
X14155777Y-14486198D02*
X14165301Y-14505246D01*
X14165301Y-14505246D02*
X14165301Y-14562388D01*
X14165301Y-14562388D02*
X14155777Y-14581436D01*
X14155777Y-14581436D02*
X14146253Y-14590960D01*
X14146253Y-14590960D02*
X14127206Y-14600484D01*
X14127206Y-14600484D02*
X14098634Y-14600484D01*
X14279587Y-14600484D02*
X14260539Y-14590960D01*
X14260539Y-14590960D02*
X14251015Y-14571912D01*
X14251015Y-14571912D02*
X14251015Y-14400484D01*
X14431968Y-14590960D02*
X14412920Y-14600484D01*
X14412920Y-14600484D02*
X14374825Y-14600484D01*
X14374825Y-14600484D02*
X14355777Y-14590960D01*
X14355777Y-14590960D02*
X14346253Y-14571912D01*
X14346253Y-14571912D02*
X14346253Y-14495722D01*
X14346253Y-14495722D02*
X14355777Y-14476674D01*
X14355777Y-14476674D02*
X14374825Y-14467150D01*
X14374825Y-14467150D02*
X14412920Y-14467150D01*
X14412920Y-14467150D02*
X14431968Y-14476674D01*
X14431968Y-14476674D02*
X14441491Y-14495722D01*
X14441491Y-14495722D02*
X14441491Y-14514769D01*
X14441491Y-14514769D02*
X14346253Y-14533817D01*
X14517682Y-14590960D02*
X14536730Y-14600484D01*
X14536730Y-14600484D02*
X14574825Y-14600484D01*
X14574825Y-14600484D02*
X14593872Y-14590960D01*
X14593872Y-14590960D02*
X14603396Y-14571912D01*
X14603396Y-14571912D02*
X14603396Y-14562388D01*
X14603396Y-14562388D02*
X14593872Y-14543341D01*
X14593872Y-14543341D02*
X14574825Y-14533817D01*
X14574825Y-14533817D02*
X14546253Y-14533817D01*
X14546253Y-14533817D02*
X14527206Y-14524293D01*
X14527206Y-14524293D02*
X14517682Y-14505246D01*
X14517682Y-14505246D02*
X14517682Y-14495722D01*
X14517682Y-14495722D02*
X14527206Y-14476674D01*
X14527206Y-14476674D02*
X14546253Y-14467150D01*
X14546253Y-14467150D02*
X14574825Y-14467150D01*
X14574825Y-14467150D02*
X14593872Y-14476674D01*
X14670063Y-14676674D02*
X14679587Y-14667150D01*
X14679587Y-14667150D02*
X14698634Y-14638579D01*
X14698634Y-14638579D02*
X14708158Y-14619531D01*
X14708158Y-14619531D02*
X14717682Y-14590960D01*
X14717682Y-14590960D02*
X14727206Y-14543341D01*
X14727206Y-14543341D02*
X14727206Y-14505246D01*
X14727206Y-14505246D02*
X14717682Y-14457627D01*
X14717682Y-14457627D02*
X14708158Y-14429055D01*
X14708158Y-14429055D02*
X14698634Y-14410008D01*
X14698634Y-14410008D02*
X14679587Y-14381436D01*
X14679587Y-14381436D02*
X14670063Y-14371912D01*
X15031968Y-14676674D02*
X15022444Y-14667150D01*
X15022444Y-14667150D02*
X15003396Y-14638579D01*
X15003396Y-14638579D02*
X14993872Y-14619531D01*
X14993872Y-14619531D02*
X14984349Y-14590960D01*
X14984349Y-14590960D02*
X14974825Y-14543341D01*
X14974825Y-14543341D02*
X14974825Y-14505246D01*
X14974825Y-14505246D02*
X14984349Y-14457627D01*
X14984349Y-14457627D02*
X14993872Y-14429055D01*
X14993872Y-14429055D02*
X15003396Y-14410008D01*
X15003396Y-14410008D02*
X15022444Y-14381436D01*
X15022444Y-14381436D02*
X15031968Y-14371912D01*
X15108158Y-14467150D02*
X15108158Y-14600484D01*
X15108158Y-14486198D02*
X15117682Y-14476674D01*
X15117682Y-14476674D02*
X15136730Y-14467150D01*
X15136730Y-14467150D02*
X15165301Y-14467150D01*
X15165301Y-14467150D02*
X15184349Y-14476674D01*
X15184349Y-14476674D02*
X15193872Y-14495722D01*
X15193872Y-14495722D02*
X15193872Y-14600484D01*
X15317682Y-14600484D02*
X15298634Y-14590960D01*
X15298634Y-14590960D02*
X15289111Y-14581436D01*
X15289111Y-14581436D02*
X15279587Y-14562388D01*
X15279587Y-14562388D02*
X15279587Y-14505246D01*
X15279587Y-14505246D02*
X15289111Y-14486198D01*
X15289111Y-14486198D02*
X15298634Y-14476674D01*
X15298634Y-14476674D02*
X15317682Y-14467150D01*
X15317682Y-14467150D02*
X15346253Y-14467150D01*
X15346253Y-14467150D02*
X15365301Y-14476674D01*
X15365301Y-14476674D02*
X15374825Y-14486198D01*
X15374825Y-14486198D02*
X15384349Y-14505246D01*
X15384349Y-14505246D02*
X15384349Y-14562388D01*
X15384349Y-14562388D02*
X15374825Y-14581436D01*
X15374825Y-14581436D02*
X15365301Y-14590960D01*
X15365301Y-14590960D02*
X15346253Y-14600484D01*
X15346253Y-14600484D02*
X15317682Y-14600484D01*
X15441492Y-14467150D02*
X15517682Y-14467150D01*
X15470063Y-14400484D02*
X15470063Y-14571912D01*
X15470063Y-14571912D02*
X15479587Y-14590960D01*
X15479587Y-14590960D02*
X15498634Y-14600484D01*
X15498634Y-14600484D02*
X15517682Y-14600484D01*
X15736730Y-14467150D02*
X15736730Y-14667150D01*
X15736730Y-14476674D02*
X15755777Y-14467150D01*
X15755777Y-14467150D02*
X15793873Y-14467150D01*
X15793873Y-14467150D02*
X15812920Y-14476674D01*
X15812920Y-14476674D02*
X15822444Y-14486198D01*
X15822444Y-14486198D02*
X15831968Y-14505246D01*
X15831968Y-14505246D02*
X15831968Y-14562388D01*
X15831968Y-14562388D02*
X15822444Y-14581436D01*
X15822444Y-14581436D02*
X15812920Y-14590960D01*
X15812920Y-14590960D02*
X15793873Y-14600484D01*
X15793873Y-14600484D02*
X15755777Y-14600484D01*
X15755777Y-14600484D02*
X15736730Y-14590960D01*
X15946253Y-14600484D02*
X15927206Y-14590960D01*
X15927206Y-14590960D02*
X15917682Y-14571912D01*
X15917682Y-14571912D02*
X15917682Y-14400484D01*
X16108158Y-14600484D02*
X16108158Y-14495722D01*
X16108158Y-14495722D02*
X16098634Y-14476674D01*
X16098634Y-14476674D02*
X16079587Y-14467150D01*
X16079587Y-14467150D02*
X16041492Y-14467150D01*
X16041492Y-14467150D02*
X16022444Y-14476674D01*
X16108158Y-14590960D02*
X16089111Y-14600484D01*
X16089111Y-14600484D02*
X16041492Y-14600484D01*
X16041492Y-14600484D02*
X16022444Y-14590960D01*
X16022444Y-14590960D02*
X16012920Y-14571912D01*
X16012920Y-14571912D02*
X16012920Y-14552865D01*
X16012920Y-14552865D02*
X16022444Y-14533817D01*
X16022444Y-14533817D02*
X16041492Y-14524293D01*
X16041492Y-14524293D02*
X16089111Y-14524293D01*
X16089111Y-14524293D02*
X16108158Y-14514769D01*
X16174825Y-14467150D02*
X16251015Y-14467150D01*
X16203396Y-14400484D02*
X16203396Y-14571912D01*
X16203396Y-14571912D02*
X16212920Y-14590960D01*
X16212920Y-14590960D02*
X16231968Y-14600484D01*
X16231968Y-14600484D02*
X16251015Y-14600484D01*
X16393873Y-14590960D02*
X16374825Y-14600484D01*
X16374825Y-14600484D02*
X16336730Y-14600484D01*
X16336730Y-14600484D02*
X16317682Y-14590960D01*
X16317682Y-14590960D02*
X16308158Y-14571912D01*
X16308158Y-14571912D02*
X16308158Y-14495722D01*
X16308158Y-14495722D02*
X16317682Y-14476674D01*
X16317682Y-14476674D02*
X16336730Y-14467150D01*
X16336730Y-14467150D02*
X16374825Y-14467150D01*
X16374825Y-14467150D02*
X16393873Y-14476674D01*
X16393873Y-14476674D02*
X16403396Y-14495722D01*
X16403396Y-14495722D02*
X16403396Y-14514769D01*
X16403396Y-14514769D02*
X16308158Y-14533817D01*
X16574825Y-14600484D02*
X16574825Y-14400484D01*
X16574825Y-14590960D02*
X16555777Y-14600484D01*
X16555777Y-14600484D02*
X16517682Y-14600484D01*
X16517682Y-14600484D02*
X16498634Y-14590960D01*
X16498634Y-14590960D02*
X16489111Y-14581436D01*
X16489111Y-14581436D02*
X16479587Y-14562388D01*
X16479587Y-14562388D02*
X16479587Y-14505246D01*
X16479587Y-14505246D02*
X16489111Y-14486198D01*
X16489111Y-14486198D02*
X16498634Y-14476674D01*
X16498634Y-14476674D02*
X16517682Y-14467150D01*
X16517682Y-14467150D02*
X16555777Y-14467150D01*
X16555777Y-14467150D02*
X16574825Y-14476674D01*
X16651015Y-14676674D02*
X16660539Y-14667150D01*
X16660539Y-14667150D02*
X16679587Y-14638579D01*
X16679587Y-14638579D02*
X16689111Y-14619531D01*
X16689111Y-14619531D02*
X16698634Y-14590960D01*
X16698634Y-14590960D02*
X16708158Y-14543341D01*
X16708158Y-14543341D02*
X16708158Y-14505246D01*
X16708158Y-14505246D02*
X16698634Y-14457627D01*
X16698634Y-14457627D02*
X16689111Y-14429055D01*
X16689111Y-14429055D02*
X16679587Y-14410008D01*
X16679587Y-14410008D02*
X16660539Y-14381436D01*
X16660539Y-14381436D02*
X16651015Y-14371912D01*
X9795000Y-14673000D02*
X9795000Y-14873000D01*
X9695000Y-14773000D02*
X9895000Y-14773000D01*
X10136729Y-14664484D02*
X10260539Y-14664484D01*
X10260539Y-14664484D02*
X10193872Y-14740674D01*
X10193872Y-14740674D02*
X10222444Y-14740674D01*
X10222444Y-14740674D02*
X10241491Y-14750198D01*
X10241491Y-14750198D02*
X10251015Y-14759722D01*
X10251015Y-14759722D02*
X10260539Y-14778769D01*
X10260539Y-14778769D02*
X10260539Y-14826388D01*
X10260539Y-14826388D02*
X10251015Y-14845436D01*
X10251015Y-14845436D02*
X10241491Y-14854960D01*
X10241491Y-14854960D02*
X10222444Y-14864484D01*
X10222444Y-14864484D02*
X10165301Y-14864484D01*
X10165301Y-14864484D02*
X10146253Y-14854960D01*
X10146253Y-14854960D02*
X10136729Y-14845436D01*
X10346253Y-14845436D02*
X10355777Y-14854960D01*
X10355777Y-14854960D02*
X10346253Y-14864484D01*
X10346253Y-14864484D02*
X10336729Y-14854960D01*
X10336729Y-14854960D02*
X10346253Y-14845436D01*
X10346253Y-14845436D02*
X10346253Y-14864484D01*
X10431967Y-14683531D02*
X10441491Y-14674008D01*
X10441491Y-14674008D02*
X10460539Y-14664484D01*
X10460539Y-14664484D02*
X10508158Y-14664484D01*
X10508158Y-14664484D02*
X10527205Y-14674008D01*
X10527205Y-14674008D02*
X10536729Y-14683531D01*
X10536729Y-14683531D02*
X10546253Y-14702579D01*
X10546253Y-14702579D02*
X10546253Y-14721627D01*
X10546253Y-14721627D02*
X10536729Y-14750198D01*
X10536729Y-14750198D02*
X10422444Y-14864484D01*
X10422444Y-14864484D02*
X10546253Y-14864484D01*
X10670063Y-14664484D02*
X10689110Y-14664484D01*
X10689110Y-14664484D02*
X10708158Y-14674008D01*
X10708158Y-14674008D02*
X10717682Y-14683531D01*
X10717682Y-14683531D02*
X10727205Y-14702579D01*
X10727205Y-14702579D02*
X10736729Y-14740674D01*
X10736729Y-14740674D02*
X10736729Y-14788293D01*
X10736729Y-14788293D02*
X10727205Y-14826388D01*
X10727205Y-14826388D02*
X10717682Y-14845436D01*
X10717682Y-14845436D02*
X10708158Y-14854960D01*
X10708158Y-14854960D02*
X10689110Y-14864484D01*
X10689110Y-14864484D02*
X10670063Y-14864484D01*
X10670063Y-14864484D02*
X10651015Y-14854960D01*
X10651015Y-14854960D02*
X10641491Y-14845436D01*
X10641491Y-14845436D02*
X10631967Y-14826388D01*
X10631967Y-14826388D02*
X10622444Y-14788293D01*
X10622444Y-14788293D02*
X10622444Y-14740674D01*
X10622444Y-14740674D02*
X10631967Y-14702579D01*
X10631967Y-14702579D02*
X10641491Y-14683531D01*
X10641491Y-14683531D02*
X10651015Y-14674008D01*
X10651015Y-14674008D02*
X10670063Y-14664484D01*
X10860539Y-14664484D02*
X10879586Y-14664484D01*
X10879586Y-14664484D02*
X10898634Y-14674008D01*
X10898634Y-14674008D02*
X10908158Y-14683531D01*
X10908158Y-14683531D02*
X10917682Y-14702579D01*
X10917682Y-14702579D02*
X10927205Y-14740674D01*
X10927205Y-14740674D02*
X10927205Y-14788293D01*
X10927205Y-14788293D02*
X10917682Y-14826388D01*
X10917682Y-14826388D02*
X10908158Y-14845436D01*
X10908158Y-14845436D02*
X10898634Y-14854960D01*
X10898634Y-14854960D02*
X10879586Y-14864484D01*
X10879586Y-14864484D02*
X10860539Y-14864484D01*
X10860539Y-14864484D02*
X10841491Y-14854960D01*
X10841491Y-14854960D02*
X10831967Y-14845436D01*
X10831967Y-14845436D02*
X10822444Y-14826388D01*
X10822444Y-14826388D02*
X10812920Y-14788293D01*
X10812920Y-14788293D02*
X10812920Y-14740674D01*
X10812920Y-14740674D02*
X10822444Y-14702579D01*
X10822444Y-14702579D02*
X10831967Y-14683531D01*
X10831967Y-14683531D02*
X10841491Y-14674008D01*
X10841491Y-14674008D02*
X10860539Y-14664484D01*
X11012920Y-14864484D02*
X11012920Y-14731150D01*
X11012920Y-14750198D02*
X11022444Y-14740674D01*
X11022444Y-14740674D02*
X11041491Y-14731150D01*
X11041491Y-14731150D02*
X11070063Y-14731150D01*
X11070063Y-14731150D02*
X11089110Y-14740674D01*
X11089110Y-14740674D02*
X11098634Y-14759722D01*
X11098634Y-14759722D02*
X11098634Y-14864484D01*
X11098634Y-14759722D02*
X11108158Y-14740674D01*
X11108158Y-14740674D02*
X11127205Y-14731150D01*
X11127205Y-14731150D02*
X11155777Y-14731150D01*
X11155777Y-14731150D02*
X11174825Y-14740674D01*
X11174825Y-14740674D02*
X11184348Y-14759722D01*
X11184348Y-14759722D02*
X11184348Y-14864484D01*
X11279586Y-14864484D02*
X11279586Y-14731150D01*
X11279586Y-14750198D02*
X11289110Y-14740674D01*
X11289110Y-14740674D02*
X11308158Y-14731150D01*
X11308158Y-14731150D02*
X11336729Y-14731150D01*
X11336729Y-14731150D02*
X11355777Y-14740674D01*
X11355777Y-14740674D02*
X11365301Y-14759722D01*
X11365301Y-14759722D02*
X11365301Y-14864484D01*
X11365301Y-14759722D02*
X11374824Y-14740674D01*
X11374824Y-14740674D02*
X11393872Y-14731150D01*
X11393872Y-14731150D02*
X11422443Y-14731150D01*
X11422443Y-14731150D02*
X11441491Y-14740674D01*
X11441491Y-14740674D02*
X11451015Y-14759722D01*
X11451015Y-14759722D02*
X11451015Y-14864484D01*
X11841491Y-14654960D02*
X11670063Y-14912103D01*
X12098634Y-14664484D02*
X12117682Y-14664484D01*
X12117682Y-14664484D02*
X12136729Y-14674008D01*
X12136729Y-14674008D02*
X12146253Y-14683531D01*
X12146253Y-14683531D02*
X12155777Y-14702579D01*
X12155777Y-14702579D02*
X12165301Y-14740674D01*
X12165301Y-14740674D02*
X12165301Y-14788293D01*
X12165301Y-14788293D02*
X12155777Y-14826388D01*
X12155777Y-14826388D02*
X12146253Y-14845436D01*
X12146253Y-14845436D02*
X12136729Y-14854960D01*
X12136729Y-14854960D02*
X12117682Y-14864484D01*
X12117682Y-14864484D02*
X12098634Y-14864484D01*
X12098634Y-14864484D02*
X12079586Y-14854960D01*
X12079586Y-14854960D02*
X12070063Y-14845436D01*
X12070063Y-14845436D02*
X12060539Y-14826388D01*
X12060539Y-14826388D02*
X12051015Y-14788293D01*
X12051015Y-14788293D02*
X12051015Y-14740674D01*
X12051015Y-14740674D02*
X12060539Y-14702579D01*
X12060539Y-14702579D02*
X12070063Y-14683531D01*
X12070063Y-14683531D02*
X12079586Y-14674008D01*
X12079586Y-14674008D02*
X12098634Y-14664484D01*
X12251015Y-14845436D02*
X12260539Y-14854960D01*
X12260539Y-14854960D02*
X12251015Y-14864484D01*
X12251015Y-14864484D02*
X12241491Y-14854960D01*
X12241491Y-14854960D02*
X12251015Y-14845436D01*
X12251015Y-14845436D02*
X12251015Y-14864484D01*
X12451015Y-14864484D02*
X12336729Y-14864484D01*
X12393872Y-14864484D02*
X12393872Y-14664484D01*
X12393872Y-14664484D02*
X12374825Y-14693055D01*
X12374825Y-14693055D02*
X12355777Y-14712103D01*
X12355777Y-14712103D02*
X12336729Y-14721627D01*
X12527206Y-14683531D02*
X12536729Y-14674008D01*
X12536729Y-14674008D02*
X12555777Y-14664484D01*
X12555777Y-14664484D02*
X12603396Y-14664484D01*
X12603396Y-14664484D02*
X12622444Y-14674008D01*
X12622444Y-14674008D02*
X12631967Y-14683531D01*
X12631967Y-14683531D02*
X12641491Y-14702579D01*
X12641491Y-14702579D02*
X12641491Y-14721627D01*
X12641491Y-14721627D02*
X12631967Y-14750198D01*
X12631967Y-14750198D02*
X12517682Y-14864484D01*
X12517682Y-14864484D02*
X12641491Y-14864484D01*
X12812920Y-14664484D02*
X12774825Y-14664484D01*
X12774825Y-14664484D02*
X12755777Y-14674008D01*
X12755777Y-14674008D02*
X12746253Y-14683531D01*
X12746253Y-14683531D02*
X12727206Y-14712103D01*
X12727206Y-14712103D02*
X12717682Y-14750198D01*
X12717682Y-14750198D02*
X12717682Y-14826388D01*
X12717682Y-14826388D02*
X12727206Y-14845436D01*
X12727206Y-14845436D02*
X12736729Y-14854960D01*
X12736729Y-14854960D02*
X12755777Y-14864484D01*
X12755777Y-14864484D02*
X12793872Y-14864484D01*
X12793872Y-14864484D02*
X12812920Y-14854960D01*
X12812920Y-14854960D02*
X12822444Y-14845436D01*
X12822444Y-14845436D02*
X12831967Y-14826388D01*
X12831967Y-14826388D02*
X12831967Y-14778769D01*
X12831967Y-14778769D02*
X12822444Y-14759722D01*
X12822444Y-14759722D02*
X12812920Y-14750198D01*
X12812920Y-14750198D02*
X12793872Y-14740674D01*
X12793872Y-14740674D02*
X12755777Y-14740674D01*
X12755777Y-14740674D02*
X12736729Y-14750198D01*
X12736729Y-14750198D02*
X12727206Y-14759722D01*
X12727206Y-14759722D02*
X12717682Y-14778769D01*
X12955777Y-14664484D02*
X12974825Y-14664484D01*
X12974825Y-14664484D02*
X12993872Y-14674008D01*
X12993872Y-14674008D02*
X13003396Y-14683531D01*
X13003396Y-14683531D02*
X13012920Y-14702579D01*
X13012920Y-14702579D02*
X13022444Y-14740674D01*
X13022444Y-14740674D02*
X13022444Y-14788293D01*
X13022444Y-14788293D02*
X13012920Y-14826388D01*
X13012920Y-14826388D02*
X13003396Y-14845436D01*
X13003396Y-14845436D02*
X12993872Y-14854960D01*
X12993872Y-14854960D02*
X12974825Y-14864484D01*
X12974825Y-14864484D02*
X12955777Y-14864484D01*
X12955777Y-14864484D02*
X12936729Y-14854960D01*
X12936729Y-14854960D02*
X12927206Y-14845436D01*
X12927206Y-14845436D02*
X12917682Y-14826388D01*
X12917682Y-14826388D02*
X12908158Y-14788293D01*
X12908158Y-14788293D02*
X12908158Y-14740674D01*
X12908158Y-14740674D02*
X12917682Y-14702579D01*
X12917682Y-14702579D02*
X12927206Y-14683531D01*
X12927206Y-14683531D02*
X12936729Y-14674008D01*
X12936729Y-14674008D02*
X12955777Y-14664484D01*
X13098634Y-14664484D02*
X13098634Y-14702579D01*
X13174825Y-14664484D02*
X13174825Y-14702579D01*
X13470063Y-14940674D02*
X13460539Y-14931150D01*
X13460539Y-14931150D02*
X13441491Y-14902579D01*
X13441491Y-14902579D02*
X13431968Y-14883531D01*
X13431968Y-14883531D02*
X13422444Y-14854960D01*
X13422444Y-14854960D02*
X13412920Y-14807341D01*
X13412920Y-14807341D02*
X13412920Y-14769246D01*
X13412920Y-14769246D02*
X13422444Y-14721627D01*
X13422444Y-14721627D02*
X13431968Y-14693055D01*
X13431968Y-14693055D02*
X13441491Y-14674008D01*
X13441491Y-14674008D02*
X13460539Y-14645436D01*
X13460539Y-14645436D02*
X13470063Y-14635912D01*
X13631968Y-14731150D02*
X13631968Y-14864484D01*
X13584348Y-14654960D02*
X13536729Y-14797817D01*
X13536729Y-14797817D02*
X13660539Y-14797817D01*
X13889110Y-14864484D02*
X13889110Y-14664484D01*
X13974825Y-14864484D02*
X13974825Y-14759722D01*
X13974825Y-14759722D02*
X13965301Y-14740674D01*
X13965301Y-14740674D02*
X13946253Y-14731150D01*
X13946253Y-14731150D02*
X13917682Y-14731150D01*
X13917682Y-14731150D02*
X13898634Y-14740674D01*
X13898634Y-14740674D02*
X13889110Y-14750198D01*
X14098634Y-14864484D02*
X14079587Y-14854960D01*
X14079587Y-14854960D02*
X14070063Y-14845436D01*
X14070063Y-14845436D02*
X14060539Y-14826388D01*
X14060539Y-14826388D02*
X14060539Y-14769246D01*
X14060539Y-14769246D02*
X14070063Y-14750198D01*
X14070063Y-14750198D02*
X14079587Y-14740674D01*
X14079587Y-14740674D02*
X14098634Y-14731150D01*
X14098634Y-14731150D02*
X14127206Y-14731150D01*
X14127206Y-14731150D02*
X14146253Y-14740674D01*
X14146253Y-14740674D02*
X14155777Y-14750198D01*
X14155777Y-14750198D02*
X14165301Y-14769246D01*
X14165301Y-14769246D02*
X14165301Y-14826388D01*
X14165301Y-14826388D02*
X14155777Y-14845436D01*
X14155777Y-14845436D02*
X14146253Y-14854960D01*
X14146253Y-14854960D02*
X14127206Y-14864484D01*
X14127206Y-14864484D02*
X14098634Y-14864484D01*
X14279587Y-14864484D02*
X14260539Y-14854960D01*
X14260539Y-14854960D02*
X14251015Y-14835912D01*
X14251015Y-14835912D02*
X14251015Y-14664484D01*
X14431968Y-14854960D02*
X14412920Y-14864484D01*
X14412920Y-14864484D02*
X14374825Y-14864484D01*
X14374825Y-14864484D02*
X14355777Y-14854960D01*
X14355777Y-14854960D02*
X14346253Y-14835912D01*
X14346253Y-14835912D02*
X14346253Y-14759722D01*
X14346253Y-14759722D02*
X14355777Y-14740674D01*
X14355777Y-14740674D02*
X14374825Y-14731150D01*
X14374825Y-14731150D02*
X14412920Y-14731150D01*
X14412920Y-14731150D02*
X14431968Y-14740674D01*
X14431968Y-14740674D02*
X14441491Y-14759722D01*
X14441491Y-14759722D02*
X14441491Y-14778769D01*
X14441491Y-14778769D02*
X14346253Y-14797817D01*
X14517682Y-14854960D02*
X14536730Y-14864484D01*
X14536730Y-14864484D02*
X14574825Y-14864484D01*
X14574825Y-14864484D02*
X14593872Y-14854960D01*
X14593872Y-14854960D02*
X14603396Y-14835912D01*
X14603396Y-14835912D02*
X14603396Y-14826388D01*
X14603396Y-14826388D02*
X14593872Y-14807341D01*
X14593872Y-14807341D02*
X14574825Y-14797817D01*
X14574825Y-14797817D02*
X14546253Y-14797817D01*
X14546253Y-14797817D02*
X14527206Y-14788293D01*
X14527206Y-14788293D02*
X14517682Y-14769246D01*
X14517682Y-14769246D02*
X14517682Y-14759722D01*
X14517682Y-14759722D02*
X14527206Y-14740674D01*
X14527206Y-14740674D02*
X14546253Y-14731150D01*
X14546253Y-14731150D02*
X14574825Y-14731150D01*
X14574825Y-14731150D02*
X14593872Y-14740674D01*
X14670063Y-14940674D02*
X14679587Y-14931150D01*
X14679587Y-14931150D02*
X14698634Y-14902579D01*
X14698634Y-14902579D02*
X14708158Y-14883531D01*
X14708158Y-14883531D02*
X14717682Y-14854960D01*
X14717682Y-14854960D02*
X14727206Y-14807341D01*
X14727206Y-14807341D02*
X14727206Y-14769246D01*
X14727206Y-14769246D02*
X14717682Y-14721627D01*
X14717682Y-14721627D02*
X14708158Y-14693055D01*
X14708158Y-14693055D02*
X14698634Y-14674008D01*
X14698634Y-14674008D02*
X14679587Y-14645436D01*
X14679587Y-14645436D02*
X14670063Y-14635912D01*
X15031968Y-14940674D02*
X15022444Y-14931150D01*
X15022444Y-14931150D02*
X15003396Y-14902579D01*
X15003396Y-14902579D02*
X14993872Y-14883531D01*
X14993872Y-14883531D02*
X14984349Y-14854960D01*
X14984349Y-14854960D02*
X14974825Y-14807341D01*
X14974825Y-14807341D02*
X14974825Y-14769246D01*
X14974825Y-14769246D02*
X14984349Y-14721627D01*
X14984349Y-14721627D02*
X14993872Y-14693055D01*
X14993872Y-14693055D02*
X15003396Y-14674008D01*
X15003396Y-14674008D02*
X15022444Y-14645436D01*
X15022444Y-14645436D02*
X15031968Y-14635912D01*
X15108158Y-14731150D02*
X15108158Y-14864484D01*
X15108158Y-14750198D02*
X15117682Y-14740674D01*
X15117682Y-14740674D02*
X15136730Y-14731150D01*
X15136730Y-14731150D02*
X15165301Y-14731150D01*
X15165301Y-14731150D02*
X15184349Y-14740674D01*
X15184349Y-14740674D02*
X15193872Y-14759722D01*
X15193872Y-14759722D02*
X15193872Y-14864484D01*
X15317682Y-14864484D02*
X15298634Y-14854960D01*
X15298634Y-14854960D02*
X15289111Y-14845436D01*
X15289111Y-14845436D02*
X15279587Y-14826388D01*
X15279587Y-14826388D02*
X15279587Y-14769246D01*
X15279587Y-14769246D02*
X15289111Y-14750198D01*
X15289111Y-14750198D02*
X15298634Y-14740674D01*
X15298634Y-14740674D02*
X15317682Y-14731150D01*
X15317682Y-14731150D02*
X15346253Y-14731150D01*
X15346253Y-14731150D02*
X15365301Y-14740674D01*
X15365301Y-14740674D02*
X15374825Y-14750198D01*
X15374825Y-14750198D02*
X15384349Y-14769246D01*
X15384349Y-14769246D02*
X15384349Y-14826388D01*
X15384349Y-14826388D02*
X15374825Y-14845436D01*
X15374825Y-14845436D02*
X15365301Y-14854960D01*
X15365301Y-14854960D02*
X15346253Y-14864484D01*
X15346253Y-14864484D02*
X15317682Y-14864484D01*
X15441492Y-14731150D02*
X15517682Y-14731150D01*
X15470063Y-14664484D02*
X15470063Y-14835912D01*
X15470063Y-14835912D02*
X15479587Y-14854960D01*
X15479587Y-14854960D02*
X15498634Y-14864484D01*
X15498634Y-14864484D02*
X15517682Y-14864484D01*
X15736730Y-14731150D02*
X15736730Y-14931150D01*
X15736730Y-14740674D02*
X15755777Y-14731150D01*
X15755777Y-14731150D02*
X15793873Y-14731150D01*
X15793873Y-14731150D02*
X15812920Y-14740674D01*
X15812920Y-14740674D02*
X15822444Y-14750198D01*
X15822444Y-14750198D02*
X15831968Y-14769246D01*
X15831968Y-14769246D02*
X15831968Y-14826388D01*
X15831968Y-14826388D02*
X15822444Y-14845436D01*
X15822444Y-14845436D02*
X15812920Y-14854960D01*
X15812920Y-14854960D02*
X15793873Y-14864484D01*
X15793873Y-14864484D02*
X15755777Y-14864484D01*
X15755777Y-14864484D02*
X15736730Y-14854960D01*
X15946253Y-14864484D02*
X15927206Y-14854960D01*
X15927206Y-14854960D02*
X15917682Y-14835912D01*
X15917682Y-14835912D02*
X15917682Y-14664484D01*
X16108158Y-14864484D02*
X16108158Y-14759722D01*
X16108158Y-14759722D02*
X16098634Y-14740674D01*
X16098634Y-14740674D02*
X16079587Y-14731150D01*
X16079587Y-14731150D02*
X16041492Y-14731150D01*
X16041492Y-14731150D02*
X16022444Y-14740674D01*
X16108158Y-14854960D02*
X16089111Y-14864484D01*
X16089111Y-14864484D02*
X16041492Y-14864484D01*
X16041492Y-14864484D02*
X16022444Y-14854960D01*
X16022444Y-14854960D02*
X16012920Y-14835912D01*
X16012920Y-14835912D02*
X16012920Y-14816865D01*
X16012920Y-14816865D02*
X16022444Y-14797817D01*
X16022444Y-14797817D02*
X16041492Y-14788293D01*
X16041492Y-14788293D02*
X16089111Y-14788293D01*
X16089111Y-14788293D02*
X16108158Y-14778769D01*
X16174825Y-14731150D02*
X16251015Y-14731150D01*
X16203396Y-14664484D02*
X16203396Y-14835912D01*
X16203396Y-14835912D02*
X16212920Y-14854960D01*
X16212920Y-14854960D02*
X16231968Y-14864484D01*
X16231968Y-14864484D02*
X16251015Y-14864484D01*
X16393873Y-14854960D02*
X16374825Y-14864484D01*
X16374825Y-14864484D02*
X16336730Y-14864484D01*
X16336730Y-14864484D02*
X16317682Y-14854960D01*
X16317682Y-14854960D02*
X16308158Y-14835912D01*
X16308158Y-14835912D02*
X16308158Y-14759722D01*
X16308158Y-14759722D02*
X16317682Y-14740674D01*
X16317682Y-14740674D02*
X16336730Y-14731150D01*
X16336730Y-14731150D02*
X16374825Y-14731150D01*
X16374825Y-14731150D02*
X16393873Y-14740674D01*
X16393873Y-14740674D02*
X16403396Y-14759722D01*
X16403396Y-14759722D02*
X16403396Y-14778769D01*
X16403396Y-14778769D02*
X16308158Y-14797817D01*
X16574825Y-14864484D02*
X16574825Y-14664484D01*
X16574825Y-14854960D02*
X16555777Y-14864484D01*
X16555777Y-14864484D02*
X16517682Y-14864484D01*
X16517682Y-14864484D02*
X16498634Y-14854960D01*
X16498634Y-14854960D02*
X16489111Y-14845436D01*
X16489111Y-14845436D02*
X16479587Y-14826388D01*
X16479587Y-14826388D02*
X16479587Y-14769246D01*
X16479587Y-14769246D02*
X16489111Y-14750198D01*
X16489111Y-14750198D02*
X16498634Y-14740674D01*
X16498634Y-14740674D02*
X16517682Y-14731150D01*
X16517682Y-14731150D02*
X16555777Y-14731150D01*
X16555777Y-14731150D02*
X16574825Y-14740674D01*
X16651015Y-14940674D02*
X16660539Y-14931150D01*
X16660539Y-14931150D02*
X16679587Y-14902579D01*
X16679587Y-14902579D02*
X16689111Y-14883531D01*
X16689111Y-14883531D02*
X16698634Y-14854960D01*
X16698634Y-14854960D02*
X16708158Y-14807341D01*
X16708158Y-14807341D02*
X16708158Y-14769246D01*
X16708158Y-14769246D02*
X16698634Y-14721627D01*
X16698634Y-14721627D02*
X16689111Y-14693055D01*
X16689111Y-14693055D02*
X16679587Y-14674008D01*
X16679587Y-14674008D02*
X16660539Y-14645436D01*
X16660539Y-14645436D02*
X16651015Y-14635912D01*
M02*
