  0
SECTION
  2
HEADER
  9
$ANGBASE
  50
0.0
  9
$ANGDIR
  70
1
  9
$MEASUREMENT
  70
1
  0
ENDSEC
  0
SECTION
  2
TABLES
  0
TABLE
  2
LTYPE
  70
4
  0
LTYPE
  5
40F
  2
CONTINUOUS
  70
0
  3
Solid line
  72
65
  73
0
  40
0.0
  0
LTYPE
  5
410
  2
DASHDOT
 70
0
  3
Dash Dot ____ _ ____ _
 72
65
 73
4
 40
2.0
 49
1.25
 49
-0.25
 49
0.25
 49
-0.25
  0
LTYPE
  5
411
  2
DASHED
 70
0
  3
Dashed __ __ __ __ __
 72
65
 73
2
 40
0.75
 49
0.5
 49
-0.25
  0
LTYPE
  5
43B
  2
DOTTED
 70
0
  3
Dotted .  .  .  .
 72
65
 73
2
 40
0.2
 49
0.0
 49
-0.2
  0
ENDTAB
  0
TABLE
  2
STYLE
  70
4
  0
STYLE
  2
KICAD
  70
0
  40
0
  41
1
  42
1
  50
0
  71
0
  3
isocp.shx
  0
STYLE
  2
KICADB
  70
0
  40
0
  41
1
  42
1
  50
0
  71
0
  3
isocp.shx
  0
STYLE
  2
KICADI
  70
0
  40
0
  41
1
  42
1
  50
15
  71
0
  3
isocp.shx
  0
STYLE
  2
KICADBI
  70
0
  40
0
  41
1
  42
1
  50
15
  71
0
  3
isocp.shx
  0
ENDTAB
  0
TABLE
  2
LAYER
  70
1
  0
LAYER
  2
BLACK
  70
0
  62
7
  6
CONTINUOUS
  0
ENDTAB
  0
ENDSEC
  0
SECTION
  2
ENTITIES
0
LINE
8
BLACK
6
CONTINUOUS
10
147.453
20
-91.3786
11
147.538
21
-91.384
0
LINE
8
BLACK
6
CONTINUOUS
10
147.538
20
-91.384
11
147.588
21
-91.3898
0
LINE
8
BLACK
6
CONTINUOUS
10
147.588
20
-91.3898
11
147.711
21
-91.4144
0
LINE
8
BLACK
6
CONTINUOUS
10
147.711
20
-91.4144
11
147.831
21
-91.4508
0
LINE
8
BLACK
6
CONTINUOUS
10
147.831
20
-91.4508
11
147.944
21
-91.4977
0
LINE
8
BLACK
6
CONTINUOUS
10
147.944
20
-91.4977
11
148.047
21
-91.5535
0
LINE
8
BLACK
6
CONTINUOUS
10
148.047
20
-91.5535
11
148.138
21
-91.617
0
LINE
8
BLACK
6
CONTINUOUS
10
148.138
20
-91.617
11
148.214
21
-91.6866
0
LINE
8
BLACK
6
CONTINUOUS
10
148.214
20
-91.6866
11
148.242
21
-91.7184
0
LINE
8
BLACK
6
CONTINUOUS
10
148.242
20
-91.7184
11
148.272
21
-91.762
0
LINE
8
BLACK
6
CONTINUOUS
10
148.272
20
-91.762
11
148.306
21
-91.8205
0
LINE
8
BLACK
6
CONTINUOUS
10
148.306
20
-91.8205
11
148.342
21
-91.8898
0
LINE
8
BLACK
6
CONTINUOUS
10
148.342
20
-91.8898
11
148.378
21
-91.9662
0
LINE
8
BLACK
6
CONTINUOUS
10
148.378
20
-91.9662
11
148.412
21
-92.0454
0
LINE
8
BLACK
6
CONTINUOUS
10
148.412
20
-92.0454
11
148.443
21
-92.1236
0
LINE
8
BLACK
6
CONTINUOUS
10
148.443
20
-92.1236
11
148.468
21
-92.1967
0
LINE
8
BLACK
6
CONTINUOUS
10
148.468
20
-92.1967
11
148.483
21
-92.2493
0
LINE
8
BLACK
6
CONTINUOUS
10
148.483
20
-92.2493
11
148.492
21
-92.2731
0
LINE
8
BLACK
6
CONTINUOUS
10
148.492
20
-92.2731
11
148.507
21
-92.2994
0
LINE
8
BLACK
6
CONTINUOUS
10
148.507
20
-92.2994
11
148.533
21
-92.3313
0
LINE
8
BLACK
6
CONTINUOUS
10
148.533
20
-92.3313
11
148.57
21
-92.3723
0
LINE
8
BLACK
6
CONTINUOUS
10
148.57
20
-92.3723
11
148.577
21
-92.3802
0
LINE
8
BLACK
6
CONTINUOUS
10
148.577
20
-92.3802
11
148.636
21
-92.4449
0
LINE
8
BLACK
6
CONTINUOUS
10
148.636
20
-92.4449
11
148.683
21
-92.5015
0
LINE
8
BLACK
6
CONTINUOUS
10
148.683
20
-92.5015
11
148.721
21
-92.5546
0
LINE
8
BLACK
6
CONTINUOUS
10
148.721
20
-92.5546
11
148.753
21
-92.6084
0
LINE
8
BLACK
6
CONTINUOUS
10
148.753
20
-92.6084
11
148.782
21
-92.6674
0
LINE
8
BLACK
6
CONTINUOUS
10
148.782
20
-92.6674
11
148.787
21
-92.6781
0
LINE
8
BLACK
6
CONTINUOUS
10
148.787
20
-92.6781
11
148.836
21
-92.8053
0
LINE
8
BLACK
6
CONTINUOUS
10
148.836
20
-92.8053
11
148.867
21
-92.924
0
LINE
8
BLACK
6
CONTINUOUS
10
148.867
20
-92.924
11
148.881
21
-93.0346
0
LINE
8
BLACK
6
CONTINUOUS
10
148.881
20
-93.0346
11
148.878
21
-93.1376
0
LINE
8
BLACK
6
CONTINUOUS
10
148.878
20
-93.1376
11
148.857
21
-93.2335
0
LINE
8
BLACK
6
CONTINUOUS
10
148.857
20
-93.2335
11
148.83
21
-93.3023
0
LINE
8
BLACK
6
CONTINUOUS
10
148.83
20
-93.3023
11
148.801
21
-93.351
0
LINE
8
BLACK
6
CONTINUOUS
10
148.801
20
-93.351
11
148.76
21
-93.4053
0
LINE
8
BLACK
6
CONTINUOUS
10
148.76
20
-93.4053
11
148.711
21
-93.4603
0
LINE
8
BLACK
6
CONTINUOUS
10
148.711
20
-93.4603
11
148.659
21
-93.5108
0
LINE
8
BLACK
6
CONTINUOUS
10
148.659
20
-93.5108
11
148.617
21
-93.546
0
LINE
8
BLACK
6
CONTINUOUS
10
148.617
20
-93.546
11
148.589
21
-93.5668
0
LINE
8
BLACK
6
CONTINUOUS
10
148.589
20
-93.5668
11
148.604
21
-93.6877
0
LINE
8
BLACK
6
CONTINUOUS
10
148.604
20
-93.6877
11
148.616
21
-93.7883
0
LINE
8
BLACK
6
CONTINUOUS
10
148.616
20
-93.7883
11
148.625
21
-93.8946
0
LINE
8
BLACK
6
CONTINUOUS
10
148.625
20
-93.8946
11
148.631
21
-94.0092
0
LINE
8
BLACK
6
CONTINUOUS
10
148.631
20
-94.0092
11
148.636
21
-94.1349
0
LINE
8
BLACK
6
CONTINUOUS
10
148.636
20
-94.1349
11
148.639
21
-94.2745
0
LINE
8
BLACK
6
CONTINUOUS
10
148.639
20
-94.2745
11
148.64
21
-94.4306
0
LINE
8
BLACK
6
CONTINUOUS
10
148.64
20
-94.4306
11
148.64
21
-94.4443
0
LINE
8
BLACK
6
CONTINUOUS
10
148.64
20
-94.4443
11
148.637
21
-94.6768
0
LINE
8
BLACK
6
CONTINUOUS
10
148.637
20
-94.6768
11
148.627
21
-94.8909
0
LINE
8
BLACK
6
CONTINUOUS
10
148.627
20
-94.8909
11
148.612
21
-95.087
0
LINE
8
BLACK
6
CONTINUOUS
10
148.612
20
-95.087
11
148.591
21
-95.2653
0
LINE
8
BLACK
6
CONTINUOUS
10
148.591
20
-95.2653
11
148.563
21
-95.4261
0
LINE
8
BLACK
6
CONTINUOUS
10
148.563
20
-95.4261
11
148.529
21
-95.5697
0
LINE
8
BLACK
6
CONTINUOUS
10
148.529
20
-95.5697
11
148.505
21
-95.6467
0
LINE
8
BLACK
6
CONTINUOUS
10
148.505
20
-95.6467
11
148.477
21
-95.7246
0
LINE
8
BLACK
6
CONTINUOUS
10
148.477
20
-95.7246
11
148.448
21
-95.7865
0
LINE
8
BLACK
6
CONTINUOUS
10
148.448
20
-95.7865
11
148.415
21
-95.8359
0
LINE
8
BLACK
6
CONTINUOUS
10
148.415
20
-95.8359
11
148.376
21
-95.8765
0
LINE
8
BLACK
6
CONTINUOUS
10
148.376
20
-95.8765
11
148.326
21
-95.9117
0
LINE
8
BLACK
6
CONTINUOUS
10
148.326
20
-95.9117
11
148.264
21
-95.9452
0
LINE
8
BLACK
6
CONTINUOUS
10
148.264
20
-95.9452
11
148.258
21
-95.9479
0
LINE
8
BLACK
6
CONTINUOUS
10
148.258
20
-95.9479
11
148.198
21
-95.9741
0
LINE
8
BLACK
6
CONTINUOUS
10
148.198
20
-95.9741
11
148.138
21
-95.9934
0
LINE
8
BLACK
6
CONTINUOUS
10
148.138
20
-95.9934
11
148.075
21
-96.0067
0
LINE
8
BLACK
6
CONTINUOUS
10
148.075
20
-96.0067
11
148.003
21
-96.0148
0
LINE
8
BLACK
6
CONTINUOUS
10
148.003
20
-96.0148
11
147.919
21
-96.0185
0
LINE
8
BLACK
6
CONTINUOUS
10
147.919
20
-96.0185
11
147.873
21
-96.019
0
LINE
8
BLACK
6
CONTINUOUS
10
147.873
20
-96.019
11
147.788
21
-96.0176
0
LINE
8
BLACK
6
CONTINUOUS
10
147.788
20
-96.0176
11
147.718
21
-96.0126
0
LINE
8
BLACK
6
CONTINUOUS
10
147.718
20
-96.0126
11
147.658
21
-96.0028
0
LINE
8
BLACK
6
CONTINUOUS
10
147.658
20
-96.0028
11
147.606
21
-95.987
0
LINE
8
BLACK
6
CONTINUOUS
10
147.606
20
-95.987
11
147.556
21
-95.9643
0
LINE
8
BLACK
6
CONTINUOUS
10
147.556
20
-95.9643
11
147.504
21
-95.9336
0
LINE
8
BLACK
6
CONTINUOUS
10
147.504
20
-95.9336
11
147.484
21
-95.9204
0
LINE
8
BLACK
6
CONTINUOUS
10
147.484
20
-95.9204
11
147.455
21
-95.8977
0
LINE
8
BLACK
6
CONTINUOUS
10
147.455
20
-95.8977
11
147.431
21
-95.8713
0
LINE
8
BLACK
6
CONTINUOUS
10
147.431
20
-95.8713
11
147.407
21
-95.8354
0
LINE
8
BLACK
6
CONTINUOUS
10
147.407
20
-95.8354
11
147.393
21
-95.8092
0
LINE
8
BLACK
6
CONTINUOUS
10
147.393
20
-95.8092
11
147.344
21
-95.7081
0
LINE
8
BLACK
6
CONTINUOUS
10
147.344
20
-95.7081
11
147.311
21
-95.6126
0
LINE
8
BLACK
6
CONTINUOUS
10
147.311
20
-95.6126
11
147.292
21
-95.518
0
LINE
8
BLACK
6
CONTINUOUS
10
147.292
20
-95.518
11
147.286
21
-95.4527
0
LINE
8
BLACK
6
CONTINUOUS
10
147.286
20
-95.4527
11
147.28
21
-95.3469
0
LINE
8
BLACK
6
CONTINUOUS
10
147.28
20
-95.3469
11
147.228
21
-95.3469
0
LINE
8
BLACK
6
CONTINUOUS
10
147.228
20
-95.3469
11
147.197
21
-95.3477
0
LINE
8
BLACK
6
CONTINUOUS
10
147.197
20
-95.3477
11
147.181
21
-95.3514
0
LINE
8
BLACK
6
CONTINUOUS
10
147.181
20
-95.3514
11
147.176
21
-95.3601
0
LINE
8
BLACK
6
CONTINUOUS
10
147.176
20
-95.3601
11
147.175
21
-95.369
0
LINE
8
BLACK
6
CONTINUOUS
10
147.175
20
-95.369
11
147.174
21
-95.3853
0
LINE
8
BLACK
6
CONTINUOUS
10
147.174
20
-95.3853
11
147.173
21
-95.4178
0
LINE
8
BLACK
6
CONTINUOUS
10
147.173
20
-95.4178
11
147.171
21
-95.4634
0
LINE
8
BLACK
6
CONTINUOUS
10
147.171
20
-95.4634
11
147.169
21
-95.5187
0
LINE
8
BLACK
6
CONTINUOUS
10
147.169
20
-95.5187
11
147.166
21
-95.5804
0
LINE
8
BLACK
6
CONTINUOUS
10
147.166
20
-95.5804
11
147.165
21
-95.5958
0
LINE
8
BLACK
6
CONTINUOUS
10
147.165
20
-95.5958
11
147.158
21
-95.7121
0
LINE
8
BLACK
6
CONTINUOUS
10
147.158
20
-95.7121
11
147.148
21
-95.8114
0
LINE
8
BLACK
6
CONTINUOUS
10
147.148
20
-95.8114
11
147.136
21
-95.896
0
LINE
8
BLACK
6
CONTINUOUS
10
147.136
20
-95.896
11
147.119
21
-95.9683
0
LINE
8
BLACK
6
CONTINUOUS
10
147.119
20
-95.9683
11
147.099
21
-96.031
0
LINE
8
BLACK
6
CONTINUOUS
10
147.099
20
-96.031
11
147.083
21
-96.0703
0
LINE
8
BLACK
6
CONTINUOUS
10
147.083
20
-96.0703
11
147.051
21
-96.1286
0
LINE
8
BLACK
6
CONTINUOUS
10
147.051
20
-96.1286
11
147.017
21
-96.1711
0
LINE
8
BLACK
6
CONTINUOUS
10
147.017
20
-96.1711
11
146.978
21
-96.2017
0
LINE
8
BLACK
6
CONTINUOUS
10
146.978
20
-96.2017
11
146.927
21
-96.2242
0
LINE
8
BLACK
6
CONTINUOUS
10
146.927
20
-96.2242
11
146.914
21
-96.2285
0
LINE
8
BLACK
6
CONTINUOUS
10
146.914
20
-96.2285
11
146.866
21
-96.2427
0
LINE
8
BLACK
6
CONTINUOUS
10
146.866
20
-96.2427
11
146.82
21
-96.2535
0
LINE
8
BLACK
6
CONTINUOUS
10
146.82
20
-96.2535
11
146.774
21
-96.2611
0
LINE
8
BLACK
6
CONTINUOUS
10
146.774
20
-96.2611
11
146.722
21
-96.2662
0
LINE
8
BLACK
6
CONTINUOUS
10
146.722
20
-96.2662
11
146.707
21
-96.2669
0
LINE
8
BLACK
6
CONTINUOUS
10
146.707
20
-96.2669
11
146.707
21
-96.8218
0
LINE
8
BLACK
6
CONTINUOUS
10
146.707
20
-96.8218
11
146.918
21
-96.8218
0
LINE
8
BLACK
6
CONTINUOUS
10
146.918
20
-96.8218
11
146.943
21
-96.8263
0
LINE
8
BLACK
6
CONTINUOUS
10
146.943
20
-96.8263
11
146.982
21
-96.8593
0
LINE
8
BLACK
6
CONTINUOUS
10
146.982
20
-96.8593
11
146.991
21
-96.9098
0
LINE
8
BLACK
6
CONTINUOUS
10
146.991
20
-96.9098
11
146.966
21
-96.9543
0
LINE
8
BLACK
6
CONTINUOUS
10
146.966
20
-96.9543
11
146.918
21
-96.9718
0
LINE
8
BLACK
6
CONTINUOUS
10
146.918
20
-96.9718
11
146.346
21
-96.9718
0
LINE
8
BLACK
6
CONTINUOUS
10
146.346
20
-96.9718
11
146.32
21
-96.9673
0
LINE
8
BLACK
6
CONTINUOUS
10
146.32
20
-96.9673
11
146.281
21
-96.9343
0
LINE
8
BLACK
6
CONTINUOUS
10
146.281
20
-96.9343
11
146.272
21
-96.8838
0
LINE
8
BLACK
6
CONTINUOUS
10
146.272
20
-96.8838
11
146.298
21
-96.8394
0
LINE
8
BLACK
6
CONTINUOUS
10
146.298
20
-96.8394
11
146.346
21
-96.8218
0
LINE
8
BLACK
6
CONTINUOUS
10
146.346
20
-96.8218
11
146.557
21
-96.8218
0
LINE
8
BLACK
6
CONTINUOUS
10
146.557
20
-96.8218
11
146.557
21
-96.2704
0
LINE
8
BLACK
6
CONTINUOUS
10
146.557
20
-96.2704
11
146.532
21
-96.2704
0
LINE
8
BLACK
6
CONTINUOUS
10
146.532
20
-96.2704
11
146.459
21
-96.2699
0
LINE
8
BLACK
6
CONTINUOUS
10
146.459
20
-96.2699
11
146.402
21
-96.2686
0
LINE
8
BLACK
6
CONTINUOUS
10
146.402
20
-96.2686
11
146.357
21
-96.2662
0
LINE
8
BLACK
6
CONTINUOUS
10
146.357
20
-96.2662
11
146.321
21
-96.2625
0
LINE
8
BLACK
6
CONTINUOUS
10
146.321
20
-96.2625
11
146.29
21
-96.2573
0
LINE
8
BLACK
6
CONTINUOUS
10
146.29
20
-96.2573
11
146.261
21
-96.2506
0
LINE
8
BLACK
6
CONTINUOUS
10
146.261
20
-96.2506
11
146.178
21
-96.2219
0
LINE
8
BLACK
6
CONTINUOUS
10
146.178
20
-96.2219
11
146.108
21
-96.1819
0
LINE
8
BLACK
6
CONTINUOUS
10
146.108
20
-96.1819
11
146.049
21
-96.1281
0
LINE
8
BLACK
6
CONTINUOUS
10
146.049
20
-96.1281
11
145.998
21
-96.0582
0
LINE
8
BLACK
6
CONTINUOUS
10
145.998
20
-96.0582
11
145.993
21
-96.0493
0
LINE
8
BLACK
6
CONTINUOUS
10
145.993
20
-96.0493
11
145.993
21
-96.8968
0
LINE
8
BLACK
6
CONTINUOUS
10
145.993
20
-96.8968
11
145.988
21
-96.9225
0
LINE
8
BLACK
6
CONTINUOUS
10
145.988
20
-96.9225
11
145.955
21
-96.9618
0
LINE
8
BLACK
6
CONTINUOUS
10
145.955
20
-96.9618
11
145.904
21
-96.9707
0
LINE
8
BLACK
6
CONTINUOUS
10
145.904
20
-96.9707
11
145.86
21
-96.945
0
LINE
8
BLACK
6
CONTINUOUS
10
145.86
20
-96.945
11
145.843
21
-96.8968
0
LINE
8
BLACK
6
CONTINUOUS
10
145.843
20
-96.8968
11
145.843
21
-96.448
0
LINE
8
BLACK
6
CONTINUOUS
10
145.843
20
-96.448
11
145.421
21
-96.448
0
LINE
8
BLACK
6
CONTINUOUS
10
145.421
20
-96.448
11
145.421
21
-96.8968
0
LINE
8
BLACK
6
CONTINUOUS
10
145.421
20
-96.8968
11
145.417
21
-96.9225
0
LINE
8
BLACK
6
CONTINUOUS
10
145.417
20
-96.9225
11
145.384
21
-96.9618
0
LINE
8
BLACK
6
CONTINUOUS
10
145.384
20
-96.9618
11
145.333
21
-96.9707
0
LINE
8
BLACK
6
CONTINUOUS
10
145.333
20
-96.9707
11
145.289
21
-96.945
0
LINE
8
BLACK
6
CONTINUOUS
10
145.289
20
-96.945
11
145.271
21
-96.8968
0
LINE
8
BLACK
6
CONTINUOUS
10
145.271
20
-96.8968
11
145.271
21
-95.8968
0
LINE
8
BLACK
6
CONTINUOUS
10
145.271
20
-95.8968
11
145.276
21
-95.8712
0
LINE
8
BLACK
6
CONTINUOUS
10
145.276
20
-95.8712
11
145.309
21
-95.8319
0
LINE
8
BLACK
6
CONTINUOUS
10
145.309
20
-95.8319
11
145.359
21
-95.823
0
LINE
8
BLACK
6
CONTINUOUS
10
145.359
20
-95.823
11
145.404
21
-95.8486
0
LINE
8
BLACK
6
CONTINUOUS
10
145.404
20
-95.8486
11
145.421
21
-95.8968
0
LINE
8
BLACK
6
CONTINUOUS
10
145.421
20
-95.8968
11
145.421
21
-96.298
0
LINE
8
BLACK
6
CONTINUOUS
10
145.421
20
-96.298
11
145.843
21
-96.298
0
LINE
8
BLACK
6
CONTINUOUS
10
145.843
20
-96.298
11
145.843
21
-95.8968
0
LINE
8
BLACK
6
CONTINUOUS
10
145.843
20
-95.8968
11
145.847
21
-95.8712
0
LINE
8
BLACK
6
CONTINUOUS
10
145.847
20
-95.8712
11
145.88
21
-95.8319
0
LINE
8
BLACK
6
CONTINUOUS
10
145.88
20
-95.8319
11
145.93
21
-95.823
0
LINE
8
BLACK
6
CONTINUOUS
10
145.93
20
-95.823
11
145.928
21
-95.8022
0
LINE
8
BLACK
6
CONTINUOUS
10
145.928
20
-95.8022
11
145.921
21
-95.7496
0
LINE
8
BLACK
6
CONTINUOUS
10
145.921
20
-95.7496
11
145.915
21
-95.6884
0
LINE
8
BLACK
6
CONTINUOUS
10
145.915
20
-95.6884
11
145.907
21
-95.6217
0
LINE
8
BLACK
6
CONTINUOUS
10
145.907
20
-95.6217
11
145.9
21
-95.5523
0
LINE
8
BLACK
6
CONTINUOUS
10
145.9
20
-95.5523
11
145.892
21
-95.4833
0
LINE
8
BLACK
6
CONTINUOUS
10
145.892
20
-95.4833
11
145.885
21
-95.4175
0
LINE
8
BLACK
6
CONTINUOUS
10
145.885
20
-95.4175
11
145.879
21
-95.3581
0
LINE
8
BLACK
6
CONTINUOUS
10
145.879
20
-95.3581
11
145.874
21
-95.3078
0
LINE
8
BLACK
6
CONTINUOUS
10
145.874
20
-95.3078
11
145.87
21
-95.2698
0
LINE
8
BLACK
6
CONTINUOUS
10
145.87
20
-95.2698
11
145.868
21
-95.2469
0
LINE
8
BLACK
6
CONTINUOUS
10
145.868
20
-95.2469
11
145.868
21
-95.2422
0
LINE
8
BLACK
6
CONTINUOUS
10
145.868
20
-95.2422
11
145.86
21
-95.2371
0
LINE
8
BLACK
6
CONTINUOUS
10
145.86
20
-95.2371
11
145.837
21
-95.2331
0
LINE
8
BLACK
6
CONTINUOUS
10
145.837
20
-95.2331
11
145.796
21
-95.23
0
LINE
8
BLACK
6
CONTINUOUS
10
145.796
20
-95.23
11
145.737
21
-95.2278
0
LINE
8
BLACK
6
CONTINUOUS
10
145.737
20
-95.2278
11
145.722
21
-95.2274
0
LINE
8
BLACK
6
CONTINUOUS
10
145.722
20
-95.2274
11
145.576
21
-95.2241
0
LINE
8
BLACK
6
CONTINUOUS
10
145.576
20
-95.2241
11
145.489
21
-95.181
0
LINE
8
BLACK
6
CONTINUOUS
10
145.489
20
-95.181
11
145.399
21
-95.1256
0
LINE
8
BLACK
6
CONTINUOUS
10
145.399
20
-95.1256
11
145.321
21
-95.0555
0
LINE
8
BLACK
6
CONTINUOUS
10
145.321
20
-95.0555
11
145.257
21
-94.9728
0
LINE
8
BLACK
6
CONTINUOUS
10
145.257
20
-94.9728
11
145.208
21
-94.8794
0
LINE
8
BLACK
6
CONTINUOUS
10
145.208
20
-94.8794
11
145.185
21
-94.8161
0
LINE
8
BLACK
6
CONTINUOUS
10
145.185
20
-94.8161
11
145.169
21
-94.7477
0
LINE
8
BLACK
6
CONTINUOUS
10
145.169
20
-94.7477
11
145.155
21
-94.6613
0
LINE
8
BLACK
6
CONTINUOUS
10
145.155
20
-94.6613
11
145.143
21
-94.5587
0
LINE
8
BLACK
6
CONTINUOUS
10
145.143
20
-94.5587
11
145.132
21
-94.4414
0
LINE
8
BLACK
6
CONTINUOUS
10
145.132
20
-94.4414
11
145.124
21
-94.3113
0
LINE
8
BLACK
6
CONTINUOUS
10
145.124
20
-94.3113
11
145.118
21
-94.1699
0
LINE
8
BLACK
6
CONTINUOUS
10
145.118
20
-94.1699
11
145.114
21
-94.0189
0
LINE
8
BLACK
6
CONTINUOUS
10
145.114
20
-94.0189
11
145.112
21
-93.8599
0
LINE
8
BLACK
6
CONTINUOUS
10
145.112
20
-93.8599
11
145.113
21
-93.8466
0
LINE
8
BLACK
6
CONTINUOUS
10
145.113
20
-93.8466
11
145.114
21
-93.6966
0
LINE
8
BLACK
6
CONTINUOUS
10
145.114
20
-93.6966
11
145.115
21
-93.6081
0
LINE
8
BLACK
6
CONTINUOUS
10
145.115
20
-93.6081
11
145.116
21
-93.5363
0
LINE
8
BLACK
6
CONTINUOUS
10
145.116
20
-93.5363
11
145.118
21
-93.4784
0
LINE
8
BLACK
6
CONTINUOUS
10
145.118
20
-93.4784
11
145.12
21
-93.4313
0
LINE
8
BLACK
6
CONTINUOUS
10
145.12
20
-93.4313
11
145.122
21
-93.3923
0
LINE
8
BLACK
6
CONTINUOUS
10
145.122
20
-93.3923
11
145.126
21
-93.3583
0
LINE
8
BLACK
6
CONTINUOUS
10
145.126
20
-93.3583
11
145.13
21
-93.3264
0
LINE
8
BLACK
6
CONTINUOUS
10
145.13
20
-93.3264
11
145.136
21
-93.2938
0
LINE
8
BLACK
6
CONTINUOUS
10
145.136
20
-93.2938
11
145.144
21
-93.2575
0
LINE
8
BLACK
6
CONTINUOUS
10
145.144
20
-93.2575
11
145.149
21
-93.2339
0
LINE
8
BLACK
6
CONTINUOUS
10
145.149
20
-93.2339
11
145.166
21
-93.1581
0
LINE
8
BLACK
6
CONTINUOUS
10
145.166
20
-93.1581
11
145.185
21
-93.0931
0
LINE
8
BLACK
6
CONTINUOUS
10
145.185
20
-93.0931
11
145.204
21
-93.0428
0
LINE
8
BLACK
6
CONTINUOUS
10
145.204
20
-93.0428
11
145.21
21
-93.0293
0
LINE
8
BLACK
6
CONTINUOUS
10
145.21
20
-93.0293
11
145.251
21
-92.963
0
LINE
8
BLACK
6
CONTINUOUS
10
145.251
20
-92.963
11
145.307
21
-92.8972
0
LINE
8
BLACK
6
CONTINUOUS
10
145.307
20
-92.8972
11
145.373
21
-92.8359
0
LINE
8
BLACK
6
CONTINUOUS
10
145.373
20
-92.8359
11
145.446
21
-92.7828
0
LINE
8
BLACK
6
CONTINUOUS
10
145.446
20
-92.7828
11
145.52
21
-92.7419
0
LINE
8
BLACK
6
CONTINUOUS
10
145.52
20
-92.7419
11
145.569
21
-92.7227
0
LINE
8
BLACK
6
CONTINUOUS
10
145.569
20
-92.7227
11
145.607
21
-92.7132
0
LINE
8
BLACK
6
CONTINUOUS
10
145.607
20
-92.7132
11
145.657
21
-92.7036
0
LINE
8
BLACK
6
CONTINUOUS
10
145.657
20
-92.7036
11
145.711
21
-92.6953
0
LINE
8
BLACK
6
CONTINUOUS
10
145.711
20
-92.6953
11
145.744
21
-92.6913
0
LINE
8
BLACK
6
CONTINUOUS
10
145.744
20
-92.6913
11
145.854
21
-92.6799
0
LINE
8
BLACK
6
CONTINUOUS
10
145.854
20
-92.6799
11
145.872
21
-92.6004
0
LINE
8
BLACK
6
CONTINUOUS
10
145.872
20
-92.6004
11
145.895
21
-92.5071
0
LINE
8
BLACK
6
CONTINUOUS
10
145.895
20
-92.5071
11
145.926
21
-92.4044
0
LINE
8
BLACK
6
CONTINUOUS
10
145.926
20
-92.4044
11
145.96
21
-92.3
0
LINE
8
BLACK
6
CONTINUOUS
10
145.96
20
-92.3
11
145.996
21
-92.2018
0
LINE
8
BLACK
6
CONTINUOUS
10
145.996
20
-92.2018
11
146.019
21
-92.1479
0
LINE
8
BLACK
6
CONTINUOUS
10
146.019
20
-92.1479
11
146.078
21
-92.025
0
LINE
8
BLACK
6
CONTINUOUS
10
146.078
20
-92.025
11
146.144
21
-91.9181
0
LINE
8
BLACK
6
CONTINUOUS
10
146.144
20
-91.9181
11
146.219
21
-91.824
0
LINE
8
BLACK
6
CONTINUOUS
10
146.219
20
-91.824
11
146.307
21
-91.7395
0
LINE
8
BLACK
6
CONTINUOUS
10
146.307
20
-91.7395
11
146.409
21
-91.6613
0
LINE
8
BLACK
6
CONTINUOUS
10
146.409
20
-91.6613
11
146.438
21
-91.6416
0
LINE
8
BLACK
6
CONTINUOUS
10
146.438
20
-91.6416
11
146.592
21
-91.5529
0
LINE
8
BLACK
6
CONTINUOUS
10
146.592
20
-91.5529
11
146.756
21
-91.4807
0
LINE
8
BLACK
6
CONTINUOUS
10
146.756
20
-91.4807
11
146.931
21
-91.4248
0
LINE
8
BLACK
6
CONTINUOUS
10
146.931
20
-91.4248
11
147.016
21
-91.4044
0
LINE
8
BLACK
6
CONTINUOUS
10
147.016
20
-91.4044
11
147.087
21
-91.3926
0
LINE
8
BLACK
6
CONTINUOUS
10
147.087
20
-91.3926
11
147.172
21
-91.384
0
LINE
8
BLACK
6
CONTINUOUS
10
147.172
20
-91.384
11
147.265
21
-91.3787
0
LINE
8
BLACK
6
CONTINUOUS
10
147.265
20
-91.3787
11
147.36
21
-91.3768
0
LINE
8
BLACK
6
CONTINUOUS
10
147.36
20
-91.3768
11
147.453
21
-91.3786
0
LINE
8
BLACK
6
CONTINUOUS
10
145.369
20
-93.9971
11
145.372
21
-94.1404
0
LINE
8
BLACK
6
CONTINUOUS
10
145.372
20
-94.1404
11
145.378
21
-94.2748
0
LINE
8
BLACK
6
CONTINUOUS
10
145.378
20
-94.2748
11
145.386
21
-94.3984
0
LINE
8
BLACK
6
CONTINUOUS
10
145.386
20
-94.3984
11
145.396
21
-94.5096
0
LINE
8
BLACK
6
CONTINUOUS
10
145.396
20
-94.5096
11
145.407
21
-94.6064
0
LINE
8
BLACK
6
CONTINUOUS
10
145.407
20
-94.6064
11
145.421
21
-94.6872
0
LINE
8
BLACK
6
CONTINUOUS
10
145.421
20
-94.6872
11
145.436
21
-94.7497
0
LINE
8
BLACK
6
CONTINUOUS
10
145.436
20
-94.7497
11
145.466
21
-94.8203
0
LINE
8
BLACK
6
CONTINUOUS
10
145.466
20
-94.8203
11
145.51
21
-94.8816
0
LINE
8
BLACK
6
CONTINUOUS
10
145.51
20
-94.8816
11
145.565
21
-94.9299
0
LINE
8
BLACK
6
CONTINUOUS
10
145.565
20
-94.9299
11
145.591
21
-94.946
0
LINE
8
BLACK
6
CONTINUOUS
10
145.591
20
-94.946
11
145.618
21
-94.9589
0
LINE
8
BLACK
6
CONTINUOUS
10
145.618
20
-94.9589
11
145.642
21
-94.967
0
LINE
8
BLACK
6
CONTINUOUS
10
145.642
20
-94.967
11
145.67
21
-94.9714
0
LINE
8
BLACK
6
CONTINUOUS
10
145.67
20
-94.9714
11
145.706
21
-94.9731
0
LINE
8
BLACK
6
CONTINUOUS
10
145.706
20
-94.9731
11
145.742
21
-94.9734
0
LINE
8
BLACK
6
CONTINUOUS
10
145.742
20
-94.9734
11
145.84
21
-94.9734
0
LINE
8
BLACK
6
CONTINUOUS
10
145.84
20
-94.9734
11
145.834
21
-94.9365
0
LINE
8
BLACK
6
CONTINUOUS
10
145.834
20
-94.9365
11
145.831
21
-94.9096
0
LINE
8
BLACK
6
CONTINUOUS
10
145.831
20
-94.9096
11
145.827
21
-94.866
0
LINE
8
BLACK
6
CONTINUOUS
10
145.827
20
-94.866
11
145.822
21
-94.8088
0
LINE
8
BLACK
6
CONTINUOUS
10
145.822
20
-94.8088
11
145.816
21
-94.7408
0
LINE
8
BLACK
6
CONTINUOUS
10
145.816
20
-94.7408
11
145.811
21
-94.6652
0
LINE
8
BLACK
6
CONTINUOUS
10
145.811
20
-94.6652
11
145.805
21
-94.5847
0
LINE
8
BLACK
6
CONTINUOUS
10
145.805
20
-94.5847
11
145.799
21
-94.5025
0
LINE
8
BLACK
6
CONTINUOUS
10
145.799
20
-94.5025
11
145.794
21
-94.4214
0
LINE
8
BLACK
6
CONTINUOUS
10
145.794
20
-94.4214
11
145.789
21
-94.3445
0
LINE
8
BLACK
6
CONTINUOUS
10
145.789
20
-94.3445
11
145.788
21
-94.3345
0
LINE
8
BLACK
6
CONTINUOUS
10
145.788
20
-94.3345
11
145.783
21
-94.2377
0
LINE
8
BLACK
6
CONTINUOUS
10
145.783
20
-94.2377
11
145.78
21
-94.1313
0
LINE
8
BLACK
6
CONTINUOUS
10
145.78
20
-94.1313
11
145.777
21
-94.0176
0
LINE
8
BLACK
6
CONTINUOUS
10
145.777
20
-94.0176
11
145.775
21
-93.8989
0
LINE
8
BLACK
6
CONTINUOUS
10
145.775
20
-93.8989
11
145.775
21
-93.7776
0
LINE
8
BLACK
6
CONTINUOUS
10
145.775
20
-93.7776
11
145.775
21
-93.7232
0
LINE
8
BLACK
6
CONTINUOUS
10
145.775
20
-93.7232
11
145.775
21
-93.656
0
LINE
8
BLACK
6
CONTINUOUS
10
145.775
20
-93.656
11
145.776
21
-93.5364
0
LINE
8
BLACK
6
CONTINUOUS
10
145.776
20
-93.5364
11
145.779
21
-93.4213
0
LINE
8
BLACK
6
CONTINUOUS
10
145.779
20
-93.4213
11
145.782
21
-93.3129
0
LINE
8
BLACK
6
CONTINUOUS
10
145.782
20
-93.3129
11
145.785
21
-93.2136
0
LINE
8
BLACK
6
CONTINUOUS
10
145.785
20
-93.2136
11
145.79
21
-93.1258
0
LINE
8
BLACK
6
CONTINUOUS
10
145.79
20
-93.1258
11
145.796
21
-93.0518
0
LINE
8
BLACK
6
CONTINUOUS
10
145.796
20
-93.0518
11
145.802
21
-92.994
0
LINE
8
BLACK
6
CONTINUOUS
10
145.802
20
-92.994
11
145.805
21
-92.9723
0
LINE
8
BLACK
6
CONTINUOUS
10
145.805
20
-92.9723
11
145.81
21
-92.942
0
LINE
8
BLACK
6
CONTINUOUS
10
145.81
20
-92.942
11
145.738
21
-92.9503
0
LINE
8
BLACK
6
CONTINUOUS
10
145.738
20
-92.9503
11
145.652
21
-92.9692
0
LINE
8
BLACK
6
CONTINUOUS
10
145.652
20
-92.9692
11
145.576
21
-93.005
0
LINE
8
BLACK
6
CONTINUOUS
10
145.576
20
-93.005
11
145.508
21
-93.0583
0
LINE
8
BLACK
6
CONTINUOUS
10
145.508
20
-93.0583
11
145.492
21
-93.0748
0
LINE
8
BLACK
6
CONTINUOUS
10
145.492
20
-93.0748
11
145.465
21
-93.1075
0
LINE
8
BLACK
6
CONTINUOUS
10
145.465
20
-93.1075
11
145.442
21
-93.1424
0
LINE
8
BLACK
6
CONTINUOUS
10
145.442
20
-93.1424
11
145.423
21
-93.1817
0
LINE
8
BLACK
6
CONTINUOUS
10
145.423
20
-93.1817
11
145.407
21
-93.2272
0
LINE
8
BLACK
6
CONTINUOUS
10
145.407
20
-93.2272
11
145.395
21
-93.2811
0
LINE
8
BLACK
6
CONTINUOUS
10
145.395
20
-93.2811
11
145.386
21
-93.3454
0
LINE
8
BLACK
6
CONTINUOUS
10
145.386
20
-93.3454
11
145.379
21
-93.4221
0
LINE
8
BLACK
6
CONTINUOUS
10
145.379
20
-93.4221
11
145.374
21
-93.5133
0
LINE
8
BLACK
6
CONTINUOUS
10
145.374
20
-93.5133
11
145.37
21
-93.6208
0
LINE
8
BLACK
6
CONTINUOUS
10
145.37
20
-93.6208
11
145.369
21
-93.6906
0
LINE
8
BLACK
6
CONTINUOUS
10
145.369
20
-93.6906
11
145.368
21
-93.8466
0
LINE
8
BLACK
6
CONTINUOUS
10
145.368
20
-93.8466
11
145.369
21
-93.9971
0
LINE
8
BLACK
6
CONTINUOUS
10
146.043
20
-93.93
11
146.044
21
-93.9658
0
LINE
8
BLACK
6
CONTINUOUS
10
146.044
20
-93.9658
11
146.049
21
-94.1232
0
LINE
8
BLACK
6
CONTINUOUS
10
146.049
20
-94.1232
11
146.055
21
-94.2678
0
LINE
8
BLACK
6
CONTINUOUS
10
146.055
20
-94.2678
11
146.062
21
-94.4039
0
LINE
8
BLACK
6
CONTINUOUS
10
146.062
20
-94.4039
11
146.07
21
-94.5356
0
LINE
8
BLACK
6
CONTINUOUS
10
146.07
20
-94.5356
11
146.079
21
-94.6672
0
LINE
8
BLACK
6
CONTINUOUS
10
146.079
20
-94.6672
11
146.091
21
-94.8028
0
LINE
8
BLACK
6
CONTINUOUS
10
146.091
20
-94.8028
11
146.104
21
-94.9465
0
LINE
8
BLACK
6
CONTINUOUS
10
146.104
20
-94.9465
11
146.12
21
-95.1027
0
LINE
8
BLACK
6
CONTINUOUS
10
146.12
20
-95.1027
11
146.133
21
-95.2191
0
LINE
8
BLACK
6
CONTINUOUS
10
146.133
20
-95.2191
11
146.142
21
-95.3029
0
LINE
8
BLACK
6
CONTINUOUS
10
146.142
20
-95.3029
11
146.152
21
-95.3934
0
LINE
8
BLACK
6
CONTINUOUS
10
146.152
20
-95.3934
11
146.162
21
-95.4846
0
LINE
8
BLACK
6
CONTINUOUS
10
146.162
20
-95.4846
11
146.172
21
-95.5708
0
LINE
8
BLACK
6
CONTINUOUS
10
146.172
20
-95.5708
11
146.18
21
-95.6461
0
LINE
8
BLACK
6
CONTINUOUS
10
146.18
20
-95.6461
11
146.183
21
-95.6762
0
LINE
8
BLACK
6
CONTINUOUS
10
146.183
20
-95.6762
11
146.193
21
-95.764
0
LINE
8
BLACK
6
CONTINUOUS
10
146.193
20
-95.764
11
146.204
21
-95.8348
0
LINE
8
BLACK
6
CONTINUOUS
10
146.204
20
-95.8348
11
146.218
21
-95.8902
0
LINE
8
BLACK
6
CONTINUOUS
10
146.218
20
-95.8902
11
146.236
21
-95.9322
0
LINE
8
BLACK
6
CONTINUOUS
10
146.236
20
-95.9322
11
146.262
21
-95.9625
0
LINE
8
BLACK
6
CONTINUOUS
10
146.262
20
-95.9625
11
146.297
21
-95.9829
0
LINE
8
BLACK
6
CONTINUOUS
10
146.297
20
-95.9829
11
146.343
21
-95.9952
0
LINE
8
BLACK
6
CONTINUOUS
10
146.343
20
-95.9952
11
146.402
21
-96.0012
0
LINE
8
BLACK
6
CONTINUOUS
10
146.402
20
-96.0012
11
146.468
21
-96.0026
0
LINE
8
BLACK
6
CONTINUOUS
10
146.468
20
-96.0026
11
146.478
21
-95.9919
0
LINE
8
BLACK
6
CONTINUOUS
10
146.478
20
-95.9919
11
146.569
21
-95.8552
0
LINE
8
BLACK
6
CONTINUOUS
10
146.569
20
-95.8552
11
146.587
21
-95.8364
0
LINE
8
BLACK
6
CONTINUOUS
10
146.587
20
-95.8364
11
146.592
21
-95.8352
0
LINE
8
BLACK
6
CONTINUOUS
10
146.592
20
-95.8352
11
146.594
21
-95.8319
0
LINE
8
BLACK
6
CONTINUOUS
10
146.594
20
-95.8319
11
146.616
21
-95.8281
0
LINE
8
BLACK
6
CONTINUOUS
10
146.616
20
-95.8281
11
146.637
21
-95.822
0
LINE
8
BLACK
6
CONTINUOUS
10
146.637
20
-95.822
11
146.641
21
-95.8237
0
LINE
8
BLACK
6
CONTINUOUS
10
146.641
20
-95.8237
11
146.645
21
-95.823
0
LINE
8
BLACK
6
CONTINUOUS
10
146.645
20
-95.823
11
146.664
21
-95.8338
0
LINE
8
BLACK
6
CONTINUOUS
10
146.664
20
-95.8338
11
146.684
21
-95.8426
0
LINE
8
BLACK
6
CONTINUOUS
10
146.684
20
-95.8426
11
146.686
21
-95.8465
0
LINE
8
BLACK
6
CONTINUOUS
10
146.686
20
-95.8465
11
146.689
21
-95.8486
0
LINE
8
BLACK
6
CONTINUOUS
10
146.689
20
-95.8486
11
146.697
21
-95.8691
0
LINE
8
BLACK
6
CONTINUOUS
10
146.697
20
-95.8691
11
146.706
21
-95.8886
0
LINE
8
BLACK
6
CONTINUOUS
10
146.706
20
-95.8886
11
146.705
21
-95.8928
0
LINE
8
BLACK
6
CONTINUOUS
10
146.705
20
-95.8928
11
146.707
21
-95.8968
0
LINE
8
BLACK
6
CONTINUOUS
10
146.707
20
-95.8968
11
146.707
21
-95.9962
0
LINE
8
BLACK
6
CONTINUOUS
10
146.707
20
-95.9962
11
146.743
21
-95.9937
0
LINE
8
BLACK
6
CONTINUOUS
10
146.743
20
-95.9937
11
146.779
21
-95.9897
0
LINE
8
BLACK
6
CONTINUOUS
10
146.779
20
-95.9897
11
146.795
21
-95.9865
0
LINE
8
BLACK
6
CONTINUOUS
10
146.795
20
-95.9865
11
146.825
21
-95.9716
0
LINE
8
BLACK
6
CONTINUOUS
10
146.825
20
-95.9716
11
146.844
21
-95.9473
0
LINE
8
BLACK
6
CONTINUOUS
10
146.844
20
-95.9473
11
146.846
21
-95.9418
0
LINE
8
BLACK
6
CONTINUOUS
10
146.846
20
-95.9418
11
146.861
21
-95.8986
0
LINE
8
BLACK
6
CONTINUOUS
10
146.861
20
-95.8986
11
146.874
21
-95.8462
0
LINE
8
BLACK
6
CONTINUOUS
10
146.874
20
-95.8462
11
146.883
21
-95.7829
0
LINE
8
BLACK
6
CONTINUOUS
10
146.883
20
-95.7829
11
146.891
21
-95.707
0
LINE
8
BLACK
6
CONTINUOUS
10
146.891
20
-95.707
11
146.896
21
-95.6165
0
LINE
8
BLACK
6
CONTINUOUS
10
146.896
20
-95.6165
11
146.9
21
-95.5097
0
LINE
8
BLACK
6
CONTINUOUS
10
146.9
20
-95.5097
11
146.901
21
-95.4083
0
LINE
8
BLACK
6
CONTINUOUS
10
146.901
20
-95.4083
11
146.902
21
-95.3258
0
LINE
8
BLACK
6
CONTINUOUS
10
146.902
20
-95.3258
11
146.904
21
-95.2616
0
LINE
8
BLACK
6
CONTINUOUS
10
146.904
20
-95.2616
11
146.906
21
-95.2144
0
LINE
8
BLACK
6
CONTINUOUS
10
146.906
20
-95.2144
11
146.909
21
-95.1828
0
LINE
8
BLACK
6
CONTINUOUS
10
146.909
20
-95.1828
11
146.913
21
-95.1657
0
LINE
8
BLACK
6
CONTINUOUS
10
146.913
20
-95.1657
11
146.915
21
-95.1632
0
LINE
8
BLACK
6
CONTINUOUS
10
146.915
20
-95.1632
11
146.92
21
-95.1585
0
LINE
8
BLACK
6
CONTINUOUS
10
146.92
20
-95.1585
11
146.929
21
-95.1547
0
LINE
8
BLACK
6
CONTINUOUS
10
146.929
20
-95.1547
11
146.944
21
-95.1518
0
LINE
8
BLACK
6
CONTINUOUS
10
146.944
20
-95.1518
11
146.967
21
-95.1496
0
LINE
8
BLACK
6
CONTINUOUS
10
146.967
20
-95.1496
11
147.001
21
-95.148
0
LINE
8
BLACK
6
CONTINUOUS
10
147.001
20
-95.148
11
147.047
21
-95.1469
0
LINE
8
BLACK
6
CONTINUOUS
10
147.047
20
-95.1469
11
147.107
21
-95.1461
0
LINE
8
BLACK
6
CONTINUOUS
10
147.107
20
-95.1461
11
147.184
21
-95.1456
0
LINE
8
BLACK
6
CONTINUOUS
10
147.184
20
-95.1456
11
147.225
21
-95.1454
0
LINE
8
BLACK
6
CONTINUOUS
10
147.225
20
-95.1454
11
147.311
21
-95.1449
0
LINE
8
BLACK
6
CONTINUOUS
10
147.311
20
-95.1449
11
147.38
21
-95.1443
0
LINE
8
BLACK
6
CONTINUOUS
10
147.38
20
-95.1443
11
147.435
21
-95.1433
0
LINE
8
BLACK
6
CONTINUOUS
10
147.435
20
-95.1433
11
147.479
21
-95.1417
0
LINE
8
BLACK
6
CONTINUOUS
10
147.479
20
-95.1417
11
147.515
21
-95.1393
0
LINE
8
BLACK
6
CONTINUOUS
10
147.515
20
-95.1393
11
147.546
21
-95.1359
0
LINE
8
BLACK
6
CONTINUOUS
10
147.546
20
-95.1359
11
147.575
21
-95.1314
0
LINE
8
BLACK
6
CONTINUOUS
10
147.575
20
-95.1314
11
147.606
21
-95.1255
0
LINE
8
BLACK
6
CONTINUOUS
10
147.606
20
-95.1255
11
147.64
21
-95.118
0
LINE
8
BLACK
6
CONTINUOUS
10
147.64
20
-95.118
11
147.642
21
-95.1175
0
LINE
8
BLACK
6
CONTINUOUS
10
147.642
20
-95.1175
11
147.693
21
-95.1067
0
LINE
8
BLACK
6
CONTINUOUS
10
147.693
20
-95.1067
11
147.742
21
-95.0975
0
LINE
8
BLACK
6
CONTINUOUS
10
147.742
20
-95.0975
11
147.784
21
-95.091
0
LINE
8
BLACK
6
CONTINUOUS
10
147.784
20
-95.091
11
147.809
21
-95.0884
0
LINE
8
BLACK
6
CONTINUOUS
10
147.809
20
-95.0884
11
147.846
21
-95.0832
0
LINE
8
BLACK
6
CONTINUOUS
10
147.846
20
-95.0832
11
147.881
21
-95.0734
0
LINE
8
BLACK
6
CONTINUOUS
10
147.881
20
-95.0734
11
147.892
21
-95.0689
0
LINE
8
BLACK
6
CONTINUOUS
10
147.892
20
-95.0689
11
147.921
21
-95.0573
0
LINE
8
BLACK
6
CONTINUOUS
10
147.921
20
-95.0573
11
147.948
21
-95.0525
0
LINE
8
BLACK
6
CONTINUOUS
10
147.948
20
-95.0525
11
147.966
21
-95.0549
0
LINE
8
BLACK
6
CONTINUOUS
10
147.966
20
-95.0549
11
147.971
21
-95.0621
0
LINE
8
BLACK
6
CONTINUOUS
10
147.971
20
-95.0621
11
147.966
21
-95.0759
0
LINE
8
BLACK
6
CONTINUOUS
10
147.966
20
-95.0759
11
147.953
21
-95.0995
0
LINE
8
BLACK
6
CONTINUOUS
10
147.953
20
-95.0995
11
147.935
21
-95.1268
0
LINE
8
BLACK
6
CONTINUOUS
10
147.935
20
-95.1268
11
147.917
21
-95.1519
0
LINE
8
BLACK
6
CONTINUOUS
10
147.917
20
-95.1519
11
147.91
21
-95.1602
0
LINE
8
BLACK
6
CONTINUOUS
10
147.91
20
-95.1602
11
147.874
21
-95.1932
0
LINE
8
BLACK
6
CONTINUOUS
10
147.874
20
-95.1932
11
147.827
21
-95.2244
0
LINE
8
BLACK
6
CONTINUOUS
10
147.827
20
-95.2244
11
147.778
21
-95.2484
0
LINE
8
BLACK
6
CONTINUOUS
10
147.778
20
-95.2484
11
147.765
21
-95.253
0
LINE
8
BLACK
6
CONTINUOUS
10
147.765
20
-95.253
11
147.708
21
-95.2721
0
LINE
8
BLACK
6
CONTINUOUS
10
147.708
20
-95.2721
11
147.656
21
-95.2904
0
LINE
8
BLACK
6
CONTINUOUS
10
147.656
20
-95.2904
11
147.614
21
-95.3066
0
LINE
8
BLACK
6
CONTINUOUS
10
147.614
20
-95.3066
11
147.584
21
-95.3195
0
LINE
8
BLACK
6
CONTINUOUS
10
147.584
20
-95.3195
11
147.569
21
-95.3279
0
LINE
8
BLACK
6
CONTINUOUS
10
147.569
20
-95.3279
11
147.568
21
-95.3288
0
LINE
8
BLACK
6
CONTINUOUS
10
147.568
20
-95.3288
11
147.555
21
-95.3356
0
LINE
8
BLACK
6
CONTINUOUS
10
147.555
20
-95.3356
11
147.536
21
-95.3392
0
LINE
8
BLACK
6
CONTINUOUS
10
147.536
20
-95.3392
11
147.518
21
-95.3425
0
LINE
8
BLACK
6
CONTINUOUS
10
147.518
20
-95.3425
11
147.512
21
-95.3523
0
LINE
8
BLACK
6
CONTINUOUS
10
147.512
20
-95.3523
11
147.515
21
-95.375
0
LINE
8
BLACK
6
CONTINUOUS
10
147.515
20
-95.375
11
147.515
21
-95.3761
0
LINE
8
BLACK
6
CONTINUOUS
10
147.515
20
-95.3761
11
147.527
21
-95.4497
0
LINE
8
BLACK
6
CONTINUOUS
10
147.527
20
-95.4497
11
147.538
21
-95.5054
0
LINE
8
BLACK
6
CONTINUOUS
10
147.538
20
-95.5054
11
147.549
21
-95.5451
0
LINE
8
BLACK
6
CONTINUOUS
10
147.549
20
-95.5451
11
147.559
21
-95.5706
0
LINE
8
BLACK
6
CONTINUOUS
10
147.559
20
-95.5706
11
147.568
21
-95.5828
0
LINE
8
BLACK
6
CONTINUOUS
10
147.568
20
-95.5828
11
147.582
21
-95.6014
0
LINE
8
BLACK
6
CONTINUOUS
10
147.582
20
-95.6014
11
147.594
21
-95.63
0
LINE
8
BLACK
6
CONTINUOUS
10
147.594
20
-95.63
11
147.597
21
-95.6404
0
LINE
8
BLACK
6
CONTINUOUS
10
147.597
20
-95.6404
11
147.615
21
-95.6862
0
LINE
8
BLACK
6
CONTINUOUS
10
147.615
20
-95.6862
11
147.649
21
-95.7256
0
LINE
8
BLACK
6
CONTINUOUS
10
147.649
20
-95.7256
11
147.701
21
-95.7602
0
LINE
8
BLACK
6
CONTINUOUS
10
147.701
20
-95.7602
11
147.715
21
-95.7675
0
LINE
8
BLACK
6
CONTINUOUS
10
147.715
20
-95.7675
11
147.738
21
-95.7781
0
LINE
8
BLACK
6
CONTINUOUS
10
147.738
20
-95.7781
11
147.759
21
-95.7855
0
LINE
8
BLACK
6
CONTINUOUS
10
147.759
20
-95.7855
11
147.781
21
-95.7901
0
LINE
8
BLACK
6
CONTINUOUS
10
147.781
20
-95.7901
11
147.81
21
-95.7926
0
LINE
8
BLACK
6
CONTINUOUS
10
147.81
20
-95.7926
11
147.849
21
-95.7936
0
LINE
8
BLACK
6
CONTINUOUS
10
147.849
20
-95.7936
11
147.903
21
-95.7936
0
LINE
8
BLACK
6
CONTINUOUS
10
147.903
20
-95.7936
11
147.907
21
-95.7936
0
LINE
8
BLACK
6
CONTINUOUS
10
147.907
20
-95.7936
11
147.965
21
-95.793
0
LINE
8
BLACK
6
CONTINUOUS
10
147.965
20
-95.793
11
148.008
21
-95.7912
0
LINE
8
BLACK
6
CONTINUOUS
10
148.008
20
-95.7912
11
148.042
21
-95.7878
0
LINE
8
BLACK
6
CONTINUOUS
10
148.042
20
-95.7878
11
148.071
21
-95.782
0
LINE
8
BLACK
6
CONTINUOUS
10
148.071
20
-95.782
11
148.1
21
-95.7732
0
LINE
8
BLACK
6
CONTINUOUS
10
148.1
20
-95.7732
11
148.117
21
-95.7674
0
LINE
8
BLACK
6
CONTINUOUS
10
148.117
20
-95.7674
11
148.173
21
-95.7446
0
LINE
8
BLACK
6
CONTINUOUS
10
148.173
20
-95.7446
11
148.214
21
-95.721
0
LINE
8
BLACK
6
CONTINUOUS
10
148.214
20
-95.721
11
148.244
21
-95.6931
0
LINE
8
BLACK
6
CONTINUOUS
10
148.244
20
-95.6931
11
148.265
21
-95.6577
0
LINE
8
BLACK
6
CONTINUOUS
10
148.265
20
-95.6577
11
148.276
21
-95.6328
0
LINE
8
BLACK
6
CONTINUOUS
10
148.276
20
-95.6328
11
148.286
21
-95.5996
0
LINE
8
BLACK
6
CONTINUOUS
10
148.286
20
-95.5996
11
148.292
21
-95.5724
0
LINE
8
BLACK
6
CONTINUOUS
10
148.292
20
-95.5724
11
148.292
21
-95.5585
0
LINE
8
BLACK
6
CONTINUOUS
10
148.292
20
-95.5585
11
148.292
21
-95.5457
0
LINE
8
BLACK
6
CONTINUOUS
10
148.292
20
-95.5457
11
148.296
21
-95.5435
0
LINE
8
BLACK
6
CONTINUOUS
10
148.296
20
-95.5435
11
148.304
21
-95.5342
0
LINE
8
BLACK
6
CONTINUOUS
10
148.304
20
-95.5342
11
148.315
21
-95.508
0
LINE
8
BLACK
6
CONTINUOUS
10
148.315
20
-95.508
11
148.326
21
-95.4676
0
LINE
8
BLACK
6
CONTINUOUS
10
148.326
20
-95.4676
11
148.338
21
-95.4156
0
LINE
8
BLACK
6
CONTINUOUS
10
148.338
20
-95.4156
11
148.351
21
-95.3547
0
LINE
8
BLACK
6
CONTINUOUS
10
148.351
20
-95.3547
11
148.363
21
-95.2875
0
LINE
8
BLACK
6
CONTINUOUS
10
148.363
20
-95.2875
11
148.373
21
-95.2166
0
LINE
8
BLACK
6
CONTINUOUS
10
148.373
20
-95.2166
11
148.382
21
-95.1448
0
LINE
8
BLACK
6
CONTINUOUS
10
148.382
20
-95.1448
11
148.383
21
-95.1356
0
LINE
8
BLACK
6
CONTINUOUS
10
148.383
20
-95.1356
11
148.389
21
-95.0889
0
LINE
8
BLACK
6
CONTINUOUS
10
148.389
20
-95.0889
11
148.394
21
-95.0454
0
LINE
8
BLACK
6
CONTINUOUS
10
148.394
20
-95.0454
11
148.398
21
-95.0115
0
LINE
8
BLACK
6
CONTINUOUS
10
148.398
20
-95.0115
11
148.399
21
-94.9997
0
LINE
8
BLACK
6
CONTINUOUS
10
148.399
20
-94.9997
11
148.401
21
-94.9749
0
LINE
8
BLACK
6
CONTINUOUS
10
148.401
20
-94.9749
11
148.396
21
-94.9676
0
LINE
8
BLACK
6
CONTINUOUS
10
148.396
20
-94.9676
11
148.394
21
-94.9683
0
LINE
8
BLACK
6
CONTINUOUS
10
148.394
20
-94.9683
11
148.388
21
-94.9717
0
LINE
8
BLACK
6
CONTINUOUS
10
148.388
20
-94.9717
11
148.386
21
-94.9707
0
LINE
8
BLACK
6
CONTINUOUS
10
148.386
20
-94.9707
11
148.386
21
-94.9617
0
LINE
8
BLACK
6
CONTINUOUS
10
148.386
20
-94.9617
11
148.389
21
-94.9414
0
LINE
8
BLACK
6
CONTINUOUS
10
148.389
20
-94.9414
11
148.396
21
-94.9063
0
LINE
8
BLACK
6
CONTINUOUS
10
148.396
20
-94.9063
11
148.398
21
-94.8934
0
LINE
8
BLACK
6
CONTINUOUS
10
148.398
20
-94.8934
11
148.403
21
-94.857
0
LINE
8
BLACK
6
CONTINUOUS
10
148.403
20
-94.857
11
148.408
21
-94.8041
0
LINE
8
BLACK
6
CONTINUOUS
10
148.408
20
-94.8041
11
148.411
21
-94.7374
0
LINE
8
BLACK
6
CONTINUOUS
10
148.411
20
-94.7374
11
148.415
21
-94.66
0
LINE
8
BLACK
6
CONTINUOUS
10
148.415
20
-94.66
11
148.417
21
-94.575
0
LINE
8
BLACK
6
CONTINUOUS
10
148.417
20
-94.575
11
148.419
21
-94.4851
0
LINE
8
BLACK
6
CONTINUOUS
10
148.419
20
-94.4851
11
148.419
21
-94.3936
0
LINE
8
BLACK
6
CONTINUOUS
10
148.419
20
-94.3936
11
148.419
21
-94.3032
0
LINE
8
BLACK
6
CONTINUOUS
10
148.419
20
-94.3032
11
148.418
21
-94.2171
0
LINE
8
BLACK
6
CONTINUOUS
10
148.418
20
-94.2171
11
148.416
21
-94.1382
0
LINE
8
BLACK
6
CONTINUOUS
10
148.416
20
-94.1382
11
148.414
21
-94.0789
0
LINE
8
BLACK
6
CONTINUOUS
10
148.414
20
-94.0789
11
148.41
21
-94.0152
0
LINE
8
BLACK
6
CONTINUOUS
10
148.41
20
-94.0152
11
148.406
21
-93.9491
0
LINE
8
BLACK
6
CONTINUOUS
10
148.406
20
-93.9491
11
148.401
21
-93.8836
0
LINE
8
BLACK
6
CONTINUOUS
10
148.401
20
-93.8836
11
148.396
21
-93.8218
0
LINE
8
BLACK
6
CONTINUOUS
10
148.396
20
-93.8218
11
148.392
21
-93.7665
0
LINE
8
BLACK
6
CONTINUOUS
10
148.392
20
-93.7665
11
148.387
21
-93.7209
0
LINE
8
BLACK
6
CONTINUOUS
10
148.387
20
-93.7209
11
148.384
21
-93.6878
0
LINE
8
BLACK
6
CONTINUOUS
10
148.384
20
-93.6878
11
148.381
21
-93.6704
0
LINE
8
BLACK
6
CONTINUOUS
10
148.381
20
-93.6704
11
148.38
21
-93.6685
0
LINE
8
BLACK
6
CONTINUOUS
10
148.38
20
-93.6685
11
148.37
21
-93.6701
0
LINE
8
BLACK
6
CONTINUOUS
10
148.37
20
-93.6701
11
148.347
21
-93.6768
0
LINE
8
BLACK
6
CONTINUOUS
10
148.347
20
-93.6768
11
148.321
21
-93.6856
0
LINE
8
BLACK
6
CONTINUOUS
10
148.321
20
-93.6856
11
148.288
21
-93.6957
0
LINE
8
BLACK
6
CONTINUOUS
10
148.288
20
-93.6957
11
148.242
21
-93.7082
0
LINE
8
BLACK
6
CONTINUOUS
10
148.242
20
-93.7082
11
148.19
21
-93.7213
0
LINE
8
BLACK
6
CONTINUOUS
10
148.19
20
-93.7213
11
148.145
21
-93.732
0
LINE
8
BLACK
6
CONTINUOUS
10
148.145
20
-93.732
11
148.107
21
-93.7403
0
LINE
8
BLACK
6
CONTINUOUS
10
148.107
20
-93.7403
11
148.074
21
-93.7467
0
LINE
8
BLACK
6
CONTINUOUS
10
148.074
20
-93.7467
11
148.042
21
-93.7514
0
LINE
8
BLACK
6
CONTINUOUS
10
148.042
20
-93.7514
11
148.009
21
-93.7547
0
LINE
8
BLACK
6
CONTINUOUS
10
148.009
20
-93.7547
11
147.97
21
-93.7569
0
LINE
8
BLACK
6
CONTINUOUS
10
147.97
20
-93.7569
11
147.923
21
-93.7581
0
LINE
8
BLACK
6
CONTINUOUS
10
147.923
20
-93.7581
11
147.863
21
-93.7587
0
LINE
8
BLACK
6
CONTINUOUS
10
147.863
20
-93.7587
11
147.788
21
-93.7588
0
LINE
8
BLACK
6
CONTINUOUS
10
147.788
20
-93.7588
11
147.775
21
-93.7588
0
LINE
8
BLACK
6
CONTINUOUS
10
147.775
20
-93.7588
11
147.697
21
-93.7587
0
LINE
8
BLACK
6
CONTINUOUS
10
147.697
20
-93.7587
11
147.636
21
-93.7583
0
LINE
8
BLACK
6
CONTINUOUS
10
147.636
20
-93.7583
11
147.587
21
-93.7572
0
LINE
8
BLACK
6
CONTINUOUS
10
147.587
20
-93.7572
11
147.548
21
-93.7553
0
LINE
8
BLACK
6
CONTINUOUS
10
147.548
20
-93.7553
11
147.515
21
-93.7522
0
LINE
8
BLACK
6
CONTINUOUS
10
147.515
20
-93.7522
11
147.484
21
-93.7478
0
LINE
8
BLACK
6
CONTINUOUS
10
147.484
20
-93.7478
11
147.453
21
-93.7418
0
LINE
8
BLACK
6
CONTINUOUS
10
147.453
20
-93.7418
11
147.418
21
-93.7339
0
LINE
8
BLACK
6
CONTINUOUS
10
147.418
20
-93.7339
11
147.407
21
-93.7312
0
LINE
8
BLACK
6
CONTINUOUS
10
147.407
20
-93.7312
11
147.291
21
-93.7013
0
LINE
8
BLACK
6
CONTINUOUS
10
147.291
20
-93.7013
11
147.19
21
-93.6685
0
LINE
8
BLACK
6
CONTINUOUS
10
147.19
20
-93.6685
11
147.098
21
-93.6306
0
LINE
8
BLACK
6
CONTINUOUS
10
147.098
20
-93.6306
11
147.009
21
-93.5854
0
LINE
8
BLACK
6
CONTINUOUS
10
147.009
20
-93.5854
11
146.919
21
-93.5306
0
LINE
8
BLACK
6
CONTINUOUS
10
146.919
20
-93.5306
11
146.905
21
-93.5213
0
LINE
8
BLACK
6
CONTINUOUS
10
146.905
20
-93.5213
11
146.798
21
-93.4453
0
LINE
8
BLACK
6
CONTINUOUS
10
146.798
20
-93.4453
11
146.709
21
-93.3699
0
LINE
8
BLACK
6
CONTINUOUS
10
146.709
20
-93.3699
11
146.638
21
-93.2934
0
LINE
8
BLACK
6
CONTINUOUS
10
146.638
20
-93.2934
11
146.584
21
-93.2143
0
LINE
8
BLACK
6
CONTINUOUS
10
146.584
20
-93.2143
11
146.544
21
-93.1309
0
LINE
8
BLACK
6
CONTINUOUS
10
146.544
20
-93.1309
11
146.519
21
-93.0415
0
LINE
8
BLACK
6
CONTINUOUS
10
146.519
20
-93.0415
11
146.508
21
-92.9446
0
LINE
8
BLACK
6
CONTINUOUS
10
146.508
20
-92.9446
11
146.507
21
-92.8993
0
LINE
8
BLACK
6
CONTINUOUS
10
146.507
20
-92.8993
11
146.51
21
-92.8198
0
LINE
8
BLACK
6
CONTINUOUS
10
146.51
20
-92.8198
11
146.519
21
-92.752
0
LINE
8
BLACK
6
CONTINUOUS
10
146.519
20
-92.752
11
146.538
21
-92.6888
0
LINE
8
BLACK
6
CONTINUOUS
10
146.538
20
-92.6888
11
146.567
21
-92.623
0
LINE
8
BLACK
6
CONTINUOUS
10
146.567
20
-92.623
11
146.576
21
-92.605
0
LINE
8
BLACK
6
CONTINUOUS
10
146.576
20
-92.605
11
146.636
21
-92.5082
0
LINE
8
BLACK
6
CONTINUOUS
10
146.636
20
-92.5082
11
146.71
21
-92.4225
0
LINE
8
BLACK
6
CONTINUOUS
10
146.71
20
-92.4225
11
146.799
21
-92.3471
0
LINE
8
BLACK
6
CONTINUOUS
10
146.799
20
-92.3471
11
146.904
21
-92.2812
0
LINE
8
BLACK
6
CONTINUOUS
10
146.904
20
-92.2812
11
147.026
21
-92.2242
0
LINE
8
BLACK
6
CONTINUOUS
10
147.026
20
-92.2242
11
147.067
21
-92.2082
0
LINE
8
BLACK
6
CONTINUOUS
10
147.067
20
-92.2082
11
147.18
21
-92.1702
0
LINE
8
BLACK
6
CONTINUOUS
10
147.18
20
-92.1702
11
147.289
21
-92.1427
0
LINE
8
BLACK
6
CONTINUOUS
10
147.289
20
-92.1427
11
147.399
21
-92.1248
0
LINE
8
BLACK
6
CONTINUOUS
10
147.399
20
-92.1248
11
147.515
21
-92.1158
0
LINE
8
BLACK
6
CONTINUOUS
10
147.515
20
-92.1158
11
147.642
21
-92.1148
0
LINE
8
BLACK
6
CONTINUOUS
10
147.642
20
-92.1148
11
147.686
21
-92.1161
0
LINE
8
BLACK
6
CONTINUOUS
10
147.686
20
-92.1161
11
147.74
21
-92.1188
0
LINE
8
BLACK
6
CONTINUOUS
10
147.74
20
-92.1188
11
147.801
21
-92.1231
0
LINE
8
BLACK
6
CONTINUOUS
10
147.801
20
-92.1231
11
147.866
21
-92.1287
0
LINE
8
BLACK
6
CONTINUOUS
10
147.866
20
-92.1287
11
147.932
21
-92.1351
0
LINE
8
BLACK
6
CONTINUOUS
10
147.932
20
-92.1351
11
147.995
21
-92.1421
0
LINE
8
BLACK
6
CONTINUOUS
10
147.995
20
-92.1421
11
148.053
21
-92.1491
0
LINE
8
BLACK
6
CONTINUOUS
10
148.053
20
-92.1491
11
148.101
21
-92.156
0
LINE
8
BLACK
6
CONTINUOUS
10
148.101
20
-92.156
11
148.138
21
-92.1623
0
LINE
8
BLACK
6
CONTINUOUS
10
148.138
20
-92.1623
11
148.159
21
-92.1677
0
LINE
8
BLACK
6
CONTINUOUS
10
148.159
20
-92.1677
11
148.161
21
-92.1688
0
LINE
8
BLACK
6
CONTINUOUS
10
148.161
20
-92.1688
11
148.167
21
-92.1672
0
LINE
8
BLACK
6
CONTINUOUS
10
148.167
20
-92.1672
11
148.164
21
-92.1495
0
LINE
8
BLACK
6
CONTINUOUS
10
148.164
20
-92.1495
11
148.153
21
-92.1168
0
LINE
8
BLACK
6
CONTINUOUS
10
148.153
20
-92.1168
11
148.133
21
-92.0702
0
LINE
8
BLACK
6
CONTINUOUS
10
148.133
20
-92.0702
11
148.104
21
-92.0107
0
LINE
8
BLACK
6
CONTINUOUS
10
148.104
20
-92.0107
11
148.103
21
-92.0077
0
LINE
8
BLACK
6
CONTINUOUS
10
148.103
20
-92.0077
11
148.062
21
-91.9329
0
LINE
8
BLACK
6
CONTINUOUS
10
148.062
20
-91.9329
11
148.018
21
-91.873
0
LINE
8
BLACK
6
CONTINUOUS
10
148.018
20
-91.873
11
147.968
21
-91.8235
0
LINE
8
BLACK
6
CONTINUOUS
10
147.968
20
-91.8235
11
147.905
21
-91.7803
0
LINE
8
BLACK
6
CONTINUOUS
10
147.905
20
-91.7803
11
147.84
21
-91.7449
0
LINE
8
BLACK
6
CONTINUOUS
10
147.84
20
-91.7449
11
147.73
21
-91.699
0
LINE
8
BLACK
6
CONTINUOUS
10
147.73
20
-91.699
11
147.616
21
-91.6669
0
LINE
8
BLACK
6
CONTINUOUS
10
147.616
20
-91.6669
11
147.494
21
-91.6482
0
LINE
8
BLACK
6
CONTINUOUS
10
147.494
20
-91.6482
11
147.36
21
-91.6423
0
LINE
8
BLACK
6
CONTINUOUS
10
147.36
20
-91.6423
11
147.29
21
-91.6439
0
LINE
8
BLACK
6
CONTINUOUS
10
147.29
20
-91.6439
11
147.124
21
-91.6596
0
LINE
8
BLACK
6
CONTINUOUS
10
147.124
20
-91.6596
11
146.968
21
-91.6927
0
LINE
8
BLACK
6
CONTINUOUS
10
146.968
20
-91.6927
11
146.818
21
-91.7436
0
LINE
8
BLACK
6
CONTINUOUS
10
146.818
20
-91.7436
11
146.674
21
-91.8129
0
LINE
8
BLACK
6
CONTINUOUS
10
146.674
20
-91.8129
11
146.575
21
-91.873
0
LINE
8
BLACK
6
CONTINUOUS
10
146.575
20
-91.873
11
146.501
21
-91.9268
0
LINE
8
BLACK
6
CONTINUOUS
10
146.501
20
-91.9268
11
146.436
21
-91.9858
0
LINE
8
BLACK
6
CONTINUOUS
10
146.436
20
-91.9858
11
146.378
21
-92.0524
0
LINE
8
BLACK
6
CONTINUOUS
10
146.378
20
-92.0524
11
146.327
21
-92.1286
0
LINE
8
BLACK
6
CONTINUOUS
10
146.327
20
-92.1286
11
146.28
21
-92.2167
0
LINE
8
BLACK
6
CONTINUOUS
10
146.28
20
-92.2167
11
146.237
21
-92.3188
0
LINE
8
BLACK
6
CONTINUOUS
10
146.237
20
-92.3188
11
146.196
21
-92.4371
0
LINE
8
BLACK
6
CONTINUOUS
10
146.196
20
-92.4371
11
146.173
21
-92.5115
0
LINE
8
BLACK
6
CONTINUOUS
10
146.173
20
-92.5115
11
146.139
21
-92.6385
0
LINE
8
BLACK
6
CONTINUOUS
10
146.139
20
-92.6385
11
146.11
21
-92.7686
0
LINE
8
BLACK
6
CONTINUOUS
10
146.11
20
-92.7686
11
146.086
21
-92.9036
0
LINE
8
BLACK
6
CONTINUOUS
10
146.086
20
-92.9036
11
146.067
21
-93.0456
0
LINE
8
BLACK
6
CONTINUOUS
10
146.067
20
-93.0456
11
146.053
21
-93.1966
0
LINE
8
BLACK
6
CONTINUOUS
10
146.053
20
-93.1966
11
146.044
21
-93.3585
0
LINE
8
BLACK
6
CONTINUOUS
10
146.044
20
-93.3585
11
146.039
21
-93.5334
0
LINE
8
BLACK
6
CONTINUOUS
10
146.039
20
-93.5334
11
146.039
21
-93.7232
0
LINE
8
BLACK
6
CONTINUOUS
10
146.039
20
-93.7232
11
146.043
21
-93.93
0
LINE
8
BLACK
6
CONTINUOUS
10
146.779
20
-92.9652
11
146.788
21
-93.0175
0
LINE
8
BLACK
6
CONTINUOUS
10
146.788
20
-93.0175
11
146.804
21
-93.062
0
LINE
8
BLACK
6
CONTINUOUS
10
146.804
20
-93.062
11
146.832
21
-93.1042
0
LINE
8
BLACK
6
CONTINUOUS
10
146.832
20
-93.1042
11
146.871
21
-93.1499
0
LINE
8
BLACK
6
CONTINUOUS
10
146.871
20
-93.1499
11
146.872
21
-93.1504
0
LINE
8
BLACK
6
CONTINUOUS
10
146.872
20
-93.1504
11
146.967
21
-93.2376
0
LINE
8
BLACK
6
CONTINUOUS
10
146.967
20
-93.2376
11
147.077
21
-93.3145
0
LINE
8
BLACK
6
CONTINUOUS
10
147.077
20
-93.3145
11
147.199
21
-93.3798
0
LINE
8
BLACK
6
CONTINUOUS
10
147.199
20
-93.3798
11
147.33
21
-93.4322
0
LINE
8
BLACK
6
CONTINUOUS
10
147.33
20
-93.4322
11
147.467
21
-93.4703
0
LINE
8
BLACK
6
CONTINUOUS
10
147.467
20
-93.4703
11
147.573
21
-93.4887
0
LINE
8
BLACK
6
CONTINUOUS
10
147.573
20
-93.4887
11
147.646
21
-93.4952
0
LINE
8
BLACK
6
CONTINUOUS
10
147.646
20
-93.4952
11
147.732
21
-93.4979
0
LINE
8
BLACK
6
CONTINUOUS
10
147.732
20
-93.4979
11
147.823
21
-93.497
0
LINE
8
BLACK
6
CONTINUOUS
10
147.823
20
-93.497
11
147.911
21
-93.4924
0
LINE
8
BLACK
6
CONTINUOUS
10
147.911
20
-93.4924
11
147.991
21
-93.4845
0
LINE
8
BLACK
6
CONTINUOUS
10
147.991
20
-93.4845
11
148.022
21
-93.4798
0
LINE
8
BLACK
6
CONTINUOUS
10
148.022
20
-93.4798
11
148.15
21
-93.453
0
LINE
8
BLACK
6
CONTINUOUS
10
148.15
20
-93.453
11
148.264
21
-93.4192
0
LINE
8
BLACK
6
CONTINUOUS
10
148.264
20
-93.4192
11
148.364
21
-93.3789
0
LINE
8
BLACK
6
CONTINUOUS
10
148.364
20
-93.3789
11
148.449
21
-93.3327
0
LINE
8
BLACK
6
CONTINUOUS
10
148.449
20
-93.3327
11
148.516
21
-93.281
0
LINE
8
BLACK
6
CONTINUOUS
10
148.516
20
-93.281
11
148.567
21
-93.2244
0
LINE
8
BLACK
6
CONTINUOUS
10
148.567
20
-93.2244
11
148.591
21
-93.1826
0
LINE
8
BLACK
6
CONTINUOUS
10
148.591
20
-93.1826
11
148.607
21
-93.1256
0
LINE
8
BLACK
6
CONTINUOUS
10
148.607
20
-93.1256
11
148.611
21
-93.0567
0
LINE
8
BLACK
6
CONTINUOUS
10
148.611
20
-93.0567
11
148.602
21
-92.9789
0
LINE
8
BLACK
6
CONTINUOUS
10
148.602
20
-92.9789
11
148.582
21
-92.8951
0
LINE
8
BLACK
6
CONTINUOUS
10
148.582
20
-92.8951
11
148.551
21
-92.8081
0
LINE
8
BLACK
6
CONTINUOUS
10
148.551
20
-92.8081
11
148.532
21
-92.7666
0
LINE
8
BLACK
6
CONTINUOUS
10
148.532
20
-92.7666
11
148.513
21
-92.7318
0
LINE
8
BLACK
6
CONTINUOUS
10
148.513
20
-92.7318
11
148.487
21
-92.6918
0
LINE
8
BLACK
6
CONTINUOUS
10
148.487
20
-92.6918
11
148.457
21
-92.65
0
LINE
8
BLACK
6
CONTINUOUS
10
148.457
20
-92.65
11
148.426
21
-92.6095
0
LINE
8
BLACK
6
CONTINUOUS
10
148.426
20
-92.6095
11
148.395
21
-92.5737
0
LINE
8
BLACK
6
CONTINUOUS
10
148.395
20
-92.5737
11
148.369
21
-92.5458
0
LINE
8
BLACK
6
CONTINUOUS
10
148.369
20
-92.5458
11
148.349
21
-92.5291
0
LINE
8
BLACK
6
CONTINUOUS
10
148.349
20
-92.5291
11
148.34
21
-92.5258
0
LINE
8
BLACK
6
CONTINUOUS
10
148.34
20
-92.5258
11
148.324
21
-92.5201
0
LINE
8
BLACK
6
CONTINUOUS
10
148.324
20
-92.5201
11
148.304
21
-92.5071
0
LINE
8
BLACK
6
CONTINUOUS
10
148.304
20
-92.5071
11
148.26
21
-92.4807
0
LINE
8
BLACK
6
CONTINUOUS
10
148.26
20
-92.4807
11
148.198
21
-92.4567
0
LINE
8
BLACK
6
CONTINUOUS
10
148.198
20
-92.4567
11
148.12
21
-92.4354
0
LINE
8
BLACK
6
CONTINUOUS
10
148.12
20
-92.4354
11
148.028
21
-92.4171
0
LINE
8
BLACK
6
CONTINUOUS
10
148.028
20
-92.4171
11
147.925
21
-92.4022
0
LINE
8
BLACK
6
CONTINUOUS
10
147.925
20
-92.4022
11
147.811
21
-92.3912
0
LINE
8
BLACK
6
CONTINUOUS
10
147.811
20
-92.3912
11
147.689
21
-92.3842
0
LINE
8
BLACK
6
CONTINUOUS
10
147.689
20
-92.3842
11
147.667
21
-92.3835
0
LINE
8
BLACK
6
CONTINUOUS
10
147.667
20
-92.3835
11
147.508
21
-92.3857
0
LINE
8
BLACK
6
CONTINUOUS
10
147.508
20
-92.3857
11
147.362
21
-92.4028
0
LINE
8
BLACK
6
CONTINUOUS
10
147.362
20
-92.4028
11
147.226
21
-92.4351
0
LINE
8
BLACK
6
CONTINUOUS
10
147.226
20
-92.4351
11
147.101
21
-92.4827
0
LINE
8
BLACK
6
CONTINUOUS
10
147.101
20
-92.4827
11
146.991
21
-92.5415
0
LINE
8
BLACK
6
CONTINUOUS
10
146.991
20
-92.5415
11
146.913
21
-92.5996
0
LINE
8
BLACK
6
CONTINUOUS
10
146.913
20
-92.5996
11
146.851
21
-92.6682
0
LINE
8
BLACK
6
CONTINUOUS
10
146.851
20
-92.6682
11
146.808
21
-92.7371
0
LINE
8
BLACK
6
CONTINUOUS
10
146.808
20
-92.7371
11
146.794
21
-92.7653
0
LINE
8
BLACK
6
CONTINUOUS
10
146.794
20
-92.7653
11
146.785
21
-92.789
0
LINE
8
BLACK
6
CONTINUOUS
10
146.785
20
-92.789
11
146.78
21
-92.8141
0
LINE
8
BLACK
6
CONTINUOUS
10
146.78
20
-92.8141
11
146.778
21
-92.8464
0
LINE
8
BLACK
6
CONTINUOUS
10
146.778
20
-92.8464
11
146.777
21
-92.8918
0
LINE
8
BLACK
6
CONTINUOUS
10
146.777
20
-92.8918
11
146.777
21
-92.8993
0
LINE
8
BLACK
6
CONTINUOUS
10
146.777
20
-92.8993
11
146.779
21
-92.9652
0
LINE
8
BLACK
6
CONTINUOUS
10
151.431
20
-93.1683
11
151.435
21
-93.1712
0
LINE
8
BLACK
6
CONTINUOUS
10
151.435
20
-93.1712
11
151.439
21
-93.1717
0
LINE
8
BLACK
6
CONTINUOUS
10
151.439
20
-93.1717
11
151.534
21
-93.2194
0
LINE
8
BLACK
6
CONTINUOUS
10
151.534
20
-93.2194
11
151.552
21
-93.2327
0
LINE
8
BLACK
6
CONTINUOUS
10
151.552
20
-93.2327
11
151.554
21
-93.2334
0
LINE
8
BLACK
6
CONTINUOUS
10
151.554
20
-93.2334
11
151.649
21
-93.3286
0
LINE
8
BLACK
6
CONTINUOUS
10
151.649
20
-93.3286
11
151.664
21
-93.35
0
LINE
8
BLACK
6
CONTINUOUS
10
151.664
20
-93.35
11
151.665
21
-93.3574
0
LINE
8
BLACK
6
CONTINUOUS
10
151.665
20
-93.3574
11
151.669
21
-93.3635
0
LINE
8
BLACK
6
CONTINUOUS
10
151.669
20
-93.3635
11
151.716
21
-93.554
0
LINE
8
BLACK
6
CONTINUOUS
10
151.716
20
-93.554
11
151.717
21
-93.5689
0
LINE
8
BLACK
6
CONTINUOUS
10
151.717
20
-93.5689
11
151.719
21
-93.5722
0
LINE
8
BLACK
6
CONTINUOUS
10
151.719
20
-93.5722
11
151.719
21
-93.9055
0
LINE
8
BLACK
6
CONTINUOUS
10
151.719
20
-93.9055
11
151.716
21
-93.9202
0
LINE
8
BLACK
6
CONTINUOUS
10
151.716
20
-93.9202
11
151.716
21
-93.9237
0
LINE
8
BLACK
6
CONTINUOUS
10
151.716
20
-93.9237
11
151.669
21
-94.1142
0
LINE
8
BLACK
6
CONTINUOUS
10
151.669
20
-94.1142
11
151.658
21
-94.1379
0
LINE
8
BLACK
6
CONTINUOUS
10
151.658
20
-94.1379
11
151.652
21
-94.1423
0
LINE
8
BLACK
6
CONTINUOUS
10
151.652
20
-94.1423
11
151.649
21
-94.149
0
LINE
8
BLACK
6
CONTINUOUS
10
151.649
20
-94.149
11
151.607
21
-94.1912
0
LINE
8
BLACK
6
CONTINUOUS
10
151.607
20
-94.1912
11
151.64
21
-94.2248
0
LINE
8
BLACK
6
CONTINUOUS
10
151.64
20
-94.2248
11
151.725
21
-94.267
0
LINE
8
BLACK
6
CONTINUOUS
10
151.725
20
-94.267
11
151.746
21
-94.2825
0
LINE
8
BLACK
6
CONTINUOUS
10
151.746
20
-94.2825
11
151.766
21
-94.3296
0
LINE
8
BLACK
6
CONTINUOUS
10
151.766
20
-94.3296
11
151.751
21
-94.3787
0
LINE
8
BLACK
6
CONTINUOUS
10
151.751
20
-94.3787
11
151.709
21
-94.407
0
LINE
8
BLACK
6
CONTINUOUS
10
151.709
20
-94.407
11
151.658
21
-94.4011
0
LINE
8
BLACK
6
CONTINUOUS
10
151.658
20
-94.4011
11
151.562
21
-94.3535
0
LINE
8
BLACK
6
CONTINUOUS
10
151.562
20
-94.3535
11
151.544
21
-94.3402
0
LINE
8
BLACK
6
CONTINUOUS
10
151.544
20
-94.3402
11
151.543
21
-94.3395
0
LINE
8
BLACK
6
CONTINUOUS
10
151.543
20
-94.3395
11
151.486
21
-94.2825
0
LINE
8
BLACK
6
CONTINUOUS
10
151.486
20
-94.2825
11
151.439
21
-94.3059
0
LINE
8
BLACK
6
CONTINUOUS
10
151.439
20
-94.3059
11
151.414
21
-94.3133
0
LINE
8
BLACK
6
CONTINUOUS
10
151.414
20
-94.3133
11
151.41
21
-94.3123
0
LINE
8
BLACK
6
CONTINUOUS
10
151.41
20
-94.3123
11
151.405
21
-94.3138
0
LINE
8
BLACK
6
CONTINUOUS
10
151.405
20
-94.3138
11
151.215
21
-94.3138
0
LINE
8
BLACK
6
CONTINUOUS
10
151.215
20
-94.3138
11
151.189
21
-94.3093
0
LINE
8
BLACK
6
CONTINUOUS
10
151.189
20
-94.3093
11
151.186
21
-94.3064
0
LINE
8
BLACK
6
CONTINUOUS
10
151.186
20
-94.3064
11
151.181
21
-94.3059
0
LINE
8
BLACK
6
CONTINUOUS
10
151.181
20
-94.3059
11
151.086
21
-94.2583
0
LINE
8
BLACK
6
CONTINUOUS
10
151.086
20
-94.2583
11
151.068
21
-94.2449
0
LINE
8
BLACK
6
CONTINUOUS
10
151.068
20
-94.2449
11
151.067
21
-94.2442
0
LINE
8
BLACK
6
CONTINUOUS
10
151.067
20
-94.2442
11
150.971
21
-94.149
0
LINE
8
BLACK
6
CONTINUOUS
10
150.971
20
-94.149
11
150.957
21
-94.1277
0
LINE
8
BLACK
6
CONTINUOUS
10
150.957
20
-94.1277
11
150.956
21
-94.1203
0
LINE
8
BLACK
6
CONTINUOUS
10
150.956
20
-94.1203
11
150.952
21
-94.1142
0
LINE
8
BLACK
6
CONTINUOUS
10
150.952
20
-94.1142
11
150.904
21
-93.9237
0
LINE
8
BLACK
6
CONTINUOUS
10
150.904
20
-93.9237
11
150.903
21
-93.9087
0
LINE
8
BLACK
6
CONTINUOUS
10
150.903
20
-93.9087
11
150.902
21
-93.9055
0
LINE
8
BLACK
6
CONTINUOUS
10
150.902
20
-93.9055
11
150.902
21
-93.5722
0
LINE
8
BLACK
6
CONTINUOUS
10
150.902
20
-93.5722
11
150.904
21
-93.5574
0
LINE
8
BLACK
6
CONTINUOUS
10
150.904
20
-93.5574
11
150.904
21
-93.554
0
LINE
8
BLACK
6
CONTINUOUS
10
150.904
20
-93.554
11
150.952
21
-93.3635
0
LINE
8
BLACK
6
CONTINUOUS
10
150.952
20
-93.3635
11
150.962
21
-93.3397
0
LINE
8
BLACK
6
CONTINUOUS
10
150.962
20
-93.3397
11
150.968
21
-93.3353
0
LINE
8
BLACK
6
CONTINUOUS
10
150.968
20
-93.3353
11
150.971
21
-93.3286
0
LINE
8
BLACK
6
CONTINUOUS
10
150.971
20
-93.3286
11
151.067
21
-93.2334
0
LINE
8
BLACK
6
CONTINUOUS
10
151.067
20
-93.2334
11
151.085
21
-93.2205
0
LINE
8
BLACK
6
CONTINUOUS
10
151.085
20
-93.2205
11
151.086
21
-93.2194
0
LINE
8
BLACK
6
CONTINUOUS
10
151.086
20
-93.2194
11
151.181
21
-93.1717
0
LINE
8
BLACK
6
CONTINUOUS
10
151.181
20
-93.1717
11
151.206
21
-93.1643
0
LINE
8
BLACK
6
CONTINUOUS
10
151.206
20
-93.1643
11
151.211
21
-93.1654
0
LINE
8
BLACK
6
CONTINUOUS
10
151.211
20
-93.1654
11
151.215
21
-93.1638
0
LINE
8
BLACK
6
CONTINUOUS
10
151.215
20
-93.1638
11
151.405
21
-93.1638
0
LINE
8
BLACK
6
CONTINUOUS
10
151.405
20
-93.1638
11
151.431
21
-93.1683
0
LINE
8
BLACK
6
CONTINUOUS
10
151.164
20
-93.3481
11
151.092
21
-93.42
0
LINE
8
BLACK
6
CONTINUOUS
10
151.092
20
-93.42
11
151.052
21
-93.5814
0
LINE
8
BLACK
6
CONTINUOUS
10
151.052
20
-93.5814
11
151.052
21
-93.8962
0
LINE
8
BLACK
6
CONTINUOUS
10
151.052
20
-93.8962
11
151.092
21
-94.0576
0
LINE
8
BLACK
6
CONTINUOUS
10
151.092
20
-94.0576
11
151.164
21
-94.1296
0
LINE
8
BLACK
6
CONTINUOUS
10
151.164
20
-94.1296
11
151.233
21
-94.1638
0
LINE
8
BLACK
6
CONTINUOUS
10
151.233
20
-94.1638
11
151.367
21
-94.1638
0
LINE
8
BLACK
6
CONTINUOUS
10
151.367
20
-94.1638
11
151.313
21
-94.11
0
LINE
8
BLACK
6
CONTINUOUS
10
151.313
20
-94.11
11
151.245
21
-94.0757
0
LINE
8
BLACK
6
CONTINUOUS
10
151.245
20
-94.0757
11
151.167
21
-94.0757
0
LINE
8
BLACK
6
CONTINUOUS
10
151.167
20
-94.0757
11
151.142
21
-94.0712
0
LINE
8
BLACK
6
CONTINUOUS
10
151.142
20
-94.0712
11
151.102
21
-94.0382
0
LINE
8
BLACK
6
CONTINUOUS
10
151.102
20
-94.0382
11
151.093
21
-93.9877
0
LINE
8
BLACK
6
CONTINUOUS
10
151.093
20
-93.9877
11
151.119
21
-93.9433
0
LINE
8
BLACK
6
CONTINUOUS
10
151.119
20
-93.9433
11
151.167
21
-93.9257
0
LINE
8
BLACK
6
CONTINUOUS
10
151.167
20
-93.9257
11
151.263
21
-93.9257
0
LINE
8
BLACK
6
CONTINUOUS
10
151.263
20
-93.9257
11
151.288
21
-93.9302
0
LINE
8
BLACK
6
CONTINUOUS
10
151.288
20
-93.9302
11
151.292
21
-93.9331
0
LINE
8
BLACK
6
CONTINUOUS
10
151.292
20
-93.9331
11
151.296
21
-93.9336
0
LINE
8
BLACK
6
CONTINUOUS
10
151.296
20
-93.9336
11
151.391
21
-93.9813
0
LINE
8
BLACK
6
CONTINUOUS
10
151.391
20
-93.9813
11
151.409
21
-93.9946
0
LINE
8
BLACK
6
CONTINUOUS
10
151.409
20
-93.9946
11
151.411
21
-93.9953
0
LINE
8
BLACK
6
CONTINUOUS
10
151.411
20
-93.9953
11
151.501
21
-94.0851
0
LINE
8
BLACK
6
CONTINUOUS
10
151.501
20
-94.0851
11
151.528
21
-94.0576
0
LINE
8
BLACK
6
CONTINUOUS
10
151.528
20
-94.0576
11
151.569
21
-93.8963
0
LINE
8
BLACK
6
CONTINUOUS
10
151.569
20
-93.8963
11
151.569
21
-93.5814
0
LINE
8
BLACK
6
CONTINUOUS
10
151.569
20
-93.5814
11
151.528
21
-93.42
0
LINE
8
BLACK
6
CONTINUOUS
10
151.528
20
-93.42
11
151.456
21
-93.3481
0
LINE
8
BLACK
6
CONTINUOUS
10
151.456
20
-93.3481
11
151.388
21
-93.3138
0
LINE
8
BLACK
6
CONTINUOUS
10
151.388
20
-93.3138
11
151.233
21
-93.3138
0
LINE
8
BLACK
6
CONTINUOUS
10
151.233
20
-93.3138
11
151.164
21
-93.3481
0
LINE
8
BLACK
6
CONTINUOUS
10
153.669
20
-93.1683
11
153.673
21
-93.1712
0
LINE
8
BLACK
6
CONTINUOUS
10
153.673
20
-93.1712
11
153.677
21
-93.1717
0
LINE
8
BLACK
6
CONTINUOUS
10
153.677
20
-93.1717
11
153.772
21
-93.2194
0
LINE
8
BLACK
6
CONTINUOUS
10
153.772
20
-93.2194
11
153.79
21
-93.2327
0
LINE
8
BLACK
6
CONTINUOUS
10
153.79
20
-93.2327
11
153.792
21
-93.2334
0
LINE
8
BLACK
6
CONTINUOUS
10
153.792
20
-93.2334
11
153.839
21
-93.281
0
LINE
8
BLACK
6
CONTINUOUS
10
153.839
20
-93.281
11
153.852
21
-93.2994
0
LINE
8
BLACK
6
CONTINUOUS
10
153.852
20
-93.2994
11
153.853
21
-93.3005
0
LINE
8
BLACK
6
CONTINUOUS
10
153.853
20
-93.3005
11
153.901
21
-93.3958
0
LINE
8
BLACK
6
CONTINUOUS
10
153.901
20
-93.3958
11
153.909
21
-93.4207
0
LINE
8
BLACK
6
CONTINUOUS
10
153.909
20
-93.4207
11
153.907
21
-93.4251
0
LINE
8
BLACK
6
CONTINUOUS
10
153.907
20
-93.4251
11
153.909
21
-93.4293
0
LINE
8
BLACK
6
CONTINUOUS
10
153.909
20
-93.4293
11
153.909
21
-93.4769
0
LINE
8
BLACK
6
CONTINUOUS
10
153.909
20
-93.4769
11
153.904
21
-93.5026
0
LINE
8
BLACK
6
CONTINUOUS
10
153.904
20
-93.5026
11
153.902
21
-93.506
0
LINE
8
BLACK
6
CONTINUOUS
10
153.902
20
-93.506
11
153.901
21
-93.5105
0
LINE
8
BLACK
6
CONTINUOUS
10
153.901
20
-93.5105
11
153.853
21
-93.6057
0
LINE
8
BLACK
6
CONTINUOUS
10
153.853
20
-93.6057
11
153.84
21
-93.6237
0
LINE
8
BLACK
6
CONTINUOUS
10
153.84
20
-93.6237
11
153.839
21
-93.6252
0
LINE
8
BLACK
6
CONTINUOUS
10
153.839
20
-93.6252
11
153.797
21
-93.6674
0
LINE
8
BLACK
6
CONTINUOUS
10
153.797
20
-93.6674
11
153.839
21
-93.7096
0
LINE
8
BLACK
6
CONTINUOUS
10
153.839
20
-93.7096
11
153.852
21
-93.728
0
LINE
8
BLACK
6
CONTINUOUS
10
153.852
20
-93.728
11
153.853
21
-93.7291
0
LINE
8
BLACK
6
CONTINUOUS
10
153.853
20
-93.7291
11
153.901
21
-93.8243
0
LINE
8
BLACK
6
CONTINUOUS
10
153.901
20
-93.8243
11
153.909
21
-93.8493
0
LINE
8
BLACK
6
CONTINUOUS
10
153.909
20
-93.8493
11
153.907
21
-93.8537
0
LINE
8
BLACK
6
CONTINUOUS
10
153.907
20
-93.8537
11
153.909
21
-93.8579
0
LINE
8
BLACK
6
CONTINUOUS
10
153.909
20
-93.8579
11
153.909
21
-94.0483
0
LINE
8
BLACK
6
CONTINUOUS
10
153.909
20
-94.0483
11
153.904
21
-94.074
0
LINE
8
BLACK
6
CONTINUOUS
10
153.904
20
-94.074
11
153.902
21
-94.0774
0
LINE
8
BLACK
6
CONTINUOUS
10
153.902
20
-94.0774
11
153.901
21
-94.0819
0
LINE
8
BLACK
6
CONTINUOUS
10
153.901
20
-94.0819
11
153.853
21
-94.1771
0
LINE
8
BLACK
6
CONTINUOUS
10
153.853
20
-94.1771
11
153.84
21
-94.1951
0
LINE
8
BLACK
6
CONTINUOUS
10
153.84
20
-94.1951
11
153.839
21
-94.1966
0
LINE
8
BLACK
6
CONTINUOUS
10
153.839
20
-94.1966
11
153.792
21
-94.2442
0
LINE
8
BLACK
6
CONTINUOUS
10
153.792
20
-94.2442
11
153.773
21
-94.2571
0
LINE
8
BLACK
6
CONTINUOUS
10
153.773
20
-94.2571
11
153.772
21
-94.2583
0
LINE
8
BLACK
6
CONTINUOUS
10
153.772
20
-94.2583
11
153.677
21
-94.3059
0
LINE
8
BLACK
6
CONTINUOUS
10
153.677
20
-94.3059
11
153.652
21
-94.3133
0
LINE
8
BLACK
6
CONTINUOUS
10
153.652
20
-94.3133
11
153.648
21
-94.3123
0
LINE
8
BLACK
6
CONTINUOUS
10
153.648
20
-94.3123
11
153.644
21
-94.3138
0
LINE
8
BLACK
6
CONTINUOUS
10
153.644
20
-94.3138
11
153.453
21
-94.3138
0
LINE
8
BLACK
6
CONTINUOUS
10
153.453
20
-94.3138
11
153.427
21
-94.3093
0
LINE
8
BLACK
6
CONTINUOUS
10
153.427
20
-94.3093
11
153.424
21
-94.3064
0
LINE
8
BLACK
6
CONTINUOUS
10
153.424
20
-94.3064
11
153.42
21
-94.3059
0
LINE
8
BLACK
6
CONTINUOUS
10
153.42
20
-94.3059
11
153.324
21
-94.2583
0
LINE
8
BLACK
6
CONTINUOUS
10
153.324
20
-94.2583
11
153.306
21
-94.2449
0
LINE
8
BLACK
6
CONTINUOUS
10
153.306
20
-94.2449
11
153.305
21
-94.2442
0
LINE
8
BLACK
6
CONTINUOUS
10
153.305
20
-94.2442
11
153.257
21
-94.1966
0
LINE
8
BLACK
6
CONTINUOUS
10
153.257
20
-94.1966
11
153.244
21
-94.1782
0
LINE
8
BLACK
6
CONTINUOUS
10
153.244
20
-94.1782
11
153.243
21
-94.1771
0
LINE
8
BLACK
6
CONTINUOUS
10
153.243
20
-94.1771
11
153.195
21
-94.0819
0
LINE
8
BLACK
6
CONTINUOUS
10
153.195
20
-94.0819
11
153.188
21
-94.0569
0
LINE
8
BLACK
6
CONTINUOUS
10
153.188
20
-94.0569
11
153.189
21
-94.0526
0
LINE
8
BLACK
6
CONTINUOUS
10
153.189
20
-94.0526
11
153.188
21
-94.0483
0
LINE
8
BLACK
6
CONTINUOUS
10
153.188
20
-94.0483
11
153.188
21
-93.8579
0
LINE
8
BLACK
6
CONTINUOUS
10
153.188
20
-93.8579
11
153.192
21
-93.8322
0
LINE
8
BLACK
6
CONTINUOUS
10
153.192
20
-93.8322
11
153.195
21
-93.8288
0
LINE
8
BLACK
6
CONTINUOUS
10
153.195
20
-93.8288
11
153.195
21
-93.8243
0
LINE
8
BLACK
6
CONTINUOUS
10
153.195
20
-93.8243
11
153.243
21
-93.7291
0
LINE
8
BLACK
6
CONTINUOUS
10
153.243
20
-93.7291
11
153.256
21
-93.7111
0
LINE
8
BLACK
6
CONTINUOUS
10
153.256
20
-93.7111
11
153.257
21
-93.7096
0
LINE
8
BLACK
6
CONTINUOUS
10
153.257
20
-93.7096
11
153.299
21
-93.6674
0
LINE
8
BLACK
6
CONTINUOUS
10
153.299
20
-93.6674
11
153.257
21
-93.6252
0
LINE
8
BLACK
6
CONTINUOUS
10
153.257
20
-93.6252
11
153.244
21
-93.6068
0
LINE
8
BLACK
6
CONTINUOUS
10
153.244
20
-93.6068
11
153.243
21
-93.6057
0
LINE
8
BLACK
6
CONTINUOUS
10
153.243
20
-93.6057
11
153.195
21
-93.5105
0
LINE
8
BLACK
6
CONTINUOUS
10
153.195
20
-93.5105
11
153.188
21
-93.4855
0
LINE
8
BLACK
6
CONTINUOUS
10
153.188
20
-93.4855
11
153.189
21
-93.4811
0
LINE
8
BLACK
6
CONTINUOUS
10
153.189
20
-93.4811
11
153.188
21
-93.4769
0
LINE
8
BLACK
6
CONTINUOUS
10
153.188
20
-93.4769
11
153.188
21
-93.4293
0
LINE
8
BLACK
6
CONTINUOUS
10
153.188
20
-93.4293
11
153.192
21
-93.4036
0
LINE
8
BLACK
6
CONTINUOUS
10
153.192
20
-93.4036
11
153.195
21
-93.4002
0
LINE
8
BLACK
6
CONTINUOUS
10
153.195
20
-93.4002
11
153.195
21
-93.3958
0
LINE
8
BLACK
6
CONTINUOUS
10
153.195
20
-93.3958
11
153.243
21
-93.3005
0
LINE
8
BLACK
6
CONTINUOUS
10
153.243
20
-93.3005
11
153.256
21
-93.2825
0
LINE
8
BLACK
6
CONTINUOUS
10
153.256
20
-93.2825
11
153.257
21
-93.281
0
LINE
8
BLACK
6
CONTINUOUS
10
153.257
20
-93.281
11
153.305
21
-93.2334
0
LINE
8
BLACK
6
CONTINUOUS
10
153.305
20
-93.2334
11
153.323
21
-93.2205
0
LINE
8
BLACK
6
CONTINUOUS
10
153.323
20
-93.2205
11
153.324
21
-93.2194
0
LINE
8
BLACK
6
CONTINUOUS
10
153.324
20
-93.2194
11
153.42
21
-93.1717
0
LINE
8
BLACK
6
CONTINUOUS
10
153.42
20
-93.1717
11
153.444
21
-93.1643
0
LINE
8
BLACK
6
CONTINUOUS
10
153.444
20
-93.1643
11
153.449
21
-93.1654
0
LINE
8
BLACK
6
CONTINUOUS
10
153.449
20
-93.1654
11
153.453
21
-93.1638
0
LINE
8
BLACK
6
CONTINUOUS
10
153.453
20
-93.1638
11
153.644
21
-93.1638
0
LINE
8
BLACK
6
CONTINUOUS
10
153.644
20
-93.1638
11
153.669
21
-93.1683
0
LINE
8
BLACK
6
CONTINUOUS
10
153.402
20
-93.7766
11
153.372
21
-93.8071
0
LINE
8
BLACK
6
CONTINUOUS
10
153.372
20
-93.8071
11
153.338
21
-93.8756
0
LINE
8
BLACK
6
CONTINUOUS
10
153.338
20
-93.8756
11
153.338
21
-94.0306
0
LINE
8
BLACK
6
CONTINUOUS
10
153.338
20
-94.0306
11
153.372
21
-94.0992
0
LINE
8
BLACK
6
CONTINUOUS
10
153.372
20
-94.0992
11
153.402
21
-94.1296
0
LINE
8
BLACK
6
CONTINUOUS
10
153.402
20
-94.1296
11
153.471
21
-94.1638
0
LINE
8
BLACK
6
CONTINUOUS
10
153.471
20
-94.1638
11
153.626
21
-94.1638
0
LINE
8
BLACK
6
CONTINUOUS
10
153.626
20
-94.1638
11
153.694
21
-94.1296
0
LINE
8
BLACK
6
CONTINUOUS
10
153.694
20
-94.1296
11
153.725
21
-94.0992
0
LINE
8
BLACK
6
CONTINUOUS
10
153.725
20
-94.0992
11
153.759
21
-94.0306
0
LINE
8
BLACK
6
CONTINUOUS
10
153.759
20
-94.0306
11
153.759
21
-93.8756
0
LINE
8
BLACK
6
CONTINUOUS
10
153.759
20
-93.8756
11
153.725
21
-93.8071
0
LINE
8
BLACK
6
CONTINUOUS
10
153.725
20
-93.8071
11
153.694
21
-93.7766
0
LINE
8
BLACK
6
CONTINUOUS
10
153.694
20
-93.7766
11
153.626
21
-93.7424
0
LINE
8
BLACK
6
CONTINUOUS
10
153.626
20
-93.7424
11
153.471
21
-93.7424
0
LINE
8
BLACK
6
CONTINUOUS
10
153.471
20
-93.7424
11
153.402
21
-93.7766
0
LINE
8
BLACK
6
CONTINUOUS
10
153.402
20
-93.3481
11
153.372
21
-93.3785
0
LINE
8
BLACK
6
CONTINUOUS
10
153.372
20
-93.3785
11
153.338
21
-93.447
0
LINE
8
BLACK
6
CONTINUOUS
10
153.338
20
-93.447
11
153.338
21
-93.4592
0
LINE
8
BLACK
6
CONTINUOUS
10
153.338
20
-93.4592
11
153.372
21
-93.5277
0
LINE
8
BLACK
6
CONTINUOUS
10
153.372
20
-93.5277
11
153.402
21
-93.5581
0
LINE
8
BLACK
6
CONTINUOUS
10
153.402
20
-93.5581
11
153.471
21
-93.5924
0
LINE
8
BLACK
6
CONTINUOUS
10
153.471
20
-93.5924
11
153.626
21
-93.5924
0
LINE
8
BLACK
6
CONTINUOUS
10
153.626
20
-93.5924
11
153.694
21
-93.5581
0
LINE
8
BLACK
6
CONTINUOUS
10
153.694
20
-93.5581
11
153.725
21
-93.5277
0
LINE
8
BLACK
6
CONTINUOUS
10
153.725
20
-93.5277
11
153.759
21
-93.4592
0
LINE
8
BLACK
6
CONTINUOUS
10
153.759
20
-93.4592
11
153.759
21
-93.447
0
LINE
8
BLACK
6
CONTINUOUS
10
153.759
20
-93.447
11
153.725
21
-93.3785
0
LINE
8
BLACK
6
CONTINUOUS
10
153.725
20
-93.3785
11
153.694
21
-93.3481
0
LINE
8
BLACK
6
CONTINUOUS
10
153.694
20
-93.3481
11
153.626
21
-93.3138
0
LINE
8
BLACK
6
CONTINUOUS
10
153.626
20
-93.3138
11
153.471
21
-93.3138
0
LINE
8
BLACK
6
CONTINUOUS
10
153.471
20
-93.3138
11
153.402
21
-93.3481
0
LINE
8
BLACK
6
CONTINUOUS
10
150.551
20
-93.1667
11
150.561
21
-93.165
0
LINE
8
BLACK
6
CONTINUOUS
10
150.561
20
-93.165
11
150.575
21
-93.1731
0
LINE
8
BLACK
6
CONTINUOUS
10
150.575
20
-93.1731
11
150.591
21
-93.1774
0
LINE
8
BLACK
6
CONTINUOUS
10
150.591
20
-93.1774
11
150.597
21
-93.1856
0
LINE
8
BLACK
6
CONTINUOUS
10
150.597
20
-93.1856
11
150.606
21
-93.1906
0
LINE
8
BLACK
6
CONTINUOUS
10
150.606
20
-93.1906
11
150.611
21
-93.206
0
LINE
8
BLACK
6
CONTINUOUS
10
150.611
20
-93.206
11
150.621
21
-93.2194
0
LINE
8
BLACK
6
CONTINUOUS
10
150.621
20
-93.2194
11
150.62
21
-93.2294
0
LINE
8
BLACK
6
CONTINUOUS
10
150.62
20
-93.2294
11
150.623
21
-93.2388
0
LINE
8
BLACK
6
CONTINUOUS
10
150.623
20
-93.2388
11
150.623
21
-94.2388
0
LINE
8
BLACK
6
CONTINUOUS
10
150.623
20
-94.2388
11
150.619
21
-94.2645
0
LINE
8
BLACK
6
CONTINUOUS
10
150.619
20
-94.2645
11
150.586
21
-94.3038
0
LINE
8
BLACK
6
CONTINUOUS
10
150.586
20
-94.3038
11
150.535
21
-94.3127
0
LINE
8
BLACK
6
CONTINUOUS
10
150.535
20
-94.3127
11
150.491
21
-94.287
0
LINE
8
BLACK
6
CONTINUOUS
10
150.491
20
-94.287
11
150.473
21
-94.2388
0
LINE
8
BLACK
6
CONTINUOUS
10
150.473
20
-94.2388
11
150.473
21
-93.5769
0
LINE
8
BLACK
6
CONTINUOUS
10
150.473
20
-93.5769
11
150.283
21
-93.9848
0
LINE
8
BLACK
6
CONTINUOUS
10
150.283
20
-93.9848
11
150.277
21
-93.9929
0
LINE
8
BLACK
6
CONTINUOUS
10
150.277
20
-93.9929
11
150.276
21
-93.9961
0
LINE
8
BLACK
6
CONTINUOUS
10
150.276
20
-93.9961
11
150.274
21
-93.998
0
LINE
8
BLACK
6
CONTINUOUS
10
150.274
20
-93.998
11
150.268
21
-94.0062
0
LINE
8
BLACK
6
CONTINUOUS
10
150.268
20
-94.0062
11
150.25
21
-94.0144
0
LINE
8
BLACK
6
CONTINUOUS
10
150.25
20
-94.0144
11
150.234
21
-94.0255
0
LINE
8
BLACK
6
CONTINUOUS
10
150.234
20
-94.0255
11
150.228
21
-94.025
0
LINE
8
BLACK
6
CONTINUOUS
10
150.228
20
-94.025
11
150.221
21
-94.0278
0
LINE
8
BLACK
6
CONTINUOUS
10
150.221
20
-94.0278
11
150.203
21
-94.0228
0
LINE
8
BLACK
6
CONTINUOUS
10
150.203
20
-94.0228
11
150.183
21
-94.0211
0
LINE
8
BLACK
6
CONTINUOUS
10
150.183
20
-94.0211
11
150.178
21
-94.0163
0
LINE
8
BLACK
6
CONTINUOUS
10
150.178
20
-94.0163
11
150.172
21
-94.0145
0
LINE
8
BLACK
6
CONTINUOUS
10
150.172
20
-94.0145
11
150.161
21
-93.9986
0
LINE
8
BLACK
6
CONTINUOUS
10
150.161
20
-93.9986
11
150.147
21
-93.9848
0
LINE
8
BLACK
6
CONTINUOUS
10
150.147
20
-93.9848
11
149.957
21
-93.5769
0
LINE
8
BLACK
6
CONTINUOUS
10
149.957
20
-93.5769
11
149.957
21
-94.2388
0
LINE
8
BLACK
6
CONTINUOUS
10
149.957
20
-94.2388
11
149.952
21
-94.2645
0
LINE
8
BLACK
6
CONTINUOUS
10
149.952
20
-94.2645
11
149.919
21
-94.3038
0
LINE
8
BLACK
6
CONTINUOUS
10
149.919
20
-94.3038
11
149.869
21
-94.3127
0
LINE
8
BLACK
6
CONTINUOUS
10
149.869
20
-94.3127
11
149.824
21
-94.287
0
LINE
8
BLACK
6
CONTINUOUS
10
149.824
20
-94.287
11
149.807
21
-94.2388
0
LINE
8
BLACK
6
CONTINUOUS
10
149.807
20
-94.2388
11
149.807
21
-93.2388
0
LINE
8
BLACK
6
CONTINUOUS
10
149.807
20
-93.2388
11
149.811
21
-93.2132
0
LINE
8
BLACK
6
CONTINUOUS
10
149.811
20
-93.2132
11
149.818
21
-93.2055
0
LINE
8
BLACK
6
CONTINUOUS
10
149.818
20
-93.2055
11
149.82
21
-93.1958
0
LINE
8
BLACK
6
CONTINUOUS
10
149.82
20
-93.1958
11
149.834
21
-93.1864
0
LINE
8
BLACK
6
CONTINUOUS
10
149.834
20
-93.1864
11
149.844
21
-93.1739
0
LINE
8
BLACK
6
CONTINUOUS
10
149.844
20
-93.1739
11
149.854
21
-93.1721
0
LINE
8
BLACK
6
CONTINUOUS
10
149.854
20
-93.1721
11
149.862
21
-93.1664
0
LINE
8
BLACK
6
CONTINUOUS
10
149.862
20
-93.1664
11
149.879
21
-93.1678
0
LINE
8
BLACK
6
CONTINUOUS
10
149.879
20
-93.1678
11
149.895
21
-93.165
0
LINE
8
BLACK
6
CONTINUOUS
10
149.895
20
-93.165
11
149.903
21
-93.17
0
LINE
8
BLACK
6
CONTINUOUS
10
149.903
20
-93.17
11
149.913
21
-93.1708
0
LINE
8
BLACK
6
CONTINUOUS
10
149.913
20
-93.1708
11
149.925
21
-93.1824
0
LINE
8
BLACK
6
CONTINUOUS
10
149.925
20
-93.1824
11
149.939
21
-93.1906
0
LINE
8
BLACK
6
CONTINUOUS
10
149.939
20
-93.1906
11
149.942
21
-93.2
0
LINE
8
BLACK
6
CONTINUOUS
10
149.942
20
-93.2
11
149.95
21
-93.2071
0
LINE
8
BLACK
6
CONTINUOUS
10
149.95
20
-93.2071
11
150.215
21
-93.7758
0
LINE
8
BLACK
6
CONTINUOUS
10
150.215
20
-93.7758
11
150.48
21
-93.2071
0
LINE
8
BLACK
6
CONTINUOUS
10
150.48
20
-93.2071
11
150.495
21
-93.1858
0
LINE
8
BLACK
6
CONTINUOUS
10
150.495
20
-93.1858
11
150.504
21
-93.1815
0
LINE
8
BLACK
6
CONTINUOUS
10
150.504
20
-93.1815
11
150.511
21
-93.1739
0
LINE
8
BLACK
6
CONTINUOUS
10
150.511
20
-93.1739
11
150.527
21
-93.171
0
LINE
8
BLACK
6
CONTINUOUS
10
150.527
20
-93.171
11
150.542
21
-93.1641
0
LINE
8
BLACK
6
CONTINUOUS
10
150.542
20
-93.1641
11
150.551
21
-93.1667
0
LINE
8
BLACK
6
CONTINUOUS
10
152.86
20
-93.7874
11
152.899
21
-93.8204
0
LINE
8
BLACK
6
CONTINUOUS
10
152.899
20
-93.8204
11
152.908
21
-93.8709
0
LINE
8
BLACK
6
CONTINUOUS
10
152.908
20
-93.8709
11
152.882
21
-93.9153
0
LINE
8
BLACK
6
CONTINUOUS
10
152.882
20
-93.9153
11
152.834
21
-93.9329
0
LINE
8
BLACK
6
CONTINUOUS
10
152.834
20
-93.9329
11
152.072
21
-93.9329
0
LINE
8
BLACK
6
CONTINUOUS
10
152.072
20
-93.9329
11
152.046
21
-93.9283
0
LINE
8
BLACK
6
CONTINUOUS
10
152.046
20
-93.9283
11
152.007
21
-93.8954
0
LINE
8
BLACK
6
CONTINUOUS
10
152.007
20
-93.8954
11
151.998
21
-93.8448
0
LINE
8
BLACK
6
CONTINUOUS
10
151.998
20
-93.8448
11
152.024
21
-93.8004
0
LINE
8
BLACK
6
CONTINUOUS
10
152.024
20
-93.8004
11
152.072
21
-93.7829
0
LINE
8
BLACK
6
CONTINUOUS
10
152.072
20
-93.7829
11
152.834
21
-93.7829
0
LINE
8
BLACK
6
CONTINUOUS
10
152.834
20
-93.7829
11
152.86
21
-93.7874
0
LINE
8
BLACK
6
CONTINUOUS
10
147.938
20
-84.1438
11
148.554
21
-84.2231
0
LINE
8
BLACK
6
CONTINUOUS
10
148.554
20
-84.2231
11
149.163
21
-84.3418
0
LINE
8
BLACK
6
CONTINUOUS
10
149.163
20
-84.3418
11
149.764
21
-84.4993
0
LINE
8
BLACK
6
CONTINUOUS
10
149.764
20
-84.4993
11
150.353
21
-84.6949
0
LINE
8
BLACK
6
CONTINUOUS
10
150.353
20
-84.6949
11
150.928
21
-84.9279
0
LINE
8
BLACK
6
CONTINUOUS
10
150.928
20
-84.9279
11
151.488
21
-85.1973
0
LINE
8
BLACK
6
CONTINUOUS
10
151.488
20
-85.1973
11
152.029
21
-85.5019
0
LINE
8
BLACK
6
CONTINUOUS
10
152.029
20
-85.5019
11
152.549
21
-85.8406
0
LINE
8
BLACK
6
CONTINUOUS
10
152.549
20
-85.8406
11
153.046
21
-86.212
0
LINE
8
BLACK
6
CONTINUOUS
10
153.046
20
-86.212
11
153.519
21
-86.6144
0
LINE
8
BLACK
6
CONTINUOUS
10
153.519
20
-86.6144
11
153.965
21
-87.0463
0
LINE
8
BLACK
6
CONTINUOUS
10
153.965
20
-87.0463
11
154.383
21
-87.5059
0
LINE
8
BLACK
6
CONTINUOUS
10
154.383
20
-87.5059
11
154.77
21
-87.9913
0
LINE
8
BLACK
6
CONTINUOUS
10
154.77
20
-87.9913
11
155.125
21
-88.5005
0
LINE
8
BLACK
6
CONTINUOUS
10
155.125
20
-88.5005
11
155.447
21
-89.0314
0
LINE
8
BLACK
6
CONTINUOUS
10
155.447
20
-89.0314
11
155.734
21
-89.5818
0
LINE
8
BLACK
6
CONTINUOUS
10
155.734
20
-89.5818
11
155.985
21
-90.1495
0
LINE
8
BLACK
6
CONTINUOUS
10
155.985
20
-90.1495
11
156.2
21
-90.7322
0
LINE
8
BLACK
6
CONTINUOUS
10
156.2
20
-90.7322
11
156.376
21
-91.3274
0
LINE
8
BLACK
6
CONTINUOUS
10
156.376
20
-91.3274
11
156.514
21
-91.9326
0
LINE
8
BLACK
6
CONTINUOUS
10
156.514
20
-91.9326
11
156.613
21
-92.5455
0
LINE
8
BLACK
6
CONTINUOUS
10
156.613
20
-92.5455
11
156.673
21
-93.1635
0
LINE
8
BLACK
6
CONTINUOUS
10
156.673
20
-93.1635
11
156.693
21
-93.784
0
LINE
8
BLACK
6
CONTINUOUS
10
156.693
20
-93.784
11
156.673
21
-94.4045
0
LINE
8
BLACK
6
CONTINUOUS
10
156.673
20
-94.4045
11
156.613
21
-95.0225
0
LINE
8
BLACK
6
CONTINUOUS
10
156.613
20
-95.0225
11
156.514
21
-95.6354
0
LINE
8
BLACK
6
CONTINUOUS
10
156.514
20
-95.6354
11
156.376
21
-96.2406
0
LINE
8
BLACK
6
CONTINUOUS
10
156.376
20
-96.2406
11
156.2
21
-96.8358
0
LINE
8
BLACK
6
CONTINUOUS
10
156.2
20
-96.8358
11
155.985
21
-97.4185
0
LINE
8
BLACK
6
CONTINUOUS
10
155.985
20
-97.4185
11
155.734
21
-97.9862
0
LINE
8
BLACK
6
CONTINUOUS
10
155.734
20
-97.9862
11
155.447
21
-98.5366
0
LINE
8
BLACK
6
CONTINUOUS
10
155.447
20
-98.5366
11
155.125
21
-99.0675
0
LINE
8
BLACK
6
CONTINUOUS
10
155.125
20
-99.0675
11
154.77
21
-99.5767
0
LINE
8
BLACK
6
CONTINUOUS
10
154.77
20
-99.5767
11
154.383
21
-100.062
0
LINE
8
BLACK
6
CONTINUOUS
10
154.383
20
-100.062
11
153.965
21
-100.522
0
LINE
8
BLACK
6
CONTINUOUS
10
153.965
20
-100.522
11
153.519
21
-100.954
0
LINE
8
BLACK
6
CONTINUOUS
10
153.519
20
-100.954
11
153.046
21
-101.356
0
LINE
8
BLACK
6
CONTINUOUS
10
153.046
20
-101.356
11
152.549
21
-101.727
0
LINE
8
BLACK
6
CONTINUOUS
10
152.549
20
-101.727
11
152.029
21
-102.066
0
LINE
8
BLACK
6
CONTINUOUS
10
152.029
20
-102.066
11
151.488
21
-102.371
0
LINE
8
BLACK
6
CONTINUOUS
10
151.488
20
-102.371
11
150.928
21
-102.64
0
LINE
8
BLACK
6
CONTINUOUS
10
150.928
20
-102.64
11
150.353
21
-102.873
0
LINE
8
BLACK
6
CONTINUOUS
10
150.353
20
-102.873
11
149.764
21
-103.069
0
LINE
8
BLACK
6
CONTINUOUS
10
149.764
20
-103.069
11
149.163
21
-103.226
0
LINE
8
BLACK
6
CONTINUOUS
10
149.163
20
-103.226
11
148.554
21
-103.345
0
LINE
8
BLACK
6
CONTINUOUS
10
148.554
20
-103.345
11
147.938
21
-103.424
0
LINE
8
BLACK
6
CONTINUOUS
10
147.938
20
-103.424
11
147.318
21
-103.464
0
LINE
8
BLACK
6
CONTINUOUS
10
147.318
20
-103.464
11
146.698
21
-103.464
0
LINE
8
BLACK
6
CONTINUOUS
10
146.698
20
-103.464
11
146.078
21
-103.424
0
LINE
8
BLACK
6
CONTINUOUS
10
146.078
20
-103.424
11
145.462
21
-103.345
0
LINE
8
BLACK
6
CONTINUOUS
10
145.462
20
-103.345
11
144.853
21
-103.226
0
LINE
8
BLACK
6
CONTINUOUS
10
144.853
20
-103.226
11
144.252
21
-103.069
0
LINE
8
BLACK
6
CONTINUOUS
10
144.252
20
-103.069
11
143.663
21
-102.873
0
LINE
8
BLACK
6
CONTINUOUS
10
143.663
20
-102.873
11
143.088
21
-102.64
0
LINE
8
BLACK
6
CONTINUOUS
10
143.088
20
-102.64
11
142.528
21
-102.371
0
LINE
8
BLACK
6
CONTINUOUS
10
142.528
20
-102.371
11
141.987
21
-102.066
0
LINE
8
BLACK
6
CONTINUOUS
10
141.987
20
-102.066
11
141.467
21
-101.727
0
LINE
8
BLACK
6
CONTINUOUS
10
141.467
20
-101.727
11
140.97
21
-101.356
0
LINE
8
BLACK
6
CONTINUOUS
10
140.97
20
-101.356
11
140.497
21
-100.954
0
LINE
8
BLACK
6
CONTINUOUS
10
140.497
20
-100.954
11
140.051
21
-100.522
0
LINE
8
BLACK
6
CONTINUOUS
10
140.051
20
-100.522
11
139.633
21
-100.062
0
LINE
8
BLACK
6
CONTINUOUS
10
139.633
20
-100.062
11
139.246
21
-99.5767
0
LINE
8
BLACK
6
CONTINUOUS
10
139.246
20
-99.5767
11
138.891
21
-99.0675
0
LINE
8
BLACK
6
CONTINUOUS
10
138.891
20
-99.0675
11
138.569
21
-98.5366
0
LINE
8
BLACK
6
CONTINUOUS
10
138.569
20
-98.5366
11
138.282
21
-97.9862
0
LINE
8
BLACK
6
CONTINUOUS
10
138.282
20
-97.9862
11
138.031
21
-97.4185
0
LINE
8
BLACK
6
CONTINUOUS
10
138.031
20
-97.4185
11
137.816
21
-96.8358
0
LINE
8
BLACK
6
CONTINUOUS
10
137.816
20
-96.8358
11
137.64
21
-96.2406
0
LINE
8
BLACK
6
CONTINUOUS
10
137.64
20
-96.2406
11
137.502
21
-95.6354
0
LINE
8
BLACK
6
CONTINUOUS
10
137.502
20
-95.6354
11
137.403
21
-95.0225
0
LINE
8
BLACK
6
CONTINUOUS
10
137.403
20
-95.0225
11
137.343
21
-94.4045
0
LINE
8
BLACK
6
CONTINUOUS
10
137.343
20
-94.4045
11
137.323
21
-93.784
0
LINE
8
BLACK
6
CONTINUOUS
10
137.323
20
-93.784
11
137.343
21
-93.1635
0
LINE
8
BLACK
6
CONTINUOUS
10
137.343
20
-93.1635
11
137.403
21
-92.5455
0
LINE
8
BLACK
6
CONTINUOUS
10
137.403
20
-92.5455
11
137.502
21
-91.9326
0
LINE
8
BLACK
6
CONTINUOUS
10
137.502
20
-91.9326
11
137.64
21
-91.3274
0
LINE
8
BLACK
6
CONTINUOUS
10
137.64
20
-91.3274
11
137.816
21
-90.7322
0
LINE
8
BLACK
6
CONTINUOUS
10
137.816
20
-90.7322
11
138.031
21
-90.1495
0
LINE
8
BLACK
6
CONTINUOUS
10
138.031
20
-90.1495
11
138.282
21
-89.5818
0
LINE
8
BLACK
6
CONTINUOUS
10
138.282
20
-89.5818
11
138.569
21
-89.0314
0
LINE
8
BLACK
6
CONTINUOUS
10
138.569
20
-89.0314
11
138.891
21
-88.5005
0
LINE
8
BLACK
6
CONTINUOUS
10
138.891
20
-88.5005
11
139.246
21
-87.9913
0
LINE
8
BLACK
6
CONTINUOUS
10
139.246
20
-87.9913
11
139.633
21
-87.5059
0
LINE
8
BLACK
6
CONTINUOUS
10
139.633
20
-87.5059
11
140.051
21
-87.0463
0
LINE
8
BLACK
6
CONTINUOUS
10
140.051
20
-87.0463
11
140.497
21
-86.6144
0
LINE
8
BLACK
6
CONTINUOUS
10
140.497
20
-86.6144
11
140.97
21
-86.212
0
LINE
8
BLACK
6
CONTINUOUS
10
140.97
20
-86.212
11
141.467
21
-85.8406
0
LINE
8
BLACK
6
CONTINUOUS
10
141.467
20
-85.8406
11
141.987
21
-85.5019
0
LINE
8
BLACK
6
CONTINUOUS
10
141.987
20
-85.5019
11
142.528
21
-85.1973
0
LINE
8
BLACK
6
CONTINUOUS
10
142.528
20
-85.1973
11
143.088
21
-84.9279
0
LINE
8
BLACK
6
CONTINUOUS
10
143.088
20
-84.9279
11
143.663
21
-84.6949
0
LINE
8
BLACK
6
CONTINUOUS
10
143.663
20
-84.6949
11
144.252
21
-84.4993
0
LINE
8
BLACK
6
CONTINUOUS
10
144.252
20
-84.4993
11
144.853
21
-84.3418
0
LINE
8
BLACK
6
CONTINUOUS
10
144.853
20
-84.3418
11
145.462
21
-84.2231
0
LINE
8
BLACK
6
CONTINUOUS
10
145.462
20
-84.2231
11
146.078
21
-84.1438
0
LINE
8
BLACK
6
CONTINUOUS
10
146.078
20
-84.1438
11
146.698
21
-84.104
0
LINE
8
BLACK
6
CONTINUOUS
10
146.698
20
-84.104
11
147.318
21
-84.104
0
LINE
8
BLACK
6
CONTINUOUS
10
147.318
20
-84.104
11
147.938
21
-84.1438
0
LINE
8
BLACK
6
CONTINUOUS
10
137.458
20
-94.3971
11
137.517
21
-95.0078
0
LINE
8
BLACK
6
CONTINUOUS
10
137.517
20
-95.0078
11
137.615
21
-95.6134
0
LINE
8
BLACK
6
CONTINUOUS
10
137.615
20
-95.6134
11
137.751
21
-96.2115
0
LINE
8
BLACK
6
CONTINUOUS
10
137.751
20
-96.2115
11
137.926
21
-96.7996
0
LINE
8
BLACK
6
CONTINUOUS
10
137.926
20
-96.7996
11
138.137
21
-97.3753
0
LINE
8
BLACK
6
CONTINUOUS
10
138.137
20
-97.3753
11
138.386
21
-97.9362
0
LINE
8
BLACK
6
CONTINUOUS
10
138.386
20
-97.9362
11
138.67
21
-98.4801
0
LINE
8
BLACK
6
CONTINUOUS
10
138.67
20
-98.4801
11
138.988
21
-99.0047
0
LINE
8
BLACK
6
CONTINUOUS
10
138.988
20
-99.0047
11
139.339
21
-99.5079
0
LINE
8
BLACK
6
CONTINUOUS
10
139.339
20
-99.5079
11
139.721
21
-99.9875
0
LINE
8
BLACK
6
CONTINUOUS
10
139.721
20
-99.9875
11
140.133
21
-100.442
0
LINE
8
BLACK
6
CONTINUOUS
10
140.133
20
-100.442
11
140.574
21
-100.868
0
LINE
8
BLACK
6
CONTINUOUS
10
140.574
20
-100.868
11
141.041
21
-101.266
0
LINE
8
BLACK
6
CONTINUOUS
10
141.041
20
-101.266
11
141.533
21
-101.633
0
LINE
8
BLACK
6
CONTINUOUS
10
141.533
20
-101.633
11
142.047
21
-101.968
0
LINE
8
BLACK
6
CONTINUOUS
10
142.047
20
-101.968
11
142.582
21
-102.269
0
LINE
8
BLACK
6
CONTINUOUS
10
142.582
20
-102.269
11
143.134
21
-102.535
0
LINE
8
BLACK
6
CONTINUOUS
10
143.134
20
-102.535
11
143.703
21
-102.765
0
LINE
8
BLACK
6
CONTINUOUS
10
143.703
20
-102.765
11
144.285
21
-102.958
0
LINE
8
BLACK
6
CONTINUOUS
10
144.285
20
-102.958
11
144.878
21
-103.114
0
LINE
8
BLACK
6
CONTINUOUS
10
144.878
20
-103.114
11
145.481
21
-103.231
0
LINE
8
BLACK
6
CONTINUOUS
10
145.481
20
-103.231
11
146.089
21
-103.31
0
LINE
8
BLACK
6
CONTINUOUS
10
146.089
20
-103.31
11
146.701
21
-103.349
0
LINE
8
BLACK
6
CONTINUOUS
10
146.701
20
-103.349
11
147.315
21
-103.349
0
LINE
8
BLACK
6
CONTINUOUS
10
147.315
20
-103.349
11
147.927
21
-103.31
0
LINE
8
BLACK
6
CONTINUOUS
10
147.927
20
-103.31
11
148.535
21
-103.231
0
LINE
8
BLACK
6
CONTINUOUS
10
148.535
20
-103.231
11
149.138
21
-103.114
0
LINE
8
BLACK
6
CONTINUOUS
10
149.138
20
-103.114
11
149.731
21
-102.958
0
LINE
8
BLACK
6
CONTINUOUS
10
149.731
20
-102.958
11
150.313
21
-102.765
0
LINE
8
BLACK
6
CONTINUOUS
10
150.313
20
-102.765
11
150.882
21
-102.535
0
LINE
8
BLACK
6
CONTINUOUS
10
150.882
20
-102.535
11
151.434
21
-102.269
0
LINE
8
BLACK
6
CONTINUOUS
10
151.434
20
-102.269
11
151.969
21
-101.968
0
LINE
8
BLACK
6
CONTINUOUS
10
151.969
20
-101.968
11
152.483
21
-101.633
0
LINE
8
BLACK
6
CONTINUOUS
10
152.483
20
-101.633
11
152.975
21
-101.266
0
LINE
8
BLACK
6
CONTINUOUS
10
152.975
20
-101.266
11
153.442
21
-100.868
0
LINE
8
BLACK
6
CONTINUOUS
10
153.442
20
-100.868
11
153.883
21
-100.442
0
LINE
8
BLACK
6
CONTINUOUS
10
153.883
20
-100.442
11
154.295
21
-99.9875
0
LINE
8
BLACK
6
CONTINUOUS
10
154.295
20
-99.9875
11
154.677
21
-99.5079
0
LINE
8
BLACK
6
CONTINUOUS
10
154.677
20
-99.5079
11
155.028
21
-99.0047
0
LINE
8
BLACK
6
CONTINUOUS
10
155.028
20
-99.0047
11
155.346
21
-98.4801
0
LINE
8
BLACK
6
CONTINUOUS
10
155.346
20
-98.4801
11
155.63
21
-97.9362
0
LINE
8
BLACK
6
CONTINUOUS
10
155.63
20
-97.9362
11
155.879
21
-97.3753
0
LINE
8
BLACK
6
CONTINUOUS
10
155.879
20
-97.3753
11
156.09
21
-96.7996
0
LINE
8
BLACK
6
CONTINUOUS
10
156.09
20
-96.7996
11
156.265
21
-96.2115
0
LINE
8
BLACK
6
CONTINUOUS
10
156.265
20
-96.2115
11
156.401
21
-95.6134
0
LINE
8
BLACK
6
CONTINUOUS
10
156.401
20
-95.6134
11
156.499
21
-95.0078
0
LINE
8
BLACK
6
CONTINUOUS
10
156.499
20
-95.0078
11
156.558
21
-94.3971
0
LINE
8
BLACK
6
CONTINUOUS
10
156.558
20
-94.3971
11
156.578
21
-93.784
0
LINE
8
BLACK
6
CONTINUOUS
10
156.578
20
-93.784
11
156.558
21
-93.1709
0
LINE
8
BLACK
6
CONTINUOUS
10
156.558
20
-93.1709
11
156.499
21
-92.5602
0
LINE
8
BLACK
6
CONTINUOUS
10
156.499
20
-92.5602
11
156.401
21
-91.9546
0
LINE
8
BLACK
6
CONTINUOUS
10
156.401
20
-91.9546
11
156.265
21
-91.3565
0
LINE
8
BLACK
6
CONTINUOUS
10
156.265
20
-91.3565
11
156.09
21
-90.7684
0
LINE
8
BLACK
6
CONTINUOUS
10
156.09
20
-90.7684
11
155.879
21
-90.1927
0
LINE
8
BLACK
6
CONTINUOUS
10
155.879
20
-90.1927
11
155.63
21
-89.6318
0
LINE
8
BLACK
6
CONTINUOUS
10
155.63
20
-89.6318
11
155.346
21
-89.0879
0
LINE
8
BLACK
6
CONTINUOUS
10
155.346
20
-89.0879
11
155.028
21
-88.5633
0
LINE
8
BLACK
6
CONTINUOUS
10
155.028
20
-88.5633
11
154.677
21
-88.0601
0
LINE
8
BLACK
6
CONTINUOUS
10
154.677
20
-88.0601
11
154.295
21
-87.5805
0
LINE
8
BLACK
6
CONTINUOUS
10
154.295
20
-87.5805
11
153.883
21
-87.1264
0
LINE
8
BLACK
6
CONTINUOUS
10
153.883
20
-87.1264
11
153.442
21
-86.6996
0
LINE
8
BLACK
6
CONTINUOUS
10
153.442
20
-86.6996
11
152.975
21
-86.3019
0
LINE
8
BLACK
6
CONTINUOUS
10
152.975
20
-86.3019
11
152.483
21
-85.935
0
LINE
8
BLACK
6
CONTINUOUS
10
152.483
20
-85.935
11
151.969
21
-85.6004
0
LINE
8
BLACK
6
CONTINUOUS
10
151.969
20
-85.6004
11
151.434
21
-85.2993
0
LINE
8
BLACK
6
CONTINUOUS
10
151.434
20
-85.2993
11
150.882
21
-85.0331
0
LINE
8
BLACK
6
CONTINUOUS
10
150.882
20
-85.0331
11
150.313
21
-84.8029
0
LINE
8
BLACK
6
CONTINUOUS
10
150.313
20
-84.8029
11
149.731
21
-84.6096
0
LINE
8
BLACK
6
CONTINUOUS
10
149.731
20
-84.6096
11
149.138
21
-84.454
0
LINE
8
BLACK
6
CONTINUOUS
10
149.138
20
-84.454
11
148.535
21
-84.3368
0
LINE
8
BLACK
6
CONTINUOUS
10
148.535
20
-84.3368
11
147.927
21
-84.2583
0
LINE
8
BLACK
6
CONTINUOUS
10
147.927
20
-84.2583
11
147.315
21
-84.219
0
LINE
8
BLACK
6
CONTINUOUS
10
147.315
20
-84.219
11
146.701
21
-84.219
0
LINE
8
BLACK
6
CONTINUOUS
10
146.701
20
-84.219
11
146.089
21
-84.2583
0
LINE
8
BLACK
6
CONTINUOUS
10
146.089
20
-84.2583
11
145.481
21
-84.3368
0
LINE
8
BLACK
6
CONTINUOUS
10
145.481
20
-84.3368
11
144.878
21
-84.454
0
LINE
8
BLACK
6
CONTINUOUS
10
144.878
20
-84.454
11
144.285
21
-84.6096
0
LINE
8
BLACK
6
CONTINUOUS
10
144.285
20
-84.6096
11
143.703
21
-84.8029
0
LINE
8
BLACK
6
CONTINUOUS
10
143.703
20
-84.8029
11
143.134
21
-85.0331
0
LINE
8
BLACK
6
CONTINUOUS
10
143.134
20
-85.0331
11
142.582
21
-85.2993
0
LINE
8
BLACK
6
CONTINUOUS
10
142.582
20
-85.2993
11
142.047
21
-85.6004
0
LINE
8
BLACK
6
CONTINUOUS
10
142.047
20
-85.6004
11
141.533
21
-85.935
0
LINE
8
BLACK
6
CONTINUOUS
10
141.533
20
-85.935
11
141.041
21
-86.3019
0
LINE
8
BLACK
6
CONTINUOUS
10
141.041
20
-86.3019
11
140.574
21
-86.6996
0
LINE
8
BLACK
6
CONTINUOUS
10
140.574
20
-86.6996
11
140.133
21
-87.1264
0
LINE
8
BLACK
6
CONTINUOUS
10
140.133
20
-87.1264
11
139.721
21
-87.5805
0
LINE
8
BLACK
6
CONTINUOUS
10
139.721
20
-87.5805
11
139.339
21
-88.0601
0
LINE
8
BLACK
6
CONTINUOUS
10
139.339
20
-88.0601
11
138.988
21
-88.5633
0
LINE
8
BLACK
6
CONTINUOUS
10
138.988
20
-88.5633
11
138.67
21
-89.0879
0
LINE
8
BLACK
6
CONTINUOUS
10
138.67
20
-89.0879
11
138.386
21
-89.6318
0
LINE
8
BLACK
6
CONTINUOUS
10
138.386
20
-89.6318
11
138.137
21
-90.1927
0
LINE
8
BLACK
6
CONTINUOUS
10
138.137
20
-90.1927
11
137.926
21
-90.7684
0
LINE
8
BLACK
6
CONTINUOUS
10
137.926
20
-90.7684
11
137.751
21
-91.3565
0
LINE
8
BLACK
6
CONTINUOUS
10
137.751
20
-91.3565
11
137.615
21
-91.9546
0
LINE
8
BLACK
6
CONTINUOUS
10
137.615
20
-91.9546
11
137.517
21
-92.5602
0
LINE
8
BLACK
6
CONTINUOUS
10
137.517
20
-92.5602
11
137.458
21
-93.1709
0
LINE
8
BLACK
6
CONTINUOUS
10
137.458
20
-93.1709
11
137.438
21
-93.784
0
LINE
8
BLACK
6
CONTINUOUS
10
137.438
20
-93.784
11
137.458
21
-94.3971
0
LINE
8
BLACK
6
CONTINUOUS
10
130.461
20
-96.8876
11
130.508
21
-96.9353
0
LINE
8
BLACK
6
CONTINUOUS
10
130.508
20
-96.9353
11
130.523
21
-96.9566
0
LINE
8
BLACK
6
CONTINUOUS
10
130.523
20
-96.9566
11
130.524
21
-96.9611
0
LINE
8
BLACK
6
CONTINUOUS
10
130.524
20
-96.9611
11
130.526
21
-96.9646
0
LINE
8
BLACK
6
CONTINUOUS
10
130.526
20
-96.9646
11
130.574
21
-97.1074
0
LINE
8
BLACK
6
CONTINUOUS
10
130.574
20
-97.1074
11
130.577
21
-97.1296
0
LINE
8
BLACK
6
CONTINUOUS
10
130.577
20
-97.1296
11
130.578
21
-97.1311
0
LINE
8
BLACK
6
CONTINUOUS
10
130.578
20
-97.1311
11
130.578
21
-97.2264
0
LINE
8
BLACK
6
CONTINUOUS
10
130.578
20
-97.2264
11
130.574
21
-97.2485
0
LINE
8
BLACK
6
CONTINUOUS
10
130.574
20
-97.2485
11
130.574
21
-97.2501
0
LINE
8
BLACK
6
CONTINUOUS
10
130.574
20
-97.2501
11
130.526
21
-97.393
0
LINE
8
BLACK
6
CONTINUOUS
10
130.526
20
-97.393
11
130.514
21
-97.4159
0
LINE
8
BLACK
6
CONTINUOUS
10
130.514
20
-97.4159
11
130.51
21
-97.4182
0
LINE
8
BLACK
6
CONTINUOUS
10
130.51
20
-97.4182
11
130.508
21
-97.4223
0
LINE
8
BLACK
6
CONTINUOUS
10
130.508
20
-97.4223
11
130.413
21
-97.5175
0
LINE
8
BLACK
6
CONTINUOUS
10
130.413
20
-97.5175
11
130.395
21
-97.5304
0
LINE
8
BLACK
6
CONTINUOUS
10
130.395
20
-97.5304
11
130.394
21
-97.5316
0
LINE
8
BLACK
6
CONTINUOUS
10
130.394
20
-97.5316
11
130.298
21
-97.5792
0
LINE
8
BLACK
6
CONTINUOUS
10
130.298
20
-97.5792
11
130.286
21
-97.5829
0
LINE
8
BLACK
6
CONTINUOUS
10
130.286
20
-97.5829
11
130.283
21
-97.5849
0
LINE
8
BLACK
6
CONTINUOUS
10
130.283
20
-97.5849
11
130.092
21
-97.6325
0
LINE
8
BLACK
6
CONTINUOUS
10
130.092
20
-97.6325
11
130.078
21
-97.6335
0
LINE
8
BLACK
6
CONTINUOUS
10
130.078
20
-97.6335
11
130.074
21
-97.6347
0
LINE
8
BLACK
6
CONTINUOUS
10
130.074
20
-97.6347
11
129.931
21
-97.6347
0
LINE
8
BLACK
6
CONTINUOUS
10
129.931
20
-97.6347
11
129.917
21
-97.6321
0
LINE
8
BLACK
6
CONTINUOUS
10
129.917
20
-97.6321
11
129.913
21
-97.6325
0
LINE
8
BLACK
6
CONTINUOUS
10
129.913
20
-97.6325
11
129.723
21
-97.5849
0
LINE
8
BLACK
6
CONTINUOUS
10
129.723
20
-97.5849
11
129.711
21
-97.5796
0
LINE
8
BLACK
6
CONTINUOUS
10
129.711
20
-97.5796
11
129.707
21
-97.5792
0
LINE
8
BLACK
6
CONTINUOUS
10
129.707
20
-97.5792
11
129.612
21
-97.5316
0
LINE
8
BLACK
6
CONTINUOUS
10
129.612
20
-97.5316
11
129.594
21
-97.5182
0
LINE
8
BLACK
6
CONTINUOUS
10
129.594
20
-97.5182
11
129.593
21
-97.5175
0
LINE
8
BLACK
6
CONTINUOUS
10
129.593
20
-97.5175
11
129.497
21
-97.4223
0
LINE
8
BLACK
6
CONTINUOUS
10
129.497
20
-97.4223
11
129.482
21
-97.4009
0
LINE
8
BLACK
6
CONTINUOUS
10
129.482
20
-97.4009
11
129.482
21
-97.3965
0
LINE
8
BLACK
6
CONTINUOUS
10
129.482
20
-97.3965
11
129.479
21
-97.393
0
LINE
8
BLACK
6
CONTINUOUS
10
129.479
20
-97.393
11
129.432
21
-97.2501
0
LINE
8
BLACK
6
CONTINUOUS
10
129.432
20
-97.2501
11
129.428
21
-97.2279
0
LINE
8
BLACK
6
CONTINUOUS
10
129.428
20
-97.2279
11
129.428
21
-97.2264
0
LINE
8
BLACK
6
CONTINUOUS
10
129.428
20
-97.2264
11
129.428
21
-97.1311
0
LINE
8
BLACK
6
CONTINUOUS
10
129.428
20
-97.1311
11
129.432
21
-97.1091
0
LINE
8
BLACK
6
CONTINUOUS
10
129.432
20
-97.1091
11
129.432
21
-97.1074
0
LINE
8
BLACK
6
CONTINUOUS
10
129.432
20
-97.1074
11
129.479
21
-96.9646
0
LINE
8
BLACK
6
CONTINUOUS
10
129.479
20
-96.9646
11
129.492
21
-96.9417
0
LINE
8
BLACK
6
CONTINUOUS
10
129.492
20
-96.9417
11
129.496
21
-96.9393
0
LINE
8
BLACK
6
CONTINUOUS
10
129.496
20
-96.9393
11
129.497
21
-96.9353
0
LINE
8
BLACK
6
CONTINUOUS
10
129.497
20
-96.9353
11
129.545
21
-96.8876
0
LINE
8
BLACK
6
CONTINUOUS
10
129.545
20
-96.8876
11
129.566
21
-96.8727
0
LINE
8
BLACK
6
CONTINUOUS
10
129.566
20
-96.8727
11
129.617
21
-96.8682
0
LINE
8
BLACK
6
CONTINUOUS
10
129.617
20
-96.8682
11
129.659
21
-96.8976
0
LINE
8
BLACK
6
CONTINUOUS
10
129.659
20
-96.8976
11
129.673
21
-96.9472
0
LINE
8
BLACK
6
CONTINUOUS
10
129.673
20
-96.9472
11
129.651
21
-96.9937
0
LINE
8
BLACK
6
CONTINUOUS
10
129.651
20
-96.9937
11
129.616
21
-97.0288
0
LINE
8
BLACK
6
CONTINUOUS
10
129.616
20
-97.0288
11
129.578
21
-97.1433
0
LINE
8
BLACK
6
CONTINUOUS
10
129.578
20
-97.1433
11
129.578
21
-97.2142
0
LINE
8
BLACK
6
CONTINUOUS
10
129.578
20
-97.2142
11
129.616
21
-97.3287
0
LINE
8
BLACK
6
CONTINUOUS
10
129.616
20
-97.3287
11
129.69
21
-97.4028
0
LINE
8
BLACK
6
CONTINUOUS
10
129.69
20
-97.4028
11
129.767
21
-97.4413
0
LINE
8
BLACK
6
CONTINUOUS
10
129.767
20
-97.4413
11
129.941
21
-97.4847
0
LINE
8
BLACK
6
CONTINUOUS
10
129.941
20
-97.4847
11
130.065
21
-97.4847
0
LINE
8
BLACK
6
CONTINUOUS
10
130.065
20
-97.4847
11
130.239
21
-97.4413
0
LINE
8
BLACK
6
CONTINUOUS
10
130.239
20
-97.4413
11
130.316
21
-97.4028
0
LINE
8
BLACK
6
CONTINUOUS
10
130.316
20
-97.4028
11
130.39
21
-97.3287
0
LINE
8
BLACK
6
CONTINUOUS
10
130.39
20
-97.3287
11
130.428
21
-97.2142
0
LINE
8
BLACK
6
CONTINUOUS
10
130.428
20
-97.2142
11
130.428
21
-97.1433
0
LINE
8
BLACK
6
CONTINUOUS
10
130.428
20
-97.1433
11
130.39
21
-97.0288
0
LINE
8
BLACK
6
CONTINUOUS
10
130.39
20
-97.0288
11
130.355
21
-96.9937
0
LINE
8
BLACK
6
CONTINUOUS
10
130.355
20
-96.9937
11
130.34
21
-96.9724
0
LINE
8
BLACK
6
CONTINUOUS
10
130.34
20
-96.9724
11
130.335
21
-96.9213
0
LINE
8
BLACK
6
CONTINUOUS
10
130.335
20
-96.9213
11
130.365
21
-96.8792
0
LINE
8
BLACK
6
CONTINUOUS
10
130.365
20
-96.8792
11
130.414
21
-96.866
0
LINE
8
BLACK
6
CONTINUOUS
10
130.414
20
-96.866
11
130.461
21
-96.8876
0
LINE
8
BLACK
6
CONTINUOUS
10
133.255
20
-96.8876
11
133.302
21
-96.9353
0
LINE
8
BLACK
6
CONTINUOUS
10
133.302
20
-96.9353
11
133.317
21
-96.9566
0
LINE
8
BLACK
6
CONTINUOUS
10
133.317
20
-96.9566
11
133.318
21
-96.9611
0
LINE
8
BLACK
6
CONTINUOUS
10
133.318
20
-96.9611
11
133.32
21
-96.9646
0
LINE
8
BLACK
6
CONTINUOUS
10
133.32
20
-96.9646
11
133.368
21
-97.1074
0
LINE
8
BLACK
6
CONTINUOUS
10
133.368
20
-97.1074
11
133.371
21
-97.1296
0
LINE
8
BLACK
6
CONTINUOUS
10
133.371
20
-97.1296
11
133.372
21
-97.1311
0
LINE
8
BLACK
6
CONTINUOUS
10
133.372
20
-97.1311
11
133.372
21
-97.2264
0
LINE
8
BLACK
6
CONTINUOUS
10
133.372
20
-97.2264
11
133.368
21
-97.2485
0
LINE
8
BLACK
6
CONTINUOUS
10
133.368
20
-97.2485
11
133.368
21
-97.2501
0
LINE
8
BLACK
6
CONTINUOUS
10
133.368
20
-97.2501
11
133.32
21
-97.393
0
LINE
8
BLACK
6
CONTINUOUS
10
133.32
20
-97.393
11
133.308
21
-97.4159
0
LINE
8
BLACK
6
CONTINUOUS
10
133.308
20
-97.4159
11
133.304
21
-97.4182
0
LINE
8
BLACK
6
CONTINUOUS
10
133.304
20
-97.4182
11
133.302
21
-97.4223
0
LINE
8
BLACK
6
CONTINUOUS
10
133.302
20
-97.4223
11
133.207
21
-97.5175
0
LINE
8
BLACK
6
CONTINUOUS
10
133.207
20
-97.5175
11
133.189
21
-97.5304
0
LINE
8
BLACK
6
CONTINUOUS
10
133.189
20
-97.5304
11
133.188
21
-97.5316
0
LINE
8
BLACK
6
CONTINUOUS
10
133.188
20
-97.5316
11
133.092
21
-97.5792
0
LINE
8
BLACK
6
CONTINUOUS
10
133.092
20
-97.5792
11
133.08
21
-97.5829
0
LINE
8
BLACK
6
CONTINUOUS
10
133.08
20
-97.5829
11
133.077
21
-97.5849
0
LINE
8
BLACK
6
CONTINUOUS
10
133.077
20
-97.5849
11
132.886
21
-97.6325
0
LINE
8
BLACK
6
CONTINUOUS
10
132.886
20
-97.6325
11
132.872
21
-97.6335
0
LINE
8
BLACK
6
CONTINUOUS
10
132.872
20
-97.6335
11
132.868
21
-97.6347
0
LINE
8
BLACK
6
CONTINUOUS
10
132.868
20
-97.6347
11
132.725
21
-97.6347
0
LINE
8
BLACK
6
CONTINUOUS
10
132.725
20
-97.6347
11
132.711
21
-97.6321
0
LINE
8
BLACK
6
CONTINUOUS
10
132.711
20
-97.6321
11
132.707
21
-97.6325
0
LINE
8
BLACK
6
CONTINUOUS
10
132.707
20
-97.6325
11
132.517
21
-97.5849
0
LINE
8
BLACK
6
CONTINUOUS
10
132.517
20
-97.5849
11
132.505
21
-97.5796
0
LINE
8
BLACK
6
CONTINUOUS
10
132.505
20
-97.5796
11
132.501
21
-97.5792
0
LINE
8
BLACK
6
CONTINUOUS
10
132.501
20
-97.5792
11
132.406
21
-97.5316
0
LINE
8
BLACK
6
CONTINUOUS
10
132.406
20
-97.5316
11
132.388
21
-97.5182
0
LINE
8
BLACK
6
CONTINUOUS
10
132.388
20
-97.5182
11
132.387
21
-97.5175
0
LINE
8
BLACK
6
CONTINUOUS
10
132.387
20
-97.5175
11
132.291
21
-97.4223
0
LINE
8
BLACK
6
CONTINUOUS
10
132.291
20
-97.4223
11
132.276
21
-97.4009
0
LINE
8
BLACK
6
CONTINUOUS
10
132.276
20
-97.4009
11
132.276
21
-97.3965
0
LINE
8
BLACK
6
CONTINUOUS
10
132.276
20
-97.3965
11
132.273
21
-97.393
0
LINE
8
BLACK
6
CONTINUOUS
10
132.273
20
-97.393
11
132.226
21
-97.2501
0
LINE
8
BLACK
6
CONTINUOUS
10
132.226
20
-97.2501
11
132.222
21
-97.2279
0
LINE
8
BLACK
6
CONTINUOUS
10
132.222
20
-97.2279
11
132.222
21
-97.2264
0
LINE
8
BLACK
6
CONTINUOUS
10
132.222
20
-97.2264
11
132.222
21
-97.1311
0
LINE
8
BLACK
6
CONTINUOUS
10
132.222
20
-97.1311
11
132.226
21
-97.1091
0
LINE
8
BLACK
6
CONTINUOUS
10
132.226
20
-97.1091
11
132.226
21
-97.1074
0
LINE
8
BLACK
6
CONTINUOUS
10
132.226
20
-97.1074
11
132.273
21
-96.9646
0
LINE
8
BLACK
6
CONTINUOUS
10
132.273
20
-96.9646
11
132.286
21
-96.9417
0
LINE
8
BLACK
6
CONTINUOUS
10
132.286
20
-96.9417
11
132.29
21
-96.9393
0
LINE
8
BLACK
6
CONTINUOUS
10
132.29
20
-96.9393
11
132.291
21
-96.9353
0
LINE
8
BLACK
6
CONTINUOUS
10
132.291
20
-96.9353
11
132.339
21
-96.8876
0
LINE
8
BLACK
6
CONTINUOUS
10
132.339
20
-96.8876
11
132.36
21
-96.8727
0
LINE
8
BLACK
6
CONTINUOUS
10
132.36
20
-96.8727
11
132.411
21
-96.8682
0
LINE
8
BLACK
6
CONTINUOUS
10
132.411
20
-96.8682
11
132.453
21
-96.8976
0
LINE
8
BLACK
6
CONTINUOUS
10
132.453
20
-96.8976
11
132.467
21
-96.9472
0
LINE
8
BLACK
6
CONTINUOUS
10
132.467
20
-96.9472
11
132.445
21
-96.9937
0
LINE
8
BLACK
6
CONTINUOUS
10
132.445
20
-96.9937
11
132.41
21
-97.0288
0
LINE
8
BLACK
6
CONTINUOUS
10
132.41
20
-97.0288
11
132.372
21
-97.1433
0
LINE
8
BLACK
6
CONTINUOUS
10
132.372
20
-97.1433
11
132.372
21
-97.2142
0
LINE
8
BLACK
6
CONTINUOUS
10
132.372
20
-97.2142
11
132.41
21
-97.3287
0
LINE
8
BLACK
6
CONTINUOUS
10
132.41
20
-97.3287
11
132.484
21
-97.4028
0
LINE
8
BLACK
6
CONTINUOUS
10
132.484
20
-97.4028
11
132.561
21
-97.4413
0
LINE
8
BLACK
6
CONTINUOUS
10
132.561
20
-97.4413
11
132.735
21
-97.4847
0
LINE
8
BLACK
6
CONTINUOUS
10
132.735
20
-97.4847
11
132.859
21
-97.4847
0
LINE
8
BLACK
6
CONTINUOUS
10
132.859
20
-97.4847
11
133.033
21
-97.4413
0
LINE
8
BLACK
6
CONTINUOUS
10
133.033
20
-97.4413
11
133.11
21
-97.4028
0
LINE
8
BLACK
6
CONTINUOUS
10
133.11
20
-97.4028
11
133.184
21
-97.3287
0
LINE
8
BLACK
6
CONTINUOUS
10
133.184
20
-97.3287
11
133.222
21
-97.2142
0
LINE
8
BLACK
6
CONTINUOUS
10
133.222
20
-97.2142
11
133.222
21
-97.1433
0
LINE
8
BLACK
6
CONTINUOUS
10
133.222
20
-97.1433
11
133.184
21
-97.0288
0
LINE
8
BLACK
6
CONTINUOUS
10
133.184
20
-97.0288
11
133.149
21
-96.9937
0
LINE
8
BLACK
6
CONTINUOUS
10
133.149
20
-96.9937
11
133.134
21
-96.9724
0
LINE
8
BLACK
6
CONTINUOUS
10
133.134
20
-96.9724
11
133.129
21
-96.9213
0
LINE
8
BLACK
6
CONTINUOUS
10
133.129
20
-96.9213
11
133.159
21
-96.8792
0
LINE
8
BLACK
6
CONTINUOUS
10
133.159
20
-96.8792
11
133.208
21
-96.866
0
LINE
8
BLACK
6
CONTINUOUS
10
133.208
20
-96.866
11
133.255
21
-96.8876
0
LINE
8
BLACK
6
CONTINUOUS
10
135.45
20
-96.8702
11
135.453
21
-96.8731
0
LINE
8
BLACK
6
CONTINUOUS
10
135.453
20
-96.8731
11
135.458
21
-96.8736
0
LINE
8
BLACK
6
CONTINUOUS
10
135.458
20
-96.8736
11
135.553
21
-96.9212
0
LINE
8
BLACK
6
CONTINUOUS
10
135.553
20
-96.9212
11
135.571
21
-96.9346
0
LINE
8
BLACK
6
CONTINUOUS
10
135.571
20
-96.9346
11
135.572
21
-96.9353
0
LINE
8
BLACK
6
CONTINUOUS
10
135.572
20
-96.9353
11
135.62
21
-96.9829
0
LINE
8
BLACK
6
CONTINUOUS
10
135.62
20
-96.9829
11
135.633
21
-97.0012
0
LINE
8
BLACK
6
CONTINUOUS
10
135.633
20
-97.0012
11
135.634
21
-97.0024
0
LINE
8
BLACK
6
CONTINUOUS
10
135.634
20
-97.0024
11
135.682
21
-97.0976
0
LINE
8
BLACK
6
CONTINUOUS
10
135.682
20
-97.0976
11
135.689
21
-97.1226
0
LINE
8
BLACK
6
CONTINUOUS
10
135.689
20
-97.1226
11
135.688
21
-97.1269
0
LINE
8
BLACK
6
CONTINUOUS
10
135.688
20
-97.1269
11
135.689
21
-97.1302
0
LINE
8
BLACK
6
CONTINUOUS
10
135.689
20
-97.1302
11
136.048
21
-96.8792
0
LINE
8
BLACK
6
CONTINUOUS
10
136.048
20
-96.8792
11
136.071
21
-96.8682
0
LINE
8
BLACK
6
CONTINUOUS
10
136.071
20
-96.8682
11
136.123
21
-96.8727
0
LINE
8
BLACK
6
CONTINUOUS
10
136.123
20
-96.8727
11
136.159
21
-96.909
0
LINE
8
BLACK
6
CONTINUOUS
10
136.159
20
-96.909
11
136.163
21
-96.9601
0
LINE
8
BLACK
6
CONTINUOUS
10
136.163
20
-96.9601
11
136.134
21
-97.0021
0
LINE
8
BLACK
6
CONTINUOUS
10
136.134
20
-97.0021
11
135.69
21
-97.313
0
LINE
8
BLACK
6
CONTINUOUS
10
135.69
20
-97.313
11
135.69
21
-97.4371
0
LINE
8
BLACK
6
CONTINUOUS
10
135.69
20
-97.4371
11
136.091
21
-97.4371
0
LINE
8
BLACK
6
CONTINUOUS
10
136.091
20
-97.4371
11
136.116
21
-97.4416
0
LINE
8
BLACK
6
CONTINUOUS
10
136.116
20
-97.4416
11
136.156
21
-97.4746
0
LINE
8
BLACK
6
CONTINUOUS
10
136.156
20
-97.4746
11
136.165
21
-97.5251
0
LINE
8
BLACK
6
CONTINUOUS
10
136.165
20
-97.5251
11
136.139
21
-97.5695
0
LINE
8
BLACK
6
CONTINUOUS
10
136.139
20
-97.5695
11
136.091
21
-97.5871
0
LINE
8
BLACK
6
CONTINUOUS
10
136.091
20
-97.5871
11
135.091
21
-97.5871
0
LINE
8
BLACK
6
CONTINUOUS
10
135.091
20
-97.5871
11
135.081
21
-97.5854
0
LINE
8
BLACK
6
CONTINUOUS
10
135.081
20
-97.5854
11
135.078
21
-97.586
0
LINE
8
BLACK
6
CONTINUOUS
10
135.078
20
-97.586
11
135.075
21
-97.5843
0
LINE
8
BLACK
6
CONTINUOUS
10
135.075
20
-97.5843
11
135.065
21
-97.5826
0
LINE
8
BLACK
6
CONTINUOUS
10
135.065
20
-97.5826
11
135.05
21
-97.57
0
LINE
8
BLACK
6
CONTINUOUS
10
135.05
20
-97.57
11
135.033
21
-97.5603
0
LINE
8
BLACK
6
CONTINUOUS
10
135.033
20
-97.5603
11
135.031
21
-97.5539
0
LINE
8
BLACK
6
CONTINUOUS
10
135.031
20
-97.5539
11
135.026
21
-97.5496
0
LINE
8
BLACK
6
CONTINUOUS
10
135.026
20
-97.5496
11
135.022
21
-97.5304
0
LINE
8
BLACK
6
CONTINUOUS
10
135.022
20
-97.5304
11
135.016
21
-97.5121
0
LINE
8
BLACK
6
CONTINUOUS
10
135.016
20
-97.5121
11
135.016
21
-97.1311
0
LINE
8
BLACK
6
CONTINUOUS
10
135.016
20
-97.1311
11
135.02
21
-97.1055
0
LINE
8
BLACK
6
CONTINUOUS
10
135.02
20
-97.1055
11
135.023
21
-97.1021
0
LINE
8
BLACK
6
CONTINUOUS
10
135.023
20
-97.1021
11
135.024
21
-97.0976
0
LINE
8
BLACK
6
CONTINUOUS
10
135.024
20
-97.0976
11
135.071
21
-97.0024
0
LINE
8
BLACK
6
CONTINUOUS
10
135.071
20
-97.0024
11
135.085
21
-96.9844
0
LINE
8
BLACK
6
CONTINUOUS
10
135.085
20
-96.9844
11
135.085
21
-96.9829
0
LINE
8
BLACK
6
CONTINUOUS
10
135.085
20
-96.9829
11
135.133
21
-96.9353
0
LINE
8
BLACK
6
CONTINUOUS
10
135.133
20
-96.9353
11
135.151
21
-96.9224
0
LINE
8
BLACK
6
CONTINUOUS
10
135.151
20
-96.9224
11
135.153
21
-96.9212
0
LINE
8
BLACK
6
CONTINUOUS
10
135.153
20
-96.9212
11
135.248
21
-96.8736
0
LINE
8
BLACK
6
CONTINUOUS
10
135.248
20
-96.8736
11
135.273
21
-96.8662
0
LINE
8
BLACK
6
CONTINUOUS
10
135.273
20
-96.8662
11
135.277
21
-96.8672
0
LINE
8
BLACK
6
CONTINUOUS
10
135.277
20
-96.8672
11
135.281
21
-96.8657
0
LINE
8
BLACK
6
CONTINUOUS
10
135.281
20
-96.8657
11
135.424
21
-96.8657
0
LINE
8
BLACK
6
CONTINUOUS
10
135.424
20
-96.8657
11
135.45
21
-96.8702
0
LINE
8
BLACK
6
CONTINUOUS
10
135.23
20
-97.0499
11
135.2
21
-97.0803
0
LINE
8
BLACK
6
CONTINUOUS
10
135.2
20
-97.0803
11
135.166
21
-97.1488
0
LINE
8
BLACK
6
CONTINUOUS
10
135.166
20
-97.1488
11
135.166
21
-97.4371
0
LINE
8
BLACK
6
CONTINUOUS
10
135.166
20
-97.4371
11
135.54
21
-97.4371
0
LINE
8
BLACK
6
CONTINUOUS
10
135.54
20
-97.4371
11
135.54
21
-97.1488
0
LINE
8
BLACK
6
CONTINUOUS
10
135.54
20
-97.1488
11
135.505
21
-97.0803
0
LINE
8
BLACK
6
CONTINUOUS
10
135.505
20
-97.0803
11
135.475
21
-97.0499
0
LINE
8
BLACK
6
CONTINUOUS
10
135.475
20
-97.0499
11
135.406
21
-97.0157
0
LINE
8
BLACK
6
CONTINUOUS
10
135.406
20
-97.0157
11
135.299
21
-97.0157
0
LINE
8
BLACK
6
CONTINUOUS
10
135.299
20
-97.0157
11
135.23
21
-97.0499
0
LINE
8
BLACK
6
CONTINUOUS
10
132.605
20
-95.9172
11
132.606
21
-95.9171
0
LINE
8
BLACK
6
CONTINUOUS
10
132.606
20
-95.9171
11
132.749
21
-95.9648
0
LINE
8
BLACK
6
CONTINUOUS
10
132.749
20
-95.9648
11
132.772
21
-95.9772
0
LINE
8
BLACK
6
CONTINUOUS
10
132.772
20
-95.9772
11
132.774
21
-95.981
0
LINE
8
BLACK
6
CONTINUOUS
10
132.774
20
-95.981
11
132.778
21
-95.9829
0
LINE
8
BLACK
6
CONTINUOUS
10
132.778
20
-95.9829
11
133.222
21
-96.4263
0
LINE
8
BLACK
6
CONTINUOUS
10
133.222
20
-96.4263
11
133.222
21
-95.9883
0
LINE
8
BLACK
6
CONTINUOUS
10
133.222
20
-95.9883
11
133.226
21
-95.9626
0
LINE
8
BLACK
6
CONTINUOUS
10
133.226
20
-95.9626
11
133.259
21
-95.9233
0
LINE
8
BLACK
6
CONTINUOUS
10
133.259
20
-95.9233
11
133.31
21
-95.9144
0
LINE
8
BLACK
6
CONTINUOUS
10
133.31
20
-95.9144
11
133.354
21
-95.9401
0
LINE
8
BLACK
6
CONTINUOUS
10
133.354
20
-95.9401
11
133.372
21
-95.9883
0
LINE
8
BLACK
6
CONTINUOUS
10
133.372
20
-95.9883
11
133.372
21
-96.6073
0
LINE
8
BLACK
6
CONTINUOUS
10
133.372
20
-96.6073
11
133.369
21
-96.6235
0
LINE
8
BLACK
6
CONTINUOUS
10
133.369
20
-96.6235
11
133.369
21
-96.6267
0
LINE
8
BLACK
6
CONTINUOUS
10
133.369
20
-96.6267
11
133.368
21
-96.6284
0
LINE
8
BLACK
6
CONTINUOUS
10
133.368
20
-96.6284
11
133.367
21
-96.633
0
LINE
8
BLACK
6
CONTINUOUS
10
133.367
20
-96.633
11
133.353
21
-96.6503
0
LINE
8
BLACK
6
CONTINUOUS
10
133.353
20
-96.6503
11
133.34
21
-96.6688
0
LINE
8
BLACK
6
CONTINUOUS
10
133.34
20
-96.6688
11
133.337
21
-96.6697
0
LINE
8
BLACK
6
CONTINUOUS
10
133.337
20
-96.6697
11
133.334
21
-96.6723
0
LINE
8
BLACK
6
CONTINUOUS
10
133.334
20
-96.6723
11
133.312
21
-96.6762
0
LINE
8
BLACK
6
CONTINUOUS
10
133.312
20
-96.6762
11
133.29
21
-96.682
0
LINE
8
BLACK
6
CONTINUOUS
10
133.29
20
-96.682
11
133.287
21
-96.6806
0
LINE
8
BLACK
6
CONTINUOUS
10
133.287
20
-96.6806
11
133.284
21
-96.6812
0
LINE
8
BLACK
6
CONTINUOUS
10
133.284
20
-96.6812
11
133.264
21
-96.6699
0
LINE
8
BLACK
6
CONTINUOUS
10
133.264
20
-96.6699
11
133.244
21
-96.6604
0
LINE
8
BLACK
6
CONTINUOUS
10
133.244
20
-96.6604
11
132.685
21
-96.1015
0
LINE
8
BLACK
6
CONTINUOUS
10
132.685
20
-96.1015
11
132.57
21
-96.0633
0
LINE
8
BLACK
6
CONTINUOUS
10
132.57
20
-96.0633
11
132.505
21
-96.0633
0
LINE
8
BLACK
6
CONTINUOUS
10
132.505
20
-96.0633
11
132.436
21
-96.0975
0
LINE
8
BLACK
6
CONTINUOUS
10
132.436
20
-96.0975
11
132.406
21
-96.1279
0
LINE
8
BLACK
6
CONTINUOUS
10
132.406
20
-96.1279
11
132.372
21
-96.1965
0
LINE
8
BLACK
6
CONTINUOUS
10
132.372
20
-96.1965
11
132.372
21
-96.3992
0
LINE
8
BLACK
6
CONTINUOUS
10
132.372
20
-96.3992
11
132.406
21
-96.4677
0
LINE
8
BLACK
6
CONTINUOUS
10
132.406
20
-96.4677
11
132.445
21
-96.5067
0
LINE
8
BLACK
6
CONTINUOUS
10
132.445
20
-96.5067
11
132.46
21
-96.528
0
LINE
8
BLACK
6
CONTINUOUS
10
132.46
20
-96.528
11
132.465
21
-96.5791
0
LINE
8
BLACK
6
CONTINUOUS
10
132.465
20
-96.5791
11
132.435
21
-96.6212
0
LINE
8
BLACK
6
CONTINUOUS
10
132.435
20
-96.6212
11
132.386
21
-96.6344
0
LINE
8
BLACK
6
CONTINUOUS
10
132.386
20
-96.6344
11
132.339
21
-96.6127
0
LINE
8
BLACK
6
CONTINUOUS
10
132.339
20
-96.6127
11
132.291
21
-96.5651
0
LINE
8
BLACK
6
CONTINUOUS
10
132.291
20
-96.5651
11
132.279
21
-96.5468
0
LINE
8
BLACK
6
CONTINUOUS
10
132.279
20
-96.5468
11
132.277
21
-96.5456
0
LINE
8
BLACK
6
CONTINUOUS
10
132.277
20
-96.5456
11
132.23
21
-96.4504
0
LINE
8
BLACK
6
CONTINUOUS
10
132.23
20
-96.4504
11
132.222
21
-96.4254
0
LINE
8
BLACK
6
CONTINUOUS
10
132.222
20
-96.4254
11
132.223
21
-96.4211
0
LINE
8
BLACK
6
CONTINUOUS
10
132.223
20
-96.4211
11
132.222
21
-96.4169
0
LINE
8
BLACK
6
CONTINUOUS
10
132.222
20
-96.4169
11
132.222
21
-96.1788
0
LINE
8
BLACK
6
CONTINUOUS
10
132.222
20
-96.1788
11
132.226
21
-96.1531
0
LINE
8
BLACK
6
CONTINUOUS
10
132.226
20
-96.1531
11
132.229
21
-96.1497
0
LINE
8
BLACK
6
CONTINUOUS
10
132.229
20
-96.1497
11
132.23
21
-96.1452
0
LINE
8
BLACK
6
CONTINUOUS
10
132.23
20
-96.1452
11
132.277
21
-96.05
0
LINE
8
BLACK
6
CONTINUOUS
10
132.277
20
-96.05
11
132.291
21
-96.032
0
LINE
8
BLACK
6
CONTINUOUS
10
132.291
20
-96.032
11
132.291
21
-96.0305
0
LINE
8
BLACK
6
CONTINUOUS
10
132.291
20
-96.0305
11
132.339
21
-95.9829
0
LINE
8
BLACK
6
CONTINUOUS
10
132.339
20
-95.9829
11
132.357
21
-95.97
0
LINE
8
BLACK
6
CONTINUOUS
10
132.357
20
-95.97
11
132.359
21
-95.9688
0
LINE
8
BLACK
6
CONTINUOUS
10
132.359
20
-95.9688
11
132.454
21
-95.9212
0
LINE
8
BLACK
6
CONTINUOUS
10
132.454
20
-95.9212
11
132.479
21
-95.9138
0
LINE
8
BLACK
6
CONTINUOUS
10
132.479
20
-95.9138
11
132.483
21
-95.9148
0
LINE
8
BLACK
6
CONTINUOUS
10
132.483
20
-95.9148
11
132.487
21
-95.9133
0
LINE
8
BLACK
6
CONTINUOUS
10
132.487
20
-95.9133
11
132.583
21
-95.9133
0
LINE
8
BLACK
6
CONTINUOUS
10
132.583
20
-95.9133
11
132.605
21
-95.9172
0
LINE
8
BLACK
6
CONTINUOUS
10
130.56
20
-95.9401
11
130.578
21
-95.9883
0
LINE
8
BLACK
6
CONTINUOUS
10
130.578
20
-95.9883
11
130.578
21
-96.5597
0
LINE
8
BLACK
6
CONTINUOUS
10
130.578
20
-96.5597
11
130.573
21
-96.5854
0
LINE
8
BLACK
6
CONTINUOUS
10
130.573
20
-96.5854
11
130.54
21
-96.6247
0
LINE
8
BLACK
6
CONTINUOUS
10
130.54
20
-96.6247
11
130.49
21
-96.6336
0
LINE
8
BLACK
6
CONTINUOUS
10
130.49
20
-96.6336
11
130.445
21
-96.6079
0
LINE
8
BLACK
6
CONTINUOUS
10
130.445
20
-96.6079
11
130.428
21
-96.5597
0
LINE
8
BLACK
6
CONTINUOUS
10
130.428
20
-96.5597
11
130.428
21
-96.349
0
LINE
8
BLACK
6
CONTINUOUS
10
130.428
20
-96.349
11
129.732
21
-96.349
0
LINE
8
BLACK
6
CONTINUOUS
10
129.732
20
-96.349
11
129.794
21
-96.4114
0
LINE
8
BLACK
6
CONTINUOUS
10
129.794
20
-96.4114
11
129.807
21
-96.4298
0
LINE
8
BLACK
6
CONTINUOUS
10
129.807
20
-96.4298
11
129.808
21
-96.4309
0
LINE
8
BLACK
6
CONTINUOUS
10
129.808
20
-96.4309
11
129.856
21
-96.5262
0
LINE
8
BLACK
6
CONTINUOUS
10
129.856
20
-96.5262
11
129.863
21
-96.5511
0
LINE
8
BLACK
6
CONTINUOUS
10
129.863
20
-96.5511
11
129.851
21
-96.601
0
LINE
8
BLACK
6
CONTINUOUS
10
129.851
20
-96.601
11
129.81
21
-96.6316
0
LINE
8
BLACK
6
CONTINUOUS
10
129.81
20
-96.6316
11
129.759
21
-96.6285
0
LINE
8
BLACK
6
CONTINUOUS
10
129.759
20
-96.6285
11
129.721
21
-96.5933
0
LINE
8
BLACK
6
CONTINUOUS
10
129.721
20
-96.5933
11
129.679
21
-96.5089
0
LINE
8
BLACK
6
CONTINUOUS
10
129.679
20
-96.5089
11
129.598
21
-96.4275
0
LINE
8
BLACK
6
CONTINUOUS
10
129.598
20
-96.4275
11
129.461
21
-96.3364
0
LINE
8
BLACK
6
CONTINUOUS
10
129.461
20
-96.3364
11
129.442
21
-96.3184
0
LINE
8
BLACK
6
CONTINUOUS
10
129.442
20
-96.3184
11
129.441
21
-96.3143
0
LINE
8
BLACK
6
CONTINUOUS
10
129.441
20
-96.3143
11
129.438
21
-96.3115
0
LINE
8
BLACK
6
CONTINUOUS
10
129.438
20
-96.3115
11
129.434
21
-96.2901
0
LINE
8
BLACK
6
CONTINUOUS
10
129.434
20
-96.2901
11
129.428
21
-96.2692
0
LINE
8
BLACK
6
CONTINUOUS
10
129.428
20
-96.2692
11
129.43
21
-96.2652
0
LINE
8
BLACK
6
CONTINUOUS
10
129.43
20
-96.2652
11
129.429
21
-96.261
0
LINE
8
BLACK
6
CONTINUOUS
10
129.429
20
-96.261
11
129.44
21
-96.2421
0
LINE
8
BLACK
6
CONTINUOUS
10
129.44
20
-96.2421
11
129.449
21
-96.2222
0
LINE
8
BLACK
6
CONTINUOUS
10
129.449
20
-96.2222
11
129.452
21
-96.2203
0
LINE
8
BLACK
6
CONTINUOUS
10
129.452
20
-96.2203
11
129.455
21
-96.2165
0
LINE
8
BLACK
6
CONTINUOUS
10
129.455
20
-96.2165
11
129.475
21
-96.2091
0
LINE
8
BLACK
6
CONTINUOUS
10
129.475
20
-96.2091
11
129.495
21
-96.1995
0
LINE
8
BLACK
6
CONTINUOUS
10
129.495
20
-96.1995
11
129.499
21
-96.2005
0
LINE
8
BLACK
6
CONTINUOUS
10
129.499
20
-96.2005
11
129.503
21
-96.199
0
LINE
8
BLACK
6
CONTINUOUS
10
129.503
20
-96.199
11
130.428
21
-96.199
0
LINE
8
BLACK
6
CONTINUOUS
10
130.428
20
-96.199
11
130.428
21
-95.9883
0
LINE
8
BLACK
6
CONTINUOUS
10
130.428
20
-95.9883
11
130.432
21
-95.9626
0
LINE
8
BLACK
6
CONTINUOUS
10
130.432
20
-95.9626
11
130.465
21
-95.9233
0
LINE
8
BLACK
6
CONTINUOUS
10
130.465
20
-95.9233
11
130.516
21
-95.9144
0
LINE
8
BLACK
6
CONTINUOUS
10
130.516
20
-95.9144
11
130.56
21
-95.9401
0
LINE
8
BLACK
6
CONTINUOUS
10
136.148
20
-95.9401
11
136.166
21
-95.9883
0
LINE
8
BLACK
6
CONTINUOUS
10
136.166
20
-95.9883
11
136.166
21
-96.5597
0
LINE
8
BLACK
6
CONTINUOUS
10
136.166
20
-96.5597
11
136.161
21
-96.5854
0
LINE
8
BLACK
6
CONTINUOUS
10
136.161
20
-96.5854
11
136.128
21
-96.6247
0
LINE
8
BLACK
6
CONTINUOUS
10
136.128
20
-96.6247
11
136.078
21
-96.6336
0
LINE
8
BLACK
6
CONTINUOUS
10
136.078
20
-96.6336
11
136.033
21
-96.6079
0
LINE
8
BLACK
6
CONTINUOUS
10
136.033
20
-96.6079
11
136.016
21
-96.5597
0
LINE
8
BLACK
6
CONTINUOUS
10
136.016
20
-96.5597
11
136.016
21
-96.349
0
LINE
8
BLACK
6
CONTINUOUS
10
136.016
20
-96.349
11
135.32
21
-96.349
0
LINE
8
BLACK
6
CONTINUOUS
10
135.32
20
-96.349
11
135.382
21
-96.4114
0
LINE
8
BLACK
6
CONTINUOUS
10
135.382
20
-96.4114
11
135.395
21
-96.4298
0
LINE
8
BLACK
6
CONTINUOUS
10
135.395
20
-96.4298
11
135.396
21
-96.4309
0
LINE
8
BLACK
6
CONTINUOUS
10
135.396
20
-96.4309
11
135.444
21
-96.5262
0
LINE
8
BLACK
6
CONTINUOUS
10
135.444
20
-96.5262
11
135.451
21
-96.5511
0
LINE
8
BLACK
6
CONTINUOUS
10
135.451
20
-96.5511
11
135.439
21
-96.601
0
LINE
8
BLACK
6
CONTINUOUS
10
135.439
20
-96.601
11
135.398
21
-96.6316
0
LINE
8
BLACK
6
CONTINUOUS
10
135.398
20
-96.6316
11
135.347
21
-96.6285
0
LINE
8
BLACK
6
CONTINUOUS
10
135.347
20
-96.6285
11
135.309
21
-96.5933
0
LINE
8
BLACK
6
CONTINUOUS
10
135.309
20
-96.5933
11
135.267
21
-96.5089
0
LINE
8
BLACK
6
CONTINUOUS
10
135.267
20
-96.5089
11
135.186
21
-96.4275
0
LINE
8
BLACK
6
CONTINUOUS
10
135.186
20
-96.4275
11
135.049
21
-96.3364
0
LINE
8
BLACK
6
CONTINUOUS
10
135.049
20
-96.3364
11
135.03
21
-96.3184
0
LINE
8
BLACK
6
CONTINUOUS
10
135.03
20
-96.3184
11
135.029
21
-96.3143
0
LINE
8
BLACK
6
CONTINUOUS
10
135.029
20
-96.3143
11
135.026
21
-96.3115
0
LINE
8
BLACK
6
CONTINUOUS
10
135.026
20
-96.3115
11
135.022
21
-96.2901
0
LINE
8
BLACK
6
CONTINUOUS
10
135.022
20
-96.2901
11
135.016
21
-96.2692
0
LINE
8
BLACK
6
CONTINUOUS
10
135.016
20
-96.2692
11
135.018
21
-96.2652
0
LINE
8
BLACK
6
CONTINUOUS
10
135.018
20
-96.2652
11
135.017
21
-96.261
0
LINE
8
BLACK
6
CONTINUOUS
10
135.017
20
-96.261
11
135.028
21
-96.2421
0
LINE
8
BLACK
6
CONTINUOUS
10
135.028
20
-96.2421
11
135.037
21
-96.2222
0
LINE
8
BLACK
6
CONTINUOUS
10
135.037
20
-96.2222
11
135.04
21
-96.2203
0
LINE
8
BLACK
6
CONTINUOUS
10
135.04
20
-96.2203
11
135.043
21
-96.2165
0
LINE
8
BLACK
6
CONTINUOUS
10
135.043
20
-96.2165
11
135.063
21
-96.2091
0
LINE
8
BLACK
6
CONTINUOUS
10
135.063
20
-96.2091
11
135.083
21
-96.1995
0
LINE
8
BLACK
6
CONTINUOUS
10
135.083
20
-96.1995
11
135.087
21
-96.2005
0
LINE
8
BLACK
6
CONTINUOUS
10
135.087
20
-96.2005
11
135.091
21
-96.199
0
LINE
8
BLACK
6
CONTINUOUS
10
135.091
20
-96.199
11
136.016
21
-96.199
0
LINE
8
BLACK
6
CONTINUOUS
10
136.016
20
-96.199
11
136.016
21
-95.9883
0
LINE
8
BLACK
6
CONTINUOUS
10
136.016
20
-95.9883
11
136.02
21
-95.9626
0
LINE
8
BLACK
6
CONTINUOUS
10
136.02
20
-95.9626
11
136.053
21
-95.9233
0
LINE
8
BLACK
6
CONTINUOUS
10
136.053
20
-95.9233
11
136.104
21
-95.9144
0
LINE
8
BLACK
6
CONTINUOUS
10
136.104
20
-95.9144
11
136.148
21
-95.9401
0
LINE
8
BLACK
6
CONTINUOUS
10
134.768
20
-92.1945
11
134.786
21
-92.2369
0
LINE
8
BLACK
6
CONTINUOUS
10
134.786
20
-92.2369
11
134.786
21
-93.6911
0
LINE
8
BLACK
6
CONTINUOUS
10
134.786
20
-93.6911
11
134.768
21
-93.7335
0
LINE
8
BLACK
6
CONTINUOUS
10
134.768
20
-93.7335
11
134.726
21
-93.7511
0
LINE
8
BLACK
6
CONTINUOUS
10
134.726
20
-93.7511
11
134.684
21
-93.7335
0
LINE
8
BLACK
6
CONTINUOUS
10
134.684
20
-93.7335
11
134.666
21
-93.6911
0
LINE
8
BLACK
6
CONTINUOUS
10
134.666
20
-93.6911
11
134.666
21
-92.2369
0
LINE
8
BLACK
6
CONTINUOUS
10
134.666
20
-92.2369
11
134.684
21
-92.1945
0
LINE
8
BLACK
6
CONTINUOUS
10
134.684
20
-92.1945
11
134.726
21
-92.1769
0
LINE
8
BLACK
6
CONTINUOUS
10
134.726
20
-92.1769
11
134.768
21
-92.1945
0
LINE
8
BLACK
6
CONTINUOUS
10
136.588
20
-92.1945
11
136.606
21
-92.2369
0
LINE
8
BLACK
6
CONTINUOUS
10
136.606
20
-92.2369
11
136.606
21
-93.6911
0
LINE
8
BLACK
6
CONTINUOUS
10
136.606
20
-93.6911
11
136.588
21
-93.7335
0
LINE
8
BLACK
6
CONTINUOUS
10
136.588
20
-93.7335
11
136.546
21
-93.7511
0
LINE
8
BLACK
6
CONTINUOUS
10
136.546
20
-93.7511
11
136.504
21
-93.7335
0
LINE
8
BLACK
6
CONTINUOUS
10
136.504
20
-93.7335
11
136.486
21
-93.6911
0
LINE
8
BLACK
6
CONTINUOUS
10
136.486
20
-93.6911
11
136.486
21
-92.2369
0
LINE
8
BLACK
6
CONTINUOUS
10
136.486
20
-92.2369
11
136.504
21
-92.1945
0
LINE
8
BLACK
6
CONTINUOUS
10
136.504
20
-92.1945
11
136.546
21
-92.1769
0
LINE
8
BLACK
6
CONTINUOUS
10
136.546
20
-92.1769
11
136.588
21
-92.1945
0
LINE
8
BLACK
6
CONTINUOUS
10
129.18
20
-92.2103
11
129.198
21
-92.2527
0
LINE
8
BLACK
6
CONTINUOUS
10
129.198
20
-92.2527
11
129.198
21
-93.6753
0
LINE
8
BLACK
6
CONTINUOUS
10
129.198
20
-93.6753
11
129.18
21
-93.7177
0
LINE
8
BLACK
6
CONTINUOUS
10
129.18
20
-93.7177
11
129.138
21
-93.7353
0
LINE
8
BLACK
6
CONTINUOUS
10
129.138
20
-93.7353
11
129.096
21
-93.7177
0
LINE
8
BLACK
6
CONTINUOUS
10
129.096
20
-93.7177
11
129.078
21
-93.6753
0
LINE
8
BLACK
6
CONTINUOUS
10
129.078
20
-93.6753
11
129.078
21
-92.2527
0
LINE
8
BLACK
6
CONTINUOUS
10
129.078
20
-92.2527
11
129.096
21
-92.2103
0
LINE
8
BLACK
6
CONTINUOUS
10
129.096
20
-92.2103
11
129.138
21
-92.1927
0
LINE
8
BLACK
6
CONTINUOUS
10
129.138
20
-92.1927
11
129.18
21
-92.2103
0
LINE
8
BLACK
6
CONTINUOUS
10
131
20
-92.2103
11
131.018
21
-92.2527
0
LINE
8
BLACK
6
CONTINUOUS
10
131.018
20
-92.2527
11
131.018
21
-93.6753
0
LINE
8
BLACK
6
CONTINUOUS
10
131.018
20
-93.6753
11
131
21
-93.7177
0
LINE
8
BLACK
6
CONTINUOUS
10
131
20
-93.7177
11
130.958
21
-93.7353
0
LINE
8
BLACK
6
CONTINUOUS
10
130.958
20
-93.7353
11
130.916
21
-93.7177
0
LINE
8
BLACK
6
CONTINUOUS
10
130.916
20
-93.7177
11
130.898
21
-93.6753
0
LINE
8
BLACK
6
CONTINUOUS
10
130.898
20
-93.6753
11
130.898
21
-92.2527
0
LINE
8
BLACK
6
CONTINUOUS
10
130.898
20
-92.2527
11
130.916
21
-92.2103
0
LINE
8
BLACK
6
CONTINUOUS
10
130.916
20
-92.2103
11
130.958
21
-92.1927
0
LINE
8
BLACK
6
CONTINUOUS
10
130.958
20
-92.1927
11
131
21
-92.2103
0
LINE
8
BLACK
6
CONTINUOUS
10
131.974
20
-92.2103
11
131.992
21
-92.2527
0
LINE
8
BLACK
6
CONTINUOUS
10
131.992
20
-92.2527
11
131.992
21
-93.6753
0
LINE
8
BLACK
6
CONTINUOUS
10
131.992
20
-93.6753
11
131.974
21
-93.7177
0
LINE
8
BLACK
6
CONTINUOUS
10
131.974
20
-93.7177
11
131.932
21
-93.7353
0
LINE
8
BLACK
6
CONTINUOUS
10
131.932
20
-93.7353
11
131.89
21
-93.7177
0
LINE
8
BLACK
6
CONTINUOUS
10
131.89
20
-93.7177
11
131.872
21
-93.6753
0
LINE
8
BLACK
6
CONTINUOUS
10
131.872
20
-93.6753
11
131.872
21
-92.2527
0
LINE
8
BLACK
6
CONTINUOUS
10
131.872
20
-92.2527
11
131.89
21
-92.2103
0
LINE
8
BLACK
6
CONTINUOUS
10
131.89
20
-92.2103
11
131.932
21
-92.1927
0
LINE
8
BLACK
6
CONTINUOUS
10
131.932
20
-92.1927
11
131.974
21
-92.2103
0
LINE
8
BLACK
6
CONTINUOUS
10
133.794
20
-92.2103
11
133.812
21
-92.2527
0
LINE
8
BLACK
6
CONTINUOUS
10
133.812
20
-92.2527
11
133.812
21
-93.6753
0
LINE
8
BLACK
6
CONTINUOUS
10
133.812
20
-93.6753
11
133.794
21
-93.7177
0
LINE
8
BLACK
6
CONTINUOUS
10
133.794
20
-93.7177
11
133.752
21
-93.7353
0
LINE
8
BLACK
6
CONTINUOUS
10
133.752
20
-93.7353
11
133.71
21
-93.7177
0
LINE
8
BLACK
6
CONTINUOUS
10
133.71
20
-93.7177
11
133.692
21
-93.6753
0
LINE
8
BLACK
6
CONTINUOUS
10
133.692
20
-93.6753
11
133.692
21
-92.2527
0
LINE
8
BLACK
6
CONTINUOUS
10
133.692
20
-92.2527
11
133.71
21
-92.2103
0
LINE
8
BLACK
6
CONTINUOUS
10
133.71
20
-92.2103
11
133.752
21
-92.1927
0
LINE
8
BLACK
6
CONTINUOUS
10
133.752
20
-92.1927
11
133.794
21
-92.2103
  0
ENDSEC
  0
EOF
