%TF.GenerationSoftware,KiCad,Pcbnew,8.0.4*%
%TF.CreationDate,2024-10-18T00:11:30-06:00*%
%TF.ProjectId,Motor Controller,4d6f746f-7220-4436-9f6e-74726f6c6c65,Mk. 1*%
%TF.SameCoordinates,Original*%
%TF.FileFunction,Paste,Bot*%
%TF.FilePolarity,Positive*%
%FSLAX46Y46*%
G04 Gerber Fmt 4.6, Leading zero omitted, Abs format (unit mm)*
G04 Created by KiCad (PCBNEW 8.0.4) date 2024-10-18 00:11:30*
%MOMM*%
%LPD*%
G01*
G04 APERTURE LIST*
G04 Aperture macros list*
%AMRoundRect*
0 Rectangle with rounded corners*
0 $1 Rounding radius*
0 $2 $3 $4 $5 $6 $7 $8 $9 X,Y pos of 4 corners*
0 Add a 4 corners polygon primitive as box body*
4,1,4,$2,$3,$4,$5,$6,$7,$8,$9,$2,$3,0*
0 Add four circle primitives for the rounded corners*
1,1,$1+$1,$2,$3*
1,1,$1+$1,$4,$5*
1,1,$1+$1,$6,$7*
1,1,$1+$1,$8,$9*
0 Add four rect primitives between the rounded corners*
20,1,$1+$1,$2,$3,$4,$5,0*
20,1,$1+$1,$4,$5,$6,$7,0*
20,1,$1+$1,$6,$7,$8,$9,0*
20,1,$1+$1,$8,$9,$2,$3,0*%
%AMFreePoly0*
4,1,9,3.862500,-0.866500,0.737500,-0.866500,0.737500,-0.450000,-0.737500,-0.450000,-0.737500,0.450000,0.737500,0.450000,0.737500,0.866500,3.862500,0.866500,3.862500,-0.866500,3.862500,-0.866500,$1*%
G04 Aperture macros list end*
%ADD10RoundRect,0.200000X0.275000X-0.200000X0.275000X0.200000X-0.275000X0.200000X-0.275000X-0.200000X0*%
%ADD11RoundRect,0.225000X0.335876X0.017678X0.017678X0.335876X-0.335876X-0.017678X-0.017678X-0.335876X0*%
%ADD12RoundRect,0.250000X-0.262500X-0.450000X0.262500X-0.450000X0.262500X0.450000X-0.262500X0.450000X0*%
%ADD13RoundRect,0.100000X-0.100000X0.637500X-0.100000X-0.637500X0.100000X-0.637500X0.100000X0.637500X0*%
%ADD14R,0.723000X0.930000*%
%ADD15R,1.910000X0.610000*%
%ADD16RoundRect,0.225000X-0.250000X0.225000X-0.250000X-0.225000X0.250000X-0.225000X0.250000X0.225000X0*%
%ADD17R,2.850000X3.300000*%
%ADD18RoundRect,0.150000X0.477297X0.689429X-0.689429X-0.477297X-0.477297X-0.689429X0.689429X0.477297X0*%
%ADD19RoundRect,0.200000X0.200000X0.275000X-0.200000X0.275000X-0.200000X-0.275000X0.200000X-0.275000X0*%
%ADD20RoundRect,0.250000X-0.475000X0.250000X-0.475000X-0.250000X0.475000X-0.250000X0.475000X0.250000X0*%
%ADD21RoundRect,0.225000X0.250000X-0.225000X0.250000X0.225000X-0.250000X0.225000X-0.250000X-0.225000X0*%
%ADD22RoundRect,0.218750X-0.256250X0.218750X-0.256250X-0.218750X0.256250X-0.218750X0.256250X0.218750X0*%
%ADD23RoundRect,0.250000X0.450000X-0.262500X0.450000X0.262500X-0.450000X0.262500X-0.450000X-0.262500X0*%
%ADD24RoundRect,0.250000X-0.450000X0.262500X-0.450000X-0.262500X0.450000X-0.262500X0.450000X0.262500X0*%
%ADD25RoundRect,0.250000X0.475000X-0.250000X0.475000X0.250000X-0.475000X0.250000X-0.475000X-0.250000X0*%
%ADD26RoundRect,0.250000X-1.100000X0.325000X-1.100000X-0.325000X1.100000X-0.325000X1.100000X0.325000X0*%
%ADD27RoundRect,0.250000X1.100000X-0.325000X1.100000X0.325000X-1.100000X0.325000X-1.100000X-0.325000X0*%
%ADD28RoundRect,0.250000X-0.250000X-0.475000X0.250000X-0.475000X0.250000X0.475000X-0.250000X0.475000X0*%
%ADD29RoundRect,0.200000X-0.053033X0.335876X-0.335876X0.053033X0.053033X-0.335876X0.335876X-0.053033X0*%
%ADD30RoundRect,0.225000X-0.225000X-0.250000X0.225000X-0.250000X0.225000X0.250000X-0.225000X0.250000X0*%
%ADD31RoundRect,0.150000X0.825000X0.150000X-0.825000X0.150000X-0.825000X-0.150000X0.825000X-0.150000X0*%
%ADD32RoundRect,0.200000X0.053033X-0.335876X0.335876X-0.053033X-0.053033X0.335876X-0.335876X0.053033X0*%
%ADD33RoundRect,0.250000X0.850000X0.350000X-0.850000X0.350000X-0.850000X-0.350000X0.850000X-0.350000X0*%
%ADD34RoundRect,0.250000X1.275000X1.125000X-1.275000X1.125000X-1.275000X-1.125000X1.275000X-1.125000X0*%
%ADD35RoundRect,0.250000X1.000000X-1.400000X1.000000X1.400000X-1.000000X1.400000X-1.000000X-1.400000X0*%
%ADD36R,0.900000X1.100000*%
%ADD37RoundRect,0.225000X0.425000X0.225000X-0.425000X0.225000X-0.425000X-0.225000X0.425000X-0.225000X0*%
%ADD38FreePoly0,180.000000*%
G04 APERTURE END LIST*
D10*
%TO.C,R37*%
X201650000Y-91587500D03*
X201650000Y-89937500D03*
%TD*%
D11*
%TO.C,C151*%
X129332574Y-117900090D03*
X130428590Y-118996106D03*
%TD*%
D12*
%TO.C,R106*%
X116187500Y-87850000D03*
X114362500Y-87850000D03*
%TD*%
D13*
%TO.C,U12*%
X203275000Y-112062500D03*
X203925000Y-112062500D03*
X204575000Y-112062500D03*
X205225000Y-112062500D03*
X205225000Y-106337500D03*
X204575000Y-106337500D03*
X203925000Y-106337500D03*
X203275000Y-106337500D03*
%TD*%
D14*
%TO.C,U32*%
X107357500Y-87170000D03*
X107357500Y-88720000D03*
X106152500Y-87170000D03*
X106152500Y-88720000D03*
D15*
X109535000Y-89850000D03*
X109535000Y-88580000D03*
X109535000Y-87310000D03*
X109535000Y-86040000D03*
X103975000Y-86040000D03*
X103975000Y-87310000D03*
X103975000Y-88580000D03*
X103975000Y-89850000D03*
%TD*%
D16*
%TO.C,C96*%
X200175000Y-110525000D03*
X200175000Y-112075000D03*
%TD*%
D17*
%TO.C,L2*%
X103825000Y-94700000D03*
X109775000Y-94700000D03*
%TD*%
D16*
%TO.C,C166*%
X101825000Y-90075000D03*
X101825000Y-88525000D03*
%TD*%
%TO.C,C78*%
X200150000Y-89987500D03*
X200150000Y-91537500D03*
%TD*%
D18*
%TO.C,U4*%
X131202872Y-116553051D03*
X132100898Y-117451076D03*
X132998924Y-118349102D03*
X133896949Y-119247128D03*
X137397128Y-115746949D03*
X136499102Y-114848924D03*
X135601076Y-113950898D03*
X134703051Y-113052872D03*
%TD*%
D19*
%TO.C,R14*%
X176075000Y-73850000D03*
X174425000Y-73850000D03*
%TD*%
D20*
%TO.C,C163*%
X112525000Y-90650000D03*
X112525000Y-88750000D03*
%TD*%
D21*
%TO.C,C75*%
X206825000Y-112075000D03*
X206825000Y-110525000D03*
%TD*%
D13*
%TO.C,U15*%
X203250000Y-85750000D03*
X203900000Y-85750000D03*
X204550000Y-85750000D03*
X205200000Y-85750000D03*
X205200000Y-91475000D03*
X204550000Y-91475000D03*
X203900000Y-91475000D03*
X203250000Y-91475000D03*
%TD*%
D21*
%TO.C,C150*%
X208300000Y-91562500D03*
X208300000Y-90012500D03*
%TD*%
D22*
%TO.C,FB10*%
X209800000Y-90000000D03*
X209800000Y-91575000D03*
%TD*%
%TO.C,FB14*%
X209825000Y-110512500D03*
X209825000Y-112087500D03*
%TD*%
D21*
%TO.C,C16*%
X206725000Y-132725000D03*
X206725000Y-131175000D03*
%TD*%
D20*
%TO.C,C167*%
X100025000Y-90050000D03*
X100025000Y-88150000D03*
%TD*%
D21*
%TO.C,C93*%
X208325000Y-112075000D03*
X208325000Y-110525000D03*
%TD*%
D23*
%TO.C,R104*%
X111802500Y-84157500D03*
X111802500Y-85982500D03*
%TD*%
D24*
%TO.C,R90*%
X113802500Y-85982500D03*
X113802500Y-84157500D03*
%TD*%
D25*
%TO.C,C164*%
X101025000Y-91850000D03*
X101025000Y-93750000D03*
%TD*%
D13*
%TO.C,U13*%
X203175000Y-126937500D03*
X203825000Y-126937500D03*
X204475000Y-126937500D03*
X205125000Y-126937500D03*
X205125000Y-132662500D03*
X204475000Y-132662500D03*
X203825000Y-132662500D03*
X203175000Y-132662500D03*
%TD*%
D21*
%TO.C,C2*%
X208225000Y-132725000D03*
X208225000Y-131175000D03*
%TD*%
D25*
%TO.C,C165*%
X98975000Y-91850000D03*
X98975000Y-93750000D03*
%TD*%
D21*
%TO.C,C17*%
X206800000Y-91562500D03*
X206800000Y-90012500D03*
%TD*%
D10*
%TO.C,R51*%
X201675000Y-112125000D03*
X201675000Y-110475000D03*
%TD*%
D22*
%TO.C,FB9*%
X209725000Y-131162500D03*
X209725000Y-132737500D03*
%TD*%
D10*
%TO.C,R43*%
X201575000Y-132625000D03*
X201575000Y-130975000D03*
%TD*%
D16*
%TO.C,C85*%
X200075000Y-131025000D03*
X200075000Y-132575000D03*
%TD*%
D26*
%TO.C,C184*%
X174561277Y-81425000D03*
X174561277Y-84375000D03*
%TD*%
D27*
%TO.C,C185*%
X174459792Y-113038849D03*
X174459792Y-110088849D03*
%TD*%
D26*
%TO.C,C186*%
X164459792Y-114788849D03*
X164459792Y-117738849D03*
%TD*%
%TO.C,C80*%
X167789849Y-81425000D03*
X167789849Y-84375000D03*
%TD*%
D16*
%TO.C,C70*%
X135925000Y-55520000D03*
X135925000Y-57070000D03*
%TD*%
D25*
%TO.C,C117*%
X116850000Y-120317500D03*
X116850000Y-122217500D03*
%TD*%
%TO.C,C112*%
X116850000Y-113067500D03*
X116850000Y-114967500D03*
%TD*%
D27*
%TO.C,C87*%
X167751519Y-113038849D03*
X167751519Y-110088849D03*
%TD*%
D28*
%TO.C,C111*%
X112725000Y-100475000D03*
X110825000Y-100475000D03*
%TD*%
%TO.C,C120*%
X112900000Y-125717500D03*
X111000000Y-125717500D03*
%TD*%
D29*
%TO.C,R47*%
X171933282Y-94244892D03*
X170766556Y-95411618D03*
%TD*%
D30*
%TO.C,C71*%
X135350000Y-58695000D03*
X136900000Y-58695000D03*
%TD*%
D31*
%TO.C,U31*%
X133175000Y-55740000D03*
X133175000Y-57010000D03*
X133175000Y-58280000D03*
X133175000Y-59550000D03*
X128225000Y-59550000D03*
X128225000Y-58280000D03*
X128225000Y-57010000D03*
X128225000Y-55740000D03*
%TD*%
D32*
%TO.C,R40*%
X164089942Y-106633459D03*
X165256668Y-105466733D03*
%TD*%
D16*
%TO.C,C171*%
X147400000Y-57665000D03*
X147400000Y-59215000D03*
%TD*%
D33*
%TO.C,U19*%
X114500000Y-116432500D03*
D34*
X106525000Y-112627500D03*
X106525000Y-115677500D03*
X109875000Y-112627500D03*
X109875000Y-115677500D03*
D33*
X114500000Y-111872500D03*
%TD*%
D35*
%TO.C,D2*%
X113290000Y-75237500D03*
X120090000Y-75237500D03*
%TD*%
D32*
%TO.C,R46*%
X163029282Y-105572799D03*
X164196008Y-104406073D03*
%TD*%
D26*
%TO.C,C183*%
X171175563Y-81425000D03*
X171175563Y-84375000D03*
%TD*%
D31*
%TO.C,U11*%
X144975000Y-55710000D03*
X144975000Y-56980000D03*
X144975000Y-58250000D03*
X144975000Y-59520000D03*
X140025000Y-59520000D03*
X140025000Y-58250000D03*
X140025000Y-56980000D03*
X140025000Y-55710000D03*
%TD*%
D26*
%TO.C,C169*%
X174459792Y-114788849D03*
X174459792Y-117738849D03*
%TD*%
D33*
%TO.C,U20*%
X114500000Y-123500000D03*
D34*
X106525000Y-119695000D03*
X106525000Y-122745000D03*
X109875000Y-119695000D03*
X109875000Y-122745000D03*
D33*
X114500000Y-118940000D03*
%TD*%
%TO.C,U18*%
X114500000Y-107347500D03*
D34*
X106525000Y-103542500D03*
X106525000Y-106592500D03*
X109875000Y-103542500D03*
X109875000Y-106592500D03*
D33*
X114500000Y-102787500D03*
%TD*%
D29*
%TO.C,R35*%
X169811961Y-92123572D03*
X168645235Y-93290298D03*
%TD*%
D27*
%TO.C,C149*%
X171179315Y-79575000D03*
X171179315Y-76625000D03*
%TD*%
%TO.C,C192*%
X171137233Y-113038849D03*
X171137233Y-110088849D03*
%TD*%
D16*
%TO.C,C148*%
X155225000Y-56200000D03*
X155225000Y-57750000D03*
%TD*%
D26*
%TO.C,C193*%
X164404135Y-81425000D03*
X164404135Y-84375000D03*
%TD*%
D36*
%TO.C,U16*%
X142140000Y-139725000D03*
X139600000Y-139725000D03*
X139600000Y-146025000D03*
X142140000Y-146025000D03*
%TD*%
D32*
%TO.C,R34*%
X165164458Y-107707975D03*
X166331184Y-106541249D03*
%TD*%
D25*
%TO.C,C110*%
X116975000Y-104525000D03*
X116975000Y-106425000D03*
%TD*%
D27*
%TO.C,C189*%
X167793601Y-79575000D03*
X167793601Y-76625000D03*
%TD*%
D26*
%TO.C,C187*%
X167751519Y-114788849D03*
X167751519Y-117738849D03*
%TD*%
D10*
%TO.C,R88*%
X136725000Y-62425000D03*
X136725000Y-60775000D03*
%TD*%
D30*
%TO.C,C199*%
X155425000Y-60850000D03*
X156975000Y-60850000D03*
%TD*%
%TO.C,C168*%
X155200000Y-59250000D03*
X156750000Y-59250000D03*
%TD*%
D37*
%TO.C,U29*%
X153425000Y-56150000D03*
D38*
X153337500Y-57650000D03*
D37*
X153425000Y-59150000D03*
%TD*%
D28*
%TO.C,C114*%
X112950000Y-109600000D03*
X111050000Y-109600000D03*
%TD*%
D29*
%TO.C,R41*%
X170872622Y-93184232D03*
X169705896Y-94350958D03*
%TD*%
D27*
%TO.C,C172*%
X164444376Y-113038849D03*
X164444376Y-110088849D03*
%TD*%
D26*
%TO.C,C188*%
X171137233Y-114788849D03*
X171137233Y-117738849D03*
%TD*%
D27*
%TO.C,C197*%
X164407887Y-79575000D03*
X164407887Y-76625000D03*
%TD*%
%TO.C,C194*%
X174565033Y-79575000D03*
X174565033Y-76625000D03*
%TD*%
M02*
