%TF.GenerationSoftware,KiCad,Pcbnew,8.0.4*%
%TF.CreationDate,2024-10-18T00:11:30-06:00*%
%TF.ProjectId,Motor Controller,4d6f746f-7220-4436-9f6e-74726f6c6c65,Mk. 1*%
%TF.SameCoordinates,Original*%
%TF.FileFunction,Legend,Bot*%
%TF.FilePolarity,Positive*%
%FSLAX46Y46*%
G04 Gerber Fmt 4.6, Leading zero omitted, Abs format (unit mm)*
G04 Created by KiCad (PCBNEW 8.0.4) date 2024-10-18 00:11:30*
%MOMM*%
%LPD*%
G01*
G04 APERTURE LIST*
%ADD10C,0.120000*%
%ADD11C,0.150000*%
%ADD12C,0.127000*%
%ADD13C,0.200000*%
%ADD14C,0.400000*%
G04 APERTURE END LIST*
D10*
%TO.C,R37*%
X201127500Y-90525242D02*
X201127500Y-90999758D01*
X202172500Y-90525242D02*
X202172500Y-90999758D01*
%TO.C,C151*%
X129420552Y-118709317D02*
X129619363Y-118908128D01*
X130141801Y-117988068D02*
X130340612Y-118186879D01*
%TO.C,R106*%
X115502064Y-88585000D02*
X115047936Y-88585000D01*
X115502064Y-87115000D02*
X115047936Y-87115000D01*
%TO.C,U12*%
X202815000Y-106300000D02*
X202485000Y-106540000D01*
X202485000Y-106060000D01*
X202815000Y-106300000D01*
G36*
X202815000Y-106300000D02*
G01*
X202485000Y-106540000D01*
X202485000Y-106060000D01*
X202815000Y-106300000D01*
G37*
X205860000Y-107000000D02*
X205860000Y-109200000D01*
X205860000Y-111400000D02*
X205860000Y-109200000D01*
X202640000Y-107000000D02*
X202640000Y-109200000D01*
X202640000Y-111400000D02*
X202640000Y-109200000D01*
%TO.C,U32*%
X104495000Y-90775000D02*
X104015000Y-90775000D01*
X104255000Y-90445000D01*
X104495000Y-90775000D01*
G36*
X104495000Y-90775000D02*
G01*
X104015000Y-90775000D01*
X104255000Y-90445000D01*
X104495000Y-90775000D01*
G37*
D11*
X108830000Y-90520000D02*
X104680000Y-90520000D01*
X108830000Y-85370000D02*
X104680000Y-85370000D01*
D10*
%TO.C,C96*%
X199665000Y-111440580D02*
X199665000Y-111159420D01*
X200685000Y-111440580D02*
X200685000Y-111159420D01*
D12*
%TO.C,L2*%
X103050000Y-98200000D02*
X110550000Y-98200000D01*
X110550000Y-96670000D02*
X110550000Y-98200000D01*
X103050000Y-96670000D02*
X103050000Y-98200000D01*
X110550000Y-92730000D02*
X110550000Y-91200000D01*
X103050000Y-91200000D02*
X110550000Y-91200000D01*
X103050000Y-92730000D02*
X103050000Y-91200000D01*
D10*
%TO.C,C166*%
X102335000Y-89440580D02*
X102335000Y-89159420D01*
X101315000Y-89440580D02*
X101315000Y-89159420D01*
%TO.C,C78*%
X199640000Y-90903080D02*
X199640000Y-90621920D01*
X200660000Y-90903080D02*
X200660000Y-90621920D01*
%TO.C,U4*%
X134466170Y-112497793D02*
X134063119Y-112434154D01*
X134402530Y-112094743D01*
X134466170Y-112497793D01*
G36*
X134466170Y-112497793D02*
G01*
X134063119Y-112434154D01*
X134402530Y-112094743D01*
X134466170Y-112497793D01*
G37*
X134731335Y-119339052D02*
X136110193Y-117960193D01*
X137489052Y-116581335D02*
X136110193Y-117960193D01*
X131110948Y-115718665D02*
X132489807Y-114339807D01*
X133868665Y-112960948D02*
X132489807Y-114339807D01*
%TO.C,R14*%
X175012742Y-73327500D02*
X175487258Y-73327500D01*
X175012742Y-74372500D02*
X175487258Y-74372500D01*
%TO.C,J22*%
X131427817Y-114086396D02*
X129447918Y-116066295D01*
X128493324Y-116030940D02*
X128069060Y-115606676D01*
X127609441Y-114369239D02*
X128033705Y-114369239D01*
X128033705Y-113944975D02*
X128033705Y-114369239D01*
X128033705Y-113944975D02*
X127609441Y-114369239D01*
X130968198Y-112707538D02*
X131392462Y-113131802D01*
X128033705Y-114652082D02*
X130013604Y-112672183D01*
X129483274Y-116030940D02*
G75*
G02*
X128493324Y-116030940I-494975J494973D01*
G01*
X128069060Y-115606676D02*
G75*
G02*
X128069060Y-114616726I494973J494975D01*
G01*
X131392462Y-113131802D02*
G75*
G02*
X131392462Y-114121752I-494975J-494975D01*
G01*
X129978248Y-112707538D02*
G75*
G02*
X130968198Y-112707538I494975J-494975D01*
G01*
%TO.C,C163*%
X113260000Y-89961252D02*
X113260000Y-89438748D01*
X111790000Y-89961252D02*
X111790000Y-89438748D01*
%TO.C,C75*%
X206315000Y-111159420D02*
X206315000Y-111440580D01*
X207335000Y-111159420D02*
X207335000Y-111440580D01*
%TO.C,U15*%
X202615000Y-90812500D02*
X202615000Y-88612500D01*
X202615000Y-86412500D02*
X202615000Y-88612500D01*
X205835000Y-90812500D02*
X205835000Y-88612500D01*
X205835000Y-86412500D02*
X205835000Y-88612500D01*
X202790000Y-85712500D02*
X202460000Y-85952500D01*
X202460000Y-85472500D01*
X202790000Y-85712500D01*
G36*
X202790000Y-85712500D02*
G01*
X202460000Y-85952500D01*
X202460000Y-85472500D01*
X202790000Y-85712500D01*
G37*
%TO.C,C150*%
X207790000Y-90646920D02*
X207790000Y-90928080D01*
X208810000Y-90646920D02*
X208810000Y-90928080D01*
%TO.C,FB10*%
X209290000Y-90950279D02*
X209290000Y-90624721D01*
X210310000Y-90950279D02*
X210310000Y-90624721D01*
%TO.C,FB14*%
X209315000Y-111462779D02*
X209315000Y-111137221D01*
X210335000Y-111462779D02*
X210335000Y-111137221D01*
%TO.C,C16*%
X206215000Y-131809420D02*
X206215000Y-132090580D01*
X207235000Y-131809420D02*
X207235000Y-132090580D01*
%TO.C,C167*%
X100760000Y-89361252D02*
X100760000Y-88838748D01*
X99290000Y-89361252D02*
X99290000Y-88838748D01*
%TO.C,C93*%
X207815000Y-111159420D02*
X207815000Y-111440580D01*
X208835000Y-111159420D02*
X208835000Y-111440580D01*
%TO.C,R104*%
X112537500Y-84842936D02*
X112537500Y-85297064D01*
X111067500Y-84842936D02*
X111067500Y-85297064D01*
D12*
%TO.C,J9*%
X189745000Y-54387500D02*
X200705000Y-54387500D01*
X200705000Y-54387500D02*
X200705000Y-72387500D01*
X189745000Y-72387500D02*
X189745000Y-54387500D01*
X200705000Y-72387500D02*
X189745000Y-72387500D01*
D13*
X192785000Y-72987500D02*
G75*
G02*
X192585000Y-72987500I-100000J0D01*
G01*
X192585000Y-72987500D02*
G75*
G02*
X192785000Y-72987500I100000J0D01*
G01*
D10*
%TO.C,R90*%
X114537500Y-85297064D02*
X114537500Y-84842936D01*
X113067500Y-85297064D02*
X113067500Y-84842936D01*
%TO.C,C164*%
X101760000Y-92538748D02*
X101760000Y-93061252D01*
X100290000Y-92538748D02*
X100290000Y-93061252D01*
%TO.C,U13*%
X202540000Y-132000000D02*
X202540000Y-129800000D01*
X202540000Y-127600000D02*
X202540000Y-129800000D01*
X205760000Y-132000000D02*
X205760000Y-129800000D01*
X205760000Y-127600000D02*
X205760000Y-129800000D01*
X202715000Y-126900000D02*
X202385000Y-127140000D01*
X202385000Y-126660000D01*
X202715000Y-126900000D01*
G36*
X202715000Y-126900000D02*
G01*
X202385000Y-127140000D01*
X202385000Y-126660000D01*
X202715000Y-126900000D01*
G37*
%TO.C,C2*%
X207715000Y-131809420D02*
X207715000Y-132090580D01*
X208735000Y-131809420D02*
X208735000Y-132090580D01*
%TO.C,C165*%
X99710000Y-92538748D02*
X99710000Y-93061252D01*
X98240000Y-92538748D02*
X98240000Y-93061252D01*
%TO.C,C17*%
X206290000Y-90646920D02*
X206290000Y-90928080D01*
X207310000Y-90646920D02*
X207310000Y-90928080D01*
%TO.C,R51*%
X201152500Y-111062742D02*
X201152500Y-111537258D01*
X202197500Y-111062742D02*
X202197500Y-111537258D01*
%TO.C,FB9*%
X209215000Y-132112779D02*
X209215000Y-131787221D01*
X210235000Y-132112779D02*
X210235000Y-131787221D01*
%TO.C,R43*%
X201052500Y-131562742D02*
X201052500Y-132037258D01*
X202097500Y-131562742D02*
X202097500Y-132037258D01*
%TO.C,C85*%
X199565000Y-131940580D02*
X199565000Y-131659420D01*
X200585000Y-131940580D02*
X200585000Y-131659420D01*
%TO.C,C184*%
X173201277Y-83611252D02*
X173201277Y-82188748D01*
X175921277Y-83611252D02*
X175921277Y-82188748D01*
%TO.C,C185*%
X173099792Y-110852597D02*
X173099792Y-112275101D01*
X175819792Y-110852597D02*
X175819792Y-112275101D01*
%TO.C,C186*%
X163099792Y-116975101D02*
X163099792Y-115552597D01*
X165819792Y-116975101D02*
X165819792Y-115552597D01*
%TO.C,C80*%
X166429849Y-83611252D02*
X166429849Y-82188748D01*
X169149849Y-83611252D02*
X169149849Y-82188748D01*
%TO.C,C70*%
X135415000Y-56435580D02*
X135415000Y-56154420D01*
X136435000Y-56435580D02*
X136435000Y-56154420D01*
%TO.C,C117*%
X116115000Y-121006248D02*
X116115000Y-121528752D01*
X117585000Y-121006248D02*
X117585000Y-121528752D01*
%TO.C,C112*%
X116115000Y-113756248D02*
X116115000Y-114278752D01*
X117585000Y-113756248D02*
X117585000Y-114278752D01*
%TO.C,C87*%
X166391519Y-110852597D02*
X166391519Y-112275101D01*
X169111519Y-110852597D02*
X169111519Y-112275101D01*
%TO.C,C111*%
X112036252Y-101210000D02*
X111513748Y-101210000D01*
X112036252Y-99740000D02*
X111513748Y-99740000D01*
%TO.C,C120*%
X112211252Y-126452500D02*
X111688748Y-126452500D01*
X112211252Y-124982500D02*
X111688748Y-124982500D01*
%TO.C,R47*%
X170812689Y-94626558D02*
X171148222Y-94291025D01*
X171551616Y-95365485D02*
X171887149Y-95029952D01*
%TO.C,C71*%
X136265580Y-58185000D02*
X135984420Y-58185000D01*
X136265580Y-59205000D02*
X135984420Y-59205000D01*
%TO.C,U31*%
X128750000Y-55085000D02*
X130700000Y-55085000D01*
X128750000Y-60205000D02*
X130700000Y-60205000D01*
X132650000Y-55085000D02*
X130700000Y-55085000D01*
X132650000Y-60205000D02*
X130700000Y-60205000D01*
X133400000Y-55180000D02*
X133160000Y-54850000D01*
X133640000Y-54850000D01*
X133400000Y-55180000D01*
G36*
X133400000Y-55180000D02*
G01*
X133160000Y-54850000D01*
X133640000Y-54850000D01*
X133400000Y-55180000D01*
G37*
%TO.C,R40*%
X164471608Y-105512866D02*
X164136075Y-105848399D01*
X165210535Y-106251793D02*
X164875002Y-106587326D01*
%TO.C,C171*%
X146890000Y-58580580D02*
X146890000Y-58299420D01*
X147910000Y-58580580D02*
X147910000Y-58299420D01*
%TO.C,U19*%
X114190000Y-111012500D02*
X113950000Y-110682500D01*
X114430000Y-110682500D01*
X114190000Y-111012500D01*
G36*
X114190000Y-111012500D02*
G01*
X113950000Y-110682500D01*
X114430000Y-110682500D01*
X114190000Y-111012500D01*
G37*
X112770000Y-117602500D02*
X106350000Y-117602500D01*
X112770000Y-117332500D02*
X112770000Y-117602500D01*
X112770000Y-110972500D02*
X112770000Y-110702500D01*
X112770000Y-110702500D02*
X106350000Y-110702500D01*
%TO.C,D2*%
X121600000Y-71987500D02*
X121600000Y-78487500D01*
X113090000Y-78487500D02*
X121600000Y-78487500D01*
X113090000Y-71987500D02*
X121600000Y-71987500D01*
%TO.C,R46*%
X163410948Y-104452206D02*
X163075415Y-104787739D01*
X164149875Y-105191133D02*
X163814342Y-105526666D01*
%TO.C,C183*%
X169815563Y-83611252D02*
X169815563Y-82188748D01*
X172535563Y-83611252D02*
X172535563Y-82188748D01*
%TO.C,U11*%
X140550000Y-55055000D02*
X142500000Y-55055000D01*
X140550000Y-60175000D02*
X142500000Y-60175000D01*
X144450000Y-55055000D02*
X142500000Y-55055000D01*
X144450000Y-60175000D02*
X142500000Y-60175000D01*
X145200000Y-55150000D02*
X144960000Y-54820000D01*
X145440000Y-54820000D01*
X145200000Y-55150000D01*
G36*
X145200000Y-55150000D02*
G01*
X144960000Y-54820000D01*
X145440000Y-54820000D01*
X145200000Y-55150000D01*
G37*
%TO.C,C169*%
X173099792Y-116975101D02*
X173099792Y-115552597D01*
X175819792Y-116975101D02*
X175819792Y-115552597D01*
%TO.C,U20*%
X114190000Y-118080000D02*
X113950000Y-117750000D01*
X114430000Y-117750000D01*
X114190000Y-118080000D01*
G36*
X114190000Y-118080000D02*
G01*
X113950000Y-117750000D01*
X114430000Y-117750000D01*
X114190000Y-118080000D01*
G37*
X112770000Y-124670000D02*
X106350000Y-124670000D01*
X112770000Y-124400000D02*
X112770000Y-124670000D01*
X112770000Y-118040000D02*
X112770000Y-117770000D01*
X112770000Y-117770000D02*
X106350000Y-117770000D01*
%TO.C,U18*%
X114190000Y-101927500D02*
X113950000Y-101597500D01*
X114430000Y-101597500D01*
X114190000Y-101927500D01*
G36*
X114190000Y-101927500D02*
G01*
X113950000Y-101597500D01*
X114430000Y-101597500D01*
X114190000Y-101927500D01*
G37*
X112770000Y-108517500D02*
X106350000Y-108517500D01*
X112770000Y-108247500D02*
X112770000Y-108517500D01*
X112770000Y-101887500D02*
X112770000Y-101617500D01*
X112770000Y-101617500D02*
X106350000Y-101617500D01*
%TO.C,R35*%
X168691368Y-92505238D02*
X169026901Y-92169705D01*
X169430295Y-93244165D02*
X169765828Y-92908632D01*
%TO.C,C149*%
X169819315Y-77388748D02*
X169819315Y-78811252D01*
X172539315Y-77388748D02*
X172539315Y-78811252D01*
%TO.C,C192*%
X169777233Y-110852597D02*
X169777233Y-112275101D01*
X172497233Y-110852597D02*
X172497233Y-112275101D01*
%TO.C,C148*%
X154715000Y-57115580D02*
X154715000Y-56834420D01*
X155735000Y-57115580D02*
X155735000Y-56834420D01*
%TO.C,C193*%
X163044135Y-83611252D02*
X163044135Y-82188748D01*
X165764135Y-83611252D02*
X165764135Y-82188748D01*
D14*
%TO.C,U16*%
X142270000Y-144475000D02*
G75*
G02*
X141870000Y-144475000I-200000J0D01*
G01*
X141870000Y-144475000D02*
G75*
G02*
X142270000Y-144475000I200000J0D01*
G01*
D13*
X142770000Y-145175000D02*
X138970000Y-145175000D01*
X142770000Y-140575000D02*
X142770000Y-145175000D01*
X138970000Y-145175000D02*
X138970000Y-140575000D01*
X138970000Y-140575000D02*
X142770000Y-140575000D01*
D10*
%TO.C,R34*%
X165546124Y-106587382D02*
X165210591Y-106922915D01*
X166285051Y-107326309D02*
X165949518Y-107661842D01*
%TO.C,C110*%
X116240000Y-105213748D02*
X116240000Y-105736252D01*
X117710000Y-105213748D02*
X117710000Y-105736252D01*
%TO.C,C189*%
X166433601Y-77388748D02*
X166433601Y-78811252D01*
X169153601Y-77388748D02*
X169153601Y-78811252D01*
%TO.C,C187*%
X166391519Y-116975101D02*
X166391519Y-115552597D01*
X169111519Y-116975101D02*
X169111519Y-115552597D01*
%TO.C,R88*%
X136202500Y-61362742D02*
X136202500Y-61837258D01*
X137247500Y-61362742D02*
X137247500Y-61837258D01*
%TO.C,C199*%
X156340580Y-60340000D02*
X156059420Y-60340000D01*
X156340580Y-61360000D02*
X156059420Y-61360000D01*
%TO.C,C168*%
X156115580Y-58740000D02*
X155834420Y-58740000D01*
X156115580Y-59760000D02*
X155834420Y-59760000D01*
%TO.C,U29*%
X150115000Y-55290000D02*
X150115000Y-56270000D01*
X150115000Y-55290000D02*
X152695000Y-55290000D01*
X150115000Y-60010000D02*
X150115000Y-59030000D01*
X152835000Y-60010000D02*
X150115000Y-60010000D01*
X153245000Y-55440000D02*
X153005000Y-55110000D01*
X153485000Y-55110000D01*
X153245000Y-55440000D01*
G36*
X153245000Y-55440000D02*
G01*
X153005000Y-55110000D01*
X153485000Y-55110000D01*
X153245000Y-55440000D01*
G37*
%TO.C,C114*%
X112261252Y-110335000D02*
X111738748Y-110335000D01*
X112261252Y-108865000D02*
X111738748Y-108865000D01*
%TO.C,R41*%
X169752029Y-93565898D02*
X170087562Y-93230365D01*
X170490956Y-94304825D02*
X170826489Y-93969292D01*
%TO.C,C172*%
X163084376Y-110852597D02*
X163084376Y-112275101D01*
X165804376Y-110852597D02*
X165804376Y-112275101D01*
%TO.C,C188*%
X169777233Y-116975101D02*
X169777233Y-115552597D01*
X172497233Y-116975101D02*
X172497233Y-115552597D01*
%TO.C,C197*%
X163047887Y-77388748D02*
X163047887Y-78811252D01*
X165767887Y-77388748D02*
X165767887Y-78811252D01*
%TO.C,C194*%
X173205033Y-77388748D02*
X173205033Y-78811252D01*
X175925033Y-77388748D02*
X175925033Y-78811252D01*
%TD*%
M02*
