%TF.GenerationSoftware,KiCad,Pcbnew,8.0.4*%
%TF.CreationDate,2024-10-18T00:11:30-06:00*%
%TF.ProjectId,Motor Controller,4d6f746f-7220-4436-9f6e-74726f6c6c65,Mk. 1*%
%TF.SameCoordinates,Original*%
%TF.FileFunction,Copper,L2,Inr*%
%TF.FilePolarity,Positive*%
%FSLAX46Y46*%
G04 Gerber Fmt 4.6, Leading zero omitted, Abs format (unit mm)*
G04 Created by KiCad (PCBNEW 8.0.4) date 2024-10-18 00:11:30*
%MOMM*%
%LPD*%
G01*
G04 APERTURE LIST*
%TA.AperFunction,ComponentPad*%
%ADD10C,2.900000*%
%TD*%
%TA.AperFunction,ComponentPad*%
%ADD11R,1.700000X1.700000*%
%TD*%
%TA.AperFunction,ComponentPad*%
%ADD12O,1.700000X1.700000*%
%TD*%
%TA.AperFunction,ComponentPad*%
%ADD13C,2.200000*%
%TD*%
%TA.AperFunction,ComponentPad*%
%ADD14R,2.200000X2.200000*%
%TD*%
%TA.AperFunction,ComponentPad*%
%ADD15C,0.800000*%
%TD*%
%TA.AperFunction,ComponentPad*%
%ADD16C,7.000000*%
%TD*%
%TA.AperFunction,ComponentPad*%
%ADD17C,1.508000*%
%TD*%
%TA.AperFunction,ComponentPad*%
%ADD18R,1.508000X1.508000*%
%TD*%
%TA.AperFunction,ComponentPad*%
%ADD19C,2.100000*%
%TD*%
%TA.AperFunction,HeatsinkPad*%
%ADD20C,0.600000*%
%TD*%
%TA.AperFunction,ComponentPad*%
%ADD21C,1.500000*%
%TD*%
%TA.AperFunction,ComponentPad*%
%ADD22R,1.500000X1.500000*%
%TD*%
%TA.AperFunction,ComponentPad*%
%ADD23C,4.500000*%
%TD*%
%TA.AperFunction,ViaPad*%
%ADD24C,0.700000*%
%TD*%
%TA.AperFunction,ViaPad*%
%ADD25C,0.800000*%
%TD*%
%TA.AperFunction,ViaPad*%
%ADD26C,0.600000*%
%TD*%
%TA.AperFunction,Conductor*%
%ADD27C,0.500000*%
%TD*%
G04 APERTURE END LIST*
D10*
%TO.N,/Power Delivery/Motor Supply Unprotected*%
%TO.C,J19*%
X187600000Y-69210000D03*
X187600000Y-62200000D03*
X182600000Y-69210000D03*
X182600000Y-62200000D03*
%TD*%
%TO.N,/Motor Gate Driver/Coil Drive V/COIL_{V}*%
%TO.C,J16*%
X225355000Y-100900000D03*
X218345000Y-100900000D03*
X225355000Y-105900000D03*
X218345000Y-105900000D03*
%TD*%
%TO.N,GND*%
%TO.C,J31*%
X207850000Y-69210000D03*
X207850000Y-62200000D03*
X202850000Y-69210000D03*
X202850000Y-62200000D03*
%TD*%
%TO.N,/Motor Gate Driver/Coil Drive W/COIL_{W}*%
%TO.C,J17*%
X225305000Y-121500000D03*
X218295000Y-121500000D03*
X225305000Y-126500000D03*
X218295000Y-126500000D03*
%TD*%
%TO.N,/Motor Gate Driver/Coil Drive U/COIL_{U}*%
%TO.C,J15*%
X218295000Y-85400000D03*
X225305000Y-85400000D03*
X218295000Y-80400000D03*
X225305000Y-80400000D03*
%TD*%
D11*
%TO.N,/PWM_WY1_H_A*%
%TO.C,J6*%
X145600000Y-97370000D03*
D12*
%TO.N,/PWM_WY1_H*%
X145600000Y-99910000D03*
%TO.N,/PWM_WY1_H_B*%
X145600000Y-102450000D03*
%TD*%
D13*
%TO.N,/Isolated Driver Interface/EXT_NRST_Controller_B_ISO*%
%TO.C,J7*%
X135280000Y-150450000D03*
%TO.N,/Isolated Driver Interface/EXT_DRV_EN_IN_ISO*%
X137820000Y-150450000D03*
%TO.N,/Isolated Driver Interface/EXT_NRST_Controller_A_IN_ISO*%
X140360000Y-150450000D03*
D14*
%TO.N,/Isolated Driver Interface/FAULT_OUT_ISO*%
X142900000Y-150450000D03*
%TD*%
D15*
%TO.N,N/C*%
%TO.C,H8*%
X221150000Y-137800000D03*
X221918845Y-135943845D03*
X221918845Y-139656155D03*
X223775000Y-135175000D03*
D16*
X223775000Y-137800000D03*
D15*
X223775000Y-140425000D03*
X225631155Y-135943845D03*
X225631155Y-139656155D03*
X226400000Y-137800000D03*
%TD*%
D17*
%TO.N,5V_ISOLATED*%
%TO.C,PS1*%
X128150000Y-144570000D03*
%TO.N,GND1*%
X128150000Y-142030000D03*
%TO.N,+5V*%
X128150000Y-139490000D03*
D18*
%TO.N,GND*%
X128150000Y-136950000D03*
%TD*%
D19*
%TO.N,/Power Delivery/IN_SYS*%
%TO.C,J18*%
X113960000Y-61437500D03*
X113960000Y-70137500D03*
%TO.N,GND*%
X119040000Y-61437500D03*
X119040000Y-70137500D03*
%TD*%
D11*
%TO.N,/EXT_POWER_STAGE_EN_IN*%
%TO.C,JP14*%
X170900000Y-69735000D03*
D12*
%TO.N,/Power Delivery/Motor Supply Unprotected*%
X170900000Y-67195000D03*
%TD*%
D20*
%TO.N,GND*%
%TO.C,U21*%
X104100000Y-68400000D03*
X102800000Y-68400000D03*
X101500000Y-68400000D03*
X100200000Y-68400000D03*
X98900000Y-68400000D03*
X104100000Y-69700000D03*
X102800000Y-69700000D03*
X101500000Y-69700000D03*
X100200000Y-69700000D03*
X98900000Y-69700000D03*
X104100000Y-71000000D03*
X102800000Y-71000000D03*
X101500000Y-71000000D03*
X100200000Y-71000000D03*
X98900000Y-71000000D03*
%TD*%
D11*
%TO.N,GND*%
%TO.C,JP16*%
X167150000Y-67185000D03*
D12*
%TO.N,/EXT_POWER_STAGE_EN_IN*%
X167150000Y-69725000D03*
%TD*%
D11*
%TO.N,/PWM_WY1_L_A*%
%TO.C,J5*%
X149300000Y-97370000D03*
D12*
%TO.N,/PWM_WY1_L*%
X149300000Y-99910000D03*
%TO.N,/PWM_WY1_L_B*%
X149300000Y-102450000D03*
%TD*%
D13*
%TO.N,GND*%
%TO.C,J10*%
X163820000Y-150450000D03*
%TO.N,/Position Sensing/HALL_UX_RAW*%
X161280000Y-150450000D03*
%TO.N,/Position Sensing/HALL_V_RAW*%
X158740000Y-150450000D03*
%TO.N,/Position Sensing/HALL_WY_RAW*%
X156200000Y-150450000D03*
D14*
%TO.N,+5V*%
X153660000Y-150450000D03*
%TD*%
D16*
%TO.N,/Comunications/CAN Bus Interface/SYS_7V*%
%TO.C,J28*%
X151232000Y-66775000D03*
%TO.N,GND2*%
X137512000Y-66775000D03*
D21*
%TO.N,/Comunications/CAN Bus Interface/SYS_12V*%
X147130000Y-63975000D03*
X144360000Y-63975000D03*
%TO.N,/Comunications/CAN Bus Interface/CAN_L-*%
X141590000Y-63975000D03*
D22*
%TO.N,/Comunications/CAN Bus Interface/SYS_12V*%
X145745000Y-66815000D03*
D21*
%TO.N,/Comunications/CAN Bus Interface/CAN_H+*%
X142975000Y-66870000D03*
D23*
%TO.N,N/C*%
X160995000Y-66175000D03*
X127695000Y-66175000D03*
%TD*%
D13*
%TO.N,unconnected-(J20-Pin_2-Pad2)*%
%TO.C,J20*%
X149540000Y-150450000D03*
D14*
%TO.N,/Isolated Driver Interface/EXT_POWER_STAGE_EN_ISO*%
X147000000Y-150450000D03*
%TD*%
D19*
%TO.N,/Power Delivery/Motor Supply Unprotected*%
%TO.C,J9*%
X192685000Y-70137500D03*
X192685000Y-61437500D03*
%TO.N,GND*%
X197765000Y-70137500D03*
X197765000Y-61437500D03*
%TD*%
D11*
%TO.N,/PWM_UX1_L_A*%
%TO.C,J1*%
X134500000Y-97370000D03*
D12*
%TO.N,/PWM_UX1_L*%
X134500000Y-99910000D03*
%TO.N,/PWM_UX1_L_B*%
X134500000Y-102450000D03*
%TD*%
D15*
%TO.N,N/C*%
%TO.C,H9*%
X221150000Y-59000000D03*
X221918845Y-57143845D03*
X221918845Y-60856155D03*
X223775000Y-56375000D03*
D16*
X223775000Y-59000000D03*
D15*
X223775000Y-61625000D03*
X225631155Y-57143845D03*
X225631155Y-60856155D03*
X226400000Y-59000000D03*
%TD*%
D11*
%TO.N,/PWM_VX2_H_A*%
%TO.C,J4*%
X138200000Y-97370000D03*
D12*
%TO.N,/PWM_VX2_H*%
X138200000Y-99910000D03*
%TO.N,/PWM_VX2_H_B*%
X138200000Y-102450000D03*
%TD*%
D11*
%TO.N,/PWM_VX2_L_A*%
%TO.C,J3*%
X141900000Y-97370000D03*
D12*
%TO.N,/PWM_VX2_L*%
X141900000Y-99910000D03*
%TO.N,/PWM_VX2_L_B*%
X141900000Y-102450000D03*
%TD*%
D11*
%TO.N,/PWM_UX1_H_A*%
%TO.C,J2*%
X130800000Y-97370000D03*
D12*
%TO.N,/PWM_UX1_H*%
X130800000Y-99910000D03*
%TO.N,/PWM_UX1_H_B*%
X130800000Y-102450000D03*
%TD*%
D13*
%TO.N,5V_ISOLATED*%
%TO.C,J8*%
X131200000Y-150425000D03*
D14*
%TO.N,GND1*%
X128660000Y-150425000D03*
%TD*%
D11*
%TO.N,Net-(J24-Pin_1)*%
%TO.C,J24*%
X99225000Y-76975000D03*
D12*
%TO.N,/Power Delivery/~{SHDN}*%
X96685000Y-76975000D03*
%TO.N,Net-(J24-Pin_3)*%
X94145000Y-76975000D03*
%TD*%
D24*
%TO.N,/Power Delivery/IN_SYS*%
X98160000Y-81112500D03*
%TO.N,GND*%
X170700000Y-61750000D03*
X168300000Y-67250000D03*
%TO.N,/EXT_POWER_STAGE_EN_IN*%
X171750000Y-74700000D03*
D25*
%TO.N,GND1*%
X138350000Y-143850000D03*
%TO.N,+3V3*%
X123138819Y-111242767D03*
X133738819Y-105342767D03*
X142038819Y-116442767D03*
X130788819Y-124592767D03*
X123788819Y-115392767D03*
%TO.N,+5V*%
X210700000Y-90000000D03*
%TO.N,/Motor Gate Driver/Coil Drive V/V_{SENSE\u002C V\u002C 1}*%
X179000000Y-106350000D03*
X171450000Y-102900000D03*
D26*
%TO.N,/Motor Gate Driver/Coil Drive W/VD+*%
X201550000Y-123880000D03*
%TO.N,/Motor Gate Driver/Coil Drive W/COIL_{W}*%
X206950000Y-123880000D03*
%TO.N,/Motor Gate Driver/Coil Drive V/V_{SENSE\u002C V\u002C 1}*%
X201550000Y-103425336D03*
%TO.N,/Motor Gate Driver/Coil Drive V/COIL_{V}*%
X206950000Y-103425336D03*
%TO.N,/Motor Gate Driver/Coil Drive U/V_{SENSE\u002C U\u002C 1}*%
X201550000Y-82800000D03*
%TO.N,/Motor Gate Driver/Coil Drive U/COIL_{U}*%
X206950000Y-82800000D03*
D25*
%TO.N,GND*%
X181920000Y-98250000D03*
X219470000Y-91950000D03*
X172295000Y-117115000D03*
X172200000Y-73850000D03*
X217050000Y-94250000D03*
X169190000Y-118200000D03*
X182505000Y-97035000D03*
X224335000Y-113585000D03*
X176840000Y-98250000D03*
X165925000Y-83715000D03*
X185570000Y-129275000D03*
X206800000Y-89212500D03*
X166630000Y-77235000D03*
X225605000Y-113585000D03*
X180490000Y-129275000D03*
X169170000Y-84800000D03*
X184340000Y-95950000D03*
X217985000Y-113585000D03*
X165360000Y-84800000D03*
X177385000Y-130360000D03*
X186960000Y-131575000D03*
X172980000Y-77235000D03*
X169735000Y-76150000D03*
X184420000Y-131575000D03*
D26*
X165050000Y-97750000D03*
D25*
X171710000Y-84800000D03*
X185730000Y-98250000D03*
X216715000Y-113585000D03*
X166650000Y-110635000D03*
X167900000Y-84800000D03*
X227090000Y-91950000D03*
X165380000Y-110635000D03*
X178070000Y-131575000D03*
X167920000Y-118200000D03*
X173000000Y-118200000D03*
D26*
X165050000Y-98950000D03*
D25*
X179965000Y-97035000D03*
X171005000Y-76150000D03*
X176800000Y-131575000D03*
X173545000Y-83715000D03*
X183775000Y-97035000D03*
X168485000Y-117115000D03*
X164110000Y-110635000D03*
X170440000Y-84800000D03*
X220525000Y-113585000D03*
X174250000Y-77235000D03*
X224900000Y-112500000D03*
X180650000Y-98250000D03*
X178110000Y-98250000D03*
X181195000Y-130360000D03*
X168465000Y-83715000D03*
X164675000Y-117115000D03*
X167215000Y-117115000D03*
X179340000Y-131575000D03*
X171730000Y-118200000D03*
X216130000Y-114800000D03*
D26*
X162700000Y-98900000D03*
D25*
X208300000Y-89212500D03*
X224550000Y-91950000D03*
X167920000Y-110635000D03*
D26*
X164450000Y-98350000D03*
D25*
X206725000Y-130300000D03*
X177425000Y-97035000D03*
X174815000Y-83715000D03*
X186275000Y-130360000D03*
D26*
X163900000Y-100100000D03*
D25*
X200075000Y-133450000D03*
X219255000Y-113585000D03*
X185005000Y-130360000D03*
X167215000Y-109550000D03*
X225940000Y-94250000D03*
X165380000Y-118200000D03*
X221210000Y-114800000D03*
X181235000Y-97035000D03*
X187000000Y-98250000D03*
X181880000Y-131575000D03*
X223280000Y-91950000D03*
X173545000Y-76150000D03*
X219940000Y-114800000D03*
X164655000Y-76150000D03*
X223065000Y-113585000D03*
X218670000Y-114800000D03*
X169735000Y-83715000D03*
X180530000Y-95950000D03*
X225255000Y-93035000D03*
X174270000Y-110635000D03*
X177950000Y-129275000D03*
X223400000Y-94250000D03*
X187585000Y-97035000D03*
X200175000Y-112800000D03*
X179380000Y-98250000D03*
X218320000Y-94250000D03*
X216930000Y-91950000D03*
X220740000Y-91950000D03*
X200150000Y-92312500D03*
X177990000Y-95950000D03*
X186880000Y-95950000D03*
X169170000Y-77235000D03*
X218905000Y-93035000D03*
X183190000Y-98250000D03*
X164110000Y-118200000D03*
X171710000Y-77235000D03*
X179220000Y-129275000D03*
X226875000Y-113585000D03*
X172295000Y-109550000D03*
X173565000Y-109550000D03*
X164090000Y-77235000D03*
X219590000Y-94250000D03*
X222715000Y-93035000D03*
X167195000Y-76150000D03*
D26*
X165050000Y-96550000D03*
D25*
X218550000Y-112500000D03*
X165360000Y-77235000D03*
X222480000Y-114800000D03*
X174250000Y-84800000D03*
X172275000Y-76150000D03*
X168465000Y-76150000D03*
X221445000Y-93035000D03*
X181800000Y-95950000D03*
X167195000Y-83715000D03*
X185045000Y-97035000D03*
X219820000Y-112500000D03*
X225020000Y-114800000D03*
X223750000Y-114800000D03*
X180610000Y-131575000D03*
X165945000Y-109550000D03*
X172275000Y-83715000D03*
X188110000Y-129275000D03*
X173000000Y-110635000D03*
X164655000Y-83715000D03*
X178655000Y-130360000D03*
X165945000Y-117115000D03*
X188150000Y-95950000D03*
X179260000Y-95950000D03*
X222010000Y-91950000D03*
X217280000Y-112500000D03*
X221795000Y-113585000D03*
X215780000Y-94250000D03*
X217635000Y-93035000D03*
X220175000Y-93035000D03*
X165925000Y-76150000D03*
D26*
X162650000Y-97700000D03*
D25*
X216365000Y-93035000D03*
X226170000Y-112500000D03*
X164090000Y-84800000D03*
X224670000Y-94250000D03*
X223630000Y-112500000D03*
X170440000Y-77235000D03*
X223985000Y-93035000D03*
D26*
X166250000Y-98950000D03*
D25*
X226525000Y-93035000D03*
X174815000Y-76150000D03*
X172980000Y-84800000D03*
X166650000Y-118200000D03*
X171730000Y-110635000D03*
X167900000Y-77235000D03*
D26*
X166250000Y-97750000D03*
D25*
X164675000Y-109550000D03*
X179925000Y-130360000D03*
X184460000Y-98250000D03*
D26*
X165050000Y-100100000D03*
X163850000Y-96550000D03*
D25*
X171025000Y-117115000D03*
X220860000Y-94250000D03*
X226290000Y-114800000D03*
X166630000Y-84800000D03*
D26*
X163850000Y-97750000D03*
D25*
X170460000Y-118200000D03*
X208175000Y-130300000D03*
X169755000Y-117115000D03*
X168485000Y-109550000D03*
X208325000Y-109750000D03*
X183070000Y-95950000D03*
X185610000Y-95950000D03*
D26*
X163850000Y-98900000D03*
D25*
X178695000Y-97035000D03*
X222360000Y-112500000D03*
X218200000Y-91950000D03*
X181760000Y-129275000D03*
X186315000Y-97035000D03*
X225820000Y-91950000D03*
X227440000Y-112500000D03*
X171005000Y-83715000D03*
X184300000Y-129275000D03*
X221090000Y-112500000D03*
X222130000Y-94250000D03*
X185690000Y-131575000D03*
X206825000Y-109750000D03*
X186840000Y-129275000D03*
X217400000Y-114800000D03*
X187545000Y-130360000D03*
%TO.N,V_{M}*%
X171180000Y-81420000D03*
X188110000Y-113230000D03*
X179000000Y-85020000D03*
X190650000Y-113230000D03*
X193190000Y-118310000D03*
X188110000Y-118310000D03*
X167800000Y-79610000D03*
X176300000Y-80450000D03*
X184080000Y-77400000D03*
X194000000Y-77350000D03*
X186620000Y-79940000D03*
X174560000Y-81380000D03*
X177887500Y-113273849D03*
X191920000Y-111960000D03*
X185350000Y-76350000D03*
X186777500Y-114543849D03*
X182810000Y-81210000D03*
X186620000Y-85020000D03*
X188970000Y-77390000D03*
X188110000Y-115770000D03*
X194460000Y-117040000D03*
X186620000Y-82480000D03*
X177887500Y-115813849D03*
X194460000Y-114500000D03*
X190200000Y-76340000D03*
X177800000Y-76350000D03*
X180427500Y-115813849D03*
X191920000Y-109420000D03*
X195730000Y-118310000D03*
X188110000Y-110690000D03*
X190200000Y-78660000D03*
X181697500Y-112003849D03*
X186777500Y-112003849D03*
X172880000Y-80490000D03*
X163230000Y-80470000D03*
X184237500Y-112003849D03*
X186620000Y-77400000D03*
X186777500Y-109463849D03*
X184080000Y-79940000D03*
X180300000Y-76350000D03*
X190650000Y-118310000D03*
X186777500Y-117083849D03*
X177730000Y-78670000D03*
X181697500Y-114543849D03*
X179000000Y-79940000D03*
X181697500Y-109463849D03*
X181540000Y-85020000D03*
X193190000Y-115770000D03*
X185350000Y-83750000D03*
X193190000Y-113230000D03*
X185507500Y-110733849D03*
X189380000Y-109420000D03*
X184080000Y-82480000D03*
X191920000Y-117040000D03*
X187700000Y-83750000D03*
X195730000Y-115770000D03*
X187700000Y-76340000D03*
X182810000Y-83750000D03*
X180270000Y-83750000D03*
X169490000Y-80460000D03*
X195730000Y-113230000D03*
X164420000Y-79600000D03*
X190200000Y-81200000D03*
X179157500Y-114543849D03*
X177730000Y-83750000D03*
X182810000Y-76350000D03*
X182967500Y-113273849D03*
X188970000Y-82470000D03*
X192730000Y-76300000D03*
X193190000Y-110690000D03*
X185350000Y-81210000D03*
X194460000Y-111960000D03*
X187700000Y-81200000D03*
X195400000Y-76300000D03*
X177730000Y-81210000D03*
X190650000Y-110690000D03*
X189380000Y-111960000D03*
X191470000Y-77390000D03*
X181540000Y-77400000D03*
X185350000Y-78670000D03*
X185507500Y-115813849D03*
X185507500Y-113273849D03*
X171190000Y-79600000D03*
X189380000Y-114500000D03*
X185507500Y-118353849D03*
X195400000Y-78650000D03*
X187700000Y-78660000D03*
X184237500Y-109463849D03*
X181697500Y-117083849D03*
X180270000Y-81210000D03*
X184237500Y-114543849D03*
X166110000Y-113870000D03*
X182967500Y-110733849D03*
X164420000Y-81370000D03*
X179157500Y-109463849D03*
X184237500Y-117083849D03*
X173850000Y-113050000D03*
X179000000Y-82480000D03*
X181540000Y-82480000D03*
X177887500Y-110733849D03*
X180427500Y-113273849D03*
X167800000Y-81440000D03*
X163240000Y-113890000D03*
X167810000Y-113030000D03*
X157991151Y-110591151D03*
X180427500Y-110733849D03*
X184080000Y-85020000D03*
X182967500Y-118353849D03*
X164430000Y-113020000D03*
X182967500Y-115813849D03*
X169500000Y-113880000D03*
X192730000Y-78620000D03*
X188970000Y-79930000D03*
X167810000Y-114860000D03*
X195730000Y-110690000D03*
X174560000Y-79530000D03*
X181540000Y-79940000D03*
X164430000Y-114790000D03*
X180270000Y-78670000D03*
X182810000Y-78670000D03*
X179157500Y-112003849D03*
X191920000Y-114500000D03*
X190650000Y-115770000D03*
X166100000Y-80450000D03*
X194460000Y-109420000D03*
X191470000Y-79930000D03*
D26*
%TO.N,/Motor Gate Driver/SPE*%
X159141421Y-99059798D03*
D25*
%TO.N,/Motor Gate Driver/HSU*%
X169773305Y-99350096D03*
X172651041Y-97248959D03*
%TO.N,/Motor Gate Driver/LSU*%
X169483999Y-93232997D03*
%TO.N,/Motor Gate Driver/HSV*%
X170711699Y-103723584D03*
X168263021Y-101404144D03*
%TO.N,/Motor Gate Driver/HSW*%
X168701044Y-105777045D03*
X166498064Y-103043070D03*
%TO.N,/Motor Gate Driver/LSW*%
X173400000Y-101900000D03*
X169147478Y-96168014D03*
D26*
%TO.N,/SPI_SCK*%
X159500000Y-88950000D03*
%TO.N,/SPI_MISO*%
X152300000Y-91400000D03*
%TO.N,/SPI_MOSI*%
X158750000Y-89350000D03*
%TO.N,/SPI_NSCS_DRIVER*%
X160097929Y-88418507D03*
%TO.N,/Power Delivery/Low Power Current Monitor*%
X100600000Y-74662500D03*
D24*
%TO.N,/Motor Gate Driver/Coil Drive U/V_{SENSE\u002C U\u002C 1}*%
X187800000Y-88389577D03*
X172923762Y-100292390D03*
D25*
%TO.N,Net-(D12-A)*%
X172919476Y-93547250D03*
X181626384Y-93637500D03*
X187800000Y-93700000D03*
%TO.N,Net-(D9-A)*%
X173061605Y-105838395D03*
X183950000Y-108367500D03*
X177805577Y-108367500D03*
%TO.N,Net-(D8-A)*%
X181590459Y-119387500D03*
X170556668Y-108106668D03*
X187892287Y-119387500D03*
%TO.N,Net-(D11-A)*%
X187800000Y-86157923D03*
X173191170Y-95343681D03*
X182600000Y-86157923D03*
%TO.N,Net-(D10-A)*%
X184000000Y-100542077D03*
X174188407Y-100088407D03*
X177851461Y-100542077D03*
%TO.N,Net-(D13-A)*%
X181650000Y-126532500D03*
X175600000Y-103150000D03*
X187800000Y-126532500D03*
D26*
%TO.N,/Motor Gate Driver/DRV_EN_GATE_DRVR*%
X159341421Y-100259798D03*
%TO.N,Net-(Q21-G)*%
X104500000Y-56450000D03*
X101850000Y-65650000D03*
D24*
%TO.N,/Motor Gate Driver/Coil Drive W/VD+*%
X183000000Y-120700000D03*
X167925000Y-106325000D03*
D25*
%TO.N,Net-(U43-G)*%
X177850000Y-75242077D03*
X184000000Y-75242077D03*
D26*
%TO.N,/Motor Gate Driver/FAULT_OUT*%
X158629272Y-99674377D03*
%TO.N,/Power Delivery/Montor Controller Low Side Fault*%
X101175000Y-73662500D03*
D25*
%TO.N,GND*%
X183030000Y-129275000D03*
X183150000Y-131575000D03*
X182465000Y-130360000D03*
X183735000Y-130360000D03*
%TO.N,+3V3*%
X122838819Y-113692767D03*
%TD*%
D27*
%TO.N,V_{M}*%
X161290000Y-113890000D02*
X163240000Y-113890000D01*
X157991151Y-110591151D02*
X161290000Y-113890000D01*
%TO.N,/Motor Gate Driver/LSW*%
X170623305Y-99123305D02*
X170623305Y-97823305D01*
X170623305Y-97823305D02*
X169147478Y-96347478D01*
X173400000Y-101900000D02*
X170623305Y-99123305D01*
X169147478Y-96347478D02*
X169147478Y-96168014D01*
%TO.N,Net-(D12-A)*%
X172919476Y-93547250D02*
X172922226Y-93550000D01*
X172922226Y-93550000D02*
X181538884Y-93550000D01*
X181538884Y-93550000D02*
X181626384Y-93637500D01*
X187700000Y-93600000D02*
X187800000Y-93700000D01*
X181626384Y-93637500D02*
X181663884Y-93600000D01*
X181663884Y-93600000D02*
X187700000Y-93600000D01*
%TO.N,Net-(D13-A)*%
X176532500Y-126532500D02*
X175460000Y-125460000D01*
X175460000Y-125460000D02*
X175460000Y-103290000D01*
X181650000Y-126532500D02*
X187800000Y-126532500D01*
X175460000Y-103290000D02*
X175600000Y-103150000D01*
X181650000Y-126532500D02*
X176532500Y-126532500D01*
%TD*%
%TA.AperFunction,Conductor*%
%TO.N,V_{M}*%
G36*
X177130151Y-108969685D02*
G01*
X177155262Y-108991028D01*
X177199706Y-109040388D01*
X177352842Y-109151648D01*
X177352847Y-109151651D01*
X177525769Y-109228642D01*
X177525774Y-109228644D01*
X177710931Y-109268000D01*
X177710932Y-109268000D01*
X177900221Y-109268000D01*
X177900223Y-109268000D01*
X178085380Y-109228644D01*
X178258307Y-109151651D01*
X178411448Y-109040388D01*
X178455892Y-108991027D01*
X178515379Y-108954379D01*
X178548042Y-108950000D01*
X183207535Y-108950000D01*
X183274574Y-108969685D01*
X183299685Y-108991028D01*
X183344129Y-109040388D01*
X183497265Y-109151648D01*
X183497270Y-109151651D01*
X183670192Y-109228642D01*
X183670197Y-109228644D01*
X183855354Y-109268000D01*
X183855355Y-109268000D01*
X184044644Y-109268000D01*
X184044646Y-109268000D01*
X184229803Y-109228644D01*
X184402730Y-109151651D01*
X184555871Y-109040388D01*
X184600315Y-108991027D01*
X184659802Y-108954379D01*
X184692465Y-108950000D01*
X196626000Y-108950000D01*
X196693039Y-108969685D01*
X196738794Y-109022489D01*
X196750000Y-109074000D01*
X196750000Y-118676000D01*
X196730315Y-118743039D01*
X196677511Y-118788794D01*
X196626000Y-118800000D01*
X188630250Y-118800000D01*
X188563211Y-118780315D01*
X188538100Y-118758972D01*
X188498157Y-118714611D01*
X188345021Y-118603351D01*
X188345016Y-118603348D01*
X188172094Y-118526357D01*
X188172089Y-118526355D01*
X188026288Y-118495365D01*
X187986933Y-118487000D01*
X187797641Y-118487000D01*
X187765184Y-118493898D01*
X187612484Y-118526355D01*
X187612479Y-118526357D01*
X187439557Y-118603348D01*
X187439552Y-118603351D01*
X187286416Y-118714611D01*
X187246474Y-118758972D01*
X187186987Y-118795621D01*
X187154324Y-118800000D01*
X182328422Y-118800000D01*
X182261383Y-118780315D01*
X182236272Y-118758972D01*
X182196329Y-118714611D01*
X182043193Y-118603351D01*
X182043188Y-118603348D01*
X181870266Y-118526357D01*
X181870261Y-118526355D01*
X181724460Y-118495365D01*
X181685105Y-118487000D01*
X181495813Y-118487000D01*
X181463356Y-118493898D01*
X181310656Y-118526355D01*
X181310651Y-118526357D01*
X181137729Y-118603348D01*
X181137724Y-118603351D01*
X180984588Y-118714611D01*
X180944646Y-118758972D01*
X180885159Y-118795621D01*
X180852496Y-118800000D01*
X176744000Y-118800000D01*
X176676961Y-118780315D01*
X176631206Y-118727511D01*
X176620000Y-118676000D01*
X176620000Y-109074000D01*
X176639685Y-109006961D01*
X176692489Y-108961206D01*
X176744000Y-108950000D01*
X177063112Y-108950000D01*
X177130151Y-108969685D01*
G37*
%TD.AperFunction*%
%TD*%
%TA.AperFunction,Conductor*%
%TO.N,GND*%
G36*
X223893039Y-54169685D02*
G01*
X223938794Y-54222489D01*
X223950000Y-54274000D01*
X223950000Y-54873030D01*
X223930315Y-54940069D01*
X223877511Y-54985824D01*
X223819918Y-54996881D01*
X223775002Y-54994675D01*
X223775001Y-54994675D01*
X223775000Y-54994675D01*
X223382409Y-55013962D01*
X223382403Y-55013962D01*
X223382400Y-55013963D01*
X222993593Y-55071637D01*
X222612315Y-55167143D01*
X222242229Y-55299561D01*
X222242227Y-55299562D01*
X221886899Y-55467620D01*
X221549763Y-55669692D01*
X221234043Y-55903846D01*
X220942807Y-56167807D01*
X220678846Y-56459043D01*
X220444692Y-56774763D01*
X220242620Y-57111899D01*
X220074562Y-57467227D01*
X220074561Y-57467229D01*
X219942143Y-57837315D01*
X219846637Y-58218593D01*
X219846636Y-58218600D01*
X219788962Y-58607409D01*
X219769675Y-59000000D01*
X219788962Y-59392591D01*
X219788962Y-59392597D01*
X219788963Y-59392599D01*
X219846637Y-59781406D01*
X219942143Y-60162684D01*
X220074561Y-60532770D01*
X220074562Y-60532772D01*
X220242620Y-60888100D01*
X220426091Y-61194202D01*
X220444694Y-61225239D01*
X220565154Y-61387661D01*
X220678846Y-61540956D01*
X220942807Y-61832192D01*
X221234043Y-62096153D01*
X221234049Y-62096158D01*
X221549761Y-62330306D01*
X221549763Y-62330307D01*
X221886899Y-62532379D01*
X221886902Y-62532380D01*
X221886903Y-62532381D01*
X222242228Y-62700438D01*
X222612316Y-62832857D01*
X222993600Y-62928364D01*
X223382409Y-62986038D01*
X223775000Y-63005325D01*
X223819918Y-63003118D01*
X223887838Y-63019487D01*
X223936130Y-63069982D01*
X223950000Y-63126968D01*
X223950000Y-78945214D01*
X223930315Y-79012253D01*
X223913681Y-79032895D01*
X223827154Y-79119421D01*
X223827138Y-79119439D01*
X223659945Y-79342784D01*
X223659940Y-79342792D01*
X223526233Y-79587657D01*
X223526231Y-79587661D01*
X223428727Y-79849083D01*
X223369422Y-80121700D01*
X223349518Y-80399998D01*
X223349518Y-80400001D01*
X223369422Y-80678299D01*
X223425199Y-80934697D01*
X223428729Y-80950923D01*
X223488994Y-81112500D01*
X223526231Y-81212338D01*
X223526233Y-81212342D01*
X223659940Y-81457207D01*
X223659945Y-81457215D01*
X223827138Y-81680560D01*
X223827144Y-81680566D01*
X223827145Y-81680568D01*
X223913682Y-81767105D01*
X223947166Y-81828426D01*
X223950000Y-81854785D01*
X223950000Y-83945214D01*
X223930315Y-84012253D01*
X223913681Y-84032895D01*
X223827154Y-84119421D01*
X223827138Y-84119439D01*
X223659945Y-84342784D01*
X223659940Y-84342792D01*
X223526233Y-84587657D01*
X223526231Y-84587661D01*
X223428727Y-84849083D01*
X223369422Y-85121700D01*
X223349518Y-85399998D01*
X223349518Y-85400001D01*
X223369422Y-85678299D01*
X223428727Y-85950916D01*
X223428729Y-85950923D01*
X223451132Y-86010987D01*
X223526231Y-86212338D01*
X223526233Y-86212342D01*
X223659940Y-86457207D01*
X223659945Y-86457215D01*
X223827138Y-86680560D01*
X223827144Y-86680566D01*
X223827145Y-86680568D01*
X223913682Y-86767105D01*
X223947166Y-86828426D01*
X223950000Y-86854785D01*
X223950000Y-99495214D01*
X223930315Y-99562253D01*
X223913681Y-99582895D01*
X223877154Y-99619421D01*
X223877138Y-99619439D01*
X223709945Y-99842784D01*
X223709940Y-99842792D01*
X223576233Y-100087657D01*
X223576231Y-100087661D01*
X223478727Y-100349083D01*
X223419422Y-100621700D01*
X223399518Y-100899998D01*
X223399518Y-100900001D01*
X223419422Y-101178299D01*
X223470153Y-101411501D01*
X223478729Y-101450923D01*
X223531497Y-101592400D01*
X223576231Y-101712338D01*
X223576233Y-101712342D01*
X223709940Y-101957207D01*
X223709945Y-101957215D01*
X223877138Y-102180560D01*
X223877153Y-102180577D01*
X223913680Y-102217103D01*
X223947166Y-102278425D01*
X223950000Y-102304785D01*
X223950000Y-104495214D01*
X223930315Y-104562253D01*
X223913681Y-104582895D01*
X223877154Y-104619421D01*
X223877138Y-104619439D01*
X223709945Y-104842784D01*
X223709940Y-104842792D01*
X223576233Y-105087657D01*
X223576231Y-105087661D01*
X223517611Y-105244829D01*
X223481083Y-105342767D01*
X223478727Y-105349083D01*
X223419422Y-105621700D01*
X223399518Y-105899998D01*
X223399518Y-105900001D01*
X223419422Y-106178299D01*
X223478727Y-106450916D01*
X223478729Y-106450923D01*
X223519859Y-106561196D01*
X223576231Y-106712338D01*
X223576233Y-106712341D01*
X223709940Y-106957207D01*
X223709945Y-106957215D01*
X223877138Y-107180560D01*
X223877153Y-107180577D01*
X223913680Y-107217103D01*
X223947166Y-107278425D01*
X223950000Y-107304785D01*
X223950000Y-120045214D01*
X223930315Y-120112253D01*
X223913681Y-120132895D01*
X223827154Y-120219421D01*
X223827138Y-120219439D01*
X223659945Y-120442784D01*
X223659940Y-120442792D01*
X223526233Y-120687657D01*
X223526231Y-120687661D01*
X223428727Y-120949083D01*
X223369422Y-121221700D01*
X223349518Y-121499998D01*
X223349518Y-121500001D01*
X223369422Y-121778299D01*
X223428727Y-122050916D01*
X223428729Y-122050923D01*
X223489266Y-122213230D01*
X223526231Y-122312338D01*
X223526233Y-122312342D01*
X223659940Y-122557207D01*
X223659945Y-122557215D01*
X223827138Y-122780560D01*
X223827144Y-122780566D01*
X223827145Y-122780568D01*
X223913682Y-122867105D01*
X223947166Y-122928426D01*
X223950000Y-122954785D01*
X223950000Y-125045214D01*
X223930315Y-125112253D01*
X223913681Y-125132895D01*
X223827154Y-125219421D01*
X223827138Y-125219439D01*
X223659945Y-125442784D01*
X223659940Y-125442792D01*
X223526233Y-125687657D01*
X223526231Y-125687661D01*
X223452301Y-125885875D01*
X223432704Y-125938421D01*
X223428727Y-125949083D01*
X223369422Y-126221700D01*
X223349518Y-126499998D01*
X223349518Y-126500001D01*
X223369422Y-126778299D01*
X223428727Y-127050916D01*
X223428729Y-127050923D01*
X223433873Y-127064714D01*
X223526231Y-127312338D01*
X223526233Y-127312342D01*
X223659940Y-127557207D01*
X223659945Y-127557215D01*
X223827138Y-127780560D01*
X223827144Y-127780566D01*
X223827145Y-127780568D01*
X223913682Y-127867105D01*
X223947166Y-127928426D01*
X223950000Y-127954785D01*
X223950000Y-133673030D01*
X223930315Y-133740069D01*
X223877511Y-133785824D01*
X223819918Y-133796881D01*
X223775002Y-133794675D01*
X223775001Y-133794675D01*
X223775000Y-133794675D01*
X223382409Y-133813962D01*
X223382403Y-133813962D01*
X223382400Y-133813963D01*
X222993593Y-133871637D01*
X222612315Y-133967143D01*
X222242229Y-134099561D01*
X222242227Y-134099562D01*
X221886899Y-134267620D01*
X221549763Y-134469692D01*
X221234043Y-134703846D01*
X220942807Y-134967807D01*
X220678846Y-135259043D01*
X220444692Y-135574763D01*
X220242620Y-135911899D01*
X220074562Y-136267227D01*
X220074561Y-136267229D01*
X219942143Y-136637315D01*
X219846637Y-137018593D01*
X219846636Y-137018600D01*
X219788962Y-137407409D01*
X219769675Y-137800000D01*
X219788962Y-138192591D01*
X219788962Y-138192597D01*
X219788963Y-138192599D01*
X219846637Y-138581406D01*
X219942143Y-138962684D01*
X220074561Y-139332770D01*
X220074562Y-139332772D01*
X220242620Y-139688100D01*
X220444692Y-140025236D01*
X220444694Y-140025239D01*
X220648064Y-140299452D01*
X220678846Y-140340956D01*
X220942807Y-140632192D01*
X221234043Y-140896153D01*
X221234049Y-140896158D01*
X221549761Y-141130306D01*
X221549763Y-141130307D01*
X221886899Y-141332379D01*
X221886902Y-141332380D01*
X221886903Y-141332381D01*
X222242228Y-141500438D01*
X222612316Y-141632857D01*
X222993600Y-141728364D01*
X223382409Y-141786038D01*
X223775000Y-141805325D01*
X223819918Y-141803118D01*
X223887838Y-141819487D01*
X223936130Y-141869982D01*
X223950000Y-141926968D01*
X223950000Y-154026000D01*
X223930315Y-154093039D01*
X223877511Y-154138794D01*
X223826000Y-154150000D01*
X151824000Y-154150000D01*
X151756961Y-154130315D01*
X151711206Y-154077511D01*
X151700000Y-154026000D01*
X151700000Y-149302135D01*
X152059500Y-149302135D01*
X152059500Y-151597870D01*
X152059501Y-151597876D01*
X152065908Y-151657483D01*
X152116202Y-151792328D01*
X152116206Y-151792335D01*
X152202452Y-151907544D01*
X152202455Y-151907547D01*
X152317664Y-151993793D01*
X152317671Y-151993797D01*
X152452517Y-152044091D01*
X152452516Y-152044091D01*
X152459444Y-152044835D01*
X152512127Y-152050500D01*
X154807872Y-152050499D01*
X154867483Y-152044091D01*
X155002331Y-151993796D01*
X155117546Y-151907546D01*
X155174928Y-151830893D01*
X155230860Y-151789024D01*
X155300552Y-151784040D01*
X155338983Y-151799479D01*
X155471140Y-151880466D01*
X155703889Y-151976873D01*
X155948852Y-152035683D01*
X156200000Y-152055449D01*
X156451148Y-152035683D01*
X156696111Y-151976873D01*
X156928859Y-151880466D01*
X157143659Y-151748836D01*
X157335224Y-151585224D01*
X157375710Y-151537819D01*
X157434216Y-151499627D01*
X157504084Y-151499128D01*
X157563130Y-151536482D01*
X157564235Y-151537756D01*
X157604775Y-151585223D01*
X157604776Y-151585224D01*
X157796343Y-151748838D01*
X157796346Y-151748839D01*
X158011140Y-151880466D01*
X158243889Y-151976873D01*
X158488852Y-152035683D01*
X158740000Y-152055449D01*
X158991148Y-152035683D01*
X159236111Y-151976873D01*
X159468859Y-151880466D01*
X159683659Y-151748836D01*
X159875224Y-151585224D01*
X159915710Y-151537819D01*
X159974216Y-151499627D01*
X160044084Y-151499128D01*
X160103130Y-151536482D01*
X160104235Y-151537756D01*
X160144775Y-151585223D01*
X160144776Y-151585224D01*
X160336343Y-151748838D01*
X160336346Y-151748839D01*
X160551140Y-151880466D01*
X160783889Y-151976873D01*
X161028852Y-152035683D01*
X161280000Y-152055449D01*
X161531148Y-152035683D01*
X161776111Y-151976873D01*
X162008859Y-151880466D01*
X162223659Y-151748836D01*
X162415224Y-151585224D01*
X162578836Y-151393659D01*
X162710466Y-151178859D01*
X162806873Y-150946111D01*
X162865683Y-150701148D01*
X162885449Y-150450000D01*
X162865683Y-150198852D01*
X162806873Y-149953889D01*
X162710466Y-149721141D01*
X162710466Y-149721140D01*
X162578839Y-149506346D01*
X162578838Y-149506343D01*
X162488755Y-149400870D01*
X162415224Y-149314776D01*
X162251206Y-149174691D01*
X162223656Y-149151161D01*
X162223653Y-149151160D01*
X162008859Y-149019533D01*
X161776110Y-148923126D01*
X161531151Y-148864317D01*
X161280000Y-148844551D01*
X161028848Y-148864317D01*
X160783889Y-148923126D01*
X160551140Y-149019533D01*
X160336346Y-149151160D01*
X160336343Y-149151161D01*
X160144776Y-149314776D01*
X160104290Y-149362179D01*
X160045783Y-149400372D01*
X159975915Y-149400870D01*
X159916869Y-149363516D01*
X159915710Y-149362179D01*
X159875224Y-149314776D01*
X159711206Y-149174691D01*
X159683656Y-149151161D01*
X159683653Y-149151160D01*
X159468859Y-149019533D01*
X159236110Y-148923126D01*
X158991151Y-148864317D01*
X158740000Y-148844551D01*
X158488848Y-148864317D01*
X158243889Y-148923126D01*
X158011140Y-149019533D01*
X157796346Y-149151160D01*
X157796343Y-149151161D01*
X157604776Y-149314776D01*
X157564290Y-149362179D01*
X157505783Y-149400372D01*
X157435915Y-149400870D01*
X157376869Y-149363516D01*
X157375710Y-149362179D01*
X157335224Y-149314776D01*
X157171206Y-149174691D01*
X157143656Y-149151161D01*
X157143653Y-149151160D01*
X156928859Y-149019533D01*
X156696110Y-148923126D01*
X156451151Y-148864317D01*
X156200000Y-148844551D01*
X155948848Y-148864317D01*
X155703889Y-148923126D01*
X155471140Y-149019533D01*
X155338983Y-149100520D01*
X155271537Y-149118765D01*
X155204935Y-149097649D01*
X155174927Y-149069104D01*
X155117547Y-148992455D01*
X155117544Y-148992452D01*
X155002335Y-148906206D01*
X155002328Y-148906202D01*
X154867482Y-148855908D01*
X154867483Y-148855908D01*
X154807883Y-148849501D01*
X154807881Y-148849500D01*
X154807873Y-148849500D01*
X154807864Y-148849500D01*
X152512129Y-148849500D01*
X152512123Y-148849501D01*
X152452516Y-148855908D01*
X152317671Y-148906202D01*
X152317664Y-148906206D01*
X152202455Y-148992452D01*
X152202452Y-148992455D01*
X152116206Y-149107664D01*
X152116202Y-149107671D01*
X152065908Y-149242517D01*
X152059501Y-149302116D01*
X152059500Y-149302135D01*
X151700000Y-149302135D01*
X151700000Y-142900000D01*
X130474000Y-142900000D01*
X130406961Y-142880315D01*
X130361206Y-142827511D01*
X130350000Y-142776000D01*
X130350000Y-140850000D01*
X128761198Y-140850000D01*
X128694159Y-140830315D01*
X128648404Y-140777511D01*
X128638460Y-140708353D01*
X128667485Y-140644797D01*
X128708793Y-140613618D01*
X128779646Y-140580579D01*
X128959457Y-140454674D01*
X129114674Y-140299457D01*
X129240579Y-140119646D01*
X129333347Y-139920703D01*
X129390161Y-139708674D01*
X129409292Y-139490000D01*
X129390161Y-139271326D01*
X129333347Y-139059297D01*
X129240579Y-138860354D01*
X129240577Y-138860351D01*
X129240576Y-138860349D01*
X129114677Y-138680547D01*
X129114672Y-138680541D01*
X128959458Y-138525327D01*
X128959452Y-138525322D01*
X128779650Y-138399423D01*
X128779642Y-138399419D01*
X128580708Y-138306655D01*
X128580706Y-138306654D01*
X128580703Y-138306653D01*
X128429885Y-138266240D01*
X128368675Y-138249839D01*
X128368668Y-138249838D01*
X128150002Y-138230708D01*
X128149998Y-138230708D01*
X127931331Y-138249838D01*
X127931324Y-138249839D01*
X127808902Y-138282642D01*
X127719297Y-138306653D01*
X127719295Y-138306653D01*
X127719291Y-138306655D01*
X127520357Y-138399419D01*
X127520349Y-138399423D01*
X127340547Y-138525322D01*
X127340541Y-138525327D01*
X127185327Y-138680541D01*
X127185322Y-138680547D01*
X127059423Y-138860349D01*
X127059419Y-138860357D01*
X126966655Y-139059291D01*
X126909839Y-139271324D01*
X126909838Y-139271331D01*
X126890708Y-139489997D01*
X126890708Y-139490002D01*
X126908038Y-139688097D01*
X126909839Y-139708674D01*
X126966653Y-139920703D01*
X126966654Y-139920706D01*
X126966655Y-139920708D01*
X127059419Y-140119642D01*
X127059423Y-140119650D01*
X127185322Y-140299452D01*
X127185327Y-140299458D01*
X127340541Y-140454672D01*
X127340547Y-140454677D01*
X127520349Y-140580576D01*
X127520351Y-140580577D01*
X127520354Y-140580579D01*
X127591207Y-140613618D01*
X127643646Y-140659790D01*
X127662798Y-140726984D01*
X127642582Y-140793865D01*
X127589417Y-140839199D01*
X127538802Y-140850000D01*
X125250000Y-140850000D01*
X125250000Y-154026000D01*
X125230315Y-154093039D01*
X125177511Y-154138794D01*
X125126000Y-154150000D01*
X86524000Y-154150000D01*
X86456961Y-154130315D01*
X86411206Y-154077511D01*
X86400000Y-154026000D01*
X86400000Y-124592767D01*
X129883359Y-124592767D01*
X129903145Y-124781023D01*
X129903146Y-124781026D01*
X129961637Y-124961044D01*
X129961640Y-124961051D01*
X130056286Y-125124983D01*
X130110732Y-125185451D01*
X130182948Y-125265655D01*
X130336084Y-125376915D01*
X130336089Y-125376918D01*
X130509011Y-125453909D01*
X130509016Y-125453911D01*
X130694173Y-125493267D01*
X130694174Y-125493267D01*
X130883463Y-125493267D01*
X130883465Y-125493267D01*
X131068622Y-125453911D01*
X131241549Y-125376918D01*
X131394690Y-125265655D01*
X131521352Y-125124983D01*
X131615998Y-124961051D01*
X131674493Y-124781023D01*
X131694279Y-124592767D01*
X131674493Y-124404511D01*
X131615998Y-124224483D01*
X131521352Y-124060551D01*
X131394690Y-123919879D01*
X131394689Y-123919878D01*
X131241553Y-123808618D01*
X131241548Y-123808615D01*
X131068626Y-123731624D01*
X131068621Y-123731622D01*
X130922820Y-123700632D01*
X130883465Y-123692267D01*
X130694173Y-123692267D01*
X130661716Y-123699165D01*
X130509016Y-123731622D01*
X130509011Y-123731624D01*
X130336089Y-123808615D01*
X130336084Y-123808618D01*
X130182948Y-123919878D01*
X130056285Y-124060552D01*
X129961640Y-124224482D01*
X129961637Y-124224489D01*
X129910374Y-124382262D01*
X129903145Y-124404511D01*
X129883359Y-124592767D01*
X86400000Y-124592767D01*
X86400000Y-116442767D01*
X141133359Y-116442767D01*
X141153145Y-116631023D01*
X141153146Y-116631026D01*
X141211637Y-116811044D01*
X141211640Y-116811051D01*
X141306286Y-116974983D01*
X141432948Y-117115655D01*
X141586084Y-117226915D01*
X141586089Y-117226918D01*
X141759011Y-117303909D01*
X141759016Y-117303911D01*
X141944173Y-117343267D01*
X141944174Y-117343267D01*
X142133463Y-117343267D01*
X142133465Y-117343267D01*
X142318622Y-117303911D01*
X142491549Y-117226918D01*
X142644690Y-117115655D01*
X142771352Y-116974983D01*
X142865998Y-116811051D01*
X142924493Y-116631023D01*
X142944279Y-116442767D01*
X142924493Y-116254511D01*
X142865998Y-116074483D01*
X142771352Y-115910551D01*
X142644690Y-115769879D01*
X142644689Y-115769878D01*
X142491553Y-115658618D01*
X142491548Y-115658615D01*
X142318626Y-115581624D01*
X142318621Y-115581622D01*
X142172820Y-115550632D01*
X142133465Y-115542267D01*
X141944173Y-115542267D01*
X141911716Y-115549165D01*
X141759016Y-115581622D01*
X141759011Y-115581624D01*
X141586089Y-115658615D01*
X141586084Y-115658618D01*
X141432948Y-115769878D01*
X141306285Y-115910552D01*
X141211640Y-116074482D01*
X141211637Y-116074489D01*
X141153340Y-116253911D01*
X141153145Y-116254511D01*
X141133359Y-116442767D01*
X86400000Y-116442767D01*
X86400000Y-113692767D01*
X121933359Y-113692767D01*
X121953145Y-113881023D01*
X121953146Y-113881026D01*
X122011637Y-114061044D01*
X122011640Y-114061051D01*
X122106286Y-114224983D01*
X122177618Y-114304205D01*
X122232948Y-114365655D01*
X122386084Y-114476915D01*
X122386089Y-114476918D01*
X122559011Y-114553909D01*
X122559016Y-114553911D01*
X122744173Y-114593267D01*
X122744174Y-114593267D01*
X122933463Y-114593267D01*
X122933465Y-114593267D01*
X123009689Y-114577065D01*
X123079355Y-114582381D01*
X123135089Y-114624518D01*
X123159194Y-114690098D01*
X123144017Y-114758299D01*
X123127619Y-114781327D01*
X123056285Y-114860551D01*
X122961640Y-115024482D01*
X122961637Y-115024489D01*
X122918167Y-115158277D01*
X122903145Y-115204511D01*
X122883359Y-115392767D01*
X122903145Y-115581023D01*
X122903146Y-115581026D01*
X122961637Y-115761044D01*
X122961640Y-115761051D01*
X123056286Y-115924983D01*
X123182948Y-116065655D01*
X123336084Y-116176915D01*
X123336089Y-116176918D01*
X123509011Y-116253909D01*
X123509016Y-116253911D01*
X123694173Y-116293267D01*
X123694174Y-116293267D01*
X123883463Y-116293267D01*
X123883465Y-116293267D01*
X124068622Y-116253911D01*
X124241549Y-116176918D01*
X124394690Y-116065655D01*
X124521352Y-115924983D01*
X124615998Y-115761051D01*
X124674493Y-115581023D01*
X124694279Y-115392767D01*
X124674493Y-115204511D01*
X124615998Y-115024483D01*
X124521352Y-114860551D01*
X124394690Y-114719879D01*
X124331751Y-114674151D01*
X124241553Y-114608618D01*
X124241548Y-114608615D01*
X124068626Y-114531624D01*
X124068621Y-114531622D01*
X123922820Y-114500632D01*
X123883465Y-114492267D01*
X123694173Y-114492267D01*
X123642963Y-114503152D01*
X123617947Y-114508469D01*
X123548280Y-114503152D01*
X123492547Y-114461014D01*
X123468443Y-114395434D01*
X123483621Y-114327232D01*
X123500015Y-114304210D01*
X123571352Y-114224983D01*
X123665998Y-114061051D01*
X123724493Y-113881023D01*
X123744279Y-113692767D01*
X123724493Y-113504511D01*
X123665998Y-113324483D01*
X123571352Y-113160551D01*
X123444690Y-113019879D01*
X123444689Y-113019878D01*
X123291553Y-112908618D01*
X123291548Y-112908615D01*
X123118626Y-112831624D01*
X123118621Y-112831622D01*
X122972820Y-112800632D01*
X122933465Y-112792267D01*
X122744173Y-112792267D01*
X122711716Y-112799165D01*
X122559016Y-112831622D01*
X122559011Y-112831624D01*
X122386089Y-112908615D01*
X122386084Y-112908618D01*
X122232948Y-113019878D01*
X122106285Y-113160552D01*
X122011640Y-113324482D01*
X122011637Y-113324489D01*
X121954053Y-113501716D01*
X121953145Y-113504511D01*
X121933359Y-113692767D01*
X86400000Y-113692767D01*
X86400000Y-111242767D01*
X122233359Y-111242767D01*
X122253145Y-111431023D01*
X122253146Y-111431026D01*
X122311637Y-111611044D01*
X122311640Y-111611051D01*
X122406286Y-111774983D01*
X122532948Y-111915655D01*
X122686084Y-112026915D01*
X122686089Y-112026918D01*
X122859011Y-112103909D01*
X122859016Y-112103911D01*
X123044173Y-112143267D01*
X123044174Y-112143267D01*
X123233463Y-112143267D01*
X123233465Y-112143267D01*
X123418622Y-112103911D01*
X123591549Y-112026918D01*
X123744690Y-111915655D01*
X123871352Y-111774983D01*
X123965998Y-111611051D01*
X124024493Y-111431023D01*
X124044279Y-111242767D01*
X124024493Y-111054511D01*
X123965998Y-110874483D01*
X123871352Y-110710551D01*
X123763843Y-110591151D01*
X157085691Y-110591151D01*
X157105477Y-110779407D01*
X157105478Y-110779410D01*
X157163969Y-110959428D01*
X157163972Y-110959435D01*
X157258618Y-111123367D01*
X157366127Y-111242767D01*
X157385280Y-111264039D01*
X157538416Y-111375299D01*
X157538421Y-111375302D01*
X157711342Y-111452293D01*
X157711344Y-111452293D01*
X157711348Y-111452295D01*
X157776480Y-111466138D01*
X157837960Y-111499329D01*
X157838379Y-111499747D01*
X160811586Y-114472954D01*
X160839667Y-114491716D01*
X160885270Y-114522186D01*
X160934505Y-114555084D01*
X160934506Y-114555084D01*
X160934507Y-114555085D01*
X160934509Y-114555086D01*
X161063743Y-114608616D01*
X161071087Y-114611658D01*
X161071091Y-114611658D01*
X161071092Y-114611659D01*
X161216079Y-114640500D01*
X161216082Y-114640500D01*
X161216083Y-114640500D01*
X161363917Y-114640500D01*
X162700663Y-114640500D01*
X162767702Y-114660185D01*
X162773548Y-114664182D01*
X162787265Y-114674148D01*
X162787270Y-114674151D01*
X162960192Y-114751142D01*
X162960197Y-114751144D01*
X163145354Y-114790500D01*
X163145355Y-114790500D01*
X163334644Y-114790500D01*
X163334646Y-114790500D01*
X163385737Y-114779640D01*
X163455401Y-114784955D01*
X163511135Y-114827092D01*
X163534836Y-114887966D01*
X163544326Y-114978256D01*
X163544327Y-114978259D01*
X163602818Y-115158277D01*
X163602821Y-115158284D01*
X163697467Y-115322216D01*
X163760992Y-115392767D01*
X163824129Y-115462888D01*
X163977265Y-115574148D01*
X163977270Y-115574151D01*
X164150192Y-115651142D01*
X164150197Y-115651144D01*
X164335354Y-115690500D01*
X164335355Y-115690500D01*
X164524644Y-115690500D01*
X164524646Y-115690500D01*
X164709803Y-115651144D01*
X164882730Y-115574151D01*
X165035871Y-115462888D01*
X165162533Y-115322216D01*
X165257179Y-115158284D01*
X165315674Y-114978256D01*
X165335460Y-114790000D01*
X165322507Y-114666761D01*
X165335076Y-114598034D01*
X165382809Y-114547010D01*
X165450549Y-114529892D01*
X165516790Y-114552114D01*
X165518713Y-114553484D01*
X165657265Y-114654148D01*
X165657270Y-114654151D01*
X165830192Y-114731142D01*
X165830197Y-114731144D01*
X166015354Y-114770500D01*
X166015355Y-114770500D01*
X166204644Y-114770500D01*
X166204646Y-114770500D01*
X166389803Y-114731144D01*
X166562730Y-114654151D01*
X166715871Y-114542888D01*
X166717168Y-114541447D01*
X166718127Y-114540855D01*
X166720700Y-114538540D01*
X166721123Y-114539010D01*
X166776651Y-114504795D01*
X166846508Y-114506120D01*
X166904559Y-114545002D01*
X166932373Y-114609097D01*
X166927255Y-114662728D01*
X166924327Y-114671739D01*
X166924326Y-114671741D01*
X166924326Y-114671744D01*
X166904540Y-114860000D01*
X166924326Y-115048256D01*
X166924327Y-115048259D01*
X166982818Y-115228277D01*
X166982821Y-115228284D01*
X167077467Y-115392216D01*
X167141101Y-115462888D01*
X167204129Y-115532888D01*
X167357265Y-115644148D01*
X167357270Y-115644151D01*
X167530192Y-115721142D01*
X167530197Y-115721144D01*
X167715354Y-115760500D01*
X167715355Y-115760500D01*
X167904644Y-115760500D01*
X167904646Y-115760500D01*
X168089803Y-115721144D01*
X168262730Y-115644151D01*
X168415871Y-115532888D01*
X168542533Y-115392216D01*
X168637179Y-115228284D01*
X168695674Y-115048256D01*
X168715460Y-114860000D01*
X168695674Y-114671744D01*
X168695672Y-114671740D01*
X168694994Y-114665281D01*
X168697609Y-114665006D01*
X168702006Y-114607022D01*
X168744116Y-114551268D01*
X168809684Y-114527130D01*
X168877893Y-114542273D01*
X168890887Y-114550533D01*
X169047265Y-114664148D01*
X169047270Y-114664151D01*
X169220192Y-114741142D01*
X169220197Y-114741144D01*
X169405354Y-114780500D01*
X169405355Y-114780500D01*
X169594644Y-114780500D01*
X169594646Y-114780500D01*
X169779803Y-114741144D01*
X169952730Y-114664151D01*
X170105871Y-114552888D01*
X170232533Y-114412216D01*
X170327179Y-114248284D01*
X170385674Y-114068256D01*
X170405460Y-113880000D01*
X170385674Y-113691744D01*
X170327179Y-113511716D01*
X170232533Y-113347784D01*
X170105871Y-113207112D01*
X170098984Y-113202108D01*
X169952734Y-113095851D01*
X169952729Y-113095848D01*
X169849754Y-113050000D01*
X172944540Y-113050000D01*
X172964326Y-113238256D01*
X172964327Y-113238259D01*
X173022818Y-113418277D01*
X173022821Y-113418284D01*
X173117467Y-113582216D01*
X173226121Y-113702888D01*
X173244129Y-113722888D01*
X173397265Y-113834148D01*
X173397270Y-113834151D01*
X173570192Y-113911142D01*
X173570197Y-113911144D01*
X173755354Y-113950500D01*
X173755355Y-113950500D01*
X173944644Y-113950500D01*
X173944646Y-113950500D01*
X174129803Y-113911144D01*
X174302730Y-113834151D01*
X174455871Y-113722888D01*
X174493350Y-113681262D01*
X174552836Y-113644614D01*
X174622693Y-113645944D01*
X174680742Y-113684831D01*
X174708552Y-113748928D01*
X174709500Y-113764235D01*
X174709500Y-125533918D01*
X174709500Y-125533920D01*
X174709499Y-125533920D01*
X174738340Y-125678907D01*
X174738343Y-125678917D01*
X174772888Y-125762315D01*
X174794916Y-125815495D01*
X174811268Y-125839968D01*
X174819336Y-125852043D01*
X174877049Y-125938418D01*
X174877052Y-125938421D01*
X176054084Y-127115452D01*
X176054086Y-127115454D01*
X176083558Y-127135145D01*
X176127770Y-127164686D01*
X176177005Y-127197584D01*
X176177006Y-127197584D01*
X176177007Y-127197585D01*
X176177009Y-127197586D01*
X176313582Y-127254156D01*
X176313587Y-127254158D01*
X176313591Y-127254158D01*
X176313592Y-127254159D01*
X176458579Y-127283000D01*
X176458582Y-127283000D01*
X176458583Y-127283000D01*
X176606417Y-127283000D01*
X181110663Y-127283000D01*
X181177702Y-127302685D01*
X181183548Y-127306682D01*
X181197265Y-127316648D01*
X181197270Y-127316651D01*
X181370192Y-127393642D01*
X181370197Y-127393644D01*
X181555354Y-127433000D01*
X181555355Y-127433000D01*
X181744644Y-127433000D01*
X181744646Y-127433000D01*
X181929803Y-127393644D01*
X182102730Y-127316651D01*
X182108661Y-127312342D01*
X182116452Y-127306682D01*
X182182258Y-127283202D01*
X182189337Y-127283000D01*
X187260663Y-127283000D01*
X187327702Y-127302685D01*
X187333548Y-127306682D01*
X187347265Y-127316648D01*
X187347270Y-127316651D01*
X187520192Y-127393642D01*
X187520197Y-127393644D01*
X187705354Y-127433000D01*
X187705355Y-127433000D01*
X187894644Y-127433000D01*
X187894646Y-127433000D01*
X188079803Y-127393644D01*
X188252730Y-127316651D01*
X188405871Y-127205388D01*
X188532533Y-127064716D01*
X188627179Y-126900784D01*
X188685674Y-126720756D01*
X188705460Y-126532500D01*
X188702044Y-126499998D01*
X216339518Y-126499998D01*
X216339518Y-126500001D01*
X216359422Y-126778299D01*
X216418727Y-127050916D01*
X216418729Y-127050923D01*
X216423873Y-127064714D01*
X216516231Y-127312338D01*
X216516233Y-127312342D01*
X216649940Y-127557207D01*
X216649945Y-127557215D01*
X216817138Y-127780560D01*
X216817154Y-127780578D01*
X217014421Y-127977845D01*
X217014439Y-127977861D01*
X217237784Y-128145054D01*
X217237792Y-128145059D01*
X217482657Y-128278766D01*
X217482661Y-128278768D01*
X217482663Y-128278769D01*
X217744077Y-128376271D01*
X217880391Y-128405924D01*
X218016700Y-128435577D01*
X218016702Y-128435577D01*
X218016706Y-128435578D01*
X218264014Y-128453265D01*
X218294999Y-128455482D01*
X218295000Y-128455482D01*
X218295001Y-128455482D01*
X218322881Y-128453487D01*
X218573294Y-128435578D01*
X218845923Y-128376271D01*
X219107337Y-128278769D01*
X219352213Y-128145056D01*
X219575568Y-127977855D01*
X219772855Y-127780568D01*
X219940056Y-127557213D01*
X220073769Y-127312337D01*
X220171271Y-127050923D01*
X220230578Y-126778294D01*
X220250482Y-126500000D01*
X220230578Y-126221706D01*
X220171271Y-125949077D01*
X220073769Y-125687663D01*
X220068993Y-125678917D01*
X219940059Y-125442792D01*
X219940054Y-125442784D01*
X219772861Y-125219439D01*
X219772845Y-125219421D01*
X219575578Y-125022154D01*
X219575560Y-125022138D01*
X219352215Y-124854945D01*
X219352207Y-124854940D01*
X219107342Y-124721233D01*
X219107338Y-124721231D01*
X219008230Y-124684266D01*
X218845923Y-124623729D01*
X218845919Y-124623728D01*
X218845916Y-124623727D01*
X218573299Y-124564422D01*
X218295001Y-124544518D01*
X218294999Y-124544518D01*
X218016700Y-124564422D01*
X217744083Y-124623727D01*
X217744078Y-124623728D01*
X217744077Y-124623729D01*
X217680875Y-124647301D01*
X217482661Y-124721231D01*
X217482657Y-124721233D01*
X217237792Y-124854940D01*
X217237784Y-124854945D01*
X217014439Y-125022138D01*
X217014421Y-125022154D01*
X216817154Y-125219421D01*
X216817138Y-125219439D01*
X216649945Y-125442784D01*
X216649940Y-125442792D01*
X216516233Y-125687657D01*
X216516231Y-125687661D01*
X216442301Y-125885875D01*
X216422704Y-125938421D01*
X216418727Y-125949083D01*
X216359422Y-126221700D01*
X216339518Y-126499998D01*
X188702044Y-126499998D01*
X188685674Y-126344244D01*
X188627179Y-126164216D01*
X188532533Y-126000284D01*
X188405871Y-125859612D01*
X188405870Y-125859611D01*
X188252734Y-125748351D01*
X188252729Y-125748348D01*
X188079807Y-125671357D01*
X188079802Y-125671355D01*
X187934001Y-125640365D01*
X187894646Y-125632000D01*
X187705354Y-125632000D01*
X187672897Y-125638898D01*
X187520197Y-125671355D01*
X187520192Y-125671357D01*
X187347270Y-125748348D01*
X187347265Y-125748351D01*
X187333548Y-125758318D01*
X187267742Y-125781798D01*
X187260663Y-125782000D01*
X182189337Y-125782000D01*
X182122298Y-125762315D01*
X182116452Y-125758318D01*
X182102734Y-125748351D01*
X182102729Y-125748348D01*
X181929807Y-125671357D01*
X181929802Y-125671355D01*
X181784001Y-125640365D01*
X181744646Y-125632000D01*
X181555354Y-125632000D01*
X181522897Y-125638898D01*
X181370197Y-125671355D01*
X181370192Y-125671357D01*
X181197270Y-125748348D01*
X181197265Y-125748351D01*
X181183548Y-125758318D01*
X181117742Y-125781798D01*
X181110663Y-125782000D01*
X176894730Y-125782000D01*
X176827691Y-125762315D01*
X176807049Y-125745681D01*
X176246819Y-125185451D01*
X176213334Y-125124128D01*
X176210500Y-125097770D01*
X176210500Y-123879996D01*
X200744435Y-123879996D01*
X200744435Y-123880003D01*
X200764630Y-124059249D01*
X200764631Y-124059254D01*
X200824211Y-124229523D01*
X200920184Y-124382262D01*
X201047738Y-124509816D01*
X201102966Y-124544518D01*
X201179753Y-124592767D01*
X201200478Y-124605789D01*
X201251742Y-124623727D01*
X201370745Y-124665368D01*
X201370750Y-124665369D01*
X201549996Y-124685565D01*
X201550000Y-124685565D01*
X201550004Y-124685565D01*
X201729249Y-124665369D01*
X201729252Y-124665368D01*
X201729255Y-124665368D01*
X201899522Y-124605789D01*
X202052262Y-124509816D01*
X202179816Y-124382262D01*
X202275789Y-124229522D01*
X202335368Y-124059255D01*
X202355565Y-123880000D01*
X202355565Y-123879996D01*
X206144435Y-123879996D01*
X206144435Y-123880003D01*
X206164630Y-124059249D01*
X206164631Y-124059254D01*
X206224211Y-124229523D01*
X206320184Y-124382262D01*
X206447738Y-124509816D01*
X206502966Y-124544518D01*
X206579753Y-124592767D01*
X206600478Y-124605789D01*
X206651742Y-124623727D01*
X206770745Y-124665368D01*
X206770750Y-124665369D01*
X206949996Y-124685565D01*
X206950000Y-124685565D01*
X206950004Y-124685565D01*
X207129249Y-124665369D01*
X207129252Y-124665368D01*
X207129255Y-124665368D01*
X207299522Y-124605789D01*
X207452262Y-124509816D01*
X207579816Y-124382262D01*
X207675789Y-124229522D01*
X207735368Y-124059255D01*
X207755565Y-123880000D01*
X207747522Y-123808618D01*
X207735369Y-123700750D01*
X207735368Y-123700745D01*
X207675788Y-123530476D01*
X207579815Y-123377737D01*
X207452262Y-123250184D01*
X207299523Y-123154211D01*
X207129254Y-123094631D01*
X207129249Y-123094630D01*
X206950004Y-123074435D01*
X206949996Y-123074435D01*
X206770750Y-123094630D01*
X206770745Y-123094631D01*
X206600476Y-123154211D01*
X206447737Y-123250184D01*
X206320184Y-123377737D01*
X206224211Y-123530476D01*
X206164631Y-123700745D01*
X206164630Y-123700750D01*
X206144435Y-123879996D01*
X202355565Y-123879996D01*
X202347522Y-123808618D01*
X202335369Y-123700750D01*
X202335368Y-123700745D01*
X202275788Y-123530476D01*
X202179815Y-123377737D01*
X202052262Y-123250184D01*
X201899523Y-123154211D01*
X201729254Y-123094631D01*
X201729249Y-123094630D01*
X201550004Y-123074435D01*
X201549996Y-123074435D01*
X201370750Y-123094630D01*
X201370745Y-123094631D01*
X201200476Y-123154211D01*
X201047737Y-123250184D01*
X200920184Y-123377737D01*
X200824211Y-123530476D01*
X200764631Y-123700745D01*
X200764630Y-123700750D01*
X200744435Y-123879996D01*
X176210500Y-123879996D01*
X176210500Y-119308517D01*
X176230185Y-119241478D01*
X176282989Y-119195723D01*
X176352147Y-119185779D01*
X176395555Y-119201970D01*
X176395596Y-119201883D01*
X176396826Y-119202444D01*
X176401545Y-119204205D01*
X176403667Y-119205569D01*
X176534534Y-119265335D01*
X176534541Y-119265338D01*
X176601580Y-119285023D01*
X176601584Y-119285024D01*
X176744000Y-119305500D01*
X180564730Y-119305500D01*
X180631769Y-119325185D01*
X180677524Y-119377989D01*
X180688050Y-119416537D01*
X180704785Y-119575756D01*
X180704786Y-119575759D01*
X180763277Y-119755777D01*
X180763278Y-119755779D01*
X180763280Y-119755784D01*
X180857926Y-119919716D01*
X180950154Y-120022145D01*
X180984588Y-120060388D01*
X181137724Y-120171648D01*
X181137729Y-120171651D01*
X181310651Y-120248642D01*
X181310656Y-120248644D01*
X181495813Y-120288000D01*
X181495814Y-120288000D01*
X181685103Y-120288000D01*
X181685105Y-120288000D01*
X181870262Y-120248644D01*
X182043189Y-120171651D01*
X182053166Y-120164401D01*
X182118971Y-120140920D01*
X182187026Y-120156742D01*
X182235722Y-120206846D01*
X182249601Y-120275323D01*
X182233443Y-120326715D01*
X182218751Y-120352162D01*
X182218747Y-120352170D01*
X182163504Y-120522192D01*
X182163503Y-120522194D01*
X182144815Y-120700000D01*
X182163503Y-120877805D01*
X182163504Y-120877807D01*
X182218747Y-121047829D01*
X182218750Y-121047835D01*
X182308141Y-121202665D01*
X182325286Y-121221706D01*
X182427764Y-121335521D01*
X182427767Y-121335523D01*
X182427770Y-121335526D01*
X182572407Y-121440612D01*
X182735733Y-121513329D01*
X182910609Y-121550500D01*
X182910610Y-121550500D01*
X183089389Y-121550500D01*
X183089391Y-121550500D01*
X183264267Y-121513329D01*
X183294209Y-121499998D01*
X216339518Y-121499998D01*
X216339518Y-121500001D01*
X216359422Y-121778299D01*
X216418727Y-122050916D01*
X216418729Y-122050923D01*
X216479266Y-122213230D01*
X216516231Y-122312338D01*
X216516233Y-122312342D01*
X216649940Y-122557207D01*
X216649945Y-122557215D01*
X216817138Y-122780560D01*
X216817154Y-122780578D01*
X217014421Y-122977845D01*
X217014439Y-122977861D01*
X217237784Y-123145054D01*
X217237792Y-123145059D01*
X217482657Y-123278766D01*
X217482661Y-123278768D01*
X217482663Y-123278769D01*
X217744077Y-123376271D01*
X217880391Y-123405924D01*
X218016700Y-123435577D01*
X218016702Y-123435577D01*
X218016706Y-123435578D01*
X218264014Y-123453265D01*
X218294999Y-123455482D01*
X218295000Y-123455482D01*
X218295001Y-123455482D01*
X218322881Y-123453487D01*
X218573294Y-123435578D01*
X218845923Y-123376271D01*
X219107337Y-123278769D01*
X219352213Y-123145056D01*
X219575568Y-122977855D01*
X219772855Y-122780568D01*
X219940056Y-122557213D01*
X220073769Y-122312337D01*
X220171271Y-122050923D01*
X220230578Y-121778294D01*
X220250482Y-121500000D01*
X220230578Y-121221706D01*
X220226435Y-121202663D01*
X220200924Y-121085391D01*
X220171271Y-120949077D01*
X220073769Y-120687663D01*
X219983417Y-120522197D01*
X219940059Y-120442792D01*
X219940054Y-120442784D01*
X219772861Y-120219439D01*
X219772845Y-120219421D01*
X219575578Y-120022154D01*
X219575560Y-120022138D01*
X219352215Y-119854945D01*
X219352207Y-119854940D01*
X219107342Y-119721233D01*
X219107338Y-119721231D01*
X219008230Y-119684266D01*
X218845923Y-119623729D01*
X218845919Y-119623728D01*
X218845916Y-119623727D01*
X218573299Y-119564422D01*
X218295001Y-119544518D01*
X218294999Y-119544518D01*
X218016700Y-119564422D01*
X217744083Y-119623727D01*
X217744078Y-119623728D01*
X217744077Y-119623729D01*
X217680875Y-119647301D01*
X217482661Y-119721231D01*
X217482657Y-119721233D01*
X217237792Y-119854940D01*
X217237784Y-119854945D01*
X217014439Y-120022138D01*
X217014421Y-120022154D01*
X216817154Y-120219421D01*
X216817138Y-120219439D01*
X216649945Y-120442784D01*
X216649940Y-120442792D01*
X216516233Y-120687657D01*
X216516231Y-120687661D01*
X216418727Y-120949083D01*
X216359422Y-121221700D01*
X216339518Y-121499998D01*
X183294209Y-121499998D01*
X183427593Y-121440612D01*
X183572230Y-121335526D01*
X183691859Y-121202665D01*
X183781250Y-121047835D01*
X183836497Y-120877803D01*
X183855185Y-120700000D01*
X183836497Y-120522197D01*
X183781250Y-120352165D01*
X183691859Y-120197335D01*
X183615251Y-120112253D01*
X183572235Y-120064478D01*
X183572232Y-120064476D01*
X183572231Y-120064475D01*
X183572230Y-120064474D01*
X183427593Y-119959388D01*
X183264267Y-119886671D01*
X183264265Y-119886670D01*
X183136594Y-119859533D01*
X183089391Y-119849500D01*
X182910609Y-119849500D01*
X182885016Y-119854940D01*
X182735733Y-119886670D01*
X182735728Y-119886672D01*
X182572408Y-119959388D01*
X182566775Y-119962640D01*
X182565675Y-119960735D01*
X182509438Y-119980784D01*
X182441388Y-119964940D01*
X182392707Y-119914821D01*
X182378850Y-119846339D01*
X182395003Y-119794988D01*
X182417638Y-119755784D01*
X182476133Y-119575756D01*
X182492867Y-119416537D01*
X182519452Y-119351924D01*
X182576749Y-119311939D01*
X182616188Y-119305500D01*
X186866558Y-119305500D01*
X186933597Y-119325185D01*
X186979352Y-119377989D01*
X186989878Y-119416537D01*
X187006613Y-119575756D01*
X187006614Y-119575759D01*
X187065105Y-119755777D01*
X187065106Y-119755779D01*
X187065108Y-119755784D01*
X187159754Y-119919716D01*
X187251982Y-120022145D01*
X187286416Y-120060388D01*
X187439552Y-120171648D01*
X187439557Y-120171651D01*
X187612479Y-120248642D01*
X187612484Y-120248644D01*
X187797641Y-120288000D01*
X187797642Y-120288000D01*
X187986931Y-120288000D01*
X187986933Y-120288000D01*
X188172090Y-120248644D01*
X188345017Y-120171651D01*
X188498158Y-120060388D01*
X188624820Y-119919716D01*
X188719466Y-119755784D01*
X188777961Y-119575756D01*
X188794695Y-119416537D01*
X188821280Y-119351924D01*
X188878577Y-119311939D01*
X188918016Y-119305500D01*
X196625990Y-119305500D01*
X196626000Y-119305500D01*
X196733456Y-119293947D01*
X196784967Y-119282741D01*
X196819197Y-119271347D01*
X196887497Y-119248616D01*
X196887501Y-119248613D01*
X196887504Y-119248613D01*
X197008543Y-119170825D01*
X197061347Y-119125070D01*
X197155567Y-119016336D01*
X197215338Y-118885459D01*
X197235023Y-118818420D01*
X197235024Y-118818416D01*
X197255500Y-118676000D01*
X197255500Y-109074000D01*
X197243947Y-108966544D01*
X197232741Y-108915033D01*
X197224681Y-108890816D01*
X197198616Y-108812502D01*
X197198613Y-108812496D01*
X197120828Y-108691462D01*
X197120825Y-108691457D01*
X197120820Y-108691451D01*
X197075076Y-108638659D01*
X197075072Y-108638656D01*
X197075070Y-108638653D01*
X196966336Y-108544433D01*
X196966333Y-108544431D01*
X196966331Y-108544430D01*
X196835465Y-108484664D01*
X196835460Y-108484662D01*
X196835459Y-108484662D01*
X196768420Y-108464977D01*
X196768422Y-108464977D01*
X196768417Y-108464976D01*
X196706347Y-108456052D01*
X196626000Y-108444500D01*
X196625998Y-108444500D01*
X184975203Y-108444500D01*
X184908164Y-108424815D01*
X184862409Y-108372011D01*
X184851882Y-108333461D01*
X184847832Y-108294927D01*
X184835674Y-108179244D01*
X184777179Y-107999216D01*
X184682533Y-107835284D01*
X184555871Y-107694612D01*
X184534061Y-107678766D01*
X184402734Y-107583351D01*
X184402729Y-107583348D01*
X184229807Y-107506357D01*
X184229802Y-107506355D01*
X184084001Y-107475365D01*
X184044646Y-107467000D01*
X183855354Y-107467000D01*
X183822897Y-107473898D01*
X183670197Y-107506355D01*
X183670192Y-107506357D01*
X183497270Y-107583348D01*
X183497265Y-107583351D01*
X183344129Y-107694611D01*
X183217466Y-107835285D01*
X183122821Y-107999215D01*
X183122818Y-107999222D01*
X183064327Y-108179240D01*
X183064326Y-108179244D01*
X183052168Y-108294924D01*
X183048118Y-108333461D01*
X183021534Y-108398076D01*
X182964236Y-108438061D01*
X182924797Y-108444500D01*
X178830780Y-108444500D01*
X178763741Y-108424815D01*
X178717986Y-108372011D01*
X178707459Y-108333461D01*
X178703409Y-108294927D01*
X178691251Y-108179244D01*
X178632756Y-107999216D01*
X178538110Y-107835284D01*
X178411448Y-107694612D01*
X178389638Y-107678766D01*
X178258311Y-107583351D01*
X178258306Y-107583348D01*
X178085384Y-107506357D01*
X178085379Y-107506355D01*
X177939578Y-107475365D01*
X177900223Y-107467000D01*
X177710931Y-107467000D01*
X177678474Y-107473898D01*
X177525774Y-107506355D01*
X177525769Y-107506357D01*
X177352847Y-107583348D01*
X177352842Y-107583351D01*
X177199706Y-107694611D01*
X177073043Y-107835285D01*
X176978398Y-107999215D01*
X176978395Y-107999222D01*
X176919904Y-108179240D01*
X176919903Y-108179244D01*
X176907745Y-108294924D01*
X176903695Y-108333461D01*
X176877111Y-108398076D01*
X176819813Y-108438061D01*
X176780374Y-108444500D01*
X176744000Y-108444500D01*
X176743991Y-108444500D01*
X176743990Y-108444501D01*
X176636549Y-108456052D01*
X176636537Y-108456054D01*
X176585027Y-108467260D01*
X176482502Y-108501383D01*
X176482498Y-108501385D01*
X176401539Y-108553415D01*
X176334500Y-108573099D01*
X176267460Y-108553414D01*
X176221706Y-108500610D01*
X176210500Y-108449099D01*
X176210500Y-106350000D01*
X178094540Y-106350000D01*
X178114326Y-106538256D01*
X178114327Y-106538259D01*
X178172818Y-106718277D01*
X178172821Y-106718284D01*
X178267467Y-106882216D01*
X178337975Y-106960523D01*
X178394129Y-107022888D01*
X178547265Y-107134148D01*
X178547270Y-107134151D01*
X178720192Y-107211142D01*
X178720197Y-107211144D01*
X178905354Y-107250500D01*
X178905355Y-107250500D01*
X179094644Y-107250500D01*
X179094646Y-107250500D01*
X179279803Y-107211144D01*
X179452730Y-107134151D01*
X179605871Y-107022888D01*
X179732533Y-106882216D01*
X179827179Y-106718284D01*
X179885674Y-106538256D01*
X179905460Y-106350000D01*
X179885674Y-106161744D01*
X179827179Y-105981716D01*
X179779999Y-105899998D01*
X216389518Y-105899998D01*
X216389518Y-105900001D01*
X216409422Y-106178299D01*
X216468727Y-106450916D01*
X216468729Y-106450923D01*
X216509859Y-106561196D01*
X216566231Y-106712338D01*
X216566233Y-106712341D01*
X216699940Y-106957207D01*
X216699945Y-106957215D01*
X216867138Y-107180560D01*
X216867154Y-107180578D01*
X217064421Y-107377845D01*
X217064439Y-107377861D01*
X217287784Y-107545054D01*
X217287792Y-107545059D01*
X217532657Y-107678766D01*
X217532661Y-107678768D01*
X217532663Y-107678769D01*
X217794077Y-107776271D01*
X217930391Y-107805924D01*
X218066700Y-107835577D01*
X218066702Y-107835577D01*
X218066706Y-107835578D01*
X218314014Y-107853265D01*
X218344999Y-107855482D01*
X218345000Y-107855482D01*
X218345001Y-107855482D01*
X218372881Y-107853487D01*
X218623294Y-107835578D01*
X218624646Y-107835284D01*
X218662458Y-107827058D01*
X218895923Y-107776271D01*
X219157337Y-107678769D01*
X219402213Y-107545056D01*
X219625568Y-107377855D01*
X219822855Y-107180568D01*
X219990056Y-106957213D01*
X220123769Y-106712337D01*
X220221271Y-106450923D01*
X220280578Y-106178294D01*
X220300482Y-105900000D01*
X220280578Y-105621706D01*
X220273417Y-105588789D01*
X220243117Y-105449500D01*
X220221271Y-105349077D01*
X220123769Y-105087663D01*
X220072020Y-104992893D01*
X219990059Y-104842792D01*
X219990054Y-104842784D01*
X219822861Y-104619439D01*
X219822845Y-104619421D01*
X219625578Y-104422154D01*
X219625560Y-104422138D01*
X219402215Y-104254945D01*
X219402207Y-104254940D01*
X219157342Y-104121233D01*
X219157338Y-104121231D01*
X219058230Y-104084266D01*
X218895923Y-104023729D01*
X218895919Y-104023728D01*
X218895916Y-104023727D01*
X218623299Y-103964422D01*
X218345001Y-103944518D01*
X218344999Y-103944518D01*
X218066700Y-103964422D01*
X217794083Y-104023727D01*
X217794078Y-104023728D01*
X217794077Y-104023729D01*
X217730875Y-104047301D01*
X217532661Y-104121231D01*
X217532657Y-104121233D01*
X217287792Y-104254940D01*
X217287784Y-104254945D01*
X217064439Y-104422138D01*
X217064421Y-104422154D01*
X216867154Y-104619421D01*
X216867138Y-104619439D01*
X216699945Y-104842784D01*
X216699940Y-104842792D01*
X216566233Y-105087657D01*
X216566231Y-105087661D01*
X216507611Y-105244829D01*
X216471083Y-105342767D01*
X216468727Y-105349083D01*
X216409422Y-105621700D01*
X216389518Y-105899998D01*
X179779999Y-105899998D01*
X179732533Y-105817784D01*
X179605871Y-105677112D01*
X179568746Y-105650139D01*
X179452734Y-105565851D01*
X179452729Y-105565848D01*
X179279807Y-105488857D01*
X179279802Y-105488855D01*
X179134001Y-105457865D01*
X179094646Y-105449500D01*
X178905354Y-105449500D01*
X178872897Y-105456398D01*
X178720197Y-105488855D01*
X178720192Y-105488857D01*
X178547270Y-105565848D01*
X178547265Y-105565851D01*
X178394129Y-105677111D01*
X178267466Y-105817785D01*
X178172821Y-105981715D01*
X178172818Y-105981722D01*
X178114327Y-106161740D01*
X178114326Y-106161744D01*
X178094540Y-106350000D01*
X176210500Y-106350000D01*
X176210500Y-103865346D01*
X176230185Y-103798307D01*
X176242350Y-103782374D01*
X176264449Y-103757829D01*
X176332533Y-103682216D01*
X176427179Y-103518284D01*
X176457381Y-103425332D01*
X200744435Y-103425332D01*
X200744435Y-103425339D01*
X200764630Y-103604585D01*
X200764631Y-103604590D01*
X200824211Y-103774859D01*
X200905491Y-103904214D01*
X200920184Y-103927598D01*
X201047738Y-104055152D01*
X201200478Y-104151125D01*
X201370745Y-104210704D01*
X201370750Y-104210705D01*
X201549996Y-104230901D01*
X201550000Y-104230901D01*
X201550004Y-104230901D01*
X201729249Y-104210705D01*
X201729252Y-104210704D01*
X201729255Y-104210704D01*
X201899522Y-104151125D01*
X202052262Y-104055152D01*
X202179816Y-103927598D01*
X202275789Y-103774858D01*
X202335368Y-103604591D01*
X202343172Y-103535328D01*
X202355565Y-103425339D01*
X202355565Y-103425332D01*
X206144435Y-103425332D01*
X206144435Y-103425339D01*
X206164630Y-103604585D01*
X206164631Y-103604590D01*
X206224211Y-103774859D01*
X206305491Y-103904214D01*
X206320184Y-103927598D01*
X206447738Y-104055152D01*
X206600478Y-104151125D01*
X206770745Y-104210704D01*
X206770750Y-104210705D01*
X206949996Y-104230901D01*
X206950000Y-104230901D01*
X206950004Y-104230901D01*
X207129249Y-104210705D01*
X207129252Y-104210704D01*
X207129255Y-104210704D01*
X207299522Y-104151125D01*
X207452262Y-104055152D01*
X207579816Y-103927598D01*
X207675789Y-103774858D01*
X207735368Y-103604591D01*
X207743172Y-103535328D01*
X207755565Y-103425339D01*
X207755565Y-103425332D01*
X207735369Y-103246086D01*
X207735368Y-103246081D01*
X207701748Y-103150000D01*
X207675789Y-103075814D01*
X207579816Y-102923074D01*
X207452262Y-102795520D01*
X207430293Y-102781716D01*
X207299523Y-102699547D01*
X207129254Y-102639967D01*
X207129249Y-102639966D01*
X206950004Y-102619771D01*
X206949996Y-102619771D01*
X206770750Y-102639966D01*
X206770745Y-102639967D01*
X206600476Y-102699547D01*
X206447737Y-102795520D01*
X206320184Y-102923073D01*
X206224211Y-103075812D01*
X206164631Y-103246081D01*
X206164630Y-103246086D01*
X206144435Y-103425332D01*
X202355565Y-103425332D01*
X202335369Y-103246086D01*
X202335368Y-103246081D01*
X202301748Y-103150000D01*
X202275789Y-103075814D01*
X202179816Y-102923074D01*
X202052262Y-102795520D01*
X202030293Y-102781716D01*
X201899523Y-102699547D01*
X201729254Y-102639967D01*
X201729249Y-102639966D01*
X201550004Y-102619771D01*
X201549996Y-102619771D01*
X201370750Y-102639966D01*
X201370745Y-102639967D01*
X201200476Y-102699547D01*
X201047737Y-102795520D01*
X200920184Y-102923073D01*
X200824211Y-103075812D01*
X200764631Y-103246081D01*
X200764630Y-103246086D01*
X200744435Y-103425332D01*
X176457381Y-103425332D01*
X176485674Y-103338256D01*
X176505460Y-103150000D01*
X176485674Y-102961744D01*
X176427179Y-102781716D01*
X176332533Y-102617784D01*
X176205871Y-102477112D01*
X176205870Y-102477111D01*
X176052734Y-102365851D01*
X176052729Y-102365848D01*
X175879807Y-102288857D01*
X175879802Y-102288855D01*
X175734001Y-102257865D01*
X175694646Y-102249500D01*
X175505354Y-102249500D01*
X175472897Y-102256398D01*
X175320197Y-102288855D01*
X175320192Y-102288857D01*
X175147270Y-102365848D01*
X175147265Y-102365851D01*
X174994129Y-102477111D01*
X174867466Y-102617785D01*
X174772821Y-102781715D01*
X174772818Y-102781722D01*
X174714327Y-102961740D01*
X174714326Y-102961744D01*
X174701029Y-103088259D01*
X174694540Y-103150000D01*
X174708821Y-103285877D01*
X174709500Y-103298838D01*
X174709500Y-112335764D01*
X174689815Y-112402803D01*
X174637011Y-112448558D01*
X174567853Y-112458502D01*
X174504297Y-112429477D01*
X174493351Y-112418737D01*
X174455871Y-112377112D01*
X174455870Y-112377111D01*
X174302734Y-112265851D01*
X174302729Y-112265848D01*
X174129807Y-112188857D01*
X174129802Y-112188855D01*
X173984001Y-112157865D01*
X173944646Y-112149500D01*
X173755354Y-112149500D01*
X173722897Y-112156398D01*
X173570197Y-112188855D01*
X173570192Y-112188857D01*
X173397270Y-112265848D01*
X173397265Y-112265851D01*
X173244129Y-112377111D01*
X173117466Y-112517785D01*
X173022821Y-112681715D01*
X173022818Y-112681722D01*
X172970824Y-112841744D01*
X172964326Y-112861744D01*
X172944540Y-113050000D01*
X169849754Y-113050000D01*
X169779807Y-113018857D01*
X169779802Y-113018855D01*
X169634001Y-112987865D01*
X169594646Y-112979500D01*
X169405354Y-112979500D01*
X169372897Y-112986398D01*
X169220197Y-113018855D01*
X169220192Y-113018857D01*
X169047271Y-113095848D01*
X168905851Y-113198595D01*
X168840044Y-113222074D01*
X168771990Y-113206248D01*
X168723296Y-113156142D01*
X168709421Y-113087664D01*
X168709630Y-113085467D01*
X168715460Y-113030000D01*
X168695674Y-112841744D01*
X168637179Y-112661716D01*
X168542533Y-112497784D01*
X168415871Y-112357112D01*
X168415870Y-112357111D01*
X168262734Y-112245851D01*
X168262729Y-112245848D01*
X168089807Y-112168857D01*
X168089802Y-112168855D01*
X167944001Y-112137865D01*
X167904646Y-112129500D01*
X167715354Y-112129500D01*
X167682897Y-112136398D01*
X167530197Y-112168855D01*
X167530192Y-112168857D01*
X167357270Y-112245848D01*
X167357265Y-112245851D01*
X167204129Y-112357111D01*
X167077466Y-112497785D01*
X166982821Y-112661715D01*
X166982818Y-112661722D01*
X166927575Y-112831744D01*
X166924326Y-112841744D01*
X166912181Y-112957301D01*
X166904540Y-113029999D01*
X166910043Y-113082355D01*
X166897473Y-113151084D01*
X166849741Y-113202108D01*
X166782001Y-113219226D01*
X166715760Y-113197004D01*
X166713837Y-113195634D01*
X166562734Y-113085851D01*
X166562729Y-113085848D01*
X166389807Y-113008857D01*
X166389802Y-113008855D01*
X166244001Y-112977865D01*
X166204646Y-112969500D01*
X166015354Y-112969500D01*
X165982897Y-112976398D01*
X165830197Y-113008855D01*
X165830192Y-113008857D01*
X165657270Y-113085848D01*
X165657265Y-113085851D01*
X165526678Y-113180728D01*
X165460871Y-113204208D01*
X165392818Y-113188382D01*
X165344123Y-113138276D01*
X165330248Y-113069798D01*
X165330459Y-113067573D01*
X165335460Y-113020000D01*
X165315674Y-112831744D01*
X165257179Y-112651716D01*
X165162533Y-112487784D01*
X165035871Y-112347112D01*
X165020252Y-112335764D01*
X164882734Y-112235851D01*
X164882729Y-112235848D01*
X164709807Y-112158857D01*
X164709802Y-112158855D01*
X164564001Y-112127865D01*
X164524646Y-112119500D01*
X164335354Y-112119500D01*
X164302897Y-112126398D01*
X164150197Y-112158855D01*
X164150192Y-112158857D01*
X163977270Y-112235848D01*
X163977265Y-112235851D01*
X163824129Y-112347111D01*
X163697466Y-112487785D01*
X163602821Y-112651715D01*
X163602818Y-112651722D01*
X163544365Y-112831623D01*
X163544326Y-112831744D01*
X163541173Y-112861744D01*
X163537921Y-112892687D01*
X163511336Y-112957301D01*
X163454038Y-112997285D01*
X163388821Y-113001015D01*
X163378302Y-112998779D01*
X163334646Y-112989500D01*
X163145354Y-112989500D01*
X163112897Y-112996398D01*
X162960197Y-113028855D01*
X162960192Y-113028857D01*
X162787270Y-113105848D01*
X162787265Y-113105851D01*
X162773548Y-113115818D01*
X162707742Y-113139298D01*
X162700663Y-113139500D01*
X161652230Y-113139500D01*
X161585191Y-113119815D01*
X161564549Y-113103181D01*
X158903921Y-110442553D01*
X158873672Y-110393192D01*
X158818330Y-110222867D01*
X158723684Y-110058935D01*
X158597022Y-109918263D01*
X158597021Y-109918262D01*
X158443885Y-109807002D01*
X158443880Y-109806999D01*
X158270958Y-109730008D01*
X158270953Y-109730006D01*
X158125152Y-109699016D01*
X158085797Y-109690651D01*
X157896505Y-109690651D01*
X157864048Y-109697549D01*
X157711348Y-109730006D01*
X157711343Y-109730008D01*
X157538421Y-109806999D01*
X157538416Y-109807002D01*
X157385280Y-109918262D01*
X157258617Y-110058936D01*
X157163972Y-110222866D01*
X157163969Y-110222873D01*
X157112388Y-110381624D01*
X157105477Y-110402895D01*
X157085691Y-110591151D01*
X123763843Y-110591151D01*
X123744690Y-110569879D01*
X123744689Y-110569878D01*
X123591553Y-110458618D01*
X123591548Y-110458615D01*
X123418626Y-110381624D01*
X123418621Y-110381622D01*
X123272820Y-110350632D01*
X123233465Y-110342267D01*
X123044173Y-110342267D01*
X123011716Y-110349165D01*
X122859016Y-110381622D01*
X122859011Y-110381624D01*
X122686089Y-110458615D01*
X122686084Y-110458618D01*
X122532948Y-110569878D01*
X122406285Y-110710552D01*
X122311640Y-110874482D01*
X122311637Y-110874489D01*
X122284037Y-110959435D01*
X122253145Y-111054511D01*
X122233359Y-111242767D01*
X86400000Y-111242767D01*
X86400000Y-108106668D01*
X169651208Y-108106668D01*
X169670994Y-108294924D01*
X169670995Y-108294927D01*
X169729486Y-108474945D01*
X169729489Y-108474952D01*
X169824135Y-108638884D01*
X169871477Y-108691462D01*
X169950797Y-108779556D01*
X170103933Y-108890816D01*
X170103938Y-108890819D01*
X170276860Y-108967810D01*
X170276865Y-108967812D01*
X170462022Y-109007168D01*
X170462023Y-109007168D01*
X170651312Y-109007168D01*
X170651314Y-109007168D01*
X170836471Y-108967812D01*
X171009398Y-108890819D01*
X171162539Y-108779556D01*
X171289201Y-108638884D01*
X171383847Y-108474952D01*
X171442342Y-108294924D01*
X171462128Y-108106668D01*
X171442342Y-107918412D01*
X171383847Y-107738384D01*
X171289201Y-107574452D01*
X171162539Y-107433780D01*
X171162538Y-107433779D01*
X171009402Y-107322519D01*
X171009397Y-107322516D01*
X170836475Y-107245525D01*
X170836470Y-107245523D01*
X170674715Y-107211142D01*
X170651314Y-107206168D01*
X170462022Y-107206168D01*
X170438621Y-107211142D01*
X170276865Y-107245523D01*
X170276860Y-107245525D01*
X170103938Y-107322516D01*
X170103933Y-107322519D01*
X169950797Y-107433779D01*
X169824134Y-107574453D01*
X169729489Y-107738383D01*
X169729486Y-107738390D01*
X169691441Y-107855482D01*
X169670994Y-107918412D01*
X169651208Y-108106668D01*
X86400000Y-108106668D01*
X86400000Y-106325000D01*
X167069815Y-106325000D01*
X167088503Y-106502805D01*
X167088504Y-106502807D01*
X167143747Y-106672829D01*
X167143750Y-106672835D01*
X167233141Y-106827665D01*
X167274812Y-106873946D01*
X167352764Y-106960521D01*
X167352767Y-106960523D01*
X167352770Y-106960526D01*
X167497407Y-107065612D01*
X167660733Y-107138329D01*
X167835609Y-107175500D01*
X167835610Y-107175500D01*
X168014389Y-107175500D01*
X168014391Y-107175500D01*
X168189267Y-107138329D01*
X168352593Y-107065612D01*
X168497230Y-106960526D01*
X168500212Y-106957215D01*
X168523148Y-106931741D01*
X168616859Y-106827665D01*
X168667735Y-106739544D01*
X168718302Y-106691330D01*
X168775122Y-106677545D01*
X168795688Y-106677545D01*
X168795690Y-106677545D01*
X168980847Y-106638189D01*
X169153774Y-106561196D01*
X169306915Y-106449933D01*
X169433577Y-106309261D01*
X169528223Y-106145329D01*
X169586718Y-105965301D01*
X169600056Y-105838395D01*
X172156145Y-105838395D01*
X172175931Y-106026651D01*
X172175932Y-106026654D01*
X172234423Y-106206672D01*
X172234426Y-106206679D01*
X172329072Y-106370611D01*
X172448099Y-106502803D01*
X172455734Y-106511283D01*
X172608870Y-106622543D01*
X172608875Y-106622546D01*
X172781797Y-106699537D01*
X172781802Y-106699539D01*
X172966959Y-106738895D01*
X172966960Y-106738895D01*
X173156249Y-106738895D01*
X173156251Y-106738895D01*
X173341408Y-106699539D01*
X173514335Y-106622546D01*
X173667476Y-106511283D01*
X173794138Y-106370611D01*
X173888784Y-106206679D01*
X173947279Y-106026651D01*
X173967065Y-105838395D01*
X173947279Y-105650139D01*
X173888784Y-105470111D01*
X173794138Y-105306179D01*
X173667476Y-105165507D01*
X173667475Y-105165506D01*
X173514339Y-105054246D01*
X173514334Y-105054243D01*
X173341412Y-104977252D01*
X173341407Y-104977250D01*
X173195606Y-104946260D01*
X173156251Y-104937895D01*
X172966959Y-104937895D01*
X172934502Y-104944793D01*
X172781802Y-104977250D01*
X172781797Y-104977252D01*
X172608875Y-105054243D01*
X172608870Y-105054246D01*
X172455734Y-105165506D01*
X172329071Y-105306180D01*
X172234426Y-105470110D01*
X172234423Y-105470117D01*
X172185171Y-105621700D01*
X172175931Y-105650139D01*
X172156145Y-105838395D01*
X169600056Y-105838395D01*
X169606504Y-105777045D01*
X169586718Y-105588789D01*
X169528223Y-105408761D01*
X169433577Y-105244829D01*
X169306915Y-105104157D01*
X169284213Y-105087663D01*
X169153778Y-104992896D01*
X169153773Y-104992893D01*
X168980851Y-104915902D01*
X168980846Y-104915900D01*
X168835045Y-104884910D01*
X168795690Y-104876545D01*
X168606398Y-104876545D01*
X168573941Y-104883443D01*
X168421241Y-104915900D01*
X168421236Y-104915902D01*
X168248314Y-104992893D01*
X168248309Y-104992896D01*
X168095173Y-105104156D01*
X167968510Y-105244830D01*
X167873863Y-105408764D01*
X167871228Y-105414682D01*
X167825972Y-105467915D01*
X167783734Y-105485526D01*
X167660733Y-105511670D01*
X167660728Y-105511672D01*
X167497408Y-105584387D01*
X167352768Y-105689475D01*
X167233140Y-105822336D01*
X167143750Y-105977164D01*
X167143747Y-105977170D01*
X167088504Y-106147192D01*
X167088503Y-106147194D01*
X167069815Y-106325000D01*
X86400000Y-106325000D01*
X86400000Y-105342767D01*
X132833359Y-105342767D01*
X132853145Y-105531023D01*
X132853146Y-105531026D01*
X132911637Y-105711044D01*
X132911640Y-105711051D01*
X133006286Y-105874983D01*
X133098296Y-105977170D01*
X133132948Y-106015655D01*
X133286084Y-106126915D01*
X133286089Y-106126918D01*
X133459011Y-106203909D01*
X133459016Y-106203911D01*
X133644173Y-106243267D01*
X133644174Y-106243267D01*
X133833463Y-106243267D01*
X133833465Y-106243267D01*
X134018622Y-106203911D01*
X134191549Y-106126918D01*
X134344690Y-106015655D01*
X134471352Y-105874983D01*
X134565998Y-105711051D01*
X134624493Y-105531023D01*
X134644279Y-105342767D01*
X134624493Y-105154511D01*
X134565998Y-104974483D01*
X134471352Y-104810551D01*
X134344690Y-104669879D01*
X134344689Y-104669878D01*
X134191553Y-104558618D01*
X134191548Y-104558615D01*
X134018626Y-104481624D01*
X134018621Y-104481622D01*
X133872820Y-104450632D01*
X133833465Y-104442267D01*
X133644173Y-104442267D01*
X133611716Y-104449165D01*
X133459016Y-104481622D01*
X133459011Y-104481624D01*
X133286089Y-104558615D01*
X133286084Y-104558618D01*
X133132948Y-104669878D01*
X133006285Y-104810552D01*
X132911640Y-104974482D01*
X132911637Y-104974489D01*
X132874865Y-105087663D01*
X132853145Y-105154511D01*
X132833359Y-105342767D01*
X86400000Y-105342767D01*
X86400000Y-99909999D01*
X129444341Y-99909999D01*
X129444341Y-99910000D01*
X129464936Y-100145403D01*
X129464938Y-100145413D01*
X129526094Y-100373655D01*
X129526096Y-100373659D01*
X129526097Y-100373663D01*
X129604630Y-100542077D01*
X129625965Y-100587830D01*
X129625967Y-100587834D01*
X129761501Y-100781395D01*
X129761506Y-100781402D01*
X129928597Y-100948493D01*
X129928603Y-100948498D01*
X130114158Y-101078425D01*
X130157783Y-101133002D01*
X130164977Y-101202500D01*
X130133454Y-101264855D01*
X130114158Y-101281575D01*
X129928597Y-101411505D01*
X129761505Y-101578597D01*
X129625965Y-101772169D01*
X129625964Y-101772171D01*
X129526098Y-101986335D01*
X129526094Y-101986344D01*
X129464938Y-102214586D01*
X129464936Y-102214596D01*
X129444341Y-102449999D01*
X129444341Y-102450000D01*
X129464936Y-102685403D01*
X129464938Y-102685413D01*
X129526094Y-102913655D01*
X129526096Y-102913659D01*
X129526097Y-102913663D01*
X129607511Y-103088256D01*
X129625965Y-103127830D01*
X129625967Y-103127834D01*
X129698436Y-103231329D01*
X129761505Y-103321401D01*
X129928599Y-103488495D01*
X130025384Y-103556265D01*
X130122165Y-103624032D01*
X130122167Y-103624033D01*
X130122170Y-103624035D01*
X130336337Y-103723903D01*
X130564592Y-103785063D01*
X130752918Y-103801539D01*
X130799999Y-103805659D01*
X130800000Y-103805659D01*
X130800001Y-103805659D01*
X130839234Y-103802226D01*
X131035408Y-103785063D01*
X131263663Y-103723903D01*
X131477830Y-103624035D01*
X131671401Y-103488495D01*
X131838495Y-103321401D01*
X131974035Y-103127830D01*
X132073903Y-102913663D01*
X132135063Y-102685408D01*
X132155659Y-102450000D01*
X132135063Y-102214592D01*
X132073903Y-101986337D01*
X131974035Y-101772171D01*
X131932143Y-101712342D01*
X131838494Y-101578597D01*
X131671402Y-101411506D01*
X131671396Y-101411501D01*
X131485842Y-101281575D01*
X131442217Y-101226998D01*
X131435023Y-101157500D01*
X131466546Y-101095145D01*
X131485842Y-101078425D01*
X131573030Y-101017375D01*
X131671401Y-100948495D01*
X131838495Y-100781401D01*
X131974035Y-100587830D01*
X132073903Y-100373663D01*
X132135063Y-100145408D01*
X132155659Y-99910000D01*
X132155659Y-99909999D01*
X133144341Y-99909999D01*
X133144341Y-99910000D01*
X133164936Y-100145403D01*
X133164938Y-100145413D01*
X133226094Y-100373655D01*
X133226096Y-100373659D01*
X133226097Y-100373663D01*
X133304630Y-100542077D01*
X133325965Y-100587830D01*
X133325967Y-100587834D01*
X133461501Y-100781395D01*
X133461506Y-100781402D01*
X133628597Y-100948493D01*
X133628603Y-100948498D01*
X133814158Y-101078425D01*
X133857783Y-101133002D01*
X133864977Y-101202500D01*
X133833454Y-101264855D01*
X133814158Y-101281575D01*
X133628597Y-101411505D01*
X133461505Y-101578597D01*
X133325965Y-101772169D01*
X133325964Y-101772171D01*
X133226098Y-101986335D01*
X133226094Y-101986344D01*
X133164938Y-102214586D01*
X133164936Y-102214596D01*
X133144341Y-102449999D01*
X133144341Y-102450000D01*
X133164936Y-102685403D01*
X133164938Y-102685413D01*
X133226094Y-102913655D01*
X133226096Y-102913659D01*
X133226097Y-102913663D01*
X133307511Y-103088256D01*
X133325965Y-103127830D01*
X133325967Y-103127834D01*
X133398436Y-103231329D01*
X133461505Y-103321401D01*
X133628599Y-103488495D01*
X133725384Y-103556265D01*
X133822165Y-103624032D01*
X133822167Y-103624033D01*
X133822170Y-103624035D01*
X134036337Y-103723903D01*
X134264592Y-103785063D01*
X134452918Y-103801539D01*
X134499999Y-103805659D01*
X134500000Y-103805659D01*
X134500001Y-103805659D01*
X134539234Y-103802226D01*
X134735408Y-103785063D01*
X134963663Y-103723903D01*
X135177830Y-103624035D01*
X135371401Y-103488495D01*
X135538495Y-103321401D01*
X135674035Y-103127830D01*
X135773903Y-102913663D01*
X135835063Y-102685408D01*
X135855659Y-102450000D01*
X135835063Y-102214592D01*
X135773903Y-101986337D01*
X135674035Y-101772171D01*
X135632143Y-101712342D01*
X135538494Y-101578597D01*
X135371402Y-101411506D01*
X135371396Y-101411501D01*
X135185842Y-101281575D01*
X135142217Y-101226998D01*
X135135023Y-101157500D01*
X135166546Y-101095145D01*
X135185842Y-101078425D01*
X135273030Y-101017375D01*
X135371401Y-100948495D01*
X135538495Y-100781401D01*
X135674035Y-100587830D01*
X135773903Y-100373663D01*
X135835063Y-100145408D01*
X135855659Y-99910000D01*
X135855659Y-99909999D01*
X136844341Y-99909999D01*
X136844341Y-99910000D01*
X136864936Y-100145403D01*
X136864938Y-100145413D01*
X136926094Y-100373655D01*
X136926096Y-100373659D01*
X136926097Y-100373663D01*
X137004630Y-100542077D01*
X137025965Y-100587830D01*
X137025967Y-100587834D01*
X137161501Y-100781395D01*
X137161506Y-100781402D01*
X137328597Y-100948493D01*
X137328603Y-100948498D01*
X137514158Y-101078425D01*
X137557783Y-101133002D01*
X137564977Y-101202500D01*
X137533454Y-101264855D01*
X137514158Y-101281575D01*
X137328597Y-101411505D01*
X137161505Y-101578597D01*
X137025965Y-101772169D01*
X137025964Y-101772171D01*
X136926098Y-101986335D01*
X136926094Y-101986344D01*
X136864938Y-102214586D01*
X136864936Y-102214596D01*
X136844341Y-102449999D01*
X136844341Y-102450000D01*
X136864936Y-102685403D01*
X136864938Y-102685413D01*
X136926094Y-102913655D01*
X136926096Y-102913659D01*
X136926097Y-102913663D01*
X137007511Y-103088256D01*
X137025965Y-103127830D01*
X137025967Y-103127834D01*
X137098436Y-103231329D01*
X137161505Y-103321401D01*
X137328599Y-103488495D01*
X137425384Y-103556265D01*
X137522165Y-103624032D01*
X137522167Y-103624033D01*
X137522170Y-103624035D01*
X137736337Y-103723903D01*
X137964592Y-103785063D01*
X138152918Y-103801539D01*
X138199999Y-103805659D01*
X138200000Y-103805659D01*
X138200001Y-103805659D01*
X138239234Y-103802226D01*
X138435408Y-103785063D01*
X138663663Y-103723903D01*
X138877830Y-103624035D01*
X139071401Y-103488495D01*
X139238495Y-103321401D01*
X139374035Y-103127830D01*
X139473903Y-102913663D01*
X139535063Y-102685408D01*
X139555659Y-102450000D01*
X139535063Y-102214592D01*
X139473903Y-101986337D01*
X139374035Y-101772171D01*
X139332143Y-101712342D01*
X139238494Y-101578597D01*
X139071402Y-101411506D01*
X139071396Y-101411501D01*
X138885842Y-101281575D01*
X138842217Y-101226998D01*
X138835023Y-101157500D01*
X138866546Y-101095145D01*
X138885842Y-101078425D01*
X138973030Y-101017375D01*
X139071401Y-100948495D01*
X139238495Y-100781401D01*
X139374035Y-100587830D01*
X139473903Y-100373663D01*
X139535063Y-100145408D01*
X139555659Y-99910000D01*
X139555659Y-99909999D01*
X140544341Y-99909999D01*
X140544341Y-99910000D01*
X140564936Y-100145403D01*
X140564938Y-100145413D01*
X140626094Y-100373655D01*
X140626096Y-100373659D01*
X140626097Y-100373663D01*
X140704630Y-100542077D01*
X140725965Y-100587830D01*
X140725967Y-100587834D01*
X140861501Y-100781395D01*
X140861506Y-100781402D01*
X141028597Y-100948493D01*
X141028603Y-100948498D01*
X141214158Y-101078425D01*
X141257783Y-101133002D01*
X141264977Y-101202500D01*
X141233454Y-101264855D01*
X141214158Y-101281575D01*
X141028597Y-101411505D01*
X140861505Y-101578597D01*
X140725965Y-101772169D01*
X140725964Y-101772171D01*
X140626098Y-101986335D01*
X140626094Y-101986344D01*
X140564938Y-102214586D01*
X140564936Y-102214596D01*
X140544341Y-102449999D01*
X140544341Y-102450000D01*
X140564936Y-102685403D01*
X140564938Y-102685413D01*
X140626094Y-102913655D01*
X140626096Y-102913659D01*
X140626097Y-102913663D01*
X140707511Y-103088256D01*
X140725965Y-103127830D01*
X140725967Y-103127834D01*
X140798436Y-103231329D01*
X140861505Y-103321401D01*
X141028599Y-103488495D01*
X141125384Y-103556265D01*
X141222165Y-103624032D01*
X141222167Y-103624033D01*
X141222170Y-103624035D01*
X141436337Y-103723903D01*
X141664592Y-103785063D01*
X141852918Y-103801539D01*
X141899999Y-103805659D01*
X141900000Y-103805659D01*
X141900001Y-103805659D01*
X141939234Y-103802226D01*
X142135408Y-103785063D01*
X142363663Y-103723903D01*
X142577830Y-103624035D01*
X142771401Y-103488495D01*
X142938495Y-103321401D01*
X143074035Y-103127830D01*
X143173903Y-102913663D01*
X143235063Y-102685408D01*
X143255659Y-102450000D01*
X143235063Y-102214592D01*
X143173903Y-101986337D01*
X143074035Y-101772171D01*
X143032143Y-101712342D01*
X142938494Y-101578597D01*
X142771402Y-101411506D01*
X142771396Y-101411501D01*
X142585842Y-101281575D01*
X142542217Y-101226998D01*
X142535023Y-101157500D01*
X142566546Y-101095145D01*
X142585842Y-101078425D01*
X142673030Y-101017375D01*
X142771401Y-100948495D01*
X142938495Y-100781401D01*
X143074035Y-100587830D01*
X143173903Y-100373663D01*
X143235063Y-100145408D01*
X143255659Y-99910000D01*
X143255659Y-99909999D01*
X144244341Y-99909999D01*
X144244341Y-99910000D01*
X144264936Y-100145403D01*
X144264938Y-100145413D01*
X144326094Y-100373655D01*
X144326096Y-100373659D01*
X144326097Y-100373663D01*
X144404630Y-100542077D01*
X144425965Y-100587830D01*
X144425967Y-100587834D01*
X144561501Y-100781395D01*
X144561506Y-100781402D01*
X144728597Y-100948493D01*
X144728603Y-100948498D01*
X144914158Y-101078425D01*
X144957783Y-101133002D01*
X144964977Y-101202500D01*
X144933454Y-101264855D01*
X144914158Y-101281575D01*
X144728597Y-101411505D01*
X144561505Y-101578597D01*
X144425965Y-101772169D01*
X144425964Y-101772171D01*
X144326098Y-101986335D01*
X144326094Y-101986344D01*
X144264938Y-102214586D01*
X144264936Y-102214596D01*
X144244341Y-102449999D01*
X144244341Y-102450000D01*
X144264936Y-102685403D01*
X144264938Y-102685413D01*
X144326094Y-102913655D01*
X144326096Y-102913659D01*
X144326097Y-102913663D01*
X144407511Y-103088256D01*
X144425965Y-103127830D01*
X144425967Y-103127834D01*
X144498436Y-103231329D01*
X144561505Y-103321401D01*
X144728599Y-103488495D01*
X144825384Y-103556265D01*
X144922165Y-103624032D01*
X144922167Y-103624033D01*
X144922170Y-103624035D01*
X145136337Y-103723903D01*
X145364592Y-103785063D01*
X145552918Y-103801539D01*
X145599999Y-103805659D01*
X145600000Y-103805659D01*
X145600001Y-103805659D01*
X145639234Y-103802226D01*
X145835408Y-103785063D01*
X146063663Y-103723903D01*
X146277830Y-103624035D01*
X146471401Y-103488495D01*
X146638495Y-103321401D01*
X146774035Y-103127830D01*
X146873903Y-102913663D01*
X146935063Y-102685408D01*
X146955659Y-102450000D01*
X146935063Y-102214592D01*
X146873903Y-101986337D01*
X146774035Y-101772171D01*
X146732143Y-101712342D01*
X146638494Y-101578597D01*
X146471402Y-101411506D01*
X146471396Y-101411501D01*
X146285842Y-101281575D01*
X146242217Y-101226998D01*
X146235023Y-101157500D01*
X146266546Y-101095145D01*
X146285842Y-101078425D01*
X146373030Y-101017375D01*
X146471401Y-100948495D01*
X146638495Y-100781401D01*
X146774035Y-100587830D01*
X146873903Y-100373663D01*
X146935063Y-100145408D01*
X146955659Y-99910000D01*
X146955659Y-99909999D01*
X147944341Y-99909999D01*
X147944341Y-99910000D01*
X147964936Y-100145403D01*
X147964938Y-100145413D01*
X148026094Y-100373655D01*
X148026096Y-100373659D01*
X148026097Y-100373663D01*
X148104630Y-100542077D01*
X148125965Y-100587830D01*
X148125967Y-100587834D01*
X148261501Y-100781395D01*
X148261506Y-100781402D01*
X148428597Y-100948493D01*
X148428603Y-100948498D01*
X148614158Y-101078425D01*
X148657783Y-101133002D01*
X148664977Y-101202500D01*
X148633454Y-101264855D01*
X148614158Y-101281575D01*
X148428597Y-101411505D01*
X148261505Y-101578597D01*
X148125965Y-101772169D01*
X148125964Y-101772171D01*
X148026098Y-101986335D01*
X148026094Y-101986344D01*
X147964938Y-102214586D01*
X147964936Y-102214596D01*
X147944341Y-102449999D01*
X147944341Y-102450000D01*
X147964936Y-102685403D01*
X147964938Y-102685413D01*
X148026094Y-102913655D01*
X148026096Y-102913659D01*
X148026097Y-102913663D01*
X148107511Y-103088256D01*
X148125965Y-103127830D01*
X148125967Y-103127834D01*
X148198436Y-103231329D01*
X148261505Y-103321401D01*
X148428599Y-103488495D01*
X148525384Y-103556265D01*
X148622165Y-103624032D01*
X148622167Y-103624033D01*
X148622170Y-103624035D01*
X148836337Y-103723903D01*
X149064592Y-103785063D01*
X149252918Y-103801539D01*
X149299999Y-103805659D01*
X149300000Y-103805659D01*
X149300001Y-103805659D01*
X149339234Y-103802226D01*
X149535408Y-103785063D01*
X149763663Y-103723903D01*
X149977830Y-103624035D01*
X150171401Y-103488495D01*
X150338495Y-103321401D01*
X150474035Y-103127830D01*
X150513559Y-103043070D01*
X165592604Y-103043070D01*
X165612390Y-103231326D01*
X165612391Y-103231329D01*
X165670882Y-103411347D01*
X165670885Y-103411354D01*
X165765531Y-103575286D01*
X165863551Y-103684148D01*
X165892193Y-103715958D01*
X166045329Y-103827218D01*
X166045334Y-103827221D01*
X166218256Y-103904212D01*
X166218261Y-103904214D01*
X166403418Y-103943570D01*
X166403419Y-103943570D01*
X166592708Y-103943570D01*
X166592710Y-103943570D01*
X166777867Y-103904214D01*
X166950794Y-103827221D01*
X167093439Y-103723584D01*
X169806239Y-103723584D01*
X169826025Y-103911840D01*
X169826026Y-103911843D01*
X169884517Y-104091861D01*
X169884520Y-104091868D01*
X169979166Y-104255800D01*
X170105828Y-104396472D01*
X170258964Y-104507732D01*
X170258969Y-104507735D01*
X170431891Y-104584726D01*
X170431896Y-104584728D01*
X170617053Y-104624084D01*
X170617054Y-104624084D01*
X170806343Y-104624084D01*
X170806345Y-104624084D01*
X170991502Y-104584728D01*
X171164429Y-104507735D01*
X171317570Y-104396472D01*
X171444232Y-104255800D01*
X171538878Y-104091868D01*
X171597373Y-103911840D01*
X171601130Y-103876091D01*
X171627713Y-103811477D01*
X171685010Y-103771491D01*
X171698656Y-103767764D01*
X171729803Y-103761144D01*
X171729807Y-103761142D01*
X171729808Y-103761142D01*
X171813442Y-103723905D01*
X171902730Y-103684151D01*
X172055871Y-103572888D01*
X172182533Y-103432216D01*
X172277179Y-103268284D01*
X172335674Y-103088256D01*
X172355460Y-102900000D01*
X172335674Y-102711744D01*
X172277179Y-102531716D01*
X172182533Y-102367784D01*
X172055871Y-102227112D01*
X172042095Y-102217103D01*
X171902734Y-102115851D01*
X171902729Y-102115848D01*
X171729807Y-102038857D01*
X171729802Y-102038855D01*
X171584001Y-102007865D01*
X171544646Y-101999500D01*
X171355354Y-101999500D01*
X171322897Y-102006398D01*
X171170197Y-102038855D01*
X171170192Y-102038857D01*
X170997270Y-102115848D01*
X170997265Y-102115851D01*
X170844129Y-102227111D01*
X170717466Y-102367785D01*
X170622821Y-102531715D01*
X170622818Y-102531722D01*
X170564327Y-102711739D01*
X170564325Y-102711749D01*
X170560567Y-102747497D01*
X170533981Y-102812111D01*
X170476683Y-102852094D01*
X170463029Y-102855822D01*
X170431895Y-102862440D01*
X170431891Y-102862441D01*
X170258969Y-102939432D01*
X170258964Y-102939435D01*
X170105828Y-103050695D01*
X169979165Y-103191369D01*
X169884520Y-103355299D01*
X169884517Y-103355306D01*
X169841242Y-103488495D01*
X169826025Y-103535328D01*
X169806239Y-103723584D01*
X167093439Y-103723584D01*
X167103935Y-103715958D01*
X167230597Y-103575286D01*
X167325243Y-103411354D01*
X167383738Y-103231326D01*
X167403524Y-103043070D01*
X167383738Y-102854814D01*
X167325243Y-102674786D01*
X167230597Y-102510854D01*
X167103935Y-102370182D01*
X167100636Y-102367785D01*
X166950798Y-102258921D01*
X166950793Y-102258918D01*
X166777871Y-102181927D01*
X166777866Y-102181925D01*
X166632065Y-102150935D01*
X166592710Y-102142570D01*
X166403418Y-102142570D01*
X166370961Y-102149468D01*
X166218261Y-102181925D01*
X166218256Y-102181927D01*
X166045334Y-102258918D01*
X166045329Y-102258921D01*
X165892193Y-102370181D01*
X165765530Y-102510855D01*
X165670885Y-102674785D01*
X165670882Y-102674792D01*
X165612391Y-102854810D01*
X165612390Y-102854814D01*
X165592604Y-103043070D01*
X150513559Y-103043070D01*
X150573903Y-102913663D01*
X150635063Y-102685408D01*
X150655659Y-102450000D01*
X150635063Y-102214592D01*
X150573903Y-101986337D01*
X150474035Y-101772171D01*
X150432143Y-101712342D01*
X150338494Y-101578597D01*
X150171402Y-101411506D01*
X150171396Y-101411501D01*
X150160889Y-101404144D01*
X167357561Y-101404144D01*
X167377347Y-101592400D01*
X167377348Y-101592403D01*
X167435839Y-101772421D01*
X167435842Y-101772428D01*
X167530488Y-101936360D01*
X167575486Y-101986335D01*
X167657150Y-102077032D01*
X167810286Y-102188292D01*
X167810291Y-102188295D01*
X167983213Y-102265286D01*
X167983218Y-102265288D01*
X168168375Y-102304644D01*
X168168376Y-102304644D01*
X168357665Y-102304644D01*
X168357667Y-102304644D01*
X168542824Y-102265288D01*
X168715751Y-102188295D01*
X168868892Y-102077032D01*
X168995554Y-101936360D01*
X169090200Y-101772428D01*
X169148695Y-101592400D01*
X169168481Y-101404144D01*
X169148695Y-101215888D01*
X169093224Y-101045166D01*
X169090202Y-101035866D01*
X169090201Y-101035865D01*
X169090200Y-101035860D01*
X168995554Y-100871928D01*
X168868892Y-100731256D01*
X168867622Y-100730333D01*
X168715755Y-100619995D01*
X168715750Y-100619992D01*
X168542828Y-100543001D01*
X168542823Y-100542999D01*
X168397022Y-100512009D01*
X168357667Y-100503644D01*
X168168375Y-100503644D01*
X168135918Y-100510542D01*
X167983218Y-100542999D01*
X167983213Y-100543001D01*
X167810291Y-100619992D01*
X167810286Y-100619995D01*
X167657150Y-100731255D01*
X167530487Y-100871929D01*
X167435842Y-101035859D01*
X167435839Y-101035866D01*
X167377647Y-101214965D01*
X167377347Y-101215888D01*
X167357561Y-101404144D01*
X150160889Y-101404144D01*
X149985842Y-101281575D01*
X149942217Y-101226998D01*
X149935023Y-101157500D01*
X149966546Y-101095145D01*
X149985842Y-101078425D01*
X150073030Y-101017375D01*
X150171401Y-100948495D01*
X150338495Y-100781401D01*
X150474035Y-100587830D01*
X150573903Y-100373663D01*
X150635063Y-100145408D01*
X150655659Y-99910000D01*
X150635063Y-99674592D01*
X150635004Y-99674373D01*
X157823707Y-99674373D01*
X157823707Y-99674380D01*
X157843902Y-99853626D01*
X157843903Y-99853631D01*
X157903483Y-100023900D01*
X157999456Y-100176639D01*
X158127010Y-100304193D01*
X158279750Y-100400166D01*
X158450017Y-100459745D01*
X158490517Y-100464307D01*
X158554930Y-100491373D01*
X158593675Y-100546572D01*
X158615632Y-100609321D01*
X158615633Y-100609322D01*
X158711124Y-100761295D01*
X158711605Y-100762060D01*
X158839159Y-100889614D01*
X158991899Y-100985587D01*
X159082744Y-101017375D01*
X159162166Y-101045166D01*
X159162171Y-101045167D01*
X159341417Y-101065363D01*
X159341421Y-101065363D01*
X159341425Y-101065363D01*
X159520670Y-101045167D01*
X159520673Y-101045166D01*
X159520676Y-101045166D01*
X159690943Y-100985587D01*
X159843683Y-100889614D01*
X159971237Y-100762060D01*
X160067210Y-100609320D01*
X160126789Y-100439053D01*
X160126790Y-100439047D01*
X160146986Y-100259801D01*
X160146986Y-100259794D01*
X160126790Y-100080548D01*
X160126789Y-100080543D01*
X160102056Y-100009861D01*
X160067210Y-99910276D01*
X159971237Y-99757536D01*
X159843683Y-99629982D01*
X159842906Y-99629205D01*
X159809421Y-99567882D01*
X159814405Y-99498190D01*
X159825594Y-99475551D01*
X159867209Y-99409322D01*
X159887933Y-99350096D01*
X159926789Y-99239053D01*
X159926790Y-99239047D01*
X159946986Y-99059801D01*
X159946986Y-99059794D01*
X159926790Y-98880548D01*
X159926789Y-98880543D01*
X159894208Y-98787433D01*
X159867210Y-98710276D01*
X159771237Y-98557536D01*
X159643683Y-98429982D01*
X159584246Y-98392635D01*
X159490944Y-98334009D01*
X159320675Y-98274429D01*
X159320670Y-98274428D01*
X159141425Y-98254233D01*
X159141417Y-98254233D01*
X158962171Y-98274428D01*
X158962166Y-98274429D01*
X158791897Y-98334009D01*
X158639158Y-98429982D01*
X158511605Y-98557535D01*
X158415631Y-98710276D01*
X158359290Y-98871292D01*
X158318568Y-98928069D01*
X158283210Y-98947377D01*
X158279751Y-98948587D01*
X158279747Y-98948589D01*
X158127009Y-99044561D01*
X157999456Y-99172114D01*
X157903483Y-99324853D01*
X157843903Y-99495122D01*
X157843902Y-99495127D01*
X157823707Y-99674373D01*
X150635004Y-99674373D01*
X150573903Y-99446337D01*
X150474035Y-99232171D01*
X150470598Y-99227263D01*
X150338496Y-99038600D01*
X150281707Y-98981811D01*
X150216567Y-98916671D01*
X150183084Y-98855351D01*
X150188068Y-98785659D01*
X150229939Y-98729725D01*
X150260915Y-98712810D01*
X150392331Y-98663796D01*
X150507546Y-98577546D01*
X150593796Y-98462331D01*
X150644091Y-98327483D01*
X150650500Y-98267873D01*
X150650499Y-96472128D01*
X150644091Y-96412517D01*
X150634877Y-96387814D01*
X150593797Y-96277671D01*
X150593793Y-96277664D01*
X150511708Y-96168014D01*
X168242018Y-96168014D01*
X168261804Y-96356270D01*
X168261805Y-96356273D01*
X168320296Y-96536291D01*
X168320299Y-96536298D01*
X168414945Y-96700230D01*
X168541607Y-96840902D01*
X168672404Y-96935931D01*
X168687200Y-96948568D01*
X169263017Y-97524385D01*
X169836486Y-98097853D01*
X169869971Y-98159176D01*
X169872805Y-98185534D01*
X169872805Y-98325596D01*
X169853120Y-98392635D01*
X169800316Y-98438390D01*
X169748805Y-98449596D01*
X169678659Y-98449596D01*
X169646202Y-98456494D01*
X169493502Y-98488951D01*
X169493497Y-98488953D01*
X169320575Y-98565944D01*
X169320570Y-98565947D01*
X169167434Y-98677207D01*
X169040771Y-98817881D01*
X168946126Y-98981811D01*
X168946123Y-98981818D01*
X168900825Y-99121233D01*
X168887631Y-99161840D01*
X168867845Y-99350096D01*
X168887631Y-99538352D01*
X168887632Y-99538355D01*
X168946123Y-99718373D01*
X168946126Y-99718380D01*
X169040772Y-99882312D01*
X169155618Y-100009861D01*
X169167434Y-100022984D01*
X169320570Y-100134244D01*
X169320575Y-100134247D01*
X169493497Y-100211238D01*
X169493502Y-100211240D01*
X169678659Y-100250596D01*
X169678660Y-100250596D01*
X169867949Y-100250596D01*
X169867951Y-100250596D01*
X170053108Y-100211240D01*
X170226035Y-100134247D01*
X170341246Y-100050540D01*
X170407051Y-100027062D01*
X170475105Y-100042887D01*
X170501811Y-100063179D01*
X172487228Y-102048596D01*
X172517478Y-102097958D01*
X172572819Y-102268280D01*
X172572821Y-102268284D01*
X172667467Y-102432216D01*
X172757063Y-102531722D01*
X172794129Y-102572888D01*
X172947265Y-102684148D01*
X172947270Y-102684151D01*
X173120192Y-102761142D01*
X173120197Y-102761144D01*
X173305354Y-102800500D01*
X173305355Y-102800500D01*
X173494644Y-102800500D01*
X173494646Y-102800500D01*
X173679803Y-102761144D01*
X173852730Y-102684151D01*
X174005871Y-102572888D01*
X174132533Y-102432216D01*
X174227179Y-102268284D01*
X174285674Y-102088256D01*
X174305460Y-101900000D01*
X174285674Y-101711744D01*
X174227179Y-101531716D01*
X174132533Y-101367784D01*
X174005871Y-101227112D01*
X173978036Y-101206888D01*
X173935370Y-101151560D01*
X173929391Y-101081947D01*
X173961996Y-101020152D01*
X174022834Y-100985794D01*
X174076697Y-100985280D01*
X174093761Y-100988907D01*
X174093765Y-100988907D01*
X174283051Y-100988907D01*
X174283053Y-100988907D01*
X174468210Y-100949551D01*
X174641137Y-100872558D01*
X174794278Y-100761295D01*
X174920940Y-100620623D01*
X175015586Y-100456691D01*
X175074081Y-100276663D01*
X175093867Y-100088407D01*
X175074081Y-99900151D01*
X175015586Y-99720123D01*
X174920940Y-99556191D01*
X174794278Y-99415519D01*
X174704231Y-99350096D01*
X174641141Y-99304258D01*
X174641136Y-99304255D01*
X174468214Y-99227264D01*
X174468209Y-99227262D01*
X174322408Y-99196272D01*
X174283053Y-99187907D01*
X174093761Y-99187907D01*
X174061304Y-99194805D01*
X173908604Y-99227262D01*
X173908599Y-99227264D01*
X173735677Y-99304255D01*
X173735672Y-99304258D01*
X173582539Y-99415516D01*
X173582536Y-99415518D01*
X173582536Y-99415519D01*
X173508099Y-99498190D01*
X173489084Y-99519308D01*
X173429597Y-99555956D01*
X173359740Y-99554625D01*
X173346500Y-99549615D01*
X173188030Y-99479061D01*
X173188027Y-99479060D01*
X173034107Y-99446344D01*
X173013153Y-99441890D01*
X172834371Y-99441890D01*
X172813417Y-99446344D01*
X172659495Y-99479060D01*
X172659490Y-99479062D01*
X172496170Y-99551778D01*
X172496165Y-99551780D01*
X172360004Y-99650707D01*
X172294198Y-99674187D01*
X172226144Y-99658361D01*
X172199438Y-99638070D01*
X171410124Y-98848756D01*
X171376639Y-98787433D01*
X171373805Y-98761075D01*
X171373805Y-97749383D01*
X171367930Y-97719854D01*
X171367930Y-97719849D01*
X171347520Y-97617243D01*
X171344964Y-97604393D01*
X171311823Y-97524385D01*
X171311823Y-97524384D01*
X171288390Y-97467811D01*
X171288388Y-97467808D01*
X171206259Y-97344893D01*
X171206258Y-97344892D01*
X171206256Y-97344889D01*
X171110326Y-97248959D01*
X171745581Y-97248959D01*
X171765367Y-97437215D01*
X171765368Y-97437218D01*
X171823859Y-97617236D01*
X171823862Y-97617243D01*
X171918508Y-97781175D01*
X172045170Y-97921847D01*
X172198306Y-98033107D01*
X172198311Y-98033110D01*
X172371233Y-98110101D01*
X172371238Y-98110103D01*
X172556395Y-98149459D01*
X172556396Y-98149459D01*
X172745685Y-98149459D01*
X172745687Y-98149459D01*
X172930844Y-98110103D01*
X173103771Y-98033110D01*
X173256912Y-97921847D01*
X173383574Y-97781175D01*
X173478220Y-97617243D01*
X173536715Y-97437215D01*
X173556501Y-97248959D01*
X173536715Y-97060703D01*
X173478220Y-96880675D01*
X173383574Y-96716743D01*
X173256912Y-96576071D01*
X173202169Y-96536298D01*
X173108852Y-96468499D01*
X173066186Y-96413169D01*
X173060207Y-96343556D01*
X173092813Y-96281761D01*
X173153651Y-96247404D01*
X173181737Y-96244181D01*
X173285814Y-96244181D01*
X173285816Y-96244181D01*
X173470973Y-96204825D01*
X173643900Y-96127832D01*
X173797041Y-96016569D01*
X173923703Y-95875897D01*
X174018349Y-95711965D01*
X174076844Y-95531937D01*
X174096630Y-95343681D01*
X174076844Y-95155425D01*
X174018349Y-94975397D01*
X173923703Y-94811465D01*
X173797041Y-94670793D01*
X173797040Y-94670792D01*
X173643904Y-94559532D01*
X173643899Y-94559529D01*
X173595047Y-94537779D01*
X173541810Y-94492529D01*
X173521489Y-94425680D01*
X173540534Y-94358456D01*
X173592901Y-94312201D01*
X173645483Y-94300500D01*
X176000000Y-94300500D01*
X176000000Y-100350000D01*
X176967029Y-100350000D01*
X176965787Y-100353821D01*
X176946001Y-100542077D01*
X176965787Y-100730333D01*
X176965788Y-100730336D01*
X177024279Y-100910354D01*
X177024282Y-100910361D01*
X177118928Y-101074293D01*
X177238319Y-101206890D01*
X177245590Y-101214965D01*
X177398726Y-101326225D01*
X177398731Y-101326228D01*
X177571653Y-101403219D01*
X177571658Y-101403221D01*
X177756815Y-101442577D01*
X177756816Y-101442577D01*
X177946105Y-101442577D01*
X177946107Y-101442577D01*
X178131264Y-101403221D01*
X178304191Y-101326228D01*
X178457332Y-101214965D01*
X178583994Y-101074293D01*
X178678640Y-100910361D01*
X178737135Y-100730333D01*
X178756921Y-100542077D01*
X178737135Y-100353821D01*
X178735893Y-100350000D01*
X183115568Y-100350000D01*
X183114326Y-100353821D01*
X183094540Y-100542077D01*
X183114326Y-100730333D01*
X183114327Y-100730336D01*
X183172818Y-100910354D01*
X183172821Y-100910361D01*
X183267467Y-101074293D01*
X183386858Y-101206890D01*
X183394129Y-101214965D01*
X183547265Y-101326225D01*
X183547270Y-101326228D01*
X183720192Y-101403219D01*
X183720197Y-101403221D01*
X183905354Y-101442577D01*
X183905355Y-101442577D01*
X184094644Y-101442577D01*
X184094646Y-101442577D01*
X184279803Y-101403221D01*
X184452730Y-101326228D01*
X184605871Y-101214965D01*
X184732533Y-101074293D01*
X184827179Y-100910361D01*
X184830546Y-100899998D01*
X216389518Y-100899998D01*
X216389518Y-100900001D01*
X216409422Y-101178299D01*
X216460153Y-101411501D01*
X216468729Y-101450923D01*
X216521497Y-101592400D01*
X216566231Y-101712338D01*
X216566233Y-101712342D01*
X216699940Y-101957207D01*
X216699945Y-101957215D01*
X216867138Y-102180560D01*
X216867154Y-102180578D01*
X217064421Y-102377845D01*
X217064439Y-102377861D01*
X217287784Y-102545054D01*
X217287792Y-102545059D01*
X217532657Y-102678766D01*
X217532661Y-102678768D01*
X217532663Y-102678769D01*
X217794077Y-102776271D01*
X217882563Y-102795520D01*
X218066700Y-102835577D01*
X218066702Y-102835577D01*
X218066706Y-102835578D01*
X218297630Y-102852094D01*
X218344999Y-102855482D01*
X218345000Y-102855482D01*
X218345001Y-102855482D01*
X218392370Y-102852094D01*
X218623294Y-102835578D01*
X218895923Y-102776271D01*
X219157337Y-102678769D01*
X219402213Y-102545056D01*
X219625568Y-102377855D01*
X219822855Y-102180568D01*
X219990056Y-101957213D01*
X220123769Y-101712337D01*
X220221271Y-101450923D01*
X220280578Y-101178294D01*
X220299741Y-100910361D01*
X220300482Y-100900001D01*
X220300482Y-100899998D01*
X220292000Y-100781402D01*
X220280578Y-100621706D01*
X220280342Y-100620623D01*
X220244681Y-100456691D01*
X220221271Y-100349077D01*
X220123769Y-100087663D01*
X220103499Y-100050542D01*
X219990059Y-99842792D01*
X219990054Y-99842784D01*
X219822861Y-99619439D01*
X219822845Y-99619421D01*
X219625578Y-99422154D01*
X219625560Y-99422138D01*
X219402215Y-99254945D01*
X219402207Y-99254940D01*
X219157342Y-99121233D01*
X219157338Y-99121231D01*
X219058230Y-99084266D01*
X218895923Y-99023729D01*
X218895919Y-99023728D01*
X218895916Y-99023727D01*
X218623299Y-98964422D01*
X218345001Y-98944518D01*
X218344999Y-98944518D01*
X218066700Y-98964422D01*
X217794083Y-99023727D01*
X217794078Y-99023728D01*
X217794077Y-99023729D01*
X217754209Y-99038599D01*
X217532661Y-99121231D01*
X217532657Y-99121233D01*
X217287792Y-99254940D01*
X217287784Y-99254945D01*
X217064439Y-99422138D01*
X217064421Y-99422154D01*
X216867154Y-99619421D01*
X216867138Y-99619439D01*
X216699945Y-99842784D01*
X216699940Y-99842792D01*
X216566233Y-100087657D01*
X216566231Y-100087661D01*
X216468727Y-100349083D01*
X216409422Y-100621700D01*
X216389518Y-100899998D01*
X184830546Y-100899998D01*
X184885674Y-100730333D01*
X184905460Y-100542077D01*
X184885674Y-100353821D01*
X184884432Y-100350000D01*
X188750000Y-100350000D01*
X188750000Y-93950000D01*
X188665612Y-93950000D01*
X188685674Y-93888256D01*
X188705460Y-93700000D01*
X188685674Y-93511744D01*
X188627179Y-93331716D01*
X188532533Y-93167784D01*
X188405871Y-93027112D01*
X188405870Y-93027111D01*
X188252734Y-92915851D01*
X188252729Y-92915848D01*
X188079807Y-92838857D01*
X188079802Y-92838855D01*
X187934001Y-92807865D01*
X187894646Y-92799500D01*
X187705354Y-92799500D01*
X187665999Y-92807865D01*
X187520198Y-92838855D01*
X187514014Y-92840865D01*
X187513790Y-92840178D01*
X187469933Y-92849500D01*
X182096826Y-92849500D01*
X182046390Y-92838779D01*
X181906191Y-92776357D01*
X181906186Y-92776355D01*
X181760385Y-92745365D01*
X181721030Y-92737000D01*
X181531738Y-92737000D01*
X181499281Y-92743898D01*
X181346581Y-92776355D01*
X181318676Y-92788780D01*
X181268241Y-92799500D01*
X173462598Y-92799500D01*
X173395559Y-92779815D01*
X173389713Y-92775818D01*
X173372210Y-92763101D01*
X173372205Y-92763098D01*
X173199283Y-92686107D01*
X173199278Y-92686105D01*
X173053477Y-92655115D01*
X173014122Y-92646750D01*
X172824830Y-92646750D01*
X172792373Y-92653648D01*
X172639673Y-92686105D01*
X172639668Y-92686107D01*
X172466746Y-92763098D01*
X172466741Y-92763101D01*
X172313605Y-92874361D01*
X172186942Y-93015035D01*
X172092297Y-93178965D01*
X172092294Y-93178972D01*
X172042665Y-93331716D01*
X172033802Y-93358994D01*
X172014016Y-93547250D01*
X172033802Y-93735506D01*
X172033803Y-93735509D01*
X172092294Y-93915527D01*
X172092297Y-93915534D01*
X172186943Y-94079466D01*
X172235593Y-94133497D01*
X172313605Y-94220138D01*
X172466741Y-94331398D01*
X172466746Y-94331401D01*
X172633687Y-94405729D01*
X172686924Y-94450979D01*
X172707245Y-94517828D01*
X172688200Y-94585052D01*
X172656137Y-94619326D01*
X172585297Y-94670794D01*
X172458636Y-94811466D01*
X172363991Y-94975396D01*
X172363988Y-94975403D01*
X172305497Y-95155421D01*
X172305496Y-95155425D01*
X172285710Y-95343681D01*
X172305496Y-95531937D01*
X172305497Y-95531940D01*
X172363988Y-95711958D01*
X172363991Y-95711965D01*
X172458637Y-95875897D01*
X172552151Y-95979754D01*
X172585299Y-96016569D01*
X172733359Y-96124141D01*
X172776025Y-96179471D01*
X172782004Y-96249084D01*
X172749398Y-96310879D01*
X172688560Y-96345236D01*
X172660474Y-96348459D01*
X172556395Y-96348459D01*
X172523938Y-96355357D01*
X172371238Y-96387814D01*
X172371233Y-96387816D01*
X172198311Y-96464807D01*
X172198306Y-96464810D01*
X172045170Y-96576070D01*
X171918507Y-96716744D01*
X171823862Y-96880674D01*
X171823859Y-96880681D01*
X171765368Y-97060699D01*
X171765367Y-97060703D01*
X171745581Y-97248959D01*
X171110326Y-97248959D01*
X171101721Y-97240354D01*
X170702269Y-96840902D01*
X170086754Y-96225386D01*
X170053269Y-96164063D01*
X170051116Y-96150678D01*
X170033152Y-95979758D01*
X169974657Y-95799730D01*
X169880011Y-95635798D01*
X169753349Y-95495126D01*
X169753348Y-95495125D01*
X169600212Y-95383865D01*
X169600207Y-95383862D01*
X169427285Y-95306871D01*
X169427280Y-95306869D01*
X169281479Y-95275879D01*
X169242124Y-95267514D01*
X169052832Y-95267514D01*
X169020375Y-95274412D01*
X168867675Y-95306869D01*
X168867670Y-95306871D01*
X168694748Y-95383862D01*
X168694743Y-95383865D01*
X168541607Y-95495125D01*
X168414944Y-95635799D01*
X168320299Y-95799729D01*
X168320296Y-95799736D01*
X168261805Y-95979754D01*
X168261804Y-95979758D01*
X168242018Y-96168014D01*
X150511708Y-96168014D01*
X150507547Y-96162455D01*
X150507544Y-96162452D01*
X150392335Y-96076206D01*
X150392328Y-96076202D01*
X150257482Y-96025908D01*
X150257483Y-96025908D01*
X150197883Y-96019501D01*
X150197881Y-96019500D01*
X150197873Y-96019500D01*
X150197864Y-96019500D01*
X148402129Y-96019500D01*
X148402123Y-96019501D01*
X148342516Y-96025908D01*
X148207671Y-96076202D01*
X148207664Y-96076206D01*
X148092455Y-96162452D01*
X148092452Y-96162455D01*
X148006206Y-96277664D01*
X148006202Y-96277671D01*
X147955908Y-96412517D01*
X147949890Y-96468499D01*
X147949501Y-96472123D01*
X147949500Y-96472135D01*
X147949500Y-98267870D01*
X147949501Y-98267876D01*
X147955908Y-98327483D01*
X148006202Y-98462328D01*
X148006206Y-98462335D01*
X148092452Y-98577544D01*
X148092455Y-98577547D01*
X148207664Y-98663793D01*
X148207671Y-98663797D01*
X148339081Y-98712810D01*
X148395015Y-98754681D01*
X148419432Y-98820145D01*
X148404580Y-98888418D01*
X148383430Y-98916673D01*
X148261503Y-99038600D01*
X148125965Y-99232169D01*
X148125964Y-99232171D01*
X148026098Y-99446335D01*
X148026094Y-99446344D01*
X147964938Y-99674586D01*
X147964936Y-99674596D01*
X147944341Y-99909999D01*
X146955659Y-99909999D01*
X146935063Y-99674592D01*
X146873903Y-99446337D01*
X146774035Y-99232171D01*
X146770598Y-99227263D01*
X146638496Y-99038600D01*
X146581707Y-98981811D01*
X146516567Y-98916671D01*
X146483084Y-98855351D01*
X146488068Y-98785659D01*
X146529939Y-98729725D01*
X146560915Y-98712810D01*
X146692331Y-98663796D01*
X146807546Y-98577546D01*
X146893796Y-98462331D01*
X146944091Y-98327483D01*
X146950500Y-98267873D01*
X146950499Y-96472128D01*
X146944091Y-96412517D01*
X146934877Y-96387814D01*
X146893797Y-96277671D01*
X146893793Y-96277664D01*
X146807547Y-96162455D01*
X146807544Y-96162452D01*
X146692335Y-96076206D01*
X146692328Y-96076202D01*
X146557482Y-96025908D01*
X146557483Y-96025908D01*
X146497883Y-96019501D01*
X146497881Y-96019500D01*
X146497873Y-96019500D01*
X146497864Y-96019500D01*
X144702129Y-96019500D01*
X144702123Y-96019501D01*
X144642516Y-96025908D01*
X144507671Y-96076202D01*
X144507664Y-96076206D01*
X144392455Y-96162452D01*
X144392452Y-96162455D01*
X144306206Y-96277664D01*
X144306202Y-96277671D01*
X144255908Y-96412517D01*
X144249890Y-96468499D01*
X144249501Y-96472123D01*
X144249500Y-96472135D01*
X144249500Y-98267870D01*
X144249501Y-98267876D01*
X144255908Y-98327483D01*
X144306202Y-98462328D01*
X144306206Y-98462335D01*
X144392452Y-98577544D01*
X144392455Y-98577547D01*
X144507664Y-98663793D01*
X144507671Y-98663797D01*
X144639081Y-98712810D01*
X144695015Y-98754681D01*
X144719432Y-98820145D01*
X144704580Y-98888418D01*
X144683430Y-98916673D01*
X144561503Y-99038600D01*
X144425965Y-99232169D01*
X144425964Y-99232171D01*
X144326098Y-99446335D01*
X144326094Y-99446344D01*
X144264938Y-99674586D01*
X144264936Y-99674596D01*
X144244341Y-99909999D01*
X143255659Y-99909999D01*
X143235063Y-99674592D01*
X143173903Y-99446337D01*
X143074035Y-99232171D01*
X143070598Y-99227263D01*
X142938496Y-99038600D01*
X142881707Y-98981811D01*
X142816567Y-98916671D01*
X142783084Y-98855351D01*
X142788068Y-98785659D01*
X142829939Y-98729725D01*
X142860915Y-98712810D01*
X142992331Y-98663796D01*
X143107546Y-98577546D01*
X143193796Y-98462331D01*
X143244091Y-98327483D01*
X143250500Y-98267873D01*
X143250499Y-96472128D01*
X143244091Y-96412517D01*
X143234877Y-96387814D01*
X143193797Y-96277671D01*
X143193793Y-96277664D01*
X143107547Y-96162455D01*
X143107544Y-96162452D01*
X142992335Y-96076206D01*
X142992328Y-96076202D01*
X142857482Y-96025908D01*
X142857483Y-96025908D01*
X142797883Y-96019501D01*
X142797881Y-96019500D01*
X142797873Y-96019500D01*
X142797864Y-96019500D01*
X141002129Y-96019500D01*
X141002123Y-96019501D01*
X140942516Y-96025908D01*
X140807671Y-96076202D01*
X140807664Y-96076206D01*
X140692455Y-96162452D01*
X140692452Y-96162455D01*
X140606206Y-96277664D01*
X140606202Y-96277671D01*
X140555908Y-96412517D01*
X140549890Y-96468499D01*
X140549501Y-96472123D01*
X140549500Y-96472135D01*
X140549500Y-98267870D01*
X140549501Y-98267876D01*
X140555908Y-98327483D01*
X140606202Y-98462328D01*
X140606206Y-98462335D01*
X140692452Y-98577544D01*
X140692455Y-98577547D01*
X140807664Y-98663793D01*
X140807671Y-98663797D01*
X140939081Y-98712810D01*
X140995015Y-98754681D01*
X141019432Y-98820145D01*
X141004580Y-98888418D01*
X140983430Y-98916673D01*
X140861503Y-99038600D01*
X140725965Y-99232169D01*
X140725964Y-99232171D01*
X140626098Y-99446335D01*
X140626094Y-99446344D01*
X140564938Y-99674586D01*
X140564936Y-99674596D01*
X140544341Y-99909999D01*
X139555659Y-99909999D01*
X139535063Y-99674592D01*
X139473903Y-99446337D01*
X139374035Y-99232171D01*
X139370598Y-99227263D01*
X139238496Y-99038600D01*
X139181707Y-98981811D01*
X139116567Y-98916671D01*
X139083084Y-98855351D01*
X139088068Y-98785659D01*
X139129939Y-98729725D01*
X139160915Y-98712810D01*
X139292331Y-98663796D01*
X139407546Y-98577546D01*
X139493796Y-98462331D01*
X139544091Y-98327483D01*
X139550500Y-98267873D01*
X139550499Y-96472128D01*
X139544091Y-96412517D01*
X139534877Y-96387814D01*
X139493797Y-96277671D01*
X139493793Y-96277664D01*
X139407547Y-96162455D01*
X139407544Y-96162452D01*
X139292335Y-96076206D01*
X139292328Y-96076202D01*
X139157482Y-96025908D01*
X139157483Y-96025908D01*
X139097883Y-96019501D01*
X139097881Y-96019500D01*
X139097873Y-96019500D01*
X139097864Y-96019500D01*
X137302129Y-96019500D01*
X137302123Y-96019501D01*
X137242516Y-96025908D01*
X137107671Y-96076202D01*
X137107664Y-96076206D01*
X136992455Y-96162452D01*
X136992452Y-96162455D01*
X136906206Y-96277664D01*
X136906202Y-96277671D01*
X136855908Y-96412517D01*
X136849890Y-96468499D01*
X136849501Y-96472123D01*
X136849500Y-96472135D01*
X136849500Y-98267870D01*
X136849501Y-98267876D01*
X136855908Y-98327483D01*
X136906202Y-98462328D01*
X136906206Y-98462335D01*
X136992452Y-98577544D01*
X136992455Y-98577547D01*
X137107664Y-98663793D01*
X137107671Y-98663797D01*
X137239081Y-98712810D01*
X137295015Y-98754681D01*
X137319432Y-98820145D01*
X137304580Y-98888418D01*
X137283430Y-98916673D01*
X137161503Y-99038600D01*
X137025965Y-99232169D01*
X137025964Y-99232171D01*
X136926098Y-99446335D01*
X136926094Y-99446344D01*
X136864938Y-99674586D01*
X136864936Y-99674596D01*
X136844341Y-99909999D01*
X135855659Y-99909999D01*
X135835063Y-99674592D01*
X135773903Y-99446337D01*
X135674035Y-99232171D01*
X135670598Y-99227263D01*
X135538496Y-99038600D01*
X135481707Y-98981811D01*
X135416567Y-98916671D01*
X135383084Y-98855351D01*
X135388068Y-98785659D01*
X135429939Y-98729725D01*
X135460915Y-98712810D01*
X135592331Y-98663796D01*
X135707546Y-98577546D01*
X135793796Y-98462331D01*
X135844091Y-98327483D01*
X135850500Y-98267873D01*
X135850499Y-96472128D01*
X135844091Y-96412517D01*
X135834877Y-96387814D01*
X135793797Y-96277671D01*
X135793793Y-96277664D01*
X135707547Y-96162455D01*
X135707544Y-96162452D01*
X135592335Y-96076206D01*
X135592328Y-96076202D01*
X135457482Y-96025908D01*
X135457483Y-96025908D01*
X135397883Y-96019501D01*
X135397881Y-96019500D01*
X135397873Y-96019500D01*
X135397864Y-96019500D01*
X133602129Y-96019500D01*
X133602123Y-96019501D01*
X133542516Y-96025908D01*
X133407671Y-96076202D01*
X133407664Y-96076206D01*
X133292455Y-96162452D01*
X133292452Y-96162455D01*
X133206206Y-96277664D01*
X133206202Y-96277671D01*
X133155908Y-96412517D01*
X133149890Y-96468499D01*
X133149501Y-96472123D01*
X133149500Y-96472135D01*
X133149500Y-98267870D01*
X133149501Y-98267876D01*
X133155908Y-98327483D01*
X133206202Y-98462328D01*
X133206206Y-98462335D01*
X133292452Y-98577544D01*
X133292455Y-98577547D01*
X133407664Y-98663793D01*
X133407671Y-98663797D01*
X133539081Y-98712810D01*
X133595015Y-98754681D01*
X133619432Y-98820145D01*
X133604580Y-98888418D01*
X133583430Y-98916673D01*
X133461503Y-99038600D01*
X133325965Y-99232169D01*
X133325964Y-99232171D01*
X133226098Y-99446335D01*
X133226094Y-99446344D01*
X133164938Y-99674586D01*
X133164936Y-99674596D01*
X133144341Y-99909999D01*
X132155659Y-99909999D01*
X132135063Y-99674592D01*
X132073903Y-99446337D01*
X131974035Y-99232171D01*
X131970598Y-99227263D01*
X131838496Y-99038600D01*
X131781707Y-98981811D01*
X131716567Y-98916671D01*
X131683084Y-98855351D01*
X131688068Y-98785659D01*
X131729939Y-98729725D01*
X131760915Y-98712810D01*
X131892331Y-98663796D01*
X132007546Y-98577546D01*
X132093796Y-98462331D01*
X132144091Y-98327483D01*
X132150500Y-98267873D01*
X132150499Y-96472128D01*
X132144091Y-96412517D01*
X132134877Y-96387814D01*
X132093797Y-96277671D01*
X132093793Y-96277664D01*
X132007547Y-96162455D01*
X132007544Y-96162452D01*
X131892335Y-96076206D01*
X131892328Y-96076202D01*
X131757482Y-96025908D01*
X131757483Y-96025908D01*
X131697883Y-96019501D01*
X131697881Y-96019500D01*
X131697873Y-96019500D01*
X131697864Y-96019500D01*
X129902129Y-96019500D01*
X129902123Y-96019501D01*
X129842516Y-96025908D01*
X129707671Y-96076202D01*
X129707664Y-96076206D01*
X129592455Y-96162452D01*
X129592452Y-96162455D01*
X129506206Y-96277664D01*
X129506202Y-96277671D01*
X129455908Y-96412517D01*
X129449890Y-96468499D01*
X129449501Y-96472123D01*
X129449500Y-96472135D01*
X129449500Y-98267870D01*
X129449501Y-98267876D01*
X129455908Y-98327483D01*
X129506202Y-98462328D01*
X129506206Y-98462335D01*
X129592452Y-98577544D01*
X129592455Y-98577547D01*
X129707664Y-98663793D01*
X129707671Y-98663797D01*
X129839081Y-98712810D01*
X129895015Y-98754681D01*
X129919432Y-98820145D01*
X129904580Y-98888418D01*
X129883430Y-98916673D01*
X129761503Y-99038600D01*
X129625965Y-99232169D01*
X129625964Y-99232171D01*
X129526098Y-99446335D01*
X129526094Y-99446344D01*
X129464938Y-99674586D01*
X129464936Y-99674596D01*
X129444341Y-99909999D01*
X86400000Y-99909999D01*
X86400000Y-93232997D01*
X168578539Y-93232997D01*
X168598325Y-93421253D01*
X168598326Y-93421256D01*
X168656817Y-93601274D01*
X168656820Y-93601281D01*
X168751466Y-93765213D01*
X168878128Y-93905885D01*
X169031264Y-94017145D01*
X169031269Y-94017148D01*
X169204191Y-94094139D01*
X169204196Y-94094141D01*
X169389353Y-94133497D01*
X169389354Y-94133497D01*
X169578643Y-94133497D01*
X169578645Y-94133497D01*
X169763802Y-94094141D01*
X169936729Y-94017148D01*
X170089870Y-93905885D01*
X170216532Y-93765213D01*
X170311178Y-93601281D01*
X170369673Y-93421253D01*
X170389459Y-93232997D01*
X170369673Y-93044741D01*
X170311178Y-92864713D01*
X170216532Y-92700781D01*
X170089870Y-92560109D01*
X170089869Y-92560108D01*
X169936733Y-92448848D01*
X169936728Y-92448845D01*
X169763806Y-92371854D01*
X169763801Y-92371852D01*
X169618000Y-92340862D01*
X169578645Y-92332497D01*
X169389353Y-92332497D01*
X169356896Y-92339395D01*
X169204196Y-92371852D01*
X169204191Y-92371854D01*
X169031269Y-92448845D01*
X169031264Y-92448848D01*
X168878128Y-92560108D01*
X168751465Y-92700782D01*
X168656820Y-92864712D01*
X168656817Y-92864719D01*
X168607977Y-93015034D01*
X168598325Y-93044741D01*
X168578539Y-93232997D01*
X86400000Y-93232997D01*
X86400000Y-91399996D01*
X151494435Y-91399996D01*
X151494435Y-91400003D01*
X151514630Y-91579249D01*
X151514631Y-91579254D01*
X151574211Y-91749523D01*
X151670184Y-91902262D01*
X151797738Y-92029816D01*
X151950478Y-92125789D01*
X152120745Y-92185368D01*
X152120750Y-92185369D01*
X152299996Y-92205565D01*
X152300000Y-92205565D01*
X152300004Y-92205565D01*
X152479249Y-92185369D01*
X152479252Y-92185368D01*
X152479255Y-92185368D01*
X152649522Y-92125789D01*
X152802262Y-92029816D01*
X152929816Y-91902262D01*
X153025789Y-91749522D01*
X153085368Y-91579255D01*
X153105565Y-91400000D01*
X153085368Y-91220745D01*
X153025789Y-91050478D01*
X152929816Y-90897738D01*
X152802262Y-90770184D01*
X152649523Y-90674211D01*
X152479254Y-90614631D01*
X152479249Y-90614630D01*
X152300004Y-90594435D01*
X152299996Y-90594435D01*
X152120750Y-90614630D01*
X152120745Y-90614631D01*
X151950476Y-90674211D01*
X151797737Y-90770184D01*
X151670184Y-90897737D01*
X151574211Y-91050476D01*
X151514631Y-91220745D01*
X151514630Y-91220750D01*
X151494435Y-91399996D01*
X86400000Y-91399996D01*
X86400000Y-89349996D01*
X157944435Y-89349996D01*
X157944435Y-89350003D01*
X157964630Y-89529249D01*
X157964631Y-89529254D01*
X158024211Y-89699523D01*
X158120184Y-89852262D01*
X158247738Y-89979816D01*
X158400478Y-90075789D01*
X158570745Y-90135368D01*
X158570750Y-90135369D01*
X158749996Y-90155565D01*
X158750000Y-90155565D01*
X158750004Y-90155565D01*
X158929249Y-90135369D01*
X158929252Y-90135368D01*
X158929255Y-90135368D01*
X159099522Y-90075789D01*
X159220139Y-90000000D01*
X209794540Y-90000000D01*
X209814326Y-90188256D01*
X209814327Y-90188259D01*
X209872818Y-90368277D01*
X209872821Y-90368284D01*
X209967467Y-90532216D01*
X210041673Y-90614630D01*
X210094129Y-90672888D01*
X210247265Y-90784148D01*
X210247270Y-90784151D01*
X210420192Y-90861142D01*
X210420197Y-90861144D01*
X210605354Y-90900500D01*
X210605355Y-90900500D01*
X210794644Y-90900500D01*
X210794646Y-90900500D01*
X210979803Y-90861144D01*
X211152730Y-90784151D01*
X211305871Y-90672888D01*
X211432533Y-90532216D01*
X211527179Y-90368284D01*
X211585674Y-90188256D01*
X211605460Y-90000000D01*
X211585674Y-89811744D01*
X211527179Y-89631716D01*
X211432533Y-89467784D01*
X211305871Y-89327112D01*
X211305870Y-89327111D01*
X211152734Y-89215851D01*
X211152729Y-89215848D01*
X210979807Y-89138857D01*
X210979802Y-89138855D01*
X210834001Y-89107865D01*
X210794646Y-89099500D01*
X210605354Y-89099500D01*
X210572897Y-89106398D01*
X210420197Y-89138855D01*
X210420192Y-89138857D01*
X210247270Y-89215848D01*
X210247265Y-89215851D01*
X210094129Y-89327111D01*
X209967466Y-89467785D01*
X209872821Y-89631715D01*
X209872818Y-89631722D01*
X209828850Y-89767043D01*
X209814326Y-89811744D01*
X209794540Y-90000000D01*
X159220139Y-90000000D01*
X159252262Y-89979816D01*
X159379816Y-89852262D01*
X159404276Y-89813332D01*
X159456607Y-89767043D01*
X159495386Y-89756085D01*
X159679249Y-89735369D01*
X159679252Y-89735368D01*
X159679255Y-89735368D01*
X159849522Y-89675789D01*
X160002262Y-89579816D01*
X160129816Y-89452262D01*
X160225789Y-89299522D01*
X160237033Y-89267386D01*
X160277751Y-89210613D01*
X160313115Y-89191302D01*
X160418648Y-89154374D01*
X160447449Y-89144297D01*
X160456107Y-89138857D01*
X160600191Y-89048323D01*
X160727745Y-88920769D01*
X160823718Y-88768029D01*
X160883297Y-88597762D01*
X160886720Y-88567382D01*
X160903494Y-88418510D01*
X160903494Y-88418503D01*
X160900235Y-88389577D01*
X186944815Y-88389577D01*
X186963503Y-88567382D01*
X186963504Y-88567384D01*
X187018747Y-88737406D01*
X187018750Y-88737412D01*
X187108141Y-88892242D01*
X187133827Y-88920769D01*
X187227764Y-89025098D01*
X187227767Y-89025100D01*
X187227770Y-89025103D01*
X187372407Y-89130189D01*
X187535733Y-89202906D01*
X187710609Y-89240077D01*
X187710610Y-89240077D01*
X187889389Y-89240077D01*
X187889391Y-89240077D01*
X188064267Y-89202906D01*
X188227593Y-89130189D01*
X188372230Y-89025103D01*
X188491859Y-88892242D01*
X188581250Y-88737412D01*
X188636497Y-88567380D01*
X188655185Y-88389577D01*
X188636497Y-88211774D01*
X188608873Y-88126758D01*
X188581252Y-88041747D01*
X188581249Y-88041741D01*
X188508794Y-87916245D01*
X188491859Y-87886912D01*
X188445003Y-87834873D01*
X188372235Y-87754055D01*
X188372232Y-87754053D01*
X188372231Y-87754052D01*
X188372230Y-87754051D01*
X188227593Y-87648965D01*
X188064267Y-87576248D01*
X188064265Y-87576247D01*
X187936594Y-87549110D01*
X187889391Y-87539077D01*
X187710609Y-87539077D01*
X187679954Y-87545592D01*
X187535733Y-87576247D01*
X187535728Y-87576249D01*
X187372408Y-87648964D01*
X187227768Y-87754052D01*
X187108140Y-87886913D01*
X187018750Y-88041741D01*
X187018747Y-88041747D01*
X186963504Y-88211769D01*
X186963503Y-88211771D01*
X186944815Y-88389577D01*
X160900235Y-88389577D01*
X160883298Y-88239257D01*
X160883297Y-88239252D01*
X160873680Y-88211769D01*
X160823718Y-88068985D01*
X160806599Y-88041741D01*
X160727744Y-87916244D01*
X160600191Y-87788691D01*
X160447452Y-87692718D01*
X160277183Y-87633138D01*
X160277178Y-87633137D01*
X160097933Y-87612942D01*
X160097925Y-87612942D01*
X159918679Y-87633137D01*
X159918674Y-87633138D01*
X159748405Y-87692718D01*
X159595666Y-87788691D01*
X159468113Y-87916244D01*
X159372141Y-88068982D01*
X159372140Y-88068983D01*
X159360895Y-88101121D01*
X159320173Y-88157896D01*
X159284808Y-88177207D01*
X159150478Y-88224210D01*
X158997737Y-88320184D01*
X158870181Y-88447740D01*
X158845720Y-88486669D01*
X158793384Y-88532958D01*
X158754612Y-88543914D01*
X158570749Y-88564630D01*
X158570745Y-88564631D01*
X158400476Y-88624211D01*
X158247737Y-88720184D01*
X158120184Y-88847737D01*
X158024211Y-89000476D01*
X157964631Y-89170745D01*
X157964630Y-89170750D01*
X157944435Y-89349996D01*
X86400000Y-89349996D01*
X86400000Y-81112500D01*
X97304815Y-81112500D01*
X97323503Y-81290305D01*
X97323504Y-81290307D01*
X97378747Y-81460329D01*
X97378750Y-81460335D01*
X97468141Y-81615165D01*
X97509812Y-81661446D01*
X97587764Y-81748021D01*
X97587767Y-81748023D01*
X97587770Y-81748026D01*
X97732407Y-81853112D01*
X97895733Y-81925829D01*
X98070609Y-81963000D01*
X98070610Y-81963000D01*
X98249389Y-81963000D01*
X98249391Y-81963000D01*
X98424267Y-81925829D01*
X98587593Y-81853112D01*
X98732230Y-81748026D01*
X98851859Y-81615165D01*
X98941250Y-81460335D01*
X98996497Y-81290303D01*
X99015185Y-81112500D01*
X98996497Y-80934697D01*
X98941250Y-80764665D01*
X98851859Y-80609835D01*
X98797272Y-80549210D01*
X98732235Y-80476978D01*
X98732232Y-80476976D01*
X98732231Y-80476975D01*
X98732230Y-80476974D01*
X98587593Y-80371888D01*
X98424267Y-80299171D01*
X98424265Y-80299170D01*
X98296594Y-80272033D01*
X98249391Y-80262000D01*
X98070609Y-80262000D01*
X98039954Y-80268515D01*
X97895733Y-80299170D01*
X97895728Y-80299172D01*
X97732408Y-80371887D01*
X97587768Y-80476975D01*
X97468140Y-80609836D01*
X97378750Y-80764664D01*
X97378747Y-80764670D01*
X97323504Y-80934692D01*
X97323503Y-80934694D01*
X97304815Y-81112500D01*
X86400000Y-81112500D01*
X86400000Y-78849000D01*
X162319500Y-78849000D01*
X162319500Y-82226000D01*
X162319501Y-82226009D01*
X162331052Y-82333450D01*
X162331054Y-82333462D01*
X162342260Y-82384972D01*
X162376383Y-82487497D01*
X162376386Y-82487503D01*
X162454171Y-82608537D01*
X162454179Y-82608548D01*
X162499923Y-82661340D01*
X162499926Y-82661343D01*
X162499930Y-82661347D01*
X162608664Y-82755567D01*
X162608667Y-82755568D01*
X162608668Y-82755569D01*
X162705962Y-82800003D01*
X162739541Y-82815338D01*
X162806580Y-82835023D01*
X162806584Y-82835024D01*
X162949000Y-82855500D01*
X175920500Y-82855500D01*
X175987539Y-82875185D01*
X176033294Y-82927989D01*
X176044500Y-82979500D01*
X176044500Y-85525897D01*
X176056094Y-85633543D01*
X176056094Y-85633544D01*
X176067341Y-85685149D01*
X176101596Y-85787862D01*
X176101597Y-85787863D01*
X176179481Y-85908840D01*
X176179483Y-85908842D01*
X176179487Y-85908848D01*
X176213154Y-85947638D01*
X176225278Y-85961607D01*
X176334090Y-86055741D01*
X176465015Y-86115406D01*
X176465019Y-86115407D01*
X176465021Y-86115408D01*
X176530967Y-86134714D01*
X176532008Y-86135029D01*
X176604827Y-86145439D01*
X176674504Y-86155400D01*
X176674504Y-86155399D01*
X176674505Y-86155400D01*
X176681139Y-86155394D01*
X181582114Y-86151469D01*
X181649167Y-86171100D01*
X181694964Y-86223867D01*
X181705531Y-86262506D01*
X181714326Y-86346179D01*
X181714327Y-86346181D01*
X181714327Y-86346182D01*
X181772818Y-86526200D01*
X181772821Y-86526207D01*
X181867467Y-86690139D01*
X181936766Y-86767103D01*
X181994129Y-86830811D01*
X182147265Y-86942071D01*
X182147270Y-86942074D01*
X182320192Y-87019065D01*
X182320197Y-87019067D01*
X182505354Y-87058423D01*
X182505355Y-87058423D01*
X182694644Y-87058423D01*
X182694646Y-87058423D01*
X182879803Y-87019067D01*
X183052730Y-86942074D01*
X183205871Y-86830811D01*
X183332533Y-86690139D01*
X183427179Y-86526207D01*
X183485674Y-86346179D01*
X183494639Y-86260875D01*
X183521222Y-86196264D01*
X183578519Y-86156278D01*
X183617857Y-86149839D01*
X186781675Y-86147307D01*
X186848730Y-86166938D01*
X186894527Y-86219705D01*
X186905094Y-86258342D01*
X186914326Y-86346179D01*
X186914327Y-86346181D01*
X186914327Y-86346182D01*
X186972818Y-86526200D01*
X186972821Y-86526207D01*
X187067467Y-86690139D01*
X187136766Y-86767103D01*
X187194129Y-86830811D01*
X187347265Y-86942071D01*
X187347270Y-86942074D01*
X187520192Y-87019065D01*
X187520197Y-87019067D01*
X187705354Y-87058423D01*
X187705355Y-87058423D01*
X187894644Y-87058423D01*
X187894646Y-87058423D01*
X188079803Y-87019067D01*
X188252730Y-86942074D01*
X188405871Y-86830811D01*
X188532533Y-86690139D01*
X188627179Y-86526207D01*
X188685674Y-86346179D01*
X188695076Y-86256713D01*
X188721660Y-86192101D01*
X188778958Y-86152116D01*
X188818297Y-86145677D01*
X188981516Y-86145547D01*
X189060926Y-86139206D01*
X189099401Y-86133054D01*
X189176840Y-86114313D01*
X189305819Y-86050550D01*
X189363409Y-86010987D01*
X189469199Y-85913469D01*
X189887205Y-85399998D01*
X216339518Y-85399998D01*
X216339518Y-85400001D01*
X216359422Y-85678299D01*
X216418727Y-85950916D01*
X216418729Y-85950923D01*
X216441132Y-86010987D01*
X216516231Y-86212338D01*
X216516233Y-86212342D01*
X216649940Y-86457207D01*
X216649945Y-86457215D01*
X216817138Y-86680560D01*
X216817154Y-86680578D01*
X217014421Y-86877845D01*
X217014439Y-86877861D01*
X217237784Y-87045054D01*
X217237792Y-87045059D01*
X217482657Y-87178766D01*
X217482661Y-87178768D01*
X217482663Y-87178769D01*
X217744077Y-87276271D01*
X217880391Y-87305924D01*
X218016700Y-87335577D01*
X218016702Y-87335577D01*
X218016706Y-87335578D01*
X218264014Y-87353265D01*
X218294999Y-87355482D01*
X218295000Y-87355482D01*
X218295001Y-87355482D01*
X218322881Y-87353487D01*
X218573294Y-87335578D01*
X218845923Y-87276271D01*
X219107337Y-87178769D01*
X219352213Y-87045056D01*
X219575568Y-86877855D01*
X219772855Y-86680568D01*
X219940056Y-86457213D01*
X220073769Y-86212337D01*
X220171271Y-85950923D01*
X220230578Y-85678294D01*
X220250482Y-85400000D01*
X220230578Y-85121706D01*
X220171271Y-84849077D01*
X220073769Y-84587663D01*
X219940056Y-84342787D01*
X219940054Y-84342784D01*
X219772861Y-84119439D01*
X219772845Y-84119421D01*
X219575578Y-83922154D01*
X219575560Y-83922138D01*
X219352215Y-83754945D01*
X219352207Y-83754940D01*
X219107342Y-83621233D01*
X219107338Y-83621231D01*
X219008230Y-83584266D01*
X218845923Y-83523729D01*
X218845919Y-83523728D01*
X218845916Y-83523727D01*
X218573299Y-83464422D01*
X218295001Y-83444518D01*
X218294999Y-83444518D01*
X218016700Y-83464422D01*
X217744083Y-83523727D01*
X217744078Y-83523728D01*
X217744077Y-83523729D01*
X217738557Y-83525788D01*
X217482661Y-83621231D01*
X217482657Y-83621233D01*
X217237792Y-83754940D01*
X217237784Y-83754945D01*
X217014439Y-83922138D01*
X217014421Y-83922154D01*
X216817154Y-84119421D01*
X216817138Y-84119439D01*
X216649945Y-84342784D01*
X216649940Y-84342792D01*
X216516233Y-84587657D01*
X216516231Y-84587661D01*
X216418727Y-84849083D01*
X216359422Y-85121700D01*
X216339518Y-85399998D01*
X189887205Y-85399998D01*
X192003813Y-82799996D01*
X200744435Y-82799996D01*
X200744435Y-82800003D01*
X200764630Y-82979249D01*
X200764631Y-82979254D01*
X200824211Y-83149523D01*
X200920184Y-83302262D01*
X201047738Y-83429816D01*
X201102813Y-83464422D01*
X201197199Y-83523729D01*
X201200478Y-83525789D01*
X201370745Y-83585368D01*
X201370750Y-83585369D01*
X201549996Y-83605565D01*
X201550000Y-83605565D01*
X201550004Y-83605565D01*
X201729249Y-83585369D01*
X201729252Y-83585368D01*
X201729255Y-83585368D01*
X201899522Y-83525789D01*
X202052262Y-83429816D01*
X202179816Y-83302262D01*
X202275789Y-83149522D01*
X202335368Y-82979255D01*
X202335369Y-82979249D01*
X202355565Y-82800003D01*
X202355565Y-82799996D01*
X206144435Y-82799996D01*
X206144435Y-82800003D01*
X206164630Y-82979249D01*
X206164631Y-82979254D01*
X206224211Y-83149523D01*
X206320184Y-83302262D01*
X206447738Y-83429816D01*
X206502813Y-83464422D01*
X206597199Y-83523729D01*
X206600478Y-83525789D01*
X206770745Y-83585368D01*
X206770750Y-83585369D01*
X206949996Y-83605565D01*
X206950000Y-83605565D01*
X206950004Y-83605565D01*
X207129249Y-83585369D01*
X207129252Y-83585368D01*
X207129255Y-83585368D01*
X207299522Y-83525789D01*
X207452262Y-83429816D01*
X207579816Y-83302262D01*
X207675789Y-83149522D01*
X207735368Y-82979255D01*
X207735369Y-82979249D01*
X207755565Y-82800003D01*
X207755565Y-82799996D01*
X207735369Y-82620750D01*
X207735368Y-82620745D01*
X207688745Y-82487504D01*
X207675789Y-82450478D01*
X207579816Y-82297738D01*
X207452262Y-82170184D01*
X207299523Y-82074211D01*
X207129254Y-82014631D01*
X207129249Y-82014630D01*
X206950004Y-81994435D01*
X206949996Y-81994435D01*
X206770750Y-82014630D01*
X206770745Y-82014631D01*
X206600476Y-82074211D01*
X206447737Y-82170184D01*
X206320184Y-82297737D01*
X206224211Y-82450476D01*
X206164631Y-82620745D01*
X206164630Y-82620750D01*
X206144435Y-82799996D01*
X202355565Y-82799996D01*
X202335369Y-82620750D01*
X202335368Y-82620745D01*
X202288745Y-82487504D01*
X202275789Y-82450478D01*
X202179816Y-82297738D01*
X202052262Y-82170184D01*
X201899523Y-82074211D01*
X201729254Y-82014631D01*
X201729249Y-82014630D01*
X201550004Y-81994435D01*
X201549996Y-81994435D01*
X201370750Y-82014630D01*
X201370745Y-82014631D01*
X201200476Y-82074211D01*
X201047737Y-82170184D01*
X200920184Y-82297737D01*
X200824211Y-82450476D01*
X200764631Y-82620745D01*
X200764630Y-82620750D01*
X200744435Y-82799996D01*
X192003813Y-82799996D01*
X193753092Y-80651214D01*
X193810682Y-80611652D01*
X193849256Y-80605500D01*
X196466278Y-80605500D01*
X196466284Y-80605500D01*
X196573172Y-80594070D01*
X196573179Y-80594068D01*
X196573182Y-80594068D01*
X196598798Y-80588526D01*
X196624424Y-80582982D01*
X196726469Y-80549213D01*
X196847687Y-80471705D01*
X196900596Y-80426072D01*
X196923295Y-80399998D01*
X216339518Y-80399998D01*
X216339518Y-80400001D01*
X216359422Y-80678299D01*
X216415199Y-80934697D01*
X216418729Y-80950923D01*
X216478994Y-81112500D01*
X216516231Y-81212338D01*
X216516233Y-81212342D01*
X216649940Y-81457207D01*
X216649945Y-81457215D01*
X216817138Y-81680560D01*
X216817154Y-81680578D01*
X217014421Y-81877845D01*
X217014439Y-81877861D01*
X217237784Y-82045054D01*
X217237792Y-82045059D01*
X217482657Y-82178766D01*
X217482661Y-82178768D01*
X217482663Y-82178769D01*
X217744077Y-82276271D01*
X217842759Y-82297738D01*
X218016700Y-82335577D01*
X218016702Y-82335577D01*
X218016706Y-82335578D01*
X218264014Y-82353265D01*
X218294999Y-82355482D01*
X218295000Y-82355482D01*
X218295001Y-82355482D01*
X218322881Y-82353487D01*
X218573294Y-82335578D01*
X218583077Y-82333450D01*
X218612458Y-82327058D01*
X218845923Y-82276271D01*
X219107337Y-82178769D01*
X219352213Y-82045056D01*
X219575568Y-81877855D01*
X219772855Y-81680568D01*
X219940056Y-81457213D01*
X220073769Y-81212337D01*
X220171271Y-80950923D01*
X220230578Y-80678294D01*
X220250482Y-80400000D01*
X220248471Y-80371889D01*
X220243271Y-80299172D01*
X220230578Y-80121706D01*
X220230269Y-80120287D01*
X220171272Y-79849083D01*
X220171271Y-79849077D01*
X220073769Y-79587663D01*
X219940056Y-79342787D01*
X219940054Y-79342784D01*
X219772861Y-79119439D01*
X219772845Y-79119421D01*
X219575578Y-78922154D01*
X219575560Y-78922138D01*
X219352215Y-78754945D01*
X219352207Y-78754940D01*
X219107342Y-78621233D01*
X219107338Y-78621231D01*
X219008230Y-78584266D01*
X218845923Y-78523729D01*
X218845919Y-78523728D01*
X218845916Y-78523727D01*
X218573299Y-78464422D01*
X218295001Y-78444518D01*
X218294999Y-78444518D01*
X218016700Y-78464422D01*
X217744083Y-78523727D01*
X217744078Y-78523728D01*
X217744077Y-78523729D01*
X217680875Y-78547301D01*
X217482661Y-78621231D01*
X217482657Y-78621233D01*
X217237792Y-78754940D01*
X217237784Y-78754945D01*
X217014439Y-78922138D01*
X217014421Y-78922154D01*
X216817154Y-79119421D01*
X216817138Y-79119439D01*
X216649945Y-79342784D01*
X216649940Y-79342792D01*
X216516233Y-79587657D01*
X216516231Y-79587661D01*
X216418727Y-79849083D01*
X216359422Y-80121700D01*
X216339518Y-80399998D01*
X196923295Y-80399998D01*
X196995068Y-80317552D01*
X197055139Y-80186812D01*
X197074395Y-80121785D01*
X197074867Y-80120287D01*
X197074979Y-80119815D01*
X197095783Y-79977447D01*
X197105213Y-75875292D01*
X197093852Y-75767556D01*
X197082711Y-75715900D01*
X197048651Y-75613050D01*
X196971013Y-75491915D01*
X196925323Y-75439054D01*
X196880462Y-75400084D01*
X196816708Y-75344701D01*
X196816705Y-75344699D01*
X196685911Y-75284770D01*
X196685905Y-75284767D01*
X196618888Y-75264998D01*
X196618706Y-75264972D01*
X196618627Y-75264961D01*
X196476499Y-75244345D01*
X195892074Y-75243616D01*
X185015691Y-75230054D01*
X184948677Y-75210286D01*
X184902987Y-75157425D01*
X184892525Y-75119015D01*
X184885674Y-75053821D01*
X184827179Y-74873793D01*
X184732533Y-74709861D01*
X184605871Y-74569189D01*
X184561568Y-74537001D01*
X184452734Y-74457928D01*
X184452729Y-74457925D01*
X184279807Y-74380934D01*
X184279802Y-74380932D01*
X184134001Y-74349942D01*
X184094646Y-74341577D01*
X183905354Y-74341577D01*
X183872897Y-74348475D01*
X183720197Y-74380932D01*
X183720192Y-74380934D01*
X183547270Y-74457925D01*
X183547265Y-74457928D01*
X183394129Y-74569188D01*
X183267466Y-74709862D01*
X183172821Y-74873792D01*
X183172818Y-74873799D01*
X183127907Y-75012022D01*
X183114326Y-75053821D01*
X183114326Y-75053822D01*
X183107740Y-75116484D01*
X183081155Y-75181098D01*
X183023857Y-75221082D01*
X182984264Y-75227521D01*
X178864885Y-75222385D01*
X178797871Y-75202617D01*
X178752181Y-75149756D01*
X178741719Y-75111347D01*
X178735674Y-75053821D01*
X178677179Y-74873793D01*
X178582533Y-74709861D01*
X178455871Y-74569189D01*
X178411568Y-74537001D01*
X178302734Y-74457928D01*
X178302729Y-74457925D01*
X178129807Y-74380934D01*
X178129802Y-74380932D01*
X177984001Y-74349942D01*
X177944646Y-74341577D01*
X177755354Y-74341577D01*
X177722897Y-74348475D01*
X177570197Y-74380932D01*
X177570192Y-74380934D01*
X177397270Y-74457925D01*
X177397265Y-74457928D01*
X177244129Y-74569188D01*
X177117466Y-74709862D01*
X177022821Y-74873792D01*
X177022818Y-74873799D01*
X176977907Y-75012022D01*
X176964326Y-75053821D01*
X176964326Y-75053822D01*
X176958546Y-75108816D01*
X176931961Y-75173430D01*
X176874663Y-75213414D01*
X176835071Y-75219853D01*
X176674781Y-75219654D01*
X176674779Y-75219654D01*
X176566995Y-75231141D01*
X176515340Y-75242346D01*
X176515320Y-75242351D01*
X176412497Y-75276540D01*
X176291462Y-75354325D01*
X176291451Y-75354333D01*
X176238659Y-75400077D01*
X176144433Y-75508818D01*
X176144430Y-75508822D01*
X176084664Y-75639688D01*
X176064976Y-75706736D01*
X176044500Y-75849155D01*
X176044500Y-78095500D01*
X176024815Y-78162539D01*
X175972011Y-78208294D01*
X175920500Y-78219500D01*
X162949000Y-78219500D01*
X162948991Y-78219500D01*
X162948990Y-78219501D01*
X162841549Y-78231052D01*
X162841537Y-78231054D01*
X162790027Y-78242260D01*
X162687502Y-78276383D01*
X162687496Y-78276386D01*
X162566462Y-78354171D01*
X162566451Y-78354179D01*
X162513659Y-78399923D01*
X162419433Y-78508664D01*
X162419430Y-78508668D01*
X162359664Y-78639534D01*
X162339976Y-78706582D01*
X162333023Y-78754944D01*
X162319500Y-78849000D01*
X86400000Y-78849000D01*
X86400000Y-76974999D01*
X92789341Y-76974999D01*
X92789341Y-76975000D01*
X92809936Y-77210403D01*
X92809938Y-77210413D01*
X92871094Y-77438655D01*
X92871096Y-77438659D01*
X92871097Y-77438663D01*
X92875000Y-77447032D01*
X92970965Y-77652830D01*
X92970967Y-77652834D01*
X93079281Y-77807521D01*
X93106505Y-77846401D01*
X93273599Y-78013495D01*
X93370384Y-78081265D01*
X93467165Y-78149032D01*
X93467167Y-78149033D01*
X93467170Y-78149035D01*
X93681337Y-78248903D01*
X93909592Y-78310063D01*
X94086034Y-78325500D01*
X94144999Y-78330659D01*
X94145000Y-78330659D01*
X94145001Y-78330659D01*
X94203966Y-78325500D01*
X94380408Y-78310063D01*
X94608663Y-78248903D01*
X94822830Y-78149035D01*
X95016401Y-78013495D01*
X95183495Y-77846401D01*
X95313425Y-77660842D01*
X95368002Y-77617217D01*
X95437500Y-77610023D01*
X95499855Y-77641546D01*
X95516575Y-77660842D01*
X95646500Y-77846395D01*
X95646505Y-77846401D01*
X95813599Y-78013495D01*
X95910384Y-78081265D01*
X96007165Y-78149032D01*
X96007167Y-78149033D01*
X96007170Y-78149035D01*
X96221337Y-78248903D01*
X96449592Y-78310063D01*
X96626034Y-78325500D01*
X96684999Y-78330659D01*
X96685000Y-78330659D01*
X96685001Y-78330659D01*
X96743966Y-78325500D01*
X96920408Y-78310063D01*
X97148663Y-78248903D01*
X97362830Y-78149035D01*
X97556401Y-78013495D01*
X97678329Y-77891566D01*
X97739648Y-77858084D01*
X97809340Y-77863068D01*
X97865274Y-77904939D01*
X97882189Y-77935917D01*
X97931202Y-78067328D01*
X97931206Y-78067335D01*
X98017452Y-78182544D01*
X98017455Y-78182547D01*
X98132664Y-78268793D01*
X98132671Y-78268797D01*
X98267517Y-78319091D01*
X98267516Y-78319091D01*
X98274444Y-78319835D01*
X98327127Y-78325500D01*
X100122872Y-78325499D01*
X100182483Y-78319091D01*
X100317331Y-78268796D01*
X100432546Y-78182546D01*
X100518796Y-78067331D01*
X100569091Y-77932483D01*
X100575500Y-77872873D01*
X100575499Y-76077128D01*
X100569091Y-76017517D01*
X100567810Y-76014083D01*
X100518797Y-75882671D01*
X100518793Y-75882664D01*
X100432547Y-75767455D01*
X100432544Y-75767452D01*
X100317335Y-75681206D01*
X100317328Y-75681202D01*
X100182482Y-75630908D01*
X100182483Y-75630908D01*
X100122883Y-75624501D01*
X100122881Y-75624500D01*
X100122873Y-75624500D01*
X100122864Y-75624500D01*
X98327129Y-75624500D01*
X98327123Y-75624501D01*
X98267516Y-75630908D01*
X98132671Y-75681202D01*
X98132664Y-75681206D01*
X98017455Y-75767452D01*
X98017452Y-75767455D01*
X97931206Y-75882664D01*
X97931203Y-75882669D01*
X97882189Y-76014083D01*
X97840317Y-76070016D01*
X97774853Y-76094433D01*
X97706580Y-76079581D01*
X97678326Y-76058430D01*
X97556402Y-75936506D01*
X97556395Y-75936501D01*
X97362834Y-75800967D01*
X97362830Y-75800965D01*
X97362828Y-75800964D01*
X97148663Y-75701097D01*
X97148659Y-75701096D01*
X97148655Y-75701094D01*
X96920413Y-75639938D01*
X96920403Y-75639936D01*
X96685001Y-75619341D01*
X96684999Y-75619341D01*
X96449596Y-75639936D01*
X96449586Y-75639938D01*
X96221344Y-75701094D01*
X96221335Y-75701098D01*
X96007171Y-75800964D01*
X96007169Y-75800965D01*
X95813597Y-75936505D01*
X95646505Y-76103597D01*
X95516575Y-76289158D01*
X95461998Y-76332783D01*
X95392500Y-76339977D01*
X95330145Y-76308454D01*
X95313425Y-76289158D01*
X95183494Y-76103597D01*
X95016402Y-75936506D01*
X95016395Y-75936501D01*
X94822834Y-75800967D01*
X94822830Y-75800965D01*
X94822828Y-75800964D01*
X94608663Y-75701097D01*
X94608659Y-75701096D01*
X94608655Y-75701094D01*
X94380413Y-75639938D01*
X94380403Y-75639936D01*
X94145001Y-75619341D01*
X94144999Y-75619341D01*
X93909596Y-75639936D01*
X93909586Y-75639938D01*
X93681344Y-75701094D01*
X93681335Y-75701098D01*
X93467171Y-75800964D01*
X93467169Y-75800965D01*
X93273597Y-75936505D01*
X93106505Y-76103597D01*
X92970965Y-76297169D01*
X92970964Y-76297171D01*
X92871098Y-76511335D01*
X92871094Y-76511344D01*
X92809938Y-76739586D01*
X92809936Y-76739596D01*
X92789341Y-76974999D01*
X86400000Y-76974999D01*
X86400000Y-74662496D01*
X99794435Y-74662496D01*
X99794435Y-74662503D01*
X99814630Y-74841749D01*
X99814631Y-74841754D01*
X99874211Y-75012023D01*
X99935031Y-75108816D01*
X99970184Y-75164762D01*
X100097738Y-75292316D01*
X100250478Y-75388289D01*
X100395550Y-75439052D01*
X100420745Y-75447868D01*
X100420750Y-75447869D01*
X100599996Y-75468065D01*
X100600000Y-75468065D01*
X100600004Y-75468065D01*
X100779249Y-75447869D01*
X100779252Y-75447868D01*
X100779255Y-75447868D01*
X100949522Y-75388289D01*
X101102262Y-75292316D01*
X101229816Y-75164762D01*
X101325789Y-75012022D01*
X101385368Y-74841755D01*
X101401340Y-74700000D01*
X170894815Y-74700000D01*
X170913503Y-74877805D01*
X170913504Y-74877807D01*
X170968747Y-75047829D01*
X170968750Y-75047835D01*
X171058141Y-75202665D01*
X171083781Y-75231141D01*
X171177764Y-75335521D01*
X171177767Y-75335523D01*
X171177770Y-75335526D01*
X171322407Y-75440612D01*
X171485733Y-75513329D01*
X171660609Y-75550500D01*
X171660610Y-75550500D01*
X171839389Y-75550500D01*
X171839391Y-75550500D01*
X172014267Y-75513329D01*
X172177593Y-75440612D01*
X172322230Y-75335526D01*
X172441859Y-75202665D01*
X172531250Y-75047835D01*
X172586497Y-74877803D01*
X172605185Y-74700000D01*
X172586497Y-74522197D01*
X172548767Y-74406075D01*
X172531252Y-74352170D01*
X172531249Y-74352164D01*
X172496696Y-74292316D01*
X172441859Y-74197335D01*
X172395003Y-74145296D01*
X172322235Y-74064478D01*
X172322232Y-74064476D01*
X172322231Y-74064475D01*
X172322230Y-74064474D01*
X172177593Y-73959388D01*
X172014267Y-73886671D01*
X172014265Y-73886670D01*
X171873838Y-73856822D01*
X171839391Y-73849500D01*
X171660609Y-73849500D01*
X171629954Y-73856015D01*
X171485733Y-73886670D01*
X171485728Y-73886672D01*
X171322408Y-73959387D01*
X171177768Y-74064475D01*
X171058140Y-74197336D01*
X170968750Y-74352164D01*
X170968747Y-74352170D01*
X170913504Y-74522192D01*
X170913503Y-74522194D01*
X170894815Y-74700000D01*
X101401340Y-74700000D01*
X101405565Y-74662500D01*
X101395051Y-74569189D01*
X101391425Y-74537001D01*
X101403479Y-74468179D01*
X101450828Y-74416799D01*
X101473689Y-74406075D01*
X101524522Y-74388289D01*
X101677262Y-74292316D01*
X101804816Y-74164762D01*
X101900789Y-74012022D01*
X101960368Y-73841755D01*
X101980565Y-73662500D01*
X101960368Y-73483245D01*
X101900789Y-73312978D01*
X101804816Y-73160238D01*
X101677262Y-73032684D01*
X101524523Y-72936711D01*
X101354254Y-72877131D01*
X101354249Y-72877130D01*
X101175004Y-72856935D01*
X101174996Y-72856935D01*
X100995750Y-72877130D01*
X100995745Y-72877131D01*
X100825476Y-72936711D01*
X100672737Y-73032684D01*
X100545184Y-73160237D01*
X100449211Y-73312976D01*
X100389631Y-73483245D01*
X100389630Y-73483250D01*
X100369435Y-73662496D01*
X100369435Y-73662504D01*
X100383574Y-73788000D01*
X100371519Y-73856822D01*
X100324170Y-73908201D01*
X100301309Y-73918924D01*
X100250479Y-73936710D01*
X100250475Y-73936712D01*
X100097737Y-74032684D01*
X99970184Y-74160237D01*
X99874211Y-74312976D01*
X99814631Y-74483245D01*
X99814630Y-74483250D01*
X99794435Y-74662496D01*
X86400000Y-74662496D01*
X86400000Y-70137500D01*
X112404706Y-70137500D01*
X112423853Y-70380797D01*
X112423853Y-70380800D01*
X112423854Y-70380802D01*
X112450209Y-70490578D01*
X112480830Y-70618119D01*
X112574222Y-70843589D01*
X112701737Y-71051673D01*
X112701738Y-71051676D01*
X112725153Y-71079091D01*
X112860241Y-71237259D01*
X113003897Y-71359953D01*
X113045823Y-71395761D01*
X113045826Y-71395762D01*
X113253910Y-71523277D01*
X113479381Y-71616669D01*
X113479378Y-71616669D01*
X113479384Y-71616670D01*
X113479388Y-71616672D01*
X113716698Y-71673646D01*
X113960000Y-71692794D01*
X114203302Y-71673646D01*
X114440612Y-71616672D01*
X114666089Y-71523277D01*
X114874179Y-71395759D01*
X115059759Y-71237259D01*
X115218259Y-71051679D01*
X115345777Y-70843589D01*
X115439172Y-70618112D01*
X115496146Y-70380802D01*
X115515294Y-70137500D01*
X115496146Y-69894198D01*
X115439172Y-69656888D01*
X115439169Y-69656880D01*
X115345777Y-69431410D01*
X115218262Y-69223326D01*
X115218261Y-69223323D01*
X115182453Y-69181397D01*
X115059759Y-69037741D01*
X114910704Y-68910436D01*
X114874176Y-68879238D01*
X114874173Y-68879237D01*
X114666089Y-68751722D01*
X114440618Y-68658330D01*
X114440621Y-68658330D01*
X114259720Y-68614899D01*
X114203302Y-68601354D01*
X114203300Y-68601353D01*
X114203297Y-68601353D01*
X113960000Y-68582206D01*
X113716702Y-68601353D01*
X113716698Y-68601354D01*
X113544612Y-68642669D01*
X113479380Y-68658330D01*
X113253910Y-68751722D01*
X113045826Y-68879237D01*
X113045823Y-68879238D01*
X112860241Y-69037741D01*
X112701738Y-69223323D01*
X112701737Y-69223326D01*
X112574222Y-69431410D01*
X112480830Y-69656880D01*
X112480828Y-69656887D01*
X112480828Y-69656888D01*
X112455853Y-69760916D01*
X112423853Y-69894202D01*
X112404706Y-70137500D01*
X86400000Y-70137500D01*
X86400000Y-65649996D01*
X101044435Y-65649996D01*
X101044435Y-65650003D01*
X101064630Y-65829249D01*
X101064631Y-65829254D01*
X101124211Y-65999523D01*
X101220184Y-66152262D01*
X101347738Y-66279816D01*
X101500478Y-66375789D01*
X101653972Y-66429499D01*
X101670745Y-66435368D01*
X101670750Y-66435369D01*
X101849996Y-66455565D01*
X101850000Y-66455565D01*
X101850004Y-66455565D01*
X102029249Y-66435369D01*
X102029252Y-66435368D01*
X102029255Y-66435368D01*
X102199522Y-66375789D01*
X102352262Y-66279816D01*
X102457078Y-66175000D01*
X124939473Y-66175000D01*
X124959563Y-66507136D01*
X124959563Y-66507141D01*
X124959564Y-66507142D01*
X125019544Y-66834441D01*
X125019545Y-66834445D01*
X125019546Y-66834449D01*
X125118530Y-67152104D01*
X125118534Y-67152116D01*
X125118537Y-67152123D01*
X125255102Y-67455557D01*
X125388895Y-67676877D01*
X125427251Y-67740326D01*
X125632460Y-68002255D01*
X125867744Y-68237539D01*
X126129673Y-68442748D01*
X126129678Y-68442751D01*
X126129682Y-68442754D01*
X126414443Y-68614898D01*
X126717877Y-68751463D01*
X126717890Y-68751467D01*
X126717895Y-68751469D01*
X126929665Y-68817458D01*
X127035559Y-68850456D01*
X127362858Y-68910436D01*
X127695000Y-68930527D01*
X128027142Y-68910436D01*
X128354441Y-68850456D01*
X128672123Y-68751463D01*
X128975557Y-68614898D01*
X129260318Y-68442754D01*
X129262297Y-68441204D01*
X129432610Y-68307772D01*
X129522252Y-68237542D01*
X129757542Y-68002252D01*
X129962754Y-67740318D01*
X130134898Y-67455557D01*
X130271463Y-67152123D01*
X130370456Y-66834441D01*
X130381349Y-66775000D01*
X133506675Y-66775000D01*
X133525962Y-67167591D01*
X133525962Y-67167597D01*
X133525963Y-67167599D01*
X133583637Y-67556406D01*
X133679143Y-67937684D01*
X133811561Y-68307770D01*
X133811562Y-68307772D01*
X133979620Y-68663100D01*
X134139910Y-68930527D01*
X134181694Y-69000239D01*
X134375337Y-69261337D01*
X134415846Y-69315956D01*
X134679807Y-69607192D01*
X134971043Y-69871153D01*
X134971049Y-69871158D01*
X135286761Y-70105306D01*
X135399141Y-70172664D01*
X135623899Y-70307379D01*
X135623902Y-70307380D01*
X135623903Y-70307381D01*
X135979228Y-70475438D01*
X136349316Y-70607857D01*
X136730600Y-70703364D01*
X137119409Y-70761038D01*
X137512000Y-70780325D01*
X137904591Y-70761038D01*
X138293400Y-70703364D01*
X138674684Y-70607857D01*
X139044772Y-70475438D01*
X139400097Y-70307381D01*
X139737239Y-70105306D01*
X140052951Y-69871158D01*
X140344192Y-69607192D01*
X140608158Y-69315951D01*
X140842306Y-69000239D01*
X141044381Y-68663097D01*
X141212438Y-68307772D01*
X141344857Y-67937684D01*
X141440364Y-67556400D01*
X141498038Y-67167591D01*
X141499818Y-67131341D01*
X141522769Y-67065351D01*
X141577754Y-67022242D01*
X141647317Y-67015704D01*
X141709372Y-67047812D01*
X141743444Y-67105335D01*
X141795422Y-67299322D01*
X141795424Y-67299326D01*
X141795425Y-67299330D01*
X141811465Y-67333727D01*
X141887897Y-67497638D01*
X141887898Y-67497639D01*
X142013402Y-67676877D01*
X142168123Y-67831598D01*
X142347361Y-67957102D01*
X142545670Y-68049575D01*
X142757023Y-68106207D01*
X142939926Y-68122208D01*
X142974998Y-68125277D01*
X142975000Y-68125277D01*
X142975002Y-68125277D01*
X143003254Y-68122805D01*
X143192977Y-68106207D01*
X143404330Y-68049575D01*
X143602639Y-67957102D01*
X143781877Y-67831598D01*
X143936598Y-67676877D01*
X144062102Y-67497639D01*
X144154575Y-67299330D01*
X144211207Y-67087977D01*
X144230277Y-66870000D01*
X144211207Y-66652023D01*
X144154575Y-66440670D01*
X144062102Y-66242362D01*
X144062100Y-66242359D01*
X144062099Y-66242357D01*
X143936599Y-66063124D01*
X143890610Y-66017135D01*
X144494500Y-66017135D01*
X144494500Y-67612870D01*
X144494501Y-67612876D01*
X144500908Y-67672483D01*
X144551202Y-67807328D01*
X144551206Y-67807335D01*
X144637452Y-67922544D01*
X144637455Y-67922547D01*
X144752664Y-68008793D01*
X144752671Y-68008797D01*
X144887517Y-68059091D01*
X144887516Y-68059091D01*
X144894444Y-68059835D01*
X144947127Y-68065500D01*
X146542872Y-68065499D01*
X146602483Y-68059091D01*
X146737331Y-68008796D01*
X146852546Y-67922546D01*
X146938796Y-67807331D01*
X146989091Y-67672483D01*
X146995500Y-67612873D01*
X146995499Y-67120506D01*
X147015183Y-67053470D01*
X147067987Y-67007715D01*
X147137146Y-66997771D01*
X147200702Y-67026796D01*
X147238476Y-67085574D01*
X147243349Y-67114422D01*
X147245962Y-67167591D01*
X147245962Y-67167597D01*
X147245963Y-67167599D01*
X147303637Y-67556406D01*
X147399143Y-67937684D01*
X147531561Y-68307770D01*
X147531562Y-68307772D01*
X147699620Y-68663100D01*
X147859910Y-68930527D01*
X147901694Y-69000239D01*
X148095337Y-69261337D01*
X148135846Y-69315956D01*
X148399807Y-69607192D01*
X148691043Y-69871153D01*
X148691049Y-69871158D01*
X149006761Y-70105306D01*
X149119141Y-70172664D01*
X149343899Y-70307379D01*
X149343902Y-70307380D01*
X149343903Y-70307381D01*
X149699228Y-70475438D01*
X150069316Y-70607857D01*
X150450600Y-70703364D01*
X150839409Y-70761038D01*
X151232000Y-70780325D01*
X151624591Y-70761038D01*
X152013400Y-70703364D01*
X152394684Y-70607857D01*
X152764772Y-70475438D01*
X153120097Y-70307381D01*
X153457239Y-70105306D01*
X153772951Y-69871158D01*
X153934212Y-69724999D01*
X165794341Y-69724999D01*
X165794341Y-69725000D01*
X165814936Y-69960403D01*
X165814938Y-69960413D01*
X165876094Y-70188655D01*
X165876096Y-70188659D01*
X165876097Y-70188663D01*
X165965691Y-70380797D01*
X165975965Y-70402830D01*
X165975967Y-70402834D01*
X166037394Y-70490560D01*
X166111505Y-70596401D01*
X166278599Y-70763495D01*
X166302635Y-70780325D01*
X166472165Y-70899032D01*
X166472167Y-70899033D01*
X166472170Y-70899035D01*
X166686337Y-70998903D01*
X166914592Y-71060063D01*
X167102918Y-71076539D01*
X167149999Y-71080659D01*
X167150000Y-71080659D01*
X167150001Y-71080659D01*
X167189234Y-71077226D01*
X167385408Y-71060063D01*
X167613663Y-70998903D01*
X167827830Y-70899035D01*
X168021401Y-70763495D01*
X168188495Y-70596401D01*
X168324035Y-70402830D01*
X168423903Y-70188663D01*
X168485063Y-69960408D01*
X168505659Y-69725000D01*
X168485063Y-69489592D01*
X168423903Y-69261337D01*
X168324035Y-69047171D01*
X168242361Y-68930527D01*
X168188494Y-68853597D01*
X168021402Y-68686506D01*
X168021395Y-68686501D01*
X167827834Y-68550967D01*
X167827830Y-68550965D01*
X167777413Y-68527455D01*
X167613663Y-68451097D01*
X167613659Y-68451096D01*
X167613655Y-68451094D01*
X167385413Y-68389938D01*
X167385403Y-68389936D01*
X167150001Y-68369341D01*
X167149999Y-68369341D01*
X166914596Y-68389936D01*
X166914586Y-68389938D01*
X166686344Y-68451094D01*
X166686335Y-68451098D01*
X166472171Y-68550964D01*
X166472169Y-68550965D01*
X166278597Y-68686505D01*
X166111505Y-68853597D01*
X165975965Y-69047169D01*
X165975964Y-69047171D01*
X165876098Y-69261335D01*
X165876094Y-69261344D01*
X165814938Y-69489586D01*
X165814936Y-69489596D01*
X165794341Y-69724999D01*
X153934212Y-69724999D01*
X154064192Y-69607192D01*
X154328158Y-69315951D01*
X154562306Y-69000239D01*
X154764381Y-68663097D01*
X154932438Y-68307772D01*
X155064857Y-67937684D01*
X155160364Y-67556400D01*
X155218038Y-67167591D01*
X155237325Y-66775000D01*
X155218038Y-66382409D01*
X155187272Y-66175000D01*
X158239473Y-66175000D01*
X158259563Y-66507136D01*
X158259563Y-66507141D01*
X158259564Y-66507142D01*
X158319544Y-66834441D01*
X158319545Y-66834445D01*
X158319546Y-66834449D01*
X158418530Y-67152104D01*
X158418534Y-67152116D01*
X158418537Y-67152123D01*
X158555102Y-67455557D01*
X158688895Y-67676877D01*
X158727251Y-67740326D01*
X158932460Y-68002255D01*
X159167744Y-68237539D01*
X159429673Y-68442748D01*
X159429678Y-68442751D01*
X159429682Y-68442754D01*
X159714443Y-68614898D01*
X160017877Y-68751463D01*
X160017890Y-68751467D01*
X160017895Y-68751469D01*
X160229665Y-68817458D01*
X160335559Y-68850456D01*
X160662858Y-68910436D01*
X160995000Y-68930527D01*
X161327142Y-68910436D01*
X161654441Y-68850456D01*
X161972123Y-68751463D01*
X162275557Y-68614898D01*
X162560318Y-68442754D01*
X162562297Y-68441204D01*
X162732610Y-68307772D01*
X162822252Y-68237542D01*
X163057542Y-68002252D01*
X163262754Y-67740318D01*
X163434898Y-67455557D01*
X163552166Y-67194999D01*
X169544341Y-67194999D01*
X169544341Y-67195000D01*
X169564936Y-67430403D01*
X169564938Y-67430413D01*
X169626094Y-67658655D01*
X169626096Y-67658659D01*
X169626097Y-67658663D01*
X169695421Y-67807328D01*
X169725965Y-67872830D01*
X169725967Y-67872834D01*
X169821170Y-68008797D01*
X169861501Y-68066396D01*
X169861506Y-68066402D01*
X169983430Y-68188326D01*
X170016915Y-68249649D01*
X170011931Y-68319341D01*
X169970059Y-68375274D01*
X169939083Y-68392189D01*
X169807669Y-68441203D01*
X169807664Y-68441206D01*
X169692455Y-68527452D01*
X169692452Y-68527455D01*
X169606206Y-68642664D01*
X169606202Y-68642671D01*
X169555908Y-68777517D01*
X169549501Y-68837116D01*
X169549501Y-68837123D01*
X169549500Y-68837135D01*
X169549500Y-70632870D01*
X169549501Y-70632876D01*
X169555908Y-70692483D01*
X169606202Y-70827328D01*
X169606206Y-70827335D01*
X169692452Y-70942544D01*
X169692455Y-70942547D01*
X169807664Y-71028793D01*
X169807671Y-71028797D01*
X169942517Y-71079091D01*
X169942516Y-71079091D01*
X169949444Y-71079835D01*
X170002127Y-71085500D01*
X171797872Y-71085499D01*
X171857483Y-71079091D01*
X171992331Y-71028796D01*
X172107546Y-70942546D01*
X172193796Y-70827331D01*
X172244091Y-70692483D01*
X172250500Y-70632873D01*
X172250499Y-69209998D01*
X180644518Y-69209998D01*
X180644518Y-69210001D01*
X180664422Y-69488299D01*
X180701097Y-69656888D01*
X180723729Y-69760923D01*
X180773438Y-69894198D01*
X180821231Y-70022338D01*
X180821233Y-70022342D01*
X180954940Y-70267207D01*
X180954945Y-70267215D01*
X181122138Y-70490560D01*
X181122154Y-70490578D01*
X181319421Y-70687845D01*
X181319439Y-70687861D01*
X181542784Y-70855054D01*
X181542792Y-70855059D01*
X181787657Y-70988766D01*
X181787661Y-70988768D01*
X181787663Y-70988769D01*
X182049077Y-71086271D01*
X182185391Y-71115924D01*
X182321700Y-71145577D01*
X182321702Y-71145577D01*
X182321706Y-71145578D01*
X182569014Y-71163265D01*
X182599999Y-71165482D01*
X182600000Y-71165482D01*
X182600001Y-71165482D01*
X182627881Y-71163487D01*
X182878294Y-71145578D01*
X183150923Y-71086271D01*
X183412337Y-70988769D01*
X183657213Y-70855056D01*
X183880568Y-70687855D01*
X184077855Y-70490568D01*
X184245056Y-70267213D01*
X184378769Y-70022337D01*
X184476271Y-69760923D01*
X184535578Y-69488294D01*
X184555482Y-69210000D01*
X184555482Y-69209998D01*
X185644518Y-69209998D01*
X185644518Y-69210001D01*
X185664422Y-69488299D01*
X185701097Y-69656888D01*
X185723729Y-69760923D01*
X185773438Y-69894198D01*
X185821231Y-70022338D01*
X185821233Y-70022342D01*
X185954940Y-70267207D01*
X185954945Y-70267215D01*
X186122138Y-70490560D01*
X186122154Y-70490578D01*
X186319421Y-70687845D01*
X186319439Y-70687861D01*
X186542784Y-70855054D01*
X186542792Y-70855059D01*
X186787657Y-70988766D01*
X186787661Y-70988768D01*
X186787663Y-70988769D01*
X187049077Y-71086271D01*
X187185391Y-71115924D01*
X187321700Y-71145577D01*
X187321702Y-71145577D01*
X187321706Y-71145578D01*
X187569014Y-71163265D01*
X187599999Y-71165482D01*
X187600000Y-71165482D01*
X187600001Y-71165482D01*
X187627881Y-71163487D01*
X187878294Y-71145578D01*
X188150923Y-71086271D01*
X188412337Y-70988769D01*
X188657213Y-70855056D01*
X188880568Y-70687855D01*
X189077855Y-70490568D01*
X189245056Y-70267213D01*
X189315885Y-70137500D01*
X191129706Y-70137500D01*
X191148853Y-70380797D01*
X191148853Y-70380800D01*
X191148854Y-70380802D01*
X191175209Y-70490578D01*
X191205830Y-70618119D01*
X191299222Y-70843589D01*
X191426737Y-71051673D01*
X191426738Y-71051676D01*
X191450153Y-71079091D01*
X191585241Y-71237259D01*
X191728897Y-71359953D01*
X191770823Y-71395761D01*
X191770826Y-71395762D01*
X191978910Y-71523277D01*
X192204381Y-71616669D01*
X192204378Y-71616669D01*
X192204384Y-71616670D01*
X192204388Y-71616672D01*
X192441698Y-71673646D01*
X192685000Y-71692794D01*
X192928302Y-71673646D01*
X193165612Y-71616672D01*
X193391089Y-71523277D01*
X193599179Y-71395759D01*
X193784759Y-71237259D01*
X193943259Y-71051679D01*
X194070777Y-70843589D01*
X194164172Y-70618112D01*
X194221146Y-70380802D01*
X194240294Y-70137500D01*
X194221146Y-69894198D01*
X194164172Y-69656888D01*
X194164169Y-69656880D01*
X194070777Y-69431410D01*
X193943262Y-69223326D01*
X193943261Y-69223323D01*
X193907453Y-69181397D01*
X193784759Y-69037741D01*
X193635704Y-68910436D01*
X193599176Y-68879238D01*
X193599173Y-68879237D01*
X193391089Y-68751722D01*
X193165618Y-68658330D01*
X193165621Y-68658330D01*
X192984720Y-68614899D01*
X192928302Y-68601354D01*
X192928300Y-68601353D01*
X192928297Y-68601353D01*
X192685000Y-68582206D01*
X192441702Y-68601353D01*
X192441698Y-68601354D01*
X192269612Y-68642669D01*
X192204380Y-68658330D01*
X191978910Y-68751722D01*
X191770826Y-68879237D01*
X191770823Y-68879238D01*
X191585241Y-69037741D01*
X191426738Y-69223323D01*
X191426737Y-69223326D01*
X191299222Y-69431410D01*
X191205830Y-69656880D01*
X191205828Y-69656887D01*
X191205828Y-69656888D01*
X191180853Y-69760916D01*
X191148853Y-69894202D01*
X191129706Y-70137500D01*
X189315885Y-70137500D01*
X189378769Y-70022337D01*
X189476271Y-69760923D01*
X189535578Y-69488294D01*
X189555482Y-69210000D01*
X189535578Y-68931706D01*
X189535321Y-68930526D01*
X189482238Y-68686506D01*
X189476271Y-68659077D01*
X189378769Y-68397663D01*
X189374550Y-68389937D01*
X189245059Y-68152792D01*
X189245054Y-68152784D01*
X189077861Y-67929439D01*
X189077845Y-67929421D01*
X188880578Y-67732154D01*
X188880560Y-67732138D01*
X188657215Y-67564945D01*
X188657207Y-67564940D01*
X188412342Y-67431233D01*
X188412338Y-67431231D01*
X188313230Y-67394266D01*
X188150923Y-67333729D01*
X188150919Y-67333728D01*
X188150916Y-67333727D01*
X187878299Y-67274422D01*
X187600001Y-67254518D01*
X187599999Y-67254518D01*
X187321700Y-67274422D01*
X187049083Y-67333727D01*
X187049078Y-67333728D01*
X187049077Y-67333729D01*
X186985875Y-67357301D01*
X186787661Y-67431231D01*
X186787657Y-67431233D01*
X186542792Y-67564940D01*
X186542784Y-67564945D01*
X186319439Y-67732138D01*
X186319421Y-67732154D01*
X186122154Y-67929421D01*
X186122138Y-67929439D01*
X185954945Y-68152784D01*
X185954940Y-68152792D01*
X185821233Y-68397657D01*
X185821231Y-68397661D01*
X185764052Y-68550967D01*
X185724009Y-68658328D01*
X185723727Y-68659083D01*
X185664422Y-68931700D01*
X185644518Y-69209998D01*
X184555482Y-69209998D01*
X184535578Y-68931706D01*
X184535321Y-68930526D01*
X184482238Y-68686506D01*
X184476271Y-68659077D01*
X184378769Y-68397663D01*
X184374550Y-68389937D01*
X184245059Y-68152792D01*
X184245054Y-68152784D01*
X184077861Y-67929439D01*
X184077845Y-67929421D01*
X183880578Y-67732154D01*
X183880560Y-67732138D01*
X183657215Y-67564945D01*
X183657207Y-67564940D01*
X183412342Y-67431233D01*
X183412338Y-67431231D01*
X183313230Y-67394266D01*
X183150923Y-67333729D01*
X183150919Y-67333728D01*
X183150916Y-67333727D01*
X182878299Y-67274422D01*
X182600001Y-67254518D01*
X182599999Y-67254518D01*
X182321700Y-67274422D01*
X182049083Y-67333727D01*
X182049078Y-67333728D01*
X182049077Y-67333729D01*
X181985875Y-67357301D01*
X181787661Y-67431231D01*
X181787657Y-67431233D01*
X181542792Y-67564940D01*
X181542784Y-67564945D01*
X181319439Y-67732138D01*
X181319421Y-67732154D01*
X181122154Y-67929421D01*
X181122138Y-67929439D01*
X180954945Y-68152784D01*
X180954940Y-68152792D01*
X180821233Y-68397657D01*
X180821231Y-68397661D01*
X180764052Y-68550967D01*
X180724009Y-68658328D01*
X180723727Y-68659083D01*
X180664422Y-68931700D01*
X180644518Y-69209998D01*
X172250499Y-69209998D01*
X172250499Y-68837128D01*
X172244091Y-68777517D01*
X172234470Y-68751723D01*
X172193797Y-68642671D01*
X172193793Y-68642664D01*
X172107547Y-68527455D01*
X172107544Y-68527452D01*
X171992335Y-68441206D01*
X171992328Y-68441202D01*
X171860917Y-68392189D01*
X171804983Y-68350318D01*
X171780566Y-68284853D01*
X171795418Y-68216580D01*
X171816563Y-68188332D01*
X171938495Y-68066401D01*
X172074035Y-67872830D01*
X172173903Y-67658663D01*
X172235063Y-67430408D01*
X172255659Y-67195000D01*
X172235063Y-66959592D01*
X172173903Y-66731337D01*
X172074035Y-66517171D01*
X172067009Y-66507136D01*
X171938494Y-66323597D01*
X171771402Y-66156506D01*
X171771395Y-66156501D01*
X171577834Y-66020967D01*
X171577830Y-66020965D01*
X171569576Y-66017116D01*
X171363663Y-65921097D01*
X171363659Y-65921096D01*
X171363655Y-65921094D01*
X171135413Y-65859938D01*
X171135403Y-65859936D01*
X170900001Y-65839341D01*
X170899999Y-65839341D01*
X170664596Y-65859936D01*
X170664586Y-65859938D01*
X170436344Y-65921094D01*
X170436335Y-65921098D01*
X170222171Y-66020964D01*
X170222169Y-66020965D01*
X170028597Y-66156505D01*
X169861505Y-66323597D01*
X169725965Y-66517169D01*
X169725964Y-66517171D01*
X169626098Y-66731335D01*
X169626094Y-66731344D01*
X169564938Y-66959586D01*
X169564936Y-66959596D01*
X169544341Y-67194999D01*
X163552166Y-67194999D01*
X163571463Y-67152123D01*
X163670456Y-66834441D01*
X163730436Y-66507142D01*
X163750527Y-66175000D01*
X163730436Y-65842858D01*
X163670456Y-65515559D01*
X163591885Y-65263414D01*
X163571469Y-65197895D01*
X163571467Y-65197890D01*
X163571463Y-65197877D01*
X163434898Y-64894443D01*
X163262754Y-64609682D01*
X163262751Y-64609678D01*
X163262748Y-64609673D01*
X163057539Y-64347744D01*
X162822255Y-64112460D01*
X162560326Y-63907251D01*
X162560318Y-63907246D01*
X162275557Y-63735102D01*
X161972123Y-63598537D01*
X161972116Y-63598534D01*
X161972104Y-63598530D01*
X161654449Y-63499546D01*
X161654445Y-63499545D01*
X161654441Y-63499544D01*
X161327142Y-63439564D01*
X161327141Y-63439563D01*
X161327136Y-63439563D01*
X160995000Y-63419473D01*
X160662863Y-63439563D01*
X160599786Y-63451122D01*
X160335559Y-63499544D01*
X160335556Y-63499544D01*
X160335550Y-63499546D01*
X160017895Y-63598530D01*
X160017879Y-63598536D01*
X160017877Y-63598537D01*
X159841662Y-63677845D01*
X159715041Y-63734833D01*
X159714443Y-63735102D01*
X159644943Y-63777116D01*
X159429673Y-63907251D01*
X159167744Y-64112460D01*
X158932460Y-64347744D01*
X158727251Y-64609673D01*
X158623148Y-64781881D01*
X158573124Y-64864632D01*
X158555101Y-64894445D01*
X158555100Y-64894447D01*
X158505498Y-65004656D01*
X158441104Y-65147737D01*
X158418536Y-65197880D01*
X158418530Y-65197895D01*
X158319546Y-65515550D01*
X158319544Y-65515556D01*
X158319544Y-65515559D01*
X158287498Y-65690426D01*
X158259563Y-65842863D01*
X158239473Y-66175000D01*
X155187272Y-66175000D01*
X155160364Y-65993600D01*
X155064857Y-65612316D01*
X154932438Y-65242228D01*
X154764381Y-64886903D01*
X154751032Y-64864632D01*
X154562307Y-64549763D01*
X154562306Y-64549761D01*
X154328158Y-64234049D01*
X154328153Y-64234043D01*
X154064192Y-63942807D01*
X153772956Y-63678846D01*
X153771606Y-63677845D01*
X153457239Y-63444694D01*
X153448680Y-63439564D01*
X153120100Y-63242620D01*
X152764772Y-63074562D01*
X152764770Y-63074561D01*
X152394684Y-62942143D01*
X152013406Y-62846637D01*
X152013401Y-62846636D01*
X152013400Y-62846636D01*
X151855925Y-62823277D01*
X151624599Y-62788963D01*
X151624597Y-62788962D01*
X151624591Y-62788962D01*
X151232000Y-62769675D01*
X150839409Y-62788962D01*
X150839403Y-62788962D01*
X150839400Y-62788963D01*
X150450593Y-62846637D01*
X150069315Y-62942143D01*
X149699229Y-63074561D01*
X149699227Y-63074562D01*
X149343899Y-63242620D01*
X149006763Y-63444692D01*
X148691043Y-63678846D01*
X148563309Y-63794618D01*
X148500417Y-63825054D01*
X148431054Y-63816655D01*
X148377242Y-63772090D01*
X148360261Y-63734833D01*
X148344995Y-63677861D01*
X148309575Y-63545670D01*
X148217102Y-63347362D01*
X148217100Y-63347359D01*
X148217099Y-63347357D01*
X148091599Y-63168124D01*
X148050443Y-63126968D01*
X147936877Y-63013402D01*
X147757639Y-62887898D01*
X147757640Y-62887898D01*
X147757638Y-62887897D01*
X147639601Y-62832856D01*
X147559330Y-62795425D01*
X147559326Y-62795424D01*
X147559322Y-62795422D01*
X147347977Y-62738793D01*
X147130002Y-62719723D01*
X147129998Y-62719723D01*
X146984682Y-62732436D01*
X146912023Y-62738793D01*
X146912020Y-62738793D01*
X146700677Y-62795422D01*
X146700668Y-62795426D01*
X146502361Y-62887898D01*
X146502357Y-62887900D01*
X146323121Y-63013402D01*
X146168402Y-63168121D01*
X146042900Y-63347357D01*
X146042898Y-63347361D01*
X145950426Y-63545668D01*
X145950422Y-63545677D01*
X145893793Y-63757020D01*
X145893793Y-63757024D01*
X145874723Y-63974997D01*
X145874723Y-63975002D01*
X145893793Y-64192975D01*
X145893793Y-64192979D01*
X145950422Y-64404322D01*
X145950424Y-64404326D01*
X145950425Y-64404330D01*
X145996661Y-64503484D01*
X146042897Y-64602638D01*
X146067998Y-64638486D01*
X146168402Y-64781877D01*
X146323123Y-64936598D01*
X146502361Y-65062102D01*
X146700670Y-65154575D01*
X146912023Y-65211207D01*
X147094926Y-65227208D01*
X147129998Y-65230277D01*
X147130000Y-65230277D01*
X147130002Y-65230277D01*
X147254728Y-65219365D01*
X147347977Y-65211207D01*
X147347977Y-65211206D01*
X147353370Y-65210735D01*
X147353525Y-65212517D01*
X147415009Y-65219365D01*
X147469244Y-65263414D01*
X147491055Y-65329792D01*
X147483870Y-65375518D01*
X147399143Y-65612315D01*
X147303637Y-65993593D01*
X147254686Y-66323599D01*
X147245962Y-66382409D01*
X147243350Y-66435584D01*
X147220399Y-66501577D01*
X147165413Y-66544685D01*
X147095850Y-66551223D01*
X147033795Y-66519114D01*
X146998951Y-66458553D01*
X146995499Y-66429499D01*
X146995499Y-66017129D01*
X146995498Y-66017123D01*
X146995497Y-66017116D01*
X146989091Y-65957517D01*
X146975507Y-65921097D01*
X146938797Y-65822671D01*
X146938793Y-65822664D01*
X146852547Y-65707455D01*
X146852544Y-65707452D01*
X146737335Y-65621206D01*
X146737328Y-65621202D01*
X146602482Y-65570908D01*
X146602483Y-65570908D01*
X146542883Y-65564501D01*
X146542881Y-65564500D01*
X146542873Y-65564500D01*
X146542864Y-65564500D01*
X144947129Y-65564500D01*
X144947123Y-65564501D01*
X144887516Y-65570908D01*
X144752671Y-65621202D01*
X144752664Y-65621206D01*
X144637455Y-65707452D01*
X144637452Y-65707455D01*
X144551206Y-65822664D01*
X144551202Y-65822671D01*
X144500908Y-65957517D01*
X144494501Y-66017116D01*
X144494501Y-66017123D01*
X144494500Y-66017135D01*
X143890610Y-66017135D01*
X143867068Y-65993593D01*
X143781877Y-65908402D01*
X143602639Y-65782898D01*
X143602640Y-65782898D01*
X143602638Y-65782897D01*
X143503484Y-65736661D01*
X143404330Y-65690425D01*
X143404326Y-65690424D01*
X143404322Y-65690422D01*
X143192977Y-65633793D01*
X142975002Y-65614723D01*
X142974998Y-65614723D01*
X142829682Y-65627436D01*
X142757023Y-65633793D01*
X142757020Y-65633793D01*
X142545677Y-65690422D01*
X142545668Y-65690426D01*
X142347361Y-65782898D01*
X142347357Y-65782900D01*
X142168121Y-65908402D01*
X142013402Y-66063121D01*
X141887900Y-66242357D01*
X141887898Y-66242361D01*
X141795426Y-66440668D01*
X141795423Y-66440674D01*
X141751332Y-66605227D01*
X141714967Y-66664887D01*
X141652120Y-66695416D01*
X141582744Y-66687121D01*
X141528866Y-66642636D01*
X141507706Y-66579219D01*
X141498038Y-66382409D01*
X141440364Y-65993600D01*
X141344857Y-65612316D01*
X141261002Y-65377955D01*
X141256951Y-65308203D01*
X141291253Y-65247334D01*
X141353019Y-65214673D01*
X141388555Y-65212653D01*
X141571167Y-65228629D01*
X141589999Y-65230277D01*
X141590000Y-65230277D01*
X141590002Y-65230277D01*
X141618254Y-65227805D01*
X141807977Y-65211207D01*
X142019330Y-65154575D01*
X142217639Y-65062102D01*
X142396877Y-64936598D01*
X142551598Y-64781877D01*
X142677102Y-64602639D01*
X142769575Y-64404330D01*
X142826207Y-64192977D01*
X142844947Y-63978769D01*
X142845277Y-63975002D01*
X142845277Y-63974997D01*
X143104723Y-63974997D01*
X143104723Y-63975002D01*
X143123793Y-64192975D01*
X143123793Y-64192979D01*
X143180422Y-64404322D01*
X143180424Y-64404326D01*
X143180425Y-64404330D01*
X143226661Y-64503484D01*
X143272897Y-64602638D01*
X143297998Y-64638486D01*
X143398402Y-64781877D01*
X143553123Y-64936598D01*
X143732361Y-65062102D01*
X143930670Y-65154575D01*
X144142023Y-65211207D01*
X144324926Y-65227208D01*
X144359998Y-65230277D01*
X144360000Y-65230277D01*
X144360002Y-65230277D01*
X144388254Y-65227805D01*
X144577977Y-65211207D01*
X144789330Y-65154575D01*
X144987639Y-65062102D01*
X145166877Y-64936598D01*
X145321598Y-64781877D01*
X145447102Y-64602639D01*
X145539575Y-64404330D01*
X145596207Y-64192977D01*
X145614947Y-63978769D01*
X145615277Y-63975002D01*
X145615277Y-63974997D01*
X145609349Y-63907246D01*
X145596207Y-63757023D01*
X145539575Y-63545670D01*
X145447102Y-63347362D01*
X145447100Y-63347359D01*
X145447099Y-63347357D01*
X145321599Y-63168124D01*
X145280443Y-63126968D01*
X145166877Y-63013402D01*
X144987639Y-62887898D01*
X144987640Y-62887898D01*
X144987638Y-62887897D01*
X144869601Y-62832856D01*
X144789330Y-62795425D01*
X144789326Y-62795424D01*
X144789322Y-62795422D01*
X144577977Y-62738793D01*
X144360002Y-62719723D01*
X144359998Y-62719723D01*
X144214682Y-62732436D01*
X144142023Y-62738793D01*
X144142020Y-62738793D01*
X143930677Y-62795422D01*
X143930668Y-62795426D01*
X143732361Y-62887898D01*
X143732357Y-62887900D01*
X143553121Y-63013402D01*
X143398402Y-63168121D01*
X143272900Y-63347357D01*
X143272898Y-63347361D01*
X143180426Y-63545668D01*
X143180422Y-63545677D01*
X143123793Y-63757020D01*
X143123793Y-63757024D01*
X143104723Y-63974997D01*
X142845277Y-63974997D01*
X142839349Y-63907246D01*
X142826207Y-63757023D01*
X142769575Y-63545670D01*
X142677102Y-63347362D01*
X142677100Y-63347359D01*
X142677099Y-63347357D01*
X142551599Y-63168124D01*
X142510443Y-63126968D01*
X142396877Y-63013402D01*
X142217639Y-62887898D01*
X142217640Y-62887898D01*
X142217638Y-62887897D01*
X142099601Y-62832856D01*
X142019330Y-62795425D01*
X142019326Y-62795424D01*
X142019322Y-62795422D01*
X141807977Y-62738793D01*
X141590002Y-62719723D01*
X141589998Y-62719723D01*
X141444682Y-62732436D01*
X141372023Y-62738793D01*
X141372020Y-62738793D01*
X141160677Y-62795422D01*
X141160668Y-62795426D01*
X140962361Y-62887898D01*
X140962357Y-62887900D01*
X140783121Y-63013402D01*
X140628402Y-63168121D01*
X140502900Y-63347357D01*
X140502898Y-63347361D01*
X140410426Y-63545668D01*
X140410423Y-63545674D01*
X140364428Y-63717332D01*
X140328063Y-63776992D01*
X140265216Y-63807521D01*
X140195840Y-63799226D01*
X140161380Y-63777116D01*
X140052956Y-63678846D01*
X140051606Y-63677845D01*
X139737239Y-63444694D01*
X139728680Y-63439564D01*
X139400100Y-63242620D01*
X139044772Y-63074562D01*
X139044770Y-63074561D01*
X138674684Y-62942143D01*
X138293406Y-62846637D01*
X138293401Y-62846636D01*
X138293400Y-62846636D01*
X138135925Y-62823277D01*
X137904599Y-62788963D01*
X137904597Y-62788962D01*
X137904591Y-62788962D01*
X137512000Y-62769675D01*
X137119409Y-62788962D01*
X137119403Y-62788962D01*
X137119400Y-62788963D01*
X136730593Y-62846637D01*
X136349315Y-62942143D01*
X135979229Y-63074561D01*
X135979227Y-63074562D01*
X135623899Y-63242620D01*
X135286763Y-63444692D01*
X134971043Y-63678846D01*
X134679807Y-63942807D01*
X134415846Y-64234043D01*
X134181692Y-64549763D01*
X133979620Y-64886899D01*
X133811562Y-65242227D01*
X133811561Y-65242229D01*
X133679143Y-65612315D01*
X133583637Y-65993593D01*
X133534686Y-66323599D01*
X133525962Y-66382409D01*
X133506675Y-66775000D01*
X130381349Y-66775000D01*
X130430436Y-66507142D01*
X130450527Y-66175000D01*
X130430436Y-65842858D01*
X130370456Y-65515559D01*
X130291885Y-65263414D01*
X130271469Y-65197895D01*
X130271467Y-65197890D01*
X130271463Y-65197877D01*
X130134898Y-64894443D01*
X129962754Y-64609682D01*
X129962751Y-64609678D01*
X129962748Y-64609673D01*
X129757539Y-64347744D01*
X129522255Y-64112460D01*
X129260326Y-63907251D01*
X129260318Y-63907246D01*
X128975557Y-63735102D01*
X128672123Y-63598537D01*
X128672116Y-63598534D01*
X128672104Y-63598530D01*
X128354449Y-63499546D01*
X128354445Y-63499545D01*
X128354441Y-63499544D01*
X128027142Y-63439564D01*
X128027141Y-63439563D01*
X128027136Y-63439563D01*
X127695000Y-63419473D01*
X127362863Y-63439563D01*
X127299786Y-63451122D01*
X127035559Y-63499544D01*
X127035556Y-63499544D01*
X127035550Y-63499546D01*
X126717895Y-63598530D01*
X126717879Y-63598536D01*
X126717877Y-63598537D01*
X126541662Y-63677845D01*
X126415041Y-63734833D01*
X126414443Y-63735102D01*
X126344943Y-63777116D01*
X126129673Y-63907251D01*
X125867744Y-64112460D01*
X125632460Y-64347744D01*
X125427251Y-64609673D01*
X125323148Y-64781881D01*
X125273124Y-64864632D01*
X125255101Y-64894445D01*
X125255100Y-64894447D01*
X125205498Y-65004656D01*
X125141104Y-65147737D01*
X125118536Y-65197880D01*
X125118530Y-65197895D01*
X125019546Y-65515550D01*
X125019544Y-65515556D01*
X125019544Y-65515559D01*
X124987498Y-65690426D01*
X124959563Y-65842863D01*
X124939473Y-66175000D01*
X102457078Y-66175000D01*
X102479816Y-66152262D01*
X102575789Y-65999522D01*
X102635368Y-65829255D01*
X102640591Y-65782898D01*
X102655565Y-65650003D01*
X102655565Y-65649996D01*
X102635369Y-65470750D01*
X102635368Y-65470745D01*
X102602899Y-65377955D01*
X102575789Y-65300478D01*
X102479816Y-65147738D01*
X102352262Y-65020184D01*
X102199523Y-64924211D01*
X102029254Y-64864631D01*
X102029249Y-64864630D01*
X101850004Y-64844435D01*
X101849996Y-64844435D01*
X101670750Y-64864630D01*
X101670745Y-64864631D01*
X101500476Y-64924211D01*
X101347737Y-65020184D01*
X101220184Y-65147737D01*
X101124211Y-65300476D01*
X101064631Y-65470745D01*
X101064630Y-65470750D01*
X101044435Y-65649996D01*
X86400000Y-65649996D01*
X86400000Y-61437500D01*
X112404706Y-61437500D01*
X112423853Y-61680797D01*
X112480830Y-61918119D01*
X112574222Y-62143589D01*
X112701737Y-62351673D01*
X112701738Y-62351676D01*
X112701741Y-62351679D01*
X112860241Y-62537259D01*
X113003897Y-62659953D01*
X113045823Y-62695761D01*
X113045826Y-62695762D01*
X113253910Y-62823277D01*
X113479381Y-62916669D01*
X113479378Y-62916669D01*
X113479384Y-62916670D01*
X113479388Y-62916672D01*
X113716698Y-62973646D01*
X113960000Y-62992794D01*
X114203302Y-62973646D01*
X114440612Y-62916672D01*
X114666089Y-62823277D01*
X114874179Y-62695759D01*
X115059759Y-62537259D01*
X115218259Y-62351679D01*
X115311209Y-62199998D01*
X180644518Y-62199998D01*
X180644518Y-62200001D01*
X180664422Y-62478299D01*
X180721090Y-62738793D01*
X180723729Y-62750923D01*
X180774818Y-62887898D01*
X180821231Y-63012338D01*
X180821233Y-63012342D01*
X180954940Y-63257207D01*
X180954945Y-63257215D01*
X181122138Y-63480560D01*
X181122154Y-63480578D01*
X181319421Y-63677845D01*
X181319439Y-63677861D01*
X181542784Y-63845054D01*
X181542792Y-63845059D01*
X181787657Y-63978766D01*
X181787661Y-63978768D01*
X181787663Y-63978769D01*
X182049077Y-64076271D01*
X182185391Y-64105924D01*
X182321700Y-64135577D01*
X182321702Y-64135577D01*
X182321706Y-64135578D01*
X182569014Y-64153265D01*
X182599999Y-64155482D01*
X182600000Y-64155482D01*
X182600001Y-64155482D01*
X182627881Y-64153487D01*
X182878294Y-64135578D01*
X183150923Y-64076271D01*
X183412337Y-63978769D01*
X183657213Y-63845056D01*
X183880568Y-63677855D01*
X184077855Y-63480568D01*
X184245056Y-63257213D01*
X184378769Y-63012337D01*
X184476271Y-62750923D01*
X184535578Y-62478294D01*
X184555482Y-62200000D01*
X184555482Y-62199998D01*
X185644518Y-62199998D01*
X185644518Y-62200001D01*
X185664422Y-62478299D01*
X185721090Y-62738793D01*
X185723729Y-62750923D01*
X185774818Y-62887898D01*
X185821231Y-63012338D01*
X185821233Y-63012342D01*
X185954940Y-63257207D01*
X185954945Y-63257215D01*
X186122138Y-63480560D01*
X186122154Y-63480578D01*
X186319421Y-63677845D01*
X186319439Y-63677861D01*
X186542784Y-63845054D01*
X186542792Y-63845059D01*
X186787657Y-63978766D01*
X186787661Y-63978768D01*
X186787663Y-63978769D01*
X187049077Y-64076271D01*
X187185391Y-64105924D01*
X187321700Y-64135577D01*
X187321702Y-64135577D01*
X187321706Y-64135578D01*
X187569014Y-64153265D01*
X187599999Y-64155482D01*
X187600000Y-64155482D01*
X187600001Y-64155482D01*
X187627881Y-64153487D01*
X187878294Y-64135578D01*
X188150923Y-64076271D01*
X188412337Y-63978769D01*
X188657213Y-63845056D01*
X188880568Y-63677855D01*
X189077855Y-63480568D01*
X189245056Y-63257213D01*
X189378769Y-63012337D01*
X189476271Y-62750923D01*
X189535578Y-62478294D01*
X189555482Y-62200000D01*
X189535578Y-61921706D01*
X189476271Y-61649077D01*
X189397357Y-61437500D01*
X191129706Y-61437500D01*
X191148853Y-61680797D01*
X191205830Y-61918119D01*
X191299222Y-62143589D01*
X191426737Y-62351673D01*
X191426738Y-62351676D01*
X191426741Y-62351679D01*
X191585241Y-62537259D01*
X191728897Y-62659953D01*
X191770823Y-62695761D01*
X191770826Y-62695762D01*
X191978910Y-62823277D01*
X192204381Y-62916669D01*
X192204378Y-62916669D01*
X192204384Y-62916670D01*
X192204388Y-62916672D01*
X192441698Y-62973646D01*
X192685000Y-62992794D01*
X192928302Y-62973646D01*
X193165612Y-62916672D01*
X193391089Y-62823277D01*
X193599179Y-62695759D01*
X193784759Y-62537259D01*
X193943259Y-62351679D01*
X194070777Y-62143589D01*
X194164172Y-61918112D01*
X194221146Y-61680802D01*
X194240294Y-61437500D01*
X194221146Y-61194198D01*
X194164172Y-60956888D01*
X194164169Y-60956880D01*
X194070777Y-60731410D01*
X193943262Y-60523326D01*
X193943261Y-60523323D01*
X193907453Y-60481397D01*
X193784759Y-60337741D01*
X193662063Y-60232949D01*
X193599176Y-60179238D01*
X193599173Y-60179237D01*
X193391089Y-60051722D01*
X193165618Y-59958330D01*
X193165621Y-59958330D01*
X193059992Y-59932970D01*
X192928302Y-59901354D01*
X192928300Y-59901353D01*
X192928297Y-59901353D01*
X192685000Y-59882206D01*
X192441702Y-59901353D01*
X192204380Y-59958330D01*
X191978910Y-60051722D01*
X191770826Y-60179237D01*
X191770823Y-60179238D01*
X191585241Y-60337741D01*
X191426738Y-60523323D01*
X191426737Y-60523326D01*
X191299222Y-60731410D01*
X191205830Y-60956880D01*
X191148853Y-61194202D01*
X191129706Y-61437500D01*
X189397357Y-61437500D01*
X189378769Y-61387663D01*
X189290078Y-61225239D01*
X189245059Y-61142792D01*
X189245054Y-61142784D01*
X189077861Y-60919439D01*
X189077845Y-60919421D01*
X188880578Y-60722154D01*
X188880560Y-60722138D01*
X188657215Y-60554945D01*
X188657207Y-60554940D01*
X188412342Y-60421233D01*
X188412338Y-60421231D01*
X188313230Y-60384266D01*
X188150923Y-60323729D01*
X188150919Y-60323728D01*
X188150916Y-60323727D01*
X187878299Y-60264422D01*
X187600001Y-60244518D01*
X187599999Y-60244518D01*
X187321700Y-60264422D01*
X187049083Y-60323727D01*
X187049078Y-60323728D01*
X187049077Y-60323729D01*
X187011509Y-60337741D01*
X186787661Y-60421231D01*
X186787657Y-60421233D01*
X186542792Y-60554940D01*
X186542784Y-60554945D01*
X186319439Y-60722138D01*
X186319421Y-60722154D01*
X186122154Y-60919421D01*
X186122138Y-60919439D01*
X185954945Y-61142784D01*
X185954940Y-61142792D01*
X185821233Y-61387657D01*
X185821231Y-61387661D01*
X185723727Y-61649083D01*
X185664422Y-61921700D01*
X185644518Y-62199998D01*
X184555482Y-62199998D01*
X184535578Y-61921706D01*
X184476271Y-61649077D01*
X184378769Y-61387663D01*
X184290078Y-61225239D01*
X184245059Y-61142792D01*
X184245054Y-61142784D01*
X184077861Y-60919439D01*
X184077845Y-60919421D01*
X183880578Y-60722154D01*
X183880560Y-60722138D01*
X183657215Y-60554945D01*
X183657207Y-60554940D01*
X183412342Y-60421233D01*
X183412338Y-60421231D01*
X183313230Y-60384266D01*
X183150923Y-60323729D01*
X183150919Y-60323728D01*
X183150916Y-60323727D01*
X182878299Y-60264422D01*
X182600001Y-60244518D01*
X182599999Y-60244518D01*
X182321700Y-60264422D01*
X182049083Y-60323727D01*
X182049078Y-60323728D01*
X182049077Y-60323729D01*
X182011509Y-60337741D01*
X181787661Y-60421231D01*
X181787657Y-60421233D01*
X181542792Y-60554940D01*
X181542784Y-60554945D01*
X181319439Y-60722138D01*
X181319421Y-60722154D01*
X181122154Y-60919421D01*
X181122138Y-60919439D01*
X180954945Y-61142784D01*
X180954940Y-61142792D01*
X180821233Y-61387657D01*
X180821231Y-61387661D01*
X180723727Y-61649083D01*
X180664422Y-61921700D01*
X180644518Y-62199998D01*
X115311209Y-62199998D01*
X115345777Y-62143589D01*
X115439172Y-61918112D01*
X115496146Y-61680802D01*
X115515294Y-61437500D01*
X115496146Y-61194198D01*
X115439172Y-60956888D01*
X115439169Y-60956880D01*
X115345777Y-60731410D01*
X115218262Y-60523326D01*
X115218261Y-60523323D01*
X115182453Y-60481397D01*
X115059759Y-60337741D01*
X114937063Y-60232949D01*
X114874176Y-60179238D01*
X114874173Y-60179237D01*
X114666089Y-60051722D01*
X114440618Y-59958330D01*
X114440621Y-59958330D01*
X114334992Y-59932970D01*
X114203302Y-59901354D01*
X114203300Y-59901353D01*
X114203297Y-59901353D01*
X113960000Y-59882206D01*
X113716702Y-59901353D01*
X113479380Y-59958330D01*
X113253910Y-60051722D01*
X113045826Y-60179237D01*
X113045823Y-60179238D01*
X112860241Y-60337741D01*
X112701738Y-60523323D01*
X112701737Y-60523326D01*
X112574222Y-60731410D01*
X112480830Y-60956880D01*
X112423853Y-61194202D01*
X112404706Y-61437500D01*
X86400000Y-61437500D01*
X86400000Y-56449996D01*
X103694435Y-56449996D01*
X103694435Y-56450003D01*
X103714630Y-56629249D01*
X103714631Y-56629254D01*
X103774211Y-56799523D01*
X103870184Y-56952262D01*
X103997738Y-57079816D01*
X104150478Y-57175789D01*
X104320745Y-57235368D01*
X104320750Y-57235369D01*
X104499996Y-57255565D01*
X104500000Y-57255565D01*
X104500004Y-57255565D01*
X104679249Y-57235369D01*
X104679252Y-57235368D01*
X104679255Y-57235368D01*
X104849522Y-57175789D01*
X105002262Y-57079816D01*
X105129816Y-56952262D01*
X105225789Y-56799522D01*
X105285368Y-56629255D01*
X105285369Y-56629249D01*
X105305565Y-56450003D01*
X105305565Y-56449996D01*
X105285369Y-56270750D01*
X105285368Y-56270745D01*
X105225788Y-56100476D01*
X105129815Y-55947737D01*
X105002262Y-55820184D01*
X104849523Y-55724211D01*
X104679254Y-55664631D01*
X104679249Y-55664630D01*
X104500004Y-55644435D01*
X104499996Y-55644435D01*
X104320750Y-55664630D01*
X104320745Y-55664631D01*
X104150476Y-55724211D01*
X103997737Y-55820184D01*
X103870184Y-55947737D01*
X103774211Y-56100476D01*
X103714631Y-56270745D01*
X103714630Y-56270750D01*
X103694435Y-56449996D01*
X86400000Y-56449996D01*
X86400000Y-54274000D01*
X86419685Y-54206961D01*
X86472489Y-54161206D01*
X86524000Y-54150000D01*
X223826000Y-54150000D01*
X223893039Y-54169685D01*
G37*
%TD.AperFunction*%
%TD*%
%TA.AperFunction,Conductor*%
%TO.N,GND*%
G36*
X188750000Y-100350000D02*
G01*
X184884432Y-100350000D01*
X184827181Y-100173799D01*
X184827180Y-100173798D01*
X184827179Y-100173793D01*
X184732533Y-100009861D01*
X184605871Y-99869189D01*
X184605870Y-99869188D01*
X184452734Y-99757928D01*
X184452729Y-99757925D01*
X184279807Y-99680934D01*
X184279802Y-99680932D01*
X184134001Y-99649942D01*
X184094646Y-99641577D01*
X183905354Y-99641577D01*
X183872897Y-99648475D01*
X183720197Y-99680932D01*
X183720192Y-99680934D01*
X183547270Y-99757925D01*
X183547265Y-99757928D01*
X183394129Y-99869188D01*
X183267466Y-100009862D01*
X183172821Y-100173792D01*
X183172818Y-100173799D01*
X183115567Y-100350000D01*
X178735893Y-100350000D01*
X178678642Y-100173799D01*
X178678641Y-100173798D01*
X178678640Y-100173793D01*
X178583994Y-100009861D01*
X178457332Y-99869189D01*
X178457331Y-99869188D01*
X178304195Y-99757928D01*
X178304190Y-99757925D01*
X178131268Y-99680934D01*
X178131263Y-99680932D01*
X177985462Y-99649942D01*
X177946107Y-99641577D01*
X177756815Y-99641577D01*
X177724358Y-99648475D01*
X177571658Y-99680932D01*
X177571653Y-99680934D01*
X177398731Y-99757925D01*
X177398726Y-99757928D01*
X177245590Y-99869188D01*
X177118927Y-100009862D01*
X177024282Y-100173792D01*
X177024279Y-100173799D01*
X176967028Y-100350000D01*
X176000000Y-100350000D01*
X176000000Y-94300500D01*
X180966614Y-94300500D01*
X181033653Y-94320185D01*
X181039499Y-94324182D01*
X181173649Y-94421648D01*
X181173654Y-94421651D01*
X181346576Y-94498642D01*
X181346581Y-94498644D01*
X181531738Y-94538000D01*
X181531739Y-94538000D01*
X181721028Y-94538000D01*
X181721030Y-94538000D01*
X181906187Y-94498644D01*
X182079114Y-94421651D01*
X182144449Y-94374181D01*
X182210256Y-94350702D01*
X182217335Y-94350500D01*
X187123025Y-94350500D01*
X187190064Y-94370185D01*
X187195910Y-94374182D01*
X187347265Y-94484148D01*
X187347270Y-94484151D01*
X187520192Y-94561142D01*
X187520197Y-94561144D01*
X187705354Y-94600500D01*
X187705355Y-94600500D01*
X187894644Y-94600500D01*
X187894646Y-94600500D01*
X188079803Y-94561144D01*
X188252730Y-94484151D01*
X188405871Y-94372888D01*
X188532533Y-94232216D01*
X188627179Y-94068284D01*
X188665612Y-93950000D01*
X188750000Y-93950000D01*
X188750000Y-100350000D01*
G37*
%TD.AperFunction*%
%TD*%
%TA.AperFunction,Conductor*%
%TO.N,V_{M}*%
G36*
X177019054Y-75725584D02*
G01*
X177086066Y-75745352D01*
X177112322Y-75770181D01*
X177113119Y-75769464D01*
X177117466Y-75774292D01*
X177117467Y-75774293D01*
X177184872Y-75849154D01*
X177244129Y-75914965D01*
X177397265Y-76026225D01*
X177397270Y-76026228D01*
X177570192Y-76103219D01*
X177570197Y-76103221D01*
X177755354Y-76142577D01*
X177755355Y-76142577D01*
X177944644Y-76142577D01*
X177944646Y-76142577D01*
X178129803Y-76103221D01*
X178302730Y-76026228D01*
X178455871Y-75914965D01*
X178582533Y-75774293D01*
X178582532Y-75774293D01*
X178586882Y-75769463D01*
X178588962Y-75771336D01*
X178634471Y-75736157D01*
X178679744Y-75727655D01*
X183175472Y-75733261D01*
X183242482Y-75753028D01*
X183267463Y-75774288D01*
X183267466Y-75774291D01*
X183267467Y-75774293D01*
X183357361Y-75874130D01*
X183394129Y-75914965D01*
X183547265Y-76026225D01*
X183547270Y-76026228D01*
X183720192Y-76103219D01*
X183720197Y-76103221D01*
X183905354Y-76142577D01*
X183905355Y-76142577D01*
X184094644Y-76142577D01*
X184094646Y-76142577D01*
X184279803Y-76103221D01*
X184452730Y-76026228D01*
X184605871Y-75914965D01*
X184730689Y-75776340D01*
X184790173Y-75739693D01*
X184822981Y-75735315D01*
X196475869Y-75749845D01*
X196542883Y-75769613D01*
X196588573Y-75822474D01*
X196599714Y-75874130D01*
X196590284Y-79976285D01*
X196570445Y-80043279D01*
X196517536Y-80088912D01*
X196466284Y-80100000D01*
X193550000Y-80100000D01*
X189077177Y-85594332D01*
X189019587Y-85633895D01*
X188981112Y-85640047D01*
X188601025Y-85640351D01*
X188533970Y-85620720D01*
X188508778Y-85599325D01*
X188405871Y-85485035D01*
X188344625Y-85440537D01*
X188252734Y-85373774D01*
X188252729Y-85373771D01*
X188079807Y-85296780D01*
X188079802Y-85296778D01*
X187934001Y-85265788D01*
X187894646Y-85257423D01*
X187705354Y-85257423D01*
X187672897Y-85264321D01*
X187520197Y-85296778D01*
X187520192Y-85296780D01*
X187347270Y-85373771D01*
X187347265Y-85373774D01*
X187194129Y-85485034D01*
X187090068Y-85600606D01*
X187030581Y-85637255D01*
X186998017Y-85641634D01*
X183404771Y-85644510D01*
X183337716Y-85624879D01*
X183312522Y-85603483D01*
X183309932Y-85600606D01*
X183205871Y-85485035D01*
X183144625Y-85440537D01*
X183052734Y-85373774D01*
X183052729Y-85373771D01*
X182879807Y-85296780D01*
X182879802Y-85296778D01*
X182734001Y-85265788D01*
X182694646Y-85257423D01*
X182505354Y-85257423D01*
X182472897Y-85264321D01*
X182320197Y-85296778D01*
X182320192Y-85296780D01*
X182147270Y-85373771D01*
X182147265Y-85373774D01*
X181994129Y-85485034D01*
X181994128Y-85485035D01*
X181886315Y-85604773D01*
X181826829Y-85641421D01*
X181794265Y-85645800D01*
X176674099Y-85649900D01*
X176607044Y-85630269D01*
X176561247Y-85577502D01*
X176550000Y-85525900D01*
X176550000Y-82350000D01*
X162949000Y-82350000D01*
X162881961Y-82330315D01*
X162836206Y-82277511D01*
X162825000Y-82226000D01*
X162825000Y-78849000D01*
X162844685Y-78781961D01*
X162897489Y-78736206D01*
X162949000Y-78725000D01*
X176550000Y-78725000D01*
X176550000Y-75849154D01*
X176569685Y-75782115D01*
X176622489Y-75736360D01*
X176674151Y-75725154D01*
X177019054Y-75725584D01*
G37*
%TD.AperFunction*%
%TD*%
M02*
