M48
; DRILL file {KiCad 8.0.4} date 2024-10-18T00:11:27-0600
; FORMAT={-:-/ absolute / metric / decimal}
; #@! TF.CreationDate,2024-10-18T00:11:27-06:00
; #@! TF.GenerationSoftware,Kicad,Pcbnew,8.0.4
; #@! TF.FileFunction,MixedPlating,1,4
FMAT,2
METRIC
; #@! TA.AperFunction,Plated,PTH,ViaDrill
T1C0.300
; #@! TA.AperFunction,Plated,PTH,ComponentDrill
T2C0.300
; #@! TA.AperFunction,Plated,PTH,ViaDrill
T3C0.500
; #@! TA.AperFunction,Plated,PTH,ComponentDrill
T4C0.500
; #@! TA.AperFunction,Plated,PTH,ComponentDrill
T5C1.000
; #@! TA.AperFunction,Plated,PTH,ComponentDrill
T6C1.100
; #@! TA.AperFunction,Plated,PTH,ComponentDrill
T7C1.400
; #@! TA.AperFunction,Plated,PTH,ComponentDrill
T8C2.000
; #@! TA.AperFunction,Plated,PTH,ComponentDrill
T9C3.000
; #@! TA.AperFunction,Plated,PTH,ComponentDrill
T10C3.500
; #@! TA.AperFunction,Plated,PTH,ComponentDrill
T11C4.300
; #@! TA.AperFunction,NonPlated,NPTH,ComponentDrill
T12C1.100
%
G90
G05
T1
X98.16Y-81.112
X100.6Y-74.662
X101.175Y-73.662
X101.85Y-65.65
X104.5Y-56.45
X152.3Y-91.4
X158.629Y-99.674
X158.75Y-89.35
X159.141Y-99.06
X159.341Y-100.26
X159.5Y-88.95
X160.098Y-88.419
X162.65Y-97.7
X162.7Y-98.9
X163.85Y-96.55
X163.85Y-97.75
X163.85Y-98.9
X163.9Y-100.1
X164.45Y-98.35
X165.05Y-96.55
X165.05Y-97.75
X165.05Y-98.95
X165.05Y-100.1
X166.25Y-97.75
X166.25Y-98.95
X167.925Y-106.325
X168.3Y-67.25
X170.7Y-61.75
X171.75Y-74.7
X172.924Y-100.292
X183.0Y-120.7
X187.8Y-88.39
X201.55Y-82.8
X201.55Y-103.425
X201.55Y-123.88
X206.95Y-82.8
X206.95Y-103.425
X206.95Y-123.88
T2
X98.9Y-68.4
X98.9Y-69.7
X98.9Y-71.0
X100.2Y-68.4
X100.2Y-69.7
X100.2Y-71.0
X101.5Y-68.4
X101.5Y-69.7
X101.5Y-71.0
X102.8Y-68.4
X102.8Y-69.7
X102.8Y-71.0
X104.1Y-68.4
X104.1Y-69.7
X104.1Y-71.0
T3
X122.839Y-113.693
X123.139Y-111.243
X123.789Y-115.393
X130.789Y-124.593
X133.739Y-105.343
X138.35Y-143.85
X142.039Y-116.443
X157.991Y-110.591
X163.23Y-80.47
X163.24Y-113.89
X164.09Y-77.235
X164.09Y-84.8
X164.11Y-110.635
X164.11Y-118.2
X164.42Y-79.6
X164.42Y-81.37
X164.43Y-113.02
X164.43Y-114.79
X164.655Y-76.15
X164.655Y-83.715
X164.675Y-109.55
X164.675Y-117.115
X165.36Y-77.235
X165.36Y-84.8
X165.38Y-110.635
X165.38Y-118.2
X165.925Y-76.15
X165.925Y-83.715
X165.945Y-109.55
X165.945Y-117.115
X166.1Y-80.45
X166.11Y-113.87
X166.498Y-103.043
X166.63Y-77.235
X166.63Y-84.8
X166.65Y-110.635
X166.65Y-118.2
X167.195Y-76.15
X167.195Y-83.715
X167.215Y-109.55
X167.215Y-117.115
X167.8Y-79.61
X167.8Y-81.44
X167.81Y-113.03
X167.81Y-114.86
X167.9Y-77.235
X167.9Y-84.8
X167.92Y-110.635
X167.92Y-118.2
X168.263Y-101.404
X168.465Y-76.15
X168.465Y-83.715
X168.485Y-109.55
X168.485Y-117.115
X168.701Y-105.777
X169.147Y-96.168
X169.17Y-77.235
X169.17Y-84.8
X169.19Y-118.2
X169.484Y-93.233
X169.49Y-80.46
X169.5Y-113.88
X169.735Y-76.15
X169.735Y-83.715
X169.755Y-117.115
X169.773Y-99.35
X170.44Y-77.235
X170.44Y-84.8
X170.46Y-118.2
X170.557Y-108.107
X170.712Y-103.724
X171.005Y-76.15
X171.005Y-83.715
X171.025Y-117.115
X171.18Y-81.42
X171.19Y-79.6
X171.45Y-102.9
X171.71Y-77.235
X171.71Y-84.8
X171.73Y-110.635
X171.73Y-118.2
X172.2Y-73.85
X172.275Y-76.15
X172.275Y-83.715
X172.295Y-109.55
X172.295Y-117.115
X172.651Y-97.249
X172.88Y-80.49
X172.919Y-93.547
X172.98Y-77.235
X172.98Y-84.8
X173.0Y-110.635
X173.0Y-118.2
X173.062Y-105.838
X173.191Y-95.344
X173.4Y-101.9
X173.545Y-76.15
X173.545Y-83.715
X173.565Y-109.55
X173.85Y-113.05
X174.188Y-100.088
X174.25Y-77.235
X174.25Y-84.8
X174.27Y-110.635
X174.56Y-79.53
X174.56Y-81.38
X174.815Y-76.15
X174.815Y-83.715
X175.6Y-103.15
X176.3Y-80.45
X176.8Y-131.575
X176.84Y-98.25
X177.385Y-130.36
X177.425Y-97.035
X177.73Y-78.67
X177.73Y-81.21
X177.73Y-83.75
X177.8Y-76.35
X177.806Y-108.367
X177.85Y-75.242
X177.851Y-100.542
X177.887Y-110.734
X177.887Y-113.274
X177.887Y-115.814
X177.95Y-129.275
X177.99Y-95.95
X178.07Y-131.575
X178.11Y-98.25
X178.655Y-130.36
X178.695Y-97.035
X179.0Y-79.94
X179.0Y-82.48
X179.0Y-85.02
X179.0Y-106.35
X179.157Y-109.464
X179.157Y-112.004
X179.157Y-114.544
X179.22Y-129.275
X179.26Y-95.95
X179.34Y-131.575
X179.38Y-98.25
X179.925Y-130.36
X179.965Y-97.035
X180.27Y-78.67
X180.27Y-81.21
X180.27Y-83.75
X180.3Y-76.35
X180.427Y-110.734
X180.427Y-113.274
X180.427Y-115.814
X180.49Y-129.275
X180.53Y-95.95
X180.61Y-131.575
X180.65Y-98.25
X181.195Y-130.36
X181.235Y-97.035
X181.54Y-77.4
X181.54Y-79.94
X181.54Y-82.48
X181.54Y-85.02
X181.59Y-119.387
X181.626Y-93.638
X181.65Y-126.532
X181.697Y-109.464
X181.697Y-112.004
X181.697Y-114.544
X181.697Y-117.084
X181.76Y-129.275
X181.8Y-95.95
X181.88Y-131.575
X181.92Y-98.25
X182.465Y-130.36
X182.505Y-97.035
X182.6Y-86.158
X182.81Y-76.35
X182.81Y-78.67
X182.81Y-81.21
X182.81Y-83.75
X182.968Y-110.734
X182.968Y-113.274
X182.968Y-115.814
X182.968Y-118.354
X183.03Y-129.275
X183.07Y-95.95
X183.15Y-131.575
X183.19Y-98.25
X183.735Y-130.36
X183.775Y-97.035
X183.95Y-108.367
X184.0Y-75.242
X184.0Y-100.542
X184.08Y-77.4
X184.08Y-79.94
X184.08Y-82.48
X184.08Y-85.02
X184.237Y-109.464
X184.237Y-112.004
X184.237Y-114.544
X184.237Y-117.084
X184.3Y-129.275
X184.34Y-95.95
X184.42Y-131.575
X184.46Y-98.25
X185.005Y-130.36
X185.045Y-97.035
X185.35Y-76.35
X185.35Y-78.67
X185.35Y-81.21
X185.35Y-83.75
X185.507Y-110.734
X185.507Y-113.274
X185.507Y-115.814
X185.507Y-118.354
X185.57Y-129.275
X185.61Y-95.95
X185.69Y-131.575
X185.73Y-98.25
X186.275Y-130.36
X186.315Y-97.035
X186.62Y-77.4
X186.62Y-79.94
X186.62Y-82.48
X186.62Y-85.02
X186.778Y-109.464
X186.778Y-112.004
X186.778Y-114.544
X186.778Y-117.084
X186.84Y-129.275
X186.88Y-95.95
X186.96Y-131.575
X187.0Y-98.25
X187.545Y-130.36
X187.585Y-97.035
X187.7Y-76.34
X187.7Y-78.66
X187.7Y-81.2
X187.7Y-83.75
X187.8Y-86.158
X187.8Y-93.7
X187.8Y-126.532
X187.892Y-119.387
X188.11Y-110.69
X188.11Y-113.23
X188.11Y-115.77
X188.11Y-118.31
X188.11Y-129.275
X188.15Y-95.95
X188.97Y-77.39
X188.97Y-79.93
X188.97Y-82.47
X189.38Y-109.42
X189.38Y-111.96
X189.38Y-114.5
X190.2Y-76.34
X190.2Y-78.66
X190.2Y-81.2
X190.65Y-110.69
X190.65Y-113.23
X190.65Y-115.77
X190.65Y-118.31
X191.47Y-77.39
X191.47Y-79.93
X191.92Y-109.42
X191.92Y-111.96
X191.92Y-114.5
X191.92Y-117.04
X192.73Y-76.3
X192.73Y-78.62
X193.19Y-110.69
X193.19Y-113.23
X193.19Y-115.77
X193.19Y-118.31
X194.0Y-77.35
X194.46Y-109.42
X194.46Y-111.96
X194.46Y-114.5
X194.46Y-117.04
X195.4Y-76.3
X195.4Y-78.65
X195.73Y-110.69
X195.73Y-113.23
X195.73Y-115.77
X195.73Y-118.31
X200.075Y-133.45
X200.15Y-92.312
X200.175Y-112.8
X206.725Y-130.3
X206.8Y-89.212
X206.825Y-109.75
X208.175Y-130.3
X208.3Y-89.212
X208.325Y-109.75
X210.7Y-90.0
X215.78Y-94.25
X216.13Y-114.8
X216.365Y-93.035
X216.715Y-113.585
X216.93Y-91.95
X217.05Y-94.25
X217.28Y-112.5
X217.4Y-114.8
X217.635Y-93.035
X217.985Y-113.585
X218.2Y-91.95
X218.32Y-94.25
X218.55Y-112.5
X218.67Y-114.8
X218.905Y-93.035
X219.255Y-113.585
X219.47Y-91.95
X219.59Y-94.25
X219.82Y-112.5
X219.94Y-114.8
X220.175Y-93.035
X220.525Y-113.585
X220.74Y-91.95
X220.86Y-94.25
X221.09Y-112.5
X221.21Y-114.8
X221.445Y-93.035
X221.795Y-113.585
X222.01Y-91.95
X222.13Y-94.25
X222.36Y-112.5
X222.48Y-114.8
X222.715Y-93.035
X223.065Y-113.585
X223.28Y-91.95
X223.4Y-94.25
X223.63Y-112.5
X223.75Y-114.8
X223.985Y-93.035
X224.335Y-113.585
X224.55Y-91.95
X224.67Y-94.25
X224.9Y-112.5
X225.02Y-114.8
X225.255Y-93.035
X225.605Y-113.585
X225.82Y-91.95
X225.94Y-94.25
X226.17Y-112.5
X226.29Y-114.8
X226.525Y-93.035
X226.875Y-113.585
X227.09Y-91.95
X227.44Y-112.5
T4
X221.15Y-59.0
X221.15Y-137.8
X221.919Y-57.144
X221.919Y-60.856
X221.919Y-135.944
X221.919Y-139.656
X223.775Y-56.375
X223.775Y-61.625
X223.775Y-135.175
X223.775Y-140.425
X225.631Y-57.144
X225.631Y-60.856
X225.631Y-135.944
X225.631Y-139.656
X226.4Y-59.0
X226.4Y-137.8
T5
X94.145Y-76.975
X96.685Y-76.975
X99.225Y-76.975
X128.15Y-136.95
X128.15Y-139.49
X128.15Y-142.03
X128.15Y-144.57
X130.8Y-97.37
X130.8Y-99.91
X130.8Y-102.45
X134.5Y-97.37
X134.5Y-99.91
X134.5Y-102.45
X138.2Y-97.37
X138.2Y-99.91
X138.2Y-102.45
X141.59Y-63.975
X141.9Y-97.37
X141.9Y-99.91
X141.9Y-102.45
X142.975Y-66.87
X144.36Y-63.975
X145.6Y-97.37
X145.6Y-99.91
X145.6Y-102.45
X145.745Y-66.815
X147.13Y-63.975
X149.3Y-97.37
X149.3Y-99.91
X149.3Y-102.45
X167.15Y-67.185
X167.15Y-69.725
X170.9Y-67.195
X170.9Y-69.735
T6
X128.66Y-150.425
X131.2Y-150.425
X135.28Y-150.45
X137.82Y-150.45
X140.36Y-150.45
X142.9Y-150.45
X147.0Y-150.45
X149.54Y-150.45
X153.66Y-150.45
X156.2Y-150.45
X158.74Y-150.45
X161.28Y-150.45
X163.82Y-150.45
T7
X113.96Y-61.438
X113.96Y-70.138
X119.04Y-61.438
X119.04Y-70.138
X192.685Y-61.438
X192.685Y-70.138
X197.765Y-61.438
X197.765Y-70.138
T8
X182.6Y-62.2
X182.6Y-69.21
X187.6Y-62.2
X187.6Y-69.21
X202.85Y-62.2
X202.85Y-69.21
X207.85Y-62.2
X207.85Y-69.21
X218.295Y-80.4
X218.295Y-85.4
X218.295Y-121.5
X218.295Y-126.5
X218.345Y-100.9
X218.345Y-105.9
X225.305Y-80.4
X225.305Y-85.4
X225.305Y-121.5
X225.305Y-126.5
X225.355Y-100.9
X225.355Y-105.9
T9
X127.695Y-66.175
X160.995Y-66.175
T10
X223.775Y-59.0
X223.775Y-137.8
T11
X137.512Y-66.775
X151.232Y-66.775
T12
X128.66Y-152.965
X131.2Y-152.965
X147.0Y-152.99
X149.54Y-152.99
M30
