M48
; DRILL file {KiCad 8.0.4} date 2024-09-21T21:36:01-0600
; FORMAT={-:-/ absolute / metric / decimal}
; #@! TF.CreationDate,2024-09-21T21:36:01-06:00
; #@! TF.GenerationSoftware,Kicad,Pcbnew,8.0.4
; #@! TF.FileFunction,MixedPlating,1,4
FMAT,2
METRIC
; #@! TA.AperFunction,Plated,PTH,ComponentDrill
T1C0.200
; #@! TA.AperFunction,Plated,PTH,ViaDrill
T2C0.300
; #@! TA.AperFunction,Plated,PTH,ViaDrill
T3C0.400
; #@! TA.AperFunction,Plated,PTH,ViaDrill
T4C0.500
; #@! TA.AperFunction,Plated,PTH,ComponentDrill
T5C0.500
; #@! TA.AperFunction,Plated,PTH,ComponentDrill
T6C0.600
; #@! TA.AperFunction,Plated,PTH,ComponentDrill
T7C0.650
; #@! TA.AperFunction,Plated,PTH,ComponentDrill
T8C1.000
; #@! TA.AperFunction,Plated,PTH,ComponentDrill
T9C1.100
; #@! TA.AperFunction,Plated,PTH,ComponentDrill
T10C1.200
; #@! TA.AperFunction,Plated,PTH,ComponentDrill
T11C1.400
; #@! TA.AperFunction,Plated,PTH,ComponentDrill
T12C1.900
; #@! TA.AperFunction,Plated,PTH,ComponentDrill
T13C3.000
; #@! TA.AperFunction,Plated,PTH,ComponentDrill
T14C3.500
; #@! TA.AperFunction,Plated,PTH,ComponentDrill
T15C4.300
; #@! TA.AperFunction,NonPlated,NPTH,ComponentDrill
T16C0.650
; #@! TA.AperFunction,NonPlated,NPTH,ComponentDrill
T17C0.800
; #@! TA.AperFunction,NonPlated,NPTH,ComponentDrill
T18C1.100
%
G90
G05
T1
X108.175Y-61.98
X108.175Y-63.08
X108.175Y-64.18
X109.275Y-61.98
X109.275Y-63.08
X109.275Y-64.18
X110.375Y-61.98
X110.375Y-63.08
X110.375Y-64.18
T2
X66.617Y-115.127
X66.632Y-118.147
X66.632Y-129.748
X66.679Y-126.679
X69.032Y-123.947
X69.065Y-112.329
X69.099Y-125.329
X69.196Y-113.833
X69.388Y-116.483
X76.987Y-115.582
X77.233Y-117.614
X77.7Y-118.5
X77.903Y-130.907
X78.087Y-127.882
X78.188Y-115.882
X78.188Y-116.782
X78.888Y-116.382
X80.587Y-114.983
X80.587Y-115.882
X80.587Y-116.782
X80.587Y-117.782
X80.987Y-127.282
X80.987Y-129.382
X82.087Y-127.282
X82.087Y-128.382
X82.087Y-129.382
X83.087Y-127.282
X83.087Y-129.382
X89.3Y-126.3
X89.4Y-129.4
X112.89Y-62.93
X115.4Y-60.85
X126.4Y-95.4
X127.2Y-95.4
X128.0Y-95.4
X128.8Y-95.4
X129.133Y-93.625
X129.4Y-92.35
X129.8Y-93.05
X130.2Y-91.45
X130.2Y-92.3
X138.818Y-128.825
X145.45Y-130.45
X158.629Y-99.674
X159.141Y-99.06
X159.341Y-100.26
X161.941Y-92.36
X162.749Y-92.624
X163.541Y-93.06
X164.773Y-93.75
X169.773Y-99.35
X171.39Y-97.533
X171.97Y-93.162
X172.515Y-96.325
X172.973Y-100.25
X177.5Y-73.875
X177.528Y-99.85
X177.528Y-107.322
X181.338Y-120.5
X181.338Y-127.95
X181.362Y-87.7
X181.37Y-94.5
X183.2Y-107.3
X183.262Y-99.85
X183.4Y-73.9
X187.0Y-128.0
X187.1Y-120.5
X187.105Y-94.5
X187.127Y-87.7
X187.162Y-122.2
X187.195Y-88.75
T3
X76.7Y-125.5
T4
X68.228Y-124.35
X68.287Y-112.782
X68.287Y-131.582
X68.388Y-119.982
X68.582Y-118.893
X68.762Y-126.497
X68.784Y-130.586
X68.832Y-114.905
X69.188Y-128.082
X70.608Y-123.965
X70.608Y-125.414
X70.875Y-134.195
X71.575Y-139.995
X72.787Y-112.282
X72.787Y-113.882
X72.787Y-120.682
X72.888Y-132.382
X73.587Y-130.683
X73.63Y-119.003
X73.688Y-134.183
X74.688Y-111.882
X74.688Y-132.582
X75.432Y-124.147
X75.5Y-120.2
X76.388Y-132.582
X76.787Y-113.082
X76.787Y-119.682
X77.987Y-132.582
X79.075Y-140.095
X79.787Y-135.582
X79.9Y-113.1
X81.388Y-133.582
X81.837Y-135.482
X82.987Y-135.482
X87.087Y-140.683
X90.688Y-138.082
X123.65Y-91.175
X163.358Y-111.15
X163.358Y-116.75
X163.508Y-77.75
X163.758Y-83.35
X164.404Y-84.375
X164.408Y-76.625
X164.431Y-79.6
X164.431Y-81.45
X164.444Y-110.089
X164.46Y-117.739
X165.179Y-111.15
X165.179Y-116.75
X165.329Y-77.75
X165.393Y-83.35
X166.058Y-84.475
X166.1Y-110.089
X166.15Y-117.739
X166.229Y-76.625
X166.498Y-103.043
X166.744Y-111.15
X166.744Y-116.75
X166.894Y-77.75
X166.958Y-83.35
X167.4Y-105.8
X167.79Y-84.375
X167.794Y-76.625
X167.8Y-79.6
X167.8Y-81.45
X167.8Y-117.739
X167.818Y-110.089
X168.263Y-101.404
X168.273Y-94.35
X168.564Y-111.15
X168.564Y-116.75
X168.714Y-77.75
X168.779Y-83.35
X168.994Y-96.239
X169.39Y-105.967
X169.444Y-84.475
X169.45Y-117.739
X169.614Y-76.625
X170.279Y-77.75
X170.344Y-83.35
X170.557Y-107.133
X171.15Y-116.75
X171.15Y-117.739
X171.169Y-79.6
X171.169Y-81.45
X171.176Y-84.375
X171.179Y-76.625
X171.29Y-104.067
X171.95Y-111.15
X172.1Y-77.75
X172.164Y-83.35
X172.8Y-117.739
X172.829Y-84.475
X172.85Y-110.025
X173.0Y-76.625
X173.515Y-111.15
X173.665Y-77.75
X173.729Y-83.35
X174.073Y-101.45
X174.538Y-79.6
X174.538Y-81.45
X174.561Y-84.375
X174.565Y-76.625
X175.15Y-111.15
X175.157Y-102.633
X175.3Y-77.75
X175.55Y-83.35
X176.05Y-110.025
X176.2Y-76.625
X176.2Y-84.4
X177.73Y-76.13
X177.73Y-78.67
X177.73Y-81.21
X177.73Y-83.75
X177.887Y-110.734
X177.887Y-113.274
X177.887Y-115.814
X177.887Y-118.354
X179.0Y-77.4
X179.0Y-79.94
X179.0Y-82.48
X179.0Y-85.02
X179.09Y-60.53
X179.09Y-63.09
X179.09Y-65.63
X179.09Y-68.19
X179.09Y-70.73
X179.157Y-109.464
X179.157Y-112.004
X179.157Y-114.544
X179.157Y-117.084
X180.27Y-76.13
X180.27Y-78.67
X180.27Y-81.21
X180.27Y-83.75
X180.36Y-61.8
X180.36Y-64.36
X180.36Y-66.9
X180.36Y-69.46
X180.36Y-72.0
X180.427Y-110.734
X180.427Y-113.274
X180.427Y-115.814
X180.427Y-118.354
X181.54Y-77.4
X181.54Y-79.94
X181.54Y-82.48
X181.54Y-85.02
X181.63Y-60.53
X181.63Y-63.09
X181.63Y-65.63
X181.63Y-68.19
X181.63Y-70.73
X181.697Y-109.464
X181.697Y-112.004
X181.697Y-114.544
X181.697Y-117.084
X182.81Y-76.13
X182.81Y-78.67
X182.81Y-81.21
X182.81Y-83.75
X182.9Y-61.8
X182.9Y-64.36
X182.9Y-66.9
X182.9Y-69.46
X182.9Y-72.0
X182.968Y-110.734
X182.968Y-113.274
X182.968Y-115.814
X182.968Y-118.354
X184.08Y-77.4
X184.08Y-79.94
X184.08Y-82.48
X184.08Y-85.02
X184.13Y-60.53
X184.13Y-63.09
X184.13Y-65.63
X184.13Y-68.19
X184.13Y-70.73
X184.237Y-109.464
X184.237Y-112.004
X184.237Y-114.544
X184.237Y-117.084
X185.35Y-76.13
X185.35Y-78.67
X185.35Y-81.21
X185.35Y-83.75
X185.4Y-61.8
X185.4Y-64.36
X185.4Y-66.9
X185.4Y-69.46
X185.4Y-72.0
X185.507Y-110.734
X185.507Y-113.274
X185.507Y-115.814
X185.507Y-118.354
X186.6Y-63.09
X186.6Y-65.63
X186.6Y-68.19
X186.62Y-77.4
X186.62Y-79.94
X186.62Y-82.48
X186.62Y-85.02
X186.778Y-109.464
X186.778Y-112.004
X186.778Y-114.544
X186.778Y-117.084
X187.83Y-64.36
X187.83Y-66.9
T5
X62.55Y-59.095
X62.55Y-137.895
X63.319Y-57.239
X63.319Y-60.951
X63.319Y-136.039
X63.319Y-139.751
X65.175Y-56.47
X65.175Y-61.72
X65.175Y-135.27
X65.175Y-140.52
X67.031Y-57.239
X67.031Y-60.951
X67.031Y-136.039
X67.031Y-139.751
X67.8Y-59.095
X67.8Y-137.895
X211.35Y-58.995
X211.35Y-137.795
X212.119Y-57.139
X212.119Y-60.851
X212.119Y-135.939
X212.119Y-139.651
X213.975Y-56.37
X213.975Y-61.62
X213.975Y-135.17
X213.975Y-140.42
X215.831Y-57.139
X215.831Y-60.851
X215.831Y-135.939
X215.831Y-139.651
X216.6Y-58.995
X216.6Y-137.795
T7
X82.087Y-138.082
X82.087Y-139.352
X85.787Y-139.362
X85.787Y-140.632
X89.487Y-138.082
X89.487Y-139.352
X112.0Y-151.65
X112.0Y-152.92
X112.0Y-154.19
X112.0Y-156.55
X112.0Y-157.82
X112.214Y-161.907
X112.214Y-163.177
X115.6Y-110.2
X115.6Y-111.47
T8
X69.675Y-80.795
X69.675Y-83.565
X69.675Y-86.335
X72.515Y-82.18
X72.57Y-84.95
X78.7Y-60.8
X86.3Y-60.8
X95.82Y-56.2
X98.36Y-56.2
X100.9Y-56.2
X116.3Y-130.735
X116.3Y-133.275
X118.3Y-98.1
X118.3Y-100.64
X118.3Y-103.18
X122.0Y-98.1
X122.0Y-100.64
X122.0Y-103.18
X125.7Y-98.1
X125.7Y-100.64
X125.7Y-103.18
X129.4Y-98.1
X129.4Y-100.64
X129.4Y-103.18
X133.1Y-98.1
X133.1Y-100.64
X133.1Y-103.18
X136.8Y-98.1
X136.8Y-100.64
X136.8Y-103.18
X171.9Y-63.4
X171.9Y-70.9
X171.9Y-124.1
X171.9Y-131.6
X172.36Y-57.0
X174.9Y-57.0
X178.735Y-57.0
X181.275Y-57.0
T9
X99.7Y-118.9
X99.7Y-123.4
X99.7Y-126.75
X99.7Y-131.25
X103.755Y-139.195
X106.2Y-118.9
X106.2Y-123.4
X106.2Y-126.75
X106.2Y-131.25
X106.295Y-139.195
X108.835Y-139.195
X111.375Y-139.195
X115.409Y-139.195
X117.949Y-139.195
X120.359Y-172.4
X122.01Y-139.195
X122.899Y-172.4
X124.55Y-139.195
X126.956Y-172.4
X129.496Y-172.4
X140.15Y-172.4
X140.585Y-139.15
X142.69Y-172.4
X143.125Y-139.15
X145.665Y-139.15
X146.262Y-191.855
X148.802Y-191.855
X151.342Y-191.855
T10
X155.5Y-58.1
X155.5Y-65.72
T11
X126.22Y-61.4
X126.22Y-70.1
X131.3Y-61.4
X131.3Y-70.1
X137.76Y-61.387
X137.76Y-70.087
X142.84Y-61.387
X142.84Y-70.087
X187.0Y-61.3
X187.0Y-70.0
X192.08Y-61.3
X192.08Y-70.0
T12
X208.67Y-65.995
X208.67Y-70.995
X208.77Y-80.347
X208.77Y-85.347
X208.77Y-100.895
X208.77Y-105.895
X208.77Y-121.444
X208.77Y-126.444
X215.68Y-65.995
X215.68Y-70.995
X215.78Y-80.347
X215.78Y-85.347
X215.78Y-100.895
X215.78Y-105.895
X215.78Y-121.444
X215.78Y-126.444
T13
X71.875Y-66.93
X71.875Y-100.23
T14
X65.175Y-59.095
X65.175Y-137.895
X213.975Y-58.995
X213.975Y-137.795
T15
X72.475Y-76.693
X72.475Y-90.413
T16
X66.513Y-113.465
X66.513Y-119.245
X66.513Y-125.057
X66.513Y-130.838
T17
X86.7Y-123.4
X92.4Y-123.4
T18
X115.409Y-141.735
X117.949Y-141.735
X120.359Y-174.94
X122.01Y-141.735
X122.899Y-174.94
X124.55Y-141.735
X126.956Y-174.94
X129.496Y-174.94
X140.15Y-174.94
X140.585Y-141.69
X142.69Y-174.94
X143.125Y-141.69
X145.665Y-141.69
X146.262Y-194.395
X148.802Y-194.395
X151.342Y-194.395
T6
G00X63.232Y-112.035
M15
G01X62.432Y-112.035
M16
G05
G00X63.232Y-120.675
M15
G01X62.432Y-120.675
M16
G05
G00X63.232Y-123.627
M15
G01X62.432Y-123.627
M16
G05
G00X63.232Y-132.267
M15
G01X62.432Y-132.267
M16
G05
G00X67.562Y-112.035
M15
G01X66.462Y-112.035
M16
G05
G00X67.562Y-120.675
M15
G01X66.462Y-120.675
M16
G05
G00X67.562Y-123.627
M15
G01X66.462Y-123.627
M16
G05
G00X67.562Y-132.267
M15
G01X66.462Y-132.267
M16
G05
M30
