  0
SECTION
  2
HEADER
  9
$ANGBASE
  50
0.0
  9
$ANGDIR
  70
1
  9
$MEASUREMENT
  70
1
  0
ENDSEC
  0
SECTION
  2
TABLES
  0
TABLE
  2
LTYPE
  70
4
  0
LTYPE
  5
40F
  2
CONTINUOUS
  70
0
  3
Solid line
  72
65
  73
0
  40
0.0
  0
LTYPE
  5
410
  2
DASHDOT
 70
0
  3
Dash Dot ____ _ ____ _
 72
65
 73
4
 40
2.0
 49
1.25
 49
-0.25
 49
0.25
 49
-0.25
  0
LTYPE
  5
411
  2
DASHED
 70
0
  3
Dashed __ __ __ __ __
 72
65
 73
2
 40
0.75
 49
0.5
 49
-0.25
  0
LTYPE
  5
43B
  2
DOTTED
 70
0
  3
Dotted .  .  .  .
 72
65
 73
2
 40
0.2
 49
0.0
 49
-0.2
  0
ENDTAB
  0
TABLE
  2
STYLE
  70
4
  0
STYLE
  2
KICAD
  70
0
  40
0
  41
1
  42
1
  50
0
  71
0
  3
isocp.shx
  0
STYLE
  2
KICADB
  70
0
  40
0
  41
1
  42
1
  50
0
  71
0
  3
isocp.shx
  0
STYLE
  2
KICADI
  70
0
  40
0
  41
1
  42
1
  50
15
  71
0
  3
isocp.shx
  0
STYLE
  2
KICADBI
  70
0
  40
0
  41
1
  42
1
  50
15
  71
0
  3
isocp.shx
  0
ENDTAB
  0
TABLE
  2
LAYER
  70
1
  0
LAYER
  2
BLACK
  70
0
  62
7
  6
CONTINUOUS
  0
ENDTAB
  0
ENDSEC
  0
SECTION
  2
ENTITIES
0
LINE
8
BLACK
6
CONTINUOUS
10
218.8999999999999773
20
-54.0499999999999972
11
219.3211549999999761
21
-54.067419000000001
0
LINE
8
BLACK
6
CONTINUOUS
10
219.3211549999999761
20
-54.067419000000001
11
219.7394319999999936
21
-54.1195570000000004
0
LINE
8
BLACK
6
CONTINUOUS
10
219.7394319999999936
20
-54.1195570000000004
11
220.1519759999999906
21
-54.2060589999999962
0
LINE
8
BLACK
6
CONTINUOUS
10
220.1519759999999906
20
-54.2060589999999962
11
220.5559669999999812
21
-54.3263320000000007
0
LINE
8
BLACK
6
CONTINUOUS
10
220.5559669999999812
20
-54.3263320000000007
11
220.948646999999994
21
-54.4795559999999952
0
LINE
8
BLACK
6
CONTINUOUS
10
220.948646999999994
20
-54.4795559999999952
11
221.3273319999999842
21
-54.6646839999999941
0
LINE
8
BLACK
6
CONTINUOUS
10
221.3273319999999842
20
-54.6646839999999941
11
221.6894360000000006
21
-54.8804510000000008
0
LINE
8
BLACK
6
CONTINUOUS
10
221.6894360000000006
20
-54.8804510000000008
11
222.0324849999999799
21
-55.1253829999999994
0
LINE
8
BLACK
6
CONTINUOUS
10
222.0324849999999799
20
-55.1253829999999994
11
222.3541359999999827
21
-55.3978079999999977
0
LINE
8
BLACK
6
CONTINUOUS
10
222.3541359999999827
20
-55.3978079999999977
11
222.6521919999999852
21
-55.6958640000000003
0
LINE
8
BLACK
6
CONTINUOUS
10
222.6521919999999852
20
-55.6958640000000003
11
222.9246169999999836
21
-56.017514999999996
0
LINE
8
BLACK
6
CONTINUOUS
10
222.9246169999999836
20
-56.017514999999996
11
223.1695489999999893
21
-56.3605639999999966
0
LINE
8
BLACK
6
CONTINUOUS
10
223.1695489999999893
20
-56.3605639999999966
11
223.3853159999999889
21
-56.7226679999999988
0
LINE
8
BLACK
6
CONTINUOUS
10
223.3853159999999889
20
-56.7226679999999988
11
223.5704439999999806
21
-57.101352999999996
0
LINE
8
BLACK
6
CONTINUOUS
10
223.5704439999999806
20
-57.101352999999996
11
223.7236680000000035
21
-57.4940329999999946
0
LINE
8
BLACK
6
CONTINUOUS
10
223.7236680000000035
20
-57.4940329999999946
11
223.8439410000000009
21
-57.8980239999999995
0
LINE
8
BLACK
6
CONTINUOUS
10
223.8439410000000009
20
-57.8980239999999995
11
223.9304429999999968
21
-58.3105679999999964
0
LINE
8
BLACK
6
CONTINUOUS
10
223.9304429999999968
20
-58.3105679999999964
11
223.9825809999999819
21
-58.7288449999999997
0
LINE
8
BLACK
6
CONTINUOUS
10
223.9825809999999819
20
-58.7288449999999997
11
224.
21
-59.1499999999999986
0
LINE
8
BLACK
6
CONTINUOUS
10
224.
20
-59.1499999999999986
11
224.
21
-149.1500000000000057
0
LINE
8
BLACK
6
CONTINUOUS
10
224.
20
-149.1500000000000057
11
223.9825809999999819
21
-149.5711550000000045
0
LINE
8
BLACK
6
CONTINUOUS
10
223.9825809999999819
20
-149.5711550000000045
11
223.9304429999999968
21
-149.9894319999999936
0
LINE
8
BLACK
6
CONTINUOUS
10
223.9304429999999968
20
-149.9894319999999936
11
223.8439410000000009
21
-150.4019759999999906
0
LINE
8
BLACK
6
CONTINUOUS
10
223.8439410000000009
20
-150.4019759999999906
11
223.7236680000000035
21
-150.8059669999999812
0
LINE
8
BLACK
6
CONTINUOUS
10
223.7236680000000035
20
-150.8059669999999812
11
223.5704439999999806
21
-151.198646999999994
0
LINE
8
BLACK
6
CONTINUOUS
10
223.5704439999999806
20
-151.198646999999994
11
223.3853159999999889
21
-151.5773319999999842
0
LINE
8
BLACK
6
CONTINUOUS
10
223.3853159999999889
20
-151.5773319999999842
11
223.1695489999999893
21
-151.9394360000000006
0
LINE
8
BLACK
6
CONTINUOUS
10
223.1695489999999893
20
-151.9394360000000006
11
222.9246169999999836
21
-152.2824849999999799
0
LINE
8
BLACK
6
CONTINUOUS
10
222.9246169999999836
20
-152.2824849999999799
11
222.6521919999999852
21
-152.6041359999999827
0
LINE
8
BLACK
6
CONTINUOUS
10
222.6521919999999852
20
-152.6041359999999827
11
222.3541359999999827
21
-152.9021919999999852
0
LINE
8
BLACK
6
CONTINUOUS
10
222.3541359999999827
20
-152.9021919999999852
11
222.0324849999999799
21
-153.1746169999999836
0
LINE
8
BLACK
6
CONTINUOUS
10
222.0324849999999799
20
-153.1746169999999836
11
221.6894360000000006
21
-153.4195489999999893
0
LINE
8
BLACK
6
CONTINUOUS
10
221.6894360000000006
20
-153.4195489999999893
11
221.3273319999999842
21
-153.6353159999999889
0
LINE
8
BLACK
6
CONTINUOUS
10
221.3273319999999842
20
-153.6353159999999889
11
220.948646999999994
21
-153.8204439999999806
0
LINE
8
BLACK
6
CONTINUOUS
10
220.948646999999994
20
-153.8204439999999806
11
220.5559669999999812
21
-153.9736680000000035
0
LINE
8
BLACK
6
CONTINUOUS
10
220.5559669999999812
20
-153.9736680000000035
11
220.1519759999999906
21
-154.0939410000000009
0
LINE
8
BLACK
6
CONTINUOUS
10
220.1519759999999906
20
-154.0939410000000009
11
219.7394319999999936
21
-154.1804429999999968
0
LINE
8
BLACK
6
CONTINUOUS
10
219.7394319999999936
20
-154.1804429999999968
11
219.3211549999999761
21
-154.2325809999999819
0
LINE
8
BLACK
6
CONTINUOUS
10
219.3211549999999761
20
-154.2325809999999819
11
218.8999999999999773
21
-154.25
0
LINE
8
BLACK
6
CONTINUOUS
10
218.8999999999999773
20
-154.25
11
108.8999999999999915
21
-154.25
0
LINE
8
BLACK
6
CONTINUOUS
10
108.8999999999999915
20
-154.25
11
108.4788449999999926
21
-154.2325809999999819
0
LINE
8
BLACK
6
CONTINUOUS
10
108.4788449999999926
20
-154.2325809999999819
11
108.0605679999999893
21
-154.1804429999999968
0
LINE
8
BLACK
6
CONTINUOUS
10
108.0605679999999893
20
-154.1804429999999968
11
107.6480239999999924
21
-154.0939410000000009
0
LINE
8
BLACK
6
CONTINUOUS
10
107.6480239999999924
20
-154.0939410000000009
11
107.2440330000000017
21
-153.9736680000000035
0
LINE
8
BLACK
6
CONTINUOUS
10
107.2440330000000017
20
-153.9736680000000035
11
106.8513529999999889
21
-153.8204439999999806
0
LINE
8
BLACK
6
CONTINUOUS
10
106.8513529999999889
20
-153.8204439999999806
11
106.4726679999999988
21
-153.6353159999999889
0
LINE
8
BLACK
6
CONTINUOUS
10
106.4726679999999988
20
-153.6353159999999889
11
106.1105639999999966
21
-153.4195489999999893
0
LINE
8
BLACK
6
CONTINUOUS
10
106.1105639999999966
20
-153.4195489999999893
11
105.7675149999999888
21
-153.1746169999999836
0
LINE
8
BLACK
6
CONTINUOUS
10
105.7675149999999888
20
-153.1746169999999836
11
105.4458640000000003
21
-152.9021919999999852
0
LINE
8
BLACK
6
CONTINUOUS
10
105.4458640000000003
20
-152.9021919999999852
11
105.1478079999999977
21
-152.6041359999999827
0
LINE
8
BLACK
6
CONTINUOUS
10
105.1478079999999977
20
-152.6041359999999827
11
104.8753829999999994
21
-152.2824849999999799
0
LINE
8
BLACK
6
CONTINUOUS
10
104.8753829999999994
20
-152.2824849999999799
11
104.6304509999999937
21
-151.9394360000000006
0
LINE
8
BLACK
6
CONTINUOUS
10
104.6304509999999937
20
-151.9394360000000006
11
104.4146839999999941
21
-151.5773319999999842
0
LINE
8
BLACK
6
CONTINUOUS
10
104.4146839999999941
20
-151.5773319999999842
11
104.2295560000000023
21
-151.198646999999994
0
LINE
8
BLACK
6
CONTINUOUS
10
104.2295560000000023
20
-151.198646999999994
11
104.0763319999999936
21
-150.8059669999999812
0
LINE
8
BLACK
6
CONTINUOUS
10
104.0763319999999936
20
-150.8059669999999812
11
103.9560589999999962
21
-150.4019759999999906
0
LINE
8
BLACK
6
CONTINUOUS
10
103.9560589999999962
20
-150.4019759999999906
11
103.8695570000000004
21
-149.9894319999999936
0
LINE
8
BLACK
6
CONTINUOUS
10
103.8695570000000004
20
-149.9894319999999936
11
103.817419000000001
21
-149.5711550000000045
0
LINE
8
BLACK
6
CONTINUOUS
10
103.817419000000001
20
-149.5711550000000045
11
103.7999999999999972
21
-149.1500000000000057
0
LINE
8
BLACK
6
CONTINUOUS
10
103.7999999999999972
20
-149.1500000000000057
11
103.7999999999999972
21
-59.1499999999999986
0
LINE
8
BLACK
6
CONTINUOUS
10
103.7999999999999972
20
-59.1499999999999986
11
103.817419000000001
21
-58.7288449999999997
0
LINE
8
BLACK
6
CONTINUOUS
10
103.817419000000001
20
-58.7288449999999997
11
103.8695570000000004
21
-58.3105679999999964
0
LINE
8
BLACK
6
CONTINUOUS
10
103.8695570000000004
20
-58.3105679999999964
11
103.9560589999999962
21
-57.8980239999999995
0
LINE
8
BLACK
6
CONTINUOUS
10
103.9560589999999962
20
-57.8980239999999995
11
104.0763319999999936
21
-57.4940329999999946
0
LINE
8
BLACK
6
CONTINUOUS
10
104.0763319999999936
20
-57.4940329999999946
11
104.2295560000000023
21
-57.101352999999996
0
LINE
8
BLACK
6
CONTINUOUS
10
104.2295560000000023
20
-57.101352999999996
11
104.4146839999999941
21
-56.7226679999999988
0
LINE
8
BLACK
6
CONTINUOUS
10
104.4146839999999941
20
-56.7226679999999988
11
104.6304509999999937
21
-56.3605639999999966
0
LINE
8
BLACK
6
CONTINUOUS
10
104.6304509999999937
20
-56.3605639999999966
11
104.8753829999999994
21
-56.017514999999996
0
LINE
8
BLACK
6
CONTINUOUS
10
104.8753829999999994
20
-56.017514999999996
11
105.1478079999999977
21
-55.6958640000000003
0
LINE
8
BLACK
6
CONTINUOUS
10
105.1478079999999977
20
-55.6958640000000003
11
105.4458640000000003
21
-55.3978079999999977
0
LINE
8
BLACK
6
CONTINUOUS
10
105.4458640000000003
20
-55.3978079999999977
11
105.7675149999999888
21
-55.1253829999999994
0
LINE
8
BLACK
6
CONTINUOUS
10
105.7675149999999888
20
-55.1253829999999994
11
106.1105639999999966
21
-54.8804510000000008
0
LINE
8
BLACK
6
CONTINUOUS
10
106.1105639999999966
20
-54.8804510000000008
11
106.4726679999999988
21
-54.6646839999999941
0
LINE
8
BLACK
6
CONTINUOUS
10
106.4726679999999988
20
-54.6646839999999941
11
106.8513529999999889
21
-54.4795559999999952
0
LINE
8
BLACK
6
CONTINUOUS
10
106.8513529999999889
20
-54.4795559999999952
11
107.2440330000000017
21
-54.3263320000000007
0
LINE
8
BLACK
6
CONTINUOUS
10
107.2440330000000017
20
-54.3263320000000007
11
107.6480239999999924
21
-54.2060589999999962
0
LINE
8
BLACK
6
CONTINUOUS
10
107.6480239999999924
20
-54.2060589999999962
11
108.0605679999999893
21
-54.1195570000000004
0
LINE
8
BLACK
6
CONTINUOUS
10
108.0605679999999893
20
-54.1195570000000004
11
108.4788449999999926
21
-54.067419000000001
0
LINE
8
BLACK
6
CONTINUOUS
10
108.4788449999999926
20
-54.067419000000001
11
108.8999999999999915
21
-54.0499999999999972
0
LINE
8
BLACK
6
CONTINUOUS
10
108.8999999999999915
20
-54.0499999999999972
11
218.8999999999999773
21
-54.0499999999999972
0
LINE
8
BLACK
6
CONTINUOUS
10
108.8999999999999915
20
-54.25
11
108.6860609999999951
21
-54.25
0
LINE
8
BLACK
6
CONTINUOUS
10
108.6860609999999951
20
-54.25
11
108.2598119999999966
21
-54.2872920000000008
0
LINE
8
BLACK
6
CONTINUOUS
10
108.2598119999999966
20
-54.2872920000000008
11
107.8384360000000015
21
-54.3615919999999946
0
LINE
8
BLACK
6
CONTINUOUS
10
107.8384360000000015
20
-54.3615919999999946
11
107.4251379999999898
21
-54.4723350000000011
0
LINE
8
BLACK
6
CONTINUOUS
10
107.4251379999999898
20
-54.4723350000000011
11
107.0230649999999883
21
-54.6186779999999956
0
LINE
8
BLACK
6
CONTINUOUS
10
107.0230649999999883
20
-54.6186779999999956
11
106.6352759999999904
21
-54.7995060000000009
0
LINE
8
BLACK
6
CONTINUOUS
10
106.6352759999999904
20
-54.7995060000000009
11
106.2647240000000011
21
-55.0134449999999973
0
LINE
8
BLACK
6
CONTINUOUS
10
106.2647240000000011
20
-55.0134449999999973
11
105.9142269999999968
21
-55.2588650000000001
0
LINE
8
BLACK
6
CONTINUOUS
10
105.9142269999999968
20
-55.2588650000000001
11
105.5864539999999892
21
-55.5338989999999981
0
LINE
8
BLACK
6
CONTINUOUS
10
105.5864539999999892
20
-55.5338989999999981
11
105.283898999999991
21
-55.8364539999999963
0
LINE
8
BLACK
6
CONTINUOUS
10
105.283898999999991
20
-55.8364539999999963
11
105.0088650000000001
21
-56.1642269999999968
0
LINE
8
BLACK
6
CONTINUOUS
10
105.0088650000000001
20
-56.1642269999999968
11
104.7634449999999902
21
-56.514723999999994
0
LINE
8
BLACK
6
CONTINUOUS
10
104.7634449999999902
20
-56.514723999999994
11
104.5495059999999938
21
-56.8852759999999975
0
LINE
8
BLACK
6
CONTINUOUS
10
104.5495059999999938
20
-56.8852759999999975
11
104.3686779999999885
21
-57.2730649999999955
0
LINE
8
BLACK
6
CONTINUOUS
10
104.3686779999999885
20
-57.2730649999999955
11
104.2223350000000011
21
-57.6751379999999969
0
LINE
8
BLACK
6
CONTINUOUS
10
104.2223350000000011
20
-57.6751379999999969
11
104.1115920000000017
21
-58.0884359999999944
0
LINE
8
BLACK
6
CONTINUOUS
10
104.1115920000000017
20
-58.0884359999999944
11
104.0372919999999937
21
-58.5098119999999966
0
LINE
8
BLACK
6
CONTINUOUS
10
104.0372919999999937
20
-58.5098119999999966
11
104.
21
-58.9360609999999951
0
LINE
8
BLACK
6
CONTINUOUS
10
104.
20
-58.9360609999999951
11
104.
21
-59.1499999999999986
0
LINE
8
BLACK
6
CONTINUOUS
10
104.
20
-59.1499999999999986
11
104.
21
-149.1500000000000057
0
LINE
8
BLACK
6
CONTINUOUS
10
104.
20
-149.1500000000000057
11
104.
21
-149.3639389999999878
0
LINE
8
BLACK
6
CONTINUOUS
10
104.
20
-149.3639389999999878
11
104.0372919999999937
21
-149.7901880000000006
0
LINE
8
BLACK
6
CONTINUOUS
10
104.0372919999999937
20
-149.7901880000000006
11
104.1115920000000017
21
-150.2115639999999814
0
LINE
8
BLACK
6
CONTINUOUS
10
104.1115920000000017
20
-150.2115639999999814
11
104.2223350000000011
21
-150.6248620000000074
0
LINE
8
BLACK
6
CONTINUOUS
10
104.2223350000000011
20
-150.6248620000000074
11
104.3686779999999885
21
-151.0269349999999804
0
LINE
8
BLACK
6
CONTINUOUS
10
104.3686779999999885
20
-151.0269349999999804
11
104.5495059999999938
21
-151.4147240000000068
0
LINE
8
BLACK
6
CONTINUOUS
10
104.5495059999999938
20
-151.4147240000000068
11
104.7634449999999902
21
-151.7852759999999819
0
LINE
8
BLACK
6
CONTINUOUS
10
104.7634449999999902
20
-151.7852759999999819
11
105.0088650000000001
21
-152.1357730000000004
0
LINE
8
BLACK
6
CONTINUOUS
10
105.0088650000000001
20
-152.1357730000000004
11
105.283898999999991
21
-152.4635459999999796
0
LINE
8
BLACK
6
CONTINUOUS
10
105.283898999999991
20
-152.4635459999999796
11
105.5864539999999892
21
-152.7661009999999919
0
LINE
8
BLACK
6
CONTINUOUS
10
105.5864539999999892
20
-152.7661009999999919
11
105.9142269999999968
21
-153.041134999999997
0
LINE
8
BLACK
6
CONTINUOUS
10
105.9142269999999968
20
-153.041134999999997
11
106.2647240000000011
21
-153.2865549999999928
0
LINE
8
BLACK
6
CONTINUOUS
10
106.2647240000000011
20
-153.2865549999999928
11
106.6352759999999904
21
-153.5004940000000033
0
LINE
8
BLACK
6
CONTINUOUS
10
106.6352759999999904
20
-153.5004940000000033
11
107.0230649999999883
21
-153.6813219999999944
0
LINE
8
BLACK
6
CONTINUOUS
10
107.0230649999999883
20
-153.6813219999999944
11
107.4251379999999898
21
-153.8276649999999961
0
LINE
8
BLACK
6
CONTINUOUS
10
107.4251379999999898
20
-153.8276649999999961
11
107.8384360000000015
21
-153.9384079999999813
0
LINE
8
BLACK
6
CONTINUOUS
10
107.8384360000000015
20
-153.9384079999999813
11
108.2598119999999966
21
-154.0127080000000035
0
LINE
8
BLACK
6
CONTINUOUS
10
108.2598119999999966
20
-154.0127080000000035
11
108.6860609999999951
21
-154.0499999999999829
0
LINE
8
BLACK
6
CONTINUOUS
10
108.6860609999999951
20
-154.0499999999999829
11
108.8999999999999915
21
-154.0499999999999829
0
LINE
8
BLACK
6
CONTINUOUS
10
108.8999999999999915
20
-154.0499999999999829
11
218.8999999999999773
21
-154.0499999999999829
0
LINE
8
BLACK
6
CONTINUOUS
10
218.8999999999999773
20
-154.0499999999999829
11
219.1139389999999878
21
-154.0499999999999829
0
LINE
8
BLACK
6
CONTINUOUS
10
219.1139389999999878
20
-154.0499999999999829
11
219.5401880000000006
21
-154.0127080000000035
0
LINE
8
BLACK
6
CONTINUOUS
10
219.5401880000000006
20
-154.0127080000000035
11
219.9615639999999814
21
-153.9384079999999813
0
LINE
8
BLACK
6
CONTINUOUS
10
219.9615639999999814
20
-153.9384079999999813
11
220.3748619999999789
21
-153.8276649999999961
0
LINE
8
BLACK
6
CONTINUOUS
10
220.3748619999999789
20
-153.8276649999999961
11
220.7769349999999804
21
-153.6813219999999944
0
LINE
8
BLACK
6
CONTINUOUS
10
220.7769349999999804
20
-153.6813219999999944
11
221.1647239999999783
21
-153.5004940000000033
0
LINE
8
BLACK
6
CONTINUOUS
10
221.1647239999999783
20
-153.5004940000000033
11
221.5352759999999819
21
-153.2865549999999928
0
LINE
8
BLACK
6
CONTINUOUS
10
221.5352759999999819
20
-153.2865549999999928
11
221.8857730000000004
21
-153.041134999999997
0
LINE
8
BLACK
6
CONTINUOUS
10
221.8857730000000004
20
-153.041134999999997
11
222.2135459999999796
21
-152.7661009999999919
0
LINE
8
BLACK
6
CONTINUOUS
10
222.2135459999999796
20
-152.7661009999999919
11
222.5161009999999919
21
-152.4635459999999796
0
LINE
8
BLACK
6
CONTINUOUS
10
222.5161009999999919
20
-152.4635459999999796
11
222.791134999999997
21
-152.1357730000000004
0
LINE
8
BLACK
6
CONTINUOUS
10
222.791134999999997
20
-152.1357730000000004
11
223.0365549999999928
21
-151.7852759999999819
0
LINE
8
BLACK
6
CONTINUOUS
10
223.0365549999999928
20
-151.7852759999999819
11
223.2504940000000033
21
-151.4147240000000068
0
LINE
8
BLACK
6
CONTINUOUS
10
223.2504940000000033
20
-151.4147240000000068
11
223.4313219999999944
21
-151.0269349999999804
0
LINE
8
BLACK
6
CONTINUOUS
10
223.4313219999999944
20
-151.0269349999999804
11
223.5776649999999961
21
-150.6248620000000074
0
LINE
8
BLACK
6
CONTINUOUS
10
223.5776649999999961
20
-150.6248620000000074
11
223.6884079999999813
21
-150.2115639999999814
0
LINE
8
BLACK
6
CONTINUOUS
10
223.6884079999999813
20
-150.2115639999999814
11
223.7627080000000035
21
-149.7901880000000006
0
LINE
8
BLACK
6
CONTINUOUS
10
223.7627080000000035
20
-149.7901880000000006
11
223.7999999999999829
21
-149.3639389999999878
0
LINE
8
BLACK
6
CONTINUOUS
10
223.7999999999999829
20
-149.3639389999999878
11
223.7999999999999829
21
-149.1500000000000057
0
LINE
8
BLACK
6
CONTINUOUS
10
223.7999999999999829
20
-149.1500000000000057
11
223.7999999999999829
21
-59.1499999999999986
0
LINE
8
BLACK
6
CONTINUOUS
10
223.7999999999999829
20
-59.1499999999999986
11
223.7999999999999829
21
-58.9360609999999951
0
LINE
8
BLACK
6
CONTINUOUS
10
223.7999999999999829
20
-58.9360609999999951
11
223.7627080000000035
21
-58.5098119999999966
0
LINE
8
BLACK
6
CONTINUOUS
10
223.7627080000000035
20
-58.5098119999999966
11
223.6884079999999813
21
-58.0884359999999944
0
LINE
8
BLACK
6
CONTINUOUS
10
223.6884079999999813
20
-58.0884359999999944
11
223.5776649999999961
21
-57.6751379999999969
0
LINE
8
BLACK
6
CONTINUOUS
10
223.5776649999999961
20
-57.6751379999999969
11
223.4313219999999944
21
-57.2730649999999955
0
LINE
8
BLACK
6
CONTINUOUS
10
223.4313219999999944
20
-57.2730649999999955
11
223.2504940000000033
21
-56.8852759999999975
0
LINE
8
BLACK
6
CONTINUOUS
10
223.2504940000000033
20
-56.8852759999999975
11
223.0365549999999928
21
-56.514723999999994
0
LINE
8
BLACK
6
CONTINUOUS
10
223.0365549999999928
20
-56.514723999999994
11
222.791134999999997
21
-56.1642269999999968
0
LINE
8
BLACK
6
CONTINUOUS
10
222.791134999999997
20
-56.1642269999999968
11
222.5161009999999919
21
-55.8364539999999963
0
LINE
8
BLACK
6
CONTINUOUS
10
222.5161009999999919
20
-55.8364539999999963
11
222.2135459999999796
21
-55.5338989999999981
0
LINE
8
BLACK
6
CONTINUOUS
10
222.2135459999999796
20
-55.5338989999999981
11
221.8857730000000004
21
-55.2588650000000001
0
LINE
8
BLACK
6
CONTINUOUS
10
221.8857730000000004
20
-55.2588650000000001
11
221.5352759999999819
21
-55.0134449999999973
0
LINE
8
BLACK
6
CONTINUOUS
10
221.5352759999999819
20
-55.0134449999999973
11
221.1647239999999783
21
-54.7995060000000009
0
LINE
8
BLACK
6
CONTINUOUS
10
221.1647239999999783
20
-54.7995060000000009
11
220.7769349999999804
21
-54.6186779999999956
0
LINE
8
BLACK
6
CONTINUOUS
10
220.7769349999999804
20
-54.6186779999999956
11
220.3748619999999789
21
-54.4723350000000011
0
LINE
8
BLACK
6
CONTINUOUS
10
220.3748619999999789
20
-54.4723350000000011
11
219.9615639999999814
21
-54.3615919999999946
0
LINE
8
BLACK
6
CONTINUOUS
10
219.9615639999999814
20
-54.3615919999999946
11
219.5401880000000006
21
-54.2872920000000008
0
LINE
8
BLACK
6
CONTINUOUS
10
219.5401880000000006
20
-54.2872920000000008
11
219.1139389999999878
21
-54.25
0
LINE
8
BLACK
6
CONTINUOUS
10
219.1139389999999878
20
-54.25
11
218.8999999999999773
21
-54.25
0
LINE
8
BLACK
6
CONTINUOUS
10
218.8999999999999773
20
-54.25
11
108.8999999999999915
21
-54.25
  0
ENDSEC
  0
EOF
