%TF.GenerationSoftware,KiCad,Pcbnew,8.0.4*%
%TF.CreationDate,2024-10-18T00:11:30-06:00*%
%TF.ProjectId,Motor Controller,4d6f746f-7220-4436-9f6e-74726f6c6c65,Mk. 1*%
%TF.SameCoordinates,Original*%
%TF.FileFunction,Soldermask,Bot*%
%TF.FilePolarity,Negative*%
%FSLAX46Y46*%
G04 Gerber Fmt 4.6, Leading zero omitted, Abs format (unit mm)*
G04 Created by KiCad (PCBNEW 8.0.4) date 2024-10-18 00:11:30*
%MOMM*%
%LPD*%
G01*
G04 APERTURE LIST*
G04 Aperture macros list*
%AMRoundRect*
0 Rectangle with rounded corners*
0 $1 Rounding radius*
0 $2 $3 $4 $5 $6 $7 $8 $9 X,Y pos of 4 corners*
0 Add a 4 corners polygon primitive as box body*
4,1,4,$2,$3,$4,$5,$6,$7,$8,$9,$2,$3,0*
0 Add four circle primitives for the rounded corners*
1,1,$1+$1,$2,$3*
1,1,$1+$1,$4,$5*
1,1,$1+$1,$6,$7*
1,1,$1+$1,$8,$9*
0 Add four rect primitives between the rounded corners*
20,1,$1+$1,$2,$3,$4,$5,0*
20,1,$1+$1,$4,$5,$6,$7,0*
20,1,$1+$1,$6,$7,$8,$9,0*
20,1,$1+$1,$8,$9,$2,$3,0*%
%AMRotRect*
0 Rectangle, with rotation*
0 The origin of the aperture is its center*
0 $1 length*
0 $2 width*
0 $3 Rotation angle, in degrees counterclockwise*
0 Add horizontal line*
21,1,$1,$2,0,0,$3*%
%AMFreePoly0*
4,1,19,0.550000,-0.750000,0.000000,-0.750000,0.000000,-0.744912,-0.071157,-0.744911,-0.207708,-0.704816,-0.327430,-0.627875,-0.420627,-0.520320,-0.479746,-0.390866,-0.500000,-0.250000,-0.500000,0.250000,-0.479746,0.390866,-0.420627,0.520320,-0.327430,0.627875,-0.207708,0.704816,-0.071157,0.744911,0.000000,0.744912,0.000000,0.750000,0.550000,0.750000,0.550000,-0.750000,0.550000,-0.750000,
$1*%
%AMFreePoly1*
4,1,19,0.000000,0.744912,0.071157,0.744911,0.207708,0.704816,0.327430,0.627875,0.420627,0.520320,0.479746,0.390866,0.500000,0.250000,0.500000,-0.250000,0.479746,-0.390866,0.420627,-0.520320,0.327430,-0.627875,0.207708,-0.704816,0.071157,-0.744911,0.000000,-0.744912,0.000000,-0.750000,-0.550000,-0.750000,-0.550000,0.750000,0.000000,0.750000,0.000000,0.744912,0.000000,0.744912,
$1*%
%AMFreePoly2*
4,1,9,3.862500,-0.866500,0.737500,-0.866500,0.737500,-0.450000,-0.737500,-0.450000,-0.737500,0.450000,0.737500,0.450000,0.737500,0.866500,3.862500,0.866500,3.862500,-0.866500,3.862500,-0.866500,$1*%
G04 Aperture macros list end*
%ADD10C,3.104000*%
%ADD11RoundRect,0.200000X0.275000X-0.200000X0.275000X0.200000X-0.275000X0.200000X-0.275000X-0.200000X0*%
%ADD12RoundRect,0.225000X0.335876X0.017678X0.017678X0.335876X-0.335876X-0.017678X-0.017678X-0.335876X0*%
%ADD13RoundRect,0.250000X-0.262500X-0.450000X0.262500X-0.450000X0.262500X0.450000X-0.262500X0.450000X0*%
%ADD14R,1.700000X1.700000*%
%ADD15O,1.700000X1.700000*%
%ADD16C,2.200000*%
%ADD17R,2.200000X2.200000*%
%ADD18RoundRect,0.100000X-0.100000X0.637500X-0.100000X-0.637500X0.100000X-0.637500X0.100000X0.637500X0*%
%ADD19R,1.205000X1.550000*%
%ADD20R,1.910000X0.610000*%
%ADD21C,0.800000*%
%ADD22C,7.000000*%
%ADD23RoundRect,0.225000X-0.250000X0.225000X-0.250000X-0.225000X0.250000X-0.225000X0.250000X0.225000X0*%
%ADD24C,1.712000*%
%ADD25RoundRect,0.102000X-0.754000X0.754000X-0.754000X-0.754000X0.754000X-0.754000X0.754000X0.754000X0*%
%ADD26RoundRect,0.102000X1.425000X1.650000X-1.425000X1.650000X-1.425000X-1.650000X1.425000X-1.650000X0*%
%ADD27C,2.304000*%
%ADD28RoundRect,0.150000X0.477297X0.689429X-0.689429X-0.477297X-0.477297X-0.689429X0.689429X0.477297X0*%
%ADD29RoundRect,0.200000X0.200000X0.275000X-0.200000X0.275000X-0.200000X-0.275000X0.200000X-0.275000X0*%
%ADD30FreePoly0,45.000000*%
%ADD31RotRect,1.000000X1.500000X45.000000*%
%ADD32FreePoly1,45.000000*%
%ADD33RoundRect,0.250000X-0.475000X0.250000X-0.475000X-0.250000X0.475000X-0.250000X0.475000X0.250000X0*%
%ADD34RoundRect,0.225000X0.250000X-0.225000X0.250000X0.225000X-0.250000X0.225000X-0.250000X-0.225000X0*%
%ADD35C,1.500000*%
%ADD36R,1.500000X1.500000*%
%ADD37C,4.500000*%
%ADD38C,1.100000*%
%ADD39RoundRect,0.218750X-0.256250X0.218750X-0.256250X-0.218750X0.256250X-0.218750X0.256250X0.218750X0*%
%ADD40RoundRect,0.250000X0.450000X-0.262500X0.450000X0.262500X-0.450000X0.262500X-0.450000X-0.262500X0*%
%ADD41RoundRect,0.250000X-0.450000X0.262500X-0.450000X-0.262500X0.450000X-0.262500X0.450000X0.262500X0*%
%ADD42RoundRect,0.250000X0.475000X-0.250000X0.475000X0.250000X-0.475000X0.250000X-0.475000X-0.250000X0*%
%ADD43RoundRect,0.250000X-1.100000X0.325000X-1.100000X-0.325000X1.100000X-0.325000X1.100000X0.325000X0*%
%ADD44RoundRect,0.250000X1.100000X-0.325000X1.100000X0.325000X-1.100000X0.325000X-1.100000X-0.325000X0*%
%ADD45RoundRect,0.250000X-0.250000X-0.475000X0.250000X-0.475000X0.250000X0.475000X-0.250000X0.475000X0*%
%ADD46RoundRect,0.200000X-0.053033X0.335876X-0.335876X0.053033X0.053033X-0.335876X0.335876X-0.053033X0*%
%ADD47RoundRect,0.225000X-0.225000X-0.250000X0.225000X-0.250000X0.225000X0.250000X-0.225000X0.250000X0*%
%ADD48RoundRect,0.150000X0.825000X0.150000X-0.825000X0.150000X-0.825000X-0.150000X0.825000X-0.150000X0*%
%ADD49RoundRect,0.200000X0.053033X-0.335876X0.335876X-0.053033X-0.053033X0.335876X-0.335876X0.053033X0*%
%ADD50RoundRect,0.250000X0.850000X0.350000X-0.850000X0.350000X-0.850000X-0.350000X0.850000X-0.350000X0*%
%ADD51RoundRect,0.249997X2.950003X2.650003X-2.950003X2.650003X-2.950003X-2.650003X2.950003X-2.650003X0*%
%ADD52RoundRect,0.250000X1.000000X-1.400000X1.000000X1.400000X-1.000000X1.400000X-1.000000X-1.400000X0*%
%ADD53RoundRect,0.102000X0.450000X-0.550000X0.450000X0.550000X-0.450000X0.550000X-0.450000X-0.550000X0*%
%ADD54RoundRect,0.225000X0.425000X0.225000X-0.425000X0.225000X-0.425000X-0.225000X0.425000X-0.225000X0*%
%ADD55FreePoly2,180.000000*%
G04 APERTURE END LIST*
D10*
%TO.C,J19*%
X187600000Y-69210000D03*
X187600000Y-62200000D03*
X182600000Y-69210000D03*
X182600000Y-62200000D03*
%TD*%
%TO.C,J16*%
X225355000Y-100900000D03*
X218345000Y-100900000D03*
X225355000Y-105900000D03*
X218345000Y-105900000D03*
%TD*%
%TO.C,J31*%
X207850000Y-69210000D03*
X207850000Y-62200000D03*
X202850000Y-69210000D03*
X202850000Y-62200000D03*
%TD*%
%TO.C,J17*%
X225305000Y-121500000D03*
X218295000Y-121500000D03*
X225305000Y-126500000D03*
X218295000Y-126500000D03*
%TD*%
%TO.C,J15*%
X218295000Y-85400000D03*
X225305000Y-85400000D03*
X218295000Y-80400000D03*
X225305000Y-80400000D03*
%TD*%
D11*
%TO.C,R37*%
X201650000Y-91587500D03*
X201650000Y-89937500D03*
%TD*%
D12*
%TO.C,C151*%
X129332574Y-117900090D03*
X130428590Y-118996106D03*
%TD*%
D13*
%TO.C,R106*%
X116187500Y-87850000D03*
X114362500Y-87850000D03*
%TD*%
D14*
%TO.C,J6*%
X145600000Y-97370000D03*
D15*
X145600000Y-99910000D03*
X145600000Y-102450000D03*
%TD*%
D16*
%TO.C,J7*%
X135280000Y-150450000D03*
X137820000Y-150450000D03*
X140360000Y-150450000D03*
D17*
X142900000Y-150450000D03*
%TD*%
D18*
%TO.C,U12*%
X203275000Y-112062500D03*
X203925000Y-112062500D03*
X204575000Y-112062500D03*
X205225000Y-112062500D03*
X205225000Y-106337500D03*
X204575000Y-106337500D03*
X203925000Y-106337500D03*
X203275000Y-106337500D03*
%TD*%
D19*
%TO.C,U32*%
X107357500Y-87170000D03*
X107357500Y-88720000D03*
X106152500Y-87170000D03*
X106152500Y-88720000D03*
D20*
X109535000Y-89850000D03*
X109535000Y-88580000D03*
X109535000Y-87310000D03*
X109535000Y-86040000D03*
X103975000Y-86040000D03*
X103975000Y-87310000D03*
X103975000Y-88580000D03*
X103975000Y-89850000D03*
%TD*%
D21*
%TO.C,H8*%
X221150000Y-137800000D03*
X221918845Y-135943845D03*
X221918845Y-139656155D03*
X223775000Y-135175000D03*
D22*
X223775000Y-137800000D03*
D21*
X223775000Y-140425000D03*
X225631155Y-135943845D03*
X225631155Y-139656155D03*
X226400000Y-137800000D03*
%TD*%
D23*
%TO.C,C96*%
X200175000Y-110525000D03*
X200175000Y-112075000D03*
%TD*%
D24*
%TO.C,PS1*%
X128150000Y-144570000D03*
X128150000Y-142030000D03*
X128150000Y-139490000D03*
D25*
X128150000Y-136950000D03*
%TD*%
D26*
%TO.C,L2*%
X103825000Y-94700000D03*
X109775000Y-94700000D03*
%TD*%
D27*
%TO.C,J18*%
X113960000Y-61437500D03*
X113960000Y-70137500D03*
X119040000Y-61437500D03*
X119040000Y-70137500D03*
%TD*%
D14*
%TO.C,JP14*%
X170900000Y-69735000D03*
D15*
X170900000Y-67195000D03*
%TD*%
D23*
%TO.C,C166*%
X101825000Y-90075000D03*
X101825000Y-88525000D03*
%TD*%
%TO.C,C78*%
X200150000Y-89987500D03*
X200150000Y-91537500D03*
%TD*%
D28*
%TO.C,U4*%
X131202872Y-116553051D03*
X132100898Y-117451076D03*
X132998924Y-118349102D03*
X133896949Y-119247128D03*
X137397128Y-115746949D03*
X136499102Y-114848924D03*
X135601076Y-113950898D03*
X134703051Y-113052872D03*
%TD*%
D29*
%TO.C,R14*%
X176075000Y-73850000D03*
X174425000Y-73850000D03*
%TD*%
D30*
%TO.C,J22*%
X128811522Y-115288478D03*
D31*
X129730761Y-114369239D03*
D32*
X130650000Y-113450000D03*
%TD*%
D33*
%TO.C,C163*%
X112525000Y-90650000D03*
X112525000Y-88750000D03*
%TD*%
D14*
%TO.C,JP16*%
X167150000Y-67185000D03*
D15*
X167150000Y-69725000D03*
%TD*%
D14*
%TO.C,J5*%
X149300000Y-97370000D03*
D15*
X149300000Y-99910000D03*
X149300000Y-102450000D03*
%TD*%
D16*
%TO.C,J10*%
X163820000Y-150450000D03*
X161280000Y-150450000D03*
X158740000Y-150450000D03*
X156200000Y-150450000D03*
D17*
X153660000Y-150450000D03*
%TD*%
D34*
%TO.C,C75*%
X206825000Y-112075000D03*
X206825000Y-110525000D03*
%TD*%
D18*
%TO.C,U15*%
X203250000Y-85750000D03*
X203900000Y-85750000D03*
X204550000Y-85750000D03*
X205200000Y-85750000D03*
X205200000Y-91475000D03*
X204550000Y-91475000D03*
X203900000Y-91475000D03*
X203250000Y-91475000D03*
%TD*%
D22*
%TO.C,J28*%
X151232000Y-66775000D03*
X137512000Y-66775000D03*
D35*
X147130000Y-63975000D03*
X144360000Y-63975000D03*
X141590000Y-63975000D03*
D36*
X145745000Y-66815000D03*
D35*
X142975000Y-66870000D03*
D37*
X160995000Y-66175000D03*
X127695000Y-66175000D03*
%TD*%
D34*
%TO.C,C150*%
X208300000Y-91562500D03*
X208300000Y-90012500D03*
%TD*%
D16*
%TO.C,J20*%
X149540000Y-150450000D03*
D17*
X147000000Y-150450000D03*
D38*
X149540000Y-152990000D03*
X147000000Y-152990000D03*
%TD*%
D39*
%TO.C,FB10*%
X209800000Y-90000000D03*
X209800000Y-91575000D03*
%TD*%
%TO.C,FB14*%
X209825000Y-110512500D03*
X209825000Y-112087500D03*
%TD*%
D34*
%TO.C,C16*%
X206725000Y-132725000D03*
X206725000Y-131175000D03*
%TD*%
D33*
%TO.C,C167*%
X100025000Y-90050000D03*
X100025000Y-88150000D03*
%TD*%
D34*
%TO.C,C93*%
X208325000Y-112075000D03*
X208325000Y-110525000D03*
%TD*%
D40*
%TO.C,R104*%
X111802500Y-84157500D03*
X111802500Y-85982500D03*
%TD*%
D27*
%TO.C,J9*%
X192685000Y-70137500D03*
X192685000Y-61437500D03*
X197765000Y-70137500D03*
X197765000Y-61437500D03*
%TD*%
D41*
%TO.C,R90*%
X113802500Y-85982500D03*
X113802500Y-84157500D03*
%TD*%
D42*
%TO.C,C164*%
X101025000Y-91850000D03*
X101025000Y-93750000D03*
%TD*%
D14*
%TO.C,J1*%
X134500000Y-97370000D03*
D15*
X134500000Y-99910000D03*
X134500000Y-102450000D03*
%TD*%
D18*
%TO.C,U13*%
X203175000Y-126937500D03*
X203825000Y-126937500D03*
X204475000Y-126937500D03*
X205125000Y-126937500D03*
X205125000Y-132662500D03*
X204475000Y-132662500D03*
X203825000Y-132662500D03*
X203175000Y-132662500D03*
%TD*%
D34*
%TO.C,C2*%
X208225000Y-132725000D03*
X208225000Y-131175000D03*
%TD*%
D42*
%TO.C,C165*%
X98975000Y-91850000D03*
X98975000Y-93750000D03*
%TD*%
D34*
%TO.C,C17*%
X206800000Y-91562500D03*
X206800000Y-90012500D03*
%TD*%
D21*
%TO.C,H9*%
X221150000Y-59000000D03*
X221918845Y-57143845D03*
X221918845Y-60856155D03*
X223775000Y-56375000D03*
D22*
X223775000Y-59000000D03*
D21*
X223775000Y-61625000D03*
X225631155Y-57143845D03*
X225631155Y-60856155D03*
X226400000Y-59000000D03*
%TD*%
D14*
%TO.C,J4*%
X138200000Y-97370000D03*
D15*
X138200000Y-99910000D03*
X138200000Y-102450000D03*
%TD*%
D14*
%TO.C,J3*%
X141900000Y-97370000D03*
D15*
X141900000Y-99910000D03*
X141900000Y-102450000D03*
%TD*%
D11*
%TO.C,R51*%
X201675000Y-112125000D03*
X201675000Y-110475000D03*
%TD*%
D14*
%TO.C,J2*%
X130800000Y-97370000D03*
D15*
X130800000Y-99910000D03*
X130800000Y-102450000D03*
%TD*%
D16*
%TO.C,J8*%
X131200000Y-150425000D03*
D17*
X128660000Y-150425000D03*
D38*
X131200000Y-152965000D03*
X128660000Y-152965000D03*
%TD*%
D39*
%TO.C,FB9*%
X209725000Y-131162500D03*
X209725000Y-132737500D03*
%TD*%
D11*
%TO.C,R43*%
X201575000Y-132625000D03*
X201575000Y-130975000D03*
%TD*%
D23*
%TO.C,C85*%
X200075000Y-131025000D03*
X200075000Y-132575000D03*
%TD*%
D14*
%TO.C,J24*%
X99225000Y-76975000D03*
D15*
X96685000Y-76975000D03*
X94145000Y-76975000D03*
%TD*%
D43*
%TO.C,C184*%
X174561277Y-81425000D03*
X174561277Y-84375000D03*
%TD*%
D44*
%TO.C,C185*%
X174459792Y-113038849D03*
X174459792Y-110088849D03*
%TD*%
D43*
%TO.C,C186*%
X164459792Y-114788849D03*
X164459792Y-117738849D03*
%TD*%
%TO.C,C80*%
X167789849Y-81425000D03*
X167789849Y-84375000D03*
%TD*%
D23*
%TO.C,C70*%
X135925000Y-55520000D03*
X135925000Y-57070000D03*
%TD*%
D42*
%TO.C,C117*%
X116850000Y-120317500D03*
X116850000Y-122217500D03*
%TD*%
%TO.C,C112*%
X116850000Y-113067500D03*
X116850000Y-114967500D03*
%TD*%
D44*
%TO.C,C87*%
X167751519Y-113038849D03*
X167751519Y-110088849D03*
%TD*%
D45*
%TO.C,C111*%
X112725000Y-100475000D03*
X110825000Y-100475000D03*
%TD*%
%TO.C,C120*%
X112900000Y-125717500D03*
X111000000Y-125717500D03*
%TD*%
D46*
%TO.C,R47*%
X171933282Y-94244892D03*
X170766556Y-95411618D03*
%TD*%
D47*
%TO.C,C71*%
X135350000Y-58695000D03*
X136900000Y-58695000D03*
%TD*%
D48*
%TO.C,U31*%
X133175000Y-55740000D03*
X133175000Y-57010000D03*
X133175000Y-58280000D03*
X133175000Y-59550000D03*
X128225000Y-59550000D03*
X128225000Y-58280000D03*
X128225000Y-57010000D03*
X128225000Y-55740000D03*
%TD*%
D49*
%TO.C,R40*%
X164089942Y-106633459D03*
X165256668Y-105466733D03*
%TD*%
D23*
%TO.C,C171*%
X147400000Y-57665000D03*
X147400000Y-59215000D03*
%TD*%
D50*
%TO.C,U19*%
X114500000Y-116432500D03*
D51*
X108200000Y-114152500D03*
D50*
X114500000Y-111872500D03*
%TD*%
D52*
%TO.C,D2*%
X113290000Y-75237500D03*
X120090000Y-75237500D03*
%TD*%
D49*
%TO.C,R46*%
X163029282Y-105572799D03*
X164196008Y-104406073D03*
%TD*%
D43*
%TO.C,C183*%
X171175563Y-81425000D03*
X171175563Y-84375000D03*
%TD*%
D48*
%TO.C,U11*%
X144975000Y-55710000D03*
X144975000Y-56980000D03*
X144975000Y-58250000D03*
X144975000Y-59520000D03*
X140025000Y-59520000D03*
X140025000Y-58250000D03*
X140025000Y-56980000D03*
X140025000Y-55710000D03*
%TD*%
D43*
%TO.C,C169*%
X174459792Y-114788849D03*
X174459792Y-117738849D03*
%TD*%
D50*
%TO.C,U20*%
X114500000Y-123500000D03*
D51*
X108200000Y-121220000D03*
D50*
X114500000Y-118940000D03*
%TD*%
%TO.C,U18*%
X114500000Y-107347500D03*
D51*
X108200000Y-105067500D03*
D50*
X114500000Y-102787500D03*
%TD*%
D46*
%TO.C,R35*%
X169811961Y-92123572D03*
X168645235Y-93290298D03*
%TD*%
D44*
%TO.C,C149*%
X171179315Y-79575000D03*
X171179315Y-76625000D03*
%TD*%
%TO.C,C192*%
X171137233Y-113038849D03*
X171137233Y-110088849D03*
%TD*%
D23*
%TO.C,C148*%
X155225000Y-56200000D03*
X155225000Y-57750000D03*
%TD*%
D43*
%TO.C,C193*%
X164404135Y-81425000D03*
X164404135Y-84375000D03*
%TD*%
D53*
%TO.C,U16*%
X142140000Y-139725000D03*
X139600000Y-139725000D03*
X139600000Y-146025000D03*
X142140000Y-146025000D03*
%TD*%
D49*
%TO.C,R34*%
X165164458Y-107707975D03*
X166331184Y-106541249D03*
%TD*%
D42*
%TO.C,C110*%
X116975000Y-104525000D03*
X116975000Y-106425000D03*
%TD*%
D44*
%TO.C,C189*%
X167793601Y-79575000D03*
X167793601Y-76625000D03*
%TD*%
D43*
%TO.C,C187*%
X167751519Y-114788849D03*
X167751519Y-117738849D03*
%TD*%
D11*
%TO.C,R88*%
X136725000Y-62425000D03*
X136725000Y-60775000D03*
%TD*%
D47*
%TO.C,C199*%
X155425000Y-60850000D03*
X156975000Y-60850000D03*
%TD*%
%TO.C,C168*%
X155200000Y-59250000D03*
X156750000Y-59250000D03*
%TD*%
D54*
%TO.C,U29*%
X153425000Y-56150000D03*
D55*
X153337500Y-57650000D03*
D54*
X153425000Y-59150000D03*
%TD*%
D45*
%TO.C,C114*%
X112950000Y-109600000D03*
X111050000Y-109600000D03*
%TD*%
D46*
%TO.C,R41*%
X170872622Y-93184232D03*
X169705896Y-94350958D03*
%TD*%
D44*
%TO.C,C172*%
X164444376Y-113038849D03*
X164444376Y-110088849D03*
%TD*%
D43*
%TO.C,C188*%
X171137233Y-114788849D03*
X171137233Y-117738849D03*
%TD*%
D44*
%TO.C,C197*%
X164407887Y-79575000D03*
X164407887Y-76625000D03*
%TD*%
%TO.C,C194*%
X174565033Y-79575000D03*
X174565033Y-76625000D03*
%TD*%
G36*
X196693039Y-76269685D02*
G01*
X196738794Y-76322489D01*
X196750000Y-76374000D01*
X196750000Y-118276000D01*
X196730315Y-118343039D01*
X196677511Y-118388794D01*
X196626000Y-118400000D01*
X177324000Y-118400000D01*
X177256961Y-118380315D01*
X177211206Y-118327511D01*
X177200000Y-118276000D01*
X177200000Y-109474000D01*
X177219685Y-109406961D01*
X177272489Y-109361206D01*
X177324000Y-109350000D01*
X189550000Y-109350000D01*
X189550000Y-85050000D01*
X177374000Y-85050000D01*
X177306961Y-85030315D01*
X177261206Y-84977511D01*
X177250000Y-84926000D01*
X177250000Y-76374000D01*
X177269685Y-76306961D01*
X177322489Y-76261206D01*
X177374000Y-76250000D01*
X196626000Y-76250000D01*
X196693039Y-76269685D01*
G37*
M02*
