%TF.GenerationSoftware,KiCad,Pcbnew,8.0.4*%
%TF.CreationDate,2024-10-18T00:11:30-06:00*%
%TF.ProjectId,Motor Controller,4d6f746f-7220-4436-9f6e-74726f6c6c65,Mk. 1*%
%TF.SameCoordinates,Original*%
%TF.FileFunction,Paste,Top*%
%TF.FilePolarity,Positive*%
%FSLAX46Y46*%
G04 Gerber Fmt 4.6, Leading zero omitted, Abs format (unit mm)*
G04 Created by KiCad (PCBNEW 8.0.4) date 2024-10-18 00:11:30*
%MOMM*%
%LPD*%
G01*
G04 APERTURE LIST*
G04 Aperture macros list*
%AMRoundRect*
0 Rectangle with rounded corners*
0 $1 Rounding radius*
0 $2 $3 $4 $5 $6 $7 $8 $9 X,Y pos of 4 corners*
0 Add a 4 corners polygon primitive as box body*
4,1,4,$2,$3,$4,$5,$6,$7,$8,$9,$2,$3,0*
0 Add four circle primitives for the rounded corners*
1,1,$1+$1,$2,$3*
1,1,$1+$1,$4,$5*
1,1,$1+$1,$6,$7*
1,1,$1+$1,$8,$9*
0 Add four rect primitives between the rounded corners*
20,1,$1+$1,$2,$3,$4,$5,0*
20,1,$1+$1,$4,$5,$6,$7,0*
20,1,$1+$1,$6,$7,$8,$9,0*
20,1,$1+$1,$8,$9,$2,$3,0*%
%AMRotRect*
0 Rectangle, with rotation*
0 The origin of the aperture is its center*
0 $1 length*
0 $2 width*
0 $3 Rotation angle, in degrees counterclockwise*
0 Add horizontal line*
21,1,$1,$2,0,0,$3*%
%AMFreePoly0*
4,1,14,-0.697500,2.280000,2.027500,2.280000,2.502500,2.280000,2.502500,-2.280000,-0.697500,-2.280000,-0.697500,-2.775000,-1.602500,-2.775000,-1.602500,-2.280000,-2.027500,-2.280000,-2.027500,2.280000,-1.602500,2.280000,-1.602500,2.775000,-0.697500,2.775000,-0.697500,2.280000,-0.697500,2.280000,$1*%
G04 Aperture macros list end*
%ADD10C,0.000000*%
%ADD11RoundRect,0.250000X0.650000X2.450000X-0.650000X2.450000X-0.650000X-2.450000X0.650000X-2.450000X0*%
%ADD12RoundRect,0.187500X-0.187500X0.312500X-0.187500X-0.312500X0.187500X-0.312500X0.187500X0.312500X0*%
%ADD13FreePoly0,270.000000*%
%ADD14RoundRect,0.225000X0.017678X-0.335876X0.335876X-0.017678X-0.017678X0.335876X-0.335876X0.017678X0*%
%ADD15RoundRect,0.225000X-0.375000X0.225000X-0.375000X-0.225000X0.375000X-0.225000X0.375000X0.225000X0*%
%ADD16RoundRect,0.225000X0.335876X0.017678X0.017678X0.335876X-0.335876X-0.017678X-0.017678X-0.335876X0*%
%ADD17RoundRect,0.200000X0.275000X-0.200000X0.275000X0.200000X-0.275000X0.200000X-0.275000X-0.200000X0*%
%ADD18RoundRect,0.150000X-0.521491X0.309359X0.309359X-0.521491X0.521491X-0.309359X-0.309359X0.521491X0*%
%ADD19RoundRect,0.200000X-0.335876X-0.053033X-0.053033X-0.335876X0.335876X0.053033X0.053033X0.335876X0*%
%ADD20RoundRect,0.187500X0.187500X-0.312500X0.187500X0.312500X-0.187500X0.312500X-0.187500X-0.312500X0*%
%ADD21FreePoly0,90.000000*%
%ADD22RoundRect,0.250000X-1.100000X0.325000X-1.100000X-0.325000X1.100000X-0.325000X1.100000X0.325000X0*%
%ADD23R,0.900000X1.100000*%
%ADD24RoundRect,0.200000X0.053033X-0.335876X0.335876X-0.053033X-0.053033X0.335876X-0.335876X0.053033X0*%
%ADD25RoundRect,0.200000X0.200000X0.275000X-0.200000X0.275000X-0.200000X-0.275000X0.200000X-0.275000X0*%
%ADD26RoundRect,0.200000X-0.275000X0.200000X-0.275000X-0.200000X0.275000X-0.200000X0.275000X0.200000X0*%
%ADD27RoundRect,0.200000X-0.200000X-0.275000X0.200000X-0.275000X0.200000X0.275000X-0.200000X0.275000X0*%
%ADD28RoundRect,0.225000X-0.225000X-0.250000X0.225000X-0.250000X0.225000X0.250000X-0.225000X0.250000X0*%
%ADD29RoundRect,0.225000X-0.017678X0.335876X-0.335876X0.017678X0.017678X-0.335876X0.335876X-0.017678X0*%
%ADD30RoundRect,0.218750X0.424264X0.114905X0.114905X0.424264X-0.424264X-0.114905X-0.114905X-0.424264X0*%
%ADD31RoundRect,0.250000X0.512652X0.159099X0.159099X0.512652X-0.512652X-0.159099X-0.159099X-0.512652X0*%
%ADD32RoundRect,0.250000X0.250000X0.475000X-0.250000X0.475000X-0.250000X-0.475000X0.250000X-0.475000X0*%
%ADD33RoundRect,0.250000X-0.345000X0.345000X-0.345000X-0.345000X0.345000X-0.345000X0.345000X0.345000X0*%
%ADD34RoundRect,0.100000X-0.100000X0.687500X-0.100000X-0.687500X0.100000X-0.687500X0.100000X0.687500X0*%
%ADD35RoundRect,0.225000X-0.250000X0.225000X-0.250000X-0.225000X0.250000X-0.225000X0.250000X0.225000X0*%
%ADD36RoundRect,0.150000X-0.512500X-0.150000X0.512500X-0.150000X0.512500X0.150000X-0.512500X0.150000X0*%
%ADD37RoundRect,0.150000X-0.150000X0.587500X-0.150000X-0.587500X0.150000X-0.587500X0.150000X0.587500X0*%
%ADD38RoundRect,0.225000X-0.335876X-0.017678X-0.017678X-0.335876X0.335876X0.017678X0.017678X0.335876X0*%
%ADD39RoundRect,0.225000X-0.225000X-0.375000X0.225000X-0.375000X0.225000X0.375000X-0.225000X0.375000X0*%
%ADD40RoundRect,0.250000X-0.159099X0.512652X-0.512652X0.159099X0.159099X-0.512652X0.512652X-0.159099X0*%
%ADD41RoundRect,0.250000X1.100000X-0.325000X1.100000X0.325000X-1.100000X0.325000X-1.100000X-0.325000X0*%
%ADD42RoundRect,0.200000X0.335876X0.053033X0.053033X0.335876X-0.335876X-0.053033X-0.053033X-0.335876X0*%
%ADD43RoundRect,0.250000X-0.548008X1.007627X-1.007627X0.548008X0.548008X-1.007627X1.007627X-0.548008X0*%
%ADD44RotRect,8.991600X5.003800X315.000000*%
%ADD45RotRect,0.204000X0.750000X315.000000*%
%ADD46RotRect,0.204000X0.750000X45.000000*%
%ADD47RoundRect,0.200000X-0.053033X0.335876X-0.335876X0.053033X0.053033X-0.335876X0.335876X-0.053033X0*%
%ADD48RoundRect,0.150000X0.825000X0.150000X-0.825000X0.150000X-0.825000X-0.150000X0.825000X-0.150000X0*%
%ADD49RoundRect,0.357142X-0.642858X-1.392858X0.642858X-1.392858X0.642858X1.392858X-0.642858X1.392858X0*%
%ADD50RotRect,0.254000X0.762000X315.000000*%
%ADD51RotRect,0.254000X0.762000X225.000000*%
%ADD52RotRect,4.089400X4.089400X225.000000*%
%ADD53RotRect,1.400000X1.200000X45.000000*%
%ADD54RoundRect,0.075000X0.441942X-0.548008X0.548008X-0.441942X-0.441942X0.548008X-0.548008X0.441942X0*%
%ADD55RoundRect,0.075000X-0.441942X-0.548008X0.548008X0.441942X0.441942X0.548008X-0.548008X-0.441942X0*%
%ADD56RoundRect,0.250000X-0.512652X-0.159099X-0.159099X-0.512652X0.512652X0.159099X0.159099X0.512652X0*%
%ADD57RotRect,1.400000X1.200000X225.000000*%
%ADD58RoundRect,0.218750X0.218750X0.256250X-0.218750X0.256250X-0.218750X-0.256250X0.218750X-0.256250X0*%
%ADD59RoundRect,0.218750X-0.424264X-0.114905X-0.114905X-0.424264X0.424264X0.114905X0.114905X0.424264X0*%
%ADD60RoundRect,0.250000X-0.475000X0.250000X-0.475000X-0.250000X0.475000X-0.250000X0.475000X0.250000X0*%
%ADD61RoundRect,0.218750X-0.114905X0.424264X-0.424264X0.114905X0.114905X-0.424264X0.424264X-0.114905X0*%
%ADD62RoundRect,0.250000X1.500000X0.550000X-1.500000X0.550000X-1.500000X-0.550000X1.500000X-0.550000X0*%
G04 APERTURE END LIST*
D10*
%TO.C,U2*%
G36*
X163368004Y-98310756D02*
G01*
X162545544Y-99133216D01*
X161723084Y-98310756D01*
X162545544Y-97488296D01*
X163368004Y-98310756D01*
G37*
G36*
X164331884Y-97346875D02*
G01*
X163509424Y-98169335D01*
X162686964Y-97346875D01*
X163509424Y-96524415D01*
X164331884Y-97346875D01*
G37*
G36*
X164331884Y-99274637D02*
G01*
X163509424Y-100097097D01*
X162686964Y-99274637D01*
X163509424Y-98452177D01*
X164331884Y-99274637D01*
G37*
G36*
X165295765Y-96382995D02*
G01*
X164473305Y-97205455D01*
X163650845Y-96382995D01*
X164473305Y-95560535D01*
X165295765Y-96382995D01*
G37*
G36*
X165295765Y-98310756D02*
G01*
X164473305Y-99133216D01*
X163650845Y-98310756D01*
X164473305Y-97488296D01*
X165295765Y-98310756D01*
G37*
G36*
X165295765Y-100238517D02*
G01*
X164473305Y-101060977D01*
X163650845Y-100238517D01*
X164473305Y-99416057D01*
X165295765Y-100238517D01*
G37*
G36*
X166259646Y-97346875D02*
G01*
X165437186Y-98169335D01*
X164614726Y-97346875D01*
X165437186Y-96524415D01*
X166259646Y-97346875D01*
G37*
G36*
X166259646Y-99274637D02*
G01*
X165437186Y-100097097D01*
X164614726Y-99274637D01*
X165437186Y-98452177D01*
X166259646Y-99274637D01*
G37*
G36*
X167223526Y-98310756D02*
G01*
X166401066Y-99133216D01*
X165578606Y-98310756D01*
X166401066Y-97488296D01*
X167223526Y-98310756D01*
G37*
%TD*%
D11*
%TO.C,C45*%
X179430000Y-65400000D03*
X174330000Y-65400000D03*
%TD*%
D12*
%TO.C,U38*%
X181661823Y-99682327D03*
X180391823Y-99682327D03*
X179121823Y-99682327D03*
X177851823Y-99682327D03*
D13*
X179756823Y-103174577D03*
%TD*%
D14*
%TO.C,C79*%
X168529524Y-102529951D03*
X169625540Y-101433935D03*
%TD*%
D15*
%TO.C,D19*%
X149850000Y-129197500D03*
X149850000Y-132497500D03*
%TD*%
D16*
%TO.C,C43*%
X143601992Y-120751992D03*
X144698008Y-121848008D03*
%TD*%
D17*
%TO.C,R97*%
X154900000Y-136222500D03*
X154900000Y-134572500D03*
%TD*%
D18*
%TO.C,U30*%
X133056587Y-75351456D03*
X131059010Y-74697382D03*
X132402513Y-73353879D03*
%TD*%
D19*
%TO.C,R44*%
X169389942Y-105966733D03*
X170556668Y-107133459D03*
%TD*%
D16*
%TO.C,C136*%
X120591386Y-122054630D03*
X119495370Y-120958614D03*
%TD*%
D20*
%TO.C,U17*%
X183995000Y-120247250D03*
X185265000Y-120247250D03*
X186535000Y-120247250D03*
X187805000Y-120247250D03*
D21*
X185900000Y-116755000D03*
%TD*%
D22*
%TO.C,C173*%
X164460000Y-114785000D03*
X164460000Y-117735000D03*
%TD*%
D23*
%TO.C,U47*%
X148300000Y-139725000D03*
X150840000Y-139725000D03*
X150840000Y-146025000D03*
X148300000Y-146025000D03*
%TD*%
D20*
%TO.C,U42*%
X183995000Y-94497250D03*
X185265000Y-94497250D03*
X186535000Y-94497250D03*
X187805000Y-94497250D03*
D21*
X185900000Y-91005000D03*
%TD*%
D24*
%TO.C,R86*%
X169572508Y-103643645D03*
X170739234Y-102476919D03*
%TD*%
D25*
%TO.C,R76*%
X92500000Y-74375000D03*
X94150000Y-74375000D03*
%TD*%
D26*
%TO.C,R50*%
X156275000Y-146180000D03*
X156275000Y-144530000D03*
%TD*%
D27*
%TO.C,R16*%
X97485000Y-81100000D03*
X99135000Y-81100000D03*
%TD*%
D17*
%TO.C,R56*%
X160925000Y-144525000D03*
X160925000Y-146175000D03*
%TD*%
D28*
%TO.C,C47*%
X173925000Y-71300000D03*
X175475000Y-71300000D03*
%TD*%
D22*
%TO.C,C196*%
X174560000Y-81425000D03*
X174560000Y-84375000D03*
%TD*%
D29*
%TO.C,C10*%
X126215329Y-90890128D03*
X127311345Y-89794112D03*
%TD*%
D12*
%TO.C,U36*%
X181661823Y-107507750D03*
X180391823Y-107507750D03*
X179121823Y-107507750D03*
X177851823Y-107507750D03*
D13*
X179756823Y-111000000D03*
%TD*%
D30*
%TO.C,FB2*%
X142060847Y-121558155D03*
X143563449Y-123060757D03*
%TD*%
D31*
%TO.C,C32*%
X158651705Y-109930597D03*
X157308203Y-108587095D03*
%TD*%
D32*
%TO.C,C46*%
X178850000Y-69400000D03*
X176950000Y-69400000D03*
%TD*%
D33*
%TO.C,U21*%
X102240000Y-68960000D03*
X100760000Y-68960000D03*
X102240000Y-70440000D03*
X100760000Y-70440000D03*
D34*
X104425000Y-66837500D03*
X103775000Y-66837500D03*
X103125000Y-66837500D03*
X102475000Y-66837500D03*
X101825000Y-66837500D03*
X101175000Y-66837500D03*
X100525000Y-66837500D03*
X99875000Y-66837500D03*
X99225000Y-66837500D03*
X98575000Y-66837500D03*
X98575000Y-72562500D03*
X99225000Y-72562500D03*
X99875000Y-72562500D03*
X100525000Y-72562500D03*
X101175000Y-72562500D03*
X101825000Y-72562500D03*
X102475000Y-72562500D03*
X103125000Y-72562500D03*
X103775000Y-72562500D03*
X104425000Y-72562500D03*
%TD*%
D16*
%TO.C,C36*%
X129140811Y-122944759D03*
X130236827Y-124040775D03*
%TD*%
D31*
%TO.C,C28*%
X169071751Y-91421751D03*
X167728249Y-90078249D03*
%TD*%
D35*
%TO.C,C147*%
X151800000Y-134622500D03*
X151800000Y-136172500D03*
%TD*%
%TO.C,C19*%
X167025000Y-130372500D03*
X167025000Y-131922500D03*
%TD*%
D14*
%TO.C,C13*%
X136645155Y-78162206D03*
X135549139Y-79258222D03*
%TD*%
D22*
%TO.C,C190*%
X171180000Y-81425000D03*
X171180000Y-84375000D03*
%TD*%
D28*
%TO.C,C97*%
X160900000Y-143050000D03*
X159350000Y-143050000D03*
%TD*%
D30*
%TO.C,FB7*%
X122915999Y-119783049D03*
X121413397Y-118280447D03*
%TD*%
D17*
%TO.C,R92*%
X153375000Y-125047500D03*
X153375000Y-123397500D03*
%TD*%
D36*
%TO.C,U5*%
X173262500Y-72850000D03*
X173262500Y-73800000D03*
X173262500Y-74750000D03*
X175537500Y-74750000D03*
X175537500Y-73800000D03*
X175537500Y-72850000D03*
%TD*%
D35*
%TO.C,C77*%
X167000000Y-124647500D03*
X167000000Y-126197500D03*
%TD*%
D16*
%TO.C,C137*%
X121698008Y-120948008D03*
X120601992Y-119851992D03*
%TD*%
D17*
%TO.C,R82*%
X165450000Y-126247500D03*
X165450000Y-124597500D03*
%TD*%
D37*
%TO.C,Q21*%
X104500000Y-55375000D03*
X102600000Y-55375000D03*
X103550000Y-57250000D03*
%TD*%
D17*
%TO.C,R52*%
X157825000Y-144530000D03*
X157825000Y-146180000D03*
%TD*%
%TO.C,R84*%
X165450000Y-137497500D03*
X165450000Y-135847500D03*
%TD*%
D38*
%TO.C,C14*%
X149292566Y-82184389D03*
X148196550Y-81088373D03*
%TD*%
D39*
%TO.C,D26*%
X163900000Y-122747500D03*
X167200000Y-122747500D03*
%TD*%
D16*
%TO.C,C27*%
X158888269Y-105408966D03*
X157792253Y-104312950D03*
%TD*%
D19*
%TO.C,R39*%
X169116637Y-95016637D03*
X170283363Y-96183363D03*
%TD*%
D35*
%TO.C,C81*%
X207850000Y-106725000D03*
X207850000Y-108275000D03*
%TD*%
D40*
%TO.C,C7*%
X124677372Y-89953210D03*
X126020874Y-88609708D03*
%TD*%
D27*
%TO.C,R10*%
X98459284Y-62434284D03*
X100109284Y-62434284D03*
%TD*%
D29*
%TO.C,C38*%
X123190811Y-117040775D03*
X124286827Y-115944759D03*
%TD*%
D41*
%TO.C,C174*%
X174470000Y-113035000D03*
X174470000Y-110085000D03*
%TD*%
D16*
%TO.C,C23*%
X159989429Y-104307806D03*
X158893413Y-103211790D03*
%TD*%
D41*
%TO.C,C177*%
X164450000Y-113035000D03*
X164450000Y-110085000D03*
%TD*%
D28*
%TO.C,C95*%
X157800000Y-143050000D03*
X156250000Y-143050000D03*
%TD*%
D16*
%TO.C,C31*%
X157405588Y-111240354D03*
X156309572Y-110144338D03*
%TD*%
D41*
%TO.C,C195*%
X174560000Y-79575000D03*
X174560000Y-76625000D03*
%TD*%
D17*
%TO.C,R18*%
X97200000Y-72625000D03*
X97200000Y-70975000D03*
%TD*%
D38*
%TO.C,C8*%
X138390574Y-93032397D03*
X137294558Y-91936381D03*
%TD*%
D12*
%TO.C,U44*%
X181661823Y-74382327D03*
X180391823Y-74382327D03*
X179121823Y-74382327D03*
X177851823Y-74382327D03*
D13*
X179756823Y-77874577D03*
%TD*%
D17*
%TO.C,R93*%
X154900000Y-125047500D03*
X154900000Y-123397500D03*
%TD*%
D22*
%TO.C,C180*%
X171151250Y-114788849D03*
X171151250Y-117738849D03*
%TD*%
D17*
%TO.C,R9*%
X165475000Y-131972500D03*
X165475000Y-130322500D03*
%TD*%
D39*
%TO.C,D17*%
X163875000Y-133972500D03*
X167175000Y-133972500D03*
%TD*%
D17*
%TO.C,R96*%
X153350000Y-136222500D03*
X153350000Y-134572500D03*
%TD*%
D20*
%TO.C,U34*%
X183995000Y-127392250D03*
X185265000Y-127392250D03*
X186535000Y-127392250D03*
X187805000Y-127392250D03*
D21*
X185900000Y-123900000D03*
%TD*%
D42*
%TO.C,R7*%
X159996817Y-108719835D03*
X158830091Y-107553109D03*
%TD*%
D23*
%TO.C,U46*%
X139650000Y-139700000D03*
X142190000Y-139700000D03*
X142190000Y-146000000D03*
X139650000Y-146000000D03*
%TD*%
D22*
%TO.C,C176*%
X164400000Y-81425000D03*
X164400000Y-84375000D03*
%TD*%
D25*
%TO.C,R19*%
X170675000Y-74750000D03*
X169025000Y-74750000D03*
%TD*%
D19*
%TO.C,R38*%
X171289942Y-104066733D03*
X172456668Y-105233459D03*
%TD*%
D29*
%TO.C,C25*%
X157810432Y-102128809D03*
X156714416Y-103224825D03*
%TD*%
D12*
%TO.C,U37*%
X187805000Y-99682327D03*
X186535000Y-99682327D03*
X185265000Y-99682327D03*
X183995000Y-99682327D03*
D13*
X185900000Y-103174577D03*
%TD*%
D14*
%TO.C,C35*%
X124536827Y-112044759D03*
X123440811Y-113140775D03*
%TD*%
D29*
%TO.C,C86*%
X167460671Y-103598804D03*
X166364655Y-104694820D03*
%TD*%
D23*
%TO.C,U48*%
X135300000Y-139700000D03*
X137840000Y-139700000D03*
X137840000Y-146000000D03*
X135300000Y-146000000D03*
%TD*%
D43*
%TO.C,C201*%
X155981266Y-100469348D03*
X153895300Y-102555314D03*
%TD*%
D44*
%TO.C,U1*%
X132650000Y-86400000D03*
D45*
X131643222Y-80901398D03*
X131926064Y-81184240D03*
X132208906Y-81467082D03*
X132491748Y-81749924D03*
X132774592Y-82032769D03*
X133057434Y-82315611D03*
X133340276Y-82598453D03*
X133623120Y-82881297D03*
X133905962Y-83164139D03*
X134188804Y-83446981D03*
X134471648Y-83729825D03*
X134754490Y-84012667D03*
X135037333Y-84295510D03*
X135320175Y-84578352D03*
X135603019Y-84861196D03*
X135885861Y-85144038D03*
X136168703Y-85426880D03*
X136451547Y-85709724D03*
X136734389Y-85992566D03*
X137017231Y-86275408D03*
X137300076Y-86558252D03*
X137582918Y-86841094D03*
X137865760Y-87123936D03*
X138148602Y-87406778D03*
D46*
X138144291Y-88217336D03*
X137861449Y-88500178D03*
X137578605Y-88783022D03*
X137295763Y-89065864D03*
X137012921Y-89348706D03*
X136730077Y-89631550D03*
X136447235Y-89914392D03*
X136164392Y-90197235D03*
X135881550Y-90480077D03*
X135598706Y-90762921D03*
X135315864Y-91045763D03*
X135033022Y-91328605D03*
X134750178Y-91611449D03*
X134467336Y-91894291D03*
D45*
X133656778Y-91898602D03*
X133373936Y-91615760D03*
X133091094Y-91332918D03*
X132808252Y-91050076D03*
X132525408Y-90767231D03*
X132242566Y-90484389D03*
X131959724Y-90201547D03*
X131676880Y-89918703D03*
X131394038Y-89635861D03*
X131111196Y-89353019D03*
X130828352Y-89070175D03*
X130545510Y-88787333D03*
X130262667Y-88504490D03*
X129979825Y-88221648D03*
X129696981Y-87938804D03*
X129414139Y-87655962D03*
X129131297Y-87373120D03*
X128848453Y-87090276D03*
X128565611Y-86807434D03*
X128282769Y-86524592D03*
X127999924Y-86241748D03*
X127717082Y-85958906D03*
X127434240Y-85676064D03*
X127151398Y-85393222D03*
D46*
X127155709Y-84582664D03*
X127438551Y-84299822D03*
X127721395Y-84016978D03*
X128004237Y-83734136D03*
X128287079Y-83451294D03*
X128569923Y-83168450D03*
X128852765Y-82885608D03*
X129135608Y-82602765D03*
X129418450Y-82319923D03*
X129701294Y-82037079D03*
X129984136Y-81754237D03*
X130266978Y-81471395D03*
X130549822Y-81188551D03*
X130832664Y-80905709D03*
%TD*%
D47*
%TO.C,R87*%
X168574365Y-104641787D03*
X167407639Y-105808513D03*
%TD*%
D38*
%TO.C,C20*%
X148072807Y-83368793D03*
X146976791Y-82272777D03*
%TD*%
D20*
%TO.C,U22*%
X177851823Y-127392250D03*
X179121823Y-127392250D03*
X180391823Y-127392250D03*
X181661823Y-127392250D03*
D21*
X179756823Y-123900000D03*
%TD*%
D15*
%TO.C,D27*%
X149850000Y-123447500D03*
X149850000Y-126747500D03*
%TD*%
D48*
%TO.C,U25*%
X161875000Y-127177500D03*
X161875000Y-125907500D03*
X161875000Y-124637500D03*
X161875000Y-123367500D03*
X156925000Y-123367500D03*
X156925000Y-124637500D03*
X156925000Y-125907500D03*
X156925000Y-127177500D03*
%TD*%
D17*
%TO.C,R12*%
X97000000Y-64037500D03*
X97000000Y-62387500D03*
%TD*%
D26*
%TO.C,R21*%
X101850000Y-77387500D03*
X101850000Y-79037500D03*
%TD*%
D35*
%TO.C,C74*%
X208270000Y-86175000D03*
X208270000Y-87725000D03*
%TD*%
D22*
%TO.C,C175*%
X167790000Y-81425000D03*
X167790000Y-84375000D03*
%TD*%
%TO.C,C179*%
X174484584Y-114788849D03*
X174484584Y-117738849D03*
%TD*%
D49*
%TO.C,R42*%
X201550000Y-103425336D03*
X206950000Y-103425336D03*
%TD*%
D20*
%TO.C,U39*%
X177851823Y-87017673D03*
X179121823Y-87017673D03*
X180391823Y-87017673D03*
X181661823Y-87017673D03*
D21*
X179756823Y-83525423D03*
%TD*%
D40*
%TO.C,C12*%
X119480137Y-84190290D03*
X120823639Y-82846788D03*
%TD*%
D48*
%TO.C,U26*%
X161875000Y-138402500D03*
X161875000Y-137132500D03*
X161875000Y-135862500D03*
X161875000Y-134592500D03*
X156925000Y-134592500D03*
X156925000Y-135862500D03*
X156925000Y-137132500D03*
X156925000Y-138402500D03*
%TD*%
D25*
%TO.C,R22*%
X104135000Y-74412500D03*
X102485000Y-74412500D03*
%TD*%
D41*
%TO.C,C73*%
X171180000Y-79575000D03*
X171180000Y-76625000D03*
%TD*%
D50*
%TO.C,U2*%
X168664044Y-97655551D03*
X167956937Y-96948444D03*
X167603385Y-96594891D03*
X167249830Y-96241337D03*
X166896277Y-95887784D03*
X166542724Y-95534231D03*
X166189170Y-95180676D03*
X165835617Y-94827124D03*
X165482063Y-94473570D03*
X165128510Y-94120017D03*
D51*
X163818100Y-94120017D03*
X163464547Y-94473570D03*
X163110993Y-94827124D03*
X162757440Y-95180676D03*
X162403886Y-95534231D03*
X162050333Y-95887784D03*
X161696780Y-96241337D03*
X161343225Y-96594891D03*
X160989673Y-96948444D03*
X160636119Y-97301998D03*
X160282566Y-97655551D03*
D50*
X160282566Y-98965961D03*
X160636119Y-99319514D03*
X160989673Y-99673068D03*
X161696780Y-100380175D03*
X162403886Y-101087281D03*
X163110993Y-101794388D03*
X163464547Y-102147942D03*
X163818100Y-102501495D03*
D51*
X165482063Y-102147942D03*
X165835617Y-101794388D03*
X166189170Y-101440836D03*
X166896277Y-100733728D03*
X167249830Y-100380175D03*
X167603385Y-100026621D03*
X168310491Y-99319514D03*
X168664044Y-98965961D03*
D52*
X164473305Y-98310756D03*
%TD*%
D38*
%TO.C,C4*%
X139965574Y-92457397D03*
X138869558Y-91361381D03*
%TD*%
D53*
%TO.C,X3*%
X123021142Y-121976777D03*
X124576777Y-120421142D03*
X125778858Y-121623223D03*
X124223223Y-123178858D03*
%TD*%
D38*
%TO.C,C29*%
X159966607Y-106487303D03*
X161062623Y-107583319D03*
%TD*%
D41*
%TO.C,C182*%
X164410000Y-79575000D03*
X164410000Y-76625000D03*
%TD*%
D14*
%TO.C,C42*%
X142048008Y-119451992D03*
X140951992Y-120548008D03*
%TD*%
D54*
%TO.C,U3*%
X125735519Y-113788819D03*
X126089072Y-113435266D03*
X126442625Y-113081713D03*
X126796179Y-112728159D03*
X127149732Y-112374606D03*
X127503286Y-112021052D03*
X127856839Y-111667499D03*
X128210392Y-111313946D03*
X128563946Y-110960392D03*
X128917499Y-110606839D03*
X129271052Y-110253286D03*
X129624606Y-109899732D03*
X129978159Y-109546179D03*
X130331713Y-109192625D03*
X130685266Y-108839072D03*
X131038819Y-108485519D03*
D55*
X133761181Y-108485519D03*
X134114734Y-108839072D03*
X134468287Y-109192625D03*
X134821841Y-109546179D03*
X135175394Y-109899732D03*
X135528948Y-110253286D03*
X135882501Y-110606839D03*
X136236054Y-110960392D03*
X136589608Y-111313946D03*
X136943161Y-111667499D03*
X137296714Y-112021052D03*
X137650268Y-112374606D03*
X138003821Y-112728159D03*
X138357375Y-113081713D03*
X138710928Y-113435266D03*
X139064481Y-113788819D03*
D54*
X139064481Y-116511181D03*
X138710928Y-116864734D03*
X138357375Y-117218287D03*
X138003821Y-117571841D03*
X137650268Y-117925394D03*
X137296714Y-118278948D03*
X136943161Y-118632501D03*
X136589608Y-118986054D03*
X136236054Y-119339608D03*
X135882501Y-119693161D03*
X135528948Y-120046714D03*
X135175394Y-120400268D03*
X134821841Y-120753821D03*
X134468287Y-121107375D03*
X134114734Y-121460928D03*
X133761181Y-121814481D03*
D55*
X131038819Y-121814481D03*
X130685266Y-121460928D03*
X130331713Y-121107375D03*
X129978159Y-120753821D03*
X129624606Y-120400268D03*
X129271052Y-120046714D03*
X128917499Y-119693161D03*
X128563946Y-119339608D03*
X128210392Y-118986054D03*
X127856839Y-118632501D03*
X127503286Y-118278948D03*
X127149732Y-117925394D03*
X126796179Y-117571841D03*
X126442625Y-117218287D03*
X126089072Y-116864734D03*
X125735519Y-116511181D03*
%TD*%
D56*
%TO.C,C41*%
X140721751Y-125721751D03*
X139378249Y-124378249D03*
%TD*%
D19*
%TO.C,R45*%
X173916637Y-101416637D03*
X175083363Y-102583363D03*
%TD*%
D49*
%TO.C,R48*%
X201550000Y-123880000D03*
X206950000Y-123880000D03*
%TD*%
D16*
%TO.C,C22*%
X159889429Y-93807806D03*
X158793413Y-92711790D03*
%TD*%
D14*
%TO.C,C5*%
X138943251Y-80424947D03*
X137847235Y-81520963D03*
%TD*%
D38*
%TO.C,C26*%
X161067767Y-105386143D03*
X162163783Y-106482159D03*
%TD*%
D17*
%TO.C,R94*%
X153350000Y-130772500D03*
X153350000Y-129122500D03*
%TD*%
D41*
%TO.C,C198*%
X167800000Y-79575000D03*
X167800000Y-76625000D03*
%TD*%
D56*
%TO.C,C40*%
X142135964Y-124307537D03*
X140792462Y-122964035D03*
%TD*%
D14*
%TO.C,C9*%
X142761628Y-84243323D03*
X141665612Y-85339339D03*
%TD*%
D20*
%TO.C,U40*%
X183995000Y-87017673D03*
X185265000Y-87017673D03*
X186535000Y-87017673D03*
X187805000Y-87017673D03*
D21*
X185900000Y-83525423D03*
%TD*%
D14*
%TO.C,C15*%
X123019206Y-85600968D03*
X121923190Y-86696984D03*
%TD*%
D25*
%TO.C,R17*%
X99135000Y-79562500D03*
X97485000Y-79562500D03*
%TD*%
D31*
%TO.C,C24*%
X165700000Y-90950000D03*
X164356498Y-89606498D03*
%TD*%
D35*
%TO.C,C76*%
X209800000Y-86175000D03*
X209800000Y-87725000D03*
%TD*%
D26*
%TO.C,R54*%
X159375000Y-146180000D03*
X159375000Y-144530000D03*
%TD*%
D31*
%TO.C,C34*%
X120967068Y-110721016D03*
X122310570Y-112064518D03*
%TD*%
D35*
%TO.C,C83*%
X209450000Y-106725000D03*
X209450000Y-108275000D03*
%TD*%
D38*
%TO.C,C202*%
X166751992Y-92051992D03*
X167848008Y-93148008D03*
%TD*%
D19*
%TO.C,R33*%
X170216637Y-93916637D03*
X171383363Y-95083363D03*
%TD*%
D31*
%TO.C,C33*%
X119517499Y-112170585D03*
X120861001Y-113514087D03*
%TD*%
D20*
%TO.C,U6*%
X177851823Y-120247250D03*
X179121823Y-120247250D03*
X180391823Y-120247250D03*
X181661823Y-120247250D03*
D21*
X179756823Y-116755000D03*
%TD*%
D57*
%TO.C,X1*%
X145856870Y-86420264D03*
X144159813Y-88117321D03*
X142816310Y-86773818D03*
X144513367Y-85076761D03*
%TD*%
D20*
%TO.C,U41*%
X177851823Y-94497250D03*
X179121823Y-94497250D03*
X180391823Y-94497250D03*
X181661823Y-94497250D03*
D21*
X179756823Y-91005000D03*
%TD*%
D58*
%TO.C,D20*%
X170687500Y-60860000D03*
X169112500Y-60860000D03*
%TD*%
%TO.C,D6*%
X170637500Y-73150000D03*
X169062500Y-73150000D03*
%TD*%
D59*
%TO.C,FB1*%
X147286151Y-84986300D03*
X145783549Y-83483698D03*
%TD*%
D35*
%TO.C,C146*%
X151825000Y-129172500D03*
X151825000Y-130722500D03*
%TD*%
D49*
%TO.C,R36*%
X201550000Y-82800000D03*
X206950000Y-82800000D03*
%TD*%
D41*
%TO.C,C191*%
X171140000Y-113035000D03*
X171140000Y-110085000D03*
%TD*%
D17*
%TO.C,R81*%
X163925000Y-131972500D03*
X163925000Y-130322500D03*
%TD*%
D12*
%TO.C,U43*%
X187805000Y-74382327D03*
X186535000Y-74382327D03*
X185265000Y-74382327D03*
X183995000Y-74382327D03*
D13*
X185900000Y-77874577D03*
%TD*%
D39*
%TO.C,D18*%
X163900000Y-128447500D03*
X167200000Y-128447500D03*
%TD*%
D16*
%TO.C,C6*%
X123492967Y-81909871D03*
X124588983Y-83005887D03*
%TD*%
D25*
%TO.C,R112*%
X170725000Y-59310000D03*
X169075000Y-59310000D03*
%TD*%
D14*
%TO.C,C139*%
X131660051Y-77950073D03*
X130564035Y-79046089D03*
%TD*%
D60*
%TO.C,C44*%
X109560000Y-59362500D03*
X109560000Y-61262500D03*
%TD*%
D41*
%TO.C,C178*%
X167750000Y-113035000D03*
X167750000Y-110085000D03*
%TD*%
D15*
%TO.C,D32*%
X149875000Y-134622500D03*
X149875000Y-137922500D03*
%TD*%
D12*
%TO.C,U45*%
X107311823Y-59044827D03*
X106041823Y-59044827D03*
X104771823Y-59044827D03*
X103501823Y-59044827D03*
D13*
X105406823Y-62537077D03*
%TD*%
D24*
%TO.C,R32*%
X172116637Y-96583363D03*
X173283363Y-95416637D03*
%TD*%
D29*
%TO.C,C3*%
X123298513Y-88008667D03*
X124394529Y-86912651D03*
%TD*%
D25*
%TO.C,R20*%
X103475000Y-75900000D03*
X101825000Y-75900000D03*
%TD*%
D12*
%TO.C,U35*%
X187805000Y-107507750D03*
X186535000Y-107507750D03*
X185265000Y-107507750D03*
X183995000Y-107507750D03*
D13*
X185900000Y-111000000D03*
%TD*%
D35*
%TO.C,C84*%
X167000000Y-135897500D03*
X167000000Y-137447500D03*
%TD*%
%TO.C,C145*%
X151825000Y-123447500D03*
X151825000Y-124997500D03*
%TD*%
D17*
%TO.C,R83*%
X163900000Y-126257500D03*
X163900000Y-124607500D03*
%TD*%
%TO.C,R95*%
X154875000Y-130772500D03*
X154875000Y-129122500D03*
%TD*%
D35*
%TO.C,C50*%
X97200000Y-66775000D03*
X97200000Y-68325000D03*
%TD*%
D38*
%TO.C,C39*%
X135386827Y-106990775D03*
X134290811Y-105894759D03*
%TD*%
D24*
%TO.C,R6*%
X157058058Y-98743161D03*
X158224784Y-97576435D03*
%TD*%
D14*
%TO.C,C72*%
X170694392Y-100365083D03*
X171790408Y-99269067D03*
%TD*%
D25*
%TO.C,R11*%
X100109284Y-63980000D03*
X98459284Y-63980000D03*
%TD*%
D24*
%TO.C,R70*%
X171737376Y-101478776D03*
X172904102Y-100312050D03*
%TD*%
D29*
%TO.C,C37*%
X140440811Y-118040775D03*
X141536827Y-116944759D03*
%TD*%
D48*
%TO.C,U24*%
X161875000Y-132855000D03*
X161875000Y-131585000D03*
X161875000Y-130315000D03*
X161875000Y-129045000D03*
X156925000Y-129045000D03*
X156925000Y-130315000D03*
X156925000Y-131585000D03*
X156925000Y-132855000D03*
%TD*%
D61*
%TO.C,FB5*%
X120779445Y-85577988D03*
X122282047Y-84075386D03*
%TD*%
D22*
%TO.C,C181*%
X167750000Y-114785000D03*
X167750000Y-117735000D03*
%TD*%
D14*
%TO.C,C11*%
X140003911Y-81485607D03*
X138907895Y-82581623D03*
%TD*%
D17*
%TO.C,R85*%
X163900000Y-137497500D03*
X163900000Y-135847500D03*
%TD*%
D62*
%TO.C,C121*%
X101725000Y-121275000D03*
X107325000Y-121275000D03*
%TD*%
%TO.C,C115*%
X101725000Y-114025000D03*
X107325000Y-114025000D03*
%TD*%
D23*
%TO.C,U10*%
X146490000Y-146050000D03*
X143950000Y-146050000D03*
X143950000Y-139750000D03*
X146490000Y-139750000D03*
%TD*%
D62*
%TO.C,C113*%
X101725000Y-105075000D03*
X107325000Y-105075000D03*
%TD*%
M02*
