M48
; DRILL file {KiCad 8.0.4} date 2024-08-24T18:16:09-0600
; FORMAT={-:-/ absolute / metric / decimal}
; #@! TF.CreationDate,2024-08-24T18:16:09-06:00
; #@! TF.GenerationSoftware,Kicad,Pcbnew,8.0.4
; #@! TF.FileFunction,MixedPlating,1,4
FMAT,2
METRIC
; #@! TA.AperFunction,Plated,PTH,ComponentDrill
T1C0.200
; #@! TA.AperFunction,Plated,PTH,ViaDrill
T2C0.300
; #@! TA.AperFunction,Plated,PTH,ViaDrill
T3C0.500
; #@! TA.AperFunction,Plated,PTH,ComponentDrill
T4C0.500
; #@! TA.AperFunction,Plated,PTH,ComponentDrill
T5C0.600
; #@! TA.AperFunction,Plated,PTH,ComponentDrill
T6C1.000
; #@! TA.AperFunction,Plated,PTH,ComponentDrill
T7C1.100
; #@! TA.AperFunction,Plated,PTH,ComponentDrill
T8C1.400
; #@! TA.AperFunction,Plated,PTH,ComponentDrill
T9C1.900
; #@! TA.AperFunction,Plated,PTH,ComponentDrill
T10C3.000
; #@! TA.AperFunction,Plated,PTH,ComponentDrill
T11C3.500
; #@! TA.AperFunction,Plated,PTH,ComponentDrill
T12C3.600
; #@! TA.AperFunction,NonPlated,NPTH,ComponentDrill
T13C0.650
; #@! TA.AperFunction,NonPlated,NPTH,ComponentDrill
T14C0.800
; #@! TA.AperFunction,NonPlated,NPTH,ComponentDrill
T15C1.100
%
G90
G05
T1
X175.175Y-67.775
X175.175Y-68.875
X175.175Y-69.975
X176.275Y-67.775
X176.275Y-68.875
X176.275Y-69.975
X177.375Y-67.775
X177.375Y-68.875
X177.375Y-69.975
T2
X55.83Y-113.42
X55.845Y-116.44
X55.845Y-128.04
X55.891Y-124.971
X58.245Y-122.24
X58.277Y-110.621
X58.312Y-123.622
X58.408Y-112.125
X58.6Y-114.775
X66.2Y-113.875
X66.445Y-115.906
X67.085Y-116.891
X67.116Y-129.2
X67.3Y-126.175
X67.4Y-114.175
X67.4Y-115.075
X68.1Y-114.675
X69.8Y-113.275
X69.8Y-114.175
X69.8Y-115.075
X69.8Y-116.075
X70.2Y-125.575
X70.2Y-127.675
X71.3Y-125.575
X71.3Y-126.675
X71.3Y-127.675
X72.3Y-125.575
X72.3Y-127.675
X73.845Y-113.875
X73.872Y-108.075
X74.234Y-109.409
X74.469Y-118.264
X74.8Y-109.975
X75.1Y-105.475
X75.15Y-129.725
X75.2Y-106.275
X75.4Y-122.539
X75.4Y-128.575
X75.845Y-132.44
X76.1Y-118.84
X76.7Y-116.24
X77.2Y-110.375
X77.6Y-108.775
X77.7Y-107.557
X77.824Y-106.767
X78.645Y-122.64
X78.645Y-126.04
X80.045Y-120.64
X80.445Y-122.84
X82.062Y-121.875
X82.466Y-119.819
X82.882Y-121.654
X85.0Y-121.675
X85.1Y-129.475
T3
X52.3Y-141.075
X57.2Y-141.075
X57.44Y-122.642
X57.5Y-111.075
X57.5Y-129.875
X57.6Y-118.275
X57.795Y-117.185
X57.975Y-124.79
X57.997Y-128.878
X58.045Y-113.197
X58.4Y-126.375
X59.82Y-122.257
X59.82Y-123.706
X62.0Y-110.575
X62.0Y-112.175
X62.0Y-118.975
X62.1Y-130.675
X62.1Y-141.075
X62.6Y-117.975
X62.8Y-128.975
X62.9Y-132.475
X63.245Y-118.64
X63.9Y-110.175
X63.9Y-130.875
X64.645Y-122.44
X65.6Y-130.875
X66.0Y-111.375
X66.0Y-117.975
X66.3Y-120.175
X67.0Y-141.075
X67.2Y-130.875
X68.3Y-110.575
X68.5Y-123.575
X68.9Y-117.975
X69.0Y-130.097
X69.0Y-133.875
X69.2Y-106.375
X69.291Y-111.922
X70.4Y-107.875
X70.6Y-131.875
X71.05Y-133.775
X72.2Y-133.775
X76.3Y-138.975
X77.278Y-123.502
X78.0Y-128.375
X79.9Y-136.375
T4
X110.575Y-59.6
X110.575Y-138.4
X111.344Y-57.744
X111.344Y-61.456
X111.344Y-136.544
X111.344Y-140.256
X113.2Y-56.975
X113.2Y-62.225
X113.2Y-135.775
X113.2Y-141.025
X115.056Y-57.744
X115.056Y-61.456
X115.056Y-136.544
X115.056Y-140.256
X115.825Y-59.6
X115.825Y-138.4
X259.375Y-59.5
X259.375Y-138.3
X260.144Y-57.644
X260.144Y-61.356
X260.144Y-136.444
X260.144Y-140.156
X262.0Y-56.875
X262.0Y-62.125
X262.0Y-135.675
X262.0Y-140.925
X263.856Y-57.644
X263.856Y-61.356
X263.856Y-136.444
X263.856Y-140.156
X264.625Y-59.5
X264.625Y-138.3
T6
X71.3Y-136.375
X71.3Y-138.915
X75.0Y-136.385
X75.0Y-138.925
X78.7Y-136.375
X78.7Y-138.915
X117.6Y-86.065
X117.6Y-88.835
X117.6Y-91.605
X120.44Y-87.45
X120.495Y-90.22
X164.08Y-98.32
X164.08Y-100.86
X164.08Y-103.4
X167.704Y-98.32
X167.704Y-100.86
X167.704Y-103.4
X170.135Y-56.587
X171.328Y-98.32
X171.328Y-100.86
X171.328Y-103.4
X172.675Y-56.587
X174.952Y-98.32
X174.952Y-100.86
X174.952Y-103.4
X175.215Y-56.587
X178.576Y-98.32
X178.576Y-100.86
X178.576Y-103.4
X182.2Y-98.32
X182.2Y-100.86
X182.2Y-103.4
X190.08Y-116.675
X190.08Y-119.215
X190.08Y-121.755
X201.86Y-71.8
X201.87Y-68.1
X204.4Y-71.8
X204.41Y-68.1
X332.145Y-60.62
X332.145Y-63.16
X332.145Y-69.82
X332.145Y-72.36
X352.74Y-137.245
X352.74Y-139.785
X352.74Y-142.325
X357.39Y-137.245
X357.39Y-139.785
X362.04Y-137.245
X362.04Y-139.785
X373.045Y-89.008
X373.045Y-91.548
X373.045Y-96.208
X373.045Y-98.748
X377.695Y-89.008
X377.695Y-91.548
X377.695Y-96.208
X377.695Y-98.748
X382.345Y-89.008
X382.345Y-91.548
X382.345Y-96.208
X382.345Y-98.748
X386.995Y-89.008
X386.995Y-91.548
X386.995Y-96.208
X386.995Y-98.748
X391.645Y-89.008
X391.645Y-91.548
X391.645Y-96.208
X391.645Y-98.748
X441.35Y-122.66
X441.35Y-125.2
X446.0Y-122.66
X446.0Y-125.2
T7
X147.95Y-119.95
X147.95Y-124.45
X148.0Y-127.8
X148.0Y-132.3
X154.45Y-119.95
X154.45Y-124.45
X154.5Y-127.8
X154.5Y-132.3
X162.294Y-139.66
X164.834Y-139.66
X168.03Y-157.7
X169.591Y-139.66
X170.57Y-157.7
X172.131Y-139.66
X176.889Y-139.66
X178.383Y-154.0
X179.429Y-139.66
X180.923Y-154.0
X183.463Y-154.0
X184.186Y-139.66
X186.726Y-139.66
X188.22Y-154.0
X190.76Y-154.0
X191.483Y-139.66
X193.3Y-154.0
X194.023Y-139.66
X196.563Y-139.66
X201.32Y-139.66
X203.86Y-139.66
X206.4Y-139.66
T8
X187.86Y-61.787
X187.86Y-70.487
X192.94Y-61.787
X192.94Y-70.487
X235.66Y-61.987
X235.66Y-70.688
X240.74Y-61.987
X240.74Y-70.688
T9
X251.0Y-63.685
X251.0Y-70.695
X251.0Y-79.59
X251.0Y-86.6
X251.0Y-98.99
X251.0Y-106.0
X251.0Y-120.79
X251.0Y-127.8
X256.0Y-63.685
X256.0Y-70.695
X256.0Y-79.59
X256.0Y-86.6
X256.0Y-98.99
X256.0Y-106.0
X256.0Y-120.79
X256.0Y-127.8
T10
X119.8Y-72.2
X119.8Y-105.5
T11
X113.2Y-59.6
X113.2Y-138.4
X262.0Y-59.5
X262.0Y-138.3
T12
X120.4Y-81.963
X120.4Y-95.683
T13
X55.725Y-111.757
X55.725Y-117.537
X55.725Y-123.35
X55.725Y-129.13
T14
X80.212Y-123.775
X85.912Y-123.775
T15
X162.294Y-142.2
X164.834Y-142.2
X168.03Y-160.24
X169.591Y-142.2
X170.57Y-160.24
X172.131Y-142.2
X176.889Y-142.2
X178.383Y-156.54
X179.429Y-142.2
X180.923Y-156.54
X183.463Y-156.54
X184.186Y-142.2
X186.726Y-142.2
X188.22Y-156.54
X190.76Y-156.54
X191.483Y-142.2
X193.3Y-156.54
X194.023Y-142.2
X196.563Y-142.2
X201.32Y-142.2
X203.86Y-142.2
X206.4Y-142.2
T5
G00X52.445Y-110.328
M15
G01X51.645Y-110.328
M16
G05
G00X52.445Y-118.968
M15
G01X51.645Y-118.968
M16
G05
G00X52.445Y-121.92
M15
G01X51.645Y-121.92
M16
G05
G00X52.445Y-130.56
M15
G01X51.645Y-130.56
M16
G05
G00X56.775Y-110.328
M15
G01X55.675Y-110.328
M16
G05
G00X56.775Y-118.968
M15
G01X55.675Y-118.968
M16
G05
G00X56.775Y-121.92
M15
G01X55.675Y-121.92
M16
G05
G00X56.775Y-130.56
M15
G01X55.675Y-130.56
M16
G05
M30
