%TF.GenerationSoftware,KiCad,Pcbnew,8.0.4*%
%TF.CreationDate,2024-10-18T00:11:30-06:00*%
%TF.ProjectId,Motor Controller,4d6f746f-7220-4436-9f6e-74726f6c6c65,Mk. 1*%
%TF.SameCoordinates,Original*%
%TF.FileFunction,Legend,Top*%
%TF.FilePolarity,Positive*%
%FSLAX46Y46*%
G04 Gerber Fmt 4.6, Leading zero omitted, Abs format (unit mm)*
G04 Created by KiCad (PCBNEW 8.0.4) date 2024-10-18 00:11:30*
%MOMM*%
%LPD*%
G01*
G04 APERTURE LIST*
%ADD10C,0.127000*%
%ADD11C,0.120000*%
%ADD12C,0.400000*%
%ADD13C,0.200000*%
%ADD14C,0.000000*%
%ADD15C,0.100000*%
%ADD16C,0.152400*%
G04 APERTURE END LIST*
D10*
%TO.C,J19*%
X189035000Y-67465000D02*
X189035000Y-63945000D01*
X185855000Y-69640000D02*
X184345000Y-69640000D01*
X185855000Y-61770000D02*
X184345000Y-61770000D01*
X181165000Y-67465000D02*
X181165000Y-63945000D01*
%TO.C,J16*%
X223610000Y-99465000D02*
X220090000Y-99465000D01*
X225785000Y-102645000D02*
X225785000Y-104155000D01*
X217915000Y-102645000D02*
X217915000Y-104155000D01*
X223610000Y-107335000D02*
X220090000Y-107335000D01*
%TO.C,J31*%
X209285000Y-67465000D02*
X209285000Y-63945000D01*
X206105000Y-69640000D02*
X204595000Y-69640000D01*
X206105000Y-61770000D02*
X204595000Y-61770000D01*
X201415000Y-67465000D02*
X201415000Y-63945000D01*
%TO.C,J17*%
X223560000Y-120065000D02*
X220040000Y-120065000D01*
X225735000Y-123245000D02*
X225735000Y-124755000D01*
X217865000Y-123245000D02*
X217865000Y-124755000D01*
X223560000Y-127935000D02*
X220040000Y-127935000D01*
%TO.C,J15*%
X220040000Y-86835000D02*
X223560000Y-86835000D01*
X217865000Y-83655000D02*
X217865000Y-82145000D01*
X225735000Y-83655000D02*
X225735000Y-82145000D01*
X220040000Y-78965000D02*
X223560000Y-78965000D01*
D11*
%TO.C,C45*%
X178295748Y-62790000D02*
X175464252Y-62790000D01*
X178295748Y-68010000D02*
X175464252Y-68010000D01*
%TO.C,U38*%
X177196823Y-101311327D02*
X177196823Y-100326327D01*
X177196823Y-105507327D02*
X177196823Y-102737327D01*
X181026823Y-105537327D02*
X178486823Y-105537327D01*
X182316823Y-101311327D02*
X182316823Y-100326327D01*
X182316823Y-105507327D02*
X182316823Y-102737327D01*
X182636823Y-99919577D02*
X182306823Y-99679577D01*
X182636823Y-99439577D01*
X182636823Y-99919577D01*
G36*
X182636823Y-99919577D02*
G01*
X182306823Y-99679577D01*
X182636823Y-99439577D01*
X182636823Y-99919577D01*
G37*
%TO.C,C79*%
X168617502Y-101720724D02*
X168816313Y-101521913D01*
X169338751Y-102441973D02*
X169537562Y-102243162D01*
%TO.C,D19*%
X148850000Y-128487500D02*
X148850000Y-132497500D01*
X150850000Y-128487500D02*
X148850000Y-128487500D01*
X150850000Y-128487500D02*
X150850000Y-132497500D01*
%TO.C,C43*%
X143888781Y-121760030D02*
X143689970Y-121561219D01*
X144610030Y-121038781D02*
X144411219Y-120839970D01*
%TO.C,R97*%
X154377500Y-135634758D02*
X154377500Y-135160242D01*
X155422500Y-135634758D02*
X155422500Y-135160242D01*
%TO.C,J6*%
X144270000Y-96040000D02*
X145600000Y-96040000D01*
X144270000Y-97370000D02*
X144270000Y-96040000D01*
X144270000Y-98640000D02*
X144270000Y-103780000D01*
X144270000Y-98640000D02*
X146930000Y-98640000D01*
X144270000Y-103780000D02*
X146930000Y-103780000D01*
X146930000Y-98640000D02*
X146930000Y-103780000D01*
%TO.C,U30*%
X133042444Y-72735161D02*
X132639394Y-72798800D01*
X132703033Y-72395749D01*
X133042444Y-72735161D01*
G36*
X133042444Y-72735161D02*
G01*
X132639394Y-72798800D01*
X132703033Y-72395749D01*
X133042444Y-72735161D01*
G37*
X133496761Y-73585456D02*
X133956380Y-74045076D01*
X133496761Y-73585456D02*
X133037141Y-73125837D01*
X131290587Y-75791630D02*
X131750207Y-76251249D01*
X131290587Y-75791630D02*
X130830968Y-75332010D01*
%TO.C,R44*%
X169436075Y-106751793D02*
X169771608Y-107087326D01*
X170175002Y-106012866D02*
X170510535Y-106348399D01*
%TO.C,C136*%
X120503408Y-121245403D02*
X120304597Y-121046592D01*
X119782159Y-121966652D02*
X119583348Y-121767841D01*
%TO.C,U17*%
X183340000Y-114422250D02*
X183340000Y-117192250D01*
X183340000Y-118618250D02*
X183340000Y-119603250D01*
X184630000Y-114392250D02*
X187170000Y-114392250D01*
X188460000Y-114422250D02*
X188460000Y-117192250D01*
X188460000Y-118618250D02*
X188460000Y-119603250D01*
X183350000Y-120250000D02*
X183020000Y-120490000D01*
X183020000Y-120010000D01*
X183350000Y-120250000D01*
G36*
X183350000Y-120250000D02*
G01*
X183020000Y-120490000D01*
X183020000Y-120010000D01*
X183350000Y-120250000D01*
G37*
%TO.C,C173*%
X163100000Y-115548748D02*
X163100000Y-116971252D01*
X165820000Y-115548748D02*
X165820000Y-116971252D01*
D12*
%TO.C,U47*%
X148570000Y-144475000D02*
G75*
G02*
X148170000Y-144475000I-200000J0D01*
G01*
X148170000Y-144475000D02*
G75*
G02*
X148570000Y-144475000I200000J0D01*
G01*
D13*
X151470000Y-145175000D02*
X147670000Y-145175000D01*
X151470000Y-140575000D02*
X151470000Y-145175000D01*
X147670000Y-145175000D02*
X147670000Y-140575000D01*
X147670000Y-140575000D02*
X151470000Y-140575000D01*
D11*
%TO.C,J7*%
X144700000Y-147790000D02*
X144700000Y-147050000D01*
X144700000Y-147050000D02*
X144200000Y-147050000D01*
X144460000Y-153610000D02*
X144460000Y-147290000D01*
X144460000Y-153610000D02*
X133720000Y-153610000D01*
X144460000Y-153150000D02*
X133720000Y-153150000D01*
X144460000Y-147850000D02*
X133720000Y-147850000D01*
X144460000Y-147290000D02*
X133720000Y-147290000D01*
X133720000Y-153610000D02*
X133720000Y-147290000D01*
%TO.C,U42*%
X183340000Y-88672250D02*
X183340000Y-91442250D01*
X183340000Y-92868250D02*
X183340000Y-93853250D01*
X184630000Y-88642250D02*
X187170000Y-88642250D01*
X188460000Y-88672250D02*
X188460000Y-91442250D01*
X188460000Y-92868250D02*
X188460000Y-93853250D01*
X183350000Y-94500000D02*
X183020000Y-94740000D01*
X183020000Y-94260000D01*
X183350000Y-94500000D01*
G36*
X183350000Y-94500000D02*
G01*
X183020000Y-94740000D01*
X183020000Y-94260000D01*
X183350000Y-94500000D01*
G37*
%TO.C,R86*%
X169618641Y-102858585D02*
X169954174Y-102523052D01*
X170357568Y-103597512D02*
X170693101Y-103261979D01*
D13*
%TO.C,PS1*%
X128010000Y-133690000D02*
G75*
G02*
X127810000Y-133690000I-100000J0D01*
G01*
X127810000Y-133690000D02*
G75*
G02*
X128010000Y-133690000I100000J0D01*
G01*
D10*
X126900000Y-146550000D02*
X132900000Y-146550000D01*
X132900000Y-146550000D02*
X132900000Y-135050000D01*
X126900000Y-135050000D02*
X126900000Y-146550000D01*
X132900000Y-135050000D02*
X126900000Y-135050000D01*
D11*
%TO.C,R76*%
X93562258Y-73852500D02*
X93087742Y-73852500D01*
X93562258Y-74897500D02*
X93087742Y-74897500D01*
%TO.C,R50*%
X156797500Y-145117742D02*
X156797500Y-145592258D01*
X155752500Y-145117742D02*
X155752500Y-145592258D01*
%TO.C,R16*%
X98072742Y-81622500D02*
X98547258Y-81622500D01*
X98072742Y-80577500D02*
X98547258Y-80577500D01*
%TO.C,R56*%
X161447500Y-145587258D02*
X161447500Y-145112742D01*
X160402500Y-145587258D02*
X160402500Y-145112742D01*
D13*
%TO.C,J18*%
X119140000Y-72987500D02*
G75*
G02*
X118940000Y-72987500I-100000J0D01*
G01*
X118940000Y-72987500D02*
G75*
G02*
X119140000Y-72987500I100000J0D01*
G01*
D10*
X121980000Y-72387500D02*
X111020000Y-72387500D01*
X121980000Y-54387500D02*
X121980000Y-72387500D01*
X111020000Y-72387500D02*
X111020000Y-54387500D01*
X111020000Y-54387500D02*
X121980000Y-54387500D01*
D11*
%TO.C,C47*%
X174559420Y-70790000D02*
X174840580Y-70790000D01*
X174559420Y-71810000D02*
X174840580Y-71810000D01*
%TO.C,C196*%
X173200000Y-82188748D02*
X173200000Y-83611252D01*
X175920000Y-82188748D02*
X175920000Y-83611252D01*
%TO.C,C10*%
X127223367Y-90603339D02*
X127024556Y-90802150D01*
X126502118Y-89882090D02*
X126303307Y-90080901D01*
%TO.C,U36*%
X177196823Y-109136750D02*
X177196823Y-108151750D01*
X177196823Y-113332750D02*
X177196823Y-110562750D01*
X181026823Y-113362750D02*
X178486823Y-113362750D01*
X182316823Y-109136750D02*
X182316823Y-108151750D01*
X182316823Y-113332750D02*
X182316823Y-110562750D01*
X182636823Y-107745000D02*
X182306823Y-107505000D01*
X182636823Y-107265000D01*
X182636823Y-107745000D01*
G36*
X182636823Y-107745000D02*
G01*
X182306823Y-107505000D01*
X182636823Y-107265000D01*
X182636823Y-107745000D01*
G37*
%TO.C,JP15*%
X96125000Y-70250000D02*
X96125000Y-73050000D01*
X94125000Y-70250000D02*
X96125000Y-70250000D01*
X96125000Y-73050000D02*
X94125000Y-73050000D01*
X94125000Y-73050000D02*
X94125000Y-70250000D01*
%TO.C,JP14*%
X172230000Y-65865000D02*
X169570000Y-65865000D01*
X172230000Y-68465000D02*
X172230000Y-65865000D01*
X172230000Y-68465000D02*
X169570000Y-68465000D01*
X169570000Y-68465000D02*
X169570000Y-65865000D01*
X172230000Y-69735000D02*
X172230000Y-71065000D01*
X172230000Y-71065000D02*
X170900000Y-71065000D01*
%TO.C,FB2*%
X143490703Y-122196052D02*
X142925552Y-121630901D01*
X142698744Y-122988011D02*
X142133593Y-122422860D01*
%TO.C,C32*%
X157644964Y-109963303D02*
X157275497Y-109593836D01*
X158684411Y-108923856D02*
X158314944Y-108554389D01*
%TO.C,C46*%
X178161252Y-68665000D02*
X177638748Y-68665000D01*
X178161252Y-70135000D02*
X177638748Y-70135000D01*
%TO.C,U21*%
X97990000Y-69700000D02*
X97990000Y-67500000D01*
X97990000Y-69700000D02*
X97990000Y-71900000D01*
X105010000Y-69700000D02*
X105010000Y-67500000D01*
X105010000Y-69700000D02*
X105010000Y-71900000D01*
X104425000Y-65790000D02*
X104185000Y-65460000D01*
X104665000Y-65460000D01*
X104425000Y-65790000D01*
G36*
X104425000Y-65790000D02*
G01*
X104185000Y-65460000D01*
X104665000Y-65460000D01*
X104425000Y-65790000D01*
G37*
%TO.C,C36*%
X129427600Y-123952797D02*
X129228789Y-123753986D01*
X130148849Y-123231548D02*
X129950038Y-123032737D01*
%TO.C,C28*%
X168065010Y-91454457D02*
X167695543Y-91084990D01*
X169104457Y-90415010D02*
X168734990Y-90045543D01*
%TO.C,C147*%
X151290000Y-135256920D02*
X151290000Y-135538080D01*
X152310000Y-135256920D02*
X152310000Y-135538080D01*
%TO.C,C19*%
X166515000Y-131006920D02*
X166515000Y-131288080D01*
X167535000Y-131006920D02*
X167535000Y-131288080D01*
%TO.C,C13*%
X136358366Y-79170244D02*
X136557177Y-78971433D01*
X135637117Y-78448995D02*
X135835928Y-78250184D01*
%TO.C,C190*%
X169820000Y-82188748D02*
X169820000Y-83611252D01*
X172540000Y-82188748D02*
X172540000Y-83611252D01*
%TO.C,C97*%
X159984420Y-143560000D02*
X160265580Y-143560000D01*
X159984420Y-142540000D02*
X160265580Y-142540000D01*
%TO.C,FB7*%
X122843253Y-118918344D02*
X122278102Y-118353193D01*
X122051294Y-119710303D02*
X121486143Y-119145152D01*
%TO.C,R92*%
X152852500Y-124459758D02*
X152852500Y-123985242D01*
X153897500Y-124459758D02*
X153897500Y-123985242D01*
%TO.C,U5*%
X174400000Y-72240000D02*
X173600000Y-72240000D01*
X174400000Y-72240000D02*
X175200000Y-72240000D01*
X174400000Y-75360000D02*
X173600000Y-75360000D01*
X174400000Y-75360000D02*
X175200000Y-75360000D01*
X173100000Y-72290000D02*
X172860000Y-71960000D01*
X173340000Y-71960000D01*
X173100000Y-72290000D01*
G36*
X173100000Y-72290000D02*
G01*
X172860000Y-71960000D01*
X173340000Y-71960000D01*
X173100000Y-72290000D01*
G37*
%TO.C,C77*%
X166490000Y-125281920D02*
X166490000Y-125563080D01*
X167510000Y-125281920D02*
X167510000Y-125563080D01*
%TO.C,C137*%
X121610030Y-120138781D02*
X121411219Y-119939970D01*
X120888781Y-120860030D02*
X120689970Y-120661219D01*
%TO.C,R82*%
X164927500Y-125659758D02*
X164927500Y-125185242D01*
X165972500Y-125659758D02*
X165972500Y-125185242D01*
%TO.C,Q21*%
X101990000Y-56312500D02*
X101990000Y-55662500D01*
X101990000Y-56312500D02*
X101990000Y-56962500D01*
X105110000Y-56312500D02*
X105110000Y-55662500D01*
X105110000Y-56312500D02*
X105110000Y-56962500D01*
X105390000Y-55390000D02*
X105060000Y-55150000D01*
X105390000Y-54910000D01*
X105390000Y-55390000D01*
G36*
X105390000Y-55390000D02*
G01*
X105060000Y-55150000D01*
X105390000Y-54910000D01*
X105390000Y-55390000D01*
G37*
%TO.C,R52*%
X158347500Y-145592258D02*
X158347500Y-145117742D01*
X157302500Y-145592258D02*
X157302500Y-145117742D01*
%TO.C,R84*%
X164927500Y-136909758D02*
X164927500Y-136435242D01*
X165972500Y-136909758D02*
X165972500Y-136435242D01*
%TO.C,C14*%
X149005777Y-81176351D02*
X149204588Y-81375162D01*
X148284528Y-81897600D02*
X148483339Y-82096411D01*
%TO.C,D26*%
X163190000Y-121747500D02*
X163190000Y-123747500D01*
X163190000Y-121747500D02*
X167200000Y-121747500D01*
X163190000Y-123747500D02*
X167200000Y-123747500D01*
%TO.C,C27*%
X158079042Y-105320988D02*
X157880231Y-105122177D01*
X158800291Y-104599739D02*
X158601480Y-104400928D01*
%TO.C,JP16*%
X165820000Y-65855000D02*
X167150000Y-65855000D01*
X165820000Y-67185000D02*
X165820000Y-65855000D01*
X168480000Y-68455000D02*
X168480000Y-71055000D01*
X165820000Y-68455000D02*
X168480000Y-68455000D01*
X165820000Y-68455000D02*
X165820000Y-71055000D01*
X165820000Y-71055000D02*
X168480000Y-71055000D01*
D14*
%TO.C,G\u002A\u002A\u002A*%
G36*
X198777379Y-141694456D02*
G01*
X198794225Y-142105776D01*
X199205545Y-142122622D01*
X199616864Y-142139468D01*
X199178501Y-142149665D01*
X198740139Y-142159862D01*
X198750336Y-141721499D01*
X198760533Y-141283137D01*
X198777379Y-141694456D01*
G37*
G36*
X199178501Y-132150336D02*
G01*
X199616864Y-132160533D01*
X199205545Y-132177379D01*
X198794225Y-132194225D01*
X198777379Y-132605545D01*
X198760533Y-133016864D01*
X198750336Y-132578501D01*
X198740139Y-132140139D01*
X199178501Y-132150336D01*
G37*
G36*
X208749665Y-141721499D02*
G01*
X208759862Y-142159862D01*
X208321499Y-142149665D01*
X207883137Y-142139468D01*
X208294456Y-142122622D01*
X208705776Y-142105776D01*
X208722622Y-141694456D01*
X208739468Y-141283137D01*
X208749665Y-141721499D01*
G37*
G36*
X208759862Y-132565977D02*
G01*
X208757141Y-132758423D01*
X208749880Y-132905602D01*
X208739431Y-132984512D01*
X208734813Y-132991815D01*
X208723153Y-132945683D01*
X208714385Y-132823134D01*
X208710002Y-132647938D01*
X208709764Y-132593052D01*
X208709764Y-132194289D01*
X208296450Y-132177411D01*
X207883137Y-132160533D01*
X208321499Y-132150336D01*
X208759862Y-132140139D01*
X208759862Y-132565977D01*
G37*
G36*
X205916064Y-137093557D02*
G01*
X205997895Y-137209322D01*
X206112390Y-137385784D01*
X206251049Y-137609780D01*
X206405369Y-137868148D01*
X206430277Y-137910653D01*
X206604899Y-138209435D01*
X206781215Y-138511143D01*
X206945768Y-138792744D01*
X207085098Y-139031208D01*
X207176402Y-139187500D01*
X207278762Y-139368578D01*
X207355299Y-139515300D01*
X207396088Y-139607975D01*
X207399152Y-139629580D01*
X207352336Y-139610365D01*
X207231168Y-139545009D01*
X207046635Y-139439878D01*
X206809722Y-139301336D01*
X206531415Y-139135751D01*
X206222699Y-138949488D01*
X206165141Y-138914495D01*
X204953517Y-138177022D01*
X205185397Y-137951578D01*
X205328730Y-137790456D01*
X205454140Y-137612410D01*
X205513837Y-137500691D01*
X205609032Y-137315844D01*
X205715947Y-137165680D01*
X205817047Y-137071975D01*
X205875400Y-137051650D01*
X205916064Y-137093557D01*
G37*
G36*
X203800507Y-133534558D02*
G01*
X203870193Y-133622475D01*
X203968614Y-133768661D01*
X204101176Y-133981016D01*
X204273284Y-134267437D01*
X204421250Y-134518041D01*
X205057108Y-135600145D01*
X204954289Y-135744540D01*
X204846836Y-135865046D01*
X204706908Y-135960044D01*
X204520104Y-136034283D01*
X204272021Y-136092511D01*
X203948258Y-136139475D01*
X203669386Y-136168144D01*
X203299991Y-136206823D01*
X203016028Y-136249384D01*
X202802733Y-136299834D01*
X202645339Y-136362184D01*
X202529082Y-136440440D01*
X202477246Y-136491804D01*
X202400144Y-136570529D01*
X202338889Y-136588920D01*
X202258531Y-136545805D01*
X202176337Y-136481712D01*
X202087980Y-136395216D01*
X202053537Y-136328568D01*
X202055701Y-136319140D01*
X202122172Y-136201520D01*
X202226415Y-136021110D01*
X202360949Y-135790528D01*
X202518295Y-135522392D01*
X202690973Y-135229321D01*
X202871502Y-134923933D01*
X203052402Y-134618847D01*
X203226194Y-134326681D01*
X203385396Y-134060053D01*
X203522531Y-133831582D01*
X203630116Y-133653886D01*
X203700672Y-133539583D01*
X203725710Y-133501943D01*
X203754148Y-133497014D01*
X203800507Y-133534558D01*
G37*
G36*
X201672660Y-137222123D02*
G01*
X201720977Y-137246562D01*
X201776272Y-137283939D01*
X201785784Y-137290382D01*
X201809225Y-137335638D01*
X201781956Y-137420026D01*
X201697723Y-137560666D01*
X201674022Y-137596261D01*
X201532380Y-137827102D01*
X201447738Y-138029103D01*
X201418931Y-138226697D01*
X201444797Y-138444315D01*
X201524173Y-138706388D01*
X201610594Y-138928501D01*
X201693868Y-139136325D01*
X201789606Y-139381994D01*
X201869441Y-139592041D01*
X201975642Y-139852895D01*
X202068651Y-140025295D01*
X202155779Y-140118862D01*
X202244334Y-140143219D01*
X202282338Y-140135566D01*
X202392335Y-140051804D01*
X202461924Y-139897204D01*
X202489236Y-139693419D01*
X202472403Y-139462098D01*
X202409558Y-139224894D01*
X202369176Y-139129108D01*
X202305593Y-138940448D01*
X202286950Y-138717132D01*
X202289864Y-138621195D01*
X202290385Y-138437154D01*
X202272258Y-138315348D01*
X202251302Y-138279852D01*
X202253959Y-138230178D01*
X202305935Y-138133785D01*
X202387703Y-138016755D01*
X202479737Y-137905170D01*
X202562513Y-137825111D01*
X202609569Y-137801282D01*
X202662893Y-137825349D01*
X202776063Y-137887632D01*
X202923947Y-137973259D01*
X203081417Y-138067356D01*
X203223340Y-138155050D01*
X203324588Y-138221468D01*
X203346087Y-138237186D01*
X203326653Y-138279300D01*
X203253856Y-138371022D01*
X203167963Y-138466140D01*
X203017610Y-138628980D01*
X202921189Y-138749303D01*
X202862110Y-138855770D01*
X202823784Y-138977043D01*
X202795978Y-139108816D01*
X202768895Y-139347833D01*
X202772337Y-139597043D01*
X202803109Y-139825597D01*
X202858016Y-140002645D01*
X202894861Y-140063885D01*
X202989150Y-140140282D01*
X203109847Y-140138753D01*
X203119695Y-140136367D01*
X203190714Y-140105582D01*
X203257420Y-140040639D01*
X203331822Y-139924544D01*
X203425931Y-139740302D01*
X203479490Y-139627250D01*
X203617458Y-139358325D01*
X203762149Y-139121745D01*
X203902539Y-138932252D01*
X204027603Y-138804588D01*
X204126315Y-138753496D01*
X204133204Y-138753156D01*
X204188539Y-138778118D01*
X204316660Y-138847980D01*
X204504968Y-138955204D01*
X204740869Y-139092254D01*
X205011765Y-139251593D01*
X205305061Y-139425685D01*
X205608160Y-139606992D01*
X205908465Y-139787977D01*
X206193380Y-139961104D01*
X206450310Y-140118836D01*
X206666657Y-140253637D01*
X206829826Y-140357968D01*
X206927219Y-140424294D01*
X206931263Y-140427330D01*
X206942639Y-140441699D01*
X206932076Y-140454168D01*
X206893229Y-140464873D01*
X206819752Y-140473952D01*
X206705298Y-140481540D01*
X206543523Y-140487772D01*
X206328081Y-140492786D01*
X206052625Y-140496718D01*
X205710810Y-140499702D01*
X205296291Y-140501876D01*
X204802721Y-140503375D01*
X204223755Y-140504336D01*
X203553047Y-140504895D01*
X203308681Y-140505015D01*
X202708451Y-140504780D01*
X202138734Y-140503600D01*
X201607253Y-140501551D01*
X201121732Y-140498708D01*
X200689895Y-140495145D01*
X200319467Y-140490939D01*
X200018170Y-140486163D01*
X199793728Y-140480892D01*
X199653866Y-140475203D01*
X199606308Y-140469170D01*
X199606358Y-140469034D01*
X199635535Y-140418781D01*
X199709831Y-140291831D01*
X199823571Y-140097854D01*
X199971077Y-139846521D01*
X200146675Y-139547501D01*
X200344688Y-139210466D01*
X200559442Y-138845086D01*
X200590950Y-138791490D01*
X200838515Y-138370276D01*
X201040650Y-138027842D01*
X201203176Y-137756873D01*
X201331917Y-137550052D01*
X201432697Y-137400064D01*
X201511338Y-137299592D01*
X201573663Y-137241322D01*
X201625496Y-137217938D01*
X201672660Y-137222123D01*
G37*
D11*
%TO.C,R39*%
X169162770Y-95801697D02*
X169498303Y-96137230D01*
X169901697Y-95062770D02*
X170237230Y-95398303D01*
%TO.C,C81*%
X207340000Y-107359420D02*
X207340000Y-107640580D01*
X208360000Y-107359420D02*
X208360000Y-107640580D01*
%TO.C,C7*%
X126053580Y-89616449D02*
X125684113Y-89985916D01*
X125014133Y-88577002D02*
X124644666Y-88946469D01*
%TO.C,R10*%
X99047026Y-61911784D02*
X99521542Y-61911784D01*
X99047026Y-62956784D02*
X99521542Y-62956784D01*
%TO.C,C38*%
X124198849Y-116753986D02*
X124000038Y-116952797D01*
X123477600Y-116032737D02*
X123278789Y-116231548D01*
%TO.C,C174*%
X173110000Y-112271252D02*
X173110000Y-110848748D01*
X175830000Y-112271252D02*
X175830000Y-110848748D01*
D14*
%TO.C,G\u002A\u002A\u002A*%
G36*
X188427379Y-141694456D02*
G01*
X188444225Y-142105776D01*
X188855545Y-142122622D01*
X189266864Y-142139468D01*
X188828501Y-142149665D01*
X188390139Y-142159862D01*
X188400336Y-141721499D01*
X188410533Y-141283137D01*
X188427379Y-141694456D01*
G37*
G36*
X188828501Y-132150336D02*
G01*
X189266864Y-132160533D01*
X188855545Y-132177379D01*
X188444225Y-132194225D01*
X188427379Y-132605545D01*
X188410533Y-133016864D01*
X188400336Y-132578501D01*
X188390139Y-132140139D01*
X188828501Y-132150336D01*
G37*
G36*
X198399665Y-141721499D02*
G01*
X198409862Y-142159862D01*
X197971499Y-142149665D01*
X197533137Y-142139468D01*
X197944456Y-142122622D01*
X198355776Y-142105776D01*
X198372622Y-141694456D01*
X198389468Y-141283137D01*
X198399665Y-141721499D01*
G37*
G36*
X198409862Y-132565977D02*
G01*
X198407141Y-132758423D01*
X198399880Y-132905602D01*
X198389431Y-132984512D01*
X198384813Y-132991815D01*
X198373153Y-132945683D01*
X198364385Y-132823134D01*
X198360002Y-132647938D01*
X198359764Y-132593052D01*
X198359764Y-132194289D01*
X197946450Y-132177411D01*
X197533137Y-132160533D01*
X197971499Y-132150336D01*
X198409862Y-132140139D01*
X198409862Y-132565977D01*
G37*
G36*
X193872312Y-132943854D02*
G01*
X194065923Y-132951016D01*
X194182610Y-132964323D01*
X194233969Y-132984900D01*
X194237217Y-133004340D01*
X194160459Y-133196807D01*
X194061383Y-133447625D01*
X193944613Y-133744883D01*
X193814772Y-134076666D01*
X193676481Y-134431061D01*
X193534365Y-134796157D01*
X193393045Y-135160039D01*
X193257144Y-135510795D01*
X193131286Y-135836511D01*
X193020092Y-136125276D01*
X192928186Y-136365175D01*
X192860190Y-136544296D01*
X192820726Y-136650726D01*
X192812592Y-136675673D01*
X192857594Y-136654493D01*
X192978437Y-136590995D01*
X193163379Y-136491530D01*
X193400677Y-136362450D01*
X193678588Y-136210105D01*
X193945129Y-136063109D01*
X194249006Y-135895929D01*
X194522754Y-135746963D01*
X194754598Y-135622486D01*
X194932759Y-135528771D01*
X195045463Y-135472094D01*
X195081116Y-135457809D01*
X195070811Y-135507445D01*
X195035520Y-135643862D01*
X194977877Y-135857526D01*
X194900520Y-136138906D01*
X194806085Y-136478467D01*
X194697208Y-136866677D01*
X194576526Y-137294002D01*
X194457186Y-137714029D01*
X194328157Y-138168317D01*
X194208681Y-138591753D01*
X194101368Y-138974886D01*
X194008828Y-139308267D01*
X193933669Y-139582445D01*
X193878502Y-139787971D01*
X193845935Y-139915395D01*
X193838207Y-139955523D01*
X193887280Y-139929806D01*
X193991080Y-139864078D01*
X194067305Y-139813145D01*
X194350869Y-139624155D01*
X194574864Y-139482872D01*
X194733890Y-139392400D01*
X194822545Y-139355842D01*
X194838256Y-139370235D01*
X194799262Y-139436051D01*
X194712008Y-139564467D01*
X194586572Y-139741891D01*
X194433032Y-139954731D01*
X194261463Y-140189392D01*
X194081944Y-140432283D01*
X193904551Y-140669810D01*
X193739361Y-140888380D01*
X193596451Y-141074401D01*
X193485899Y-141214280D01*
X193417781Y-141294424D01*
X193401560Y-141308186D01*
X193373933Y-141263407D01*
X193317182Y-141137992D01*
X193236825Y-140945325D01*
X193138377Y-140698791D01*
X193027353Y-140411771D01*
X192973129Y-140268639D01*
X192858006Y-139962599D01*
X192754031Y-139685892D01*
X192666661Y-139453063D01*
X192601350Y-139278654D01*
X192563555Y-139177209D01*
X192557118Y-139159634D01*
X192549199Y-139111704D01*
X192581743Y-139117619D01*
X192661011Y-139182595D01*
X192793262Y-139311846D01*
X192984757Y-139510587D01*
X193008451Y-139535589D01*
X193393430Y-139942282D01*
X193421415Y-139761033D01*
X193453476Y-139546082D01*
X193492215Y-139274695D01*
X193535791Y-138960938D01*
X193582363Y-138618878D01*
X193630089Y-138262582D01*
X193677129Y-137906118D01*
X193721640Y-137563552D01*
X193761782Y-137248952D01*
X193795713Y-136976384D01*
X193821591Y-136759916D01*
X193837576Y-136613614D01*
X193841825Y-136551545D01*
X193841642Y-136550736D01*
X193795249Y-136561538D01*
X193673413Y-136614795D01*
X193488368Y-136704462D01*
X193252347Y-136824496D01*
X192977586Y-136968852D01*
X192775798Y-137077316D01*
X192481527Y-137236044D01*
X192217958Y-137376604D01*
X191997341Y-137492597D01*
X191831927Y-137577621D01*
X191733965Y-137625274D01*
X191712165Y-137633105D01*
X191721550Y-137583373D01*
X191753921Y-137446743D01*
X191806744Y-137233210D01*
X191877488Y-136952769D01*
X191963622Y-136615416D01*
X192062613Y-136231146D01*
X192171930Y-135809955D01*
X192241435Y-135543632D01*
X192359124Y-135093420D01*
X192471189Y-134664395D01*
X192574589Y-134268217D01*
X192666287Y-133916545D01*
X192743241Y-133621040D01*
X192802413Y-133393360D01*
X192840763Y-133245167D01*
X192851126Y-133204734D01*
X192917956Y-132941716D01*
X193590177Y-132941716D01*
X193872312Y-132943854D01*
G37*
D11*
%TO.C,C23*%
X159180202Y-104219828D02*
X158981391Y-104021017D01*
X159901451Y-103498579D02*
X159702640Y-103299768D01*
%TO.C,C177*%
X163090000Y-112271252D02*
X163090000Y-110848748D01*
X165810000Y-112271252D02*
X165810000Y-110848748D01*
%TO.C,C95*%
X156884420Y-143560000D02*
X157165580Y-143560000D01*
X156884420Y-142540000D02*
X157165580Y-142540000D01*
%TO.C,C31*%
X156596361Y-111152376D02*
X156397550Y-110953565D01*
X157317610Y-110431127D02*
X157118799Y-110232316D01*
%TO.C,C195*%
X173200000Y-78811252D02*
X173200000Y-77388748D01*
X175920000Y-78811252D02*
X175920000Y-77388748D01*
%TO.C,R18*%
X96677500Y-72037258D02*
X96677500Y-71562742D01*
X97722500Y-72037258D02*
X97722500Y-71562742D01*
%TO.C,C8*%
X138103785Y-92024359D02*
X138302596Y-92223170D01*
X137382536Y-92745608D02*
X137581347Y-92944419D01*
%TO.C,J5*%
X147970000Y-96040000D02*
X149300000Y-96040000D01*
X147970000Y-97370000D02*
X147970000Y-96040000D01*
X147970000Y-98640000D02*
X147970000Y-103780000D01*
X147970000Y-98640000D02*
X150630000Y-98640000D01*
X147970000Y-103780000D02*
X150630000Y-103780000D01*
X150630000Y-98640000D02*
X150630000Y-103780000D01*
%TO.C,U44*%
X177196823Y-76011327D02*
X177196823Y-75026327D01*
X177196823Y-80207327D02*
X177196823Y-77437327D01*
X181026823Y-80237327D02*
X178486823Y-80237327D01*
X182316823Y-76011327D02*
X182316823Y-75026327D01*
X182316823Y-80207327D02*
X182316823Y-77437327D01*
X182636823Y-74619577D02*
X182306823Y-74379577D01*
X182636823Y-74139577D01*
X182636823Y-74619577D01*
G36*
X182636823Y-74619577D02*
G01*
X182306823Y-74379577D01*
X182636823Y-74139577D01*
X182636823Y-74619577D01*
G37*
%TO.C,R93*%
X154377500Y-124459758D02*
X154377500Y-123985242D01*
X155422500Y-124459758D02*
X155422500Y-123985242D01*
%TO.C,C180*%
X169791250Y-115552597D02*
X169791250Y-116975101D01*
X172511250Y-115552597D02*
X172511250Y-116975101D01*
%TO.C,J10*%
X165380000Y-147290000D02*
X165380000Y-153610000D01*
X152100000Y-153610000D02*
X165380000Y-153610000D01*
X152100000Y-153050000D02*
X165380000Y-153050000D01*
X152100000Y-147750000D02*
X165380000Y-147750000D01*
X152100000Y-147290000D02*
X165380000Y-147290000D01*
X152100000Y-147290000D02*
X152100000Y-153610000D01*
X151860000Y-153850000D02*
X152360000Y-153850000D01*
X151860000Y-153110000D02*
X151860000Y-153850000D01*
%TO.C,R9*%
X164952500Y-131384758D02*
X164952500Y-130910242D01*
X165997500Y-131384758D02*
X165997500Y-130910242D01*
%TO.C,D17*%
X163165000Y-132972500D02*
X163165000Y-134972500D01*
X163165000Y-132972500D02*
X167175000Y-132972500D01*
X163165000Y-134972500D02*
X167175000Y-134972500D01*
%TO.C,R96*%
X152827500Y-135634758D02*
X152827500Y-135160242D01*
X153872500Y-135634758D02*
X153872500Y-135160242D01*
%TO.C,U34*%
X183340000Y-121567250D02*
X183340000Y-124337250D01*
X183340000Y-125763250D02*
X183340000Y-126748250D01*
X184630000Y-121537250D02*
X187170000Y-121537250D01*
X188460000Y-121567250D02*
X188460000Y-124337250D01*
X188460000Y-125763250D02*
X188460000Y-126748250D01*
X183350000Y-127395000D02*
X183020000Y-127635000D01*
X183020000Y-127155000D01*
X183350000Y-127395000D01*
G36*
X183350000Y-127395000D02*
G01*
X183020000Y-127635000D01*
X183020000Y-127155000D01*
X183350000Y-127395000D01*
G37*
%TO.C,R7*%
X159211757Y-108673702D02*
X158876224Y-108338169D01*
X159950684Y-107934775D02*
X159615151Y-107599242D01*
D13*
%TO.C,J28*%
X124795000Y-54575000D02*
X163895000Y-54575000D01*
X124795000Y-70426000D02*
X124795000Y-54575000D01*
D15*
X145715000Y-69375000D02*
X145715000Y-69375000D01*
X145715000Y-69475000D02*
X145715000Y-69475000D01*
D13*
X163895000Y-54575000D02*
X163895000Y-70426000D01*
X163930000Y-70426000D02*
X124814000Y-70426000D01*
D15*
X145715000Y-69375000D02*
G75*
G02*
X145715000Y-69475000I0J-50000D01*
G01*
X145715000Y-69475000D02*
G75*
G02*
X145715000Y-69375000I0J50000D01*
G01*
D12*
%TO.C,U46*%
X139920000Y-144450000D02*
G75*
G02*
X139520000Y-144450000I-200000J0D01*
G01*
X139520000Y-144450000D02*
G75*
G02*
X139920000Y-144450000I200000J0D01*
G01*
D13*
X142820000Y-145150000D02*
X139020000Y-145150000D01*
X142820000Y-140550000D02*
X142820000Y-145150000D01*
X139020000Y-145150000D02*
X139020000Y-140550000D01*
X139020000Y-140550000D02*
X142820000Y-140550000D01*
D11*
%TO.C,C176*%
X163040000Y-82188748D02*
X163040000Y-83611252D01*
X165760000Y-82188748D02*
X165760000Y-83611252D01*
%TO.C,J20*%
X151100000Y-147290000D02*
X151100000Y-153610000D01*
X150330000Y-153610000D02*
X151100000Y-153610000D01*
X150330000Y-153050000D02*
X151100000Y-153050000D01*
X147790000Y-153610000D02*
X148750000Y-153610000D01*
X147790000Y-153050000D02*
X148750000Y-153050000D01*
X145440000Y-153610000D02*
X146210000Y-153610000D01*
X145440000Y-153050000D02*
X146210000Y-153050000D01*
X145440000Y-147750000D02*
X151100000Y-147750000D01*
X145440000Y-147290000D02*
X151100000Y-147290000D01*
X145440000Y-147290000D02*
X145440000Y-153610000D01*
X145200000Y-153850000D02*
X145700000Y-153850000D01*
X145200000Y-153110000D02*
X145200000Y-153850000D01*
%TO.C,R19*%
X170087258Y-75272500D02*
X169612742Y-75272500D01*
X170087258Y-74227500D02*
X169612742Y-74227500D01*
%TO.C,R38*%
X171336075Y-104851793D02*
X171671608Y-105187326D01*
X172075002Y-104112866D02*
X172410535Y-104448399D01*
%TO.C,C25*%
X157001205Y-102216787D02*
X156802394Y-102415598D01*
X157722454Y-102938036D02*
X157523643Y-103136847D01*
%TO.C,U37*%
X183340000Y-101311327D02*
X183340000Y-100326327D01*
X183340000Y-105507327D02*
X183340000Y-102737327D01*
X187170000Y-105537327D02*
X184630000Y-105537327D01*
X188460000Y-101311327D02*
X188460000Y-100326327D01*
X188460000Y-105507327D02*
X188460000Y-102737327D01*
X188780000Y-99919577D02*
X188450000Y-99679577D01*
X188780000Y-99439577D01*
X188780000Y-99919577D01*
G36*
X188780000Y-99919577D02*
G01*
X188450000Y-99679577D01*
X188780000Y-99439577D01*
X188780000Y-99919577D01*
G37*
%TO.C,C35*%
X124250038Y-113052797D02*
X124448849Y-112853986D01*
X123528789Y-112331548D02*
X123727600Y-112132737D01*
%TO.C,C86*%
X166651444Y-103686782D02*
X166452633Y-103885593D01*
X167372693Y-104408031D02*
X167173882Y-104606842D01*
D14*
%TO.C,G\u002A\u002A\u002A*%
G36*
X95756461Y-104431340D02*
G01*
X95787856Y-104566714D01*
X95712353Y-104725001D01*
X95688830Y-104750385D01*
X95545811Y-104835455D01*
X95395176Y-104846457D01*
X95296401Y-104784247D01*
X95275012Y-104644167D01*
X95327618Y-104484975D01*
X95428994Y-104374023D01*
X95454102Y-104363161D01*
X95638449Y-104352336D01*
X95756461Y-104431340D01*
G37*
G36*
X90067365Y-95967786D02*
G01*
X90152488Y-96032661D01*
X90198971Y-96054013D01*
X90257544Y-96085277D01*
X90188627Y-96096721D01*
X90187345Y-96096782D01*
X90078881Y-96156352D01*
X90046921Y-96217132D01*
X90021913Y-96298231D01*
X90011603Y-96251502D01*
X90009195Y-96217132D01*
X89970281Y-96119302D01*
X89933164Y-96101977D01*
X89911444Y-96065226D01*
X89949615Y-96010554D01*
X90033457Y-95956456D01*
X90067365Y-95967786D01*
G37*
G36*
X90067365Y-103008719D02*
G01*
X90152488Y-103073593D01*
X90198971Y-103094946D01*
X90257544Y-103126210D01*
X90188627Y-103137654D01*
X90187345Y-103137714D01*
X90078881Y-103197285D01*
X90046921Y-103258065D01*
X90021913Y-103339164D01*
X90011603Y-103292435D01*
X90009195Y-103258065D01*
X89970281Y-103160235D01*
X89933164Y-103142909D01*
X89911444Y-103106159D01*
X89949615Y-103051487D01*
X90033457Y-102997388D01*
X90067365Y-103008719D01*
G37*
G36*
X97133917Y-95984227D02*
G01*
X97188015Y-96068069D01*
X97176685Y-96101977D01*
X97111811Y-96187100D01*
X97090458Y-96233583D01*
X97059194Y-96292156D01*
X97047750Y-96223239D01*
X97047689Y-96221957D01*
X96988119Y-96113493D01*
X96927339Y-96081533D01*
X96846240Y-96056525D01*
X96892969Y-96046215D01*
X96927339Y-96043807D01*
X97025169Y-96004893D01*
X97042494Y-95967776D01*
X97079245Y-95946056D01*
X97133917Y-95984227D01*
G37*
G36*
X97133917Y-103025160D02*
G01*
X97188015Y-103109002D01*
X97176685Y-103142909D01*
X97111811Y-103228033D01*
X97090458Y-103274516D01*
X97059194Y-103333089D01*
X97047750Y-103264172D01*
X97047689Y-103262890D01*
X96988119Y-103154426D01*
X96927339Y-103122466D01*
X96846240Y-103097457D01*
X96892969Y-103087147D01*
X96927339Y-103084740D01*
X97025169Y-103045826D01*
X97042494Y-103008709D01*
X97079245Y-102986989D01*
X97133917Y-103025160D01*
G37*
G36*
X104174850Y-95984227D02*
G01*
X104228948Y-96068069D01*
X104217618Y-96101977D01*
X104152743Y-96187100D01*
X104131390Y-96233583D01*
X104100126Y-96292156D01*
X104088683Y-96223239D01*
X104088622Y-96221957D01*
X104029051Y-96113493D01*
X103968272Y-96081533D01*
X103887173Y-96056525D01*
X103933901Y-96046215D01*
X103968272Y-96043807D01*
X104066102Y-96004893D01*
X104083427Y-95967776D01*
X104120178Y-95946056D01*
X104174850Y-95984227D01*
G37*
G36*
X104174850Y-103025160D02*
G01*
X104228948Y-103109002D01*
X104217618Y-103142909D01*
X104152743Y-103228033D01*
X104131390Y-103274516D01*
X104100126Y-103333089D01*
X104088683Y-103264172D01*
X104088622Y-103262890D01*
X104029051Y-103154426D01*
X103968272Y-103122466D01*
X103887173Y-103097457D01*
X103933901Y-103087147D01*
X103968272Y-103084740D01*
X104066102Y-103045826D01*
X104083427Y-103008709D01*
X104120178Y-102986989D01*
X104174850Y-103025160D01*
G37*
G36*
X111124360Y-95967786D02*
G01*
X111209483Y-96032661D01*
X111255966Y-96054013D01*
X111314539Y-96085277D01*
X111245622Y-96096721D01*
X111244340Y-96096782D01*
X111135876Y-96156352D01*
X111103916Y-96217132D01*
X111078907Y-96298231D01*
X111068598Y-96251502D01*
X111066190Y-96217132D01*
X111027276Y-96119302D01*
X110990159Y-96101977D01*
X110968439Y-96065226D01*
X111006610Y-96010554D01*
X111090452Y-95956456D01*
X111124360Y-95967786D01*
G37*
G36*
X111124360Y-103008719D02*
G01*
X111209483Y-103073593D01*
X111255966Y-103094946D01*
X111314539Y-103126210D01*
X111245622Y-103137654D01*
X111244340Y-103137714D01*
X111135876Y-103197285D01*
X111103916Y-103258065D01*
X111078907Y-103339164D01*
X111068598Y-103292435D01*
X111066190Y-103258065D01*
X111027276Y-103160235D01*
X110990159Y-103142909D01*
X110968439Y-103106159D01*
X111006610Y-103051487D01*
X111090452Y-102997388D01*
X111124360Y-103008719D01*
G37*
G36*
X112856207Y-96454792D02*
G01*
X113006329Y-96588920D01*
X113167875Y-96778754D01*
X113217782Y-96934246D01*
X113157659Y-97088092D01*
X113037712Y-97225691D01*
X112824317Y-97381167D01*
X112622785Y-97405978D01*
X112428732Y-97300061D01*
X112347567Y-97215581D01*
X112210999Y-97004430D01*
X112195161Y-96819294D01*
X112301007Y-96631661D01*
X112369557Y-96557537D01*
X112544353Y-96413961D01*
X112695671Y-96379175D01*
X112856207Y-96454792D01*
G37*
G36*
X118165292Y-95967786D02*
G01*
X118250415Y-96032661D01*
X118296898Y-96054013D01*
X118355472Y-96085277D01*
X118286555Y-96096721D01*
X118285273Y-96096782D01*
X118176809Y-96156352D01*
X118144849Y-96217132D01*
X118119840Y-96298231D01*
X118109530Y-96251502D01*
X118107122Y-96217132D01*
X118068209Y-96119302D01*
X118031092Y-96101977D01*
X118009371Y-96065226D01*
X118047542Y-96010554D01*
X118131385Y-95956456D01*
X118165292Y-95967786D01*
G37*
G36*
X118165292Y-103008719D02*
G01*
X118250415Y-103073593D01*
X118296898Y-103094946D01*
X118355472Y-103126210D01*
X118286555Y-103137654D01*
X118285273Y-103137714D01*
X118176809Y-103197285D01*
X118144849Y-103258065D01*
X118119840Y-103339164D01*
X118109530Y-103292435D01*
X118107122Y-103258065D01*
X118068209Y-103160235D01*
X118031092Y-103142909D01*
X118009371Y-103106159D01*
X118047542Y-103051487D01*
X118131385Y-102997388D01*
X118165292Y-103008719D01*
G37*
G36*
X96851203Y-101182439D02*
G01*
X97121821Y-101194630D01*
X97286587Y-101212738D01*
X97371254Y-101243785D01*
X97401572Y-101294795D01*
X97404411Y-101333324D01*
X97393267Y-101396980D01*
X97342991Y-101437665D01*
X97228325Y-101461977D01*
X97024007Y-101476511D01*
X96827558Y-101483959D01*
X96541901Y-101489533D01*
X96361648Y-101480954D01*
X96261022Y-101454602D01*
X96214242Y-101406859D01*
X96210142Y-101397282D01*
X96197510Y-101291229D01*
X96266124Y-101222647D01*
X96430253Y-101186754D01*
X96704166Y-101178768D01*
X96851203Y-101182439D01*
G37*
G36*
X112635101Y-97580136D02*
G01*
X112766660Y-97665770D01*
X112910068Y-97781895D01*
X112759561Y-99094926D01*
X112703028Y-99569025D01*
X112654530Y-99928061D01*
X112611056Y-100188116D01*
X112569597Y-100365268D01*
X112527142Y-100475597D01*
X112491836Y-100525174D01*
X112337314Y-100628431D01*
X112179940Y-100611900D01*
X112048381Y-100526266D01*
X111904973Y-100410141D01*
X112055480Y-99097111D01*
X112112012Y-98623012D01*
X112160510Y-98263975D01*
X112203984Y-98003921D01*
X112245444Y-97826769D01*
X112287899Y-97716440D01*
X112323204Y-97666863D01*
X112477727Y-97563606D01*
X112635101Y-97580136D01*
G37*
G36*
X92793916Y-101183418D02*
G01*
X92835729Y-101183924D01*
X93300612Y-101190278D01*
X93650273Y-101197174D01*
X93901089Y-101206346D01*
X94069439Y-101219530D01*
X94171700Y-101238461D01*
X94224251Y-101264874D01*
X94243469Y-101300504D01*
X94245862Y-101333324D01*
X94240697Y-101376474D01*
X94214369Y-101409290D01*
X94150628Y-101433467D01*
X94033225Y-101450698D01*
X93845912Y-101462677D01*
X93572438Y-101471097D01*
X93196555Y-101477652D01*
X92813074Y-101482669D01*
X92337991Y-101487578D01*
X91978227Y-101488344D01*
X91717531Y-101484011D01*
X91539654Y-101473621D01*
X91428345Y-101456218D01*
X91367355Y-101430847D01*
X91340434Y-101396551D01*
X91340217Y-101395992D01*
X91337487Y-101272539D01*
X91362872Y-101228853D01*
X91447889Y-101209259D01*
X91648971Y-101194447D01*
X91950650Y-101184888D01*
X92337455Y-101181055D01*
X92793916Y-101183418D01*
G37*
G36*
X102215828Y-101182495D02*
G01*
X102541189Y-101184422D01*
X103160897Y-101189153D01*
X103661668Y-101193878D01*
X104056165Y-101199397D01*
X104357056Y-101206505D01*
X104577005Y-101216002D01*
X104728678Y-101228685D01*
X104824740Y-101245350D01*
X104877857Y-101266796D01*
X104900695Y-101293820D01*
X104905918Y-101327219D01*
X104905966Y-101333324D01*
X104902437Y-101367692D01*
X104883448Y-101395611D01*
X104836391Y-101417868D01*
X104748661Y-101435249D01*
X104607651Y-101448540D01*
X104400754Y-101458527D01*
X104115365Y-101465996D01*
X103738877Y-101471734D01*
X103258684Y-101476528D01*
X102662180Y-101481162D01*
X102518854Y-101482204D01*
X101890028Y-101486259D01*
X101380277Y-101488104D01*
X100977084Y-101487293D01*
X100667930Y-101483377D01*
X100440295Y-101475910D01*
X100281662Y-101464444D01*
X100179512Y-101448533D01*
X100121327Y-101427730D01*
X100094586Y-101401587D01*
X100091852Y-101395527D01*
X100089101Y-101272498D01*
X100114187Y-101229352D01*
X100195518Y-101213511D01*
X100398140Y-101200629D01*
X100711768Y-101190896D01*
X101126116Y-101184502D01*
X101630898Y-101181639D01*
X102215828Y-101182495D01*
G37*
G36*
X108467123Y-101182495D02*
G01*
X108792484Y-101184422D01*
X109412193Y-101189153D01*
X109912963Y-101193878D01*
X110307461Y-101199397D01*
X110608351Y-101206505D01*
X110828300Y-101216002D01*
X110979973Y-101228685D01*
X111076035Y-101245350D01*
X111129152Y-101266796D01*
X111151990Y-101293820D01*
X111157214Y-101327219D01*
X111157261Y-101333324D01*
X111153733Y-101367692D01*
X111134743Y-101395611D01*
X111087687Y-101417868D01*
X110999957Y-101435249D01*
X110858946Y-101448540D01*
X110652050Y-101458527D01*
X110366661Y-101465996D01*
X109990173Y-101471734D01*
X109509980Y-101476528D01*
X108913475Y-101481162D01*
X108770149Y-101482204D01*
X108141323Y-101486259D01*
X107631573Y-101488104D01*
X107228379Y-101487293D01*
X106919225Y-101483377D01*
X106691591Y-101475910D01*
X106532958Y-101464444D01*
X106430808Y-101448533D01*
X106372622Y-101427730D01*
X106345882Y-101401587D01*
X106343147Y-101395527D01*
X106340396Y-101272498D01*
X106365482Y-101229352D01*
X106446813Y-101213511D01*
X106649435Y-101200629D01*
X106963063Y-101190896D01*
X107377411Y-101184502D01*
X107882193Y-101181639D01*
X108467123Y-101182495D01*
G37*
G36*
X111474202Y-97593607D02*
G01*
X111578844Y-97675114D01*
X111679139Y-97806631D01*
X111716588Y-97911562D01*
X111658466Y-98061175D01*
X111513355Y-98190679D01*
X111325138Y-98266079D01*
X111249386Y-98273479D01*
X111043599Y-98324164D01*
X110833015Y-98486416D01*
X110832093Y-98487339D01*
X110744037Y-98580985D01*
X110681211Y-98672790D01*
X110636110Y-98789379D01*
X110601229Y-98957380D01*
X110569064Y-99203417D01*
X110532502Y-99550246D01*
X110490017Y-99928479D01*
X110449072Y-100196351D01*
X110405149Y-100374968D01*
X110353726Y-100485437D01*
X110324666Y-100520842D01*
X110168639Y-100627162D01*
X110012147Y-100613623D01*
X109876878Y-100526266D01*
X109733470Y-100410141D01*
X109883977Y-99097111D01*
X109939524Y-98629406D01*
X109986729Y-98275773D01*
X110028839Y-98019192D01*
X110069096Y-97842640D01*
X110110747Y-97729094D01*
X110157036Y-97661532D01*
X110157785Y-97660779D01*
X110311905Y-97572789D01*
X110423060Y-97584062D01*
X110541192Y-97613485D01*
X110678102Y-97621862D01*
X110871704Y-97608833D01*
X111134673Y-97577349D01*
X111341379Y-97562414D01*
X111474202Y-97593607D01*
G37*
G36*
X114652615Y-101182495D02*
G01*
X114977976Y-101184422D01*
X115597685Y-101189153D01*
X116098455Y-101193878D01*
X116492953Y-101199397D01*
X116793844Y-101206505D01*
X117013792Y-101216002D01*
X117165465Y-101228685D01*
X117261527Y-101245350D01*
X117314645Y-101266796D01*
X117337482Y-101293820D01*
X117342706Y-101327219D01*
X117342753Y-101333324D01*
X117339225Y-101367692D01*
X117320236Y-101395611D01*
X117273179Y-101417868D01*
X117185449Y-101435249D01*
X117044439Y-101448540D01*
X116837542Y-101458527D01*
X116552153Y-101465996D01*
X116175665Y-101471734D01*
X115695472Y-101476528D01*
X115098967Y-101481162D01*
X114955641Y-101482204D01*
X114326815Y-101486259D01*
X113817065Y-101488104D01*
X113413872Y-101487293D01*
X113104717Y-101483377D01*
X112877083Y-101475910D01*
X112718450Y-101464444D01*
X112616300Y-101448533D01*
X112558114Y-101427730D01*
X112531374Y-101401587D01*
X112528639Y-101395527D01*
X112525889Y-101272498D01*
X112550974Y-101229352D01*
X112632305Y-101213511D01*
X112834928Y-101200629D01*
X113148555Y-101190896D01*
X113562903Y-101184502D01*
X114067685Y-101181639D01*
X114652615Y-101182495D01*
G37*
G36*
X105641956Y-97563134D02*
G01*
X105850674Y-97633837D01*
X106001047Y-97755028D01*
X106057520Y-97911562D01*
X106001458Y-98054611D01*
X105865373Y-98186362D01*
X105697415Y-98265658D01*
X105634084Y-98273479D01*
X105352614Y-98322496D01*
X105125862Y-98455982D01*
X105045123Y-98550205D01*
X104999874Y-98671090D01*
X104946859Y-98892567D01*
X104892327Y-99184372D01*
X104842529Y-99516240D01*
X104837255Y-99556640D01*
X104786109Y-99927650D01*
X104740181Y-100189526D01*
X104693983Y-100364302D01*
X104642027Y-100474014D01*
X104595545Y-100527236D01*
X104428582Y-100628727D01*
X104276247Y-100608998D01*
X104142376Y-100503931D01*
X104037928Y-100332155D01*
X104037812Y-100191366D01*
X104059735Y-100051968D01*
X104090882Y-99819978D01*
X104126254Y-99533640D01*
X104146566Y-99359231D01*
X104186031Y-99036320D01*
X104228895Y-98723801D01*
X104268315Y-98470249D01*
X104284031Y-98383615D01*
X104321752Y-98160168D01*
X104344054Y-97966021D01*
X104346639Y-97908059D01*
X104406204Y-97741812D01*
X104511535Y-97642044D01*
X104657833Y-97572441D01*
X104801417Y-97588115D01*
X104867482Y-97613136D01*
X105056536Y-97658316D01*
X105191784Y-97620959D01*
X105410468Y-97554861D01*
X105641956Y-97563134D01*
G37*
G36*
X99564604Y-102797443D02*
G01*
X99563314Y-102877984D01*
X99537458Y-103058911D01*
X99491588Y-103312267D01*
X99438772Y-103570630D01*
X99376187Y-103868773D01*
X99325324Y-104122924D01*
X99291964Y-104303407D01*
X99281690Y-104376718D01*
X99338792Y-104436626D01*
X99484884Y-104458972D01*
X99624244Y-104470913D01*
X99664570Y-104525701D01*
X99650290Y-104607029D01*
X99618511Y-104743614D01*
X99609714Y-104804438D01*
X99548142Y-104825048D01*
X99382725Y-104841435D01*
X99141203Y-104851547D01*
X98943110Y-104853790D01*
X98642760Y-104852738D01*
X98451578Y-104846045D01*
X98347127Y-104828403D01*
X98306969Y-104794506D01*
X98308665Y-104739048D01*
X98317082Y-104705733D01*
X98348861Y-104569148D01*
X98357658Y-104508324D01*
X98416520Y-104476837D01*
X98561682Y-104459904D01*
X98610395Y-104458972D01*
X98862233Y-104458972D01*
X98940905Y-104032004D01*
X98988960Y-103773868D01*
X99033701Y-103537974D01*
X99060149Y-103402173D01*
X99080097Y-103268767D01*
X99044097Y-103221538D01*
X98919707Y-103233389D01*
X98869258Y-103242733D01*
X98717275Y-103264468D01*
X98660533Y-103236989D01*
X98665844Y-103139835D01*
X98669624Y-103119649D01*
X98724617Y-102998989D01*
X98856173Y-102907886D01*
X99002349Y-102850616D01*
X99301388Y-102766527D01*
X99491580Y-102755053D01*
X99564604Y-102797443D01*
G37*
G36*
X115727315Y-97613702D02*
G01*
X115818091Y-97675203D01*
X115872561Y-97754434D01*
X115887087Y-97866434D01*
X115858032Y-98026241D01*
X115781759Y-98248895D01*
X115654631Y-98549432D01*
X115473010Y-98942893D01*
X115336542Y-99229468D01*
X115106192Y-99704600D01*
X114920620Y-100070004D01*
X114770937Y-100336120D01*
X114648257Y-100513389D01*
X114543692Y-100612250D01*
X114448354Y-100643143D01*
X114353355Y-100616509D01*
X114249810Y-100542787D01*
X114231760Y-100527236D01*
X114169700Y-100422482D01*
X114090615Y-100214802D01*
X114000396Y-99928586D01*
X113904934Y-99588220D01*
X113810118Y-99218094D01*
X113721839Y-98842595D01*
X113645988Y-98486113D01*
X113588455Y-98173035D01*
X113555130Y-97927749D01*
X113551904Y-97774645D01*
X113559898Y-97745517D01*
X113697599Y-97609206D01*
X113883655Y-97577088D01*
X114043998Y-97636664D01*
X114121574Y-97712163D01*
X114189638Y-97842694D01*
X114257483Y-98052229D01*
X114334400Y-98364743D01*
X114345801Y-98415307D01*
X114411347Y-98700775D01*
X114468958Y-98938169D01*
X114511335Y-99098178D01*
X114528694Y-99149705D01*
X114566609Y-99114274D01*
X114649178Y-98979677D01*
X114765173Y-98765903D01*
X114903363Y-98492938D01*
X114940965Y-98415929D01*
X115123302Y-98053430D01*
X115269999Y-97800520D01*
X115393655Y-97644345D01*
X115506874Y-97572047D01*
X115622255Y-97570772D01*
X115727315Y-97613702D01*
G37*
G36*
X95696720Y-97650656D02*
G01*
X95804915Y-97857430D01*
X95906718Y-98184126D01*
X95958356Y-98398481D01*
X96023603Y-98679475D01*
X96080516Y-98908950D01*
X96121923Y-99058887D01*
X96138495Y-99102295D01*
X96175905Y-99057485D01*
X96258288Y-98915131D01*
X96374035Y-98696513D01*
X96511539Y-98422909D01*
X96533074Y-98378953D01*
X96713562Y-98024244D01*
X96859316Y-97779417D01*
X96983148Y-97631633D01*
X97097869Y-97568056D01*
X97216292Y-97575850D01*
X97298765Y-97611733D01*
X97391256Y-97673083D01*
X97447603Y-97750351D01*
X97464238Y-97858964D01*
X97437589Y-98014352D01*
X97364088Y-98231943D01*
X97240165Y-98527166D01*
X97062250Y-98915449D01*
X96934540Y-99185948D01*
X96650796Y-99778587D01*
X96412866Y-100262881D01*
X96213428Y-100650885D01*
X96045157Y-100954654D01*
X95900730Y-101186246D01*
X95772823Y-101357714D01*
X95654113Y-101481115D01*
X95537275Y-101568505D01*
X95461783Y-101610275D01*
X95185358Y-101724259D01*
X94984897Y-101748941D01*
X94839401Y-101684002D01*
X94768347Y-101599758D01*
X94697054Y-101401674D01*
X94754452Y-101225888D01*
X94938883Y-101076546D01*
X94987493Y-101051815D01*
X95204883Y-100892299D01*
X95410245Y-100620291D01*
X95439277Y-100571684D01*
X95652993Y-100204863D01*
X95380217Y-99000561D01*
X95107442Y-97796259D01*
X95259719Y-97672952D01*
X95431528Y-97566108D01*
X95574726Y-97556112D01*
X95696720Y-97650656D01*
G37*
G36*
X93910510Y-102631326D02*
G01*
X93933629Y-102684654D01*
X93924030Y-102799499D01*
X93884048Y-102999044D01*
X93823068Y-103274516D01*
X93770580Y-103528629D01*
X93735933Y-103729546D01*
X93724187Y-103846219D01*
X93727213Y-103862544D01*
X93821322Y-103876463D01*
X93961167Y-103812200D01*
X94109928Y-103694064D01*
X94230782Y-103546364D01*
X94245862Y-103520140D01*
X94357536Y-103353100D01*
X94476349Y-103283025D01*
X94558427Y-103274693D01*
X94686754Y-103295514D01*
X94730450Y-103367904D01*
X94688449Y-103506253D01*
X94559690Y-103724951D01*
X94520837Y-103783462D01*
X94399810Y-103973136D01*
X94345325Y-104102291D01*
X94345745Y-104216277D01*
X94379831Y-104332950D01*
X94467327Y-104587807D01*
X94511528Y-104742346D01*
X94509364Y-104821556D01*
X94457764Y-104850426D01*
X94353659Y-104853945D01*
X94315847Y-104853790D01*
X94169902Y-104844377D01*
X94087463Y-104793215D01*
X94032046Y-104665919D01*
X94001651Y-104557676D01*
X93938476Y-104369521D01*
X93866106Y-104281231D01*
X93776027Y-104261562D01*
X93687612Y-104273132D01*
X93628134Y-104327312D01*
X93579903Y-104453306D01*
X93526890Y-104672832D01*
X93471268Y-104805352D01*
X93355522Y-104851243D01*
X93290463Y-104853790D01*
X93152282Y-104845023D01*
X93094311Y-104823923D01*
X93094308Y-104823759D01*
X93107127Y-104747093D01*
X93141831Y-104568815D01*
X93192784Y-104316012D01*
X93254355Y-104015770D01*
X93320909Y-103695175D01*
X93386813Y-103381313D01*
X93446433Y-103101270D01*
X93494137Y-102882133D01*
X93524291Y-102750986D01*
X93529429Y-102731640D01*
X93622287Y-102637535D01*
X93756773Y-102616485D01*
X93852336Y-102616331D01*
X93910510Y-102631326D01*
G37*
G36*
X117957841Y-97603352D02*
G01*
X118282304Y-97753015D01*
X118517997Y-97991151D01*
X118655535Y-98309199D01*
X118688557Y-98586044D01*
X118675627Y-98778675D01*
X118619082Y-98921308D01*
X118499818Y-99027150D01*
X118298730Y-99109410D01*
X117996713Y-99181297D01*
X117766218Y-99223712D01*
X117469698Y-99278819D01*
X117213615Y-99333098D01*
X117031047Y-99379162D01*
X116964386Y-99402729D01*
X116872637Y-99514420D01*
X116854423Y-99676039D01*
X116914924Y-99825053D01*
X116928194Y-99839593D01*
X117065702Y-99900398D01*
X117276371Y-99915013D01*
X117510751Y-99885078D01*
X117717059Y-99813446D01*
X117939256Y-99752764D01*
X118125657Y-99803180D01*
X118249348Y-99954835D01*
X118269530Y-100015878D01*
X118256893Y-100200925D01*
X118137709Y-100363162D01*
X117936131Y-100495200D01*
X117676311Y-100589647D01*
X117382403Y-100639112D01*
X117078560Y-100636206D01*
X116788933Y-100573536D01*
X116647130Y-100512338D01*
X116459836Y-100398086D01*
X116322592Y-100268988D01*
X116232104Y-100107049D01*
X116185079Y-99894280D01*
X116178223Y-99612686D01*
X116208242Y-99244277D01*
X116271843Y-98771059D01*
X116297517Y-98602495D01*
X116306830Y-98571297D01*
X117046639Y-98571297D01*
X117107926Y-98612134D01*
X117290922Y-98606285D01*
X117594335Y-98553864D01*
X117825633Y-98502011D01*
X117927624Y-98450658D01*
X117922299Y-98385286D01*
X117830178Y-98323142D01*
X117671784Y-98281475D01*
X117553738Y-98273479D01*
X117325304Y-98308592D01*
X117146605Y-98400122D01*
X117052911Y-98527353D01*
X117046639Y-98571297D01*
X116306830Y-98571297D01*
X116416166Y-98205044D01*
X116630381Y-97895342D01*
X116931818Y-97680375D01*
X117312136Y-97567124D01*
X117553992Y-97550728D01*
X117957841Y-97603352D01*
G37*
G36*
X93018901Y-102758738D02*
G01*
X93073542Y-102810885D01*
X93091139Y-102921159D01*
X93074147Y-103106860D01*
X93025022Y-103385284D01*
X92946219Y-103773731D01*
X92938157Y-103812733D01*
X92858728Y-104193234D01*
X92798286Y-104463992D01*
X92749582Y-104644226D01*
X92705367Y-104753157D01*
X92658394Y-104810006D01*
X92601412Y-104833994D01*
X92550096Y-104841710D01*
X92465977Y-104849434D01*
X92411459Y-104836744D01*
X92386089Y-104784305D01*
X92389415Y-104672780D01*
X92420981Y-104482832D01*
X92480335Y-104195126D01*
X92529545Y-103965448D01*
X92590004Y-103675387D01*
X92636303Y-103437189D01*
X92663508Y-103277388D01*
X92667674Y-103222610D01*
X92638593Y-103269718D01*
X92577687Y-103411601D01*
X92497365Y-103619085D01*
X92485783Y-103650330D01*
X92382673Y-103902606D01*
X92294137Y-104049149D01*
X92205476Y-104112535D01*
X92181256Y-104118082D01*
X92107251Y-104119313D01*
X92064581Y-104076864D01*
X92043884Y-103963391D01*
X92035798Y-103751554D01*
X92034801Y-103690362D01*
X92028144Y-103241614D01*
X91882586Y-103935308D01*
X91805790Y-104295786D01*
X91746620Y-104547004D01*
X91696465Y-104708669D01*
X91646713Y-104800487D01*
X91588754Y-104842162D01*
X91513977Y-104853400D01*
X91481215Y-104853790D01*
X91368059Y-104841011D01*
X91334231Y-104776344D01*
X91352138Y-104639930D01*
X91381516Y-104493679D01*
X91431886Y-104251986D01*
X91496272Y-103948010D01*
X91567700Y-103614911D01*
X91570156Y-103603531D01*
X91747697Y-102780992D01*
X92009733Y-102780992D01*
X92271769Y-102780992D01*
X92266433Y-103227262D01*
X92261097Y-103673532D01*
X92432301Y-103227262D01*
X92528665Y-102991453D01*
X92606330Y-102853364D01*
X92686419Y-102785277D01*
X92788662Y-102759634D01*
X92924759Y-102747421D01*
X93018901Y-102758738D01*
G37*
G36*
X99292762Y-97559206D02*
G01*
X99519076Y-97581080D01*
X99694986Y-97630248D01*
X99788652Y-97672938D01*
X100116698Y-97900704D01*
X100331811Y-98191804D01*
X100387368Y-98327002D01*
X100418412Y-98528680D01*
X100417147Y-98812040D01*
X100388520Y-99132540D01*
X100337476Y-99445640D01*
X100268961Y-99706797D01*
X100221616Y-99819852D01*
X99956837Y-100188104D01*
X99615069Y-100452263D01*
X99208334Y-100605103D01*
X98853303Y-100642391D01*
X98503520Y-100642391D01*
X98457159Y-101104031D01*
X98421731Y-101370278D01*
X98373821Y-101537557D01*
X98302588Y-101638495D01*
X98271331Y-101663358D01*
X98096794Y-101750442D01*
X97949734Y-101724053D01*
X97827184Y-101624490D01*
X97734382Y-101491732D01*
X97719177Y-101325384D01*
X97729384Y-101246122D01*
X97765309Y-101004874D01*
X97812291Y-100664821D01*
X97866258Y-100257892D01*
X97920526Y-99836303D01*
X98623854Y-99836303D01*
X98678920Y-99891522D01*
X98819472Y-99915567D01*
X99003151Y-99908510D01*
X99187599Y-99870424D01*
X99276198Y-99835186D01*
X99477113Y-99660195D01*
X99619312Y-99369998D01*
X99701166Y-98967965D01*
X99703025Y-98950897D01*
X99721877Y-98715926D01*
X99711697Y-98569131D01*
X99665497Y-98468938D01*
X99611751Y-98408021D01*
X99473505Y-98328610D01*
X99278910Y-98281028D01*
X99076235Y-98269303D01*
X98913745Y-98297464D01*
X98848945Y-98344354D01*
X98825846Y-98429528D01*
X98791375Y-98611848D01*
X98750577Y-98857883D01*
X98708496Y-99134202D01*
X98670175Y-99407373D01*
X98640659Y-99643963D01*
X98624991Y-99810542D01*
X98623854Y-99836303D01*
X97920526Y-99836303D01*
X97923138Y-99816015D01*
X97978861Y-99371119D01*
X98029356Y-98955134D01*
X98070552Y-98599987D01*
X98091634Y-98405086D01*
X98133085Y-98062782D01*
X98189406Y-97830024D01*
X98283403Y-97684990D01*
X98437884Y-97605858D01*
X98675655Y-97570808D01*
X98975935Y-97559006D01*
X99292762Y-97559206D01*
G37*
G36*
X102723114Y-97596800D02*
G01*
X103039190Y-97723813D01*
X103274292Y-97918267D01*
X103357267Y-98045214D01*
X103416289Y-98241961D01*
X103438808Y-98485049D01*
X103425906Y-98725845D01*
X103378664Y-98915717D01*
X103336413Y-98982892D01*
X103225626Y-99044285D01*
X103030101Y-99111194D01*
X102824391Y-99161977D01*
X102523500Y-99223586D01*
X102202931Y-99288979D01*
X102027080Y-99324723D01*
X101814420Y-99373068D01*
X101700981Y-99421441D01*
X101656029Y-99490662D01*
X101648712Y-99581046D01*
X101676073Y-99744060D01*
X101727676Y-99839593D01*
X101865184Y-99900398D01*
X102075853Y-99915013D01*
X102310233Y-99885078D01*
X102516541Y-99813446D01*
X102738738Y-99752764D01*
X102925139Y-99803180D01*
X103048830Y-99954835D01*
X103069012Y-100015878D01*
X103057707Y-100204390D01*
X102939917Y-100367796D01*
X102739492Y-100499226D01*
X102480282Y-100591809D01*
X102186139Y-100638676D01*
X101880912Y-100632955D01*
X101588453Y-100567776D01*
X101418401Y-100491350D01*
X101177151Y-100297716D01*
X101039162Y-100096863D01*
X100989921Y-99978813D01*
X100961718Y-99859057D01*
X100953466Y-99707372D01*
X100964074Y-99493535D01*
X100992452Y-99187321D01*
X101002774Y-99087244D01*
X101042166Y-98742424D01*
X101060272Y-98628991D01*
X101789224Y-98628991D01*
X101862961Y-98651601D01*
X101895474Y-98644363D01*
X102021169Y-98613982D01*
X102224713Y-98569997D01*
X102392567Y-98535817D01*
X102603113Y-98488367D01*
X102704305Y-98446178D01*
X102717293Y-98397509D01*
X102697075Y-98366778D01*
X102563224Y-98293646D01*
X102361127Y-98270921D01*
X102143022Y-98296054D01*
X101961144Y-98366498D01*
X101911924Y-98405086D01*
X101806040Y-98539622D01*
X101789224Y-98628991D01*
X101060272Y-98628991D01*
X101081199Y-98497889D01*
X101127907Y-98322585D01*
X101190323Y-98185457D01*
X101265976Y-98069833D01*
X101546787Y-97785864D01*
X101897661Y-97613027D01*
X102319414Y-97550933D01*
X102353474Y-97550728D01*
X102723114Y-97596800D01*
G37*
G36*
X94465946Y-96425519D02*
G01*
X94522592Y-96454619D01*
X94568378Y-96483817D01*
X94602757Y-96525331D01*
X94625181Y-96591378D01*
X94635105Y-96694179D01*
X94631981Y-96845950D01*
X94615261Y-97058911D01*
X94584400Y-97345279D01*
X94538850Y-97717274D01*
X94478064Y-98187114D01*
X94401495Y-98767017D01*
X94340508Y-99227624D01*
X94292471Y-99584603D01*
X94247894Y-99904454D01*
X94210671Y-100160058D01*
X94184696Y-100324295D01*
X94177789Y-100360829D01*
X94083189Y-100521571D01*
X93916540Y-100612205D01*
X93749784Y-100608679D01*
X93634569Y-100551440D01*
X93562829Y-100453541D01*
X93531174Y-100294230D01*
X93536215Y-100052755D01*
X93574563Y-99708364D01*
X93587435Y-99614574D01*
X93627851Y-99321903D01*
X93660317Y-99077763D01*
X93681014Y-98911434D01*
X93686536Y-98854253D01*
X93625411Y-98831327D01*
X93460705Y-98813180D01*
X93220420Y-98802150D01*
X93035559Y-98799904D01*
X92384583Y-98799904D01*
X92300840Y-99600427D01*
X92257319Y-99971354D01*
X92214272Y-100231828D01*
X92167025Y-100402899D01*
X92110906Y-100505622D01*
X92096376Y-100521671D01*
X91940678Y-100627398D01*
X91784059Y-100613324D01*
X91649312Y-100526181D01*
X91505798Y-100409970D01*
X91709401Y-98601440D01*
X91764081Y-98120818D01*
X91815627Y-97677284D01*
X91861798Y-97289386D01*
X91900353Y-96975670D01*
X91929049Y-96754683D01*
X91945645Y-96644974D01*
X91946145Y-96642615D01*
X92039294Y-96476797D01*
X92202291Y-96398290D01*
X92396067Y-96420527D01*
X92474097Y-96461066D01*
X92580039Y-96544736D01*
X92623235Y-96641676D01*
X92619612Y-96801127D01*
X92610122Y-96881669D01*
X92582357Y-97116411D01*
X92550397Y-97409177D01*
X92527618Y-97631899D01*
X92483906Y-98076070D01*
X93138627Y-98076070D01*
X93793348Y-98076070D01*
X93879024Y-97368687D01*
X93919494Y-97067581D01*
X93961764Y-96807880D01*
X94000117Y-96622076D01*
X94022957Y-96550604D01*
X94155011Y-96424633D01*
X94338604Y-96388861D01*
X94465946Y-96425519D01*
G37*
G36*
X107909297Y-96406415D02*
G01*
X108318977Y-96534505D01*
X108641859Y-96756079D01*
X108885610Y-97077758D01*
X109057895Y-97506163D01*
X109138125Y-97861733D01*
X109169142Y-98388978D01*
X109080017Y-98933821D01*
X108868730Y-99505890D01*
X108739142Y-99763896D01*
X108531963Y-100037685D01*
X108236057Y-100286315D01*
X107894068Y-100476744D01*
X107749641Y-100530574D01*
X107522392Y-100581711D01*
X107236762Y-100617778D01*
X106935363Y-100636626D01*
X106660812Y-100636105D01*
X106455721Y-100614063D01*
X106402233Y-100598560D01*
X106336141Y-100561522D01*
X106288138Y-100501308D01*
X106258353Y-100403512D01*
X106246915Y-100253726D01*
X106253953Y-100037542D01*
X106274583Y-99798618D01*
X106978764Y-99798618D01*
X107033578Y-99887103D01*
X107177857Y-99919683D01*
X107381355Y-99895128D01*
X107589556Y-99823425D01*
X107860378Y-99667204D01*
X108066529Y-99457060D01*
X108241931Y-99156930D01*
X108267175Y-99103038D01*
X108406357Y-98754506D01*
X108470434Y-98455963D01*
X108466417Y-98154556D01*
X108425700Y-97908035D01*
X108302839Y-97536192D01*
X108112746Y-97274620D01*
X107857713Y-97125622D01*
X107610474Y-97089023D01*
X107431546Y-97095681D01*
X107322911Y-97112562D01*
X107307779Y-97123214D01*
X107299650Y-97196104D01*
X107277006Y-97378884D01*
X107242464Y-97650958D01*
X107198642Y-97991730D01*
X107148155Y-98380603D01*
X107143272Y-98418041D01*
X107091939Y-98817418D01*
X107047149Y-99177397D01*
X107011576Y-99475516D01*
X106987897Y-99689313D01*
X106978789Y-99796327D01*
X106978764Y-99798618D01*
X106274583Y-99798618D01*
X106279597Y-99740555D01*
X106323976Y-99348356D01*
X106387220Y-98846539D01*
X106420246Y-98593479D01*
X106481161Y-98125614D01*
X106535995Y-97696848D01*
X106582466Y-97325646D01*
X106618293Y-97030471D01*
X106641192Y-96829789D01*
X106648893Y-96743557D01*
X106693676Y-96613548D01*
X106781354Y-96496795D01*
X106876534Y-96425902D01*
X107008526Y-96385414D01*
X107212780Y-96367853D01*
X107405152Y-96365189D01*
X107909297Y-96406415D01*
G37*
D12*
%TO.C,U48*%
X135570000Y-144450000D02*
G75*
G02*
X135170000Y-144450000I-200000J0D01*
G01*
X135170000Y-144450000D02*
G75*
G02*
X135570000Y-144450000I200000J0D01*
G01*
D13*
X138470000Y-145150000D02*
X134670000Y-145150000D01*
X138470000Y-140550000D02*
X138470000Y-145150000D01*
X134670000Y-145150000D02*
X134670000Y-140550000D01*
X134670000Y-140550000D02*
X138470000Y-140550000D01*
D11*
%TO.C,C201*%
X154479549Y-100047735D02*
X153473687Y-101053597D01*
X156402879Y-101971065D02*
X155397017Y-102976927D01*
D14*
%TO.C,U1*%
G36*
X138337683Y-89272692D02*
G01*
X138068275Y-89542100D01*
X137888670Y-89362495D01*
X138158078Y-89093087D01*
X138337683Y-89272692D01*
G37*
G36*
X136927782Y-84937208D02*
G01*
X136748177Y-85116813D01*
X136478770Y-84847406D01*
X136658375Y-84667801D01*
X136927782Y-84937208D01*
G37*
G36*
X135509256Y-92101119D02*
G01*
X135239848Y-92370527D01*
X135060243Y-92190922D01*
X135329650Y-91921514D01*
X135509256Y-92101119D01*
G37*
G36*
X134099355Y-82108781D02*
G01*
X133919750Y-82288386D01*
X133650343Y-82018979D01*
X133829948Y-81839373D01*
X134099355Y-82108781D01*
G37*
G36*
X131083971Y-90215335D02*
G01*
X130904366Y-90394940D01*
X130634959Y-90125533D01*
X130814564Y-89945928D01*
X131083971Y-90215335D01*
G37*
G36*
X128255544Y-87386908D02*
G01*
X128075939Y-87566513D01*
X127806531Y-87297106D01*
X127986137Y-87117501D01*
X128255544Y-87386908D01*
G37*
G36*
X127977014Y-82871821D02*
G01*
X127707606Y-83141229D01*
X127528001Y-82961624D01*
X127797409Y-82692216D01*
X127977014Y-82871821D01*
G37*
D16*
X138837396Y-87809900D02*
X138598846Y-87571349D01*
X138594534Y-88052763D02*
X138837396Y-87809900D01*
X134059900Y-92587396D02*
X134302763Y-92344534D01*
X133821349Y-92348846D02*
X134059900Y-92587396D01*
X131478651Y-80451154D02*
X131240100Y-80212604D01*
X131240100Y-80212604D02*
X130997237Y-80455466D01*
X126705466Y-84747237D02*
X126462604Y-84990100D01*
X126462604Y-84990100D02*
X126701154Y-85228651D01*
D11*
%TO.C,R87*%
X167789305Y-104687920D02*
X167453772Y-105023453D01*
X168528232Y-105426847D02*
X168192699Y-105762380D01*
%TO.C,C20*%
X147786018Y-82360755D02*
X147984829Y-82559566D01*
X147064769Y-83082004D02*
X147263580Y-83280815D01*
%TO.C,U22*%
X177196823Y-121567250D02*
X177196823Y-124337250D01*
X177196823Y-125763250D02*
X177196823Y-126748250D01*
X178486823Y-121537250D02*
X181026823Y-121537250D01*
X182316823Y-121567250D02*
X182316823Y-124337250D01*
X182316823Y-125763250D02*
X182316823Y-126748250D01*
X177206823Y-127395000D02*
X176876823Y-127635000D01*
X176876823Y-127155000D01*
X177206823Y-127395000D01*
G36*
X177206823Y-127395000D02*
G01*
X176876823Y-127635000D01*
X176876823Y-127155000D01*
X177206823Y-127395000D01*
G37*
%TO.C,D27*%
X148850000Y-122737500D02*
X148850000Y-126747500D01*
X150850000Y-122737500D02*
X148850000Y-122737500D01*
X150850000Y-122737500D02*
X150850000Y-126747500D01*
%TO.C,U25*%
X159400000Y-122712500D02*
X157450000Y-122712500D01*
X159400000Y-122712500D02*
X161350000Y-122712500D01*
X159400000Y-127832500D02*
X157450000Y-127832500D01*
X159400000Y-127832500D02*
X161350000Y-127832500D01*
X162340000Y-128067500D02*
X161860000Y-128067500D01*
X162100000Y-127737500D01*
X162340000Y-128067500D01*
G36*
X162340000Y-128067500D02*
G01*
X161860000Y-128067500D01*
X162100000Y-127737500D01*
X162340000Y-128067500D01*
G37*
%TO.C,R12*%
X96477500Y-63449758D02*
X96477500Y-62975242D01*
X97522500Y-63449758D02*
X97522500Y-62975242D01*
%TO.C,R21*%
X101327500Y-77975242D02*
X101327500Y-78449758D01*
X102372500Y-77975242D02*
X102372500Y-78449758D01*
%TO.C,C74*%
X207760000Y-86809420D02*
X207760000Y-87090580D01*
X208780000Y-86809420D02*
X208780000Y-87090580D01*
%TO.C,C175*%
X166430000Y-82188748D02*
X166430000Y-83611252D01*
X169150000Y-82188748D02*
X169150000Y-83611252D01*
%TO.C,C179*%
X173124584Y-115552597D02*
X173124584Y-116975101D01*
X175844584Y-115552597D02*
X175844584Y-116975101D01*
%TO.C,R42*%
X202422936Y-101715336D02*
X206100000Y-101715336D01*
X202422936Y-105135336D02*
X206100000Y-105135336D01*
%TO.C,U39*%
X177196823Y-81192673D02*
X177196823Y-83962673D01*
X177196823Y-85388673D02*
X177196823Y-86373673D01*
X178486823Y-81162673D02*
X181026823Y-81162673D01*
X182316823Y-81192673D02*
X182316823Y-83962673D01*
X182316823Y-85388673D02*
X182316823Y-86373673D01*
X177206823Y-87020423D02*
X176876823Y-87260423D01*
X176876823Y-86780423D01*
X177206823Y-87020423D01*
G36*
X177206823Y-87020423D02*
G01*
X176876823Y-87260423D01*
X176876823Y-86780423D01*
X177206823Y-87020423D01*
G37*
%TO.C,C12*%
X120856345Y-83853529D02*
X120486878Y-84222996D01*
X119816898Y-82814082D02*
X119447431Y-83183549D01*
%TO.C,U26*%
X159400000Y-133937500D02*
X157450000Y-133937500D01*
X159400000Y-133937500D02*
X161350000Y-133937500D01*
X159400000Y-139057500D02*
X157450000Y-139057500D01*
X159400000Y-139057500D02*
X161350000Y-139057500D01*
X162340000Y-139292500D02*
X161860000Y-139292500D01*
X162100000Y-138962500D01*
X162340000Y-139292500D01*
G36*
X162340000Y-139292500D02*
G01*
X161860000Y-139292500D01*
X162100000Y-138962500D01*
X162340000Y-139292500D01*
G37*
%TO.C,R22*%
X103547258Y-74935000D02*
X103072742Y-74935000D01*
X103547258Y-73890000D02*
X103072742Y-73890000D01*
%TO.C,C73*%
X169820000Y-78811252D02*
X169820000Y-77388748D01*
X172540000Y-78811252D02*
X172540000Y-77388748D01*
D16*
%TO.C,U2*%
X159336598Y-98310756D02*
X159812100Y-98786257D01*
X159812100Y-97835255D02*
X159336598Y-98310756D01*
X163997804Y-102971961D02*
X164473305Y-103447463D01*
X164473305Y-93174049D02*
X163997804Y-93649551D01*
X164473305Y-103447463D02*
X165302359Y-102618409D01*
X164948806Y-93649551D02*
X164473305Y-93174049D01*
X169134510Y-98786257D02*
X169610012Y-98310756D01*
X169610012Y-98310756D02*
X169134510Y-97835255D01*
D14*
G36*
X160677062Y-96366425D02*
G01*
X160407654Y-96635833D01*
X160228049Y-96456228D01*
X160497456Y-96186820D01*
X160677062Y-96366425D01*
G37*
G36*
X162444829Y-102022854D02*
G01*
X162265224Y-102202460D01*
X161995816Y-101933052D01*
X162175422Y-101753447D01*
X162444829Y-102022854D01*
G37*
G36*
X166243687Y-93981353D02*
G01*
X166064082Y-94160958D01*
X165794674Y-93891551D01*
X165974279Y-93711946D01*
X166243687Y-93981353D01*
G37*
G36*
X168011454Y-100872392D02*
G01*
X167742046Y-101141799D01*
X167562441Y-100962194D01*
X167831849Y-100692787D01*
X168011454Y-100872392D01*
G37*
D11*
%TO.C,C4*%
X139678785Y-91449359D02*
X139877596Y-91648170D01*
X138957536Y-92170608D02*
X139156347Y-92369419D01*
D14*
%TO.C,G\u002A\u002A\u002A*%
G36*
X178077379Y-141694456D02*
G01*
X178094225Y-142105776D01*
X178505545Y-142122622D01*
X178916864Y-142139468D01*
X178478501Y-142149665D01*
X178040139Y-142159862D01*
X178050336Y-141721499D01*
X178060533Y-141283137D01*
X178077379Y-141694456D01*
G37*
G36*
X178478501Y-132150336D02*
G01*
X178916864Y-132160533D01*
X178505545Y-132177379D01*
X178094225Y-132194225D01*
X178077379Y-132605545D01*
X178060533Y-133016864D01*
X178050336Y-132578501D01*
X178040139Y-132140139D01*
X178478501Y-132150336D01*
G37*
G36*
X184753353Y-139654931D02*
G01*
X184753353Y-139805227D01*
X183050000Y-139805227D01*
X181346647Y-139805227D01*
X181346647Y-139654931D01*
X181346647Y-139504636D01*
X183050000Y-139504636D01*
X184753353Y-139504636D01*
X184753353Y-139654931D01*
G37*
G36*
X188049665Y-141721499D02*
G01*
X188059862Y-142159862D01*
X187621499Y-142149665D01*
X187183137Y-142139468D01*
X187594456Y-142122622D01*
X188005776Y-142105776D01*
X188022622Y-141694456D01*
X188039468Y-141283137D01*
X188049665Y-141721499D01*
G37*
G36*
X188059862Y-132565977D02*
G01*
X188057141Y-132758423D01*
X188049880Y-132905602D01*
X188039431Y-132984512D01*
X188034813Y-132991815D01*
X188023153Y-132945683D01*
X188014385Y-132823134D01*
X188010002Y-132647938D01*
X188009764Y-132593052D01*
X188009764Y-132194289D01*
X187596450Y-132177411D01*
X187183137Y-132160533D01*
X187621499Y-132150336D01*
X188059862Y-132140139D01*
X188059862Y-132565977D01*
G37*
G36*
X183048780Y-136380720D02*
G01*
X183188773Y-136463416D01*
X183095438Y-136668937D01*
X183028520Y-136854290D01*
X183008480Y-137032672D01*
X183037999Y-137228549D01*
X183119755Y-137466387D01*
X183203875Y-137658755D01*
X183341272Y-138006113D01*
X183406118Y-138304342D01*
X183399859Y-138571873D01*
X183323938Y-138827139D01*
X183299603Y-138880243D01*
X183222874Y-139025973D01*
X183161724Y-139089332D01*
X183093331Y-139080496D01*
X183000009Y-139013810D01*
X182888819Y-138923774D01*
X182994272Y-138750792D01*
X183078285Y-138559659D01*
X183096681Y-138355569D01*
X183047708Y-138120468D01*
X182929613Y-137836301D01*
X182899705Y-137776233D01*
X182797544Y-137564515D01*
X182736909Y-137401918D01*
X182707586Y-137251759D01*
X182699365Y-137077354D01*
X182699310Y-137056386D01*
X182722173Y-136767387D01*
X182795394Y-136532742D01*
X182804049Y-136514386D01*
X182908788Y-136298025D01*
X183048780Y-136380720D01*
G37*
G36*
X183872722Y-136405857D02*
G01*
X183967502Y-136473071D01*
X183972012Y-136545216D01*
X183874753Y-136795927D01*
X183827220Y-137000631D01*
X183831231Y-137189223D01*
X183888603Y-137391595D01*
X184001151Y-137637643D01*
X184043382Y-137719546D01*
X184142231Y-137921527D01*
X184198173Y-138081367D01*
X184222573Y-138241152D01*
X184227018Y-138399533D01*
X184207008Y-138644909D01*
X184153092Y-138847467D01*
X184073718Y-138995251D01*
X183977337Y-139076303D01*
X183872400Y-139078669D01*
X183789892Y-139018029D01*
X183739474Y-138946940D01*
X183751769Y-138882719D01*
X183805498Y-138810229D01*
X183890635Y-138629524D01*
X183906300Y-138394090D01*
X183853794Y-138120126D01*
X183734421Y-137823831D01*
X183724694Y-137804796D01*
X183570699Y-137428932D01*
X183509748Y-137078136D01*
X183542520Y-136756486D01*
X183547578Y-136737860D01*
X183616029Y-136533661D01*
X183686447Y-136418057D01*
X183769797Y-136379853D01*
X183872722Y-136405857D01*
G37*
G36*
X182232457Y-136386625D02*
G01*
X182242285Y-136393892D01*
X182317737Y-136459594D01*
X182330603Y-136521236D01*
X182287375Y-136622067D01*
X182278977Y-136638369D01*
X182200554Y-136898415D01*
X182214248Y-137195723D01*
X182319879Y-137528554D01*
X182384488Y-137664762D01*
X182482938Y-137868449D01*
X182539653Y-138029251D01*
X182565766Y-138189399D01*
X182572358Y-138377417D01*
X182563036Y-138611100D01*
X182528063Y-138780547D01*
X182473407Y-138899430D01*
X182382930Y-139032852D01*
X182306455Y-139082604D01*
X182221777Y-139058444D01*
X182178815Y-139028897D01*
X182126802Y-138983076D01*
X182111465Y-138931931D01*
X182134104Y-138846374D01*
X182193343Y-138703532D01*
X182258134Y-138512548D01*
X182273597Y-138333169D01*
X182236300Y-138139901D01*
X182142810Y-137907250D01*
X182065111Y-137751184D01*
X181917275Y-137396478D01*
X181859920Y-137068943D01*
X181891411Y-136756326D01*
X181919325Y-136659421D01*
X181992888Y-136467006D01*
X182061793Y-136363818D01*
X182137747Y-136340233D01*
X182232457Y-136386625D01*
G37*
G36*
X183067635Y-133545372D02*
G01*
X183143709Y-133664109D01*
X183261336Y-133853686D01*
X183415899Y-134106336D01*
X183602780Y-134414294D01*
X183817360Y-134769795D01*
X184055022Y-135165074D01*
X184311146Y-135592364D01*
X184581116Y-136043900D01*
X184860312Y-136511916D01*
X185144117Y-136988648D01*
X185427912Y-137466329D01*
X185707079Y-137937194D01*
X185977001Y-138393478D01*
X186233059Y-138827414D01*
X186470634Y-139231238D01*
X186685109Y-139597184D01*
X186871866Y-139917486D01*
X187026285Y-140184379D01*
X187143750Y-140390097D01*
X187219642Y-140526874D01*
X187249343Y-140586946D01*
X187249433Y-140587306D01*
X187240371Y-140599821D01*
X187203078Y-140610787D01*
X187131696Y-140620302D01*
X187020364Y-140628462D01*
X186863225Y-140635365D01*
X186654419Y-140641106D01*
X186388086Y-140645782D01*
X186058368Y-140649490D01*
X185659406Y-140652326D01*
X185185340Y-140654388D01*
X184630312Y-140655771D01*
X183988461Y-140656573D01*
X183253931Y-140656889D01*
X183028625Y-140656904D01*
X182386700Y-140656666D01*
X181774334Y-140655976D01*
X181198821Y-140654870D01*
X180667454Y-140653384D01*
X180187527Y-140651551D01*
X179766332Y-140649409D01*
X179411164Y-140646992D01*
X179129315Y-140644337D01*
X178928079Y-140641477D01*
X178814750Y-140638450D01*
X178791618Y-140636297D01*
X178816566Y-140588309D01*
X178888328Y-140462276D01*
X178978917Y-140306213D01*
X179352478Y-140306213D01*
X183029839Y-140306213D01*
X183626935Y-140305978D01*
X184193937Y-140305298D01*
X184723015Y-140304210D01*
X185206341Y-140302753D01*
X185636086Y-140300964D01*
X186004422Y-140298880D01*
X186303519Y-140296540D01*
X186525550Y-140293981D01*
X186662685Y-140291241D01*
X186707200Y-140288492D01*
X186682460Y-140243196D01*
X186611494Y-140120025D01*
X186499178Y-139927287D01*
X186350390Y-139673292D01*
X186170006Y-139366349D01*
X185962904Y-139014768D01*
X185733961Y-138626856D01*
X185488055Y-138210925D01*
X185450092Y-138146776D01*
X185178587Y-137687894D01*
X184903892Y-137223340D01*
X184634028Y-136766700D01*
X184377022Y-136331565D01*
X184140895Y-135931522D01*
X183933673Y-135580159D01*
X183763378Y-135291064D01*
X183663382Y-135121006D01*
X183501885Y-134847634D01*
X183354956Y-134601963D01*
X183230999Y-134397802D01*
X183138419Y-134248961D01*
X183085621Y-134169247D01*
X183079366Y-134161462D01*
X183053352Y-134174698D01*
X182997625Y-134242085D01*
X182909946Y-134367230D01*
X182788075Y-134553738D01*
X182629770Y-134805214D01*
X182432794Y-135125264D01*
X182194906Y-135517494D01*
X181913865Y-135985510D01*
X181587432Y-136532916D01*
X181213368Y-137163320D01*
X181188715Y-137204953D01*
X179352478Y-140306213D01*
X178978917Y-140306213D01*
X179002282Y-140265960D01*
X179153805Y-140007123D01*
X179338276Y-139693530D01*
X179551072Y-139332941D01*
X179787571Y-138933121D01*
X180043151Y-138501831D01*
X180313189Y-138046835D01*
X180593064Y-137575895D01*
X180878152Y-137096774D01*
X181163832Y-136617235D01*
X181445481Y-136145040D01*
X181718478Y-135687953D01*
X181978200Y-135253736D01*
X182220024Y-134850151D01*
X182439329Y-134484962D01*
X182631491Y-134165931D01*
X182791890Y-133900822D01*
X182915903Y-133697396D01*
X182998907Y-133563416D01*
X183036280Y-133506646D01*
X183037733Y-133505240D01*
X183067635Y-133545372D01*
G37*
D11*
%TO.C,X3*%
X121819060Y-122047487D02*
X124152513Y-124380940D01*
X124152513Y-124380940D02*
X126980940Y-121552513D01*
%TO.C,J1*%
X133170000Y-96040000D02*
X134500000Y-96040000D01*
X133170000Y-97370000D02*
X133170000Y-96040000D01*
X133170000Y-98640000D02*
X133170000Y-103780000D01*
X133170000Y-98640000D02*
X135830000Y-98640000D01*
X133170000Y-103780000D02*
X135830000Y-103780000D01*
X135830000Y-98640000D02*
X135830000Y-103780000D01*
%TO.C,C29*%
X160054585Y-107296530D02*
X160253396Y-107495341D01*
X160775834Y-106575281D02*
X160974645Y-106774092D01*
%TO.C,C182*%
X163050000Y-78811252D02*
X163050000Y-77388748D01*
X165770000Y-78811252D02*
X165770000Y-77388748D01*
%TO.C,C42*%
X141039970Y-119738781D02*
X141238781Y-119539970D01*
X141761219Y-120460030D02*
X141960030Y-120261219D01*
%TO.C,U3*%
X125410249Y-116256622D02*
X124837493Y-116164698D01*
X125318326Y-115683866D01*
X125410249Y-116256622D01*
G36*
X125410249Y-116256622D02*
G01*
X124837493Y-116164698D01*
X125318326Y-115683866D01*
X125410249Y-116256622D01*
G37*
X139626631Y-115150000D02*
X138954880Y-114478249D01*
X138954880Y-115821751D02*
X139626631Y-115150000D01*
X133071751Y-121704880D02*
X132400000Y-122376631D01*
X132400000Y-122376631D02*
X131728249Y-121704880D01*
X132400000Y-107923369D02*
X133071751Y-108595120D01*
X131728249Y-108595120D02*
X132400000Y-107923369D01*
X125845120Y-114478249D02*
X125173369Y-115150000D01*
X125173369Y-115150000D02*
X125845120Y-115821751D01*
%TO.C,C41*%
X140384990Y-124345543D02*
X140754457Y-124715010D01*
X139345543Y-125384990D02*
X139715010Y-125754457D01*
%TO.C,R45*%
X173962770Y-102201697D02*
X174298303Y-102537230D01*
X174701697Y-101462770D02*
X175037230Y-101798303D01*
%TO.C,R48*%
X202422936Y-122170000D02*
X206100000Y-122170000D01*
X202422936Y-125590000D02*
X206100000Y-125590000D01*
%TO.C,C22*%
X159080202Y-93719828D02*
X158881391Y-93521017D01*
X159801451Y-92998579D02*
X159602640Y-92799768D01*
%TO.C,C5*%
X138656462Y-81432985D02*
X138855273Y-81234174D01*
X137935213Y-80711736D02*
X138134024Y-80512925D01*
%TO.C,C26*%
X161155745Y-106195370D02*
X161354556Y-106394181D01*
X161876994Y-105474121D02*
X162075805Y-105672932D01*
%TO.C,R94*%
X152827500Y-130184758D02*
X152827500Y-129710242D01*
X153872500Y-130184758D02*
X153872500Y-129710242D01*
%TO.C,C198*%
X166440000Y-78811252D02*
X166440000Y-77388748D01*
X169160000Y-78811252D02*
X169160000Y-77388748D01*
%TO.C,C40*%
X141799203Y-122931329D02*
X142168670Y-123300796D01*
X140759756Y-123970776D02*
X141129223Y-124340243D01*
%TO.C,C9*%
X142474839Y-85251361D02*
X142673650Y-85052550D01*
X141753590Y-84530112D02*
X141952401Y-84331301D01*
%TO.C,U40*%
X183340000Y-81192673D02*
X183340000Y-83962673D01*
X183340000Y-85388673D02*
X183340000Y-86373673D01*
X184630000Y-81162673D02*
X187170000Y-81162673D01*
X188460000Y-81192673D02*
X188460000Y-83962673D01*
X188460000Y-85388673D02*
X188460000Y-86373673D01*
X183350000Y-87020423D02*
X183020000Y-87260423D01*
X183020000Y-86780423D01*
X183350000Y-87020423D01*
G36*
X183350000Y-87020423D02*
G01*
X183020000Y-87260423D01*
X183020000Y-86780423D01*
X183350000Y-87020423D01*
G37*
%TO.C,C15*%
X122732417Y-86609006D02*
X122931228Y-86410195D01*
X122011168Y-85887757D02*
X122209979Y-85688946D01*
%TO.C,R17*%
X98547258Y-80085000D02*
X98072742Y-80085000D01*
X98547258Y-79040000D02*
X98072742Y-79040000D01*
%TO.C,C24*%
X164693259Y-90982706D02*
X164323792Y-90613239D01*
X165732706Y-89943259D02*
X165363239Y-89573792D01*
%TO.C,C76*%
X209290000Y-86809420D02*
X209290000Y-87090580D01*
X210310000Y-86809420D02*
X210310000Y-87090580D01*
%TO.C,R54*%
X159897500Y-145117742D02*
X159897500Y-145592258D01*
X158852500Y-145117742D02*
X158852500Y-145592258D01*
%TO.C,C34*%
X122343276Y-111057777D02*
X121973809Y-110688310D01*
X121303829Y-112097224D02*
X120934362Y-111727757D01*
%TO.C,C83*%
X208940000Y-107359420D02*
X208940000Y-107640580D01*
X209960000Y-107359420D02*
X209960000Y-107640580D01*
%TO.C,C202*%
X166839970Y-92861219D02*
X167038781Y-93060030D01*
X167561219Y-92139970D02*
X167760030Y-92338781D01*
%TO.C,R33*%
X170262770Y-94701697D02*
X170598303Y-95037230D01*
X171001697Y-93962770D02*
X171337230Y-94298303D01*
%TO.C,C33*%
X120893707Y-112507346D02*
X120524240Y-112137879D01*
X119854260Y-113546793D02*
X119484793Y-113177326D01*
%TO.C,U6*%
X177196823Y-114422250D02*
X177196823Y-117192250D01*
X177196823Y-118618250D02*
X177196823Y-119603250D01*
X178486823Y-114392250D02*
X181026823Y-114392250D01*
X182316823Y-114422250D02*
X182316823Y-117192250D01*
X182316823Y-118618250D02*
X182316823Y-119603250D01*
X177206823Y-120250000D02*
X176876823Y-120490000D01*
X176876823Y-120010000D01*
X177206823Y-120250000D01*
G36*
X177206823Y-120250000D02*
G01*
X176876823Y-120490000D01*
X176876823Y-120010000D01*
X177206823Y-120250000D01*
G37*
%TO.C,X1*%
X147058951Y-86349554D02*
X144584077Y-83874680D01*
X144584077Y-83874680D02*
X141614229Y-86844528D01*
%TO.C,U41*%
X177196823Y-88672250D02*
X177196823Y-91442250D01*
X177196823Y-92868250D02*
X177196823Y-93853250D01*
X178486823Y-88642250D02*
X181026823Y-88642250D01*
X182316823Y-88672250D02*
X182316823Y-91442250D01*
X182316823Y-92868250D02*
X182316823Y-93853250D01*
X177206823Y-94500000D02*
X176876823Y-94740000D01*
X176876823Y-94260000D01*
X177206823Y-94500000D01*
G36*
X177206823Y-94500000D02*
G01*
X176876823Y-94740000D01*
X176876823Y-94260000D01*
X177206823Y-94500000D01*
G37*
%TO.C,D20*%
X171385000Y-61595000D02*
X171385000Y-60125000D01*
X171385000Y-60125000D02*
X169100000Y-60125000D01*
X169100000Y-61595000D02*
X171385000Y-61595000D01*
%TO.C,D6*%
X171335000Y-73885000D02*
X171335000Y-72415000D01*
X171335000Y-72415000D02*
X169050000Y-72415000D01*
X169050000Y-73885000D02*
X171335000Y-73885000D01*
%TO.C,FB1*%
X146648254Y-83556444D02*
X147213405Y-84121595D01*
X145856295Y-84348403D02*
X146421446Y-84913554D01*
%TO.C,C146*%
X151315000Y-129806920D02*
X151315000Y-130088080D01*
X152335000Y-129806920D02*
X152335000Y-130088080D01*
%TO.C,J4*%
X136870000Y-96040000D02*
X138200000Y-96040000D01*
X136870000Y-97370000D02*
X136870000Y-96040000D01*
X136870000Y-98640000D02*
X136870000Y-103780000D01*
X136870000Y-98640000D02*
X139530000Y-98640000D01*
X136870000Y-103780000D02*
X139530000Y-103780000D01*
X139530000Y-98640000D02*
X139530000Y-103780000D01*
%TO.C,J3*%
X140570000Y-96040000D02*
X141900000Y-96040000D01*
X140570000Y-97370000D02*
X140570000Y-96040000D01*
X140570000Y-98640000D02*
X140570000Y-103780000D01*
X140570000Y-98640000D02*
X143230000Y-98640000D01*
X140570000Y-103780000D02*
X143230000Y-103780000D01*
X143230000Y-98640000D02*
X143230000Y-103780000D01*
%TO.C,R36*%
X202422936Y-81090000D02*
X206100000Y-81090000D01*
X202422936Y-84510000D02*
X206100000Y-84510000D01*
%TO.C,C191*%
X169780000Y-112271252D02*
X169780000Y-110848748D01*
X172500000Y-112271252D02*
X172500000Y-110848748D01*
%TO.C,R81*%
X163402500Y-131384758D02*
X163402500Y-130910242D01*
X164447500Y-131384758D02*
X164447500Y-130910242D01*
%TO.C,U43*%
X183340000Y-76011327D02*
X183340000Y-75026327D01*
X183340000Y-80207327D02*
X183340000Y-77437327D01*
X187170000Y-80237327D02*
X184630000Y-80237327D01*
X188460000Y-76011327D02*
X188460000Y-75026327D01*
X188460000Y-80207327D02*
X188460000Y-77437327D01*
X188780000Y-74619577D02*
X188450000Y-74379577D01*
X188780000Y-74139577D01*
X188780000Y-74619577D01*
G36*
X188780000Y-74619577D02*
G01*
X188450000Y-74379577D01*
X188780000Y-74139577D01*
X188780000Y-74619577D01*
G37*
%TO.C,D18*%
X163190000Y-127447500D02*
X163190000Y-129447500D01*
X163190000Y-127447500D02*
X167200000Y-127447500D01*
X163190000Y-129447500D02*
X167200000Y-129447500D01*
%TO.C,C6*%
X124501005Y-82196660D02*
X124302194Y-81997849D01*
X123779756Y-82917909D02*
X123580945Y-82719098D01*
%TO.C,R112*%
X170137258Y-59832500D02*
X169662742Y-59832500D01*
X170137258Y-58787500D02*
X169662742Y-58787500D01*
%TO.C,C139*%
X131373262Y-78958111D02*
X131572073Y-78759300D01*
X130652013Y-78236862D02*
X130850824Y-78038051D01*
%TO.C,C44*%
X110295000Y-60051248D02*
X110295000Y-60573752D01*
X108825000Y-60051248D02*
X108825000Y-60573752D01*
%TO.C,C178*%
X166390000Y-112271252D02*
X166390000Y-110848748D01*
X169110000Y-112271252D02*
X169110000Y-110848748D01*
%TO.C,D32*%
X148875000Y-133912500D02*
X148875000Y-137922500D01*
X150875000Y-133912500D02*
X148875000Y-133912500D01*
X150875000Y-133912500D02*
X150875000Y-137922500D01*
%TO.C,U45*%
X102846823Y-60673827D02*
X102846823Y-59688827D01*
X102846823Y-64869827D02*
X102846823Y-62099827D01*
X106676823Y-64899827D02*
X104136823Y-64899827D01*
X107966823Y-60673827D02*
X107966823Y-59688827D01*
X107966823Y-64869827D02*
X107966823Y-62099827D01*
X108286823Y-59282077D02*
X107956823Y-59042077D01*
X108286823Y-58802077D01*
X108286823Y-59282077D01*
G36*
X108286823Y-59282077D02*
G01*
X107956823Y-59042077D01*
X108286823Y-58802077D01*
X108286823Y-59282077D01*
G37*
%TO.C,R32*%
X172162770Y-95798303D02*
X172498303Y-95462770D01*
X172901697Y-96537230D02*
X173237230Y-96201697D01*
%TO.C,J2*%
X129470000Y-96040000D02*
X130800000Y-96040000D01*
X129470000Y-97370000D02*
X129470000Y-96040000D01*
X129470000Y-98640000D02*
X129470000Y-103780000D01*
X129470000Y-98640000D02*
X132130000Y-98640000D01*
X129470000Y-103780000D02*
X132130000Y-103780000D01*
X132130000Y-98640000D02*
X132130000Y-103780000D01*
%TO.C,C3*%
X124306551Y-87721878D02*
X124107740Y-87920689D01*
X123585302Y-87000629D02*
X123386491Y-87199440D01*
%TO.C,J8*%
X132760000Y-147265000D02*
X132760000Y-153585000D01*
X131990000Y-153585000D02*
X132760000Y-153585000D01*
X131990000Y-153025000D02*
X132760000Y-153025000D01*
X129450000Y-153585000D02*
X130410000Y-153585000D01*
X129450000Y-153025000D02*
X130410000Y-153025000D01*
X127100000Y-153585000D02*
X127870000Y-153585000D01*
X127100000Y-153025000D02*
X127870000Y-153025000D01*
X127100000Y-147725000D02*
X132760000Y-147725000D01*
X127100000Y-147265000D02*
X132760000Y-147265000D01*
X127100000Y-147265000D02*
X127100000Y-153585000D01*
X126860000Y-153825000D02*
X127360000Y-153825000D01*
X126860000Y-153085000D02*
X126860000Y-153825000D01*
%TO.C,R20*%
X102887258Y-75377500D02*
X102412742Y-75377500D01*
X102887258Y-76422500D02*
X102412742Y-76422500D01*
%TO.C,U35*%
X183340000Y-109136750D02*
X183340000Y-108151750D01*
X183340000Y-113332750D02*
X183340000Y-110562750D01*
X187170000Y-113362750D02*
X184630000Y-113362750D01*
X188460000Y-109136750D02*
X188460000Y-108151750D01*
X188460000Y-113332750D02*
X188460000Y-110562750D01*
X188780000Y-107745000D02*
X188450000Y-107505000D01*
X188780000Y-107265000D01*
X188780000Y-107745000D01*
G36*
X188780000Y-107745000D02*
G01*
X188450000Y-107505000D01*
X188780000Y-107265000D01*
X188780000Y-107745000D01*
G37*
%TO.C,C84*%
X166490000Y-136531920D02*
X166490000Y-136813080D01*
X167510000Y-136531920D02*
X167510000Y-136813080D01*
%TO.C,C145*%
X151315000Y-124081920D02*
X151315000Y-124363080D01*
X152335000Y-124081920D02*
X152335000Y-124363080D01*
%TO.C,R83*%
X163377500Y-125669758D02*
X163377500Y-125195242D01*
X164422500Y-125669758D02*
X164422500Y-125195242D01*
%TO.C,R95*%
X154352500Y-130184758D02*
X154352500Y-129710242D01*
X155397500Y-130184758D02*
X155397500Y-129710242D01*
%TO.C,C50*%
X96690000Y-67409420D02*
X96690000Y-67690580D01*
X97710000Y-67409420D02*
X97710000Y-67690580D01*
%TO.C,C39*%
X134378789Y-106703986D02*
X134577600Y-106902797D01*
X135100038Y-105982737D02*
X135298849Y-106181548D01*
%TO.C,R6*%
X157104191Y-97958101D02*
X157439724Y-97622568D01*
X157843118Y-98697028D02*
X158178651Y-98361495D01*
%TO.C,C72*%
X170782370Y-99555856D02*
X170981181Y-99357045D01*
X171503619Y-100277105D02*
X171702430Y-100078294D01*
%TO.C,R11*%
X99521542Y-63457500D02*
X99047026Y-63457500D01*
X99521542Y-64502500D02*
X99047026Y-64502500D01*
%TO.C,R70*%
X171783509Y-100693716D02*
X172119042Y-100358183D01*
X172522436Y-101432643D02*
X172857969Y-101097110D01*
%TO.C,C37*%
X141448849Y-117753986D02*
X141250038Y-117952797D01*
X140727600Y-117032737D02*
X140528789Y-117231548D01*
%TO.C,U24*%
X159400000Y-128390000D02*
X157450000Y-128390000D01*
X159400000Y-128390000D02*
X161350000Y-128390000D01*
X159400000Y-133510000D02*
X157450000Y-133510000D01*
X159400000Y-133510000D02*
X161350000Y-133510000D01*
X162340000Y-133745000D02*
X161860000Y-133745000D01*
X162100000Y-133415000D01*
X162340000Y-133745000D01*
G36*
X162340000Y-133745000D02*
G01*
X161860000Y-133745000D01*
X162100000Y-133415000D01*
X162340000Y-133745000D01*
G37*
%TO.C,FB5*%
X122209301Y-84940091D02*
X121644150Y-85505242D01*
X121417342Y-84148132D02*
X120852191Y-84713283D01*
%TO.C,C181*%
X166390000Y-115548748D02*
X166390000Y-116971252D01*
X169110000Y-115548748D02*
X169110000Y-116971252D01*
%TO.C,C11*%
X139717122Y-82493645D02*
X139915933Y-82294834D01*
X138995873Y-81772396D02*
X139194684Y-81573585D01*
%TO.C,R85*%
X163377500Y-136909758D02*
X163377500Y-136435242D01*
X164422500Y-136909758D02*
X164422500Y-136435242D01*
%TO.C,J24*%
X92815000Y-75645000D02*
X92815000Y-78305000D01*
X97955000Y-75645000D02*
X92815000Y-75645000D01*
X97955000Y-75645000D02*
X97955000Y-78305000D01*
X97955000Y-78305000D02*
X92815000Y-78305000D01*
X99225000Y-75645000D02*
X100555000Y-75645000D01*
X100555000Y-75645000D02*
X100555000Y-76975000D01*
%TO.C,C121*%
X106870563Y-117865000D02*
X101115000Y-117865000D01*
X107935000Y-118929437D02*
X106870563Y-117865000D01*
X101115000Y-117865000D02*
X101115000Y-120215000D01*
X107935000Y-118929437D02*
X107935000Y-120215000D01*
X101115000Y-124685000D02*
X101115000Y-122335000D01*
X107935000Y-123620563D02*
X107935000Y-122335000D01*
X108568750Y-123516250D02*
X108568750Y-122728750D01*
X108962500Y-123122500D02*
X108175000Y-123122500D01*
X106870563Y-124685000D02*
X101115000Y-124685000D01*
X107935000Y-123620563D02*
X106870563Y-124685000D01*
%TO.C,C115*%
X106870563Y-110615000D02*
X101115000Y-110615000D01*
X107935000Y-111679437D02*
X106870563Y-110615000D01*
X101115000Y-110615000D02*
X101115000Y-112965000D01*
X107935000Y-111679437D02*
X107935000Y-112965000D01*
X101115000Y-117435000D02*
X101115000Y-115085000D01*
X107935000Y-116370563D02*
X107935000Y-115085000D01*
X108568750Y-116266250D02*
X108568750Y-115478750D01*
X108962500Y-115872500D02*
X108175000Y-115872500D01*
X106870563Y-117435000D02*
X101115000Y-117435000D01*
X107935000Y-116370563D02*
X106870563Y-117435000D01*
D12*
%TO.C,U10*%
X146620000Y-141300000D02*
G75*
G02*
X146220000Y-141300000I-200000J0D01*
G01*
X146220000Y-141300000D02*
G75*
G02*
X146620000Y-141300000I200000J0D01*
G01*
D13*
X147120000Y-145200000D02*
X143320000Y-145200000D01*
X143320000Y-145200000D02*
X143320000Y-140600000D01*
X147120000Y-140600000D02*
X147120000Y-145200000D01*
X143320000Y-140600000D02*
X147120000Y-140600000D01*
D11*
%TO.C,C113*%
X106870563Y-101665000D02*
X101115000Y-101665000D01*
X107935000Y-102729437D02*
X106870563Y-101665000D01*
X101115000Y-101665000D02*
X101115000Y-104015000D01*
X107935000Y-102729437D02*
X107935000Y-104015000D01*
X101115000Y-108485000D02*
X101115000Y-106135000D01*
X107935000Y-107420563D02*
X107935000Y-106135000D01*
X108568750Y-107316250D02*
X108568750Y-106528750D01*
X108962500Y-106922500D02*
X108175000Y-106922500D01*
X106870563Y-108485000D02*
X101115000Y-108485000D01*
X107935000Y-107420563D02*
X106870563Y-108485000D01*
%TD*%
M02*
