%TF.GenerationSoftware,KiCad,Pcbnew,8.0.4*%
%TF.CreationDate,2024-12-23T00:23:05-07:00*%
%TF.ProjectId,Motor Controller,4d6f746f-7220-4436-9f6e-74726f6c6c65,Mk. 1*%
%TF.SameCoordinates,Original*%
%TF.FileFunction,Soldermask,Top*%
%TF.FilePolarity,Negative*%
%FSLAX46Y46*%
G04 Gerber Fmt 4.6, Leading zero omitted, Abs format (unit mm)*
G04 Created by KiCad (PCBNEW 8.0.4) date 2024-12-23 00:23:05*
%MOMM*%
%LPD*%
G01*
G04 APERTURE LIST*
G04 Aperture macros list*
%AMRoundRect*
0 Rectangle with rounded corners*
0 $1 Rounding radius*
0 $2 $3 $4 $5 $6 $7 $8 $9 X,Y pos of 4 corners*
0 Add a 4 corners polygon primitive as box body*
4,1,4,$2,$3,$4,$5,$6,$7,$8,$9,$2,$3,0*
0 Add four circle primitives for the rounded corners*
1,1,$1+$1,$2,$3*
1,1,$1+$1,$4,$5*
1,1,$1+$1,$6,$7*
1,1,$1+$1,$8,$9*
0 Add four rect primitives between the rounded corners*
20,1,$1+$1,$2,$3,$4,$5,0*
20,1,$1+$1,$4,$5,$6,$7,0*
20,1,$1+$1,$6,$7,$8,$9,0*
20,1,$1+$1,$8,$9,$2,$3,0*%
%AMHorizOval*
0 Thick line with rounded ends*
0 $1 width*
0 $2 $3 position (X,Y) of the first rounded end (center of the circle)*
0 $4 $5 position (X,Y) of the second rounded end (center of the circle)*
0 Add line between two ends*
20,1,$1,$2,$3,$4,$5,0*
0 Add two circle primitives to create the rounded ends*
1,1,$1,$2,$3*
1,1,$1,$4,$5*%
%AMRotRect*
0 Rectangle, with rotation*
0 The origin of the aperture is its center*
0 $1 length*
0 $2 width*
0 $3 Rotation angle, in degrees counterclockwise*
0 Add horizontal line*
21,1,$1,$2,0,0,$3*%
%AMFreePoly0*
4,1,14,-0.697500,2.280000,2.027500,2.280000,2.502500,2.280000,2.502500,-2.280000,-0.697500,-2.280000,-0.697500,-2.775000,-1.602500,-2.775000,-1.602500,-2.280000,-2.027500,-2.280000,-2.027500,2.280000,-1.602500,2.280000,-1.602500,2.775000,-0.697500,2.775000,-0.697500,2.280000,-0.697500,2.280000,$1*%
%AMFreePoly1*
4,1,6,0.830000,0.000000,0.470000,-0.470000,-0.280000,-0.470000,-0.280000,0.460000,0.470000,0.460000,0.830000,0.000000,0.830000,0.000000,$1*%
%AMFreePoly2*
4,1,6,0.620000,-0.470000,-0.520000,-0.470000,-0.150000,0.000000,-0.520000,0.470000,0.620000,0.470000,0.620000,-0.470000,0.620000,-0.470000,$1*%
G04 Aperture macros list end*
%ADD10RoundRect,0.250000X0.650000X2.450000X-0.650000X2.450000X-0.650000X-2.450000X0.650000X-2.450000X0*%
%ADD11RoundRect,0.200000X0.275000X-0.200000X0.275000X0.200000X-0.275000X0.200000X-0.275000X-0.200000X0*%
%ADD12RoundRect,0.200000X0.200000X0.275000X-0.200000X0.275000X-0.200000X-0.275000X0.200000X-0.275000X0*%
%ADD13RoundRect,0.187500X-0.187500X0.312500X-0.187500X-0.312500X0.187500X-0.312500X0.187500X0.312500X0*%
%ADD14FreePoly0,270.000000*%
%ADD15RoundRect,0.225000X-0.250000X0.225000X-0.250000X-0.225000X0.250000X-0.225000X0.250000X0.225000X0*%
%ADD16RoundRect,0.225000X0.017678X-0.335876X0.335876X-0.017678X-0.017678X0.335876X-0.335876X0.017678X0*%
%ADD17R,1.700000X1.700000*%
%ADD18O,1.700000X1.700000*%
%ADD19RoundRect,0.225000X-0.225000X-0.250000X0.225000X-0.250000X0.225000X0.250000X-0.225000X0.250000X0*%
%ADD20R,1.000000X1.000000*%
%ADD21O,1.000000X1.000000*%
%ADD22FreePoly1,90.000000*%
%ADD23FreePoly2,90.000000*%
%ADD24C,2.000000*%
%ADD25RoundRect,0.200000X-0.335876X-0.053033X-0.053033X-0.335876X0.335876X0.053033X0.053033X0.335876X0*%
%ADD26RoundRect,0.225000X0.250000X-0.225000X0.250000X0.225000X-0.250000X0.225000X-0.250000X-0.225000X0*%
%ADD27RoundRect,0.187500X0.187500X-0.312500X0.187500X0.312500X-0.187500X0.312500X-0.187500X-0.312500X0*%
%ADD28FreePoly0,90.000000*%
%ADD29RoundRect,0.250000X-1.100000X0.325000X-1.100000X-0.325000X1.100000X-0.325000X1.100000X0.325000X0*%
%ADD30R,2.200000X2.200000*%
%ADD31C,2.200000*%
%ADD32RoundRect,0.200000X-0.275000X0.200000X-0.275000X-0.200000X0.275000X-0.200000X0.275000X0.200000X0*%
%ADD33RoundRect,0.218750X-0.218750X-0.256250X0.218750X-0.256250X0.218750X0.256250X-0.218750X0.256250X0*%
%ADD34C,3.104000*%
%ADD35FreePoly1,180.000000*%
%ADD36FreePoly2,180.000000*%
%ADD37RoundRect,0.200000X0.053033X-0.335876X0.335876X-0.053033X-0.053033X0.335876X-0.335876X0.053033X0*%
%ADD38RoundRect,0.200000X-0.200000X-0.275000X0.200000X-0.275000X0.200000X0.275000X-0.200000X0.275000X0*%
%ADD39RoundRect,0.102000X-0.754000X0.754000X-0.754000X-0.754000X0.754000X-0.754000X0.754000X0.754000X0*%
%ADD40C,1.712000*%
%ADD41RoundRect,0.250000X0.550000X-1.500000X0.550000X1.500000X-0.550000X1.500000X-0.550000X-1.500000X0*%
%ADD42C,1.100000*%
%ADD43RoundRect,0.225000X0.225000X0.250000X-0.225000X0.250000X-0.225000X-0.250000X0.225000X-0.250000X0*%
%ADD44RoundRect,0.218750X0.218750X0.381250X-0.218750X0.381250X-0.218750X-0.381250X0.218750X-0.381250X0*%
%ADD45RoundRect,0.250000X1.007627X0.548008X0.548008X1.007627X-1.007627X-0.548008X-0.548008X-1.007627X0*%
%ADD46RoundRect,0.250000X0.250000X0.475000X-0.250000X0.475000X-0.250000X-0.475000X0.250000X-0.475000X0*%
%ADD47RoundRect,0.150000X0.150000X-0.825000X0.150000X0.825000X-0.150000X0.825000X-0.150000X-0.825000X0*%
%ADD48R,2.960000X2.960000*%
%ADD49RoundRect,0.100000X0.687500X0.100000X-0.687500X0.100000X-0.687500X-0.100000X0.687500X-0.100000X0*%
%ADD50RoundRect,0.250000X0.689429X0.229810X0.229810X0.689429X-0.689429X-0.229810X-0.229810X-0.689429X0*%
%ADD51RoundRect,0.150000X-0.512500X-0.150000X0.512500X-0.150000X0.512500X0.150000X-0.512500X0.150000X0*%
%ADD52RoundRect,0.150000X-0.150000X0.587500X-0.150000X-0.587500X0.150000X-0.587500X0.150000X0.587500X0*%
%ADD53R,0.500000X0.500000*%
%ADD54RoundRect,0.250000X-0.229810X0.689429X-0.689429X0.229810X0.229810X-0.689429X0.689429X-0.229810X0*%
%ADD55FreePoly1,270.000000*%
%ADD56FreePoly2,270.000000*%
%ADD57C,0.800000*%
%ADD58C,7.000000*%
%ADD59C,2.400000*%
%ADD60O,2.400000X2.400000*%
%ADD61RoundRect,0.250000X1.100000X-0.325000X1.100000X0.325000X-1.100000X0.325000X-1.100000X-0.325000X0*%
%ADD62RoundRect,0.225000X0.335876X0.017678X0.017678X0.335876X-0.335876X-0.017678X-0.017678X-0.335876X0*%
%ADD63FreePoly1,0.000000*%
%ADD64FreePoly2,0.000000*%
%ADD65RoundRect,0.200000X0.335876X0.053033X0.053033X0.335876X-0.335876X-0.053033X-0.053033X-0.335876X0*%
%ADD66C,4.500000*%
%ADD67O,1.500000X2.000000*%
%ADD68C,6.000000*%
%ADD69RoundRect,0.250000X0.671751X1.449569X-1.449569X-0.671751X-0.671751X-1.449569X1.449569X0.671751X0*%
%ADD70RoundRect,0.102000X0.450000X-0.550000X0.450000X0.550000X-0.450000X0.550000X-0.450000X-0.550000X0*%
%ADD71RoundRect,0.225000X-0.017678X0.335876X-0.335876X0.017678X0.017678X-0.335876X0.335876X-0.017678X0*%
%ADD72C,0.650000*%
%ADD73RoundRect,0.150000X-0.425000X0.150000X-0.425000X-0.150000X0.425000X-0.150000X0.425000X0.150000X0*%
%ADD74RoundRect,0.075000X-0.500000X0.075000X-0.500000X-0.075000X0.500000X-0.075000X0.500000X0.075000X0*%
%ADD75O,2.100000X1.000000*%
%ADD76O,1.800000X1.000000*%
%ADD77RoundRect,0.250000X-0.548008X1.007627X-1.007627X0.548008X0.548008X-1.007627X1.007627X-0.548008X0*%
%ADD78R,0.204000X0.750000*%
%ADD79R,0.750000X0.204000*%
%ADD80R,5.003800X8.991600*%
%ADD81RoundRect,0.250000X-0.550000X1.500000X-0.550000X-1.500000X0.550000X-1.500000X0.550000X1.500000X0*%
%ADD82RoundRect,0.218750X0.256250X-0.218750X0.256250X0.218750X-0.256250X0.218750X-0.256250X-0.218750X0*%
%ADD83RoundRect,0.200000X-0.053033X0.335876X-0.335876X0.053033X0.053033X-0.335876X0.335876X-0.053033X0*%
%ADD84RoundRect,0.357142X-0.642858X-1.392858X0.642858X-1.392858X0.642858X1.392858X-0.642858X1.392858X0*%
%ADD85RotRect,0.254000X0.762000X315.000000*%
%ADD86RotRect,0.254000X0.762000X225.000000*%
%ADD87RotRect,4.089400X4.089400X225.000000*%
%ADD88R,1.200000X1.400000*%
%ADD89RoundRect,0.225000X-0.335876X-0.017678X-0.017678X-0.335876X0.335876X0.017678X0.017678X0.335876X0*%
%ADD90RoundRect,0.075000X0.075000X-0.700000X0.075000X0.700000X-0.075000X0.700000X-0.075000X-0.700000X0*%
%ADD91RoundRect,0.075000X0.700000X-0.075000X0.700000X0.075000X-0.700000X0.075000X-0.700000X-0.075000X0*%
%ADD92RoundRect,0.250000X-0.250000X-0.475000X0.250000X-0.475000X0.250000X0.475000X-0.250000X0.475000X0*%
%ADD93RotRect,1.000000X1.000000X45.000000*%
%ADD94HorizOval,1.000000X0.000000X0.000000X0.000000X0.000000X0*%
%ADD95RoundRect,0.102000X-0.450000X0.550000X-0.450000X-0.550000X0.450000X-0.550000X0.450000X0.550000X0*%
%ADD96RoundRect,0.250000X1.075000X-0.312500X1.075000X0.312500X-1.075000X0.312500X-1.075000X-0.312500X0*%
%ADD97R,2.030000X1.730000*%
%ADD98O,2.030000X1.730000*%
%ADD99RoundRect,0.250000X0.475000X-0.250000X0.475000X0.250000X-0.475000X0.250000X-0.475000X-0.250000X0*%
%ADD100RoundRect,0.218750X-0.218750X-0.381250X0.218750X-0.381250X0.218750X0.381250X-0.218750X0.381250X0*%
%ADD101R,1.400000X1.200000*%
%ADD102RoundRect,0.218750X0.218750X0.256250X-0.218750X0.256250X-0.218750X-0.256250X0.218750X-0.256250X0*%
%ADD103RoundRect,0.150000X0.150000X-0.587500X0.150000X0.587500X-0.150000X0.587500X-0.150000X-0.587500X0*%
%ADD104RoundRect,0.150000X0.150000X-0.512500X0.150000X0.512500X-0.150000X0.512500X-0.150000X-0.512500X0*%
%ADD105FreePoly1,225.000000*%
%ADD106FreePoly2,225.000000*%
%ADD107RoundRect,0.225000X0.375000X-0.225000X0.375000X0.225000X-0.375000X0.225000X-0.375000X-0.225000X0*%
G04 APERTURE END LIST*
D10*
%TO.C,C45*%
X183110000Y-65300000D03*
X178010000Y-65300000D03*
%TD*%
D11*
%TO.C,R55*%
X208950000Y-146250000D03*
X208950000Y-144600000D03*
%TD*%
D12*
%TO.C,R64*%
X111088750Y-134175000D03*
X109438750Y-134175000D03*
%TD*%
D13*
%TO.C,U38*%
X185341823Y-99582327D03*
X184071823Y-99582327D03*
X182801823Y-99582327D03*
X181531823Y-99582327D03*
D14*
X183436823Y-103074577D03*
%TD*%
D15*
%TO.C,C151*%
X136950000Y-122725000D03*
X136950000Y-124275000D03*
%TD*%
D16*
%TO.C,C79*%
X172209524Y-102429951D03*
X173305540Y-101333935D03*
%TD*%
D17*
%TO.C,J30*%
X108590000Y-124110000D03*
D18*
X106050000Y-124110000D03*
X108590000Y-121570000D03*
X106050000Y-121570000D03*
X108590000Y-119030000D03*
X106050000Y-119030000D03*
X108590000Y-116490000D03*
X106050000Y-116490000D03*
X108590000Y-113950000D03*
X106050000Y-113950000D03*
%TD*%
D19*
%TO.C,C43*%
X144725000Y-114100000D03*
X146275000Y-114100000D03*
%TD*%
D20*
%TO.C,J6*%
X144575000Y-95450000D03*
D21*
X145845000Y-95450000D03*
X147115000Y-95450000D03*
%TD*%
D22*
%TO.C,JP23*%
X115220000Y-120830000D03*
D23*
X115220000Y-119510000D03*
%TD*%
D24*
%TO.C,C91*%
X197100000Y-95700000D03*
X204600000Y-95700000D03*
%TD*%
D25*
%TO.C,R44*%
X173069942Y-105866733D03*
X174236668Y-107033459D03*
%TD*%
D26*
%TO.C,C136*%
X131342982Y-127810356D03*
X131342982Y-126260356D03*
%TD*%
D27*
%TO.C,U17*%
X187675000Y-120147250D03*
X188945000Y-120147250D03*
X190215000Y-120147250D03*
X191485000Y-120147250D03*
D28*
X189580000Y-116655000D03*
%TD*%
D29*
%TO.C,C173*%
X168140000Y-114685000D03*
X168140000Y-117635000D03*
%TD*%
D17*
%TO.C,J22*%
X113250000Y-96200000D03*
%TD*%
D30*
%TO.C,J7*%
X191475000Y-150525000D03*
D31*
X188935000Y-150525000D03*
X186395000Y-150525000D03*
X183855000Y-150525000D03*
%TD*%
D12*
%TO.C,R61*%
X111025000Y-143750000D03*
X109375000Y-143750000D03*
%TD*%
D32*
%TO.C,R13*%
X194200000Y-136675000D03*
X194200000Y-138325000D03*
%TD*%
D27*
%TO.C,U42*%
X187675000Y-94397250D03*
X188945000Y-94397250D03*
X190215000Y-94397250D03*
X191485000Y-94397250D03*
D28*
X189580000Y-90905000D03*
%TD*%
D33*
%TO.C,D1*%
X106386250Y-129450000D03*
X107961250Y-129450000D03*
%TD*%
D34*
%TO.C,J19*%
X191280000Y-69110000D03*
X191280000Y-62100000D03*
X186280000Y-69110000D03*
X186280000Y-62100000D03*
%TD*%
D35*
%TO.C,JP19*%
X117380000Y-83570000D03*
D36*
X116060000Y-83570000D03*
%TD*%
D34*
%TO.C,J16*%
X222180000Y-100800000D03*
X215170000Y-100800000D03*
X222180000Y-105800000D03*
X215170000Y-105800000D03*
%TD*%
D37*
%TO.C,R86*%
X173252508Y-103543645D03*
X174419234Y-102376919D03*
%TD*%
D38*
%TO.C,R1*%
X109448750Y-129450000D03*
X111098750Y-129450000D03*
%TD*%
D39*
%TO.C,PS1*%
X176750000Y-136925000D03*
D40*
X176750000Y-139465000D03*
X176750000Y-142005000D03*
X176750000Y-144545000D03*
%TD*%
D11*
%TO.C,R76*%
X149900000Y-60825000D03*
X149900000Y-59175000D03*
%TD*%
D32*
%TO.C,R50*%
X204350000Y-144605000D03*
X204350000Y-146255000D03*
%TD*%
%TO.C,R16*%
X146771823Y-59617327D03*
X146771823Y-61267327D03*
%TD*%
D41*
%TO.C,C121*%
X120350000Y-135400000D03*
X120350000Y-129800000D03*
%TD*%
D12*
%TO.C,R89*%
X111088750Y-137350000D03*
X109438750Y-137350000D03*
%TD*%
D32*
%TO.C,R56*%
X210550000Y-144600000D03*
X210550000Y-146250000D03*
%TD*%
D42*
%TO.C,J18*%
X170550000Y-55360000D03*
X168010000Y-55360000D03*
D30*
X170550000Y-57900000D03*
D31*
X168010000Y-57900000D03*
%TD*%
D19*
%TO.C,C153*%
X144025000Y-80400000D03*
X145575000Y-80400000D03*
%TD*%
%TO.C,C47*%
X177605000Y-71200000D03*
X179155000Y-71200000D03*
%TD*%
D29*
%TO.C,C196*%
X178240000Y-81325000D03*
X178240000Y-84275000D03*
%TD*%
D43*
%TO.C,C10*%
X120994999Y-86240000D03*
X119444999Y-86240000D03*
%TD*%
D13*
%TO.C,U36*%
X185341823Y-107407750D03*
X184071823Y-107407750D03*
X182801823Y-107407750D03*
X181531823Y-107407750D03*
D14*
X183436823Y-110900000D03*
%TD*%
D35*
%TO.C,JP15*%
X154180000Y-58530000D03*
D36*
X152860000Y-58530000D03*
%TD*%
D22*
%TO.C,JP14*%
X174120000Y-71087500D03*
D23*
X174120000Y-69767500D03*
%TD*%
D44*
%TO.C,FB2*%
X143262501Y-114099999D03*
X141137501Y-114099999D03*
%TD*%
D45*
%TO.C,C32*%
X162442983Y-110792983D03*
X160357017Y-108707017D03*
%TD*%
D46*
%TO.C,C46*%
X182530000Y-69300000D03*
X180630000Y-69300000D03*
%TD*%
D47*
%TO.C,U4*%
X138595000Y-127825000D03*
X139865000Y-127825000D03*
X141135000Y-127825000D03*
X142405000Y-127825000D03*
X142405000Y-122875000D03*
X141135000Y-122875000D03*
X139865000Y-122875000D03*
X138595000Y-122875000D03*
%TD*%
D48*
%TO.C,U21*%
X155421107Y-64372327D03*
D49*
X158283607Y-67297327D03*
X158283607Y-66647327D03*
X158283607Y-65997327D03*
X158283607Y-65347327D03*
X158283607Y-64697327D03*
X158283607Y-64047327D03*
X158283607Y-63397327D03*
X158283607Y-62747327D03*
X158283607Y-62097327D03*
X158283607Y-61447327D03*
X152558607Y-61447327D03*
X152558607Y-62097327D03*
X152558607Y-62747327D03*
X152558607Y-63397327D03*
X152558607Y-64047327D03*
X152558607Y-64697327D03*
X152558607Y-65347327D03*
X152558607Y-65997327D03*
X152558607Y-66647327D03*
X152558607Y-67297327D03*
%TD*%
D12*
%TO.C,R5*%
X111037500Y-140000000D03*
X109387500Y-140000000D03*
%TD*%
D17*
%TO.C,J29*%
X142600000Y-56650000D03*
%TD*%
D15*
%TO.C,C36*%
X134992982Y-122710356D03*
X134992982Y-124260356D03*
%TD*%
D50*
%TO.C,C28*%
X172992983Y-91442983D03*
X170907017Y-89357017D03*
%TD*%
D19*
%TO.C,C13*%
X134000001Y-84640001D03*
X135550001Y-84640001D03*
%TD*%
D29*
%TO.C,C190*%
X174860000Y-81325000D03*
X174860000Y-84275000D03*
%TD*%
D26*
%TO.C,C97*%
X210550000Y-143175000D03*
X210550000Y-141625000D03*
%TD*%
D11*
%TO.C,R59*%
X186900000Y-138325000D03*
X186900000Y-136675000D03*
%TD*%
D44*
%TO.C,FB7*%
X126344859Y-126382262D03*
X124219859Y-126382262D03*
%TD*%
D51*
%TO.C,U5*%
X176942500Y-72750000D03*
X176942500Y-73700000D03*
X176942500Y-74650000D03*
X179217500Y-74650000D03*
X179217500Y-73700000D03*
X179217500Y-72750000D03*
%TD*%
D43*
%TO.C,C137*%
X126307360Y-128067262D03*
X124757360Y-128067262D03*
%TD*%
D52*
%TO.C,Q21*%
X165161823Y-58569827D03*
X163261823Y-58569827D03*
X164211823Y-60444827D03*
%TD*%
D11*
%TO.C,R52*%
X205850000Y-146255000D03*
X205850000Y-144605000D03*
%TD*%
D19*
%TO.C,C14*%
X134175000Y-97490000D03*
X135725000Y-97490000D03*
%TD*%
D53*
%TO.C,TP4*%
X133850000Y-82000000D03*
%TD*%
D54*
%TO.C,C27*%
X161335966Y-104857017D03*
X159250000Y-106942983D03*
%TD*%
D55*
%TO.C,JP16*%
X172580000Y-69420000D03*
D56*
X172580000Y-70740000D03*
%TD*%
D25*
%TO.C,R39*%
X172796637Y-94916637D03*
X173963363Y-96083363D03*
%TD*%
D46*
%TO.C,C7*%
X120949998Y-87990001D03*
X119050000Y-87990001D03*
%TD*%
D12*
%TO.C,R10*%
X163261823Y-63032327D03*
X161611823Y-63032327D03*
%TD*%
%TO.C,R63*%
X111088750Y-135762500D03*
X109438750Y-135762500D03*
%TD*%
D43*
%TO.C,C38*%
X124525000Y-122950000D03*
X122975000Y-122950000D03*
%TD*%
D57*
%TO.C,H9*%
X106275000Y-149150000D03*
X107043845Y-147293845D03*
X107043845Y-151006155D03*
X108900000Y-146525000D03*
D58*
X108900000Y-149150000D03*
D57*
X108900000Y-151775000D03*
X110756155Y-147293845D03*
X110756155Y-151006155D03*
X111525000Y-149150000D03*
%TD*%
D59*
%TO.C,R102*%
X210860000Y-75050000D03*
D60*
X203240000Y-75050000D03*
%TD*%
D61*
%TO.C,C174*%
X178150000Y-112935000D03*
X178150000Y-109985000D03*
%TD*%
D17*
%TO.C,J25*%
X146250000Y-56650000D03*
%TD*%
D62*
%TO.C,C23*%
X163669429Y-104207806D03*
X162573413Y-103111790D03*
%TD*%
D61*
%TO.C,C177*%
X168130000Y-112935000D03*
X168130000Y-109985000D03*
%TD*%
D17*
%TO.C,J24*%
X113900000Y-65100000D03*
D18*
X116440000Y-65100000D03*
X113900000Y-67640000D03*
X116440000Y-67640000D03*
X113900000Y-70180000D03*
X116440000Y-70180000D03*
X113900000Y-72720000D03*
X116440000Y-72720000D03*
%TD*%
D26*
%TO.C,C95*%
X207400000Y-143175000D03*
X207400000Y-141625000D03*
%TD*%
D62*
%TO.C,C31*%
X160248008Y-111948008D03*
X159151992Y-110851992D03*
%TD*%
D15*
%TO.C,C18*%
X200390000Y-129207500D03*
X200390000Y-130757500D03*
%TD*%
D61*
%TO.C,C195*%
X178240000Y-79475000D03*
X178240000Y-76525000D03*
%TD*%
D38*
%TO.C,R18*%
X152496107Y-60072327D03*
X154146107Y-60072327D03*
%TD*%
D15*
%TO.C,C8*%
X125800000Y-95565000D03*
X125800000Y-97115000D03*
%TD*%
D20*
%TO.C,J5*%
X144575000Y-92250000D03*
D21*
X145845000Y-92250000D03*
X147115000Y-92250000D03*
%TD*%
D32*
%TO.C,R99*%
X149600000Y-77000000D03*
X149600000Y-78650000D03*
%TD*%
D13*
%TO.C,U44*%
X185341823Y-74282327D03*
X184071823Y-74282327D03*
X182801823Y-74282327D03*
X181531823Y-74282327D03*
D14*
X183436823Y-77774577D03*
%TD*%
D19*
%TO.C,C135*%
X141150000Y-119150000D03*
X142700000Y-119150000D03*
%TD*%
D29*
%TO.C,C180*%
X174831250Y-114688849D03*
X174831250Y-117638849D03*
%TD*%
D63*
%TO.C,JP3*%
X138245000Y-89260000D03*
D64*
X139565000Y-89260000D03*
%TD*%
D30*
%TO.C,J10*%
X202235000Y-150525000D03*
D31*
X204775000Y-150525000D03*
X207315000Y-150525000D03*
X209855000Y-150525000D03*
X212395000Y-150525000D03*
%TD*%
D27*
%TO.C,U34*%
X187675000Y-127292250D03*
X188945000Y-127292250D03*
X190215000Y-127292250D03*
X191485000Y-127292250D03*
D28*
X189580000Y-123800000D03*
%TD*%
D63*
%TO.C,JP8*%
X138245000Y-93270000D03*
D64*
X139565000Y-93270000D03*
%TD*%
D65*
%TO.C,R7*%
X163676817Y-108619835D03*
X162510091Y-107453109D03*
%TD*%
D66*
%TO.C,J28*%
X121295000Y-144355000D03*
X154595000Y-144355000D03*
D67*
X136545000Y-143715000D03*
X139315000Y-143660000D03*
X135160000Y-146555000D03*
X137930000Y-146555000D03*
X140700000Y-146555000D03*
D68*
X131058000Y-143755000D03*
X144778000Y-143755000D03*
%TD*%
D22*
%TO.C,JP10*%
X123820000Y-77030000D03*
D23*
X123820000Y-75710000D03*
%TD*%
D57*
%TO.C,H7*%
X106275000Y-59150000D03*
X107043845Y-57293845D03*
X107043845Y-61006155D03*
X108900000Y-56525000D03*
D58*
X108900000Y-59150000D03*
D57*
X108900000Y-61775000D03*
X110756155Y-57293845D03*
X110756155Y-61006155D03*
X111525000Y-59150000D03*
%TD*%
D55*
%TO.C,JP25*%
X117680000Y-123470000D03*
D56*
X117680000Y-124790000D03*
%TD*%
D69*
%TO.C,C30*%
X158279899Y-113970101D03*
X154320101Y-117929899D03*
%TD*%
D70*
%TO.C,U46*%
X186880000Y-146100000D03*
X189420000Y-146100000D03*
X189420000Y-139800000D03*
X186880000Y-139800000D03*
%TD*%
D29*
%TO.C,C176*%
X168080000Y-81325000D03*
X168080000Y-84275000D03*
%TD*%
D12*
%TO.C,R19*%
X174355000Y-74650000D03*
X172705000Y-74650000D03*
%TD*%
D35*
%TO.C,JP17*%
X115530000Y-112280000D03*
D36*
X114210000Y-112280000D03*
%TD*%
D25*
%TO.C,R38*%
X174969942Y-103966733D03*
X176136668Y-105133459D03*
%TD*%
D71*
%TO.C,C25*%
X161398008Y-101951992D03*
X160301992Y-103048008D03*
%TD*%
D34*
%TO.C,J31*%
X211530000Y-69110000D03*
X211530000Y-62100000D03*
X206530000Y-69110000D03*
X206530000Y-62100000D03*
%TD*%
D72*
%TO.C,J11*%
X110200000Y-103557500D03*
X110200000Y-109337500D03*
D73*
X111275000Y-103247500D03*
X111275000Y-104047500D03*
D74*
X111275000Y-105197500D03*
X111275000Y-106197500D03*
X111275000Y-106697500D03*
X111275000Y-107697500D03*
D73*
X111275000Y-108847500D03*
X111275000Y-109647500D03*
X111275000Y-109647500D03*
X111275000Y-108847500D03*
D74*
X111275000Y-108197500D03*
X111275000Y-107197500D03*
X111275000Y-105697500D03*
X111275000Y-104697500D03*
D73*
X111275000Y-104047500D03*
X111275000Y-103247500D03*
D75*
X110700000Y-102127500D03*
D76*
X106520000Y-102127500D03*
D75*
X110700000Y-110767500D03*
D76*
X106520000Y-110767500D03*
%TD*%
D13*
%TO.C,U37*%
X191485000Y-99582327D03*
X190215000Y-99582327D03*
X188945000Y-99582327D03*
X187675000Y-99582327D03*
D14*
X189580000Y-103074577D03*
%TD*%
D26*
%TO.C,C35*%
X122019160Y-121314366D03*
X122019160Y-119764366D03*
%TD*%
D71*
%TO.C,C86*%
X171140671Y-103498804D03*
X170044655Y-104594820D03*
%TD*%
D44*
%TO.C,FB6*%
X143262500Y-115900000D03*
X141137500Y-115900000D03*
%TD*%
D51*
%TO.C,U9*%
X113837500Y-105585000D03*
X113837500Y-106535000D03*
X113837500Y-107485000D03*
X116112500Y-107485000D03*
X116112500Y-106535000D03*
X116112500Y-105585000D03*
%TD*%
D77*
%TO.C,C201*%
X159661266Y-100369348D03*
X157575300Y-102455314D03*
%TD*%
D24*
%TO.C,SW3*%
X105700000Y-71450000D03*
X105700000Y-64950000D03*
X110200000Y-71450000D03*
X110200000Y-64950000D03*
%TD*%
D78*
%TO.C,U1*%
X129500000Y-82469899D03*
X129100001Y-82469899D03*
X128699999Y-82469899D03*
X128300000Y-82469899D03*
X127900001Y-82469899D03*
X127499999Y-82469899D03*
X127100000Y-82469899D03*
X126700000Y-82469899D03*
X126300001Y-82469899D03*
X125899999Y-82469899D03*
X125500000Y-82469899D03*
X125100001Y-82469899D03*
X124699999Y-82469899D03*
X124300000Y-82469899D03*
D79*
X123723801Y-83040002D03*
X123723801Y-83440001D03*
X123723801Y-83840000D03*
X123723801Y-84239999D03*
X123723801Y-84640001D03*
X123723801Y-85040000D03*
X123723801Y-85439999D03*
X123723801Y-85840001D03*
X123723801Y-86240000D03*
X123723801Y-86639999D03*
X123723801Y-87040001D03*
X123723801Y-87440000D03*
X123723801Y-87840000D03*
X123723801Y-88239999D03*
X123723801Y-88640001D03*
X123723801Y-89040000D03*
X123723801Y-89439999D03*
X123723801Y-89840001D03*
X123723801Y-90240000D03*
X123723801Y-90639999D03*
X123723801Y-91040001D03*
X123723801Y-91440000D03*
X123723801Y-91839999D03*
X123723801Y-92239998D03*
D78*
X124300000Y-92810101D03*
X124699999Y-92810101D03*
X125100001Y-92810101D03*
X125500000Y-92810101D03*
X125899999Y-92810101D03*
X126300001Y-92810101D03*
X126700000Y-92810101D03*
X127100000Y-92810101D03*
X127499999Y-92810101D03*
X127900001Y-92810101D03*
X128300000Y-92810101D03*
X128699999Y-92810101D03*
X129100001Y-92810101D03*
X129500000Y-92810101D03*
D79*
X130076199Y-92239998D03*
X130076199Y-91839999D03*
X130076199Y-91440000D03*
X130076199Y-91040001D03*
X130076199Y-90639999D03*
X130076199Y-90240000D03*
X130076199Y-89840001D03*
X130076199Y-89439999D03*
X130076199Y-89040000D03*
X130076199Y-88640001D03*
X130076199Y-88239999D03*
X130076199Y-87840000D03*
X130076199Y-87440000D03*
X130076199Y-87040001D03*
X130076199Y-86639999D03*
X130076199Y-86240000D03*
X130076199Y-85840001D03*
X130076199Y-85439999D03*
X130076199Y-85040000D03*
X130076199Y-84640001D03*
X130076199Y-84239999D03*
X130076199Y-83840000D03*
X130076199Y-83440001D03*
X130076199Y-83040002D03*
D80*
X126900000Y-87640000D03*
%TD*%
D24*
%TO.C,SW4*%
X105700000Y-81300000D03*
X105700000Y-74800000D03*
X110200000Y-81300000D03*
X110200000Y-74800000D03*
%TD*%
D81*
%TO.C,C115*%
X170250000Y-140450000D03*
X170250000Y-146050000D03*
%TD*%
D82*
%TO.C,FB13*%
X157550000Y-133337500D03*
X157550000Y-131762500D03*
%TD*%
D55*
%TO.C,JP18*%
X145180000Y-59620000D03*
D56*
X145180000Y-60940000D03*
%TD*%
D83*
%TO.C,R87*%
X172254365Y-104541787D03*
X171087639Y-105708513D03*
%TD*%
D55*
%TO.C,JP32*%
X131380000Y-129620000D03*
D56*
X131380000Y-130940000D03*
%TD*%
D15*
%TO.C,C20*%
X135950000Y-93965000D03*
X135950000Y-95515000D03*
%TD*%
D27*
%TO.C,U22*%
X181531823Y-127292250D03*
X182801823Y-127292250D03*
X184071823Y-127292250D03*
X185341823Y-127292250D03*
D28*
X183436823Y-123800000D03*
%TD*%
D24*
%TO.C,SW2*%
X110225000Y-84550000D03*
X110225000Y-91050000D03*
X105725000Y-84550000D03*
X105725000Y-91050000D03*
%TD*%
D55*
%TO.C,JP36*%
X130580000Y-104320000D03*
D56*
X130580000Y-105640000D03*
%TD*%
D34*
%TO.C,J17*%
X222135000Y-121375000D03*
X215125000Y-121375000D03*
X222135000Y-126375000D03*
X215125000Y-126375000D03*
%TD*%
D19*
%TO.C,C134*%
X141150000Y-117600000D03*
X142700000Y-117600000D03*
%TD*%
D11*
%TO.C,R12*%
X160161823Y-60107327D03*
X160161823Y-58457327D03*
%TD*%
D12*
%TO.C,R21*%
X147625000Y-64300000D03*
X145975000Y-64300000D03*
%TD*%
D29*
%TO.C,C175*%
X171470000Y-81325000D03*
X171470000Y-84275000D03*
%TD*%
%TO.C,C179*%
X178164584Y-114688849D03*
X178164584Y-117638849D03*
%TD*%
D84*
%TO.C,R42*%
X205230000Y-103325336D03*
X210630000Y-103325336D03*
%TD*%
D55*
%TO.C,JP6*%
X116090000Y-94870000D03*
D56*
X116090000Y-96190000D03*
%TD*%
D27*
%TO.C,U39*%
X181531823Y-86917673D03*
X182801823Y-86917673D03*
X184071823Y-86917673D03*
X185341823Y-86917673D03*
D28*
X183436823Y-83425423D03*
%TD*%
D12*
%TO.C,R66*%
X111088750Y-131000000D03*
X109438750Y-131000000D03*
%TD*%
D33*
%TO.C,D16*%
X106386250Y-131000000D03*
X107961250Y-131000000D03*
%TD*%
D55*
%TO.C,JP40*%
X188380000Y-136670000D03*
D56*
X188380000Y-137990000D03*
%TD*%
D11*
%TO.C,R22*%
X150700000Y-66825000D03*
X150700000Y-65175000D03*
%TD*%
%TO.C,R57*%
X212100000Y-146225000D03*
X212100000Y-144575000D03*
%TD*%
D61*
%TO.C,C73*%
X174860000Y-79475000D03*
X174860000Y-76525000D03*
%TD*%
D85*
%TO.C,U2*%
X172344044Y-97555551D03*
X171636937Y-96848444D03*
X171283385Y-96494891D03*
X170929830Y-96141337D03*
X170576277Y-95787784D03*
X170222724Y-95434231D03*
X169869170Y-95080676D03*
X169515617Y-94727124D03*
X169162063Y-94373570D03*
X168808510Y-94020017D03*
D86*
X167498100Y-94020017D03*
X167144547Y-94373570D03*
X166790993Y-94727124D03*
X166437440Y-95080676D03*
X166083886Y-95434231D03*
X165730333Y-95787784D03*
X165376780Y-96141337D03*
X165023225Y-96494891D03*
X164669673Y-96848444D03*
X164316119Y-97201998D03*
X163962566Y-97555551D03*
D85*
X163962566Y-98865961D03*
X164316119Y-99219514D03*
X164669673Y-99573068D03*
X165376780Y-100280175D03*
X166083886Y-100987281D03*
X166790993Y-101694388D03*
X167144547Y-102047942D03*
X167498100Y-102401495D03*
D86*
X169162063Y-102047942D03*
X169515617Y-101694388D03*
X169869170Y-101340836D03*
X170576277Y-100633728D03*
X170929830Y-100280175D03*
X171283385Y-99926621D03*
X171990491Y-99219514D03*
X172344044Y-98865961D03*
D87*
X168153305Y-98210756D03*
%TD*%
D38*
%TO.C,R79*%
X113695000Y-102375000D03*
X115345000Y-102375000D03*
%TD*%
D57*
%TO.C,H10*%
X216275000Y-149150000D03*
X217043845Y-147293845D03*
X217043845Y-151006155D03*
X218900000Y-146525000D03*
D58*
X218900000Y-149150000D03*
D57*
X218900000Y-151775000D03*
X220756155Y-147293845D03*
X220756155Y-151006155D03*
X221525000Y-149150000D03*
%TD*%
D15*
%TO.C,C4*%
X127300000Y-95575000D03*
X127300000Y-97125000D03*
%TD*%
D55*
%TO.C,JP12*%
X134030000Y-126170000D03*
D56*
X134030000Y-127490000D03*
%TD*%
D88*
%TO.C,X3*%
X129670406Y-127859114D03*
X129670406Y-125659114D03*
X127970406Y-125659114D03*
X127970406Y-127859114D03*
%TD*%
D38*
%TO.C,R29*%
X117795000Y-107187500D03*
X119445000Y-107187500D03*
%TD*%
D12*
%TO.C,R60*%
X111025000Y-141850000D03*
X109375000Y-141850000D03*
%TD*%
D20*
%TO.C,J1*%
X144575000Y-105050000D03*
D21*
X145845000Y-105050000D03*
X147115000Y-105050000D03*
%TD*%
D89*
%TO.C,C29*%
X163646607Y-106387303D03*
X164742623Y-107483319D03*
%TD*%
D61*
%TO.C,C182*%
X168090000Y-79475000D03*
X168090000Y-76525000D03*
%TD*%
D26*
%TO.C,C42*%
X139639140Y-114169796D03*
X139639140Y-112619796D03*
%TD*%
D90*
%TO.C,U3*%
X126025001Y-122075000D03*
X126525000Y-122075000D03*
X127025000Y-122075000D03*
X127525000Y-122075000D03*
X128025000Y-122075000D03*
X128525001Y-122075000D03*
X129025000Y-122075000D03*
X129525000Y-122075000D03*
X130025000Y-122075000D03*
X130525000Y-122075000D03*
X131024999Y-122075000D03*
X131525000Y-122075000D03*
X132025000Y-122075000D03*
X132525000Y-122075000D03*
X133025000Y-122075000D03*
X133524999Y-122075000D03*
D91*
X135450000Y-120149999D03*
X135450000Y-119650000D03*
X135450000Y-119150000D03*
X135450000Y-118650000D03*
X135450000Y-118150000D03*
X135450000Y-117649999D03*
X135450000Y-117150000D03*
X135450000Y-116650000D03*
X135450000Y-116150000D03*
X135450000Y-115650000D03*
X135450000Y-115150001D03*
X135450000Y-114650000D03*
X135450000Y-114150000D03*
X135450000Y-113650000D03*
X135450000Y-113150000D03*
X135450000Y-112650001D03*
D90*
X133524999Y-110725000D03*
X133025000Y-110725000D03*
X132525000Y-110725000D03*
X132025000Y-110725000D03*
X131525000Y-110725000D03*
X131024999Y-110725000D03*
X130525000Y-110725000D03*
X130025000Y-110725000D03*
X129525000Y-110725000D03*
X129025000Y-110725000D03*
X128525001Y-110725000D03*
X128025000Y-110725000D03*
X127525000Y-110725000D03*
X127025000Y-110725000D03*
X126525000Y-110725000D03*
X126025001Y-110725000D03*
D91*
X124100000Y-112650001D03*
X124100000Y-113150000D03*
X124100000Y-113650000D03*
X124100000Y-114150000D03*
X124100000Y-114650000D03*
X124100000Y-115150001D03*
X124100000Y-115650000D03*
X124100000Y-116150000D03*
X124100000Y-116650000D03*
X124100000Y-117150000D03*
X124100000Y-117649999D03*
X124100000Y-118150000D03*
X124100000Y-118650000D03*
X124100000Y-119150000D03*
X124100000Y-119650000D03*
X124100000Y-120149999D03*
%TD*%
D92*
%TO.C,C41*%
X141200001Y-112150000D03*
X143099999Y-112150000D03*
%TD*%
D32*
%TO.C,R62*%
X192700000Y-136675000D03*
X192700000Y-138325000D03*
%TD*%
D55*
%TO.C,JP35*%
X120750000Y-94870000D03*
D56*
X120750000Y-96190000D03*
%TD*%
D93*
%TO.C,JP11*%
X155350000Y-107175000D03*
D94*
X156248026Y-108073026D03*
X157146051Y-108971051D03*
%TD*%
D25*
%TO.C,R45*%
X177596637Y-101316637D03*
X178763363Y-102483363D03*
%TD*%
D84*
%TO.C,R48*%
X205230000Y-123780000D03*
X210630000Y-123780000D03*
%TD*%
D17*
%TO.C,J14*%
X116150000Y-56600000D03*
D18*
X118690000Y-56600000D03*
X121230000Y-56600000D03*
X123770000Y-56600000D03*
%TD*%
D62*
%TO.C,C22*%
X162598008Y-93898008D03*
X161501992Y-92801992D03*
%TD*%
D33*
%TO.C,D31*%
X106362500Y-143750000D03*
X107937500Y-143750000D03*
%TD*%
D17*
%TO.C,J27*%
X138900000Y-56650000D03*
%TD*%
D95*
%TO.C,U10*%
X193770000Y-139800000D03*
X191230000Y-139800000D03*
X191230000Y-146100000D03*
X193770000Y-146100000D03*
%TD*%
D19*
%TO.C,C5*%
X134025000Y-86390000D03*
X135575000Y-86390000D03*
%TD*%
D33*
%TO.C,D5*%
X106386250Y-135775000D03*
X107961250Y-135775000D03*
%TD*%
D17*
%TO.C,J20*%
X106050000Y-96250000D03*
%TD*%
D55*
%TO.C,JP31*%
X132930000Y-129620000D03*
D56*
X132930000Y-130940000D03*
%TD*%
D89*
%TO.C,C26*%
X164747767Y-105286143D03*
X165843783Y-106382159D03*
%TD*%
D82*
%TO.C,FB12*%
X163125000Y-133337500D03*
X163125000Y-131762500D03*
%TD*%
D96*
%TO.C,R15*%
X164750000Y-79412500D03*
X164750000Y-76487500D03*
%TD*%
D61*
%TO.C,C198*%
X171480000Y-79475000D03*
X171480000Y-76525000D03*
%TD*%
D38*
%TO.C,R30*%
X117795000Y-105697500D03*
X119445000Y-105697500D03*
%TD*%
D55*
%TO.C,JP37*%
X122300000Y-94870000D03*
D56*
X122300000Y-96190000D03*
%TD*%
D26*
%TO.C,C94*%
X204350000Y-143175000D03*
X204350000Y-141625000D03*
%TD*%
D92*
%TO.C,C40*%
X140600001Y-110100000D03*
X142499999Y-110100000D03*
%TD*%
D19*
%TO.C,C9*%
X131725000Y-92290000D03*
X133275000Y-92290000D03*
%TD*%
D27*
%TO.C,U40*%
X187675000Y-86917673D03*
X188945000Y-86917673D03*
X190215000Y-86917673D03*
X191485000Y-86917673D03*
D28*
X189580000Y-83425423D03*
%TD*%
D11*
%TO.C,R8*%
X116200000Y-125125000D03*
X116200000Y-123475000D03*
%TD*%
D42*
%TO.C,J32*%
X217540000Y-137360000D03*
D97*
X219700000Y-142440000D03*
D98*
X219700000Y-139900000D03*
X219700000Y-137360000D03*
X219700000Y-134820000D03*
%TD*%
D11*
%TO.C,R17*%
X148309323Y-61267327D03*
X148309323Y-59617327D03*
%TD*%
D50*
%TO.C,C24*%
X170742983Y-92692983D03*
X168657017Y-90607017D03*
%TD*%
D17*
%TO.C,J13*%
X149900000Y-56650000D03*
%TD*%
D33*
%TO.C,D14*%
X106386250Y-134150000D03*
X107961250Y-134150000D03*
%TD*%
D19*
%TO.C,C54*%
X134025000Y-107725000D03*
X135575000Y-107725000D03*
%TD*%
D32*
%TO.C,R54*%
X207400000Y-144605000D03*
X207400000Y-146255000D03*
%TD*%
D63*
%TO.C,JP9*%
X138245000Y-91720000D03*
D64*
X139565000Y-91720000D03*
%TD*%
D33*
%TO.C,D30*%
X106375000Y-141850000D03*
X107950000Y-141850000D03*
%TD*%
D99*
%TO.C,C34*%
X120192982Y-121235355D03*
X120192982Y-119335357D03*
%TD*%
D100*
%TO.C,FB4*%
X113612500Y-110675000D03*
X115737500Y-110675000D03*
%TD*%
D43*
%TO.C,C65*%
X116020000Y-108997500D03*
X114470000Y-108997500D03*
%TD*%
D33*
%TO.C,D22*%
X106386250Y-137350000D03*
X107961250Y-137350000D03*
%TD*%
D25*
%TO.C,R33*%
X173896637Y-93816637D03*
X175063363Y-94983363D03*
%TD*%
D92*
%TO.C,C33*%
X136642983Y-109635356D03*
X138542981Y-109635356D03*
%TD*%
D22*
%TO.C,JP22*%
X113620000Y-122130000D03*
D23*
X113620000Y-120810000D03*
%TD*%
D27*
%TO.C,U6*%
X181531823Y-120147250D03*
X182801823Y-120147250D03*
X184071823Y-120147250D03*
X185341823Y-120147250D03*
D28*
X183436823Y-116655000D03*
%TD*%
D26*
%TO.C,C152*%
X146600000Y-78700000D03*
X146600000Y-77150000D03*
%TD*%
D53*
%TO.C,TP5*%
X133850000Y-83150000D03*
%TD*%
D19*
%TO.C,C133*%
X144725000Y-115650000D03*
X146275000Y-115650000D03*
%TD*%
D53*
%TO.C,TP3*%
X133850000Y-80850000D03*
%TD*%
D101*
%TO.C,X1*%
X134100000Y-94040000D03*
X131900000Y-94040000D03*
X131900000Y-95740000D03*
X134100000Y-95740000D03*
%TD*%
D27*
%TO.C,U41*%
X181531823Y-94397250D03*
X182801823Y-94397250D03*
X184071823Y-94397250D03*
X185341823Y-94397250D03*
D28*
X183436823Y-90905000D03*
%TD*%
D102*
%TO.C,D20*%
X179087500Y-59900000D03*
X177512500Y-59900000D03*
%TD*%
%TO.C,D6*%
X174317500Y-73050000D03*
X172742500Y-73050000D03*
%TD*%
D17*
%TO.C,J12*%
X109700000Y-96250000D03*
%TD*%
D44*
%TO.C,FB1*%
X132712500Y-97590000D03*
X130587500Y-97590000D03*
%TD*%
D33*
%TO.C,D29*%
X106375000Y-140000000D03*
X107950000Y-140000000D03*
%TD*%
D20*
%TO.C,J4*%
X144575000Y-101850000D03*
D21*
X145845000Y-101850000D03*
X147115000Y-101850000D03*
%TD*%
D11*
%TO.C,R98*%
X148100000Y-80325000D03*
X148100000Y-78675000D03*
%TD*%
D20*
%TO.C,J3*%
X144575000Y-98650000D03*
D21*
X145845000Y-98650000D03*
X147115000Y-98650000D03*
%TD*%
D84*
%TO.C,R36*%
X205230000Y-82700000D03*
X210630000Y-82700000D03*
%TD*%
D61*
%TO.C,C191*%
X174820000Y-112935000D03*
X174820000Y-109985000D03*
%TD*%
D13*
%TO.C,U43*%
X191485000Y-74282327D03*
X190215000Y-74282327D03*
X188945000Y-74282327D03*
X187675000Y-74282327D03*
D14*
X189580000Y-77774577D03*
%TD*%
D63*
%TO.C,JP2*%
X138245000Y-87710000D03*
D64*
X139565000Y-87710000D03*
%TD*%
D22*
%TO.C,JP30*%
X144170000Y-89530000D03*
D23*
X144170000Y-88210000D03*
%TD*%
D26*
%TO.C,C6*%
X123800000Y-79990000D03*
X123800000Y-78440000D03*
%TD*%
D38*
%TO.C,R80*%
X113695000Y-103975000D03*
X115345000Y-103975000D03*
%TD*%
D12*
%TO.C,R112*%
X179125000Y-58350000D03*
X177475000Y-58350000D03*
%TD*%
D55*
%TO.C,JP34*%
X119180000Y-94870000D03*
D56*
X119180000Y-96190000D03*
%TD*%
D26*
%TO.C,C139*%
X129750000Y-80025000D03*
X129750000Y-78475000D03*
%TD*%
D61*
%TO.C,C44*%
X174400000Y-62225000D03*
X174400000Y-59275000D03*
%TD*%
D82*
%TO.C,FB11*%
X168775000Y-133312500D03*
X168775000Y-131737500D03*
%TD*%
D61*
%TO.C,C178*%
X171430000Y-112935000D03*
X171430000Y-109985000D03*
%TD*%
D13*
%TO.C,U45*%
X169011823Y-62332327D03*
X167741823Y-62332327D03*
X166471823Y-62332327D03*
X165201823Y-62332327D03*
D14*
X167106823Y-65824577D03*
%TD*%
D103*
%TO.C,U33*%
X201950000Y-131000000D03*
X203850000Y-131000000D03*
X202900000Y-129125000D03*
%TD*%
D12*
%TO.C,R65*%
X111088750Y-132587500D03*
X109438750Y-132587500D03*
%TD*%
D57*
%TO.C,H8*%
X216275000Y-59150000D03*
X217043845Y-57293845D03*
X217043845Y-61006155D03*
X218900000Y-56525000D03*
D58*
X218900000Y-59150000D03*
D57*
X218900000Y-61775000D03*
X220756155Y-57293845D03*
X220756155Y-61006155D03*
X221525000Y-59150000D03*
%TD*%
D37*
%TO.C,R32*%
X175796637Y-96483363D03*
X176963363Y-95316637D03*
%TD*%
D20*
%TO.C,J2*%
X144575000Y-108250000D03*
D21*
X145845000Y-108250000D03*
X147115000Y-108250000D03*
%TD*%
D43*
%TO.C,C3*%
X121225000Y-82040000D03*
X119675000Y-82040000D03*
%TD*%
D104*
%TO.C,U28*%
X143150000Y-78637500D03*
X144100000Y-78637500D03*
X145050000Y-78637500D03*
X145050000Y-76362500D03*
X143150000Y-76362500D03*
%TD*%
D42*
%TO.C,J8*%
X177235000Y-153040000D03*
X179775000Y-153040000D03*
D30*
X177235000Y-150500000D03*
D31*
X179775000Y-150500000D03*
%TD*%
D11*
%TO.C,R20*%
X149221107Y-65875000D03*
X149221107Y-64225000D03*
%TD*%
D42*
%TO.C,J21*%
X195600000Y-153050000D03*
X198140000Y-153050000D03*
D30*
X195600000Y-150510000D03*
D31*
X198140000Y-150510000D03*
%TD*%
D13*
%TO.C,U35*%
X191485000Y-107407750D03*
X190215000Y-107407750D03*
X188945000Y-107407750D03*
X187675000Y-107407750D03*
D14*
X189580000Y-110900000D03*
%TD*%
D105*
%TO.C,JP13*%
X158772756Y-104648959D03*
D106*
X157839376Y-105582340D03*
%TD*%
D107*
%TO.C,D33*%
X151600000Y-78600000D03*
X151600000Y-75300000D03*
%TD*%
D24*
%TO.C,C48*%
X197750000Y-113900000D03*
X205250000Y-113900000D03*
%TD*%
D43*
%TO.C,C50*%
X158346107Y-60072327D03*
X156796107Y-60072327D03*
%TD*%
D19*
%TO.C,C39*%
X124567562Y-108518551D03*
X126117562Y-108518551D03*
%TD*%
D37*
%TO.C,R6*%
X160666637Y-99133363D03*
X161833363Y-97966637D03*
%TD*%
D16*
%TO.C,C72*%
X174374392Y-100265083D03*
X175470408Y-99169067D03*
%TD*%
D11*
%TO.C,R11*%
X160136823Y-63132327D03*
X160136823Y-61482327D03*
%TD*%
D34*
%TO.C,J15*%
X215200000Y-85250000D03*
X222210000Y-85250000D03*
X215200000Y-80250000D03*
X222210000Y-80250000D03*
%TD*%
D37*
%TO.C,R70*%
X175417376Y-101378776D03*
X176584102Y-100212050D03*
%TD*%
D35*
%TO.C,JP20*%
X117380000Y-85120000D03*
D36*
X116060000Y-85120000D03*
%TD*%
D55*
%TO.C,JP7*%
X117630000Y-94870000D03*
D56*
X117630000Y-96190000D03*
%TD*%
D55*
%TO.C,JP33*%
X129830000Y-129620000D03*
D56*
X129830000Y-130940000D03*
%TD*%
D19*
%TO.C,C37*%
X136567982Y-111435356D03*
X138117982Y-111435356D03*
%TD*%
%TO.C,C66*%
X117859797Y-104156801D03*
X119409797Y-104156801D03*
%TD*%
%TO.C,C67*%
X117852500Y-108742500D03*
X119402500Y-108742500D03*
%TD*%
D29*
%TO.C,C181*%
X171430000Y-114685000D03*
X171430000Y-117635000D03*
%TD*%
D19*
%TO.C,C11*%
X134025000Y-87940000D03*
X135575000Y-87940000D03*
%TD*%
D33*
%TO.C,D15*%
X106386250Y-132600000D03*
X107961250Y-132600000D03*
%TD*%
G36*
X184023039Y-75769685D02*
G01*
X184068794Y-75822489D01*
X184080000Y-75874000D01*
X184080000Y-79500000D01*
X184206000Y-79500000D01*
X184273039Y-79519685D01*
X184318794Y-79572489D01*
X184330000Y-79624000D01*
X184330000Y-81176000D01*
X184310315Y-81243039D01*
X184257511Y-81288794D01*
X184206000Y-81300000D01*
X184080000Y-81300000D01*
X184080000Y-85476000D01*
X184060315Y-85543039D01*
X184007511Y-85588794D01*
X183956000Y-85600000D01*
X182704000Y-85600000D01*
X182636961Y-85580315D01*
X182591206Y-85527511D01*
X182580000Y-85476000D01*
X182580000Y-81300000D01*
X182454000Y-81300000D01*
X182386961Y-81280315D01*
X182341206Y-81227511D01*
X182330000Y-81176000D01*
X182330000Y-79624000D01*
X182349685Y-79556961D01*
X182402489Y-79511206D01*
X182454000Y-79500000D01*
X182580000Y-79500000D01*
X182580000Y-75874000D01*
X182599685Y-75806961D01*
X182652489Y-75761206D01*
X182704000Y-75750000D01*
X183956000Y-75750000D01*
X184023039Y-75769685D01*
G37*
G36*
X193023039Y-60019685D02*
G01*
X193068794Y-60072489D01*
X193080000Y-60124000D01*
X193080000Y-74326000D01*
X193060315Y-74393039D01*
X193007511Y-74438794D01*
X192956000Y-74450000D01*
X188754000Y-74450000D01*
X188686961Y-74430315D01*
X188641206Y-74377511D01*
X188630000Y-74326000D01*
X188630000Y-73200000D01*
X186780000Y-73200000D01*
X186780000Y-74326000D01*
X186760315Y-74393039D01*
X186707511Y-74438794D01*
X186656000Y-74450000D01*
X182554000Y-74450000D01*
X182486961Y-74430315D01*
X182441206Y-74377511D01*
X182430000Y-74326000D01*
X182430000Y-70274000D01*
X182449685Y-70206961D01*
X182502489Y-70161206D01*
X182554000Y-70150000D01*
X184430000Y-70150000D01*
X184430000Y-60124000D01*
X184449685Y-60056961D01*
X184502489Y-60011206D01*
X184554000Y-60000000D01*
X192956000Y-60000000D01*
X193023039Y-60019685D01*
G37*
G36*
X223720077Y-99106913D02*
G01*
X223787069Y-99126757D01*
X223832698Y-99179670D01*
X223843781Y-99230545D01*
X223868047Y-107407838D01*
X223848562Y-107474936D01*
X223795894Y-107520847D01*
X223744048Y-107532206D01*
X213320900Y-107532206D01*
X213253861Y-107512521D01*
X213251957Y-107511273D01*
X209638308Y-105094034D01*
X209593530Y-105040399D01*
X209583251Y-104990967D01*
X209583251Y-101574442D01*
X209602936Y-101507403D01*
X209639599Y-101470523D01*
X213277307Y-99102350D01*
X213344229Y-99082271D01*
X213345254Y-99082269D01*
X223720077Y-99106913D01*
G37*
G36*
X223706661Y-119674707D02*
G01*
X223773653Y-119694551D01*
X223819282Y-119747464D01*
X223830365Y-119798339D01*
X223854631Y-127975632D01*
X223835146Y-128042730D01*
X223782478Y-128088641D01*
X223730632Y-128100000D01*
X213317649Y-128100000D01*
X213250610Y-128080315D01*
X213248706Y-128079067D01*
X209635057Y-125661828D01*
X209590279Y-125608193D01*
X209580000Y-125558761D01*
X209580000Y-122142236D01*
X209599685Y-122075197D01*
X209636348Y-122038317D01*
X213274019Y-119670168D01*
X213340941Y-119650089D01*
X213341966Y-119650087D01*
X223706661Y-119674707D01*
G37*
G36*
X184123039Y-112669685D02*
G01*
X184168794Y-112722489D01*
X184180000Y-112774000D01*
X184180000Y-112900000D01*
X188900000Y-112900000D01*
X188900000Y-112774000D01*
X188919685Y-112706961D01*
X188972489Y-112661206D01*
X189024000Y-112650000D01*
X190276000Y-112650000D01*
X190343039Y-112669685D01*
X190388794Y-112722489D01*
X190400000Y-112774000D01*
X190400000Y-112900000D01*
X191756000Y-112900000D01*
X191823039Y-112919685D01*
X191868794Y-112972489D01*
X191880000Y-113024000D01*
X191880000Y-114576000D01*
X191860315Y-114643039D01*
X191807511Y-114688794D01*
X191756000Y-114700000D01*
X190400000Y-114700000D01*
X190400000Y-114826000D01*
X190380315Y-114893039D01*
X190327511Y-114938794D01*
X190276000Y-114950000D01*
X189024000Y-114950000D01*
X188956961Y-114930315D01*
X188911206Y-114877511D01*
X188900000Y-114826000D01*
X188900000Y-114700000D01*
X184180000Y-114700000D01*
X184180000Y-114826000D01*
X184160315Y-114893039D01*
X184107511Y-114938794D01*
X184056000Y-114950000D01*
X182804000Y-114950000D01*
X182736961Y-114930315D01*
X182691206Y-114877511D01*
X182680000Y-114826000D01*
X182680000Y-114700000D01*
X166754000Y-114700000D01*
X166686961Y-114680315D01*
X166641206Y-114627511D01*
X166630000Y-114576000D01*
X166630000Y-113024000D01*
X166649685Y-112956961D01*
X166702489Y-112911206D01*
X166754000Y-112900000D01*
X182680000Y-112900000D01*
X182680000Y-112774000D01*
X182699685Y-112706961D01*
X182752489Y-112661206D01*
X182804000Y-112650000D01*
X184056000Y-112650000D01*
X184123039Y-112669685D01*
G37*
G36*
X223720077Y-99106913D02*
G01*
X223787069Y-99126757D01*
X223832698Y-99179670D01*
X223843781Y-99230545D01*
X223868047Y-107407838D01*
X223848562Y-107474936D01*
X223795894Y-107520847D01*
X223744048Y-107532206D01*
X213320900Y-107532206D01*
X213253861Y-107512521D01*
X213251957Y-107511273D01*
X209638308Y-105094034D01*
X209593530Y-105040399D01*
X209583251Y-104990967D01*
X209583251Y-101574442D01*
X209602936Y-101507403D01*
X209639599Y-101470523D01*
X213277307Y-99102350D01*
X213344229Y-99082271D01*
X213345254Y-99082269D01*
X223720077Y-99106913D01*
G37*
G36*
X184123039Y-108869685D02*
G01*
X184168794Y-108922489D01*
X184180000Y-108974000D01*
X184180000Y-112900000D01*
X184306000Y-112900000D01*
X184373039Y-112919685D01*
X184418794Y-112972489D01*
X184430000Y-113024000D01*
X184430000Y-114576000D01*
X184410315Y-114643039D01*
X184357511Y-114688794D01*
X184306000Y-114700000D01*
X184180000Y-114700000D01*
X184180000Y-118576000D01*
X184160315Y-118643039D01*
X184107511Y-118688794D01*
X184056000Y-118700000D01*
X182804000Y-118700000D01*
X182736961Y-118680315D01*
X182691206Y-118627511D01*
X182680000Y-118576000D01*
X182680000Y-114700000D01*
X182554000Y-114700000D01*
X182486961Y-114680315D01*
X182441206Y-114627511D01*
X182430000Y-114576000D01*
X182430000Y-113024000D01*
X182449685Y-112956961D01*
X182502489Y-112911206D01*
X182554000Y-112900000D01*
X182680000Y-112900000D01*
X182680000Y-108974000D01*
X182699685Y-108906961D01*
X182752489Y-108861206D01*
X182804000Y-108850000D01*
X184056000Y-108850000D01*
X184123039Y-108869685D01*
G37*
G36*
X184023039Y-79269685D02*
G01*
X184068794Y-79322489D01*
X184080000Y-79374000D01*
X184080000Y-79500000D01*
X188800000Y-79500000D01*
X188800000Y-79374000D01*
X188819685Y-79306961D01*
X188872489Y-79261206D01*
X188924000Y-79250000D01*
X190176000Y-79250000D01*
X190243039Y-79269685D01*
X190288794Y-79322489D01*
X190300000Y-79374000D01*
X190300000Y-79500000D01*
X190580000Y-79500000D01*
X190580000Y-79374000D01*
X190599685Y-79306961D01*
X190652489Y-79261206D01*
X190704000Y-79250000D01*
X191867789Y-79250000D01*
X191891980Y-79252383D01*
X191951480Y-79264218D01*
X191996179Y-79282732D01*
X192036268Y-79309518D01*
X192070481Y-79343731D01*
X192097267Y-79383820D01*
X192115781Y-79428517D01*
X192127617Y-79488017D01*
X192130000Y-79512210D01*
X192130000Y-81287789D01*
X192127617Y-81311982D01*
X192115781Y-81371482D01*
X192097267Y-81416179D01*
X192070481Y-81456268D01*
X192036268Y-81490481D01*
X191996179Y-81517267D01*
X191951482Y-81535781D01*
X191891982Y-81547617D01*
X191867789Y-81550000D01*
X190704000Y-81550000D01*
X190636961Y-81530315D01*
X190591206Y-81477511D01*
X190580000Y-81426000D01*
X190580000Y-81300000D01*
X190300000Y-81300000D01*
X190300000Y-81426000D01*
X190280315Y-81493039D01*
X190227511Y-81538794D01*
X190176000Y-81550000D01*
X188924000Y-81550000D01*
X188856961Y-81530315D01*
X188811206Y-81477511D01*
X188800000Y-81426000D01*
X188800000Y-81300000D01*
X184080000Y-81300000D01*
X184080000Y-81426000D01*
X184060315Y-81493039D01*
X184007511Y-81538794D01*
X183956000Y-81550000D01*
X182704000Y-81550000D01*
X182636961Y-81530315D01*
X182591206Y-81477511D01*
X182580000Y-81426000D01*
X182580000Y-81300000D01*
X166754000Y-81300000D01*
X166686961Y-81280315D01*
X166641206Y-81227511D01*
X166630000Y-81176000D01*
X166630000Y-79624000D01*
X166649685Y-79556961D01*
X166702489Y-79511206D01*
X166754000Y-79500000D01*
X182580000Y-79500000D01*
X182580000Y-79374000D01*
X182599685Y-79306961D01*
X182652489Y-79261206D01*
X182704000Y-79250000D01*
X183956000Y-79250000D01*
X184023039Y-79269685D01*
G37*
G36*
X200123039Y-75819685D02*
G01*
X200168794Y-75872489D01*
X200180000Y-75924000D01*
X200180000Y-79776000D01*
X200160315Y-79843039D01*
X200107511Y-79888794D01*
X200056000Y-79900000D01*
X197030000Y-79900000D01*
X193117225Y-84753822D01*
X193059826Y-84793661D01*
X193020686Y-84800000D01*
X190704000Y-84800000D01*
X190636961Y-84780315D01*
X190591206Y-84727511D01*
X190580000Y-84676000D01*
X190580000Y-81300000D01*
X190454000Y-81300000D01*
X190386961Y-81280315D01*
X190341206Y-81227511D01*
X190330000Y-81176000D01*
X190330000Y-79624000D01*
X190349685Y-79556961D01*
X190402489Y-79511206D01*
X190454000Y-79500000D01*
X190580000Y-79500000D01*
X190580000Y-75924000D01*
X190599685Y-75856961D01*
X190652489Y-75811206D01*
X190704000Y-75800000D01*
X200056000Y-75800000D01*
X200123039Y-75819685D01*
G37*
G36*
X190243039Y-75769685D02*
G01*
X190288794Y-75822489D01*
X190300000Y-75874000D01*
X190300000Y-79500000D01*
X190426000Y-79500000D01*
X190493039Y-79519685D01*
X190538794Y-79572489D01*
X190550000Y-79624000D01*
X190550000Y-81176000D01*
X190530315Y-81243039D01*
X190477511Y-81288794D01*
X190426000Y-81300000D01*
X190300000Y-81300000D01*
X190300000Y-85476000D01*
X190280315Y-85543039D01*
X190227511Y-85588794D01*
X190176000Y-85600000D01*
X188924000Y-85600000D01*
X188856961Y-85580315D01*
X188811206Y-85527511D01*
X188800000Y-85476000D01*
X188800000Y-81300000D01*
X188674000Y-81300000D01*
X188606961Y-81280315D01*
X188561206Y-81227511D01*
X188550000Y-81176000D01*
X188550000Y-79624000D01*
X188569685Y-79556961D01*
X188622489Y-79511206D01*
X188674000Y-79500000D01*
X188800000Y-79500000D01*
X188800000Y-75874000D01*
X188819685Y-75806961D01*
X188872489Y-75761206D01*
X188924000Y-75750000D01*
X190176000Y-75750000D01*
X190243039Y-75769685D01*
G37*
G36*
X213178039Y-60419685D02*
G01*
X213223794Y-60472489D01*
X213235000Y-60524000D01*
X213235000Y-70626000D01*
X213215315Y-70693039D01*
X213162511Y-70738794D01*
X213111000Y-70750000D01*
X205009000Y-70750000D01*
X204941961Y-70730315D01*
X204896206Y-70677511D01*
X204885000Y-70626000D01*
X204885000Y-60524000D01*
X204904685Y-60456961D01*
X204957489Y-60411206D01*
X205009000Y-60400000D01*
X213111000Y-60400000D01*
X213178039Y-60419685D01*
G37*
G36*
X206223039Y-80969685D02*
G01*
X206268794Y-81022489D01*
X206280000Y-81074000D01*
X206280000Y-84103971D01*
X206260315Y-84171010D01*
X206241034Y-84194222D01*
X198687723Y-91310926D01*
X198625431Y-91342572D01*
X198602327Y-91344674D01*
X181303638Y-91294240D01*
X181236657Y-91274361D01*
X181191056Y-91221423D01*
X181180000Y-91170241D01*
X181180000Y-86924000D01*
X181199685Y-86856961D01*
X181252489Y-86811206D01*
X181304000Y-86800000D01*
X184206000Y-86800000D01*
X184273039Y-86819685D01*
X184318794Y-86872489D01*
X184330000Y-86924000D01*
X184330000Y-89350000D01*
X187380000Y-89350000D01*
X187380000Y-86974000D01*
X187399685Y-86906961D01*
X187452489Y-86861206D01*
X187504000Y-86850000D01*
X190356000Y-86850000D01*
X190423039Y-86869685D01*
X190468794Y-86922489D01*
X190480000Y-86974000D01*
X190480000Y-89350000D01*
X195529292Y-89350000D01*
X204425884Y-80983668D01*
X204488206Y-80952082D01*
X204510832Y-80950000D01*
X206156000Y-80950000D01*
X206223039Y-80969685D01*
G37*
G36*
X183973039Y-119719685D02*
G01*
X184018794Y-119772489D01*
X184030000Y-119824000D01*
X184030000Y-122850000D01*
X187280000Y-122850000D01*
X187280000Y-119874000D01*
X187299685Y-119806961D01*
X187352489Y-119761206D01*
X187404000Y-119750000D01*
X190256000Y-119750000D01*
X190323039Y-119769685D01*
X190368794Y-119822489D01*
X190380000Y-119874000D01*
X190380000Y-121998424D01*
X206136058Y-122023238D01*
X206203067Y-122043028D01*
X206248738Y-122095904D01*
X206259861Y-122146504D01*
X206278967Y-125375266D01*
X206259679Y-125442421D01*
X206207147Y-125488488D01*
X206154969Y-125500000D01*
X181304000Y-125500000D01*
X181236961Y-125480315D01*
X181191206Y-125427511D01*
X181180000Y-125376000D01*
X181180000Y-119824000D01*
X181199685Y-119756961D01*
X181252489Y-119711206D01*
X181304000Y-119700000D01*
X183906000Y-119700000D01*
X183973039Y-119719685D01*
G37*
G36*
X223643039Y-92319685D02*
G01*
X223688794Y-92372489D01*
X223700000Y-92424000D01*
X223700000Y-96076000D01*
X223680315Y-96143039D01*
X223627511Y-96188794D01*
X223576000Y-96200000D01*
X212199999Y-96200000D01*
X208636319Y-99763681D01*
X208574996Y-99797166D01*
X208548638Y-99800000D01*
X188824000Y-99800000D01*
X188756961Y-99780315D01*
X188711206Y-99727511D01*
X188700000Y-99676000D01*
X188700000Y-98500000D01*
X186693928Y-98500000D01*
X186699418Y-99675421D01*
X186680046Y-99742551D01*
X186627457Y-99788553D01*
X186575419Y-99800000D01*
X182624000Y-99800000D01*
X182556961Y-99780315D01*
X182511206Y-99727511D01*
X182500000Y-99676000D01*
X182500000Y-98600000D01*
X181224000Y-98600000D01*
X181156961Y-98580315D01*
X181111206Y-98527511D01*
X181100000Y-98476000D01*
X181100000Y-94324000D01*
X181119685Y-94256961D01*
X181172489Y-94211206D01*
X181224000Y-94200000D01*
X184276000Y-94200000D01*
X184343039Y-94219685D01*
X184388794Y-94272489D01*
X184400000Y-94324000D01*
X184400000Y-95400000D01*
X187250000Y-95400000D01*
X187250000Y-94324000D01*
X187269685Y-94256961D01*
X187322489Y-94211206D01*
X187374000Y-94200000D01*
X190376000Y-94200000D01*
X190443039Y-94219685D01*
X190488794Y-94272489D01*
X190500000Y-94324000D01*
X190500000Y-97250000D01*
X202400000Y-97250000D01*
X202400000Y-92424000D01*
X202419685Y-92356961D01*
X202472489Y-92311206D01*
X202524000Y-92300000D01*
X223576000Y-92300000D01*
X223643039Y-92319685D01*
G37*
G36*
X206223039Y-102469685D02*
G01*
X206268794Y-102522489D01*
X206280000Y-102574000D01*
X206280000Y-103976000D01*
X206260315Y-104043039D01*
X206207511Y-104088794D01*
X206156000Y-104100000D01*
X191400000Y-104100000D01*
X191400000Y-107676000D01*
X191380315Y-107743039D01*
X191327511Y-107788794D01*
X191276000Y-107800000D01*
X188904000Y-107800000D01*
X188836961Y-107780315D01*
X188791206Y-107727511D01*
X188780000Y-107676000D01*
X188780000Y-105600000D01*
X185730000Y-105600000D01*
X185730000Y-107776000D01*
X185710315Y-107843039D01*
X185657511Y-107888794D01*
X185606000Y-107900000D01*
X182554000Y-107900000D01*
X182486961Y-107880315D01*
X182441206Y-107827511D01*
X182430000Y-107776000D01*
X182430000Y-104200000D01*
X181304000Y-104200000D01*
X181236961Y-104180315D01*
X181191206Y-104127511D01*
X181180000Y-104076000D01*
X181180000Y-102574000D01*
X181199685Y-102506961D01*
X181252489Y-102461206D01*
X181304000Y-102450000D01*
X206156000Y-102450000D01*
X206223039Y-102469685D01*
G37*
G36*
X190343039Y-108869685D02*
G01*
X190388794Y-108922489D01*
X190400000Y-108974000D01*
X190400000Y-112900000D01*
X190526000Y-112900000D01*
X190593039Y-112919685D01*
X190638794Y-112972489D01*
X190650000Y-113024000D01*
X190650000Y-114576000D01*
X190630315Y-114643039D01*
X190577511Y-114688794D01*
X190526000Y-114700000D01*
X190400000Y-114700000D01*
X190400000Y-118576000D01*
X190380315Y-118643039D01*
X190327511Y-118688794D01*
X190276000Y-118700000D01*
X189024000Y-118700000D01*
X188956961Y-118680315D01*
X188911206Y-118627511D01*
X188900000Y-118576000D01*
X188900000Y-114700000D01*
X188774000Y-114700000D01*
X188706961Y-114680315D01*
X188661206Y-114627511D01*
X188650000Y-114576000D01*
X188650000Y-113024000D01*
X188669685Y-112956961D01*
X188722489Y-112911206D01*
X188774000Y-112900000D01*
X188900000Y-112900000D01*
X188900000Y-108974000D01*
X188919685Y-108906961D01*
X188972489Y-108861206D01*
X189024000Y-108850000D01*
X190276000Y-108850000D01*
X190343039Y-108869685D01*
G37*
G36*
X223748926Y-78553446D02*
G01*
X223815918Y-78573290D01*
X223861547Y-78626203D01*
X223872630Y-78677078D01*
X223896896Y-86854371D01*
X223877411Y-86921469D01*
X223824743Y-86967380D01*
X223772897Y-86978739D01*
X213359914Y-86978739D01*
X213292875Y-86959054D01*
X213290971Y-86957806D01*
X209677322Y-84540567D01*
X209632544Y-84486932D01*
X209622265Y-84437500D01*
X209622265Y-81020975D01*
X209641950Y-80953936D01*
X209678613Y-80917056D01*
X213316284Y-78548907D01*
X213383206Y-78528828D01*
X213384231Y-78528826D01*
X223748926Y-78553446D01*
G37*
M02*
