G04 EAGLE Gerber RS-274X export*
G75*
%MOMM*%
%FSLAX34Y34*%
%LPD*%
%IN*%
%IPPOS*%
%AMOC8*
5,1,8,0,0,1.08239X$1,22.5*%
G01*
%ADD10C,0.254000*%


D10*
X0Y-1050000D02*
X190Y-1054358D01*
X760Y-1058682D01*
X1704Y-1062941D01*
X3015Y-1067101D01*
X4685Y-1071131D01*
X6699Y-1075000D01*
X9042Y-1078679D01*
X11698Y-1082139D01*
X14645Y-1085355D01*
X17861Y-1088302D01*
X21321Y-1090958D01*
X25000Y-1093301D01*
X28869Y-1095315D01*
X32899Y-1096985D01*
X37059Y-1098296D01*
X41318Y-1099240D01*
X45642Y-1099810D01*
X50000Y-1100000D01*
X550000Y-1100000D01*
X554358Y-1099810D01*
X558682Y-1099240D01*
X562941Y-1098296D01*
X567101Y-1096985D01*
X571131Y-1095315D01*
X575000Y-1093301D01*
X578679Y-1090958D01*
X582139Y-1088302D01*
X585355Y-1085355D01*
X588302Y-1082139D01*
X590958Y-1078679D01*
X593301Y-1075000D01*
X595315Y-1071131D01*
X596985Y-1067101D01*
X598296Y-1062941D01*
X599240Y-1058682D01*
X599810Y-1054358D01*
X600000Y-1050000D01*
X600000Y-50000D01*
X599810Y-45642D01*
X599240Y-41318D01*
X598296Y-37059D01*
X596985Y-32899D01*
X595315Y-28869D01*
X593301Y-25000D01*
X590958Y-21321D01*
X588302Y-17861D01*
X585355Y-14645D01*
X582139Y-11698D01*
X578679Y-9042D01*
X575000Y-6699D01*
X571131Y-4685D01*
X567101Y-3015D01*
X562941Y-1704D01*
X558682Y-760D01*
X554358Y-190D01*
X550000Y0D01*
X50000Y0D01*
X45642Y-190D01*
X41318Y-760D01*
X37059Y-1704D01*
X32899Y-3015D01*
X28869Y-4685D01*
X25000Y-6699D01*
X21321Y-9042D01*
X17861Y-11698D01*
X14645Y-14645D01*
X11698Y-17861D01*
X9042Y-21321D01*
X6699Y-25000D01*
X4685Y-28869D01*
X3015Y-32899D01*
X1704Y-37059D01*
X760Y-41318D01*
X190Y-45642D01*
X0Y-50000D01*
X0Y-1050000D01*
M02*
