G04 EAGLE Gerber RS-274X export*
G75*
%MOMM*%
%FSLAX34Y34*%
%LPD*%
%INSolderpaste Bottom*%
%IPPOS*%
%AMOC8*
5,1,8,0,0,1.08239X$1,22.5*%
G01*
%ADD10R,1.000000X1.100000*%
%ADD11R,1.100000X1.000000*%
%ADD12R,0.910000X1.220000*%
%ADD13R,1.600000X1.800000*%
%ADD14R,1.220000X0.910000*%
%ADD15R,1.300000X1.500000*%
%ADD16R,1.600200X1.168400*%
%ADD17R,0.600000X0.600000*%
%ADD18R,1.200000X0.550000*%
%ADD19R,1.500000X1.300000*%
%ADD20R,1.800000X1.600000*%
%ADD21R,1.168400X1.600200*%
%ADD22R,2.540000X2.540000*%


D10*
X276500Y-281000D03*
X276500Y-264000D03*
D11*
X333250Y-308750D03*
X350250Y-308750D03*
D10*
X311750Y-355250D03*
X311750Y-372250D03*
D11*
X369250Y-337750D03*
X352250Y-337750D03*
D10*
X284500Y-372000D03*
X284500Y-355000D03*
D12*
X338625Y-607000D03*
X371375Y-607000D03*
D11*
X332250Y-579500D03*
X315250Y-579500D03*
X435250Y-527500D03*
X435250Y-544500D03*
D13*
X244250Y-579500D03*
X216250Y-579500D03*
X243750Y-779750D03*
X215750Y-779750D03*
X244000Y-681500D03*
X216000Y-681500D03*
D11*
X284000Y-410750D03*
X284000Y-393750D03*
D10*
X98750Y-614500D03*
X98750Y-597500D03*
D14*
X410000Y-912125D03*
X410000Y-944875D03*
D15*
X187250Y-313500D03*
X168250Y-313500D03*
D16*
X281000Y-172380D03*
X281000Y-187620D03*
X307000Y-172380D03*
X307000Y-187620D03*
X333000Y-172380D03*
X333000Y-187620D03*
D10*
X170500Y-375000D03*
X170500Y-358000D03*
D13*
X244000Y-882000D03*
X216000Y-882000D03*
D10*
X90500Y-481000D03*
X73500Y-481000D03*
D11*
X73500Y-418000D03*
X90500Y-418000D03*
X73500Y-460000D03*
X90500Y-460000D03*
X73500Y-376000D03*
X90500Y-376000D03*
D10*
X90500Y-439000D03*
X73500Y-439000D03*
X90500Y-397000D03*
X73500Y-397000D03*
D17*
X240000Y-624250D03*
X240000Y-602250D03*
X240000Y-725000D03*
X240000Y-703000D03*
X239500Y-824250D03*
X239500Y-802250D03*
X240000Y-927750D03*
X240000Y-905750D03*
D11*
X312000Y-622750D03*
X312000Y-605750D03*
X312250Y-721500D03*
X312250Y-704500D03*
X311750Y-821500D03*
X311750Y-804500D03*
X311500Y-921750D03*
X311500Y-904750D03*
D18*
X252750Y-959250D03*
X252750Y-949750D03*
X252750Y-940250D03*
X278750Y-940250D03*
X278750Y-959250D03*
X278750Y-949750D03*
D11*
X253500Y-979500D03*
X270500Y-979500D03*
D12*
X338625Y-707000D03*
X371375Y-707000D03*
D11*
X332250Y-679500D03*
X315250Y-679500D03*
D12*
X338625Y-807000D03*
X371375Y-807000D03*
D11*
X332250Y-779500D03*
X315250Y-779500D03*
D12*
X338625Y-907000D03*
X371375Y-907000D03*
D11*
X332250Y-879500D03*
X315250Y-879500D03*
X520000Y-651000D03*
X537000Y-651000D03*
X537000Y-671750D03*
X520000Y-671750D03*
D19*
X502500Y-610500D03*
X502500Y-629500D03*
X523000Y-610500D03*
X523000Y-629500D03*
D20*
X466750Y-612000D03*
X466750Y-640000D03*
D19*
X310750Y-244750D03*
X310750Y-263750D03*
D12*
X422125Y-991000D03*
X454875Y-991000D03*
D11*
X431750Y-920750D03*
X431750Y-937750D03*
X118000Y-827500D03*
X135000Y-827500D03*
X221500Y-463000D03*
X221500Y-480000D03*
X198500Y-463000D03*
X198500Y-480000D03*
X167000Y-437500D03*
X167000Y-454500D03*
D19*
X454500Y-390500D03*
X454500Y-409500D03*
D11*
X480000Y-351500D03*
X480000Y-368500D03*
X454500Y-351500D03*
X454500Y-368500D03*
D19*
X480000Y-390500D03*
X480000Y-409500D03*
X256000Y-537000D03*
X256000Y-556000D03*
D10*
X241000Y-508000D03*
X258000Y-508000D03*
X251500Y-750000D03*
X268500Y-750000D03*
X191000Y-433500D03*
X208000Y-433500D03*
D19*
X262000Y-420500D03*
X262000Y-401500D03*
D11*
X241500Y-402500D03*
X241500Y-419500D03*
D15*
X119000Y-539500D03*
X138000Y-539500D03*
D11*
X114500Y-485500D03*
X114500Y-468500D03*
X561500Y-686000D03*
X561500Y-703000D03*
D19*
X146500Y-510000D03*
X146500Y-491000D03*
D10*
X216500Y-551500D03*
X199500Y-551500D03*
X234500Y-551000D03*
X234500Y-534000D03*
D11*
X135500Y-744000D03*
X135500Y-761000D03*
D10*
X135500Y-776500D03*
X135500Y-793500D03*
X115000Y-776500D03*
X115000Y-793500D03*
X121500Y-614500D03*
X121500Y-597500D03*
D11*
X118000Y-727000D03*
X118000Y-710000D03*
X131000Y-582000D03*
X131000Y-565000D03*
X71000Y-598000D03*
X71000Y-615000D03*
D21*
X482380Y-1050000D03*
X497620Y-1050000D03*
X117620Y-1050000D03*
X102380Y-1050000D03*
D22*
X491495Y-669000D03*
X444505Y-669000D03*
D10*
X560500Y-608000D03*
X543500Y-608000D03*
X543500Y-629000D03*
X560500Y-629000D03*
M02*
