G04 EAGLE Gerber RS-274X export*
G75*
%MOMM*%
%FSLAX34Y34*%
%LPD*%
%INSoldermask Top*%
%IPPOS*%
%AMOC8*
5,1,8,0,0,1.08239X$1,22.5*%
G01*
%ADD10C,0.355600*%
%ADD11R,0.355600X0.958000*%
%ADD12R,0.958000X0.355600*%
%ADD13R,5.207000X9.194800*%
%ADD14R,1.053200X0.703200*%
%ADD15R,4.753200X4.613200*%
%ADD16R,0.703200X1.053200*%
%ADD17R,4.613200X4.753200*%
%ADD18C,1.711200*%
%ADD19R,1.703200X1.503200*%
%ADD20C,1.727200*%
%ADD21R,1.016000X0.457200*%
%ADD22R,2.794000X3.200400*%
%ADD23R,1.203200X1.303200*%
%ADD24R,1.403200X0.753200*%
%ADD25R,1.423200X1.113200*%
%ADD26R,2.003200X3.803200*%
%ADD27P,3.629037X8X112.500000*%
%ADD28C,3.352800*%
%ADD29R,1.303200X1.503200*%
%ADD30R,1.403200X1.403200*%
%ADD31C,2.298700*%
%ADD32R,0.753200X1.403200*%
%ADD33R,1.113200X1.423200*%
%ADD34C,6.045200*%
%ADD35R,1.303200X1.203200*%
%ADD36R,7.203200X2.703200*%
%ADD37R,1.803400X1.371600*%
%ADD38R,1.828800X0.152400*%
%ADD39P,1.869504X8X112.500000*%
%ADD40P,3.629037X8X292.500000*%
%ADD41R,1.658100X0.745800*%
%ADD42P,1.869504X8X292.500000*%
%ADD43R,2.513200X2.723200*%
%ADD44R,0.762000X1.663700*%
%ADD45R,0.553200X1.103200*%
%ADD46R,1.103200X0.553200*%
%ADD47C,1.625600*%
%ADD48R,1.422400X2.438400*%
%ADD49R,3.803200X2.403200*%
%ADD50R,1.203200X1.003200*%


D10*
X332200Y-255763D02*
X332200Y-261787D01*
D11*
X328200Y-258775D03*
X324200Y-258775D03*
X320200Y-258775D03*
X316200Y-258775D03*
X312200Y-258775D03*
X308200Y-258775D03*
X304200Y-258775D03*
X300200Y-258775D03*
X296200Y-258775D03*
X292200Y-258775D03*
X288200Y-258775D03*
X284200Y-258775D03*
D10*
X280200Y-255763D02*
X280200Y-261787D01*
X277426Y-264500D02*
X271402Y-264500D01*
D12*
X274414Y-268500D03*
X274414Y-272500D03*
X274414Y-276500D03*
X274414Y-280500D03*
X274414Y-284500D03*
X274414Y-288500D03*
X274414Y-292500D03*
X274414Y-296500D03*
X274414Y-300500D03*
X274414Y-304500D03*
X274414Y-308500D03*
X274414Y-312500D03*
X274414Y-316500D03*
X274414Y-320500D03*
X274414Y-324500D03*
X274414Y-328500D03*
X274414Y-332500D03*
X274414Y-336500D03*
X274414Y-340500D03*
X274414Y-344500D03*
X274414Y-348500D03*
X274414Y-352500D03*
D10*
X277426Y-356500D02*
X271402Y-356500D01*
X280200Y-359213D02*
X280200Y-365237D01*
D11*
X284200Y-362225D03*
X288200Y-362225D03*
X292200Y-362225D03*
X296200Y-362225D03*
X300200Y-362225D03*
X304200Y-362225D03*
X308200Y-362225D03*
X312200Y-362225D03*
X316200Y-362225D03*
X320200Y-362225D03*
X324200Y-362225D03*
X328200Y-362225D03*
D10*
X332200Y-359213D02*
X332200Y-365237D01*
X334974Y-356500D02*
X340998Y-356500D01*
D12*
X337986Y-352500D03*
X337986Y-348500D03*
X337986Y-344500D03*
X337986Y-340500D03*
X337986Y-336500D03*
X337986Y-332500D03*
X337986Y-328500D03*
X337986Y-324500D03*
X337986Y-320500D03*
X337986Y-316500D03*
X337986Y-312500D03*
X337986Y-308500D03*
X337986Y-304500D03*
X337986Y-300500D03*
X337986Y-296500D03*
X337986Y-292500D03*
X337986Y-288500D03*
X337986Y-284500D03*
X337986Y-280500D03*
X337986Y-276500D03*
X337986Y-272500D03*
X337986Y-268500D03*
D10*
X340998Y-264500D02*
X334974Y-264500D01*
D13*
X306200Y-310500D03*
D14*
X222000Y-874950D03*
X222000Y-887650D03*
X222000Y-900350D03*
X222000Y-913050D03*
D15*
X261500Y-894000D03*
D16*
X165950Y-929000D03*
X178650Y-929000D03*
X191350Y-929000D03*
X204050Y-929000D03*
D17*
X185000Y-889500D03*
D16*
X165950Y-829000D03*
X178650Y-829000D03*
X191350Y-829000D03*
X204050Y-829000D03*
D17*
X185000Y-789500D03*
D14*
X222000Y-774950D03*
X222000Y-787650D03*
X222000Y-800350D03*
X222000Y-813050D03*
D15*
X261500Y-794000D03*
D14*
X222000Y-674950D03*
X222000Y-687650D03*
X222000Y-700350D03*
X222000Y-713050D03*
D15*
X261500Y-694000D03*
D14*
X222000Y-574950D03*
X222000Y-587650D03*
X222000Y-600350D03*
X222000Y-613050D03*
D15*
X261500Y-594000D03*
D16*
X165950Y-629000D03*
X178650Y-629000D03*
X191350Y-629000D03*
X204050Y-629000D03*
D17*
X185000Y-589500D03*
D16*
X165950Y-729000D03*
X178650Y-729000D03*
X191350Y-729000D03*
X204050Y-729000D03*
D17*
X185000Y-689500D03*
D14*
X303750Y-984300D03*
X303750Y-971600D03*
X303750Y-958900D03*
X303750Y-946200D03*
D15*
X264250Y-965250D03*
D18*
X211100Y-62700D03*
X211100Y-37300D03*
X236500Y-62700D03*
X236500Y-37300D03*
X261900Y-62700D03*
X261900Y-37300D03*
X287300Y-62700D03*
X287300Y-37300D03*
X312700Y-62700D03*
X312700Y-37300D03*
X338100Y-62700D03*
X338100Y-37300D03*
X363500Y-62700D03*
X363500Y-37300D03*
X388900Y-62700D03*
X388900Y-37300D03*
D14*
X417750Y-984800D03*
X417750Y-972100D03*
X417750Y-959400D03*
X417750Y-946700D03*
D15*
X378250Y-965750D03*
D19*
X416000Y-386000D03*
X416000Y-367000D03*
D20*
X365700Y-524380D02*
X365700Y-539620D01*
X340300Y-539620D02*
X340300Y-524380D01*
D21*
X369431Y-604000D03*
X369431Y-596000D03*
X369431Y-588000D03*
X369431Y-580000D03*
X330569Y-580000D03*
X330569Y-588000D03*
X330569Y-596000D03*
X330569Y-604000D03*
D22*
X350000Y-592000D03*
D23*
X379750Y-640000D03*
X379750Y-623000D03*
D24*
X444500Y-522750D03*
X444500Y-532250D03*
X444500Y-541750D03*
X470500Y-541750D03*
X470500Y-522750D03*
D25*
X405000Y-505875D03*
X405000Y-473125D03*
D19*
X420000Y-544500D03*
X420000Y-525500D03*
X398250Y-525500D03*
X398250Y-544500D03*
D26*
X470000Y-490500D03*
X430000Y-490500D03*
D23*
X79000Y-340000D03*
X96000Y-340000D03*
X79000Y-319000D03*
X96000Y-319000D03*
D27*
X514250Y-720150D03*
D28*
X514250Y-796350D03*
D20*
X37620Y-384200D02*
X22380Y-384200D01*
X22380Y-409600D02*
X37620Y-409600D01*
X37620Y-435000D02*
X22380Y-435000D01*
X22380Y-460400D02*
X37620Y-460400D01*
X37620Y-485800D02*
X22380Y-485800D01*
X562380Y-126900D02*
X577620Y-126900D01*
X577620Y-152300D02*
X562380Y-152300D01*
X562380Y-177700D02*
X577620Y-177700D01*
X577620Y-203100D02*
X562380Y-203100D01*
X37620Y-249200D02*
X22380Y-249200D01*
X22380Y-274600D02*
X37620Y-274600D01*
X37620Y-300000D02*
X22380Y-300000D01*
X22380Y-325400D02*
X37620Y-325400D01*
X37620Y-350800D02*
X22380Y-350800D01*
D23*
X395750Y-442500D03*
X378750Y-442500D03*
D29*
X377500Y-400750D03*
X377500Y-377750D03*
X358500Y-377750D03*
X358500Y-400750D03*
D30*
X565500Y-433500D03*
X544500Y-433500D03*
D23*
X527500Y-433500D03*
X510500Y-433500D03*
X79000Y-403000D03*
X96000Y-403000D03*
X79000Y-382000D03*
X96000Y-382000D03*
X79000Y-361000D03*
X96000Y-361000D03*
D31*
X81278Y-653200D02*
X60323Y-653200D01*
X60323Y-729400D02*
X81278Y-729400D01*
X81278Y-805600D02*
X60323Y-805600D01*
X60323Y-881800D02*
X81278Y-881800D01*
X185700Y-1018723D02*
X185700Y-1039678D01*
X261900Y-1039678D02*
X261900Y-1018723D01*
X338100Y-1018723D02*
X338100Y-1039678D01*
X414300Y-1039678D02*
X414300Y-1018723D01*
D32*
X416250Y-903500D03*
X406750Y-903500D03*
X397250Y-903500D03*
X397250Y-929500D03*
X416250Y-929500D03*
D23*
X395750Y-421500D03*
X378750Y-421500D03*
D33*
X295375Y-409000D03*
X262625Y-409000D03*
D19*
X491750Y-543750D03*
X491750Y-524750D03*
D34*
X50000Y-550000D03*
X50000Y-50000D03*
X550000Y-550000D03*
X550000Y-50000D03*
D23*
X79000Y-298000D03*
X96000Y-298000D03*
D25*
X349000Y-156625D03*
X349000Y-189375D03*
D35*
X329000Y-175500D03*
X329000Y-158500D03*
D36*
X440750Y-643750D03*
X440750Y-583750D03*
D37*
X217500Y-109630D03*
X217500Y-124870D03*
D38*
X217500Y-117250D03*
D39*
X572700Y-293150D03*
X547300Y-293150D03*
X572700Y-267750D03*
X547300Y-267750D03*
X572700Y-242350D03*
X547300Y-242350D03*
X435450Y-275850D03*
X410050Y-275850D03*
X435450Y-250450D03*
X410050Y-250450D03*
X435450Y-225050D03*
X410050Y-225050D03*
X435450Y-199650D03*
X410050Y-199650D03*
D23*
X298250Y-575750D03*
X315250Y-575750D03*
X298250Y-602750D03*
X315250Y-602750D03*
D21*
X369431Y-704000D03*
X369431Y-696000D03*
X369431Y-688000D03*
X369431Y-680000D03*
X330569Y-680000D03*
X330569Y-688000D03*
X330569Y-696000D03*
X330569Y-704000D03*
D22*
X350000Y-692000D03*
D35*
X408500Y-709750D03*
X391500Y-709750D03*
D23*
X298250Y-675750D03*
X315250Y-675750D03*
X298250Y-702750D03*
X315250Y-702750D03*
D21*
X369431Y-804000D03*
X369431Y-796000D03*
X369431Y-788000D03*
X369431Y-780000D03*
X330569Y-780000D03*
X330569Y-788000D03*
X330569Y-796000D03*
X330569Y-804000D03*
D22*
X350000Y-792000D03*
D35*
X408500Y-804500D03*
X391500Y-804500D03*
D23*
X298250Y-775750D03*
X315250Y-775750D03*
X298250Y-802750D03*
X315250Y-802750D03*
D21*
X369431Y-904000D03*
X369431Y-896000D03*
X369431Y-888000D03*
X369431Y-880000D03*
X330569Y-880000D03*
X330569Y-888000D03*
X330569Y-896000D03*
X330569Y-904000D03*
D22*
X350000Y-892000D03*
D35*
X421000Y-886500D03*
X404000Y-886500D03*
D23*
X298250Y-875750D03*
X315250Y-875750D03*
X298250Y-902750D03*
X315250Y-902750D03*
D34*
X50000Y-1050000D03*
X550000Y-1050000D03*
D40*
X514250Y-967100D03*
D28*
X514250Y-890900D03*
D20*
X193370Y-270450D02*
X178130Y-270450D01*
X178130Y-245050D02*
X193370Y-245050D01*
X562380Y-329600D02*
X577620Y-329600D01*
X577620Y-355000D02*
X562380Y-355000D01*
X562380Y-380400D02*
X577620Y-380400D01*
D41*
X555713Y-651050D03*
X555713Y-638350D03*
X555713Y-625650D03*
X555713Y-612950D03*
X501287Y-612950D03*
X501287Y-625650D03*
X501287Y-638350D03*
X501287Y-651050D03*
D35*
X390500Y-121500D03*
X390500Y-104500D03*
D33*
X455875Y-671750D03*
X423125Y-671750D03*
D20*
X482700Y-57620D02*
X482700Y-42380D01*
X457300Y-42380D02*
X457300Y-57620D01*
D39*
X52700Y-196850D03*
X27300Y-196850D03*
X52700Y-171450D03*
X27300Y-171450D03*
X52700Y-146050D03*
X27300Y-146050D03*
X52700Y-120650D03*
X27300Y-120650D03*
D42*
X101300Y-120850D03*
X126700Y-120850D03*
X101300Y-146250D03*
X126700Y-146250D03*
X101300Y-171650D03*
X126700Y-171650D03*
D43*
X507250Y-471250D03*
X569250Y-471250D03*
D44*
X144050Y-582259D03*
X131350Y-582259D03*
X118650Y-582259D03*
X105950Y-582259D03*
X105950Y-636742D03*
X118650Y-636742D03*
X131350Y-636742D03*
X144050Y-636742D03*
X144550Y-771259D03*
X131850Y-771259D03*
X119150Y-771259D03*
X106450Y-771259D03*
X106450Y-825742D03*
X119150Y-825742D03*
X131850Y-825742D03*
X144550Y-825742D03*
D35*
X168000Y-458000D03*
X168000Y-441000D03*
D45*
X173000Y-335250D03*
X166500Y-335250D03*
X160000Y-335250D03*
X153500Y-335250D03*
X147000Y-335250D03*
X140500Y-335250D03*
X134000Y-335250D03*
X134000Y-392750D03*
X140500Y-392750D03*
X147000Y-392750D03*
X153500Y-392750D03*
X160000Y-392750D03*
X166500Y-392750D03*
X173000Y-392750D03*
D46*
X193750Y-434000D03*
X193750Y-440500D03*
X193750Y-447000D03*
X193750Y-453500D03*
X193750Y-460000D03*
X193750Y-466500D03*
X193750Y-473000D03*
X251250Y-473000D03*
X251250Y-466500D03*
X251250Y-460000D03*
X251250Y-453500D03*
X251250Y-447000D03*
X251250Y-440500D03*
X251250Y-434000D03*
D33*
X295375Y-427500D03*
X262625Y-427500D03*
D23*
X178500Y-474000D03*
X178500Y-491000D03*
D35*
X17000Y-590000D03*
X17000Y-607000D03*
D47*
X132888Y-62700D02*
X147112Y-62700D01*
X147112Y-37300D02*
X132888Y-37300D01*
D48*
X426886Y-450988D03*
X450000Y-450988D03*
X473114Y-450988D03*
D49*
X450000Y-389010D03*
D48*
X102886Y-514488D03*
X126000Y-514488D03*
X149114Y-514488D03*
D49*
X126000Y-452510D03*
D50*
X297000Y-559000D03*
X317000Y-559000D03*
X297000Y-659000D03*
X317000Y-659000D03*
X297000Y-759000D03*
X317000Y-759000D03*
X297000Y-859000D03*
X317000Y-859000D03*
X295000Y-719000D03*
X315000Y-719000D03*
X296000Y-619000D03*
X316000Y-619000D03*
X295000Y-819000D03*
X315000Y-819000D03*
X296000Y-920000D03*
X316000Y-920000D03*
M02*
