G04 #@! TF.GenerationSoftware,KiCad,Pcbnew,8.0.3*
G04 #@! TF.CreationDate,2024-11-24T16:31:50-07:00*
G04 #@! TF.ProjectId,FET-Board-V1,4645542d-426f-4617-9264-2d56312e6b69,rev?*
G04 #@! TF.SameCoordinates,Original*
G04 #@! TF.FileFunction,OtherDrawing,Comment*
%FSLAX46Y46*%
G04 Gerber Fmt 4.6, Leading zero omitted, Abs format (unit mm)*
G04 Created by KiCad (PCBNEW 8.0.3) date 2024-11-24 16:31:50*
%MOMM*%
%LPD*%
G01*
G04 APERTURE LIST*
%ADD10C,0.100000*%
G04 APERTURE END LIST*
D10*
X188870714Y-145361109D02*
X188870714Y-144861109D01*
X188870714Y-144861109D02*
X189061190Y-144861109D01*
X189061190Y-144861109D02*
X189108809Y-144884919D01*
X189108809Y-144884919D02*
X189132619Y-144908728D01*
X189132619Y-144908728D02*
X189156428Y-144956347D01*
X189156428Y-144956347D02*
X189156428Y-145027776D01*
X189156428Y-145027776D02*
X189132619Y-145075395D01*
X189132619Y-145075395D02*
X189108809Y-145099204D01*
X189108809Y-145099204D02*
X189061190Y-145123014D01*
X189061190Y-145123014D02*
X188870714Y-145123014D01*
X189656428Y-145313490D02*
X189632619Y-145337300D01*
X189632619Y-145337300D02*
X189561190Y-145361109D01*
X189561190Y-145361109D02*
X189513571Y-145361109D01*
X189513571Y-145361109D02*
X189442143Y-145337300D01*
X189442143Y-145337300D02*
X189394524Y-145289680D01*
X189394524Y-145289680D02*
X189370714Y-145242061D01*
X189370714Y-145242061D02*
X189346905Y-145146823D01*
X189346905Y-145146823D02*
X189346905Y-145075395D01*
X189346905Y-145075395D02*
X189370714Y-144980157D01*
X189370714Y-144980157D02*
X189394524Y-144932538D01*
X189394524Y-144932538D02*
X189442143Y-144884919D01*
X189442143Y-144884919D02*
X189513571Y-144861109D01*
X189513571Y-144861109D02*
X189561190Y-144861109D01*
X189561190Y-144861109D02*
X189632619Y-144884919D01*
X189632619Y-144884919D02*
X189656428Y-144908728D01*
X190037381Y-145099204D02*
X190108809Y-145123014D01*
X190108809Y-145123014D02*
X190132619Y-145146823D01*
X190132619Y-145146823D02*
X190156428Y-145194442D01*
X190156428Y-145194442D02*
X190156428Y-145265871D01*
X190156428Y-145265871D02*
X190132619Y-145313490D01*
X190132619Y-145313490D02*
X190108809Y-145337300D01*
X190108809Y-145337300D02*
X190061190Y-145361109D01*
X190061190Y-145361109D02*
X189870714Y-145361109D01*
X189870714Y-145361109D02*
X189870714Y-144861109D01*
X189870714Y-144861109D02*
X190037381Y-144861109D01*
X190037381Y-144861109D02*
X190085000Y-144884919D01*
X190085000Y-144884919D02*
X190108809Y-144908728D01*
X190108809Y-144908728D02*
X190132619Y-144956347D01*
X190132619Y-144956347D02*
X190132619Y-145003966D01*
X190132619Y-145003966D02*
X190108809Y-145051585D01*
X190108809Y-145051585D02*
X190085000Y-145075395D01*
X190085000Y-145075395D02*
X190037381Y-145099204D01*
X190037381Y-145099204D02*
X189870714Y-145099204D01*
X190751666Y-145099204D02*
X190918333Y-145099204D01*
X190989761Y-145361109D02*
X190751666Y-145361109D01*
X190751666Y-145361109D02*
X190751666Y-144861109D01*
X190751666Y-144861109D02*
X190989761Y-144861109D01*
X191418333Y-145361109D02*
X191418333Y-144861109D01*
X191418333Y-145337300D02*
X191370714Y-145361109D01*
X191370714Y-145361109D02*
X191275476Y-145361109D01*
X191275476Y-145361109D02*
X191227857Y-145337300D01*
X191227857Y-145337300D02*
X191204047Y-145313490D01*
X191204047Y-145313490D02*
X191180238Y-145265871D01*
X191180238Y-145265871D02*
X191180238Y-145123014D01*
X191180238Y-145123014D02*
X191204047Y-145075395D01*
X191204047Y-145075395D02*
X191227857Y-145051585D01*
X191227857Y-145051585D02*
X191275476Y-145027776D01*
X191275476Y-145027776D02*
X191370714Y-145027776D01*
X191370714Y-145027776D02*
X191418333Y-145051585D01*
X191870714Y-145027776D02*
X191870714Y-145432538D01*
X191870714Y-145432538D02*
X191846904Y-145480157D01*
X191846904Y-145480157D02*
X191823095Y-145503966D01*
X191823095Y-145503966D02*
X191775476Y-145527776D01*
X191775476Y-145527776D02*
X191704047Y-145527776D01*
X191704047Y-145527776D02*
X191656428Y-145503966D01*
X191870714Y-145337300D02*
X191823095Y-145361109D01*
X191823095Y-145361109D02*
X191727857Y-145361109D01*
X191727857Y-145361109D02*
X191680238Y-145337300D01*
X191680238Y-145337300D02*
X191656428Y-145313490D01*
X191656428Y-145313490D02*
X191632619Y-145265871D01*
X191632619Y-145265871D02*
X191632619Y-145123014D01*
X191632619Y-145123014D02*
X191656428Y-145075395D01*
X191656428Y-145075395D02*
X191680238Y-145051585D01*
X191680238Y-145051585D02*
X191727857Y-145027776D01*
X191727857Y-145027776D02*
X191823095Y-145027776D01*
X191823095Y-145027776D02*
X191870714Y-145051585D01*
X192299285Y-145337300D02*
X192251666Y-145361109D01*
X192251666Y-145361109D02*
X192156428Y-145361109D01*
X192156428Y-145361109D02*
X192108809Y-145337300D01*
X192108809Y-145337300D02*
X192085000Y-145289680D01*
X192085000Y-145289680D02*
X192085000Y-145099204D01*
X192085000Y-145099204D02*
X192108809Y-145051585D01*
X192108809Y-145051585D02*
X192156428Y-145027776D01*
X192156428Y-145027776D02*
X192251666Y-145027776D01*
X192251666Y-145027776D02*
X192299285Y-145051585D01*
X192299285Y-145051585D02*
X192323095Y-145099204D01*
X192323095Y-145099204D02*
X192323095Y-145146823D01*
X192323095Y-145146823D02*
X192085000Y-145194442D01*
G04 #@! TO.C,J301*
X195585000Y-145710000D02*
X185585000Y-145710000D01*
G04 #@! TD*
M02*
