G04 #@! TF.GenerationSoftware,KiCad,Pcbnew,8.0.3*
G04 #@! TF.CreationDate,2024-11-24T16:31:49-07:00*
G04 #@! TF.ProjectId,FET-Board-V1,4645542d-426f-4617-9264-2d56312e6b69,rev?*
G04 #@! TF.SameCoordinates,Original*
G04 #@! TF.FileFunction,Legend,Bot*
G04 #@! TF.FilePolarity,Positive*
%FSLAX46Y46*%
G04 Gerber Fmt 4.6, Leading zero omitted, Abs format (unit mm)*
G04 Created by KiCad (PCBNEW 8.0.3) date 2024-11-24 16:31:49*
%MOMM*%
%LPD*%
G01*
G04 APERTURE LIST*
G04 Aperture macros list*
%AMRoundRect*
0 Rectangle with rounded corners*
0 $1 Rounding radius*
0 $2 $3 $4 $5 $6 $7 $8 $9 X,Y pos of 4 corners*
0 Add a 4 corners polygon primitive as box body*
4,1,4,$2,$3,$4,$5,$6,$7,$8,$9,$2,$3,0*
0 Add four circle primitives for the rounded corners*
1,1,$1+$1,$2,$3*
1,1,$1+$1,$4,$5*
1,1,$1+$1,$6,$7*
1,1,$1+$1,$8,$9*
0 Add four rect primitives between the rounded corners*
20,1,$1+$1,$2,$3,$4,$5,0*
20,1,$1+$1,$4,$5,$6,$7,0*
20,1,$1+$1,$6,$7,$8,$9,0*
20,1,$1+$1,$8,$9,$2,$3,0*%
G04 Aperture macros list end*
%ADD10C,2.000000*%
%ADD11RoundRect,0.102000X1.275000X1.275000X-1.275000X1.275000X-1.275000X-1.275000X1.275000X-1.275000X0*%
%ADD12C,2.754000*%
%ADD13RoundRect,0.250000X0.600000X-0.600000X0.600000X0.600000X-0.600000X0.600000X-0.600000X-0.600000X0*%
%ADD14C,1.700000*%
%ADD15RoundRect,0.102000X0.754000X-0.754000X0.754000X0.754000X-0.754000X0.754000X-0.754000X-0.754000X0*%
%ADD16C,1.712000*%
%ADD17C,4.500000*%
%ADD18O,1.500000X2.000000*%
%ADD19C,6.000000*%
%ADD20C,0.650000*%
%ADD21O,1.000000X2.100000*%
%ADD22O,1.000000X1.800000*%
%ADD23C,3.500000*%
G04 APERTURE END LIST*
%LPC*%
D10*
G04 #@! TO.C,SW201*
X197835000Y-121180000D03*
X197835000Y-114680000D03*
X202335000Y-121180000D03*
X202335000Y-114680000D03*
G04 #@! TD*
D11*
G04 #@! TO.C,J403*
X169395000Y-64180000D03*
D12*
X163045000Y-54680000D03*
G04 #@! TD*
D13*
G04 #@! TO.C,J201*
X163755000Y-140720000D03*
D14*
X163755000Y-138180000D03*
X166295000Y-140720000D03*
X166295000Y-138180000D03*
X168835000Y-140720000D03*
X168835000Y-138180000D03*
X171375000Y-140720000D03*
X171375000Y-138180000D03*
X173915000Y-140720000D03*
X173915000Y-138180000D03*
G04 #@! TD*
D15*
G04 #@! TO.C,PS301*
X178085000Y-107280000D03*
D16*
X178085000Y-104740000D03*
X178085000Y-102200000D03*
X178085000Y-99660000D03*
G04 #@! TD*
D17*
G04 #@! TO.C,U302*
X117930000Y-133780000D03*
X151230000Y-133780000D03*
D18*
X133180000Y-133140000D03*
X135950000Y-133085000D03*
X131795000Y-135980000D03*
X134565000Y-135980000D03*
X137335000Y-135980000D03*
D19*
X127693000Y-133180000D03*
X141413000Y-133180000D03*
G04 #@! TD*
D20*
G04 #@! TO.C,J301*
X187695000Y-139430000D03*
X193475000Y-139430000D03*
D21*
X186265000Y-138930000D03*
D22*
X186265000Y-143110000D03*
D21*
X194905000Y-138930000D03*
D22*
X194905000Y-143110000D03*
G04 #@! TD*
D23*
G04 #@! TO.C,H101*
X108835000Y-49680000D03*
G04 #@! TD*
G04 #@! TO.C,H102*
X108835000Y-141680000D03*
G04 #@! TD*
G04 #@! TO.C,H103*
X200835000Y-49680000D03*
G04 #@! TD*
G04 #@! TO.C,H104*
X200835000Y-141680000D03*
G04 #@! TD*
D11*
G04 #@! TO.C,J402*
X146625000Y-64180000D03*
D12*
X140275000Y-54680000D03*
G04 #@! TD*
D11*
G04 #@! TO.C,J401*
X123855000Y-64180000D03*
D12*
X117505000Y-54680000D03*
G04 #@! TD*
D11*
G04 #@! TO.C,J404*
X192165000Y-64180000D03*
D12*
X185815000Y-54680000D03*
G04 #@! TD*
G36*
X163778039Y-79199685D02*
G01*
X163823794Y-79252489D01*
X163835000Y-79304000D01*
X163835000Y-90556000D01*
X163815315Y-90623039D01*
X163762511Y-90668794D01*
X163711000Y-90680000D01*
X155709000Y-90680000D01*
X155641961Y-90660315D01*
X155596206Y-90607511D01*
X155585000Y-90556000D01*
X155585000Y-79304000D01*
X155604685Y-79236961D01*
X155657489Y-79191206D01*
X155709000Y-79180000D01*
X163711000Y-79180000D01*
X163778039Y-79199685D01*
G37*
G36*
X135778039Y-79199685D02*
G01*
X135823794Y-79252489D01*
X135835000Y-79304000D01*
X135835000Y-90556000D01*
X135815315Y-90623039D01*
X135762511Y-90668794D01*
X135711000Y-90680000D01*
X126959000Y-90680000D01*
X126891961Y-90660315D01*
X126846206Y-90607511D01*
X126835000Y-90556000D01*
X126835000Y-79304000D01*
X126854685Y-79236961D01*
X126907489Y-79191206D01*
X126959000Y-79180000D01*
X135711000Y-79180000D01*
X135778039Y-79199685D01*
G37*
%LPD*%
M02*
