M48
; DRILL file {KiCad 8.0.3} date 2024-11-24T16:31:50-0700
; FORMAT={-:-/ absolute / metric / decimal}
; #@! TF.CreationDate,2024-11-24T16:31:50-07:00
; #@! TF.GenerationSoftware,Kicad,Pcbnew,8.0.3
; #@! TF.FileFunction,Plated,1,2,PTH
FMAT,2
METRIC
; #@! TA.AperFunction,Plated,PTH,ViaDrill
T1C0.300
; #@! TA.AperFunction,Plated,PTH,ComponentDrill
T2C0.600
; #@! TA.AperFunction,Plated,PTH,ComponentDrill
T3C1.000
; #@! TA.AperFunction,Plated,PTH,ComponentDrill
T4C1.100
; #@! TA.AperFunction,Plated,PTH,ComponentDrill
T5C1.700
; #@! TA.AperFunction,Plated,PTH,ComponentDrill
T6C3.000
; #@! TA.AperFunction,Plated,PTH,ComponentDrill
T7C4.000
%
G90
G05
T1
X107.35Y-53.992
X107.35Y-56.532
X107.35Y-59.072
X107.35Y-61.612
X107.35Y-64.152
X107.35Y-66.692
X107.35Y-69.232
X107.35Y-71.772
X107.35Y-74.312
X107.35Y-76.852
X107.35Y-79.392
X107.35Y-81.932
X107.35Y-84.472
X107.35Y-87.012
X107.35Y-89.552
X107.35Y-92.092
X107.35Y-94.632
X107.35Y-97.172
X107.35Y-99.712
X107.35Y-102.252
X107.35Y-104.792
X107.35Y-107.332
X107.35Y-109.872
X107.35Y-112.412
X107.35Y-114.952
X107.35Y-117.492
X107.35Y-120.032
X107.35Y-122.572
X107.35Y-125.112
X107.35Y-127.652
X107.35Y-130.192
X107.35Y-132.732
X107.35Y-135.272
X109.89Y-53.992
X109.89Y-56.532
X109.89Y-59.072
X109.89Y-61.612
X109.89Y-64.152
X109.89Y-66.692
X109.89Y-69.232
X109.89Y-71.772
X109.89Y-74.312
X109.89Y-76.852
X109.89Y-79.392
X109.89Y-81.932
X109.89Y-84.472
X109.89Y-87.012
X109.89Y-89.552
X109.89Y-92.092
X109.89Y-94.632
X109.89Y-99.712
X109.89Y-102.252
X109.89Y-104.792
X109.89Y-107.332
X109.89Y-112.412
X109.89Y-114.952
X109.89Y-117.492
X109.89Y-120.032
X109.89Y-122.572
X109.89Y-125.112
X109.89Y-127.652
X109.89Y-130.192
X109.89Y-132.732
X109.89Y-135.272
X112.43Y-53.992
X112.43Y-56.532
X112.43Y-59.072
X112.43Y-61.612
X112.43Y-64.152
X112.43Y-66.692
X112.43Y-69.232
X112.43Y-71.772
X112.43Y-74.312
X112.43Y-76.852
X112.43Y-79.392
X112.43Y-81.932
X112.43Y-84.472
X112.43Y-102.252
X112.43Y-104.792
X112.43Y-107.332
X112.43Y-114.952
X112.43Y-117.492
X112.43Y-120.032
X112.43Y-122.572
X112.43Y-125.112
X112.43Y-127.652
X112.43Y-130.192
X112.43Y-132.732
X112.43Y-135.272
X112.43Y-137.812
X114.085Y-102.43
X114.585Y-96.93
X114.835Y-142.18
X114.97Y-48.912
X114.97Y-51.452
X114.97Y-53.992
X114.97Y-56.532
X114.97Y-59.072
X114.97Y-61.612
X114.97Y-89.552
X114.97Y-94.632
X114.97Y-102.252
X114.97Y-104.792
X114.97Y-107.332
X114.97Y-117.492
X114.97Y-120.032
X114.97Y-122.572
X114.97Y-125.112
X114.97Y-127.652
X114.97Y-130.192
X115.33Y-84.185
X115.335Y-64.18
X116.835Y-111.93
X117.335Y-92.43
X117.51Y-48.912
X117.51Y-51.452
X117.51Y-56.532
X117.51Y-59.072
X117.51Y-61.612
X117.51Y-66.692
X117.51Y-69.232
X117.51Y-71.772
X117.51Y-74.312
X117.51Y-76.852
X117.51Y-79.392
X117.51Y-81.932
X117.51Y-84.472
X117.51Y-87.012
X117.51Y-89.552
X117.51Y-94.632
X117.51Y-99.712
X117.51Y-102.252
X117.51Y-104.792
X117.51Y-107.332
X117.51Y-114.952
X117.51Y-117.492
X117.51Y-120.032
X117.51Y-122.572
X117.51Y-125.112
X117.51Y-127.652
X117.51Y-130.192
X117.51Y-137.812
X117.51Y-140.352
X117.51Y-142.892
X119.585Y-77.68
X120.05Y-48.912
X120.05Y-51.452
X120.05Y-53.992
X120.05Y-56.532
X120.05Y-59.072
X120.05Y-92.092
X120.05Y-94.632
X120.05Y-97.172
X120.05Y-102.252
X120.05Y-104.792
X120.05Y-107.332
X120.05Y-109.872
X120.05Y-117.492
X120.05Y-120.032
X120.05Y-122.572
X120.05Y-125.112
X120.05Y-127.652
X120.05Y-130.192
X120.05Y-137.812
X120.05Y-140.352
X120.05Y-142.892
X122.045Y-82.06
X122.045Y-84.6
X122.045Y-87.14
X122.045Y-89.68
X122.205Y-117.6
X122.335Y-110.68
X122.46Y-104.555
X122.524Y-77.741
X122.59Y-48.912
X122.59Y-51.452
X122.59Y-53.992
X122.59Y-56.532
X122.59Y-59.072
X122.59Y-92.092
X122.59Y-102.252
X122.59Y-120.032
X122.59Y-130.192
X122.59Y-132.732
X122.59Y-135.272
X122.59Y-137.812
X122.59Y-140.352
X122.59Y-142.892
X123.043Y-93.472
X123.335Y-111.18
X123.335Y-114.68
X123.835Y-95.18
X123.842Y-142.723
X123.967Y-126.169
X124.085Y-100.18
X124.085Y-102.68
X124.585Y-82.06
X124.585Y-84.6
X124.585Y-87.14
X124.585Y-89.68
X125.106Y-73.45
X125.13Y-48.912
X125.13Y-51.452
X125.13Y-53.992
X125.13Y-56.532
X125.13Y-59.072
X125.13Y-92.092
X125.13Y-102.252
X125.13Y-107.332
X125.13Y-109.872
X125.13Y-112.412
X125.13Y-137.812
X125.13Y-140.352
X125.705Y-72.97
X126.585Y-108.18
X127.125Y-82.06
X127.125Y-84.6
X127.125Y-87.14
X127.125Y-89.68
X127.415Y-111.17
X127.67Y-48.912
X127.67Y-51.452
X127.67Y-53.992
X127.67Y-56.532
X127.67Y-59.072
X127.67Y-92.092
X127.67Y-94.632
X127.67Y-102.252
X127.67Y-107.332
X127.67Y-112.412
X127.67Y-117.492
X127.67Y-120.032
X127.67Y-122.572
X127.67Y-137.812
X127.67Y-140.352
X128.585Y-115.43
X128.835Y-113.93
X128.86Y-117.63
X129.335Y-111.18
X129.665Y-82.06
X129.665Y-84.6
X129.665Y-87.14
X129.665Y-89.68
X130.122Y-126.199
X130.21Y-48.912
X130.21Y-51.452
X130.21Y-53.992
X130.21Y-56.532
X130.21Y-59.072
X130.21Y-61.612
X130.21Y-64.152
X130.21Y-66.692
X130.21Y-69.232
X130.21Y-71.772
X130.21Y-74.312
X130.21Y-76.852
X130.21Y-92.092
X130.21Y-94.632
X130.21Y-102.252
X130.21Y-107.332
X130.21Y-112.412
X130.21Y-130.192
X130.21Y-140.352
X130.585Y-110.43
X131.585Y-98.93
X131.585Y-102.68
X132.205Y-82.06
X132.205Y-84.6
X132.205Y-87.14
X132.205Y-89.68
X132.75Y-48.912
X132.75Y-51.452
X132.75Y-53.992
X132.75Y-56.532
X132.75Y-59.072
X132.75Y-61.612
X132.75Y-64.152
X132.75Y-66.692
X132.75Y-69.232
X132.75Y-71.772
X132.75Y-74.312
X132.75Y-76.852
X132.75Y-92.092
X132.75Y-94.632
X132.75Y-97.172
X132.75Y-102.252
X132.75Y-107.332
X132.75Y-109.872
X132.75Y-112.412
X132.75Y-125.112
X132.75Y-140.352
X134.745Y-82.06
X134.745Y-84.6
X134.745Y-87.14
X134.745Y-89.68
X135.085Y-113.93
X135.29Y-48.912
X135.29Y-51.452
X135.29Y-53.992
X135.29Y-56.532
X135.29Y-59.072
X135.29Y-61.612
X135.29Y-64.152
X135.29Y-66.692
X135.29Y-69.232
X135.29Y-71.772
X135.29Y-74.312
X135.29Y-76.852
X135.29Y-92.092
X135.29Y-97.172
X135.29Y-102.252
X135.29Y-107.332
X135.29Y-109.872
X135.29Y-112.412
X135.29Y-127.652
X135.29Y-130.192
X135.29Y-140.352
X136.015Y-95.31
X136.335Y-78.68
X136.335Y-91.93
X137.085Y-100.18
X137.285Y-82.06
X137.285Y-84.6
X137.285Y-87.14
X137.285Y-89.68
X137.335Y-102.68
X137.515Y-74.11
X137.83Y-48.912
X137.83Y-51.452
X137.83Y-53.992
X137.83Y-56.532
X137.83Y-59.072
X137.83Y-61.612
X137.83Y-64.152
X137.83Y-66.692
X137.83Y-107.332
X137.83Y-112.412
X137.83Y-114.952
X137.83Y-117.492
X137.83Y-137.812
X137.83Y-140.352
X137.835Y-71.93
X138.085Y-105.18
X138.085Y-110.43
X138.835Y-111.18
X138.835Y-116.93
X138.835Y-118.68
X139.425Y-127.59
X139.45Y-125.3
X139.585Y-111.43
X139.825Y-82.06
X139.825Y-84.6
X139.825Y-87.14
X139.825Y-89.68
X140.085Y-92.43
X140.085Y-101.93
X140.217Y-124.93
X140.37Y-48.912
X140.37Y-51.452
X140.37Y-56.532
X140.37Y-59.072
X140.37Y-61.612
X140.37Y-64.152
X140.37Y-66.692
X140.37Y-107.332
X140.37Y-114.952
X140.37Y-117.492
X140.37Y-137.812
X140.37Y-140.352
X140.865Y-128.39
X141.825Y-123.53
X141.835Y-124.23
X141.845Y-122.85
X142.365Y-82.06
X142.365Y-84.6
X142.365Y-87.14
X142.365Y-89.68
X142.835Y-70.68
X142.835Y-72.18
X142.91Y-48.912
X142.91Y-51.452
X142.91Y-53.992
X142.91Y-56.532
X142.91Y-59.072
X142.91Y-61.612
X142.91Y-64.152
X142.91Y-66.692
X142.91Y-69.232
X142.91Y-92.092
X142.91Y-94.632
X142.91Y-102.252
X142.91Y-107.332
X142.91Y-114.952
X142.91Y-117.492
X142.91Y-137.812
X142.91Y-140.352
X143.375Y-111.02
X143.549Y-110.27
X144.335Y-111.43
X144.585Y-98.93
X144.585Y-102.43
X144.905Y-82.06
X144.905Y-84.6
X144.905Y-87.14
X144.905Y-89.68
X145.45Y-48.912
X145.45Y-51.452
X145.45Y-53.992
X145.45Y-56.532
X145.45Y-59.072
X145.45Y-92.092
X145.45Y-94.632
X145.45Y-99.712
X145.45Y-102.252
X145.45Y-132.732
X145.45Y-135.272
X145.45Y-137.812
X145.45Y-140.352
X145.835Y-104.68
X145.835Y-116.93
X147.445Y-82.06
X147.445Y-84.6
X147.445Y-87.14
X147.445Y-89.68
X147.99Y-48.912
X147.99Y-51.452
X147.99Y-53.992
X147.99Y-56.532
X147.99Y-59.072
X147.99Y-92.092
X147.99Y-94.632
X147.99Y-97.172
X147.99Y-99.712
X147.99Y-102.252
X147.99Y-132.732
X147.99Y-135.272
X147.99Y-137.812
X147.99Y-140.352
X148.585Y-126.18
X148.835Y-110.822
X149.585Y-107.93
X149.585Y-109.93
X149.585Y-113.68
X149.585Y-124.23
X149.595Y-122.9
X149.595Y-123.56
X149.635Y-108.63
X149.835Y-70.93
X149.835Y-92.43
X149.835Y-129.93
X149.985Y-82.06
X149.985Y-84.6
X149.985Y-87.14
X149.985Y-89.68
X150.05Y-125.18
X150.085Y-104.68
X150.335Y-128.43
X150.482Y-108.052
X150.53Y-48.912
X150.53Y-51.452
X150.53Y-53.992
X150.53Y-56.532
X150.53Y-59.072
X150.53Y-99.712
X150.53Y-102.252
X150.53Y-137.812
X150.53Y-140.352
X150.825Y-122.9
X150.835Y-123.56
X150.835Y-124.23
X151.085Y-129.93
X152.525Y-82.06
X152.525Y-84.6
X152.525Y-87.14
X152.525Y-89.68
X153.07Y-48.912
X153.07Y-51.452
X153.07Y-53.992
X153.07Y-56.532
X153.07Y-59.072
X153.07Y-61.612
X153.07Y-64.152
X153.07Y-66.692
X153.07Y-69.232
X153.07Y-71.772
X153.07Y-102.252
X153.07Y-107.332
X153.07Y-112.412
X153.07Y-114.952
X153.07Y-117.492
X153.07Y-137.812
X153.07Y-140.352
X153.085Y-100.18
X153.335Y-93.68
X153.335Y-96.68
X155.065Y-82.06
X155.065Y-84.6
X155.065Y-87.14
X155.065Y-89.68
X155.61Y-48.912
X155.61Y-51.452
X155.61Y-53.992
X155.61Y-56.532
X155.61Y-59.072
X155.61Y-61.612
X155.61Y-64.152
X155.61Y-66.692
X155.61Y-69.232
X155.61Y-71.772
X155.61Y-92.092
X155.61Y-99.712
X155.61Y-102.252
X155.61Y-107.332
X155.61Y-109.872
X155.61Y-112.412
X155.61Y-114.952
X155.61Y-117.492
X155.61Y-132.732
X155.61Y-135.272
X155.61Y-137.812
X155.61Y-140.352
X156.335Y-129.18
X156.835Y-100.18
X156.835Y-102.43
X157.335Y-93.18
X157.605Y-82.06
X157.605Y-84.6
X157.605Y-87.14
X157.605Y-89.68
X158.15Y-48.912
X158.15Y-51.452
X158.15Y-53.992
X158.15Y-56.532
X158.15Y-59.072
X158.15Y-61.612
X158.15Y-64.152
X158.15Y-66.692
X158.15Y-69.232
X158.15Y-71.772
X158.15Y-74.312
X158.15Y-76.852
X158.15Y-92.092
X158.15Y-99.712
X158.15Y-102.252
X158.15Y-107.332
X158.15Y-109.872
X158.15Y-112.412
X158.15Y-114.952
X158.15Y-117.492
X158.15Y-127.652
X158.15Y-132.732
X158.15Y-135.272
X158.15Y-137.812
X158.15Y-140.352
X158.825Y-122.86
X158.825Y-123.53
X158.835Y-124.23
X160.145Y-82.06
X160.145Y-84.6
X160.145Y-87.14
X160.145Y-89.68
X160.69Y-48.912
X160.69Y-92.092
X160.69Y-99.712
X160.69Y-102.252
X160.69Y-107.332
X160.69Y-109.872
X160.69Y-112.412
X160.69Y-114.952
X160.69Y-117.492
X160.69Y-120.032
X160.69Y-122.572
X160.69Y-127.652
X160.69Y-132.732
X160.69Y-135.272
X160.69Y-137.812
X160.69Y-140.352
X162.565Y-132.31
X162.685Y-82.06
X162.685Y-84.6
X162.685Y-87.14
X162.685Y-89.68
X163.23Y-48.912
X163.23Y-92.092
X163.23Y-94.632
X163.23Y-97.172
X163.23Y-99.712
X163.23Y-102.252
X163.23Y-107.332
X163.23Y-109.872
X163.23Y-112.412
X163.23Y-114.952
X163.23Y-117.492
X163.23Y-120.032
X163.23Y-122.572
X163.23Y-127.652
X163.335Y-134.43
X164.817Y-131.948
X164.835Y-98.68
X164.835Y-111.43
X164.835Y-133.68
X164.835Y-135.93
X165.225Y-82.06
X165.225Y-84.6
X165.225Y-87.14
X165.225Y-89.68
X165.335Y-133.18
X165.335Y-136.43
X165.77Y-48.912
X165.77Y-92.092
X165.77Y-94.632
X165.77Y-97.172
X165.77Y-102.252
X165.77Y-107.332
X165.77Y-112.412
X165.77Y-114.952
X165.77Y-117.492
X165.77Y-120.032
X165.77Y-122.572
X165.77Y-127.652
X165.77Y-130.192
X167.585Y-75.53
X167.765Y-82.06
X167.765Y-84.6
X167.765Y-87.14
X167.765Y-89.68
X168.31Y-48.912
X168.31Y-51.452
X168.31Y-53.992
X168.31Y-56.532
X168.31Y-59.072
X168.31Y-92.092
X168.31Y-94.632
X168.31Y-97.172
X168.31Y-102.252
X168.31Y-107.332
X168.31Y-112.412
X168.31Y-114.952
X168.31Y-117.492
X168.31Y-120.032
X168.31Y-122.572
X168.31Y-127.652
X168.31Y-130.192
X168.31Y-135.272
X168.623Y-108.14
X169.335Y-76.03
X170.305Y-82.06
X170.305Y-84.6
X170.305Y-87.14
X170.305Y-89.68
X170.85Y-48.912
X170.85Y-51.452
X170.85Y-53.992
X170.85Y-56.532
X170.85Y-59.072
X170.85Y-92.092
X170.85Y-94.632
X170.85Y-97.172
X170.85Y-99.712
X170.85Y-102.252
X170.85Y-109.872
X170.85Y-112.412
X170.85Y-114.952
X170.85Y-117.492
X170.85Y-120.032
X170.85Y-122.572
X170.85Y-127.652
X170.85Y-130.192
X170.905Y-108.105
X172.085Y-70.03
X172.085Y-125.93
X172.085Y-133.93
X172.845Y-82.06
X172.845Y-84.6
X172.845Y-87.14
X172.845Y-89.68
X173.335Y-114.93
X173.335Y-120.68
X173.335Y-124.23
X173.39Y-48.912
X173.39Y-51.452
X173.39Y-53.992
X173.39Y-56.532
X173.39Y-59.072
X173.39Y-117.492
X173.39Y-130.192
X173.39Y-135.272
X173.835Y-121.18
X173.905Y-123.86
X174.335Y-121.635
X174.345Y-123.31
X174.585Y-93.93
X174.585Y-96.43
X174.585Y-98.93
X174.585Y-102.18
X175.26Y-116.43
X175.335Y-109.18
X175.385Y-82.06
X175.385Y-84.6
X175.385Y-87.14
X175.385Y-89.68
X175.585Y-68.18
X175.835Y-105.43
X175.93Y-48.912
X175.93Y-51.452
X175.93Y-53.992
X175.93Y-56.532
X175.93Y-59.072
X175.93Y-61.612
X175.93Y-107.332
X175.93Y-112.412
X175.93Y-117.492
X175.93Y-120.032
X175.93Y-130.192
X175.93Y-135.272
X175.93Y-137.812
X175.93Y-140.352
X176.567Y-65.476
X176.785Y-127.392
X176.805Y-107.95
X176.835Y-112.18
X177.085Y-128.687
X177.374Y-128.161
X177.435Y-126.52
X177.645Y-129.83
X177.65Y-119.68
X177.925Y-82.06
X177.925Y-84.6
X177.925Y-87.14
X177.925Y-89.68
X178.085Y-142.18
X178.335Y-114.18
X178.47Y-48.912
X178.47Y-51.452
X178.47Y-53.992
X178.47Y-56.532
X178.47Y-59.072
X178.47Y-61.612
X178.47Y-109.872
X178.59Y-130.61
X178.835Y-68.18
X178.835Y-131.93
X179.085Y-113.43
X179.085Y-114.93
X179.085Y-116.43
X179.195Y-130.28
X179.315Y-107.99
X179.335Y-125.43
X179.335Y-126.68
X179.335Y-128.18
X179.335Y-142.93
X179.715Y-120.45
X179.775Y-123.57
X179.835Y-117.18
X179.88Y-114.179
X180.335Y-121.635
X180.355Y-123.32
X180.465Y-82.06
X180.465Y-84.6
X180.465Y-87.14
X180.465Y-89.68
X180.585Y-125.43
X180.585Y-126.68
X180.585Y-128.18
X180.835Y-121.18
X180.84Y-122.01
X180.85Y-130.0
X181.01Y-48.912
X181.01Y-51.452
X181.01Y-53.992
X181.01Y-56.532
X181.01Y-59.072
X181.01Y-61.612
X181.01Y-64.152
X181.01Y-66.692
X181.01Y-69.232
X181.01Y-71.772
X181.01Y-74.312
X181.01Y-76.852
X181.01Y-92.092
X181.01Y-102.252
X181.01Y-135.272
X181.01Y-137.812
X181.01Y-140.352
X181.01Y-142.892
X181.335Y-108.68
X181.345Y-107.99
X181.575Y-123.32
X181.835Y-125.43
X181.835Y-126.68
X181.835Y-128.18
X182.185Y-123.22
X183.005Y-82.06
X183.005Y-84.6
X183.005Y-87.14
X183.005Y-89.68
X183.55Y-48.912
X183.55Y-51.452
X183.55Y-53.992
X183.55Y-56.532
X183.55Y-59.072
X183.55Y-61.612
X183.55Y-64.152
X183.55Y-66.692
X183.55Y-69.232
X183.55Y-71.772
X183.55Y-74.312
X183.55Y-92.092
X183.55Y-94.632
X183.55Y-97.172
X183.55Y-102.252
X183.55Y-107.332
X183.55Y-109.872
X183.55Y-112.412
X183.55Y-114.952
X183.55Y-117.492
X183.55Y-122.572
X183.55Y-135.272
X183.55Y-137.812
X183.55Y-140.352
X183.55Y-142.892
X184.585Y-129.76
X184.585Y-134.68
X185.545Y-82.06
X185.545Y-84.6
X185.545Y-87.14
X185.545Y-89.68
X185.585Y-106.18
X185.585Y-129.43
X185.835Y-75.43
X186.09Y-48.912
X186.09Y-51.452
X186.09Y-56.532
X186.09Y-59.072
X186.09Y-61.612
X186.09Y-64.152
X186.09Y-66.692
X186.09Y-122.572
X186.09Y-132.732
X186.335Y-105.18
X186.335Y-109.93
X186.335Y-115.68
X186.765Y-135.74
X186.835Y-130.93
X187.085Y-74.93
X187.085Y-109.18
X187.335Y-136.43
X187.355Y-130.27
X187.385Y-138.355
X188.085Y-82.06
X188.085Y-84.6
X188.085Y-87.14
X188.085Y-89.68
X188.085Y-98.68
X188.085Y-100.93
X188.085Y-113.68
X188.63Y-48.912
X188.63Y-51.452
X188.63Y-53.992
X188.63Y-56.532
X188.63Y-59.072
X188.63Y-61.612
X188.63Y-64.152
X188.63Y-66.692
X188.63Y-69.232
X188.63Y-92.092
X188.63Y-94.632
X188.63Y-97.172
X188.63Y-102.252
X188.63Y-104.792
X188.63Y-107.332
X188.63Y-109.872
X188.63Y-114.952
X188.63Y-117.492
X188.63Y-122.572
X188.63Y-132.732
X188.63Y-140.352
X188.63Y-142.892
X188.835Y-77.43
X189.089Y-73.424
X190.015Y-126.63
X190.26Y-132.08
X190.585Y-136.535
X190.625Y-82.06
X190.625Y-84.6
X190.625Y-87.14
X190.625Y-89.68
X190.81Y-126.587
X190.91Y-132.08
X190.985Y-77.43
X191.17Y-48.912
X191.17Y-51.452
X191.17Y-53.992
X191.17Y-56.532
X191.17Y-59.072
X191.17Y-92.092
X191.17Y-102.252
X191.17Y-104.792
X191.17Y-107.332
X191.17Y-109.872
X191.17Y-112.412
X191.17Y-114.952
X191.17Y-117.492
X191.17Y-122.572
X191.17Y-140.352
X191.17Y-142.892
X191.585Y-95.18
X191.745Y-125.75
X191.835Y-130.43
X192.085Y-91.64
X192.315Y-131.13
X192.335Y-77.43
X192.335Y-125.18
X192.925Y-125.93
X192.925Y-127.02
X193.165Y-82.06
X193.165Y-84.6
X193.165Y-87.14
X193.165Y-89.68
X193.655Y-127.89
X193.71Y-48.912
X193.71Y-51.452
X193.71Y-53.992
X193.71Y-56.532
X193.71Y-59.072
X193.71Y-92.092
X193.71Y-94.632
X193.71Y-102.252
X193.71Y-104.792
X193.71Y-112.412
X193.71Y-114.952
X193.71Y-117.492
X193.71Y-122.572
X193.71Y-125.112
X193.71Y-130.192
X193.71Y-132.732
X193.71Y-140.352
X193.71Y-142.892
X193.785Y-138.355
X194.335Y-107.93
X195.705Y-82.06
X195.705Y-84.6
X195.705Y-87.14
X195.705Y-89.68
X196.25Y-48.912
X196.25Y-51.452
X196.25Y-53.992
X196.25Y-56.532
X196.25Y-59.072
X196.25Y-92.092
X196.25Y-94.632
X196.25Y-102.252
X196.25Y-104.792
X196.25Y-107.332
X196.25Y-112.412
X196.25Y-114.952
X196.25Y-117.492
X196.25Y-122.572
X196.25Y-125.112
X196.25Y-130.192
X196.25Y-132.732
X196.25Y-135.272
X196.25Y-137.812
X196.25Y-140.352
X196.25Y-142.892
X197.335Y-79.43
X197.335Y-101.68
X197.585Y-98.43
X198.79Y-53.992
X198.79Y-56.532
X198.79Y-59.072
X198.79Y-61.612
X198.79Y-64.152
X198.79Y-66.692
X198.79Y-69.232
X198.79Y-71.772
X198.79Y-74.312
X198.79Y-76.852
X198.79Y-79.392
X198.79Y-81.932
X198.79Y-84.472
X198.79Y-87.012
X198.79Y-89.552
X198.79Y-92.092
X198.79Y-94.632
X198.79Y-99.712
X198.79Y-102.252
X198.79Y-104.792
X198.79Y-112.412
X198.79Y-117.492
X198.79Y-122.572
X198.79Y-132.732
X198.79Y-135.272
X201.33Y-53.992
X201.33Y-56.532
X201.33Y-59.072
X201.33Y-61.612
X201.33Y-64.152
X201.33Y-66.692
X201.33Y-69.232
X201.33Y-71.772
X201.33Y-74.312
X201.33Y-76.852
X201.33Y-79.392
X201.33Y-81.932
X201.33Y-84.472
X201.33Y-87.012
X201.33Y-89.552
X201.33Y-92.092
X201.33Y-94.632
X201.33Y-97.172
X201.33Y-99.712
X201.33Y-102.252
X201.33Y-104.792
X201.33Y-107.332
X201.33Y-109.872
X201.33Y-117.492
X201.33Y-122.572
X201.33Y-132.732
X201.33Y-135.272
X203.87Y-53.992
X203.87Y-56.532
X203.87Y-59.072
X203.87Y-61.612
X203.87Y-64.152
X203.87Y-66.692
X203.87Y-69.232
X203.87Y-71.772
X203.87Y-74.312
X203.87Y-76.852
X203.87Y-79.392
X203.87Y-81.932
X203.87Y-84.472
X203.87Y-87.012
X203.87Y-89.552
X203.87Y-92.092
X203.87Y-94.632
X203.87Y-97.172
X203.87Y-99.712
X203.87Y-107.332
X203.87Y-109.872
X203.87Y-112.412
X203.87Y-114.952
X203.87Y-117.492
X203.87Y-120.032
X203.87Y-122.572
X203.87Y-125.112
X203.87Y-127.652
X203.87Y-130.192
X203.87Y-132.732
X203.87Y-135.272
X203.87Y-137.812
T3
X131.795Y-135.98
X133.18Y-133.14
X134.565Y-135.98
X135.95Y-133.085
X137.335Y-135.98
X163.755Y-138.18
X163.755Y-140.72
X166.295Y-138.18
X166.295Y-140.72
X168.835Y-138.18
X168.835Y-140.72
X171.375Y-138.18
X171.375Y-140.72
X173.915Y-138.18
X173.915Y-140.72
X178.085Y-99.66
X178.085Y-102.2
X178.085Y-104.74
X178.085Y-107.28
T4
X197.835Y-114.68
X197.835Y-121.18
X202.335Y-114.68
X202.335Y-121.18
T5
X117.505Y-54.68
X123.855Y-64.18
X140.275Y-54.68
X146.625Y-64.18
X163.045Y-54.68
X169.395Y-64.18
X185.815Y-54.68
X192.165Y-64.18
T6
X117.93Y-133.78
X151.23Y-133.78
T7
X127.693Y-133.18
X141.413Y-133.18
T2
G00X186.265Y-138.38
M15
G01X186.265Y-139.48
M16
G05
G00X186.265Y-142.71
M15
G01X186.265Y-143.51
M16
G05
G00X194.905Y-138.38
M15
G01X194.905Y-139.48
M16
G05
G00X194.905Y-142.71
M15
G01X194.905Y-143.51
M16
G05
M30
