%TF.GenerationSoftware,KiCad,Pcbnew,8.0.3*%
%TF.CreationDate,2024-11-24T16:31:50-07:00*%
%TF.ProjectId,FET-Board-V1,4645542d-426f-4617-9264-2d56312e6b69,rev?*%
%TF.SameCoordinates,Original*%
%TF.FileFunction,Drillmap*%
%TF.FilePolarity,Positive*%
%FSLAX45Y45*%
G04 Gerber Fmt 4.5, Leading zero omitted, Abs format (unit mm)*
G04 Created by KiCad (PCBNEW 8.0.3) date 2024-11-24 16:31:50*
%MOMM*%
%LPD*%
G01*
G04 APERTURE LIST*
%ADD10C,0.050000*%
%ADD11C,0.200000*%
%ADD12C,0.100000*%
%ADD13C,0.350000*%
G04 APERTURE END LIST*
D10*
X10483500Y-4568000D02*
X20483500Y-4568000D01*
X20483500Y-14568000D01*
X10483500Y-14568000D01*
X10483500Y-4568000D01*
D11*
D12*
X18737000Y-13910500D02*
X18802000Y-13975500D01*
X18802000Y-13910500D02*
X18737000Y-13975500D01*
X19315000Y-13910500D02*
X19380000Y-13975500D01*
X19380000Y-13910500D02*
X19315000Y-13975500D01*
D13*
X11058500Y-4968000D02*
G75*
G02*
X10708500Y-4968000I-175000J0D01*
G01*
X10708500Y-4968000D02*
G75*
G02*
X11058500Y-4968000I175000J0D01*
G01*
X11058500Y-14168000D02*
G75*
G02*
X10708500Y-14168000I-175000J0D01*
G01*
X10708500Y-14168000D02*
G75*
G02*
X11058500Y-14168000I175000J0D01*
G01*
X20258500Y-4968000D02*
G75*
G02*
X19908500Y-4968000I-175000J0D01*
G01*
X19908500Y-4968000D02*
G75*
G02*
X20258500Y-4968000I175000J0D01*
G01*
X20258500Y-14168000D02*
G75*
G02*
X19908500Y-14168000I-175000J0D01*
G01*
X19908500Y-14168000D02*
G75*
G02*
X20258500Y-14168000I175000J0D01*
G01*
D11*
X10741777Y-14881984D02*
X10741777Y-14681984D01*
X10741777Y-14681984D02*
X10789396Y-14681984D01*
X10789396Y-14681984D02*
X10817967Y-14691508D01*
X10817967Y-14691508D02*
X10837015Y-14710555D01*
X10837015Y-14710555D02*
X10846539Y-14729603D01*
X10846539Y-14729603D02*
X10856063Y-14767698D01*
X10856063Y-14767698D02*
X10856063Y-14796269D01*
X10856063Y-14796269D02*
X10846539Y-14834365D01*
X10846539Y-14834365D02*
X10837015Y-14853412D01*
X10837015Y-14853412D02*
X10817967Y-14872460D01*
X10817967Y-14872460D02*
X10789396Y-14881984D01*
X10789396Y-14881984D02*
X10741777Y-14881984D01*
X10941777Y-14881984D02*
X10941777Y-14748650D01*
X10941777Y-14786746D02*
X10951301Y-14767698D01*
X10951301Y-14767698D02*
X10960824Y-14758174D01*
X10960824Y-14758174D02*
X10979872Y-14748650D01*
X10979872Y-14748650D02*
X10998920Y-14748650D01*
X11065586Y-14881984D02*
X11065586Y-14748650D01*
X11065586Y-14681984D02*
X11056063Y-14691508D01*
X11056063Y-14691508D02*
X11065586Y-14701031D01*
X11065586Y-14701031D02*
X11075110Y-14691508D01*
X11075110Y-14691508D02*
X11065586Y-14681984D01*
X11065586Y-14681984D02*
X11065586Y-14701031D01*
X11189396Y-14881984D02*
X11170348Y-14872460D01*
X11170348Y-14872460D02*
X11160824Y-14853412D01*
X11160824Y-14853412D02*
X11160824Y-14681984D01*
X11294158Y-14881984D02*
X11275110Y-14872460D01*
X11275110Y-14872460D02*
X11265586Y-14853412D01*
X11265586Y-14853412D02*
X11265586Y-14681984D01*
X11522729Y-14881984D02*
X11522729Y-14681984D01*
X11522729Y-14681984D02*
X11589396Y-14824841D01*
X11589396Y-14824841D02*
X11656062Y-14681984D01*
X11656062Y-14681984D02*
X11656062Y-14881984D01*
X11837015Y-14881984D02*
X11837015Y-14777222D01*
X11837015Y-14777222D02*
X11827491Y-14758174D01*
X11827491Y-14758174D02*
X11808443Y-14748650D01*
X11808443Y-14748650D02*
X11770348Y-14748650D01*
X11770348Y-14748650D02*
X11751301Y-14758174D01*
X11837015Y-14872460D02*
X11817967Y-14881984D01*
X11817967Y-14881984D02*
X11770348Y-14881984D01*
X11770348Y-14881984D02*
X11751301Y-14872460D01*
X11751301Y-14872460D02*
X11741777Y-14853412D01*
X11741777Y-14853412D02*
X11741777Y-14834365D01*
X11741777Y-14834365D02*
X11751301Y-14815317D01*
X11751301Y-14815317D02*
X11770348Y-14805793D01*
X11770348Y-14805793D02*
X11817967Y-14805793D01*
X11817967Y-14805793D02*
X11837015Y-14796269D01*
X11932253Y-14748650D02*
X11932253Y-14948650D01*
X11932253Y-14758174D02*
X11951301Y-14748650D01*
X11951301Y-14748650D02*
X11989396Y-14748650D01*
X11989396Y-14748650D02*
X12008443Y-14758174D01*
X12008443Y-14758174D02*
X12017967Y-14767698D01*
X12017967Y-14767698D02*
X12027491Y-14786746D01*
X12027491Y-14786746D02*
X12027491Y-14843888D01*
X12027491Y-14843888D02*
X12017967Y-14862936D01*
X12017967Y-14862936D02*
X12008443Y-14872460D01*
X12008443Y-14872460D02*
X11989396Y-14881984D01*
X11989396Y-14881984D02*
X11951301Y-14881984D01*
X11951301Y-14881984D02*
X11932253Y-14872460D01*
X12113205Y-14862936D02*
X12122729Y-14872460D01*
X12122729Y-14872460D02*
X12113205Y-14881984D01*
X12113205Y-14881984D02*
X12103682Y-14872460D01*
X12103682Y-14872460D02*
X12113205Y-14862936D01*
X12113205Y-14862936D02*
X12113205Y-14881984D01*
X12113205Y-14758174D02*
X12122729Y-14767698D01*
X12122729Y-14767698D02*
X12113205Y-14777222D01*
X12113205Y-14777222D02*
X12103682Y-14767698D01*
X12103682Y-14767698D02*
X12113205Y-14758174D01*
X12113205Y-14758174D02*
X12113205Y-14777222D01*
D12*
X10416000Y-15178000D02*
X10481000Y-15243000D01*
X10481000Y-15178000D02*
X10416000Y-15243000D01*
D11*
X10779872Y-15101984D02*
X10798920Y-15101984D01*
X10798920Y-15101984D02*
X10817967Y-15111508D01*
X10817967Y-15111508D02*
X10827491Y-15121031D01*
X10827491Y-15121031D02*
X10837015Y-15140079D01*
X10837015Y-15140079D02*
X10846539Y-15178174D01*
X10846539Y-15178174D02*
X10846539Y-15225793D01*
X10846539Y-15225793D02*
X10837015Y-15263888D01*
X10837015Y-15263888D02*
X10827491Y-15282936D01*
X10827491Y-15282936D02*
X10817967Y-15292460D01*
X10817967Y-15292460D02*
X10798920Y-15301984D01*
X10798920Y-15301984D02*
X10779872Y-15301984D01*
X10779872Y-15301984D02*
X10760824Y-15292460D01*
X10760824Y-15292460D02*
X10751301Y-15282936D01*
X10751301Y-15282936D02*
X10741777Y-15263888D01*
X10741777Y-15263888D02*
X10732253Y-15225793D01*
X10732253Y-15225793D02*
X10732253Y-15178174D01*
X10732253Y-15178174D02*
X10741777Y-15140079D01*
X10741777Y-15140079D02*
X10751301Y-15121031D01*
X10751301Y-15121031D02*
X10760824Y-15111508D01*
X10760824Y-15111508D02*
X10779872Y-15101984D01*
X10932253Y-15282936D02*
X10941777Y-15292460D01*
X10941777Y-15292460D02*
X10932253Y-15301984D01*
X10932253Y-15301984D02*
X10922729Y-15292460D01*
X10922729Y-15292460D02*
X10932253Y-15282936D01*
X10932253Y-15282936D02*
X10932253Y-15301984D01*
X11113205Y-15101984D02*
X11075110Y-15101984D01*
X11075110Y-15101984D02*
X11056063Y-15111508D01*
X11056063Y-15111508D02*
X11046539Y-15121031D01*
X11046539Y-15121031D02*
X11027491Y-15149603D01*
X11027491Y-15149603D02*
X11017967Y-15187698D01*
X11017967Y-15187698D02*
X11017967Y-15263888D01*
X11017967Y-15263888D02*
X11027491Y-15282936D01*
X11027491Y-15282936D02*
X11037015Y-15292460D01*
X11037015Y-15292460D02*
X11056063Y-15301984D01*
X11056063Y-15301984D02*
X11094158Y-15301984D01*
X11094158Y-15301984D02*
X11113205Y-15292460D01*
X11113205Y-15292460D02*
X11122729Y-15282936D01*
X11122729Y-15282936D02*
X11132253Y-15263888D01*
X11132253Y-15263888D02*
X11132253Y-15216269D01*
X11132253Y-15216269D02*
X11122729Y-15197222D01*
X11122729Y-15197222D02*
X11113205Y-15187698D01*
X11113205Y-15187698D02*
X11094158Y-15178174D01*
X11094158Y-15178174D02*
X11056063Y-15178174D01*
X11056063Y-15178174D02*
X11037015Y-15187698D01*
X11037015Y-15187698D02*
X11027491Y-15197222D01*
X11027491Y-15197222D02*
X11017967Y-15216269D01*
X11313205Y-15101984D02*
X11217967Y-15101984D01*
X11217967Y-15101984D02*
X11208443Y-15197222D01*
X11208443Y-15197222D02*
X11217967Y-15187698D01*
X11217967Y-15187698D02*
X11237015Y-15178174D01*
X11237015Y-15178174D02*
X11284634Y-15178174D01*
X11284634Y-15178174D02*
X11303682Y-15187698D01*
X11303682Y-15187698D02*
X11313205Y-15197222D01*
X11313205Y-15197222D02*
X11322729Y-15216269D01*
X11322729Y-15216269D02*
X11322729Y-15263888D01*
X11322729Y-15263888D02*
X11313205Y-15282936D01*
X11313205Y-15282936D02*
X11303682Y-15292460D01*
X11303682Y-15292460D02*
X11284634Y-15301984D01*
X11284634Y-15301984D02*
X11237015Y-15301984D01*
X11237015Y-15301984D02*
X11217967Y-15292460D01*
X11217967Y-15292460D02*
X11208443Y-15282936D01*
X11446539Y-15101984D02*
X11465586Y-15101984D01*
X11465586Y-15101984D02*
X11484634Y-15111508D01*
X11484634Y-15111508D02*
X11494158Y-15121031D01*
X11494158Y-15121031D02*
X11503682Y-15140079D01*
X11503682Y-15140079D02*
X11513205Y-15178174D01*
X11513205Y-15178174D02*
X11513205Y-15225793D01*
X11513205Y-15225793D02*
X11503682Y-15263888D01*
X11503682Y-15263888D02*
X11494158Y-15282936D01*
X11494158Y-15282936D02*
X11484634Y-15292460D01*
X11484634Y-15292460D02*
X11465586Y-15301984D01*
X11465586Y-15301984D02*
X11446539Y-15301984D01*
X11446539Y-15301984D02*
X11427491Y-15292460D01*
X11427491Y-15292460D02*
X11417967Y-15282936D01*
X11417967Y-15282936D02*
X11408443Y-15263888D01*
X11408443Y-15263888D02*
X11398920Y-15225793D01*
X11398920Y-15225793D02*
X11398920Y-15178174D01*
X11398920Y-15178174D02*
X11408443Y-15140079D01*
X11408443Y-15140079D02*
X11417967Y-15121031D01*
X11417967Y-15121031D02*
X11427491Y-15111508D01*
X11427491Y-15111508D02*
X11446539Y-15101984D01*
X11598920Y-15301984D02*
X11598920Y-15168650D01*
X11598920Y-15187698D02*
X11608443Y-15178174D01*
X11608443Y-15178174D02*
X11627491Y-15168650D01*
X11627491Y-15168650D02*
X11656063Y-15168650D01*
X11656063Y-15168650D02*
X11675110Y-15178174D01*
X11675110Y-15178174D02*
X11684634Y-15197222D01*
X11684634Y-15197222D02*
X11684634Y-15301984D01*
X11684634Y-15197222D02*
X11694158Y-15178174D01*
X11694158Y-15178174D02*
X11713205Y-15168650D01*
X11713205Y-15168650D02*
X11741777Y-15168650D01*
X11741777Y-15168650D02*
X11760824Y-15178174D01*
X11760824Y-15178174D02*
X11770348Y-15197222D01*
X11770348Y-15197222D02*
X11770348Y-15301984D01*
X11865586Y-15301984D02*
X11865586Y-15168650D01*
X11865586Y-15187698D02*
X11875110Y-15178174D01*
X11875110Y-15178174D02*
X11894158Y-15168650D01*
X11894158Y-15168650D02*
X11922729Y-15168650D01*
X11922729Y-15168650D02*
X11941777Y-15178174D01*
X11941777Y-15178174D02*
X11951301Y-15197222D01*
X11951301Y-15197222D02*
X11951301Y-15301984D01*
X11951301Y-15197222D02*
X11960824Y-15178174D01*
X11960824Y-15178174D02*
X11979872Y-15168650D01*
X11979872Y-15168650D02*
X12008443Y-15168650D01*
X12008443Y-15168650D02*
X12027491Y-15178174D01*
X12027491Y-15178174D02*
X12037015Y-15197222D01*
X12037015Y-15197222D02*
X12037015Y-15301984D01*
X12427491Y-15092460D02*
X12256063Y-15349603D01*
X12684634Y-15101984D02*
X12703682Y-15101984D01*
X12703682Y-15101984D02*
X12722729Y-15111508D01*
X12722729Y-15111508D02*
X12732253Y-15121031D01*
X12732253Y-15121031D02*
X12741777Y-15140079D01*
X12741777Y-15140079D02*
X12751301Y-15178174D01*
X12751301Y-15178174D02*
X12751301Y-15225793D01*
X12751301Y-15225793D02*
X12741777Y-15263888D01*
X12741777Y-15263888D02*
X12732253Y-15282936D01*
X12732253Y-15282936D02*
X12722729Y-15292460D01*
X12722729Y-15292460D02*
X12703682Y-15301984D01*
X12703682Y-15301984D02*
X12684634Y-15301984D01*
X12684634Y-15301984D02*
X12665586Y-15292460D01*
X12665586Y-15292460D02*
X12656063Y-15282936D01*
X12656063Y-15282936D02*
X12646539Y-15263888D01*
X12646539Y-15263888D02*
X12637015Y-15225793D01*
X12637015Y-15225793D02*
X12637015Y-15178174D01*
X12637015Y-15178174D02*
X12646539Y-15140079D01*
X12646539Y-15140079D02*
X12656063Y-15121031D01*
X12656063Y-15121031D02*
X12665586Y-15111508D01*
X12665586Y-15111508D02*
X12684634Y-15101984D01*
X12837015Y-15282936D02*
X12846539Y-15292460D01*
X12846539Y-15292460D02*
X12837015Y-15301984D01*
X12837015Y-15301984D02*
X12827491Y-15292460D01*
X12827491Y-15292460D02*
X12837015Y-15282936D01*
X12837015Y-15282936D02*
X12837015Y-15301984D01*
X12970348Y-15101984D02*
X12989396Y-15101984D01*
X12989396Y-15101984D02*
X13008444Y-15111508D01*
X13008444Y-15111508D02*
X13017967Y-15121031D01*
X13017967Y-15121031D02*
X13027491Y-15140079D01*
X13027491Y-15140079D02*
X13037015Y-15178174D01*
X13037015Y-15178174D02*
X13037015Y-15225793D01*
X13037015Y-15225793D02*
X13027491Y-15263888D01*
X13027491Y-15263888D02*
X13017967Y-15282936D01*
X13017967Y-15282936D02*
X13008444Y-15292460D01*
X13008444Y-15292460D02*
X12989396Y-15301984D01*
X12989396Y-15301984D02*
X12970348Y-15301984D01*
X12970348Y-15301984D02*
X12951301Y-15292460D01*
X12951301Y-15292460D02*
X12941777Y-15282936D01*
X12941777Y-15282936D02*
X12932253Y-15263888D01*
X12932253Y-15263888D02*
X12922729Y-15225793D01*
X12922729Y-15225793D02*
X12922729Y-15178174D01*
X12922729Y-15178174D02*
X12932253Y-15140079D01*
X12932253Y-15140079D02*
X12941777Y-15121031D01*
X12941777Y-15121031D02*
X12951301Y-15111508D01*
X12951301Y-15111508D02*
X12970348Y-15101984D01*
X13113206Y-15121031D02*
X13122729Y-15111508D01*
X13122729Y-15111508D02*
X13141777Y-15101984D01*
X13141777Y-15101984D02*
X13189396Y-15101984D01*
X13189396Y-15101984D02*
X13208444Y-15111508D01*
X13208444Y-15111508D02*
X13217967Y-15121031D01*
X13217967Y-15121031D02*
X13227491Y-15140079D01*
X13227491Y-15140079D02*
X13227491Y-15159127D01*
X13227491Y-15159127D02*
X13217967Y-15187698D01*
X13217967Y-15187698D02*
X13103682Y-15301984D01*
X13103682Y-15301984D02*
X13227491Y-15301984D01*
X13408444Y-15101984D02*
X13313206Y-15101984D01*
X13313206Y-15101984D02*
X13303682Y-15197222D01*
X13303682Y-15197222D02*
X13313206Y-15187698D01*
X13313206Y-15187698D02*
X13332253Y-15178174D01*
X13332253Y-15178174D02*
X13379872Y-15178174D01*
X13379872Y-15178174D02*
X13398920Y-15187698D01*
X13398920Y-15187698D02*
X13408444Y-15197222D01*
X13408444Y-15197222D02*
X13417967Y-15216269D01*
X13417967Y-15216269D02*
X13417967Y-15263888D01*
X13417967Y-15263888D02*
X13408444Y-15282936D01*
X13408444Y-15282936D02*
X13398920Y-15292460D01*
X13398920Y-15292460D02*
X13379872Y-15301984D01*
X13379872Y-15301984D02*
X13332253Y-15301984D01*
X13332253Y-15301984D02*
X13313206Y-15292460D01*
X13313206Y-15292460D02*
X13303682Y-15282936D01*
X13589396Y-15101984D02*
X13551301Y-15101984D01*
X13551301Y-15101984D02*
X13532253Y-15111508D01*
X13532253Y-15111508D02*
X13522729Y-15121031D01*
X13522729Y-15121031D02*
X13503682Y-15149603D01*
X13503682Y-15149603D02*
X13494158Y-15187698D01*
X13494158Y-15187698D02*
X13494158Y-15263888D01*
X13494158Y-15263888D02*
X13503682Y-15282936D01*
X13503682Y-15282936D02*
X13513206Y-15292460D01*
X13513206Y-15292460D02*
X13532253Y-15301984D01*
X13532253Y-15301984D02*
X13570348Y-15301984D01*
X13570348Y-15301984D02*
X13589396Y-15292460D01*
X13589396Y-15292460D02*
X13598920Y-15282936D01*
X13598920Y-15282936D02*
X13608444Y-15263888D01*
X13608444Y-15263888D02*
X13608444Y-15216269D01*
X13608444Y-15216269D02*
X13598920Y-15197222D01*
X13598920Y-15197222D02*
X13589396Y-15187698D01*
X13589396Y-15187698D02*
X13570348Y-15178174D01*
X13570348Y-15178174D02*
X13532253Y-15178174D01*
X13532253Y-15178174D02*
X13513206Y-15187698D01*
X13513206Y-15187698D02*
X13503682Y-15197222D01*
X13503682Y-15197222D02*
X13494158Y-15216269D01*
X13684634Y-15101984D02*
X13684634Y-15140079D01*
X13760825Y-15101984D02*
X13760825Y-15140079D01*
X14056063Y-15378174D02*
X14046539Y-15368650D01*
X14046539Y-15368650D02*
X14027491Y-15340079D01*
X14027491Y-15340079D02*
X14017968Y-15321031D01*
X14017968Y-15321031D02*
X14008444Y-15292460D01*
X14008444Y-15292460D02*
X13998920Y-15244841D01*
X13998920Y-15244841D02*
X13998920Y-15206746D01*
X13998920Y-15206746D02*
X14008444Y-15159127D01*
X14008444Y-15159127D02*
X14017968Y-15130555D01*
X14017968Y-15130555D02*
X14027491Y-15111508D01*
X14027491Y-15111508D02*
X14046539Y-15082936D01*
X14046539Y-15082936D02*
X14056063Y-15073412D01*
X14122729Y-15121031D02*
X14132253Y-15111508D01*
X14132253Y-15111508D02*
X14151301Y-15101984D01*
X14151301Y-15101984D02*
X14198920Y-15101984D01*
X14198920Y-15101984D02*
X14217968Y-15111508D01*
X14217968Y-15111508D02*
X14227491Y-15121031D01*
X14227491Y-15121031D02*
X14237015Y-15140079D01*
X14237015Y-15140079D02*
X14237015Y-15159127D01*
X14237015Y-15159127D02*
X14227491Y-15187698D01*
X14227491Y-15187698D02*
X14113206Y-15301984D01*
X14113206Y-15301984D02*
X14237015Y-15301984D01*
X14475110Y-15301984D02*
X14475110Y-15101984D01*
X14560825Y-15301984D02*
X14560825Y-15197222D01*
X14560825Y-15197222D02*
X14551301Y-15178174D01*
X14551301Y-15178174D02*
X14532253Y-15168650D01*
X14532253Y-15168650D02*
X14503682Y-15168650D01*
X14503682Y-15168650D02*
X14484634Y-15178174D01*
X14484634Y-15178174D02*
X14475110Y-15187698D01*
X14684634Y-15301984D02*
X14665587Y-15292460D01*
X14665587Y-15292460D02*
X14656063Y-15282936D01*
X14656063Y-15282936D02*
X14646539Y-15263888D01*
X14646539Y-15263888D02*
X14646539Y-15206746D01*
X14646539Y-15206746D02*
X14656063Y-15187698D01*
X14656063Y-15187698D02*
X14665587Y-15178174D01*
X14665587Y-15178174D02*
X14684634Y-15168650D01*
X14684634Y-15168650D02*
X14713206Y-15168650D01*
X14713206Y-15168650D02*
X14732253Y-15178174D01*
X14732253Y-15178174D02*
X14741777Y-15187698D01*
X14741777Y-15187698D02*
X14751301Y-15206746D01*
X14751301Y-15206746D02*
X14751301Y-15263888D01*
X14751301Y-15263888D02*
X14741777Y-15282936D01*
X14741777Y-15282936D02*
X14732253Y-15292460D01*
X14732253Y-15292460D02*
X14713206Y-15301984D01*
X14713206Y-15301984D02*
X14684634Y-15301984D01*
X14865587Y-15301984D02*
X14846539Y-15292460D01*
X14846539Y-15292460D02*
X14837015Y-15273412D01*
X14837015Y-15273412D02*
X14837015Y-15101984D01*
X15017968Y-15292460D02*
X14998920Y-15301984D01*
X14998920Y-15301984D02*
X14960825Y-15301984D01*
X14960825Y-15301984D02*
X14941777Y-15292460D01*
X14941777Y-15292460D02*
X14932253Y-15273412D01*
X14932253Y-15273412D02*
X14932253Y-15197222D01*
X14932253Y-15197222D02*
X14941777Y-15178174D01*
X14941777Y-15178174D02*
X14960825Y-15168650D01*
X14960825Y-15168650D02*
X14998920Y-15168650D01*
X14998920Y-15168650D02*
X15017968Y-15178174D01*
X15017968Y-15178174D02*
X15027491Y-15197222D01*
X15027491Y-15197222D02*
X15027491Y-15216269D01*
X15027491Y-15216269D02*
X14932253Y-15235317D01*
X15103682Y-15292460D02*
X15122730Y-15301984D01*
X15122730Y-15301984D02*
X15160825Y-15301984D01*
X15160825Y-15301984D02*
X15179872Y-15292460D01*
X15179872Y-15292460D02*
X15189396Y-15273412D01*
X15189396Y-15273412D02*
X15189396Y-15263888D01*
X15189396Y-15263888D02*
X15179872Y-15244841D01*
X15179872Y-15244841D02*
X15160825Y-15235317D01*
X15160825Y-15235317D02*
X15132253Y-15235317D01*
X15132253Y-15235317D02*
X15113206Y-15225793D01*
X15113206Y-15225793D02*
X15103682Y-15206746D01*
X15103682Y-15206746D02*
X15103682Y-15197222D01*
X15103682Y-15197222D02*
X15113206Y-15178174D01*
X15113206Y-15178174D02*
X15132253Y-15168650D01*
X15132253Y-15168650D02*
X15160825Y-15168650D01*
X15160825Y-15168650D02*
X15179872Y-15178174D01*
X15256063Y-15378174D02*
X15265587Y-15368650D01*
X15265587Y-15368650D02*
X15284634Y-15340079D01*
X15284634Y-15340079D02*
X15294158Y-15321031D01*
X15294158Y-15321031D02*
X15303682Y-15292460D01*
X15303682Y-15292460D02*
X15313206Y-15244841D01*
X15313206Y-15244841D02*
X15313206Y-15206746D01*
X15313206Y-15206746D02*
X15303682Y-15159127D01*
X15303682Y-15159127D02*
X15294158Y-15130555D01*
X15294158Y-15130555D02*
X15284634Y-15111508D01*
X15284634Y-15111508D02*
X15265587Y-15082936D01*
X15265587Y-15082936D02*
X15256063Y-15073412D01*
X15617968Y-15378174D02*
X15608444Y-15368650D01*
X15608444Y-15368650D02*
X15589396Y-15340079D01*
X15589396Y-15340079D02*
X15579872Y-15321031D01*
X15579872Y-15321031D02*
X15570349Y-15292460D01*
X15570349Y-15292460D02*
X15560825Y-15244841D01*
X15560825Y-15244841D02*
X15560825Y-15206746D01*
X15560825Y-15206746D02*
X15570349Y-15159127D01*
X15570349Y-15159127D02*
X15579872Y-15130555D01*
X15579872Y-15130555D02*
X15589396Y-15111508D01*
X15589396Y-15111508D02*
X15608444Y-15082936D01*
X15608444Y-15082936D02*
X15617968Y-15073412D01*
X15694158Y-15168650D02*
X15694158Y-15301984D01*
X15694158Y-15187698D02*
X15703682Y-15178174D01*
X15703682Y-15178174D02*
X15722730Y-15168650D01*
X15722730Y-15168650D02*
X15751301Y-15168650D01*
X15751301Y-15168650D02*
X15770349Y-15178174D01*
X15770349Y-15178174D02*
X15779872Y-15197222D01*
X15779872Y-15197222D02*
X15779872Y-15301984D01*
X15903682Y-15301984D02*
X15884634Y-15292460D01*
X15884634Y-15292460D02*
X15875111Y-15282936D01*
X15875111Y-15282936D02*
X15865587Y-15263888D01*
X15865587Y-15263888D02*
X15865587Y-15206746D01*
X15865587Y-15206746D02*
X15875111Y-15187698D01*
X15875111Y-15187698D02*
X15884634Y-15178174D01*
X15884634Y-15178174D02*
X15903682Y-15168650D01*
X15903682Y-15168650D02*
X15932253Y-15168650D01*
X15932253Y-15168650D02*
X15951301Y-15178174D01*
X15951301Y-15178174D02*
X15960825Y-15187698D01*
X15960825Y-15187698D02*
X15970349Y-15206746D01*
X15970349Y-15206746D02*
X15970349Y-15263888D01*
X15970349Y-15263888D02*
X15960825Y-15282936D01*
X15960825Y-15282936D02*
X15951301Y-15292460D01*
X15951301Y-15292460D02*
X15932253Y-15301984D01*
X15932253Y-15301984D02*
X15903682Y-15301984D01*
X16027492Y-15168650D02*
X16103682Y-15168650D01*
X16056063Y-15101984D02*
X16056063Y-15273412D01*
X16056063Y-15273412D02*
X16065587Y-15292460D01*
X16065587Y-15292460D02*
X16084634Y-15301984D01*
X16084634Y-15301984D02*
X16103682Y-15301984D01*
X16322730Y-15168650D02*
X16322730Y-15368650D01*
X16322730Y-15178174D02*
X16341777Y-15168650D01*
X16341777Y-15168650D02*
X16379873Y-15168650D01*
X16379873Y-15168650D02*
X16398920Y-15178174D01*
X16398920Y-15178174D02*
X16408444Y-15187698D01*
X16408444Y-15187698D02*
X16417968Y-15206746D01*
X16417968Y-15206746D02*
X16417968Y-15263888D01*
X16417968Y-15263888D02*
X16408444Y-15282936D01*
X16408444Y-15282936D02*
X16398920Y-15292460D01*
X16398920Y-15292460D02*
X16379873Y-15301984D01*
X16379873Y-15301984D02*
X16341777Y-15301984D01*
X16341777Y-15301984D02*
X16322730Y-15292460D01*
X16532253Y-15301984D02*
X16513206Y-15292460D01*
X16513206Y-15292460D02*
X16503682Y-15273412D01*
X16503682Y-15273412D02*
X16503682Y-15101984D01*
X16694158Y-15301984D02*
X16694158Y-15197222D01*
X16694158Y-15197222D02*
X16684634Y-15178174D01*
X16684634Y-15178174D02*
X16665587Y-15168650D01*
X16665587Y-15168650D02*
X16627492Y-15168650D01*
X16627492Y-15168650D02*
X16608444Y-15178174D01*
X16694158Y-15292460D02*
X16675111Y-15301984D01*
X16675111Y-15301984D02*
X16627492Y-15301984D01*
X16627492Y-15301984D02*
X16608444Y-15292460D01*
X16608444Y-15292460D02*
X16598920Y-15273412D01*
X16598920Y-15273412D02*
X16598920Y-15254365D01*
X16598920Y-15254365D02*
X16608444Y-15235317D01*
X16608444Y-15235317D02*
X16627492Y-15225793D01*
X16627492Y-15225793D02*
X16675111Y-15225793D01*
X16675111Y-15225793D02*
X16694158Y-15216269D01*
X16760825Y-15168650D02*
X16837015Y-15168650D01*
X16789396Y-15101984D02*
X16789396Y-15273412D01*
X16789396Y-15273412D02*
X16798920Y-15292460D01*
X16798920Y-15292460D02*
X16817968Y-15301984D01*
X16817968Y-15301984D02*
X16837015Y-15301984D01*
X16979873Y-15292460D02*
X16960825Y-15301984D01*
X16960825Y-15301984D02*
X16922730Y-15301984D01*
X16922730Y-15301984D02*
X16903682Y-15292460D01*
X16903682Y-15292460D02*
X16894158Y-15273412D01*
X16894158Y-15273412D02*
X16894158Y-15197222D01*
X16894158Y-15197222D02*
X16903682Y-15178174D01*
X16903682Y-15178174D02*
X16922730Y-15168650D01*
X16922730Y-15168650D02*
X16960825Y-15168650D01*
X16960825Y-15168650D02*
X16979873Y-15178174D01*
X16979873Y-15178174D02*
X16989396Y-15197222D01*
X16989396Y-15197222D02*
X16989396Y-15216269D01*
X16989396Y-15216269D02*
X16894158Y-15235317D01*
X17160825Y-15301984D02*
X17160825Y-15101984D01*
X17160825Y-15292460D02*
X17141777Y-15301984D01*
X17141777Y-15301984D02*
X17103682Y-15301984D01*
X17103682Y-15301984D02*
X17084635Y-15292460D01*
X17084635Y-15292460D02*
X17075111Y-15282936D01*
X17075111Y-15282936D02*
X17065587Y-15263888D01*
X17065587Y-15263888D02*
X17065587Y-15206746D01*
X17065587Y-15206746D02*
X17075111Y-15187698D01*
X17075111Y-15187698D02*
X17084635Y-15178174D01*
X17084635Y-15178174D02*
X17103682Y-15168650D01*
X17103682Y-15168650D02*
X17141777Y-15168650D01*
X17141777Y-15168650D02*
X17160825Y-15178174D01*
X17237016Y-15378174D02*
X17246539Y-15368650D01*
X17246539Y-15368650D02*
X17265587Y-15340079D01*
X17265587Y-15340079D02*
X17275111Y-15321031D01*
X17275111Y-15321031D02*
X17284635Y-15292460D01*
X17284635Y-15292460D02*
X17294158Y-15244841D01*
X17294158Y-15244841D02*
X17294158Y-15206746D01*
X17294158Y-15206746D02*
X17284635Y-15159127D01*
X17284635Y-15159127D02*
X17275111Y-15130555D01*
X17275111Y-15130555D02*
X17265587Y-15111508D01*
X17265587Y-15111508D02*
X17246539Y-15082936D01*
X17246539Y-15082936D02*
X17237016Y-15073412D01*
X10481000Y-15474500D02*
G75*
G02*
X10281000Y-15474500I-100000J0D01*
G01*
X10281000Y-15474500D02*
G75*
G02*
X10481000Y-15474500I100000J0D01*
G01*
X10722729Y-15365984D02*
X10846539Y-15365984D01*
X10846539Y-15365984D02*
X10779872Y-15442174D01*
X10779872Y-15442174D02*
X10808444Y-15442174D01*
X10808444Y-15442174D02*
X10827491Y-15451698D01*
X10827491Y-15451698D02*
X10837015Y-15461222D01*
X10837015Y-15461222D02*
X10846539Y-15480269D01*
X10846539Y-15480269D02*
X10846539Y-15527888D01*
X10846539Y-15527888D02*
X10837015Y-15546936D01*
X10837015Y-15546936D02*
X10827491Y-15556460D01*
X10827491Y-15556460D02*
X10808444Y-15565984D01*
X10808444Y-15565984D02*
X10751301Y-15565984D01*
X10751301Y-15565984D02*
X10732253Y-15556460D01*
X10732253Y-15556460D02*
X10722729Y-15546936D01*
X10932253Y-15546936D02*
X10941777Y-15556460D01*
X10941777Y-15556460D02*
X10932253Y-15565984D01*
X10932253Y-15565984D02*
X10922729Y-15556460D01*
X10922729Y-15556460D02*
X10932253Y-15546936D01*
X10932253Y-15546936D02*
X10932253Y-15565984D01*
X11122729Y-15365984D02*
X11027491Y-15365984D01*
X11027491Y-15365984D02*
X11017967Y-15461222D01*
X11017967Y-15461222D02*
X11027491Y-15451698D01*
X11027491Y-15451698D02*
X11046539Y-15442174D01*
X11046539Y-15442174D02*
X11094158Y-15442174D01*
X11094158Y-15442174D02*
X11113205Y-15451698D01*
X11113205Y-15451698D02*
X11122729Y-15461222D01*
X11122729Y-15461222D02*
X11132253Y-15480269D01*
X11132253Y-15480269D02*
X11132253Y-15527888D01*
X11132253Y-15527888D02*
X11122729Y-15546936D01*
X11122729Y-15546936D02*
X11113205Y-15556460D01*
X11113205Y-15556460D02*
X11094158Y-15565984D01*
X11094158Y-15565984D02*
X11046539Y-15565984D01*
X11046539Y-15565984D02*
X11027491Y-15556460D01*
X11027491Y-15556460D02*
X11017967Y-15546936D01*
X11256062Y-15365984D02*
X11275110Y-15365984D01*
X11275110Y-15365984D02*
X11294158Y-15375508D01*
X11294158Y-15375508D02*
X11303682Y-15385031D01*
X11303682Y-15385031D02*
X11313205Y-15404079D01*
X11313205Y-15404079D02*
X11322729Y-15442174D01*
X11322729Y-15442174D02*
X11322729Y-15489793D01*
X11322729Y-15489793D02*
X11313205Y-15527888D01*
X11313205Y-15527888D02*
X11303682Y-15546936D01*
X11303682Y-15546936D02*
X11294158Y-15556460D01*
X11294158Y-15556460D02*
X11275110Y-15565984D01*
X11275110Y-15565984D02*
X11256062Y-15565984D01*
X11256062Y-15565984D02*
X11237015Y-15556460D01*
X11237015Y-15556460D02*
X11227491Y-15546936D01*
X11227491Y-15546936D02*
X11217967Y-15527888D01*
X11217967Y-15527888D02*
X11208443Y-15489793D01*
X11208443Y-15489793D02*
X11208443Y-15442174D01*
X11208443Y-15442174D02*
X11217967Y-15404079D01*
X11217967Y-15404079D02*
X11227491Y-15385031D01*
X11227491Y-15385031D02*
X11237015Y-15375508D01*
X11237015Y-15375508D02*
X11256062Y-15365984D01*
X11446539Y-15365984D02*
X11465586Y-15365984D01*
X11465586Y-15365984D02*
X11484634Y-15375508D01*
X11484634Y-15375508D02*
X11494158Y-15385031D01*
X11494158Y-15385031D02*
X11503682Y-15404079D01*
X11503682Y-15404079D02*
X11513205Y-15442174D01*
X11513205Y-15442174D02*
X11513205Y-15489793D01*
X11513205Y-15489793D02*
X11503682Y-15527888D01*
X11503682Y-15527888D02*
X11494158Y-15546936D01*
X11494158Y-15546936D02*
X11484634Y-15556460D01*
X11484634Y-15556460D02*
X11465586Y-15565984D01*
X11465586Y-15565984D02*
X11446539Y-15565984D01*
X11446539Y-15565984D02*
X11427491Y-15556460D01*
X11427491Y-15556460D02*
X11417967Y-15546936D01*
X11417967Y-15546936D02*
X11408443Y-15527888D01*
X11408443Y-15527888D02*
X11398920Y-15489793D01*
X11398920Y-15489793D02*
X11398920Y-15442174D01*
X11398920Y-15442174D02*
X11408443Y-15404079D01*
X11408443Y-15404079D02*
X11417967Y-15385031D01*
X11417967Y-15385031D02*
X11427491Y-15375508D01*
X11427491Y-15375508D02*
X11446539Y-15365984D01*
X11598920Y-15565984D02*
X11598920Y-15432650D01*
X11598920Y-15451698D02*
X11608443Y-15442174D01*
X11608443Y-15442174D02*
X11627491Y-15432650D01*
X11627491Y-15432650D02*
X11656063Y-15432650D01*
X11656063Y-15432650D02*
X11675110Y-15442174D01*
X11675110Y-15442174D02*
X11684634Y-15461222D01*
X11684634Y-15461222D02*
X11684634Y-15565984D01*
X11684634Y-15461222D02*
X11694158Y-15442174D01*
X11694158Y-15442174D02*
X11713205Y-15432650D01*
X11713205Y-15432650D02*
X11741777Y-15432650D01*
X11741777Y-15432650D02*
X11760824Y-15442174D01*
X11760824Y-15442174D02*
X11770348Y-15461222D01*
X11770348Y-15461222D02*
X11770348Y-15565984D01*
X11865586Y-15565984D02*
X11865586Y-15432650D01*
X11865586Y-15451698D02*
X11875110Y-15442174D01*
X11875110Y-15442174D02*
X11894158Y-15432650D01*
X11894158Y-15432650D02*
X11922729Y-15432650D01*
X11922729Y-15432650D02*
X11941777Y-15442174D01*
X11941777Y-15442174D02*
X11951301Y-15461222D01*
X11951301Y-15461222D02*
X11951301Y-15565984D01*
X11951301Y-15461222D02*
X11960824Y-15442174D01*
X11960824Y-15442174D02*
X11979872Y-15432650D01*
X11979872Y-15432650D02*
X12008443Y-15432650D01*
X12008443Y-15432650D02*
X12027491Y-15442174D01*
X12027491Y-15442174D02*
X12037015Y-15461222D01*
X12037015Y-15461222D02*
X12037015Y-15565984D01*
X12427491Y-15356460D02*
X12256063Y-15613603D01*
X12684634Y-15365984D02*
X12703682Y-15365984D01*
X12703682Y-15365984D02*
X12722729Y-15375508D01*
X12722729Y-15375508D02*
X12732253Y-15385031D01*
X12732253Y-15385031D02*
X12741777Y-15404079D01*
X12741777Y-15404079D02*
X12751301Y-15442174D01*
X12751301Y-15442174D02*
X12751301Y-15489793D01*
X12751301Y-15489793D02*
X12741777Y-15527888D01*
X12741777Y-15527888D02*
X12732253Y-15546936D01*
X12732253Y-15546936D02*
X12722729Y-15556460D01*
X12722729Y-15556460D02*
X12703682Y-15565984D01*
X12703682Y-15565984D02*
X12684634Y-15565984D01*
X12684634Y-15565984D02*
X12665586Y-15556460D01*
X12665586Y-15556460D02*
X12656063Y-15546936D01*
X12656063Y-15546936D02*
X12646539Y-15527888D01*
X12646539Y-15527888D02*
X12637015Y-15489793D01*
X12637015Y-15489793D02*
X12637015Y-15442174D01*
X12637015Y-15442174D02*
X12646539Y-15404079D01*
X12646539Y-15404079D02*
X12656063Y-15385031D01*
X12656063Y-15385031D02*
X12665586Y-15375508D01*
X12665586Y-15375508D02*
X12684634Y-15365984D01*
X12837015Y-15546936D02*
X12846539Y-15556460D01*
X12846539Y-15556460D02*
X12837015Y-15565984D01*
X12837015Y-15565984D02*
X12827491Y-15556460D01*
X12827491Y-15556460D02*
X12837015Y-15546936D01*
X12837015Y-15546936D02*
X12837015Y-15565984D01*
X13037015Y-15565984D02*
X12922729Y-15565984D01*
X12979872Y-15565984D02*
X12979872Y-15365984D01*
X12979872Y-15365984D02*
X12960825Y-15394555D01*
X12960825Y-15394555D02*
X12941777Y-15413603D01*
X12941777Y-15413603D02*
X12922729Y-15423127D01*
X13103682Y-15365984D02*
X13227491Y-15365984D01*
X13227491Y-15365984D02*
X13160825Y-15442174D01*
X13160825Y-15442174D02*
X13189396Y-15442174D01*
X13189396Y-15442174D02*
X13208444Y-15451698D01*
X13208444Y-15451698D02*
X13217967Y-15461222D01*
X13217967Y-15461222D02*
X13227491Y-15480269D01*
X13227491Y-15480269D02*
X13227491Y-15527888D01*
X13227491Y-15527888D02*
X13217967Y-15546936D01*
X13217967Y-15546936D02*
X13208444Y-15556460D01*
X13208444Y-15556460D02*
X13189396Y-15565984D01*
X13189396Y-15565984D02*
X13132253Y-15565984D01*
X13132253Y-15565984D02*
X13113206Y-15556460D01*
X13113206Y-15556460D02*
X13103682Y-15546936D01*
X13294158Y-15365984D02*
X13427491Y-15365984D01*
X13427491Y-15365984D02*
X13341777Y-15565984D01*
X13532253Y-15451698D02*
X13513206Y-15442174D01*
X13513206Y-15442174D02*
X13503682Y-15432650D01*
X13503682Y-15432650D02*
X13494158Y-15413603D01*
X13494158Y-15413603D02*
X13494158Y-15404079D01*
X13494158Y-15404079D02*
X13503682Y-15385031D01*
X13503682Y-15385031D02*
X13513206Y-15375508D01*
X13513206Y-15375508D02*
X13532253Y-15365984D01*
X13532253Y-15365984D02*
X13570348Y-15365984D01*
X13570348Y-15365984D02*
X13589396Y-15375508D01*
X13589396Y-15375508D02*
X13598920Y-15385031D01*
X13598920Y-15385031D02*
X13608444Y-15404079D01*
X13608444Y-15404079D02*
X13608444Y-15413603D01*
X13608444Y-15413603D02*
X13598920Y-15432650D01*
X13598920Y-15432650D02*
X13589396Y-15442174D01*
X13589396Y-15442174D02*
X13570348Y-15451698D01*
X13570348Y-15451698D02*
X13532253Y-15451698D01*
X13532253Y-15451698D02*
X13513206Y-15461222D01*
X13513206Y-15461222D02*
X13503682Y-15470746D01*
X13503682Y-15470746D02*
X13494158Y-15489793D01*
X13494158Y-15489793D02*
X13494158Y-15527888D01*
X13494158Y-15527888D02*
X13503682Y-15546936D01*
X13503682Y-15546936D02*
X13513206Y-15556460D01*
X13513206Y-15556460D02*
X13532253Y-15565984D01*
X13532253Y-15565984D02*
X13570348Y-15565984D01*
X13570348Y-15565984D02*
X13589396Y-15556460D01*
X13589396Y-15556460D02*
X13598920Y-15546936D01*
X13598920Y-15546936D02*
X13608444Y-15527888D01*
X13608444Y-15527888D02*
X13608444Y-15489793D01*
X13608444Y-15489793D02*
X13598920Y-15470746D01*
X13598920Y-15470746D02*
X13589396Y-15461222D01*
X13589396Y-15461222D02*
X13570348Y-15451698D01*
X13684634Y-15365984D02*
X13684634Y-15404079D01*
X13760825Y-15365984D02*
X13760825Y-15404079D01*
X14056063Y-15642174D02*
X14046539Y-15632650D01*
X14046539Y-15632650D02*
X14027491Y-15604079D01*
X14027491Y-15604079D02*
X14017968Y-15585031D01*
X14017968Y-15585031D02*
X14008444Y-15556460D01*
X14008444Y-15556460D02*
X13998920Y-15508841D01*
X13998920Y-15508841D02*
X13998920Y-15470746D01*
X13998920Y-15470746D02*
X14008444Y-15423127D01*
X14008444Y-15423127D02*
X14017968Y-15394555D01*
X14017968Y-15394555D02*
X14027491Y-15375508D01*
X14027491Y-15375508D02*
X14046539Y-15346936D01*
X14046539Y-15346936D02*
X14056063Y-15337412D01*
X14217968Y-15432650D02*
X14217968Y-15565984D01*
X14170348Y-15356460D02*
X14122729Y-15499317D01*
X14122729Y-15499317D02*
X14246539Y-15499317D01*
X14475110Y-15565984D02*
X14475110Y-15365984D01*
X14560825Y-15565984D02*
X14560825Y-15461222D01*
X14560825Y-15461222D02*
X14551301Y-15442174D01*
X14551301Y-15442174D02*
X14532253Y-15432650D01*
X14532253Y-15432650D02*
X14503682Y-15432650D01*
X14503682Y-15432650D02*
X14484634Y-15442174D01*
X14484634Y-15442174D02*
X14475110Y-15451698D01*
X14684634Y-15565984D02*
X14665587Y-15556460D01*
X14665587Y-15556460D02*
X14656063Y-15546936D01*
X14656063Y-15546936D02*
X14646539Y-15527888D01*
X14646539Y-15527888D02*
X14646539Y-15470746D01*
X14646539Y-15470746D02*
X14656063Y-15451698D01*
X14656063Y-15451698D02*
X14665587Y-15442174D01*
X14665587Y-15442174D02*
X14684634Y-15432650D01*
X14684634Y-15432650D02*
X14713206Y-15432650D01*
X14713206Y-15432650D02*
X14732253Y-15442174D01*
X14732253Y-15442174D02*
X14741777Y-15451698D01*
X14741777Y-15451698D02*
X14751301Y-15470746D01*
X14751301Y-15470746D02*
X14751301Y-15527888D01*
X14751301Y-15527888D02*
X14741777Y-15546936D01*
X14741777Y-15546936D02*
X14732253Y-15556460D01*
X14732253Y-15556460D02*
X14713206Y-15565984D01*
X14713206Y-15565984D02*
X14684634Y-15565984D01*
X14865587Y-15565984D02*
X14846539Y-15556460D01*
X14846539Y-15556460D02*
X14837015Y-15537412D01*
X14837015Y-15537412D02*
X14837015Y-15365984D01*
X15017968Y-15556460D02*
X14998920Y-15565984D01*
X14998920Y-15565984D02*
X14960825Y-15565984D01*
X14960825Y-15565984D02*
X14941777Y-15556460D01*
X14941777Y-15556460D02*
X14932253Y-15537412D01*
X14932253Y-15537412D02*
X14932253Y-15461222D01*
X14932253Y-15461222D02*
X14941777Y-15442174D01*
X14941777Y-15442174D02*
X14960825Y-15432650D01*
X14960825Y-15432650D02*
X14998920Y-15432650D01*
X14998920Y-15432650D02*
X15017968Y-15442174D01*
X15017968Y-15442174D02*
X15027491Y-15461222D01*
X15027491Y-15461222D02*
X15027491Y-15480269D01*
X15027491Y-15480269D02*
X14932253Y-15499317D01*
X15103682Y-15556460D02*
X15122730Y-15565984D01*
X15122730Y-15565984D02*
X15160825Y-15565984D01*
X15160825Y-15565984D02*
X15179872Y-15556460D01*
X15179872Y-15556460D02*
X15189396Y-15537412D01*
X15189396Y-15537412D02*
X15189396Y-15527888D01*
X15189396Y-15527888D02*
X15179872Y-15508841D01*
X15179872Y-15508841D02*
X15160825Y-15499317D01*
X15160825Y-15499317D02*
X15132253Y-15499317D01*
X15132253Y-15499317D02*
X15113206Y-15489793D01*
X15113206Y-15489793D02*
X15103682Y-15470746D01*
X15103682Y-15470746D02*
X15103682Y-15461222D01*
X15103682Y-15461222D02*
X15113206Y-15442174D01*
X15113206Y-15442174D02*
X15132253Y-15432650D01*
X15132253Y-15432650D02*
X15160825Y-15432650D01*
X15160825Y-15432650D02*
X15179872Y-15442174D01*
X15256063Y-15642174D02*
X15265587Y-15632650D01*
X15265587Y-15632650D02*
X15284634Y-15604079D01*
X15284634Y-15604079D02*
X15294158Y-15585031D01*
X15294158Y-15585031D02*
X15303682Y-15556460D01*
X15303682Y-15556460D02*
X15313206Y-15508841D01*
X15313206Y-15508841D02*
X15313206Y-15470746D01*
X15313206Y-15470746D02*
X15303682Y-15423127D01*
X15303682Y-15423127D02*
X15294158Y-15394555D01*
X15294158Y-15394555D02*
X15284634Y-15375508D01*
X15284634Y-15375508D02*
X15265587Y-15346936D01*
X15265587Y-15346936D02*
X15256063Y-15337412D01*
X15617968Y-15642174D02*
X15608444Y-15632650D01*
X15608444Y-15632650D02*
X15589396Y-15604079D01*
X15589396Y-15604079D02*
X15579872Y-15585031D01*
X15579872Y-15585031D02*
X15570349Y-15556460D01*
X15570349Y-15556460D02*
X15560825Y-15508841D01*
X15560825Y-15508841D02*
X15560825Y-15470746D01*
X15560825Y-15470746D02*
X15570349Y-15423127D01*
X15570349Y-15423127D02*
X15579872Y-15394555D01*
X15579872Y-15394555D02*
X15589396Y-15375508D01*
X15589396Y-15375508D02*
X15608444Y-15346936D01*
X15608444Y-15346936D02*
X15617968Y-15337412D01*
X15694158Y-15432650D02*
X15694158Y-15565984D01*
X15694158Y-15451698D02*
X15703682Y-15442174D01*
X15703682Y-15442174D02*
X15722730Y-15432650D01*
X15722730Y-15432650D02*
X15751301Y-15432650D01*
X15751301Y-15432650D02*
X15770349Y-15442174D01*
X15770349Y-15442174D02*
X15779872Y-15461222D01*
X15779872Y-15461222D02*
X15779872Y-15565984D01*
X15903682Y-15565984D02*
X15884634Y-15556460D01*
X15884634Y-15556460D02*
X15875111Y-15546936D01*
X15875111Y-15546936D02*
X15865587Y-15527888D01*
X15865587Y-15527888D02*
X15865587Y-15470746D01*
X15865587Y-15470746D02*
X15875111Y-15451698D01*
X15875111Y-15451698D02*
X15884634Y-15442174D01*
X15884634Y-15442174D02*
X15903682Y-15432650D01*
X15903682Y-15432650D02*
X15932253Y-15432650D01*
X15932253Y-15432650D02*
X15951301Y-15442174D01*
X15951301Y-15442174D02*
X15960825Y-15451698D01*
X15960825Y-15451698D02*
X15970349Y-15470746D01*
X15970349Y-15470746D02*
X15970349Y-15527888D01*
X15970349Y-15527888D02*
X15960825Y-15546936D01*
X15960825Y-15546936D02*
X15951301Y-15556460D01*
X15951301Y-15556460D02*
X15932253Y-15565984D01*
X15932253Y-15565984D02*
X15903682Y-15565984D01*
X16027492Y-15432650D02*
X16103682Y-15432650D01*
X16056063Y-15365984D02*
X16056063Y-15537412D01*
X16056063Y-15537412D02*
X16065587Y-15556460D01*
X16065587Y-15556460D02*
X16084634Y-15565984D01*
X16084634Y-15565984D02*
X16103682Y-15565984D01*
X16322730Y-15432650D02*
X16322730Y-15632650D01*
X16322730Y-15442174D02*
X16341777Y-15432650D01*
X16341777Y-15432650D02*
X16379873Y-15432650D01*
X16379873Y-15432650D02*
X16398920Y-15442174D01*
X16398920Y-15442174D02*
X16408444Y-15451698D01*
X16408444Y-15451698D02*
X16417968Y-15470746D01*
X16417968Y-15470746D02*
X16417968Y-15527888D01*
X16417968Y-15527888D02*
X16408444Y-15546936D01*
X16408444Y-15546936D02*
X16398920Y-15556460D01*
X16398920Y-15556460D02*
X16379873Y-15565984D01*
X16379873Y-15565984D02*
X16341777Y-15565984D01*
X16341777Y-15565984D02*
X16322730Y-15556460D01*
X16532253Y-15565984D02*
X16513206Y-15556460D01*
X16513206Y-15556460D02*
X16503682Y-15537412D01*
X16503682Y-15537412D02*
X16503682Y-15365984D01*
X16694158Y-15565984D02*
X16694158Y-15461222D01*
X16694158Y-15461222D02*
X16684634Y-15442174D01*
X16684634Y-15442174D02*
X16665587Y-15432650D01*
X16665587Y-15432650D02*
X16627492Y-15432650D01*
X16627492Y-15432650D02*
X16608444Y-15442174D01*
X16694158Y-15556460D02*
X16675111Y-15565984D01*
X16675111Y-15565984D02*
X16627492Y-15565984D01*
X16627492Y-15565984D02*
X16608444Y-15556460D01*
X16608444Y-15556460D02*
X16598920Y-15537412D01*
X16598920Y-15537412D02*
X16598920Y-15518365D01*
X16598920Y-15518365D02*
X16608444Y-15499317D01*
X16608444Y-15499317D02*
X16627492Y-15489793D01*
X16627492Y-15489793D02*
X16675111Y-15489793D01*
X16675111Y-15489793D02*
X16694158Y-15480269D01*
X16760825Y-15432650D02*
X16837015Y-15432650D01*
X16789396Y-15365984D02*
X16789396Y-15537412D01*
X16789396Y-15537412D02*
X16798920Y-15556460D01*
X16798920Y-15556460D02*
X16817968Y-15565984D01*
X16817968Y-15565984D02*
X16837015Y-15565984D01*
X16979873Y-15556460D02*
X16960825Y-15565984D01*
X16960825Y-15565984D02*
X16922730Y-15565984D01*
X16922730Y-15565984D02*
X16903682Y-15556460D01*
X16903682Y-15556460D02*
X16894158Y-15537412D01*
X16894158Y-15537412D02*
X16894158Y-15461222D01*
X16894158Y-15461222D02*
X16903682Y-15442174D01*
X16903682Y-15442174D02*
X16922730Y-15432650D01*
X16922730Y-15432650D02*
X16960825Y-15432650D01*
X16960825Y-15432650D02*
X16979873Y-15442174D01*
X16979873Y-15442174D02*
X16989396Y-15461222D01*
X16989396Y-15461222D02*
X16989396Y-15480269D01*
X16989396Y-15480269D02*
X16894158Y-15499317D01*
X17160825Y-15565984D02*
X17160825Y-15365984D01*
X17160825Y-15556460D02*
X17141777Y-15565984D01*
X17141777Y-15565984D02*
X17103682Y-15565984D01*
X17103682Y-15565984D02*
X17084635Y-15556460D01*
X17084635Y-15556460D02*
X17075111Y-15546936D01*
X17075111Y-15546936D02*
X17065587Y-15527888D01*
X17065587Y-15527888D02*
X17065587Y-15470746D01*
X17065587Y-15470746D02*
X17075111Y-15451698D01*
X17075111Y-15451698D02*
X17084635Y-15442174D01*
X17084635Y-15442174D02*
X17103682Y-15432650D01*
X17103682Y-15432650D02*
X17141777Y-15432650D01*
X17141777Y-15432650D02*
X17160825Y-15442174D01*
X17237016Y-15642174D02*
X17246539Y-15632650D01*
X17246539Y-15632650D02*
X17265587Y-15604079D01*
X17265587Y-15604079D02*
X17275111Y-15585031D01*
X17275111Y-15585031D02*
X17284635Y-15556460D01*
X17284635Y-15556460D02*
X17294158Y-15508841D01*
X17294158Y-15508841D02*
X17294158Y-15470746D01*
X17294158Y-15470746D02*
X17284635Y-15423127D01*
X17284635Y-15423127D02*
X17275111Y-15394555D01*
X17275111Y-15394555D02*
X17265587Y-15375508D01*
X17265587Y-15375508D02*
X17246539Y-15346936D01*
X17246539Y-15346936D02*
X17237016Y-15337412D01*
M02*
