M48
;GenerationSoftware,Autodesk,EAGLE,9.6.2*%
;CreationDate,2023-07-28T15:52:52Z*%
FMAT,2
ICI,OFF
METRIC,TZ,000.000
T7C0.300
T6C0.350
T5C0.914
T4C1.000
T3C1.016
T2C1.397
T1C3.000
%
G90
M71
T1
X5000Y-105000
X55000Y-5000
X55000Y-55000
X5000Y-5000
X5000Y-55000
X55000Y-105000
T2
X33810Y-102920
X7080Y-65320
X7080Y-72940
X7080Y-80560
X7080Y-88180
X18570Y-102920
X41430Y-102920
X26190Y-102920
T3
X34030Y-53200
X2730Y-17145
X3000Y-30000
X2730Y-14605
X5270Y-12065
X2730Y-12065
X10130Y-12085
X12670Y-12085
X10130Y-14625
X12670Y-14625
X3000Y-27460
X10130Y-17165
X12670Y-17165
X57270Y-24235
X36570Y-53200
X51425Y-72015
X51425Y-79635
X3000Y-38420
X3000Y-40960
X3000Y-43500
X3000Y-46040
X3000Y-48580
X57000Y-12690
X57000Y-15230
X57000Y-17770
X57000Y-20310
X3000Y-24920
X3000Y-32540
X3000Y-35080
X5270Y-14605
X57270Y-29315
X54730Y-29315
X57270Y-26775
X54730Y-26775
X54730Y-24235
X43545Y-27585
X41005Y-27585
X43545Y-25045
X41005Y-25045
X43545Y-22505
X41005Y-22505
X43545Y-19965
X41005Y-19965
X51425Y-96710
X51425Y-89090
X18575Y-27045
X18575Y-24505
X57000Y-32960
X57000Y-35500
X57000Y-38040
X48270Y-5000
X45730Y-5000
X5270Y-19685
X2730Y-19685
X5270Y-17145
T4
X21110Y-6270
X21110Y-3730
X23650Y-6270
X23650Y-3730
X26190Y-6270
X26190Y-3730
X28730Y-6270
X31270Y-6270
X31270Y-3730
X28730Y-3730
X33810Y-3730
X33810Y-6270
X38890Y-3730
X36350Y-3730
X38890Y-6270
X36350Y-6270
T5
X14000Y-3730
X14000Y-6270
T6
X14400Y-81300
X10200Y-61950
X12500Y-52750
X9900Y-82500
X10200Y-64050
X14400Y-47400
X10350Y-49650
X18500Y-64500
X17500Y-64500
X16500Y-64500
X16500Y-65500
X17500Y-65500
X19500Y-65500
X18500Y-65500
X17500Y-63500
X20500Y-65500
X18500Y-63500
X19500Y-74500
X18500Y-74500
X17500Y-74500
X16500Y-74500
X16500Y-75500
X17500Y-75500
X19500Y-75500
X18500Y-75500
X17500Y-73500
X18500Y-73500
X20500Y-75500
X20500Y-74500
X21500Y-74500
X21500Y-75500
X19500Y-84500
X18500Y-84500
X17500Y-84500
X16500Y-84500
X16500Y-85500
X17500Y-85500
X19500Y-85500
X18500Y-85500
X15525Y-85500
X17500Y-83500
X18500Y-83500
X15525Y-84500
X20500Y-85500
X20500Y-84500
X21500Y-85500
X19000Y-97000
X17000Y-97000
X19000Y-94300
X18000Y-94300
X17000Y-94300
X16000Y-94300
X17500Y-93500
X18500Y-93500
X19000Y-96000
X17000Y-96000
X18000Y-96000
X18000Y-97000
X25000Y-108000
X23000Y-108000
X32425Y-98175
X19000Y-108000
X17000Y-108000
X41000Y-108000
X39000Y-108000
X37000Y-108000
X35000Y-108000
X33000Y-108000
X31000Y-108000
X43000Y-108000
X34050Y-65300
X33050Y-64300
X34050Y-64300
X33050Y-65300
X30050Y-63300
X31050Y-63300
X31050Y-64300
X30050Y-64300
X34000Y-75000
X34000Y-74000
X33000Y-73000
X30000Y-73000
X34000Y-73000
X33000Y-75000
X33000Y-74000
X30000Y-74000
X31000Y-74000
X35350Y-92350
X29650Y-93200
X44000Y-74000
X44000Y-75000
X44000Y-77000
X43000Y-78000
X43000Y-77000
X43000Y-75000
X43000Y-74000
X44250Y-90750
X44250Y-89750
X44250Y-88750
X20075Y-90825
X56000Y-74000
X57000Y-74000
X57000Y-75000
X56000Y-75000
X56000Y-72000
X57000Y-72000
X57000Y-73000
X56000Y-73000
X56000Y-80000
X56000Y-82000
X56000Y-84000
X56000Y-86000
X56000Y-88000
X35700Y-76800
X35200Y-79100
X34800Y-69200
X13350Y-62250
X13200Y-80850
X11550Y-80892
X12000Y-62400
X57000Y-61000
X31694Y-88925
X21275Y-90285
X24900Y-87850
X24900Y-88650
X24875Y-77575
X24875Y-78375
X24900Y-67750
X24900Y-68550
X24925Y-57550
X24925Y-58350
X27875Y-93300
X41175Y-86025
X49200Y-63900
X22400Y-92700
X29675Y-91275
X31694Y-68925
X21775Y-70100
X22275Y-72675
X29700Y-71300
X20800Y-60375
X31694Y-58925
X21650Y-60075
X22275Y-62250
X29650Y-61250
X20950Y-62525
X29750Y-58775
X21000Y-72700
X29750Y-68675
X31250Y-94575
X30425Y-97175
X32425Y-97175
X30425Y-96175
X31425Y-97175
X30425Y-98175
X31425Y-98175
X31425Y-96175
X39000Y-95000
X38150Y-90400
X15900Y-51300
X32850Y-61250
X49650Y-59975
X42750Y-94475
X38675Y-57650
X50350Y-66525
X38750Y-69075
X48900Y-65600
X39025Y-78950
X32850Y-71250
X38175Y-58725
X21000Y-108000
X32750Y-81350
X38825Y-67725
X43400Y-61375
X44900Y-61375
X32850Y-91050
X38325Y-78175
X56475Y-66175
X39200Y-87950
X21500Y-84500
X43450Y-67400
X53450Y-62775
X55900Y-67375
X54900Y-68375
X56900Y-67375
X1425Y-57675
X2925Y-58725
X39275Y-90350
X38350Y-87375
X57475Y-64725
X58200Y-62525
X49400Y-58275
X38175Y-60375
X38150Y-70400
X38150Y-80400
X21100Y-92700
X29775Y-88733
X20100Y-80375
X31694Y-78925
X21825Y-80035
X21075Y-82875
X29800Y-78633
X22225Y-82800
X29700Y-81225
X20475Y-70375
X16650Y-46900
X44250Y-87750
T7
X29300Y-39475
X37000Y-31975
X36825Y-27750
X34925Y-25250
X34775Y-40175
X27500Y-22700
X34425Y-36725
X17320Y-38445
X26725Y-36725
X52925Y-31400
X42000Y-40050
X32656Y-41094
X23300Y-19975
X20400Y-41100
X20325Y-37900
X35525Y-44525
X32700Y-43825
X25200Y-25050
X23942Y-38379
X23586Y-49050
X23111Y-25473
X22630Y-38700
X21090Y-49200
X24550Y-37700
X24925Y-28175
X46175Y-18175
X44150Y-55325
X21781Y-28350
X21317Y-38645
X14350Y-28475
X15408Y-24893
X16075Y-27350
X11925Y-33250
X7050Y-33675
X6950Y-31625
X12300Y-31900
X11500Y-30650
X7900Y-28500
X12150Y-40050
X11850Y-41350
X13100Y-41650
X39350Y-35182
X38850Y-16206
X31302Y-14216
X32450Y-14200
X29400Y-14275
X25125Y-33100
X25600Y-38075
X36625Y-19875
X37950Y-36150
X6200Y-38300
X34975Y-22425
X28500Y-22700
X16050Y-28475
X17450Y-54500
X19800Y-54356
X16082Y-24043
X14169Y-27050
X30152Y-38319
X26866Y-25100
X35475Y-31900
X18000Y-46650
X19766Y-38716
X18150Y-44400
X24025Y-25100
X23237Y-37798
X22150Y-49200
X15250Y-54600
X21750Y-53444
X22400Y-26555
X21824Y-37806
X20100Y-49150
X53900Y-40125
X16000Y-10000
X30000Y-5000
X18000Y-29250
X18144Y-40594
X25000Y-18000
X36375Y-21625
X26250Y-44100
X24550Y-48850
X42300Y-15800
X42000Y-2750
X18900Y-29817
X19025Y-39600
X17550Y-42900
X24450Y-49756
X25000Y-20000
X29050Y-29350
X50950Y-8900
X11450Y-22550
X46931Y-17475
X36775Y-36025
X51300Y-35950
X17775Y-15600
X13750Y-36100
X45300Y-26375
X31650Y-28750
X28975Y-31825
X31450Y-31400
X28975Y-34250
X31450Y-33350
X33150Y-38550
X27150Y-23925
X5250Y-28850
X5250Y-31450
X6350Y-41850
X5875Y-33425
X18450Y-18400
X12100Y-37200
X19475Y-21750
X14175Y-42550
X37650Y-18850
X49050Y-42650
X45550Y-55575
X40000Y-45400
X43650Y-32750
X40650Y-32800
X16600Y-41400
X55300Y-46275
X14000Y-30400
X30375Y-49275
X12625Y-48000
X33075Y-21975
X43425Y-44575
X42075Y-35575
X55300Y-48275
X29175Y-54125
X21000Y-44700
X31575Y-54125
X42425Y-41875
X32425Y-51275
X31625Y-21925
X25150Y-16800
X44000Y-13000
X25150Y-15800
X45125Y-12075
X27794Y-47800
X28600Y-46000
X30545Y-44697
X28525Y-48650
X28950Y-46894
X31500Y-45194
X19786Y-33300
X37425Y-45200
X29687Y-41850
X34350Y-41400
M30