%TF.GenerationSoftware,KiCad,Pcbnew,8.0.4*%
%TF.CreationDate,2024-12-23T00:23:05-07:00*%
%TF.ProjectId,Motor Controller,4d6f746f-7220-4436-9f6e-74726f6c6c65,Mk. 1*%
%TF.SameCoordinates,Original*%
%TF.FileFunction,Soldermask,Bot*%
%TF.FilePolarity,Negative*%
%FSLAX46Y46*%
G04 Gerber Fmt 4.6, Leading zero omitted, Abs format (unit mm)*
G04 Created by KiCad (PCBNEW 8.0.4) date 2024-12-23 00:23:05*
%MOMM*%
%LPD*%
G01*
G04 APERTURE LIST*
G04 Aperture macros list*
%AMRoundRect*
0 Rectangle with rounded corners*
0 $1 Rounding radius*
0 $2 $3 $4 $5 $6 $7 $8 $9 X,Y pos of 4 corners*
0 Add a 4 corners polygon primitive as box body*
4,1,4,$2,$3,$4,$5,$6,$7,$8,$9,$2,$3,0*
0 Add four circle primitives for the rounded corners*
1,1,$1+$1,$2,$3*
1,1,$1+$1,$4,$5*
1,1,$1+$1,$6,$7*
1,1,$1+$1,$8,$9*
0 Add four rect primitives between the rounded corners*
20,1,$1+$1,$2,$3,$4,$5,0*
20,1,$1+$1,$4,$5,$6,$7,0*
20,1,$1+$1,$6,$7,$8,$9,0*
20,1,$1+$1,$8,$9,$2,$3,0*%
%AMHorizOval*
0 Thick line with rounded ends*
0 $1 width*
0 $2 $3 position (X,Y) of the first rounded end (center of the circle)*
0 $4 $5 position (X,Y) of the second rounded end (center of the circle)*
0 Add line between two ends*
20,1,$1,$2,$3,$4,$5,0*
0 Add two circle primitives to create the rounded ends*
1,1,$1,$2,$3*
1,1,$1,$4,$5*%
%AMRotRect*
0 Rectangle, with rotation*
0 The origin of the aperture is its center*
0 $1 length*
0 $2 width*
0 $3 Rotation angle, in degrees counterclockwise*
0 Add horizontal line*
21,1,$1,$2,0,0,$3*%
%AMOutline4P*
0 Free polygon, 4 corners , with rotation*
0 The origin of the aperture is its center*
0 number of corners: always 4*
0 $1 to $8 corner X, Y*
0 $9 Rotation angle, in degrees counterclockwise*
0 create outline with 4 corners*
4,1,4,$1,$2,$3,$4,$5,$6,$7,$8,$1,$2,$9*%
%AMFreePoly0*
4,1,6,0.830000,0.000000,0.470000,-0.460000,-0.280000,-0.460000,-0.280000,0.470000,0.470000,0.470000,0.830000,0.000000,0.830000,0.000000,$1*%
%AMFreePoly1*
4,1,6,0.620000,-0.470000,-0.520000,-0.470000,-0.150000,0.000000,-0.520000,0.470000,0.620000,0.470000,0.620000,-0.470000,0.620000,-0.470000,$1*%
%AMFreePoly2*
4,1,9,3.862500,-0.866500,0.737500,-0.866500,0.737500,-0.450000,-0.737500,-0.450000,-0.737500,0.450000,0.737500,0.450000,0.737500,0.866500,3.862500,0.866500,3.862500,-0.866500,3.862500,-0.866500,$1*%
G04 Aperture macros list end*
%ADD10R,5.500000X3.250000*%
%ADD11R,1.700000X1.700000*%
%ADD12O,1.700000X1.700000*%
%ADD13R,1.000000X1.000000*%
%ADD14O,1.000000X1.000000*%
%ADD15C,2.000000*%
%ADD16R,2.200000X2.200000*%
%ADD17C,2.200000*%
%ADD18C,3.104000*%
%ADD19RoundRect,0.102000X-0.754000X0.754000X-0.754000X-0.754000X0.754000X-0.754000X0.754000X0.754000X0*%
%ADD20C,1.712000*%
%ADD21C,1.100000*%
%ADD22C,0.800000*%
%ADD23C,7.000000*%
%ADD24C,2.400000*%
%ADD25O,2.400000X2.400000*%
%ADD26C,4.500000*%
%ADD27O,1.500000X2.000000*%
%ADD28C,6.000000*%
%ADD29C,0.650000*%
%ADD30O,2.100000X1.000000*%
%ADD31O,1.800000X1.000000*%
%ADD32RotRect,1.000000X1.000000X45.000000*%
%ADD33HorizOval,1.000000X0.000000X0.000000X0.000000X0.000000X0*%
%ADD34R,2.030000X1.730000*%
%ADD35O,2.030000X1.730000*%
%ADD36RoundRect,0.200000X0.275000X-0.200000X0.275000X0.200000X-0.275000X0.200000X-0.275000X-0.200000X0*%
%ADD37RoundRect,0.250000X-0.450000X0.262500X-0.450000X-0.262500X0.450000X-0.262500X0.450000X0.262500X0*%
%ADD38RoundRect,0.225000X0.225000X0.375000X-0.225000X0.375000X-0.225000X-0.375000X0.225000X-0.375000X0*%
%ADD39RoundRect,0.200000X-0.200000X-0.275000X0.200000X-0.275000X0.200000X0.275000X-0.200000X0.275000X0*%
%ADD40RoundRect,0.250000X-1.100000X0.325000X-1.100000X-0.325000X1.100000X-0.325000X1.100000X0.325000X0*%
%ADD41RoundRect,0.225000X-0.250000X0.225000X-0.250000X-0.225000X0.250000X-0.225000X0.250000X0.225000X0*%
%ADD42RoundRect,0.200000X-0.275000X0.200000X-0.275000X-0.200000X0.275000X-0.200000X0.275000X0.200000X0*%
%ADD43RoundRect,0.100000X-0.100000X0.637500X-0.100000X-0.637500X0.100000X-0.637500X0.100000X0.637500X0*%
%ADD44R,1.910000X0.610000*%
%ADD45R,1.205000X1.550000*%
%ADD46RoundRect,0.250000X1.100000X-0.325000X1.100000X0.325000X-1.100000X0.325000X-1.100000X-0.325000X0*%
%ADD47R,1.100000X0.400000*%
%ADD48RoundRect,0.150000X-0.587500X-0.150000X0.587500X-0.150000X0.587500X0.150000X-0.587500X0.150000X0*%
%ADD49RoundRect,0.102000X0.450000X-0.550000X0.450000X0.550000X-0.450000X0.550000X-0.450000X-0.550000X0*%
%ADD50RoundRect,0.225000X0.250000X-0.225000X0.250000X0.225000X-0.250000X0.225000X-0.250000X-0.225000X0*%
%ADD51RoundRect,0.250000X0.475000X-0.250000X0.475000X0.250000X-0.475000X0.250000X-0.475000X-0.250000X0*%
%ADD52RoundRect,0.250000X0.250000X0.475000X-0.250000X0.475000X-0.250000X-0.475000X0.250000X-0.475000X0*%
%ADD53RoundRect,0.200000X0.200000X0.275000X-0.200000X0.275000X-0.200000X-0.275000X0.200000X-0.275000X0*%
%ADD54RoundRect,0.250000X-0.250000X-0.475000X0.250000X-0.475000X0.250000X0.475000X-0.250000X0.475000X0*%
%ADD55RoundRect,0.225000X0.225000X0.250000X-0.225000X0.250000X-0.225000X-0.250000X0.225000X-0.250000X0*%
%ADD56RoundRect,0.250000X-1.750000X-1.000000X1.750000X-1.000000X1.750000X1.000000X-1.750000X1.000000X0*%
%ADD57RoundRect,0.200000X-0.053033X0.335876X-0.335876X0.053033X0.053033X-0.335876X0.335876X-0.053033X0*%
%ADD58RoundRect,0.225000X0.375000X-0.225000X0.375000X0.225000X-0.375000X0.225000X-0.375000X-0.225000X0*%
%ADD59Outline4P,-1.800000X-1.150000X1.800000X-0.550000X1.800000X0.550000X-1.800000X1.150000X180.000000*%
%ADD60Outline4P,-1.800000X-1.150000X1.800000X-0.550000X1.800000X0.550000X-1.800000X1.150000X0.000000*%
%ADD61RoundRect,0.200000X0.053033X-0.335876X0.335876X-0.053033X-0.053033X0.335876X-0.335876X0.053033X0*%
%ADD62RoundRect,0.102000X-0.450000X0.550000X-0.450000X-0.550000X0.450000X-0.550000X0.450000X0.550000X0*%
%ADD63RoundRect,0.250000X-0.350000X0.850000X-0.350000X-0.850000X0.350000X-0.850000X0.350000X0.850000X0*%
%ADD64RoundRect,0.249997X-2.650003X2.950003X-2.650003X-2.950003X2.650003X-2.950003X2.650003X2.950003X0*%
%ADD65RoundRect,0.250000X1.000000X-1.400000X1.000000X1.400000X-1.000000X1.400000X-1.000000X-1.400000X0*%
%ADD66RoundRect,0.150000X0.825000X0.150000X-0.825000X0.150000X-0.825000X-0.150000X0.825000X-0.150000X0*%
%ADD67RoundRect,0.218750X-0.256250X0.218750X-0.256250X-0.218750X0.256250X-0.218750X0.256250X0.218750X0*%
%ADD68RoundRect,0.237500X0.262500X-0.237500X0.262500X0.237500X-0.262500X0.237500X-0.262500X-0.237500X0*%
%ADD69R,4.900000X3.200000*%
%ADD70RoundRect,0.250000X1.449569X-0.671751X-0.671751X1.449569X-1.449569X0.671751X0.671751X-1.449569X0*%
%ADD71FreePoly0,270.000000*%
%ADD72FreePoly1,270.000000*%
%ADD73RoundRect,0.250000X0.850000X0.350000X-0.850000X0.350000X-0.850000X-0.350000X0.850000X-0.350000X0*%
%ADD74RoundRect,0.249997X2.950003X2.650003X-2.950003X2.650003X-2.950003X-2.650003X2.950003X-2.650003X0*%
%ADD75RoundRect,0.225000X-0.225000X-0.250000X0.225000X-0.250000X0.225000X0.250000X-0.225000X0.250000X0*%
%ADD76FreePoly0,0.000000*%
%ADD77FreePoly1,0.000000*%
%ADD78RoundRect,0.250000X0.262500X0.450000X-0.262500X0.450000X-0.262500X-0.450000X0.262500X-0.450000X0*%
%ADD79RoundRect,0.150000X-0.150000X0.825000X-0.150000X-0.825000X0.150000X-0.825000X0.150000X0.825000X0*%
%ADD80RoundRect,0.250000X-0.262500X-0.450000X0.262500X-0.450000X0.262500X0.450000X-0.262500X0.450000X0*%
%ADD81RoundRect,0.250000X-0.475000X0.250000X-0.475000X-0.250000X0.475000X-0.250000X0.475000X0.250000X0*%
%ADD82RoundRect,0.250000X-1.500000X-0.550000X1.500000X-0.550000X1.500000X0.550000X-1.500000X0.550000X0*%
%ADD83RoundRect,0.225000X0.425000X0.225000X-0.425000X0.225000X-0.425000X-0.225000X0.425000X-0.225000X0*%
%ADD84FreePoly2,180.000000*%
%ADD85RoundRect,0.218750X0.218750X0.381250X-0.218750X0.381250X-0.218750X-0.381250X0.218750X-0.381250X0*%
G04 APERTURE END LIST*
D10*
%TO.C,L2*%
X126900000Y-60725000D03*
X126900000Y-71975000D03*
%TD*%
D11*
%TO.C,J30*%
X108590000Y-124110000D03*
D12*
X106050000Y-124110000D03*
X108590000Y-121570000D03*
X106050000Y-121570000D03*
X108590000Y-119030000D03*
X106050000Y-119030000D03*
X108590000Y-116490000D03*
X106050000Y-116490000D03*
X108590000Y-113950000D03*
X106050000Y-113950000D03*
%TD*%
D13*
%TO.C,J6*%
X144575000Y-95450000D03*
D14*
X145845000Y-95450000D03*
X147115000Y-95450000D03*
%TD*%
D15*
%TO.C,C91*%
X197100000Y-95700000D03*
X204600000Y-95700000D03*
%TD*%
D11*
%TO.C,J22*%
X113250000Y-96200000D03*
%TD*%
D16*
%TO.C,J7*%
X191475000Y-150525000D03*
D17*
X188935000Y-150525000D03*
X186395000Y-150525000D03*
X183855000Y-150525000D03*
%TD*%
D18*
%TO.C,J19*%
X191280000Y-69110000D03*
X191280000Y-62100000D03*
X186280000Y-69110000D03*
X186280000Y-62100000D03*
%TD*%
%TO.C,J16*%
X222180000Y-100800000D03*
X215170000Y-100800000D03*
X222180000Y-105800000D03*
X215170000Y-105800000D03*
%TD*%
D19*
%TO.C,PS1*%
X176750000Y-136925000D03*
D20*
X176750000Y-139465000D03*
X176750000Y-142005000D03*
X176750000Y-144545000D03*
%TD*%
D21*
%TO.C,J18*%
X170550000Y-55360000D03*
X168010000Y-55360000D03*
D16*
X170550000Y-57900000D03*
D17*
X168010000Y-57900000D03*
%TD*%
D11*
%TO.C,J29*%
X142600000Y-56650000D03*
%TD*%
D22*
%TO.C,H9*%
X106275000Y-149150000D03*
X107043845Y-147293845D03*
X107043845Y-151006155D03*
X108900000Y-146525000D03*
D23*
X108900000Y-149150000D03*
D22*
X108900000Y-151775000D03*
X110756155Y-147293845D03*
X110756155Y-151006155D03*
X111525000Y-149150000D03*
%TD*%
D24*
%TO.C,R102*%
X210860000Y-75050000D03*
D25*
X203240000Y-75050000D03*
%TD*%
D11*
%TO.C,J25*%
X146250000Y-56650000D03*
%TD*%
%TO.C,J24*%
X113900000Y-65100000D03*
D12*
X116440000Y-65100000D03*
X113900000Y-67640000D03*
X116440000Y-67640000D03*
X113900000Y-70180000D03*
X116440000Y-70180000D03*
X113900000Y-72720000D03*
X116440000Y-72720000D03*
%TD*%
D13*
%TO.C,J5*%
X144575000Y-92250000D03*
D14*
X145845000Y-92250000D03*
X147115000Y-92250000D03*
%TD*%
D16*
%TO.C,J10*%
X202235000Y-150525000D03*
D17*
X204775000Y-150525000D03*
X207315000Y-150525000D03*
X209855000Y-150525000D03*
X212395000Y-150525000D03*
%TD*%
D26*
%TO.C,J28*%
X121295000Y-144355000D03*
X154595000Y-144355000D03*
D27*
X136545000Y-143715000D03*
X139315000Y-143660000D03*
X135160000Y-146555000D03*
X137930000Y-146555000D03*
X140700000Y-146555000D03*
D28*
X131058000Y-143755000D03*
X144778000Y-143755000D03*
%TD*%
D22*
%TO.C,H7*%
X106275000Y-59150000D03*
X107043845Y-57293845D03*
X107043845Y-61006155D03*
X108900000Y-56525000D03*
D23*
X108900000Y-59150000D03*
D22*
X108900000Y-61775000D03*
X110756155Y-57293845D03*
X110756155Y-61006155D03*
X111525000Y-59150000D03*
%TD*%
D18*
%TO.C,J31*%
X211530000Y-69110000D03*
X211530000Y-62100000D03*
X206530000Y-69110000D03*
X206530000Y-62100000D03*
%TD*%
D29*
%TO.C,J11*%
X110200000Y-103557500D03*
X110200000Y-109337500D03*
D30*
X110700000Y-102127500D03*
D31*
X106520000Y-102127500D03*
D30*
X110700000Y-110767500D03*
D31*
X106520000Y-110767500D03*
%TD*%
D15*
%TO.C,SW3*%
X105700000Y-71450000D03*
X105700000Y-64950000D03*
X110200000Y-71450000D03*
X110200000Y-64950000D03*
%TD*%
%TO.C,SW4*%
X105700000Y-81300000D03*
X105700000Y-74800000D03*
X110200000Y-81300000D03*
X110200000Y-74800000D03*
%TD*%
%TO.C,SW2*%
X110225000Y-84550000D03*
X110225000Y-91050000D03*
X105725000Y-84550000D03*
X105725000Y-91050000D03*
%TD*%
D18*
%TO.C,J17*%
X222135000Y-121375000D03*
X215125000Y-121375000D03*
X222135000Y-126375000D03*
X215125000Y-126375000D03*
%TD*%
D22*
%TO.C,H10*%
X216275000Y-149150000D03*
X217043845Y-147293845D03*
X217043845Y-151006155D03*
X218900000Y-146525000D03*
D23*
X218900000Y-149150000D03*
D22*
X218900000Y-151775000D03*
X220756155Y-147293845D03*
X220756155Y-151006155D03*
X221525000Y-149150000D03*
%TD*%
D13*
%TO.C,J1*%
X144575000Y-105050000D03*
D14*
X145845000Y-105050000D03*
X147115000Y-105050000D03*
%TD*%
D32*
%TO.C,JP11*%
X155350000Y-107175000D03*
D33*
X156248026Y-108073026D03*
X157146051Y-108971051D03*
%TD*%
D11*
%TO.C,J14*%
X116150000Y-56600000D03*
D12*
X118690000Y-56600000D03*
X121230000Y-56600000D03*
X123770000Y-56600000D03*
%TD*%
D11*
%TO.C,J27*%
X138900000Y-56650000D03*
%TD*%
%TO.C,J20*%
X106050000Y-96250000D03*
%TD*%
D21*
%TO.C,J32*%
X217540000Y-137360000D03*
D34*
X219700000Y-142440000D03*
D35*
X219700000Y-139900000D03*
X219700000Y-137360000D03*
X219700000Y-134820000D03*
%TD*%
D11*
%TO.C,J13*%
X149900000Y-56650000D03*
%TD*%
%TO.C,J12*%
X109700000Y-96250000D03*
%TD*%
D13*
%TO.C,J4*%
X144575000Y-101850000D03*
D14*
X145845000Y-101850000D03*
X147115000Y-101850000D03*
%TD*%
D13*
%TO.C,J3*%
X144575000Y-98650000D03*
D14*
X145845000Y-98650000D03*
X147115000Y-98650000D03*
%TD*%
D22*
%TO.C,H8*%
X216275000Y-59150000D03*
X217043845Y-57293845D03*
X217043845Y-61006155D03*
X218900000Y-56525000D03*
D23*
X218900000Y-59150000D03*
D22*
X218900000Y-61775000D03*
X220756155Y-57293845D03*
X220756155Y-61006155D03*
X221525000Y-59150000D03*
%TD*%
D13*
%TO.C,J2*%
X144575000Y-108250000D03*
D14*
X145845000Y-108250000D03*
X147115000Y-108250000D03*
%TD*%
D21*
%TO.C,J8*%
X177235000Y-153040000D03*
X179775000Y-153040000D03*
D16*
X177235000Y-150500000D03*
D17*
X179775000Y-150500000D03*
%TD*%
D21*
%TO.C,J21*%
X195600000Y-153050000D03*
X198140000Y-153050000D03*
D16*
X195600000Y-150510000D03*
D17*
X198140000Y-150510000D03*
%TD*%
D15*
%TO.C,C48*%
X197750000Y-113900000D03*
X205250000Y-113900000D03*
%TD*%
D18*
%TO.C,J15*%
X215200000Y-85250000D03*
X222210000Y-85250000D03*
X215200000Y-80250000D03*
X222210000Y-80250000D03*
%TD*%
D36*
%TO.C,R37*%
X205330000Y-91487500D03*
X205330000Y-89837500D03*
%TD*%
D37*
%TO.C,R106*%
X136150000Y-67137500D03*
X136150000Y-68962500D03*
%TD*%
D38*
%TO.C,D19*%
X166825000Y-136850000D03*
X163525000Y-136850000D03*
%TD*%
D39*
%TO.C,R97*%
X159750000Y-131800000D03*
X161400000Y-131800000D03*
%TD*%
D40*
%TO.C,C184*%
X178241277Y-81325000D03*
X178241277Y-84275000D03*
%TD*%
D41*
%TO.C,C52*%
X108100000Y-67525000D03*
X108100000Y-69075000D03*
%TD*%
D42*
%TO.C,R24*%
X196750000Y-139800000D03*
X196750000Y-141450000D03*
%TD*%
D43*
%TO.C,U12*%
X206955000Y-106237500D03*
X207605000Y-106237500D03*
X208255000Y-106237500D03*
X208905000Y-106237500D03*
X208905000Y-111962500D03*
X208255000Y-111962500D03*
X207605000Y-111962500D03*
X206955000Y-111962500D03*
%TD*%
D44*
%TO.C,U32*%
X143977500Y-64470000D03*
X143977500Y-65740000D03*
X143977500Y-67010000D03*
X143977500Y-68280000D03*
X138417500Y-68280000D03*
X138417500Y-67010000D03*
X138417500Y-65740000D03*
X138417500Y-64470000D03*
D45*
X141800000Y-67150000D03*
X141800000Y-65600000D03*
X140595000Y-67150000D03*
X140595000Y-65600000D03*
%TD*%
D41*
%TO.C,C96*%
X203855000Y-110225000D03*
X203855000Y-111775000D03*
%TD*%
D46*
%TO.C,C185*%
X178139792Y-112938849D03*
X178139792Y-109988849D03*
%TD*%
D47*
%TO.C,U14*%
X195850000Y-138025000D03*
X195850000Y-137375000D03*
X195850000Y-136725000D03*
X195850000Y-136075000D03*
X200150000Y-136075000D03*
X200150000Y-136725000D03*
X200150000Y-137375000D03*
X200150000Y-138025000D03*
%TD*%
D48*
%TO.C,U30*%
X126362500Y-126750000D03*
X126362500Y-124850000D03*
X128237500Y-125800000D03*
%TD*%
D40*
%TO.C,C186*%
X168139792Y-114688849D03*
X168139792Y-117638849D03*
%TD*%
%TO.C,C80*%
X171469849Y-81325000D03*
X171469849Y-84275000D03*
%TD*%
D49*
%TO.C,U8*%
X195070000Y-146125000D03*
X192530000Y-146125000D03*
X192530000Y-139825000D03*
X195070000Y-139825000D03*
%TD*%
D41*
%TO.C,C70*%
X130475000Y-148910000D03*
X130475000Y-150460000D03*
%TD*%
D50*
%TO.C,C166*%
X145977500Y-65775000D03*
X145977500Y-64225000D03*
%TD*%
D51*
%TO.C,C117*%
X134090000Y-137447500D03*
X134090000Y-135547500D03*
%TD*%
D52*
%TO.C,C112*%
X150217500Y-127850000D03*
X148317500Y-127850000D03*
%TD*%
D46*
%TO.C,C87*%
X171431519Y-112938849D03*
X171431519Y-109988849D03*
%TD*%
D41*
%TO.C,C78*%
X203830000Y-89887500D03*
X203830000Y-91437500D03*
%TD*%
D53*
%TO.C,R14*%
X179755000Y-73750000D03*
X178105000Y-73750000D03*
%TD*%
D54*
%TO.C,C120*%
X128765000Y-131858750D03*
X130665000Y-131858750D03*
%TD*%
D55*
%TO.C,C147*%
X161350000Y-134900000D03*
X159800000Y-134900000D03*
%TD*%
%TO.C,C19*%
X165600000Y-119675000D03*
X164050000Y-119675000D03*
%TD*%
D51*
%TO.C,C163*%
X136127500Y-65560000D03*
X136127500Y-63660000D03*
%TD*%
D39*
%TO.C,R92*%
X170925000Y-133325000D03*
X172575000Y-133325000D03*
%TD*%
D56*
%TO.C,C51*%
X148917500Y-73450000D03*
X156917500Y-73450000D03*
%TD*%
D55*
%TO.C,C77*%
X171325000Y-119700000D03*
X169775000Y-119700000D03*
%TD*%
D57*
%TO.C,R47*%
X175613282Y-94144892D03*
X174446556Y-95311618D03*
%TD*%
D39*
%TO.C,R82*%
X169725000Y-121250000D03*
X171375000Y-121250000D03*
%TD*%
%TO.C,R84*%
X158475000Y-121250000D03*
X160125000Y-121250000D03*
%TD*%
D58*
%TO.C,D26*%
X173225000Y-122800000D03*
X173225000Y-119500000D03*
%TD*%
D41*
%TO.C,C81*%
X205300000Y-106825000D03*
X205300000Y-108375000D03*
%TD*%
%TO.C,C71*%
X132025000Y-148895000D03*
X132025000Y-150445000D03*
%TD*%
%TO.C,C90*%
X210500000Y-127525000D03*
X210500000Y-129075000D03*
%TD*%
D59*
%TO.C,D3*%
X201900000Y-57600000D03*
D60*
X196100000Y-57600000D03*
%TD*%
D61*
%TO.C,R40*%
X167769942Y-106533459D03*
X168936668Y-105366733D03*
%TD*%
D50*
%TO.C,C171*%
X144055000Y-151570000D03*
X144055000Y-150020000D03*
%TD*%
D39*
%TO.C,R2*%
X139325000Y-141250000D03*
X140975000Y-141250000D03*
%TD*%
D62*
%TO.C,U7*%
X183855000Y-139800000D03*
X186395000Y-139800000D03*
X186395000Y-146100000D03*
X183855000Y-146100000D03*
%TD*%
D63*
%TO.C,U19*%
X147122500Y-130200000D03*
D64*
X149402500Y-136500000D03*
D63*
X151682500Y-130200000D03*
%TD*%
D53*
%TO.C,R105*%
X143975000Y-69850000D03*
X142325000Y-69850000D03*
%TD*%
D39*
%TO.C,R93*%
X170925000Y-131800000D03*
X172575000Y-131800000D03*
%TD*%
D50*
%TO.C,C75*%
X210505000Y-111975000D03*
X210505000Y-110425000D03*
%TD*%
D65*
%TO.C,D2*%
X174533607Y-62345094D03*
X167733607Y-62345094D03*
%TD*%
D66*
%TO.C,U18*%
X128350000Y-148665000D03*
X128350000Y-149935000D03*
X128350000Y-151205000D03*
X128350000Y-152475000D03*
X123400000Y-152475000D03*
X123400000Y-151205000D03*
X123400000Y-149935000D03*
X123400000Y-148665000D03*
%TD*%
D39*
%TO.C,R9*%
X164000000Y-121225000D03*
X165650000Y-121225000D03*
%TD*%
D43*
%TO.C,U15*%
X206930000Y-85650000D03*
X207580000Y-85650000D03*
X208230000Y-85650000D03*
X208880000Y-85650000D03*
X208880000Y-91375000D03*
X208230000Y-91375000D03*
X207580000Y-91375000D03*
X206930000Y-91375000D03*
%TD*%
D61*
%TO.C,R46*%
X166709282Y-105472799D03*
X167876008Y-104306073D03*
%TD*%
D58*
%TO.C,D17*%
X162000000Y-122825000D03*
X162000000Y-119525000D03*
%TD*%
D39*
%TO.C,R96*%
X159750000Y-133350000D03*
X161400000Y-133350000D03*
%TD*%
D50*
%TO.C,C150*%
X211980000Y-91462500D03*
X211980000Y-89912500D03*
%TD*%
D40*
%TO.C,C183*%
X174855563Y-81325000D03*
X174855563Y-84275000D03*
%TD*%
D46*
%TO.C,C101*%
X180000000Y-139825000D03*
X180000000Y-136875000D03*
%TD*%
D67*
%TO.C,FB10*%
X213480000Y-89900000D03*
X213480000Y-91475000D03*
%TD*%
D53*
%TO.C,R58*%
X190925000Y-136600000D03*
X189275000Y-136600000D03*
%TD*%
D67*
%TO.C,FB14*%
X213505000Y-110412500D03*
X213505000Y-111987500D03*
%TD*%
D50*
%TO.C,C16*%
X210405000Y-132625000D03*
X210405000Y-131075000D03*
%TD*%
D68*
%TO.C,D21*%
X202050000Y-63720000D03*
X202050000Y-61780000D03*
D69*
X197700000Y-62750000D03*
%TD*%
D70*
%TO.C,C144*%
X158779899Y-100129899D03*
X154820101Y-96170101D03*
%TD*%
D66*
%TO.C,U11*%
X142005000Y-148925000D03*
X142005000Y-150195000D03*
X142005000Y-151465000D03*
X142005000Y-152735000D03*
X137055000Y-152735000D03*
X137055000Y-151465000D03*
X137055000Y-150195000D03*
X137055000Y-148925000D03*
%TD*%
D40*
%TO.C,C169*%
X178139792Y-114688849D03*
X178139792Y-117638849D03*
%TD*%
D71*
%TO.C,JP21*%
X184000000Y-135080000D03*
D72*
X184000000Y-136400000D03*
%TD*%
D51*
%TO.C,C167*%
X147750000Y-65750000D03*
X147750000Y-63850000D03*
%TD*%
D73*
%TO.C,U20*%
X131740000Y-134170000D03*
D74*
X125440000Y-136450000D03*
D73*
X131740000Y-138730000D03*
%TD*%
D50*
%TO.C,C93*%
X212005000Y-111975000D03*
X212005000Y-110425000D03*
%TD*%
D75*
%TO.C,C92*%
X200225000Y-139700000D03*
X201775000Y-139700000D03*
%TD*%
D57*
%TO.C,R35*%
X173491961Y-92023572D03*
X172325235Y-93190298D03*
%TD*%
D76*
%TO.C,JP1*%
X189270000Y-138180000D03*
D77*
X190590000Y-138180000D03*
%TD*%
D38*
%TO.C,D27*%
X172550000Y-136850000D03*
X169250000Y-136850000D03*
%TD*%
D46*
%TO.C,C149*%
X174859315Y-79475000D03*
X174859315Y-76525000D03*
%TD*%
D78*
%TO.C,R104*%
X140220000Y-72140000D03*
X138395000Y-72140000D03*
%TD*%
D41*
%TO.C,C156*%
X157550000Y-131775000D03*
X157550000Y-133325000D03*
%TD*%
D79*
%TO.C,U25*%
X168795000Y-124825000D03*
X170065000Y-124825000D03*
X171335000Y-124825000D03*
X172605000Y-124825000D03*
X172605000Y-129775000D03*
X171335000Y-129775000D03*
X170065000Y-129775000D03*
X168795000Y-129775000D03*
%TD*%
D46*
%TO.C,C192*%
X174817233Y-112938849D03*
X174817233Y-109988849D03*
%TD*%
D41*
%TO.C,C74*%
X205300000Y-86725000D03*
X205300000Y-88275000D03*
%TD*%
D80*
%TO.C,R90*%
X138395000Y-70140000D03*
X140220000Y-70140000D03*
%TD*%
D41*
%TO.C,C148*%
X150750000Y-148525000D03*
X150750000Y-150075000D03*
%TD*%
D40*
%TO.C,C193*%
X168084135Y-81325000D03*
X168084135Y-84275000D03*
%TD*%
D52*
%TO.C,C12*%
X121099998Y-78490000D03*
X119200000Y-78490000D03*
%TD*%
D49*
%TO.C,U16*%
X190715000Y-146100000D03*
X188175000Y-146100000D03*
X188175000Y-139800000D03*
X190715000Y-139800000D03*
%TD*%
D79*
%TO.C,U26*%
X157570000Y-124825000D03*
X158840000Y-124825000D03*
X160110000Y-124825000D03*
X161380000Y-124825000D03*
X161380000Y-129775000D03*
X160110000Y-129775000D03*
X158840000Y-129775000D03*
X157570000Y-129775000D03*
%TD*%
D61*
%TO.C,R34*%
X168844458Y-107607975D03*
X170011184Y-106441249D03*
%TD*%
D39*
%TO.C,R23*%
X183950000Y-138150000D03*
X185600000Y-138150000D03*
%TD*%
D46*
%TO.C,C189*%
X171473601Y-79475000D03*
X171473601Y-76525000D03*
%TD*%
D50*
%TO.C,C53*%
X108100000Y-79175000D03*
X108100000Y-77625000D03*
%TD*%
D81*
%TO.C,C164*%
X134600000Y-71400000D03*
X134600000Y-73300000D03*
%TD*%
D40*
%TO.C,C187*%
X171431519Y-114688849D03*
X171431519Y-117638849D03*
%TD*%
D76*
%TO.C,JP4*%
X138245000Y-87670000D03*
D77*
X139565000Y-87670000D03*
%TD*%
D43*
%TO.C,U13*%
X206855000Y-126837500D03*
X207505000Y-126837500D03*
X208155000Y-126837500D03*
X208805000Y-126837500D03*
X208805000Y-132562500D03*
X208155000Y-132562500D03*
X207505000Y-132562500D03*
X206855000Y-132562500D03*
%TD*%
D50*
%TO.C,C2*%
X211905000Y-132625000D03*
X211905000Y-131075000D03*
%TD*%
D82*
%TO.C,C68*%
X208400000Y-137500000D03*
X214000000Y-137500000D03*
%TD*%
D76*
%TO.C,JP5*%
X138245000Y-89220000D03*
D77*
X139565000Y-89220000D03*
%TD*%
D42*
%TO.C,R88*%
X134955000Y-148795000D03*
X134955000Y-150445000D03*
%TD*%
D75*
%TO.C,C21*%
X130225000Y-93900000D03*
X131775000Y-93900000D03*
%TD*%
D81*
%TO.C,C165*%
X136600000Y-71400000D03*
X136600000Y-73300000D03*
%TD*%
D50*
%TO.C,C17*%
X210480000Y-91462500D03*
X210480000Y-89912500D03*
%TD*%
D39*
%TO.C,R94*%
X165200000Y-133350000D03*
X166850000Y-133350000D03*
%TD*%
D55*
%TO.C,C138*%
X108800000Y-86300000D03*
X107250000Y-86300000D03*
%TD*%
D50*
%TO.C,C15*%
X117650000Y-80515000D03*
X117650000Y-78965000D03*
%TD*%
D41*
%TO.C,C76*%
X210500000Y-86625000D03*
X210500000Y-88175000D03*
%TD*%
D55*
%TO.C,C1*%
X128075000Y-128350000D03*
X126525000Y-128350000D03*
%TD*%
D41*
%TO.C,C199*%
X121375000Y-148660000D03*
X121375000Y-150210000D03*
%TD*%
%TO.C,C83*%
X210600000Y-106725000D03*
X210600000Y-108275000D03*
%TD*%
%TO.C,C154*%
X168775000Y-131750000D03*
X168775000Y-133300000D03*
%TD*%
%TO.C,C155*%
X163125000Y-131775000D03*
X163125000Y-133325000D03*
%TD*%
D50*
%TO.C,C168*%
X152250000Y-151725000D03*
X152250000Y-150175000D03*
%TD*%
D83*
%TO.C,U29*%
X149100000Y-148500000D03*
D84*
X149012500Y-150000000D03*
D83*
X149100000Y-151500000D03*
%TD*%
D55*
%TO.C,C146*%
X166800000Y-134875000D03*
X165250000Y-134875000D03*
%TD*%
D39*
%TO.C,R81*%
X164000000Y-122775000D03*
X165650000Y-122775000D03*
%TD*%
D58*
%TO.C,D18*%
X167525000Y-122800000D03*
X167525000Y-119500000D03*
%TD*%
D76*
%TO.C,JP24*%
X130170000Y-95480000D03*
D77*
X131490000Y-95480000D03*
%TD*%
D36*
%TO.C,R51*%
X205355000Y-111825000D03*
X205355000Y-110175000D03*
%TD*%
D38*
%TO.C,D32*%
X161375000Y-136875000D03*
X158075000Y-136875000D03*
%TD*%
D51*
%TO.C,C114*%
X144850000Y-133650000D03*
X144850000Y-131750000D03*
%TD*%
D57*
%TO.C,R41*%
X174552622Y-93084232D03*
X173385896Y-94250958D03*
%TD*%
D39*
%TO.C,R3*%
X149575000Y-61400000D03*
X151225000Y-61400000D03*
%TD*%
D46*
%TO.C,C172*%
X168124376Y-112938849D03*
X168124376Y-109988849D03*
%TD*%
D55*
%TO.C,C84*%
X160075000Y-119700000D03*
X158525000Y-119700000D03*
%TD*%
%TO.C,C145*%
X172525000Y-134875000D03*
X170975000Y-134875000D03*
%TD*%
D39*
%TO.C,R83*%
X169715000Y-122800000D03*
X171365000Y-122800000D03*
%TD*%
D67*
%TO.C,FB9*%
X213405000Y-131062500D03*
X213405000Y-132637500D03*
%TD*%
D39*
%TO.C,R95*%
X165200000Y-131825000D03*
X166850000Y-131825000D03*
%TD*%
D40*
%TO.C,C188*%
X174817233Y-114688849D03*
X174817233Y-117638849D03*
%TD*%
D46*
%TO.C,C197*%
X168087887Y-79475000D03*
X168087887Y-76525000D03*
%TD*%
D36*
%TO.C,R43*%
X205255000Y-132525000D03*
X205255000Y-130875000D03*
%TD*%
D41*
%TO.C,C88*%
X205200000Y-127625000D03*
X205200000Y-129175000D03*
%TD*%
D79*
%TO.C,U24*%
X163117500Y-124825000D03*
X164387500Y-124825000D03*
X165657500Y-124825000D03*
X166927500Y-124825000D03*
X166927500Y-129775000D03*
X165657500Y-129775000D03*
X164387500Y-129775000D03*
X163117500Y-129775000D03*
%TD*%
D41*
%TO.C,C85*%
X203755000Y-130925000D03*
X203755000Y-132475000D03*
%TD*%
D85*
%TO.C,FB5*%
X121262498Y-80390000D03*
X119137498Y-80390000D03*
%TD*%
D39*
%TO.C,R85*%
X158475000Y-122800000D03*
X160125000Y-122800000D03*
%TD*%
D46*
%TO.C,C194*%
X178245033Y-79475000D03*
X178245033Y-76525000D03*
%TD*%
G36*
X223343039Y-112419685D02*
G01*
X223388794Y-112472489D01*
X223400000Y-112524000D01*
X223400000Y-118376000D01*
X223380315Y-118443039D01*
X223327511Y-118488794D01*
X223276000Y-118500000D01*
X213500545Y-118500000D01*
X213499439Y-118499995D01*
X211261723Y-118480035D01*
X197936457Y-132062838D01*
X197875458Y-132096908D01*
X197847941Y-132100000D01*
X180924000Y-132100000D01*
X180856961Y-132080315D01*
X180811206Y-132027511D01*
X180800000Y-131976000D01*
X180800000Y-127624000D01*
X180819685Y-127556961D01*
X180872489Y-127511206D01*
X180924000Y-127500000D01*
X193400000Y-127500000D01*
X193400000Y-127499999D01*
X206363681Y-114536319D01*
X206425004Y-114502834D01*
X206451362Y-114500000D01*
X213700000Y-114500000D01*
X213700000Y-114499999D01*
X215763681Y-112436319D01*
X215825004Y-112402834D01*
X215851362Y-112400000D01*
X223276000Y-112400000D01*
X223343039Y-112419685D01*
G37*
G36*
X200373039Y-76169685D02*
G01*
X200418794Y-76222489D01*
X200430000Y-76274000D01*
X200430000Y-118176000D01*
X200410315Y-118243039D01*
X200357511Y-118288794D01*
X200306000Y-118300000D01*
X181004000Y-118300000D01*
X180936961Y-118280315D01*
X180891206Y-118227511D01*
X180880000Y-118176000D01*
X180880000Y-109374000D01*
X180899685Y-109306961D01*
X180952489Y-109261206D01*
X181004000Y-109250000D01*
X193230000Y-109250000D01*
X193230000Y-84950000D01*
X181054000Y-84950000D01*
X180986961Y-84930315D01*
X180941206Y-84877511D01*
X180930000Y-84826000D01*
X180930000Y-76274000D01*
X180949685Y-76206961D01*
X181002489Y-76161206D01*
X181054000Y-76150000D01*
X200306000Y-76150000D01*
X200373039Y-76169685D01*
G37*
M02*
