M48
; DRILL file {KiCad 8.0.4} date 2024-12-23T00:12:21-0700
; FORMAT={-:-/ absolute / metric / decimal}
; #@! TF.CreationDate,2024-12-23T00:12:21-07:00
; #@! TF.GenerationSoftware,Kicad,Pcbnew,8.0.4
; #@! TF.FileFunction,MixedPlating,1,4
FMAT,2
METRIC
; #@! TA.AperFunction,Plated,PTH,ViaDrill
T1C0.300
; #@! TA.AperFunction,Plated,PTH,ComponentDrill
T2C0.300
; #@! TA.AperFunction,Plated,PTH,ViaDrill
T3C0.500
; #@! TA.AperFunction,Plated,PTH,ComponentDrill
T4C0.500
; #@! TA.AperFunction,Plated,PTH,ComponentDrill
T5C0.600
; #@! TA.AperFunction,Plated,PTH,ComponentDrill
T6C0.650
; #@! TA.AperFunction,Plated,PTH,ComponentDrill
T7C1.000
; #@! TA.AperFunction,Plated,PTH,ComponentDrill
T8C1.020
; #@! TA.AperFunction,Plated,PTH,ComponentDrill
T9C1.100
; #@! TA.AperFunction,Plated,PTH,ComponentDrill
T10C1.200
; #@! TA.AperFunction,Plated,PTH,ComponentDrill
T11C2.000
; #@! TA.AperFunction,Plated,PTH,ComponentDrill
T12C3.000
; #@! TA.AperFunction,Plated,PTH,ComponentDrill
T13C3.500
; #@! TA.AperFunction,Plated,PTH,ComponentDrill
T14C4.000
; #@! TA.AperFunction,NonPlated,NPTH,ComponentDrill
T15C0.650
; #@! TA.AperFunction,NonPlated,NPTH,ComponentDrill
T16C1.100
%
G90
G05
T1
X105.7Y-99.3
X106.539Y-105.692
X106.539Y-108.232
X109.079Y-87.912
X109.079Y-92.992
X109.079Y-100.612
X109.079Y-126.012
X110.305Y-105.22
X110.32Y-108.24
X110.9Y-115.6
X110.9Y-117.4
X111.619Y-92.992
X111.619Y-126.012
X111.8Y-139.8
X111.9Y-132.2
X112.3Y-114.6
X112.8Y-129.4
X112.9Y-131.0
X113.075Y-106.575
X113.6Y-113.7
X113.9Y-134.2
X114.159Y-57.432
X114.159Y-75.212
X114.159Y-77.752
X114.159Y-100.612
X114.159Y-123.472
X114.159Y-143.792
X114.159Y-146.332
X114.159Y-148.872
X114.159Y-151.412
X114.287Y-102.392
X114.438Y-103.992
X114.9Y-92.0
X115.22Y-119.445
X115.3Y-132.8
X115.4Y-113.3
X115.6Y-89.75
X115.995Y-83.57
X115.995Y-85.12
X116.699Y-75.212
X116.699Y-141.252
X116.699Y-143.792
X116.699Y-146.332
X116.699Y-148.872
X116.699Y-151.412
X117.4Y-98.2
X117.65Y-96.45
X117.66Y-116.219
X117.7Y-118.7
X117.8Y-130.5
X118.002Y-117.623
X118.2Y-132.9
X118.6Y-84.08
X118.7Y-120.3
X118.8Y-129.4
X118.95Y-132.15
X119.1Y-72.2
X119.239Y-148.872
X119.239Y-151.412
X119.4Y-117.4
X119.753Y-85.153
X119.84Y-97.572
X119.985Y-104.157
X120.0Y-100.8
X120.0Y-110.4
X120.262Y-99.35
X120.262Y-105.968
X120.262Y-106.917
X120.445Y-86.2
X120.5Y-73.5
X121.0Y-100.3
X121.2Y-127.7
X121.345Y-122.946
X121.35Y-116.7
X121.65Y-85.28
X121.75Y-115.25
X121.779Y-62.512
X121.779Y-65.052
X121.9Y-131.4
X122.45Y-116.6
X122.5Y-127.8
X122.65Y-75.5
X122.75Y-130.6
X122.9Y-147.4
X123.4Y-100.1
X123.4Y-101.6
X123.4Y-102.84
X123.4Y-149.935
X123.5Y-107.317
X123.7Y-141.8
X123.8Y-78.44
X124.0Y-146.5
X124.06Y-81.7
X124.9Y-83.8
X124.9Y-85.75
X124.9Y-89.55
X124.9Y-91.5
X125.0Y-149.5
X125.15Y-120.991
X125.3Y-126.0
X125.45Y-116.7
X125.8Y-84.85
X125.8Y-86.65
X125.8Y-88.65
X125.8Y-90.45
X125.9Y-132.2
X126.15Y-114.0
X126.2Y-116.0
X126.5Y-142.6
X126.505Y-105.968
X126.505Y-106.917
X126.55Y-74.45
X126.6Y-104.2
X126.859Y-57.432
X126.859Y-146.332
X126.9Y-83.8
X126.9Y-85.75
X126.9Y-87.64
X126.9Y-89.55
X126.9Y-91.5
X126.95Y-118.2
X126.95Y-120.3
X126.96Y-112.6
X127.04Y-75.229
X127.2Y-105.2
X127.5Y-131.9
X127.501Y-76.111
X127.6Y-116.2
X127.8Y-76.987
X128.0Y-84.85
X128.0Y-86.65
X128.0Y-88.65
X128.0Y-90.45
X128.05Y-106.15
X128.304Y-120.1
X128.35Y-129.996
X128.65Y-79.5
X128.75Y-117.35
X128.755Y-123.755
X128.8Y-115.9
X128.9Y-83.8
X128.9Y-85.75
X128.9Y-89.55
X128.9Y-91.5
X128.95Y-106.45
X128.96Y-112.5
X128.96Y-120.8
X129.35Y-77.35
X129.399Y-57.432
X129.643Y-124.409
X129.8Y-108.9
X129.83Y-129.62
X129.85Y-107.4
X130.2Y-95.5
X130.24Y-119.35
X130.503Y-104.32
X131.206Y-119.255
X131.322Y-115.261
X131.38Y-129.62
X131.4Y-117.35
X131.6Y-78.05
X131.65Y-114.1
X131.7Y-81.85
X131.715Y-132.2
X131.8Y-85.3
X131.8Y-93.9
X131.939Y-57.432
X131.95Y-112.6
X132.05Y-104.35
X132.07Y-83.92
X132.1Y-88.05
X132.1Y-118.15
X132.1Y-119.15
X132.3Y-80.35
X132.3Y-100.9
X132.55Y-86.25
X132.8Y-126.77
X132.86Y-115.64
X132.93Y-131.005
X132.93Y-129.62
X133.2Y-80.5
X133.354Y-81.592
X133.4Y-134.55
X133.8Y-100.9
X133.8Y-125.15
X133.95Y-120.7
X134.03Y-126.17
X134.35Y-104.3
X134.479Y-57.432
X134.479Y-141.252
X134.95Y-110.2
X135.025Y-108.1
X135.5Y-121.25
X135.8Y-104.3
X136.1Y-130.75
X136.85Y-139.75
X136.95Y-124.275
X137.019Y-57.432
X137.05Y-121.25
X137.2Y-115.95
X137.2Y-118.4
X137.38Y-89.2
X137.6Y-108.4
X137.7Y-100.9
X137.7Y-104.05
X137.95Y-132.05
X138.1Y-112.035
X138.1Y-134.85
X138.2Y-130.05
X138.3Y-117.55
X138.35Y-113.4
X138.6Y-126.25
X138.755Y-116.05
X139.0Y-104.6
X139.3Y-120.9
X139.5Y-134.75
X139.559Y-82.832
X139.559Y-85.372
X139.63Y-87.71
X139.8Y-93.25
X139.85Y-105.25
X139.9Y-91.75
X139.9Y-100.9
X139.9Y-132.05
X140.1Y-98.8
X140.4Y-89.25
X140.65Y-106.2
X140.85Y-134.8
X141.15Y-97.75
X141.2Y-89.95
X141.4Y-130.05
X142.1Y-96.85
X142.2Y-78.638
X142.6Y-100.9
X142.75Y-108.15
X144.0Y-123.5
X144.0Y-124.95
X144.1Y-78.6
X144.2Y-127.85
X144.639Y-72.672
X144.639Y-82.832
X144.639Y-85.372
X144.75Y-130.1
X145.2Y-59.65
X145.35Y-122.2
X145.5Y-93.9
X146.55Y-127.85
X146.6Y-123.5
X146.6Y-124.95
X146.75Y-58.9
X147.1Y-132.05
X147.179Y-82.832
X147.179Y-85.372
X147.179Y-87.912
X147.179Y-90.452
X147.7Y-122.2
X148.75Y-92.5
X149.5Y-90.8
X149.5Y-91.85
X149.65Y-126.8
X149.719Y-85.372
X149.719Y-143.792
X149.719Y-146.332
X150.0Y-77.0
X150.082Y-61.978
X150.25Y-88.7
X150.4Y-119.3
X150.55Y-122.2
X150.7Y-65.175
X150.723Y-60.232
X150.8Y-93.8
X150.8Y-95.7
X151.35Y-124.95
X151.4Y-70.65
X151.8Y-132.35
X152.2Y-119.2
X152.25Y-76.5
X152.25Y-89.35
X152.25Y-121.55
X153.1Y-125.1
X153.25Y-116.7
X153.25Y-122.8
X153.3Y-75.85
X153.3Y-90.25
X153.85Y-127.0
X154.0Y-132.2
X154.1Y-90.9
X154.15Y-114.0
X154.15Y-124.25
X154.198Y-75.903
X154.799Y-148.872
X154.799Y-151.412
X154.9Y-93.2
X155.2Y-120.75
X155.2Y-125.95
X155.85Y-133.45
X156.0Y-120.0
X156.3Y-92.95
X157.339Y-57.432
X157.339Y-77.752
X157.339Y-82.832
X157.339Y-148.872
X157.339Y-151.412
X157.793Y-105.628
X158.05Y-111.4
X158.45Y-134.95
X158.8Y-128.4
X158.85Y-117.6
X159.175Y-121.266
X159.4Y-64.697
X159.5Y-92.5
X159.7Y-95.7
X159.776Y-132.775
X159.795Y-104.285
X159.879Y-72.672
X159.879Y-75.212
X159.879Y-77.752
X159.879Y-82.832
X159.879Y-85.372
X160.142Y-93.658
X160.223Y-131.927
X161.1Y-127.65
X161.301Y-123.758
X162.0Y-120.25
X162.309Y-99.574
X162.419Y-72.672
X162.419Y-75.212
X162.419Y-77.752
X162.419Y-82.832
X162.419Y-85.372
X162.419Y-113.312
X162.419Y-115.852
X162.821Y-98.96
X163.021Y-100.16
X163.25Y-127.65
X163.3Y-119.7
X163.4Y-122.8
X163.45Y-57.4
X164.562Y-58.532
X164.6Y-131.85
X164.75Y-121.24
X164.959Y-72.672
X164.959Y-82.832
X164.959Y-85.372
X164.959Y-87.912
X164.959Y-110.772
X164.959Y-115.852
X165.2Y-137.5
X165.243Y-132.8
X165.65Y-118.5
X165.65Y-128.15
X166.074Y-132.59
X166.33Y-97.6
X166.38Y-98.8
X166.877Y-123.755
X167.499Y-72.672
X167.499Y-87.912
X167.5Y-120.1
X167.53Y-96.45
X167.53Y-97.65
X167.53Y-98.8
X167.58Y-100.0
X168.13Y-98.25
X168.73Y-96.45
X168.73Y-97.65
X168.73Y-98.85
X168.73Y-100.0
X169.1Y-119.75
X169.15Y-122.8
X169.93Y-97.65
X169.93Y-98.85
X170.039Y-72.672
X170.039Y-148.872
X170.039Y-151.412
X170.1Y-128.35
X170.475Y-121.311
X170.9Y-132.96
X170.925Y-131.253
X171.605Y-106.225
X172.579Y-57.432
X172.579Y-65.052
X172.579Y-67.592
X172.579Y-87.912
X172.579Y-146.332
X172.579Y-148.872
X172.579Y-151.412
X172.6Y-69.45
X172.6Y-126.0
X172.8Y-94.9
X173.2Y-120.15
X174.12Y-71.087
X174.4Y-59.275
X174.4Y-128.6
X175.119Y-57.432
X175.119Y-65.052
X175.119Y-67.592
X175.119Y-87.912
X175.119Y-90.452
X175.119Y-120.932
X175.119Y-123.472
X175.119Y-151.412
X176.025Y-74.65
X176.604Y-100.192
X177.6Y-127.8
X177.659Y-87.912
X177.659Y-90.452
X178.4Y-128.6
X178.75Y-131.05
X179.2Y-127.8
X179.4Y-129.5
X180.199Y-62.512
X180.199Y-65.052
X180.199Y-67.592
X182.6Y-136.6
X185.279Y-57.432
X185.55Y-139.75
X185.6Y-135.8
X186.68Y-120.6
X187.819Y-57.432
X188.23Y-136.82
X189.405Y-138.6
X189.65Y-139.75
X190.05Y-135.45
X190.359Y-57.432
X191.48Y-88.29
X191.741Y-137.549
X192.5Y-139.85
X192.899Y-57.432
X192.899Y-131.092
X193.5Y-136.675
X194.15Y-135.7
X194.7Y-134.68
X195.439Y-67.592
X195.439Y-70.132
X195.439Y-72.672
X195.439Y-128.552
X196.6Y-134.9
X196.9Y-138.6
X197.25Y-131.1
X197.7Y-135.95
X197.979Y-67.592
X197.979Y-70.132
X197.979Y-72.672
X198.5Y-136.85
X199.2Y-129.25
X200.3Y-128.1
X200.412Y-130.779
X200.519Y-67.592
X200.519Y-70.132
X200.519Y-72.672
X202.95Y-130.95
X203.0Y-89.9
X203.05Y-110.25
X203.059Y-67.592
X203.059Y-70.132
X203.059Y-72.672
X203.059Y-77.752
X203.059Y-136.172
X203.973Y-129.925
X204.35Y-142.575
X205.2Y-84.45
X205.2Y-129.2
X205.23Y-103.325
X205.3Y-88.3
X205.4Y-108.4
X205.485Y-125.485
X205.599Y-57.432
X205.599Y-65.052
X205.599Y-72.672
X205.599Y-75.212
X205.599Y-77.752
X205.599Y-92.992
X205.599Y-98.072
X205.599Y-115.852
X205.599Y-118.392
X206.15Y-126.85
X206.4Y-106.2
X206.55Y-85.7
X206.7Y-110.55
X207.354Y-90.154
X207.378Y-142.575
X208.139Y-57.432
X208.139Y-59.972
X208.139Y-65.052
X208.139Y-72.672
X208.139Y-75.212
X208.139Y-77.752
X208.139Y-80.292
X208.139Y-82.832
X208.139Y-87.912
X209.35Y-85.65
X209.375Y-106.375
X209.4Y-126.85
X209.95Y-143.15
X210.5Y-84.35
X210.5Y-109.0
X210.5Y-129.1
X210.6Y-125.6
X210.63Y-103.325
X210.679Y-57.432
X210.679Y-65.052
X210.679Y-72.672
X210.679Y-77.752
X210.679Y-98.072
X210.679Y-118.392
X211.1Y-88.7
X213.219Y-57.432
X213.219Y-59.972
X213.219Y-65.052
X213.219Y-72.672
X213.219Y-75.212
X213.219Y-98.072
X213.219Y-118.392
X213.4Y-131.0
X215.759Y-65.052
X215.759Y-67.592
X215.759Y-70.132
X215.759Y-72.672
X215.759Y-75.212
X215.759Y-90.452
X215.759Y-98.072
X215.759Y-110.772
X215.759Y-118.392
X215.759Y-131.092
X215.759Y-133.632
X215.759Y-143.792
X218.299Y-65.052
X218.299Y-67.592
X218.299Y-70.132
X218.299Y-72.672
X218.299Y-75.212
X218.299Y-90.452
X218.299Y-98.072
X218.299Y-110.772
X218.299Y-118.392
X218.299Y-131.092
X220.839Y-65.052
X220.839Y-67.592
X220.839Y-70.132
X220.839Y-72.672
X220.839Y-75.212
X220.839Y-90.452
X220.839Y-98.072
X220.839Y-110.772
X220.839Y-118.392
X220.839Y-131.092
T2
X154.121Y-61.772
X154.121Y-63.072
X154.121Y-64.372
X154.121Y-65.672
X154.121Y-66.972
X155.421Y-61.772
X155.421Y-63.072
X155.421Y-64.372
X155.421Y-65.672
X155.421Y-66.972
X156.721Y-61.772
X156.721Y-63.072
X156.721Y-64.372
X156.721Y-65.672
X156.721Y-66.972
T3
X105.6Y-135.8
X105.65Y-129.45
X105.65Y-131.0
X105.65Y-132.6
X105.65Y-134.2
X105.7Y-137.35
X105.75Y-139.95
X105.75Y-141.85
X105.75Y-143.75
X106.675Y-86.3
X106.925Y-84.5
X111.8Y-141.5
X112.27Y-108.985
X112.438Y-110.492
X112.487Y-101.542
X112.915Y-104.807
X115.35Y-103.95
X115.4Y-102.35
X115.7Y-93.8
X118.125Y-78.49
X120.3Y-138.9
X120.3Y-140.0
X121.2Y-119.53
X121.375Y-150.21
X121.423Y-121.353
X122.019Y-119.764
X123.0Y-135.75
X123.0Y-137.1
X123.0Y-138.5
X123.35Y-80.5
X123.4Y-152.475
X124.1Y-126.35
X124.15Y-134.35
X124.15Y-135.75
X124.15Y-137.1
X124.15Y-138.5
X124.525Y-122.95
X124.55Y-108.5
X125.8Y-95.6
X125.85Y-97.95
X125.943Y-107.835
X127.0Y-134.3
X127.0Y-136.45
X127.0Y-138.45
X127.3Y-97.85
X128.15Y-134.3
X128.15Y-135.7
X128.15Y-137.05
X128.15Y-138.45
X128.35Y-149.935
X128.35Y-151.205
X128.7Y-140.35
X129.4Y-139.65
X129.434Y-81.04
X129.593Y-125.659
X130.2Y-97.6
X131.95Y-151.935
X132.1Y-92.13
X132.6Y-93.19
X133.7Y-92.54
X134.025Y-87.94
X134.628Y-83.948
X134.9Y-150.4
X134.951Y-123.21
X135.7Y-73.3
X135.7Y-134.9
X135.903Y-95.015
X136.15Y-87.99
X136.25Y-84.69
X136.35Y-86.19
X136.643Y-109.635
X137.45Y-73.3
X138.4Y-73.0
X138.5Y-110.65
X139.643Y-112.085
X140.3Y-67.8
X140.5Y-65.3
X140.5Y-66.7
X141.2Y-66.0
X141.2Y-67.5
X141.2Y-149.295
X141.9Y-65.3
X141.9Y-66.7
X142.0Y-152.75
X142.2Y-67.9
X142.3Y-70.6
X142.582Y-112.538
X142.8Y-134.9
X143.203Y-110.047
X143.4Y-64.5
X143.95Y-65.85
X143.95Y-67.0
X144.3Y-112.45
X144.6Y-63.4
X144.6Y-64.5
X145.35Y-67.0
X145.35Y-112.45
X145.9Y-64.2
X146.0Y-66.3
X146.0Y-67.6
X146.275Y-114.9
X146.65Y-67.0
X146.7Y-150.1
X146.9Y-115.7
X147.25Y-66.3
X147.3Y-67.6
X147.95Y-67.0
X148.206Y-60.167
X148.6Y-66.3
X148.6Y-67.6
X149.25Y-67.0
X149.95Y-66.3
X149.95Y-67.6
X150.6Y-67.0
X151.3Y-66.3
X151.3Y-67.6
X151.8Y-148.6
X152.0Y-67.0
X152.9Y-66.3
X155.015Y-116.9
X155.4Y-98.9
X155.7Y-115.9
X156.4Y-116.7
X156.925Y-131.75
X157.5Y-102.45
X158.1Y-103.0
X159.1Y-99.8
X159.65Y-100.35
X160.2Y-100.9
X160.5Y-108.0
X161.05Y-103.1
X162.6Y-110.75
X162.7Y-93.898
X162.707Y-132.268
X165.15Y-107.9
X166.91Y-80.37
X166.92Y-113.79
X167.77Y-77.135
X167.77Y-84.7
X167.79Y-118.1
X168.1Y-79.5
X168.1Y-81.27
X168.11Y-112.92
X168.11Y-114.69
X168.335Y-76.05
X168.355Y-109.45
X168.355Y-117.015
X168.775Y-131.2
X169.04Y-77.135
X169.04Y-84.7
X169.06Y-118.1
X169.25Y-139.05
X169.25Y-140.05
X169.25Y-141.1
X169.25Y-142.15
X169.605Y-76.05
X169.625Y-109.45
X169.625Y-117.015
X169.65Y-89.9
X169.78Y-80.35
X169.79Y-113.77
X170.178Y-102.943
X170.25Y-139.45
X170.25Y-140.45
X170.25Y-141.55
X170.31Y-77.135
X170.31Y-84.7
X170.33Y-118.1
X170.875Y-76.05
X170.895Y-109.45
X170.895Y-117.015
X171.15Y-139.05
X171.15Y-140.05
X171.15Y-141.1
X171.15Y-142.2
X171.48Y-79.51
X171.48Y-81.34
X171.49Y-112.93
X171.49Y-114.76
X171.58Y-77.135
X171.58Y-84.7
X171.6Y-118.1
X171.943Y-101.304
X172.145Y-76.05
X172.165Y-109.45
X172.165Y-117.015
X172.381Y-105.677
X172.4Y-90.95
X172.827Y-96.068
X172.85Y-77.135
X172.85Y-84.7
X172.87Y-118.1
X173.17Y-80.36
X173.18Y-113.78
X173.263Y-93.115
X173.415Y-76.05
X173.435Y-117.015
X173.453Y-99.25
X174.12Y-77.135
X174.12Y-84.7
X174.14Y-118.1
X174.237Y-108.007
X174.392Y-103.624
X174.685Y-76.05
X174.705Y-117.015
X174.86Y-81.32
X174.87Y-79.5
X175.13Y-102.8
X175.39Y-77.135
X175.39Y-84.7
X175.41Y-118.1
X175.88Y-73.75
X175.955Y-76.05
X175.975Y-109.45
X175.975Y-117.015
X176.331Y-97.149
X176.56Y-80.39
X176.599Y-93.447
X176.66Y-77.135
X176.66Y-84.7
X176.68Y-118.1
X176.742Y-105.738
X176.871Y-95.244
X176.9Y-113.0
X177.08Y-101.8
X177.225Y-76.05
X177.245Y-109.45
X177.85Y-136.95
X177.868Y-99.988
X177.93Y-77.135
X177.93Y-84.7
X178.24Y-79.43
X178.24Y-81.28
X178.495Y-76.05
X179.28Y-103.05
X179.98Y-80.35
X180.48Y-131.475
X180.52Y-98.15
X181.065Y-130.26
X181.105Y-96.935
X181.41Y-78.57
X181.41Y-81.11
X181.41Y-83.65
X181.48Y-76.25
X181.486Y-108.267
X181.53Y-75.142
X181.531Y-100.442
X181.567Y-110.634
X181.567Y-113.174
X181.567Y-115.714
X181.63Y-129.175
X181.67Y-95.85
X181.75Y-131.475
X181.79Y-98.15
X182.335Y-130.26
X182.375Y-96.935
X182.68Y-79.84
X182.68Y-82.38
X182.68Y-84.92
X182.68Y-106.25
X182.838Y-109.364
X182.838Y-111.904
X182.838Y-114.444
X182.9Y-129.175
X182.94Y-95.85
X183.02Y-131.475
X183.06Y-98.15
X183.605Y-130.26
X183.645Y-96.935
X183.95Y-78.57
X183.95Y-81.11
X183.95Y-83.65
X183.98Y-76.25
X184.107Y-110.634
X184.107Y-113.174
X184.107Y-115.714
X184.17Y-129.175
X184.21Y-95.85
X184.29Y-131.475
X184.33Y-98.15
X184.875Y-130.26
X184.915Y-96.935
X185.22Y-77.3
X185.22Y-79.84
X185.22Y-82.38
X185.22Y-84.92
X185.27Y-119.287
X185.306Y-93.537
X185.33Y-126.432
X185.377Y-109.364
X185.377Y-111.904
X185.377Y-114.444
X185.377Y-116.984
X185.44Y-129.175
X185.48Y-95.85
X185.56Y-131.475
X185.6Y-98.15
X186.145Y-130.26
X186.185Y-96.935
X186.28Y-86.058
X186.49Y-76.25
X186.49Y-78.57
X186.49Y-81.11
X186.49Y-83.65
X186.647Y-110.634
X186.647Y-113.174
X186.647Y-115.714
X186.647Y-118.254
X186.71Y-129.175
X186.75Y-95.85
X186.83Y-131.475
X186.87Y-98.15
X186.9Y-136.7
X187.415Y-130.26
X187.455Y-96.935
X187.63Y-108.267
X187.68Y-75.142
X187.68Y-100.442
X187.76Y-77.3
X187.76Y-79.84
X187.76Y-82.38
X187.76Y-84.92
X187.917Y-109.364
X187.917Y-111.904
X187.917Y-114.444
X187.917Y-116.984
X187.98Y-129.175
X188.02Y-95.85
X188.1Y-131.475
X188.14Y-98.15
X188.685Y-130.26
X188.725Y-96.935
X189.03Y-76.25
X189.03Y-78.57
X189.03Y-81.11
X189.03Y-83.65
X189.188Y-110.634
X189.188Y-113.174
X189.188Y-115.714
X189.188Y-118.254
X189.25Y-129.175
X189.29Y-95.85
X189.37Y-131.475
X189.41Y-98.15
X189.955Y-130.26
X189.995Y-96.935
X190.3Y-77.3
X190.3Y-79.84
X190.3Y-82.38
X190.3Y-84.92
X190.457Y-109.364
X190.457Y-111.904
X190.457Y-114.444
X190.457Y-116.984
X190.52Y-129.175
X190.56Y-95.85
X190.64Y-131.475
X190.68Y-98.15
X191.225Y-130.26
X191.265Y-96.935
X191.38Y-76.24
X191.38Y-78.56
X191.38Y-81.1
X191.38Y-83.65
X191.48Y-86.058
X191.48Y-93.6
X191.48Y-126.432
X191.572Y-119.287
X191.79Y-110.59
X191.79Y-113.13
X191.79Y-115.67
X191.79Y-118.21
X191.79Y-129.175
X191.83Y-95.85
X192.65Y-77.29
X192.65Y-79.83
X192.65Y-82.37
X193.88Y-76.24
X193.88Y-78.56
X193.88Y-81.1
X195.15Y-77.29
X195.15Y-79.83
X196.41Y-76.2
X196.41Y-78.52
X196.75Y-143.275
X198.8Y-138.0
X199.08Y-76.2
X199.08Y-78.55
X202.981Y-141.581
X203.05Y-91.45
X203.1Y-132.5
X203.73Y-112.65
X205.1Y-141.7
X206.304Y-131.388
X206.35Y-137.55
X208.05Y-141.65
X208.4Y-137.5
X210.405Y-130.2
X210.48Y-89.112
X210.505Y-109.65
X211.15Y-131.1
X211.15Y-141.65
X211.74Y-115.315
X211.88Y-95.215
X211.98Y-89.112
X212.005Y-109.65
X212.325Y-114.1
X212.465Y-94.0
X212.89Y-113.015
X213.01Y-115.315
X213.03Y-92.915
X213.15Y-95.215
X213.4Y-89.25
X213.45Y-109.5
X213.595Y-114.1
X213.735Y-94.0
X214.16Y-113.015
X214.28Y-115.315
X214.3Y-92.915
X214.42Y-95.215
X214.865Y-114.1
X215.005Y-94.0
X215.43Y-113.015
X215.55Y-115.315
X215.57Y-92.915
X215.69Y-95.215
X216.135Y-114.1
X216.275Y-94.0
X216.7Y-113.015
X216.82Y-115.315
X216.84Y-92.915
X216.96Y-95.215
X217.405Y-114.1
X217.545Y-94.0
X217.97Y-113.015
X218.09Y-115.315
X218.11Y-92.915
X218.23Y-95.215
X218.675Y-114.1
X218.815Y-94.0
X219.24Y-113.015
X219.36Y-115.315
X219.38Y-92.915
X219.5Y-95.215
X219.945Y-114.1
X220.085Y-94.0
X220.51Y-113.015
X220.63Y-115.315
X220.65Y-92.915
X220.77Y-95.215
X221.215Y-114.1
X221.355Y-94.0
X221.78Y-113.015
X221.9Y-115.315
X221.92Y-92.915
X222.04Y-95.215
X222.485Y-114.1
X222.625Y-94.0
X223.05Y-113.015
X223.19Y-92.915
T4
X106.275Y-59.15
X106.275Y-149.15
X107.044Y-57.294
X107.044Y-61.006
X107.044Y-147.294
X107.044Y-151.006
X108.9Y-56.525
X108.9Y-61.775
X108.9Y-146.525
X108.9Y-151.775
X110.756Y-57.294
X110.756Y-61.006
X110.756Y-147.294
X110.756Y-151.006
X111.525Y-59.15
X111.525Y-149.15
X216.275Y-59.15
X216.275Y-149.15
X217.044Y-57.294
X217.044Y-61.006
X217.044Y-147.294
X217.044Y-151.006
X218.9Y-56.525
X218.9Y-61.775
X218.9Y-146.525
X218.9Y-151.775
X220.756Y-57.294
X220.756Y-61.006
X220.756Y-147.294
X220.756Y-151.006
X221.525Y-59.15
X221.525Y-149.15
T6
X144.575Y-92.25
X144.575Y-95.45
X144.575Y-98.65
X144.575Y-101.85
X144.575Y-105.05
X144.575Y-108.25
X145.845Y-92.25
X145.845Y-95.45
X145.845Y-98.65
X145.845Y-101.85
X145.845Y-105.05
X145.845Y-108.25
X147.115Y-92.25
X147.115Y-95.45
X147.115Y-98.65
X147.115Y-101.85
X147.115Y-105.05
X147.115Y-108.25
X155.35Y-107.175
X156.248Y-108.073
X157.146Y-108.971
T7
X106.05Y-96.25
X106.05Y-113.95
X106.05Y-116.49
X106.05Y-119.03
X106.05Y-121.57
X106.05Y-124.11
X108.59Y-113.95
X108.59Y-116.49
X108.59Y-119.03
X108.59Y-121.57
X108.59Y-124.11
X109.7Y-96.25
X113.25Y-96.2
X113.9Y-65.1
X113.9Y-67.64
X113.9Y-70.18
X113.9Y-72.72
X116.15Y-56.6
X116.44Y-65.1
X116.44Y-67.64
X116.44Y-70.18
X116.44Y-72.72
X118.69Y-56.6
X121.23Y-56.6
X123.77Y-56.6
X135.16Y-146.555
X136.545Y-143.715
X137.93Y-146.555
X138.9Y-56.65
X139.315Y-143.66
X140.7Y-146.555
X142.6Y-56.65
X146.25Y-56.65
X149.9Y-56.65
X176.75Y-136.925
X176.75Y-139.465
X176.75Y-142.005
X176.75Y-144.545
X197.1Y-95.7
X197.75Y-113.9
X204.6Y-95.7
X205.25Y-113.9
T8
X219.7Y-134.82
X219.7Y-137.36
X219.7Y-139.9
X219.7Y-142.44
T9
X105.7Y-64.95
X105.7Y-71.45
X105.7Y-74.8
X105.7Y-81.3
X105.725Y-84.55
X105.725Y-91.05
X110.2Y-64.95
X110.2Y-71.45
X110.2Y-74.8
X110.2Y-81.3
X110.225Y-84.55
X110.225Y-91.05
X168.01Y-57.9
X170.55Y-57.9
X177.235Y-150.5
X179.775Y-150.5
X183.855Y-150.525
X186.395Y-150.525
X188.935Y-150.525
X191.475Y-150.525
X195.6Y-150.51
X198.14Y-150.51
X202.235Y-150.525
X204.775Y-150.525
X207.315Y-150.525
X209.855Y-150.525
X212.395Y-150.525
T10
X203.24Y-75.05
X210.86Y-75.05
T11
X186.28Y-62.1
X186.28Y-69.11
X191.28Y-62.1
X191.28Y-69.11
X206.53Y-62.1
X206.53Y-69.11
X211.53Y-62.1
X211.53Y-69.11
X215.125Y-121.375
X215.125Y-126.375
X215.17Y-100.8
X215.17Y-105.8
X215.2Y-80.25
X215.2Y-85.25
X222.135Y-121.375
X222.135Y-126.375
X222.18Y-100.8
X222.18Y-105.8
X222.21Y-80.25
X222.21Y-85.25
T12
X121.295Y-144.355
X154.595Y-144.355
T13
X108.9Y-59.15
X108.9Y-149.15
X218.9Y-59.15
X218.9Y-149.15
T14
X131.058Y-143.755
X144.778Y-143.755
T15
X110.2Y-103.557
X110.2Y-109.337
T16
X168.01Y-55.36
X170.55Y-55.36
X177.235Y-153.04
X179.775Y-153.04
X195.6Y-153.05
X198.14Y-153.05
X217.54Y-137.36
T5
G00X106.92Y-102.127
M15
G01X106.12Y-102.127
M16
G05
G00X106.92Y-110.767
M15
G01X106.12Y-110.767
M16
G05
G00X111.25Y-102.127
M15
G01X110.15Y-102.127
M16
G05
G00X111.25Y-110.767
M15
G01X110.15Y-110.767
M16
G05
M30
