%TF.GenerationSoftware,KiCad,Pcbnew,8.0.4*%
%TF.CreationDate,2025-01-13T20:54:39-07:00*%
%TF.ProjectId,RF-Board-V1-2024,52462d42-6f61-4726-942d-56312d323032,rev?*%
%TF.SameCoordinates,Original*%
%TF.FileFunction,Legend,Bot*%
%TF.FilePolarity,Positive*%
%FSLAX46Y46*%
G04 Gerber Fmt 4.6, Leading zero omitted, Abs format (unit mm)*
G04 Created by KiCad (PCBNEW 8.0.4) date 2025-01-13 20:54:39*
%MOMM*%
%LPD*%
G01*
G04 APERTURE LIST*
%ADD10C,0.300000*%
%ADD11C,0.150000*%
%ADD12C,0.000000*%
%ADD13C,0.120000*%
%ADD14C,0.127000*%
G04 APERTURE END LIST*
D10*
X110728216Y-38429625D02*
X110871074Y-38358196D01*
X110871074Y-38358196D02*
X111085359Y-38358196D01*
X111085359Y-38358196D02*
X111299645Y-38429625D01*
X111299645Y-38429625D02*
X111442502Y-38572482D01*
X111442502Y-38572482D02*
X111513931Y-38715339D01*
X111513931Y-38715339D02*
X111585359Y-39001053D01*
X111585359Y-39001053D02*
X111585359Y-39215339D01*
X111585359Y-39215339D02*
X111513931Y-39501053D01*
X111513931Y-39501053D02*
X111442502Y-39643910D01*
X111442502Y-39643910D02*
X111299645Y-39786768D01*
X111299645Y-39786768D02*
X111085359Y-39858196D01*
X111085359Y-39858196D02*
X110942502Y-39858196D01*
X110942502Y-39858196D02*
X110728216Y-39786768D01*
X110728216Y-39786768D02*
X110656788Y-39715339D01*
X110656788Y-39715339D02*
X110656788Y-39215339D01*
X110656788Y-39215339D02*
X110942502Y-39215339D01*
X109799645Y-38358196D02*
X109799645Y-38715339D01*
X110156788Y-38572482D02*
X109799645Y-38715339D01*
X109799645Y-38715339D02*
X109442502Y-38572482D01*
X110013931Y-39001053D02*
X109799645Y-38715339D01*
X109799645Y-38715339D02*
X109585359Y-39001053D01*
X108656788Y-38358196D02*
X108656788Y-38715339D01*
X109013931Y-38572482D02*
X108656788Y-38715339D01*
X108656788Y-38715339D02*
X108299645Y-38572482D01*
X108871074Y-39001053D02*
X108656788Y-38715339D01*
X108656788Y-38715339D02*
X108442502Y-39001053D01*
X107513931Y-38358196D02*
X107513931Y-38715339D01*
X107871074Y-38572482D02*
X107513931Y-38715339D01*
X107513931Y-38715339D02*
X107156788Y-38572482D01*
X107728217Y-39001053D02*
X107513931Y-38715339D01*
X107513931Y-38715339D02*
X107299645Y-39001053D01*
D11*
X119466666Y-111759580D02*
X119514285Y-111807200D01*
X119514285Y-111807200D02*
X119657142Y-111854819D01*
X119657142Y-111854819D02*
X119752380Y-111854819D01*
X119752380Y-111854819D02*
X119895237Y-111807200D01*
X119895237Y-111807200D02*
X119990475Y-111711961D01*
X119990475Y-111711961D02*
X120038094Y-111616723D01*
X120038094Y-111616723D02*
X120085713Y-111426247D01*
X120085713Y-111426247D02*
X120085713Y-111283390D01*
X120085713Y-111283390D02*
X120038094Y-111092914D01*
X120038094Y-111092914D02*
X119990475Y-110997676D01*
X119990475Y-110997676D02*
X119895237Y-110902438D01*
X119895237Y-110902438D02*
X119752380Y-110854819D01*
X119752380Y-110854819D02*
X119657142Y-110854819D01*
X119657142Y-110854819D02*
X119514285Y-110902438D01*
X119514285Y-110902438D02*
X119466666Y-110950057D01*
X118561904Y-110854819D02*
X119038094Y-110854819D01*
X119038094Y-110854819D02*
X119085713Y-111331009D01*
X119085713Y-111331009D02*
X119038094Y-111283390D01*
X119038094Y-111283390D02*
X118942856Y-111235771D01*
X118942856Y-111235771D02*
X118704761Y-111235771D01*
X118704761Y-111235771D02*
X118609523Y-111283390D01*
X118609523Y-111283390D02*
X118561904Y-111331009D01*
X118561904Y-111331009D02*
X118514285Y-111426247D01*
X118514285Y-111426247D02*
X118514285Y-111664342D01*
X118514285Y-111664342D02*
X118561904Y-111759580D01*
X118561904Y-111759580D02*
X118609523Y-111807200D01*
X118609523Y-111807200D02*
X118704761Y-111854819D01*
X118704761Y-111854819D02*
X118942856Y-111854819D01*
X118942856Y-111854819D02*
X119038094Y-111807200D01*
X119038094Y-111807200D02*
X119085713Y-111759580D01*
X115592857Y-108879819D02*
X115926190Y-108403628D01*
X116164285Y-108879819D02*
X116164285Y-107879819D01*
X116164285Y-107879819D02*
X115783333Y-107879819D01*
X115783333Y-107879819D02*
X115688095Y-107927438D01*
X115688095Y-107927438D02*
X115640476Y-107975057D01*
X115640476Y-107975057D02*
X115592857Y-108070295D01*
X115592857Y-108070295D02*
X115592857Y-108213152D01*
X115592857Y-108213152D02*
X115640476Y-108308390D01*
X115640476Y-108308390D02*
X115688095Y-108356009D01*
X115688095Y-108356009D02*
X115783333Y-108403628D01*
X115783333Y-108403628D02*
X116164285Y-108403628D01*
X114640476Y-108879819D02*
X115211904Y-108879819D01*
X114926190Y-108879819D02*
X114926190Y-107879819D01*
X114926190Y-107879819D02*
X115021428Y-108022676D01*
X115021428Y-108022676D02*
X115116666Y-108117914D01*
X115116666Y-108117914D02*
X115211904Y-108165533D01*
X114164285Y-108879819D02*
X113973809Y-108879819D01*
X113973809Y-108879819D02*
X113878571Y-108832200D01*
X113878571Y-108832200D02*
X113830952Y-108784580D01*
X113830952Y-108784580D02*
X113735714Y-108641723D01*
X113735714Y-108641723D02*
X113688095Y-108451247D01*
X113688095Y-108451247D02*
X113688095Y-108070295D01*
X113688095Y-108070295D02*
X113735714Y-107975057D01*
X113735714Y-107975057D02*
X113783333Y-107927438D01*
X113783333Y-107927438D02*
X113878571Y-107879819D01*
X113878571Y-107879819D02*
X114069047Y-107879819D01*
X114069047Y-107879819D02*
X114164285Y-107927438D01*
X114164285Y-107927438D02*
X114211904Y-107975057D01*
X114211904Y-107975057D02*
X114259523Y-108070295D01*
X114259523Y-108070295D02*
X114259523Y-108308390D01*
X114259523Y-108308390D02*
X114211904Y-108403628D01*
X114211904Y-108403628D02*
X114164285Y-108451247D01*
X114164285Y-108451247D02*
X114069047Y-108498866D01*
X114069047Y-108498866D02*
X113878571Y-108498866D01*
X113878571Y-108498866D02*
X113783333Y-108451247D01*
X113783333Y-108451247D02*
X113735714Y-108403628D01*
X113735714Y-108403628D02*
X113688095Y-108308390D01*
X109504819Y-111183333D02*
X109028628Y-110850000D01*
X109504819Y-110611905D02*
X108504819Y-110611905D01*
X108504819Y-110611905D02*
X108504819Y-110992857D01*
X108504819Y-110992857D02*
X108552438Y-111088095D01*
X108552438Y-111088095D02*
X108600057Y-111135714D01*
X108600057Y-111135714D02*
X108695295Y-111183333D01*
X108695295Y-111183333D02*
X108838152Y-111183333D01*
X108838152Y-111183333D02*
X108933390Y-111135714D01*
X108933390Y-111135714D02*
X108981009Y-111088095D01*
X108981009Y-111088095D02*
X109028628Y-110992857D01*
X109028628Y-110992857D02*
X109028628Y-110611905D01*
X108504819Y-112088095D02*
X108504819Y-111611905D01*
X108504819Y-111611905D02*
X108981009Y-111564286D01*
X108981009Y-111564286D02*
X108933390Y-111611905D01*
X108933390Y-111611905D02*
X108885771Y-111707143D01*
X108885771Y-111707143D02*
X108885771Y-111945238D01*
X108885771Y-111945238D02*
X108933390Y-112040476D01*
X108933390Y-112040476D02*
X108981009Y-112088095D01*
X108981009Y-112088095D02*
X109076247Y-112135714D01*
X109076247Y-112135714D02*
X109314342Y-112135714D01*
X109314342Y-112135714D02*
X109409580Y-112088095D01*
X109409580Y-112088095D02*
X109457200Y-112040476D01*
X109457200Y-112040476D02*
X109504819Y-111945238D01*
X109504819Y-111945238D02*
X109504819Y-111707143D01*
X109504819Y-111707143D02*
X109457200Y-111611905D01*
X109457200Y-111611905D02*
X109409580Y-111564286D01*
X112411904Y-110279819D02*
X112411904Y-111089342D01*
X112411904Y-111089342D02*
X112364285Y-111184580D01*
X112364285Y-111184580D02*
X112316666Y-111232200D01*
X112316666Y-111232200D02*
X112221428Y-111279819D01*
X112221428Y-111279819D02*
X112030952Y-111279819D01*
X112030952Y-111279819D02*
X111935714Y-111232200D01*
X111935714Y-111232200D02*
X111888095Y-111184580D01*
X111888095Y-111184580D02*
X111840476Y-111089342D01*
X111840476Y-111089342D02*
X111840476Y-110279819D01*
X110888095Y-110279819D02*
X111364285Y-110279819D01*
X111364285Y-110279819D02*
X111411904Y-110756009D01*
X111411904Y-110756009D02*
X111364285Y-110708390D01*
X111364285Y-110708390D02*
X111269047Y-110660771D01*
X111269047Y-110660771D02*
X111030952Y-110660771D01*
X111030952Y-110660771D02*
X110935714Y-110708390D01*
X110935714Y-110708390D02*
X110888095Y-110756009D01*
X110888095Y-110756009D02*
X110840476Y-110851247D01*
X110840476Y-110851247D02*
X110840476Y-111089342D01*
X110840476Y-111089342D02*
X110888095Y-111184580D01*
X110888095Y-111184580D02*
X110935714Y-111232200D01*
X110935714Y-111232200D02*
X111030952Y-111279819D01*
X111030952Y-111279819D02*
X111269047Y-111279819D01*
X111269047Y-111279819D02*
X111364285Y-111232200D01*
X111364285Y-111232200D02*
X111411904Y-111184580D01*
X160617857Y-118284580D02*
X160665476Y-118332200D01*
X160665476Y-118332200D02*
X160808333Y-118379819D01*
X160808333Y-118379819D02*
X160903571Y-118379819D01*
X160903571Y-118379819D02*
X161046428Y-118332200D01*
X161046428Y-118332200D02*
X161141666Y-118236961D01*
X161141666Y-118236961D02*
X161189285Y-118141723D01*
X161189285Y-118141723D02*
X161236904Y-117951247D01*
X161236904Y-117951247D02*
X161236904Y-117808390D01*
X161236904Y-117808390D02*
X161189285Y-117617914D01*
X161189285Y-117617914D02*
X161141666Y-117522676D01*
X161141666Y-117522676D02*
X161046428Y-117427438D01*
X161046428Y-117427438D02*
X160903571Y-117379819D01*
X160903571Y-117379819D02*
X160808333Y-117379819D01*
X160808333Y-117379819D02*
X160665476Y-117427438D01*
X160665476Y-117427438D02*
X160617857Y-117475057D01*
X159760714Y-117713152D02*
X159760714Y-118379819D01*
X159998809Y-117332200D02*
X160236904Y-118046485D01*
X160236904Y-118046485D02*
X159617857Y-118046485D01*
X159046428Y-117379819D02*
X158951190Y-117379819D01*
X158951190Y-117379819D02*
X158855952Y-117427438D01*
X158855952Y-117427438D02*
X158808333Y-117475057D01*
X158808333Y-117475057D02*
X158760714Y-117570295D01*
X158760714Y-117570295D02*
X158713095Y-117760771D01*
X158713095Y-117760771D02*
X158713095Y-117998866D01*
X158713095Y-117998866D02*
X158760714Y-118189342D01*
X158760714Y-118189342D02*
X158808333Y-118284580D01*
X158808333Y-118284580D02*
X158855952Y-118332200D01*
X158855952Y-118332200D02*
X158951190Y-118379819D01*
X158951190Y-118379819D02*
X159046428Y-118379819D01*
X159046428Y-118379819D02*
X159141666Y-118332200D01*
X159141666Y-118332200D02*
X159189285Y-118284580D01*
X159189285Y-118284580D02*
X159236904Y-118189342D01*
X159236904Y-118189342D02*
X159284523Y-117998866D01*
X159284523Y-117998866D02*
X159284523Y-117760771D01*
X159284523Y-117760771D02*
X159236904Y-117570295D01*
X159236904Y-117570295D02*
X159189285Y-117475057D01*
X159189285Y-117475057D02*
X159141666Y-117427438D01*
X159141666Y-117427438D02*
X159046428Y-117379819D01*
X104159580Y-115007142D02*
X104207200Y-114959523D01*
X104207200Y-114959523D02*
X104254819Y-114816666D01*
X104254819Y-114816666D02*
X104254819Y-114721428D01*
X104254819Y-114721428D02*
X104207200Y-114578571D01*
X104207200Y-114578571D02*
X104111961Y-114483333D01*
X104111961Y-114483333D02*
X104016723Y-114435714D01*
X104016723Y-114435714D02*
X103826247Y-114388095D01*
X103826247Y-114388095D02*
X103683390Y-114388095D01*
X103683390Y-114388095D02*
X103492914Y-114435714D01*
X103492914Y-114435714D02*
X103397676Y-114483333D01*
X103397676Y-114483333D02*
X103302438Y-114578571D01*
X103302438Y-114578571D02*
X103254819Y-114721428D01*
X103254819Y-114721428D02*
X103254819Y-114816666D01*
X103254819Y-114816666D02*
X103302438Y-114959523D01*
X103302438Y-114959523D02*
X103350057Y-115007142D01*
X104254819Y-115959523D02*
X104254819Y-115388095D01*
X104254819Y-115673809D02*
X103254819Y-115673809D01*
X103254819Y-115673809D02*
X103397676Y-115578571D01*
X103397676Y-115578571D02*
X103492914Y-115483333D01*
X103492914Y-115483333D02*
X103540533Y-115388095D01*
X103254819Y-116292857D02*
X103254819Y-116911904D01*
X103254819Y-116911904D02*
X103635771Y-116578571D01*
X103635771Y-116578571D02*
X103635771Y-116721428D01*
X103635771Y-116721428D02*
X103683390Y-116816666D01*
X103683390Y-116816666D02*
X103731009Y-116864285D01*
X103731009Y-116864285D02*
X103826247Y-116911904D01*
X103826247Y-116911904D02*
X104064342Y-116911904D01*
X104064342Y-116911904D02*
X104159580Y-116864285D01*
X104159580Y-116864285D02*
X104207200Y-116816666D01*
X104207200Y-116816666D02*
X104254819Y-116721428D01*
X104254819Y-116721428D02*
X104254819Y-116435714D01*
X104254819Y-116435714D02*
X104207200Y-116340476D01*
X104207200Y-116340476D02*
X104159580Y-116292857D01*
X152001009Y-88094285D02*
X152048628Y-88237142D01*
X152048628Y-88237142D02*
X152096247Y-88284761D01*
X152096247Y-88284761D02*
X152191485Y-88332380D01*
X152191485Y-88332380D02*
X152334342Y-88332380D01*
X152334342Y-88332380D02*
X152429580Y-88284761D01*
X152429580Y-88284761D02*
X152477200Y-88237142D01*
X152477200Y-88237142D02*
X152524819Y-88141904D01*
X152524819Y-88141904D02*
X152524819Y-87760952D01*
X152524819Y-87760952D02*
X151524819Y-87760952D01*
X151524819Y-87760952D02*
X151524819Y-88094285D01*
X151524819Y-88094285D02*
X151572438Y-88189523D01*
X151572438Y-88189523D02*
X151620057Y-88237142D01*
X151620057Y-88237142D02*
X151715295Y-88284761D01*
X151715295Y-88284761D02*
X151810533Y-88284761D01*
X151810533Y-88284761D02*
X151905771Y-88237142D01*
X151905771Y-88237142D02*
X151953390Y-88189523D01*
X151953390Y-88189523D02*
X152001009Y-88094285D01*
X152001009Y-88094285D02*
X152001009Y-87760952D01*
X151524819Y-88618095D02*
X151524819Y-89189523D01*
X152524819Y-88903809D02*
X151524819Y-88903809D01*
X152524819Y-90046666D02*
X152524819Y-89475238D01*
X152524819Y-89760952D02*
X151524819Y-89760952D01*
X151524819Y-89760952D02*
X151667676Y-89665714D01*
X151667676Y-89665714D02*
X151762914Y-89570476D01*
X151762914Y-89570476D02*
X151810533Y-89475238D01*
D12*
%TO.C,G\u002A\u002A\u002A*%
G36*
X133491049Y-38887524D02*
G01*
X133467279Y-39010840D01*
X133367621Y-39129351D01*
X133193901Y-39240430D01*
X133006527Y-39335380D01*
X132993401Y-39699278D01*
X132990759Y-39783013D01*
X132988072Y-39934916D01*
X132988911Y-40047991D01*
X132993281Y-40102434D01*
X133013879Y-40127991D01*
X133086249Y-40187738D01*
X133190077Y-40259466D01*
X133208706Y-40271605D01*
X133309905Y-40351712D01*
X133368188Y-40438788D01*
X133386799Y-40549237D01*
X133368986Y-40699463D01*
X133317994Y-40905871D01*
X133285221Y-41020937D01*
X133231260Y-41181169D01*
X133175730Y-41284780D01*
X133106777Y-41344808D01*
X133012550Y-41374288D01*
X132881193Y-41386255D01*
X132643040Y-41397952D01*
X132460149Y-41743994D01*
X132277257Y-42090036D01*
X132387550Y-42286242D01*
X132428715Y-42364618D01*
X132473298Y-42488858D01*
X132471932Y-42585682D01*
X132454387Y-42629117D01*
X132387320Y-42735217D01*
X132287707Y-42863132D01*
X132171073Y-42995641D01*
X132052944Y-43115526D01*
X131948844Y-43205564D01*
X131874299Y-43248539D01*
X131867951Y-43249969D01*
X131748918Y-43242675D01*
X131590541Y-43185563D01*
X131403994Y-43098188D01*
X131079738Y-43346508D01*
X130755482Y-43594828D01*
X130780856Y-43786107D01*
X130785221Y-43822790D01*
X130786520Y-43947830D01*
X130753969Y-44045746D01*
X130677209Y-44128890D01*
X130545881Y-44209615D01*
X130349625Y-44300272D01*
X130306804Y-44318471D01*
X130119333Y-44389617D01*
X129979818Y-44420061D01*
X129871501Y-44408696D01*
X129777625Y-44354413D01*
X129681433Y-44256105D01*
X129561487Y-44115471D01*
X129151449Y-44192070D01*
X128741410Y-44268670D01*
X128691595Y-44423264D01*
X128684524Y-44443376D01*
X128619096Y-44569992D01*
X128537038Y-44670619D01*
X128503160Y-44699272D01*
X128447586Y-44733034D01*
X128378942Y-44748138D01*
X128275572Y-44747934D01*
X128115816Y-44735772D01*
X127906006Y-44712256D01*
X127737005Y-44676718D01*
X127622618Y-44625598D01*
X127550351Y-44553095D01*
X127507709Y-44453406D01*
X127500528Y-44426835D01*
X127475827Y-44321765D01*
X127465740Y-44254727D01*
X127435911Y-44215321D01*
X127357561Y-44183805D01*
X127203288Y-44148727D01*
X126996269Y-44096844D01*
X126788498Y-44040653D01*
X126716851Y-44022963D01*
X126647532Y-44023522D01*
X126579563Y-44059789D01*
X126484134Y-44141290D01*
X126420505Y-44194426D01*
X126325699Y-44258444D01*
X126260773Y-44283423D01*
X126258535Y-44283388D01*
X126172229Y-44261217D01*
X126043648Y-44205930D01*
X125893947Y-44129072D01*
X125744279Y-44042185D01*
X125615800Y-43956812D01*
X125529665Y-43884497D01*
X125519478Y-43873459D01*
X125462113Y-43797100D01*
X125439051Y-43717879D01*
X125447900Y-43612189D01*
X125486267Y-43456423D01*
X125485986Y-43442116D01*
X125442557Y-43371168D01*
X125337247Y-43260645D01*
X125172705Y-43113444D01*
X124842097Y-42831932D01*
X124673150Y-42891540D01*
X124672056Y-42891926D01*
X124546177Y-42924265D01*
X124440546Y-42917243D01*
X124341103Y-42863255D01*
X124233789Y-42754694D01*
X124104545Y-42583956D01*
X124078570Y-42547303D01*
X123969299Y-42388507D01*
X123903916Y-42271378D01*
X123881220Y-42177071D01*
X123900005Y-42086740D01*
X123959071Y-41981538D01*
X124057212Y-41842620D01*
X124072827Y-41812718D01*
X124074599Y-41753901D01*
X124045509Y-41663588D01*
X123981230Y-41523604D01*
X123916136Y-41383483D01*
X123862224Y-41255218D01*
X123832263Y-41168877D01*
X123817214Y-41119166D01*
X123769932Y-41044663D01*
X123684963Y-41000874D01*
X123541928Y-40974131D01*
X123424959Y-40948200D01*
X123334973Y-40893824D01*
X123270891Y-40799167D01*
X123224269Y-40651486D01*
X123186660Y-40438035D01*
X123176282Y-40364026D01*
X123155931Y-40186969D01*
X123154150Y-40065237D01*
X123154777Y-40062608D01*
X123211887Y-40062608D01*
X123214817Y-40170051D01*
X123233631Y-40317845D01*
X123263639Y-40482290D01*
X123300153Y-40639685D01*
X123338484Y-40766330D01*
X123373943Y-40838524D01*
X123448813Y-40885810D01*
X123577549Y-40907225D01*
X123593424Y-40907385D01*
X123728982Y-40931062D01*
X123822484Y-41004800D01*
X123892909Y-41142774D01*
X123929439Y-41234788D01*
X123989807Y-41377900D01*
X124056002Y-41528280D01*
X124058133Y-41533011D01*
X124113481Y-41658806D01*
X124152850Y-41753687D01*
X124167840Y-41797437D01*
X124160154Y-41814483D01*
X124116123Y-41879929D01*
X124046040Y-41972277D01*
X124011169Y-42018574D01*
X123951932Y-42127525D01*
X123948293Y-42213475D01*
X123961619Y-42247187D01*
X124017337Y-42345383D01*
X124100446Y-42469773D01*
X124197107Y-42601823D01*
X124293483Y-42723003D01*
X124375736Y-42814781D01*
X124430029Y-42858625D01*
X124464342Y-42862453D01*
X124562709Y-42848283D01*
X124684526Y-42812780D01*
X124877582Y-42743358D01*
X125101768Y-42955056D01*
X125108958Y-42961835D01*
X125237656Y-43080015D01*
X125361951Y-43189229D01*
X125455870Y-43266624D01*
X125516884Y-43315259D01*
X125560528Y-43368936D01*
X125565230Y-43435292D01*
X125540589Y-43545984D01*
X125519470Y-43653358D01*
X125524484Y-43757403D01*
X125573158Y-43843820D01*
X125675238Y-43928213D01*
X125840466Y-44026184D01*
X125921638Y-44070190D01*
X126083803Y-44149925D01*
X126203012Y-44188495D01*
X126295614Y-44186996D01*
X126377955Y-44146525D01*
X126466381Y-44068179D01*
X126522817Y-44015131D01*
X126618125Y-43951024D01*
X126695114Y-43943225D01*
X126834081Y-43978693D01*
X127005061Y-44025125D01*
X127175034Y-44073571D01*
X127325263Y-44118548D01*
X127437014Y-44154578D01*
X127491549Y-44176180D01*
X127500262Y-44184013D01*
X127535727Y-44253281D01*
X127563111Y-44358649D01*
X127567692Y-44382079D01*
X127605392Y-44494153D01*
X127654857Y-44569407D01*
X127673895Y-44580887D01*
X127767856Y-44608327D01*
X127908039Y-44631156D01*
X128071201Y-44647425D01*
X128234095Y-44655187D01*
X128373479Y-44652494D01*
X128466105Y-44637397D01*
X128494521Y-44619595D01*
X128560682Y-44533735D01*
X128624841Y-44397416D01*
X128654355Y-44323098D01*
X128701007Y-44233499D01*
X128751246Y-44190572D01*
X128821630Y-44175659D01*
X128839686Y-44173836D01*
X128948107Y-44158278D01*
X129099423Y-44132449D01*
X129266742Y-44100870D01*
X129595784Y-44035698D01*
X129731281Y-44198819D01*
X129733328Y-44201279D01*
X129821704Y-44295269D01*
X129905178Y-44345501D01*
X130002258Y-44353606D01*
X130131450Y-44321217D01*
X130311264Y-44249966D01*
X130406729Y-44208596D01*
X130557788Y-44135480D01*
X130651951Y-44069578D01*
X130700573Y-43997397D01*
X130715012Y-43905445D01*
X130706623Y-43780229D01*
X130682208Y-43557148D01*
X131044823Y-43289217D01*
X131407438Y-43021285D01*
X131592263Y-43107853D01*
X131627714Y-43123600D01*
X131766790Y-43167727D01*
X131868832Y-43171046D01*
X131908450Y-43152083D01*
X131999612Y-43079139D01*
X132107950Y-42970214D01*
X132218414Y-42843073D01*
X132315952Y-42715477D01*
X132385512Y-42605190D01*
X132412044Y-42529974D01*
X132406218Y-42493176D01*
X132366018Y-42390713D01*
X132300195Y-42277038D01*
X132188346Y-42113004D01*
X132385741Y-41735849D01*
X132452271Y-41611291D01*
X132528854Y-41474657D01*
X132588006Y-41376867D01*
X132620638Y-41333488D01*
X132631405Y-41328739D01*
X132707479Y-41319638D01*
X132816936Y-41323578D01*
X132857124Y-41326524D01*
X132989093Y-41314340D01*
X133087217Y-41256017D01*
X133163688Y-41140779D01*
X133230698Y-40957848D01*
X133279362Y-40789411D01*
X133315648Y-40627546D01*
X133320316Y-40511579D01*
X133290774Y-40425887D01*
X133224430Y-40354844D01*
X133118690Y-40282826D01*
X132922399Y-40162047D01*
X132922399Y-39729168D01*
X132922399Y-39296290D01*
X133148133Y-39188321D01*
X133269086Y-39127031D01*
X133340071Y-39075716D01*
X133373162Y-39018427D01*
X133385886Y-38936604D01*
X133386411Y-38836582D01*
X133370072Y-38680190D01*
X133339296Y-38513048D01*
X133299159Y-38357416D01*
X133254734Y-38235558D01*
X133211096Y-38169735D01*
X133206907Y-38166843D01*
X133117901Y-38133424D01*
X133003227Y-38119363D01*
X132885901Y-38115224D01*
X132788049Y-38093024D01*
X132717318Y-38038636D01*
X132656580Y-37937899D01*
X132588705Y-37776650D01*
X132575628Y-37743412D01*
X132516239Y-37592974D01*
X132466076Y-37466671D01*
X132434854Y-37388983D01*
X132426480Y-37363213D01*
X132427880Y-37298095D01*
X132465447Y-37212405D01*
X132546445Y-37086451D01*
X132619489Y-36976186D01*
X132660655Y-36895244D01*
X132667016Y-36836679D01*
X132645332Y-36779512D01*
X132598532Y-36698222D01*
X132511755Y-36566239D01*
X132413391Y-36430866D01*
X132316850Y-36309528D01*
X132235542Y-36219648D01*
X132182878Y-36178648D01*
X132129144Y-36177405D01*
X132018913Y-36197801D01*
X131886550Y-36237247D01*
X131658326Y-36317461D01*
X131475757Y-36148856D01*
X131392419Y-36072964D01*
X131264071Y-35959164D01*
X131158461Y-35868860D01*
X131023734Y-35757469D01*
X131071625Y-35525605D01*
X131082947Y-35466477D01*
X131098439Y-35313202D01*
X131080093Y-35220078D01*
X131049798Y-35187669D01*
X130959889Y-35122357D01*
X130832903Y-35043973D01*
X130689030Y-34963642D01*
X130548461Y-34892490D01*
X130431389Y-34841640D01*
X130358002Y-34822217D01*
X130332116Y-34829596D01*
X130256033Y-34880034D01*
X130167706Y-34962502D01*
X130054971Y-35075134D01*
X129964390Y-35138565D01*
X129883594Y-35154611D01*
X129794135Y-35131623D01*
X129704878Y-35100835D01*
X129566467Y-35058880D01*
X129412574Y-35016205D01*
X129404604Y-35014085D01*
X129267423Y-34972018D01*
X129162437Y-34929919D01*
X129111807Y-34896600D01*
X129103885Y-34879957D01*
X129078762Y-34793897D01*
X129056441Y-34677575D01*
X129045199Y-34615946D01*
X129008898Y-34516046D01*
X128944902Y-34450244D01*
X128840687Y-34412668D01*
X128683726Y-34397449D01*
X128461496Y-34398715D01*
X128074165Y-34410007D01*
X127991199Y-34644215D01*
X127908233Y-34878422D01*
X127598547Y-34926181D01*
X127579396Y-34929139D01*
X127410844Y-34955557D01*
X127257854Y-34980123D01*
X127151456Y-34997863D01*
X127101554Y-35005168D01*
X127031405Y-34999696D01*
X126972271Y-34956638D01*
X126897503Y-34861707D01*
X126810398Y-34756877D01*
X126722270Y-34696327D01*
X126618828Y-34682200D01*
X126482589Y-34712241D01*
X126296071Y-34784200D01*
X126160945Y-34843901D01*
X126007444Y-34927258D01*
X125915118Y-35011833D01*
X125875405Y-35112012D01*
X125879743Y-35242177D01*
X125919569Y-35416714D01*
X125919433Y-35435098D01*
X125879582Y-35497103D01*
X125780081Y-35587614D01*
X125616274Y-35711150D01*
X125527300Y-35774954D01*
X125396705Y-35868746D01*
X125296995Y-35940534D01*
X125244648Y-35978465D01*
X125230136Y-35985783D01*
X125143293Y-35980556D01*
X125000075Y-35925105D01*
X124926754Y-35894407D01*
X124809752Y-35860629D01*
X124731514Y-35858095D01*
X124674540Y-35895207D01*
X124582474Y-35979129D01*
X124473933Y-36091653D01*
X124364987Y-36215281D01*
X124271701Y-36332518D01*
X124210145Y-36425864D01*
X124193119Y-36463103D01*
X124187144Y-36522292D01*
X124214830Y-36597670D01*
X124282157Y-36713094D01*
X124334746Y-36799761D01*
X124384266Y-36886963D01*
X124403388Y-36928889D01*
X124403203Y-36930605D01*
X124379328Y-36977827D01*
X124327583Y-37056122D01*
X124321550Y-37064825D01*
X124263464Y-37159648D01*
X124188066Y-37295123D01*
X124110068Y-37444949D01*
X123968357Y-37727318D01*
X123763848Y-37727919D01*
X123688815Y-37730200D01*
X123574973Y-37742193D01*
X123508278Y-37760908D01*
X123474593Y-37811404D01*
X123431025Y-37919205D01*
X123384353Y-38062667D01*
X123340425Y-38220703D01*
X123305087Y-38372223D01*
X123284187Y-38496141D01*
X123283571Y-38571367D01*
X123303914Y-38607961D01*
X123378961Y-38683273D01*
X123485434Y-38759217D01*
X123561615Y-38806814D01*
X123628540Y-38861816D01*
X123650605Y-38915647D01*
X123642488Y-38989859D01*
X123639807Y-39005265D01*
X123628837Y-39115369D01*
X123621133Y-39269482D01*
X123618226Y-39439292D01*
X123618226Y-39767417D01*
X123427014Y-39864312D01*
X123353154Y-39906741D01*
X123260322Y-39978048D01*
X123215637Y-40038319D01*
X123211887Y-40062608D01*
X123154777Y-40062608D01*
X123173904Y-39982457D01*
X123218160Y-39922257D01*
X123289884Y-39868266D01*
X123301326Y-39860806D01*
X123399371Y-39796708D01*
X123471772Y-39749111D01*
X123496084Y-39719107D01*
X123520918Y-39638521D01*
X123540150Y-39500886D01*
X123555767Y-39295475D01*
X123580457Y-38881098D01*
X123420230Y-38791045D01*
X123409546Y-38784983D01*
X123301118Y-38710775D01*
X123237247Y-38628613D01*
X123214121Y-38522277D01*
X123227930Y-38375545D01*
X123274865Y-38172196D01*
X123282113Y-38144884D01*
X123346257Y-37936503D01*
X123413689Y-37793876D01*
X123494201Y-37705832D01*
X123597584Y-37661197D01*
X123733632Y-37648802D01*
X123931304Y-37648802D01*
X124068062Y-37383809D01*
X124072136Y-37375926D01*
X124148722Y-37231170D01*
X124219748Y-37102460D01*
X124270317Y-37016826D01*
X124295803Y-36974963D01*
X124313098Y-36919090D01*
X124293358Y-36857974D01*
X124232198Y-36762350D01*
X124223294Y-36749108D01*
X124155406Y-36627474D01*
X124132471Y-36519878D01*
X124157961Y-36409815D01*
X124235348Y-36280777D01*
X124368105Y-36116260D01*
X124438129Y-36036161D01*
X124566463Y-35902643D01*
X124670964Y-35823458D01*
X124766725Y-35792089D01*
X124868840Y-35802020D01*
X124992404Y-35846733D01*
X125058534Y-35872503D01*
X125169222Y-35901464D01*
X125235222Y-35897897D01*
X125248988Y-35888971D01*
X125321740Y-35838206D01*
X125432820Y-35758333D01*
X125564273Y-35662212D01*
X125841850Y-35457676D01*
X125825527Y-35228277D01*
X125820627Y-35143330D01*
X125824256Y-35040252D01*
X125848993Y-34973257D01*
X125901274Y-34915797D01*
X125919338Y-34901528D01*
X126014572Y-34844922D01*
X126151544Y-34777296D01*
X126308005Y-34708153D01*
X126461702Y-34646998D01*
X126590386Y-34603335D01*
X126671804Y-34586669D01*
X126718126Y-34607002D01*
X126802033Y-34672711D01*
X126898660Y-34768083D01*
X127065217Y-34949497D01*
X127457780Y-34880541D01*
X127595563Y-34855386D01*
X127731189Y-34825541D01*
X127815706Y-34796398D01*
X127864631Y-34762130D01*
X127893481Y-34716909D01*
X127921155Y-34644041D01*
X127936619Y-34570487D01*
X127936696Y-34568126D01*
X127961710Y-34501301D01*
X128017984Y-34415302D01*
X128020585Y-34412004D01*
X128062779Y-34364896D01*
X128110783Y-34335474D01*
X128182772Y-34319592D01*
X128296920Y-34313104D01*
X128471402Y-34311862D01*
X128627363Y-34313881D01*
X128810344Y-34328048D01*
X128937642Y-34361917D01*
X129022829Y-34422614D01*
X129079475Y-34517264D01*
X129121154Y-34652992D01*
X129150318Y-34762904D01*
X129185181Y-34844409D01*
X129233906Y-34887913D01*
X129312191Y-34914945D01*
X129387534Y-34935874D01*
X129530545Y-34977954D01*
X129681656Y-35024387D01*
X129915257Y-35097932D01*
X130075723Y-34940446D01*
X130194828Y-34840974D01*
X130310469Y-34790786D01*
X130437866Y-34790843D01*
X130593186Y-34841176D01*
X130792596Y-34941815D01*
X130851216Y-34974757D01*
X131013763Y-35075856D01*
X131115468Y-35165031D01*
X131165334Y-35256633D01*
X131172363Y-35365018D01*
X131145560Y-35504540D01*
X131090443Y-35720947D01*
X131348848Y-35951122D01*
X131397552Y-35994270D01*
X131513859Y-36095345D01*
X131604769Y-36171621D01*
X131653843Y-36209186D01*
X131690210Y-36213758D01*
X131784928Y-36197363D01*
X131906089Y-36158933D01*
X131966824Y-36137258D01*
X132086627Y-36110297D01*
X132187242Y-36122394D01*
X132283209Y-36180824D01*
X132389071Y-36292862D01*
X132519367Y-36465783D01*
X132540307Y-36495235D01*
X132649983Y-36663903D01*
X132707959Y-36795796D01*
X132716073Y-36908660D01*
X132676163Y-37020242D01*
X132590069Y-37148288D01*
X132454030Y-37326454D01*
X132563448Y-37556330D01*
X132615658Y-37667980D01*
X132678259Y-37806691D01*
X132721963Y-37909169D01*
X132747270Y-37964768D01*
X132789759Y-38011660D01*
X132862972Y-38036008D01*
X132990785Y-38050354D01*
X133022998Y-38053457D01*
X133188479Y-38091755D01*
X133300922Y-38171065D01*
X133371153Y-38302975D01*
X133410000Y-38499074D01*
X133423487Y-38596407D01*
X133449896Y-38735233D01*
X133477127Y-38832752D01*
X133478101Y-38836582D01*
X133491049Y-38887524D01*
G37*
G36*
X120899602Y-42359722D02*
G01*
X121027190Y-42359775D01*
X121027337Y-42997720D01*
X121027338Y-43002125D01*
X121028400Y-43244823D01*
X121032322Y-43422865D01*
X121040472Y-43549884D01*
X121054220Y-43639512D01*
X121074933Y-43705381D01*
X121103981Y-43761123D01*
X121199318Y-43862784D01*
X121337186Y-43922121D01*
X121487255Y-43925162D01*
X121627252Y-43871867D01*
X121734908Y-43762199D01*
X121736281Y-43759937D01*
X121765183Y-43703905D01*
X121785744Y-43637690D01*
X121799345Y-43547628D01*
X121807368Y-43420055D01*
X121811195Y-43241307D01*
X121812206Y-42997720D01*
X121812353Y-42359775D01*
X121949756Y-42359775D01*
X122087160Y-42359775D01*
X122086941Y-42958462D01*
X122086426Y-43049109D01*
X122081364Y-43268023D01*
X122071766Y-43464144D01*
X122058704Y-43618900D01*
X122043254Y-43713722D01*
X121982740Y-43845142D01*
X121880990Y-43977774D01*
X121761221Y-44084041D01*
X121645622Y-44140146D01*
X121528516Y-44154913D01*
X121333646Y-44145285D01*
X121148606Y-44101689D01*
X121006064Y-44029765D01*
X120946528Y-43978281D01*
X120890014Y-43906192D01*
X120848434Y-43812814D01*
X120819302Y-43686710D01*
X120800134Y-43516443D01*
X120788441Y-43290574D01*
X120781740Y-42997667D01*
X120772013Y-42359669D01*
X120899602Y-42359722D01*
G37*
G36*
X118867994Y-42968276D02*
G01*
X118869819Y-43208697D01*
X118876412Y-43394622D01*
X118888753Y-43511979D01*
X118907811Y-43565857D01*
X118934555Y-43561349D01*
X118969955Y-43503545D01*
X118986019Y-43474894D01*
X119041898Y-43383764D01*
X119127761Y-43248140D01*
X119235405Y-43080930D01*
X119356629Y-42895044D01*
X119442204Y-42765023D01*
X119551746Y-42601906D01*
X119632530Y-42489593D01*
X119693030Y-42418653D01*
X119741717Y-42379657D01*
X119787063Y-42363174D01*
X119837541Y-42359775D01*
X119967221Y-42359775D01*
X119967221Y-43262712D01*
X119967221Y-44165649D01*
X119829818Y-44165649D01*
X119692415Y-44165649D01*
X119692415Y-43557148D01*
X119691805Y-43434077D01*
X119688120Y-43241985D01*
X119681656Y-43088542D01*
X119673058Y-42987037D01*
X119662971Y-42950756D01*
X119634776Y-42980934D01*
X119571082Y-43067219D01*
X119479397Y-43199217D01*
X119366944Y-43366520D01*
X119240946Y-43558723D01*
X119235452Y-43567200D01*
X119097389Y-43779111D01*
X118993579Y-43934004D01*
X118916377Y-44040793D01*
X118858139Y-44108388D01*
X118811223Y-44145699D01*
X118767983Y-44161637D01*
X118720776Y-44165114D01*
X118593187Y-44165649D01*
X118593187Y-43262712D01*
X118593187Y-42359775D01*
X118730591Y-42359775D01*
X118867994Y-42359775D01*
X118867994Y-42968276D01*
G37*
G36*
X117768767Y-43262712D02*
G01*
X117768767Y-44165649D01*
X117650993Y-44165649D01*
X117533218Y-44165649D01*
X117533218Y-43262712D01*
X117533218Y-42359775D01*
X117650993Y-42359775D01*
X117768767Y-42359775D01*
X117768767Y-43262712D01*
G37*
G36*
X115935423Y-42944259D02*
G01*
X115971644Y-43059852D01*
X116030373Y-43251313D01*
X116077394Y-43409853D01*
X116108610Y-43521527D01*
X116119926Y-43572389D01*
X116121530Y-43585493D01*
X116154557Y-43616035D01*
X116168744Y-43604477D01*
X116200308Y-43541835D01*
X116245575Y-43420893D01*
X116306050Y-43237227D01*
X116383239Y-42986413D01*
X116478649Y-42664026D01*
X116518035Y-42531996D01*
X116553595Y-42433630D01*
X116587937Y-42382369D01*
X116632078Y-42362866D01*
X116697034Y-42359775D01*
X116708231Y-42359879D01*
X116792173Y-42368744D01*
X116826572Y-42387532D01*
X116825429Y-42393759D01*
X116807230Y-42458739D01*
X116769590Y-42583489D01*
X116716032Y-42756587D01*
X116650079Y-42966610D01*
X116575256Y-43202138D01*
X116554761Y-43266328D01*
X116479430Y-43502636D01*
X116411986Y-43714768D01*
X116356439Y-43890074D01*
X116316800Y-44015902D01*
X116297080Y-44079600D01*
X116294029Y-44089308D01*
X116250927Y-44150284D01*
X116165629Y-44158117D01*
X116133705Y-44151714D01*
X116102756Y-44133744D01*
X116071836Y-44095483D01*
X116036918Y-44027860D01*
X115993972Y-43921804D01*
X115938972Y-43768246D01*
X115867888Y-43558115D01*
X115776694Y-43282341D01*
X115729490Y-43138566D01*
X115653295Y-42904677D01*
X115588003Y-42701960D01*
X115537065Y-42541253D01*
X115503937Y-42433393D01*
X115492072Y-42389219D01*
X115492538Y-42386656D01*
X115533759Y-42367589D01*
X115621358Y-42359775D01*
X115750920Y-42359775D01*
X115935423Y-42944259D01*
G37*
G36*
X114863667Y-43262712D02*
G01*
X114863667Y-44165649D01*
X114294424Y-44165649D01*
X113725181Y-44165649D01*
X113725181Y-44047874D01*
X113725181Y-43930100D01*
X114157020Y-43930100D01*
X114588860Y-43930100D01*
X114588860Y-43656766D01*
X114588860Y-43383433D01*
X114225722Y-43372145D01*
X113862585Y-43360857D01*
X113850162Y-43252898D01*
X113837740Y-43144938D01*
X114215020Y-43144938D01*
X114592300Y-43144938D01*
X114580765Y-42860316D01*
X114569231Y-42575695D01*
X114147206Y-42564552D01*
X114019174Y-42561007D01*
X113876487Y-42554902D01*
X113789563Y-42544943D01*
X113744583Y-42527595D01*
X113727728Y-42499323D01*
X113725181Y-42456593D01*
X113725181Y-42359775D01*
X114294424Y-42359775D01*
X114863667Y-42359775D01*
X114863667Y-43262712D01*
G37*
G36*
X112979277Y-43262712D02*
G01*
X112979277Y-44165649D01*
X112841874Y-44165649D01*
X112704470Y-44165649D01*
X112704470Y-43792697D01*
X112704470Y-43419745D01*
X112528906Y-43419745D01*
X112353342Y-43419745D01*
X112169433Y-43792697D01*
X111985523Y-44165649D01*
X111831620Y-44165649D01*
X111677717Y-44165649D01*
X111878090Y-43785037D01*
X111891338Y-43759839D01*
X111973880Y-43599431D01*
X112022965Y-43492944D01*
X112042733Y-43427336D01*
X112037320Y-43389567D01*
X112010864Y-43366594D01*
X111909863Y-43290519D01*
X111799650Y-43152849D01*
X111739401Y-43004039D01*
X111731307Y-42924127D01*
X111741116Y-42854196D01*
X111999886Y-42854196D01*
X112012663Y-42992573D01*
X112076340Y-43105680D01*
X112102802Y-43128959D01*
X112170828Y-43162892D01*
X112272994Y-43179681D01*
X112431315Y-43184196D01*
X112707773Y-43184196D01*
X112696307Y-42879945D01*
X112684841Y-42575695D01*
X112511329Y-42563298D01*
X112327913Y-42562937D01*
X112184794Y-42598120D01*
X112075342Y-42674839D01*
X112038090Y-42724653D01*
X111999886Y-42854196D01*
X111741116Y-42854196D01*
X111757142Y-42739945D01*
X111835159Y-42572379D01*
X111954557Y-42449281D01*
X111960238Y-42445494D01*
X112026633Y-42407168D01*
X112099053Y-42382234D01*
X112195613Y-42367890D01*
X112334428Y-42361337D01*
X112533614Y-42359775D01*
X112979277Y-42359775D01*
X112979277Y-43184196D01*
X112979277Y-43262712D01*
G37*
G36*
X110597973Y-42373947D02*
G01*
X110749736Y-42411345D01*
X110771450Y-42420901D01*
X110917935Y-42524772D01*
X111003594Y-42674889D01*
X111031471Y-42876272D01*
X111027924Y-42949525D01*
X110986716Y-43098364D01*
X110892765Y-43210509D01*
X110737901Y-43293517D01*
X110513953Y-43354945D01*
X110499940Y-43357839D01*
X110353443Y-43393070D01*
X110235475Y-43429812D01*
X110170444Y-43460561D01*
X110144760Y-43496492D01*
X110118431Y-43595652D01*
X110116958Y-43708742D01*
X110143479Y-43796634D01*
X110176647Y-43834819D01*
X110296888Y-43900724D01*
X110455548Y-43926600D01*
X110630951Y-43910653D01*
X110801423Y-43851089D01*
X110956399Y-43772077D01*
X111024133Y-43860903D01*
X111063367Y-43917919D01*
X111063473Y-43964282D01*
X111005046Y-44018369D01*
X110917472Y-44073043D01*
X110800452Y-44122788D01*
X110705619Y-44144478D01*
X110517327Y-44160389D01*
X110330251Y-44149288D01*
X110180875Y-44111821D01*
X110130079Y-44088301D01*
X109975003Y-43976803D01*
X109886428Y-43828135D01*
X109858257Y-43633256D01*
X109859435Y-43586898D01*
X109894536Y-43413394D01*
X109983467Y-43285688D01*
X110133069Y-43196925D01*
X110350183Y-43140250D01*
X110428784Y-43125964D01*
X110599917Y-43082311D01*
X110708027Y-43027258D01*
X110764525Y-42953178D01*
X110780823Y-42852446D01*
X110759316Y-42734634D01*
X110677383Y-42637432D01*
X110665156Y-42628137D01*
X110543029Y-42570083D01*
X110397709Y-42566141D01*
X110211580Y-42615482D01*
X110183292Y-42625422D01*
X110092040Y-42650463D01*
X110035030Y-42642147D01*
X109981122Y-42598130D01*
X109975458Y-42592462D01*
X109933810Y-42542085D01*
X109945212Y-42504970D01*
X110016379Y-42453597D01*
X110070861Y-42425474D01*
X110227402Y-42382805D01*
X110413484Y-42365031D01*
X110597973Y-42373947D01*
G37*
G36*
X109053466Y-43262712D02*
G01*
X109053466Y-44165649D01*
X108935691Y-44165649D01*
X108817917Y-44165649D01*
X108817917Y-43262712D01*
X108817917Y-42359775D01*
X108935691Y-42359775D01*
X109053466Y-42359775D01*
X109053466Y-43262712D01*
G37*
G36*
X108111271Y-42455962D02*
G01*
X108107004Y-42504432D01*
X108080472Y-42537768D01*
X108012892Y-42554612D01*
X107885537Y-42563921D01*
X107659803Y-42575695D01*
X107649175Y-43370672D01*
X107638548Y-44165649D01*
X107502770Y-44165649D01*
X107366992Y-44165649D01*
X107356365Y-43370672D01*
X107345738Y-42575695D01*
X107120003Y-42563921D01*
X107006773Y-42556198D01*
X106931786Y-42540981D01*
X106900527Y-42510555D01*
X106894269Y-42455962D01*
X106894269Y-42359775D01*
X107502770Y-42359775D01*
X108111271Y-42359775D01*
X108111271Y-42455962D01*
G37*
G36*
X106168275Y-42869570D02*
G01*
X105912816Y-43379365D01*
X105912816Y-43772507D01*
X105912816Y-44165649D01*
X105775413Y-44165649D01*
X105638010Y-44165649D01*
X105638010Y-43792136D01*
X105638010Y-43418623D01*
X105382832Y-42909389D01*
X105344410Y-42832485D01*
X105258951Y-42659616D01*
X105190173Y-42517931D01*
X105144325Y-42420394D01*
X105127654Y-42379965D01*
X105128248Y-42378043D01*
X105170419Y-42365080D01*
X105258763Y-42359775D01*
X105313372Y-42362230D01*
X105364793Y-42379748D01*
X105410264Y-42426486D01*
X105462564Y-42516544D01*
X105534473Y-42664026D01*
X105591905Y-42784635D01*
X105657486Y-42920212D01*
X105701223Y-43005113D01*
X105730178Y-43051690D01*
X105751417Y-43072292D01*
X105772004Y-43079268D01*
X105789618Y-43065240D01*
X105835466Y-42993684D01*
X105897774Y-42874865D01*
X105968295Y-42723728D01*
X106128736Y-42361406D01*
X106276235Y-42360591D01*
X106423734Y-42359775D01*
X106168275Y-42869570D01*
G37*
G36*
X103516362Y-43254830D02*
G01*
X103510787Y-43420618D01*
X103478159Y-43663558D01*
X103412548Y-43849346D01*
X103309385Y-43988857D01*
X103164098Y-44092965D01*
X103017243Y-44148280D01*
X102815721Y-44159942D01*
X102623444Y-44105922D01*
X102457815Y-43991885D01*
X102336233Y-43823495D01*
X102335345Y-43821658D01*
X102299517Y-43737755D01*
X102292738Y-43712061D01*
X102529378Y-43712061D01*
X102651392Y-43821080D01*
X102678077Y-43843513D01*
X102824319Y-43918651D01*
X102970910Y-43915992D01*
X103113487Y-43835400D01*
X103119005Y-43830635D01*
X103168171Y-43782646D01*
X103199837Y-43729670D01*
X103218770Y-43653329D01*
X103229732Y-43535244D01*
X103237487Y-43357037D01*
X103237822Y-43347584D01*
X103239667Y-43094815D01*
X103222944Y-42907095D01*
X103184371Y-42772817D01*
X103120665Y-42680372D01*
X103028544Y-42618153D01*
X102939794Y-42581809D01*
X102858458Y-42576600D01*
X102757172Y-42610487D01*
X102743085Y-42616690D01*
X102643062Y-42678105D01*
X102579632Y-42745339D01*
X102565142Y-42798611D01*
X102549971Y-42918710D01*
X102538882Y-43081598D01*
X102533594Y-43267773D01*
X102529378Y-43712061D01*
X102292738Y-43712061D01*
X102276906Y-43652057D01*
X102265428Y-43545424D01*
X102262997Y-43398712D01*
X102267528Y-43192778D01*
X102268072Y-43175001D01*
X102275991Y-42976486D01*
X102287297Y-42837679D01*
X102305122Y-42741084D01*
X102332601Y-42669205D01*
X102372867Y-42604546D01*
X102412748Y-42552930D01*
X102550406Y-42433780D01*
X102719454Y-42374339D01*
X102935931Y-42367863D01*
X102984264Y-42371820D01*
X103112837Y-42392982D01*
X103206914Y-42436208D01*
X103300567Y-42515272D01*
X103355109Y-42576268D01*
X103448043Y-42746905D01*
X103500930Y-42970132D01*
X103507688Y-43094815D01*
X103516362Y-43254830D01*
G37*
G36*
X101437391Y-43265199D02*
G01*
X101437391Y-44170623D01*
X101309803Y-44158322D01*
X101182214Y-44146020D01*
X101170945Y-43784336D01*
X101159677Y-43422652D01*
X100797993Y-43411384D01*
X100761316Y-43410232D01*
X100604522Y-43404021D01*
X100508546Y-43394603D01*
X100458467Y-43377465D01*
X100439362Y-43348092D01*
X100436310Y-43301970D01*
X100436356Y-43290739D01*
X100441480Y-43248629D01*
X100465655Y-43222210D01*
X100523739Y-43207024D01*
X100630591Y-43198613D01*
X100801072Y-43192516D01*
X101165834Y-43181206D01*
X101154395Y-42878451D01*
X101142956Y-42575695D01*
X100720931Y-42564552D01*
X100592899Y-42561007D01*
X100450212Y-42554902D01*
X100363287Y-42544943D01*
X100318308Y-42527595D01*
X100301453Y-42499323D01*
X100298906Y-42456593D01*
X100298906Y-42359775D01*
X100868149Y-42359775D01*
X101437391Y-42359775D01*
X101437391Y-43265199D01*
G37*
G36*
X98677682Y-43716731D02*
G01*
X98735542Y-43885189D01*
X98776958Y-44010486D01*
X98796715Y-44077318D01*
X98802822Y-44122845D01*
X98778410Y-44157809D01*
X98695737Y-44165649D01*
X98672883Y-44165199D01*
X98602889Y-44149428D01*
X98551418Y-44097032D01*
X98497077Y-43988987D01*
X98418932Y-43812326D01*
X98081635Y-43812326D01*
X97744338Y-43812326D01*
X97668612Y-43988987D01*
X97654515Y-44021212D01*
X97604088Y-44114204D01*
X97550854Y-44155975D01*
X97473717Y-44165649D01*
X97471158Y-44165641D01*
X97388713Y-44155281D01*
X97354548Y-44131190D01*
X97357913Y-44115437D01*
X97382273Y-44035760D01*
X97426318Y-43902912D01*
X97485458Y-43730592D01*
X97549889Y-43547333D01*
X97828991Y-43547333D01*
X97832881Y-43576441D01*
X97864571Y-43601432D01*
X97941730Y-43613133D01*
X98080823Y-43616035D01*
X98211888Y-43612157D01*
X98305408Y-43596310D01*
X98334045Y-43566962D01*
X98320638Y-43495404D01*
X98287721Y-43380255D01*
X98242364Y-43241963D01*
X98191609Y-43100184D01*
X98142497Y-42974576D01*
X98102073Y-42884797D01*
X98077376Y-42850502D01*
X98058660Y-42871417D01*
X98020250Y-42950323D01*
X97972423Y-43069295D01*
X97922281Y-43208409D01*
X97876926Y-43347737D01*
X97843462Y-43467354D01*
X97828991Y-43547333D01*
X97549889Y-43547333D01*
X97555103Y-43532504D01*
X97575494Y-43475053D01*
X97656990Y-43244041D01*
X97736705Y-43016128D01*
X97806408Y-42814921D01*
X97857870Y-42664026D01*
X97897609Y-42547965D01*
X97939333Y-42442977D01*
X97976441Y-42386685D01*
X98020019Y-42363985D01*
X98081150Y-42359775D01*
X98092318Y-42359836D01*
X98155448Y-42367427D01*
X98199284Y-42399605D01*
X98237837Y-42473224D01*
X98285120Y-42605139D01*
X98297273Y-42640814D01*
X98348285Y-42787801D01*
X98416106Y-42980584D01*
X98493342Y-43198215D01*
X98572601Y-43419745D01*
X98608595Y-43520420D01*
X98624974Y-43566962D01*
X98677682Y-43716731D01*
G37*
G36*
X96687160Y-43262712D02*
G01*
X96687160Y-44165649D01*
X96115309Y-44165649D01*
X95543459Y-44165649D01*
X95555881Y-44057689D01*
X95568303Y-43949729D01*
X95990328Y-43938586D01*
X96412353Y-43927444D01*
X96412353Y-43143610D01*
X96412353Y-42359775D01*
X96549756Y-42359775D01*
X96687160Y-42359775D01*
X96687160Y-43262712D01*
G37*
G36*
X94842028Y-43262712D02*
G01*
X94842028Y-43655293D01*
X94842028Y-44165649D01*
X94420003Y-44165588D01*
X94362535Y-44165310D01*
X94122835Y-44154940D01*
X93944865Y-44126026D01*
X93815535Y-44073698D01*
X93721751Y-43993086D01*
X93650421Y-43879320D01*
X93641188Y-43859404D01*
X93598974Y-43678419D01*
X93602776Y-43655293D01*
X93860575Y-43655293D01*
X93881186Y-43746206D01*
X93940621Y-43844181D01*
X93977333Y-43878114D01*
X94042675Y-43910701D01*
X94140594Y-43926176D01*
X94293944Y-43930100D01*
X94567221Y-43930100D01*
X94567221Y-43655293D01*
X94567221Y-43380486D01*
X94293944Y-43380486D01*
X94184521Y-43382089D01*
X94070629Y-43393088D01*
X93996947Y-43419341D01*
X93940621Y-43466405D01*
X93887146Y-43550318D01*
X93860575Y-43655293D01*
X93602776Y-43655293D01*
X93627533Y-43504712D01*
X93724347Y-43356113D01*
X93818465Y-43261996D01*
X93721746Y-43119472D01*
X93650917Y-42981205D01*
X93630374Y-42811145D01*
X93902439Y-42811145D01*
X93909058Y-42947382D01*
X93978350Y-43066421D01*
X93992246Y-43079434D01*
X94059868Y-43119423D01*
X94159354Y-43139459D01*
X94313764Y-43144938D01*
X94570661Y-43144938D01*
X94559127Y-42860316D01*
X94547592Y-42575695D01*
X94329359Y-42564145D01*
X94193058Y-42563352D01*
X94090562Y-42584659D01*
X94005479Y-42635696D01*
X93956749Y-42685405D01*
X93902439Y-42811145D01*
X93630374Y-42811145D01*
X93630001Y-42808055D01*
X93680821Y-42616300D01*
X93695996Y-42582767D01*
X93758472Y-42490630D01*
X93848323Y-42426710D01*
X93978160Y-42386559D01*
X94160595Y-42365730D01*
X94408239Y-42359775D01*
X94842028Y-42359775D01*
X94842028Y-43144938D01*
X94842028Y-43262712D01*
G37*
G36*
X92839864Y-43262712D02*
G01*
X92839864Y-44165649D01*
X92270622Y-44165649D01*
X91701379Y-44165649D01*
X91701379Y-44047874D01*
X91701379Y-43930100D01*
X92133218Y-43930100D01*
X92565058Y-43930100D01*
X92565058Y-43656766D01*
X92565058Y-43383433D01*
X92201920Y-43372145D01*
X91838782Y-43360857D01*
X91826360Y-43252898D01*
X91813938Y-43144938D01*
X92191218Y-43144938D01*
X92568497Y-43144938D01*
X92556963Y-42860316D01*
X92545429Y-42575695D01*
X92123404Y-42564552D01*
X91995372Y-42561007D01*
X91852685Y-42554902D01*
X91765760Y-42544943D01*
X91720781Y-42527595D01*
X91703926Y-42499323D01*
X91701379Y-42456593D01*
X91701379Y-42359775D01*
X92270622Y-42359775D01*
X92839864Y-42359775D01*
X92839864Y-43262712D01*
G37*
G36*
X90955475Y-43262712D02*
G01*
X90955475Y-44165649D01*
X90818071Y-44165649D01*
X90680668Y-44165649D01*
X90680668Y-43792697D01*
X90680668Y-43419745D01*
X90513821Y-43419924D01*
X90346974Y-43420104D01*
X90157303Y-43792876D01*
X90114248Y-43877173D01*
X90041452Y-44014217D01*
X89987787Y-44099139D01*
X89942436Y-44144387D01*
X89894587Y-44162408D01*
X89833423Y-44165649D01*
X89818092Y-44165368D01*
X89733654Y-44151323D01*
X89699215Y-44122619D01*
X89704254Y-44103182D01*
X89738766Y-44023006D01*
X89798804Y-43901230D01*
X89875877Y-43755499D01*
X89918867Y-43675896D01*
X89987552Y-43545087D01*
X90034897Y-43449939D01*
X90052538Y-43406956D01*
X90052361Y-43405493D01*
X90017244Y-43370985D01*
X89939630Y-43324116D01*
X89829132Y-43230942D01*
X89751442Y-43084735D01*
X89719181Y-42911253D01*
X89724424Y-42855738D01*
X89978728Y-42855738D01*
X89985371Y-42989616D01*
X90052538Y-43105680D01*
X90079000Y-43128959D01*
X90147026Y-43162892D01*
X90249192Y-43179681D01*
X90407513Y-43184196D01*
X90683971Y-43184196D01*
X90672505Y-42879945D01*
X90661039Y-42575695D01*
X90487527Y-42563298D01*
X90448708Y-42561187D01*
X90319804Y-42562070D01*
X90223621Y-42573587D01*
X90118613Y-42622874D01*
X90025509Y-42726130D01*
X89978728Y-42855738D01*
X89724424Y-42855738D01*
X89736124Y-42731868D01*
X89806046Y-42567949D01*
X89809931Y-42562090D01*
X89881616Y-42478233D01*
X89974423Y-42420208D01*
X90102564Y-42383878D01*
X90280248Y-42365112D01*
X90521686Y-42359775D01*
X90955475Y-42359775D01*
X90955475Y-43184196D01*
X90955475Y-43262712D01*
G37*
G36*
X89071085Y-42455962D02*
G01*
X89066819Y-42504432D01*
X89040287Y-42537768D01*
X88972707Y-42554612D01*
X88845351Y-42563921D01*
X88619617Y-42575695D01*
X88608990Y-43370672D01*
X88598362Y-44165649D01*
X88462585Y-44165649D01*
X88326807Y-44165649D01*
X88316180Y-43370672D01*
X88305552Y-42575695D01*
X88079818Y-42563921D01*
X87966588Y-42556198D01*
X87891601Y-42540981D01*
X87860342Y-42510555D01*
X87854084Y-42455962D01*
X87854084Y-42359775D01*
X88462585Y-42359775D01*
X89071085Y-42359775D01*
X89071085Y-42455962D01*
G37*
G36*
X87348491Y-43616710D02*
G01*
X87420959Y-43819702D01*
X87478655Y-43980991D01*
X87517734Y-44089821D01*
X87534348Y-44135431D01*
X87534060Y-44142425D01*
X87490791Y-44158250D01*
X87399979Y-44158451D01*
X87318244Y-44146659D01*
X87252614Y-44109193D01*
X87213903Y-44028245D01*
X87210772Y-44018531D01*
X87173399Y-43920298D01*
X87127194Y-43859375D01*
X87054781Y-43827785D01*
X86938786Y-43817552D01*
X86761837Y-43820699D01*
X86427499Y-43831955D01*
X86371987Y-43998802D01*
X86353081Y-44053554D01*
X86314653Y-44129613D01*
X86259842Y-44160086D01*
X86162713Y-44165649D01*
X86130408Y-44164771D01*
X86043732Y-44151187D01*
X86008952Y-44126391D01*
X86009814Y-44117233D01*
X86040100Y-44087132D01*
X86047156Y-44084184D01*
X86079663Y-44033523D01*
X86114001Y-43939915D01*
X86139469Y-43860453D01*
X86187312Y-43719716D01*
X86234815Y-43583239D01*
X86542931Y-43583239D01*
X86565611Y-43594226D01*
X86647871Y-43607176D01*
X86763379Y-43614672D01*
X86884769Y-43615957D01*
X86984679Y-43610275D01*
X87035743Y-43596869D01*
X87037704Y-43572216D01*
X87020728Y-43489329D01*
X86986248Y-43367603D01*
X86940765Y-43226097D01*
X86890778Y-43083870D01*
X86842787Y-42959982D01*
X86803292Y-42873491D01*
X86778794Y-42843457D01*
X86773193Y-42847581D01*
X86741770Y-42904615D01*
X86698981Y-43011779D01*
X86651352Y-43148607D01*
X86605407Y-43294633D01*
X86567672Y-43429391D01*
X86544672Y-43532415D01*
X86542931Y-43583239D01*
X86234815Y-43583239D01*
X86251963Y-43533974D01*
X86328323Y-43317871D01*
X86411293Y-43086051D01*
X86447353Y-42986041D01*
X86527405Y-42766398D01*
X86588186Y-42607069D01*
X86634827Y-42498122D01*
X86672461Y-42429629D01*
X86706220Y-42391659D01*
X86741238Y-42374281D01*
X86782645Y-42367566D01*
X86899459Y-42355728D01*
X87209925Y-43227854D01*
X87265095Y-43382774D01*
X87332629Y-43572216D01*
X87348491Y-43616710D01*
G37*
G36*
X113646412Y-37500755D02*
G01*
X113886072Y-37545308D01*
X113947952Y-37565563D01*
X114211392Y-37700006D01*
X114438526Y-37896176D01*
X114614786Y-38142145D01*
X114659651Y-38234740D01*
X114732654Y-38455698D01*
X114783503Y-38729306D01*
X114813446Y-39063454D01*
X114823728Y-39466037D01*
X114823737Y-39471007D01*
X114811193Y-39911602D01*
X114772020Y-40280185D01*
X114705914Y-40578697D01*
X114612568Y-40809080D01*
X114570983Y-40879401D01*
X114390327Y-41101730D01*
X114166997Y-41280470D01*
X113921472Y-41398167D01*
X113863114Y-41414131D01*
X113653256Y-41441583D01*
X113371858Y-41444050D01*
X113338877Y-41442957D01*
X113155327Y-41432564D01*
X113020290Y-41413074D01*
X112907693Y-41379162D01*
X112791460Y-41325503D01*
X112728485Y-41291517D01*
X112502559Y-41135183D01*
X112325745Y-40945666D01*
X112194433Y-40715179D01*
X112105009Y-40435937D01*
X112053862Y-40100152D01*
X112037379Y-39700038D01*
X112037082Y-39336901D01*
X112743728Y-39336901D01*
X113450374Y-39336901D01*
X113450374Y-39572449D01*
X113450374Y-39807998D01*
X113033120Y-39807998D01*
X112615866Y-39807998D01*
X112634132Y-40123529D01*
X112646249Y-40279153D01*
X112668083Y-40405078D01*
X112705751Y-40503477D01*
X112766765Y-40601427D01*
X112819398Y-40669498D01*
X113002872Y-40829181D01*
X113221882Y-40918922D01*
X113475242Y-40938158D01*
X113590252Y-40925404D01*
X113814192Y-40854334D01*
X113990232Y-40722490D01*
X114122821Y-40527049D01*
X114146652Y-40476954D01*
X114171348Y-40414350D01*
X114189354Y-40344730D01*
X114201723Y-40256177D01*
X114209509Y-40136774D01*
X114213766Y-39974605D01*
X114215548Y-39757754D01*
X114215908Y-39474304D01*
X114215725Y-39252824D01*
X114214384Y-39020964D01*
X114210822Y-38846668D01*
X114203986Y-38718018D01*
X114192821Y-38623099D01*
X114176274Y-38549994D01*
X114153292Y-38486786D01*
X114122821Y-38421559D01*
X114024793Y-38269616D01*
X113870347Y-38127123D01*
X113783763Y-38075572D01*
X113691357Y-38041419D01*
X113576291Y-38025607D01*
X113410738Y-38021754D01*
X113380195Y-38021809D01*
X113230138Y-38026110D01*
X113127913Y-38042025D01*
X113047190Y-38076211D01*
X112961638Y-38135329D01*
X112941988Y-38151171D01*
X112817908Y-38287862D01*
X112716479Y-38459208D01*
X112620198Y-38669513D01*
X112343900Y-38669513D01*
X112067602Y-38669513D01*
X112094814Y-38524463D01*
X112179275Y-38262528D01*
X112332774Y-38009392D01*
X112541629Y-37790910D01*
X112794113Y-37622214D01*
X112882077Y-37583804D01*
X113115730Y-37522023D01*
X113380070Y-37493667D01*
X113646412Y-37500755D01*
G37*
G36*
X87849288Y-37514292D02*
G01*
X88158608Y-37598898D01*
X88420061Y-37744761D01*
X88631523Y-37950231D01*
X88790869Y-38213661D01*
X88895974Y-38533399D01*
X88919097Y-38679159D01*
X88937211Y-38894981D01*
X88947513Y-39150682D01*
X88950291Y-39429381D01*
X88945829Y-39714193D01*
X88934415Y-39988236D01*
X88916335Y-40234627D01*
X88891875Y-40436483D01*
X88861321Y-40576921D01*
X88764767Y-40802415D01*
X88586569Y-41051463D01*
X88354534Y-41248097D01*
X88076581Y-41384169D01*
X88075107Y-41384678D01*
X87833237Y-41439411D01*
X87559847Y-41456071D01*
X87288477Y-41434918D01*
X87052664Y-41376212D01*
X86921752Y-41316323D01*
X86688532Y-41156551D01*
X86485317Y-40950477D01*
X86334809Y-40718889D01*
X86329697Y-40708445D01*
X86287832Y-40617031D01*
X86258308Y-40531985D01*
X86238516Y-40436331D01*
X86225849Y-40313093D01*
X86217699Y-40145294D01*
X86211457Y-39915958D01*
X86198042Y-39336901D01*
X86888659Y-39336901D01*
X87579277Y-39336901D01*
X87579277Y-39571076D01*
X87579277Y-39805251D01*
X87176881Y-39816439D01*
X86774486Y-39827627D01*
X86761863Y-39982201D01*
X86759213Y-40090570D01*
X86797801Y-40335593D01*
X86891938Y-40558581D01*
X87033075Y-40742680D01*
X87212663Y-40871035D01*
X87216506Y-40872880D01*
X87425703Y-40936942D01*
X87648720Y-40945690D01*
X87860587Y-40901117D01*
X88036337Y-40805220D01*
X88083490Y-40766279D01*
X88165194Y-40690403D01*
X88227877Y-40611679D01*
X88274044Y-40519300D01*
X88306200Y-40402458D01*
X88326849Y-40250346D01*
X88338498Y-40052154D01*
X88343650Y-39797076D01*
X88344810Y-39474304D01*
X88344589Y-39308846D01*
X88341808Y-39020209D01*
X88333822Y-38794031D01*
X88318127Y-38619506D01*
X88292218Y-38485825D01*
X88253589Y-38382180D01*
X88199736Y-38297765D01*
X88128154Y-38221770D01*
X88036337Y-38143388D01*
X88033360Y-38140998D01*
X87856650Y-38046100D01*
X87644319Y-38002567D01*
X87421334Y-38012393D01*
X87212663Y-38077573D01*
X87185807Y-38091486D01*
X87022275Y-38216063D01*
X86890000Y-38382006D01*
X86811968Y-38561553D01*
X86801689Y-38599403D01*
X86778714Y-38639252D01*
X86731567Y-38660142D01*
X86642135Y-38668190D01*
X86492304Y-38669513D01*
X86199005Y-38669513D01*
X86226258Y-38541924D01*
X86244442Y-38471163D01*
X86340824Y-38236488D01*
X86481540Y-38009677D01*
X86647179Y-37823841D01*
X86686618Y-37789626D01*
X86942055Y-37622305D01*
X87228662Y-37523942D01*
X87553995Y-37491769D01*
X87849288Y-37514292D01*
G37*
G36*
X122204934Y-39474304D02*
G01*
X122204934Y-41417581D01*
X120968303Y-41417581D01*
X119731673Y-41417581D01*
X119731673Y-41162403D01*
X119731673Y-40907225D01*
X120674890Y-40907225D01*
X121618107Y-40907225D01*
X121607270Y-40308539D01*
X121596433Y-39709853D01*
X120850529Y-39703171D01*
X120844146Y-39703113D01*
X120608104Y-39700856D01*
X120397856Y-39698590D01*
X120226583Y-39696476D01*
X120107464Y-39694677D01*
X120053679Y-39693356D01*
X120025518Y-39669095D01*
X120012562Y-39590023D01*
X120014421Y-39444860D01*
X120026109Y-39199497D01*
X120821085Y-39188870D01*
X121616062Y-39178242D01*
X121616062Y-38609813D01*
X121616062Y-38041383D01*
X120673867Y-38041383D01*
X119731673Y-38041383D01*
X119731673Y-37786205D01*
X119731673Y-37531027D01*
X120968303Y-37531027D01*
X122204934Y-37531027D01*
X122204934Y-39474304D01*
G37*
G36*
X118495969Y-37539049D02*
G01*
X118752022Y-37550656D01*
X118751506Y-39464490D01*
X118751495Y-39504632D01*
X118751384Y-39882562D01*
X118751266Y-40235392D01*
X118751144Y-40555492D01*
X118751022Y-40835231D01*
X118750904Y-41066977D01*
X118750792Y-41243100D01*
X118750691Y-41355968D01*
X118750605Y-41397952D01*
X118750377Y-41398726D01*
X118709228Y-41408254D01*
X118610941Y-41415013D01*
X118475413Y-41417581D01*
X118200606Y-41417581D01*
X118200606Y-40082805D01*
X118200066Y-39836811D01*
X118197884Y-39541684D01*
X118194225Y-39280005D01*
X118189302Y-39060786D01*
X118183329Y-38893041D01*
X118176519Y-38785784D01*
X118169083Y-38748029D01*
X118162728Y-38753375D01*
X118118838Y-38809782D01*
X118038553Y-38922164D01*
X117926591Y-39083625D01*
X117787670Y-39287267D01*
X117626507Y-39526195D01*
X117447822Y-39793510D01*
X117256332Y-40082317D01*
X116375104Y-41416605D01*
X116110112Y-41417093D01*
X115845119Y-41417581D01*
X115845119Y-39472584D01*
X115845119Y-37527588D01*
X116129741Y-37539122D01*
X116414362Y-37550656D01*
X116433991Y-38885432D01*
X116453620Y-40220208D01*
X117346768Y-38873825D01*
X118239915Y-37527441D01*
X118495969Y-37539049D01*
G37*
G36*
X111016371Y-39474304D02*
G01*
X111016371Y-41417581D01*
X110741565Y-41417581D01*
X110466758Y-41417581D01*
X110466758Y-39474304D01*
X110466758Y-37531027D01*
X110741565Y-37531027D01*
X111016371Y-37531027D01*
X111016371Y-39474304D01*
G37*
G36*
X106894269Y-38864083D02*
G01*
X106894779Y-39111620D01*
X106896822Y-39406809D01*
X106900240Y-39668510D01*
X106904838Y-39887719D01*
X106910414Y-40055429D01*
X106916772Y-40162635D01*
X106923713Y-40200332D01*
X106929942Y-40194907D01*
X106973548Y-40138362D01*
X107053642Y-40025912D01*
X107165511Y-39864446D01*
X107304441Y-39660853D01*
X107465719Y-39422024D01*
X107644631Y-39154846D01*
X107836464Y-38866211D01*
X108719772Y-37532338D01*
X108984764Y-37531683D01*
X109249756Y-37531027D01*
X109249756Y-39474304D01*
X109249756Y-41417581D01*
X108955320Y-41417581D01*
X108660884Y-41417581D01*
X108660234Y-40053361D01*
X108659584Y-38689142D01*
X107756327Y-40055133D01*
X106853069Y-41421124D01*
X106589048Y-41409538D01*
X106325027Y-41397952D01*
X106325027Y-39474304D01*
X106325027Y-37550656D01*
X106609648Y-37539122D01*
X106894269Y-37527588D01*
X106894269Y-38864083D01*
G37*
G36*
X105166912Y-39474304D02*
G01*
X105166912Y-41418699D01*
X103940096Y-41408325D01*
X102713280Y-41397952D01*
X102713280Y-41162403D01*
X102713280Y-40926854D01*
X103655475Y-40907225D01*
X104597670Y-40887596D01*
X104597670Y-40298724D01*
X104597670Y-39709853D01*
X103830995Y-39707715D01*
X103804767Y-39707629D01*
X103568189Y-39705579D01*
X103359350Y-39701584D01*
X103190943Y-39696051D01*
X103075663Y-39689384D01*
X103026204Y-39681991D01*
X103009784Y-39649310D01*
X102994134Y-39556322D01*
X102988087Y-39428950D01*
X102988087Y-39199497D01*
X103803766Y-39188883D01*
X104619445Y-39178269D01*
X104608557Y-38619640D01*
X104597670Y-38061012D01*
X103655475Y-38041383D01*
X102713280Y-38021754D01*
X102713280Y-37786205D01*
X102713280Y-37550656D01*
X103940096Y-37540283D01*
X105166912Y-37529909D01*
X105166912Y-39474304D01*
G37*
G36*
X101790714Y-39474304D02*
G01*
X101790714Y-41417581D01*
X100554084Y-41417581D01*
X99317453Y-41417581D01*
X99317453Y-41162403D01*
X99317453Y-40907225D01*
X100257002Y-40907225D01*
X100482211Y-40907027D01*
X100727039Y-40905785D01*
X100909549Y-40902812D01*
X101039075Y-40897438D01*
X101124951Y-40888991D01*
X101176509Y-40876804D01*
X101203085Y-40860204D01*
X101214011Y-40838524D01*
X101226409Y-40758742D01*
X101235898Y-40619373D01*
X101240418Y-40447281D01*
X101240240Y-40260994D01*
X101235636Y-40079040D01*
X101226877Y-39919947D01*
X101214234Y-39802243D01*
X101197980Y-39744456D01*
X101197806Y-39744248D01*
X101167965Y-39723070D01*
X101112207Y-39707754D01*
X101020020Y-39697570D01*
X100880888Y-39691789D01*
X100684298Y-39689683D01*
X100419738Y-39690523D01*
X100192784Y-39691933D01*
X99983424Y-39692944D01*
X99812514Y-39693464D01*
X99693407Y-39693454D01*
X99639459Y-39692873D01*
X99611193Y-39668719D01*
X99598319Y-39589825D01*
X99600201Y-39444860D01*
X99611889Y-39199497D01*
X100416680Y-39179868D01*
X101221472Y-39160239D01*
X101230375Y-38669513D01*
X101230533Y-38660641D01*
X101232143Y-38467433D01*
X101230313Y-38299431D01*
X101225439Y-38174395D01*
X101217915Y-38110085D01*
X101210274Y-38093951D01*
X101187796Y-38075984D01*
X101143037Y-38062619D01*
X101066625Y-38053187D01*
X100949187Y-38047018D01*
X100781353Y-38043441D01*
X100553749Y-38041786D01*
X100257002Y-38041383D01*
X99317453Y-38041383D01*
X99317453Y-37786205D01*
X99317453Y-37531027D01*
X100554084Y-37531027D01*
X101790714Y-37531027D01*
X101790714Y-39474304D01*
G37*
G36*
X98365853Y-39435046D02*
G01*
X98365908Y-39445359D01*
X98367551Y-39823149D01*
X98368346Y-40177387D01*
X98368329Y-40500219D01*
X98367533Y-40783796D01*
X98365995Y-41020264D01*
X98363748Y-41201774D01*
X98360829Y-41320472D01*
X98357270Y-41368508D01*
X98334925Y-41388599D01*
X98236936Y-41410354D01*
X98062426Y-41417581D01*
X97786387Y-41417581D01*
X97786387Y-40611368D01*
X97786387Y-39805155D01*
X97403620Y-39816391D01*
X97020854Y-39827627D01*
X96622448Y-40612789D01*
X96224043Y-41397952D01*
X95882559Y-41409350D01*
X95812122Y-41411027D01*
X95675989Y-41409679D01*
X95584562Y-41402080D01*
X95554689Y-41389263D01*
X95556140Y-41386128D01*
X95584593Y-41330236D01*
X95641975Y-41220103D01*
X95721463Y-41068644D01*
X95816232Y-40888775D01*
X95919460Y-40693413D01*
X96024324Y-40495473D01*
X96124000Y-40307872D01*
X96211664Y-40143526D01*
X96280495Y-40015350D01*
X96284278Y-40008334D01*
X96348945Y-39883853D01*
X96394879Y-39787141D01*
X96412353Y-39738615D01*
X96409718Y-39731432D01*
X96360713Y-39694898D01*
X96269351Y-39654286D01*
X96120211Y-39574915D01*
X95953806Y-39429567D01*
X95815987Y-39249694D01*
X95727935Y-39058601D01*
X95682207Y-38853256D01*
X95679524Y-38773469D01*
X96246457Y-38773469D01*
X96301781Y-38969591D01*
X96420258Y-39129806D01*
X96597568Y-39243815D01*
X96637039Y-39257031D01*
X96773047Y-39279844D01*
X96977877Y-39293256D01*
X97256138Y-39297643D01*
X97788381Y-39297643D01*
X97777569Y-38679327D01*
X97766758Y-38061012D01*
X97214152Y-38061012D01*
X97146124Y-38061039D01*
X96945287Y-38062226D01*
X96802764Y-38066928D01*
X96702733Y-38077519D01*
X96629372Y-38096379D01*
X96566861Y-38125885D01*
X96499379Y-38168412D01*
X96405423Y-38240295D01*
X96330736Y-38337941D01*
X96276849Y-38479072D01*
X96258605Y-38551742D01*
X96246457Y-38773469D01*
X95679524Y-38773469D01*
X95672129Y-38553560D01*
X95730773Y-38276155D01*
X95854813Y-38029373D01*
X96040922Y-37821547D01*
X96285775Y-37661009D01*
X96510498Y-37550656D01*
X97433064Y-37550656D01*
X98355629Y-37550656D01*
X98365108Y-39297643D01*
X98365853Y-39435046D01*
G37*
G36*
X94341487Y-37539122D02*
G01*
X94626109Y-37550656D01*
X94636332Y-39435046D01*
X94636388Y-39445359D01*
X94638030Y-39823149D01*
X94638825Y-40177387D01*
X94638808Y-40500219D01*
X94638012Y-40783796D01*
X94636474Y-41020264D01*
X94634227Y-41201774D01*
X94631308Y-41320472D01*
X94627749Y-41368508D01*
X94605404Y-41388599D01*
X94507415Y-41410354D01*
X94332905Y-41417581D01*
X94056866Y-41417581D01*
X94056866Y-39472584D01*
X94056866Y-37527588D01*
X94341487Y-37539122D01*
G37*
G36*
X90562894Y-38868120D02*
G01*
X90562922Y-38941365D01*
X90564294Y-39333705D01*
X90567762Y-39649485D01*
X90573376Y-39890356D01*
X90581188Y-40057972D01*
X90591249Y-40153985D01*
X90603611Y-40180048D01*
X90608994Y-40174602D01*
X90652147Y-40117126D01*
X90731976Y-40003522D01*
X90843642Y-39840915D01*
X90982304Y-39636431D01*
X91143124Y-39397193D01*
X91321261Y-39130326D01*
X91511875Y-38842955D01*
X92379422Y-37531027D01*
X92648901Y-37531027D01*
X92918381Y-37531027D01*
X92918381Y-39474304D01*
X92918381Y-41417581D01*
X92624453Y-41417581D01*
X92330526Y-41417581D01*
X92320203Y-40061193D01*
X92309880Y-38704806D01*
X91411922Y-40061193D01*
X90513964Y-41417581D01*
X90243993Y-41417581D01*
X89974022Y-41417581D01*
X89974022Y-39474304D01*
X89974022Y-37531027D01*
X90268458Y-37531027D01*
X90562894Y-37531027D01*
X90562894Y-38868120D01*
G37*
G36*
X122087160Y-35738240D02*
G01*
X122086468Y-35965729D01*
X122083959Y-36216533D01*
X122079879Y-36432069D01*
X122074506Y-36601525D01*
X122068116Y-36714090D01*
X122060988Y-36758951D01*
X122028131Y-36770078D01*
X121934620Y-36780927D01*
X121807183Y-36785123D01*
X121579551Y-36785123D01*
X121568363Y-36382728D01*
X121557175Y-35980332D01*
X121194037Y-35969044D01*
X120830900Y-35957756D01*
X120830900Y-35743310D01*
X120830900Y-35528864D01*
X121203852Y-35528864D01*
X121576804Y-35528864D01*
X121576804Y-35353530D01*
X121576804Y-35178197D01*
X121154779Y-35167054D01*
X120732755Y-35155911D01*
X120720888Y-34949806D01*
X120709022Y-34743701D01*
X121398091Y-34743701D01*
X122087160Y-34743701D01*
X122087160Y-35738240D01*
G37*
G36*
X120113539Y-36256060D02*
G01*
X120180491Y-36448120D01*
X120233627Y-36602666D01*
X120268656Y-36707590D01*
X120281286Y-36750782D01*
X120254597Y-36766549D01*
X120168560Y-36779965D01*
X120043734Y-36785123D01*
X120012301Y-36785098D01*
X119892895Y-36781619D01*
X119824497Y-36764702D01*
X119784119Y-36723639D01*
X119748772Y-36647720D01*
X119691361Y-36510316D01*
X119378350Y-36510316D01*
X119065338Y-36510316D01*
X119007928Y-36647720D01*
X119000289Y-36665895D01*
X118965768Y-36734121D01*
X118921700Y-36769595D01*
X118845095Y-36783026D01*
X118712965Y-36785123D01*
X118603910Y-36781668D01*
X118511096Y-36770525D01*
X118475413Y-36754359D01*
X118475423Y-36753990D01*
X118488613Y-36705272D01*
X118523283Y-36598633D01*
X118574256Y-36449538D01*
X118636359Y-36273447D01*
X118687389Y-36130749D01*
X118724629Y-36026715D01*
X119221317Y-36026715D01*
X119221473Y-36029876D01*
X119263410Y-36066228D01*
X119378350Y-36078477D01*
X119413498Y-36077657D01*
X119500538Y-36066421D01*
X119535382Y-36046212D01*
X119535262Y-36042912D01*
X119520081Y-35974171D01*
X119486500Y-35866094D01*
X119444593Y-35747364D01*
X119404436Y-35646666D01*
X119376102Y-35592684D01*
X119365832Y-35593072D01*
X119335130Y-35639837D01*
X119297332Y-35729006D01*
X119260432Y-35838157D01*
X119232429Y-35944868D01*
X119221317Y-36026715D01*
X118724629Y-36026715D01*
X118826078Y-35743306D01*
X118939745Y-35426411D01*
X119029326Y-35177469D01*
X119095757Y-34993883D01*
X119139973Y-34873060D01*
X119162909Y-34812403D01*
X119184337Y-34780644D01*
X119251962Y-34751926D01*
X119377787Y-34743701D01*
X119422290Y-34744079D01*
X119519626Y-34753695D01*
X119572921Y-34785500D01*
X119608133Y-34851661D01*
X119618588Y-34878383D01*
X119662068Y-34993996D01*
X119721777Y-35156856D01*
X119793424Y-35354854D01*
X119872715Y-35575883D01*
X119955359Y-35807832D01*
X120037065Y-36038594D01*
X120039744Y-36046212D01*
X120113539Y-36256060D01*
G37*
G36*
X117211294Y-34746907D02*
G01*
X117423477Y-34799269D01*
X117610725Y-34900680D01*
X117754533Y-35049520D01*
X117755009Y-35050229D01*
X117811413Y-35181377D01*
X117851467Y-35368071D01*
X117874643Y-35589104D01*
X117880413Y-35823273D01*
X117868248Y-36049372D01*
X117837619Y-36246197D01*
X117787999Y-36392542D01*
X117739073Y-36470490D01*
X117585469Y-36623034D01*
X117389723Y-36730105D01*
X117199135Y-36773108D01*
X116973997Y-36760746D01*
X116763384Y-36686762D01*
X116584509Y-36557606D01*
X116454586Y-36379726D01*
X116417257Y-36298350D01*
X116383184Y-36202521D01*
X116378513Y-36151477D01*
X116400959Y-36138956D01*
X116484655Y-36123693D01*
X116604227Y-36117735D01*
X116645247Y-36118077D01*
X116760264Y-36128787D01*
X116838471Y-36163783D01*
X116912433Y-36235510D01*
X116931237Y-36256111D01*
X117040008Y-36336455D01*
X117149404Y-36341276D01*
X117272746Y-36271918D01*
X117296551Y-36252660D01*
X117334386Y-36213197D01*
X117357830Y-36161898D01*
X117370319Y-36082096D01*
X117375292Y-35957119D01*
X117376186Y-35770298D01*
X117375001Y-35643672D01*
X117363984Y-35446943D01*
X117337666Y-35312340D01*
X117291518Y-35229290D01*
X117221015Y-35187215D01*
X117121631Y-35175541D01*
X117010929Y-35194480D01*
X116912102Y-35273686D01*
X116897729Y-35291206D01*
X116837324Y-35342254D01*
X116754468Y-35366001D01*
X116621360Y-35371831D01*
X116535721Y-35369852D01*
X116433277Y-35360915D01*
X116383204Y-35347216D01*
X116376610Y-35326638D01*
X116392070Y-35250181D01*
X116435506Y-35145210D01*
X116496205Y-35035614D01*
X116563454Y-34945283D01*
X116610180Y-34900303D01*
X116786141Y-34795804D01*
X116992681Y-34745212D01*
X117211294Y-34746907D01*
G37*
G36*
X114674612Y-35386499D02*
G01*
X114671388Y-35638073D01*
X114673359Y-35839508D01*
X114681556Y-35986506D01*
X114696688Y-36091368D01*
X114719461Y-36166397D01*
X114754043Y-36231463D01*
X114851146Y-36320004D01*
X114969726Y-36338528D01*
X115096335Y-36282879D01*
X115197361Y-36207499D01*
X115208041Y-35475600D01*
X115218722Y-34743701D01*
X115473034Y-34743701D01*
X115727345Y-34743701D01*
X115727126Y-35420904D01*
X115725853Y-35587358D01*
X115720276Y-35812097D01*
X115711042Y-36008420D01*
X115699000Y-36159631D01*
X115684999Y-36249031D01*
X115666638Y-36303025D01*
X115562946Y-36478583D01*
X115411750Y-36628773D01*
X115236619Y-36728397D01*
X115068071Y-36766913D01*
X114844787Y-36760177D01*
X114628821Y-36697936D01*
X114441036Y-36586779D01*
X114302299Y-36433296D01*
X114300434Y-36430287D01*
X114271006Y-36377298D01*
X114248957Y-36318881D01*
X114232965Y-36242856D01*
X114221709Y-36137041D01*
X114213868Y-35989256D01*
X114208121Y-35787319D01*
X114203146Y-35519049D01*
X114190385Y-34743701D01*
X114438695Y-34743649D01*
X114687005Y-34743597D01*
X114674612Y-35386499D01*
G37*
G36*
X113371858Y-35738240D02*
G01*
X113371144Y-35965617D01*
X113368547Y-36216549D01*
X113364325Y-36432264D01*
X113358763Y-36601938D01*
X113352150Y-36714748D01*
X113344771Y-36759867D01*
X113319240Y-36766051D01*
X113225504Y-36772828D01*
X113076556Y-36777003D01*
X112886032Y-36778244D01*
X112667568Y-36776224D01*
X112017453Y-36765494D01*
X112017453Y-36569204D01*
X112017453Y-36372913D01*
X112429663Y-36353284D01*
X112841874Y-36333655D01*
X112852501Y-35538678D01*
X112863128Y-34743701D01*
X113117493Y-34743701D01*
X113371858Y-34743701D01*
X113371858Y-35738240D01*
G37*
G36*
X111597480Y-34949806D02*
G01*
X111585614Y-35155911D01*
X111359880Y-35167685D01*
X111134146Y-35179459D01*
X111134146Y-35956119D01*
X111134116Y-35992941D01*
X111132489Y-36229054D01*
X111128658Y-36436064D01*
X111123027Y-36601619D01*
X111115998Y-36713365D01*
X111107974Y-36758951D01*
X111074563Y-36770160D01*
X110980621Y-36780952D01*
X110852796Y-36785123D01*
X110623790Y-36785123D01*
X110623790Y-35982205D01*
X110623790Y-35179287D01*
X110378427Y-35167599D01*
X110133064Y-35155911D01*
X110121198Y-34949806D01*
X110109331Y-34743701D01*
X110859339Y-34743701D01*
X111609346Y-34743701D01*
X111597480Y-34949806D01*
G37*
G36*
X109395377Y-34746199D02*
G01*
X109488789Y-34753462D01*
X109524563Y-34763821D01*
X109515256Y-34787415D01*
X109476080Y-34871652D01*
X109411630Y-35005124D01*
X109327711Y-35175846D01*
X109230127Y-35371831D01*
X108935691Y-35959722D01*
X108935691Y-36372422D01*
X108935691Y-36785123D01*
X108700143Y-36785123D01*
X108464594Y-36785123D01*
X108463841Y-36363098D01*
X108463088Y-35941074D01*
X108169405Y-35355358D01*
X108096604Y-35209702D01*
X108008676Y-35032379D01*
X107938683Y-34889554D01*
X107892430Y-34793097D01*
X107875722Y-34754878D01*
X107875731Y-34754760D01*
X107912552Y-34748998D01*
X108007244Y-34747905D01*
X108139582Y-34751722D01*
X108403442Y-34763330D01*
X108540431Y-35087210D01*
X108570602Y-35157097D01*
X108630645Y-35287319D01*
X108677627Y-35377426D01*
X108703335Y-35411089D01*
X108713972Y-35401232D01*
X108753231Y-35335805D01*
X108810658Y-35222564D01*
X108877939Y-35077395D01*
X109026628Y-34743701D01*
X109275595Y-34743701D01*
X109395377Y-34746199D01*
G37*
G36*
X106631699Y-35926491D02*
G01*
X106620509Y-36119758D01*
X106599876Y-36259043D01*
X106568277Y-36358400D01*
X106542952Y-36407863D01*
X106433497Y-36551742D01*
X106295670Y-36666708D01*
X106155154Y-36729681D01*
X106076543Y-36748608D01*
X106010962Y-36768057D01*
X105974754Y-36776299D01*
X105856655Y-36774906D01*
X105708471Y-36751538D01*
X105559312Y-36711651D01*
X105438286Y-36660702D01*
X105391639Y-36633156D01*
X105275339Y-36543976D01*
X105193690Y-36435798D01*
X105140435Y-36293892D01*
X105109322Y-36103526D01*
X105097794Y-35911546D01*
X105565558Y-35911546D01*
X105592240Y-36103638D01*
X105649572Y-36233886D01*
X105739138Y-36308242D01*
X105824798Y-36342679D01*
X105889999Y-36344683D01*
X105978952Y-36313752D01*
X105979753Y-36313428D01*
X106054049Y-36268971D01*
X106104022Y-36198076D01*
X106133072Y-36087909D01*
X106144602Y-35925632D01*
X106142012Y-35698409D01*
X106137382Y-35583959D01*
X106121658Y-35405065D01*
X106091924Y-35286725D01*
X106041565Y-35216990D01*
X105963966Y-35183912D01*
X105852510Y-35175541D01*
X105783212Y-35180932D01*
X105689648Y-35220541D01*
X105626443Y-35307242D01*
X105587660Y-35451174D01*
X105567361Y-35662474D01*
X105565558Y-35911546D01*
X105097794Y-35911546D01*
X105094097Y-35849968D01*
X105091921Y-35580001D01*
X105107942Y-35358743D01*
X105145702Y-35188274D01*
X105208227Y-35055214D01*
X105298544Y-34946182D01*
X105372097Y-34881447D01*
X105509203Y-34799039D01*
X105670849Y-34756065D01*
X105882479Y-34743701D01*
X105977553Y-34747776D01*
X106209831Y-34802040D01*
X106396976Y-34920151D01*
X106540597Y-35102989D01*
X106557919Y-35134183D01*
X106593989Y-35210760D01*
X106616985Y-35291537D01*
X106629630Y-35395086D01*
X106634651Y-35539977D01*
X106634771Y-35744783D01*
X106631714Y-35925632D01*
X106631699Y-35926491D01*
G37*
G36*
X104342492Y-35764412D02*
G01*
X104342492Y-36785123D01*
X104108317Y-36785123D01*
X103874141Y-36785123D01*
X103862953Y-36382728D01*
X103851765Y-35980332D01*
X103488628Y-35969044D01*
X103125490Y-35957756D01*
X103125490Y-35743310D01*
X103125490Y-35528864D01*
X103498442Y-35528864D01*
X103871395Y-35528864D01*
X103871395Y-35352202D01*
X103871395Y-35175541D01*
X103439555Y-35175541D01*
X103289948Y-35173714D01*
X103142804Y-35167506D01*
X103042102Y-35157939D01*
X103003874Y-35146097D01*
X103002223Y-35127756D01*
X102996981Y-35046287D01*
X102990720Y-34930177D01*
X102981407Y-34743701D01*
X103661950Y-34743701D01*
X104342492Y-34743701D01*
X104342492Y-35764412D01*
G37*
G36*
X130893982Y-36280159D02*
G01*
X131211733Y-36575914D01*
X131292705Y-36651281D01*
X131643774Y-37073017D01*
X131870217Y-37428074D01*
X131941776Y-37540276D01*
X132181301Y-38047966D01*
X132356938Y-38590996D01*
X132357703Y-38594018D01*
X132387876Y-38732293D01*
X132398202Y-38804714D01*
X132408949Y-38880083D01*
X132422246Y-39054616D01*
X132429087Y-39273120D01*
X132430361Y-39481346D01*
X132430798Y-39552820D01*
X132430687Y-39610495D01*
X132428712Y-39852742D01*
X132422945Y-40039186D01*
X132411459Y-40188694D01*
X132392327Y-40320135D01*
X132363623Y-40452377D01*
X132323419Y-40604290D01*
X132323279Y-40604794D01*
X132140975Y-41140458D01*
X131903357Y-41625232D01*
X131726238Y-41888439D01*
X131604629Y-42069155D01*
X131238992Y-42482267D01*
X131223812Y-42497372D01*
X130800469Y-42864959D01*
X130406815Y-43126090D01*
X130336619Y-43172655D01*
X129841654Y-43415819D01*
X129807613Y-43427282D01*
X129324966Y-43589807D01*
X128795946Y-43689976D01*
X128681689Y-43702513D01*
X128434357Y-43721864D01*
X128210716Y-43724266D01*
X127977406Y-43709312D01*
X127701070Y-43676592D01*
X127642967Y-43668385D01*
X127131170Y-43561445D01*
X126651917Y-43393895D01*
X126251535Y-43190505D01*
X126711724Y-43190505D01*
X126769102Y-43217918D01*
X126896578Y-43245677D01*
X126930464Y-43251904D01*
X127008090Y-43262010D01*
X127026041Y-43248987D01*
X126997655Y-43207842D01*
X126975533Y-43178161D01*
X126967721Y-43127602D01*
X127017537Y-43065119D01*
X127028880Y-43054207D01*
X127107599Y-43010528D01*
X127210596Y-43020775D01*
X127249710Y-43032986D01*
X127315649Y-43081795D01*
X127340420Y-43176969D01*
X127343272Y-43218603D01*
X127331134Y-43284368D01*
X127283495Y-43301970D01*
X127247520Y-43308078D01*
X127251565Y-43337092D01*
X127253617Y-43338904D01*
X127319084Y-43371034D01*
X127419406Y-43399748D01*
X127549952Y-43427282D01*
X127488107Y-43307688D01*
X127470557Y-43265712D01*
X127438156Y-43118785D01*
X127426263Y-42935875D01*
X127426231Y-42920945D01*
X127424473Y-42870131D01*
X127740328Y-42870131D01*
X127755051Y-42892949D01*
X127818844Y-42909389D01*
X127864480Y-42916751D01*
X127897361Y-42948647D01*
X127890717Y-42966707D01*
X127838473Y-42987905D01*
X127811384Y-42992334D01*
X127779586Y-43027163D01*
X127787588Y-43046315D01*
X127842149Y-43066421D01*
X127882286Y-43081089D01*
X127925244Y-43144938D01*
X127926672Y-43150280D01*
X127956616Y-43217354D01*
X127985234Y-43214092D01*
X128006686Y-43148145D01*
X128015135Y-43027163D01*
X128250684Y-43027163D01*
X128261517Y-43102934D01*
X128297793Y-43176344D01*
X128331617Y-43201966D01*
X128435460Y-43226511D01*
X128539907Y-43199124D01*
X128611150Y-43125309D01*
X128631506Y-43060948D01*
X128623111Y-42946787D01*
X128560892Y-42863266D01*
X128455667Y-42830873D01*
X128362184Y-42843997D01*
X128278350Y-42908264D01*
X128250684Y-43027163D01*
X128015135Y-43027163D01*
X128015135Y-42830873D01*
X127877731Y-42830873D01*
X127859699Y-42831212D01*
X127774839Y-42844182D01*
X127740328Y-42870131D01*
X127424473Y-42870131D01*
X127419631Y-42730147D01*
X127403022Y-42577056D01*
X127398985Y-42560274D01*
X128781219Y-42560274D01*
X128787430Y-42594932D01*
X128833367Y-42655260D01*
X128846513Y-42673730D01*
X128902378Y-42788841D01*
X128939087Y-42920359D01*
X128943088Y-42943133D01*
X128975194Y-43060948D01*
X128991142Y-43119471D01*
X129058011Y-43249379D01*
X129135750Y-43316842D01*
X129187072Y-43331780D01*
X129331379Y-43336357D01*
X129472353Y-43298684D01*
X129585455Y-43227643D01*
X129646146Y-43132114D01*
X129647372Y-43126090D01*
X129645581Y-43038702D01*
X129624599Y-42905770D01*
X129588430Y-42753553D01*
X129573345Y-42697788D01*
X129540561Y-42553003D01*
X129534116Y-42462348D01*
X129552467Y-42411112D01*
X129564610Y-42395594D01*
X129580970Y-42348808D01*
X129532436Y-42339744D01*
X129416616Y-42367637D01*
X129411424Y-42369244D01*
X129304051Y-42413056D01*
X129274454Y-42453082D01*
X129322935Y-42488927D01*
X129332503Y-42496683D01*
X129367852Y-42563754D01*
X129408810Y-42681977D01*
X129448329Y-42832067D01*
X129522183Y-43155429D01*
X129431698Y-43228700D01*
X129346716Y-43283027D01*
X129243435Y-43297292D01*
X129153078Y-43239726D01*
X129072765Y-43108139D01*
X128999614Y-42900341D01*
X128971942Y-42791897D01*
X128952003Y-42662437D01*
X128960995Y-42590738D01*
X128983169Y-42551167D01*
X128989649Y-42499277D01*
X128937701Y-42498411D01*
X128933330Y-42499775D01*
X128826072Y-42534237D01*
X128781219Y-42560274D01*
X127398985Y-42560274D01*
X127378529Y-42475245D01*
X127348282Y-42438292D01*
X127333812Y-42447732D01*
X127277930Y-42506145D01*
X127193710Y-42606085D01*
X127093041Y-42733788D01*
X127043434Y-42797460D01*
X126933800Y-42931261D01*
X126837932Y-43039607D01*
X126772219Y-43103610D01*
X126716582Y-43154457D01*
X126711724Y-43190505D01*
X126251535Y-43190505D01*
X126191363Y-43159938D01*
X125735662Y-42853778D01*
X125611549Y-42756444D01*
X125215385Y-42383975D01*
X124873466Y-41962614D01*
X124824486Y-41883054D01*
X125240563Y-41883054D01*
X125248515Y-41958143D01*
X125325691Y-42009676D01*
X125467581Y-42032111D01*
X125511038Y-42032323D01*
X125622139Y-42020957D01*
X125690755Y-41996480D01*
X125726900Y-41976520D01*
X125786938Y-42000265D01*
X125798965Y-42011663D01*
X125855396Y-42045376D01*
X125875444Y-42029457D01*
X125841404Y-41972823D01*
X125820083Y-41948094D01*
X125797325Y-41897339D01*
X125831377Y-41853513D01*
X125847625Y-41832712D01*
X125869189Y-41742434D01*
X125865291Y-41622697D01*
X125838724Y-41504535D01*
X125792281Y-41418983D01*
X125776058Y-41402639D01*
X125730481Y-41383019D01*
X125675153Y-41424509D01*
X125595414Y-41467268D01*
X125464659Y-41467738D01*
X125448602Y-41465629D01*
X125358939Y-41460941D01*
X125316724Y-41487692D01*
X125295708Y-41560257D01*
X125292542Y-41644455D01*
X125318165Y-41699705D01*
X125333782Y-41737436D01*
X125286785Y-41810063D01*
X125240563Y-41883054D01*
X124824486Y-41883054D01*
X124589164Y-41500809D01*
X124365849Y-41007005D01*
X124206894Y-40489651D01*
X124115670Y-39957194D01*
X124098379Y-39493933D01*
X124385520Y-39493933D01*
X124400110Y-39569872D01*
X124410689Y-39680409D01*
X124420378Y-39735101D01*
X124464387Y-39762424D01*
X124564574Y-39768740D01*
X124595960Y-39768404D01*
X124682643Y-39762966D01*
X124717453Y-39752989D01*
X124713881Y-39747316D01*
X124665977Y-39710348D01*
X124580050Y-39656167D01*
X124491404Y-39583114D01*
X124439175Y-39475996D01*
X124454524Y-39367728D01*
X124539280Y-39275394D01*
X124629013Y-39234218D01*
X124776937Y-39209163D01*
X124934708Y-39216614D01*
X125080743Y-39252880D01*
X125193460Y-39314272D01*
X125251275Y-39397101D01*
X125256542Y-39425954D01*
X125242407Y-39529250D01*
X125186882Y-39608318D01*
X125108559Y-39651401D01*
X125026033Y-39646744D01*
X124957897Y-39582591D01*
X124930473Y-39547107D01*
X124894602Y-39539247D01*
X124889150Y-39549469D01*
X124879689Y-39620339D01*
X124881843Y-39727776D01*
X124885295Y-39765112D01*
X124904171Y-39847495D01*
X124933373Y-39852260D01*
X124942291Y-39845445D01*
X125017654Y-39818169D01*
X125126624Y-39800807D01*
X125127073Y-39800771D01*
X125209031Y-39790316D01*
X125260404Y-39764583D01*
X125289235Y-39707765D01*
X125303570Y-39604057D01*
X125311451Y-39437654D01*
X125310723Y-39403521D01*
X125513171Y-39403521D01*
X125514086Y-39437654D01*
X125525783Y-39874032D01*
X125612278Y-40319025D01*
X125771746Y-40736109D01*
X126003275Y-41122889D01*
X126305956Y-41476974D01*
X126454328Y-41617729D01*
X126762143Y-41860650D01*
X127056201Y-42029457D01*
X127085571Y-42046317D01*
X127445892Y-42188004D01*
X127476701Y-42197457D01*
X127698880Y-42248140D01*
X127961364Y-42285776D01*
X128235303Y-42307894D01*
X128491848Y-42312020D01*
X128702152Y-42295682D01*
X128724774Y-42292076D01*
X129138498Y-42185944D01*
X129480481Y-42035828D01*
X130664954Y-42035828D01*
X130693184Y-42043063D01*
X130753687Y-42000265D01*
X130784873Y-41978811D01*
X130849870Y-41994741D01*
X130867080Y-42005364D01*
X130961103Y-42030906D01*
X131081851Y-42038379D01*
X131195013Y-42027512D01*
X131266275Y-41998033D01*
X131297668Y-41958900D01*
X131304880Y-41888439D01*
X131245676Y-41801042D01*
X131209533Y-41746024D01*
X131216720Y-41699805D01*
X131243015Y-41656284D01*
X131259841Y-41568610D01*
X131259802Y-41531398D01*
X131233767Y-41473133D01*
X131152311Y-41447955D01*
X131064993Y-41447307D01*
X131000597Y-41470697D01*
X130959498Y-41483737D01*
X130880683Y-41436943D01*
X130845625Y-41407217D01*
X130793765Y-41386730D01*
X130745290Y-41420205D01*
X130726868Y-41446128D01*
X130693900Y-41544975D01*
X130679432Y-41668220D01*
X130685741Y-41782958D01*
X130715105Y-41856284D01*
X130717223Y-41858437D01*
X130738698Y-41909429D01*
X130697695Y-41974510D01*
X130687132Y-41986900D01*
X130664954Y-42035828D01*
X129480481Y-42035828D01*
X129538432Y-42010390D01*
X129912803Y-41774031D01*
X130249839Y-41485481D01*
X130537764Y-41153356D01*
X130764808Y-40786271D01*
X130820959Y-40667692D01*
X130967695Y-40242741D01*
X131000810Y-40046859D01*
X131215614Y-40046859D01*
X131220967Y-40082805D01*
X131243386Y-40074125D01*
X131306568Y-40038338D01*
X131308127Y-40037397D01*
X131384212Y-40017125D01*
X131504860Y-40009949D01*
X131649560Y-40014023D01*
X131797805Y-40027505D01*
X131929086Y-40048551D01*
X132022894Y-40075316D01*
X132058721Y-40105958D01*
X132062045Y-40129702D01*
X132092915Y-40161321D01*
X132097286Y-40157448D01*
X132113338Y-40101197D01*
X132131222Y-39994323D01*
X132148703Y-39857864D01*
X132163546Y-39712856D01*
X132173514Y-39580338D01*
X132176374Y-39481346D01*
X132169889Y-39436919D01*
X132165340Y-39434569D01*
X132107683Y-39419013D01*
X132009648Y-39399217D01*
X131938631Y-39391235D01*
X131871300Y-39403746D01*
X131869702Y-39440621D01*
X131940047Y-39493452D01*
X132008999Y-39545988D01*
X132076696Y-39661853D01*
X132080940Y-39792025D01*
X132067693Y-39831104D01*
X132020251Y-39875324D01*
X131922886Y-39886514D01*
X131889075Y-39885571D01*
X131788862Y-39862122D01*
X131757995Y-39810176D01*
X131799697Y-39733731D01*
X131835214Y-39691484D01*
X131855656Y-39641191D01*
X131812812Y-39617585D01*
X131699313Y-39611707D01*
X131642893Y-39611978D01*
X131574676Y-39618083D01*
X131566535Y-39640229D01*
X131605929Y-39688761D01*
X131645929Y-39742376D01*
X131657399Y-39812155D01*
X131599207Y-39850730D01*
X131474287Y-39854408D01*
X131434704Y-39850355D01*
X131352195Y-39832888D01*
X131318963Y-39793458D01*
X131312816Y-39712572D01*
X131324072Y-39642703D01*
X131377475Y-39534133D01*
X131456610Y-39449521D01*
X131541081Y-39415417D01*
X131556877Y-39413075D01*
X131587623Y-39376159D01*
X131584039Y-39367762D01*
X131530438Y-39345734D01*
X131432996Y-39336901D01*
X131373690Y-39337603D01*
X131337155Y-39344919D01*
X131305548Y-39351248D01*
X131274554Y-39399368D01*
X131257840Y-39503748D01*
X131241083Y-39654594D01*
X131226842Y-39814388D01*
X131217962Y-39951265D01*
X131215614Y-40046859D01*
X131000810Y-40046859D01*
X131042831Y-39798298D01*
X131046049Y-39344919D01*
X130977028Y-38893165D01*
X130835449Y-38453593D01*
X130812360Y-38408729D01*
X131049227Y-38408729D01*
X131065065Y-38423232D01*
X131141790Y-38462386D01*
X131266515Y-38513370D01*
X131422241Y-38568885D01*
X131517780Y-38601823D01*
X131653977Y-38652901D01*
X131747768Y-38693576D01*
X131782935Y-38717181D01*
X131751506Y-38740600D01*
X131663475Y-38777598D01*
X131538551Y-38819298D01*
X131405584Y-38857204D01*
X131321355Y-38871892D01*
X131267433Y-38863064D01*
X131221542Y-38831583D01*
X131176047Y-38796230D01*
X131162343Y-38809015D01*
X131177897Y-38886498D01*
X131202151Y-38976345D01*
X131222416Y-39032650D01*
X131238219Y-39050665D01*
X131286552Y-39058855D01*
X131312816Y-39021994D01*
X131313907Y-39013235D01*
X131339832Y-38980906D01*
X131408654Y-38944891D01*
X131531512Y-38900262D01*
X131719546Y-38842095D01*
X131858197Y-38806244D01*
X131955383Y-38797444D01*
X132019564Y-38817497D01*
X132031756Y-38824787D01*
X132097014Y-38844020D01*
X132114169Y-38804714D01*
X132080137Y-38712228D01*
X132041008Y-38657774D01*
X131948888Y-38594682D01*
X131797082Y-38538018D01*
X131695699Y-38505844D01*
X131553848Y-38457119D01*
X131450220Y-38417185D01*
X131332446Y-38366199D01*
X131565454Y-38297036D01*
X131608292Y-38284596D01*
X131733756Y-38254908D01*
X131815174Y-38252533D01*
X131875388Y-38275913D01*
X131875797Y-38276169D01*
X131926090Y-38301726D01*
X131939986Y-38279562D01*
X131926592Y-38195346D01*
X131913015Y-38131716D01*
X131888243Y-38062942D01*
X131853896Y-38057745D01*
X131796264Y-38106813D01*
X131776011Y-38122330D01*
X131681727Y-38169858D01*
X131542248Y-38223312D01*
X131379741Y-38273807D01*
X131300826Y-38296794D01*
X131167618Y-38342073D01*
X131078380Y-38381577D01*
X131049227Y-38408729D01*
X130812360Y-38408729D01*
X130658354Y-38109480D01*
X130403389Y-37762183D01*
X130124884Y-37482146D01*
X130510851Y-37482146D01*
X130517840Y-37517469D01*
X130543827Y-37539273D01*
X130566912Y-37610626D01*
X130567081Y-37615319D01*
X130595097Y-37696459D01*
X130656538Y-37787878D01*
X130695250Y-37826324D01*
X130834397Y-37899715D01*
X130994995Y-37915492D01*
X131157400Y-37877190D01*
X131301968Y-37788344D01*
X131409056Y-37652487D01*
X131439593Y-37585804D01*
X131470820Y-37428074D01*
X131430469Y-37281651D01*
X131316005Y-37132369D01*
X131311410Y-37127682D01*
X131224030Y-37041772D01*
X131167997Y-37004098D01*
X131121026Y-37006751D01*
X131060827Y-37041822D01*
X131009387Y-37078777D01*
X130964737Y-37131649D01*
X130992723Y-37156785D01*
X131092477Y-37151188D01*
X131112587Y-37148245D01*
X131221558Y-37153863D01*
X131308397Y-37212543D01*
X131322393Y-37227159D01*
X131382418Y-37330637D01*
X131371346Y-37440490D01*
X131288511Y-37568683D01*
X131234982Y-37626653D01*
X131091120Y-37737693D01*
X130945966Y-37795398D01*
X130814175Y-37795578D01*
X130710400Y-37734041D01*
X130664863Y-37669444D01*
X130653776Y-37570747D01*
X130720679Y-37475096D01*
X130727942Y-37468647D01*
X130800155Y-37429068D01*
X130877711Y-37450763D01*
X130930793Y-37472334D01*
X130959493Y-37466136D01*
X130953853Y-37441707D01*
X130912204Y-37365929D01*
X130847367Y-37279168D01*
X130780170Y-37207743D01*
X130731442Y-37177973D01*
X130710422Y-37183012D01*
X130707986Y-37222902D01*
X130711293Y-37237599D01*
X130681004Y-37300970D01*
X130602343Y-37382733D01*
X130569212Y-37412492D01*
X130510851Y-37482146D01*
X130124884Y-37482146D01*
X130094169Y-37451262D01*
X129742329Y-37186733D01*
X129480341Y-37044304D01*
X129941474Y-37044304D01*
X129968834Y-37095133D01*
X130054967Y-37170322D01*
X130075035Y-37184899D01*
X130175633Y-37244894D01*
X130226088Y-37245418D01*
X130227278Y-37186551D01*
X130229225Y-37150355D01*
X130269545Y-37056126D01*
X130344157Y-36937391D01*
X130438576Y-36812664D01*
X130538316Y-36700460D01*
X130628892Y-36619295D01*
X130695817Y-36587682D01*
X130721900Y-36586777D01*
X130750894Y-36575914D01*
X130730086Y-36541583D01*
X130654624Y-36469907D01*
X130611862Y-36432282D01*
X130519887Y-36366469D01*
X130474245Y-36363799D01*
X130475061Y-36424303D01*
X130464276Y-36482839D01*
X130412807Y-36582337D01*
X130333103Y-36701779D01*
X130238794Y-36823654D01*
X130143510Y-36930451D01*
X130060883Y-37004658D01*
X130004543Y-37028765D01*
X129975731Y-37025818D01*
X129941474Y-37044304D01*
X129480341Y-37044304D01*
X129359504Y-36978611D01*
X128957330Y-36836912D01*
X128906889Y-36825009D01*
X128659604Y-36787861D01*
X128375387Y-36771178D01*
X128082453Y-36774842D01*
X127809017Y-36798732D01*
X127583296Y-36842729D01*
X127381987Y-36910861D01*
X127270480Y-36948600D01*
X126852758Y-37154720D01*
X126483272Y-37417722D01*
X126337782Y-37562114D01*
X126166428Y-37732174D01*
X125906631Y-38092641D01*
X125903501Y-38098970D01*
X125708286Y-38493688D01*
X125575799Y-38929882D01*
X125513575Y-39395788D01*
X125513171Y-39403521D01*
X125310723Y-39403521D01*
X125309792Y-39359868D01*
X125278360Y-39265321D01*
X125195640Y-39174766D01*
X125037984Y-39073171D01*
X124854681Y-39036213D01*
X124665772Y-39076182D01*
X124564498Y-39135611D01*
X124457121Y-39246244D01*
X124392403Y-39373224D01*
X124385520Y-39493933D01*
X124098379Y-39493933D01*
X124095548Y-39418082D01*
X124149901Y-38880760D01*
X124222223Y-38536902D01*
X124241099Y-38477497D01*
X124538280Y-38477497D01*
X124555087Y-38513350D01*
X124603538Y-38485067D01*
X124622393Y-38476142D01*
X124696721Y-38482359D01*
X124826392Y-38521569D01*
X125018432Y-38595644D01*
X125131646Y-38641575D01*
X125269536Y-38696529D01*
X125366940Y-38734107D01*
X125407808Y-38748029D01*
X125410742Y-38747885D01*
X125424593Y-38722707D01*
X125397288Y-38650775D01*
X125326362Y-38527103D01*
X125209351Y-38346709D01*
X125150288Y-38256708D01*
X125074074Y-38133799D01*
X125025321Y-38045956D01*
X125012607Y-38007950D01*
X125051324Y-38011100D01*
X125143127Y-38038216D01*
X125266613Y-38083687D01*
X125373380Y-38130212D01*
X125471371Y-38191323D01*
X125502616Y-38246808D01*
X125503090Y-38261715D01*
X125523307Y-38311642D01*
X125564409Y-38295342D01*
X125614088Y-38216197D01*
X125622218Y-38198016D01*
X125655748Y-38098970D01*
X125641931Y-38055863D01*
X125579171Y-38061634D01*
X125560122Y-38065399D01*
X125459430Y-38057293D01*
X125323496Y-38022481D01*
X125174717Y-37969624D01*
X125035489Y-37907385D01*
X124928210Y-37844426D01*
X124875274Y-37789408D01*
X124853415Y-37740160D01*
X124831556Y-37742543D01*
X124795899Y-37811847D01*
X124778689Y-37856634D01*
X124775964Y-37909714D01*
X124799475Y-37976529D01*
X124855610Y-38073853D01*
X124950757Y-38218461D01*
X124999380Y-38292041D01*
X125075352Y-38413067D01*
X125124416Y-38499827D01*
X125137687Y-38537172D01*
X125105972Y-38535243D01*
X125019253Y-38510916D01*
X124899814Y-38468618D01*
X124790320Y-38421916D01*
X124704522Y-38366018D01*
X124678195Y-38310741D01*
X124674485Y-38270662D01*
X124648440Y-38239547D01*
X124607618Y-38271731D01*
X124564084Y-38361814D01*
X124555968Y-38386414D01*
X124538280Y-38477497D01*
X124241099Y-38477497D01*
X124396736Y-37987689D01*
X124636513Y-37481932D01*
X124765544Y-37286331D01*
X125119274Y-37286331D01*
X125125312Y-37322850D01*
X125190129Y-37314607D01*
X125196299Y-37313264D01*
X125267948Y-37330422D01*
X125372473Y-37386333D01*
X125493096Y-37467937D01*
X125613038Y-37562174D01*
X125715521Y-37655985D01*
X125783766Y-37736309D01*
X125800994Y-37790087D01*
X125791838Y-37835520D01*
X125817595Y-37841302D01*
X125873787Y-37797595D01*
X125949424Y-37710308D01*
X126012801Y-37623796D01*
X126045623Y-37562114D01*
X126028469Y-37541583D01*
X125962150Y-37552140D01*
X125928127Y-37552284D01*
X125829482Y-37516652D01*
X125706093Y-37444997D01*
X125576905Y-37351646D01*
X125460862Y-37250924D01*
X125376908Y-37157158D01*
X125343988Y-37084674D01*
X125343137Y-37065069D01*
X125331587Y-37036454D01*
X125296796Y-37058561D01*
X125226213Y-37136963D01*
X125172488Y-37202725D01*
X125119274Y-37286331D01*
X124765544Y-37286331D01*
X124941809Y-37019128D01*
X125208581Y-36716926D01*
X125748999Y-36716926D01*
X125779926Y-36809430D01*
X125780764Y-36810990D01*
X125834687Y-36880249D01*
X125913447Y-36909264D01*
X126042415Y-36907517D01*
X126045513Y-36907266D01*
X126112797Y-36921122D01*
X126131281Y-36989742D01*
X126135446Y-37053263D01*
X126155489Y-37167890D01*
X126156141Y-37170349D01*
X126159008Y-37237617D01*
X126110888Y-37256221D01*
X126102880Y-37256301D01*
X126064667Y-37268814D01*
X126091487Y-37315108D01*
X126113036Y-37337827D01*
X126195526Y-37371434D01*
X126279926Y-37326885D01*
X126308476Y-37286839D01*
X126321617Y-37171764D01*
X126268427Y-37021209D01*
X126231512Y-36912137D01*
X126240033Y-36824041D01*
X126286731Y-36779611D01*
X126358435Y-36790458D01*
X126441973Y-36868197D01*
X126495812Y-36965590D01*
X126503256Y-37061321D01*
X126494003Y-37100646D01*
X126509476Y-37133925D01*
X126571421Y-37107945D01*
X126681842Y-37022267D01*
X126716614Y-36992218D01*
X126774505Y-36935874D01*
X126778175Y-36910861D01*
X126733148Y-36904493D01*
X126690692Y-36889658D01*
X126605673Y-36821508D01*
X126508085Y-36714851D01*
X126411718Y-36588319D01*
X126330359Y-36460542D01*
X126277800Y-36350152D01*
X126267828Y-36275779D01*
X126279001Y-36232187D01*
X126271697Y-36204434D01*
X126230285Y-36217185D01*
X126146163Y-36273855D01*
X126010731Y-36377859D01*
X125970032Y-36410338D01*
X125837404Y-36529811D01*
X125765943Y-36627863D01*
X125748999Y-36716926D01*
X125208581Y-36716926D01*
X125312882Y-36598772D01*
X125527379Y-36398471D01*
X125976651Y-36050011D01*
X126122143Y-35965484D01*
X126787769Y-35965484D01*
X126788556Y-36033793D01*
X126810412Y-36123713D01*
X126843447Y-36202024D01*
X126877772Y-36235510D01*
X126902496Y-36212624D01*
X126915908Y-36140214D01*
X126929536Y-36084391D01*
X126993408Y-35990646D01*
X127084563Y-35913949D01*
X127174998Y-35882187D01*
X127178663Y-35882321D01*
X127240073Y-35920583D01*
X127288706Y-36007545D01*
X127308489Y-36115154D01*
X127302341Y-36146280D01*
X127254192Y-36191316D01*
X127188125Y-36193924D01*
X127140473Y-36147179D01*
X127130073Y-36128656D01*
X127094031Y-36124919D01*
X127089132Y-36133622D01*
X127089678Y-36200121D01*
X127114152Y-36300316D01*
X127130446Y-36349062D01*
X127157655Y-36412335D01*
X127182702Y-36413634D01*
X127220998Y-36361833D01*
X127272002Y-36304563D01*
X127331061Y-36274768D01*
X127358325Y-36286697D01*
X127401088Y-36352333D01*
X127430924Y-36449119D01*
X127439949Y-36546937D01*
X127420282Y-36615669D01*
X127375698Y-36648073D01*
X127269602Y-36666188D01*
X127149431Y-36643283D01*
X127046182Y-36582135D01*
X126989813Y-36535570D01*
X126940197Y-36520930D01*
X126933308Y-36570581D01*
X126970492Y-36682735D01*
X126982884Y-36711754D01*
X127020527Y-36791480D01*
X127041493Y-36822634D01*
X127065199Y-36815850D01*
X127147644Y-36789590D01*
X127268028Y-36750220D01*
X127404956Y-36704843D01*
X127537035Y-36660560D01*
X127546702Y-36657264D01*
X129035846Y-36657264D01*
X129044788Y-36669812D01*
X129107342Y-36653613D01*
X129229400Y-36586890D01*
X129410694Y-36469779D01*
X129450192Y-36443139D01*
X129609234Y-36337595D01*
X129712073Y-36276883D01*
X129766000Y-36261610D01*
X129778305Y-36292383D01*
X129756276Y-36369811D01*
X129707205Y-36494502D01*
X129650548Y-36619613D01*
X129581752Y-36733954D01*
X129523978Y-36787567D01*
X129483937Y-36805735D01*
X129487393Y-36827100D01*
X129558572Y-36859316D01*
X129595356Y-36873354D01*
X129690148Y-36899398D01*
X129729372Y-36883856D01*
X129722944Y-36824637D01*
X129719018Y-36790680D01*
X129733760Y-36686627D01*
X129771443Y-36551202D01*
X129823880Y-36405964D01*
X129882886Y-36272473D01*
X129940273Y-36172289D01*
X129987855Y-36126972D01*
X129988373Y-36126833D01*
X130049828Y-36094283D01*
X130037085Y-36056274D01*
X129953106Y-36021766D01*
X129891206Y-36017239D01*
X129814077Y-36039890D01*
X129708060Y-36097500D01*
X129557024Y-36197214D01*
X129490747Y-36242072D01*
X129370996Y-36318783D01*
X129284603Y-36368159D01*
X129246884Y-36381118D01*
X129247940Y-36349280D01*
X129270987Y-36262200D01*
X129312093Y-36142527D01*
X129321630Y-36117404D01*
X129374741Y-35998367D01*
X129423334Y-35938133D01*
X129478918Y-35921445D01*
X129504986Y-35920967D01*
X129539142Y-35908465D01*
X129505541Y-35866771D01*
X129455571Y-35830112D01*
X129358191Y-35785122D01*
X129321997Y-35775572D01*
X129283525Y-35784472D01*
X129290998Y-35849611D01*
X129291966Y-35854180D01*
X129285237Y-35947625D01*
X129245163Y-36098115D01*
X129174757Y-36294127D01*
X129137838Y-36388324D01*
X129085337Y-36523778D01*
X129081090Y-36534970D01*
X129064634Y-36578342D01*
X129049259Y-36618864D01*
X129035846Y-36657264D01*
X127546702Y-36657264D01*
X127642871Y-36624474D01*
X127701070Y-36603685D01*
X127708954Y-36600462D01*
X127734121Y-36578342D01*
X127686921Y-36553141D01*
X127677180Y-36547889D01*
X127625414Y-36482698D01*
X127581515Y-36392542D01*
X127975877Y-36392542D01*
X127975976Y-36416223D01*
X127983621Y-36505326D01*
X128014451Y-36542795D01*
X128083837Y-36551216D01*
X128165189Y-36554250D01*
X128302621Y-36561916D01*
X128456789Y-36572298D01*
X128602997Y-36576789D01*
X128699596Y-36564195D01*
X128727557Y-36534970D01*
X128682523Y-36490687D01*
X128674514Y-36478395D01*
X128658508Y-36402510D01*
X128647414Y-36275857D01*
X128643265Y-36117735D01*
X128644091Y-36046093D01*
X128651521Y-35899332D01*
X128665009Y-35792462D01*
X128682523Y-35744783D01*
X128690893Y-35739398D01*
X128723774Y-35698404D01*
X128681581Y-35669462D01*
X128563435Y-35652298D01*
X128368458Y-35646638D01*
X128015135Y-35646638D01*
X128015135Y-35812419D01*
X128015135Y-35978201D01*
X128130696Y-35851678D01*
X128238613Y-35760710D01*
X128347848Y-35725154D01*
X128363329Y-35725526D01*
X128443380Y-35751235D01*
X128479815Y-35825777D01*
X128479184Y-35960908D01*
X128466603Y-36086362D01*
X128362732Y-36004270D01*
X128258861Y-35922178D01*
X128243920Y-36078844D01*
X128238213Y-36149516D01*
X128243125Y-36217328D01*
X128275794Y-36222718D01*
X128346518Y-36175374D01*
X128405594Y-36135759D01*
X128457956Y-36127038D01*
X128479808Y-36180776D01*
X128478569Y-36304211D01*
X128471773Y-36392482D01*
X128454954Y-36460254D01*
X128415107Y-36484280D01*
X128336429Y-36484618D01*
X128295252Y-36479980D01*
X128177931Y-36438421D01*
X128089400Y-36368794D01*
X128054393Y-36288312D01*
X128050980Y-36266840D01*
X128015135Y-36235510D01*
X128006335Y-36239514D01*
X127984584Y-36294208D01*
X127975877Y-36392542D01*
X127581515Y-36392542D01*
X127568955Y-36366748D01*
X127515192Y-36221928D01*
X127471510Y-36070123D01*
X127445295Y-35933223D01*
X127443933Y-35833114D01*
X127453695Y-35758461D01*
X127449922Y-35725154D01*
X127414783Y-35732696D01*
X127322311Y-35760624D01*
X127196638Y-35802109D01*
X127059355Y-35849639D01*
X126932056Y-35895704D01*
X126836332Y-35932793D01*
X126793774Y-35953395D01*
X126787769Y-35965484D01*
X126122143Y-35965484D01*
X126452439Y-35773590D01*
X126960047Y-35566369D01*
X127504779Y-35425510D01*
X127602092Y-35409599D01*
X127857047Y-35384105D01*
X128149463Y-35371195D01*
X128451888Y-35371147D01*
X128736871Y-35384235D01*
X128976959Y-35410735D01*
X129465991Y-35521392D01*
X129975213Y-35710123D01*
X130453014Y-35964743D01*
X130634118Y-36094283D01*
X130893982Y-36280159D01*
G37*
G36*
X127336014Y-42744581D02*
G01*
X127347747Y-42845058D01*
X127343061Y-42926951D01*
X127316197Y-42962619D01*
X127249602Y-42958256D01*
X127216201Y-42951647D01*
X127163334Y-42931900D01*
X127164657Y-42892199D01*
X127214859Y-42809863D01*
X127243944Y-42768856D01*
X127301214Y-42719128D01*
X127336014Y-42744581D01*
G37*
G36*
X128481098Y-42928241D02*
G01*
X128518455Y-42996849D01*
X128511294Y-43086051D01*
X128494494Y-43113249D01*
X128432777Y-43144938D01*
X128404379Y-43138237D01*
X128354261Y-43086051D01*
X128344133Y-43018971D01*
X128371445Y-42942074D01*
X128432777Y-42909389D01*
X128481098Y-42928241D01*
G37*
G36*
X130357949Y-37873623D02*
G01*
X130600617Y-38235121D01*
X130777660Y-38635438D01*
X130882703Y-39056204D01*
X130886082Y-39069739D01*
X130922888Y-39533191D01*
X130903832Y-39889707D01*
X130821782Y-40310385D01*
X130671898Y-40697210D01*
X130628158Y-40768660D01*
X130568323Y-40866402D01*
X130490906Y-40992865D01*
X130450844Y-41058308D01*
X130295394Y-41238968D01*
X130155281Y-41401804D01*
X130142583Y-41413242D01*
X129999113Y-41542478D01*
X129869883Y-41658887D01*
X129769730Y-41725840D01*
X129523013Y-41890772D01*
X129147713Y-42057134D01*
X128731070Y-42164892D01*
X128626540Y-42178239D01*
X128417670Y-42187101D01*
X128177666Y-42182533D01*
X127933848Y-42165969D01*
X127713533Y-42138842D01*
X127544037Y-42102587D01*
X127349099Y-42036278D01*
X126944929Y-41841931D01*
X126857727Y-41780522D01*
X128511806Y-41780522D01*
X128514678Y-41783802D01*
X128571110Y-41802522D01*
X128667941Y-41810162D01*
X128746158Y-41806216D01*
X128790616Y-41782692D01*
X128793213Y-41725840D01*
X128774698Y-41671268D01*
X128714788Y-41600232D01*
X128693682Y-41589031D01*
X128637083Y-41591355D01*
X128571198Y-41654914D01*
X128568636Y-41658106D01*
X128521054Y-41732768D01*
X128511806Y-41780522D01*
X126857727Y-41780522D01*
X126713340Y-41678843D01*
X127465521Y-41678843D01*
X127474085Y-41698003D01*
X127533195Y-41724138D01*
X127621993Y-41731933D01*
X127708917Y-41720369D01*
X127754257Y-41693293D01*
X127936619Y-41693293D01*
X127937245Y-41707874D01*
X127965578Y-41757328D01*
X128049937Y-41770904D01*
X128100918Y-41767948D01*
X128156426Y-41736705D01*
X128180795Y-41651401D01*
X128180940Y-41650404D01*
X128183019Y-41560363D01*
X128179537Y-41551305D01*
X128343767Y-41551305D01*
X128344218Y-41560363D01*
X128346715Y-41610451D01*
X128358307Y-41626654D01*
X128415601Y-41649185D01*
X128485847Y-41594707D01*
X128486728Y-41593641D01*
X128511900Y-41542478D01*
X128468386Y-41510978D01*
X128465500Y-41509916D01*
X128392334Y-41510458D01*
X128343767Y-41551305D01*
X128179537Y-41551305D01*
X128163895Y-41510614D01*
X128106316Y-41511569D01*
X128030169Y-41556275D01*
X127964538Y-41624136D01*
X127938583Y-41688428D01*
X127936619Y-41693293D01*
X127754257Y-41693293D01*
X127762404Y-41688428D01*
X127757546Y-41634610D01*
X127707220Y-41563315D01*
X127650552Y-41511929D01*
X127605880Y-41506425D01*
X127545423Y-41553730D01*
X127492437Y-41615045D01*
X127465521Y-41678843D01*
X126713340Y-41678843D01*
X126584665Y-41588228D01*
X126436176Y-41442017D01*
X127269231Y-41442017D01*
X127276461Y-41467651D01*
X127329350Y-41496097D01*
X127378826Y-41478477D01*
X127415495Y-41418741D01*
X128784365Y-41418741D01*
X128805769Y-41483061D01*
X128831515Y-41508580D01*
X128884852Y-41535355D01*
X128890327Y-41535057D01*
X128934289Y-41499129D01*
X128944324Y-41427462D01*
X128914714Y-41354649D01*
X128896530Y-41333797D01*
X128857368Y-41315067D01*
X128812842Y-41361742D01*
X128784365Y-41418741D01*
X127415495Y-41418741D01*
X127417979Y-41414694D01*
X127406618Y-41339038D01*
X127392822Y-41325520D01*
X127342172Y-41329768D01*
X127291969Y-41375350D01*
X127269231Y-41442017D01*
X126436176Y-41442017D01*
X126273727Y-41282061D01*
X126251902Y-41252096D01*
X126848166Y-41252096D01*
X126875269Y-41317772D01*
X126902611Y-41343592D01*
X126977374Y-41374877D01*
X127044083Y-41366423D01*
X127072940Y-41318170D01*
X127063193Y-41286864D01*
X127030491Y-41258142D01*
X127588471Y-41258142D01*
X127619028Y-41315187D01*
X127621897Y-41318170D01*
X127654064Y-41351615D01*
X127696062Y-41377074D01*
X127704093Y-41375867D01*
X127766643Y-41341488D01*
X127806243Y-41304613D01*
X127975877Y-41304613D01*
X127976343Y-41326737D01*
X127995986Y-41398109D01*
X128045733Y-41414694D01*
X128054393Y-41417581D01*
X128085513Y-41414335D01*
X128123135Y-41378648D01*
X128132909Y-41286720D01*
X128132864Y-41278888D01*
X128126566Y-41204465D01*
X128289942Y-41204465D01*
X128289981Y-41209851D01*
X128309764Y-41280349D01*
X128333662Y-41286720D01*
X128378272Y-41298613D01*
X128388543Y-41298330D01*
X128508552Y-41269290D01*
X128532128Y-41249026D01*
X129092414Y-41249026D01*
X129107448Y-41378086D01*
X129126570Y-41427462D01*
X129147292Y-41480971D01*
X129204254Y-41528182D01*
X129215189Y-41529631D01*
X129262801Y-41502225D01*
X129267284Y-41413242D01*
X129228296Y-41266406D01*
X129214951Y-41238078D01*
X129330167Y-41238078D01*
X129352673Y-41304968D01*
X129398649Y-41350201D01*
X129489693Y-41372765D01*
X129589566Y-41358216D01*
X129670127Y-41311851D01*
X129703234Y-41238968D01*
X129698831Y-41219932D01*
X129648607Y-41190864D01*
X129533115Y-41182032D01*
X129449544Y-41184047D01*
X129359041Y-41200099D01*
X129330167Y-41238078D01*
X129214951Y-41238078D01*
X129185995Y-41176614D01*
X129140429Y-41140212D01*
X129106321Y-41167042D01*
X129092414Y-41249026D01*
X128532128Y-41249026D01*
X128583894Y-41204531D01*
X128603649Y-41120302D01*
X128599922Y-41113330D01*
X128683829Y-41113330D01*
X128688054Y-41120287D01*
X128688106Y-41120302D01*
X128743280Y-41136355D01*
X128842286Y-41142774D01*
X128853430Y-41142751D01*
X128949287Y-41136759D01*
X128988110Y-41112403D01*
X128989504Y-41058452D01*
X128970988Y-41003880D01*
X128928073Y-40952994D01*
X129201395Y-40952994D01*
X129230788Y-40987781D01*
X129308286Y-41018488D01*
X129367922Y-41017296D01*
X129373141Y-41001691D01*
X129717801Y-41001691D01*
X129720630Y-41058452D01*
X129720749Y-41060837D01*
X129732341Y-41077040D01*
X129789635Y-41099571D01*
X129859881Y-41045093D01*
X129860762Y-41044028D01*
X129885934Y-40992865D01*
X129842420Y-40961364D01*
X129839534Y-40960302D01*
X129766368Y-40960845D01*
X129744508Y-40979230D01*
X129717801Y-41001691D01*
X129373141Y-41001691D01*
X129380652Y-40979230D01*
X129351259Y-40944444D01*
X129273761Y-40913736D01*
X129214125Y-40914929D01*
X129201395Y-40952994D01*
X128928073Y-40952994D01*
X128911079Y-40932844D01*
X128889504Y-40921474D01*
X128832510Y-40924175D01*
X128783327Y-40970586D01*
X128765167Y-40987722D01*
X128763153Y-40990151D01*
X128707588Y-41065329D01*
X128683829Y-41113330D01*
X128599922Y-41113330D01*
X128556897Y-41032851D01*
X128551208Y-41027432D01*
X128467060Y-40992591D01*
X128382063Y-41019099D01*
X128316323Y-41094031D01*
X128289942Y-41204465D01*
X128126566Y-41204465D01*
X128124804Y-41183647D01*
X128107078Y-41130028D01*
X128083698Y-41118391D01*
X128034504Y-41143318D01*
X127993210Y-41212515D01*
X127989664Y-41231355D01*
X127975877Y-41304613D01*
X127806243Y-41304613D01*
X127829485Y-41282971D01*
X127858102Y-41231355D01*
X127851516Y-41209035D01*
X127797040Y-41175852D01*
X127714219Y-41171905D01*
X127635675Y-41201565D01*
X127623252Y-41210946D01*
X127588471Y-41258142D01*
X127030491Y-41258142D01*
X127004580Y-41235385D01*
X126924690Y-41208834D01*
X126860647Y-41223728D01*
X126848166Y-41252096D01*
X126251902Y-41252096D01*
X126122237Y-41074072D01*
X127080414Y-41074072D01*
X127082327Y-41114552D01*
X127131827Y-41142774D01*
X127164811Y-41134193D01*
X127183778Y-41081813D01*
X127158112Y-41028315D01*
X127121862Y-41020619D01*
X127328714Y-41020619D01*
X127367656Y-41078559D01*
X127371390Y-41081813D01*
X127412878Y-41117972D01*
X127458511Y-41142195D01*
X127481003Y-41139237D01*
X127569375Y-41100317D01*
X127652048Y-41035860D01*
X127694570Y-40970871D01*
X127696808Y-40957393D01*
X127689771Y-40921733D01*
X127642948Y-40913273D01*
X127537885Y-40926825D01*
X127441895Y-40945290D01*
X127420483Y-40953048D01*
X127351314Y-40978109D01*
X127328714Y-41020619D01*
X127121862Y-41020619D01*
X127113134Y-41018766D01*
X127080414Y-41074072D01*
X126122237Y-41074072D01*
X126017535Y-40930322D01*
X125976448Y-40848491D01*
X126332964Y-40848491D01*
X126364140Y-40905994D01*
X126431262Y-40950569D01*
X126502934Y-40960216D01*
X126549310Y-40924452D01*
X126549487Y-40923976D01*
X126719617Y-40923976D01*
X126733918Y-40960802D01*
X126801405Y-40985741D01*
X126824889Y-40983574D01*
X126865126Y-40953048D01*
X126850505Y-40907687D01*
X126815027Y-40889913D01*
X127779586Y-40889913D01*
X127783180Y-40914788D01*
X127814644Y-40946483D01*
X127849562Y-40925904D01*
X127862224Y-40899149D01*
X128138306Y-40899149D01*
X128145579Y-40957393D01*
X128146456Y-40964419D01*
X128160664Y-40991440D01*
X128214682Y-41023852D01*
X128267563Y-40990190D01*
X128270935Y-40970586D01*
X128242320Y-40919769D01*
X128190521Y-40880217D01*
X128146740Y-40880309D01*
X128138306Y-40899149D01*
X127862224Y-40899149D01*
X127877721Y-40866402D01*
X127869551Y-40813985D01*
X127845721Y-40802484D01*
X127800843Y-40826558D01*
X127788244Y-40864107D01*
X127779586Y-40889913D01*
X126815027Y-40889913D01*
X126785066Y-40874903D01*
X126749051Y-40876807D01*
X126719617Y-40923976D01*
X126549487Y-40923976D01*
X126553901Y-40912116D01*
X126561040Y-40864107D01*
X126525852Y-40834809D01*
X126431029Y-40807040D01*
X126382060Y-40796451D01*
X126335281Y-40802207D01*
X126332964Y-40848491D01*
X125976448Y-40848491D01*
X125922367Y-40740779D01*
X127197799Y-40740779D01*
X127200628Y-40784818D01*
X127243985Y-40827031D01*
X127315133Y-40822149D01*
X127389488Y-40766830D01*
X127393003Y-40762551D01*
X127396833Y-40755000D01*
X128721781Y-40755000D01*
X128725777Y-40762714D01*
X128780465Y-40781807D01*
X128878813Y-40789451D01*
X128884470Y-40789418D01*
X128904410Y-40786179D01*
X130193960Y-40786179D01*
X130204619Y-40829492D01*
X130255187Y-40855803D01*
X130323021Y-40821348D01*
X130363108Y-40768660D01*
X130356184Y-40724442D01*
X130282291Y-40718019D01*
X130239768Y-40733453D01*
X130227378Y-40737950D01*
X130193960Y-40786179D01*
X128904410Y-40786179D01*
X128990092Y-40772261D01*
X129038055Y-40733453D01*
X129022405Y-40687376D01*
X128937191Y-40648412D01*
X128934459Y-40647750D01*
X128836854Y-40649869D01*
X128813015Y-40661862D01*
X128755686Y-40690703D01*
X128721781Y-40755000D01*
X127396833Y-40755000D01*
X127420371Y-40708591D01*
X127387934Y-40672569D01*
X127720699Y-40672569D01*
X127748141Y-40708591D01*
X127753493Y-40715617D01*
X127851119Y-40739122D01*
X127909446Y-40741694D01*
X127962895Y-40727366D01*
X127968286Y-40681244D01*
X127959882Y-40661249D01*
X127903419Y-40623623D01*
X127823321Y-40612217D01*
X127751708Y-40628157D01*
X127720699Y-40672569D01*
X127387934Y-40672569D01*
X127384481Y-40668734D01*
X127317875Y-40642169D01*
X127238867Y-40661296D01*
X127197799Y-40740779D01*
X125922367Y-40740779D01*
X125821509Y-40539903D01*
X125723873Y-40223880D01*
X125955056Y-40223880D01*
X125976221Y-40328922D01*
X126005200Y-40411594D01*
X126102355Y-40552233D01*
X126247799Y-40635996D01*
X126444879Y-40664321D01*
X126696939Y-40638647D01*
X126720364Y-40633859D01*
X126825842Y-40603407D01*
X128297516Y-40603407D01*
X128326071Y-40648277D01*
X128353536Y-40674934D01*
X128366225Y-40681244D01*
X128417504Y-40706743D01*
X128467433Y-40703189D01*
X128476614Y-40661862D01*
X128445778Y-40628089D01*
X128367261Y-40599204D01*
X128330226Y-40594707D01*
X128297516Y-40603407D01*
X126825842Y-40603407D01*
X126880527Y-40587619D01*
X127066530Y-40517506D01*
X127242753Y-40436701D01*
X127301172Y-40407228D01*
X127438852Y-40341686D01*
X127545957Y-40296154D01*
X127603133Y-40279095D01*
X127615262Y-40281454D01*
X127679010Y-40323998D01*
X127753125Y-40403044D01*
X127850129Y-40526992D01*
X128492060Y-40477346D01*
X128633442Y-40466459D01*
X128845535Y-40450310D01*
X129026475Y-40436752D01*
X129160553Y-40426957D01*
X129232062Y-40422100D01*
X129283940Y-40424364D01*
X129327336Y-40459165D01*
X129349837Y-40550782D01*
X129364209Y-40613386D01*
X129404154Y-40686419D01*
X129451134Y-40703754D01*
X129491494Y-40655312D01*
X129532876Y-40613979D01*
X129626967Y-40593160D01*
X129708926Y-40577792D01*
X129776032Y-40526255D01*
X129794379Y-40498575D01*
X129838702Y-40479792D01*
X129918457Y-40507184D01*
X129969866Y-40527864D01*
X130032744Y-40527021D01*
X130092121Y-40470198D01*
X130160803Y-40385380D01*
X130248757Y-40508899D01*
X130313213Y-40586969D01*
X130383940Y-40624946D01*
X130445133Y-40586994D01*
X130504817Y-40471955D01*
X130569022Y-40311492D01*
X130452745Y-40179061D01*
X130412198Y-40131892D01*
X130365064Y-40060444D01*
X130359870Y-39994107D01*
X130388635Y-39897870D01*
X130399285Y-39866969D01*
X130441283Y-39740740D01*
X130494462Y-39576828D01*
X130549894Y-39402657D01*
X130658986Y-39056204D01*
X130573751Y-38791558D01*
X130522857Y-38654491D01*
X130434280Y-38457673D01*
X130341238Y-38285018D01*
X130279476Y-38189064D01*
X130175514Y-38045516D01*
X130070645Y-37917954D01*
X129976003Y-37818704D01*
X129902719Y-37760088D01*
X129861927Y-37754430D01*
X129847353Y-37796686D01*
X129823351Y-37902185D01*
X129794330Y-38053226D01*
X129763739Y-38233000D01*
X129749935Y-38319804D01*
X129725299Y-38485427D01*
X129713855Y-38593651D01*
X129715391Y-38658670D01*
X129729695Y-38694676D01*
X129756558Y-38715862D01*
X129783123Y-38733955D01*
X129814271Y-38790107D01*
X129794204Y-38869694D01*
X129719484Y-38981159D01*
X129586670Y-39132949D01*
X129355809Y-39380467D01*
X129146755Y-39368498D01*
X129058119Y-39362223D01*
X128978289Y-39347217D01*
X128944615Y-39316545D01*
X128937701Y-39260154D01*
X128948733Y-39204054D01*
X129005209Y-39149719D01*
X129118700Y-39118232D01*
X129299309Y-39105265D01*
X129370705Y-39097082D01*
X129497117Y-39050011D01*
X129589141Y-38974295D01*
X129624718Y-38884873D01*
X129614169Y-38849181D01*
X129547482Y-38769887D01*
X129435011Y-38682454D01*
X129295009Y-38598574D01*
X129145729Y-38529938D01*
X129005424Y-38488236D01*
X129004345Y-38488037D01*
X128877334Y-38489599D01*
X128719236Y-38523956D01*
X128564349Y-38581108D01*
X128446974Y-38651055D01*
X128404803Y-38674888D01*
X128299038Y-38713871D01*
X128166899Y-38749057D01*
X128158859Y-38750876D01*
X128008331Y-38795601D01*
X127828543Y-38863184D01*
X127656661Y-38939735D01*
X127564829Y-38987188D01*
X127408533Y-39090948D01*
X127307418Y-39208957D01*
X127246565Y-39362396D01*
X127211054Y-39572449D01*
X127192140Y-39743151D01*
X127171756Y-39860049D01*
X127136084Y-39926912D01*
X127070147Y-39957686D01*
X126958968Y-39966314D01*
X126787571Y-39966740D01*
X126774413Y-39966815D01*
X126483863Y-39976696D01*
X126263752Y-40002789D01*
X126107702Y-40046253D01*
X126009338Y-40108248D01*
X125969797Y-40156564D01*
X125955056Y-40223880D01*
X125723873Y-40223880D01*
X125691067Y-40117696D01*
X125631630Y-39670595D01*
X125631790Y-39552939D01*
X125855939Y-39552939D01*
X125856350Y-39607951D01*
X125861694Y-39750945D01*
X125871923Y-39854205D01*
X125885382Y-39898348D01*
X125892238Y-39900283D01*
X125956160Y-39890383D01*
X126052229Y-39856651D01*
X126133664Y-39830673D01*
X126243820Y-39816044D01*
X126395546Y-39813944D01*
X126606971Y-39823283D01*
X126618981Y-39823998D01*
X126811986Y-39834084D01*
X126940435Y-39831132D01*
X127017516Y-39806360D01*
X127056414Y-39750986D01*
X127070315Y-39656227D01*
X127072404Y-39513303D01*
X127082572Y-39350802D01*
X127137750Y-39148725D01*
X127247447Y-38990936D01*
X127419110Y-38868028D01*
X127660183Y-38770591D01*
X127667856Y-38768179D01*
X127839885Y-38718264D01*
X128008591Y-38675843D01*
X128138489Y-38649873D01*
X128223332Y-38632345D01*
X128347337Y-38575806D01*
X128470336Y-38469400D01*
X128500020Y-38439235D01*
X128576665Y-38369895D01*
X128647778Y-38333167D01*
X128741369Y-38318711D01*
X128885449Y-38316190D01*
X128933329Y-38316861D01*
X129137129Y-38336956D01*
X129289199Y-38382113D01*
X129316819Y-38394653D01*
X129403519Y-38424918D01*
X129449269Y-38426208D01*
X129462296Y-38401426D01*
X129498001Y-38314616D01*
X129548227Y-38182083D01*
X129606524Y-38020473D01*
X129659059Y-37868973D01*
X129699059Y-37732211D01*
X129707960Y-37638901D01*
X129683298Y-37572131D01*
X129622606Y-37514988D01*
X129523418Y-37450561D01*
X129359673Y-37360693D01*
X129007234Y-37225039D01*
X128624036Y-37141996D01*
X128231339Y-37115395D01*
X127850401Y-37149067D01*
X127512965Y-37229856D01*
X127180432Y-37365706D01*
X126874888Y-37559552D01*
X126577577Y-37821300D01*
X126379240Y-38038383D01*
X126144513Y-38375194D01*
X125981624Y-38733724D01*
X125886717Y-39123222D01*
X125855939Y-39552939D01*
X125631790Y-39552939D01*
X125632116Y-39314242D01*
X125676359Y-38982653D01*
X125771031Y-38659981D01*
X125922189Y-38318033D01*
X126053580Y-38086444D01*
X126317267Y-37739908D01*
X126628361Y-37447799D01*
X126978703Y-37212812D01*
X127360135Y-37037643D01*
X127764496Y-36924986D01*
X128183628Y-36877536D01*
X128609371Y-36897989D01*
X129033567Y-36989040D01*
X129448056Y-37153384D01*
X129687720Y-37286416D01*
X130052652Y-37555777D01*
X130132494Y-37638901D01*
X130357949Y-37873623D01*
G37*
G36*
X126080658Y-36433988D02*
G01*
X126138414Y-36476492D01*
X126207893Y-36556120D01*
X126299807Y-36680440D01*
X126210927Y-36752411D01*
X126103414Y-36810768D01*
X125999471Y-36813026D01*
X125924198Y-36758510D01*
X125895197Y-36652774D01*
X125897128Y-36631267D01*
X125934475Y-36541342D01*
X126000574Y-36464408D01*
X126070560Y-36431800D01*
X126080658Y-36433988D01*
G37*
G36*
X127286541Y-40187239D02*
G01*
X127244978Y-40244946D01*
X127185816Y-40289600D01*
X127112198Y-40279095D01*
X127045707Y-40267137D01*
X127023327Y-40283422D01*
X126973777Y-40319478D01*
X126959624Y-40334563D01*
X126901597Y-40372572D01*
X126847359Y-40349594D01*
X126826797Y-40335089D01*
X126778550Y-40335051D01*
X126719617Y-40396870D01*
X126679844Y-40445060D01*
X126634481Y-40466892D01*
X126580532Y-40434732D01*
X126547485Y-40410278D01*
X126502831Y-40407675D01*
X126453541Y-40467204D01*
X126419387Y-40514323D01*
X126379349Y-40532226D01*
X126323995Y-40492263D01*
X126269345Y-40457514D01*
X126211735Y-40454228D01*
X126187161Y-40456162D01*
X126170003Y-40407038D01*
X126163863Y-40365349D01*
X126131039Y-40302033D01*
X126299304Y-40302033D01*
X126300962Y-40374602D01*
X126317819Y-40404619D01*
X126366294Y-40436128D01*
X126369356Y-40436036D01*
X126418418Y-40401976D01*
X126435672Y-40333166D01*
X126410765Y-40268605D01*
X126394599Y-40256052D01*
X126338347Y-40254958D01*
X126299304Y-40302033D01*
X126131039Y-40302033D01*
X126120931Y-40282535D01*
X126108364Y-40268756D01*
X126100591Y-40244980D01*
X126157275Y-40256775D01*
X126220472Y-40262918D01*
X126234990Y-40251190D01*
X126570241Y-40251190D01*
X126576418Y-40333166D01*
X126576781Y-40337983D01*
X126600523Y-40378110D01*
X126651434Y-40390631D01*
X126697230Y-40331013D01*
X126701453Y-40283422D01*
X126665638Y-40210394D01*
X126844865Y-40210394D01*
X126846778Y-40250874D01*
X126896279Y-40279095D01*
X126929262Y-40270514D01*
X126948230Y-40218135D01*
X126930390Y-40180950D01*
X127106310Y-40180950D01*
X127107952Y-40191783D01*
X127134324Y-40218135D01*
X127148512Y-40232313D01*
X127170795Y-40229810D01*
X127190714Y-40180950D01*
X127184309Y-40148538D01*
X127148512Y-40129587D01*
X127136873Y-40134919D01*
X127106310Y-40180950D01*
X126930390Y-40180950D01*
X126922563Y-40164637D01*
X126877586Y-40155087D01*
X126844865Y-40210394D01*
X126665638Y-40210394D01*
X126663615Y-40206268D01*
X126645916Y-40189161D01*
X126606115Y-40169183D01*
X126579456Y-40213238D01*
X126570241Y-40251190D01*
X126234990Y-40251190D01*
X126281065Y-40213969D01*
X126292514Y-40194686D01*
X126329969Y-40166753D01*
X126386623Y-40201160D01*
X126421576Y-40226284D01*
X126468128Y-40226767D01*
X126525666Y-40168181D01*
X126559394Y-40129804D01*
X126612318Y-40102227D01*
X126677225Y-40129217D01*
X126699308Y-40142241D01*
X126759327Y-40154509D01*
X126812540Y-40102936D01*
X126831773Y-40078084D01*
X126877584Y-40049180D01*
X126934476Y-40081925D01*
X126939557Y-40086075D01*
X127005341Y-40116720D01*
X127079889Y-40087576D01*
X127099571Y-40075986D01*
X127165341Y-40061353D01*
X127234051Y-40106125D01*
X127270666Y-40141801D01*
X127284344Y-40180950D01*
X127286541Y-40187239D01*
G37*
G36*
X128021512Y-40247199D02*
G01*
X128054393Y-40279095D01*
X128039670Y-40301913D01*
X127975877Y-40318353D01*
X127930241Y-40310992D01*
X127897361Y-40279095D01*
X127912084Y-40256278D01*
X127975877Y-40239837D01*
X128021512Y-40247199D01*
G37*
G36*
X129585459Y-40146926D02*
G01*
X129580513Y-40196064D01*
X129556016Y-40256445D01*
X129537466Y-40261684D01*
X129513076Y-40219560D01*
X129511858Y-40182697D01*
X129542520Y-40110041D01*
X129574953Y-40094614D01*
X129585459Y-40146926D01*
G37*
G36*
X128523490Y-39472952D02*
G01*
X128594042Y-39531540D01*
X128596156Y-39533781D01*
X128646508Y-39571808D01*
X128721585Y-39596341D01*
X128839309Y-39611116D01*
X129017596Y-39619871D01*
X129369540Y-39631336D01*
X129358695Y-39765419D01*
X129351514Y-39814143D01*
X129315509Y-39948084D01*
X129262440Y-40085680D01*
X129177029Y-40271857D01*
X128802187Y-40250523D01*
X128705529Y-40244599D01*
X128559079Y-40233757D01*
X128455190Y-40223587D01*
X128411790Y-40215687D01*
X128423310Y-40189081D01*
X128476204Y-40119944D01*
X128559008Y-40025598D01*
X128632126Y-39941415D01*
X128696853Y-39854764D01*
X128721781Y-39803696D01*
X128714692Y-39782674D01*
X128665323Y-39713892D01*
X128584378Y-39628794D01*
X128539406Y-39585148D01*
X128473067Y-39514563D01*
X128446974Y-39476940D01*
X128467224Y-39453693D01*
X128523490Y-39472952D01*
G37*
G36*
X130000343Y-39828094D02*
G01*
X130037010Y-39898052D01*
X130045039Y-39987455D01*
X130016876Y-40063686D01*
X129992177Y-40089362D01*
X129924692Y-40123515D01*
X129878381Y-40103458D01*
X129874781Y-40033732D01*
X129888375Y-39971019D01*
X129898988Y-39876700D01*
X129908234Y-39840169D01*
X129957664Y-39807998D01*
X130000343Y-39828094D01*
G37*
G36*
X127601415Y-39788118D02*
G01*
X127605071Y-39909189D01*
X127605146Y-39991354D01*
X127599912Y-40070299D01*
X127584771Y-40089156D01*
X127555998Y-40059328D01*
X127528090Y-40010115D01*
X127508119Y-39878974D01*
X127553852Y-39756005D01*
X127570165Y-39736403D01*
X127591033Y-39734268D01*
X127601415Y-39788118D01*
G37*
G36*
X127423107Y-39735591D02*
G01*
X127408294Y-39834990D01*
X127381046Y-39899546D01*
X127344115Y-39898585D01*
X127326912Y-39852447D01*
X127350968Y-39745689D01*
X127385400Y-39684108D01*
X127413044Y-39681509D01*
X127423107Y-39735591D01*
G37*
G36*
X130488396Y-38916592D02*
G01*
X130475452Y-38992148D01*
X130429171Y-39076453D01*
X130418281Y-39088200D01*
X130347765Y-39198099D01*
X130281683Y-39347701D01*
X130232728Y-39504150D01*
X130213589Y-39634591D01*
X130213304Y-39649881D01*
X130198999Y-39734305D01*
X130169752Y-39768740D01*
X130147529Y-39753471D01*
X130146071Y-39691667D01*
X130147820Y-39640834D01*
X130110732Y-39568538D01*
X130088379Y-39537703D01*
X130090808Y-39486150D01*
X130125635Y-39400209D01*
X130197445Y-39263768D01*
X130200602Y-39258035D01*
X130281481Y-39116756D01*
X130358014Y-38992118D01*
X130414024Y-38910505D01*
X130488396Y-38815957D01*
X130488396Y-38916592D01*
G37*
G36*
X129209395Y-38751111D02*
G01*
X129212507Y-38787287D01*
X129204450Y-38799036D01*
X129170932Y-38826545D01*
X129167014Y-38825524D01*
X129153620Y-38787287D01*
X129155218Y-38776527D01*
X129195195Y-38748029D01*
X129209395Y-38751111D01*
G37*
D13*
%TO.C,C5*%
X118565000Y-113738748D02*
X118565000Y-114261252D01*
X120035000Y-113738748D02*
X120035000Y-114261252D01*
%TO.C,R19*%
X115227064Y-109565000D02*
X114772936Y-109565000D01*
X115227064Y-111035000D02*
X114772936Y-111035000D01*
%TO.C,R5*%
X108365000Y-114427064D02*
X108365000Y-113972936D01*
X109835000Y-114427064D02*
X109835000Y-113972936D01*
%TO.C,U5*%
X112050000Y-111640000D02*
X114000000Y-111640000D01*
X112050000Y-116760000D02*
X114000000Y-116760000D01*
X115950000Y-111640000D02*
X114000000Y-111640000D01*
X115950000Y-116760000D02*
X114000000Y-116760000D01*
X116700000Y-111735000D02*
X116460000Y-111405000D01*
X116940000Y-111405000D01*
X116700000Y-111735000D01*
G36*
X116700000Y-111735000D02*
G01*
X116460000Y-111405000D01*
X116940000Y-111405000D01*
X116700000Y-111735000D01*
G37*
%TO.C,C40*%
X155931250Y-115028750D02*
X155931250Y-115816250D01*
X156325000Y-115422500D02*
X155537500Y-115422500D01*
X156565000Y-112515000D02*
X156565000Y-111229437D01*
X156565000Y-114635000D02*
X156565000Y-115920563D01*
X157629437Y-110165000D02*
X156565000Y-111229437D01*
X157629437Y-116985000D02*
X156565000Y-115920563D01*
X163385000Y-110165000D02*
X157629437Y-110165000D01*
X163385000Y-112515000D02*
X163385000Y-110165000D01*
X163385000Y-114635000D02*
X163385000Y-116985000D01*
X163385000Y-116985000D02*
X157629437Y-116985000D01*
%TO.C,C13*%
X105765000Y-115438748D02*
X105765000Y-115961252D01*
X107235000Y-115438748D02*
X107235000Y-115961252D01*
D14*
%TO.C,BT1*%
X155758540Y-104234130D02*
X156108600Y-103866000D01*
X156108600Y-89134000D02*
X155758540Y-88765870D01*
X156108600Y-103866000D02*
X156108600Y-89134000D01*
X158777030Y-85895000D02*
X155758540Y-88765870D01*
X158777030Y-107105000D02*
X155758540Y-104234130D01*
X160600000Y-85895000D02*
X158777030Y-85895000D01*
X160600000Y-107105000D02*
X158777030Y-107105000D01*
X166400000Y-85895000D02*
X172228600Y-85895000D01*
X166400000Y-107105000D02*
X172228600Y-107105000D01*
X172228600Y-107105000D02*
X172228600Y-85895000D01*
%TD*%
M02*
