M48
; DRILL file {KiCad 8.0.4} date 2025-01-13T20:54:36-0700
; FORMAT={-:-/ absolute / metric / decimal}
; #@! TF.CreationDate,2025-01-13T20:54:36-07:00
; #@! TF.GenerationSoftware,Kicad,Pcbnew,8.0.4
; #@! TF.FileFunction,MixedPlating,1,2
FMAT,2
METRIC
; #@! TA.AperFunction,Plated,PTH,ViaDrill
T1C0.300
; #@! TA.AperFunction,Plated,PTH,ViaDrill
T2C0.500
; #@! TA.AperFunction,Plated,PTH,ComponentDrill
T3C0.600
; #@! TA.AperFunction,Plated,PTH,ComponentDrill
T4C1.000
; #@! TA.AperFunction,Plated,PTH,ComponentDrill
T5C1.100
; #@! TA.AperFunction,Plated,PTH,ComponentDrill
T6C1.550
; #@! TA.AperFunction,Plated,PTH,ComponentDrill
T7C1.750
; #@! TA.AperFunction,Plated,PTH,ComponentDrill
T8C3.000
; #@! TA.AperFunction,Plated,PTH,ComponentDrill
T9C3.200
; #@! TA.AperFunction,Plated,PTH,ComponentDrill
T10C4.000
; #@! TA.AperFunction,NonPlated,NPTH,ComponentDrill
T11C0.650
; #@! TA.AperFunction,NonPlated,NPTH,ComponentDrill
T12C0.900
%
G90
G05
T1
X75.64Y-28.86
X75.64Y-31.4
X75.64Y-33.94
X75.64Y-36.48
X75.64Y-39.02
X75.64Y-41.56
X75.64Y-44.1
X75.64Y-46.64
X75.64Y-49.18
X75.64Y-51.72
X75.64Y-54.26
X75.64Y-56.8
X75.64Y-59.34
X75.64Y-61.88
X75.64Y-64.42
X75.64Y-66.96
X75.64Y-69.5
X75.64Y-72.04
X75.64Y-84.74
X75.64Y-92.36
X75.64Y-105.06
X75.64Y-107.6
X75.64Y-110.14
X78.18Y-28.86
X78.18Y-31.4
X78.18Y-33.94
X78.18Y-36.48
X78.18Y-46.64
X78.18Y-49.18
X78.18Y-51.72
X78.18Y-54.26
X78.18Y-56.8
X78.18Y-59.34
X78.18Y-61.88
X78.18Y-66.96
X78.18Y-69.5
X78.18Y-72.04
X78.18Y-82.2
X78.18Y-97.44
X78.18Y-99.98
X78.18Y-102.52
X78.18Y-105.06
X78.18Y-107.6
X78.18Y-110.14
X80.72Y-28.86
X80.72Y-31.4
X80.72Y-33.94
X80.72Y-36.48
X80.72Y-61.88
X80.72Y-66.96
X80.72Y-69.5
X80.72Y-102.52
X80.72Y-105.06
X80.72Y-107.6
X80.72Y-110.14
X83.26Y-31.4
X83.26Y-54.26
X83.26Y-56.8
X83.26Y-59.34
X83.26Y-61.88
X83.26Y-66.96
X83.26Y-79.66
X83.26Y-82.2
X83.26Y-97.44
X83.26Y-105.06
X83.26Y-107.6
X83.26Y-110.14
X83.26Y-112.68
X83.26Y-115.22
X83.26Y-117.76
X85.8Y-112.68
X85.8Y-115.22
X85.8Y-117.76
X86.9Y-48.2
X87.9Y-46.8
X88.34Y-31.4
X88.34Y-33.94
X88.34Y-36.48
X88.34Y-64.42
X88.34Y-66.96
X88.34Y-72.04
X88.34Y-74.58
X88.34Y-77.12
X88.34Y-112.68
X88.34Y-115.22
X88.34Y-117.76
X88.4Y-61.7
X88.5Y-60.8
X88.7Y-42.4
X88.7Y-45.8
X88.9Y-40.9
X89.5Y-60.5
X89.6Y-59.3
X90.3Y-58.5
X90.7Y-64.4
X90.7Y-69.0
X90.8Y-66.7
X90.88Y-31.4
X90.88Y-33.94
X90.88Y-36.48
X90.88Y-39.02
X90.88Y-77.12
X90.88Y-82.2
X90.88Y-84.74
X90.88Y-87.28
X90.88Y-94.9
X90.88Y-105.06
X90.88Y-107.6
X90.88Y-110.14
X90.88Y-112.68
X90.88Y-115.22
X90.88Y-117.76
X93.42Y-21.24
X93.42Y-31.4
X93.42Y-33.94
X93.42Y-36.48
X93.42Y-39.02
X93.42Y-41.56
X93.42Y-44.1
X93.42Y-46.64
X93.42Y-54.26
X93.42Y-56.8
X93.42Y-84.74
X93.42Y-90.88
X93.42Y-110.14
X93.42Y-112.68
X93.42Y-115.22
X93.42Y-117.76
X95.2Y-36.5
X95.3Y-59.2
X95.45Y-90.68
X95.96Y-21.24
X95.96Y-23.78
X95.96Y-26.32
X95.96Y-31.4
X95.96Y-33.94
X95.96Y-94.9
X95.96Y-97.44
X95.96Y-99.98
X95.96Y-102.52
X95.96Y-112.68
X95.96Y-115.22
X95.96Y-117.76
X96.5Y-38.5
X96.5Y-58.575
X96.55Y-63.0
X97.4Y-89.5
X98.5Y-21.24
X98.5Y-23.78
X98.5Y-26.32
X98.5Y-31.4
X98.5Y-54.26
X98.5Y-56.8
X98.5Y-77.12
X98.5Y-79.66
X98.5Y-94.9
X98.5Y-97.44
X98.5Y-99.98
X98.5Y-102.52
X98.5Y-112.68
X98.5Y-115.22
X98.5Y-117.76
X99.3Y-69.55
X99.65Y-74.53
X101.04Y-21.24
X101.04Y-54.26
X101.04Y-56.8
X101.04Y-94.9
X101.04Y-97.44
X101.04Y-99.98
X101.04Y-102.52
X101.04Y-112.68
X101.04Y-115.22
X101.04Y-117.76
X102.85Y-73.05
X102.9Y-66.5
X102.96Y-37.7
X102.99Y-45.47
X103.58Y-21.24
X103.58Y-23.78
X103.58Y-54.26
X103.58Y-56.8
X103.58Y-64.42
X103.58Y-79.66
X103.58Y-82.2
X103.58Y-102.52
X103.58Y-112.68
X103.58Y-117.76
X103.8Y-75.15
X103.85Y-67.35
X104.94Y-70.13
X106.12Y-21.24
X106.12Y-23.78
X106.12Y-54.26
X106.12Y-56.8
X106.12Y-64.42
X106.12Y-79.66
X106.12Y-82.2
X106.12Y-84.74
X106.12Y-97.44
X106.12Y-105.06
X106.45Y-67.4
X107.1Y-75.15
X107.2Y-72.6
X108.66Y-21.24
X108.66Y-23.78
X108.66Y-26.32
X108.66Y-28.86
X108.66Y-31.4
X108.66Y-33.94
X108.66Y-41.56
X108.66Y-54.26
X108.66Y-97.44
X108.66Y-117.76
X108.76Y-45.5
X111.2Y-21.24
X111.2Y-23.78
X111.2Y-26.32
X111.2Y-28.86
X111.2Y-31.4
X111.2Y-33.94
X111.2Y-87.28
X111.2Y-89.82
X111.2Y-92.36
X111.2Y-94.9
X111.2Y-97.44
X111.7Y-72.6
X111.92Y-77.52
X112.3Y-67.4
X113.15Y-66.7
X113.27Y-69.06
X113.3Y-77.9
X113.6Y-70.6
X113.74Y-21.24
X113.74Y-23.78
X113.74Y-26.32
X113.74Y-28.86
X113.74Y-31.4
X113.74Y-56.8
X113.74Y-79.66
X113.74Y-82.2
X113.74Y-92.36
X113.74Y-97.44
X113.9Y-74.3
X114.2Y-63.4
X114.24Y-43.35
X114.534Y-67.2
X114.58Y-41.11
X114.6Y-45.53
X115.0Y-103.4
X115.85Y-103.25
X116.1Y-80.3
X116.15Y-78.1
X116.28Y-21.24
X116.28Y-26.32
X116.28Y-31.4
X116.4Y-66.125
X116.4Y-84.7
X117.825Y-79.875
X118.05Y-74.7
X118.3Y-82.7
X118.45Y-84.65
X118.49Y-77.69
X118.82Y-21.24
X118.82Y-97.44
X119.1Y-66.2
X119.3Y-36.6
X119.7Y-79.95
X120.25Y-75.95
X120.375Y-72.15
X120.7Y-77.7
X121.05Y-80.7
X121.1Y-71.55
X121.15Y-76.2
X121.307Y-77.035
X121.36Y-21.24
X121.36Y-31.4
X121.36Y-33.94
X121.36Y-36.48
X121.36Y-92.36
X121.36Y-97.44
X121.45Y-83.4
X121.5Y-40.54
X122.0Y-71.6
X122.5Y-44.54
X123.11Y-67.24
X123.2Y-46.54
X123.7Y-47.5
X123.9Y-21.24
X123.9Y-31.4
X123.9Y-33.94
X123.9Y-36.48
X123.9Y-41.56
X123.9Y-117.76
X123.955Y-58.763
X124.1Y-43.5
X124.1Y-45.6
X124.58Y-59.4
X125.355Y-59.93
X125.7Y-37.5
X125.989Y-39.5
X125.989Y-60.418
X126.375Y-76.3
X126.4Y-71.75
X126.4Y-81.1
X126.44Y-21.24
X126.44Y-31.4
X126.44Y-33.94
X126.44Y-84.74
X126.44Y-97.44
X126.656Y-60.935
X127.025Y-72.375
X127.29Y-79.58
X127.375Y-61.285
X127.385Y-70.265
X127.48Y-68.92
X127.54Y-80.56
X127.7Y-71.0
X127.9Y-62.0
X128.825Y-42.35
X128.98Y-21.24
X128.98Y-23.78
X128.98Y-26.32
X128.98Y-31.4
X128.98Y-84.74
X128.98Y-87.28
X128.98Y-89.82
X128.98Y-92.36
X128.98Y-94.9
X128.98Y-97.44
X129.2Y-48.125
X129.2Y-54.8
X129.23Y-45.5
X129.6Y-39.5
X129.7Y-35.5
X129.7Y-37.6
X129.91Y-75.94
X130.961Y-61.161
X131.52Y-21.24
X131.52Y-31.4
X131.52Y-84.74
X131.52Y-87.28
X131.52Y-89.82
X131.52Y-92.36
X131.52Y-94.9
X131.52Y-97.44
X131.52Y-117.76
X131.9Y-61.5
X132.7Y-77.6
X132.84Y-72.01
X133.315Y-66.625
X133.7Y-65.9
X133.718Y-104.837
X134.06Y-21.24
X134.06Y-23.78
X134.06Y-54.26
X134.06Y-117.76
X134.568Y-104.837
X134.91Y-37.29
X135.6Y-39.4
X136.425Y-43.1
X136.425Y-48.075
X136.425Y-54.125
X136.6Y-21.24
X136.6Y-23.78
X136.6Y-59.34
X136.6Y-61.88
X136.6Y-64.42
X136.6Y-79.66
X136.6Y-82.2
X136.6Y-84.74
X136.6Y-87.28
X136.6Y-89.82
X136.6Y-92.36
X136.6Y-117.76
X137.6Y-38.2
X138.3Y-40.275
X138.4Y-48.1
X138.425Y-43.175
X138.9Y-38.0
X139.14Y-21.24
X139.14Y-26.32
X139.14Y-31.4
X139.14Y-33.94
X139.14Y-54.26
X139.14Y-56.8
X139.14Y-59.34
X139.14Y-61.88
X139.14Y-64.42
X139.14Y-74.58
X139.14Y-84.74
X139.14Y-87.28
X139.14Y-92.36
X139.14Y-97.44
X140.05Y-72.25
X141.68Y-21.24
X141.68Y-31.4
X141.68Y-33.94
X141.68Y-54.26
X141.68Y-56.8
X141.68Y-59.34
X141.68Y-61.88
X141.68Y-64.42
X141.68Y-74.58
X141.68Y-77.12
X141.68Y-79.66
X141.68Y-84.74
X141.68Y-87.28
X141.68Y-92.36
X143.55Y-72.2
X144.22Y-21.24
X144.22Y-33.94
X144.22Y-61.88
X144.22Y-64.42
X144.22Y-74.58
X144.22Y-79.66
X144.22Y-84.74
X144.22Y-87.28
X144.22Y-117.76
X144.3Y-44.2
X144.3Y-50.9
X145.1Y-67.625
X145.7Y-72.4
X145.9Y-68.125
X145.95Y-43.6
X146.0Y-40.91
X146.3Y-30.975
X146.4Y-71.875
X146.494Y-66.9
X146.76Y-21.24
X146.76Y-84.74
X146.76Y-87.28
X146.76Y-117.76
X146.9Y-49.1
X147.098Y-68.625
X147.675Y-113.5
X147.7Y-73.0
X147.744Y-69.125
X147.99Y-107.06
X148.408Y-69.608
X148.5Y-71.525
X148.907Y-70.234
X149.3Y-110.2
X149.8Y-70.9
X150.375Y-99.87
X150.4Y-111.0
X150.7Y-105.5
X150.775Y-113.5
X151.65Y-76.05
X151.7Y-106.1
X151.84Y-33.94
X151.84Y-41.56
X151.84Y-82.2
X151.84Y-84.74
X151.84Y-87.28
X151.84Y-89.82
X151.84Y-92.36
X151.84Y-97.44
X151.84Y-99.98
X153.5Y-72.25
X153.99Y-68.22
X154.38Y-33.94
X154.38Y-46.64
X154.38Y-64.42
X154.38Y-87.28
X154.38Y-89.82
X154.38Y-92.36
X154.38Y-97.44
X154.38Y-99.98
X154.38Y-102.52
X154.38Y-115.22
X154.38Y-117.76
X154.6Y-77.3
X155.05Y-74.7
X156.44Y-83.02
X156.92Y-33.94
X156.92Y-92.36
X156.92Y-97.44
X156.92Y-99.98
X156.92Y-102.52
X156.92Y-105.06
X156.92Y-117.76
X158.256Y-45.476
X158.294Y-46.322
X158.3Y-47.2
X158.3Y-48.0
X158.9Y-80.487
X159.46Y-33.94
X159.46Y-66.96
X159.46Y-92.36
X159.46Y-97.44
X159.46Y-99.98
X159.46Y-105.06
X159.6Y-78.4
X159.8Y-38.2
X160.1Y-69.3
X161.04Y-47.06
X161.05Y-45.04
X161.49Y-38.03
X161.7Y-43.0
X161.7Y-79.0
X162.0Y-54.26
X162.0Y-56.8
X162.0Y-61.88
X162.0Y-64.42
X162.0Y-92.36
X162.0Y-102.52
X162.0Y-105.06
X162.0Y-117.76
X163.5Y-86.8
X163.8Y-64.9
X164.54Y-54.26
X164.54Y-56.8
X164.54Y-61.88
X164.54Y-79.66
X164.54Y-82.2
X164.54Y-92.36
X164.54Y-102.52
X164.54Y-105.06
X164.54Y-117.76
X166.81Y-41.74
X167.08Y-44.1
X167.08Y-46.64
X167.08Y-87.28
X167.08Y-92.36
X167.08Y-99.98
X167.08Y-102.52
X167.08Y-105.06
X168.3Y-68.7
X169.62Y-33.94
X169.62Y-36.48
X172.16Y-49.18
X172.16Y-51.72
X172.16Y-54.26
X172.16Y-56.8
X172.16Y-59.34
X172.16Y-79.66
X172.16Y-82.2
X172.16Y-84.74
X172.16Y-87.28
X172.16Y-89.82
X172.16Y-92.36
X172.16Y-94.9
X172.16Y-97.44
X172.16Y-99.98
X172.16Y-102.52
X172.16Y-105.06
X172.16Y-107.6
X172.16Y-110.14
T2
X76.5Y-102.1
X76.6Y-80.7
X77.8Y-65.0
X77.9Y-40.4
X77.9Y-42.8
X80.2Y-59.0
X80.5Y-82.4
X82.5Y-35.5
X82.7Y-95.2
X82.9Y-88.0
X86.6Y-84.7
X88.4Y-84.0
X88.58Y-91.98
X89.3Y-69.6
X90.9Y-71.5
X90.9Y-73.7
X92.6Y-95.2
X93.7Y-87.7
X94.8Y-75.7
X101.5Y-33.5
X101.6Y-47.5
X103.8Y-85.1
X104.9Y-50.9
X105.1Y-114.8
X105.5Y-36.2
X106.2Y-32.0
X106.6Y-26.7
X107.2Y-94.2
X108.0Y-56.5
X108.2Y-69.65
X109.5Y-72.575
X109.8Y-75.1
X110.4Y-40.6
X110.4Y-42.2
X110.6Y-81.4
X112.1Y-50.9
X113.17Y-42.22
X113.2Y-41.19
X113.6Y-50.9
X114.1Y-65.3
X114.1Y-86.3
X114.53Y-114.78
X115.0Y-50.9
X115.1Y-35.5
X115.34Y-107.04
X117.0Y-61.6
X117.4Y-63.9
X119.3Y-113.05
X121.53Y-111.96
X121.575Y-86.3
X122.51Y-105.99
X123.85Y-65.1
X125.243Y-109.237
X125.573Y-104.897
X125.614Y-78.719
X125.643Y-107.737
X126.7Y-67.85
X127.0Y-101.7
X127.4Y-106.4
X127.443Y-116.837
X128.35Y-74.95
X129.633Y-108.007
X129.7Y-33.5
X130.475Y-110.425
X131.183Y-105.177
X131.2Y-79.52
X131.6Y-74.1
X131.66Y-62.84
X132.0Y-48.9
X132.78Y-64.76
X133.66Y-62.83
X133.9Y-61.7
X133.9Y-64.75
X134.143Y-110.137
X135.2Y-72.5
X135.412Y-74.5
X136.3Y-35.8
X136.4Y-95.075
X136.9Y-25.9
X137.0Y-31.2
X137.393Y-110.637
X138.243Y-109.438
X138.575Y-95.025
X139.3Y-50.9
X140.943Y-116.737
X141.6Y-41.4
X141.6Y-43.0
X143.2Y-104.7
X143.2Y-107.2
X144.3Y-50.12
X144.3Y-58.7
X144.31Y-49.28
X144.45Y-40.9
X144.464Y-43.003
X145.575Y-100.6
X146.0Y-103.95
X146.3Y-36.0
X148.0Y-42.0
X148.17Y-92.55
X150.975Y-73.212
X153.4Y-75.812
X153.5Y-82.4
X154.5Y-109.4
X154.6Y-107.3
X154.7Y-66.4
X158.2Y-64.9
X160.7Y-58.9
X161.56Y-50.85
X161.7Y-83.2
X163.14Y-50.85
X163.51Y-99.17
X165.03Y-50.85
X165.7Y-36.0
X166.4Y-74.5
X166.4Y-82.7
X166.72Y-50.85
X168.32Y-50.9
X168.6Y-41.9
X169.74Y-96.45
X169.75Y-83.4
X169.75Y-90.1
X169.75Y-93.82
X169.75Y-95.19
X169.75Y-97.86
X169.75Y-108.6
X173.1Y-41.8
X173.1Y-43.7
X173.1Y-62.0
X173.1Y-64.2
X173.1Y-66.5
X173.1Y-68.5
X173.1Y-71.0
T4
X100.292Y-109.519
X101.677Y-106.679
X103.062Y-109.519
X104.447Y-106.624
X105.832Y-109.519
X172.17Y-75.02
X172.17Y-77.56
T5
X93.93Y-23.36
X93.93Y-27.86
X100.43Y-23.36
X100.43Y-27.86
X113.65Y-88.95
X113.65Y-95.45
X118.15Y-88.95
X118.15Y-95.45
X122.15Y-88.95
X122.15Y-95.45
X125.33Y-23.4
X125.33Y-27.9
X126.65Y-88.95
X126.65Y-95.45
X131.83Y-23.4
X131.83Y-27.9
X139.5Y-77.97
X139.5Y-82.47
X146.0Y-77.97
X146.0Y-82.47
X167.59Y-30.79
X167.59Y-37.29
X172.09Y-30.79
X172.09Y-37.29
T6
X87.0Y-25.5
X119.5Y-26.0
X143.0Y-26.0
X155.5Y-58.8
T7
X84.46Y-22.96
X84.46Y-28.04
X89.54Y-22.96
X89.54Y-28.04
X116.96Y-23.46
X116.96Y-28.54
X122.04Y-23.46
X122.04Y-28.54
X140.46Y-23.46
X140.46Y-28.54
X145.54Y-23.46
X145.54Y-28.54
X152.96Y-56.26
X152.96Y-61.34
X158.04Y-56.26
X158.04Y-61.34
T8
X86.427Y-107.319
X119.727Y-107.319
T9
X79.025Y-24.3
X79.025Y-114.3
X169.025Y-24.3
X169.025Y-114.3
T10
X96.19Y-106.719
X109.91Y-106.719
T11
X131.253Y-113.032
X137.033Y-113.032
T12
X108.94Y-80.15
X108.94Y-83.15
T3
G00X129.823Y-111.983
M15
G01X129.823Y-113.082
M16
G05
G00X129.823Y-116.312
M15
G01X129.823Y-117.112
M16
G05
G00X138.463Y-111.983
M15
G01X138.463Y-113.082
M16
G05
G00X138.463Y-116.312
M15
G01X138.463Y-117.112
M16
G05
M30
