%TF.GenerationSoftware,KiCad,Pcbnew,8.0.4*%
%TF.CreationDate,2025-01-13T20:54:39-07:00*%
%TF.ProjectId,RF-Board-V1-2024,52462d42-6f61-4726-942d-56312d323032,rev?*%
%TF.SameCoordinates,Original*%
%TF.FileFunction,Soldermask,Top*%
%TF.FilePolarity,Negative*%
%FSLAX46Y46*%
G04 Gerber Fmt 4.6, Leading zero omitted, Abs format (unit mm)*
G04 Created by KiCad (PCBNEW 8.0.4) date 2025-01-13 20:54:39*
%MOMM*%
%LPD*%
G01*
G04 APERTURE LIST*
G04 Aperture macros list*
%AMRoundRect*
0 Rectangle with rounded corners*
0 $1 Rounding radius*
0 $2 $3 $4 $5 $6 $7 $8 $9 X,Y pos of 4 corners*
0 Add a 4 corners polygon primitive as box body*
4,1,4,$2,$3,$4,$5,$6,$7,$8,$9,$2,$3,0*
0 Add four circle primitives for the rounded corners*
1,1,$1+$1,$2,$3*
1,1,$1+$1,$4,$5*
1,1,$1+$1,$6,$7*
1,1,$1+$1,$8,$9*
0 Add four rect primitives between the rounded corners*
20,1,$1+$1,$2,$3,$4,$5,0*
20,1,$1+$1,$4,$5,$6,$7,0*
20,1,$1+$1,$6,$7,$8,$9,0*
20,1,$1+$1,$8,$9,$2,$3,0*%
%AMFreePoly0*
4,1,6,0.830000,0.000000,0.470000,-0.470000,-0.280000,-0.470000,-0.280000,0.460000,0.470000,0.460000,0.830000,0.000000,0.830000,0.000000,$1*%
%AMFreePoly1*
4,1,6,0.620000,-0.470000,-0.520000,-0.470000,-0.150000,0.000000,-0.520000,0.470000,0.620000,0.470000,0.620000,-0.470000,0.620000,-0.470000,$1*%
G04 Aperture macros list end*
%ADD10RoundRect,0.325000X-0.925000X-0.325000X0.925000X-0.325000X0.925000X0.325000X-0.925000X0.325000X0*%
%ADD11RoundRect,0.250000X-0.250000X-0.475000X0.250000X-0.475000X0.250000X0.475000X-0.250000X0.475000X0*%
%ADD12RoundRect,0.250000X0.450000X-0.262500X0.450000X0.262500X-0.450000X0.262500X-0.450000X-0.262500X0*%
%ADD13RoundRect,0.150000X0.150000X-0.512500X0.150000X0.512500X-0.150000X0.512500X-0.150000X-0.512500X0*%
%ADD14RoundRect,0.243750X0.243750X0.456250X-0.243750X0.456250X-0.243750X-0.456250X0.243750X-0.456250X0*%
%ADD15RoundRect,0.243750X-0.243750X-0.456250X0.243750X-0.456250X0.243750X0.456250X-0.243750X0.456250X0*%
%ADD16RoundRect,0.250000X-0.550000X1.500000X-0.550000X-1.500000X0.550000X-1.500000X0.550000X1.500000X0*%
%ADD17RoundRect,0.250000X-0.450000X0.262500X-0.450000X-0.262500X0.450000X-0.262500X0.450000X0.262500X0*%
%ADD18RoundRect,0.243750X0.456250X-0.243750X0.456250X0.243750X-0.456250X0.243750X-0.456250X-0.243750X0*%
%ADD19RoundRect,0.250000X-0.475000X0.250000X-0.475000X-0.250000X0.475000X-0.250000X0.475000X0.250000X0*%
%ADD20R,2.000000X2.000000*%
%ADD21RoundRect,0.250000X-0.262500X-0.450000X0.262500X-0.450000X0.262500X0.450000X-0.262500X0.450000X0*%
%ADD22RoundRect,0.250000X1.500000X0.550000X-1.500000X0.550000X-1.500000X-0.550000X1.500000X-0.550000X0*%
%ADD23RoundRect,0.250000X0.475000X-0.250000X0.475000X0.250000X-0.475000X0.250000X-0.475000X-0.250000X0*%
%ADD24RoundRect,0.250000X0.262500X0.450000X-0.262500X0.450000X-0.262500X-0.450000X0.262500X-0.450000X0*%
%ADD25C,2.529000*%
%ADD26C,2.829000*%
%ADD27FreePoly0,90.000000*%
%ADD28FreePoly1,90.000000*%
%ADD29RoundRect,0.250000X-1.500000X-0.550000X1.500000X-0.550000X1.500000X0.550000X-1.500000X0.550000X0*%
%ADD30RoundRect,0.250000X0.250000X0.475000X-0.250000X0.475000X-0.250000X-0.475000X0.250000X-0.475000X0*%
%ADD31C,6.400000*%
%ADD32RoundRect,0.250000X0.350000X-0.850000X0.350000X0.850000X-0.350000X0.850000X-0.350000X-0.850000X0*%
%ADD33RoundRect,0.249997X2.650003X-2.950003X2.650003X2.950003X-2.650003X2.950003X-2.650003X-2.950003X0*%
%ADD34RoundRect,0.075000X-0.700000X-0.075000X0.700000X-0.075000X0.700000X0.075000X-0.700000X0.075000X0*%
%ADD35RoundRect,0.075000X-0.075000X-0.700000X0.075000X-0.700000X0.075000X0.700000X-0.075000X0.700000X0*%
%ADD36C,2.000000*%
%ADD37RoundRect,0.102000X-0.750000X0.400000X-0.750000X-0.400000X0.750000X-0.400000X0.750000X0.400000X0*%
%ADD38RoundRect,0.102000X-1.000000X0.725000X-1.000000X-0.725000X1.000000X-0.725000X1.000000X0.725000X0*%
%ADD39RoundRect,0.243750X-0.456250X0.243750X-0.456250X-0.243750X0.456250X-0.243750X0.456250X0.243750X0*%
%ADD40RoundRect,0.250000X-0.850000X-0.350000X0.850000X-0.350000X0.850000X0.350000X-0.850000X0.350000X0*%
%ADD41RoundRect,0.249997X-2.950003X-2.650003X2.950003X-2.650003X2.950003X2.650003X-2.950003X2.650003X0*%
%ADD42RoundRect,0.317500X1.157500X0.317500X-1.157500X0.317500X-1.157500X-0.317500X1.157500X-0.317500X0*%
%ADD43R,1.400000X1.200000*%
%ADD44C,0.650000*%
%ADD45RoundRect,0.150000X-0.150000X-0.425000X0.150000X-0.425000X0.150000X0.425000X-0.150000X0.425000X0*%
%ADD46RoundRect,0.075000X-0.075000X-0.500000X0.075000X-0.500000X0.075000X0.500000X-0.075000X0.500000X0*%
%ADD47O,1.000000X2.100000*%
%ADD48O,1.000000X1.800000*%
%ADD49C,4.500000*%
%ADD50O,1.500000X2.000000*%
%ADD51C,6.000000*%
%ADD52RoundRect,0.225000X0.225000X0.375000X-0.225000X0.375000X-0.225000X-0.375000X0.225000X-0.375000X0*%
%ADD53R,1.700000X1.700000*%
%ADD54O,1.700000X1.700000*%
%ADD55RoundRect,0.175000X0.725000X0.175000X-0.725000X0.175000X-0.725000X-0.175000X0.725000X-0.175000X0*%
%ADD56RoundRect,0.200000X0.700000X0.200000X-0.700000X0.200000X-0.700000X-0.200000X0.700000X-0.200000X0*%
%ADD57RoundRect,0.250000X0.550000X-1.500000X0.550000X1.500000X-0.550000X1.500000X-0.550000X-1.500000X0*%
%ADD58R,1.910000X0.610000*%
%ADD59R,1.205000X1.550000*%
%ADD60R,0.800000X1.000000*%
%ADD61C,0.900000*%
%ADD62R,1.500000X0.700000*%
%ADD63R,2.475000X3.000000*%
%ADD64FreePoly0,0.000000*%
%ADD65FreePoly1,0.000000*%
G04 APERTURE END LIST*
D10*
%TO.C,RF2*%
X164000000Y-34000000D03*
X164000000Y-36000000D03*
X164000000Y-38000000D03*
X164000000Y-40000000D03*
X164000000Y-42000000D03*
X164000000Y-44000000D03*
X164000000Y-46000000D03*
X164000000Y-48000000D03*
X148000000Y-48000000D03*
X148000000Y-46000000D03*
X148000000Y-44000000D03*
X148000000Y-42000000D03*
X148000000Y-40000000D03*
X148000000Y-38000000D03*
X148000000Y-36000000D03*
X148000000Y-34000000D03*
%TD*%
D11*
%TO.C,C6*%
X80682500Y-94030000D03*
X82582500Y-94030000D03*
%TD*%
D12*
%TO.C,R9*%
X88782500Y-89442500D03*
X88782500Y-87617500D03*
%TD*%
D13*
%TO.C,U7*%
X133193369Y-109175000D03*
X134143369Y-109175000D03*
X135093369Y-109175000D03*
X135093369Y-106900000D03*
X134143369Y-106900000D03*
X133193369Y-106900000D03*
%TD*%
D14*
%TO.C,D6*%
X105437500Y-26800000D03*
X103562500Y-26800000D03*
%TD*%
D11*
%TO.C,C45*%
X135050000Y-32400000D03*
X136950000Y-32400000D03*
%TD*%
D14*
%TO.C,D17*%
X150217500Y-99870000D03*
X148342500Y-99870000D03*
%TD*%
D11*
%TO.C,C15*%
X111300000Y-40100000D03*
X113200000Y-40100000D03*
%TD*%
D14*
%TO.C,D4*%
X136937500Y-27300000D03*
X135062500Y-27300000D03*
%TD*%
D12*
%TO.C,R11*%
X151200000Y-73212500D03*
X151200000Y-71387500D03*
%TD*%
D15*
%TO.C,D16*%
X133562500Y-76500000D03*
X135437500Y-76500000D03*
%TD*%
D16*
%TO.C,C14*%
X80100000Y-50900000D03*
X80100000Y-56500000D03*
%TD*%
D17*
%TO.C,R21*%
X127443369Y-110325000D03*
X127443369Y-112150000D03*
%TD*%
D18*
%TO.C,D2*%
X76482500Y-101067500D03*
X76482500Y-99192500D03*
%TD*%
D19*
%TO.C,C1*%
X88300000Y-80800000D03*
X88300000Y-82700000D03*
%TD*%
D20*
%TO.C,TP1*%
X163600000Y-76700000D03*
%TD*%
D21*
%TO.C,R24*%
X95787500Y-71400000D03*
X97612500Y-71400000D03*
%TD*%
D22*
%TO.C,C48*%
X145380000Y-90140000D03*
X139780000Y-90140000D03*
%TD*%
D20*
%TO.C,TP4*%
X151800000Y-64900000D03*
%TD*%
D23*
%TO.C,C47*%
X148340000Y-95220000D03*
X148340000Y-93320000D03*
%TD*%
D24*
%TO.C,R15*%
X105412500Y-29400000D03*
X103587500Y-29400000D03*
%TD*%
D11*
%TO.C,C38*%
X103550000Y-32000000D03*
X105450000Y-32000000D03*
%TD*%
%TO.C,C42*%
X170650000Y-70800000D03*
X172550000Y-70800000D03*
%TD*%
D21*
%TO.C,R30*%
X133587500Y-74500000D03*
X135412500Y-74500000D03*
%TD*%
D19*
%TO.C,C44*%
X172100000Y-39962500D03*
X172100000Y-41862500D03*
%TD*%
D24*
%TO.C,R12*%
X136912500Y-29800000D03*
X135087500Y-29800000D03*
%TD*%
D25*
%TO.C,J6*%
X143000000Y-26000000D03*
D26*
X140460000Y-23460000D03*
X145540000Y-23460000D03*
X140460000Y-28540000D03*
X145540000Y-28540000D03*
%TD*%
D17*
%TO.C,R6*%
X77800000Y-90517500D03*
X77800000Y-92342500D03*
%TD*%
%TO.C,R18*%
X169900000Y-43687500D03*
X169900000Y-45512500D03*
%TD*%
D20*
%TO.C,TP6*%
X145000000Y-111100000D03*
%TD*%
D21*
%TO.C,R25*%
X95787500Y-73700000D03*
X97612500Y-73700000D03*
%TD*%
D19*
%TO.C,C43*%
X161700000Y-80450000D03*
X161700000Y-82350000D03*
%TD*%
D23*
%TO.C,C46*%
X134620000Y-97490000D03*
X134620000Y-95590000D03*
%TD*%
D11*
%TO.C,C21*%
X111300000Y-42200000D03*
X113200000Y-42200000D03*
%TD*%
D27*
%TO.C,JP1*%
X127463369Y-108567500D03*
D28*
X127463369Y-107247500D03*
%TD*%
D12*
%TO.C,R26*%
X158900000Y-82312500D03*
X158900000Y-80487500D03*
%TD*%
D29*
%TO.C,C8*%
X86850000Y-98875000D03*
X92450000Y-98875000D03*
%TD*%
D11*
%TO.C,C33*%
X142563915Y-43002618D03*
X144463915Y-43002618D03*
%TD*%
D23*
%TO.C,C25*%
X115200000Y-75150000D03*
X115200000Y-73250000D03*
%TD*%
D17*
%TO.C,R2*%
X140843369Y-113925000D03*
X140843369Y-115750000D03*
%TD*%
D30*
%TO.C,C20*%
X172550000Y-64200000D03*
X170650000Y-64200000D03*
%TD*%
D17*
%TO.C,R3*%
X107200000Y-87175000D03*
X107200000Y-89000000D03*
%TD*%
D19*
%TO.C,C29*%
X127000000Y-77650000D03*
X127000000Y-79550000D03*
%TD*%
D21*
%TO.C,R22*%
X95787500Y-66700000D03*
X97612500Y-66700000D03*
%TD*%
D23*
%TO.C,C30*%
X131200000Y-79550000D03*
X131200000Y-77650000D03*
%TD*%
D19*
%TO.C,C23*%
X131700000Y-62850000D03*
X131700000Y-64750000D03*
%TD*%
D31*
%TO.C,H2*%
X169025000Y-114300000D03*
%TD*%
D24*
%TO.C,R28*%
X105412500Y-34600000D03*
X103587500Y-34600000D03*
%TD*%
D19*
%TO.C,C28*%
X124900000Y-77650000D03*
X124900000Y-79550000D03*
%TD*%
D32*
%TO.C,U1*%
X80520000Y-80740000D03*
D33*
X82800000Y-74440000D03*
D32*
X85080000Y-80740000D03*
%TD*%
D34*
%TO.C,U6*%
X117825000Y-65250000D03*
X117825000Y-65750000D03*
X117825000Y-66250000D03*
X117825000Y-66750000D03*
X117825000Y-67250000D03*
X117825000Y-67750000D03*
X117825000Y-68250000D03*
X117825000Y-68750000D03*
X117825000Y-69250000D03*
X117825000Y-69750000D03*
X117825000Y-70250000D03*
X117825000Y-70750000D03*
X117825000Y-71250000D03*
X117825000Y-71750000D03*
X117825000Y-72250000D03*
X117825000Y-72750000D03*
D35*
X119750000Y-74675000D03*
X120250000Y-74675000D03*
X120750000Y-74675000D03*
X121250000Y-74675000D03*
X121750000Y-74675000D03*
X122250000Y-74675000D03*
X122750000Y-74675000D03*
X123250000Y-74675000D03*
X123750000Y-74675000D03*
X124250000Y-74675000D03*
X124750000Y-74675000D03*
X125250000Y-74675000D03*
X125750000Y-74675000D03*
X126250000Y-74675000D03*
X126750000Y-74675000D03*
X127250000Y-74675000D03*
D34*
X129175000Y-72750000D03*
X129175000Y-72250000D03*
X129175000Y-71750000D03*
X129175000Y-71250000D03*
X129175000Y-70750000D03*
X129175000Y-70250000D03*
X129175000Y-69750000D03*
X129175000Y-69250000D03*
X129175000Y-68750000D03*
X129175000Y-68250000D03*
X129175000Y-67750000D03*
X129175000Y-67250000D03*
X129175000Y-66750000D03*
X129175000Y-66250000D03*
X129175000Y-65750000D03*
X129175000Y-65250000D03*
D35*
X127250000Y-63325000D03*
X126750000Y-63325000D03*
X126250000Y-63325000D03*
X125750000Y-63325000D03*
X125250000Y-63325000D03*
X124750000Y-63325000D03*
X124250000Y-63325000D03*
X123750000Y-63325000D03*
X123250000Y-63325000D03*
X122750000Y-63325000D03*
X122250000Y-63325000D03*
X121750000Y-63325000D03*
X121250000Y-63325000D03*
X120750000Y-63325000D03*
X120250000Y-63325000D03*
X119750000Y-63325000D03*
%TD*%
D36*
%TO.C,SW4*%
X139500000Y-77970000D03*
X146000000Y-77970000D03*
X139500000Y-82470000D03*
X146000000Y-82470000D03*
%TD*%
D21*
%TO.C,R20*%
X95787500Y-64400000D03*
X97612500Y-64400000D03*
%TD*%
D15*
%TO.C,D14*%
X91862500Y-71400000D03*
X93737500Y-71400000D03*
%TD*%
%TO.C,D15*%
X91850000Y-73700000D03*
X93725000Y-73700000D03*
%TD*%
D37*
%TO.C,J9*%
X153200000Y-112700000D03*
X153200000Y-111600000D03*
X153200000Y-110500000D03*
X153200000Y-109400000D03*
X153200000Y-108300000D03*
X153200000Y-107200000D03*
X153200000Y-106100000D03*
X153200000Y-105000000D03*
D38*
X158900000Y-102625000D03*
X158900000Y-116375000D03*
X150600000Y-102625000D03*
X150600000Y-116375000D03*
%TD*%
D22*
%TO.C,C4*%
X85600000Y-65000000D03*
X80000000Y-65000000D03*
%TD*%
D17*
%TO.C,R4*%
X76482500Y-95317500D03*
X76482500Y-97142500D03*
%TD*%
D15*
%TO.C,D13*%
X91862500Y-69000000D03*
X93737500Y-69000000D03*
%TD*%
%TO.C,D12*%
X91862500Y-66700000D03*
X93737500Y-66700000D03*
%TD*%
D36*
%TO.C,SW6*%
X125330000Y-23400000D03*
X131830000Y-23400000D03*
X125330000Y-27900000D03*
X131830000Y-27900000D03*
%TD*%
D30*
%TO.C,C36*%
X116950000Y-86300000D03*
X115050000Y-86300000D03*
%TD*%
D20*
%TO.C,TP5*%
X145000000Y-114500000D03*
%TD*%
D19*
%TO.C,C22*%
X133900000Y-62850000D03*
X133900000Y-64750000D03*
%TD*%
D20*
%TO.C,TP2*%
X157000000Y-76700000D03*
%TD*%
D16*
%TO.C,C17*%
X112000000Y-50900000D03*
X112000000Y-56500000D03*
%TD*%
D30*
%TO.C,C18*%
X172550000Y-62000000D03*
X170650000Y-62000000D03*
%TD*%
D12*
%TO.C,R27*%
X169900000Y-41812500D03*
X169900000Y-39987500D03*
%TD*%
D39*
%TO.C,D10*%
X125243369Y-110300000D03*
X125243369Y-112175000D03*
%TD*%
D17*
%TO.C,R10*%
X76500000Y-73875000D03*
X76500000Y-75700000D03*
%TD*%
D40*
%TO.C,U2*%
X137510000Y-95045000D03*
D41*
X143810000Y-97325000D03*
D40*
X137510000Y-99605000D03*
%TD*%
D17*
%TO.C,FB2*%
X129100000Y-77687500D03*
X129100000Y-79512500D03*
%TD*%
D24*
%TO.C,R29*%
X136912500Y-34800000D03*
X135087500Y-34800000D03*
%TD*%
D15*
%TO.C,D11*%
X91862500Y-64400000D03*
X93737500Y-64400000D03*
%TD*%
D42*
%TO.C,RF4*%
X132025000Y-47500000D03*
X132025000Y-45500000D03*
X132025000Y-43500000D03*
X132025000Y-41500000D03*
X132025000Y-39500000D03*
X132025000Y-37500000D03*
X132025000Y-35500000D03*
X132025000Y-33500000D03*
X116975000Y-33500000D03*
X116975000Y-35500000D03*
X116975000Y-37500000D03*
X116975000Y-39500000D03*
X116975000Y-41500000D03*
X116975000Y-43500000D03*
X116975000Y-45500000D03*
X116975000Y-47500000D03*
%TD*%
D43*
%TO.C,X1*%
X109500000Y-71350000D03*
X111700000Y-71350000D03*
X111700000Y-69650000D03*
X109500000Y-69650000D03*
%TD*%
D36*
%TO.C,SW2*%
X122150000Y-95450000D03*
X122150000Y-88950000D03*
X126650000Y-95450000D03*
X126650000Y-88950000D03*
%TD*%
D11*
%TO.C,C16*%
X79100000Y-40400000D03*
X81000000Y-40400000D03*
%TD*%
D18*
%TO.C,D5*%
X139343369Y-109462500D03*
X139343369Y-107587500D03*
%TD*%
D16*
%TO.C,C32*%
X144300000Y-50900000D03*
X144300000Y-56500000D03*
%TD*%
D44*
%TO.C,J8*%
X131253369Y-113032500D03*
X137033369Y-113032500D03*
D45*
X130943369Y-111957500D03*
X131743369Y-111957500D03*
D46*
X132893369Y-111957500D03*
X133893369Y-111957500D03*
X134393369Y-111957500D03*
X135393369Y-111957500D03*
D45*
X136543369Y-111957500D03*
X137343369Y-111957500D03*
X137343369Y-111957500D03*
X136543369Y-111957500D03*
D46*
X135893369Y-111957500D03*
X134893369Y-111957500D03*
X133393369Y-111957500D03*
X132393369Y-111957500D03*
D45*
X131743369Y-111957500D03*
X130943369Y-111957500D03*
D47*
X129823369Y-112532500D03*
D48*
X129823369Y-116712500D03*
D47*
X138463369Y-112532500D03*
D48*
X138463369Y-116712500D03*
%TD*%
D11*
%TO.C,C41*%
X144050000Y-104700000D03*
X145950000Y-104700000D03*
%TD*%
D23*
%TO.C,C24*%
X115500000Y-65250000D03*
X115500000Y-63350000D03*
%TD*%
D49*
%TO.C,J1*%
X86427000Y-107319000D03*
X119727000Y-107319000D03*
D50*
X101677000Y-106679000D03*
X104447000Y-106624000D03*
X100292000Y-109519000D03*
X103062000Y-109519000D03*
X105832000Y-109519000D03*
D51*
X96190000Y-106719000D03*
X109910000Y-106719000D03*
%TD*%
D30*
%TO.C,C37*%
X125150000Y-86300000D03*
X123250000Y-86300000D03*
%TD*%
D40*
%TO.C,U4*%
X95475000Y-87745000D03*
D41*
X101775000Y-90025000D03*
D40*
X95475000Y-92305000D03*
%TD*%
D18*
%TO.C,D1*%
X107200000Y-92925000D03*
X107200000Y-91050000D03*
%TD*%
D52*
%TO.C,D7*%
X159750000Y-88100000D03*
X156450000Y-88100000D03*
%TD*%
D31*
%TO.C,H4*%
X79025000Y-114300000D03*
%TD*%
D21*
%TO.C,R23*%
X95787500Y-69000000D03*
X97612500Y-69000000D03*
%TD*%
D36*
%TO.C,SW3*%
X93930000Y-23360000D03*
X100430000Y-23360000D03*
X93930000Y-27860000D03*
X100430000Y-27860000D03*
%TD*%
D53*
%TO.C,J4*%
X172170000Y-75020000D03*
D54*
X172170000Y-77560000D03*
%TD*%
D55*
%TO.C,RF1*%
X166150000Y-73600000D03*
D56*
X166150000Y-72500000D03*
X166150000Y-71400000D03*
X166150000Y-70300000D03*
X166150000Y-69200000D03*
X166150000Y-68100000D03*
X166150000Y-67000000D03*
X166150000Y-65900000D03*
D55*
X166150000Y-64800000D03*
X156650000Y-64800000D03*
D56*
X156650000Y-65900000D03*
X156650000Y-67000000D03*
X156650000Y-68100000D03*
X156650000Y-69200000D03*
X156650000Y-70300000D03*
X156650000Y-71400000D03*
X156650000Y-72500000D03*
D55*
X156650000Y-73600000D03*
%TD*%
D20*
%TO.C,TP3*%
X151900000Y-68300000D03*
%TD*%
D57*
%TO.C,C3*%
X96100000Y-83000000D03*
X96100000Y-77400000D03*
%TD*%
D58*
%TO.C,U3*%
X80700000Y-88330000D03*
X80700000Y-89600000D03*
X80700000Y-90870000D03*
X80700000Y-92140000D03*
X86260000Y-92140000D03*
X86260000Y-90870000D03*
X86260000Y-89600000D03*
X86260000Y-88330000D03*
D59*
X82877500Y-89460000D03*
X82877500Y-91010000D03*
X84082500Y-89460000D03*
X84082500Y-91010000D03*
%TD*%
D31*
%TO.C,H3*%
X79025000Y-24300000D03*
%TD*%
D11*
%TO.C,C10*%
X100950000Y-85300000D03*
X102850000Y-85300000D03*
%TD*%
%TO.C,C19*%
X79150000Y-42800000D03*
X81050000Y-42800000D03*
%TD*%
D27*
%TO.C,JP2*%
X123120000Y-79230000D03*
D28*
X123120000Y-77910000D03*
%TD*%
D36*
%TO.C,SW1*%
X113650000Y-95450000D03*
X113650000Y-88950000D03*
X118150000Y-95450000D03*
X118150000Y-88950000D03*
%TD*%
D18*
%TO.C,D8*%
X166400000Y-81637500D03*
X166400000Y-79762500D03*
%TD*%
D21*
%TO.C,R7*%
X80270000Y-86130000D03*
X82095000Y-86130000D03*
%TD*%
D60*
%TO.C,SW7*%
X110050000Y-78000000D03*
X107840000Y-78000000D03*
D61*
X108940000Y-80150000D03*
X108940000Y-83150000D03*
D60*
X110050000Y-85300000D03*
X107840000Y-85300000D03*
D62*
X110700000Y-79400000D03*
X110700000Y-82400000D03*
X110700000Y-83900000D03*
%TD*%
D17*
%TO.C,R17*%
X166400000Y-75887500D03*
X166400000Y-77712500D03*
%TD*%
D22*
%TO.C,C31*%
X168600000Y-58900000D03*
X163000000Y-58900000D03*
%TD*%
D23*
%TO.C,C27*%
X118100000Y-62750000D03*
X118100000Y-60850000D03*
%TD*%
D42*
%TO.C,RF3*%
X99525000Y-47500000D03*
X99525000Y-45500000D03*
X99525000Y-43500000D03*
X99525000Y-41500000D03*
X99525000Y-39500000D03*
X99525000Y-37500000D03*
X99525000Y-35500000D03*
X99525000Y-33500000D03*
X84475000Y-33500000D03*
X84475000Y-35500000D03*
X84475000Y-37500000D03*
X84475000Y-39500000D03*
X84475000Y-41500000D03*
X84475000Y-43500000D03*
X84475000Y-45500000D03*
X84475000Y-47500000D03*
%TD*%
D31*
%TO.C,H1*%
X169025000Y-24300000D03*
%TD*%
D21*
%TO.C,R16*%
X161587500Y-88100000D03*
X163412500Y-88100000D03*
%TD*%
D18*
%TO.C,D3*%
X76500000Y-79625000D03*
X76500000Y-77750000D03*
%TD*%
D36*
%TO.C,SW5*%
X167590000Y-37290000D03*
X167590000Y-30790000D03*
X172090000Y-37290000D03*
X172090000Y-30790000D03*
%TD*%
D19*
%TO.C,C9*%
X92700000Y-92350000D03*
X92700000Y-94250000D03*
%TD*%
%TO.C,C26*%
X129900000Y-74050000D03*
X129900000Y-75950000D03*
%TD*%
D30*
%TO.C,C34*%
X172550000Y-68600000D03*
X170650000Y-68600000D03*
%TD*%
%TO.C,C35*%
X172550000Y-66400000D03*
X170650000Y-66400000D03*
%TD*%
D25*
%TO.C,J5*%
X155500000Y-58800000D03*
D26*
X158040000Y-61340000D03*
X152960000Y-61340000D03*
X158040000Y-56260000D03*
X152960000Y-56260000D03*
%TD*%
D12*
%TO.C,R14*%
X141843369Y-109437500D03*
X141843369Y-107612500D03*
%TD*%
D63*
%TO.C,JP4*%
X123150000Y-50900000D03*
X128525000Y-50900000D03*
%TD*%
D25*
%TO.C,J3*%
X119500000Y-26000000D03*
D26*
X116960000Y-23460000D03*
X122040000Y-23460000D03*
X116960000Y-28540000D03*
X122040000Y-28540000D03*
%TD*%
D25*
%TO.C,J2*%
X87000000Y-25500000D03*
D26*
X89540000Y-28040000D03*
X84460000Y-28040000D03*
X89540000Y-22960000D03*
X84460000Y-22960000D03*
%TD*%
D64*
%TO.C,JP3*%
X90920000Y-90750000D03*
D65*
X92240000Y-90750000D03*
%TD*%
D23*
%TO.C,C11*%
X107200000Y-71450000D03*
X107200000Y-69550000D03*
%TD*%
D12*
%TO.C,R13*%
X153400000Y-75812500D03*
X153400000Y-73987500D03*
%TD*%
D11*
%TO.C,C12*%
X142550000Y-40900000D03*
X144450000Y-40900000D03*
%TD*%
D17*
%TO.C,R1*%
X127443369Y-113925000D03*
X127443369Y-115750000D03*
%TD*%
D24*
%TO.C,R31*%
X150200000Y-97835000D03*
X148375000Y-97835000D03*
%TD*%
D39*
%TO.C,D9*%
X172100000Y-43637500D03*
X172100000Y-45512500D03*
%TD*%
D21*
%TO.C,R8*%
X84870000Y-86130000D03*
X86695000Y-86130000D03*
%TD*%
D23*
%TO.C,C7*%
X77800000Y-88480000D03*
X77800000Y-86580000D03*
%TD*%
D11*
%TO.C,C2*%
X86450000Y-69600000D03*
X88350000Y-69600000D03*
%TD*%
%TO.C,C39*%
X144050000Y-107200000D03*
X145950000Y-107200000D03*
%TD*%
M02*
