M48
; DRILL file {KiCad 8.0.6} date 2025-02-22T02:59:50-0500
; FORMAT={-:-/ absolute / metric / decimal}
; #@! TF.CreationDate,2025-02-22T02:59:50-05:00
; #@! TF.GenerationSoftware,Kicad,Pcbnew,8.0.6
; #@! TF.FileFunction,Plated,1,2,PTH
FMAT,2
METRIC
; #@! TA.AperFunction,Plated,PTH,ViaDrill
T1C0.300
; #@! TA.AperFunction,Plated,PTH,ViaDrill
T2C0.400
; #@! TA.AperFunction,Plated,PTH,ComponentDrill
T3C1.020
; #@! TA.AperFunction,Plated,PTH,ComponentDrill
T4C1.100
; #@! TA.AperFunction,Plated,PTH,ComponentDrill
T5C1.250
; #@! TA.AperFunction,Plated,PTH,ComponentDrill
T6C3.200
%
G90
G05
T1
X114.2Y-59.9
X114.2Y-61.9
X115.6Y-58.1
X115.6Y-63.3
X116.8Y-69.55
X117.2Y-58.1
X117.2Y-63.3
X119.0Y-58.1
X119.0Y-63.3
X120.7Y-67.5
X120.7Y-70.5
X120.7Y-73.4
X120.8Y-58.1
X120.8Y-63.3
X122.8Y-58.1
X122.8Y-63.3
X124.6Y-58.1
X124.65Y-78.7
X125.45Y-70.25
X126.8Y-78.7
X127.4Y-82.1
X127.6Y-63.8
X127.9Y-67.9
X128.2Y-58.1
X129.15Y-79.0
X129.6Y-70.35
X130.2Y-58.1
X130.8Y-59.55
X131.45Y-62.25
X132.4Y-82.7
X132.8Y-59.1
X133.1Y-78.8
X134.7Y-76.5
X135.4Y-60.1
X136.8Y-78.5
X137.1Y-75.4
X137.5Y-67.1
X138.7Y-73.0
X139.4Y-69.0
X139.8Y-65.5
X140.2Y-75.6
X140.8Y-71.1
X141.3Y-66.8
X142.0Y-78.6
X142.7Y-64.2
X145.2Y-64.9
X146.4Y-78.7
X147.0Y-69.1
X147.2Y-73.9
X149.0Y-65.5
X151.8Y-78.7
X155.6Y-73.7
X155.8Y-68.7
T2
X127.0Y-66.6
T3
X119.2Y-69.1
X119.2Y-72.1
X119.2Y-75.1
X122.2Y-69.1
X122.2Y-72.1
X122.2Y-75.1
T4
X117.84Y-60.5
X128.0Y-60.5
T5
X142.85Y-71.5
X144.24Y-68.14
X144.24Y-74.86
X150.96Y-68.14
X150.96Y-74.86
X152.35Y-71.5
T6
X139.4Y-60.6
X139.4Y-82.2
X163.2Y-71.7
M30
