%TF.GenerationSoftware,KiCad,Pcbnew,8.0.6*%
%TF.CreationDate,2025-02-22T02:59:51-05:00*%
%TF.ProjectId,modular sensor,6d6f6475-6c61-4722-9073-656e736f722e,1.0*%
%TF.SameCoordinates,Original*%
%TF.FileFunction,Drillmap*%
%TF.FilePolarity,Positive*%
%FSLAX45Y45*%
G04 Gerber Fmt 4.5, Leading zero omitted, Abs format (unit mm)*
G04 Created by KiCad (PCBNEW 8.0.6) date 2025-02-22 02:59:51*
%MOMM*%
%LPD*%
G01*
G04 APERTURE LIST*
%ADD10C,0.100000*%
%ADD11C,0.200000*%
%ADD12C,0.300000*%
G04 APERTURE END LIST*
D10*
X11100000Y-5650000D02*
X16600723Y-5650000D01*
X10850000Y-5900000D02*
G75*
G02*
X11100000Y-5650000I250000J0D01*
G01*
X16850000Y-5899277D02*
X16850000Y-8401000D01*
X16850000Y-8401000D02*
G75*
G02*
X16601000Y-8650000I-249000J0D01*
G01*
X16601000Y-8650000D02*
X11099000Y-8649277D01*
X10849723Y-8400000D02*
X10850000Y-5900000D01*
X16600723Y-5650000D02*
G75*
G02*
X16850000Y-5899277I-3J-249280D01*
G01*
X11099000Y-8649277D02*
G75*
G02*
X10849723Y-8400000I0J249277D01*
G01*
D11*
D12*
X11338000Y-7060000D02*
X11638000Y-7360000D01*
X11638000Y-7060000D02*
X11338000Y-7360000D01*
D11*
X11105500Y-8966484D02*
X11105500Y-8766484D01*
X11105500Y-8766484D02*
X11153119Y-8766484D01*
X11153119Y-8766484D02*
X11181690Y-8776008D01*
X11181690Y-8776008D02*
X11200738Y-8795055D01*
X11200738Y-8795055D02*
X11210262Y-8814103D01*
X11210262Y-8814103D02*
X11219786Y-8852198D01*
X11219786Y-8852198D02*
X11219786Y-8880770D01*
X11219786Y-8880770D02*
X11210262Y-8918865D01*
X11210262Y-8918865D02*
X11200738Y-8937912D01*
X11200738Y-8937912D02*
X11181690Y-8956960D01*
X11181690Y-8956960D02*
X11153119Y-8966484D01*
X11153119Y-8966484D02*
X11105500Y-8966484D01*
X11305500Y-8966484D02*
X11305500Y-8833150D01*
X11305500Y-8871246D02*
X11315024Y-8852198D01*
X11315024Y-8852198D02*
X11324547Y-8842674D01*
X11324547Y-8842674D02*
X11343595Y-8833150D01*
X11343595Y-8833150D02*
X11362643Y-8833150D01*
X11429309Y-8966484D02*
X11429309Y-8833150D01*
X11429309Y-8766484D02*
X11419786Y-8776008D01*
X11419786Y-8776008D02*
X11429309Y-8785531D01*
X11429309Y-8785531D02*
X11438833Y-8776008D01*
X11438833Y-8776008D02*
X11429309Y-8766484D01*
X11429309Y-8766484D02*
X11429309Y-8785531D01*
X11553119Y-8966484D02*
X11534071Y-8956960D01*
X11534071Y-8956960D02*
X11524547Y-8937912D01*
X11524547Y-8937912D02*
X11524547Y-8766484D01*
X11657881Y-8966484D02*
X11638833Y-8956960D01*
X11638833Y-8956960D02*
X11629309Y-8937912D01*
X11629309Y-8937912D02*
X11629309Y-8766484D01*
X11886452Y-8966484D02*
X11886452Y-8766484D01*
X11886452Y-8766484D02*
X11953119Y-8909341D01*
X11953119Y-8909341D02*
X12019786Y-8766484D01*
X12019786Y-8766484D02*
X12019786Y-8966484D01*
X12200738Y-8966484D02*
X12200738Y-8861722D01*
X12200738Y-8861722D02*
X12191214Y-8842674D01*
X12191214Y-8842674D02*
X12172167Y-8833150D01*
X12172167Y-8833150D02*
X12134071Y-8833150D01*
X12134071Y-8833150D02*
X12115024Y-8842674D01*
X12200738Y-8956960D02*
X12181690Y-8966484D01*
X12181690Y-8966484D02*
X12134071Y-8966484D01*
X12134071Y-8966484D02*
X12115024Y-8956960D01*
X12115024Y-8956960D02*
X12105500Y-8937912D01*
X12105500Y-8937912D02*
X12105500Y-8918865D01*
X12105500Y-8918865D02*
X12115024Y-8899817D01*
X12115024Y-8899817D02*
X12134071Y-8890293D01*
X12134071Y-8890293D02*
X12181690Y-8890293D01*
X12181690Y-8890293D02*
X12200738Y-8880770D01*
X12295976Y-8833150D02*
X12295976Y-9033150D01*
X12295976Y-8842674D02*
X12315024Y-8833150D01*
X12315024Y-8833150D02*
X12353119Y-8833150D01*
X12353119Y-8833150D02*
X12372167Y-8842674D01*
X12372167Y-8842674D02*
X12381690Y-8852198D01*
X12381690Y-8852198D02*
X12391214Y-8871246D01*
X12391214Y-8871246D02*
X12391214Y-8928389D01*
X12391214Y-8928389D02*
X12381690Y-8947436D01*
X12381690Y-8947436D02*
X12372167Y-8956960D01*
X12372167Y-8956960D02*
X12353119Y-8966484D01*
X12353119Y-8966484D02*
X12315024Y-8966484D01*
X12315024Y-8966484D02*
X12295976Y-8956960D01*
X12476928Y-8947436D02*
X12486452Y-8956960D01*
X12486452Y-8956960D02*
X12476928Y-8966484D01*
X12476928Y-8966484D02*
X12467405Y-8956960D01*
X12467405Y-8956960D02*
X12476928Y-8947436D01*
X12476928Y-8947436D02*
X12476928Y-8966484D01*
X12476928Y-8842674D02*
X12486452Y-8852198D01*
X12486452Y-8852198D02*
X12476928Y-8861722D01*
X12476928Y-8861722D02*
X12467405Y-8852198D01*
X12467405Y-8852198D02*
X12476928Y-8842674D01*
X12476928Y-8842674D02*
X12476928Y-8861722D01*
X10644723Y-9195000D02*
X10844723Y-9395000D01*
X10844723Y-9195000D02*
X10644723Y-9395000D01*
X11086452Y-9186484D02*
X11210262Y-9186484D01*
X11210262Y-9186484D02*
X11143595Y-9262674D01*
X11143595Y-9262674D02*
X11172167Y-9262674D01*
X11172167Y-9262674D02*
X11191214Y-9272198D01*
X11191214Y-9272198D02*
X11200738Y-9281722D01*
X11200738Y-9281722D02*
X11210262Y-9300770D01*
X11210262Y-9300770D02*
X11210262Y-9348389D01*
X11210262Y-9348389D02*
X11200738Y-9367436D01*
X11200738Y-9367436D02*
X11191214Y-9376960D01*
X11191214Y-9376960D02*
X11172167Y-9386484D01*
X11172167Y-9386484D02*
X11115024Y-9386484D01*
X11115024Y-9386484D02*
X11095976Y-9376960D01*
X11095976Y-9376960D02*
X11086452Y-9367436D01*
X11295976Y-9367436D02*
X11305500Y-9376960D01*
X11305500Y-9376960D02*
X11295976Y-9386484D01*
X11295976Y-9386484D02*
X11286452Y-9376960D01*
X11286452Y-9376960D02*
X11295976Y-9367436D01*
X11295976Y-9367436D02*
X11295976Y-9386484D01*
X11429309Y-9186484D02*
X11448357Y-9186484D01*
X11448357Y-9186484D02*
X11467405Y-9196008D01*
X11467405Y-9196008D02*
X11476928Y-9205531D01*
X11476928Y-9205531D02*
X11486452Y-9224579D01*
X11486452Y-9224579D02*
X11495976Y-9262674D01*
X11495976Y-9262674D02*
X11495976Y-9310293D01*
X11495976Y-9310293D02*
X11486452Y-9348389D01*
X11486452Y-9348389D02*
X11476928Y-9367436D01*
X11476928Y-9367436D02*
X11467405Y-9376960D01*
X11467405Y-9376960D02*
X11448357Y-9386484D01*
X11448357Y-9386484D02*
X11429309Y-9386484D01*
X11429309Y-9386484D02*
X11410262Y-9376960D01*
X11410262Y-9376960D02*
X11400738Y-9367436D01*
X11400738Y-9367436D02*
X11391214Y-9348389D01*
X11391214Y-9348389D02*
X11381690Y-9310293D01*
X11381690Y-9310293D02*
X11381690Y-9262674D01*
X11381690Y-9262674D02*
X11391214Y-9224579D01*
X11391214Y-9224579D02*
X11400738Y-9205531D01*
X11400738Y-9205531D02*
X11410262Y-9196008D01*
X11410262Y-9196008D02*
X11429309Y-9186484D01*
X11619786Y-9186484D02*
X11638833Y-9186484D01*
X11638833Y-9186484D02*
X11657881Y-9196008D01*
X11657881Y-9196008D02*
X11667405Y-9205531D01*
X11667405Y-9205531D02*
X11676928Y-9224579D01*
X11676928Y-9224579D02*
X11686452Y-9262674D01*
X11686452Y-9262674D02*
X11686452Y-9310293D01*
X11686452Y-9310293D02*
X11676928Y-9348389D01*
X11676928Y-9348389D02*
X11667405Y-9367436D01*
X11667405Y-9367436D02*
X11657881Y-9376960D01*
X11657881Y-9376960D02*
X11638833Y-9386484D01*
X11638833Y-9386484D02*
X11619786Y-9386484D01*
X11619786Y-9386484D02*
X11600738Y-9376960D01*
X11600738Y-9376960D02*
X11591214Y-9367436D01*
X11591214Y-9367436D02*
X11581690Y-9348389D01*
X11581690Y-9348389D02*
X11572167Y-9310293D01*
X11572167Y-9310293D02*
X11572167Y-9262674D01*
X11572167Y-9262674D02*
X11581690Y-9224579D01*
X11581690Y-9224579D02*
X11591214Y-9205531D01*
X11591214Y-9205531D02*
X11600738Y-9196008D01*
X11600738Y-9196008D02*
X11619786Y-9186484D01*
X11810262Y-9186484D02*
X11829309Y-9186484D01*
X11829309Y-9186484D02*
X11848357Y-9196008D01*
X11848357Y-9196008D02*
X11857881Y-9205531D01*
X11857881Y-9205531D02*
X11867405Y-9224579D01*
X11867405Y-9224579D02*
X11876928Y-9262674D01*
X11876928Y-9262674D02*
X11876928Y-9310293D01*
X11876928Y-9310293D02*
X11867405Y-9348389D01*
X11867405Y-9348389D02*
X11857881Y-9367436D01*
X11857881Y-9367436D02*
X11848357Y-9376960D01*
X11848357Y-9376960D02*
X11829309Y-9386484D01*
X11829309Y-9386484D02*
X11810262Y-9386484D01*
X11810262Y-9386484D02*
X11791214Y-9376960D01*
X11791214Y-9376960D02*
X11781690Y-9367436D01*
X11781690Y-9367436D02*
X11772167Y-9348389D01*
X11772167Y-9348389D02*
X11762643Y-9310293D01*
X11762643Y-9310293D02*
X11762643Y-9262674D01*
X11762643Y-9262674D02*
X11772167Y-9224579D01*
X11772167Y-9224579D02*
X11781690Y-9205531D01*
X11781690Y-9205531D02*
X11791214Y-9196008D01*
X11791214Y-9196008D02*
X11810262Y-9186484D01*
X11962643Y-9386484D02*
X11962643Y-9253150D01*
X11962643Y-9272198D02*
X11972167Y-9262674D01*
X11972167Y-9262674D02*
X11991214Y-9253150D01*
X11991214Y-9253150D02*
X12019786Y-9253150D01*
X12019786Y-9253150D02*
X12038833Y-9262674D01*
X12038833Y-9262674D02*
X12048357Y-9281722D01*
X12048357Y-9281722D02*
X12048357Y-9386484D01*
X12048357Y-9281722D02*
X12057881Y-9262674D01*
X12057881Y-9262674D02*
X12076928Y-9253150D01*
X12076928Y-9253150D02*
X12105500Y-9253150D01*
X12105500Y-9253150D02*
X12124548Y-9262674D01*
X12124548Y-9262674D02*
X12134071Y-9281722D01*
X12134071Y-9281722D02*
X12134071Y-9386484D01*
X12229309Y-9386484D02*
X12229309Y-9253150D01*
X12229309Y-9272198D02*
X12238833Y-9262674D01*
X12238833Y-9262674D02*
X12257881Y-9253150D01*
X12257881Y-9253150D02*
X12286452Y-9253150D01*
X12286452Y-9253150D02*
X12305500Y-9262674D01*
X12305500Y-9262674D02*
X12315024Y-9281722D01*
X12315024Y-9281722D02*
X12315024Y-9386484D01*
X12315024Y-9281722D02*
X12324548Y-9262674D01*
X12324548Y-9262674D02*
X12343595Y-9253150D01*
X12343595Y-9253150D02*
X12372167Y-9253150D01*
X12372167Y-9253150D02*
X12391214Y-9262674D01*
X12391214Y-9262674D02*
X12400738Y-9281722D01*
X12400738Y-9281722D02*
X12400738Y-9386484D01*
X12791214Y-9176960D02*
X12619786Y-9434103D01*
X13048357Y-9186484D02*
X13067405Y-9186484D01*
X13067405Y-9186484D02*
X13086452Y-9196008D01*
X13086452Y-9196008D02*
X13095976Y-9205531D01*
X13095976Y-9205531D02*
X13105500Y-9224579D01*
X13105500Y-9224579D02*
X13115024Y-9262674D01*
X13115024Y-9262674D02*
X13115024Y-9310293D01*
X13115024Y-9310293D02*
X13105500Y-9348389D01*
X13105500Y-9348389D02*
X13095976Y-9367436D01*
X13095976Y-9367436D02*
X13086452Y-9376960D01*
X13086452Y-9376960D02*
X13067405Y-9386484D01*
X13067405Y-9386484D02*
X13048357Y-9386484D01*
X13048357Y-9386484D02*
X13029310Y-9376960D01*
X13029310Y-9376960D02*
X13019786Y-9367436D01*
X13019786Y-9367436D02*
X13010262Y-9348389D01*
X13010262Y-9348389D02*
X13000738Y-9310293D01*
X13000738Y-9310293D02*
X13000738Y-9262674D01*
X13000738Y-9262674D02*
X13010262Y-9224579D01*
X13010262Y-9224579D02*
X13019786Y-9205531D01*
X13019786Y-9205531D02*
X13029310Y-9196008D01*
X13029310Y-9196008D02*
X13048357Y-9186484D01*
X13200738Y-9367436D02*
X13210262Y-9376960D01*
X13210262Y-9376960D02*
X13200738Y-9386484D01*
X13200738Y-9386484D02*
X13191214Y-9376960D01*
X13191214Y-9376960D02*
X13200738Y-9367436D01*
X13200738Y-9367436D02*
X13200738Y-9386484D01*
X13400738Y-9386484D02*
X13286452Y-9386484D01*
X13343595Y-9386484D02*
X13343595Y-9186484D01*
X13343595Y-9186484D02*
X13324548Y-9215055D01*
X13324548Y-9215055D02*
X13305500Y-9234103D01*
X13305500Y-9234103D02*
X13286452Y-9243627D01*
X13591214Y-9386484D02*
X13476929Y-9386484D01*
X13534071Y-9386484D02*
X13534071Y-9186484D01*
X13534071Y-9186484D02*
X13515024Y-9215055D01*
X13515024Y-9215055D02*
X13495976Y-9234103D01*
X13495976Y-9234103D02*
X13476929Y-9243627D01*
X13705500Y-9272198D02*
X13686452Y-9262674D01*
X13686452Y-9262674D02*
X13676929Y-9253150D01*
X13676929Y-9253150D02*
X13667405Y-9234103D01*
X13667405Y-9234103D02*
X13667405Y-9224579D01*
X13667405Y-9224579D02*
X13676929Y-9205531D01*
X13676929Y-9205531D02*
X13686452Y-9196008D01*
X13686452Y-9196008D02*
X13705500Y-9186484D01*
X13705500Y-9186484D02*
X13743595Y-9186484D01*
X13743595Y-9186484D02*
X13762643Y-9196008D01*
X13762643Y-9196008D02*
X13772167Y-9205531D01*
X13772167Y-9205531D02*
X13781691Y-9224579D01*
X13781691Y-9224579D02*
X13781691Y-9234103D01*
X13781691Y-9234103D02*
X13772167Y-9253150D01*
X13772167Y-9253150D02*
X13762643Y-9262674D01*
X13762643Y-9262674D02*
X13743595Y-9272198D01*
X13743595Y-9272198D02*
X13705500Y-9272198D01*
X13705500Y-9272198D02*
X13686452Y-9281722D01*
X13686452Y-9281722D02*
X13676929Y-9291246D01*
X13676929Y-9291246D02*
X13667405Y-9310293D01*
X13667405Y-9310293D02*
X13667405Y-9348389D01*
X13667405Y-9348389D02*
X13676929Y-9367436D01*
X13676929Y-9367436D02*
X13686452Y-9376960D01*
X13686452Y-9376960D02*
X13705500Y-9386484D01*
X13705500Y-9386484D02*
X13743595Y-9386484D01*
X13743595Y-9386484D02*
X13762643Y-9376960D01*
X13762643Y-9376960D02*
X13772167Y-9367436D01*
X13772167Y-9367436D02*
X13781691Y-9348389D01*
X13781691Y-9348389D02*
X13781691Y-9310293D01*
X13781691Y-9310293D02*
X13772167Y-9291246D01*
X13772167Y-9291246D02*
X13762643Y-9281722D01*
X13762643Y-9281722D02*
X13743595Y-9272198D01*
X13972167Y-9386484D02*
X13857881Y-9386484D01*
X13915024Y-9386484D02*
X13915024Y-9186484D01*
X13915024Y-9186484D02*
X13895976Y-9215055D01*
X13895976Y-9215055D02*
X13876929Y-9234103D01*
X13876929Y-9234103D02*
X13857881Y-9243627D01*
X14048357Y-9186484D02*
X14048357Y-9224579D01*
X14124548Y-9186484D02*
X14124548Y-9224579D01*
X14419786Y-9462674D02*
X14410262Y-9453150D01*
X14410262Y-9453150D02*
X14391214Y-9424579D01*
X14391214Y-9424579D02*
X14381691Y-9405531D01*
X14381691Y-9405531D02*
X14372167Y-9376960D01*
X14372167Y-9376960D02*
X14362643Y-9329341D01*
X14362643Y-9329341D02*
X14362643Y-9291246D01*
X14362643Y-9291246D02*
X14372167Y-9243627D01*
X14372167Y-9243627D02*
X14381691Y-9215055D01*
X14381691Y-9215055D02*
X14391214Y-9196008D01*
X14391214Y-9196008D02*
X14410262Y-9167436D01*
X14410262Y-9167436D02*
X14419786Y-9157912D01*
X14600738Y-9386484D02*
X14486453Y-9386484D01*
X14543595Y-9386484D02*
X14543595Y-9186484D01*
X14543595Y-9186484D02*
X14524548Y-9215055D01*
X14524548Y-9215055D02*
X14505500Y-9234103D01*
X14505500Y-9234103D02*
X14486453Y-9243627D01*
X14838834Y-9386484D02*
X14838834Y-9186484D01*
X14924548Y-9386484D02*
X14924548Y-9281722D01*
X14924548Y-9281722D02*
X14915024Y-9262674D01*
X14915024Y-9262674D02*
X14895976Y-9253150D01*
X14895976Y-9253150D02*
X14867405Y-9253150D01*
X14867405Y-9253150D02*
X14848357Y-9262674D01*
X14848357Y-9262674D02*
X14838834Y-9272198D01*
X15048357Y-9386484D02*
X15029310Y-9376960D01*
X15029310Y-9376960D02*
X15019786Y-9367436D01*
X15019786Y-9367436D02*
X15010262Y-9348389D01*
X15010262Y-9348389D02*
X15010262Y-9291246D01*
X15010262Y-9291246D02*
X15019786Y-9272198D01*
X15019786Y-9272198D02*
X15029310Y-9262674D01*
X15029310Y-9262674D02*
X15048357Y-9253150D01*
X15048357Y-9253150D02*
X15076929Y-9253150D01*
X15076929Y-9253150D02*
X15095976Y-9262674D01*
X15095976Y-9262674D02*
X15105500Y-9272198D01*
X15105500Y-9272198D02*
X15115024Y-9291246D01*
X15115024Y-9291246D02*
X15115024Y-9348389D01*
X15115024Y-9348389D02*
X15105500Y-9367436D01*
X15105500Y-9367436D02*
X15095976Y-9376960D01*
X15095976Y-9376960D02*
X15076929Y-9386484D01*
X15076929Y-9386484D02*
X15048357Y-9386484D01*
X15229310Y-9386484D02*
X15210262Y-9376960D01*
X15210262Y-9376960D02*
X15200738Y-9357912D01*
X15200738Y-9357912D02*
X15200738Y-9186484D01*
X15381691Y-9376960D02*
X15362643Y-9386484D01*
X15362643Y-9386484D02*
X15324548Y-9386484D01*
X15324548Y-9386484D02*
X15305500Y-9376960D01*
X15305500Y-9376960D02*
X15295976Y-9357912D01*
X15295976Y-9357912D02*
X15295976Y-9281722D01*
X15295976Y-9281722D02*
X15305500Y-9262674D01*
X15305500Y-9262674D02*
X15324548Y-9253150D01*
X15324548Y-9253150D02*
X15362643Y-9253150D01*
X15362643Y-9253150D02*
X15381691Y-9262674D01*
X15381691Y-9262674D02*
X15391215Y-9281722D01*
X15391215Y-9281722D02*
X15391215Y-9300770D01*
X15391215Y-9300770D02*
X15295976Y-9319817D01*
X15457881Y-9462674D02*
X15467405Y-9453150D01*
X15467405Y-9453150D02*
X15486453Y-9424579D01*
X15486453Y-9424579D02*
X15495976Y-9405531D01*
X15495976Y-9405531D02*
X15505500Y-9376960D01*
X15505500Y-9376960D02*
X15515024Y-9329341D01*
X15515024Y-9329341D02*
X15515024Y-9291246D01*
X15515024Y-9291246D02*
X15505500Y-9243627D01*
X15505500Y-9243627D02*
X15495976Y-9215055D01*
X15495976Y-9215055D02*
X15486453Y-9196008D01*
X15486453Y-9196008D02*
X15467405Y-9167436D01*
X15467405Y-9167436D02*
X15457881Y-9157912D01*
X15819786Y-9462674D02*
X15810262Y-9453150D01*
X15810262Y-9453150D02*
X15791215Y-9424579D01*
X15791215Y-9424579D02*
X15781691Y-9405531D01*
X15781691Y-9405531D02*
X15772167Y-9376960D01*
X15772167Y-9376960D02*
X15762643Y-9329341D01*
X15762643Y-9329341D02*
X15762643Y-9291246D01*
X15762643Y-9291246D02*
X15772167Y-9243627D01*
X15772167Y-9243627D02*
X15781691Y-9215055D01*
X15781691Y-9215055D02*
X15791215Y-9196008D01*
X15791215Y-9196008D02*
X15810262Y-9167436D01*
X15810262Y-9167436D02*
X15819786Y-9157912D01*
X15895976Y-9253150D02*
X15895976Y-9386484D01*
X15895976Y-9272198D02*
X15905500Y-9262674D01*
X15905500Y-9262674D02*
X15924548Y-9253150D01*
X15924548Y-9253150D02*
X15953119Y-9253150D01*
X15953119Y-9253150D02*
X15972167Y-9262674D01*
X15972167Y-9262674D02*
X15981691Y-9281722D01*
X15981691Y-9281722D02*
X15981691Y-9386484D01*
X16105500Y-9386484D02*
X16086453Y-9376960D01*
X16086453Y-9376960D02*
X16076929Y-9367436D01*
X16076929Y-9367436D02*
X16067405Y-9348389D01*
X16067405Y-9348389D02*
X16067405Y-9291246D01*
X16067405Y-9291246D02*
X16076929Y-9272198D01*
X16076929Y-9272198D02*
X16086453Y-9262674D01*
X16086453Y-9262674D02*
X16105500Y-9253150D01*
X16105500Y-9253150D02*
X16134072Y-9253150D01*
X16134072Y-9253150D02*
X16153119Y-9262674D01*
X16153119Y-9262674D02*
X16162643Y-9272198D01*
X16162643Y-9272198D02*
X16172167Y-9291246D01*
X16172167Y-9291246D02*
X16172167Y-9348389D01*
X16172167Y-9348389D02*
X16162643Y-9367436D01*
X16162643Y-9367436D02*
X16153119Y-9376960D01*
X16153119Y-9376960D02*
X16134072Y-9386484D01*
X16134072Y-9386484D02*
X16105500Y-9386484D01*
X16229310Y-9253150D02*
X16305500Y-9253150D01*
X16257881Y-9186484D02*
X16257881Y-9357912D01*
X16257881Y-9357912D02*
X16267405Y-9376960D01*
X16267405Y-9376960D02*
X16286453Y-9386484D01*
X16286453Y-9386484D02*
X16305500Y-9386484D01*
X16524548Y-9253150D02*
X16524548Y-9453150D01*
X16524548Y-9262674D02*
X16543596Y-9253150D01*
X16543596Y-9253150D02*
X16581691Y-9253150D01*
X16581691Y-9253150D02*
X16600738Y-9262674D01*
X16600738Y-9262674D02*
X16610262Y-9272198D01*
X16610262Y-9272198D02*
X16619786Y-9291246D01*
X16619786Y-9291246D02*
X16619786Y-9348389D01*
X16619786Y-9348389D02*
X16610262Y-9367436D01*
X16610262Y-9367436D02*
X16600738Y-9376960D01*
X16600738Y-9376960D02*
X16581691Y-9386484D01*
X16581691Y-9386484D02*
X16543596Y-9386484D01*
X16543596Y-9386484D02*
X16524548Y-9376960D01*
X16734072Y-9386484D02*
X16715024Y-9376960D01*
X16715024Y-9376960D02*
X16705500Y-9357912D01*
X16705500Y-9357912D02*
X16705500Y-9186484D01*
X16895977Y-9386484D02*
X16895977Y-9281722D01*
X16895977Y-9281722D02*
X16886453Y-9262674D01*
X16886453Y-9262674D02*
X16867405Y-9253150D01*
X16867405Y-9253150D02*
X16829310Y-9253150D01*
X16829310Y-9253150D02*
X16810262Y-9262674D01*
X16895977Y-9376960D02*
X16876929Y-9386484D01*
X16876929Y-9386484D02*
X16829310Y-9386484D01*
X16829310Y-9386484D02*
X16810262Y-9376960D01*
X16810262Y-9376960D02*
X16800739Y-9357912D01*
X16800739Y-9357912D02*
X16800739Y-9338865D01*
X16800739Y-9338865D02*
X16810262Y-9319817D01*
X16810262Y-9319817D02*
X16829310Y-9310293D01*
X16829310Y-9310293D02*
X16876929Y-9310293D01*
X16876929Y-9310293D02*
X16895977Y-9300770D01*
X16962643Y-9253150D02*
X17038834Y-9253150D01*
X16991215Y-9186484D02*
X16991215Y-9357912D01*
X16991215Y-9357912D02*
X17000739Y-9376960D01*
X17000739Y-9376960D02*
X17019786Y-9386484D01*
X17019786Y-9386484D02*
X17038834Y-9386484D01*
X17181691Y-9376960D02*
X17162643Y-9386484D01*
X17162643Y-9386484D02*
X17124548Y-9386484D01*
X17124548Y-9386484D02*
X17105500Y-9376960D01*
X17105500Y-9376960D02*
X17095977Y-9357912D01*
X17095977Y-9357912D02*
X17095977Y-9281722D01*
X17095977Y-9281722D02*
X17105500Y-9262674D01*
X17105500Y-9262674D02*
X17124548Y-9253150D01*
X17124548Y-9253150D02*
X17162643Y-9253150D01*
X17162643Y-9253150D02*
X17181691Y-9262674D01*
X17181691Y-9262674D02*
X17191215Y-9281722D01*
X17191215Y-9281722D02*
X17191215Y-9300770D01*
X17191215Y-9300770D02*
X17095977Y-9319817D01*
X17362643Y-9386484D02*
X17362643Y-9186484D01*
X17362643Y-9376960D02*
X17343596Y-9386484D01*
X17343596Y-9386484D02*
X17305500Y-9386484D01*
X17305500Y-9386484D02*
X17286453Y-9376960D01*
X17286453Y-9376960D02*
X17276929Y-9367436D01*
X17276929Y-9367436D02*
X17267405Y-9348389D01*
X17267405Y-9348389D02*
X17267405Y-9291246D01*
X17267405Y-9291246D02*
X17276929Y-9272198D01*
X17276929Y-9272198D02*
X17286453Y-9262674D01*
X17286453Y-9262674D02*
X17305500Y-9253150D01*
X17305500Y-9253150D02*
X17343596Y-9253150D01*
X17343596Y-9253150D02*
X17362643Y-9262674D01*
X17438834Y-9462674D02*
X17448358Y-9453150D01*
X17448358Y-9453150D02*
X17467405Y-9424579D01*
X17467405Y-9424579D02*
X17476929Y-9405531D01*
X17476929Y-9405531D02*
X17486453Y-9376960D01*
X17486453Y-9376960D02*
X17495977Y-9329341D01*
X17495977Y-9329341D02*
X17495977Y-9291246D01*
X17495977Y-9291246D02*
X17486453Y-9243627D01*
X17486453Y-9243627D02*
X17476929Y-9215055D01*
X17476929Y-9215055D02*
X17467405Y-9196008D01*
X17467405Y-9196008D02*
X17448358Y-9167436D01*
X17448358Y-9167436D02*
X17438834Y-9157912D01*
M02*
