G04 #@! TF.GenerationSoftware,KiCad,Pcbnew,8.0.6*
G04 #@! TF.CreationDate,2025-02-22T02:59:36-05:00*
G04 #@! TF.ProjectId,modular sensor,6d6f6475-6c61-4722-9073-656e736f722e,1.0*
G04 #@! TF.SameCoordinates,Original*
G04 #@! TF.FileFunction,Legend,Top*
G04 #@! TF.FilePolarity,Positive*
%FSLAX46Y46*%
G04 Gerber Fmt 4.6, Leading zero omitted, Abs format (unit mm)*
G04 Created by KiCad (PCBNEW 8.0.6) date 2025-02-22 02:59:36*
%MOMM*%
%LPD*%
G01*
G04 APERTURE LIST*
G04 Aperture macros list*
%AMRoundRect*
0 Rectangle with rounded corners*
0 $1 Rounding radius*
0 $2 $3 $4 $5 $6 $7 $8 $9 X,Y pos of 4 corners*
0 Add a 4 corners polygon primitive as box body*
4,1,4,$2,$3,$4,$5,$6,$7,$8,$9,$2,$3,0*
0 Add four circle primitives for the rounded corners*
1,1,$1+$1,$2,$3*
1,1,$1+$1,$4,$5*
1,1,$1+$1,$6,$7*
1,1,$1+$1,$8,$9*
0 Add four rect primitives between the rounded corners*
20,1,$1+$1,$2,$3,$4,$5,0*
20,1,$1+$1,$4,$5,$6,$7,0*
20,1,$1+$1,$6,$7,$8,$9,0*
20,1,$1+$1,$8,$9,$2,$3,0*%
G04 Aperture macros list end*
%ADD10C,0.150000*%
%ADD11C,0.120000*%
%ADD12C,0.127000*%
%ADD13C,1.576200*%
%ADD14C,0.836200*%
%ADD15C,0.010000*%
%ADD16C,6.476000*%
%ADD17RoundRect,0.038000X1.100000X1.100000X-1.100000X1.100000X-1.100000X-1.100000X1.100000X-1.100000X0*%
%ADD18O,2.276000X2.276000*%
%ADD19RoundRect,0.244000X0.269000X-0.244000X0.269000X0.244000X-0.269000X0.244000X-0.269000X-0.244000X0*%
%ADD20RoundRect,0.219000X-0.294000X0.219000X-0.294000X-0.219000X0.294000X-0.219000X0.294000X0.219000X0*%
%ADD21RoundRect,0.394000X0.644000X0.394000X-0.644000X0.394000X-0.644000X-0.394000X0.644000X-0.394000X0*%
%ADD22RoundRect,0.519000X0.519000X1.419000X-0.519000X1.419000X-0.519000X-1.419000X0.519000X-1.419000X0*%
%ADD23RoundRect,0.244000X0.244000X0.269000X-0.244000X0.269000X-0.244000X-0.269000X0.244000X-0.269000X0*%
%ADD24C,3.076000*%
%ADD25RoundRect,0.169000X-0.844000X-0.169000X0.844000X-0.169000X0.844000X0.169000X-0.844000X0.169000X0*%
%ADD26RoundRect,0.038000X-1.125000X-1.125000X1.125000X-1.125000X1.125000X1.125000X-1.125000X1.125000X0*%
%ADD27C,2.326000*%
%ADD28RoundRect,0.219000X0.294000X-0.219000X0.294000X0.219000X-0.294000X0.219000X-0.294000X-0.219000X0*%
G04 APERTURE END LIST*
D10*
X142779762Y-66954819D02*
X142208333Y-66954819D01*
X142494048Y-66954819D02*
X142619048Y-65954819D01*
X142619048Y-65954819D02*
X142505952Y-66097676D01*
X142505952Y-66097676D02*
X142398810Y-66192914D01*
X142398810Y-66192914D02*
X142297619Y-66240533D01*
X142285714Y-75954819D02*
X142904762Y-75954819D01*
X142904762Y-75954819D02*
X142523810Y-76335771D01*
X142523810Y-76335771D02*
X142666667Y-76335771D01*
X142666667Y-76335771D02*
X142755952Y-76383390D01*
X142755952Y-76383390D02*
X142797619Y-76431009D01*
X142797619Y-76431009D02*
X142833333Y-76526247D01*
X142833333Y-76526247D02*
X142803571Y-76764342D01*
X142803571Y-76764342D02*
X142744048Y-76859580D01*
X142744048Y-76859580D02*
X142690476Y-76907200D01*
X142690476Y-76907200D02*
X142589286Y-76954819D01*
X142589286Y-76954819D02*
X142303571Y-76954819D01*
X142303571Y-76954819D02*
X142214286Y-76907200D01*
X142214286Y-76907200D02*
X142172619Y-76859580D01*
X152767857Y-76288152D02*
X152684524Y-76954819D01*
X152577381Y-75907200D02*
X152250000Y-76621485D01*
X152250000Y-76621485D02*
X152869048Y-76621485D01*
X155107143Y-71204819D02*
X154630952Y-71204819D01*
X154630952Y-71204819D02*
X154523810Y-71681009D01*
X154523810Y-71681009D02*
X154577381Y-71633390D01*
X154577381Y-71633390D02*
X154678571Y-71585771D01*
X154678571Y-71585771D02*
X154916667Y-71585771D01*
X154916667Y-71585771D02*
X155005952Y-71633390D01*
X155005952Y-71633390D02*
X155047619Y-71681009D01*
X155047619Y-71681009D02*
X155083333Y-71776247D01*
X155083333Y-71776247D02*
X155053571Y-72014342D01*
X155053571Y-72014342D02*
X154994048Y-72109580D01*
X154994048Y-72109580D02*
X154940476Y-72157200D01*
X154940476Y-72157200D02*
X154839286Y-72204819D01*
X154839286Y-72204819D02*
X154601190Y-72204819D01*
X154601190Y-72204819D02*
X154511905Y-72157200D01*
X154511905Y-72157200D02*
X154470238Y-72109580D01*
X153059524Y-66204819D02*
X152869048Y-66204819D01*
X152869048Y-66204819D02*
X152767857Y-66252438D01*
X152767857Y-66252438D02*
X152714286Y-66300057D01*
X152714286Y-66300057D02*
X152601190Y-66442914D01*
X152601190Y-66442914D02*
X152529762Y-66633390D01*
X152529762Y-66633390D02*
X152482143Y-67014342D01*
X152482143Y-67014342D02*
X152517857Y-67109580D01*
X152517857Y-67109580D02*
X152559524Y-67157200D01*
X152559524Y-67157200D02*
X152648810Y-67204819D01*
X152648810Y-67204819D02*
X152839286Y-67204819D01*
X152839286Y-67204819D02*
X152940476Y-67157200D01*
X152940476Y-67157200D02*
X152994048Y-67109580D01*
X152994048Y-67109580D02*
X153053571Y-67014342D01*
X153053571Y-67014342D02*
X153083333Y-66776247D01*
X153083333Y-66776247D02*
X153047619Y-66681009D01*
X153047619Y-66681009D02*
X153005952Y-66633390D01*
X153005952Y-66633390D02*
X152916667Y-66585771D01*
X152916667Y-66585771D02*
X152726190Y-66585771D01*
X152726190Y-66585771D02*
X152625000Y-66633390D01*
X152625000Y-66633390D02*
X152571429Y-66681009D01*
X152571429Y-66681009D02*
X152511905Y-66776247D01*
X141071429Y-69800057D02*
X141125000Y-69752438D01*
X141125000Y-69752438D02*
X141226190Y-69704819D01*
X141226190Y-69704819D02*
X141464286Y-69704819D01*
X141464286Y-69704819D02*
X141553571Y-69752438D01*
X141553571Y-69752438D02*
X141595238Y-69800057D01*
X141595238Y-69800057D02*
X141630952Y-69895295D01*
X141630952Y-69895295D02*
X141619048Y-69990533D01*
X141619048Y-69990533D02*
X141553571Y-70133390D01*
X141553571Y-70133390D02*
X140910714Y-70704819D01*
X140910714Y-70704819D02*
X141529762Y-70704819D01*
X114961905Y-60954819D02*
X114961905Y-59954819D01*
X114961905Y-59954819D02*
X115200000Y-59954819D01*
X115200000Y-59954819D02*
X115342857Y-60002438D01*
X115342857Y-60002438D02*
X115438095Y-60097676D01*
X115438095Y-60097676D02*
X115485714Y-60192914D01*
X115485714Y-60192914D02*
X115533333Y-60383390D01*
X115533333Y-60383390D02*
X115533333Y-60526247D01*
X115533333Y-60526247D02*
X115485714Y-60716723D01*
X115485714Y-60716723D02*
X115438095Y-60811961D01*
X115438095Y-60811961D02*
X115342857Y-60907200D01*
X115342857Y-60907200D02*
X115200000Y-60954819D01*
X115200000Y-60954819D02*
X114961905Y-60954819D01*
X116485714Y-60954819D02*
X115914286Y-60954819D01*
X116200000Y-60954819D02*
X116200000Y-59954819D01*
X116200000Y-59954819D02*
X116104762Y-60097676D01*
X116104762Y-60097676D02*
X116009524Y-60192914D01*
X116009524Y-60192914D02*
X115914286Y-60240533D01*
X126038095Y-60954819D02*
X126038095Y-59954819D01*
X126609523Y-60954819D02*
X126180952Y-60383390D01*
X126609523Y-59954819D02*
X126038095Y-60526247D01*
X135859580Y-71516666D02*
X135907200Y-71564285D01*
X135907200Y-71564285D02*
X135954819Y-71707142D01*
X135954819Y-71707142D02*
X135954819Y-71802380D01*
X135954819Y-71802380D02*
X135907200Y-71945237D01*
X135907200Y-71945237D02*
X135811961Y-72040475D01*
X135811961Y-72040475D02*
X135716723Y-72088094D01*
X135716723Y-72088094D02*
X135526247Y-72135713D01*
X135526247Y-72135713D02*
X135383390Y-72135713D01*
X135383390Y-72135713D02*
X135192914Y-72088094D01*
X135192914Y-72088094D02*
X135097676Y-72040475D01*
X135097676Y-72040475D02*
X135002438Y-71945237D01*
X135002438Y-71945237D02*
X134954819Y-71802380D01*
X134954819Y-71802380D02*
X134954819Y-71707142D01*
X134954819Y-71707142D02*
X135002438Y-71564285D01*
X135002438Y-71564285D02*
X135050057Y-71516666D01*
X135954819Y-70564285D02*
X135954819Y-71135713D01*
X135954819Y-70849999D02*
X134954819Y-70849999D01*
X134954819Y-70849999D02*
X135097676Y-70945237D01*
X135097676Y-70945237D02*
X135192914Y-71040475D01*
X135192914Y-71040475D02*
X135240533Y-71135713D01*
X134504819Y-69166666D02*
X134028628Y-69499999D01*
X134504819Y-69738094D02*
X133504819Y-69738094D01*
X133504819Y-69738094D02*
X133504819Y-69357142D01*
X133504819Y-69357142D02*
X133552438Y-69261904D01*
X133552438Y-69261904D02*
X133600057Y-69214285D01*
X133600057Y-69214285D02*
X133695295Y-69166666D01*
X133695295Y-69166666D02*
X133838152Y-69166666D01*
X133838152Y-69166666D02*
X133933390Y-69214285D01*
X133933390Y-69214285D02*
X133981009Y-69261904D01*
X133981009Y-69261904D02*
X134028628Y-69357142D01*
X134028628Y-69357142D02*
X134028628Y-69738094D01*
X133600057Y-68785713D02*
X133552438Y-68738094D01*
X133552438Y-68738094D02*
X133504819Y-68642856D01*
X133504819Y-68642856D02*
X133504819Y-68404761D01*
X133504819Y-68404761D02*
X133552438Y-68309523D01*
X133552438Y-68309523D02*
X133600057Y-68261904D01*
X133600057Y-68261904D02*
X133695295Y-68214285D01*
X133695295Y-68214285D02*
X133790533Y-68214285D01*
X133790533Y-68214285D02*
X133933390Y-68261904D01*
X133933390Y-68261904D02*
X134504819Y-68833332D01*
X134504819Y-68833332D02*
X134504819Y-68214285D01*
X124738095Y-77204819D02*
X124738095Y-78014342D01*
X124738095Y-78014342D02*
X124785714Y-78109580D01*
X124785714Y-78109580D02*
X124833333Y-78157200D01*
X124833333Y-78157200D02*
X124928571Y-78204819D01*
X124928571Y-78204819D02*
X125119047Y-78204819D01*
X125119047Y-78204819D02*
X125214285Y-78157200D01*
X125214285Y-78157200D02*
X125261904Y-78109580D01*
X125261904Y-78109580D02*
X125309523Y-78014342D01*
X125309523Y-78014342D02*
X125309523Y-77204819D01*
X126309523Y-78204819D02*
X125738095Y-78204819D01*
X126023809Y-78204819D02*
X126023809Y-77204819D01*
X126023809Y-77204819D02*
X125928571Y-77347676D01*
X125928571Y-77347676D02*
X125833333Y-77442914D01*
X125833333Y-77442914D02*
X125738095Y-77490533D01*
X131383333Y-62609580D02*
X131335714Y-62657200D01*
X131335714Y-62657200D02*
X131192857Y-62704819D01*
X131192857Y-62704819D02*
X131097619Y-62704819D01*
X131097619Y-62704819D02*
X130954762Y-62657200D01*
X130954762Y-62657200D02*
X130859524Y-62561961D01*
X130859524Y-62561961D02*
X130811905Y-62466723D01*
X130811905Y-62466723D02*
X130764286Y-62276247D01*
X130764286Y-62276247D02*
X130764286Y-62133390D01*
X130764286Y-62133390D02*
X130811905Y-61942914D01*
X130811905Y-61942914D02*
X130859524Y-61847676D01*
X130859524Y-61847676D02*
X130954762Y-61752438D01*
X130954762Y-61752438D02*
X131097619Y-61704819D01*
X131097619Y-61704819D02*
X131192857Y-61704819D01*
X131192857Y-61704819D02*
X131335714Y-61752438D01*
X131335714Y-61752438D02*
X131383333Y-61800057D01*
X131764286Y-61800057D02*
X131811905Y-61752438D01*
X131811905Y-61752438D02*
X131907143Y-61704819D01*
X131907143Y-61704819D02*
X132145238Y-61704819D01*
X132145238Y-61704819D02*
X132240476Y-61752438D01*
X132240476Y-61752438D02*
X132288095Y-61800057D01*
X132288095Y-61800057D02*
X132335714Y-61895295D01*
X132335714Y-61895295D02*
X132335714Y-61990533D01*
X132335714Y-61990533D02*
X132288095Y-62133390D01*
X132288095Y-62133390D02*
X131716667Y-62704819D01*
X131716667Y-62704819D02*
X132335714Y-62704819D01*
X111066666Y-79004819D02*
X111066666Y-79719104D01*
X111066666Y-79719104D02*
X111019047Y-79861961D01*
X111019047Y-79861961D02*
X110923809Y-79957200D01*
X110923809Y-79957200D02*
X110780952Y-80004819D01*
X110780952Y-80004819D02*
X110685714Y-80004819D01*
X112066666Y-80004819D02*
X111495238Y-80004819D01*
X111780952Y-80004819D02*
X111780952Y-79004819D01*
X111780952Y-79004819D02*
X111685714Y-79147676D01*
X111685714Y-79147676D02*
X111590476Y-79242914D01*
X111590476Y-79242914D02*
X111495238Y-79290533D01*
X124238095Y-62954819D02*
X124238095Y-63764342D01*
X124238095Y-63764342D02*
X124285714Y-63859580D01*
X124285714Y-63859580D02*
X124333333Y-63907200D01*
X124333333Y-63907200D02*
X124428571Y-63954819D01*
X124428571Y-63954819D02*
X124619047Y-63954819D01*
X124619047Y-63954819D02*
X124714285Y-63907200D01*
X124714285Y-63907200D02*
X124761904Y-63859580D01*
X124761904Y-63859580D02*
X124809523Y-63764342D01*
X124809523Y-63764342D02*
X124809523Y-62954819D01*
X125238095Y-63050057D02*
X125285714Y-63002438D01*
X125285714Y-63002438D02*
X125380952Y-62954819D01*
X125380952Y-62954819D02*
X125619047Y-62954819D01*
X125619047Y-62954819D02*
X125714285Y-63002438D01*
X125714285Y-63002438D02*
X125761904Y-63050057D01*
X125761904Y-63050057D02*
X125809523Y-63145295D01*
X125809523Y-63145295D02*
X125809523Y-63240533D01*
X125809523Y-63240533D02*
X125761904Y-63383390D01*
X125761904Y-63383390D02*
X125190476Y-63954819D01*
X125190476Y-63954819D02*
X125809523Y-63954819D01*
X145647619Y-60954819D02*
X145647619Y-59954819D01*
X145647619Y-59954819D02*
X145980952Y-60669104D01*
X145980952Y-60669104D02*
X146314285Y-59954819D01*
X146314285Y-59954819D02*
X146314285Y-60954819D01*
X147457142Y-61050057D02*
X147361904Y-61002438D01*
X147361904Y-61002438D02*
X147266666Y-60907200D01*
X147266666Y-60907200D02*
X147123809Y-60764342D01*
X147123809Y-60764342D02*
X147028571Y-60716723D01*
X147028571Y-60716723D02*
X146933333Y-60716723D01*
X146980952Y-60954819D02*
X146885714Y-60907200D01*
X146885714Y-60907200D02*
X146790476Y-60811961D01*
X146790476Y-60811961D02*
X146742857Y-60621485D01*
X146742857Y-60621485D02*
X146742857Y-60288152D01*
X146742857Y-60288152D02*
X146790476Y-60097676D01*
X146790476Y-60097676D02*
X146885714Y-60002438D01*
X146885714Y-60002438D02*
X146980952Y-59954819D01*
X146980952Y-59954819D02*
X147171428Y-59954819D01*
X147171428Y-59954819D02*
X147266666Y-60002438D01*
X147266666Y-60002438D02*
X147361904Y-60097676D01*
X147361904Y-60097676D02*
X147409523Y-60288152D01*
X147409523Y-60288152D02*
X147409523Y-60621485D01*
X147409523Y-60621485D02*
X147361904Y-60811961D01*
X147361904Y-60811961D02*
X147266666Y-60907200D01*
X147266666Y-60907200D02*
X147171428Y-60954819D01*
X147171428Y-60954819D02*
X146980952Y-60954819D01*
X147838095Y-60573866D02*
X148600000Y-60573866D01*
X149599999Y-60954819D02*
X149028571Y-60954819D01*
X149314285Y-60954819D02*
X149314285Y-59954819D01*
X149314285Y-59954819D02*
X149219047Y-60097676D01*
X149219047Y-60097676D02*
X149123809Y-60192914D01*
X149123809Y-60192914D02*
X149028571Y-60240533D01*
X132904819Y-69116666D02*
X132428628Y-69449999D01*
X132904819Y-69688094D02*
X131904819Y-69688094D01*
X131904819Y-69688094D02*
X131904819Y-69307142D01*
X131904819Y-69307142D02*
X131952438Y-69211904D01*
X131952438Y-69211904D02*
X132000057Y-69164285D01*
X132000057Y-69164285D02*
X132095295Y-69116666D01*
X132095295Y-69116666D02*
X132238152Y-69116666D01*
X132238152Y-69116666D02*
X132333390Y-69164285D01*
X132333390Y-69164285D02*
X132381009Y-69211904D01*
X132381009Y-69211904D02*
X132428628Y-69307142D01*
X132428628Y-69307142D02*
X132428628Y-69688094D01*
X132904819Y-68164285D02*
X132904819Y-68735713D01*
X132904819Y-68449999D02*
X131904819Y-68449999D01*
X131904819Y-68449999D02*
X132047676Y-68545237D01*
X132047676Y-68545237D02*
X132142914Y-68640475D01*
X132142914Y-68640475D02*
X132190533Y-68735713D01*
D11*
X119180000Y-60500000D02*
X120200000Y-60500000D01*
X120200000Y-59030000D02*
X120200000Y-61970000D01*
X120200000Y-61970000D02*
X125640000Y-61970000D01*
X124620000Y-61970000D02*
X124620000Y-59030000D01*
X124740000Y-61970000D02*
X124740000Y-59030000D01*
X124860000Y-61970000D02*
X124860000Y-59030000D01*
X125640000Y-59030000D02*
X120200000Y-59030000D01*
X125640000Y-61970000D02*
X125640000Y-59030000D01*
X126660000Y-60500000D02*
X125640000Y-60500000D01*
X133590000Y-71540580D02*
X133590000Y-71259420D01*
X134610000Y-71540580D02*
X134610000Y-71259420D01*
X134572500Y-66212742D02*
X134572500Y-66687258D01*
X133527500Y-66212742D02*
X133527500Y-66687258D01*
X130600000Y-77860000D02*
X126840000Y-77860000D01*
X130600000Y-71040000D02*
X126840000Y-71040000D01*
X126840000Y-77860000D02*
X126840000Y-76600000D01*
X126840000Y-71040000D02*
X126840000Y-72300000D01*
X132120000Y-78090000D02*
X131640000Y-78090000D01*
X131880000Y-77760000D01*
X132120000Y-78090000D01*
G36*
X132120000Y-78090000D02*
G01*
X131640000Y-78090000D01*
X131880000Y-77760000D01*
X132120000Y-78090000D01*
G37*
X134140580Y-61740000D02*
X133859420Y-61740000D01*
X134140580Y-62760000D02*
X133859420Y-62760000D01*
D12*
X110280000Y-65525000D02*
X110280000Y-78675000D01*
X110280000Y-78675000D02*
X122520000Y-78675000D01*
X118810000Y-79720000D02*
X119610000Y-79720000D01*
X119210000Y-79020000D02*
X118810000Y-79720000D01*
X119610000Y-79720000D02*
X119210000Y-79020000D01*
X122520000Y-65525000D02*
X110280000Y-65525000D01*
X122520000Y-67600000D02*
X122520000Y-65525000D01*
X122520000Y-78675000D02*
X122520000Y-76600000D01*
D11*
X127750000Y-64340000D02*
X129700000Y-64340000D01*
X127750000Y-64340000D02*
X125800000Y-64340000D01*
X127750000Y-69460000D02*
X129700000Y-69460000D01*
X127750000Y-69460000D02*
X125800000Y-69460000D01*
X125050000Y-64435000D02*
X124810000Y-64105000D01*
X125290000Y-64105000D01*
X125050000Y-64435000D01*
G36*
X125050000Y-64435000D02*
G01*
X124810000Y-64105000D01*
X125290000Y-64105000D01*
X125050000Y-64435000D01*
G37*
X157225000Y-71500000D02*
G75*
G02*
X137975000Y-71500000I-9625000J0D01*
G01*
X137975000Y-71500000D02*
G75*
G02*
X157225000Y-71500000I9625000J0D01*
G01*
X132972500Y-66687258D02*
X132972500Y-66212742D01*
X131927500Y-66687258D02*
X131927500Y-66212742D01*
%LPC*%
D13*
X115668100Y-72100000D02*
G75*
G02*
X114091900Y-72100000I-788100J0D01*
G01*
X114091900Y-72100000D02*
G75*
G02*
X115668100Y-72100000I788100J0D01*
G01*
D14*
X119618100Y-69100000D02*
G75*
G02*
X118781900Y-69100000I-418100J0D01*
G01*
X118781900Y-69100000D02*
G75*
G02*
X119618100Y-69100000I418100J0D01*
G01*
X119618100Y-72100000D02*
G75*
G02*
X118781900Y-72100000I-418100J0D01*
G01*
X118781900Y-72100000D02*
G75*
G02*
X119618100Y-72100000I418100J0D01*
G01*
X122618100Y-69100000D02*
G75*
G02*
X121781900Y-69100000I-418100J0D01*
G01*
X121781900Y-69100000D02*
G75*
G02*
X122618100Y-69100000I418100J0D01*
G01*
X122618100Y-72100000D02*
G75*
G02*
X121781900Y-72100000I-418100J0D01*
G01*
X121781900Y-72100000D02*
G75*
G02*
X122618100Y-72100000I418100J0D01*
G01*
X122618100Y-75100000D02*
G75*
G02*
X121781900Y-75100000I-418100J0D01*
G01*
X121781900Y-75100000D02*
G75*
G02*
X122618100Y-75100000I418100J0D01*
G01*
D15*
X120036200Y-75936200D02*
X118363800Y-75936200D01*
X118363800Y-74263800D01*
X120036200Y-74263800D01*
X120036200Y-75936200D01*
G36*
X120036200Y-75936200D02*
G01*
X118363800Y-75936200D01*
X118363800Y-74263800D01*
X120036200Y-74263800D01*
X120036200Y-75936200D01*
G37*
D16*
X139400000Y-82200000D03*
D17*
X128000000Y-60500000D03*
D18*
X117840000Y-60500000D03*
D19*
X134100000Y-72175000D03*
X134100000Y-70625000D03*
D20*
X134050000Y-65625000D03*
X134050000Y-67275000D03*
D21*
X131900000Y-76750000D03*
X131900000Y-74450000D03*
D22*
X125600000Y-74450000D03*
D21*
X131900000Y-72150000D03*
D16*
X163200000Y-71700000D03*
X139400000Y-60600000D03*
D23*
X134775000Y-62250000D03*
X133225000Y-62250000D03*
D24*
X114880000Y-72100000D03*
D25*
X125275000Y-64995000D03*
X125275000Y-66265000D03*
X125275000Y-67535000D03*
X125275000Y-68805000D03*
X130225000Y-68805000D03*
X130225000Y-67535000D03*
X130225000Y-66265000D03*
X130225000Y-64995000D03*
D26*
X144240000Y-68140000D03*
D27*
X142850000Y-71500000D03*
X144240000Y-74860000D03*
X150960000Y-74860000D03*
X152350000Y-71500000D03*
X150960000Y-68140000D03*
D28*
X132450000Y-67275000D03*
X132450000Y-65625000D03*
%LPD*%
M02*
