G04 #@! TF.GenerationSoftware,KiCad,Pcbnew,8.0.6*
G04 #@! TF.CreationDate,2025-02-22T02:59:36-05:00*
G04 #@! TF.ProjectId,modular sensor,6d6f6475-6c61-4722-9073-656e736f722e,1.0*
G04 #@! TF.SameCoordinates,Original*
G04 #@! TF.FileFunction,Copper,L2,Bot*
G04 #@! TF.FilePolarity,Positive*
%FSLAX46Y46*%
G04 Gerber Fmt 4.6, Leading zero omitted, Abs format (unit mm)*
G04 Created by KiCad (PCBNEW 8.0.6) date 2025-02-22 02:59:36*
%MOMM*%
%LPD*%
G01*
G04 APERTURE LIST*
G04 #@! TA.AperFunction,ComponentPad*
%ADD10C,6.400000*%
G04 #@! TD*
G04 #@! TA.AperFunction,ComponentPad*
%ADD11R,2.200000X2.200000*%
G04 #@! TD*
G04 #@! TA.AperFunction,ComponentPad*
%ADD12O,2.200000X2.200000*%
G04 #@! TD*
G04 #@! TA.AperFunction,ComponentPad*
%ADD13R,1.520000X1.520000*%
G04 #@! TD*
G04 #@! TA.AperFunction,ComponentPad*
%ADD14C,1.520000*%
G04 #@! TD*
G04 #@! TA.AperFunction,ComponentPad*
%ADD15R,2.250000X2.250000*%
G04 #@! TD*
G04 #@! TA.AperFunction,ComponentPad*
%ADD16C,2.250000*%
G04 #@! TD*
G04 #@! TA.AperFunction,ViaPad*
%ADD17C,0.700000*%
G04 #@! TD*
G04 #@! TA.AperFunction,ViaPad*
%ADD18C,0.800000*%
G04 #@! TD*
G04 #@! TA.AperFunction,Conductor*
%ADD19C,0.500000*%
G04 #@! TD*
G04 APERTURE END LIST*
D10*
X139400000Y-82200000D03*
D11*
X128000000Y-60500000D03*
D12*
X117840000Y-60500000D03*
D10*
X163200000Y-71700000D03*
X139400000Y-60600000D03*
D13*
X119200000Y-75100000D03*
D14*
X119200000Y-72100000D03*
X119200000Y-69100000D03*
X122200000Y-75100000D03*
X122200000Y-72100000D03*
X122200000Y-69100000D03*
D15*
X144240000Y-68140000D03*
D16*
X142850000Y-71500000D03*
X144240000Y-74860000D03*
X150960000Y-74860000D03*
X152350000Y-71500000D03*
X150960000Y-68140000D03*
D17*
X120700000Y-73400000D03*
X120700000Y-70500000D03*
X120700000Y-67500000D03*
X127900000Y-67900000D03*
X127600000Y-63800000D03*
D18*
X127000000Y-66600000D03*
D17*
X119000000Y-63300000D03*
X120800000Y-63300000D03*
X122800000Y-58100000D03*
X142000000Y-78600000D03*
X115600000Y-63300000D03*
X149000000Y-65500000D03*
X139400000Y-69000000D03*
X140800000Y-71100000D03*
X131450000Y-62250000D03*
X134700000Y-76500000D03*
X132800000Y-59100000D03*
X119000000Y-58100000D03*
X141300000Y-66800000D03*
X124600000Y-58100000D03*
X130200000Y-58100000D03*
X129600000Y-70350000D03*
X140200000Y-75600000D03*
X130800000Y-59550000D03*
X114200000Y-61900000D03*
X129150000Y-79000000D03*
X147000000Y-69100000D03*
X117200000Y-58100000D03*
X155600000Y-73700000D03*
X133100000Y-78800000D03*
X125450000Y-70250000D03*
X127400000Y-82100000D03*
X138700000Y-73000000D03*
X135400000Y-60100000D03*
X132400000Y-82700000D03*
X137500000Y-67100000D03*
X128200000Y-58100000D03*
X151800000Y-78700000D03*
X145200000Y-64900000D03*
X146400000Y-78700000D03*
X155800000Y-68700000D03*
X126800000Y-78700000D03*
X122800000Y-63300000D03*
X114200000Y-59900000D03*
X142700000Y-64200000D03*
X120800000Y-58100000D03*
X136800000Y-78500000D03*
X115600000Y-58100000D03*
X139800000Y-65500000D03*
X147200000Y-73900000D03*
X137100000Y-75400000D03*
X124650000Y-78700000D03*
X117200000Y-63300000D03*
X116800000Y-69550000D03*
D19*
X140340000Y-68140000D02*
X144240000Y-68140000D01*
X136000000Y-63800000D02*
X140340000Y-68140000D01*
X129800000Y-63800000D02*
X136000000Y-63800000D01*
X127000000Y-66600000D02*
X129800000Y-63800000D01*
X145365000Y-73735000D02*
X144240000Y-74860000D01*
X145365000Y-69265000D02*
X145365000Y-73735000D01*
X144240000Y-68140000D02*
X145365000Y-69265000D01*
G04 #@! TA.AperFunction,Conductor*
G36*
X166010964Y-56800725D02*
G01*
X166264005Y-56816034D01*
X166278838Y-56817836D01*
X166524510Y-56862859D01*
X166539024Y-56866438D01*
X166777455Y-56940738D01*
X166791454Y-56946047D01*
X167019179Y-57048540D01*
X167032436Y-57055497D01*
X167246161Y-57184699D01*
X167258479Y-57193202D01*
X167455064Y-57347218D01*
X167466271Y-57357147D01*
X167642852Y-57533728D01*
X167652781Y-57544935D01*
X167806797Y-57741520D01*
X167815302Y-57753842D01*
X167855163Y-57819778D01*
X167944501Y-57967562D01*
X167951459Y-57980820D01*
X168053952Y-58208545D01*
X168059262Y-58222546D01*
X168133558Y-58460963D01*
X168137142Y-58475501D01*
X168182160Y-58721145D01*
X168183965Y-58736009D01*
X168199274Y-58989027D01*
X168199500Y-58996516D01*
X168199500Y-84006249D01*
X168199274Y-84013736D01*
X168183988Y-84266428D01*
X168182183Y-84281293D01*
X168137227Y-84526609D01*
X168133643Y-84541147D01*
X168059451Y-84779239D01*
X168054142Y-84793240D01*
X167951783Y-85020672D01*
X167944824Y-85033930D01*
X167815804Y-85247357D01*
X167807298Y-85259681D01*
X167653488Y-85456004D01*
X167643558Y-85467212D01*
X167467214Y-85643557D01*
X167456006Y-85653487D01*
X167259680Y-85807299D01*
X167247357Y-85815805D01*
X167033932Y-85944824D01*
X167020674Y-85951782D01*
X166793247Y-86054140D01*
X166779245Y-86059450D01*
X166541149Y-86133643D01*
X166526611Y-86137227D01*
X166281295Y-86182183D01*
X166266430Y-86183988D01*
X166013749Y-86199272D01*
X166006246Y-86199498D01*
X111047125Y-86192276D01*
X111047031Y-86192269D01*
X111037593Y-86192269D01*
X110993749Y-86192269D01*
X110986262Y-86192043D01*
X110733236Y-86176737D01*
X110718371Y-86174932D01*
X110472726Y-86129915D01*
X110458192Y-86126333D01*
X110219757Y-86052034D01*
X110205772Y-86046729D01*
X109979349Y-85944824D01*
X109978045Y-85944237D01*
X109964788Y-85937279D01*
X109751068Y-85808082D01*
X109738744Y-85799576D01*
X109542158Y-85645560D01*
X109530950Y-85635630D01*
X109354369Y-85459049D01*
X109344439Y-85447841D01*
X109190419Y-85251249D01*
X109181917Y-85238931D01*
X109052720Y-85025211D01*
X109045762Y-85011954D01*
X108943266Y-84784218D01*
X108937968Y-84770252D01*
X108863663Y-84531795D01*
X108860084Y-84517273D01*
X108852917Y-84478162D01*
X108815066Y-84271626D01*
X108813262Y-84256763D01*
X108807815Y-84166711D01*
X108797956Y-84003731D01*
X108797731Y-83996244D01*
X108797810Y-83283199D01*
X108797930Y-82199999D01*
X135894696Y-82199999D01*
X135894696Y-82200000D01*
X135913898Y-82566405D01*
X135971294Y-82928788D01*
X135971294Y-82928790D01*
X136066260Y-83283206D01*
X136197746Y-83625739D01*
X136364320Y-83952656D01*
X136564147Y-84260364D01*
X136581095Y-84281293D01*
X136795051Y-84545506D01*
X137054494Y-84804949D01*
X137054498Y-84804952D01*
X137339635Y-85035852D01*
X137393178Y-85070623D01*
X137647348Y-85235682D01*
X137974264Y-85402255D01*
X138316801Y-85533742D01*
X138671206Y-85628705D01*
X139033596Y-85686102D01*
X139379734Y-85704241D01*
X139399999Y-85705304D01*
X139400000Y-85705304D01*
X139400001Y-85705304D01*
X139419203Y-85704297D01*
X139766404Y-85686102D01*
X140128794Y-85628705D01*
X140483199Y-85533742D01*
X140825736Y-85402255D01*
X141152652Y-85235682D01*
X141460366Y-85035851D01*
X141745506Y-84804949D01*
X142004949Y-84545506D01*
X142235851Y-84260366D01*
X142435682Y-83952652D01*
X142602255Y-83625736D01*
X142733742Y-83283199D01*
X142828705Y-82928794D01*
X142886102Y-82566404D01*
X142905304Y-82200000D01*
X142886102Y-81833596D01*
X142828705Y-81471206D01*
X142733742Y-81116801D01*
X142602255Y-80774264D01*
X142435682Y-80447348D01*
X142235851Y-80139634D01*
X142004949Y-79854494D01*
X141745506Y-79595051D01*
X141460366Y-79364149D01*
X141460364Y-79364147D01*
X141152656Y-79164320D01*
X140825739Y-78997746D01*
X140483206Y-78866260D01*
X140483199Y-78866258D01*
X140128794Y-78771295D01*
X140128790Y-78771294D01*
X140128789Y-78771294D01*
X139766405Y-78713898D01*
X139400001Y-78694696D01*
X139399999Y-78694696D01*
X139033594Y-78713898D01*
X138671211Y-78771294D01*
X138671209Y-78771294D01*
X138316793Y-78866260D01*
X137974260Y-78997746D01*
X137647343Y-79164320D01*
X137339635Y-79364147D01*
X137054498Y-79595047D01*
X137054490Y-79595054D01*
X136795054Y-79854490D01*
X136795047Y-79854498D01*
X136564147Y-80139635D01*
X136364320Y-80447343D01*
X136197746Y-80774260D01*
X136066260Y-81116793D01*
X135971294Y-81471209D01*
X135971294Y-81471211D01*
X135913898Y-81833594D01*
X135894696Y-82199999D01*
X108797930Y-82199999D01*
X108798806Y-74292155D01*
X117940000Y-74292155D01*
X117940000Y-74850000D01*
X118755440Y-74850000D01*
X118724755Y-74903147D01*
X118690000Y-75032857D01*
X118690000Y-75167143D01*
X118724755Y-75296853D01*
X118755440Y-75350000D01*
X117940000Y-75350000D01*
X117940000Y-75907844D01*
X117946401Y-75967372D01*
X117946403Y-75967379D01*
X117996645Y-76102086D01*
X117996649Y-76102093D01*
X118082809Y-76217187D01*
X118082812Y-76217190D01*
X118197906Y-76303350D01*
X118197913Y-76303354D01*
X118332620Y-76353596D01*
X118332627Y-76353598D01*
X118392155Y-76359999D01*
X118392172Y-76360000D01*
X118950000Y-76360000D01*
X118950000Y-75544560D01*
X119003147Y-75575245D01*
X119132857Y-75610000D01*
X119267143Y-75610000D01*
X119396853Y-75575245D01*
X119450000Y-75544560D01*
X119450000Y-76360000D01*
X120007828Y-76360000D01*
X120007844Y-76359999D01*
X120067372Y-76353598D01*
X120067379Y-76353596D01*
X120202086Y-76303354D01*
X120202093Y-76303350D01*
X120317187Y-76217190D01*
X120317190Y-76217187D01*
X120403350Y-76102093D01*
X120403354Y-76102086D01*
X120453596Y-75967379D01*
X120453598Y-75967372D01*
X120459999Y-75907844D01*
X120460000Y-75907827D01*
X120460000Y-75350000D01*
X119644560Y-75350000D01*
X119675245Y-75296853D01*
X119710000Y-75167143D01*
X119710000Y-75099998D01*
X120935187Y-75099998D01*
X120935187Y-75100001D01*
X120954401Y-75319626D01*
X120954402Y-75319634D01*
X121011463Y-75532587D01*
X121011466Y-75532593D01*
X121104638Y-75732402D01*
X121149694Y-75796750D01*
X121708871Y-75237574D01*
X121724755Y-75296853D01*
X121791898Y-75413147D01*
X121886853Y-75508102D01*
X122003147Y-75575245D01*
X122062424Y-75591128D01*
X121503247Y-76150304D01*
X121567593Y-76195359D01*
X121767406Y-76288533D01*
X121767412Y-76288536D01*
X121980365Y-76345597D01*
X121980373Y-76345598D01*
X122199998Y-76364813D01*
X122200002Y-76364813D01*
X122419626Y-76345598D01*
X122419634Y-76345597D01*
X122632587Y-76288536D01*
X122632598Y-76288532D01*
X122832402Y-76195362D01*
X122832410Y-76195358D01*
X122896751Y-76150305D01*
X122896751Y-76150304D01*
X122337575Y-75591127D01*
X122396853Y-75575245D01*
X122513147Y-75508102D01*
X122608102Y-75413147D01*
X122675245Y-75296853D01*
X122691128Y-75237575D01*
X123250304Y-75796751D01*
X123250305Y-75796751D01*
X123295358Y-75732410D01*
X123295362Y-75732402D01*
X123388532Y-75532598D01*
X123388536Y-75532587D01*
X123445597Y-75319634D01*
X123445598Y-75319626D01*
X123464813Y-75100001D01*
X123464813Y-75099998D01*
X123445598Y-74880373D01*
X123445597Y-74880366D01*
X123388533Y-74667404D01*
X123295360Y-74467595D01*
X123295359Y-74467593D01*
X123250304Y-74403248D01*
X123250304Y-74403247D01*
X122691127Y-74962423D01*
X122675245Y-74903147D01*
X122608102Y-74786853D01*
X122513147Y-74691898D01*
X122396853Y-74624755D01*
X122337574Y-74608871D01*
X122896751Y-74049694D01*
X122832402Y-74004638D01*
X122632593Y-73911466D01*
X122632587Y-73911463D01*
X122419634Y-73854402D01*
X122419626Y-73854401D01*
X122200002Y-73835187D01*
X122199998Y-73835187D01*
X121980373Y-73854401D01*
X121980366Y-73854402D01*
X121767404Y-73911466D01*
X121567594Y-74004640D01*
X121503248Y-74049694D01*
X122062425Y-74608871D01*
X122003147Y-74624755D01*
X121886853Y-74691898D01*
X121791898Y-74786853D01*
X121724755Y-74903147D01*
X121708871Y-74962425D01*
X121149694Y-74403248D01*
X121104640Y-74467594D01*
X121011466Y-74667404D01*
X120954402Y-74880366D01*
X120954401Y-74880373D01*
X120935187Y-75099998D01*
X119710000Y-75099998D01*
X119710000Y-75032857D01*
X119675245Y-74903147D01*
X119644560Y-74850000D01*
X120460000Y-74850000D01*
X120460000Y-74292172D01*
X120459999Y-74292155D01*
X120453598Y-74232627D01*
X120453596Y-74232620D01*
X120403354Y-74097913D01*
X120403350Y-74097906D01*
X120317190Y-73982812D01*
X120317187Y-73982809D01*
X120202093Y-73896649D01*
X120202086Y-73896645D01*
X120067379Y-73846403D01*
X120067372Y-73846401D01*
X120007844Y-73840000D01*
X119450000Y-73840000D01*
X119450000Y-74655439D01*
X119396853Y-74624755D01*
X119267143Y-74590000D01*
X119132857Y-74590000D01*
X119003147Y-74624755D01*
X118950000Y-74655439D01*
X118950000Y-73840000D01*
X118392155Y-73840000D01*
X118332627Y-73846401D01*
X118332620Y-73846403D01*
X118197913Y-73896645D01*
X118197906Y-73896649D01*
X118082812Y-73982809D01*
X118082809Y-73982812D01*
X117996649Y-74097906D01*
X117996645Y-74097913D01*
X117946403Y-74232620D01*
X117946401Y-74232627D01*
X117940000Y-74292155D01*
X108798806Y-74292155D01*
X108799061Y-71985258D01*
X113129500Y-71985258D01*
X113129500Y-72214741D01*
X113151069Y-72378562D01*
X113159452Y-72442238D01*
X113164724Y-72461912D01*
X113218842Y-72663887D01*
X113306650Y-72875876D01*
X113306657Y-72875890D01*
X113421392Y-73074617D01*
X113561081Y-73256661D01*
X113561089Y-73256670D01*
X113723330Y-73418911D01*
X113723338Y-73418918D01*
X113723339Y-73418919D01*
X113755282Y-73443430D01*
X113905382Y-73558607D01*
X113905385Y-73558608D01*
X113905388Y-73558611D01*
X114104112Y-73673344D01*
X114104117Y-73673346D01*
X114104123Y-73673349D01*
X114195480Y-73711190D01*
X114316113Y-73761158D01*
X114537762Y-73820548D01*
X114765266Y-73850500D01*
X114765273Y-73850500D01*
X114994727Y-73850500D01*
X114994734Y-73850500D01*
X115222238Y-73820548D01*
X115443887Y-73761158D01*
X115655888Y-73673344D01*
X115854612Y-73558611D01*
X116036661Y-73418919D01*
X116036665Y-73418914D01*
X116036670Y-73418911D01*
X116198911Y-73256670D01*
X116198914Y-73256665D01*
X116198919Y-73256661D01*
X116338611Y-73074612D01*
X116453344Y-72875888D01*
X116541158Y-72663887D01*
X116600548Y-72442238D01*
X116630500Y-72214734D01*
X116630500Y-72100000D01*
X118134369Y-72100000D01*
X118154844Y-72307892D01*
X118154845Y-72307894D01*
X118215485Y-72507799D01*
X118215486Y-72507802D01*
X118215487Y-72507803D01*
X118215488Y-72507806D01*
X118313956Y-72692027D01*
X118313960Y-72692034D01*
X118446484Y-72853515D01*
X118607965Y-72986039D01*
X118607972Y-72986043D01*
X118792193Y-73084511D01*
X118792194Y-73084511D01*
X118792201Y-73084515D01*
X118992106Y-73145155D01*
X118992105Y-73145155D01*
X119010745Y-73146990D01*
X119200000Y-73165631D01*
X119407894Y-73145155D01*
X119607799Y-73084515D01*
X119792033Y-72986040D01*
X119953515Y-72853515D01*
X120086040Y-72692033D01*
X120184515Y-72507799D01*
X120245155Y-72307894D01*
X120265631Y-72100000D01*
X121134369Y-72100000D01*
X121154844Y-72307892D01*
X121154845Y-72307894D01*
X121215485Y-72507799D01*
X121215486Y-72507802D01*
X121215487Y-72507803D01*
X121215488Y-72507806D01*
X121313956Y-72692027D01*
X121313960Y-72692034D01*
X121446484Y-72853515D01*
X121607965Y-72986039D01*
X121607972Y-72986043D01*
X121792193Y-73084511D01*
X121792194Y-73084511D01*
X121792201Y-73084515D01*
X121992106Y-73145155D01*
X121992105Y-73145155D01*
X122010745Y-73146990D01*
X122200000Y-73165631D01*
X122407894Y-73145155D01*
X122607799Y-73084515D01*
X122792033Y-72986040D01*
X122953515Y-72853515D01*
X123086040Y-72692033D01*
X123184515Y-72507799D01*
X123245155Y-72307894D01*
X123265631Y-72100000D01*
X123245155Y-71892106D01*
X123184515Y-71692201D01*
X123179226Y-71682306D01*
X123086043Y-71507972D01*
X123086039Y-71507965D01*
X123079497Y-71499994D01*
X141419615Y-71499994D01*
X141419615Y-71500005D01*
X141439123Y-71735430D01*
X141497117Y-71964445D01*
X141592013Y-72180787D01*
X141721225Y-72378562D01*
X141840204Y-72507806D01*
X141881227Y-72552368D01*
X142011557Y-72653808D01*
X142060669Y-72692034D01*
X142067654Y-72697470D01*
X142275421Y-72809908D01*
X142498861Y-72886616D01*
X142731880Y-72925500D01*
X142731881Y-72925500D01*
X142968119Y-72925500D01*
X142968120Y-72925500D01*
X143201139Y-72886616D01*
X143424579Y-72809908D01*
X143632346Y-72697470D01*
X143818773Y-72552368D01*
X143978775Y-72378561D01*
X144107986Y-72180788D01*
X144202883Y-71964445D01*
X144260876Y-71735434D01*
X144277393Y-71536112D01*
X144280385Y-71500005D01*
X144280385Y-71499994D01*
X144260876Y-71264569D01*
X144260876Y-71264566D01*
X144202883Y-71035555D01*
X144107986Y-70819212D01*
X143978775Y-70621439D01*
X143978774Y-70621437D01*
X143818776Y-70447635D01*
X143818775Y-70447634D01*
X143818773Y-70447632D01*
X143692693Y-70349500D01*
X143632348Y-70302531D01*
X143424580Y-70190092D01*
X143424571Y-70190089D01*
X143201141Y-70113384D01*
X143045793Y-70087461D01*
X142968120Y-70074500D01*
X142731880Y-70074500D01*
X142673625Y-70084221D01*
X142498858Y-70113384D01*
X142275428Y-70190089D01*
X142275419Y-70190092D01*
X142067651Y-70302531D01*
X141881228Y-70447631D01*
X141881223Y-70447635D01*
X141721225Y-70621437D01*
X141592013Y-70819212D01*
X141497117Y-71035554D01*
X141439123Y-71264569D01*
X141419615Y-71499994D01*
X123079497Y-71499994D01*
X122953515Y-71346484D01*
X122792034Y-71213960D01*
X122792027Y-71213956D01*
X122607806Y-71115488D01*
X122607803Y-71115487D01*
X122607802Y-71115486D01*
X122607799Y-71115485D01*
X122407894Y-71054845D01*
X122407892Y-71054844D01*
X122407894Y-71054844D01*
X122200000Y-71034369D01*
X121992107Y-71054844D01*
X121874075Y-71090648D01*
X121792201Y-71115485D01*
X121792198Y-71115486D01*
X121792196Y-71115487D01*
X121792193Y-71115488D01*
X121607972Y-71213956D01*
X121607965Y-71213960D01*
X121446484Y-71346484D01*
X121313960Y-71507965D01*
X121313956Y-71507972D01*
X121215488Y-71692193D01*
X121215487Y-71692196D01*
X121215486Y-71692198D01*
X121215485Y-71692201D01*
X121195595Y-71757770D01*
X121154844Y-71892107D01*
X121134369Y-72100000D01*
X120265631Y-72100000D01*
X120245155Y-71892106D01*
X120184515Y-71692201D01*
X120179226Y-71682306D01*
X120086043Y-71507972D01*
X120086039Y-71507965D01*
X119953515Y-71346484D01*
X119792034Y-71213960D01*
X119792027Y-71213956D01*
X119607806Y-71115488D01*
X119607803Y-71115487D01*
X119607802Y-71115486D01*
X119607799Y-71115485D01*
X119407894Y-71054845D01*
X119407892Y-71054844D01*
X119407894Y-71054844D01*
X119200000Y-71034369D01*
X118992107Y-71054844D01*
X118874075Y-71090648D01*
X118792201Y-71115485D01*
X118792198Y-71115486D01*
X118792196Y-71115487D01*
X118792193Y-71115488D01*
X118607972Y-71213956D01*
X118607965Y-71213960D01*
X118446484Y-71346484D01*
X118313960Y-71507965D01*
X118313956Y-71507972D01*
X118215488Y-71692193D01*
X118215487Y-71692196D01*
X118215486Y-71692198D01*
X118215485Y-71692201D01*
X118195595Y-71757770D01*
X118154844Y-71892107D01*
X118134369Y-72100000D01*
X116630500Y-72100000D01*
X116630500Y-71985266D01*
X116600548Y-71757762D01*
X116541158Y-71536113D01*
X116491190Y-71415480D01*
X116453349Y-71324123D01*
X116453346Y-71324117D01*
X116453344Y-71324112D01*
X116338611Y-71125388D01*
X116338608Y-71125385D01*
X116338607Y-71125382D01*
X116220306Y-70971211D01*
X116198919Y-70943339D01*
X116198918Y-70943338D01*
X116198911Y-70943330D01*
X116036670Y-70781089D01*
X116036661Y-70781081D01*
X115854617Y-70641392D01*
X115655890Y-70526657D01*
X115655876Y-70526650D01*
X115443887Y-70438842D01*
X115222238Y-70379452D01*
X115184215Y-70374446D01*
X114994741Y-70349500D01*
X114994734Y-70349500D01*
X114765266Y-70349500D01*
X114765258Y-70349500D01*
X114548715Y-70378009D01*
X114537762Y-70379452D01*
X114444076Y-70404554D01*
X114316112Y-70438842D01*
X114104123Y-70526650D01*
X114104109Y-70526657D01*
X113905382Y-70641392D01*
X113723338Y-70781081D01*
X113561081Y-70943338D01*
X113421392Y-71125382D01*
X113306657Y-71324109D01*
X113306650Y-71324123D01*
X113218842Y-71536112D01*
X113159453Y-71757759D01*
X113159451Y-71757770D01*
X113129500Y-71985258D01*
X108799061Y-71985258D01*
X108799380Y-69100000D01*
X118134369Y-69100000D01*
X118154844Y-69307892D01*
X118168980Y-69354490D01*
X118215485Y-69507799D01*
X118215486Y-69507802D01*
X118215487Y-69507803D01*
X118215488Y-69507806D01*
X118313956Y-69692027D01*
X118313960Y-69692034D01*
X118446484Y-69853515D01*
X118607965Y-69986039D01*
X118607972Y-69986043D01*
X118792193Y-70084511D01*
X118792194Y-70084511D01*
X118792201Y-70084515D01*
X118992106Y-70145155D01*
X118992105Y-70145155D01*
X119010745Y-70146990D01*
X119200000Y-70165631D01*
X119407894Y-70145155D01*
X119607799Y-70084515D01*
X119792033Y-69986040D01*
X119953515Y-69853515D01*
X120086040Y-69692033D01*
X120184515Y-69507799D01*
X120245155Y-69307894D01*
X120265631Y-69100000D01*
X121134369Y-69100000D01*
X121154844Y-69307892D01*
X121168980Y-69354490D01*
X121215485Y-69507799D01*
X121215486Y-69507802D01*
X121215487Y-69507803D01*
X121215488Y-69507806D01*
X121313956Y-69692027D01*
X121313960Y-69692034D01*
X121446484Y-69853515D01*
X121607965Y-69986039D01*
X121607972Y-69986043D01*
X121792193Y-70084511D01*
X121792194Y-70084511D01*
X121792201Y-70084515D01*
X121992106Y-70145155D01*
X121992105Y-70145155D01*
X122010745Y-70146990D01*
X122200000Y-70165631D01*
X122407894Y-70145155D01*
X122607799Y-70084515D01*
X122792033Y-69986040D01*
X122953515Y-69853515D01*
X123086040Y-69692033D01*
X123184515Y-69507799D01*
X123245155Y-69307894D01*
X123265631Y-69100000D01*
X123245155Y-68892106D01*
X123184515Y-68692201D01*
X123183606Y-68690500D01*
X123086043Y-68507972D01*
X123086039Y-68507965D01*
X122953515Y-68346484D01*
X122792034Y-68213960D01*
X122792027Y-68213956D01*
X122607806Y-68115488D01*
X122607803Y-68115487D01*
X122607802Y-68115486D01*
X122607799Y-68115485D01*
X122407894Y-68054845D01*
X122407892Y-68054844D01*
X122407894Y-68054844D01*
X122200000Y-68034369D01*
X121992107Y-68054844D01*
X121874075Y-68090648D01*
X121792201Y-68115485D01*
X121792198Y-68115486D01*
X121792196Y-68115487D01*
X121792193Y-68115488D01*
X121607972Y-68213956D01*
X121607965Y-68213960D01*
X121446484Y-68346484D01*
X121313960Y-68507965D01*
X121313956Y-68507972D01*
X121215488Y-68692193D01*
X121215487Y-68692196D01*
X121154844Y-68892107D01*
X121134369Y-69100000D01*
X120265631Y-69100000D01*
X120245155Y-68892106D01*
X120184515Y-68692201D01*
X120183606Y-68690500D01*
X120086043Y-68507972D01*
X120086039Y-68507965D01*
X119953515Y-68346484D01*
X119792034Y-68213960D01*
X119792027Y-68213956D01*
X119607806Y-68115488D01*
X119607803Y-68115487D01*
X119607802Y-68115486D01*
X119607799Y-68115485D01*
X119407894Y-68054845D01*
X119407892Y-68054844D01*
X119407894Y-68054844D01*
X119200000Y-68034369D01*
X118992107Y-68054844D01*
X118874075Y-68090648D01*
X118792201Y-68115485D01*
X118792198Y-68115486D01*
X118792196Y-68115487D01*
X118792193Y-68115488D01*
X118607972Y-68213956D01*
X118607965Y-68213960D01*
X118446484Y-68346484D01*
X118313960Y-68507965D01*
X118313956Y-68507972D01*
X118215488Y-68692193D01*
X118215487Y-68692196D01*
X118154844Y-68892107D01*
X118134369Y-69100000D01*
X108799380Y-69100000D01*
X108799657Y-66600000D01*
X126294355Y-66600000D01*
X126314859Y-66768869D01*
X126314860Y-66768874D01*
X126375182Y-66927931D01*
X126437475Y-67018177D01*
X126471817Y-67067929D01*
X126577505Y-67161560D01*
X126599150Y-67180736D01*
X126749773Y-67259789D01*
X126749775Y-67259790D01*
X126914944Y-67300500D01*
X127085056Y-67300500D01*
X127250225Y-67259790D01*
X127329692Y-67218081D01*
X127400849Y-67180736D01*
X127400850Y-67180734D01*
X127400852Y-67180734D01*
X127528183Y-67067929D01*
X127624818Y-66927930D01*
X127685140Y-66768872D01*
X127690414Y-66725429D01*
X127718034Y-66661252D01*
X127725818Y-66652705D01*
X129991706Y-64386819D01*
X130053029Y-64353334D01*
X130079387Y-64350500D01*
X135720613Y-64350500D01*
X135787652Y-64370185D01*
X135808294Y-64386819D01*
X140001985Y-68580510D01*
X140127515Y-68652984D01*
X140267525Y-68690500D01*
X140267526Y-68690500D01*
X140412474Y-68690500D01*
X142690501Y-68690500D01*
X142757540Y-68710185D01*
X142803295Y-68762989D01*
X142814501Y-68814500D01*
X142814501Y-69309856D01*
X142814502Y-69309882D01*
X142817413Y-69334987D01*
X142817415Y-69334991D01*
X142862793Y-69437764D01*
X142862794Y-69437765D01*
X142942235Y-69517206D01*
X143045009Y-69562585D01*
X143070135Y-69565500D01*
X144690500Y-69565499D01*
X144757539Y-69585184D01*
X144803294Y-69637987D01*
X144814500Y-69689499D01*
X144814500Y-73376391D01*
X144794815Y-73443430D01*
X144742011Y-73489185D01*
X144672853Y-73499129D01*
X144650237Y-73493672D01*
X144591141Y-73473384D01*
X144435793Y-73447461D01*
X144358120Y-73434500D01*
X144121880Y-73434500D01*
X144063625Y-73444221D01*
X143888858Y-73473384D01*
X143665428Y-73550089D01*
X143665419Y-73550092D01*
X143457651Y-73662531D01*
X143271228Y-73807631D01*
X143271223Y-73807635D01*
X143111225Y-73981437D01*
X142982013Y-74179212D01*
X142887117Y-74395554D01*
X142829123Y-74624569D01*
X142809615Y-74859994D01*
X142809615Y-74860005D01*
X142829123Y-75095430D01*
X142887117Y-75324445D01*
X142982013Y-75540787D01*
X143111225Y-75738562D01*
X143267062Y-75907844D01*
X143271227Y-75912368D01*
X143457654Y-76057470D01*
X143665421Y-76169908D01*
X143888861Y-76246616D01*
X144121880Y-76285500D01*
X144121881Y-76285500D01*
X144358119Y-76285500D01*
X144358120Y-76285500D01*
X144591139Y-76246616D01*
X144814579Y-76169908D01*
X145022346Y-76057470D01*
X145208773Y-75912368D01*
X145368775Y-75738561D01*
X145497986Y-75540788D01*
X145592883Y-75324445D01*
X145650876Y-75095434D01*
X145668697Y-74880373D01*
X145670385Y-74860005D01*
X145670385Y-74859994D01*
X149529615Y-74859994D01*
X149529615Y-74860005D01*
X149549123Y-75095430D01*
X149607117Y-75324445D01*
X149702013Y-75540787D01*
X149831225Y-75738562D01*
X149987062Y-75907844D01*
X149991227Y-75912368D01*
X150177654Y-76057470D01*
X150385421Y-76169908D01*
X150608861Y-76246616D01*
X150841880Y-76285500D01*
X150841881Y-76285500D01*
X151078119Y-76285500D01*
X151078120Y-76285500D01*
X151311139Y-76246616D01*
X151534579Y-76169908D01*
X151742346Y-76057470D01*
X151928773Y-75912368D01*
X152088775Y-75738561D01*
X152217986Y-75540788D01*
X152312883Y-75324445D01*
X152370876Y-75095434D01*
X152388697Y-74880373D01*
X152390385Y-74860005D01*
X152390385Y-74859994D01*
X152374426Y-74667404D01*
X152370876Y-74624566D01*
X152312883Y-74395555D01*
X152217986Y-74179212D01*
X152088775Y-73981439D01*
X152088774Y-73981437D01*
X151928776Y-73807635D01*
X151928775Y-73807634D01*
X151928773Y-73807632D01*
X151835559Y-73735081D01*
X151742348Y-73662531D01*
X151534580Y-73550092D01*
X151534571Y-73550089D01*
X151311141Y-73473384D01*
X151155793Y-73447461D01*
X151078120Y-73434500D01*
X150841880Y-73434500D01*
X150783625Y-73444221D01*
X150608858Y-73473384D01*
X150385428Y-73550089D01*
X150385419Y-73550092D01*
X150177651Y-73662531D01*
X149991228Y-73807631D01*
X149991223Y-73807635D01*
X149831225Y-73981437D01*
X149702013Y-74179212D01*
X149607117Y-74395554D01*
X149549123Y-74624569D01*
X149529615Y-74859994D01*
X145670385Y-74859994D01*
X145654426Y-74667404D01*
X145650876Y-74624566D01*
X145592883Y-74395555D01*
X145592881Y-74395550D01*
X145591219Y-74390707D01*
X145592568Y-74390243D01*
X145584499Y-74327440D01*
X145614475Y-74264327D01*
X145619277Y-74259247D01*
X145645904Y-74232620D01*
X145805510Y-74073015D01*
X145877984Y-73947485D01*
X145881463Y-73934500D01*
X145915500Y-73807475D01*
X145915500Y-71500000D01*
X150719975Y-71500000D01*
X150740042Y-71754989D01*
X150799752Y-72003702D01*
X150897634Y-72240012D01*
X150897636Y-72240015D01*
X151031277Y-72458098D01*
X151031284Y-72458107D01*
X151034533Y-72461912D01*
X151768092Y-71728353D01*
X151796132Y-71796048D01*
X151864531Y-71898414D01*
X151951586Y-71985469D01*
X152053952Y-72053868D01*
X152121645Y-72081907D01*
X151388087Y-72815465D01*
X151391897Y-72818719D01*
X151609984Y-72952363D01*
X151609987Y-72952365D01*
X151846297Y-73050247D01*
X152095011Y-73109957D01*
X152095010Y-73109957D01*
X152350000Y-73130024D01*
X152604989Y-73109957D01*
X152853702Y-73050247D01*
X153090012Y-72952365D01*
X153090015Y-72952363D01*
X153308095Y-72818724D01*
X153308110Y-72818713D01*
X153311911Y-72815466D01*
X153311911Y-72815464D01*
X152578354Y-72081907D01*
X152646048Y-72053868D01*
X152748414Y-71985469D01*
X152835469Y-71898414D01*
X152903868Y-71796048D01*
X152931907Y-71728354D01*
X153665464Y-72461911D01*
X153665466Y-72461911D01*
X153668713Y-72458110D01*
X153668724Y-72458095D01*
X153802363Y-72240015D01*
X153802365Y-72240012D01*
X153900247Y-72003702D01*
X153959957Y-71754989D01*
X153964285Y-71699999D01*
X159694696Y-71699999D01*
X159694696Y-71700000D01*
X159713898Y-72066405D01*
X159732015Y-72180788D01*
X159771295Y-72428794D01*
X159841828Y-72692027D01*
X159866260Y-72783206D01*
X159997746Y-73125739D01*
X160164320Y-73452656D01*
X160364147Y-73760364D01*
X160544280Y-73982809D01*
X160595051Y-74045506D01*
X160854494Y-74304949D01*
X160854498Y-74304952D01*
X161139635Y-74535852D01*
X161379926Y-74691898D01*
X161447348Y-74735682D01*
X161774264Y-74902255D01*
X162116801Y-75033742D01*
X162471206Y-75128705D01*
X162833596Y-75186102D01*
X163179734Y-75204241D01*
X163199999Y-75205304D01*
X163200000Y-75205304D01*
X163200001Y-75205304D01*
X163219203Y-75204297D01*
X163566404Y-75186102D01*
X163928794Y-75128705D01*
X164283199Y-75033742D01*
X164625736Y-74902255D01*
X164952652Y-74735682D01*
X165260366Y-74535851D01*
X165545506Y-74304949D01*
X165804949Y-74045506D01*
X166035851Y-73760366D01*
X166235682Y-73452652D01*
X166402255Y-73125736D01*
X166533742Y-72783199D01*
X166628705Y-72428794D01*
X166686102Y-72066404D01*
X166705304Y-71700000D01*
X166686102Y-71333596D01*
X166628705Y-70971206D01*
X166533742Y-70616801D01*
X166402255Y-70274264D01*
X166235682Y-69947348D01*
X166185436Y-69869975D01*
X166035852Y-69639635D01*
X165882213Y-69449907D01*
X165804949Y-69354494D01*
X165545506Y-69095051D01*
X165337962Y-68926985D01*
X165260364Y-68864147D01*
X164952656Y-68664320D01*
X164625739Y-68497746D01*
X164283206Y-68366260D01*
X164283199Y-68366258D01*
X163928794Y-68271295D01*
X163928790Y-68271294D01*
X163928789Y-68271294D01*
X163566405Y-68213898D01*
X163200001Y-68194696D01*
X163199999Y-68194696D01*
X162833594Y-68213898D01*
X162471211Y-68271294D01*
X162471209Y-68271294D01*
X162116793Y-68366260D01*
X161774260Y-68497746D01*
X161447343Y-68664320D01*
X161139635Y-68864147D01*
X160854498Y-69095047D01*
X160854490Y-69095054D01*
X160595054Y-69354490D01*
X160595047Y-69354498D01*
X160364147Y-69639635D01*
X160164320Y-69947343D01*
X159997746Y-70274260D01*
X159866260Y-70616793D01*
X159771294Y-70971209D01*
X159771294Y-70971211D01*
X159713898Y-71333594D01*
X159694696Y-71699999D01*
X153964285Y-71699999D01*
X153980024Y-71500000D01*
X153959957Y-71245010D01*
X153900247Y-70996297D01*
X153802365Y-70759987D01*
X153802363Y-70759984D01*
X153668719Y-70541897D01*
X153665465Y-70538087D01*
X152931907Y-71271645D01*
X152903868Y-71203952D01*
X152835469Y-71101586D01*
X152748414Y-71014531D01*
X152646048Y-70946132D01*
X152578354Y-70918092D01*
X153311912Y-70184533D01*
X153308107Y-70181284D01*
X153308098Y-70181277D01*
X153090015Y-70047636D01*
X153090012Y-70047634D01*
X152853702Y-69949752D01*
X152604988Y-69890042D01*
X152604989Y-69890042D01*
X152350000Y-69869975D01*
X152095010Y-69890042D01*
X151846297Y-69949752D01*
X151609987Y-70047634D01*
X151609984Y-70047636D01*
X151391893Y-70181282D01*
X151388086Y-70184532D01*
X152121646Y-70918092D01*
X152053952Y-70946132D01*
X151951586Y-71014531D01*
X151864531Y-71101586D01*
X151796132Y-71203952D01*
X151768092Y-71271646D01*
X151034532Y-70538086D01*
X151031282Y-70541893D01*
X150897636Y-70759984D01*
X150897634Y-70759987D01*
X150799752Y-70996297D01*
X150740042Y-71245010D01*
X150719975Y-71500000D01*
X145915500Y-71500000D01*
X145915500Y-69192525D01*
X145877984Y-69052515D01*
X145870995Y-69040411D01*
X145864945Y-69029930D01*
X145864945Y-69029931D01*
X145858380Y-69018561D01*
X145852386Y-69008178D01*
X145805510Y-68926985D01*
X145701818Y-68823293D01*
X145668333Y-68761970D01*
X145665499Y-68735612D01*
X145665499Y-68139994D01*
X149529615Y-68139994D01*
X149529615Y-68140005D01*
X149549123Y-68375430D01*
X149607117Y-68604445D01*
X149702013Y-68820787D01*
X149831225Y-69018562D01*
X149991223Y-69192364D01*
X149991227Y-69192368D01*
X150121557Y-69293808D01*
X150174463Y-69334987D01*
X150177654Y-69337470D01*
X150385421Y-69449908D01*
X150608861Y-69526616D01*
X150841880Y-69565500D01*
X150841881Y-69565500D01*
X151078119Y-69565500D01*
X151078120Y-69565500D01*
X151311139Y-69526616D01*
X151534579Y-69449908D01*
X151742346Y-69337470D01*
X151928773Y-69192368D01*
X152088775Y-69018561D01*
X152217986Y-68820788D01*
X152312883Y-68604445D01*
X152370876Y-68375434D01*
X152379546Y-68270796D01*
X152390385Y-68140005D01*
X152390385Y-68139994D01*
X152370876Y-67904569D01*
X152370876Y-67904566D01*
X152312883Y-67675555D01*
X152217986Y-67459212D01*
X152088775Y-67261439D01*
X152088774Y-67261437D01*
X151928776Y-67087635D01*
X151928775Y-67087634D01*
X151928773Y-67087632D01*
X151835559Y-67015081D01*
X151742348Y-66942531D01*
X151534580Y-66830092D01*
X151534571Y-66830089D01*
X151311141Y-66753384D01*
X151143626Y-66725431D01*
X151078120Y-66714500D01*
X150841880Y-66714500D01*
X150783625Y-66724221D01*
X150608858Y-66753384D01*
X150385428Y-66830089D01*
X150385419Y-66830092D01*
X150177651Y-66942531D01*
X149991228Y-67087631D01*
X149991223Y-67087635D01*
X149831225Y-67261437D01*
X149702013Y-67459212D01*
X149607117Y-67675554D01*
X149549123Y-67904569D01*
X149529615Y-68139994D01*
X145665499Y-68139994D01*
X145665499Y-66970143D01*
X145665499Y-66970136D01*
X145665497Y-66970117D01*
X145662586Y-66945012D01*
X145662585Y-66945010D01*
X145662585Y-66945009D01*
X145617206Y-66842235D01*
X145537765Y-66762794D01*
X145537763Y-66762793D01*
X145434992Y-66717415D01*
X145409865Y-66714500D01*
X143070143Y-66714500D01*
X143070117Y-66714502D01*
X143045012Y-66717413D01*
X143045008Y-66717415D01*
X142942235Y-66762793D01*
X142862794Y-66842234D01*
X142817415Y-66945006D01*
X142817415Y-66945008D01*
X142814500Y-66970131D01*
X142814500Y-67465500D01*
X142794815Y-67532539D01*
X142742011Y-67578294D01*
X142690500Y-67589500D01*
X140619387Y-67589500D01*
X140552348Y-67569815D01*
X140531706Y-67553181D01*
X136338016Y-63359491D01*
X136338015Y-63359490D01*
X136212485Y-63287016D01*
X136212486Y-63287016D01*
X136177482Y-63277637D01*
X136072475Y-63249500D01*
X129727525Y-63249500D01*
X129622517Y-63277637D01*
X129587514Y-63287016D01*
X129461986Y-63359489D01*
X129461983Y-63359491D01*
X126948718Y-65872756D01*
X126890712Y-65905472D01*
X126749773Y-65940210D01*
X126599150Y-66019263D01*
X126471816Y-66132072D01*
X126375182Y-66272068D01*
X126314860Y-66431125D01*
X126314859Y-66431130D01*
X126294355Y-66600000D01*
X108799657Y-66600000D01*
X108800360Y-60249999D01*
X116254728Y-60249999D01*
X116254729Y-60250000D01*
X117349252Y-60250000D01*
X117327482Y-60287708D01*
X117290000Y-60427591D01*
X117290000Y-60572409D01*
X117327482Y-60712292D01*
X117349252Y-60750000D01*
X116254728Y-60750000D01*
X116254811Y-60751067D01*
X116313603Y-60995956D01*
X116409980Y-61228631D01*
X116541568Y-61443362D01*
X116541571Y-61443367D01*
X116705130Y-61634869D01*
X116896632Y-61798428D01*
X116896637Y-61798431D01*
X117111368Y-61930019D01*
X117344043Y-62026396D01*
X117588932Y-62085188D01*
X117589999Y-62085271D01*
X117590000Y-62085271D01*
X117590000Y-60990747D01*
X117627708Y-61012518D01*
X117767591Y-61050000D01*
X117912409Y-61050000D01*
X118052292Y-61012518D01*
X118090000Y-60990747D01*
X118090000Y-62085271D01*
X118091067Y-62085188D01*
X118335956Y-62026396D01*
X118568631Y-61930019D01*
X118783362Y-61798431D01*
X118783367Y-61798428D01*
X118974869Y-61634869D01*
X119138428Y-61443367D01*
X119138431Y-61443362D01*
X119270019Y-61228631D01*
X119366396Y-60995956D01*
X119425188Y-60751067D01*
X119425272Y-60750000D01*
X118330748Y-60750000D01*
X118352518Y-60712292D01*
X118390000Y-60572409D01*
X118390000Y-60427591D01*
X118352518Y-60287708D01*
X118330748Y-60250000D01*
X119425271Y-60250000D01*
X119425271Y-60249999D01*
X119425188Y-60248932D01*
X119366396Y-60004043D01*
X119270019Y-59771368D01*
X119138431Y-59556637D01*
X119138428Y-59556632D01*
X118974869Y-59365130D01*
X118963162Y-59355131D01*
X126599500Y-59355131D01*
X126599500Y-61644856D01*
X126599502Y-61644882D01*
X126602413Y-61669987D01*
X126602415Y-61669991D01*
X126647793Y-61772764D01*
X126647794Y-61772765D01*
X126727235Y-61852206D01*
X126830009Y-61897585D01*
X126855135Y-61900500D01*
X129144864Y-61900499D01*
X129144879Y-61900497D01*
X129144882Y-61900497D01*
X129169987Y-61897586D01*
X129169988Y-61897585D01*
X129169991Y-61897585D01*
X129272765Y-61852206D01*
X129352206Y-61772765D01*
X129397585Y-61669991D01*
X129400500Y-61644865D01*
X129400500Y-60599999D01*
X135894696Y-60599999D01*
X135894696Y-60600000D01*
X135913898Y-60966405D01*
X135921202Y-61012518D01*
X135971295Y-61328794D01*
X136062719Y-61669993D01*
X136066260Y-61683206D01*
X136197746Y-62025739D01*
X136364320Y-62352656D01*
X136564147Y-62660364D01*
X136564149Y-62660366D01*
X136795051Y-62945506D01*
X137054494Y-63204949D01*
X137054498Y-63204952D01*
X137339635Y-63435852D01*
X137647343Y-63635679D01*
X137647348Y-63635682D01*
X137974264Y-63802255D01*
X138316801Y-63933742D01*
X138671206Y-64028705D01*
X139033596Y-64086102D01*
X139379734Y-64104241D01*
X139399999Y-64105304D01*
X139400000Y-64105304D01*
X139400001Y-64105304D01*
X139419203Y-64104297D01*
X139766404Y-64086102D01*
X140128794Y-64028705D01*
X140483199Y-63933742D01*
X140825736Y-63802255D01*
X141152652Y-63635682D01*
X141460366Y-63435851D01*
X141745506Y-63204949D01*
X142004949Y-62945506D01*
X142235851Y-62660366D01*
X142435682Y-62352652D01*
X142602255Y-62025736D01*
X142733742Y-61683199D01*
X142828705Y-61328794D01*
X142886102Y-60966404D01*
X142905304Y-60600000D01*
X142886102Y-60233596D01*
X142828705Y-59871206D01*
X142733742Y-59516801D01*
X142602255Y-59174264D01*
X142435682Y-58847348D01*
X142362645Y-58734880D01*
X142235852Y-58539635D01*
X142004952Y-58254498D01*
X142004949Y-58254494D01*
X141745506Y-57995051D01*
X141460366Y-57764149D01*
X141460364Y-57764147D01*
X141152656Y-57564320D01*
X140825739Y-57397746D01*
X140483206Y-57266260D01*
X140483199Y-57266258D01*
X140128794Y-57171295D01*
X140128790Y-57171294D01*
X140128789Y-57171294D01*
X139766405Y-57113898D01*
X139400001Y-57094696D01*
X139399999Y-57094696D01*
X139033594Y-57113898D01*
X138671211Y-57171294D01*
X138671209Y-57171294D01*
X138316793Y-57266260D01*
X137974260Y-57397746D01*
X137647343Y-57564320D01*
X137339635Y-57764147D01*
X137054498Y-57995047D01*
X137054490Y-57995054D01*
X136795054Y-58254490D01*
X136795047Y-58254498D01*
X136564147Y-58539635D01*
X136364320Y-58847343D01*
X136197746Y-59174260D01*
X136066260Y-59516793D01*
X135971294Y-59871209D01*
X135971294Y-59871211D01*
X135913898Y-60233594D01*
X135894696Y-60599999D01*
X129400500Y-60599999D01*
X129400499Y-59355136D01*
X129400497Y-59355117D01*
X129397586Y-59330012D01*
X129397585Y-59330010D01*
X129397585Y-59330009D01*
X129352206Y-59227235D01*
X129272765Y-59147794D01*
X129272763Y-59147793D01*
X129169992Y-59102415D01*
X129144865Y-59099500D01*
X126855143Y-59099500D01*
X126855117Y-59099502D01*
X126830012Y-59102413D01*
X126830008Y-59102415D01*
X126727235Y-59147793D01*
X126647794Y-59227234D01*
X126602415Y-59330006D01*
X126602415Y-59330008D01*
X126599500Y-59355131D01*
X118963162Y-59355131D01*
X118783367Y-59201571D01*
X118783362Y-59201568D01*
X118568631Y-59069980D01*
X118335956Y-58973603D01*
X118091064Y-58914811D01*
X118090000Y-58914726D01*
X118090000Y-60009252D01*
X118052292Y-59987482D01*
X117912409Y-59950000D01*
X117767591Y-59950000D01*
X117627708Y-59987482D01*
X117590000Y-60009252D01*
X117590000Y-58914726D01*
X117588935Y-58914811D01*
X117344043Y-58973603D01*
X117111368Y-59069980D01*
X116896637Y-59201568D01*
X116896632Y-59201571D01*
X116705130Y-59365130D01*
X116541571Y-59556632D01*
X116541568Y-59556637D01*
X116409980Y-59771368D01*
X116313603Y-60004043D01*
X116254811Y-60248932D01*
X116254728Y-60249999D01*
X108800360Y-60249999D01*
X108800492Y-59058156D01*
X108800500Y-59058082D01*
X108800500Y-59003750D01*
X108800726Y-58996263D01*
X108810013Y-58842727D01*
X108816084Y-58742359D01*
X108817889Y-58727500D01*
X108852317Y-58539634D01*
X108863062Y-58480995D01*
X108866645Y-58466461D01*
X108941202Y-58227202D01*
X108946504Y-58213219D01*
X109049361Y-57984679D01*
X109056320Y-57971421D01*
X109086106Y-57922149D01*
X109185975Y-57756946D01*
X109194462Y-57744650D01*
X109349034Y-57547354D01*
X109358949Y-57536163D01*
X109536163Y-57358949D01*
X109547354Y-57349034D01*
X109744650Y-57194462D01*
X109756946Y-57185975D01*
X109971421Y-57056319D01*
X109984680Y-57049361D01*
X109986504Y-57048540D01*
X110213219Y-56946504D01*
X110227202Y-56941202D01*
X110466467Y-56866643D01*
X110480995Y-56863062D01*
X110727506Y-56817888D01*
X110742359Y-56816084D01*
X110996264Y-56800726D01*
X111003751Y-56800500D01*
X111047595Y-56800500D01*
X165959634Y-56800500D01*
X166003477Y-56800500D01*
X166010964Y-56800725D01*
G37*
G04 #@! TD.AperFunction*
M02*
