G04 #@! TF.GenerationSoftware,KiCad,Pcbnew,8.0.6*
G04 #@! TF.CreationDate,2025-02-22T02:59:36-05:00*
G04 #@! TF.ProjectId,modular sensor,6d6f6475-6c61-4722-9073-656e736f722e,1.0*
G04 #@! TF.SameCoordinates,Original*
G04 #@! TF.FileFunction,Copper,L1,Top*
G04 #@! TF.FilePolarity,Positive*
%FSLAX46Y46*%
G04 Gerber Fmt 4.6, Leading zero omitted, Abs format (unit mm)*
G04 Created by KiCad (PCBNEW 8.0.6) date 2025-02-22 02:59:36*
%MOMM*%
%LPD*%
G01*
G04 APERTURE LIST*
G04 Aperture macros list*
%AMRoundRect*
0 Rectangle with rounded corners*
0 $1 Rounding radius*
0 $2 $3 $4 $5 $6 $7 $8 $9 X,Y pos of 4 corners*
0 Add a 4 corners polygon primitive as box body*
4,1,4,$2,$3,$4,$5,$6,$7,$8,$9,$2,$3,0*
0 Add four circle primitives for the rounded corners*
1,1,$1+$1,$2,$3*
1,1,$1+$1,$4,$5*
1,1,$1+$1,$6,$7*
1,1,$1+$1,$8,$9*
0 Add four rect primitives between the rounded corners*
20,1,$1+$1,$2,$3,$4,$5,0*
20,1,$1+$1,$4,$5,$6,$7,0*
20,1,$1+$1,$6,$7,$8,$9,0*
20,1,$1+$1,$8,$9,$2,$3,0*%
G04 Aperture macros list end*
G04 #@! TA.AperFunction,ComponentPad*
%ADD10C,6.400000*%
G04 #@! TD*
G04 #@! TA.AperFunction,ComponentPad*
%ADD11R,2.200000X2.200000*%
G04 #@! TD*
G04 #@! TA.AperFunction,ComponentPad*
%ADD12O,2.200000X2.200000*%
G04 #@! TD*
G04 #@! TA.AperFunction,SMDPad,CuDef*
%ADD13RoundRect,0.225000X0.250000X-0.225000X0.250000X0.225000X-0.250000X0.225000X-0.250000X-0.225000X0*%
G04 #@! TD*
G04 #@! TA.AperFunction,SMDPad,CuDef*
%ADD14RoundRect,0.200000X-0.275000X0.200000X-0.275000X-0.200000X0.275000X-0.200000X0.275000X0.200000X0*%
G04 #@! TD*
G04 #@! TA.AperFunction,SMDPad,CuDef*
%ADD15RoundRect,0.375000X0.625000X0.375000X-0.625000X0.375000X-0.625000X-0.375000X0.625000X-0.375000X0*%
G04 #@! TD*
G04 #@! TA.AperFunction,SMDPad,CuDef*
%ADD16RoundRect,0.500000X0.500000X1.400000X-0.500000X1.400000X-0.500000X-1.400000X0.500000X-1.400000X0*%
G04 #@! TD*
G04 #@! TA.AperFunction,SMDPad,CuDef*
%ADD17RoundRect,0.225000X0.225000X0.250000X-0.225000X0.250000X-0.225000X-0.250000X0.225000X-0.250000X0*%
G04 #@! TD*
G04 #@! TA.AperFunction,ComponentPad*
%ADD18R,1.520000X1.520000*%
G04 #@! TD*
G04 #@! TA.AperFunction,ComponentPad*
%ADD19C,1.520000*%
G04 #@! TD*
G04 #@! TA.AperFunction,SMDPad,CuDef*
%ADD20RoundRect,0.150000X-0.825000X-0.150000X0.825000X-0.150000X0.825000X0.150000X-0.825000X0.150000X0*%
G04 #@! TD*
G04 #@! TA.AperFunction,ComponentPad*
%ADD21R,2.250000X2.250000*%
G04 #@! TD*
G04 #@! TA.AperFunction,ComponentPad*
%ADD22C,2.250000*%
G04 #@! TD*
G04 #@! TA.AperFunction,SMDPad,CuDef*
%ADD23RoundRect,0.200000X0.275000X-0.200000X0.275000X0.200000X-0.275000X0.200000X-0.275000X-0.200000X0*%
G04 #@! TD*
G04 #@! TA.AperFunction,ViaPad*
%ADD24C,0.700000*%
G04 #@! TD*
G04 #@! TA.AperFunction,ViaPad*
%ADD25C,0.800000*%
G04 #@! TD*
G04 #@! TA.AperFunction,Conductor*
%ADD26C,0.500000*%
G04 #@! TD*
G04 APERTURE END LIST*
D10*
X139400000Y-82200000D03*
D11*
X128000000Y-60500000D03*
D12*
X117840000Y-60500000D03*
D13*
X134100000Y-72175000D03*
X134100000Y-70625000D03*
D14*
X134050000Y-65625000D03*
X134050000Y-67275000D03*
D15*
X131900000Y-76750000D03*
X131900000Y-74450000D03*
D16*
X125600000Y-74450000D03*
D15*
X131900000Y-72150000D03*
D10*
X163200000Y-71700000D03*
X139400000Y-60600000D03*
D17*
X134775000Y-62250000D03*
X133225000Y-62250000D03*
D18*
X119200000Y-75100000D03*
D19*
X119200000Y-72100000D03*
X119200000Y-69100000D03*
X122200000Y-75100000D03*
X122200000Y-72100000D03*
X122200000Y-69100000D03*
D20*
X125275000Y-64995000D03*
X125275000Y-66265000D03*
X125275000Y-67535000D03*
X125275000Y-68805000D03*
X130225000Y-68805000D03*
X130225000Y-67535000D03*
X130225000Y-66265000D03*
X130225000Y-64995000D03*
D21*
X144240000Y-68140000D03*
D22*
X142850000Y-71500000D03*
X144240000Y-74860000D03*
X150960000Y-74860000D03*
X152350000Y-71500000D03*
X150960000Y-68140000D03*
D23*
X132450000Y-67275000D03*
X132450000Y-65625000D03*
D24*
X120700000Y-73400000D03*
X120700000Y-70500000D03*
X120700000Y-67500000D03*
X127900000Y-67900000D03*
X127600000Y-63800000D03*
D25*
X127000000Y-66600000D03*
D24*
X119000000Y-63300000D03*
X120800000Y-63300000D03*
X122800000Y-58100000D03*
X142000000Y-78600000D03*
X115600000Y-63300000D03*
X149000000Y-65500000D03*
X139400000Y-69000000D03*
X140800000Y-71100000D03*
X131450000Y-62250000D03*
X134700000Y-76500000D03*
X132800000Y-59100000D03*
X119000000Y-58100000D03*
X141300000Y-66800000D03*
X124600000Y-58100000D03*
X130200000Y-58100000D03*
X129600000Y-70350000D03*
X140200000Y-75600000D03*
X130800000Y-59550000D03*
X114200000Y-61900000D03*
X129150000Y-79000000D03*
X147000000Y-69100000D03*
X117200000Y-58100000D03*
X155600000Y-73700000D03*
X133100000Y-78800000D03*
X125450000Y-70250000D03*
X127400000Y-82100000D03*
X138700000Y-73000000D03*
X135400000Y-60100000D03*
X132400000Y-82700000D03*
X137500000Y-67100000D03*
X128200000Y-58100000D03*
X151800000Y-78700000D03*
X145200000Y-64900000D03*
X146400000Y-78700000D03*
X155800000Y-68700000D03*
X126800000Y-78700000D03*
X122800000Y-63300000D03*
X114200000Y-59900000D03*
X142700000Y-64200000D03*
X120800000Y-58100000D03*
X136800000Y-78500000D03*
X115600000Y-58100000D03*
X139800000Y-65500000D03*
X147200000Y-73900000D03*
X137100000Y-75400000D03*
X124650000Y-78700000D03*
X117200000Y-63300000D03*
X116800000Y-69550000D03*
D26*
X131400000Y-62200000D02*
X131500000Y-62100000D01*
X131450000Y-62250000D02*
X131400000Y-62200000D01*
X133225000Y-62250000D02*
X131450000Y-62250000D01*
X147600000Y-71500000D02*
X150960000Y-68140000D01*
X147600000Y-71500000D02*
X150960000Y-74860000D01*
X142850000Y-71500000D02*
X147600000Y-71500000D01*
X135800000Y-74300000D02*
X136400000Y-73700000D01*
X135300000Y-74300000D02*
X135800000Y-74300000D01*
X135300000Y-74300000D02*
X136600000Y-74300000D01*
X136400000Y-73700000D02*
X136400000Y-63875000D01*
X132050000Y-74300000D02*
X135300000Y-74300000D01*
X136400000Y-74100000D02*
X136400000Y-73700000D01*
X132450000Y-64950000D02*
X132450000Y-65625000D01*
X134775000Y-62625000D02*
X132450000Y-64950000D01*
X134775000Y-62250000D02*
X134775000Y-62625000D01*
X136400000Y-63875000D02*
X134775000Y-62250000D01*
X136600000Y-74300000D02*
X140050000Y-74300000D01*
X136600000Y-74300000D02*
X136400000Y-74100000D01*
X140050000Y-74300000D02*
X142850000Y-71500000D01*
X131900000Y-74450000D02*
X132050000Y-74300000D01*
X125600000Y-74450000D02*
X131900000Y-74450000D01*
X126665000Y-66265000D02*
X127000000Y-66600000D01*
X125275000Y-66265000D02*
X126665000Y-66265000D01*
X123000000Y-71300000D02*
X131050000Y-71300000D01*
X122200000Y-72100000D02*
X123000000Y-71300000D01*
X131050000Y-71300000D02*
X131900000Y-72150000D01*
X119200000Y-72100000D02*
X122200000Y-72100000D01*
X131820000Y-64995000D02*
X130225000Y-64995000D01*
X132450000Y-65625000D02*
X131820000Y-64995000D01*
X134075000Y-72150000D02*
X134100000Y-72175000D01*
X131900000Y-72150000D02*
X134075000Y-72150000D01*
X132450000Y-67800000D02*
X132450000Y-67275000D01*
X131445000Y-68805000D02*
X132450000Y-67800000D01*
X130225000Y-68805000D02*
X131445000Y-68805000D01*
X132450000Y-67275000D02*
X134050000Y-67275000D01*
X130225000Y-66265000D02*
X130225000Y-67535000D01*
X124300001Y-64995000D02*
X125275000Y-64995000D01*
X123765000Y-65530001D02*
X124300001Y-64995000D01*
X123765000Y-67535000D02*
X123765000Y-65530001D01*
X123765000Y-67535000D02*
X125275000Y-67535000D01*
X122200000Y-69100000D02*
X123765000Y-67535000D01*
X119200000Y-69100000D02*
X122200000Y-69100000D01*
X128080000Y-60500000D02*
X133025000Y-60500000D01*
X133025000Y-60500000D02*
X134775000Y-62250000D01*
G04 #@! TA.AperFunction,Conductor*
G36*
X166010964Y-56800725D02*
G01*
X166264005Y-56816034D01*
X166278838Y-56817836D01*
X166524510Y-56862859D01*
X166539024Y-56866438D01*
X166777455Y-56940738D01*
X166791454Y-56946047D01*
X167019179Y-57048540D01*
X167032436Y-57055497D01*
X167246161Y-57184699D01*
X167258479Y-57193202D01*
X167455064Y-57347218D01*
X167466271Y-57357147D01*
X167642852Y-57533728D01*
X167652781Y-57544935D01*
X167806797Y-57741520D01*
X167815302Y-57753842D01*
X167855163Y-57819778D01*
X167944501Y-57967562D01*
X167951459Y-57980820D01*
X168053952Y-58208545D01*
X168059262Y-58222546D01*
X168133558Y-58460963D01*
X168137142Y-58475501D01*
X168182160Y-58721145D01*
X168183965Y-58736009D01*
X168199274Y-58989027D01*
X168199500Y-58996516D01*
X168199500Y-84006249D01*
X168199274Y-84013736D01*
X168183988Y-84266428D01*
X168182183Y-84281293D01*
X168137227Y-84526609D01*
X168133643Y-84541147D01*
X168059451Y-84779239D01*
X168054142Y-84793240D01*
X167951783Y-85020672D01*
X167944824Y-85033930D01*
X167815804Y-85247357D01*
X167807298Y-85259681D01*
X167653488Y-85456004D01*
X167643558Y-85467212D01*
X167467214Y-85643557D01*
X167456006Y-85653487D01*
X167259680Y-85807299D01*
X167247357Y-85815805D01*
X167033932Y-85944824D01*
X167020674Y-85951782D01*
X166793247Y-86054140D01*
X166779245Y-86059450D01*
X166541149Y-86133643D01*
X166526611Y-86137227D01*
X166281295Y-86182183D01*
X166266430Y-86183988D01*
X166013749Y-86199272D01*
X166006246Y-86199498D01*
X111047125Y-86192276D01*
X111047031Y-86192269D01*
X111037593Y-86192269D01*
X110993749Y-86192269D01*
X110986262Y-86192043D01*
X110733236Y-86176737D01*
X110718371Y-86174932D01*
X110472726Y-86129915D01*
X110458192Y-86126333D01*
X110219757Y-86052034D01*
X110205772Y-86046729D01*
X109979349Y-85944824D01*
X109978045Y-85944237D01*
X109964788Y-85937279D01*
X109751068Y-85808082D01*
X109738744Y-85799576D01*
X109542158Y-85645560D01*
X109530950Y-85635630D01*
X109354369Y-85459049D01*
X109344439Y-85447841D01*
X109190419Y-85251249D01*
X109181917Y-85238931D01*
X109052720Y-85025211D01*
X109045762Y-85011954D01*
X108943266Y-84784218D01*
X108937968Y-84770252D01*
X108863663Y-84531795D01*
X108860084Y-84517273D01*
X108852917Y-84478162D01*
X108815066Y-84271626D01*
X108813262Y-84256763D01*
X108807815Y-84166711D01*
X108797956Y-84003731D01*
X108797731Y-83996244D01*
X108797810Y-83283199D01*
X108797930Y-82199999D01*
X135894696Y-82199999D01*
X135894696Y-82200000D01*
X135913898Y-82566405D01*
X135971294Y-82928788D01*
X135971294Y-82928790D01*
X136066260Y-83283206D01*
X136197746Y-83625739D01*
X136364320Y-83952656D01*
X136564147Y-84260364D01*
X136581095Y-84281293D01*
X136795051Y-84545506D01*
X137054494Y-84804949D01*
X137054498Y-84804952D01*
X137339635Y-85035852D01*
X137393178Y-85070623D01*
X137647348Y-85235682D01*
X137974264Y-85402255D01*
X138316801Y-85533742D01*
X138671206Y-85628705D01*
X139033596Y-85686102D01*
X139379734Y-85704241D01*
X139399999Y-85705304D01*
X139400000Y-85705304D01*
X139400001Y-85705304D01*
X139419203Y-85704297D01*
X139766404Y-85686102D01*
X140128794Y-85628705D01*
X140483199Y-85533742D01*
X140825736Y-85402255D01*
X141152652Y-85235682D01*
X141460366Y-85035851D01*
X141745506Y-84804949D01*
X142004949Y-84545506D01*
X142235851Y-84260366D01*
X142435682Y-83952652D01*
X142602255Y-83625736D01*
X142733742Y-83283199D01*
X142828705Y-82928794D01*
X142886102Y-82566404D01*
X142905304Y-82200000D01*
X142886102Y-81833596D01*
X142828705Y-81471206D01*
X142733742Y-81116801D01*
X142602255Y-80774264D01*
X142435682Y-80447348D01*
X142235851Y-80139634D01*
X142004949Y-79854494D01*
X141745506Y-79595051D01*
X141460366Y-79364149D01*
X141460364Y-79364147D01*
X141152656Y-79164320D01*
X140825739Y-78997746D01*
X140483206Y-78866260D01*
X140483199Y-78866258D01*
X140128794Y-78771295D01*
X140128790Y-78771294D01*
X140128789Y-78771294D01*
X139766405Y-78713898D01*
X139400001Y-78694696D01*
X139399999Y-78694696D01*
X139033594Y-78713898D01*
X138671211Y-78771294D01*
X138671209Y-78771294D01*
X138316793Y-78866260D01*
X137974260Y-78997746D01*
X137647343Y-79164320D01*
X137339635Y-79364147D01*
X137054498Y-79595047D01*
X137054490Y-79595054D01*
X136795054Y-79854490D01*
X136795047Y-79854498D01*
X136564147Y-80139635D01*
X136364320Y-80447343D01*
X136197746Y-80774260D01*
X136066260Y-81116793D01*
X135971294Y-81471209D01*
X135971294Y-81471211D01*
X135913898Y-81833594D01*
X135894696Y-82199999D01*
X108797930Y-82199999D01*
X108798484Y-77201096D01*
X130400000Y-77201096D01*
X130402897Y-77243824D01*
X130448831Y-77428523D01*
X130533390Y-77599022D01*
X130533392Y-77599025D01*
X130652632Y-77747366D01*
X130652633Y-77747367D01*
X130800974Y-77866607D01*
X130800977Y-77866609D01*
X130971476Y-77951168D01*
X131156175Y-77997102D01*
X131198903Y-78000000D01*
X131650000Y-78000000D01*
X132150000Y-78000000D01*
X132601097Y-78000000D01*
X132643824Y-77997102D01*
X132828523Y-77951168D01*
X132999022Y-77866609D01*
X132999025Y-77866607D01*
X133147366Y-77747367D01*
X133147367Y-77747366D01*
X133266607Y-77599025D01*
X133266609Y-77599022D01*
X133351168Y-77428523D01*
X133397102Y-77243824D01*
X133400000Y-77201096D01*
X133400000Y-77000000D01*
X132150000Y-77000000D01*
X132150000Y-78000000D01*
X131650000Y-78000000D01*
X131650000Y-77000000D01*
X130400000Y-77000000D01*
X130400000Y-77201096D01*
X108798484Y-77201096D01*
X108798806Y-74292155D01*
X117940000Y-74292155D01*
X117940000Y-74850000D01*
X118755440Y-74850000D01*
X118724755Y-74903147D01*
X118690000Y-75032857D01*
X118690000Y-75167143D01*
X118724755Y-75296853D01*
X118755440Y-75350000D01*
X117940000Y-75350000D01*
X117940000Y-75907844D01*
X117946401Y-75967372D01*
X117946403Y-75967379D01*
X117996645Y-76102086D01*
X117996649Y-76102093D01*
X118082809Y-76217187D01*
X118082812Y-76217190D01*
X118197906Y-76303350D01*
X118197913Y-76303354D01*
X118332620Y-76353596D01*
X118332627Y-76353598D01*
X118392155Y-76359999D01*
X118392172Y-76360000D01*
X118950000Y-76360000D01*
X118950000Y-75544560D01*
X119003147Y-75575245D01*
X119132857Y-75610000D01*
X119267143Y-75610000D01*
X119396853Y-75575245D01*
X119450000Y-75544560D01*
X119450000Y-76360000D01*
X120007828Y-76360000D01*
X120007844Y-76359999D01*
X120067372Y-76353598D01*
X120067379Y-76353596D01*
X120202086Y-76303354D01*
X120202093Y-76303350D01*
X120317187Y-76217190D01*
X120317190Y-76217187D01*
X120403350Y-76102093D01*
X120403354Y-76102086D01*
X120453596Y-75967379D01*
X120453598Y-75967372D01*
X120459999Y-75907844D01*
X120460000Y-75907827D01*
X120460000Y-75350000D01*
X119644560Y-75350000D01*
X119675245Y-75296853D01*
X119710000Y-75167143D01*
X119710000Y-75099998D01*
X120935187Y-75099998D01*
X120935187Y-75100001D01*
X120954401Y-75319626D01*
X120954402Y-75319634D01*
X121011463Y-75532587D01*
X121011466Y-75532593D01*
X121104638Y-75732402D01*
X121149694Y-75796750D01*
X121708871Y-75237574D01*
X121724755Y-75296853D01*
X121791898Y-75413147D01*
X121886853Y-75508102D01*
X122003147Y-75575245D01*
X122062424Y-75591128D01*
X121503247Y-76150304D01*
X121567593Y-76195359D01*
X121767406Y-76288533D01*
X121767412Y-76288536D01*
X121980365Y-76345597D01*
X121980373Y-76345598D01*
X122199998Y-76364813D01*
X122200002Y-76364813D01*
X122419626Y-76345598D01*
X122419634Y-76345597D01*
X122632587Y-76288536D01*
X122632598Y-76288532D01*
X122832402Y-76195362D01*
X122832410Y-76195358D01*
X122896751Y-76150305D01*
X122896751Y-76150304D01*
X122337575Y-75591127D01*
X122396853Y-75575245D01*
X122513147Y-75508102D01*
X122608102Y-75413147D01*
X122675245Y-75296853D01*
X122691128Y-75237575D01*
X123250304Y-75796751D01*
X123250305Y-75796751D01*
X123295358Y-75732410D01*
X123295362Y-75732402D01*
X123388532Y-75532598D01*
X123388536Y-75532587D01*
X123445597Y-75319634D01*
X123445598Y-75319626D01*
X123464813Y-75100001D01*
X123464813Y-75099998D01*
X123445598Y-74880373D01*
X123445597Y-74880366D01*
X123388533Y-74667404D01*
X123295360Y-74467595D01*
X123295359Y-74467593D01*
X123250304Y-74403248D01*
X123250304Y-74403247D01*
X122691127Y-74962423D01*
X122675245Y-74903147D01*
X122608102Y-74786853D01*
X122513147Y-74691898D01*
X122396853Y-74624755D01*
X122337574Y-74608871D01*
X122896751Y-74049694D01*
X122832402Y-74004638D01*
X122632593Y-73911466D01*
X122632587Y-73911463D01*
X122419634Y-73854402D01*
X122419626Y-73854401D01*
X122200002Y-73835187D01*
X122199998Y-73835187D01*
X121980373Y-73854401D01*
X121980366Y-73854402D01*
X121767404Y-73911466D01*
X121567594Y-74004640D01*
X121503248Y-74049694D01*
X122062425Y-74608871D01*
X122003147Y-74624755D01*
X121886853Y-74691898D01*
X121791898Y-74786853D01*
X121724755Y-74903147D01*
X121708871Y-74962425D01*
X121149694Y-74403248D01*
X121104640Y-74467594D01*
X121011466Y-74667404D01*
X120954402Y-74880366D01*
X120954401Y-74880373D01*
X120935187Y-75099998D01*
X119710000Y-75099998D01*
X119710000Y-75032857D01*
X119675245Y-74903147D01*
X119644560Y-74850000D01*
X120460000Y-74850000D01*
X120460000Y-74292172D01*
X120459999Y-74292155D01*
X120453598Y-74232627D01*
X120453596Y-74232620D01*
X120403354Y-74097913D01*
X120403350Y-74097906D01*
X120317190Y-73982812D01*
X120317187Y-73982809D01*
X120202093Y-73896649D01*
X120202086Y-73896645D01*
X120067379Y-73846403D01*
X120067372Y-73846401D01*
X120007844Y-73840000D01*
X119450000Y-73840000D01*
X119450000Y-74655439D01*
X119396853Y-74624755D01*
X119267143Y-74590000D01*
X119132857Y-74590000D01*
X119003147Y-74624755D01*
X118950000Y-74655439D01*
X118950000Y-73840000D01*
X118392155Y-73840000D01*
X118332627Y-73846401D01*
X118332620Y-73846403D01*
X118197913Y-73896645D01*
X118197906Y-73896649D01*
X118082812Y-73982809D01*
X118082809Y-73982812D01*
X117996649Y-74097906D01*
X117996645Y-74097913D01*
X117946403Y-74232620D01*
X117946401Y-74232627D01*
X117940000Y-74292155D01*
X108798806Y-74292155D01*
X108799061Y-71985258D01*
X113129500Y-71985258D01*
X113129500Y-72214741D01*
X113151069Y-72378562D01*
X113159452Y-72442238D01*
X113188960Y-72552364D01*
X113218842Y-72663887D01*
X113306650Y-72875876D01*
X113306657Y-72875890D01*
X113421392Y-73074617D01*
X113561081Y-73256661D01*
X113561089Y-73256670D01*
X113723330Y-73418911D01*
X113723338Y-73418918D01*
X113723339Y-73418919D01*
X113767300Y-73452652D01*
X113905382Y-73558607D01*
X113905385Y-73558608D01*
X113905388Y-73558611D01*
X114104112Y-73673344D01*
X114104117Y-73673346D01*
X114104123Y-73673349D01*
X114195480Y-73711190D01*
X114316113Y-73761158D01*
X114537762Y-73820548D01*
X114765266Y-73850500D01*
X114765273Y-73850500D01*
X114994727Y-73850500D01*
X114994734Y-73850500D01*
X115222238Y-73820548D01*
X115443887Y-73761158D01*
X115655888Y-73673344D01*
X115854612Y-73558611D01*
X116036661Y-73418919D01*
X116036665Y-73418914D01*
X116036670Y-73418911D01*
X116198911Y-73256670D01*
X116198914Y-73256665D01*
X116198919Y-73256661D01*
X116338611Y-73074612D01*
X116453344Y-72875888D01*
X116541158Y-72663887D01*
X116600548Y-72442238D01*
X116630500Y-72214734D01*
X116630500Y-72100000D01*
X118134369Y-72100000D01*
X118154844Y-72307892D01*
X118175058Y-72374529D01*
X118215485Y-72507799D01*
X118215486Y-72507802D01*
X118215487Y-72507803D01*
X118215488Y-72507806D01*
X118313956Y-72692027D01*
X118313960Y-72692034D01*
X118446484Y-72853515D01*
X118607965Y-72986039D01*
X118607972Y-72986043D01*
X118792193Y-73084511D01*
X118792194Y-73084511D01*
X118792201Y-73084515D01*
X118992106Y-73145155D01*
X118992105Y-73145155D01*
X119010745Y-73146990D01*
X119200000Y-73165631D01*
X119407894Y-73145155D01*
X119607799Y-73084515D01*
X119792033Y-72986040D01*
X119953515Y-72853515D01*
X119962805Y-72842195D01*
X120082920Y-72695835D01*
X120140665Y-72656501D01*
X120178773Y-72650500D01*
X121221227Y-72650500D01*
X121288266Y-72670185D01*
X121317080Y-72695835D01*
X121446484Y-72853515D01*
X121607965Y-72986039D01*
X121607972Y-72986043D01*
X121792193Y-73084511D01*
X121792194Y-73084511D01*
X121792201Y-73084515D01*
X121992106Y-73145155D01*
X121992105Y-73145155D01*
X122010745Y-73146990D01*
X122200000Y-73165631D01*
X122407894Y-73145155D01*
X122607799Y-73084515D01*
X122792033Y-72986040D01*
X122953515Y-72853515D01*
X123086040Y-72692033D01*
X123184515Y-72507799D01*
X123245155Y-72307894D01*
X123265631Y-72100000D01*
X123254467Y-71986653D01*
X123267486Y-71918008D01*
X123315550Y-71867298D01*
X123377870Y-71850500D01*
X130200263Y-71850500D01*
X130267302Y-71870185D01*
X130311651Y-71920014D01*
X130567093Y-72442238D01*
X130586889Y-72482709D01*
X130599500Y-72537194D01*
X130599500Y-72579594D01*
X130605685Y-72647657D01*
X130605686Y-72647662D01*
X130605687Y-72647664D01*
X130654485Y-72804263D01*
X130654488Y-72804272D01*
X130739348Y-72944648D01*
X130739351Y-72944652D01*
X130855347Y-73060648D01*
X130855351Y-73060651D01*
X130992175Y-73143363D01*
X130995730Y-73145512D01*
X131111590Y-73181615D01*
X131169734Y-73220351D01*
X131197708Y-73284376D01*
X131186627Y-73353361D01*
X131140008Y-73405404D01*
X131111587Y-73418384D01*
X130995729Y-73454487D01*
X130994178Y-73455185D01*
X130987524Y-73458782D01*
X130359676Y-73760366D01*
X130180562Y-73846403D01*
X130095475Y-73887274D01*
X130041785Y-73899500D01*
X127749833Y-73899500D01*
X127682794Y-73879815D01*
X127675433Y-73874700D01*
X127643166Y-73850500D01*
X126950100Y-73330700D01*
X126908279Y-73274729D01*
X126900500Y-73231500D01*
X126900500Y-73005043D01*
X126900499Y-73005039D01*
X126898358Y-72986040D01*
X126893695Y-72944648D01*
X126885369Y-72870750D01*
X126885368Y-72870745D01*
X126825788Y-72700476D01*
X126749832Y-72579594D01*
X126729816Y-72547738D01*
X126602262Y-72420184D01*
X126536021Y-72378562D01*
X126449523Y-72324211D01*
X126279254Y-72264631D01*
X126279249Y-72264630D01*
X126144960Y-72249500D01*
X126144954Y-72249500D01*
X125055046Y-72249500D01*
X125055039Y-72249500D01*
X124920750Y-72264630D01*
X124920745Y-72264631D01*
X124750476Y-72324211D01*
X124597737Y-72420184D01*
X124470184Y-72547737D01*
X124374211Y-72700476D01*
X124314631Y-72870745D01*
X124314630Y-72870750D01*
X124299500Y-73005039D01*
X124299500Y-75894960D01*
X124314630Y-76029249D01*
X124314631Y-76029254D01*
X124374211Y-76199523D01*
X124439453Y-76303354D01*
X124470184Y-76352262D01*
X124597738Y-76479816D01*
X124750478Y-76575789D01*
X124920745Y-76635368D01*
X124920750Y-76635369D01*
X125011246Y-76645565D01*
X125055040Y-76650499D01*
X125055043Y-76650500D01*
X125055046Y-76650500D01*
X126144957Y-76650500D01*
X126144958Y-76650499D01*
X126212104Y-76642934D01*
X126279249Y-76635369D01*
X126279252Y-76635368D01*
X126279255Y-76635368D01*
X126449522Y-76575789D01*
X126602262Y-76479816D01*
X126729816Y-76352262D01*
X126825789Y-76199522D01*
X126885368Y-76029255D01*
X126892341Y-75967372D01*
X126898538Y-75912364D01*
X126900500Y-75894954D01*
X126900500Y-75668498D01*
X126920185Y-75601459D01*
X126950100Y-75569298D01*
X127675433Y-75025299D01*
X127740875Y-75000824D01*
X127749833Y-75000500D01*
X130041788Y-75000500D01*
X130095477Y-75012725D01*
X130416949Y-75167143D01*
X130860614Y-75380255D01*
X130912520Y-75427026D01*
X130930901Y-75494435D01*
X130909919Y-75561080D01*
X130862019Y-75603117D01*
X130800974Y-75633392D01*
X130652633Y-75752632D01*
X130652632Y-75752633D01*
X130533392Y-75900974D01*
X130533390Y-75900977D01*
X130448831Y-76071476D01*
X130402897Y-76256175D01*
X130400000Y-76298903D01*
X130400000Y-76500000D01*
X133400000Y-76500000D01*
X133400000Y-76298903D01*
X133397102Y-76256175D01*
X133351168Y-76071476D01*
X133266609Y-75900977D01*
X133266607Y-75900974D01*
X133147367Y-75752633D01*
X133147366Y-75752632D01*
X132999025Y-75633392D01*
X132999022Y-75633390D01*
X132923663Y-75596016D01*
X132872350Y-75548595D01*
X132854821Y-75480960D01*
X132876640Y-75414585D01*
X132914608Y-75378811D01*
X132923823Y-75373239D01*
X132944653Y-75360648D01*
X132946810Y-75358491D01*
X132968329Y-75341295D01*
X133715923Y-74869627D01*
X133749246Y-74859994D01*
X142809615Y-74859994D01*
X142809615Y-74860005D01*
X142829123Y-75095430D01*
X142887117Y-75324445D01*
X142982013Y-75540787D01*
X143111225Y-75738562D01*
X143267062Y-75907844D01*
X143271227Y-75912368D01*
X143457654Y-76057470D01*
X143665421Y-76169908D01*
X143888861Y-76246616D01*
X144121880Y-76285500D01*
X144121881Y-76285500D01*
X144358119Y-76285500D01*
X144358120Y-76285500D01*
X144591139Y-76246616D01*
X144814579Y-76169908D01*
X145022346Y-76057470D01*
X145208773Y-75912368D01*
X145368775Y-75738561D01*
X145497986Y-75540788D01*
X145592883Y-75324445D01*
X145650876Y-75095434D01*
X145668697Y-74880373D01*
X145670385Y-74860005D01*
X145670385Y-74859994D01*
X145654426Y-74667404D01*
X145650876Y-74624566D01*
X145592883Y-74395555D01*
X145497986Y-74179212D01*
X145368775Y-73981439D01*
X145368774Y-73981437D01*
X145208776Y-73807635D01*
X145208775Y-73807634D01*
X145208773Y-73807632D01*
X145108794Y-73729815D01*
X145022348Y-73662531D01*
X144814580Y-73550092D01*
X144814571Y-73550089D01*
X144591141Y-73473384D01*
X144435793Y-73447461D01*
X144358120Y-73434500D01*
X144121880Y-73434500D01*
X144086691Y-73440372D01*
X143888858Y-73473384D01*
X143665428Y-73550089D01*
X143665419Y-73550092D01*
X143457651Y-73662531D01*
X143271228Y-73807631D01*
X143271223Y-73807635D01*
X143111225Y-73981437D01*
X142982013Y-74179212D01*
X142887117Y-74395554D01*
X142829123Y-74624569D01*
X142809615Y-74859994D01*
X133749246Y-74859994D01*
X133782088Y-74850500D01*
X140122472Y-74850500D01*
X140122474Y-74850500D01*
X140122475Y-74850500D01*
X140262485Y-74812984D01*
X140277448Y-74804345D01*
X140388015Y-74740510D01*
X142252845Y-72875678D01*
X142314166Y-72842195D01*
X142380785Y-72846079D01*
X142498861Y-72886616D01*
X142731880Y-72925500D01*
X142731881Y-72925500D01*
X142968119Y-72925500D01*
X142968120Y-72925500D01*
X143201139Y-72886616D01*
X143424579Y-72809908D01*
X143632346Y-72697470D01*
X143818773Y-72552368D01*
X143978775Y-72378561D01*
X144107986Y-72180788D01*
X144132593Y-72124689D01*
X144177549Y-72071204D01*
X144244285Y-72050514D01*
X144246149Y-72050500D01*
X147320613Y-72050500D01*
X147387652Y-72070185D01*
X147408294Y-72086819D01*
X148503090Y-73181615D01*
X149580723Y-74259247D01*
X149614208Y-74320570D01*
X149609224Y-74390262D01*
X149607332Y-74394928D01*
X149607116Y-74395557D01*
X149549123Y-74624569D01*
X149529615Y-74859994D01*
X149529615Y-74860005D01*
X149549123Y-75095430D01*
X149607117Y-75324445D01*
X149702013Y-75540787D01*
X149831225Y-75738562D01*
X149987062Y-75907844D01*
X149991227Y-75912368D01*
X150177654Y-76057470D01*
X150385421Y-76169908D01*
X150608861Y-76246616D01*
X150841880Y-76285500D01*
X150841881Y-76285500D01*
X151078119Y-76285500D01*
X151078120Y-76285500D01*
X151311139Y-76246616D01*
X151534579Y-76169908D01*
X151742346Y-76057470D01*
X151928773Y-75912368D01*
X152088775Y-75738561D01*
X152217986Y-75540788D01*
X152312883Y-75324445D01*
X152370876Y-75095434D01*
X152388697Y-74880373D01*
X152390385Y-74860005D01*
X152390385Y-74859994D01*
X152374426Y-74667404D01*
X152370876Y-74624566D01*
X152312883Y-74395555D01*
X152217986Y-74179212D01*
X152088775Y-73981439D01*
X152088774Y-73981437D01*
X151928776Y-73807635D01*
X151928775Y-73807634D01*
X151928773Y-73807632D01*
X151828794Y-73729815D01*
X151742348Y-73662531D01*
X151534580Y-73550092D01*
X151534571Y-73550089D01*
X151311141Y-73473384D01*
X151155793Y-73447461D01*
X151078120Y-73434500D01*
X150841880Y-73434500D01*
X150808591Y-73440054D01*
X150608855Y-73473384D01*
X150490785Y-73513918D01*
X150420987Y-73517068D01*
X150362842Y-73484318D01*
X148466204Y-71587680D01*
X148432719Y-71526357D01*
X148434604Y-71500000D01*
X150719975Y-71500000D01*
X150740042Y-71754989D01*
X150799752Y-72003702D01*
X150897634Y-72240012D01*
X150897636Y-72240015D01*
X151031277Y-72458098D01*
X151031284Y-72458107D01*
X151034533Y-72461912D01*
X151768092Y-71728353D01*
X151796132Y-71796048D01*
X151864531Y-71898414D01*
X151951586Y-71985469D01*
X152053952Y-72053868D01*
X152121645Y-72081907D01*
X151388087Y-72815465D01*
X151391897Y-72818719D01*
X151609984Y-72952363D01*
X151609987Y-72952365D01*
X151846297Y-73050247D01*
X152095011Y-73109957D01*
X152095010Y-73109957D01*
X152350000Y-73130024D01*
X152604989Y-73109957D01*
X152853702Y-73050247D01*
X153090012Y-72952365D01*
X153090015Y-72952363D01*
X153308095Y-72818724D01*
X153308110Y-72818713D01*
X153311911Y-72815466D01*
X153311911Y-72815464D01*
X152578354Y-72081907D01*
X152646048Y-72053868D01*
X152748414Y-71985469D01*
X152835469Y-71898414D01*
X152903868Y-71796048D01*
X152931907Y-71728354D01*
X153665464Y-72461911D01*
X153665466Y-72461911D01*
X153668713Y-72458110D01*
X153668724Y-72458095D01*
X153802363Y-72240015D01*
X153802365Y-72240012D01*
X153900247Y-72003702D01*
X153959957Y-71754989D01*
X153964285Y-71699999D01*
X159694696Y-71699999D01*
X159694696Y-71700000D01*
X159713898Y-72066405D01*
X159745294Y-72264630D01*
X159771295Y-72428794D01*
X159841828Y-72692027D01*
X159866260Y-72783206D01*
X159997746Y-73125739D01*
X160164320Y-73452656D01*
X160364147Y-73760364D01*
X160544280Y-73982809D01*
X160595051Y-74045506D01*
X160854494Y-74304949D01*
X160975882Y-74403247D01*
X161139635Y-74535852D01*
X161379926Y-74691898D01*
X161447348Y-74735682D01*
X161774264Y-74902255D01*
X162116801Y-75033742D01*
X162471206Y-75128705D01*
X162833596Y-75186102D01*
X163179734Y-75204241D01*
X163199999Y-75205304D01*
X163200000Y-75205304D01*
X163200001Y-75205304D01*
X163219203Y-75204297D01*
X163566404Y-75186102D01*
X163928794Y-75128705D01*
X164283199Y-75033742D01*
X164625736Y-74902255D01*
X164952652Y-74735682D01*
X165260366Y-74535851D01*
X165545506Y-74304949D01*
X165804949Y-74045506D01*
X166035851Y-73760366D01*
X166235682Y-73452652D01*
X166402255Y-73125736D01*
X166533742Y-72783199D01*
X166628705Y-72428794D01*
X166686102Y-72066404D01*
X166705304Y-71700000D01*
X166686102Y-71333596D01*
X166628705Y-70971206D01*
X166533742Y-70616801D01*
X166402255Y-70274264D01*
X166235682Y-69947348D01*
X166235632Y-69947271D01*
X166035852Y-69639635D01*
X165882213Y-69449907D01*
X165804949Y-69354494D01*
X165545506Y-69095051D01*
X165496047Y-69055000D01*
X165260364Y-68864147D01*
X164952656Y-68664320D01*
X164625739Y-68497746D01*
X164283206Y-68366260D01*
X164283199Y-68366258D01*
X163928794Y-68271295D01*
X163928790Y-68271294D01*
X163928789Y-68271294D01*
X163566405Y-68213898D01*
X163200001Y-68194696D01*
X163199999Y-68194696D01*
X162833594Y-68213898D01*
X162471211Y-68271294D01*
X162471209Y-68271294D01*
X162116793Y-68366260D01*
X161774260Y-68497746D01*
X161447343Y-68664320D01*
X161139635Y-68864147D01*
X160854498Y-69095047D01*
X160854490Y-69095054D01*
X160595054Y-69354490D01*
X160595047Y-69354498D01*
X160364147Y-69639635D01*
X160164320Y-69947343D01*
X159997746Y-70274260D01*
X159866260Y-70616793D01*
X159771294Y-70971209D01*
X159771294Y-70971211D01*
X159713898Y-71333594D01*
X159694696Y-71699999D01*
X153964285Y-71699999D01*
X153980024Y-71500000D01*
X153959957Y-71245010D01*
X153900247Y-70996297D01*
X153802365Y-70759987D01*
X153802363Y-70759984D01*
X153668719Y-70541897D01*
X153665465Y-70538087D01*
X152931907Y-71271645D01*
X152903868Y-71203952D01*
X152835469Y-71101586D01*
X152748414Y-71014531D01*
X152646048Y-70946132D01*
X152578354Y-70918092D01*
X153311912Y-70184533D01*
X153308107Y-70181284D01*
X153308098Y-70181277D01*
X153090015Y-70047636D01*
X153090012Y-70047634D01*
X152853702Y-69949752D01*
X152604988Y-69890042D01*
X152604989Y-69890042D01*
X152350000Y-69869975D01*
X152095010Y-69890042D01*
X151846297Y-69949752D01*
X151609987Y-70047634D01*
X151609984Y-70047636D01*
X151391893Y-70181282D01*
X151388086Y-70184532D01*
X152121646Y-70918092D01*
X152053952Y-70946132D01*
X151951586Y-71014531D01*
X151864531Y-71101586D01*
X151796132Y-71203952D01*
X151768092Y-71271646D01*
X151034532Y-70538086D01*
X151031282Y-70541893D01*
X150897636Y-70759984D01*
X150897634Y-70759987D01*
X150799752Y-70996297D01*
X150740042Y-71245010D01*
X150719975Y-71500000D01*
X148434604Y-71500000D01*
X148437703Y-71456665D01*
X148466200Y-71412323D01*
X150362844Y-69515678D01*
X150424165Y-69482195D01*
X150490784Y-69486079D01*
X150554070Y-69507806D01*
X150608860Y-69526616D01*
X150725370Y-69546058D01*
X150841880Y-69565500D01*
X150841881Y-69565500D01*
X151078119Y-69565500D01*
X151078120Y-69565500D01*
X151311139Y-69526616D01*
X151534579Y-69449908D01*
X151742346Y-69337470D01*
X151928773Y-69192368D01*
X152088775Y-69018561D01*
X152217986Y-68820788D01*
X152312883Y-68604445D01*
X152370876Y-68375434D01*
X152383322Y-68225238D01*
X152390385Y-68140005D01*
X152390385Y-68139994D01*
X152374962Y-67953874D01*
X152370876Y-67904566D01*
X152312883Y-67675555D01*
X152217986Y-67459212D01*
X152142253Y-67343293D01*
X152088774Y-67261437D01*
X151928776Y-67087635D01*
X151928775Y-67087634D01*
X151928773Y-67087632D01*
X151793323Y-66982207D01*
X151742348Y-66942531D01*
X151534580Y-66830092D01*
X151534571Y-66830089D01*
X151311141Y-66753384D01*
X151095810Y-66717452D01*
X151078120Y-66714500D01*
X150841880Y-66714500D01*
X150824190Y-66717452D01*
X150608858Y-66753384D01*
X150385428Y-66830089D01*
X150385419Y-66830092D01*
X150177651Y-66942531D01*
X149991228Y-67087631D01*
X149991223Y-67087635D01*
X149831225Y-67261437D01*
X149702013Y-67459212D01*
X149607117Y-67675554D01*
X149549123Y-67904569D01*
X149529615Y-68139994D01*
X149529615Y-68140005D01*
X149549123Y-68375430D01*
X149607116Y-68604443D01*
X149608780Y-68609288D01*
X149607436Y-68609749D01*
X149615495Y-68672589D01*
X149585504Y-68735694D01*
X149580722Y-68740752D01*
X147408294Y-70913181D01*
X147346971Y-70946666D01*
X147320613Y-70949500D01*
X144246149Y-70949500D01*
X144179110Y-70929815D01*
X144133355Y-70877011D01*
X144132593Y-70875310D01*
X144107986Y-70819212D01*
X143978774Y-70621437D01*
X143818776Y-70447635D01*
X143818775Y-70447634D01*
X143818773Y-70447632D01*
X143725455Y-70375000D01*
X143632348Y-70302531D01*
X143424580Y-70190092D01*
X143424571Y-70190089D01*
X143201141Y-70113384D01*
X143045793Y-70087461D01*
X142968120Y-70074500D01*
X142731880Y-70074500D01*
X142673625Y-70084221D01*
X142498858Y-70113384D01*
X142275428Y-70190089D01*
X142275419Y-70190092D01*
X142067651Y-70302531D01*
X141881228Y-70447631D01*
X141881223Y-70447635D01*
X141721225Y-70621437D01*
X141592013Y-70819212D01*
X141497117Y-71035554D01*
X141439123Y-71264569D01*
X141419615Y-71499994D01*
X141419615Y-71500005D01*
X141439123Y-71735430D01*
X141497116Y-71964443D01*
X141498780Y-71969288D01*
X141497434Y-71969750D01*
X141505497Y-72032575D01*
X141475513Y-72095683D01*
X141470722Y-72100751D01*
X139858294Y-73713181D01*
X139796971Y-73746666D01*
X139770613Y-73749500D01*
X137074500Y-73749500D01*
X137007461Y-73729815D01*
X136961706Y-73677011D01*
X136950500Y-73625500D01*
X136950500Y-66970131D01*
X142814500Y-66970131D01*
X142814500Y-69309856D01*
X142814502Y-69309882D01*
X142817413Y-69334987D01*
X142817415Y-69334991D01*
X142862793Y-69437764D01*
X142862794Y-69437765D01*
X142942235Y-69517206D01*
X143045009Y-69562585D01*
X143070135Y-69565500D01*
X145409864Y-69565499D01*
X145409879Y-69565497D01*
X145409882Y-69565497D01*
X145434987Y-69562586D01*
X145434988Y-69562585D01*
X145434991Y-69562585D01*
X145537765Y-69517206D01*
X145617206Y-69437765D01*
X145662585Y-69334991D01*
X145665500Y-69309865D01*
X145665499Y-66970136D01*
X145665497Y-66970117D01*
X145662586Y-66945012D01*
X145662585Y-66945010D01*
X145662585Y-66945009D01*
X145617206Y-66842235D01*
X145537765Y-66762794D01*
X145537763Y-66762793D01*
X145434992Y-66717415D01*
X145409865Y-66714500D01*
X143070143Y-66714500D01*
X143070117Y-66714502D01*
X143045012Y-66717413D01*
X143045008Y-66717415D01*
X142942235Y-66762793D01*
X142862794Y-66842234D01*
X142817415Y-66945006D01*
X142817415Y-66945008D01*
X142814500Y-66970131D01*
X136950500Y-66970131D01*
X136950500Y-63802527D01*
X136950500Y-63802525D01*
X136912984Y-63662515D01*
X136897492Y-63635682D01*
X136840510Y-63536985D01*
X135927544Y-62624019D01*
X135909282Y-62600774D01*
X135847990Y-62500000D01*
X135541099Y-61995419D01*
X135523928Y-61945773D01*
X135515359Y-61874410D01*
X135462364Y-61740025D01*
X135462363Y-61740024D01*
X135462363Y-61740023D01*
X135375078Y-61624921D01*
X135259976Y-61537636D01*
X135125588Y-61484640D01*
X135087444Y-61480060D01*
X135051593Y-61475754D01*
X135003043Y-61459243D01*
X134424355Y-61115410D01*
X134400013Y-61096488D01*
X133903524Y-60599999D01*
X135894696Y-60599999D01*
X135894696Y-60600000D01*
X135913898Y-60966405D01*
X135928992Y-61061706D01*
X135971295Y-61328794D01*
X136062719Y-61669993D01*
X136066260Y-61683206D01*
X136197746Y-62025739D01*
X136364320Y-62352656D01*
X136564147Y-62660364D01*
X136684090Y-62808481D01*
X136795051Y-62945506D01*
X137054494Y-63204949D01*
X137176097Y-63303421D01*
X137339635Y-63435852D01*
X137647343Y-63635679D01*
X137647348Y-63635682D01*
X137974264Y-63802255D01*
X138316801Y-63933742D01*
X138671206Y-64028705D01*
X139033596Y-64086102D01*
X139379734Y-64104241D01*
X139399999Y-64105304D01*
X139400000Y-64105304D01*
X139400001Y-64105304D01*
X139419203Y-64104297D01*
X139766404Y-64086102D01*
X140128794Y-64028705D01*
X140483199Y-63933742D01*
X140825736Y-63802255D01*
X141152652Y-63635682D01*
X141460366Y-63435851D01*
X141745506Y-63204949D01*
X142004949Y-62945506D01*
X142235851Y-62660366D01*
X142435682Y-62352652D01*
X142602255Y-62025736D01*
X142733742Y-61683199D01*
X142828705Y-61328794D01*
X142886102Y-60966404D01*
X142905304Y-60600000D01*
X142886102Y-60233596D01*
X142828705Y-59871206D01*
X142733742Y-59516801D01*
X142602255Y-59174264D01*
X142435682Y-58847348D01*
X142362645Y-58734880D01*
X142235852Y-58539635D01*
X142004952Y-58254498D01*
X142004949Y-58254494D01*
X141745506Y-57995051D01*
X141460366Y-57764149D01*
X141460364Y-57764147D01*
X141152656Y-57564320D01*
X140825739Y-57397746D01*
X140483206Y-57266260D01*
X140483199Y-57266258D01*
X140128794Y-57171295D01*
X140128790Y-57171294D01*
X140128789Y-57171294D01*
X139766405Y-57113898D01*
X139400001Y-57094696D01*
X139399999Y-57094696D01*
X139033594Y-57113898D01*
X138671211Y-57171294D01*
X138671209Y-57171294D01*
X138316793Y-57266260D01*
X137974260Y-57397746D01*
X137647343Y-57564320D01*
X137339635Y-57764147D01*
X137054498Y-57995047D01*
X137054490Y-57995054D01*
X136795054Y-58254490D01*
X136795047Y-58254498D01*
X136564147Y-58539635D01*
X136364320Y-58847343D01*
X136197746Y-59174260D01*
X136066260Y-59516793D01*
X135971294Y-59871209D01*
X135971294Y-59871211D01*
X135913898Y-60233594D01*
X135894696Y-60599999D01*
X133903524Y-60599999D01*
X133363016Y-60059491D01*
X133363015Y-60059490D01*
X133237485Y-59987016D01*
X133237486Y-59987016D01*
X133128592Y-59957838D01*
X133128592Y-59957837D01*
X133097475Y-59949500D01*
X129524499Y-59949500D01*
X129457460Y-59929815D01*
X129411705Y-59877011D01*
X129400499Y-59825500D01*
X129400499Y-59355143D01*
X129400499Y-59355136D01*
X129400497Y-59355117D01*
X129397586Y-59330012D01*
X129397585Y-59330010D01*
X129397585Y-59330009D01*
X129352206Y-59227235D01*
X129272765Y-59147794D01*
X129272763Y-59147793D01*
X129169992Y-59102415D01*
X129144865Y-59099500D01*
X126855143Y-59099500D01*
X126855117Y-59099502D01*
X126830012Y-59102413D01*
X126830008Y-59102415D01*
X126727235Y-59147793D01*
X126647794Y-59227234D01*
X126602415Y-59330006D01*
X126602415Y-59330008D01*
X126599500Y-59355131D01*
X126599500Y-61644856D01*
X126599502Y-61644882D01*
X126602413Y-61669987D01*
X126602415Y-61669991D01*
X126647793Y-61772764D01*
X126647794Y-61772765D01*
X126727235Y-61852206D01*
X126830009Y-61897585D01*
X126855135Y-61900500D01*
X129144864Y-61900499D01*
X129144879Y-61900497D01*
X129144882Y-61900497D01*
X129169987Y-61897586D01*
X129169988Y-61897585D01*
X129169991Y-61897585D01*
X129272765Y-61852206D01*
X129352206Y-61772765D01*
X129397585Y-61669991D01*
X129400500Y-61644865D01*
X129400500Y-61174500D01*
X129420185Y-61107461D01*
X129472989Y-61061706D01*
X129524500Y-61050500D01*
X132745613Y-61050500D01*
X132812652Y-61070185D01*
X132833294Y-61086819D01*
X132844858Y-61098383D01*
X132878343Y-61159706D01*
X132873359Y-61229398D01*
X132831487Y-61285331D01*
X132796182Y-61303770D01*
X132691516Y-61338453D01*
X132691507Y-61338457D01*
X132547271Y-61427424D01*
X132547267Y-61427427D01*
X132427427Y-61547267D01*
X132427424Y-61547271D01*
X132338457Y-61691507D01*
X132338452Y-61691518D01*
X132285144Y-61852393D01*
X132275000Y-61951677D01*
X132275000Y-62000000D01*
X133351000Y-62000000D01*
X133418039Y-62019685D01*
X133463794Y-62072489D01*
X133475000Y-62124000D01*
X133475000Y-62376000D01*
X133455315Y-62443039D01*
X133402511Y-62488794D01*
X133351000Y-62500000D01*
X132275001Y-62500000D01*
X132275001Y-62548322D01*
X132285144Y-62647607D01*
X132338452Y-62808481D01*
X132338457Y-62808492D01*
X132427424Y-62952728D01*
X132427427Y-62952732D01*
X132547267Y-63072572D01*
X132547271Y-63072575D01*
X132691507Y-63161542D01*
X132691518Y-63161547D01*
X132852393Y-63214855D01*
X132951683Y-63224999D01*
X133097111Y-63224999D01*
X133164151Y-63244683D01*
X133209906Y-63297487D01*
X133219850Y-63366645D01*
X133190825Y-63430201D01*
X133184793Y-63436680D01*
X132166712Y-64454761D01*
X132105389Y-64488246D01*
X132040473Y-64483603D01*
X132040335Y-64484120D01*
X132037655Y-64483402D01*
X132035697Y-64483262D01*
X132032633Y-64482056D01*
X132032486Y-64482016D01*
X132032485Y-64482016D01*
X131892475Y-64444500D01*
X131892472Y-64444500D01*
X131555872Y-64444500D01*
X131529118Y-64440518D01*
X131528944Y-64441367D01*
X131523338Y-64440212D01*
X131254480Y-64410340D01*
X131086450Y-64391670D01*
X131086445Y-64391670D01*
X131016509Y-64391953D01*
X131007695Y-64393006D01*
X131007681Y-64392895D01*
X130989513Y-64394500D01*
X129345730Y-64394500D01*
X129315300Y-64397353D01*
X129315298Y-64397353D01*
X129187119Y-64442206D01*
X129187117Y-64442207D01*
X129077850Y-64522850D01*
X128997207Y-64632117D01*
X128997206Y-64632119D01*
X128952353Y-64760298D01*
X128952353Y-64760300D01*
X128949500Y-64790730D01*
X128949500Y-65199269D01*
X128952353Y-65229699D01*
X128952353Y-65229701D01*
X128997206Y-65357880D01*
X128997207Y-65357882D01*
X129077850Y-65467150D01*
X129163321Y-65530230D01*
X129205571Y-65585877D01*
X129211030Y-65655534D01*
X129177962Y-65717083D01*
X129163321Y-65729769D01*
X129077850Y-65792850D01*
X128997207Y-65902117D01*
X128997206Y-65902119D01*
X128952353Y-66030298D01*
X128952353Y-66030300D01*
X128949500Y-66060730D01*
X128949500Y-66469269D01*
X128952353Y-66499699D01*
X128952353Y-66499701D01*
X128997206Y-66627880D01*
X128997207Y-66627882D01*
X129077850Y-66737150D01*
X129163321Y-66800230D01*
X129205571Y-66855877D01*
X129211030Y-66925534D01*
X129177962Y-66987083D01*
X129163321Y-66999769D01*
X129126259Y-67027123D01*
X129077850Y-67062850D01*
X128997207Y-67172117D01*
X128997206Y-67172119D01*
X128952353Y-67300298D01*
X128952353Y-67300300D01*
X128949500Y-67330730D01*
X128949500Y-67739269D01*
X128952353Y-67769699D01*
X128952353Y-67769701D01*
X128986657Y-67867733D01*
X128997207Y-67897882D01*
X129077850Y-68007150D01*
X129142475Y-68054845D01*
X129163321Y-68070230D01*
X129205571Y-68125877D01*
X129211030Y-68195534D01*
X129177962Y-68257083D01*
X129163321Y-68269770D01*
X129077850Y-68332850D01*
X128997207Y-68442117D01*
X128997206Y-68442119D01*
X128952353Y-68570298D01*
X128952353Y-68570300D01*
X128949500Y-68600730D01*
X128949500Y-69009269D01*
X128952353Y-69039699D01*
X128952353Y-69039701D01*
X128997206Y-69167880D01*
X128997207Y-69167882D01*
X129077850Y-69277150D01*
X129187118Y-69357793D01*
X129207009Y-69364753D01*
X129315299Y-69402646D01*
X129345730Y-69405500D01*
X129345734Y-69405500D01*
X131104270Y-69405500D01*
X131134689Y-69402647D01*
X131134689Y-69402646D01*
X131134699Y-69402646D01*
X131243007Y-69364746D01*
X131253393Y-69361616D01*
X131262436Y-69359318D01*
X131292971Y-69355500D01*
X131517472Y-69355500D01*
X131517474Y-69355500D01*
X131517475Y-69355500D01*
X131657485Y-69317984D01*
X131667010Y-69312485D01*
X131783015Y-69245510D01*
X132890510Y-68138014D01*
X132962984Y-68012485D01*
X132966926Y-67997769D01*
X133003289Y-67938110D01*
X133055780Y-67909778D01*
X133219083Y-67867733D01*
X133280915Y-67867733D01*
X133615489Y-67953876D01*
X133626274Y-67955817D01*
X133647626Y-67961671D01*
X133667517Y-67969091D01*
X133727127Y-67975500D01*
X134372872Y-67975499D01*
X134432483Y-67969091D01*
X134567331Y-67918796D01*
X134682546Y-67832546D01*
X134768796Y-67717331D01*
X134819091Y-67582483D01*
X134825500Y-67522873D01*
X134825499Y-67027128D01*
X134819373Y-66970136D01*
X134819091Y-66967516D01*
X134768797Y-66832671D01*
X134768793Y-66832664D01*
X134682547Y-66717455D01*
X134678602Y-66714502D01*
X134615003Y-66666891D01*
X134573133Y-66610957D01*
X134568149Y-66541265D01*
X134601635Y-66479943D01*
X134625166Y-66461508D01*
X134759874Y-66380074D01*
X134759878Y-66380071D01*
X134880072Y-66259877D01*
X134968019Y-66114395D01*
X135018590Y-65952106D01*
X135025000Y-65881572D01*
X135025000Y-65875000D01*
X133924000Y-65875000D01*
X133856961Y-65855315D01*
X133811206Y-65802511D01*
X133800000Y-65751000D01*
X133800000Y-65375000D01*
X134300000Y-65375000D01*
X135024999Y-65375000D01*
X135024999Y-65368417D01*
X135018591Y-65297897D01*
X135018590Y-65297892D01*
X134968018Y-65135603D01*
X134880072Y-64990122D01*
X134759877Y-64869927D01*
X134614395Y-64781980D01*
X134614396Y-64781980D01*
X134452105Y-64731409D01*
X134452106Y-64731409D01*
X134381572Y-64725000D01*
X134300000Y-64725000D01*
X134300000Y-65375000D01*
X133800000Y-65375000D01*
X133800000Y-64725000D01*
X133799999Y-64724999D01*
X133752886Y-64725000D01*
X133685847Y-64705316D01*
X133640091Y-64652513D01*
X133630147Y-64583354D01*
X133659171Y-64519798D01*
X133665195Y-64513328D01*
X134727008Y-63451514D01*
X134744753Y-63436800D01*
X134757565Y-63428052D01*
X134854156Y-63331735D01*
X134915526Y-63298337D01*
X134985211Y-63303421D01*
X135005051Y-63312938D01*
X135125644Y-63384589D01*
X135149986Y-63403511D01*
X135813181Y-64066706D01*
X135846666Y-64128029D01*
X135849500Y-64154387D01*
X135849500Y-73420613D01*
X135829815Y-73487652D01*
X135813181Y-73508294D01*
X135608294Y-73713181D01*
X135546971Y-73746666D01*
X135520613Y-73749500D01*
X133733809Y-73749500D01*
X133695214Y-73743341D01*
X132770181Y-73440377D01*
X132770163Y-73440372D01*
X132728008Y-73429819D01*
X132728007Y-73429818D01*
X132728004Y-73429818D01*
X132727999Y-73429817D01*
X132725855Y-73429361D01*
X132725871Y-73429284D01*
X132725863Y-73429282D01*
X132725876Y-73429226D01*
X132713765Y-73426285D01*
X132688410Y-73418384D01*
X132630265Y-73379648D01*
X132602291Y-73315623D01*
X132613372Y-73246638D01*
X132659991Y-73194595D01*
X132688413Y-73181615D01*
X132804264Y-73145514D01*
X132804264Y-73145513D01*
X132804270Y-73145512D01*
X132804274Y-73145509D01*
X132805853Y-73144798D01*
X132812483Y-73141211D01*
X133420317Y-72849241D01*
X133489268Y-72837959D01*
X133515275Y-72844085D01*
X133654261Y-72893146D01*
X133677699Y-72898475D01*
X133695688Y-72904032D01*
X133724410Y-72915359D01*
X133808855Y-72925500D01*
X133808856Y-72925500D01*
X134391138Y-72925500D01*
X134391144Y-72925500D01*
X134475590Y-72915359D01*
X134609975Y-72862364D01*
X134725078Y-72775078D01*
X134812364Y-72659975D01*
X134865359Y-72525590D01*
X134875500Y-72441144D01*
X134875500Y-71908856D01*
X134865359Y-71824410D01*
X134812364Y-71690025D01*
X134753608Y-71612544D01*
X134728786Y-71547234D01*
X134743214Y-71478870D01*
X134787317Y-71432081D01*
X134802731Y-71422573D01*
X134922572Y-71302732D01*
X134922575Y-71302728D01*
X135011542Y-71158492D01*
X135011547Y-71158481D01*
X135064855Y-70997606D01*
X135074999Y-70898322D01*
X135075000Y-70898309D01*
X135075000Y-70875000D01*
X133125001Y-70875000D01*
X133125001Y-70898322D01*
X133135144Y-70997607D01*
X133167878Y-71096392D01*
X133170280Y-71166221D01*
X133134548Y-71226262D01*
X133072027Y-71257455D01*
X133002568Y-71249894D01*
X132996491Y-71247174D01*
X132812477Y-71158784D01*
X132805835Y-71155192D01*
X132804278Y-71154491D01*
X132804271Y-71154489D01*
X132804270Y-71154488D01*
X132789288Y-71149819D01*
X132784434Y-71148194D01*
X132748331Y-71135266D01*
X132748328Y-71135265D01*
X132748319Y-71135262D01*
X132743649Y-71134119D01*
X132740124Y-71133470D01*
X132740193Y-71133095D01*
X132725183Y-71129843D01*
X132647657Y-71105685D01*
X132647659Y-71105685D01*
X132620431Y-71103211D01*
X132579594Y-71099500D01*
X132579591Y-71099500D01*
X132175835Y-71099500D01*
X132149902Y-71096757D01*
X131814807Y-71025081D01*
X131518365Y-70961672D01*
X131456926Y-70928400D01*
X131456621Y-70928096D01*
X131388016Y-70859491D01*
X131388015Y-70859490D01*
X131262485Y-70787016D01*
X131262482Y-70787015D01*
X131240471Y-70781116D01*
X131240471Y-70781117D01*
X131181472Y-70765308D01*
X131122475Y-70749500D01*
X131122474Y-70749500D01*
X130526213Y-70749500D01*
X130516600Y-70748992D01*
X130516598Y-70749046D01*
X130516595Y-70749045D01*
X130516591Y-70749110D01*
X130514599Y-70748963D01*
X130475387Y-70747349D01*
X130467684Y-70747993D01*
X130467675Y-70747890D01*
X130452255Y-70749500D01*
X122927525Y-70749500D01*
X122809529Y-70781117D01*
X122809528Y-70781116D01*
X122787517Y-70787015D01*
X122787514Y-70787016D01*
X122661986Y-70859488D01*
X122502833Y-71018641D01*
X122441509Y-71052125D01*
X122402998Y-71054362D01*
X122200000Y-71034369D01*
X121992107Y-71054844D01*
X121874075Y-71090648D01*
X121792201Y-71115485D01*
X121792198Y-71115486D01*
X121792196Y-71115487D01*
X121792193Y-71115488D01*
X121607972Y-71213956D01*
X121607965Y-71213960D01*
X121446484Y-71346484D01*
X121317080Y-71504165D01*
X121259335Y-71543499D01*
X121221227Y-71549500D01*
X120178773Y-71549500D01*
X120111734Y-71529815D01*
X120082920Y-71504165D01*
X119953515Y-71346484D01*
X119792034Y-71213960D01*
X119792027Y-71213956D01*
X119607806Y-71115488D01*
X119607803Y-71115487D01*
X119607802Y-71115486D01*
X119607799Y-71115485D01*
X119407894Y-71054845D01*
X119407892Y-71054844D01*
X119407894Y-71054844D01*
X119200000Y-71034369D01*
X118992107Y-71054844D01*
X118874075Y-71090648D01*
X118792201Y-71115485D01*
X118792198Y-71115486D01*
X118792196Y-71115487D01*
X118792193Y-71115488D01*
X118607972Y-71213956D01*
X118607965Y-71213960D01*
X118446484Y-71346484D01*
X118313960Y-71507965D01*
X118313956Y-71507972D01*
X118215488Y-71692193D01*
X118215487Y-71692196D01*
X118215486Y-71692198D01*
X118215485Y-71692201D01*
X118195595Y-71757770D01*
X118154844Y-71892107D01*
X118134369Y-72100000D01*
X116630500Y-72100000D01*
X116630500Y-71985266D01*
X116600548Y-71757762D01*
X116541158Y-71536113D01*
X116489880Y-71412318D01*
X116453349Y-71324123D01*
X116453346Y-71324117D01*
X116453344Y-71324112D01*
X116338611Y-71125388D01*
X116338608Y-71125385D01*
X116338607Y-71125382D01*
X116220306Y-70971211D01*
X116198919Y-70943339D01*
X116198918Y-70943338D01*
X116198911Y-70943330D01*
X116036670Y-70781089D01*
X116036661Y-70781081D01*
X115854617Y-70641392D01*
X115655890Y-70526657D01*
X115655876Y-70526650D01*
X115443887Y-70438842D01*
X115222238Y-70379452D01*
X115184215Y-70374446D01*
X115011276Y-70351677D01*
X133125000Y-70351677D01*
X133125000Y-70375000D01*
X133850000Y-70375000D01*
X134350000Y-70375000D01*
X135074999Y-70375000D01*
X135074999Y-70351692D01*
X135074998Y-70351677D01*
X135064855Y-70252392D01*
X135011547Y-70091518D01*
X135011542Y-70091507D01*
X134922575Y-69947271D01*
X134922572Y-69947267D01*
X134802732Y-69827427D01*
X134802728Y-69827424D01*
X134658492Y-69738457D01*
X134658481Y-69738452D01*
X134497606Y-69685144D01*
X134398322Y-69675000D01*
X134350000Y-69675000D01*
X134350000Y-70375000D01*
X133850000Y-70375000D01*
X133850000Y-69675000D01*
X133849999Y-69674999D01*
X133801693Y-69675000D01*
X133801675Y-69675001D01*
X133702392Y-69685144D01*
X133541518Y-69738452D01*
X133541507Y-69738457D01*
X133397271Y-69827424D01*
X133397267Y-69827427D01*
X133277427Y-69947267D01*
X133277424Y-69947271D01*
X133188457Y-70091507D01*
X133188452Y-70091518D01*
X133135144Y-70252393D01*
X133125000Y-70351677D01*
X115011276Y-70351677D01*
X114994741Y-70349500D01*
X114994734Y-70349500D01*
X114765266Y-70349500D01*
X114765258Y-70349500D01*
X114548715Y-70378009D01*
X114537762Y-70379452D01*
X114444076Y-70404554D01*
X114316112Y-70438842D01*
X114104123Y-70526650D01*
X114104109Y-70526657D01*
X113905382Y-70641392D01*
X113723338Y-70781081D01*
X113561081Y-70943338D01*
X113421392Y-71125382D01*
X113306657Y-71324109D01*
X113306650Y-71324123D01*
X113218842Y-71536112D01*
X113159453Y-71757759D01*
X113159451Y-71757770D01*
X113129500Y-71985258D01*
X108799061Y-71985258D01*
X108799380Y-69100000D01*
X118134369Y-69100000D01*
X118154844Y-69307892D01*
X118170444Y-69359318D01*
X118215485Y-69507799D01*
X118215486Y-69507802D01*
X118215487Y-69507803D01*
X118215488Y-69507806D01*
X118313956Y-69692027D01*
X118313960Y-69692034D01*
X118446484Y-69853515D01*
X118607965Y-69986039D01*
X118607972Y-69986043D01*
X118792193Y-70084511D01*
X118792194Y-70084511D01*
X118792201Y-70084515D01*
X118992106Y-70145155D01*
X118992105Y-70145155D01*
X119010745Y-70146990D01*
X119200000Y-70165631D01*
X119407894Y-70145155D01*
X119607799Y-70084515D01*
X119792033Y-69986040D01*
X119953515Y-69853515D01*
X120082920Y-69695835D01*
X120140665Y-69656501D01*
X120178773Y-69650500D01*
X121221227Y-69650500D01*
X121288266Y-69670185D01*
X121317080Y-69695835D01*
X121446484Y-69853515D01*
X121607965Y-69986039D01*
X121607972Y-69986043D01*
X121792193Y-70084511D01*
X121792194Y-70084511D01*
X121792201Y-70084515D01*
X121992106Y-70145155D01*
X121992105Y-70145155D01*
X122010745Y-70146990D01*
X122200000Y-70165631D01*
X122407894Y-70145155D01*
X122607799Y-70084515D01*
X122792033Y-69986040D01*
X122953515Y-69853515D01*
X123086040Y-69692033D01*
X123184515Y-69507799D01*
X123245155Y-69307894D01*
X123265631Y-69100000D01*
X123261199Y-69055001D01*
X123802704Y-69055001D01*
X123802899Y-69057486D01*
X123848718Y-69215198D01*
X123932314Y-69356552D01*
X123932321Y-69356561D01*
X124048438Y-69472678D01*
X124048447Y-69472685D01*
X124189803Y-69556282D01*
X124189806Y-69556283D01*
X124347504Y-69602099D01*
X124347510Y-69602100D01*
X124384350Y-69604999D01*
X124384366Y-69605000D01*
X125025000Y-69605000D01*
X125525000Y-69605000D01*
X126165634Y-69605000D01*
X126165649Y-69604999D01*
X126202489Y-69602100D01*
X126202495Y-69602099D01*
X126360193Y-69556283D01*
X126360196Y-69556282D01*
X126501552Y-69472685D01*
X126501561Y-69472678D01*
X126617678Y-69356561D01*
X126617685Y-69356552D01*
X126701281Y-69215198D01*
X126747100Y-69057486D01*
X126747295Y-69055001D01*
X126747295Y-69055000D01*
X125525000Y-69055000D01*
X125525000Y-69605000D01*
X125025000Y-69605000D01*
X125025000Y-69055000D01*
X123802705Y-69055000D01*
X123802704Y-69055001D01*
X123261199Y-69055001D01*
X123245637Y-68896999D01*
X123258656Y-68828353D01*
X123281356Y-68797167D01*
X123588885Y-68489638D01*
X123650206Y-68456155D01*
X123719898Y-68461139D01*
X123775831Y-68503011D01*
X123790160Y-68541429D01*
X123802705Y-68555000D01*
X126747295Y-68555000D01*
X126747295Y-68554998D01*
X126747100Y-68552513D01*
X126701281Y-68394801D01*
X126617685Y-68253447D01*
X126617678Y-68253438D01*
X126501561Y-68137321D01*
X126501553Y-68137315D01*
X126497578Y-68134964D01*
X126449896Y-68083893D01*
X126437395Y-68015150D01*
X126460933Y-67954600D01*
X126502793Y-67897882D01*
X126525656Y-67832544D01*
X126547646Y-67769701D01*
X126547646Y-67769699D01*
X126550500Y-67739269D01*
X126550500Y-67360323D01*
X126570185Y-67293284D01*
X126622989Y-67247529D01*
X126692147Y-67237585D01*
X126732127Y-67250527D01*
X126749775Y-67259790D01*
X126914944Y-67300500D01*
X127085056Y-67300500D01*
X127250225Y-67259790D01*
X127384337Y-67189402D01*
X127400849Y-67180736D01*
X127400850Y-67180734D01*
X127400852Y-67180734D01*
X127528183Y-67067929D01*
X127624818Y-66927930D01*
X127685140Y-66768872D01*
X127705645Y-66600000D01*
X127685140Y-66431128D01*
X127624818Y-66272070D01*
X127622557Y-66268795D01*
X127580811Y-66208316D01*
X127528183Y-66132071D01*
X127400852Y-66019266D01*
X127400849Y-66019263D01*
X127250226Y-65940210D01*
X127109287Y-65905472D01*
X127051281Y-65872756D01*
X127003016Y-65824491D01*
X127003015Y-65824490D01*
X126877485Y-65752016D01*
X126877486Y-65752016D01*
X126842482Y-65742637D01*
X126737475Y-65714500D01*
X126737472Y-65714500D01*
X126605872Y-65714500D01*
X126579118Y-65710518D01*
X126578944Y-65711367D01*
X126573339Y-65710213D01*
X126470415Y-65698777D01*
X126405960Y-65671809D01*
X126366316Y-65614275D01*
X126364071Y-65544442D01*
X126399937Y-65484480D01*
X126410461Y-65475776D01*
X126422150Y-65467150D01*
X126502793Y-65357882D01*
X126527240Y-65288015D01*
X126547646Y-65229701D01*
X126547646Y-65229699D01*
X126550500Y-65199269D01*
X126550500Y-64790730D01*
X126547646Y-64760300D01*
X126547646Y-64760298D01*
X126502793Y-64632119D01*
X126502792Y-64632117D01*
X126422150Y-64522850D01*
X126312882Y-64442207D01*
X126312880Y-64442206D01*
X126184700Y-64397353D01*
X126154270Y-64394500D01*
X126154266Y-64394500D01*
X124395734Y-64394500D01*
X124395730Y-64394500D01*
X124365301Y-64397353D01*
X124244474Y-64439632D01*
X124235230Y-64441849D01*
X124235377Y-64442397D01*
X124227528Y-64444500D01*
X124227526Y-64444500D01*
X124151972Y-64464744D01*
X124087514Y-64482016D01*
X124087513Y-64482017D01*
X123961990Y-64554487D01*
X123961985Y-64554491D01*
X123324491Y-65191984D01*
X123324487Y-65191989D01*
X123269047Y-65288016D01*
X123252018Y-65317511D01*
X123252016Y-65317514D01*
X123241200Y-65357880D01*
X123214500Y-65457526D01*
X123214500Y-65457528D01*
X123214500Y-67255612D01*
X123194815Y-67322651D01*
X123178181Y-67343293D01*
X122502833Y-68018640D01*
X122441510Y-68052125D01*
X122402998Y-68054362D01*
X122200000Y-68034369D01*
X121992107Y-68054844D01*
X121883490Y-68087793D01*
X121792201Y-68115485D01*
X121792198Y-68115486D01*
X121792196Y-68115487D01*
X121792193Y-68115488D01*
X121607972Y-68213956D01*
X121607965Y-68213960D01*
X121446484Y-68346484D01*
X121317080Y-68504165D01*
X121259335Y-68543499D01*
X121221227Y-68549500D01*
X120178773Y-68549500D01*
X120111734Y-68529815D01*
X120082920Y-68504165D01*
X119953515Y-68346484D01*
X119792034Y-68213960D01*
X119792027Y-68213956D01*
X119607806Y-68115488D01*
X119607803Y-68115487D01*
X119607802Y-68115486D01*
X119607799Y-68115485D01*
X119407894Y-68054845D01*
X119407892Y-68054844D01*
X119407894Y-68054844D01*
X119200000Y-68034369D01*
X118992107Y-68054844D01*
X118883490Y-68087793D01*
X118792201Y-68115485D01*
X118792198Y-68115486D01*
X118792196Y-68115487D01*
X118792193Y-68115488D01*
X118607972Y-68213956D01*
X118607965Y-68213960D01*
X118446484Y-68346484D01*
X118313960Y-68507965D01*
X118313956Y-68507972D01*
X118215488Y-68692193D01*
X118215487Y-68692196D01*
X118215486Y-68692198D01*
X118215485Y-68692201D01*
X118190648Y-68774075D01*
X118154844Y-68892107D01*
X118134369Y-69100000D01*
X108799380Y-69100000D01*
X108800360Y-60249999D01*
X116254728Y-60249999D01*
X116254729Y-60250000D01*
X117349252Y-60250000D01*
X117327482Y-60287708D01*
X117290000Y-60427591D01*
X117290000Y-60572409D01*
X117327482Y-60712292D01*
X117349252Y-60750000D01*
X116254728Y-60750000D01*
X116254811Y-60751067D01*
X116313603Y-60995956D01*
X116409980Y-61228631D01*
X116541568Y-61443362D01*
X116541571Y-61443367D01*
X116705130Y-61634869D01*
X116896632Y-61798428D01*
X116896637Y-61798431D01*
X117111368Y-61930019D01*
X117344043Y-62026396D01*
X117588932Y-62085188D01*
X117589999Y-62085271D01*
X117590000Y-62085271D01*
X117590000Y-60990747D01*
X117627708Y-61012518D01*
X117767591Y-61050000D01*
X117912409Y-61050000D01*
X118052292Y-61012518D01*
X118090000Y-60990747D01*
X118090000Y-62085271D01*
X118091067Y-62085188D01*
X118335956Y-62026396D01*
X118568631Y-61930019D01*
X118783362Y-61798431D01*
X118783367Y-61798428D01*
X118974869Y-61634869D01*
X119138428Y-61443367D01*
X119138431Y-61443362D01*
X119270019Y-61228631D01*
X119366396Y-60995956D01*
X119425188Y-60751067D01*
X119425272Y-60750000D01*
X118330748Y-60750000D01*
X118352518Y-60712292D01*
X118390000Y-60572409D01*
X118390000Y-60427591D01*
X118352518Y-60287708D01*
X118330748Y-60250000D01*
X119425271Y-60250000D01*
X119425271Y-60249999D01*
X119425188Y-60248932D01*
X119366396Y-60004043D01*
X119270019Y-59771368D01*
X119138431Y-59556637D01*
X119138428Y-59556632D01*
X118974869Y-59365130D01*
X118783367Y-59201571D01*
X118783362Y-59201568D01*
X118568631Y-59069980D01*
X118335956Y-58973603D01*
X118091064Y-58914811D01*
X118090000Y-58914726D01*
X118090000Y-60009252D01*
X118052292Y-59987482D01*
X117912409Y-59950000D01*
X117767591Y-59950000D01*
X117627708Y-59987482D01*
X117590000Y-60009252D01*
X117590000Y-58914726D01*
X117588935Y-58914811D01*
X117344043Y-58973603D01*
X117111368Y-59069980D01*
X116896637Y-59201568D01*
X116896632Y-59201571D01*
X116705130Y-59365130D01*
X116541571Y-59556632D01*
X116541568Y-59556637D01*
X116409980Y-59771368D01*
X116313603Y-60004043D01*
X116254811Y-60248932D01*
X116254728Y-60249999D01*
X108800360Y-60249999D01*
X108800492Y-59058156D01*
X108800500Y-59058082D01*
X108800500Y-59003750D01*
X108800726Y-58996263D01*
X108810013Y-58842727D01*
X108816084Y-58742359D01*
X108817889Y-58727500D01*
X108852317Y-58539634D01*
X108863062Y-58480995D01*
X108866645Y-58466461D01*
X108941202Y-58227202D01*
X108946504Y-58213219D01*
X109049361Y-57984679D01*
X109056320Y-57971421D01*
X109086106Y-57922149D01*
X109185975Y-57756946D01*
X109194462Y-57744650D01*
X109349034Y-57547354D01*
X109358949Y-57536163D01*
X109536163Y-57358949D01*
X109547354Y-57349034D01*
X109744650Y-57194462D01*
X109756946Y-57185975D01*
X109971421Y-57056319D01*
X109984680Y-57049361D01*
X109986504Y-57048540D01*
X110213219Y-56946504D01*
X110227202Y-56941202D01*
X110466467Y-56866643D01*
X110480995Y-56863062D01*
X110727506Y-56817888D01*
X110742359Y-56816084D01*
X110996264Y-56800726D01*
X111003751Y-56800500D01*
X111047595Y-56800500D01*
X165959634Y-56800500D01*
X166003477Y-56800500D01*
X166010964Y-56800725D01*
G37*
G04 #@! TD.AperFunction*
G04 #@! TA.AperFunction,Conductor*
G36*
X132675091Y-73730701D02*
G01*
X133641943Y-74047361D01*
X133648737Y-74053192D01*
X133650000Y-74058479D01*
X133650000Y-74543547D01*
X133646573Y-74551820D01*
X133644543Y-74553442D01*
X132735100Y-75127224D01*
X132726275Y-75128740D01*
X132721425Y-75126366D01*
X131909287Y-74458460D01*
X131905074Y-74450558D01*
X131907682Y-74441991D01*
X131908703Y-74440902D01*
X132663450Y-73733285D01*
X132671827Y-73730127D01*
X132675091Y-73730701D01*
G37*
G04 #@! TD.AperFunction*
G04 #@! TA.AperFunction,Conductor*
G36*
X132370072Y-64694217D02*
G01*
X132373257Y-64696480D01*
X132714215Y-65037438D01*
X132715873Y-65039525D01*
X132882270Y-65306662D01*
X132883735Y-65315496D01*
X132879085Y-65322407D01*
X132457592Y-65619850D01*
X132448857Y-65621821D01*
X132442329Y-65618313D01*
X132096465Y-65251106D01*
X132093287Y-65242734D01*
X132094445Y-65237998D01*
X132354450Y-64699662D01*
X132361132Y-64693705D01*
X132370072Y-64694217D01*
G37*
G04 #@! TD.AperFunction*
G04 #@! TA.AperFunction,Conductor*
G36*
X134336832Y-62142083D02*
G01*
X134770757Y-62248083D01*
X134777980Y-62253375D01*
X134778193Y-62253741D01*
X135033106Y-62709818D01*
X135034151Y-62718711D01*
X135031154Y-62723811D01*
X134541851Y-63211724D01*
X134533573Y-63215139D01*
X134525317Y-63211712D01*
X134184450Y-62870845D01*
X134181023Y-62862572D01*
X134181249Y-62860285D01*
X134322612Y-62151167D01*
X134327590Y-62143725D01*
X134336373Y-62141982D01*
X134336832Y-62142083D01*
G37*
G04 #@! TD.AperFunction*
G04 #@! TA.AperFunction,Conductor*
G36*
X135224702Y-62067432D02*
G01*
X135230200Y-62072153D01*
X135659310Y-62777680D01*
X135660682Y-62786529D01*
X135657587Y-62792033D01*
X135316964Y-63132656D01*
X135308691Y-63136083D01*
X135302717Y-63134442D01*
X134621738Y-62729833D01*
X134616378Y-62722664D01*
X134616630Y-62716036D01*
X134772589Y-62254336D01*
X134778483Y-62247596D01*
X134779197Y-62247272D01*
X135215747Y-62067415D01*
X135224702Y-62067432D01*
G37*
G04 #@! TD.AperFunction*
G04 #@! TA.AperFunction,Conductor*
G36*
X131137339Y-73734025D02*
G01*
X131891896Y-74441465D01*
X131895588Y-74449623D01*
X131892429Y-74458002D01*
X131891896Y-74458535D01*
X131137339Y-75165974D01*
X131128960Y-75169133D01*
X131124271Y-75167985D01*
X130156634Y-74703186D01*
X130150660Y-74696515D01*
X130150000Y-74692640D01*
X130150000Y-74207359D01*
X130153427Y-74199086D01*
X130156632Y-74196814D01*
X131124272Y-73732013D01*
X131133212Y-73731520D01*
X131137339Y-73734025D01*
G37*
G04 #@! TD.AperFunction*
G04 #@! TA.AperFunction,Conductor*
G36*
X126608113Y-73456085D02*
G01*
X127595320Y-74196490D01*
X127599882Y-74204195D01*
X127600000Y-74205850D01*
X127600000Y-74694150D01*
X127596573Y-74702423D01*
X127595320Y-74703510D01*
X126608113Y-75443914D01*
X126599438Y-75446136D01*
X126592824Y-75442831D01*
X126219379Y-75069760D01*
X125607284Y-74458276D01*
X125603854Y-74450006D01*
X125607277Y-74441731D01*
X125607285Y-74441723D01*
X125843394Y-74205850D01*
X126592825Y-73457167D01*
X126601099Y-73453745D01*
X126608113Y-73456085D01*
G37*
G04 #@! TD.AperFunction*
G04 #@! TA.AperFunction,Conductor*
G36*
X126539593Y-66013843D02*
G01*
X126547436Y-66018162D01*
X126550000Y-66025471D01*
X126550000Y-66504528D01*
X126546573Y-66512801D01*
X126539592Y-66516156D01*
X126102717Y-66564698D01*
X126097431Y-66564067D01*
X125304278Y-66275997D01*
X125297672Y-66269952D01*
X125297275Y-66261006D01*
X125303320Y-66254400D01*
X125304278Y-66254003D01*
X126097435Y-65965931D01*
X126102713Y-65965301D01*
X126539593Y-66013843D01*
G37*
G04 #@! TD.AperFunction*
G04 #@! TA.AperFunction,Conductor*
G36*
X130484897Y-71053026D02*
G01*
X132094925Y-71397408D01*
X132102299Y-71402489D01*
X132103919Y-71411296D01*
X132103760Y-71411948D01*
X131902758Y-72143597D01*
X131897262Y-72150667D01*
X131894602Y-72151773D01*
X130909365Y-72424958D01*
X130900477Y-72423866D01*
X130895729Y-72418824D01*
X130471940Y-71552432D01*
X130470750Y-71547291D01*
X130470750Y-71064467D01*
X130474177Y-71056194D01*
X130482450Y-71052767D01*
X130484897Y-71053026D01*
G37*
G04 #@! TD.AperFunction*
G04 #@! TA.AperFunction,Conductor*
G36*
X131489593Y-64743843D02*
G01*
X131497436Y-64748162D01*
X131500000Y-64755471D01*
X131500000Y-65234528D01*
X131496573Y-65242801D01*
X131489592Y-65246156D01*
X131052717Y-65294698D01*
X131047431Y-65294067D01*
X130254278Y-65005997D01*
X130247672Y-64999952D01*
X130247275Y-64991006D01*
X130253320Y-64984400D01*
X130254278Y-64984003D01*
X131047435Y-64695931D01*
X131052713Y-64695301D01*
X131489593Y-64743843D01*
G37*
G04 #@! TD.AperFunction*
G04 #@! TA.AperFunction,Conductor*
G36*
X131803211Y-64755234D02*
G01*
X132601607Y-65219926D01*
X132607034Y-65227049D01*
X132606592Y-65234367D01*
X132453321Y-65619171D01*
X132447076Y-65625589D01*
X132444860Y-65626291D01*
X131984668Y-65723124D01*
X131975867Y-65721474D01*
X131971375Y-65715968D01*
X131786443Y-65247068D01*
X131785627Y-65242775D01*
X131785627Y-64765347D01*
X131789054Y-64757074D01*
X131797327Y-64753647D01*
X131803211Y-64755234D01*
G37*
G04 #@! TD.AperFunction*
G04 #@! TA.AperFunction,Conductor*
G36*
X132675727Y-71432013D02*
G01*
X133643366Y-71896813D01*
X133649340Y-71903484D01*
X133650000Y-71907359D01*
X133650000Y-72392640D01*
X133646573Y-72400913D01*
X133643366Y-72403186D01*
X132675728Y-72867985D01*
X132666787Y-72868479D01*
X132662660Y-72865974D01*
X132169049Y-72403186D01*
X131908102Y-72158534D01*
X131904411Y-72150377D01*
X131907570Y-72141998D01*
X131908103Y-72141465D01*
X132662661Y-71434024D01*
X132671039Y-71430866D01*
X132675727Y-71432013D01*
G37*
G04 #@! TD.AperFunction*
G04 #@! TA.AperFunction,Conductor*
G36*
X133765280Y-71745304D02*
G01*
X133768662Y-71748248D01*
X134095401Y-72167811D01*
X134097781Y-72176444D01*
X134095401Y-72182189D01*
X133769074Y-72601223D01*
X133761287Y-72605645D01*
X133755949Y-72605067D01*
X133182806Y-72402755D01*
X133176145Y-72396770D01*
X133175000Y-72391722D01*
X133175000Y-71908976D01*
X133178427Y-71900703D01*
X133183667Y-71897676D01*
X133756401Y-71744136D01*
X133765280Y-71745304D01*
G37*
G04 #@! TD.AperFunction*
G04 #@! TA.AperFunction,Conductor*
G36*
X132457084Y-67282462D02*
G01*
X132753213Y-67661797D01*
X132755602Y-67670426D01*
X132753807Y-67675361D01*
X132440188Y-68159098D01*
X132432812Y-68164175D01*
X132424006Y-68162550D01*
X132422098Y-68161006D01*
X132080725Y-67819633D01*
X132077896Y-67815054D01*
X131993180Y-67560423D01*
X131993820Y-67551491D01*
X131998245Y-67546707D01*
X132441828Y-67279638D01*
X132450681Y-67278307D01*
X132457084Y-67282462D01*
G37*
G04 #@! TD.AperFunction*
G04 #@! TA.AperFunction,Conductor*
G36*
X131111207Y-68517806D02*
G01*
X131304685Y-68588446D01*
X131308944Y-68591162D01*
X131646122Y-68928340D01*
X131649549Y-68936613D01*
X131646122Y-68944886D01*
X131640731Y-68947952D01*
X131134866Y-69076530D01*
X131128629Y-69076400D01*
X130260059Y-68816412D01*
X130253116Y-68810756D01*
X130252205Y-68801848D01*
X130257861Y-68794905D01*
X130259764Y-68794087D01*
X131103556Y-68517678D01*
X131111207Y-68517806D01*
G37*
G04 #@! TD.AperFunction*
G04 #@! TA.AperFunction,Conductor*
G36*
X133700528Y-66893229D02*
G01*
X133703203Y-66895397D01*
X133819874Y-67022738D01*
X134043758Y-67267096D01*
X134046820Y-67275511D01*
X134043758Y-67282904D01*
X133703206Y-67654599D01*
X133695090Y-67658384D01*
X133691662Y-67658025D01*
X133183783Y-67527261D01*
X133176625Y-67521880D01*
X133175000Y-67515931D01*
X133175000Y-67034068D01*
X133178427Y-67025795D01*
X133183780Y-67022739D01*
X133691664Y-66891974D01*
X133700528Y-66893229D01*
G37*
G04 #@! TD.AperFunction*
G04 #@! TA.AperFunction,Conductor*
G36*
X132808331Y-66891973D02*
G01*
X133316218Y-67022738D01*
X133323375Y-67028119D01*
X133325000Y-67034068D01*
X133325000Y-67515931D01*
X133321573Y-67524204D01*
X133316217Y-67527261D01*
X132808337Y-67658025D01*
X132799471Y-67656770D01*
X132796795Y-67654601D01*
X132456240Y-67282902D01*
X132453179Y-67274489D01*
X132456240Y-67267097D01*
X132796795Y-66895398D01*
X132804909Y-66891615D01*
X132808331Y-66891973D01*
G37*
G04 #@! TD.AperFunction*
G04 #@! TA.AperFunction,Conductor*
G36*
X130473362Y-66938427D02*
G01*
X130476630Y-66944777D01*
X130524012Y-67229073D01*
X130521992Y-67237797D01*
X130520758Y-67239255D01*
X130233287Y-67527685D01*
X130225019Y-67531126D01*
X130216741Y-67527713D01*
X130216713Y-67527685D01*
X129929241Y-67239255D01*
X129925828Y-67230977D01*
X129925986Y-67229083D01*
X129973370Y-66944775D01*
X129978111Y-66937179D01*
X129984911Y-66935000D01*
X130465089Y-66935000D01*
X130473362Y-66938427D01*
G37*
G04 #@! TD.AperFunction*
G04 #@! TA.AperFunction,Conductor*
G36*
X130233258Y-66272285D02*
G01*
X130468034Y-66507844D01*
X130520758Y-66560744D01*
X130524171Y-66569022D01*
X130524012Y-66570926D01*
X130476630Y-66855223D01*
X130471890Y-66862821D01*
X130465089Y-66865000D01*
X129984911Y-66865000D01*
X129976638Y-66861573D01*
X129973370Y-66855223D01*
X129925987Y-66570924D01*
X129928007Y-66562203D01*
X129929236Y-66560749D01*
X130216714Y-66272313D01*
X130224981Y-66268873D01*
X130233258Y-66272285D01*
G37*
G04 #@! TD.AperFunction*
G04 #@! TA.AperFunction,Conductor*
G36*
X124309468Y-64865605D02*
G01*
X125266300Y-64993040D01*
X125274048Y-64997529D01*
X125276422Y-65003757D01*
X125297552Y-65283454D01*
X125294758Y-65291961D01*
X125286888Y-65295992D01*
X124270070Y-65383442D01*
X124261533Y-65380737D01*
X124260794Y-65380058D01*
X123923330Y-65042594D01*
X123919903Y-65034321D01*
X123923330Y-65026048D01*
X123927005Y-65023563D01*
X124297046Y-64865604D01*
X124303183Y-64864768D01*
X124309468Y-64865605D01*
G37*
G04 #@! TD.AperFunction*
G04 #@! TA.AperFunction,Conductor*
G36*
X124452565Y-67235931D02*
G01*
X125056470Y-67455267D01*
X125245721Y-67524003D01*
X125252327Y-67530048D01*
X125252724Y-67538994D01*
X125246679Y-67545600D01*
X125245721Y-67545997D01*
X124452568Y-67834067D01*
X124447282Y-67834698D01*
X124010408Y-67786156D01*
X124002564Y-67781837D01*
X124000000Y-67774528D01*
X124000000Y-67295471D01*
X124003427Y-67287198D01*
X124010406Y-67283843D01*
X124447286Y-67235301D01*
X124452565Y-67235931D01*
G37*
G04 #@! TD.AperFunction*
G04 #@! TA.AperFunction,Conductor*
G36*
X134247283Y-61365557D02*
G01*
X134928258Y-61770165D01*
X134933620Y-61777335D01*
X134933367Y-61783966D01*
X134777411Y-62245661D01*
X134771516Y-62252403D01*
X134770783Y-62252735D01*
X134334252Y-62432583D01*
X134325297Y-62432566D01*
X134319799Y-62427845D01*
X134213093Y-62252403D01*
X133890688Y-61722318D01*
X133889317Y-61713470D01*
X133892410Y-61707968D01*
X134233036Y-61367342D01*
X134241308Y-61363916D01*
X134247283Y-61365557D01*
G37*
G04 #@! TD.AperFunction*
M02*
