%TF.GenerationSoftware,KiCad,Pcbnew,8.0.6*%
%TF.CreationDate,2025-02-22T02:59:51-05:00*%
%TF.ProjectId,modular sensor,6d6f6475-6c61-4722-9073-656e736f722e,1.0*%
%TF.SameCoordinates,Original*%
%TF.FileFunction,Drillmap*%
%TF.FilePolarity,Positive*%
%FSLAX45Y45*%
G04 Gerber Fmt 4.5, Leading zero omitted, Abs format (unit mm)*
G04 Created by KiCad (PCBNEW 8.0.6) date 2025-02-22 02:59:51*
%MOMM*%
%LPD*%
G01*
G04 APERTURE LIST*
%ADD10C,0.100000*%
%ADD11C,0.200000*%
%ADD12C,0.102000*%
%ADD13C,0.110000*%
%ADD14C,0.125000*%
%ADD15C,0.320000*%
G04 APERTURE END LIST*
D10*
X11100000Y-5650000D02*
X16600723Y-5650000D01*
X10850000Y-5900000D02*
G75*
G02*
X11100000Y-5650000I250000J0D01*
G01*
X16850000Y-5899277D02*
X16850000Y-8401000D01*
X16850000Y-8401000D02*
G75*
G02*
X16601000Y-8650000I-249000J0D01*
G01*
X16601000Y-8650000D02*
X11099000Y-8649277D01*
X10849723Y-8400000D02*
X10850000Y-5900000D01*
X16600723Y-5650000D02*
G75*
G02*
X16850000Y-5899277I-3J-249280D01*
G01*
X11099000Y-8649277D02*
G75*
G02*
X10849723Y-8400000I0J249277D01*
G01*
D11*
D10*
X11405000Y-5975000D02*
X11435000Y-6005000D01*
X11435000Y-5975000D02*
X11405000Y-6005000D01*
X11405000Y-6175000D02*
X11435000Y-6205000D01*
X11435000Y-6175000D02*
X11405000Y-6205000D01*
X11545000Y-5795000D02*
X11575000Y-5825000D01*
X11575000Y-5795000D02*
X11545000Y-5825000D01*
X11545000Y-6315000D02*
X11575000Y-6345000D01*
X11575000Y-6315000D02*
X11545000Y-6345000D01*
X11665000Y-6940000D02*
X11695000Y-6970000D01*
X11695000Y-6940000D02*
X11665000Y-6970000D01*
X11705000Y-5795000D02*
X11735000Y-5825000D01*
X11735000Y-5795000D02*
X11705000Y-5825000D01*
X11705000Y-6315000D02*
X11735000Y-6345000D01*
X11735000Y-6315000D02*
X11705000Y-6345000D01*
X11885000Y-5795000D02*
X11915000Y-5825000D01*
X11915000Y-5795000D02*
X11885000Y-5825000D01*
X11885000Y-6315000D02*
X11915000Y-6345000D01*
X11915000Y-6315000D02*
X11885000Y-6345000D01*
X12055000Y-6735000D02*
X12085000Y-6765000D01*
X12085000Y-6735000D02*
X12055000Y-6765000D01*
X12055000Y-7035000D02*
X12085000Y-7065000D01*
X12085000Y-7035000D02*
X12055000Y-7065000D01*
X12055000Y-7325000D02*
X12085000Y-7355000D01*
X12085000Y-7325000D02*
X12055000Y-7355000D01*
X12065000Y-5795000D02*
X12095000Y-5825000D01*
X12095000Y-5795000D02*
X12065000Y-5825000D01*
X12065000Y-6315000D02*
X12095000Y-6345000D01*
X12095000Y-6315000D02*
X12065000Y-6345000D01*
X12265000Y-5795000D02*
X12295000Y-5825000D01*
X12295000Y-5795000D02*
X12265000Y-5825000D01*
X12265000Y-6315000D02*
X12295000Y-6345000D01*
X12295000Y-6315000D02*
X12265000Y-6345000D01*
X12445000Y-5795000D02*
X12475000Y-5825000D01*
X12475000Y-5795000D02*
X12445000Y-5825000D01*
X12450000Y-7855000D02*
X12480000Y-7885000D01*
X12480000Y-7855000D02*
X12450000Y-7885000D01*
X12530000Y-7010000D02*
X12560000Y-7040000D01*
X12560000Y-7010000D02*
X12530000Y-7040000D01*
X12665000Y-7855000D02*
X12695000Y-7885000D01*
X12695000Y-7855000D02*
X12665000Y-7885000D01*
X12725000Y-8195000D02*
X12755000Y-8225000D01*
X12755000Y-8195000D02*
X12725000Y-8225000D01*
X12745000Y-6365000D02*
X12775000Y-6395000D01*
X12775000Y-6365000D02*
X12745000Y-6395000D01*
X12775000Y-6775000D02*
X12805000Y-6805000D01*
X12805000Y-6775000D02*
X12775000Y-6805000D01*
X12805000Y-5795000D02*
X12835000Y-5825000D01*
X12835000Y-5795000D02*
X12805000Y-5825000D01*
X12900000Y-7885000D02*
X12930000Y-7915000D01*
X12930000Y-7885000D02*
X12900000Y-7915000D01*
X12945000Y-7020000D02*
X12975000Y-7050000D01*
X12975000Y-7020000D02*
X12945000Y-7050000D01*
X13005000Y-5795000D02*
X13035000Y-5825000D01*
X13035000Y-5795000D02*
X13005000Y-5825000D01*
X13065000Y-5940000D02*
X13095000Y-5970000D01*
X13095000Y-5940000D02*
X13065000Y-5970000D01*
X13130000Y-6210000D02*
X13160000Y-6240000D01*
X13160000Y-6210000D02*
X13130000Y-6240000D01*
X13225000Y-8255000D02*
X13255000Y-8285000D01*
X13255000Y-8255000D02*
X13225000Y-8285000D01*
X13265000Y-5895000D02*
X13295000Y-5925000D01*
X13295000Y-5895000D02*
X13265000Y-5925000D01*
X13295000Y-7865000D02*
X13325000Y-7895000D01*
X13325000Y-7865000D02*
X13295000Y-7895000D01*
X13455000Y-7635000D02*
X13485000Y-7665000D01*
X13485000Y-7635000D02*
X13455000Y-7665000D01*
X13525000Y-5995000D02*
X13555000Y-6025000D01*
X13555000Y-5995000D02*
X13525000Y-6025000D01*
X13665000Y-7835000D02*
X13695000Y-7865000D01*
X13695000Y-7835000D02*
X13665000Y-7865000D01*
X13695000Y-7525000D02*
X13725000Y-7555000D01*
X13725000Y-7525000D02*
X13695000Y-7555000D01*
X13735000Y-6695000D02*
X13765000Y-6725000D01*
X13765000Y-6695000D02*
X13735000Y-6725000D01*
X13855000Y-7285000D02*
X13885000Y-7315000D01*
X13885000Y-7285000D02*
X13855000Y-7315000D01*
X13925000Y-6885000D02*
X13955000Y-6915000D01*
X13955000Y-6885000D02*
X13925000Y-6915000D01*
X13965000Y-6535000D02*
X13995000Y-6565000D01*
X13995000Y-6535000D02*
X13965000Y-6565000D01*
X14005000Y-7545000D02*
X14035000Y-7575000D01*
X14035000Y-7545000D02*
X14005000Y-7575000D01*
X14065000Y-7095000D02*
X14095000Y-7125000D01*
X14095000Y-7095000D02*
X14065000Y-7125000D01*
X14115000Y-6665000D02*
X14145000Y-6695000D01*
X14145000Y-6665000D02*
X14115000Y-6695000D01*
X14185000Y-7845000D02*
X14215000Y-7875000D01*
X14215000Y-7845000D02*
X14185000Y-7875000D01*
X14255000Y-6405000D02*
X14285000Y-6435000D01*
X14285000Y-6405000D02*
X14255000Y-6435000D01*
X14505000Y-6475000D02*
X14535000Y-6505000D01*
X14535000Y-6475000D02*
X14505000Y-6505000D01*
X14625000Y-7855000D02*
X14655000Y-7885000D01*
X14655000Y-7855000D02*
X14625000Y-7885000D01*
X14685000Y-6895000D02*
X14715000Y-6925000D01*
X14715000Y-6895000D02*
X14685000Y-6925000D01*
X14705000Y-7375000D02*
X14735000Y-7405000D01*
X14735000Y-7375000D02*
X14705000Y-7405000D01*
X14885000Y-6535000D02*
X14915000Y-6565000D01*
X14915000Y-6535000D02*
X14885000Y-6565000D01*
X15165000Y-7855000D02*
X15195000Y-7885000D01*
X15195000Y-7855000D02*
X15165000Y-7885000D01*
X15545000Y-7355000D02*
X15575000Y-7385000D01*
X15575000Y-7355000D02*
X15545000Y-7385000D01*
X15565000Y-6855000D02*
X15595000Y-6885000D01*
X15595000Y-6855000D02*
X15565000Y-6885000D01*
X12720000Y-6660000D02*
G75*
G02*
X12680000Y-6660000I-20000J0D01*
G01*
X12680000Y-6660000D02*
G75*
G02*
X12720000Y-6660000I20000J0D01*
G01*
D12*
X11920000Y-6859000D02*
X11920000Y-6961000D01*
X11869000Y-6910000D02*
X11971000Y-6910000D01*
X11920000Y-7159000D02*
X11920000Y-7261000D01*
X11869000Y-7210000D02*
X11971000Y-7210000D01*
X11920000Y-7459000D02*
X11920000Y-7561000D01*
X11869000Y-7510000D02*
X11971000Y-7510000D01*
X12220000Y-6859000D02*
X12220000Y-6961000D01*
X12169000Y-6910000D02*
X12271000Y-6910000D01*
X12220000Y-7159000D02*
X12220000Y-7261000D01*
X12169000Y-7210000D02*
X12271000Y-7210000D01*
X12220000Y-7459000D02*
X12220000Y-7561000D01*
X12169000Y-7510000D02*
X12271000Y-7510000D01*
D13*
X11822891Y-6088891D02*
X11822891Y-6011109D01*
X11745109Y-6011109D01*
X11745109Y-6088891D01*
X11822891Y-6088891D01*
X12838891Y-6088891D02*
X12838891Y-6011109D01*
X12761109Y-6011109D01*
X12761109Y-6088891D01*
X12838891Y-6088891D01*
D14*
X14285000Y-7212500D02*
X14347500Y-7150000D01*
X14285000Y-7087500D01*
X14222500Y-7150000D01*
X14285000Y-7212500D01*
X14424000Y-6876500D02*
X14486500Y-6814000D01*
X14424000Y-6751500D01*
X14361500Y-6814000D01*
X14424000Y-6876500D01*
X14424000Y-7548500D02*
X14486500Y-7486000D01*
X14424000Y-7423500D01*
X14361500Y-7486000D01*
X14424000Y-7548500D01*
X15096000Y-6876500D02*
X15158500Y-6814000D01*
X15096000Y-6751500D01*
X15033500Y-6814000D01*
X15096000Y-6876500D01*
X15096000Y-7548500D02*
X15158500Y-7486000D01*
X15096000Y-7423500D01*
X15033500Y-7486000D01*
X15096000Y-7548500D01*
X15235000Y-7212500D02*
X15297500Y-7150000D01*
X15235000Y-7087500D01*
X15172500Y-7150000D01*
X15235000Y-7212500D01*
D15*
X13780000Y-5900000D02*
X14100000Y-6220000D01*
X14100000Y-5900000D02*
X13780000Y-6220000D01*
X14100000Y-6060000D02*
G75*
G02*
X13780000Y-6060000I-160000J0D01*
G01*
X13780000Y-6060000D02*
G75*
G02*
X14100000Y-6060000I160000J0D01*
G01*
X13780000Y-8060000D02*
X14100000Y-8380000D01*
X14100000Y-8060000D02*
X13780000Y-8380000D01*
X14100000Y-8220000D02*
G75*
G02*
X13780000Y-8220000I-160000J0D01*
G01*
X13780000Y-8220000D02*
G75*
G02*
X14100000Y-8220000I160000J0D01*
G01*
X16160000Y-7010000D02*
X16480000Y-7330000D01*
X16480000Y-7010000D02*
X16160000Y-7330000D01*
X16480000Y-7170000D02*
G75*
G02*
X16160000Y-7170000I-160000J0D01*
G01*
X16160000Y-7170000D02*
G75*
G02*
X16480000Y-7170000I160000J0D01*
G01*
D11*
X11105500Y-8966484D02*
X11105500Y-8766484D01*
X11105500Y-8766484D02*
X11153119Y-8766484D01*
X11153119Y-8766484D02*
X11181690Y-8776008D01*
X11181690Y-8776008D02*
X11200738Y-8795055D01*
X11200738Y-8795055D02*
X11210262Y-8814103D01*
X11210262Y-8814103D02*
X11219786Y-8852198D01*
X11219786Y-8852198D02*
X11219786Y-8880770D01*
X11219786Y-8880770D02*
X11210262Y-8918865D01*
X11210262Y-8918865D02*
X11200738Y-8937912D01*
X11200738Y-8937912D02*
X11181690Y-8956960D01*
X11181690Y-8956960D02*
X11153119Y-8966484D01*
X11153119Y-8966484D02*
X11105500Y-8966484D01*
X11305500Y-8966484D02*
X11305500Y-8833150D01*
X11305500Y-8871246D02*
X11315024Y-8852198D01*
X11315024Y-8852198D02*
X11324547Y-8842674D01*
X11324547Y-8842674D02*
X11343595Y-8833150D01*
X11343595Y-8833150D02*
X11362643Y-8833150D01*
X11429309Y-8966484D02*
X11429309Y-8833150D01*
X11429309Y-8766484D02*
X11419786Y-8776008D01*
X11419786Y-8776008D02*
X11429309Y-8785531D01*
X11429309Y-8785531D02*
X11438833Y-8776008D01*
X11438833Y-8776008D02*
X11429309Y-8766484D01*
X11429309Y-8766484D02*
X11429309Y-8785531D01*
X11553119Y-8966484D02*
X11534071Y-8956960D01*
X11534071Y-8956960D02*
X11524547Y-8937912D01*
X11524547Y-8937912D02*
X11524547Y-8766484D01*
X11657881Y-8966484D02*
X11638833Y-8956960D01*
X11638833Y-8956960D02*
X11629309Y-8937912D01*
X11629309Y-8937912D02*
X11629309Y-8766484D01*
X11886452Y-8966484D02*
X11886452Y-8766484D01*
X11886452Y-8766484D02*
X11953119Y-8909341D01*
X11953119Y-8909341D02*
X12019786Y-8766484D01*
X12019786Y-8766484D02*
X12019786Y-8966484D01*
X12200738Y-8966484D02*
X12200738Y-8861722D01*
X12200738Y-8861722D02*
X12191214Y-8842674D01*
X12191214Y-8842674D02*
X12172167Y-8833150D01*
X12172167Y-8833150D02*
X12134071Y-8833150D01*
X12134071Y-8833150D02*
X12115024Y-8842674D01*
X12200738Y-8956960D02*
X12181690Y-8966484D01*
X12181690Y-8966484D02*
X12134071Y-8966484D01*
X12134071Y-8966484D02*
X12115024Y-8956960D01*
X12115024Y-8956960D02*
X12105500Y-8937912D01*
X12105500Y-8937912D02*
X12105500Y-8918865D01*
X12105500Y-8918865D02*
X12115024Y-8899817D01*
X12115024Y-8899817D02*
X12134071Y-8890293D01*
X12134071Y-8890293D02*
X12181690Y-8890293D01*
X12181690Y-8890293D02*
X12200738Y-8880770D01*
X12295976Y-8833150D02*
X12295976Y-9033150D01*
X12295976Y-8842674D02*
X12315024Y-8833150D01*
X12315024Y-8833150D02*
X12353119Y-8833150D01*
X12353119Y-8833150D02*
X12372167Y-8842674D01*
X12372167Y-8842674D02*
X12381690Y-8852198D01*
X12381690Y-8852198D02*
X12391214Y-8871246D01*
X12391214Y-8871246D02*
X12391214Y-8928389D01*
X12391214Y-8928389D02*
X12381690Y-8947436D01*
X12381690Y-8947436D02*
X12372167Y-8956960D01*
X12372167Y-8956960D02*
X12353119Y-8966484D01*
X12353119Y-8966484D02*
X12315024Y-8966484D01*
X12315024Y-8966484D02*
X12295976Y-8956960D01*
X12476928Y-8947436D02*
X12486452Y-8956960D01*
X12486452Y-8956960D02*
X12476928Y-8966484D01*
X12476928Y-8966484D02*
X12467405Y-8956960D01*
X12467405Y-8956960D02*
X12476928Y-8947436D01*
X12476928Y-8947436D02*
X12476928Y-8966484D01*
X12476928Y-8842674D02*
X12486452Y-8852198D01*
X12486452Y-8852198D02*
X12476928Y-8861722D01*
X12476928Y-8861722D02*
X12467405Y-8852198D01*
X12467405Y-8852198D02*
X12476928Y-8842674D01*
X12476928Y-8842674D02*
X12476928Y-8861722D01*
D10*
X10814723Y-9280000D02*
X10844723Y-9310000D01*
X10844723Y-9280000D02*
X10814723Y-9310000D01*
D11*
X11143595Y-9186484D02*
X11162643Y-9186484D01*
X11162643Y-9186484D02*
X11181690Y-9196008D01*
X11181690Y-9196008D02*
X11191214Y-9205531D01*
X11191214Y-9205531D02*
X11200738Y-9224579D01*
X11200738Y-9224579D02*
X11210262Y-9262674D01*
X11210262Y-9262674D02*
X11210262Y-9310293D01*
X11210262Y-9310293D02*
X11200738Y-9348389D01*
X11200738Y-9348389D02*
X11191214Y-9367436D01*
X11191214Y-9367436D02*
X11181690Y-9376960D01*
X11181690Y-9376960D02*
X11162643Y-9386484D01*
X11162643Y-9386484D02*
X11143595Y-9386484D01*
X11143595Y-9386484D02*
X11124548Y-9376960D01*
X11124548Y-9376960D02*
X11115024Y-9367436D01*
X11115024Y-9367436D02*
X11105500Y-9348389D01*
X11105500Y-9348389D02*
X11095976Y-9310293D01*
X11095976Y-9310293D02*
X11095976Y-9262674D01*
X11095976Y-9262674D02*
X11105500Y-9224579D01*
X11105500Y-9224579D02*
X11115024Y-9205531D01*
X11115024Y-9205531D02*
X11124548Y-9196008D01*
X11124548Y-9196008D02*
X11143595Y-9186484D01*
X11295976Y-9367436D02*
X11305500Y-9376960D01*
X11305500Y-9376960D02*
X11295976Y-9386484D01*
X11295976Y-9386484D02*
X11286452Y-9376960D01*
X11286452Y-9376960D02*
X11295976Y-9367436D01*
X11295976Y-9367436D02*
X11295976Y-9386484D01*
X11372167Y-9186484D02*
X11495976Y-9186484D01*
X11495976Y-9186484D02*
X11429309Y-9262674D01*
X11429309Y-9262674D02*
X11457881Y-9262674D01*
X11457881Y-9262674D02*
X11476928Y-9272198D01*
X11476928Y-9272198D02*
X11486452Y-9281722D01*
X11486452Y-9281722D02*
X11495976Y-9300770D01*
X11495976Y-9300770D02*
X11495976Y-9348389D01*
X11495976Y-9348389D02*
X11486452Y-9367436D01*
X11486452Y-9367436D02*
X11476928Y-9376960D01*
X11476928Y-9376960D02*
X11457881Y-9386484D01*
X11457881Y-9386484D02*
X11400738Y-9386484D01*
X11400738Y-9386484D02*
X11381690Y-9376960D01*
X11381690Y-9376960D02*
X11372167Y-9367436D01*
X11619786Y-9186484D02*
X11638833Y-9186484D01*
X11638833Y-9186484D02*
X11657881Y-9196008D01*
X11657881Y-9196008D02*
X11667405Y-9205531D01*
X11667405Y-9205531D02*
X11676928Y-9224579D01*
X11676928Y-9224579D02*
X11686452Y-9262674D01*
X11686452Y-9262674D02*
X11686452Y-9310293D01*
X11686452Y-9310293D02*
X11676928Y-9348389D01*
X11676928Y-9348389D02*
X11667405Y-9367436D01*
X11667405Y-9367436D02*
X11657881Y-9376960D01*
X11657881Y-9376960D02*
X11638833Y-9386484D01*
X11638833Y-9386484D02*
X11619786Y-9386484D01*
X11619786Y-9386484D02*
X11600738Y-9376960D01*
X11600738Y-9376960D02*
X11591214Y-9367436D01*
X11591214Y-9367436D02*
X11581690Y-9348389D01*
X11581690Y-9348389D02*
X11572167Y-9310293D01*
X11572167Y-9310293D02*
X11572167Y-9262674D01*
X11572167Y-9262674D02*
X11581690Y-9224579D01*
X11581690Y-9224579D02*
X11591214Y-9205531D01*
X11591214Y-9205531D02*
X11600738Y-9196008D01*
X11600738Y-9196008D02*
X11619786Y-9186484D01*
X11810262Y-9186484D02*
X11829309Y-9186484D01*
X11829309Y-9186484D02*
X11848357Y-9196008D01*
X11848357Y-9196008D02*
X11857881Y-9205531D01*
X11857881Y-9205531D02*
X11867405Y-9224579D01*
X11867405Y-9224579D02*
X11876928Y-9262674D01*
X11876928Y-9262674D02*
X11876928Y-9310293D01*
X11876928Y-9310293D02*
X11867405Y-9348389D01*
X11867405Y-9348389D02*
X11857881Y-9367436D01*
X11857881Y-9367436D02*
X11848357Y-9376960D01*
X11848357Y-9376960D02*
X11829309Y-9386484D01*
X11829309Y-9386484D02*
X11810262Y-9386484D01*
X11810262Y-9386484D02*
X11791214Y-9376960D01*
X11791214Y-9376960D02*
X11781690Y-9367436D01*
X11781690Y-9367436D02*
X11772167Y-9348389D01*
X11772167Y-9348389D02*
X11762643Y-9310293D01*
X11762643Y-9310293D02*
X11762643Y-9262674D01*
X11762643Y-9262674D02*
X11772167Y-9224579D01*
X11772167Y-9224579D02*
X11781690Y-9205531D01*
X11781690Y-9205531D02*
X11791214Y-9196008D01*
X11791214Y-9196008D02*
X11810262Y-9186484D01*
X11962643Y-9386484D02*
X11962643Y-9253150D01*
X11962643Y-9272198D02*
X11972167Y-9262674D01*
X11972167Y-9262674D02*
X11991214Y-9253150D01*
X11991214Y-9253150D02*
X12019786Y-9253150D01*
X12019786Y-9253150D02*
X12038833Y-9262674D01*
X12038833Y-9262674D02*
X12048357Y-9281722D01*
X12048357Y-9281722D02*
X12048357Y-9386484D01*
X12048357Y-9281722D02*
X12057881Y-9262674D01*
X12057881Y-9262674D02*
X12076928Y-9253150D01*
X12076928Y-9253150D02*
X12105500Y-9253150D01*
X12105500Y-9253150D02*
X12124548Y-9262674D01*
X12124548Y-9262674D02*
X12134071Y-9281722D01*
X12134071Y-9281722D02*
X12134071Y-9386484D01*
X12229309Y-9386484D02*
X12229309Y-9253150D01*
X12229309Y-9272198D02*
X12238833Y-9262674D01*
X12238833Y-9262674D02*
X12257881Y-9253150D01*
X12257881Y-9253150D02*
X12286452Y-9253150D01*
X12286452Y-9253150D02*
X12305500Y-9262674D01*
X12305500Y-9262674D02*
X12315024Y-9281722D01*
X12315024Y-9281722D02*
X12315024Y-9386484D01*
X12315024Y-9281722D02*
X12324548Y-9262674D01*
X12324548Y-9262674D02*
X12343595Y-9253150D01*
X12343595Y-9253150D02*
X12372167Y-9253150D01*
X12372167Y-9253150D02*
X12391214Y-9262674D01*
X12391214Y-9262674D02*
X12400738Y-9281722D01*
X12400738Y-9281722D02*
X12400738Y-9386484D01*
X12791214Y-9176960D02*
X12619786Y-9434103D01*
X13048357Y-9186484D02*
X13067405Y-9186484D01*
X13067405Y-9186484D02*
X13086452Y-9196008D01*
X13086452Y-9196008D02*
X13095976Y-9205531D01*
X13095976Y-9205531D02*
X13105500Y-9224579D01*
X13105500Y-9224579D02*
X13115024Y-9262674D01*
X13115024Y-9262674D02*
X13115024Y-9310293D01*
X13115024Y-9310293D02*
X13105500Y-9348389D01*
X13105500Y-9348389D02*
X13095976Y-9367436D01*
X13095976Y-9367436D02*
X13086452Y-9376960D01*
X13086452Y-9376960D02*
X13067405Y-9386484D01*
X13067405Y-9386484D02*
X13048357Y-9386484D01*
X13048357Y-9386484D02*
X13029310Y-9376960D01*
X13029310Y-9376960D02*
X13019786Y-9367436D01*
X13019786Y-9367436D02*
X13010262Y-9348389D01*
X13010262Y-9348389D02*
X13000738Y-9310293D01*
X13000738Y-9310293D02*
X13000738Y-9262674D01*
X13000738Y-9262674D02*
X13010262Y-9224579D01*
X13010262Y-9224579D02*
X13019786Y-9205531D01*
X13019786Y-9205531D02*
X13029310Y-9196008D01*
X13029310Y-9196008D02*
X13048357Y-9186484D01*
X13200738Y-9367436D02*
X13210262Y-9376960D01*
X13210262Y-9376960D02*
X13200738Y-9386484D01*
X13200738Y-9386484D02*
X13191214Y-9376960D01*
X13191214Y-9376960D02*
X13200738Y-9367436D01*
X13200738Y-9367436D02*
X13200738Y-9386484D01*
X13334071Y-9186484D02*
X13353119Y-9186484D01*
X13353119Y-9186484D02*
X13372167Y-9196008D01*
X13372167Y-9196008D02*
X13381691Y-9205531D01*
X13381691Y-9205531D02*
X13391214Y-9224579D01*
X13391214Y-9224579D02*
X13400738Y-9262674D01*
X13400738Y-9262674D02*
X13400738Y-9310293D01*
X13400738Y-9310293D02*
X13391214Y-9348389D01*
X13391214Y-9348389D02*
X13381691Y-9367436D01*
X13381691Y-9367436D02*
X13372167Y-9376960D01*
X13372167Y-9376960D02*
X13353119Y-9386484D01*
X13353119Y-9386484D02*
X13334071Y-9386484D01*
X13334071Y-9386484D02*
X13315024Y-9376960D01*
X13315024Y-9376960D02*
X13305500Y-9367436D01*
X13305500Y-9367436D02*
X13295976Y-9348389D01*
X13295976Y-9348389D02*
X13286452Y-9310293D01*
X13286452Y-9310293D02*
X13286452Y-9262674D01*
X13286452Y-9262674D02*
X13295976Y-9224579D01*
X13295976Y-9224579D02*
X13305500Y-9205531D01*
X13305500Y-9205531D02*
X13315024Y-9196008D01*
X13315024Y-9196008D02*
X13334071Y-9186484D01*
X13591214Y-9386484D02*
X13476929Y-9386484D01*
X13534071Y-9386484D02*
X13534071Y-9186484D01*
X13534071Y-9186484D02*
X13515024Y-9215055D01*
X13515024Y-9215055D02*
X13495976Y-9234103D01*
X13495976Y-9234103D02*
X13476929Y-9243627D01*
X13781691Y-9386484D02*
X13667405Y-9386484D01*
X13724548Y-9386484D02*
X13724548Y-9186484D01*
X13724548Y-9186484D02*
X13705500Y-9215055D01*
X13705500Y-9215055D02*
X13686452Y-9234103D01*
X13686452Y-9234103D02*
X13667405Y-9243627D01*
X13895976Y-9272198D02*
X13876929Y-9262674D01*
X13876929Y-9262674D02*
X13867405Y-9253150D01*
X13867405Y-9253150D02*
X13857881Y-9234103D01*
X13857881Y-9234103D02*
X13857881Y-9224579D01*
X13857881Y-9224579D02*
X13867405Y-9205531D01*
X13867405Y-9205531D02*
X13876929Y-9196008D01*
X13876929Y-9196008D02*
X13895976Y-9186484D01*
X13895976Y-9186484D02*
X13934072Y-9186484D01*
X13934072Y-9186484D02*
X13953119Y-9196008D01*
X13953119Y-9196008D02*
X13962643Y-9205531D01*
X13962643Y-9205531D02*
X13972167Y-9224579D01*
X13972167Y-9224579D02*
X13972167Y-9234103D01*
X13972167Y-9234103D02*
X13962643Y-9253150D01*
X13962643Y-9253150D02*
X13953119Y-9262674D01*
X13953119Y-9262674D02*
X13934072Y-9272198D01*
X13934072Y-9272198D02*
X13895976Y-9272198D01*
X13895976Y-9272198D02*
X13876929Y-9281722D01*
X13876929Y-9281722D02*
X13867405Y-9291246D01*
X13867405Y-9291246D02*
X13857881Y-9310293D01*
X13857881Y-9310293D02*
X13857881Y-9348389D01*
X13857881Y-9348389D02*
X13867405Y-9367436D01*
X13867405Y-9367436D02*
X13876929Y-9376960D01*
X13876929Y-9376960D02*
X13895976Y-9386484D01*
X13895976Y-9386484D02*
X13934072Y-9386484D01*
X13934072Y-9386484D02*
X13953119Y-9376960D01*
X13953119Y-9376960D02*
X13962643Y-9367436D01*
X13962643Y-9367436D02*
X13972167Y-9348389D01*
X13972167Y-9348389D02*
X13972167Y-9310293D01*
X13972167Y-9310293D02*
X13962643Y-9291246D01*
X13962643Y-9291246D02*
X13953119Y-9281722D01*
X13953119Y-9281722D02*
X13934072Y-9272198D01*
X14048357Y-9186484D02*
X14048357Y-9224579D01*
X14124548Y-9186484D02*
X14124548Y-9224579D01*
X14419786Y-9462674D02*
X14410262Y-9453150D01*
X14410262Y-9453150D02*
X14391214Y-9424579D01*
X14391214Y-9424579D02*
X14381691Y-9405531D01*
X14381691Y-9405531D02*
X14372167Y-9376960D01*
X14372167Y-9376960D02*
X14362643Y-9329341D01*
X14362643Y-9329341D02*
X14362643Y-9291246D01*
X14362643Y-9291246D02*
X14372167Y-9243627D01*
X14372167Y-9243627D02*
X14381691Y-9215055D01*
X14381691Y-9215055D02*
X14391214Y-9196008D01*
X14391214Y-9196008D02*
X14410262Y-9167436D01*
X14410262Y-9167436D02*
X14419786Y-9157912D01*
X14591214Y-9186484D02*
X14495976Y-9186484D01*
X14495976Y-9186484D02*
X14486453Y-9281722D01*
X14486453Y-9281722D02*
X14495976Y-9272198D01*
X14495976Y-9272198D02*
X14515024Y-9262674D01*
X14515024Y-9262674D02*
X14562643Y-9262674D01*
X14562643Y-9262674D02*
X14581691Y-9272198D01*
X14581691Y-9272198D02*
X14591214Y-9281722D01*
X14591214Y-9281722D02*
X14600738Y-9300770D01*
X14600738Y-9300770D02*
X14600738Y-9348389D01*
X14600738Y-9348389D02*
X14591214Y-9367436D01*
X14591214Y-9367436D02*
X14581691Y-9376960D01*
X14581691Y-9376960D02*
X14562643Y-9386484D01*
X14562643Y-9386484D02*
X14515024Y-9386484D01*
X14515024Y-9386484D02*
X14495976Y-9376960D01*
X14495976Y-9376960D02*
X14486453Y-9367436D01*
X14667405Y-9186484D02*
X14791214Y-9186484D01*
X14791214Y-9186484D02*
X14724548Y-9262674D01*
X14724548Y-9262674D02*
X14753119Y-9262674D01*
X14753119Y-9262674D02*
X14772167Y-9272198D01*
X14772167Y-9272198D02*
X14781691Y-9281722D01*
X14781691Y-9281722D02*
X14791214Y-9300770D01*
X14791214Y-9300770D02*
X14791214Y-9348389D01*
X14791214Y-9348389D02*
X14781691Y-9367436D01*
X14781691Y-9367436D02*
X14772167Y-9376960D01*
X14772167Y-9376960D02*
X14753119Y-9386484D01*
X14753119Y-9386484D02*
X14695976Y-9386484D01*
X14695976Y-9386484D02*
X14676929Y-9376960D01*
X14676929Y-9376960D02*
X14667405Y-9367436D01*
X15029310Y-9386484D02*
X15029310Y-9186484D01*
X15115024Y-9386484D02*
X15115024Y-9281722D01*
X15115024Y-9281722D02*
X15105500Y-9262674D01*
X15105500Y-9262674D02*
X15086453Y-9253150D01*
X15086453Y-9253150D02*
X15057881Y-9253150D01*
X15057881Y-9253150D02*
X15038834Y-9262674D01*
X15038834Y-9262674D02*
X15029310Y-9272198D01*
X15238834Y-9386484D02*
X15219786Y-9376960D01*
X15219786Y-9376960D02*
X15210262Y-9367436D01*
X15210262Y-9367436D02*
X15200738Y-9348389D01*
X15200738Y-9348389D02*
X15200738Y-9291246D01*
X15200738Y-9291246D02*
X15210262Y-9272198D01*
X15210262Y-9272198D02*
X15219786Y-9262674D01*
X15219786Y-9262674D02*
X15238834Y-9253150D01*
X15238834Y-9253150D02*
X15267405Y-9253150D01*
X15267405Y-9253150D02*
X15286453Y-9262674D01*
X15286453Y-9262674D02*
X15295976Y-9272198D01*
X15295976Y-9272198D02*
X15305500Y-9291246D01*
X15305500Y-9291246D02*
X15305500Y-9348389D01*
X15305500Y-9348389D02*
X15295976Y-9367436D01*
X15295976Y-9367436D02*
X15286453Y-9376960D01*
X15286453Y-9376960D02*
X15267405Y-9386484D01*
X15267405Y-9386484D02*
X15238834Y-9386484D01*
X15419786Y-9386484D02*
X15400738Y-9376960D01*
X15400738Y-9376960D02*
X15391215Y-9357912D01*
X15391215Y-9357912D02*
X15391215Y-9186484D01*
X15572167Y-9376960D02*
X15553119Y-9386484D01*
X15553119Y-9386484D02*
X15515024Y-9386484D01*
X15515024Y-9386484D02*
X15495976Y-9376960D01*
X15495976Y-9376960D02*
X15486453Y-9357912D01*
X15486453Y-9357912D02*
X15486453Y-9281722D01*
X15486453Y-9281722D02*
X15495976Y-9262674D01*
X15495976Y-9262674D02*
X15515024Y-9253150D01*
X15515024Y-9253150D02*
X15553119Y-9253150D01*
X15553119Y-9253150D02*
X15572167Y-9262674D01*
X15572167Y-9262674D02*
X15581691Y-9281722D01*
X15581691Y-9281722D02*
X15581691Y-9300770D01*
X15581691Y-9300770D02*
X15486453Y-9319817D01*
X15657881Y-9376960D02*
X15676929Y-9386484D01*
X15676929Y-9386484D02*
X15715024Y-9386484D01*
X15715024Y-9386484D02*
X15734072Y-9376960D01*
X15734072Y-9376960D02*
X15743596Y-9357912D01*
X15743596Y-9357912D02*
X15743596Y-9348389D01*
X15743596Y-9348389D02*
X15734072Y-9329341D01*
X15734072Y-9329341D02*
X15715024Y-9319817D01*
X15715024Y-9319817D02*
X15686453Y-9319817D01*
X15686453Y-9319817D02*
X15667405Y-9310293D01*
X15667405Y-9310293D02*
X15657881Y-9291246D01*
X15657881Y-9291246D02*
X15657881Y-9281722D01*
X15657881Y-9281722D02*
X15667405Y-9262674D01*
X15667405Y-9262674D02*
X15686453Y-9253150D01*
X15686453Y-9253150D02*
X15715024Y-9253150D01*
X15715024Y-9253150D02*
X15734072Y-9262674D01*
X15810262Y-9462674D02*
X15819786Y-9453150D01*
X15819786Y-9453150D02*
X15838834Y-9424579D01*
X15838834Y-9424579D02*
X15848357Y-9405531D01*
X15848357Y-9405531D02*
X15857881Y-9376960D01*
X15857881Y-9376960D02*
X15867405Y-9329341D01*
X15867405Y-9329341D02*
X15867405Y-9291246D01*
X15867405Y-9291246D02*
X15857881Y-9243627D01*
X15857881Y-9243627D02*
X15848357Y-9215055D01*
X15848357Y-9215055D02*
X15838834Y-9196008D01*
X15838834Y-9196008D02*
X15819786Y-9167436D01*
X15819786Y-9167436D02*
X15810262Y-9157912D01*
D10*
X10844723Y-9559000D02*
G75*
G02*
X10804723Y-9559000I-20000J0D01*
G01*
X10804723Y-9559000D02*
G75*
G02*
X10844723Y-9559000I20000J0D01*
G01*
D11*
X11143595Y-9450484D02*
X11162643Y-9450484D01*
X11162643Y-9450484D02*
X11181690Y-9460008D01*
X11181690Y-9460008D02*
X11191214Y-9469531D01*
X11191214Y-9469531D02*
X11200738Y-9488579D01*
X11200738Y-9488579D02*
X11210262Y-9526674D01*
X11210262Y-9526674D02*
X11210262Y-9574293D01*
X11210262Y-9574293D02*
X11200738Y-9612389D01*
X11200738Y-9612389D02*
X11191214Y-9631436D01*
X11191214Y-9631436D02*
X11181690Y-9640960D01*
X11181690Y-9640960D02*
X11162643Y-9650484D01*
X11162643Y-9650484D02*
X11143595Y-9650484D01*
X11143595Y-9650484D02*
X11124548Y-9640960D01*
X11124548Y-9640960D02*
X11115024Y-9631436D01*
X11115024Y-9631436D02*
X11105500Y-9612389D01*
X11105500Y-9612389D02*
X11095976Y-9574293D01*
X11095976Y-9574293D02*
X11095976Y-9526674D01*
X11095976Y-9526674D02*
X11105500Y-9488579D01*
X11105500Y-9488579D02*
X11115024Y-9469531D01*
X11115024Y-9469531D02*
X11124548Y-9460008D01*
X11124548Y-9460008D02*
X11143595Y-9450484D01*
X11295976Y-9631436D02*
X11305500Y-9640960D01*
X11305500Y-9640960D02*
X11295976Y-9650484D01*
X11295976Y-9650484D02*
X11286452Y-9640960D01*
X11286452Y-9640960D02*
X11295976Y-9631436D01*
X11295976Y-9631436D02*
X11295976Y-9650484D01*
X11476928Y-9517150D02*
X11476928Y-9650484D01*
X11429309Y-9440960D02*
X11381690Y-9583817D01*
X11381690Y-9583817D02*
X11505500Y-9583817D01*
X11619786Y-9450484D02*
X11638833Y-9450484D01*
X11638833Y-9450484D02*
X11657881Y-9460008D01*
X11657881Y-9460008D02*
X11667405Y-9469531D01*
X11667405Y-9469531D02*
X11676928Y-9488579D01*
X11676928Y-9488579D02*
X11686452Y-9526674D01*
X11686452Y-9526674D02*
X11686452Y-9574293D01*
X11686452Y-9574293D02*
X11676928Y-9612389D01*
X11676928Y-9612389D02*
X11667405Y-9631436D01*
X11667405Y-9631436D02*
X11657881Y-9640960D01*
X11657881Y-9640960D02*
X11638833Y-9650484D01*
X11638833Y-9650484D02*
X11619786Y-9650484D01*
X11619786Y-9650484D02*
X11600738Y-9640960D01*
X11600738Y-9640960D02*
X11591214Y-9631436D01*
X11591214Y-9631436D02*
X11581690Y-9612389D01*
X11581690Y-9612389D02*
X11572167Y-9574293D01*
X11572167Y-9574293D02*
X11572167Y-9526674D01*
X11572167Y-9526674D02*
X11581690Y-9488579D01*
X11581690Y-9488579D02*
X11591214Y-9469531D01*
X11591214Y-9469531D02*
X11600738Y-9460008D01*
X11600738Y-9460008D02*
X11619786Y-9450484D01*
X11810262Y-9450484D02*
X11829309Y-9450484D01*
X11829309Y-9450484D02*
X11848357Y-9460008D01*
X11848357Y-9460008D02*
X11857881Y-9469531D01*
X11857881Y-9469531D02*
X11867405Y-9488579D01*
X11867405Y-9488579D02*
X11876928Y-9526674D01*
X11876928Y-9526674D02*
X11876928Y-9574293D01*
X11876928Y-9574293D02*
X11867405Y-9612389D01*
X11867405Y-9612389D02*
X11857881Y-9631436D01*
X11857881Y-9631436D02*
X11848357Y-9640960D01*
X11848357Y-9640960D02*
X11829309Y-9650484D01*
X11829309Y-9650484D02*
X11810262Y-9650484D01*
X11810262Y-9650484D02*
X11791214Y-9640960D01*
X11791214Y-9640960D02*
X11781690Y-9631436D01*
X11781690Y-9631436D02*
X11772167Y-9612389D01*
X11772167Y-9612389D02*
X11762643Y-9574293D01*
X11762643Y-9574293D02*
X11762643Y-9526674D01*
X11762643Y-9526674D02*
X11772167Y-9488579D01*
X11772167Y-9488579D02*
X11781690Y-9469531D01*
X11781690Y-9469531D02*
X11791214Y-9460008D01*
X11791214Y-9460008D02*
X11810262Y-9450484D01*
X11962643Y-9650484D02*
X11962643Y-9517150D01*
X11962643Y-9536198D02*
X11972167Y-9526674D01*
X11972167Y-9526674D02*
X11991214Y-9517150D01*
X11991214Y-9517150D02*
X12019786Y-9517150D01*
X12019786Y-9517150D02*
X12038833Y-9526674D01*
X12038833Y-9526674D02*
X12048357Y-9545722D01*
X12048357Y-9545722D02*
X12048357Y-9650484D01*
X12048357Y-9545722D02*
X12057881Y-9526674D01*
X12057881Y-9526674D02*
X12076928Y-9517150D01*
X12076928Y-9517150D02*
X12105500Y-9517150D01*
X12105500Y-9517150D02*
X12124548Y-9526674D01*
X12124548Y-9526674D02*
X12134071Y-9545722D01*
X12134071Y-9545722D02*
X12134071Y-9650484D01*
X12229309Y-9650484D02*
X12229309Y-9517150D01*
X12229309Y-9536198D02*
X12238833Y-9526674D01*
X12238833Y-9526674D02*
X12257881Y-9517150D01*
X12257881Y-9517150D02*
X12286452Y-9517150D01*
X12286452Y-9517150D02*
X12305500Y-9526674D01*
X12305500Y-9526674D02*
X12315024Y-9545722D01*
X12315024Y-9545722D02*
X12315024Y-9650484D01*
X12315024Y-9545722D02*
X12324548Y-9526674D01*
X12324548Y-9526674D02*
X12343595Y-9517150D01*
X12343595Y-9517150D02*
X12372167Y-9517150D01*
X12372167Y-9517150D02*
X12391214Y-9526674D01*
X12391214Y-9526674D02*
X12400738Y-9545722D01*
X12400738Y-9545722D02*
X12400738Y-9650484D01*
X12791214Y-9440960D02*
X12619786Y-9698103D01*
X13048357Y-9450484D02*
X13067405Y-9450484D01*
X13067405Y-9450484D02*
X13086452Y-9460008D01*
X13086452Y-9460008D02*
X13095976Y-9469531D01*
X13095976Y-9469531D02*
X13105500Y-9488579D01*
X13105500Y-9488579D02*
X13115024Y-9526674D01*
X13115024Y-9526674D02*
X13115024Y-9574293D01*
X13115024Y-9574293D02*
X13105500Y-9612389D01*
X13105500Y-9612389D02*
X13095976Y-9631436D01*
X13095976Y-9631436D02*
X13086452Y-9640960D01*
X13086452Y-9640960D02*
X13067405Y-9650484D01*
X13067405Y-9650484D02*
X13048357Y-9650484D01*
X13048357Y-9650484D02*
X13029310Y-9640960D01*
X13029310Y-9640960D02*
X13019786Y-9631436D01*
X13019786Y-9631436D02*
X13010262Y-9612389D01*
X13010262Y-9612389D02*
X13000738Y-9574293D01*
X13000738Y-9574293D02*
X13000738Y-9526674D01*
X13000738Y-9526674D02*
X13010262Y-9488579D01*
X13010262Y-9488579D02*
X13019786Y-9469531D01*
X13019786Y-9469531D02*
X13029310Y-9460008D01*
X13029310Y-9460008D02*
X13048357Y-9450484D01*
X13200738Y-9631436D02*
X13210262Y-9640960D01*
X13210262Y-9640960D02*
X13200738Y-9650484D01*
X13200738Y-9650484D02*
X13191214Y-9640960D01*
X13191214Y-9640960D02*
X13200738Y-9631436D01*
X13200738Y-9631436D02*
X13200738Y-9650484D01*
X13334071Y-9450484D02*
X13353119Y-9450484D01*
X13353119Y-9450484D02*
X13372167Y-9460008D01*
X13372167Y-9460008D02*
X13381691Y-9469531D01*
X13381691Y-9469531D02*
X13391214Y-9488579D01*
X13391214Y-9488579D02*
X13400738Y-9526674D01*
X13400738Y-9526674D02*
X13400738Y-9574293D01*
X13400738Y-9574293D02*
X13391214Y-9612389D01*
X13391214Y-9612389D02*
X13381691Y-9631436D01*
X13381691Y-9631436D02*
X13372167Y-9640960D01*
X13372167Y-9640960D02*
X13353119Y-9650484D01*
X13353119Y-9650484D02*
X13334071Y-9650484D01*
X13334071Y-9650484D02*
X13315024Y-9640960D01*
X13315024Y-9640960D02*
X13305500Y-9631436D01*
X13305500Y-9631436D02*
X13295976Y-9612389D01*
X13295976Y-9612389D02*
X13286452Y-9574293D01*
X13286452Y-9574293D02*
X13286452Y-9526674D01*
X13286452Y-9526674D02*
X13295976Y-9488579D01*
X13295976Y-9488579D02*
X13305500Y-9469531D01*
X13305500Y-9469531D02*
X13315024Y-9460008D01*
X13315024Y-9460008D02*
X13334071Y-9450484D01*
X13591214Y-9650484D02*
X13476929Y-9650484D01*
X13534071Y-9650484D02*
X13534071Y-9450484D01*
X13534071Y-9450484D02*
X13515024Y-9479055D01*
X13515024Y-9479055D02*
X13495976Y-9498103D01*
X13495976Y-9498103D02*
X13476929Y-9507627D01*
X13772167Y-9450484D02*
X13676929Y-9450484D01*
X13676929Y-9450484D02*
X13667405Y-9545722D01*
X13667405Y-9545722D02*
X13676929Y-9536198D01*
X13676929Y-9536198D02*
X13695976Y-9526674D01*
X13695976Y-9526674D02*
X13743595Y-9526674D01*
X13743595Y-9526674D02*
X13762643Y-9536198D01*
X13762643Y-9536198D02*
X13772167Y-9545722D01*
X13772167Y-9545722D02*
X13781691Y-9564770D01*
X13781691Y-9564770D02*
X13781691Y-9612389D01*
X13781691Y-9612389D02*
X13772167Y-9631436D01*
X13772167Y-9631436D02*
X13762643Y-9640960D01*
X13762643Y-9640960D02*
X13743595Y-9650484D01*
X13743595Y-9650484D02*
X13695976Y-9650484D01*
X13695976Y-9650484D02*
X13676929Y-9640960D01*
X13676929Y-9640960D02*
X13667405Y-9631436D01*
X13848357Y-9450484D02*
X13981691Y-9450484D01*
X13981691Y-9450484D02*
X13895976Y-9650484D01*
X14048357Y-9450484D02*
X14048357Y-9488579D01*
X14124548Y-9450484D02*
X14124548Y-9488579D01*
X14419786Y-9726674D02*
X14410262Y-9717150D01*
X14410262Y-9717150D02*
X14391214Y-9688579D01*
X14391214Y-9688579D02*
X14381691Y-9669531D01*
X14381691Y-9669531D02*
X14372167Y-9640960D01*
X14372167Y-9640960D02*
X14362643Y-9593341D01*
X14362643Y-9593341D02*
X14362643Y-9555246D01*
X14362643Y-9555246D02*
X14372167Y-9507627D01*
X14372167Y-9507627D02*
X14381691Y-9479055D01*
X14381691Y-9479055D02*
X14391214Y-9460008D01*
X14391214Y-9460008D02*
X14410262Y-9431436D01*
X14410262Y-9431436D02*
X14419786Y-9421912D01*
X14600738Y-9650484D02*
X14486453Y-9650484D01*
X14543595Y-9650484D02*
X14543595Y-9450484D01*
X14543595Y-9450484D02*
X14524548Y-9479055D01*
X14524548Y-9479055D02*
X14505500Y-9498103D01*
X14505500Y-9498103D02*
X14486453Y-9507627D01*
X14838834Y-9650484D02*
X14838834Y-9450484D01*
X14924548Y-9650484D02*
X14924548Y-9545722D01*
X14924548Y-9545722D02*
X14915024Y-9526674D01*
X14915024Y-9526674D02*
X14895976Y-9517150D01*
X14895976Y-9517150D02*
X14867405Y-9517150D01*
X14867405Y-9517150D02*
X14848357Y-9526674D01*
X14848357Y-9526674D02*
X14838834Y-9536198D01*
X15048357Y-9650484D02*
X15029310Y-9640960D01*
X15029310Y-9640960D02*
X15019786Y-9631436D01*
X15019786Y-9631436D02*
X15010262Y-9612389D01*
X15010262Y-9612389D02*
X15010262Y-9555246D01*
X15010262Y-9555246D02*
X15019786Y-9536198D01*
X15019786Y-9536198D02*
X15029310Y-9526674D01*
X15029310Y-9526674D02*
X15048357Y-9517150D01*
X15048357Y-9517150D02*
X15076929Y-9517150D01*
X15076929Y-9517150D02*
X15095976Y-9526674D01*
X15095976Y-9526674D02*
X15105500Y-9536198D01*
X15105500Y-9536198D02*
X15115024Y-9555246D01*
X15115024Y-9555246D02*
X15115024Y-9612389D01*
X15115024Y-9612389D02*
X15105500Y-9631436D01*
X15105500Y-9631436D02*
X15095976Y-9640960D01*
X15095976Y-9640960D02*
X15076929Y-9650484D01*
X15076929Y-9650484D02*
X15048357Y-9650484D01*
X15229310Y-9650484D02*
X15210262Y-9640960D01*
X15210262Y-9640960D02*
X15200738Y-9621912D01*
X15200738Y-9621912D02*
X15200738Y-9450484D01*
X15381691Y-9640960D02*
X15362643Y-9650484D01*
X15362643Y-9650484D02*
X15324548Y-9650484D01*
X15324548Y-9650484D02*
X15305500Y-9640960D01*
X15305500Y-9640960D02*
X15295976Y-9621912D01*
X15295976Y-9621912D02*
X15295976Y-9545722D01*
X15295976Y-9545722D02*
X15305500Y-9526674D01*
X15305500Y-9526674D02*
X15324548Y-9517150D01*
X15324548Y-9517150D02*
X15362643Y-9517150D01*
X15362643Y-9517150D02*
X15381691Y-9526674D01*
X15381691Y-9526674D02*
X15391215Y-9545722D01*
X15391215Y-9545722D02*
X15391215Y-9564770D01*
X15391215Y-9564770D02*
X15295976Y-9583817D01*
X15457881Y-9726674D02*
X15467405Y-9717150D01*
X15467405Y-9717150D02*
X15486453Y-9688579D01*
X15486453Y-9688579D02*
X15495976Y-9669531D01*
X15495976Y-9669531D02*
X15505500Y-9640960D01*
X15505500Y-9640960D02*
X15515024Y-9593341D01*
X15515024Y-9593341D02*
X15515024Y-9555246D01*
X15515024Y-9555246D02*
X15505500Y-9507627D01*
X15505500Y-9507627D02*
X15495976Y-9479055D01*
X15495976Y-9479055D02*
X15486453Y-9460008D01*
X15486453Y-9460008D02*
X15467405Y-9431436D01*
X15467405Y-9431436D02*
X15457881Y-9421912D01*
D12*
X10793723Y-9772000D02*
X10793723Y-9874000D01*
X10742723Y-9823000D02*
X10844723Y-9823000D01*
D11*
X11210262Y-9914484D02*
X11095976Y-9914484D01*
X11153119Y-9914484D02*
X11153119Y-9714484D01*
X11153119Y-9714484D02*
X11134071Y-9743055D01*
X11134071Y-9743055D02*
X11115024Y-9762103D01*
X11115024Y-9762103D02*
X11095976Y-9771627D01*
X11295976Y-9895436D02*
X11305500Y-9904960D01*
X11305500Y-9904960D02*
X11295976Y-9914484D01*
X11295976Y-9914484D02*
X11286452Y-9904960D01*
X11286452Y-9904960D02*
X11295976Y-9895436D01*
X11295976Y-9895436D02*
X11295976Y-9914484D01*
X11429309Y-9714484D02*
X11448357Y-9714484D01*
X11448357Y-9714484D02*
X11467405Y-9724008D01*
X11467405Y-9724008D02*
X11476928Y-9733531D01*
X11476928Y-9733531D02*
X11486452Y-9752579D01*
X11486452Y-9752579D02*
X11495976Y-9790674D01*
X11495976Y-9790674D02*
X11495976Y-9838293D01*
X11495976Y-9838293D02*
X11486452Y-9876389D01*
X11486452Y-9876389D02*
X11476928Y-9895436D01*
X11476928Y-9895436D02*
X11467405Y-9904960D01*
X11467405Y-9904960D02*
X11448357Y-9914484D01*
X11448357Y-9914484D02*
X11429309Y-9914484D01*
X11429309Y-9914484D02*
X11410262Y-9904960D01*
X11410262Y-9904960D02*
X11400738Y-9895436D01*
X11400738Y-9895436D02*
X11391214Y-9876389D01*
X11391214Y-9876389D02*
X11381690Y-9838293D01*
X11381690Y-9838293D02*
X11381690Y-9790674D01*
X11381690Y-9790674D02*
X11391214Y-9752579D01*
X11391214Y-9752579D02*
X11400738Y-9733531D01*
X11400738Y-9733531D02*
X11410262Y-9724008D01*
X11410262Y-9724008D02*
X11429309Y-9714484D01*
X11572167Y-9733531D02*
X11581690Y-9724008D01*
X11581690Y-9724008D02*
X11600738Y-9714484D01*
X11600738Y-9714484D02*
X11648357Y-9714484D01*
X11648357Y-9714484D02*
X11667405Y-9724008D01*
X11667405Y-9724008D02*
X11676928Y-9733531D01*
X11676928Y-9733531D02*
X11686452Y-9752579D01*
X11686452Y-9752579D02*
X11686452Y-9771627D01*
X11686452Y-9771627D02*
X11676928Y-9800198D01*
X11676928Y-9800198D02*
X11562643Y-9914484D01*
X11562643Y-9914484D02*
X11686452Y-9914484D01*
X11810262Y-9714484D02*
X11829309Y-9714484D01*
X11829309Y-9714484D02*
X11848357Y-9724008D01*
X11848357Y-9724008D02*
X11857881Y-9733531D01*
X11857881Y-9733531D02*
X11867405Y-9752579D01*
X11867405Y-9752579D02*
X11876928Y-9790674D01*
X11876928Y-9790674D02*
X11876928Y-9838293D01*
X11876928Y-9838293D02*
X11867405Y-9876389D01*
X11867405Y-9876389D02*
X11857881Y-9895436D01*
X11857881Y-9895436D02*
X11848357Y-9904960D01*
X11848357Y-9904960D02*
X11829309Y-9914484D01*
X11829309Y-9914484D02*
X11810262Y-9914484D01*
X11810262Y-9914484D02*
X11791214Y-9904960D01*
X11791214Y-9904960D02*
X11781690Y-9895436D01*
X11781690Y-9895436D02*
X11772167Y-9876389D01*
X11772167Y-9876389D02*
X11762643Y-9838293D01*
X11762643Y-9838293D02*
X11762643Y-9790674D01*
X11762643Y-9790674D02*
X11772167Y-9752579D01*
X11772167Y-9752579D02*
X11781690Y-9733531D01*
X11781690Y-9733531D02*
X11791214Y-9724008D01*
X11791214Y-9724008D02*
X11810262Y-9714484D01*
X11962643Y-9914484D02*
X11962643Y-9781150D01*
X11962643Y-9800198D02*
X11972167Y-9790674D01*
X11972167Y-9790674D02*
X11991214Y-9781150D01*
X11991214Y-9781150D02*
X12019786Y-9781150D01*
X12019786Y-9781150D02*
X12038833Y-9790674D01*
X12038833Y-9790674D02*
X12048357Y-9809722D01*
X12048357Y-9809722D02*
X12048357Y-9914484D01*
X12048357Y-9809722D02*
X12057881Y-9790674D01*
X12057881Y-9790674D02*
X12076928Y-9781150D01*
X12076928Y-9781150D02*
X12105500Y-9781150D01*
X12105500Y-9781150D02*
X12124548Y-9790674D01*
X12124548Y-9790674D02*
X12134071Y-9809722D01*
X12134071Y-9809722D02*
X12134071Y-9914484D01*
X12229309Y-9914484D02*
X12229309Y-9781150D01*
X12229309Y-9800198D02*
X12238833Y-9790674D01*
X12238833Y-9790674D02*
X12257881Y-9781150D01*
X12257881Y-9781150D02*
X12286452Y-9781150D01*
X12286452Y-9781150D02*
X12305500Y-9790674D01*
X12305500Y-9790674D02*
X12315024Y-9809722D01*
X12315024Y-9809722D02*
X12315024Y-9914484D01*
X12315024Y-9809722D02*
X12324548Y-9790674D01*
X12324548Y-9790674D02*
X12343595Y-9781150D01*
X12343595Y-9781150D02*
X12372167Y-9781150D01*
X12372167Y-9781150D02*
X12391214Y-9790674D01*
X12391214Y-9790674D02*
X12400738Y-9809722D01*
X12400738Y-9809722D02*
X12400738Y-9914484D01*
X12791214Y-9704960D02*
X12619786Y-9962103D01*
X13048357Y-9714484D02*
X13067405Y-9714484D01*
X13067405Y-9714484D02*
X13086452Y-9724008D01*
X13086452Y-9724008D02*
X13095976Y-9733531D01*
X13095976Y-9733531D02*
X13105500Y-9752579D01*
X13105500Y-9752579D02*
X13115024Y-9790674D01*
X13115024Y-9790674D02*
X13115024Y-9838293D01*
X13115024Y-9838293D02*
X13105500Y-9876389D01*
X13105500Y-9876389D02*
X13095976Y-9895436D01*
X13095976Y-9895436D02*
X13086452Y-9904960D01*
X13086452Y-9904960D02*
X13067405Y-9914484D01*
X13067405Y-9914484D02*
X13048357Y-9914484D01*
X13048357Y-9914484D02*
X13029310Y-9904960D01*
X13029310Y-9904960D02*
X13019786Y-9895436D01*
X13019786Y-9895436D02*
X13010262Y-9876389D01*
X13010262Y-9876389D02*
X13000738Y-9838293D01*
X13000738Y-9838293D02*
X13000738Y-9790674D01*
X13000738Y-9790674D02*
X13010262Y-9752579D01*
X13010262Y-9752579D02*
X13019786Y-9733531D01*
X13019786Y-9733531D02*
X13029310Y-9724008D01*
X13029310Y-9724008D02*
X13048357Y-9714484D01*
X13200738Y-9895436D02*
X13210262Y-9904960D01*
X13210262Y-9904960D02*
X13200738Y-9914484D01*
X13200738Y-9914484D02*
X13191214Y-9904960D01*
X13191214Y-9904960D02*
X13200738Y-9895436D01*
X13200738Y-9895436D02*
X13200738Y-9914484D01*
X13334071Y-9714484D02*
X13353119Y-9714484D01*
X13353119Y-9714484D02*
X13372167Y-9724008D01*
X13372167Y-9724008D02*
X13381691Y-9733531D01*
X13381691Y-9733531D02*
X13391214Y-9752579D01*
X13391214Y-9752579D02*
X13400738Y-9790674D01*
X13400738Y-9790674D02*
X13400738Y-9838293D01*
X13400738Y-9838293D02*
X13391214Y-9876389D01*
X13391214Y-9876389D02*
X13381691Y-9895436D01*
X13381691Y-9895436D02*
X13372167Y-9904960D01*
X13372167Y-9904960D02*
X13353119Y-9914484D01*
X13353119Y-9914484D02*
X13334071Y-9914484D01*
X13334071Y-9914484D02*
X13315024Y-9904960D01*
X13315024Y-9904960D02*
X13305500Y-9895436D01*
X13305500Y-9895436D02*
X13295976Y-9876389D01*
X13295976Y-9876389D02*
X13286452Y-9838293D01*
X13286452Y-9838293D02*
X13286452Y-9790674D01*
X13286452Y-9790674D02*
X13295976Y-9752579D01*
X13295976Y-9752579D02*
X13305500Y-9733531D01*
X13305500Y-9733531D02*
X13315024Y-9724008D01*
X13315024Y-9724008D02*
X13334071Y-9714484D01*
X13572167Y-9781150D02*
X13572167Y-9914484D01*
X13524548Y-9704960D02*
X13476929Y-9847817D01*
X13476929Y-9847817D02*
X13600738Y-9847817D01*
X13715024Y-9714484D02*
X13734072Y-9714484D01*
X13734072Y-9714484D02*
X13753119Y-9724008D01*
X13753119Y-9724008D02*
X13762643Y-9733531D01*
X13762643Y-9733531D02*
X13772167Y-9752579D01*
X13772167Y-9752579D02*
X13781691Y-9790674D01*
X13781691Y-9790674D02*
X13781691Y-9838293D01*
X13781691Y-9838293D02*
X13772167Y-9876389D01*
X13772167Y-9876389D02*
X13762643Y-9895436D01*
X13762643Y-9895436D02*
X13753119Y-9904960D01*
X13753119Y-9904960D02*
X13734072Y-9914484D01*
X13734072Y-9914484D02*
X13715024Y-9914484D01*
X13715024Y-9914484D02*
X13695976Y-9904960D01*
X13695976Y-9904960D02*
X13686452Y-9895436D01*
X13686452Y-9895436D02*
X13676929Y-9876389D01*
X13676929Y-9876389D02*
X13667405Y-9838293D01*
X13667405Y-9838293D02*
X13667405Y-9790674D01*
X13667405Y-9790674D02*
X13676929Y-9752579D01*
X13676929Y-9752579D02*
X13686452Y-9733531D01*
X13686452Y-9733531D02*
X13695976Y-9724008D01*
X13695976Y-9724008D02*
X13715024Y-9714484D01*
X13857881Y-9733531D02*
X13867405Y-9724008D01*
X13867405Y-9724008D02*
X13886452Y-9714484D01*
X13886452Y-9714484D02*
X13934072Y-9714484D01*
X13934072Y-9714484D02*
X13953119Y-9724008D01*
X13953119Y-9724008D02*
X13962643Y-9733531D01*
X13962643Y-9733531D02*
X13972167Y-9752579D01*
X13972167Y-9752579D02*
X13972167Y-9771627D01*
X13972167Y-9771627D02*
X13962643Y-9800198D01*
X13962643Y-9800198D02*
X13848357Y-9914484D01*
X13848357Y-9914484D02*
X13972167Y-9914484D01*
X14048357Y-9714484D02*
X14048357Y-9752579D01*
X14124548Y-9714484D02*
X14124548Y-9752579D01*
X14419786Y-9990674D02*
X14410262Y-9981150D01*
X14410262Y-9981150D02*
X14391214Y-9952579D01*
X14391214Y-9952579D02*
X14381691Y-9933531D01*
X14381691Y-9933531D02*
X14372167Y-9904960D01*
X14372167Y-9904960D02*
X14362643Y-9857341D01*
X14362643Y-9857341D02*
X14362643Y-9819246D01*
X14362643Y-9819246D02*
X14372167Y-9771627D01*
X14372167Y-9771627D02*
X14381691Y-9743055D01*
X14381691Y-9743055D02*
X14391214Y-9724008D01*
X14391214Y-9724008D02*
X14410262Y-9695436D01*
X14410262Y-9695436D02*
X14419786Y-9685912D01*
X14581691Y-9714484D02*
X14543595Y-9714484D01*
X14543595Y-9714484D02*
X14524548Y-9724008D01*
X14524548Y-9724008D02*
X14515024Y-9733531D01*
X14515024Y-9733531D02*
X14495976Y-9762103D01*
X14495976Y-9762103D02*
X14486453Y-9800198D01*
X14486453Y-9800198D02*
X14486453Y-9876389D01*
X14486453Y-9876389D02*
X14495976Y-9895436D01*
X14495976Y-9895436D02*
X14505500Y-9904960D01*
X14505500Y-9904960D02*
X14524548Y-9914484D01*
X14524548Y-9914484D02*
X14562643Y-9914484D01*
X14562643Y-9914484D02*
X14581691Y-9904960D01*
X14581691Y-9904960D02*
X14591214Y-9895436D01*
X14591214Y-9895436D02*
X14600738Y-9876389D01*
X14600738Y-9876389D02*
X14600738Y-9828770D01*
X14600738Y-9828770D02*
X14591214Y-9809722D01*
X14591214Y-9809722D02*
X14581691Y-9800198D01*
X14581691Y-9800198D02*
X14562643Y-9790674D01*
X14562643Y-9790674D02*
X14524548Y-9790674D01*
X14524548Y-9790674D02*
X14505500Y-9800198D01*
X14505500Y-9800198D02*
X14495976Y-9809722D01*
X14495976Y-9809722D02*
X14486453Y-9828770D01*
X14838834Y-9914484D02*
X14838834Y-9714484D01*
X14924548Y-9914484D02*
X14924548Y-9809722D01*
X14924548Y-9809722D02*
X14915024Y-9790674D01*
X14915024Y-9790674D02*
X14895976Y-9781150D01*
X14895976Y-9781150D02*
X14867405Y-9781150D01*
X14867405Y-9781150D02*
X14848357Y-9790674D01*
X14848357Y-9790674D02*
X14838834Y-9800198D01*
X15048357Y-9914484D02*
X15029310Y-9904960D01*
X15029310Y-9904960D02*
X15019786Y-9895436D01*
X15019786Y-9895436D02*
X15010262Y-9876389D01*
X15010262Y-9876389D02*
X15010262Y-9819246D01*
X15010262Y-9819246D02*
X15019786Y-9800198D01*
X15019786Y-9800198D02*
X15029310Y-9790674D01*
X15029310Y-9790674D02*
X15048357Y-9781150D01*
X15048357Y-9781150D02*
X15076929Y-9781150D01*
X15076929Y-9781150D02*
X15095976Y-9790674D01*
X15095976Y-9790674D02*
X15105500Y-9800198D01*
X15105500Y-9800198D02*
X15115024Y-9819246D01*
X15115024Y-9819246D02*
X15115024Y-9876389D01*
X15115024Y-9876389D02*
X15105500Y-9895436D01*
X15105500Y-9895436D02*
X15095976Y-9904960D01*
X15095976Y-9904960D02*
X15076929Y-9914484D01*
X15076929Y-9914484D02*
X15048357Y-9914484D01*
X15229310Y-9914484D02*
X15210262Y-9904960D01*
X15210262Y-9904960D02*
X15200738Y-9885912D01*
X15200738Y-9885912D02*
X15200738Y-9714484D01*
X15381691Y-9904960D02*
X15362643Y-9914484D01*
X15362643Y-9914484D02*
X15324548Y-9914484D01*
X15324548Y-9914484D02*
X15305500Y-9904960D01*
X15305500Y-9904960D02*
X15295976Y-9885912D01*
X15295976Y-9885912D02*
X15295976Y-9809722D01*
X15295976Y-9809722D02*
X15305500Y-9790674D01*
X15305500Y-9790674D02*
X15324548Y-9781150D01*
X15324548Y-9781150D02*
X15362643Y-9781150D01*
X15362643Y-9781150D02*
X15381691Y-9790674D01*
X15381691Y-9790674D02*
X15391215Y-9809722D01*
X15391215Y-9809722D02*
X15391215Y-9828770D01*
X15391215Y-9828770D02*
X15295976Y-9847817D01*
X15467405Y-9904960D02*
X15486453Y-9914484D01*
X15486453Y-9914484D02*
X15524548Y-9914484D01*
X15524548Y-9914484D02*
X15543596Y-9904960D01*
X15543596Y-9904960D02*
X15553119Y-9885912D01*
X15553119Y-9885912D02*
X15553119Y-9876389D01*
X15553119Y-9876389D02*
X15543596Y-9857341D01*
X15543596Y-9857341D02*
X15524548Y-9847817D01*
X15524548Y-9847817D02*
X15495976Y-9847817D01*
X15495976Y-9847817D02*
X15476929Y-9838293D01*
X15476929Y-9838293D02*
X15467405Y-9819246D01*
X15467405Y-9819246D02*
X15467405Y-9809722D01*
X15467405Y-9809722D02*
X15476929Y-9790674D01*
X15476929Y-9790674D02*
X15495976Y-9781150D01*
X15495976Y-9781150D02*
X15524548Y-9781150D01*
X15524548Y-9781150D02*
X15543596Y-9790674D01*
X15619786Y-9990674D02*
X15629310Y-9981150D01*
X15629310Y-9981150D02*
X15648357Y-9952579D01*
X15648357Y-9952579D02*
X15657881Y-9933531D01*
X15657881Y-9933531D02*
X15667405Y-9904960D01*
X15667405Y-9904960D02*
X15676929Y-9857341D01*
X15676929Y-9857341D02*
X15676929Y-9819246D01*
X15676929Y-9819246D02*
X15667405Y-9771627D01*
X15667405Y-9771627D02*
X15657881Y-9743055D01*
X15657881Y-9743055D02*
X15648357Y-9724008D01*
X15648357Y-9724008D02*
X15629310Y-9695436D01*
X15629310Y-9695436D02*
X15619786Y-9685912D01*
D13*
X10828614Y-10125891D02*
X10828614Y-10048109D01*
X10750832Y-10048109D01*
X10750832Y-10125891D01*
X10828614Y-10125891D01*
D11*
X11210262Y-10178484D02*
X11095976Y-10178484D01*
X11153119Y-10178484D02*
X11153119Y-9978484D01*
X11153119Y-9978484D02*
X11134071Y-10007055D01*
X11134071Y-10007055D02*
X11115024Y-10026103D01*
X11115024Y-10026103D02*
X11095976Y-10035627D01*
X11295976Y-10159436D02*
X11305500Y-10168960D01*
X11305500Y-10168960D02*
X11295976Y-10178484D01*
X11295976Y-10178484D02*
X11286452Y-10168960D01*
X11286452Y-10168960D02*
X11295976Y-10159436D01*
X11295976Y-10159436D02*
X11295976Y-10178484D01*
X11495976Y-10178484D02*
X11381690Y-10178484D01*
X11438833Y-10178484D02*
X11438833Y-9978484D01*
X11438833Y-9978484D02*
X11419786Y-10007055D01*
X11419786Y-10007055D02*
X11400738Y-10026103D01*
X11400738Y-10026103D02*
X11381690Y-10035627D01*
X11619786Y-9978484D02*
X11638833Y-9978484D01*
X11638833Y-9978484D02*
X11657881Y-9988008D01*
X11657881Y-9988008D02*
X11667405Y-9997531D01*
X11667405Y-9997531D02*
X11676928Y-10016579D01*
X11676928Y-10016579D02*
X11686452Y-10054674D01*
X11686452Y-10054674D02*
X11686452Y-10102293D01*
X11686452Y-10102293D02*
X11676928Y-10140389D01*
X11676928Y-10140389D02*
X11667405Y-10159436D01*
X11667405Y-10159436D02*
X11657881Y-10168960D01*
X11657881Y-10168960D02*
X11638833Y-10178484D01*
X11638833Y-10178484D02*
X11619786Y-10178484D01*
X11619786Y-10178484D02*
X11600738Y-10168960D01*
X11600738Y-10168960D02*
X11591214Y-10159436D01*
X11591214Y-10159436D02*
X11581690Y-10140389D01*
X11581690Y-10140389D02*
X11572167Y-10102293D01*
X11572167Y-10102293D02*
X11572167Y-10054674D01*
X11572167Y-10054674D02*
X11581690Y-10016579D01*
X11581690Y-10016579D02*
X11591214Y-9997531D01*
X11591214Y-9997531D02*
X11600738Y-9988008D01*
X11600738Y-9988008D02*
X11619786Y-9978484D01*
X11810262Y-9978484D02*
X11829309Y-9978484D01*
X11829309Y-9978484D02*
X11848357Y-9988008D01*
X11848357Y-9988008D02*
X11857881Y-9997531D01*
X11857881Y-9997531D02*
X11867405Y-10016579D01*
X11867405Y-10016579D02*
X11876928Y-10054674D01*
X11876928Y-10054674D02*
X11876928Y-10102293D01*
X11876928Y-10102293D02*
X11867405Y-10140389D01*
X11867405Y-10140389D02*
X11857881Y-10159436D01*
X11857881Y-10159436D02*
X11848357Y-10168960D01*
X11848357Y-10168960D02*
X11829309Y-10178484D01*
X11829309Y-10178484D02*
X11810262Y-10178484D01*
X11810262Y-10178484D02*
X11791214Y-10168960D01*
X11791214Y-10168960D02*
X11781690Y-10159436D01*
X11781690Y-10159436D02*
X11772167Y-10140389D01*
X11772167Y-10140389D02*
X11762643Y-10102293D01*
X11762643Y-10102293D02*
X11762643Y-10054674D01*
X11762643Y-10054674D02*
X11772167Y-10016579D01*
X11772167Y-10016579D02*
X11781690Y-9997531D01*
X11781690Y-9997531D02*
X11791214Y-9988008D01*
X11791214Y-9988008D02*
X11810262Y-9978484D01*
X11962643Y-10178484D02*
X11962643Y-10045150D01*
X11962643Y-10064198D02*
X11972167Y-10054674D01*
X11972167Y-10054674D02*
X11991214Y-10045150D01*
X11991214Y-10045150D02*
X12019786Y-10045150D01*
X12019786Y-10045150D02*
X12038833Y-10054674D01*
X12038833Y-10054674D02*
X12048357Y-10073722D01*
X12048357Y-10073722D02*
X12048357Y-10178484D01*
X12048357Y-10073722D02*
X12057881Y-10054674D01*
X12057881Y-10054674D02*
X12076928Y-10045150D01*
X12076928Y-10045150D02*
X12105500Y-10045150D01*
X12105500Y-10045150D02*
X12124548Y-10054674D01*
X12124548Y-10054674D02*
X12134071Y-10073722D01*
X12134071Y-10073722D02*
X12134071Y-10178484D01*
X12229309Y-10178484D02*
X12229309Y-10045150D01*
X12229309Y-10064198D02*
X12238833Y-10054674D01*
X12238833Y-10054674D02*
X12257881Y-10045150D01*
X12257881Y-10045150D02*
X12286452Y-10045150D01*
X12286452Y-10045150D02*
X12305500Y-10054674D01*
X12305500Y-10054674D02*
X12315024Y-10073722D01*
X12315024Y-10073722D02*
X12315024Y-10178484D01*
X12315024Y-10073722D02*
X12324548Y-10054674D01*
X12324548Y-10054674D02*
X12343595Y-10045150D01*
X12343595Y-10045150D02*
X12372167Y-10045150D01*
X12372167Y-10045150D02*
X12391214Y-10054674D01*
X12391214Y-10054674D02*
X12400738Y-10073722D01*
X12400738Y-10073722D02*
X12400738Y-10178484D01*
X12791214Y-9968960D02*
X12619786Y-10226103D01*
X13048357Y-9978484D02*
X13067405Y-9978484D01*
X13067405Y-9978484D02*
X13086452Y-9988008D01*
X13086452Y-9988008D02*
X13095976Y-9997531D01*
X13095976Y-9997531D02*
X13105500Y-10016579D01*
X13105500Y-10016579D02*
X13115024Y-10054674D01*
X13115024Y-10054674D02*
X13115024Y-10102293D01*
X13115024Y-10102293D02*
X13105500Y-10140389D01*
X13105500Y-10140389D02*
X13095976Y-10159436D01*
X13095976Y-10159436D02*
X13086452Y-10168960D01*
X13086452Y-10168960D02*
X13067405Y-10178484D01*
X13067405Y-10178484D02*
X13048357Y-10178484D01*
X13048357Y-10178484D02*
X13029310Y-10168960D01*
X13029310Y-10168960D02*
X13019786Y-10159436D01*
X13019786Y-10159436D02*
X13010262Y-10140389D01*
X13010262Y-10140389D02*
X13000738Y-10102293D01*
X13000738Y-10102293D02*
X13000738Y-10054674D01*
X13000738Y-10054674D02*
X13010262Y-10016579D01*
X13010262Y-10016579D02*
X13019786Y-9997531D01*
X13019786Y-9997531D02*
X13029310Y-9988008D01*
X13029310Y-9988008D02*
X13048357Y-9978484D01*
X13200738Y-10159436D02*
X13210262Y-10168960D01*
X13210262Y-10168960D02*
X13200738Y-10178484D01*
X13200738Y-10178484D02*
X13191214Y-10168960D01*
X13191214Y-10168960D02*
X13200738Y-10159436D01*
X13200738Y-10159436D02*
X13200738Y-10178484D01*
X13334071Y-9978484D02*
X13353119Y-9978484D01*
X13353119Y-9978484D02*
X13372167Y-9988008D01*
X13372167Y-9988008D02*
X13381691Y-9997531D01*
X13381691Y-9997531D02*
X13391214Y-10016579D01*
X13391214Y-10016579D02*
X13400738Y-10054674D01*
X13400738Y-10054674D02*
X13400738Y-10102293D01*
X13400738Y-10102293D02*
X13391214Y-10140389D01*
X13391214Y-10140389D02*
X13381691Y-10159436D01*
X13381691Y-10159436D02*
X13372167Y-10168960D01*
X13372167Y-10168960D02*
X13353119Y-10178484D01*
X13353119Y-10178484D02*
X13334071Y-10178484D01*
X13334071Y-10178484D02*
X13315024Y-10168960D01*
X13315024Y-10168960D02*
X13305500Y-10159436D01*
X13305500Y-10159436D02*
X13295976Y-10140389D01*
X13295976Y-10140389D02*
X13286452Y-10102293D01*
X13286452Y-10102293D02*
X13286452Y-10054674D01*
X13286452Y-10054674D02*
X13295976Y-10016579D01*
X13295976Y-10016579D02*
X13305500Y-9997531D01*
X13305500Y-9997531D02*
X13315024Y-9988008D01*
X13315024Y-9988008D02*
X13334071Y-9978484D01*
X13572167Y-10045150D02*
X13572167Y-10178484D01*
X13524548Y-9968960D02*
X13476929Y-10111817D01*
X13476929Y-10111817D02*
X13600738Y-10111817D01*
X13657881Y-9978484D02*
X13781691Y-9978484D01*
X13781691Y-9978484D02*
X13715024Y-10054674D01*
X13715024Y-10054674D02*
X13743595Y-10054674D01*
X13743595Y-10054674D02*
X13762643Y-10064198D01*
X13762643Y-10064198D02*
X13772167Y-10073722D01*
X13772167Y-10073722D02*
X13781691Y-10092770D01*
X13781691Y-10092770D02*
X13781691Y-10140389D01*
X13781691Y-10140389D02*
X13772167Y-10159436D01*
X13772167Y-10159436D02*
X13762643Y-10168960D01*
X13762643Y-10168960D02*
X13743595Y-10178484D01*
X13743595Y-10178484D02*
X13686452Y-10178484D01*
X13686452Y-10178484D02*
X13667405Y-10168960D01*
X13667405Y-10168960D02*
X13657881Y-10159436D01*
X13848357Y-9978484D02*
X13972167Y-9978484D01*
X13972167Y-9978484D02*
X13905500Y-10054674D01*
X13905500Y-10054674D02*
X13934072Y-10054674D01*
X13934072Y-10054674D02*
X13953119Y-10064198D01*
X13953119Y-10064198D02*
X13962643Y-10073722D01*
X13962643Y-10073722D02*
X13972167Y-10092770D01*
X13972167Y-10092770D02*
X13972167Y-10140389D01*
X13972167Y-10140389D02*
X13962643Y-10159436D01*
X13962643Y-10159436D02*
X13953119Y-10168960D01*
X13953119Y-10168960D02*
X13934072Y-10178484D01*
X13934072Y-10178484D02*
X13876929Y-10178484D01*
X13876929Y-10178484D02*
X13857881Y-10168960D01*
X13857881Y-10168960D02*
X13848357Y-10159436D01*
X14048357Y-9978484D02*
X14048357Y-10016579D01*
X14124548Y-9978484D02*
X14124548Y-10016579D01*
X14419786Y-10254674D02*
X14410262Y-10245150D01*
X14410262Y-10245150D02*
X14391214Y-10216579D01*
X14391214Y-10216579D02*
X14381691Y-10197531D01*
X14381691Y-10197531D02*
X14372167Y-10168960D01*
X14372167Y-10168960D02*
X14362643Y-10121341D01*
X14362643Y-10121341D02*
X14362643Y-10083246D01*
X14362643Y-10083246D02*
X14372167Y-10035627D01*
X14372167Y-10035627D02*
X14381691Y-10007055D01*
X14381691Y-10007055D02*
X14391214Y-9988008D01*
X14391214Y-9988008D02*
X14410262Y-9959436D01*
X14410262Y-9959436D02*
X14419786Y-9949912D01*
X14486453Y-9997531D02*
X14495976Y-9988008D01*
X14495976Y-9988008D02*
X14515024Y-9978484D01*
X14515024Y-9978484D02*
X14562643Y-9978484D01*
X14562643Y-9978484D02*
X14581691Y-9988008D01*
X14581691Y-9988008D02*
X14591214Y-9997531D01*
X14591214Y-9997531D02*
X14600738Y-10016579D01*
X14600738Y-10016579D02*
X14600738Y-10035627D01*
X14600738Y-10035627D02*
X14591214Y-10064198D01*
X14591214Y-10064198D02*
X14476929Y-10178484D01*
X14476929Y-10178484D02*
X14600738Y-10178484D01*
X14838834Y-10178484D02*
X14838834Y-9978484D01*
X14924548Y-10178484D02*
X14924548Y-10073722D01*
X14924548Y-10073722D02*
X14915024Y-10054674D01*
X14915024Y-10054674D02*
X14895976Y-10045150D01*
X14895976Y-10045150D02*
X14867405Y-10045150D01*
X14867405Y-10045150D02*
X14848357Y-10054674D01*
X14848357Y-10054674D02*
X14838834Y-10064198D01*
X15048357Y-10178484D02*
X15029310Y-10168960D01*
X15029310Y-10168960D02*
X15019786Y-10159436D01*
X15019786Y-10159436D02*
X15010262Y-10140389D01*
X15010262Y-10140389D02*
X15010262Y-10083246D01*
X15010262Y-10083246D02*
X15019786Y-10064198D01*
X15019786Y-10064198D02*
X15029310Y-10054674D01*
X15029310Y-10054674D02*
X15048357Y-10045150D01*
X15048357Y-10045150D02*
X15076929Y-10045150D01*
X15076929Y-10045150D02*
X15095976Y-10054674D01*
X15095976Y-10054674D02*
X15105500Y-10064198D01*
X15105500Y-10064198D02*
X15115024Y-10083246D01*
X15115024Y-10083246D02*
X15115024Y-10140389D01*
X15115024Y-10140389D02*
X15105500Y-10159436D01*
X15105500Y-10159436D02*
X15095976Y-10168960D01*
X15095976Y-10168960D02*
X15076929Y-10178484D01*
X15076929Y-10178484D02*
X15048357Y-10178484D01*
X15229310Y-10178484D02*
X15210262Y-10168960D01*
X15210262Y-10168960D02*
X15200738Y-10149912D01*
X15200738Y-10149912D02*
X15200738Y-9978484D01*
X15381691Y-10168960D02*
X15362643Y-10178484D01*
X15362643Y-10178484D02*
X15324548Y-10178484D01*
X15324548Y-10178484D02*
X15305500Y-10168960D01*
X15305500Y-10168960D02*
X15295976Y-10149912D01*
X15295976Y-10149912D02*
X15295976Y-10073722D01*
X15295976Y-10073722D02*
X15305500Y-10054674D01*
X15305500Y-10054674D02*
X15324548Y-10045150D01*
X15324548Y-10045150D02*
X15362643Y-10045150D01*
X15362643Y-10045150D02*
X15381691Y-10054674D01*
X15381691Y-10054674D02*
X15391215Y-10073722D01*
X15391215Y-10073722D02*
X15391215Y-10092770D01*
X15391215Y-10092770D02*
X15295976Y-10111817D01*
X15467405Y-10168960D02*
X15486453Y-10178484D01*
X15486453Y-10178484D02*
X15524548Y-10178484D01*
X15524548Y-10178484D02*
X15543596Y-10168960D01*
X15543596Y-10168960D02*
X15553119Y-10149912D01*
X15553119Y-10149912D02*
X15553119Y-10140389D01*
X15553119Y-10140389D02*
X15543596Y-10121341D01*
X15543596Y-10121341D02*
X15524548Y-10111817D01*
X15524548Y-10111817D02*
X15495976Y-10111817D01*
X15495976Y-10111817D02*
X15476929Y-10102293D01*
X15476929Y-10102293D02*
X15467405Y-10083246D01*
X15467405Y-10083246D02*
X15467405Y-10073722D01*
X15467405Y-10073722D02*
X15476929Y-10054674D01*
X15476929Y-10054674D02*
X15495976Y-10045150D01*
X15495976Y-10045150D02*
X15524548Y-10045150D01*
X15524548Y-10045150D02*
X15543596Y-10054674D01*
X15619786Y-10254674D02*
X15629310Y-10245150D01*
X15629310Y-10245150D02*
X15648357Y-10216579D01*
X15648357Y-10216579D02*
X15657881Y-10197531D01*
X15657881Y-10197531D02*
X15667405Y-10168960D01*
X15667405Y-10168960D02*
X15676929Y-10121341D01*
X15676929Y-10121341D02*
X15676929Y-10083246D01*
X15676929Y-10083246D02*
X15667405Y-10035627D01*
X15667405Y-10035627D02*
X15657881Y-10007055D01*
X15657881Y-10007055D02*
X15648357Y-9988008D01*
X15648357Y-9988008D02*
X15629310Y-9959436D01*
X15629310Y-9959436D02*
X15619786Y-9949912D01*
D14*
X10782223Y-10413500D02*
X10844723Y-10351000D01*
X10782223Y-10288500D01*
X10719723Y-10351000D01*
X10782223Y-10413500D01*
D11*
X11210262Y-10442484D02*
X11095976Y-10442484D01*
X11153119Y-10442484D02*
X11153119Y-10242484D01*
X11153119Y-10242484D02*
X11134071Y-10271055D01*
X11134071Y-10271055D02*
X11115024Y-10290103D01*
X11115024Y-10290103D02*
X11095976Y-10299627D01*
X11295976Y-10423436D02*
X11305500Y-10432960D01*
X11305500Y-10432960D02*
X11295976Y-10442484D01*
X11295976Y-10442484D02*
X11286452Y-10432960D01*
X11286452Y-10432960D02*
X11295976Y-10423436D01*
X11295976Y-10423436D02*
X11295976Y-10442484D01*
X11381690Y-10261531D02*
X11391214Y-10252008D01*
X11391214Y-10252008D02*
X11410262Y-10242484D01*
X11410262Y-10242484D02*
X11457881Y-10242484D01*
X11457881Y-10242484D02*
X11476928Y-10252008D01*
X11476928Y-10252008D02*
X11486452Y-10261531D01*
X11486452Y-10261531D02*
X11495976Y-10280579D01*
X11495976Y-10280579D02*
X11495976Y-10299627D01*
X11495976Y-10299627D02*
X11486452Y-10328198D01*
X11486452Y-10328198D02*
X11372167Y-10442484D01*
X11372167Y-10442484D02*
X11495976Y-10442484D01*
X11676928Y-10242484D02*
X11581690Y-10242484D01*
X11581690Y-10242484D02*
X11572167Y-10337722D01*
X11572167Y-10337722D02*
X11581690Y-10328198D01*
X11581690Y-10328198D02*
X11600738Y-10318674D01*
X11600738Y-10318674D02*
X11648357Y-10318674D01*
X11648357Y-10318674D02*
X11667405Y-10328198D01*
X11667405Y-10328198D02*
X11676928Y-10337722D01*
X11676928Y-10337722D02*
X11686452Y-10356770D01*
X11686452Y-10356770D02*
X11686452Y-10404389D01*
X11686452Y-10404389D02*
X11676928Y-10423436D01*
X11676928Y-10423436D02*
X11667405Y-10432960D01*
X11667405Y-10432960D02*
X11648357Y-10442484D01*
X11648357Y-10442484D02*
X11600738Y-10442484D01*
X11600738Y-10442484D02*
X11581690Y-10432960D01*
X11581690Y-10432960D02*
X11572167Y-10423436D01*
X11810262Y-10242484D02*
X11829309Y-10242484D01*
X11829309Y-10242484D02*
X11848357Y-10252008D01*
X11848357Y-10252008D02*
X11857881Y-10261531D01*
X11857881Y-10261531D02*
X11867405Y-10280579D01*
X11867405Y-10280579D02*
X11876928Y-10318674D01*
X11876928Y-10318674D02*
X11876928Y-10366293D01*
X11876928Y-10366293D02*
X11867405Y-10404389D01*
X11867405Y-10404389D02*
X11857881Y-10423436D01*
X11857881Y-10423436D02*
X11848357Y-10432960D01*
X11848357Y-10432960D02*
X11829309Y-10442484D01*
X11829309Y-10442484D02*
X11810262Y-10442484D01*
X11810262Y-10442484D02*
X11791214Y-10432960D01*
X11791214Y-10432960D02*
X11781690Y-10423436D01*
X11781690Y-10423436D02*
X11772167Y-10404389D01*
X11772167Y-10404389D02*
X11762643Y-10366293D01*
X11762643Y-10366293D02*
X11762643Y-10318674D01*
X11762643Y-10318674D02*
X11772167Y-10280579D01*
X11772167Y-10280579D02*
X11781690Y-10261531D01*
X11781690Y-10261531D02*
X11791214Y-10252008D01*
X11791214Y-10252008D02*
X11810262Y-10242484D01*
X11962643Y-10442484D02*
X11962643Y-10309150D01*
X11962643Y-10328198D02*
X11972167Y-10318674D01*
X11972167Y-10318674D02*
X11991214Y-10309150D01*
X11991214Y-10309150D02*
X12019786Y-10309150D01*
X12019786Y-10309150D02*
X12038833Y-10318674D01*
X12038833Y-10318674D02*
X12048357Y-10337722D01*
X12048357Y-10337722D02*
X12048357Y-10442484D01*
X12048357Y-10337722D02*
X12057881Y-10318674D01*
X12057881Y-10318674D02*
X12076928Y-10309150D01*
X12076928Y-10309150D02*
X12105500Y-10309150D01*
X12105500Y-10309150D02*
X12124548Y-10318674D01*
X12124548Y-10318674D02*
X12134071Y-10337722D01*
X12134071Y-10337722D02*
X12134071Y-10442484D01*
X12229309Y-10442484D02*
X12229309Y-10309150D01*
X12229309Y-10328198D02*
X12238833Y-10318674D01*
X12238833Y-10318674D02*
X12257881Y-10309150D01*
X12257881Y-10309150D02*
X12286452Y-10309150D01*
X12286452Y-10309150D02*
X12305500Y-10318674D01*
X12305500Y-10318674D02*
X12315024Y-10337722D01*
X12315024Y-10337722D02*
X12315024Y-10442484D01*
X12315024Y-10337722D02*
X12324548Y-10318674D01*
X12324548Y-10318674D02*
X12343595Y-10309150D01*
X12343595Y-10309150D02*
X12372167Y-10309150D01*
X12372167Y-10309150D02*
X12391214Y-10318674D01*
X12391214Y-10318674D02*
X12400738Y-10337722D01*
X12400738Y-10337722D02*
X12400738Y-10442484D01*
X12791214Y-10232960D02*
X12619786Y-10490103D01*
X13048357Y-10242484D02*
X13067405Y-10242484D01*
X13067405Y-10242484D02*
X13086452Y-10252008D01*
X13086452Y-10252008D02*
X13095976Y-10261531D01*
X13095976Y-10261531D02*
X13105500Y-10280579D01*
X13105500Y-10280579D02*
X13115024Y-10318674D01*
X13115024Y-10318674D02*
X13115024Y-10366293D01*
X13115024Y-10366293D02*
X13105500Y-10404389D01*
X13105500Y-10404389D02*
X13095976Y-10423436D01*
X13095976Y-10423436D02*
X13086452Y-10432960D01*
X13086452Y-10432960D02*
X13067405Y-10442484D01*
X13067405Y-10442484D02*
X13048357Y-10442484D01*
X13048357Y-10442484D02*
X13029310Y-10432960D01*
X13029310Y-10432960D02*
X13019786Y-10423436D01*
X13019786Y-10423436D02*
X13010262Y-10404389D01*
X13010262Y-10404389D02*
X13000738Y-10366293D01*
X13000738Y-10366293D02*
X13000738Y-10318674D01*
X13000738Y-10318674D02*
X13010262Y-10280579D01*
X13010262Y-10280579D02*
X13019786Y-10261531D01*
X13019786Y-10261531D02*
X13029310Y-10252008D01*
X13029310Y-10252008D02*
X13048357Y-10242484D01*
X13200738Y-10423436D02*
X13210262Y-10432960D01*
X13210262Y-10432960D02*
X13200738Y-10442484D01*
X13200738Y-10442484D02*
X13191214Y-10432960D01*
X13191214Y-10432960D02*
X13200738Y-10423436D01*
X13200738Y-10423436D02*
X13200738Y-10442484D01*
X13334071Y-10242484D02*
X13353119Y-10242484D01*
X13353119Y-10242484D02*
X13372167Y-10252008D01*
X13372167Y-10252008D02*
X13381691Y-10261531D01*
X13381691Y-10261531D02*
X13391214Y-10280579D01*
X13391214Y-10280579D02*
X13400738Y-10318674D01*
X13400738Y-10318674D02*
X13400738Y-10366293D01*
X13400738Y-10366293D02*
X13391214Y-10404389D01*
X13391214Y-10404389D02*
X13381691Y-10423436D01*
X13381691Y-10423436D02*
X13372167Y-10432960D01*
X13372167Y-10432960D02*
X13353119Y-10442484D01*
X13353119Y-10442484D02*
X13334071Y-10442484D01*
X13334071Y-10442484D02*
X13315024Y-10432960D01*
X13315024Y-10432960D02*
X13305500Y-10423436D01*
X13305500Y-10423436D02*
X13295976Y-10404389D01*
X13295976Y-10404389D02*
X13286452Y-10366293D01*
X13286452Y-10366293D02*
X13286452Y-10318674D01*
X13286452Y-10318674D02*
X13295976Y-10280579D01*
X13295976Y-10280579D02*
X13305500Y-10261531D01*
X13305500Y-10261531D02*
X13315024Y-10252008D01*
X13315024Y-10252008D02*
X13334071Y-10242484D01*
X13572167Y-10309150D02*
X13572167Y-10442484D01*
X13524548Y-10232960D02*
X13476929Y-10375817D01*
X13476929Y-10375817D02*
X13600738Y-10375817D01*
X13686452Y-10442484D02*
X13724548Y-10442484D01*
X13724548Y-10442484D02*
X13743595Y-10432960D01*
X13743595Y-10432960D02*
X13753119Y-10423436D01*
X13753119Y-10423436D02*
X13772167Y-10394865D01*
X13772167Y-10394865D02*
X13781691Y-10356770D01*
X13781691Y-10356770D02*
X13781691Y-10280579D01*
X13781691Y-10280579D02*
X13772167Y-10261531D01*
X13772167Y-10261531D02*
X13762643Y-10252008D01*
X13762643Y-10252008D02*
X13743595Y-10242484D01*
X13743595Y-10242484D02*
X13705500Y-10242484D01*
X13705500Y-10242484D02*
X13686452Y-10252008D01*
X13686452Y-10252008D02*
X13676929Y-10261531D01*
X13676929Y-10261531D02*
X13667405Y-10280579D01*
X13667405Y-10280579D02*
X13667405Y-10328198D01*
X13667405Y-10328198D02*
X13676929Y-10347246D01*
X13676929Y-10347246D02*
X13686452Y-10356770D01*
X13686452Y-10356770D02*
X13705500Y-10366293D01*
X13705500Y-10366293D02*
X13743595Y-10366293D01*
X13743595Y-10366293D02*
X13762643Y-10356770D01*
X13762643Y-10356770D02*
X13772167Y-10347246D01*
X13772167Y-10347246D02*
X13781691Y-10328198D01*
X13857881Y-10261531D02*
X13867405Y-10252008D01*
X13867405Y-10252008D02*
X13886452Y-10242484D01*
X13886452Y-10242484D02*
X13934072Y-10242484D01*
X13934072Y-10242484D02*
X13953119Y-10252008D01*
X13953119Y-10252008D02*
X13962643Y-10261531D01*
X13962643Y-10261531D02*
X13972167Y-10280579D01*
X13972167Y-10280579D02*
X13972167Y-10299627D01*
X13972167Y-10299627D02*
X13962643Y-10328198D01*
X13962643Y-10328198D02*
X13848357Y-10442484D01*
X13848357Y-10442484D02*
X13972167Y-10442484D01*
X14048357Y-10242484D02*
X14048357Y-10280579D01*
X14124548Y-10242484D02*
X14124548Y-10280579D01*
X14419786Y-10518674D02*
X14410262Y-10509150D01*
X14410262Y-10509150D02*
X14391214Y-10480579D01*
X14391214Y-10480579D02*
X14381691Y-10461531D01*
X14381691Y-10461531D02*
X14372167Y-10432960D01*
X14372167Y-10432960D02*
X14362643Y-10385341D01*
X14362643Y-10385341D02*
X14362643Y-10347246D01*
X14362643Y-10347246D02*
X14372167Y-10299627D01*
X14372167Y-10299627D02*
X14381691Y-10271055D01*
X14381691Y-10271055D02*
X14391214Y-10252008D01*
X14391214Y-10252008D02*
X14410262Y-10223436D01*
X14410262Y-10223436D02*
X14419786Y-10213912D01*
X14581691Y-10242484D02*
X14543595Y-10242484D01*
X14543595Y-10242484D02*
X14524548Y-10252008D01*
X14524548Y-10252008D02*
X14515024Y-10261531D01*
X14515024Y-10261531D02*
X14495976Y-10290103D01*
X14495976Y-10290103D02*
X14486453Y-10328198D01*
X14486453Y-10328198D02*
X14486453Y-10404389D01*
X14486453Y-10404389D02*
X14495976Y-10423436D01*
X14495976Y-10423436D02*
X14505500Y-10432960D01*
X14505500Y-10432960D02*
X14524548Y-10442484D01*
X14524548Y-10442484D02*
X14562643Y-10442484D01*
X14562643Y-10442484D02*
X14581691Y-10432960D01*
X14581691Y-10432960D02*
X14591214Y-10423436D01*
X14591214Y-10423436D02*
X14600738Y-10404389D01*
X14600738Y-10404389D02*
X14600738Y-10356770D01*
X14600738Y-10356770D02*
X14591214Y-10337722D01*
X14591214Y-10337722D02*
X14581691Y-10328198D01*
X14581691Y-10328198D02*
X14562643Y-10318674D01*
X14562643Y-10318674D02*
X14524548Y-10318674D01*
X14524548Y-10318674D02*
X14505500Y-10328198D01*
X14505500Y-10328198D02*
X14495976Y-10337722D01*
X14495976Y-10337722D02*
X14486453Y-10356770D01*
X14838834Y-10442484D02*
X14838834Y-10242484D01*
X14924548Y-10442484D02*
X14924548Y-10337722D01*
X14924548Y-10337722D02*
X14915024Y-10318674D01*
X14915024Y-10318674D02*
X14895976Y-10309150D01*
X14895976Y-10309150D02*
X14867405Y-10309150D01*
X14867405Y-10309150D02*
X14848357Y-10318674D01*
X14848357Y-10318674D02*
X14838834Y-10328198D01*
X15048357Y-10442484D02*
X15029310Y-10432960D01*
X15029310Y-10432960D02*
X15019786Y-10423436D01*
X15019786Y-10423436D02*
X15010262Y-10404389D01*
X15010262Y-10404389D02*
X15010262Y-10347246D01*
X15010262Y-10347246D02*
X15019786Y-10328198D01*
X15019786Y-10328198D02*
X15029310Y-10318674D01*
X15029310Y-10318674D02*
X15048357Y-10309150D01*
X15048357Y-10309150D02*
X15076929Y-10309150D01*
X15076929Y-10309150D02*
X15095976Y-10318674D01*
X15095976Y-10318674D02*
X15105500Y-10328198D01*
X15105500Y-10328198D02*
X15115024Y-10347246D01*
X15115024Y-10347246D02*
X15115024Y-10404389D01*
X15115024Y-10404389D02*
X15105500Y-10423436D01*
X15105500Y-10423436D02*
X15095976Y-10432960D01*
X15095976Y-10432960D02*
X15076929Y-10442484D01*
X15076929Y-10442484D02*
X15048357Y-10442484D01*
X15229310Y-10442484D02*
X15210262Y-10432960D01*
X15210262Y-10432960D02*
X15200738Y-10413912D01*
X15200738Y-10413912D02*
X15200738Y-10242484D01*
X15381691Y-10432960D02*
X15362643Y-10442484D01*
X15362643Y-10442484D02*
X15324548Y-10442484D01*
X15324548Y-10442484D02*
X15305500Y-10432960D01*
X15305500Y-10432960D02*
X15295976Y-10413912D01*
X15295976Y-10413912D02*
X15295976Y-10337722D01*
X15295976Y-10337722D02*
X15305500Y-10318674D01*
X15305500Y-10318674D02*
X15324548Y-10309150D01*
X15324548Y-10309150D02*
X15362643Y-10309150D01*
X15362643Y-10309150D02*
X15381691Y-10318674D01*
X15381691Y-10318674D02*
X15391215Y-10337722D01*
X15391215Y-10337722D02*
X15391215Y-10356770D01*
X15391215Y-10356770D02*
X15295976Y-10375817D01*
X15467405Y-10432960D02*
X15486453Y-10442484D01*
X15486453Y-10442484D02*
X15524548Y-10442484D01*
X15524548Y-10442484D02*
X15543596Y-10432960D01*
X15543596Y-10432960D02*
X15553119Y-10413912D01*
X15553119Y-10413912D02*
X15553119Y-10404389D01*
X15553119Y-10404389D02*
X15543596Y-10385341D01*
X15543596Y-10385341D02*
X15524548Y-10375817D01*
X15524548Y-10375817D02*
X15495976Y-10375817D01*
X15495976Y-10375817D02*
X15476929Y-10366293D01*
X15476929Y-10366293D02*
X15467405Y-10347246D01*
X15467405Y-10347246D02*
X15467405Y-10337722D01*
X15467405Y-10337722D02*
X15476929Y-10318674D01*
X15476929Y-10318674D02*
X15495976Y-10309150D01*
X15495976Y-10309150D02*
X15524548Y-10309150D01*
X15524548Y-10309150D02*
X15543596Y-10318674D01*
X15619786Y-10518674D02*
X15629310Y-10509150D01*
X15629310Y-10509150D02*
X15648357Y-10480579D01*
X15648357Y-10480579D02*
X15657881Y-10461531D01*
X15657881Y-10461531D02*
X15667405Y-10432960D01*
X15667405Y-10432960D02*
X15676929Y-10385341D01*
X15676929Y-10385341D02*
X15676929Y-10347246D01*
X15676929Y-10347246D02*
X15667405Y-10299627D01*
X15667405Y-10299627D02*
X15657881Y-10271055D01*
X15657881Y-10271055D02*
X15648357Y-10252008D01*
X15648357Y-10252008D02*
X15629310Y-10223436D01*
X15629310Y-10223436D02*
X15619786Y-10213912D01*
X10644723Y-10515000D02*
X10844723Y-10715000D01*
X10844723Y-10515000D02*
X10644723Y-10715000D01*
X10844723Y-10615000D02*
G75*
G02*
X10644723Y-10615000I-100000J0D01*
G01*
X10644723Y-10615000D02*
G75*
G02*
X10844723Y-10615000I100000J0D01*
G01*
X11086452Y-10506484D02*
X11210262Y-10506484D01*
X11210262Y-10506484D02*
X11143595Y-10582674D01*
X11143595Y-10582674D02*
X11172167Y-10582674D01*
X11172167Y-10582674D02*
X11191214Y-10592198D01*
X11191214Y-10592198D02*
X11200738Y-10601722D01*
X11200738Y-10601722D02*
X11210262Y-10620770D01*
X11210262Y-10620770D02*
X11210262Y-10668389D01*
X11210262Y-10668389D02*
X11200738Y-10687436D01*
X11200738Y-10687436D02*
X11191214Y-10696960D01*
X11191214Y-10696960D02*
X11172167Y-10706484D01*
X11172167Y-10706484D02*
X11115024Y-10706484D01*
X11115024Y-10706484D02*
X11095976Y-10696960D01*
X11095976Y-10696960D02*
X11086452Y-10687436D01*
X11295976Y-10687436D02*
X11305500Y-10696960D01*
X11305500Y-10696960D02*
X11295976Y-10706484D01*
X11295976Y-10706484D02*
X11286452Y-10696960D01*
X11286452Y-10696960D02*
X11295976Y-10687436D01*
X11295976Y-10687436D02*
X11295976Y-10706484D01*
X11381690Y-10525531D02*
X11391214Y-10516008D01*
X11391214Y-10516008D02*
X11410262Y-10506484D01*
X11410262Y-10506484D02*
X11457881Y-10506484D01*
X11457881Y-10506484D02*
X11476928Y-10516008D01*
X11476928Y-10516008D02*
X11486452Y-10525531D01*
X11486452Y-10525531D02*
X11495976Y-10544579D01*
X11495976Y-10544579D02*
X11495976Y-10563627D01*
X11495976Y-10563627D02*
X11486452Y-10592198D01*
X11486452Y-10592198D02*
X11372167Y-10706484D01*
X11372167Y-10706484D02*
X11495976Y-10706484D01*
X11619786Y-10506484D02*
X11638833Y-10506484D01*
X11638833Y-10506484D02*
X11657881Y-10516008D01*
X11657881Y-10516008D02*
X11667405Y-10525531D01*
X11667405Y-10525531D02*
X11676928Y-10544579D01*
X11676928Y-10544579D02*
X11686452Y-10582674D01*
X11686452Y-10582674D02*
X11686452Y-10630293D01*
X11686452Y-10630293D02*
X11676928Y-10668389D01*
X11676928Y-10668389D02*
X11667405Y-10687436D01*
X11667405Y-10687436D02*
X11657881Y-10696960D01*
X11657881Y-10696960D02*
X11638833Y-10706484D01*
X11638833Y-10706484D02*
X11619786Y-10706484D01*
X11619786Y-10706484D02*
X11600738Y-10696960D01*
X11600738Y-10696960D02*
X11591214Y-10687436D01*
X11591214Y-10687436D02*
X11581690Y-10668389D01*
X11581690Y-10668389D02*
X11572167Y-10630293D01*
X11572167Y-10630293D02*
X11572167Y-10582674D01*
X11572167Y-10582674D02*
X11581690Y-10544579D01*
X11581690Y-10544579D02*
X11591214Y-10525531D01*
X11591214Y-10525531D02*
X11600738Y-10516008D01*
X11600738Y-10516008D02*
X11619786Y-10506484D01*
X11810262Y-10506484D02*
X11829309Y-10506484D01*
X11829309Y-10506484D02*
X11848357Y-10516008D01*
X11848357Y-10516008D02*
X11857881Y-10525531D01*
X11857881Y-10525531D02*
X11867405Y-10544579D01*
X11867405Y-10544579D02*
X11876928Y-10582674D01*
X11876928Y-10582674D02*
X11876928Y-10630293D01*
X11876928Y-10630293D02*
X11867405Y-10668389D01*
X11867405Y-10668389D02*
X11857881Y-10687436D01*
X11857881Y-10687436D02*
X11848357Y-10696960D01*
X11848357Y-10696960D02*
X11829309Y-10706484D01*
X11829309Y-10706484D02*
X11810262Y-10706484D01*
X11810262Y-10706484D02*
X11791214Y-10696960D01*
X11791214Y-10696960D02*
X11781690Y-10687436D01*
X11781690Y-10687436D02*
X11772167Y-10668389D01*
X11772167Y-10668389D02*
X11762643Y-10630293D01*
X11762643Y-10630293D02*
X11762643Y-10582674D01*
X11762643Y-10582674D02*
X11772167Y-10544579D01*
X11772167Y-10544579D02*
X11781690Y-10525531D01*
X11781690Y-10525531D02*
X11791214Y-10516008D01*
X11791214Y-10516008D02*
X11810262Y-10506484D01*
X11962643Y-10706484D02*
X11962643Y-10573150D01*
X11962643Y-10592198D02*
X11972167Y-10582674D01*
X11972167Y-10582674D02*
X11991214Y-10573150D01*
X11991214Y-10573150D02*
X12019786Y-10573150D01*
X12019786Y-10573150D02*
X12038833Y-10582674D01*
X12038833Y-10582674D02*
X12048357Y-10601722D01*
X12048357Y-10601722D02*
X12048357Y-10706484D01*
X12048357Y-10601722D02*
X12057881Y-10582674D01*
X12057881Y-10582674D02*
X12076928Y-10573150D01*
X12076928Y-10573150D02*
X12105500Y-10573150D01*
X12105500Y-10573150D02*
X12124548Y-10582674D01*
X12124548Y-10582674D02*
X12134071Y-10601722D01*
X12134071Y-10601722D02*
X12134071Y-10706484D01*
X12229309Y-10706484D02*
X12229309Y-10573150D01*
X12229309Y-10592198D02*
X12238833Y-10582674D01*
X12238833Y-10582674D02*
X12257881Y-10573150D01*
X12257881Y-10573150D02*
X12286452Y-10573150D01*
X12286452Y-10573150D02*
X12305500Y-10582674D01*
X12305500Y-10582674D02*
X12315024Y-10601722D01*
X12315024Y-10601722D02*
X12315024Y-10706484D01*
X12315024Y-10601722D02*
X12324548Y-10582674D01*
X12324548Y-10582674D02*
X12343595Y-10573150D01*
X12343595Y-10573150D02*
X12372167Y-10573150D01*
X12372167Y-10573150D02*
X12391214Y-10582674D01*
X12391214Y-10582674D02*
X12400738Y-10601722D01*
X12400738Y-10601722D02*
X12400738Y-10706484D01*
X12791214Y-10496960D02*
X12619786Y-10754103D01*
X13048357Y-10506484D02*
X13067405Y-10506484D01*
X13067405Y-10506484D02*
X13086452Y-10516008D01*
X13086452Y-10516008D02*
X13095976Y-10525531D01*
X13095976Y-10525531D02*
X13105500Y-10544579D01*
X13105500Y-10544579D02*
X13115024Y-10582674D01*
X13115024Y-10582674D02*
X13115024Y-10630293D01*
X13115024Y-10630293D02*
X13105500Y-10668389D01*
X13105500Y-10668389D02*
X13095976Y-10687436D01*
X13095976Y-10687436D02*
X13086452Y-10696960D01*
X13086452Y-10696960D02*
X13067405Y-10706484D01*
X13067405Y-10706484D02*
X13048357Y-10706484D01*
X13048357Y-10706484D02*
X13029310Y-10696960D01*
X13029310Y-10696960D02*
X13019786Y-10687436D01*
X13019786Y-10687436D02*
X13010262Y-10668389D01*
X13010262Y-10668389D02*
X13000738Y-10630293D01*
X13000738Y-10630293D02*
X13000738Y-10582674D01*
X13000738Y-10582674D02*
X13010262Y-10544579D01*
X13010262Y-10544579D02*
X13019786Y-10525531D01*
X13019786Y-10525531D02*
X13029310Y-10516008D01*
X13029310Y-10516008D02*
X13048357Y-10506484D01*
X13200738Y-10687436D02*
X13210262Y-10696960D01*
X13210262Y-10696960D02*
X13200738Y-10706484D01*
X13200738Y-10706484D02*
X13191214Y-10696960D01*
X13191214Y-10696960D02*
X13200738Y-10687436D01*
X13200738Y-10687436D02*
X13200738Y-10706484D01*
X13400738Y-10706484D02*
X13286452Y-10706484D01*
X13343595Y-10706484D02*
X13343595Y-10506484D01*
X13343595Y-10506484D02*
X13324548Y-10535055D01*
X13324548Y-10535055D02*
X13305500Y-10554103D01*
X13305500Y-10554103D02*
X13286452Y-10563627D01*
X13476929Y-10525531D02*
X13486452Y-10516008D01*
X13486452Y-10516008D02*
X13505500Y-10506484D01*
X13505500Y-10506484D02*
X13553119Y-10506484D01*
X13553119Y-10506484D02*
X13572167Y-10516008D01*
X13572167Y-10516008D02*
X13581691Y-10525531D01*
X13581691Y-10525531D02*
X13591214Y-10544579D01*
X13591214Y-10544579D02*
X13591214Y-10563627D01*
X13591214Y-10563627D02*
X13581691Y-10592198D01*
X13581691Y-10592198D02*
X13467405Y-10706484D01*
X13467405Y-10706484D02*
X13591214Y-10706484D01*
X13762643Y-10506484D02*
X13724548Y-10506484D01*
X13724548Y-10506484D02*
X13705500Y-10516008D01*
X13705500Y-10516008D02*
X13695976Y-10525531D01*
X13695976Y-10525531D02*
X13676929Y-10554103D01*
X13676929Y-10554103D02*
X13667405Y-10592198D01*
X13667405Y-10592198D02*
X13667405Y-10668389D01*
X13667405Y-10668389D02*
X13676929Y-10687436D01*
X13676929Y-10687436D02*
X13686452Y-10696960D01*
X13686452Y-10696960D02*
X13705500Y-10706484D01*
X13705500Y-10706484D02*
X13743595Y-10706484D01*
X13743595Y-10706484D02*
X13762643Y-10696960D01*
X13762643Y-10696960D02*
X13772167Y-10687436D01*
X13772167Y-10687436D02*
X13781691Y-10668389D01*
X13781691Y-10668389D02*
X13781691Y-10620770D01*
X13781691Y-10620770D02*
X13772167Y-10601722D01*
X13772167Y-10601722D02*
X13762643Y-10592198D01*
X13762643Y-10592198D02*
X13743595Y-10582674D01*
X13743595Y-10582674D02*
X13705500Y-10582674D01*
X13705500Y-10582674D02*
X13686452Y-10592198D01*
X13686452Y-10592198D02*
X13676929Y-10601722D01*
X13676929Y-10601722D02*
X13667405Y-10620770D01*
X13905500Y-10506484D02*
X13924548Y-10506484D01*
X13924548Y-10506484D02*
X13943595Y-10516008D01*
X13943595Y-10516008D02*
X13953119Y-10525531D01*
X13953119Y-10525531D02*
X13962643Y-10544579D01*
X13962643Y-10544579D02*
X13972167Y-10582674D01*
X13972167Y-10582674D02*
X13972167Y-10630293D01*
X13972167Y-10630293D02*
X13962643Y-10668389D01*
X13962643Y-10668389D02*
X13953119Y-10687436D01*
X13953119Y-10687436D02*
X13943595Y-10696960D01*
X13943595Y-10696960D02*
X13924548Y-10706484D01*
X13924548Y-10706484D02*
X13905500Y-10706484D01*
X13905500Y-10706484D02*
X13886452Y-10696960D01*
X13886452Y-10696960D02*
X13876929Y-10687436D01*
X13876929Y-10687436D02*
X13867405Y-10668389D01*
X13867405Y-10668389D02*
X13857881Y-10630293D01*
X13857881Y-10630293D02*
X13857881Y-10582674D01*
X13857881Y-10582674D02*
X13867405Y-10544579D01*
X13867405Y-10544579D02*
X13876929Y-10525531D01*
X13876929Y-10525531D02*
X13886452Y-10516008D01*
X13886452Y-10516008D02*
X13905500Y-10506484D01*
X14048357Y-10506484D02*
X14048357Y-10544579D01*
X14124548Y-10506484D02*
X14124548Y-10544579D01*
X14419786Y-10782674D02*
X14410262Y-10773150D01*
X14410262Y-10773150D02*
X14391214Y-10744579D01*
X14391214Y-10744579D02*
X14381691Y-10725531D01*
X14381691Y-10725531D02*
X14372167Y-10696960D01*
X14372167Y-10696960D02*
X14362643Y-10649341D01*
X14362643Y-10649341D02*
X14362643Y-10611246D01*
X14362643Y-10611246D02*
X14372167Y-10563627D01*
X14372167Y-10563627D02*
X14381691Y-10535055D01*
X14381691Y-10535055D02*
X14391214Y-10516008D01*
X14391214Y-10516008D02*
X14410262Y-10487436D01*
X14410262Y-10487436D02*
X14419786Y-10477912D01*
X14476929Y-10506484D02*
X14600738Y-10506484D01*
X14600738Y-10506484D02*
X14534072Y-10582674D01*
X14534072Y-10582674D02*
X14562643Y-10582674D01*
X14562643Y-10582674D02*
X14581691Y-10592198D01*
X14581691Y-10592198D02*
X14591214Y-10601722D01*
X14591214Y-10601722D02*
X14600738Y-10620770D01*
X14600738Y-10620770D02*
X14600738Y-10668389D01*
X14600738Y-10668389D02*
X14591214Y-10687436D01*
X14591214Y-10687436D02*
X14581691Y-10696960D01*
X14581691Y-10696960D02*
X14562643Y-10706484D01*
X14562643Y-10706484D02*
X14505500Y-10706484D01*
X14505500Y-10706484D02*
X14486453Y-10696960D01*
X14486453Y-10696960D02*
X14476929Y-10687436D01*
X14838834Y-10706484D02*
X14838834Y-10506484D01*
X14924548Y-10706484D02*
X14924548Y-10601722D01*
X14924548Y-10601722D02*
X14915024Y-10582674D01*
X14915024Y-10582674D02*
X14895976Y-10573150D01*
X14895976Y-10573150D02*
X14867405Y-10573150D01*
X14867405Y-10573150D02*
X14848357Y-10582674D01*
X14848357Y-10582674D02*
X14838834Y-10592198D01*
X15048357Y-10706484D02*
X15029310Y-10696960D01*
X15029310Y-10696960D02*
X15019786Y-10687436D01*
X15019786Y-10687436D02*
X15010262Y-10668389D01*
X15010262Y-10668389D02*
X15010262Y-10611246D01*
X15010262Y-10611246D02*
X15019786Y-10592198D01*
X15019786Y-10592198D02*
X15029310Y-10582674D01*
X15029310Y-10582674D02*
X15048357Y-10573150D01*
X15048357Y-10573150D02*
X15076929Y-10573150D01*
X15076929Y-10573150D02*
X15095976Y-10582674D01*
X15095976Y-10582674D02*
X15105500Y-10592198D01*
X15105500Y-10592198D02*
X15115024Y-10611246D01*
X15115024Y-10611246D02*
X15115024Y-10668389D01*
X15115024Y-10668389D02*
X15105500Y-10687436D01*
X15105500Y-10687436D02*
X15095976Y-10696960D01*
X15095976Y-10696960D02*
X15076929Y-10706484D01*
X15076929Y-10706484D02*
X15048357Y-10706484D01*
X15229310Y-10706484D02*
X15210262Y-10696960D01*
X15210262Y-10696960D02*
X15200738Y-10677912D01*
X15200738Y-10677912D02*
X15200738Y-10506484D01*
X15381691Y-10696960D02*
X15362643Y-10706484D01*
X15362643Y-10706484D02*
X15324548Y-10706484D01*
X15324548Y-10706484D02*
X15305500Y-10696960D01*
X15305500Y-10696960D02*
X15295976Y-10677912D01*
X15295976Y-10677912D02*
X15295976Y-10601722D01*
X15295976Y-10601722D02*
X15305500Y-10582674D01*
X15305500Y-10582674D02*
X15324548Y-10573150D01*
X15324548Y-10573150D02*
X15362643Y-10573150D01*
X15362643Y-10573150D02*
X15381691Y-10582674D01*
X15381691Y-10582674D02*
X15391215Y-10601722D01*
X15391215Y-10601722D02*
X15391215Y-10620770D01*
X15391215Y-10620770D02*
X15295976Y-10639817D01*
X15467405Y-10696960D02*
X15486453Y-10706484D01*
X15486453Y-10706484D02*
X15524548Y-10706484D01*
X15524548Y-10706484D02*
X15543596Y-10696960D01*
X15543596Y-10696960D02*
X15553119Y-10677912D01*
X15553119Y-10677912D02*
X15553119Y-10668389D01*
X15553119Y-10668389D02*
X15543596Y-10649341D01*
X15543596Y-10649341D02*
X15524548Y-10639817D01*
X15524548Y-10639817D02*
X15495976Y-10639817D01*
X15495976Y-10639817D02*
X15476929Y-10630293D01*
X15476929Y-10630293D02*
X15467405Y-10611246D01*
X15467405Y-10611246D02*
X15467405Y-10601722D01*
X15467405Y-10601722D02*
X15476929Y-10582674D01*
X15476929Y-10582674D02*
X15495976Y-10573150D01*
X15495976Y-10573150D02*
X15524548Y-10573150D01*
X15524548Y-10573150D02*
X15543596Y-10582674D01*
X15619786Y-10782674D02*
X15629310Y-10773150D01*
X15629310Y-10773150D02*
X15648357Y-10744579D01*
X15648357Y-10744579D02*
X15657881Y-10725531D01*
X15657881Y-10725531D02*
X15667405Y-10696960D01*
X15667405Y-10696960D02*
X15676929Y-10649341D01*
X15676929Y-10649341D02*
X15676929Y-10611246D01*
X15676929Y-10611246D02*
X15667405Y-10563627D01*
X15667405Y-10563627D02*
X15657881Y-10535055D01*
X15657881Y-10535055D02*
X15648357Y-10516008D01*
X15648357Y-10516008D02*
X15629310Y-10487436D01*
X15629310Y-10487436D02*
X15619786Y-10477912D01*
M02*
