G04 #@! TF.GenerationSoftware,KiCad,Pcbnew,8.0.6*
G04 #@! TF.CreationDate,2025-02-22T02:59:36-05:00*
G04 #@! TF.ProjectId,modular sensor,6d6f6475-6c61-4722-9073-656e736f722e,1.0*
G04 #@! TF.SameCoordinates,Original*
G04 #@! TF.FileFunction,Soldermask,Bot*
G04 #@! TF.FilePolarity,Negative*
%FSLAX46Y46*%
G04 Gerber Fmt 4.6, Leading zero omitted, Abs format (unit mm)*
G04 Created by KiCad (PCBNEW 8.0.6) date 2025-02-22 02:59:36*
%MOMM*%
%LPD*%
G01*
G04 APERTURE LIST*
G04 APERTURE END LIST*
G36*
X139923850Y-79004656D02*
G01*
X140266257Y-79080025D01*
X140598507Y-79191973D01*
X140916707Y-79339188D01*
X141217124Y-79519943D01*
X141496237Y-79732119D01*
X141750773Y-79973229D01*
X141977749Y-80240446D01*
X142174504Y-80530637D01*
X142338729Y-80840399D01*
X142468501Y-81166102D01*
X142562297Y-81503926D01*
X142619019Y-81849911D01*
X142638000Y-82200000D01*
X142619019Y-82550089D01*
X142562297Y-82896074D01*
X142468501Y-83233898D01*
X142338729Y-83559601D01*
X142174504Y-83869363D01*
X141977749Y-84159554D01*
X141750773Y-84426771D01*
X141496237Y-84667881D01*
X141217124Y-84880057D01*
X140916707Y-85060812D01*
X140598507Y-85208027D01*
X140266257Y-85319975D01*
X139923850Y-85395344D01*
X139575302Y-85433251D01*
X139224698Y-85433251D01*
X138876150Y-85395344D01*
X138533743Y-85319975D01*
X138201493Y-85208027D01*
X137883293Y-85060812D01*
X137582876Y-84880057D01*
X137303763Y-84667881D01*
X137049227Y-84426771D01*
X136822251Y-84159554D01*
X136625496Y-83869363D01*
X136461271Y-83559601D01*
X136331499Y-83233898D01*
X136237703Y-82896074D01*
X136180981Y-82550089D01*
X136162000Y-82200000D01*
X136180981Y-81849911D01*
X136237703Y-81503926D01*
X136331499Y-81166102D01*
X136461271Y-80840399D01*
X136625496Y-80530637D01*
X136822251Y-80240446D01*
X137049227Y-79973229D01*
X137303763Y-79732119D01*
X137582876Y-79519943D01*
X137883293Y-79339188D01*
X138201493Y-79191973D01*
X138533743Y-79080025D01*
X138876150Y-79004656D01*
X139224698Y-78966749D01*
X139575302Y-78966749D01*
X139923850Y-79004656D01*
G37*
G36*
X144294521Y-73701961D02*
G01*
X144347308Y-73701961D01*
X144393748Y-73710642D01*
X144441922Y-73714857D01*
X144501053Y-73730701D01*
X144558270Y-73741397D01*
X144597076Y-73756430D01*
X144637701Y-73767316D01*
X144699201Y-73795994D01*
X144758394Y-73818925D01*
X144788944Y-73837841D01*
X144821406Y-73852978D01*
X144882643Y-73895857D01*
X144940864Y-73931906D01*
X144963180Y-73952250D01*
X144987437Y-73969235D01*
X145045460Y-74027258D01*
X145099467Y-74076492D01*
X145114189Y-74095987D01*
X145130764Y-74112562D01*
X145182457Y-74186388D01*
X145228803Y-74247759D01*
X145237107Y-74264436D01*
X145247024Y-74278599D01*
X145289258Y-74369172D01*
X145324465Y-74439876D01*
X145327965Y-74452177D01*
X145332682Y-74462293D01*
X145362399Y-74573200D01*
X145383198Y-74646299D01*
X145383838Y-74653212D01*
X145385142Y-74658077D01*
X145399561Y-74822886D01*
X145403000Y-74860000D01*
X145399560Y-74897116D01*
X145385142Y-75061922D01*
X145383838Y-75066785D01*
X145383198Y-75073701D01*
X145362392Y-75146824D01*
X145332683Y-75257701D01*
X145327967Y-75267812D01*
X145324465Y-75280124D01*
X145289239Y-75350866D01*
X145247021Y-75441406D01*
X145237106Y-75455565D01*
X145228803Y-75472241D01*
X145182455Y-75533614D01*
X145130764Y-75607437D01*
X145114192Y-75624008D01*
X145099467Y-75643508D01*
X145045448Y-75692752D01*
X144987437Y-75750764D01*
X144963185Y-75767745D01*
X144940864Y-75788094D01*
X144882631Y-75824150D01*
X144821406Y-75867021D01*
X144788951Y-75882154D01*
X144758394Y-75901075D01*
X144699189Y-75924010D01*
X144637701Y-75952683D01*
X144597085Y-75963566D01*
X144558270Y-75978603D01*
X144501041Y-75989301D01*
X144441922Y-76005142D01*
X144393758Y-76009355D01*
X144347308Y-76018039D01*
X144294510Y-76018039D01*
X144240000Y-76022808D01*
X144185490Y-76018039D01*
X144132692Y-76018039D01*
X144086241Y-76009355D01*
X144038077Y-76005142D01*
X143978955Y-75989300D01*
X143921730Y-75978603D01*
X143882917Y-75963566D01*
X143842298Y-75952683D01*
X143780804Y-75924008D01*
X143721606Y-75901075D01*
X143691051Y-75882156D01*
X143658593Y-75867021D01*
X143597360Y-75824144D01*
X143539136Y-75788094D01*
X143516817Y-75767748D01*
X143492562Y-75750764D01*
X143434539Y-75692741D01*
X143380533Y-75643508D01*
X143365810Y-75624012D01*
X143349235Y-75607437D01*
X143297531Y-75533596D01*
X143251197Y-75472241D01*
X143242896Y-75455570D01*
X143232978Y-75441406D01*
X143190744Y-75350835D01*
X143155535Y-75280124D01*
X143152033Y-75267818D01*
X143147316Y-75257701D01*
X143117590Y-75146763D01*
X143096802Y-75073701D01*
X143096161Y-75066791D01*
X143094857Y-75061922D01*
X143080421Y-74896922D01*
X143077000Y-74860000D01*
X143080421Y-74823080D01*
X143094857Y-74658077D01*
X143096161Y-74653207D01*
X143096802Y-74646299D01*
X143117583Y-74573261D01*
X143147317Y-74462293D01*
X143152036Y-74452172D01*
X143155535Y-74439876D01*
X143190725Y-74369203D01*
X143232975Y-74278599D01*
X143242895Y-74264431D01*
X143251197Y-74247759D01*
X143297528Y-74186406D01*
X143349235Y-74112562D01*
X143365813Y-74095983D01*
X143380533Y-74076492D01*
X143434528Y-74027268D01*
X143492562Y-73969235D01*
X143516821Y-73952248D01*
X143539136Y-73931906D01*
X143597357Y-73895856D01*
X143658599Y-73852975D01*
X143691061Y-73837837D01*
X143721606Y-73818925D01*
X143780780Y-73796000D01*
X143842293Y-73767317D01*
X143882927Y-73756428D01*
X143921730Y-73741397D01*
X143978942Y-73730702D01*
X144038077Y-73714857D01*
X144086251Y-73710642D01*
X144132692Y-73701961D01*
X144185479Y-73701961D01*
X144240000Y-73697191D01*
X144294521Y-73701961D01*
G37*
G36*
X151014521Y-73701961D02*
G01*
X151067308Y-73701961D01*
X151113748Y-73710642D01*
X151161922Y-73714857D01*
X151221053Y-73730701D01*
X151278270Y-73741397D01*
X151317076Y-73756430D01*
X151357701Y-73767316D01*
X151419201Y-73795994D01*
X151478394Y-73818925D01*
X151508944Y-73837841D01*
X151541406Y-73852978D01*
X151602643Y-73895857D01*
X151660864Y-73931906D01*
X151683180Y-73952250D01*
X151707437Y-73969235D01*
X151765460Y-74027258D01*
X151819467Y-74076492D01*
X151834189Y-74095987D01*
X151850764Y-74112562D01*
X151902457Y-74186388D01*
X151948803Y-74247759D01*
X151957107Y-74264436D01*
X151967024Y-74278599D01*
X152009258Y-74369172D01*
X152044465Y-74439876D01*
X152047965Y-74452177D01*
X152052682Y-74462293D01*
X152082399Y-74573200D01*
X152103198Y-74646299D01*
X152103838Y-74653212D01*
X152105142Y-74658077D01*
X152119561Y-74822886D01*
X152123000Y-74860000D01*
X152119560Y-74897116D01*
X152105142Y-75061922D01*
X152103838Y-75066785D01*
X152103198Y-75073701D01*
X152082392Y-75146824D01*
X152052683Y-75257701D01*
X152047967Y-75267812D01*
X152044465Y-75280124D01*
X152009239Y-75350866D01*
X151967021Y-75441406D01*
X151957106Y-75455565D01*
X151948803Y-75472241D01*
X151902455Y-75533614D01*
X151850764Y-75607437D01*
X151834192Y-75624008D01*
X151819467Y-75643508D01*
X151765448Y-75692752D01*
X151707437Y-75750764D01*
X151683185Y-75767745D01*
X151660864Y-75788094D01*
X151602631Y-75824150D01*
X151541406Y-75867021D01*
X151508951Y-75882154D01*
X151478394Y-75901075D01*
X151419189Y-75924010D01*
X151357701Y-75952683D01*
X151317085Y-75963566D01*
X151278270Y-75978603D01*
X151221041Y-75989301D01*
X151161922Y-76005142D01*
X151113758Y-76009355D01*
X151067308Y-76018039D01*
X151014510Y-76018039D01*
X150960000Y-76022808D01*
X150905490Y-76018039D01*
X150852692Y-76018039D01*
X150806241Y-76009355D01*
X150758077Y-76005142D01*
X150698955Y-75989300D01*
X150641730Y-75978603D01*
X150602917Y-75963566D01*
X150562298Y-75952683D01*
X150500804Y-75924008D01*
X150441606Y-75901075D01*
X150411051Y-75882156D01*
X150378593Y-75867021D01*
X150317360Y-75824144D01*
X150259136Y-75788094D01*
X150236817Y-75767748D01*
X150212562Y-75750764D01*
X150154539Y-75692741D01*
X150100533Y-75643508D01*
X150085810Y-75624012D01*
X150069235Y-75607437D01*
X150017531Y-75533596D01*
X149971197Y-75472241D01*
X149962896Y-75455570D01*
X149952978Y-75441406D01*
X149910744Y-75350835D01*
X149875535Y-75280124D01*
X149872033Y-75267818D01*
X149867316Y-75257701D01*
X149837590Y-75146763D01*
X149816802Y-75073701D01*
X149816161Y-75066791D01*
X149814857Y-75061922D01*
X149800421Y-74896922D01*
X149797000Y-74860000D01*
X149800421Y-74823080D01*
X149814857Y-74658077D01*
X149816161Y-74653207D01*
X149816802Y-74646299D01*
X149837583Y-74573261D01*
X149867317Y-74462293D01*
X149872036Y-74452172D01*
X149875535Y-74439876D01*
X149910725Y-74369203D01*
X149952975Y-74278599D01*
X149962895Y-74264431D01*
X149971197Y-74247759D01*
X150017528Y-74186406D01*
X150069235Y-74112562D01*
X150085813Y-74095983D01*
X150100533Y-74076492D01*
X150154528Y-74027268D01*
X150212562Y-73969235D01*
X150236821Y-73952248D01*
X150259136Y-73931906D01*
X150317357Y-73895856D01*
X150378599Y-73852975D01*
X150411061Y-73837837D01*
X150441606Y-73818925D01*
X150500780Y-73796000D01*
X150562293Y-73767317D01*
X150602927Y-73756428D01*
X150641730Y-73741397D01*
X150698942Y-73730702D01*
X150758077Y-73714857D01*
X150806251Y-73710642D01*
X150852692Y-73701961D01*
X150905479Y-73701961D01*
X150960000Y-73697191D01*
X151014521Y-73701961D01*
G37*
G36*
X120043271Y-74256729D02*
G01*
X120046200Y-74263800D01*
X120046200Y-75936200D01*
X120043271Y-75943271D01*
X120036200Y-75946200D01*
X120026256Y-75946200D01*
X118373744Y-75946200D01*
X118363800Y-75946200D01*
X118356729Y-75943271D01*
X118353800Y-75936200D01*
X118353800Y-74263800D01*
X118356729Y-74256729D01*
X118363800Y-74253800D01*
X120036200Y-74253800D01*
X120043271Y-74256729D01*
G37*
G36*
X122458400Y-74304727D02*
G01*
X122618100Y-74375830D01*
X122759527Y-74478582D01*
X122876500Y-74608494D01*
X122963907Y-74759887D01*
X123017927Y-74926144D01*
X123036200Y-75100000D01*
X123017927Y-75273856D01*
X122963907Y-75440113D01*
X122876500Y-75591506D01*
X122759527Y-75721418D01*
X122618100Y-75824170D01*
X122458400Y-75895273D01*
X122287407Y-75931619D01*
X122112593Y-75931619D01*
X121941600Y-75895273D01*
X121781900Y-75824170D01*
X121640473Y-75721418D01*
X121523500Y-75591506D01*
X121436093Y-75440113D01*
X121382073Y-75273856D01*
X121363800Y-75100000D01*
X121382073Y-74926144D01*
X121436093Y-74759887D01*
X121523500Y-74608494D01*
X121640473Y-74478582D01*
X121781900Y-74375830D01*
X121941600Y-74304727D01*
X122112593Y-74268381D01*
X122287407Y-74268381D01*
X122458400Y-74304727D01*
G37*
G36*
X163723850Y-68504656D02*
G01*
X164066257Y-68580025D01*
X164398507Y-68691973D01*
X164716707Y-68839188D01*
X165017124Y-69019943D01*
X165296237Y-69232119D01*
X165550773Y-69473229D01*
X165777749Y-69740446D01*
X165974504Y-70030637D01*
X166138729Y-70340399D01*
X166268501Y-70666102D01*
X166362297Y-71003926D01*
X166419019Y-71349911D01*
X166438000Y-71700000D01*
X166419019Y-72050089D01*
X166362297Y-72396074D01*
X166268501Y-72733898D01*
X166138729Y-73059601D01*
X165974504Y-73369363D01*
X165777749Y-73659554D01*
X165550773Y-73926771D01*
X165296237Y-74167881D01*
X165017124Y-74380057D01*
X164716707Y-74560812D01*
X164398507Y-74708027D01*
X164066257Y-74819975D01*
X163723850Y-74895344D01*
X163375302Y-74933251D01*
X163024698Y-74933251D01*
X162676150Y-74895344D01*
X162333743Y-74819975D01*
X162001493Y-74708027D01*
X161683293Y-74560812D01*
X161382876Y-74380057D01*
X161103763Y-74167881D01*
X160849227Y-73926771D01*
X160622251Y-73659554D01*
X160425496Y-73369363D01*
X160261271Y-73059601D01*
X160131499Y-72733898D01*
X160037703Y-72396074D01*
X159980981Y-72050089D01*
X159962000Y-71700000D01*
X159980981Y-71349911D01*
X160037703Y-71003926D01*
X160131499Y-70666102D01*
X160261271Y-70340399D01*
X160425496Y-70030637D01*
X160622251Y-69740446D01*
X160849227Y-69473229D01*
X161103763Y-69232119D01*
X161382876Y-69019943D01*
X161683293Y-68839188D01*
X162001493Y-68691973D01*
X162333743Y-68580025D01*
X162676150Y-68504656D01*
X163024698Y-68466749D01*
X163375302Y-68466749D01*
X163723850Y-68504656D01*
G37*
G36*
X115126572Y-70543206D02*
G01*
X115367073Y-70600945D01*
X115595580Y-70695596D01*
X115806467Y-70824827D01*
X115994542Y-70985458D01*
X116155173Y-71173533D01*
X116284404Y-71384420D01*
X116379055Y-71612927D01*
X116436794Y-71853428D01*
X116456200Y-72100000D01*
X116436794Y-72346572D01*
X116379055Y-72587073D01*
X116284404Y-72815580D01*
X116155173Y-73026467D01*
X115994542Y-73214542D01*
X115806467Y-73375173D01*
X115595580Y-73504404D01*
X115367073Y-73599055D01*
X115126572Y-73656794D01*
X114880000Y-73676200D01*
X114633428Y-73656794D01*
X114392927Y-73599055D01*
X114164420Y-73504404D01*
X113953533Y-73375173D01*
X113765458Y-73214542D01*
X113604827Y-73026467D01*
X113475596Y-72815580D01*
X113380945Y-72587073D01*
X113323206Y-72346572D01*
X113303800Y-72100000D01*
X113323206Y-71853428D01*
X113380945Y-71612927D01*
X113475596Y-71384420D01*
X113604827Y-71173533D01*
X113765458Y-70985458D01*
X113953533Y-70824827D01*
X114164420Y-70695596D01*
X114392927Y-70600945D01*
X114633428Y-70543206D01*
X114880000Y-70523800D01*
X115126572Y-70543206D01*
G37*
G36*
X119458400Y-71304727D02*
G01*
X119618100Y-71375830D01*
X119759527Y-71478582D01*
X119876500Y-71608494D01*
X119963907Y-71759887D01*
X120017927Y-71926144D01*
X120036200Y-72100000D01*
X120017927Y-72273856D01*
X119963907Y-72440113D01*
X119876500Y-72591506D01*
X119759527Y-72721418D01*
X119618100Y-72824170D01*
X119458400Y-72895273D01*
X119287407Y-72931619D01*
X119112593Y-72931619D01*
X118941600Y-72895273D01*
X118781900Y-72824170D01*
X118640473Y-72721418D01*
X118523500Y-72591506D01*
X118436093Y-72440113D01*
X118382073Y-72273856D01*
X118363800Y-72100000D01*
X118382073Y-71926144D01*
X118436093Y-71759887D01*
X118523500Y-71608494D01*
X118640473Y-71478582D01*
X118781900Y-71375830D01*
X118941600Y-71304727D01*
X119112593Y-71268381D01*
X119287407Y-71268381D01*
X119458400Y-71304727D01*
G37*
G36*
X122458400Y-71304727D02*
G01*
X122618100Y-71375830D01*
X122759527Y-71478582D01*
X122876500Y-71608494D01*
X122963907Y-71759887D01*
X123017927Y-71926144D01*
X123036200Y-72100000D01*
X123017927Y-72273856D01*
X122963907Y-72440113D01*
X122876500Y-72591506D01*
X122759527Y-72721418D01*
X122618100Y-72824170D01*
X122458400Y-72895273D01*
X122287407Y-72931619D01*
X122112593Y-72931619D01*
X121941600Y-72895273D01*
X121781900Y-72824170D01*
X121640473Y-72721418D01*
X121523500Y-72591506D01*
X121436093Y-72440113D01*
X121382073Y-72273856D01*
X121363800Y-72100000D01*
X121382073Y-71926144D01*
X121436093Y-71759887D01*
X121523500Y-71608494D01*
X121640473Y-71478582D01*
X121781900Y-71375830D01*
X121941600Y-71304727D01*
X122112593Y-71268381D01*
X122287407Y-71268381D01*
X122458400Y-71304727D01*
G37*
G36*
X142904521Y-70341961D02*
G01*
X142957308Y-70341961D01*
X143003748Y-70350642D01*
X143051922Y-70354857D01*
X143111053Y-70370701D01*
X143168270Y-70381397D01*
X143207076Y-70396430D01*
X143247701Y-70407316D01*
X143309201Y-70435994D01*
X143368394Y-70458925D01*
X143398944Y-70477841D01*
X143431406Y-70492978D01*
X143492643Y-70535857D01*
X143550864Y-70571906D01*
X143573180Y-70592250D01*
X143597437Y-70609235D01*
X143655460Y-70667258D01*
X143709467Y-70716492D01*
X143724189Y-70735987D01*
X143740764Y-70752562D01*
X143792457Y-70826388D01*
X143838803Y-70887759D01*
X143847107Y-70904436D01*
X143857024Y-70918599D01*
X143899258Y-71009172D01*
X143934465Y-71079876D01*
X143937965Y-71092177D01*
X143942682Y-71102293D01*
X143972399Y-71213200D01*
X143993198Y-71286299D01*
X143993838Y-71293212D01*
X143995142Y-71298077D01*
X144009561Y-71462886D01*
X144013000Y-71500000D01*
X144009560Y-71537116D01*
X143995142Y-71701922D01*
X143993838Y-71706785D01*
X143993198Y-71713701D01*
X143972392Y-71786824D01*
X143942683Y-71897701D01*
X143937967Y-71907812D01*
X143934465Y-71920124D01*
X143899239Y-71990866D01*
X143857021Y-72081406D01*
X143847106Y-72095565D01*
X143838803Y-72112241D01*
X143792455Y-72173614D01*
X143740764Y-72247437D01*
X143724192Y-72264008D01*
X143709467Y-72283508D01*
X143655448Y-72332752D01*
X143597437Y-72390764D01*
X143573185Y-72407745D01*
X143550864Y-72428094D01*
X143492631Y-72464150D01*
X143431406Y-72507021D01*
X143398951Y-72522154D01*
X143368394Y-72541075D01*
X143309189Y-72564010D01*
X143247701Y-72592683D01*
X143207085Y-72603566D01*
X143168270Y-72618603D01*
X143111041Y-72629301D01*
X143051922Y-72645142D01*
X143003758Y-72649355D01*
X142957308Y-72658039D01*
X142904510Y-72658039D01*
X142850000Y-72662808D01*
X142795490Y-72658039D01*
X142742692Y-72658039D01*
X142696241Y-72649355D01*
X142648077Y-72645142D01*
X142588955Y-72629300D01*
X142531730Y-72618603D01*
X142492917Y-72603566D01*
X142452298Y-72592683D01*
X142390804Y-72564008D01*
X142331606Y-72541075D01*
X142301051Y-72522156D01*
X142268593Y-72507021D01*
X142207360Y-72464144D01*
X142149136Y-72428094D01*
X142126817Y-72407748D01*
X142102562Y-72390764D01*
X142044539Y-72332741D01*
X141990533Y-72283508D01*
X141975810Y-72264012D01*
X141959235Y-72247437D01*
X141907531Y-72173596D01*
X141861197Y-72112241D01*
X141852896Y-72095570D01*
X141842978Y-72081406D01*
X141800744Y-71990835D01*
X141765535Y-71920124D01*
X141762033Y-71907818D01*
X141757316Y-71897701D01*
X141727590Y-71786763D01*
X141706802Y-71713701D01*
X141706161Y-71706791D01*
X141704857Y-71701922D01*
X141690421Y-71536922D01*
X141687000Y-71500000D01*
X141690421Y-71463080D01*
X141704857Y-71298077D01*
X141706161Y-71293207D01*
X141706802Y-71286299D01*
X141727583Y-71213261D01*
X141757317Y-71102293D01*
X141762036Y-71092172D01*
X141765535Y-71079876D01*
X141800725Y-71009203D01*
X141842975Y-70918599D01*
X141852895Y-70904431D01*
X141861197Y-70887759D01*
X141907528Y-70826406D01*
X141959235Y-70752562D01*
X141975813Y-70735983D01*
X141990533Y-70716492D01*
X142044528Y-70667268D01*
X142102562Y-70609235D01*
X142126821Y-70592248D01*
X142149136Y-70571906D01*
X142207357Y-70535856D01*
X142268599Y-70492975D01*
X142301061Y-70477837D01*
X142331606Y-70458925D01*
X142390780Y-70436000D01*
X142452293Y-70407317D01*
X142492927Y-70396428D01*
X142531730Y-70381397D01*
X142588942Y-70370702D01*
X142648077Y-70354857D01*
X142696251Y-70350642D01*
X142742692Y-70341961D01*
X142795479Y-70341961D01*
X142850000Y-70337191D01*
X142904521Y-70341961D01*
G37*
G36*
X152404521Y-70341961D02*
G01*
X152457308Y-70341961D01*
X152503748Y-70350642D01*
X152551922Y-70354857D01*
X152611053Y-70370701D01*
X152668270Y-70381397D01*
X152707076Y-70396430D01*
X152747701Y-70407316D01*
X152809201Y-70435994D01*
X152868394Y-70458925D01*
X152898944Y-70477841D01*
X152931406Y-70492978D01*
X152992643Y-70535857D01*
X153050864Y-70571906D01*
X153073180Y-70592250D01*
X153097437Y-70609235D01*
X153155460Y-70667258D01*
X153209467Y-70716492D01*
X153224189Y-70735987D01*
X153240764Y-70752562D01*
X153292457Y-70826388D01*
X153338803Y-70887759D01*
X153347107Y-70904436D01*
X153357024Y-70918599D01*
X153399258Y-71009172D01*
X153434465Y-71079876D01*
X153437965Y-71092177D01*
X153442682Y-71102293D01*
X153472399Y-71213200D01*
X153493198Y-71286299D01*
X153493838Y-71293212D01*
X153495142Y-71298077D01*
X153509561Y-71462886D01*
X153513000Y-71500000D01*
X153509560Y-71537116D01*
X153495142Y-71701922D01*
X153493838Y-71706785D01*
X153493198Y-71713701D01*
X153472392Y-71786824D01*
X153442683Y-71897701D01*
X153437967Y-71907812D01*
X153434465Y-71920124D01*
X153399239Y-71990866D01*
X153357021Y-72081406D01*
X153347106Y-72095565D01*
X153338803Y-72112241D01*
X153292455Y-72173614D01*
X153240764Y-72247437D01*
X153224192Y-72264008D01*
X153209467Y-72283508D01*
X153155448Y-72332752D01*
X153097437Y-72390764D01*
X153073185Y-72407745D01*
X153050864Y-72428094D01*
X152992631Y-72464150D01*
X152931406Y-72507021D01*
X152898951Y-72522154D01*
X152868394Y-72541075D01*
X152809189Y-72564010D01*
X152747701Y-72592683D01*
X152707085Y-72603566D01*
X152668270Y-72618603D01*
X152611041Y-72629301D01*
X152551922Y-72645142D01*
X152503758Y-72649355D01*
X152457308Y-72658039D01*
X152404510Y-72658039D01*
X152350000Y-72662808D01*
X152295490Y-72658039D01*
X152242692Y-72658039D01*
X152196241Y-72649355D01*
X152148077Y-72645142D01*
X152088955Y-72629300D01*
X152031730Y-72618603D01*
X151992917Y-72603566D01*
X151952298Y-72592683D01*
X151890804Y-72564008D01*
X151831606Y-72541075D01*
X151801051Y-72522156D01*
X151768593Y-72507021D01*
X151707360Y-72464144D01*
X151649136Y-72428094D01*
X151626817Y-72407748D01*
X151602562Y-72390764D01*
X151544539Y-72332741D01*
X151490533Y-72283508D01*
X151475810Y-72264012D01*
X151459235Y-72247437D01*
X151407531Y-72173596D01*
X151361197Y-72112241D01*
X151352896Y-72095570D01*
X151342978Y-72081406D01*
X151300744Y-71990835D01*
X151265535Y-71920124D01*
X151262033Y-71907818D01*
X151257316Y-71897701D01*
X151227590Y-71786763D01*
X151206802Y-71713701D01*
X151206161Y-71706791D01*
X151204857Y-71701922D01*
X151190421Y-71536922D01*
X151187000Y-71500000D01*
X151190421Y-71463080D01*
X151204857Y-71298077D01*
X151206161Y-71293207D01*
X151206802Y-71286299D01*
X151227583Y-71213261D01*
X151257317Y-71102293D01*
X151262036Y-71092172D01*
X151265535Y-71079876D01*
X151300725Y-71009203D01*
X151342975Y-70918599D01*
X151352895Y-70904431D01*
X151361197Y-70887759D01*
X151407528Y-70826406D01*
X151459235Y-70752562D01*
X151475813Y-70735983D01*
X151490533Y-70716492D01*
X151544528Y-70667268D01*
X151602562Y-70609235D01*
X151626821Y-70592248D01*
X151649136Y-70571906D01*
X151707357Y-70535856D01*
X151768599Y-70492975D01*
X151801061Y-70477837D01*
X151831606Y-70458925D01*
X151890780Y-70436000D01*
X151952293Y-70407317D01*
X151992927Y-70396428D01*
X152031730Y-70381397D01*
X152088942Y-70370702D01*
X152148077Y-70354857D01*
X152196251Y-70350642D01*
X152242692Y-70341961D01*
X152295479Y-70341961D01*
X152350000Y-70337191D01*
X152404521Y-70341961D01*
G37*
G36*
X119458400Y-68304727D02*
G01*
X119618100Y-68375830D01*
X119759527Y-68478582D01*
X119876500Y-68608494D01*
X119963907Y-68759887D01*
X120017927Y-68926144D01*
X120036200Y-69100000D01*
X120017927Y-69273856D01*
X119963907Y-69440113D01*
X119876500Y-69591506D01*
X119759527Y-69721418D01*
X119618100Y-69824170D01*
X119458400Y-69895273D01*
X119287407Y-69931619D01*
X119112593Y-69931619D01*
X118941600Y-69895273D01*
X118781900Y-69824170D01*
X118640473Y-69721418D01*
X118523500Y-69591506D01*
X118436093Y-69440113D01*
X118382073Y-69273856D01*
X118363800Y-69100000D01*
X118382073Y-68926144D01*
X118436093Y-68759887D01*
X118523500Y-68608494D01*
X118640473Y-68478582D01*
X118781900Y-68375830D01*
X118941600Y-68304727D01*
X119112593Y-68268381D01*
X119287407Y-68268381D01*
X119458400Y-68304727D01*
G37*
G36*
X122458400Y-68304727D02*
G01*
X122618100Y-68375830D01*
X122759527Y-68478582D01*
X122876500Y-68608494D01*
X122963907Y-68759887D01*
X123017927Y-68926144D01*
X123036200Y-69100000D01*
X123017927Y-69273856D01*
X122963907Y-69440113D01*
X122876500Y-69591506D01*
X122759527Y-69721418D01*
X122618100Y-69824170D01*
X122458400Y-69895273D01*
X122287407Y-69931619D01*
X122112593Y-69931619D01*
X121941600Y-69895273D01*
X121781900Y-69824170D01*
X121640473Y-69721418D01*
X121523500Y-69591506D01*
X121436093Y-69440113D01*
X121382073Y-69273856D01*
X121363800Y-69100000D01*
X121382073Y-68926144D01*
X121436093Y-68759887D01*
X121523500Y-68608494D01*
X121640473Y-68478582D01*
X121781900Y-68375830D01*
X121941600Y-68304727D01*
X122112593Y-68268381D01*
X122287407Y-68268381D01*
X122458400Y-68304727D01*
G37*
G36*
X145379542Y-66979893D02*
G01*
X145391870Y-66988130D01*
X145400107Y-67000458D01*
X145403000Y-67015000D01*
X145403000Y-69265000D01*
X145400107Y-69279542D01*
X145391870Y-69291870D01*
X145379542Y-69300107D01*
X145365000Y-69303000D01*
X143115000Y-69303000D01*
X143100458Y-69300107D01*
X143088130Y-69291870D01*
X143079893Y-69279542D01*
X143077000Y-69265000D01*
X143077000Y-67015000D01*
X143079893Y-67000458D01*
X143088130Y-66988130D01*
X143100458Y-66979893D01*
X143115000Y-66977000D01*
X145365000Y-66977000D01*
X145379542Y-66979893D01*
G37*
G36*
X151014521Y-66981961D02*
G01*
X151067308Y-66981961D01*
X151113748Y-66990642D01*
X151161922Y-66994857D01*
X151221053Y-67010701D01*
X151278270Y-67021397D01*
X151317076Y-67036430D01*
X151357701Y-67047316D01*
X151419201Y-67075994D01*
X151478394Y-67098925D01*
X151508944Y-67117841D01*
X151541406Y-67132978D01*
X151602643Y-67175857D01*
X151660864Y-67211906D01*
X151683180Y-67232250D01*
X151707437Y-67249235D01*
X151765460Y-67307258D01*
X151819467Y-67356492D01*
X151834189Y-67375987D01*
X151850764Y-67392562D01*
X151902457Y-67466388D01*
X151948803Y-67527759D01*
X151957107Y-67544436D01*
X151967024Y-67558599D01*
X152009258Y-67649172D01*
X152044465Y-67719876D01*
X152047965Y-67732177D01*
X152052682Y-67742293D01*
X152082399Y-67853200D01*
X152103198Y-67926299D01*
X152103838Y-67933212D01*
X152105142Y-67938077D01*
X152119561Y-68102886D01*
X152123000Y-68140000D01*
X152119560Y-68177116D01*
X152105142Y-68341922D01*
X152103838Y-68346785D01*
X152103198Y-68353701D01*
X152082392Y-68426824D01*
X152052683Y-68537701D01*
X152047967Y-68547812D01*
X152044465Y-68560124D01*
X152009239Y-68630866D01*
X151967021Y-68721406D01*
X151957106Y-68735565D01*
X151948803Y-68752241D01*
X151902455Y-68813614D01*
X151850764Y-68887437D01*
X151834192Y-68904008D01*
X151819467Y-68923508D01*
X151765448Y-68972752D01*
X151707437Y-69030764D01*
X151683185Y-69047745D01*
X151660864Y-69068094D01*
X151602631Y-69104150D01*
X151541406Y-69147021D01*
X151508951Y-69162154D01*
X151478394Y-69181075D01*
X151419189Y-69204010D01*
X151357701Y-69232683D01*
X151317085Y-69243566D01*
X151278270Y-69258603D01*
X151221041Y-69269301D01*
X151161922Y-69285142D01*
X151113758Y-69289355D01*
X151067308Y-69298039D01*
X151014510Y-69298039D01*
X150960000Y-69302808D01*
X150905490Y-69298039D01*
X150852692Y-69298039D01*
X150806241Y-69289355D01*
X150758077Y-69285142D01*
X150698955Y-69269300D01*
X150641730Y-69258603D01*
X150602917Y-69243566D01*
X150562298Y-69232683D01*
X150500804Y-69204008D01*
X150441606Y-69181075D01*
X150411051Y-69162156D01*
X150378593Y-69147021D01*
X150317360Y-69104144D01*
X150259136Y-69068094D01*
X150236817Y-69047748D01*
X150212562Y-69030764D01*
X150154539Y-68972741D01*
X150100533Y-68923508D01*
X150085810Y-68904012D01*
X150069235Y-68887437D01*
X150017531Y-68813596D01*
X149971197Y-68752241D01*
X149962896Y-68735570D01*
X149952978Y-68721406D01*
X149910744Y-68630835D01*
X149875535Y-68560124D01*
X149872033Y-68547818D01*
X149867316Y-68537701D01*
X149837590Y-68426763D01*
X149816802Y-68353701D01*
X149816161Y-68346791D01*
X149814857Y-68341922D01*
X149800421Y-68176922D01*
X149797000Y-68140000D01*
X149800421Y-68103080D01*
X149814857Y-67938077D01*
X149816161Y-67933207D01*
X149816802Y-67926299D01*
X149837583Y-67853261D01*
X149867317Y-67742293D01*
X149872036Y-67732172D01*
X149875535Y-67719876D01*
X149910725Y-67649203D01*
X149952975Y-67558599D01*
X149962895Y-67544431D01*
X149971197Y-67527759D01*
X150017528Y-67466406D01*
X150069235Y-67392562D01*
X150085813Y-67375983D01*
X150100533Y-67356492D01*
X150154528Y-67307268D01*
X150212562Y-67249235D01*
X150236821Y-67232248D01*
X150259136Y-67211906D01*
X150317357Y-67175856D01*
X150378599Y-67132975D01*
X150411061Y-67117837D01*
X150441606Y-67098925D01*
X150500780Y-67076000D01*
X150562293Y-67047317D01*
X150602927Y-67036428D01*
X150641730Y-67021397D01*
X150698942Y-67010702D01*
X150758077Y-66994857D01*
X150806251Y-66990642D01*
X150852692Y-66981961D01*
X150905479Y-66981961D01*
X150960000Y-66977191D01*
X151014521Y-66981961D01*
G37*
G36*
X139923850Y-57404656D02*
G01*
X140266257Y-57480025D01*
X140598507Y-57591973D01*
X140916707Y-57739188D01*
X141217124Y-57919943D01*
X141496237Y-58132119D01*
X141750773Y-58373229D01*
X141977749Y-58640446D01*
X142174504Y-58930637D01*
X142338729Y-59240399D01*
X142468501Y-59566102D01*
X142562297Y-59903926D01*
X142619019Y-60249911D01*
X142638000Y-60600000D01*
X142619019Y-60950089D01*
X142562297Y-61296074D01*
X142468501Y-61633898D01*
X142338729Y-61959601D01*
X142174504Y-62269363D01*
X141977749Y-62559554D01*
X141750773Y-62826771D01*
X141496237Y-63067881D01*
X141217124Y-63280057D01*
X140916707Y-63460812D01*
X140598507Y-63608027D01*
X140266257Y-63719975D01*
X139923850Y-63795344D01*
X139575302Y-63833251D01*
X139224698Y-63833251D01*
X138876150Y-63795344D01*
X138533743Y-63719975D01*
X138201493Y-63608027D01*
X137883293Y-63460812D01*
X137582876Y-63280057D01*
X137303763Y-63067881D01*
X137049227Y-62826771D01*
X136822251Y-62559554D01*
X136625496Y-62269363D01*
X136461271Y-61959601D01*
X136331499Y-61633898D01*
X136237703Y-61296074D01*
X136180981Y-60950089D01*
X136162000Y-60600000D01*
X136180981Y-60249911D01*
X136237703Y-59903926D01*
X136331499Y-59566102D01*
X136461271Y-59240399D01*
X136625496Y-58930637D01*
X136822251Y-58640446D01*
X137049227Y-58373229D01*
X137303763Y-58132119D01*
X137582876Y-57919943D01*
X137883293Y-57739188D01*
X138201493Y-57591973D01*
X138533743Y-57480025D01*
X138876150Y-57404656D01*
X139224698Y-57366749D01*
X139575302Y-57366749D01*
X139923850Y-57404656D01*
G37*
G36*
X129114542Y-59364893D02*
G01*
X129126870Y-59373130D01*
X129135107Y-59385458D01*
X129138000Y-59400000D01*
X129138000Y-61600000D01*
X129135107Y-61614542D01*
X129126870Y-61626870D01*
X129114542Y-61635107D01*
X129100000Y-61638000D01*
X126900000Y-61638000D01*
X126885458Y-61635107D01*
X126873130Y-61626870D01*
X126864893Y-61614542D01*
X126862000Y-61600000D01*
X126862000Y-59400000D01*
X126864893Y-59385458D01*
X126873130Y-59373130D01*
X126885458Y-59364893D01*
X126900000Y-59362000D01*
X129100000Y-59362000D01*
X129114542Y-59364893D01*
G37*
G36*
X118151428Y-59405442D02*
G01*
X118347250Y-59481304D01*
X118525798Y-59591856D01*
X118680992Y-59733334D01*
X118807547Y-59900920D01*
X118901153Y-60088907D01*
X118958623Y-60290893D01*
X118978000Y-60500000D01*
X118958623Y-60709107D01*
X118901153Y-60911093D01*
X118807547Y-61099080D01*
X118680992Y-61266666D01*
X118525798Y-61408144D01*
X118347250Y-61518696D01*
X118151428Y-61594558D01*
X117945001Y-61633145D01*
X117734999Y-61633145D01*
X117528572Y-61594558D01*
X117332750Y-61518696D01*
X117154202Y-61408144D01*
X116999008Y-61266666D01*
X116872453Y-61099080D01*
X116778847Y-60911093D01*
X116721377Y-60709107D01*
X116702000Y-60500000D01*
X116721377Y-60290893D01*
X116778847Y-60088907D01*
X116872453Y-59900920D01*
X116999008Y-59733334D01*
X117154202Y-59591856D01*
X117332750Y-59481304D01*
X117528572Y-59405442D01*
X117734999Y-59366855D01*
X117945001Y-59366855D01*
X118151428Y-59405442D01*
G37*
M02*
