%TF.GenerationSoftware,KiCad,Pcbnew,9.0.2*%
%TF.CreationDate,2025-08-16T13:11:21-06:00*%
%TF.ProjectId,LED light pcb,4c454420-6c69-4676-9874-207063622e6b,rev?*%
%TF.SameCoordinates,Original*%
%TF.FileFunction,Profile,NP*%
%FSLAX46Y46*%
G04 Gerber Fmt 4.6, Leading zero omitted, Abs format (unit mm)*
G04 Created by KiCad (PCBNEW 9.0.2) date 2025-08-16 13:11:21*
%MOMM*%
%LPD*%
G01*
G04 APERTURE LIST*
%TA.AperFunction,Profile*%
%ADD10C,0.200000*%
%TD*%
G04 APERTURE END LIST*
D10*
X118957672Y-70957671D02*
X113931217Y-75455026D01*
X141973545Y-119105820D02*
X147264551Y-114343915D01*
X105730159Y-102174603D02*
X105994709Y-111169312D01*
X106523810Y-93708994D02*
X105730159Y-102174603D01*
X155730159Y-126777777D02*
X152026455Y-126777777D01*
X151761905Y-74396825D02*
X148058201Y-70693121D01*
X145677249Y-69105820D02*
X143031746Y-67783068D01*
X148851852Y-137888888D02*
X152820106Y-133391534D01*
X147264551Y-114343915D02*
X154936508Y-106142857D01*
X127423281Y-141857142D02*
X131391535Y-142650793D01*
X152026455Y-126777777D02*
X148851852Y-125455026D01*
X141179894Y-91063492D02*
X147529101Y-84714285D01*
X151497355Y-100851851D02*
X141179894Y-91063492D01*
X120544974Y-139211640D02*
X127423281Y-141857142D01*
X148851852Y-125455026D02*
X145148148Y-122544973D01*
X107317461Y-119634920D02*
X109698413Y-126777777D01*
X116312170Y-136301587D02*
X120544974Y-139211640D01*
X152820106Y-133391534D02*
X155730159Y-128100529D01*
X152555556Y-82333333D02*
X155730159Y-82597883D01*
X111550265Y-78894179D02*
X108904762Y-84449735D01*
X138534392Y-142650793D02*
X143296297Y-141328042D01*
X108904762Y-84449735D02*
X106523810Y-93708994D01*
X151497355Y-82597883D02*
X152555556Y-82333333D01*
X113402117Y-133126984D02*
X116312170Y-136301587D01*
X139328043Y-66724867D02*
X131920635Y-66460317D01*
X147529101Y-84714285D02*
X151497355Y-82597883D01*
X155730159Y-128100529D02*
X155730159Y-126777777D01*
X155730159Y-82597883D02*
X155730159Y-81010581D01*
X154936508Y-106142857D02*
X154936508Y-104820105D01*
X148058201Y-70693121D02*
X145677249Y-69105820D01*
X131920635Y-66460317D02*
X123719577Y-68576719D01*
X143031746Y-67783068D02*
X139328043Y-66724867D01*
X123719577Y-68576719D02*
X118957672Y-70957671D01*
X105994709Y-111169312D02*
X107317461Y-119634920D01*
X145941799Y-140005290D02*
X148851852Y-137888888D01*
X145148148Y-122544973D02*
X141973545Y-119105820D01*
X113931217Y-75455026D02*
X111550265Y-78894179D01*
X131391535Y-142650793D02*
X138534392Y-142650793D01*
X109698413Y-126777777D02*
X113402117Y-133126984D01*
X154936508Y-104820105D02*
X151497355Y-100851851D01*
X155730159Y-81010581D02*
X151761905Y-74396825D01*
X143296297Y-141328042D02*
X145941799Y-140005290D01*
M02*
