%TF.GenerationSoftware,KiCad,Pcbnew,7.0.6*%
%TF.CreationDate,2023-10-09T12:22:10-06:00*%
%TF.ProjectId,CAN-USB RF Module,43414e2d-5553-4422-9052-46204d6f6475,2.0*%
%TF.SameCoordinates,Original*%
%TF.FileFunction,Copper,L4,Bot*%
%TF.FilePolarity,Positive*%
%FSLAX46Y46*%
G04 Gerber Fmt 4.6, Leading zero omitted, Abs format (unit mm)*
G04 Created by KiCad (PCBNEW 7.0.6) date 2023-10-09 12:22:10*
%MOMM*%
%LPD*%
G01*
G04 APERTURE LIST*
G04 Aperture macros list*
%AMRoundRect*
0 Rectangle with rounded corners*
0 $1 Rounding radius*
0 $2 $3 $4 $5 $6 $7 $8 $9 X,Y pos of 4 corners*
0 Add a 4 corners polygon primitive as box body*
4,1,4,$2,$3,$4,$5,$6,$7,$8,$9,$2,$3,0*
0 Add four circle primitives for the rounded corners*
1,1,$1+$1,$2,$3*
1,1,$1+$1,$4,$5*
1,1,$1+$1,$6,$7*
1,1,$1+$1,$8,$9*
0 Add four rect primitives between the rounded corners*
20,1,$1+$1,$2,$3,$4,$5,0*
20,1,$1+$1,$4,$5,$6,$7,0*
20,1,$1+$1,$6,$7,$8,$9,0*
20,1,$1+$1,$8,$9,$2,$3,0*%
G04 Aperture macros list end*
%TA.AperFunction,ComponentPad*%
%ADD10R,1.700000X1.700000*%
%TD*%
%TA.AperFunction,ComponentPad*%
%ADD11O,1.700000X1.700000*%
%TD*%
%TA.AperFunction,ComponentPad*%
%ADD12C,1.600000*%
%TD*%
%TA.AperFunction,ComponentPad*%
%ADD13R,1.600000X1.600000*%
%TD*%
%TA.AperFunction,ComponentPad*%
%ADD14C,4.000000*%
%TD*%
%TA.AperFunction,ComponentPad*%
%ADD15O,0.890000X1.550000*%
%TD*%
%TA.AperFunction,ComponentPad*%
%ADD16O,1.250000X0.950000*%
%TD*%
%TA.AperFunction,SMDPad,CuDef*%
%ADD17R,4.560000X1.000000*%
%TD*%
%TA.AperFunction,ComponentPad*%
%ADD18RoundRect,0.250001X0.499999X-0.499999X0.499999X0.499999X-0.499999X0.499999X-0.499999X-0.499999X0*%
%TD*%
%TA.AperFunction,ComponentPad*%
%ADD19C,1.500000*%
%TD*%
%TA.AperFunction,ComponentPad*%
%ADD20C,3.410000*%
%TD*%
%TA.AperFunction,ViaPad*%
%ADD21C,0.800000*%
%TD*%
%TA.AperFunction,ViaPad*%
%ADD22C,0.700000*%
%TD*%
%TA.AperFunction,Conductor*%
%ADD23C,0.250000*%
%TD*%
%TA.AperFunction,Conductor*%
%ADD24C,0.500000*%
%TD*%
%TA.AperFunction,Conductor*%
%ADD25C,0.200000*%
%TD*%
G04 APERTURE END LIST*
D10*
%TO.P,J3,1,Pin_1*%
%TO.N,+5V*%
X107391200Y-106857800D03*
D11*
%TO.P,J3,2,Pin_2*%
%TO.N,/Power Regulator/5V*%
X107391200Y-104317800D03*
%TO.P,J3,3,Pin_3*%
%TO.N,/Power Regulator/12V*%
X109931200Y-106857800D03*
%TO.P,J3,4,Pin_4*%
%TO.N,/Power Regulator/FUSE_OUT*%
X109931200Y-104317800D03*
%TD*%
D12*
%TO.P,J6,9,Pin_9*%
%TO.N,unconnected-(J6-Pin_9-Pad9)*%
X148481000Y-76812000D03*
%TO.P,J6,8,Pin_8*%
%TO.N,unconnected-(J6-Pin_8-Pad8)*%
X145711000Y-76812000D03*
%TO.P,J6,7,Pin_7*%
%TO.N,/CAN Tranciever/CD+*%
X142941000Y-76812000D03*
%TO.P,J6,6,Pin_6*%
%TO.N,unconnected-(J6-Pin_6-Pad6)*%
X140171000Y-76812000D03*
%TO.P,J6,5,Pin_5*%
%TO.N,unconnected-(J6-Pin_5-Pad5)*%
X149866000Y-79652000D03*
%TO.P,J6,4,Pin_4*%
%TO.N,unconnected-(J6-Pin_4-Pad4)*%
X147096000Y-79652000D03*
%TO.P,J6,3,Pin_3*%
%TO.N,unconnected-(J6-Pin_3-Pad3)*%
X144326000Y-79652000D03*
%TO.P,J6,2,Pin_2*%
%TO.N,/CAN Tranciever/CD-*%
X141556000Y-79652000D03*
D13*
%TO.P,J6,1,Pin_1*%
%TO.N,unconnected-(J6-Pin_1-Pad1)*%
X138786000Y-79652000D03*
D14*
%TO.P,J6,0*%
%TO.N,N/C*%
X131826000Y-78232000D03*
X156826000Y-78232000D03*
%TD*%
D15*
%TO.P,J4,6,Shield*%
%TO.N,unconnected-(J4-Shield-Pad6)*%
X125690000Y-72644000D03*
D16*
X124690000Y-75344000D03*
X119690000Y-75344000D03*
D15*
X118690000Y-72644000D03*
%TD*%
D17*
%TO.P,J5,2,Ext*%
%TO.N,GND*%
X167499500Y-101573250D03*
X167499500Y-96033250D03*
%TD*%
D18*
%TO.P,J2,1,Pin_1*%
%TO.N,+12V*%
X104947000Y-81232000D03*
D19*
%TO.P,J2,2,Pin_2*%
%TO.N,GND*%
X104947000Y-78232000D03*
%TO.P,J2,3,Pin_3*%
%TO.N,/Power Regulator/5V_UP*%
X104947000Y-75232000D03*
%TO.P,J2,4,Pin_4*%
%TO.N,+12V*%
X107947000Y-81232000D03*
%TO.P,J2,5,Pin_5*%
%TO.N,GND*%
X107947000Y-78232000D03*
%TO.P,J2,6,Pin_6*%
%TO.N,/Power Regulator/5V_UP*%
X107947000Y-75232000D03*
D20*
%TO.P,J2,MP*%
%TO.N,N/C*%
X100627000Y-83382000D03*
X100627000Y-73082000D03*
%TD*%
D10*
%TO.P,J1,1,Pin_1*%
%TO.N,+3V3*%
X161766000Y-88487500D03*
D11*
%TO.P,J1,2,Pin_2*%
%TO.N,/DEBUG_SWDIO*%
X161766000Y-91027500D03*
%TO.P,J1,3,Pin_3*%
%TO.N,GND*%
X159226000Y-88487500D03*
%TO.P,J1,4,Pin_4*%
%TO.N,/DEBUG_SWCLK*%
X159226000Y-91027500D03*
%TO.P,J1,5,Pin_5*%
%TO.N,GND*%
X156686000Y-88487500D03*
%TO.P,J1,6,Pin_6*%
%TO.N,/DEBUG_SWO*%
X156686000Y-91027500D03*
%TO.P,J1,7,Pin_7*%
%TO.N,unconnected-(J1-Pin_7-Pad7)*%
X154146000Y-88487500D03*
%TO.P,J1,8,Pin_8*%
%TO.N,unconnected-(J1-Pin_8-Pad8)*%
X154146000Y-91027500D03*
%TO.P,J1,9,Pin_9*%
%TO.N,GND*%
X151606000Y-88487500D03*
%TO.P,J1,10,Pin_10*%
%TO.N,/NRST*%
X151606000Y-91027500D03*
%TD*%
D10*
%TO.P,JP1,1,A*%
%TO.N,VBUS_UP*%
X114539000Y-84836000D03*
D11*
%TO.P,JP1,2,C*%
%TO.N,/Power Regulator/FUSE_IN*%
X111999000Y-84836000D03*
%TO.P,JP1,3,B*%
%TO.N,+12V*%
X109459000Y-84836000D03*
%TD*%
D21*
%TO.N,GND*%
X169672000Y-94361000D03*
X169037000Y-93726000D03*
X167640000Y-93726000D03*
X166370000Y-93726000D03*
X165227000Y-93853000D03*
X164084000Y-94107000D03*
X163322000Y-94996000D03*
X163322000Y-96139000D03*
X162179000Y-96266000D03*
X161036000Y-96520000D03*
X169799000Y-103759000D03*
X168529000Y-103886000D03*
X167005000Y-103759000D03*
X165481000Y-103759000D03*
X164211000Y-103251000D03*
X163576000Y-102362000D03*
X163322000Y-101346000D03*
X162433000Y-101346000D03*
X163322000Y-97282000D03*
X162433000Y-97282000D03*
X154940000Y-96266000D03*
X151892000Y-95123000D03*
X168910000Y-94869000D03*
X168021000Y-94869000D03*
X167132000Y-94869000D03*
X166243000Y-94869000D03*
X165354000Y-94869000D03*
X164465000Y-95250000D03*
X164465000Y-96139000D03*
X164465000Y-97155000D03*
X164592000Y-101981000D03*
X169799000Y-102743000D03*
X168910000Y-102743000D03*
X168021000Y-102743000D03*
X167132000Y-102743000D03*
X166243000Y-102743000D03*
X165354000Y-102743000D03*
X169672000Y-99949000D03*
X168910000Y-99949000D03*
X168148000Y-99949000D03*
X167132000Y-99949000D03*
X166243000Y-99949000D03*
X165354000Y-99949000D03*
X169672000Y-97663000D03*
X168910000Y-97663000D03*
X168021000Y-97663000D03*
X167386000Y-97663000D03*
X166370000Y-97663000D03*
X165354000Y-97663000D03*
X154305000Y-86614000D03*
D22*
X169162000Y-111416517D03*
X169162000Y-80936517D03*
X166622000Y-106336517D03*
X166622000Y-88556517D03*
X166622000Y-75856517D03*
X164082000Y-101256517D03*
X164082000Y-83476517D03*
X161542000Y-108876517D03*
X161542000Y-78396517D03*
X159002000Y-116496517D03*
X159002000Y-103796517D03*
X159002000Y-96176517D03*
X159002000Y-73316517D03*
X156462000Y-80936517D03*
X153922000Y-93636517D03*
X153922000Y-75856517D03*
X151382000Y-116496517D03*
X148842000Y-80936517D03*
X148842000Y-73316517D03*
X146302000Y-93636517D03*
X143762000Y-116496517D03*
X143762000Y-88556517D03*
X141222000Y-73316517D03*
X136142000Y-75856517D03*
X133602000Y-116496517D03*
X133602000Y-83476517D03*
X131062000Y-111416517D03*
X131062000Y-91096517D03*
X131062000Y-73316517D03*
X128522000Y-80936517D03*
X125982000Y-116496517D03*
X125982000Y-108876517D03*
X125982000Y-75856517D03*
X118362000Y-98716517D03*
X118362000Y-91096517D03*
X118362000Y-83476517D03*
X115822000Y-113956517D03*
X115822000Y-75856517D03*
X110742000Y-116496517D03*
X110742000Y-78396517D03*
X105662000Y-96176517D03*
X105662000Y-88556517D03*
X105662000Y-73316517D03*
X103122000Y-116496517D03*
X103122000Y-80936517D03*
X100582000Y-108876517D03*
X100582000Y-101256517D03*
X100582000Y-93636517D03*
X100582000Y-86016517D03*
X100582000Y-75856517D03*
%TO.N,/DEBUG_SWDIO*%
X136017000Y-98044000D03*
D21*
%TO.N,GND*%
X139827000Y-104902000D03*
X124841000Y-102362000D03*
X122503000Y-82042000D03*
X108839000Y-92075000D03*
X103632000Y-109982000D03*
X161290000Y-97663000D03*
X147320000Y-95885000D03*
X147193000Y-116586000D03*
X157842877Y-83447000D03*
X101346000Y-110744000D03*
X159099000Y-87217500D03*
X157480000Y-95631000D03*
X124931500Y-82550000D03*
X140335000Y-117348000D03*
X121666000Y-101722500D03*
D22*
X134585899Y-103834135D03*
D21*
X138811000Y-117094000D03*
X100203000Y-115824000D03*
X149352000Y-94107000D03*
X138409500Y-92329000D03*
X120142000Y-101722500D03*
X138684000Y-88519000D03*
X104340000Y-86995000D03*
X100711000Y-98679000D03*
X117856000Y-101727000D03*
X159258000Y-107061000D03*
X146050000Y-117348000D03*
X129032000Y-97663000D03*
X137522548Y-103320500D03*
X122174000Y-115257000D03*
X131476500Y-100175000D03*
X131476500Y-102588000D03*
X130048000Y-93853000D03*
X104648000Y-110236000D03*
X129413000Y-90805000D03*
X162306000Y-104775000D03*
X167386000Y-107823000D03*
X151155500Y-89503500D03*
X144309500Y-85433500D03*
X129921000Y-96012000D03*
X103787500Y-78232000D03*
X127089500Y-88265000D03*
X132520500Y-101445000D03*
X115570000Y-103251000D03*
X125222000Y-77597000D03*
X120486500Y-83104000D03*
X145923000Y-111760000D03*
X137795000Y-87249000D03*
X121793000Y-111887000D03*
X116967443Y-104650295D03*
X113919000Y-96393000D03*
X108966000Y-78232000D03*
X105537000Y-93345000D03*
X131496500Y-101420500D03*
X133635500Y-102588000D03*
X128270000Y-114681000D03*
X135763000Y-117094000D03*
X132492500Y-102588000D03*
X127000000Y-106172000D03*
X112506942Y-110192661D03*
X156559000Y-87344500D03*
X149352000Y-115570000D03*
X120904000Y-111379000D03*
X127127000Y-95758000D03*
X163322000Y-112014000D03*
X122569000Y-88057000D03*
X101346000Y-105156000D03*
X122569000Y-88950800D03*
X130302000Y-83947000D03*
X137287000Y-117094000D03*
X156559000Y-83407500D03*
X156559000Y-85185500D03*
X163322000Y-115443000D03*
D22*
X130556000Y-98044000D03*
D21*
X133635500Y-100175000D03*
X125222000Y-106172000D03*
X124690175Y-109640500D03*
X104775000Y-98679000D03*
X112395000Y-97536000D03*
X145796000Y-89789000D03*
X145796000Y-99822000D03*
X157829000Y-85185500D03*
X139700000Y-87249000D03*
X149352000Y-112014000D03*
X132492500Y-100175000D03*
X122580400Y-87172800D03*
X113919000Y-97536000D03*
X112395000Y-96393000D03*
X133655500Y-101420500D03*
X100203000Y-113792000D03*
X117983000Y-116731298D03*
X161417000Y-101092000D03*
D22*
%TO.N,/NRST*%
X143002000Y-81893994D03*
X132842000Y-92329000D03*
X124214500Y-100584000D03*
X124293500Y-92456000D03*
X153670000Y-83389998D03*
X123825000Y-116713000D03*
X153638000Y-85820500D03*
D21*
%TO.N,+3V3*%
X142240000Y-86233000D03*
X109093000Y-112395000D03*
X132969000Y-113538000D03*
X120618000Y-98076000D03*
X160115000Y-84296500D03*
X125603000Y-88773000D03*
X121793000Y-95377000D03*
X130429000Y-108712000D03*
X128270000Y-108712000D03*
X129650616Y-99170616D03*
X124690175Y-103632000D03*
X140716000Y-112141000D03*
X151638000Y-97028000D03*
X136653583Y-104013000D03*
%TO.N,+5V*%
X121412000Y-109347000D03*
X118187094Y-88821868D03*
X139336852Y-91698852D03*
X116332000Y-109347000D03*
X120015000Y-109347000D03*
X121194017Y-97211729D03*
X112903000Y-108458000D03*
D22*
%TO.N,/BOOT0*%
X141192965Y-93225918D03*
X141732000Y-110363000D03*
%TO.N,/CAN_STBY*%
X128143000Y-86308000D03*
X127039000Y-99949000D03*
%TO.N,/UART2_USB_TX*%
X129558500Y-103544500D03*
X126064219Y-87470954D03*
%TO.N,/UART2_USB_RX*%
X124841000Y-89408000D03*
X128690500Y-104330498D03*
%TO.N,/SPI1_SCK*%
X155321000Y-109347000D03*
X155321000Y-112014000D03*
%TO.N,/SPI1_MISO*%
X151384000Y-112014000D03*
X151384000Y-108164500D03*
%TO.N,/SPI1_MOSI*%
X153416000Y-112014000D03*
X153289000Y-107315000D03*
%TO.N,/DIO0*%
X153416000Y-101092000D03*
X153416000Y-105664000D03*
%TO.N,/DIO1*%
X151257000Y-105322500D03*
X151257000Y-101092000D03*
%TO.N,/CAN_RX*%
X137668000Y-99568000D03*
X140500700Y-91559602D03*
%TO.N,/CAN_TX*%
X136906000Y-98627500D03*
X136779000Y-91567000D03*
%TO.N,/SX_RESET*%
X142835500Y-95377000D03*
X142792465Y-104473500D03*
%TO.N,/DIO2*%
X143510000Y-94615000D03*
X143510000Y-99060000D03*
%TO.N,/DIO3*%
X140629000Y-101981000D03*
X140589000Y-93892500D03*
%TO.N,/DEBUG_SWO*%
X134112000Y-96774000D03*
X143002000Y-82793497D03*
%TO.N,/DEBUG_SWCLK*%
X143002000Y-83693000D03*
X135019500Y-98933000D03*
%TO.N,/DEBUG_SWDIO*%
X145415000Y-84455000D03*
D21*
%TO.N,/Power Regulator/5V*%
X102870000Y-114808000D03*
%TO.N,VBUS_UP*%
X122569000Y-79960000D03*
X117409000Y-80010000D03*
D22*
%TO.N,Net-(U2-PA10)*%
X135763000Y-112505750D03*
X137636109Y-100553780D03*
%TO.N,Net-(U2-PA9)*%
X137922000Y-101473000D03*
X137287000Y-112477750D03*
%TO.N,Net-(U2-PA1)*%
X128816444Y-102896444D03*
X134239000Y-111289500D03*
%TO.N,Net-(U3-OVLO)*%
X116078000Y-101727000D03*
X114300000Y-89662000D03*
D21*
%TO.N,Net-(R10-Pad1)*%
X115966502Y-99441000D03*
D22*
X114300000Y-102362000D03*
%TO.N,/DIO4*%
X157138500Y-103124000D03*
X157226000Y-101092000D03*
X138684000Y-97663000D03*
X139827000Y-103084500D03*
%TO.N,/DIO5*%
X128142500Y-99921875D03*
X138977500Y-109690500D03*
X138977500Y-103505000D03*
X134569200Y-109690500D03*
%TO.N,Net-(J4-D+)*%
X123519000Y-78105000D03*
X122090500Y-76472687D03*
%TO.N,Net-(U2-PB4)*%
X144961500Y-113284000D03*
X144907000Y-96432500D03*
%TD*%
D23*
%TO.N,/DEBUG_SWO*%
X137287000Y-82804000D02*
X142991497Y-82804000D01*
X134112000Y-96774000D02*
X134112000Y-85979000D01*
X134112000Y-85979000D02*
X137287000Y-82804000D01*
X142991497Y-82804000D02*
X143002000Y-82793497D01*
D24*
%TO.N,GND*%
X167499500Y-102221500D02*
X168021000Y-102743000D01*
X167499500Y-101573250D02*
X167499500Y-102221500D01*
X167499500Y-101573250D02*
X164999750Y-101573250D01*
X164999750Y-101573250D02*
X164592000Y-101981000D01*
X164570750Y-96033250D02*
X164465000Y-96139000D01*
X167499500Y-96033250D02*
X164570750Y-96033250D01*
X167499500Y-95390500D02*
X168021000Y-94869000D01*
X167499500Y-96033250D02*
X167499500Y-95390500D01*
X167499500Y-96033250D02*
X167499500Y-95236500D01*
X167499500Y-95236500D02*
X167132000Y-94869000D01*
D23*
%TO.N,/UART2_USB_TX*%
X126364500Y-101599500D02*
X126364500Y-87771235D01*
X129558500Y-103544500D02*
X129447502Y-103655498D01*
X129447502Y-103655498D02*
X128420498Y-103655498D01*
X126364500Y-87771235D02*
X126064219Y-87470954D01*
X128420498Y-103655498D02*
X126364500Y-101599500D01*
%TO.N,/UART2_USB_RX*%
X124968000Y-101205272D02*
X124968000Y-89535000D01*
X126339300Y-102576572D02*
X124968000Y-101205272D01*
X124968000Y-89535000D02*
X124841000Y-89408000D01*
X128690500Y-104330498D02*
X128079498Y-104330498D01*
X128079498Y-104330498D02*
X126339300Y-102590300D01*
X126339300Y-102590300D02*
X126339300Y-102576572D01*
%TO.N,/NRST*%
X123965675Y-100832825D02*
X123965675Y-116572325D01*
X124214500Y-100584000D02*
X123965675Y-100832825D01*
X123965675Y-116572325D02*
X123825000Y-116713000D01*
%TO.N,/CAN_STBY*%
X127889000Y-86562000D02*
X128143000Y-86308000D01*
X127039000Y-99949000D02*
X127889000Y-99099000D01*
X127889000Y-99099000D02*
X127889000Y-86562000D01*
%TO.N,Net-(U2-PA1)*%
X130233000Y-103055000D02*
X130233000Y-107283500D01*
X130048000Y-102870000D02*
X130233000Y-103055000D01*
X128842888Y-102870000D02*
X130048000Y-102870000D01*
X128816444Y-102896444D02*
X128842888Y-102870000D01*
X130233000Y-107283500D02*
X134239000Y-111289500D01*
%TO.N,/SX_RESET*%
X142835500Y-95377000D02*
X142792465Y-95420035D01*
X142792465Y-95420035D02*
X142792465Y-104473500D01*
%TO.N,/NRST*%
X132842000Y-85852000D02*
X132842000Y-92329000D01*
X142980994Y-81915000D02*
X136779000Y-81915000D01*
X136779000Y-81915000D02*
X132842000Y-85852000D01*
X143002000Y-81893994D02*
X142980994Y-81915000D01*
X124214500Y-100584000D02*
X124293500Y-100505000D01*
X153670000Y-83389998D02*
X153638000Y-83421998D01*
X124293500Y-100505000D02*
X124293500Y-92456000D01*
X153638000Y-83421998D02*
X153638000Y-85820500D01*
%TO.N,/BOOT0*%
X141732000Y-110363000D02*
X141732000Y-95377000D01*
X141732000Y-93764953D02*
X141732000Y-95377000D01*
X141192965Y-93225918D02*
X141732000Y-93764953D01*
%TO.N,/SPI1_SCK*%
X155321000Y-109347000D02*
X155321000Y-112014000D01*
%TO.N,/SPI1_MISO*%
X151384000Y-108164500D02*
X151384000Y-112014000D01*
%TO.N,/SPI1_MOSI*%
X153416000Y-112014000D02*
X153416000Y-107442000D01*
X153416000Y-107442000D02*
X153289000Y-107315000D01*
%TO.N,/DIO0*%
X153416000Y-105664000D02*
X153416000Y-101092000D01*
%TO.N,/DIO1*%
X151257000Y-105322500D02*
X151257000Y-101092000D01*
%TO.N,/CAN_RX*%
X137668000Y-99568000D02*
X137668000Y-94392302D01*
X137668000Y-94392302D02*
X140500700Y-91559602D01*
%TO.N,/CAN_TX*%
X136906000Y-98627500D02*
X136906000Y-91694000D01*
X136906000Y-91694000D02*
X136779000Y-91567000D01*
%TO.N,/DIO2*%
X143510000Y-94615000D02*
X143510000Y-99060000D01*
%TO.N,/DIO3*%
X140629000Y-101981000D02*
X140629000Y-93932500D01*
X140629000Y-93932500D02*
X140589000Y-93892500D01*
%TO.N,/DEBUG_SWCLK*%
X137668000Y-83693000D02*
X135001000Y-86360000D01*
X143002000Y-83693000D02*
X137668000Y-83693000D01*
X135001000Y-98914500D02*
X135019500Y-98933000D01*
X135001000Y-86360000D02*
X135001000Y-98914500D01*
%TO.N,/DEBUG_SWDIO*%
X136017000Y-98044000D02*
X136017000Y-86741000D01*
X138303000Y-84455000D02*
X145415000Y-84455000D01*
X136017000Y-86741000D02*
X138303000Y-84455000D01*
%TO.N,Net-(U2-PA10)*%
X137636109Y-100553780D02*
X137636109Y-100615891D01*
X135260899Y-112003649D02*
X135763000Y-112505750D01*
X137636109Y-100615891D02*
X135260899Y-102991101D01*
X135260899Y-102991101D02*
X135260899Y-112003649D01*
%TO.N,Net-(U2-PA9)*%
X135929083Y-111119833D02*
X137287000Y-112477750D01*
X135929083Y-103465917D02*
X135929083Y-111119833D01*
X137922000Y-101473000D02*
X135929083Y-103465917D01*
%TO.N,Net-(U3-OVLO)*%
X116078000Y-101727000D02*
X116078000Y-101148959D01*
X115062000Y-90424000D02*
X114300000Y-89662000D01*
X115062000Y-100132959D02*
X115062000Y-90424000D01*
X116078000Y-101148959D02*
X115062000Y-100132959D01*
%TO.N,/DIO4*%
X138684000Y-97663000D02*
X138684000Y-101941500D01*
X157226000Y-103036500D02*
X157226000Y-101092000D01*
X138684000Y-101941500D02*
X139827000Y-103084500D01*
X157138500Y-103124000D02*
X157226000Y-103036500D01*
%TO.N,/DIO5*%
X138938000Y-103544500D02*
X138938000Y-109651000D01*
X130020875Y-99921875D02*
X130683000Y-100584000D01*
X138977500Y-103505000D02*
X138938000Y-103544500D01*
X134074500Y-109690500D02*
X134569200Y-109690500D01*
X138938000Y-109651000D02*
X138977500Y-109690500D01*
X128142500Y-99921875D02*
X130020875Y-99921875D01*
X130683000Y-100584000D02*
X130683000Y-106299000D01*
X130683000Y-106299000D02*
X134074500Y-109690500D01*
D25*
%TO.N,Net-(J4-D+)*%
X123519000Y-77901187D02*
X122090500Y-76472687D01*
X123519000Y-78105000D02*
X123519000Y-77901187D01*
D23*
%TO.N,Net-(U2-PB4)*%
X144961500Y-113284000D02*
X145071000Y-113174500D01*
X145071000Y-96596500D02*
X144907000Y-96432500D01*
X145071000Y-113174500D02*
X145071000Y-96596500D01*
%TD*%
%TA.AperFunction,Conductor*%
%TO.N,GND*%
G36*
X99911329Y-71050185D02*
G01*
X99957084Y-71102989D01*
X99967028Y-71172147D01*
X99938003Y-71235703D01*
X99887623Y-71270682D01*
X99812579Y-71298671D01*
X99812575Y-71298673D01*
X99567081Y-71432723D01*
X99567073Y-71432728D01*
X99343156Y-71600350D01*
X99343138Y-71600366D01*
X99145366Y-71798138D01*
X99145350Y-71798156D01*
X98977728Y-72022073D01*
X98977723Y-72022081D01*
X98843673Y-72267575D01*
X98843671Y-72267579D01*
X98745917Y-72529671D01*
X98686460Y-72802986D01*
X98666505Y-73081998D01*
X98666505Y-73082001D01*
X98686460Y-73361013D01*
X98745917Y-73634328D01*
X98745919Y-73634335D01*
X98806611Y-73797059D01*
X98843671Y-73896420D01*
X98843673Y-73896424D01*
X98977723Y-74141918D01*
X98977728Y-74141926D01*
X99145350Y-74365843D01*
X99145366Y-74365861D01*
X99343138Y-74563633D01*
X99343156Y-74563649D01*
X99567073Y-74731271D01*
X99567081Y-74731276D01*
X99812575Y-74865326D01*
X99812579Y-74865328D01*
X99812581Y-74865329D01*
X100074665Y-74963081D01*
X100211328Y-74992810D01*
X100347986Y-75022539D01*
X100347988Y-75022539D01*
X100347992Y-75022540D01*
X100595934Y-75040273D01*
X100626999Y-75042495D01*
X100627000Y-75042495D01*
X100627001Y-75042495D01*
X100654952Y-75040495D01*
X100906008Y-75022540D01*
X101179335Y-74963081D01*
X101441419Y-74865329D01*
X101686924Y-74731273D01*
X101910851Y-74563643D01*
X102108643Y-74365851D01*
X102276273Y-74141924D01*
X102400729Y-73914000D01*
X113198341Y-73914000D01*
X113218936Y-74149403D01*
X113218938Y-74149413D01*
X113280094Y-74377655D01*
X113280096Y-74377659D01*
X113280097Y-74377663D01*
X113288688Y-74396086D01*
X113379964Y-74591828D01*
X113379965Y-74591830D01*
X113515505Y-74785402D01*
X113682597Y-74952494D01*
X113876169Y-75088034D01*
X113876171Y-75088035D01*
X114090337Y-75187903D01*
X114318592Y-75249063D01*
X114495034Y-75264500D01*
X114612966Y-75264500D01*
X114789408Y-75249063D01*
X115017663Y-75187903D01*
X115231829Y-75088035D01*
X115425401Y-74952495D01*
X115592495Y-74785401D01*
X115728035Y-74591830D01*
X115827903Y-74377663D01*
X115889063Y-74149408D01*
X115909659Y-73914000D01*
X166030341Y-73914000D01*
X166050936Y-74149403D01*
X166050938Y-74149413D01*
X166112094Y-74377655D01*
X166112096Y-74377659D01*
X166112097Y-74377663D01*
X166120688Y-74396086D01*
X166211964Y-74591828D01*
X166211965Y-74591830D01*
X166347505Y-74785402D01*
X166514597Y-74952494D01*
X166708169Y-75088034D01*
X166708171Y-75088035D01*
X166922337Y-75187903D01*
X167150592Y-75249063D01*
X167327034Y-75264500D01*
X167444966Y-75264500D01*
X167621408Y-75249063D01*
X167849663Y-75187903D01*
X168063829Y-75088035D01*
X168257401Y-74952495D01*
X168424495Y-74785401D01*
X168560035Y-74591830D01*
X168659903Y-74377663D01*
X168721063Y-74149408D01*
X168741659Y-73914000D01*
X168721063Y-73678592D01*
X168659903Y-73450337D01*
X168560035Y-73236171D01*
X168560034Y-73236169D01*
X168424494Y-73042597D01*
X168257402Y-72875505D01*
X168063830Y-72739965D01*
X168063828Y-72739964D01*
X167956746Y-72690031D01*
X167849663Y-72640097D01*
X167849659Y-72640096D01*
X167849655Y-72640094D01*
X167621413Y-72578938D01*
X167621403Y-72578936D01*
X167444966Y-72563500D01*
X167327034Y-72563500D01*
X167150596Y-72578936D01*
X167150586Y-72578938D01*
X166922344Y-72640094D01*
X166922335Y-72640098D01*
X166708171Y-72739964D01*
X166708169Y-72739965D01*
X166514597Y-72875505D01*
X166347506Y-73042597D01*
X166347501Y-73042604D01*
X166211967Y-73236165D01*
X166211965Y-73236169D01*
X166112098Y-73450335D01*
X166112094Y-73450344D01*
X166050938Y-73678586D01*
X166050936Y-73678596D01*
X166030341Y-73913999D01*
X166030341Y-73914000D01*
X115909659Y-73914000D01*
X115889063Y-73678592D01*
X115827903Y-73450337D01*
X115728035Y-73236171D01*
X115728034Y-73236169D01*
X115592494Y-73042597D01*
X115565968Y-73016071D01*
X117994500Y-73016071D01*
X118009750Y-73141667D01*
X118069642Y-73299589D01*
X118069643Y-73299590D01*
X118165588Y-73438590D01*
X118292007Y-73550588D01*
X118292009Y-73550589D01*
X118441561Y-73629080D01*
X118523555Y-73649289D01*
X118605550Y-73669500D01*
X118605551Y-73669500D01*
X118774450Y-73669500D01*
X118829112Y-73656026D01*
X118938439Y-73629080D01*
X119087991Y-73550589D01*
X119214413Y-73438589D01*
X119310358Y-73299589D01*
X119370250Y-73141666D01*
X119385500Y-73016071D01*
X124994500Y-73016071D01*
X125009750Y-73141667D01*
X125069642Y-73299589D01*
X125069643Y-73299590D01*
X125165588Y-73438590D01*
X125292007Y-73550588D01*
X125292009Y-73550589D01*
X125441561Y-73629080D01*
X125523555Y-73649290D01*
X125605550Y-73669500D01*
X125605551Y-73669500D01*
X125774450Y-73669500D01*
X125829112Y-73656026D01*
X125938439Y-73629080D01*
X126087991Y-73550589D01*
X126214413Y-73438589D01*
X126310358Y-73299589D01*
X126370250Y-73141666D01*
X126385500Y-73016069D01*
X126385500Y-72271931D01*
X126370250Y-72146334D01*
X126310358Y-71988411D01*
X126214413Y-71849411D01*
X126214411Y-71849409D01*
X126087992Y-71737411D01*
X125938437Y-71658919D01*
X125774450Y-71618500D01*
X125774449Y-71618500D01*
X125605551Y-71618500D01*
X125605550Y-71618500D01*
X125441562Y-71658919D01*
X125292007Y-71737411D01*
X125165588Y-71849409D01*
X125069643Y-71988409D01*
X125069642Y-71988410D01*
X125009750Y-72146332D01*
X124994500Y-72271928D01*
X124994500Y-73016071D01*
X119385500Y-73016071D01*
X119385500Y-73016069D01*
X119385500Y-72271931D01*
X119370250Y-72146334D01*
X119310358Y-71988411D01*
X119214413Y-71849411D01*
X119214411Y-71849409D01*
X119087992Y-71737411D01*
X118938437Y-71658919D01*
X118774450Y-71618500D01*
X118774449Y-71618500D01*
X118605551Y-71618500D01*
X118605550Y-71618500D01*
X118441562Y-71658919D01*
X118292007Y-71737411D01*
X118165588Y-71849409D01*
X118069643Y-71988409D01*
X118069642Y-71988410D01*
X118009750Y-72146332D01*
X117994500Y-72271928D01*
X117994500Y-73016071D01*
X115565968Y-73016071D01*
X115425402Y-72875505D01*
X115231830Y-72739965D01*
X115231828Y-72739964D01*
X115124745Y-72690031D01*
X115017663Y-72640097D01*
X115017659Y-72640096D01*
X115017655Y-72640094D01*
X114789413Y-72578938D01*
X114789403Y-72578936D01*
X114612966Y-72563500D01*
X114495034Y-72563500D01*
X114318596Y-72578936D01*
X114318586Y-72578938D01*
X114090344Y-72640094D01*
X114090335Y-72640098D01*
X113876171Y-72739964D01*
X113876169Y-72739965D01*
X113682597Y-72875505D01*
X113515506Y-73042597D01*
X113515501Y-73042604D01*
X113379967Y-73236165D01*
X113379965Y-73236169D01*
X113280098Y-73450335D01*
X113280094Y-73450344D01*
X113218938Y-73678586D01*
X113218936Y-73678596D01*
X113198341Y-73913999D01*
X113198341Y-73914000D01*
X102400729Y-73914000D01*
X102410329Y-73896419D01*
X102508081Y-73634335D01*
X102567540Y-73361008D01*
X102587495Y-73082000D01*
X102567540Y-72802992D01*
X102508081Y-72529665D01*
X102410329Y-72267581D01*
X102276273Y-72022076D01*
X102251070Y-71988409D01*
X102108649Y-71798156D01*
X102108633Y-71798138D01*
X101910861Y-71600366D01*
X101910843Y-71600350D01*
X101686926Y-71432728D01*
X101686918Y-71432723D01*
X101441424Y-71298673D01*
X101441420Y-71298671D01*
X101366377Y-71270682D01*
X101310443Y-71228811D01*
X101286026Y-71163346D01*
X101300878Y-71095073D01*
X101350283Y-71045668D01*
X101409710Y-71030500D01*
X170024500Y-71030500D01*
X170091539Y-71050185D01*
X170137294Y-71102989D01*
X170148500Y-71154500D01*
X170148500Y-118149500D01*
X170128815Y-118216539D01*
X170076011Y-118262294D01*
X170024500Y-118273500D01*
X98264500Y-118273500D01*
X98197461Y-118253815D01*
X98151706Y-118201011D01*
X98140500Y-118149500D01*
X98140500Y-115570000D01*
X113198341Y-115570000D01*
X113218936Y-115805403D01*
X113218938Y-115805413D01*
X113280094Y-116033655D01*
X113280096Y-116033659D01*
X113280097Y-116033663D01*
X113300587Y-116077604D01*
X113379964Y-116247828D01*
X113379965Y-116247830D01*
X113515505Y-116441402D01*
X113682597Y-116608494D01*
X113876169Y-116744034D01*
X113876171Y-116744035D01*
X114090337Y-116843903D01*
X114318592Y-116905063D01*
X114495034Y-116920500D01*
X114612966Y-116920500D01*
X114789408Y-116905063D01*
X115017663Y-116843903D01*
X115231829Y-116744035D01*
X115276150Y-116713001D01*
X123219318Y-116713001D01*
X123239955Y-116869760D01*
X123239956Y-116869762D01*
X123267468Y-116936183D01*
X123300464Y-117015841D01*
X123396718Y-117141282D01*
X123522159Y-117237536D01*
X123668238Y-117298044D01*
X123746618Y-117308362D01*
X123824999Y-117318682D01*
X123825000Y-117318682D01*
X123825001Y-117318682D01*
X123877253Y-117311802D01*
X123981762Y-117298044D01*
X124127841Y-117237536D01*
X124253282Y-117141282D01*
X124349536Y-117015841D01*
X124410044Y-116869762D01*
X124430682Y-116713000D01*
X124410044Y-116556238D01*
X124383873Y-116493055D01*
X127974500Y-116493055D01*
X128015210Y-116658226D01*
X128094263Y-116808849D01*
X128094266Y-116808852D01*
X128207071Y-116936183D01*
X128297318Y-116998476D01*
X128347068Y-117032817D01*
X128347069Y-117032817D01*
X128347070Y-117032818D01*
X128506128Y-117093140D01*
X128582028Y-117102356D01*
X128632626Y-117108500D01*
X128632628Y-117108500D01*
X128717374Y-117108500D01*
X128759538Y-117103380D01*
X128843872Y-117093140D01*
X129002930Y-117032818D01*
X129142929Y-116936183D01*
X129255734Y-116808852D01*
X129289754Y-116744034D01*
X129306041Y-116713001D01*
X129334790Y-116658225D01*
X129375500Y-116493056D01*
X129375500Y-116493055D01*
X130974500Y-116493055D01*
X131015210Y-116658226D01*
X131094263Y-116808849D01*
X131094266Y-116808852D01*
X131207071Y-116936183D01*
X131297318Y-116998476D01*
X131347068Y-117032817D01*
X131347069Y-117032817D01*
X131347070Y-117032818D01*
X131506128Y-117093140D01*
X131582028Y-117102356D01*
X131632626Y-117108500D01*
X131632628Y-117108500D01*
X131717374Y-117108500D01*
X131759538Y-117103380D01*
X131843872Y-117093140D01*
X132002930Y-117032818D01*
X132142929Y-116936183D01*
X132255734Y-116808852D01*
X132289754Y-116744034D01*
X132306041Y-116713001D01*
X132334790Y-116658225D01*
X132375500Y-116493056D01*
X132375500Y-116322944D01*
X132334790Y-116157775D01*
X132292713Y-116077604D01*
X132255736Y-116007150D01*
X132236560Y-115985505D01*
X132142929Y-115879817D01*
X132093177Y-115845475D01*
X132002931Y-115783182D01*
X131843874Y-115722860D01*
X131843868Y-115722859D01*
X131717374Y-115707500D01*
X131717372Y-115707500D01*
X131632628Y-115707500D01*
X131632626Y-115707500D01*
X131506131Y-115722859D01*
X131506125Y-115722860D01*
X131347068Y-115783182D01*
X131207072Y-115879816D01*
X131094263Y-116007150D01*
X131015210Y-116157773D01*
X130974500Y-116322944D01*
X130974500Y-116493055D01*
X129375500Y-116493055D01*
X129375500Y-116322944D01*
X129334790Y-116157775D01*
X129292713Y-116077604D01*
X129255736Y-116007150D01*
X129236560Y-115985505D01*
X129142929Y-115879817D01*
X129093177Y-115845475D01*
X129002931Y-115783182D01*
X128843874Y-115722860D01*
X128843868Y-115722859D01*
X128717374Y-115707500D01*
X128717372Y-115707500D01*
X128632628Y-115707500D01*
X128632626Y-115707500D01*
X128506131Y-115722859D01*
X128506125Y-115722860D01*
X128347068Y-115783182D01*
X128207072Y-115879816D01*
X128094263Y-116007150D01*
X128015210Y-116157773D01*
X127974500Y-116322944D01*
X127974500Y-116493055D01*
X124383873Y-116493055D01*
X124350614Y-116412760D01*
X124341175Y-116365308D01*
X124341175Y-115570000D01*
X166030341Y-115570000D01*
X166050936Y-115805403D01*
X166050938Y-115805413D01*
X166112094Y-116033655D01*
X166112096Y-116033659D01*
X166112097Y-116033663D01*
X166132587Y-116077604D01*
X166211964Y-116247828D01*
X166211965Y-116247830D01*
X166347505Y-116441402D01*
X166514597Y-116608494D01*
X166708169Y-116744034D01*
X166708171Y-116744035D01*
X166922337Y-116843903D01*
X167150592Y-116905063D01*
X167327034Y-116920500D01*
X167444966Y-116920500D01*
X167621408Y-116905063D01*
X167849663Y-116843903D01*
X168063829Y-116744035D01*
X168257401Y-116608495D01*
X168424495Y-116441401D01*
X168560035Y-116247830D01*
X168659903Y-116033663D01*
X168721063Y-115805408D01*
X168741659Y-115570000D01*
X168721063Y-115334592D01*
X168659903Y-115106337D01*
X168560035Y-114892171D01*
X168560034Y-114892169D01*
X168424494Y-114698597D01*
X168257402Y-114531505D01*
X168063830Y-114395965D01*
X168063828Y-114395964D01*
X167956745Y-114346031D01*
X167849663Y-114296097D01*
X167849659Y-114296096D01*
X167849655Y-114296094D01*
X167621413Y-114234938D01*
X167621403Y-114234936D01*
X167444966Y-114219500D01*
X167327034Y-114219500D01*
X167150596Y-114234936D01*
X167150586Y-114234938D01*
X166922344Y-114296094D01*
X166922335Y-114296098D01*
X166708171Y-114395964D01*
X166708169Y-114395965D01*
X166514597Y-114531505D01*
X166347506Y-114698597D01*
X166347501Y-114698604D01*
X166211967Y-114892165D01*
X166211965Y-114892169D01*
X166112098Y-115106335D01*
X166112094Y-115106344D01*
X166050938Y-115334586D01*
X166050936Y-115334596D01*
X166030341Y-115569999D01*
X166030341Y-115570000D01*
X124341175Y-115570000D01*
X124341175Y-113538000D01*
X132313721Y-113538000D01*
X132332762Y-113694818D01*
X132375890Y-113808536D01*
X132388780Y-113842523D01*
X132478517Y-113972530D01*
X132596760Y-114077283D01*
X132596762Y-114077284D01*
X132736634Y-114150696D01*
X132890014Y-114188500D01*
X132890015Y-114188500D01*
X133047985Y-114188500D01*
X133201365Y-114150696D01*
X133341240Y-114077283D01*
X133459483Y-113972530D01*
X133549220Y-113842523D01*
X133605237Y-113694818D01*
X133624278Y-113538000D01*
X133605237Y-113381182D01*
X133549220Y-113233477D01*
X133459483Y-113103470D01*
X133341240Y-112998717D01*
X133341238Y-112998716D01*
X133341237Y-112998715D01*
X133201365Y-112925303D01*
X133047986Y-112887500D01*
X133047985Y-112887500D01*
X132890015Y-112887500D01*
X132890014Y-112887500D01*
X132736634Y-112925303D01*
X132596762Y-112998715D01*
X132543952Y-113045500D01*
X132501136Y-113083432D01*
X132478516Y-113103471D01*
X132388781Y-113233475D01*
X132388780Y-113233476D01*
X132332762Y-113381181D01*
X132313721Y-113537999D01*
X132313721Y-113538000D01*
X124341175Y-113538000D01*
X124341175Y-108712000D01*
X127614721Y-108712000D01*
X127633762Y-108868818D01*
X127689779Y-109016522D01*
X127689780Y-109016523D01*
X127779517Y-109146530D01*
X127897760Y-109251283D01*
X127897762Y-109251284D01*
X128037634Y-109324696D01*
X128191014Y-109362500D01*
X128191015Y-109362500D01*
X128348985Y-109362500D01*
X128502365Y-109324696D01*
X128502364Y-109324695D01*
X128642240Y-109251283D01*
X128760483Y-109146530D01*
X128850220Y-109016523D01*
X128906237Y-108868818D01*
X128925278Y-108712000D01*
X128911200Y-108596052D01*
X128906237Y-108555181D01*
X128869380Y-108457999D01*
X128850220Y-108407477D01*
X128760483Y-108277470D01*
X128642240Y-108172717D01*
X128642238Y-108172716D01*
X128642237Y-108172715D01*
X128502365Y-108099303D01*
X128348986Y-108061500D01*
X128348985Y-108061500D01*
X128191015Y-108061500D01*
X128191014Y-108061500D01*
X128037634Y-108099303D01*
X127897762Y-108172715D01*
X127779516Y-108277471D01*
X127689781Y-108407475D01*
X127689780Y-108407476D01*
X127633762Y-108555181D01*
X127614721Y-108711999D01*
X127614721Y-108712000D01*
X124341175Y-108712000D01*
X124341175Y-104374222D01*
X124360860Y-104307183D01*
X124413664Y-104261428D01*
X124482822Y-104251484D01*
X124494843Y-104253823D01*
X124611190Y-104282500D01*
X124769160Y-104282500D01*
X124922540Y-104244696D01*
X124922539Y-104244696D01*
X125062415Y-104171283D01*
X125180658Y-104066530D01*
X125270395Y-103936523D01*
X125326412Y-103788818D01*
X125345453Y-103632000D01*
X125338954Y-103578471D01*
X125326412Y-103475181D01*
X125305167Y-103419164D01*
X125270395Y-103327477D01*
X125180658Y-103197470D01*
X125062415Y-103092717D01*
X125062413Y-103092716D01*
X125062412Y-103092715D01*
X124922540Y-103019303D01*
X124769161Y-102981500D01*
X124769160Y-102981500D01*
X124611190Y-102981500D01*
X124611189Y-102981500D01*
X124494849Y-103010174D01*
X124425047Y-103007104D01*
X124367985Y-102966784D01*
X124341780Y-102902015D01*
X124341175Y-102889777D01*
X124341175Y-101264360D01*
X124360860Y-101197321D01*
X124413664Y-101151566D01*
X124417701Y-101149808D01*
X124423599Y-101147364D01*
X124493068Y-101139899D01*
X124555546Y-101171176D01*
X124591196Y-101231267D01*
X124593356Y-101241518D01*
X124595864Y-101256550D01*
X124596342Y-101259411D01*
X124603134Y-101313899D01*
X124605373Y-101321419D01*
X124607934Y-101328880D01*
X124607935Y-101328882D01*
X124623905Y-101358393D01*
X124634055Y-101377149D01*
X124658174Y-101426483D01*
X124662742Y-101432881D01*
X124667582Y-101439099D01*
X124707971Y-101476281D01*
X126001711Y-102770020D01*
X126025428Y-102803237D01*
X126029471Y-102811506D01*
X126029472Y-102811508D01*
X126029474Y-102811511D01*
X126029475Y-102811512D01*
X126034041Y-102817908D01*
X126038882Y-102824127D01*
X126079271Y-102861309D01*
X127777347Y-104559384D01*
X127793476Y-104579245D01*
X127799414Y-104588334D01*
X127827427Y-104610137D01*
X127833189Y-104615226D01*
X127835981Y-104618018D01*
X127854984Y-104631586D01*
X127898309Y-104665307D01*
X127898311Y-104665307D01*
X127905233Y-104669053D01*
X127912296Y-104672506D01*
X127912299Y-104672508D01*
X127964910Y-104688171D01*
X127990874Y-104697084D01*
X128016837Y-104705998D01*
X128024599Y-104707293D01*
X128032409Y-104708266D01*
X128032410Y-104708267D01*
X128032410Y-104708266D01*
X128032411Y-104708267D01*
X128059838Y-104707132D01*
X128087267Y-104705998D01*
X128160567Y-104705998D01*
X128227606Y-104725683D01*
X128258941Y-104754510D01*
X128261828Y-104758272D01*
X128262218Y-104758780D01*
X128387659Y-104855034D01*
X128533738Y-104915542D01*
X128612119Y-104925860D01*
X128690499Y-104936180D01*
X128690500Y-104936180D01*
X128690501Y-104936180D01*
X128742754Y-104929300D01*
X128847262Y-104915542D01*
X128993341Y-104855034D01*
X129118782Y-104758780D01*
X129215036Y-104633339D01*
X129275544Y-104487260D01*
X129296182Y-104330498D01*
X129288490Y-104272073D01*
X129299255Y-104203040D01*
X129345635Y-104150784D01*
X129412904Y-104131898D01*
X129427602Y-104132949D01*
X129558500Y-104150182D01*
X129715262Y-104129544D01*
X129715265Y-104129542D01*
X129717314Y-104129273D01*
X129786350Y-104140038D01*
X129838606Y-104186418D01*
X129857500Y-104252212D01*
X129857500Y-107231696D01*
X129854862Y-107257134D01*
X129852633Y-107267768D01*
X129852633Y-107267769D01*
X129852633Y-107267771D01*
X129857023Y-107302991D01*
X129857500Y-107310667D01*
X129857500Y-107314616D01*
X129861342Y-107337641D01*
X129868134Y-107392127D01*
X129870373Y-107399647D01*
X129872934Y-107407108D01*
X129872935Y-107407110D01*
X129890529Y-107439621D01*
X129899055Y-107455377D01*
X129923174Y-107504711D01*
X129927742Y-107511109D01*
X129932582Y-107517327D01*
X129972971Y-107554509D01*
X130298803Y-107880341D01*
X130332288Y-107941664D01*
X130327304Y-108011356D01*
X130285432Y-108067289D01*
X130240797Y-108088419D01*
X130196633Y-108099304D01*
X130056762Y-108172715D01*
X129938516Y-108277471D01*
X129848781Y-108407475D01*
X129848780Y-108407476D01*
X129792762Y-108555181D01*
X129773721Y-108711999D01*
X129773721Y-108712000D01*
X129792762Y-108868818D01*
X129848779Y-109016522D01*
X129848780Y-109016523D01*
X129938517Y-109146530D01*
X130056760Y-109251283D01*
X130056762Y-109251284D01*
X130196634Y-109324696D01*
X130350014Y-109362500D01*
X130350015Y-109362500D01*
X130507985Y-109362500D01*
X130661365Y-109324696D01*
X130661365Y-109324695D01*
X130801240Y-109251283D01*
X130919483Y-109146530D01*
X131009220Y-109016523D01*
X131058283Y-108887151D01*
X131100461Y-108831450D01*
X131166058Y-108807393D01*
X131234249Y-108822620D01*
X131261906Y-108843443D01*
X133598762Y-111180299D01*
X133632247Y-111241622D01*
X133634021Y-111284162D01*
X133633318Y-111289502D01*
X133653955Y-111446260D01*
X133653956Y-111446262D01*
X133711720Y-111585718D01*
X133714464Y-111592341D01*
X133810718Y-111717782D01*
X133936159Y-111814036D01*
X134082238Y-111874544D01*
X134126590Y-111880383D01*
X134238999Y-111895182D01*
X134239000Y-111895182D01*
X134239001Y-111895182D01*
X134291254Y-111888302D01*
X134395762Y-111874544D01*
X134541841Y-111814036D01*
X134667282Y-111717782D01*
X134667285Y-111717777D01*
X134673029Y-111712035D01*
X134675336Y-111714342D01*
X134719446Y-111682131D01*
X134789192Y-111677973D01*
X134850114Y-111712183D01*
X134882869Y-111773899D01*
X134885399Y-111798818D01*
X134885399Y-111951845D01*
X134882761Y-111977283D01*
X134880532Y-111987917D01*
X134880532Y-111987918D01*
X134880532Y-111987920D01*
X134884922Y-112023140D01*
X134885399Y-112030816D01*
X134885399Y-112034765D01*
X134889241Y-112057790D01*
X134896033Y-112112276D01*
X134898272Y-112119796D01*
X134900833Y-112127257D01*
X134900834Y-112127259D01*
X134908270Y-112141000D01*
X134926954Y-112175526D01*
X134951073Y-112224860D01*
X134955641Y-112231258D01*
X134960481Y-112237476D01*
X135000870Y-112274658D01*
X135043052Y-112316839D01*
X135122763Y-112396550D01*
X135156247Y-112457871D01*
X135158021Y-112500412D01*
X135157318Y-112505752D01*
X135177955Y-112662510D01*
X135177956Y-112662512D01*
X135211793Y-112744203D01*
X135238464Y-112808591D01*
X135334718Y-112934032D01*
X135460159Y-113030286D01*
X135606238Y-113090794D01*
X135684619Y-113101112D01*
X135762999Y-113111432D01*
X135763000Y-113111432D01*
X135763001Y-113111432D01*
X135823478Y-113103470D01*
X135919762Y-113090794D01*
X136065841Y-113030286D01*
X136191282Y-112934032D01*
X136287536Y-112808591D01*
X136348044Y-112662512D01*
X136368682Y-112505750D01*
X136353400Y-112389672D01*
X136364165Y-112320638D01*
X136410545Y-112268382D01*
X136477814Y-112249497D01*
X136544615Y-112269978D01*
X136564020Y-112285807D01*
X136646762Y-112368549D01*
X136680247Y-112429872D01*
X136682020Y-112472410D01*
X136681318Y-112477750D01*
X136681318Y-112477752D01*
X136701955Y-112634510D01*
X136701956Y-112634512D01*
X136747391Y-112744203D01*
X136762464Y-112780591D01*
X136858718Y-112906032D01*
X136984159Y-113002286D01*
X137130238Y-113062794D01*
X137208619Y-113073112D01*
X137286999Y-113083432D01*
X137287000Y-113083432D01*
X137287001Y-113083432D01*
X137339254Y-113076552D01*
X137443762Y-113062794D01*
X137589841Y-113002286D01*
X137715282Y-112906032D01*
X137811536Y-112780591D01*
X137872044Y-112634512D01*
X137885802Y-112530004D01*
X137892682Y-112477751D01*
X137892682Y-112477748D01*
X137872044Y-112320989D01*
X137872044Y-112320988D01*
X137811536Y-112174909D01*
X137785517Y-112141000D01*
X140060722Y-112141000D01*
X140079762Y-112297818D01*
X140116619Y-112395000D01*
X140135780Y-112445523D01*
X140225517Y-112575530D01*
X140343760Y-112680283D01*
X140343762Y-112680284D01*
X140483634Y-112753696D01*
X140637014Y-112791500D01*
X140637015Y-112791500D01*
X140794985Y-112791500D01*
X140948365Y-112753696D01*
X140980018Y-112737083D01*
X141088240Y-112680283D01*
X141206483Y-112575530D01*
X141296220Y-112445523D01*
X141352237Y-112297818D01*
X141371278Y-112141000D01*
X141369610Y-112127258D01*
X141352237Y-111984181D01*
X141317544Y-111892705D01*
X141296220Y-111836477D01*
X141206483Y-111706470D01*
X141088240Y-111601717D01*
X141088238Y-111601716D01*
X141088237Y-111601715D01*
X140948365Y-111528303D01*
X140794986Y-111490500D01*
X140794985Y-111490500D01*
X140637015Y-111490500D01*
X140637014Y-111490500D01*
X140483634Y-111528303D01*
X140343762Y-111601715D01*
X140225516Y-111706471D01*
X140135781Y-111836475D01*
X140135780Y-111836476D01*
X140079762Y-111984181D01*
X140060722Y-112140999D01*
X140060722Y-112141000D01*
X137785517Y-112141000D01*
X137715282Y-112049468D01*
X137589841Y-111953214D01*
X137443762Y-111892706D01*
X137443760Y-111892705D01*
X137287002Y-111872068D01*
X137286997Y-111872068D01*
X137281664Y-111872770D01*
X137212629Y-111862004D01*
X137177800Y-111837512D01*
X136340902Y-111000614D01*
X136307417Y-110939291D01*
X136304583Y-110912933D01*
X136304583Y-104755222D01*
X136324268Y-104688183D01*
X136377072Y-104642428D01*
X136446230Y-104632484D01*
X136458251Y-104634823D01*
X136574598Y-104663500D01*
X136732568Y-104663500D01*
X136885948Y-104625696D01*
X136905881Y-104615234D01*
X137025823Y-104552283D01*
X137144066Y-104447530D01*
X137233803Y-104317523D01*
X137289820Y-104169818D01*
X137308861Y-104013000D01*
X137307780Y-104004092D01*
X137289820Y-103856181D01*
X137244233Y-103735979D01*
X137233803Y-103708477D01*
X137144066Y-103578470D01*
X137025823Y-103473717D01*
X137025821Y-103473716D01*
X137025820Y-103473715D01*
X136885949Y-103400304D01*
X136810429Y-103381690D01*
X136750048Y-103346533D01*
X136718260Y-103284314D01*
X136725156Y-103214785D01*
X136752421Y-103173614D01*
X137812800Y-102113235D01*
X137874121Y-102079752D01*
X137916668Y-102077980D01*
X137922000Y-102078682D01*
X137922001Y-102078682D01*
X137987962Y-102069998D01*
X138078762Y-102058044D01*
X138172624Y-102019164D01*
X138242091Y-102011696D01*
X138304570Y-102042971D01*
X138329131Y-102074711D01*
X138350055Y-102113377D01*
X138374174Y-102162711D01*
X138378742Y-102169109D01*
X138383582Y-102175327D01*
X138423971Y-102212509D01*
X138917475Y-102706012D01*
X138950960Y-102767335D01*
X138945976Y-102837026D01*
X138904105Y-102892960D01*
X138845983Y-102916632D01*
X138820737Y-102919956D01*
X138674660Y-102980463D01*
X138549218Y-103076718D01*
X138452963Y-103202160D01*
X138392456Y-103348237D01*
X138392455Y-103348239D01*
X138371818Y-103504998D01*
X138371818Y-103505001D01*
X138392455Y-103661760D01*
X138392456Y-103661762D01*
X138452964Y-103807842D01*
X138536876Y-103917198D01*
X138562070Y-103982367D01*
X138562500Y-103992684D01*
X138562500Y-109202815D01*
X138542815Y-109269854D01*
X138536876Y-109278301D01*
X138452964Y-109387657D01*
X138392456Y-109533737D01*
X138392455Y-109533739D01*
X138371818Y-109690498D01*
X138371818Y-109690501D01*
X138392455Y-109847260D01*
X138392456Y-109847262D01*
X138452236Y-109991585D01*
X138452964Y-109993341D01*
X138549218Y-110118782D01*
X138674659Y-110215036D01*
X138820738Y-110275544D01*
X138899118Y-110285862D01*
X138977499Y-110296182D01*
X138977500Y-110296182D01*
X138977501Y-110296182D01*
X139029753Y-110289302D01*
X139134262Y-110275544D01*
X139280341Y-110215036D01*
X139405782Y-110118782D01*
X139502036Y-109993341D01*
X139562544Y-109847262D01*
X139583182Y-109690500D01*
X139578050Y-109651521D01*
X139562544Y-109533739D01*
X139562544Y-109533738D01*
X139502036Y-109387659D01*
X139405782Y-109262218D01*
X139405780Y-109262216D01*
X139405779Y-109262215D01*
X139362012Y-109228631D01*
X139320810Y-109172202D01*
X139313500Y-109130256D01*
X139313500Y-104065241D01*
X139333185Y-103998202D01*
X139362010Y-103966868D01*
X139405782Y-103933282D01*
X139502036Y-103807841D01*
X139528786Y-103743259D01*
X139572626Y-103688856D01*
X139638920Y-103666791D01*
X139662056Y-103669419D01*
X139662180Y-103668483D01*
X139670237Y-103669543D01*
X139670238Y-103669544D01*
X139749894Y-103680030D01*
X139826999Y-103690182D01*
X139827000Y-103690182D01*
X139827001Y-103690182D01*
X139879254Y-103683302D01*
X139983762Y-103669544D01*
X140129841Y-103609036D01*
X140255282Y-103512782D01*
X140351536Y-103387341D01*
X140412044Y-103241262D01*
X140431600Y-103092717D01*
X140432682Y-103084501D01*
X140432682Y-103084498D01*
X140414586Y-102947044D01*
X140412044Y-102927738D01*
X140351536Y-102781659D01*
X140351535Y-102781658D01*
X140351535Y-102781657D01*
X140334404Y-102759332D01*
X140309209Y-102694163D01*
X140323247Y-102625718D01*
X140372060Y-102575728D01*
X140440152Y-102560064D01*
X140464872Y-102564070D01*
X140472236Y-102566043D01*
X140472238Y-102566044D01*
X140493970Y-102568905D01*
X140628999Y-102586682D01*
X140629000Y-102586682D01*
X140629001Y-102586682D01*
X140712204Y-102575728D01*
X140785762Y-102566044D01*
X140931841Y-102505536D01*
X141057282Y-102409282D01*
X141134124Y-102309138D01*
X141190552Y-102267936D01*
X141260298Y-102263781D01*
X141321218Y-102297993D01*
X141353971Y-102359711D01*
X141356500Y-102384625D01*
X141356500Y-109833067D01*
X141336815Y-109900106D01*
X141307988Y-109931441D01*
X141303721Y-109934715D01*
X141303719Y-109934716D01*
X141303718Y-109934718D01*
X141270493Y-109978018D01*
X141207463Y-110060160D01*
X141146956Y-110206237D01*
X141146955Y-110206239D01*
X141126318Y-110362998D01*
X141126318Y-110363001D01*
X141146955Y-110519760D01*
X141146956Y-110519762D01*
X141207464Y-110665841D01*
X141303718Y-110791282D01*
X141429159Y-110887536D01*
X141575238Y-110948044D01*
X141653619Y-110958362D01*
X141731999Y-110968682D01*
X141732000Y-110968682D01*
X141732001Y-110968682D01*
X141784254Y-110961802D01*
X141888762Y-110948044D01*
X142034841Y-110887536D01*
X142160282Y-110791282D01*
X142256536Y-110665841D01*
X142317044Y-110519762D01*
X142337682Y-110363000D01*
X142317044Y-110206238D01*
X142256536Y-110060159D01*
X142160282Y-109934718D01*
X142159774Y-109934328D01*
X142156012Y-109931441D01*
X142114810Y-109875013D01*
X142107500Y-109833067D01*
X142107500Y-104932558D01*
X142127185Y-104865519D01*
X142179989Y-104819764D01*
X142249147Y-104809820D01*
X142312703Y-104838845D01*
X142329871Y-104857066D01*
X142364183Y-104901782D01*
X142489624Y-104998036D01*
X142635703Y-105058544D01*
X142714084Y-105068862D01*
X142792464Y-105079182D01*
X142792465Y-105079182D01*
X142792466Y-105079182D01*
X142844719Y-105072302D01*
X142949227Y-105058544D01*
X143095306Y-104998036D01*
X143220747Y-104901782D01*
X143317001Y-104776341D01*
X143377509Y-104630262D01*
X143391909Y-104520882D01*
X143398147Y-104473501D01*
X143398147Y-104473498D01*
X143379321Y-104330499D01*
X143377509Y-104316738D01*
X143317001Y-104170659D01*
X143220747Y-104045218D01*
X143217363Y-104042621D01*
X143216477Y-104041941D01*
X143175275Y-103985513D01*
X143167965Y-103943567D01*
X143167965Y-99753880D01*
X143187650Y-99686841D01*
X143240454Y-99641086D01*
X143309612Y-99631142D01*
X143339412Y-99639317D01*
X143353238Y-99645044D01*
X143431619Y-99655363D01*
X143509999Y-99665682D01*
X143510000Y-99665682D01*
X143510001Y-99665682D01*
X143562254Y-99658802D01*
X143666762Y-99645044D01*
X143812841Y-99584536D01*
X143938282Y-99488282D01*
X144034536Y-99362841D01*
X144095044Y-99216762D01*
X144115682Y-99060000D01*
X144114704Y-99052574D01*
X144095044Y-98903239D01*
X144095044Y-98903238D01*
X144034536Y-98757159D01*
X143938282Y-98631718D01*
X143936252Y-98630160D01*
X143934012Y-98628441D01*
X143892810Y-98572013D01*
X143885500Y-98530067D01*
X143885500Y-96432501D01*
X144301318Y-96432501D01*
X144321955Y-96589260D01*
X144321956Y-96589262D01*
X144358060Y-96676426D01*
X144382464Y-96735341D01*
X144478718Y-96860782D01*
X144604159Y-96957036D01*
X144604160Y-96957036D01*
X144604161Y-96957037D01*
X144618949Y-96963162D01*
X144673354Y-97007001D01*
X144695421Y-97073294D01*
X144695500Y-97077724D01*
X144695500Y-112670044D01*
X144675815Y-112737083D01*
X144646987Y-112768419D01*
X144533220Y-112855716D01*
X144533219Y-112855717D01*
X144533218Y-112855718D01*
X144473126Y-112934032D01*
X144436963Y-112981160D01*
X144376456Y-113127237D01*
X144376455Y-113127239D01*
X144355818Y-113283998D01*
X144355818Y-113284001D01*
X144376455Y-113440760D01*
X144376456Y-113440762D01*
X144436964Y-113586841D01*
X144533218Y-113712282D01*
X144658659Y-113808536D01*
X144804738Y-113869044D01*
X144883118Y-113879363D01*
X144961499Y-113889682D01*
X144961500Y-113889682D01*
X144961501Y-113889682D01*
X145013754Y-113882802D01*
X145118262Y-113869044D01*
X145264341Y-113808536D01*
X145389782Y-113712282D01*
X145486036Y-113586841D01*
X145546544Y-113440762D01*
X145567182Y-113284000D01*
X145560530Y-113233476D01*
X145546544Y-113127239D01*
X145546544Y-113127238D01*
X145486036Y-112981159D01*
X145486035Y-112981158D01*
X145486035Y-112981157D01*
X145472124Y-112963028D01*
X145446930Y-112897859D01*
X145446500Y-112887542D01*
X145446500Y-112014001D01*
X150778318Y-112014001D01*
X150798955Y-112170760D01*
X150798956Y-112170762D01*
X150839391Y-112268382D01*
X150859464Y-112316841D01*
X150955718Y-112442282D01*
X151081159Y-112538536D01*
X151227238Y-112599044D01*
X151305619Y-112609362D01*
X151383999Y-112619682D01*
X151384000Y-112619682D01*
X151384001Y-112619682D01*
X151436254Y-112612802D01*
X151540762Y-112599044D01*
X151686841Y-112538536D01*
X151812282Y-112442282D01*
X151908536Y-112316841D01*
X151969044Y-112170762D01*
X151989682Y-112014000D01*
X151985756Y-111984182D01*
X151973578Y-111891677D01*
X151969044Y-111857238D01*
X151908536Y-111711159D01*
X151812282Y-111585718D01*
X151811774Y-111585328D01*
X151808012Y-111582441D01*
X151766810Y-111526013D01*
X151759500Y-111484067D01*
X151759500Y-108694432D01*
X151779185Y-108627393D01*
X151808015Y-108596055D01*
X151812282Y-108592782D01*
X151908536Y-108467341D01*
X151969044Y-108321262D01*
X151988600Y-108172717D01*
X151989682Y-108164501D01*
X151989682Y-108164498D01*
X151969044Y-108007739D01*
X151969044Y-108007738D01*
X151908536Y-107861659D01*
X151812282Y-107736218D01*
X151686841Y-107639964D01*
X151650427Y-107624881D01*
X151540762Y-107579456D01*
X151540760Y-107579455D01*
X151384001Y-107558818D01*
X151383999Y-107558818D01*
X151227239Y-107579455D01*
X151227237Y-107579456D01*
X151081160Y-107639963D01*
X150955718Y-107736218D01*
X150859463Y-107861660D01*
X150798956Y-108007737D01*
X150798955Y-108007739D01*
X150778318Y-108164498D01*
X150778318Y-108164501D01*
X150798955Y-108321260D01*
X150798956Y-108321262D01*
X150859464Y-108467342D01*
X150955715Y-108592779D01*
X150955716Y-108592780D01*
X150955718Y-108592782D01*
X150959982Y-108596054D01*
X151001187Y-108652478D01*
X151008500Y-108694432D01*
X151008500Y-111484067D01*
X150988815Y-111551106D01*
X150959988Y-111582441D01*
X150955721Y-111585715D01*
X150955719Y-111585716D01*
X150955718Y-111585718D01*
X150943442Y-111601717D01*
X150859463Y-111711160D01*
X150798956Y-111857237D01*
X150798955Y-111857239D01*
X150778318Y-112013998D01*
X150778318Y-112014001D01*
X145446500Y-112014001D01*
X145446500Y-107315001D01*
X152683318Y-107315001D01*
X152703955Y-107471760D01*
X152703956Y-107471762D01*
X152738230Y-107554508D01*
X152764464Y-107617841D01*
X152860718Y-107743282D01*
X152860719Y-107743283D01*
X152991986Y-107844007D01*
X153033189Y-107900435D01*
X153040500Y-107942383D01*
X153040500Y-111484067D01*
X153020815Y-111551106D01*
X152991988Y-111582441D01*
X152987721Y-111585715D01*
X152987719Y-111585716D01*
X152987718Y-111585718D01*
X152975442Y-111601717D01*
X152891463Y-111711160D01*
X152830956Y-111857237D01*
X152830955Y-111857239D01*
X152810318Y-112013998D01*
X152810318Y-112014001D01*
X152830955Y-112170760D01*
X152830956Y-112170762D01*
X152871391Y-112268382D01*
X152891464Y-112316841D01*
X152987718Y-112442282D01*
X153113159Y-112538536D01*
X153259238Y-112599044D01*
X153337619Y-112609362D01*
X153415999Y-112619682D01*
X153416000Y-112619682D01*
X153416001Y-112619682D01*
X153468253Y-112612802D01*
X153572762Y-112599044D01*
X153718841Y-112538536D01*
X153844282Y-112442282D01*
X153940536Y-112316841D01*
X154001044Y-112170762D01*
X154021682Y-112014001D01*
X154715318Y-112014001D01*
X154735955Y-112170760D01*
X154735956Y-112170762D01*
X154776391Y-112268382D01*
X154796464Y-112316841D01*
X154892718Y-112442282D01*
X155018159Y-112538536D01*
X155164238Y-112599044D01*
X155242618Y-112609363D01*
X155320999Y-112619682D01*
X155321000Y-112619682D01*
X155321001Y-112619682D01*
X155373253Y-112612802D01*
X155477762Y-112599044D01*
X155623841Y-112538536D01*
X155749282Y-112442282D01*
X155845536Y-112316841D01*
X155906044Y-112170762D01*
X155926682Y-112014000D01*
X155922756Y-111984182D01*
X155910578Y-111891677D01*
X155906044Y-111857238D01*
X155845536Y-111711159D01*
X155749282Y-111585718D01*
X155748774Y-111585328D01*
X155745012Y-111582441D01*
X155703810Y-111526013D01*
X155696500Y-111484067D01*
X155696500Y-109876932D01*
X155716185Y-109809893D01*
X155745015Y-109778555D01*
X155749282Y-109775282D01*
X155845536Y-109649841D01*
X155906044Y-109503762D01*
X155926682Y-109347000D01*
X155906044Y-109190238D01*
X155845536Y-109044159D01*
X155749282Y-108918718D01*
X155623841Y-108822464D01*
X155587456Y-108807393D01*
X155477762Y-108761956D01*
X155477760Y-108761955D01*
X155321001Y-108741318D01*
X155320999Y-108741318D01*
X155164239Y-108761955D01*
X155164237Y-108761956D01*
X155018160Y-108822463D01*
X154892718Y-108918718D01*
X154796463Y-109044160D01*
X154735956Y-109190237D01*
X154735955Y-109190239D01*
X154715318Y-109346998D01*
X154715318Y-109347001D01*
X154735955Y-109503760D01*
X154735956Y-109503762D01*
X154796464Y-109649842D01*
X154892715Y-109775279D01*
X154892716Y-109775280D01*
X154892718Y-109775282D01*
X154896982Y-109778554D01*
X154938187Y-109834978D01*
X154945500Y-109876932D01*
X154945500Y-111484067D01*
X154925815Y-111551106D01*
X154896988Y-111582441D01*
X154892721Y-111585715D01*
X154892719Y-111585716D01*
X154892718Y-111585718D01*
X154880442Y-111601717D01*
X154796463Y-111711160D01*
X154735956Y-111857237D01*
X154735955Y-111857239D01*
X154715318Y-112013998D01*
X154715318Y-112014001D01*
X154021682Y-112014001D01*
X154021682Y-112014000D01*
X154017756Y-111984182D01*
X154005578Y-111891677D01*
X154001044Y-111857238D01*
X153940536Y-111711159D01*
X153844282Y-111585718D01*
X153843774Y-111585328D01*
X153840012Y-111582441D01*
X153798810Y-111526013D01*
X153791500Y-111484067D01*
X153791500Y-107688652D01*
X153810116Y-107625252D01*
X153809472Y-107624881D01*
X153811005Y-107622225D01*
X153811185Y-107621613D01*
X153812156Y-107620230D01*
X153813537Y-107617840D01*
X153855170Y-107517327D01*
X153874044Y-107471762D01*
X153894682Y-107315000D01*
X153894631Y-107314616D01*
X153880923Y-107210491D01*
X153874044Y-107158238D01*
X153813536Y-107012159D01*
X153717282Y-106886718D01*
X153591841Y-106790464D01*
X153445762Y-106729956D01*
X153445760Y-106729955D01*
X153289001Y-106709318D01*
X153288999Y-106709318D01*
X153132239Y-106729955D01*
X153132237Y-106729956D01*
X152986160Y-106790463D01*
X152860718Y-106886718D01*
X152764463Y-107012160D01*
X152703956Y-107158237D01*
X152703955Y-107158239D01*
X152683318Y-107314998D01*
X152683318Y-107315001D01*
X145446500Y-107315001D01*
X145446500Y-105322501D01*
X150651318Y-105322501D01*
X150671955Y-105479260D01*
X150671956Y-105479262D01*
X150732464Y-105625341D01*
X150828718Y-105750782D01*
X150954159Y-105847036D01*
X151100238Y-105907544D01*
X151178619Y-105917862D01*
X151256999Y-105928182D01*
X151257000Y-105928182D01*
X151257001Y-105928182D01*
X151309254Y-105921302D01*
X151413762Y-105907544D01*
X151559841Y-105847036D01*
X151685282Y-105750782D01*
X151751871Y-105664001D01*
X152810318Y-105664001D01*
X152830955Y-105820760D01*
X152830956Y-105820762D01*
X152867944Y-105910060D01*
X152891464Y-105966841D01*
X152987718Y-106092282D01*
X153113159Y-106188536D01*
X153259238Y-106249044D01*
X153337619Y-106259363D01*
X153415999Y-106269682D01*
X153416000Y-106269682D01*
X153416001Y-106269682D01*
X153468253Y-106262802D01*
X153572762Y-106249044D01*
X153718841Y-106188536D01*
X153844282Y-106092282D01*
X153940536Y-105966841D01*
X154001044Y-105820762D01*
X154021682Y-105664000D01*
X154016592Y-105625341D01*
X154001044Y-105507239D01*
X154001044Y-105507238D01*
X153940536Y-105361159D01*
X153844282Y-105235718D01*
X153843774Y-105235328D01*
X153840012Y-105232441D01*
X153798810Y-105176013D01*
X153791500Y-105134067D01*
X153791500Y-103124001D01*
X156532818Y-103124001D01*
X156553455Y-103280760D01*
X156553456Y-103280762D01*
X156597602Y-103387341D01*
X156613964Y-103426841D01*
X156710218Y-103552282D01*
X156835659Y-103648536D01*
X156981738Y-103709044D01*
X157060119Y-103719362D01*
X157138499Y-103729682D01*
X157138500Y-103729682D01*
X157138501Y-103729682D01*
X157190754Y-103722802D01*
X157295262Y-103709044D01*
X157441341Y-103648536D01*
X157566782Y-103552282D01*
X157663036Y-103426841D01*
X157723544Y-103280762D01*
X157744182Y-103124000D01*
X157738981Y-103084498D01*
X157723544Y-102967239D01*
X157723544Y-102967238D01*
X157663036Y-102821159D01*
X157649284Y-102803237D01*
X157627123Y-102774355D01*
X157601930Y-102709186D01*
X157601500Y-102698870D01*
X157601500Y-101621932D01*
X157621185Y-101554893D01*
X157650015Y-101523555D01*
X157654282Y-101520282D01*
X157750536Y-101394841D01*
X157811044Y-101248762D01*
X157828279Y-101117848D01*
X157831682Y-101092001D01*
X157831682Y-101091998D01*
X157811044Y-100935239D01*
X157811044Y-100935238D01*
X157750536Y-100789159D01*
X157654282Y-100663718D01*
X157528841Y-100567464D01*
X157512477Y-100560686D01*
X157382762Y-100506956D01*
X157382760Y-100506955D01*
X157226001Y-100486318D01*
X157225999Y-100486318D01*
X157069239Y-100506955D01*
X157069237Y-100506956D01*
X156923160Y-100567463D01*
X156797718Y-100663718D01*
X156701463Y-100789160D01*
X156640956Y-100935237D01*
X156640955Y-100935239D01*
X156620318Y-101091998D01*
X156620318Y-101092001D01*
X156640955Y-101248760D01*
X156640956Y-101248762D01*
X156701464Y-101394842D01*
X156797715Y-101520279D01*
X156797716Y-101520280D01*
X156797718Y-101520282D01*
X156801982Y-101523554D01*
X156843187Y-101579978D01*
X156850500Y-101621932D01*
X156850500Y-102526926D01*
X156830815Y-102593965D01*
X156801988Y-102625299D01*
X156750458Y-102664841D01*
X156710218Y-102695718D01*
X156613963Y-102821160D01*
X156553456Y-102967237D01*
X156553455Y-102967239D01*
X156532818Y-103123998D01*
X156532818Y-103124001D01*
X153791500Y-103124001D01*
X153791500Y-101621932D01*
X153811185Y-101554893D01*
X153840015Y-101523555D01*
X153844282Y-101520282D01*
X153940536Y-101394841D01*
X154001044Y-101248762D01*
X154018279Y-101117848D01*
X154021682Y-101092001D01*
X154021682Y-101091998D01*
X154001044Y-100935239D01*
X154001044Y-100935238D01*
X153940536Y-100789159D01*
X153844282Y-100663718D01*
X153718841Y-100567464D01*
X153702477Y-100560686D01*
X153572762Y-100506956D01*
X153572760Y-100506955D01*
X153416001Y-100486318D01*
X153415999Y-100486318D01*
X153259239Y-100506955D01*
X153259237Y-100506956D01*
X153113160Y-100567463D01*
X152987718Y-100663718D01*
X152891463Y-100789160D01*
X152830956Y-100935237D01*
X152830955Y-100935239D01*
X152810318Y-101091998D01*
X152810318Y-101092001D01*
X152830955Y-101248760D01*
X152830956Y-101248762D01*
X152891464Y-101394842D01*
X152987715Y-101520279D01*
X152987716Y-101520280D01*
X152987718Y-101520282D01*
X152991982Y-101523554D01*
X153033187Y-101579978D01*
X153040500Y-101621932D01*
X153040500Y-105134067D01*
X153020815Y-105201106D01*
X152991988Y-105232441D01*
X152987721Y-105235715D01*
X152987719Y-105235716D01*
X152987718Y-105235718D01*
X152932911Y-105307144D01*
X152891463Y-105361160D01*
X152830956Y-105507237D01*
X152830955Y-105507239D01*
X152810318Y-105663998D01*
X152810318Y-105664001D01*
X151751871Y-105664001D01*
X151781536Y-105625341D01*
X151842044Y-105479262D01*
X151857592Y-105361160D01*
X151862682Y-105322501D01*
X151862682Y-105322498D01*
X151842044Y-105165739D01*
X151842044Y-105165738D01*
X151781536Y-105019659D01*
X151685282Y-104894218D01*
X151684774Y-104893828D01*
X151681012Y-104890941D01*
X151639810Y-104834513D01*
X151632500Y-104792567D01*
X151632500Y-101621932D01*
X151652185Y-101554893D01*
X151681015Y-101523555D01*
X151685282Y-101520282D01*
X151781536Y-101394841D01*
X151842044Y-101248762D01*
X151859279Y-101117848D01*
X151862682Y-101092001D01*
X151862682Y-101091998D01*
X151842044Y-100935239D01*
X151842044Y-100935238D01*
X151781536Y-100789159D01*
X151685282Y-100663718D01*
X151559841Y-100567464D01*
X151543477Y-100560686D01*
X151413762Y-100506956D01*
X151413760Y-100506955D01*
X151257001Y-100486318D01*
X151256999Y-100486318D01*
X151100239Y-100506955D01*
X151100237Y-100506956D01*
X150954160Y-100567463D01*
X150828718Y-100663718D01*
X150732463Y-100789160D01*
X150671956Y-100935237D01*
X150671955Y-100935239D01*
X150651318Y-101091998D01*
X150651318Y-101092001D01*
X150671955Y-101248760D01*
X150671956Y-101248762D01*
X150732464Y-101394842D01*
X150828715Y-101520279D01*
X150828716Y-101520280D01*
X150828718Y-101520282D01*
X150832982Y-101523554D01*
X150874187Y-101579978D01*
X150881500Y-101621932D01*
X150881500Y-104792567D01*
X150861815Y-104859606D01*
X150832988Y-104890941D01*
X150828721Y-104894215D01*
X150828719Y-104894216D01*
X150828718Y-104894218D01*
X150812356Y-104915542D01*
X150732463Y-105019660D01*
X150671956Y-105165737D01*
X150671955Y-105165739D01*
X150651318Y-105322498D01*
X150651318Y-105322501D01*
X145446500Y-105322501D01*
X145446500Y-97028000D01*
X150982722Y-97028000D01*
X151001762Y-97184818D01*
X151037407Y-97278804D01*
X151057780Y-97332523D01*
X151147517Y-97462530D01*
X151265760Y-97567283D01*
X151265762Y-97567284D01*
X151405634Y-97640696D01*
X151559014Y-97678500D01*
X151559015Y-97678500D01*
X151716985Y-97678500D01*
X151870365Y-97640696D01*
X151916344Y-97616564D01*
X152010240Y-97567283D01*
X152128483Y-97462530D01*
X152218220Y-97332523D01*
X152274237Y-97184818D01*
X152293278Y-97028000D01*
X152284662Y-96957036D01*
X152274237Y-96871181D01*
X152222719Y-96735341D01*
X152218220Y-96723477D01*
X152128483Y-96593470D01*
X152010240Y-96488717D01*
X152010238Y-96488716D01*
X152010237Y-96488715D01*
X151870365Y-96415303D01*
X151716986Y-96377500D01*
X151716985Y-96377500D01*
X151559015Y-96377500D01*
X151559014Y-96377500D01*
X151405634Y-96415303D01*
X151265762Y-96488715D01*
X151147516Y-96593471D01*
X151057781Y-96723475D01*
X151057780Y-96723476D01*
X151001762Y-96871181D01*
X150982722Y-97027999D01*
X150982722Y-97028000D01*
X145446500Y-97028000D01*
X145446500Y-96723879D01*
X145455939Y-96676426D01*
X145457588Y-96672446D01*
X145492044Y-96589262D01*
X145507592Y-96471160D01*
X145512682Y-96432501D01*
X145512682Y-96432498D01*
X145492044Y-96275739D01*
X145492044Y-96275738D01*
X145431536Y-96129659D01*
X145335282Y-96004218D01*
X145209841Y-95907964D01*
X145063762Y-95847456D01*
X145063760Y-95847455D01*
X144907001Y-95826818D01*
X144906999Y-95826818D01*
X144750239Y-95847455D01*
X144750237Y-95847456D01*
X144604160Y-95907963D01*
X144478718Y-96004218D01*
X144382463Y-96129660D01*
X144321956Y-96275737D01*
X144321955Y-96275739D01*
X144301318Y-96432498D01*
X144301318Y-96432501D01*
X143885500Y-96432501D01*
X143885500Y-95144932D01*
X143905185Y-95077893D01*
X143934015Y-95046555D01*
X143938282Y-95043282D01*
X144034536Y-94917841D01*
X144095044Y-94771762D01*
X144115682Y-94615000D01*
X144095044Y-94458238D01*
X144034536Y-94312159D01*
X143938282Y-94186718D01*
X143812841Y-94090464D01*
X143762391Y-94069567D01*
X143666762Y-94029956D01*
X143666760Y-94029955D01*
X143510001Y-94009318D01*
X143509999Y-94009318D01*
X143353239Y-94029955D01*
X143353237Y-94029956D01*
X143207160Y-94090463D01*
X143081718Y-94186718D01*
X142985463Y-94312160D01*
X142924956Y-94458237D01*
X142924955Y-94458239D01*
X142904318Y-94614998D01*
X142904318Y-94615002D01*
X142907189Y-94636811D01*
X142896423Y-94705846D01*
X142850043Y-94758101D01*
X142800436Y-94775934D01*
X142678738Y-94791956D01*
X142678737Y-94791956D01*
X142532660Y-94852463D01*
X142532658Y-94852464D01*
X142532659Y-94852464D01*
X142407218Y-94948718D01*
X142329874Y-95049513D01*
X142273448Y-95090715D01*
X142203702Y-95094870D01*
X142142781Y-95060657D01*
X142110029Y-94998940D01*
X142107500Y-94974026D01*
X142107500Y-93816756D01*
X142110139Y-93791311D01*
X142110177Y-93791128D01*
X142112367Y-93780685D01*
X142110325Y-93764306D01*
X142107977Y-93745460D01*
X142107500Y-93737784D01*
X142107500Y-93733843D01*
X142107499Y-93733834D01*
X142103657Y-93710809D01*
X142096866Y-93656329D01*
X142094621Y-93648790D01*
X142092066Y-93641345D01*
X142065941Y-93593071D01*
X142064273Y-93589659D01*
X142041826Y-93543742D01*
X142041823Y-93543739D01*
X142041823Y-93543738D01*
X142037280Y-93537374D01*
X142032420Y-93531129D01*
X142032419Y-93531127D01*
X141992029Y-93493945D01*
X141833201Y-93335116D01*
X141799717Y-93273795D01*
X141797945Y-93231248D01*
X141798647Y-93225918D01*
X141778009Y-93069156D01*
X141717501Y-92923077D01*
X141621247Y-92797636D01*
X141495806Y-92701382D01*
X141349727Y-92640874D01*
X141349725Y-92640873D01*
X141192966Y-92620236D01*
X141192964Y-92620236D01*
X141036204Y-92640873D01*
X141036202Y-92640874D01*
X140890125Y-92701381D01*
X140764683Y-92797636D01*
X140668428Y-92923078D01*
X140607921Y-93069155D01*
X140607921Y-93069157D01*
X140591512Y-93193788D01*
X140563245Y-93257685D01*
X140504920Y-93296155D01*
X140484760Y-93300541D01*
X140432238Y-93307456D01*
X140432237Y-93307456D01*
X140286160Y-93367963D01*
X140160718Y-93464218D01*
X140064463Y-93589660D01*
X140003956Y-93735737D01*
X140003955Y-93735739D01*
X139983318Y-93892498D01*
X139983318Y-93892501D01*
X140003955Y-94049260D01*
X140003956Y-94049262D01*
X140064464Y-94195341D01*
X140160718Y-94320782D01*
X140160720Y-94320783D01*
X140160722Y-94320786D01*
X140204984Y-94354748D01*
X140246188Y-94411174D01*
X140253500Y-94453125D01*
X140253500Y-101451067D01*
X140233815Y-101518106D01*
X140204988Y-101549441D01*
X140200721Y-101552715D01*
X140200719Y-101552716D01*
X140200718Y-101552718D01*
X140130358Y-101644413D01*
X140104463Y-101678160D01*
X140043956Y-101824237D01*
X140043955Y-101824239D01*
X140023318Y-101980998D01*
X140023318Y-101981001D01*
X140043955Y-102137760D01*
X140043956Y-102137762D01*
X140071905Y-102205238D01*
X140104464Y-102283841D01*
X140121596Y-102306168D01*
X140146790Y-102371336D01*
X140132752Y-102439781D01*
X140083938Y-102489771D01*
X140015847Y-102505435D01*
X139991133Y-102501430D01*
X139983767Y-102499456D01*
X139827002Y-102478818D01*
X139826997Y-102478818D01*
X139821664Y-102479520D01*
X139752629Y-102468754D01*
X139717800Y-102444262D01*
X139095819Y-101822281D01*
X139062334Y-101760958D01*
X139059500Y-101734600D01*
X139059500Y-98192932D01*
X139079185Y-98125893D01*
X139108015Y-98094555D01*
X139112282Y-98091282D01*
X139208536Y-97965841D01*
X139269044Y-97819762D01*
X139289682Y-97663000D01*
X139287936Y-97649740D01*
X139273056Y-97536715D01*
X139269044Y-97506238D01*
X139208536Y-97360159D01*
X139112282Y-97234718D01*
X138986841Y-97138464D01*
X138840762Y-97077956D01*
X138840760Y-97077955D01*
X138684001Y-97057318D01*
X138683999Y-97057318D01*
X138527239Y-97077955D01*
X138527237Y-97077956D01*
X138381160Y-97138463D01*
X138255709Y-97234725D01*
X138255174Y-97235261D01*
X138254611Y-97235568D01*
X138249271Y-97239666D01*
X138248631Y-97238832D01*
X138193848Y-97268741D01*
X138124157Y-97263751D01*
X138068227Y-97221876D01*
X138043815Y-97156409D01*
X138043500Y-97147573D01*
X138043500Y-94599201D01*
X138063185Y-94532162D01*
X138079819Y-94511520D01*
X139223376Y-93367963D01*
X140391501Y-92199837D01*
X140452822Y-92166354D01*
X140495369Y-92164582D01*
X140500700Y-92165284D01*
X140657462Y-92144646D01*
X140803541Y-92084138D01*
X140928982Y-91987884D01*
X141025236Y-91862443D01*
X141085744Y-91716364D01*
X141106382Y-91559602D01*
X141085744Y-91402840D01*
X141025236Y-91256761D01*
X140928982Y-91131320D01*
X140803541Y-91035066D01*
X140785275Y-91027500D01*
X150500785Y-91027500D01*
X150519602Y-91230582D01*
X150575417Y-91426747D01*
X150575422Y-91426760D01*
X150666327Y-91609321D01*
X150789237Y-91772081D01*
X150939958Y-91909480D01*
X150939960Y-91909482D01*
X150990302Y-91940652D01*
X151113363Y-92016848D01*
X151303544Y-92090524D01*
X151504024Y-92128000D01*
X151504026Y-92128000D01*
X151707974Y-92128000D01*
X151707976Y-92128000D01*
X151908456Y-92090524D01*
X152098637Y-92016848D01*
X152272041Y-91909481D01*
X152422764Y-91772079D01*
X152545673Y-91609321D01*
X152636582Y-91426750D01*
X152692397Y-91230583D01*
X152711215Y-91027500D01*
X153040785Y-91027500D01*
X153059602Y-91230582D01*
X153115417Y-91426747D01*
X153115422Y-91426760D01*
X153206327Y-91609321D01*
X153329237Y-91772081D01*
X153479958Y-91909480D01*
X153479960Y-91909482D01*
X153530302Y-91940652D01*
X153653363Y-92016848D01*
X153843544Y-92090524D01*
X154044024Y-92128000D01*
X154044026Y-92128000D01*
X154247974Y-92128000D01*
X154247976Y-92128000D01*
X154448456Y-92090524D01*
X154638637Y-92016848D01*
X154812041Y-91909481D01*
X154962764Y-91772079D01*
X155085673Y-91609321D01*
X155176582Y-91426750D01*
X155232397Y-91230583D01*
X155251215Y-91027500D01*
X155580785Y-91027500D01*
X155599602Y-91230582D01*
X155655417Y-91426747D01*
X155655422Y-91426760D01*
X155746327Y-91609321D01*
X155869237Y-91772081D01*
X156019958Y-91909480D01*
X156019960Y-91909482D01*
X156070302Y-91940652D01*
X156193363Y-92016848D01*
X156383544Y-92090524D01*
X156584024Y-92128000D01*
X156584026Y-92128000D01*
X156787974Y-92128000D01*
X156787976Y-92128000D01*
X156988456Y-92090524D01*
X157178637Y-92016848D01*
X157352041Y-91909481D01*
X157502764Y-91772079D01*
X157625673Y-91609321D01*
X157716582Y-91426750D01*
X157772397Y-91230583D01*
X157791215Y-91027500D01*
X158120785Y-91027500D01*
X158139602Y-91230582D01*
X158195417Y-91426747D01*
X158195422Y-91426760D01*
X158286327Y-91609321D01*
X158409237Y-91772081D01*
X158559958Y-91909480D01*
X158559960Y-91909482D01*
X158610302Y-91940652D01*
X158733363Y-92016848D01*
X158923544Y-92090524D01*
X159124024Y-92128000D01*
X159124026Y-92128000D01*
X159327974Y-92128000D01*
X159327976Y-92128000D01*
X159528456Y-92090524D01*
X159718637Y-92016848D01*
X159892041Y-91909481D01*
X160042764Y-91772079D01*
X160165673Y-91609321D01*
X160256582Y-91426750D01*
X160312397Y-91230583D01*
X160331215Y-91027500D01*
X160660785Y-91027500D01*
X160679602Y-91230582D01*
X160735417Y-91426747D01*
X160735422Y-91426760D01*
X160826327Y-91609321D01*
X160949237Y-91772081D01*
X161099958Y-91909480D01*
X161099960Y-91909482D01*
X161150302Y-91940652D01*
X161273363Y-92016848D01*
X161463544Y-92090524D01*
X161664024Y-92128000D01*
X161664026Y-92128000D01*
X161867974Y-92128000D01*
X161867976Y-92128000D01*
X162068456Y-92090524D01*
X162258637Y-92016848D01*
X162432041Y-91909481D01*
X162582764Y-91772079D01*
X162705673Y-91609321D01*
X162796582Y-91426750D01*
X162852397Y-91230583D01*
X162871215Y-91027500D01*
X162865082Y-90961318D01*
X162852397Y-90824417D01*
X162797335Y-90630898D01*
X162796582Y-90628250D01*
X162772325Y-90579536D01*
X162720673Y-90475803D01*
X162705673Y-90445679D01*
X162607273Y-90315376D01*
X162582762Y-90282918D01*
X162432041Y-90145519D01*
X162432039Y-90145517D01*
X162258642Y-90038155D01*
X162258635Y-90038151D01*
X162069398Y-89964841D01*
X162068456Y-89964476D01*
X161867976Y-89927000D01*
X161664024Y-89927000D01*
X161463544Y-89964476D01*
X161463541Y-89964476D01*
X161463541Y-89964477D01*
X161273364Y-90038151D01*
X161273357Y-90038155D01*
X161099960Y-90145517D01*
X161099958Y-90145519D01*
X160949237Y-90282918D01*
X160826327Y-90445678D01*
X160735422Y-90628239D01*
X160735417Y-90628252D01*
X160679602Y-90824417D01*
X160660785Y-91027499D01*
X160660785Y-91027500D01*
X160331215Y-91027500D01*
X160325082Y-90961318D01*
X160312397Y-90824417D01*
X160257335Y-90630898D01*
X160256582Y-90628250D01*
X160232325Y-90579536D01*
X160180673Y-90475803D01*
X160165673Y-90445679D01*
X160067273Y-90315376D01*
X160042762Y-90282918D01*
X159892041Y-90145519D01*
X159892039Y-90145517D01*
X159718642Y-90038155D01*
X159718635Y-90038151D01*
X159529398Y-89964841D01*
X159528456Y-89964476D01*
X159327976Y-89927000D01*
X159124024Y-89927000D01*
X158923544Y-89964476D01*
X158923541Y-89964476D01*
X158923541Y-89964477D01*
X158733364Y-90038151D01*
X158733357Y-90038155D01*
X158559960Y-90145517D01*
X158559958Y-90145519D01*
X158409237Y-90282918D01*
X158286327Y-90445678D01*
X158195422Y-90628239D01*
X158195417Y-90628252D01*
X158139602Y-90824417D01*
X158120785Y-91027499D01*
X158120785Y-91027500D01*
X157791215Y-91027500D01*
X157785082Y-90961318D01*
X157772397Y-90824417D01*
X157717335Y-90630898D01*
X157716582Y-90628250D01*
X157692325Y-90579536D01*
X157640673Y-90475803D01*
X157625673Y-90445679D01*
X157527273Y-90315376D01*
X157502762Y-90282918D01*
X157352041Y-90145519D01*
X157352039Y-90145517D01*
X157178642Y-90038155D01*
X157178635Y-90038151D01*
X156989398Y-89964841D01*
X156988456Y-89964476D01*
X156787976Y-89927000D01*
X156584024Y-89927000D01*
X156383544Y-89964476D01*
X156383541Y-89964476D01*
X156383541Y-89964477D01*
X156193364Y-90038151D01*
X156193357Y-90038155D01*
X156019960Y-90145517D01*
X156019958Y-90145519D01*
X155869237Y-90282918D01*
X155746327Y-90445678D01*
X155655422Y-90628239D01*
X155655417Y-90628252D01*
X155599602Y-90824417D01*
X155580785Y-91027499D01*
X155580785Y-91027500D01*
X155251215Y-91027500D01*
X155245082Y-90961318D01*
X155232397Y-90824417D01*
X155177335Y-90630898D01*
X155176582Y-90628250D01*
X155152325Y-90579536D01*
X155100673Y-90475803D01*
X155085673Y-90445679D01*
X154987273Y-90315376D01*
X154962762Y-90282918D01*
X154812041Y-90145519D01*
X154812039Y-90145517D01*
X154638642Y-90038155D01*
X154638635Y-90038151D01*
X154449398Y-89964841D01*
X154448456Y-89964476D01*
X154247976Y-89927000D01*
X154044024Y-89927000D01*
X153843544Y-89964476D01*
X153843541Y-89964476D01*
X153843541Y-89964477D01*
X153653364Y-90038151D01*
X153653357Y-90038155D01*
X153479960Y-90145517D01*
X153479958Y-90145519D01*
X153329237Y-90282918D01*
X153206327Y-90445678D01*
X153115422Y-90628239D01*
X153115417Y-90628252D01*
X153059602Y-90824417D01*
X153040785Y-91027499D01*
X153040785Y-91027500D01*
X152711215Y-91027500D01*
X152705082Y-90961318D01*
X152692397Y-90824417D01*
X152637335Y-90630898D01*
X152636582Y-90628250D01*
X152612325Y-90579536D01*
X152560673Y-90475803D01*
X152545673Y-90445679D01*
X152447273Y-90315376D01*
X152422762Y-90282918D01*
X152272041Y-90145519D01*
X152272039Y-90145517D01*
X152098642Y-90038155D01*
X152098635Y-90038151D01*
X151909398Y-89964841D01*
X151908456Y-89964476D01*
X151707976Y-89927000D01*
X151504024Y-89927000D01*
X151303544Y-89964476D01*
X151303541Y-89964476D01*
X151303541Y-89964477D01*
X151113364Y-90038151D01*
X151113357Y-90038155D01*
X150939960Y-90145517D01*
X150939958Y-90145519D01*
X150789237Y-90282918D01*
X150666327Y-90445678D01*
X150575422Y-90628239D01*
X150575417Y-90628252D01*
X150519602Y-90824417D01*
X150500785Y-91027499D01*
X150500785Y-91027500D01*
X140785275Y-91027500D01*
X140657462Y-90974558D01*
X140657460Y-90974557D01*
X140500701Y-90953920D01*
X140500699Y-90953920D01*
X140343939Y-90974557D01*
X140343937Y-90974558D01*
X140197860Y-91035065D01*
X140072416Y-91131321D01*
X139993485Y-91234188D01*
X139937057Y-91275391D01*
X139867311Y-91279546D01*
X139812882Y-91251518D01*
X139789250Y-91230582D01*
X139709092Y-91159569D01*
X139709090Y-91159568D01*
X139709089Y-91159567D01*
X139569217Y-91086155D01*
X139415838Y-91048352D01*
X139415837Y-91048352D01*
X139257867Y-91048352D01*
X139257866Y-91048352D01*
X139104486Y-91086155D01*
X138964614Y-91159567D01*
X138846368Y-91264323D01*
X138756633Y-91394327D01*
X138756632Y-91394328D01*
X138700614Y-91542033D01*
X138681574Y-91698851D01*
X138681574Y-91698852D01*
X138700614Y-91855670D01*
X138732844Y-91940652D01*
X138756632Y-92003375D01*
X138846369Y-92133382D01*
X138964612Y-92238135D01*
X139029528Y-92272206D01*
X139079738Y-92320789D01*
X139095713Y-92388808D01*
X139072378Y-92454666D01*
X139059581Y-92469682D01*
X137493181Y-94036082D01*
X137431858Y-94069567D01*
X137362166Y-94064583D01*
X137306233Y-94022711D01*
X137281816Y-93957247D01*
X137281500Y-93948401D01*
X137281500Y-91940652D01*
X137300116Y-91877252D01*
X137299472Y-91876881D01*
X137301005Y-91874225D01*
X137301185Y-91873613D01*
X137302156Y-91872230D01*
X137303537Y-91869840D01*
X137332852Y-91799065D01*
X137364044Y-91723762D01*
X137384682Y-91567000D01*
X137364044Y-91410238D01*
X137303536Y-91264159D01*
X137207282Y-91138718D01*
X137081841Y-91042464D01*
X137063978Y-91035065D01*
X136935762Y-90981956D01*
X136935760Y-90981955D01*
X136779001Y-90961318D01*
X136778999Y-90961318D01*
X136622240Y-90981955D01*
X136563952Y-91006099D01*
X136494482Y-91013567D01*
X136432003Y-90982291D01*
X136396351Y-90922202D01*
X136392500Y-90891537D01*
X136392500Y-88487500D01*
X153040785Y-88487500D01*
X153059602Y-88690582D01*
X153115417Y-88886747D01*
X153115422Y-88886760D01*
X153206327Y-89069321D01*
X153329237Y-89232081D01*
X153479958Y-89369480D01*
X153479960Y-89369482D01*
X153506147Y-89385696D01*
X153653363Y-89476848D01*
X153843544Y-89550524D01*
X154044024Y-89588000D01*
X154044026Y-89588000D01*
X154247974Y-89588000D01*
X154247976Y-89588000D01*
X154448456Y-89550524D01*
X154638637Y-89476848D01*
X154812041Y-89369481D01*
X154820054Y-89362176D01*
X160665499Y-89362176D01*
X160665500Y-89362178D01*
X160680032Y-89435235D01*
X160680033Y-89435239D01*
X160680034Y-89435240D01*
X160735399Y-89518101D01*
X160805238Y-89564765D01*
X160818260Y-89573466D01*
X160818264Y-89573467D01*
X160891321Y-89587999D01*
X160891324Y-89588000D01*
X160891326Y-89588000D01*
X162640676Y-89588000D01*
X162640677Y-89587999D01*
X162713740Y-89573466D01*
X162796601Y-89518101D01*
X162851966Y-89435240D01*
X162866500Y-89362174D01*
X162866500Y-87612826D01*
X162866500Y-87612823D01*
X162866499Y-87612821D01*
X162851967Y-87539764D01*
X162851966Y-87539760D01*
X162848328Y-87534316D01*
X162796601Y-87456899D01*
X162713740Y-87401534D01*
X162713739Y-87401533D01*
X162713735Y-87401532D01*
X162640677Y-87387000D01*
X162640674Y-87387000D01*
X160891326Y-87387000D01*
X160891323Y-87387000D01*
X160818264Y-87401532D01*
X160818260Y-87401533D01*
X160735399Y-87456899D01*
X160680033Y-87539760D01*
X160680032Y-87539764D01*
X160665500Y-87612821D01*
X160665499Y-87612823D01*
X160665499Y-89362176D01*
X154820054Y-89362176D01*
X154962764Y-89232079D01*
X155085673Y-89069321D01*
X155176582Y-88886750D01*
X155232397Y-88690583D01*
X155251215Y-88487500D01*
X155232397Y-88284417D01*
X155176582Y-88088250D01*
X155176067Y-88087216D01*
X155111003Y-87956549D01*
X155085673Y-87905679D01*
X154986079Y-87773795D01*
X154962762Y-87742918D01*
X154812041Y-87605519D01*
X154812039Y-87605517D01*
X154638642Y-87498155D01*
X154638635Y-87498151D01*
X154532150Y-87456899D01*
X154448456Y-87424476D01*
X154247976Y-87387000D01*
X154044024Y-87387000D01*
X153843544Y-87424476D01*
X153843541Y-87424476D01*
X153843541Y-87424477D01*
X153653364Y-87498151D01*
X153653357Y-87498155D01*
X153479960Y-87605517D01*
X153479958Y-87605519D01*
X153329237Y-87742918D01*
X153206327Y-87905678D01*
X153115422Y-88088239D01*
X153115417Y-88088252D01*
X153059602Y-88284417D01*
X153040785Y-88487499D01*
X153040785Y-88487500D01*
X136392500Y-88487500D01*
X136392500Y-86947899D01*
X136412185Y-86880860D01*
X136428819Y-86860218D01*
X137056037Y-86233000D01*
X141584722Y-86233000D01*
X141603762Y-86389818D01*
X141642501Y-86491962D01*
X141659780Y-86537523D01*
X141749517Y-86667530D01*
X141867760Y-86772283D01*
X141867762Y-86772284D01*
X142007634Y-86845696D01*
X142161014Y-86883500D01*
X142161015Y-86883500D01*
X142318985Y-86883500D01*
X142472365Y-86845696D01*
X142497439Y-86832536D01*
X142612240Y-86772283D01*
X142730483Y-86667530D01*
X142820220Y-86537523D01*
X142876237Y-86389818D01*
X142895278Y-86233000D01*
X142889612Y-86186331D01*
X142876237Y-86076181D01*
X142849302Y-86005160D01*
X142820220Y-85928477D01*
X142745690Y-85820501D01*
X153032318Y-85820501D01*
X153052955Y-85977260D01*
X153052956Y-85977262D01*
X153113464Y-86123341D01*
X153209718Y-86248782D01*
X153335159Y-86345036D01*
X153481238Y-86405544D01*
X153559619Y-86415862D01*
X153637999Y-86426182D01*
X153638000Y-86426182D01*
X153638001Y-86426182D01*
X153714877Y-86416061D01*
X153794762Y-86405544D01*
X153940841Y-86345036D01*
X154066282Y-86248782D01*
X154162536Y-86123341D01*
X154223044Y-85977262D01*
X154243682Y-85820500D01*
X154240694Y-85797806D01*
X154226991Y-85693717D01*
X154223044Y-85663738D01*
X154162536Y-85517659D01*
X154066282Y-85392218D01*
X154065774Y-85391828D01*
X154062012Y-85388941D01*
X154020810Y-85332513D01*
X154013500Y-85290567D01*
X154013500Y-84296500D01*
X159459722Y-84296500D01*
X159478762Y-84453318D01*
X159534780Y-84601023D01*
X159624517Y-84731030D01*
X159742760Y-84835783D01*
X159754860Y-84842133D01*
X159882634Y-84909196D01*
X160036014Y-84947000D01*
X160036015Y-84947000D01*
X160193985Y-84947000D01*
X160347365Y-84909196D01*
X160404875Y-84879012D01*
X160487240Y-84835783D01*
X160605483Y-84731030D01*
X160695220Y-84601023D01*
X160751237Y-84453318D01*
X160770278Y-84296500D01*
X160751237Y-84139682D01*
X160695220Y-83991977D01*
X160605483Y-83861970D01*
X160487240Y-83757217D01*
X160487238Y-83757216D01*
X160487237Y-83757215D01*
X160347365Y-83683803D01*
X160193986Y-83646000D01*
X160193985Y-83646000D01*
X160036015Y-83646000D01*
X160036014Y-83646000D01*
X159882634Y-83683803D01*
X159742762Y-83757215D01*
X159624516Y-83861971D01*
X159534781Y-83991975D01*
X159534780Y-83991976D01*
X159478762Y-84139681D01*
X159459722Y-84296499D01*
X159459722Y-84296500D01*
X154013500Y-84296500D01*
X154013500Y-83944485D01*
X154033185Y-83877446D01*
X154062014Y-83846109D01*
X154098282Y-83818280D01*
X154194536Y-83692839D01*
X154255044Y-83546760D01*
X154275682Y-83389998D01*
X154267537Y-83328134D01*
X154255044Y-83233237D01*
X154255044Y-83233236D01*
X154194536Y-83087157D01*
X154098282Y-82961716D01*
X153972841Y-82865462D01*
X153826762Y-82804954D01*
X153826760Y-82804953D01*
X153670001Y-82784316D01*
X153669999Y-82784316D01*
X153513239Y-82804953D01*
X153513237Y-82804954D01*
X153367160Y-82865461D01*
X153241718Y-82961716D01*
X153145463Y-83087158D01*
X153084956Y-83233235D01*
X153084955Y-83233237D01*
X153064318Y-83389996D01*
X153064318Y-83389999D01*
X153084955Y-83546758D01*
X153084956Y-83546760D01*
X153145464Y-83692840D01*
X153236876Y-83811970D01*
X153262070Y-83877139D01*
X153262500Y-83887456D01*
X153262500Y-85290567D01*
X153242815Y-85357606D01*
X153213988Y-85388941D01*
X153209721Y-85392215D01*
X153209719Y-85392216D01*
X153209718Y-85392218D01*
X153137527Y-85486298D01*
X153113463Y-85517660D01*
X153052956Y-85663737D01*
X153052955Y-85663739D01*
X153032318Y-85820498D01*
X153032318Y-85820501D01*
X142745690Y-85820501D01*
X142730483Y-85798470D01*
X142612240Y-85693717D01*
X142612238Y-85693716D01*
X142612237Y-85693715D01*
X142472365Y-85620303D01*
X142318986Y-85582500D01*
X142318985Y-85582500D01*
X142161015Y-85582500D01*
X142161014Y-85582500D01*
X142007634Y-85620303D01*
X141867762Y-85693715D01*
X141818448Y-85737403D01*
X141751073Y-85797092D01*
X141749516Y-85798471D01*
X141659781Y-85928475D01*
X141659780Y-85928476D01*
X141603762Y-86076181D01*
X141584722Y-86232999D01*
X141584722Y-86233000D01*
X137056037Y-86233000D01*
X138422218Y-84866819D01*
X138483541Y-84833334D01*
X138509899Y-84830500D01*
X144885067Y-84830500D01*
X144952106Y-84850185D01*
X144983441Y-84879012D01*
X144986328Y-84882774D01*
X144986718Y-84883282D01*
X145112159Y-84979536D01*
X145258238Y-85040044D01*
X145336618Y-85050363D01*
X145414999Y-85060682D01*
X145415000Y-85060682D01*
X145415001Y-85060682D01*
X145467254Y-85053802D01*
X145571762Y-85040044D01*
X145717841Y-84979536D01*
X145843282Y-84883282D01*
X145939536Y-84757841D01*
X146000044Y-84611762D01*
X146020682Y-84455000D01*
X146018279Y-84436750D01*
X146000044Y-84298239D01*
X146000044Y-84298238D01*
X145939536Y-84152159D01*
X145843282Y-84026718D01*
X145717841Y-83930464D01*
X145571762Y-83869956D01*
X145571760Y-83869955D01*
X145415001Y-83849318D01*
X145414999Y-83849318D01*
X145258239Y-83869955D01*
X145258237Y-83869956D01*
X145112160Y-83930463D01*
X145112158Y-83930464D01*
X145112159Y-83930464D01*
X144986718Y-84026718D01*
X144986716Y-84026719D01*
X144986715Y-84026721D01*
X144983441Y-84030988D01*
X144927013Y-84072190D01*
X144885067Y-84079500D01*
X143677462Y-84079500D01*
X143610423Y-84059815D01*
X143564668Y-84007011D01*
X143554724Y-83937853D01*
X143562899Y-83908050D01*
X143587044Y-83849762D01*
X143607682Y-83693000D01*
X143606471Y-83683804D01*
X143587044Y-83536239D01*
X143587044Y-83536238D01*
X143526536Y-83390159D01*
X143526535Y-83390158D01*
X143526535Y-83390157D01*
X143471730Y-83318734D01*
X143446536Y-83253565D01*
X143460574Y-83185120D01*
X143471731Y-83167761D01*
X143526535Y-83096339D01*
X143526534Y-83096339D01*
X143526536Y-83096338D01*
X143587044Y-82950259D01*
X143607682Y-82793497D01*
X143606473Y-82784316D01*
X143587044Y-82636736D01*
X143587044Y-82636735D01*
X143526536Y-82490656D01*
X143526535Y-82490655D01*
X143526535Y-82490654D01*
X143471730Y-82419231D01*
X143446536Y-82354062D01*
X143460574Y-82285617D01*
X143471731Y-82268258D01*
X143495455Y-82237341D01*
X143526536Y-82196835D01*
X143587044Y-82050756D01*
X143607682Y-81893994D01*
X143600505Y-81839482D01*
X143587044Y-81737233D01*
X143587044Y-81737232D01*
X143526536Y-81591153D01*
X143430282Y-81465712D01*
X143304841Y-81369458D01*
X143158762Y-81308950D01*
X143158760Y-81308949D01*
X143002001Y-81288312D01*
X143001999Y-81288312D01*
X142845239Y-81308949D01*
X142845237Y-81308950D01*
X142699160Y-81369457D01*
X142573716Y-81465713D01*
X142554325Y-81490986D01*
X142497897Y-81532189D01*
X142455949Y-81539500D01*
X136830803Y-81539500D01*
X136805358Y-81536861D01*
X136794732Y-81534633D01*
X136794729Y-81534633D01*
X136759507Y-81539023D01*
X136751831Y-81539500D01*
X136747886Y-81539500D01*
X136730615Y-81542381D01*
X136724858Y-81543342D01*
X136670370Y-81550134D01*
X136662857Y-81552371D01*
X136655387Y-81554936D01*
X136607122Y-81581055D01*
X136557792Y-81605171D01*
X136551375Y-81609753D01*
X136545175Y-81614579D01*
X136507991Y-81654971D01*
X132613108Y-85549852D01*
X132593254Y-85565976D01*
X132584165Y-85571914D01*
X132584164Y-85571915D01*
X132562363Y-85599923D01*
X132557286Y-85605674D01*
X132554484Y-85608477D01*
X132554474Y-85608488D01*
X132540905Y-85627495D01*
X132507192Y-85670808D01*
X132503447Y-85677729D01*
X132499988Y-85684804D01*
X132484329Y-85737403D01*
X132466500Y-85789338D01*
X132465206Y-85797092D01*
X132464231Y-85804911D01*
X132466500Y-85859755D01*
X132466499Y-91799067D01*
X132446814Y-91866106D01*
X132417987Y-91897441D01*
X132413722Y-91900713D01*
X132317463Y-92026160D01*
X132256956Y-92172237D01*
X132256955Y-92172239D01*
X132236318Y-92328998D01*
X132236318Y-92329001D01*
X132256955Y-92485760D01*
X132256956Y-92485762D01*
X132317464Y-92631841D01*
X132413718Y-92757282D01*
X132539159Y-92853536D01*
X132685238Y-92914044D01*
X132763618Y-92924363D01*
X132841999Y-92934682D01*
X132842000Y-92934682D01*
X132842001Y-92934682D01*
X132917198Y-92924782D01*
X132998762Y-92914044D01*
X133144841Y-92853536D01*
X133270282Y-92757282D01*
X133366536Y-92631841D01*
X133427044Y-92485762D01*
X133447682Y-92329000D01*
X133445384Y-92311548D01*
X133427044Y-92172239D01*
X133427044Y-92172238D01*
X133366536Y-92026159D01*
X133270282Y-91900718D01*
X133270279Y-91900715D01*
X133270277Y-91900713D01*
X133266009Y-91897438D01*
X133224808Y-91841009D01*
X133217499Y-91799065D01*
X133217499Y-88978686D01*
X133217499Y-86058895D01*
X133237184Y-85991860D01*
X133253813Y-85971223D01*
X133593718Y-85631318D01*
X133655039Y-85597835D01*
X133724731Y-85602819D01*
X133780664Y-85644691D01*
X133805081Y-85710155D01*
X133790229Y-85778428D01*
X133779255Y-85795158D01*
X133777193Y-85797806D01*
X133773447Y-85804729D01*
X133769988Y-85811804D01*
X133754329Y-85864403D01*
X133736500Y-85916338D01*
X133735206Y-85924092D01*
X133734231Y-85931911D01*
X133736500Y-85986755D01*
X133736500Y-96244067D01*
X133716815Y-96311106D01*
X133687988Y-96342441D01*
X133683721Y-96345715D01*
X133683719Y-96345716D01*
X133683718Y-96345718D01*
X133659331Y-96377500D01*
X133587463Y-96471160D01*
X133526956Y-96617237D01*
X133526955Y-96617239D01*
X133506318Y-96773998D01*
X133506318Y-96774001D01*
X133526955Y-96930760D01*
X133526956Y-96930762D01*
X133587464Y-97076841D01*
X133683718Y-97202282D01*
X133809159Y-97298536D01*
X133955238Y-97359044D01*
X134027421Y-97368547D01*
X134111999Y-97379682D01*
X134112000Y-97379682D01*
X134112001Y-97379682D01*
X134196579Y-97368547D01*
X134268762Y-97359044D01*
X134414841Y-97298536D01*
X134426011Y-97289964D01*
X134491179Y-97264768D01*
X134559624Y-97278804D01*
X134609615Y-97327617D01*
X134625500Y-97388338D01*
X134625500Y-98419073D01*
X134605815Y-98486112D01*
X134596074Y-98498200D01*
X134596166Y-98498271D01*
X134591220Y-98504716D01*
X134591218Y-98504718D01*
X134550396Y-98557919D01*
X134494963Y-98630160D01*
X134434456Y-98776237D01*
X134434455Y-98776239D01*
X134413818Y-98932998D01*
X134413818Y-98933001D01*
X134434455Y-99089760D01*
X134434456Y-99089762D01*
X134493862Y-99233182D01*
X134494964Y-99235841D01*
X134591218Y-99361282D01*
X134716659Y-99457536D01*
X134862738Y-99518044D01*
X134928411Y-99526690D01*
X135019499Y-99538682D01*
X135019500Y-99538682D01*
X135019501Y-99538682D01*
X135071754Y-99531802D01*
X135176262Y-99518044D01*
X135322341Y-99457536D01*
X135447782Y-99361282D01*
X135544036Y-99235841D01*
X135604544Y-99089762D01*
X135625182Y-98933000D01*
X135619345Y-98888667D01*
X135614862Y-98854619D01*
X135604544Y-98776238D01*
X135592550Y-98747283D01*
X135585082Y-98677817D01*
X135616356Y-98615338D01*
X135676445Y-98579685D01*
X135746270Y-98582178D01*
X135754547Y-98585265D01*
X135860238Y-98629044D01*
X135938618Y-98639363D01*
X136016999Y-98649682D01*
X136017000Y-98649682D01*
X136173762Y-98629044D01*
X136173764Y-98629043D01*
X136175421Y-98628825D01*
X136244457Y-98639590D01*
X136296713Y-98685970D01*
X136314546Y-98735577D01*
X136316088Y-98747287D01*
X136319899Y-98776237D01*
X136320956Y-98784261D01*
X136320956Y-98784262D01*
X136370237Y-98903238D01*
X136381464Y-98930341D01*
X136477718Y-99055782D01*
X136603159Y-99152036D01*
X136749238Y-99212544D01*
X136827618Y-99222862D01*
X136905999Y-99233182D01*
X136906000Y-99233182D01*
X136958233Y-99226305D01*
X137027267Y-99237070D01*
X137079523Y-99283450D01*
X137098409Y-99350718D01*
X137088980Y-99396695D01*
X137082956Y-99411237D01*
X137082955Y-99411239D01*
X137062318Y-99567998D01*
X137062318Y-99568001D01*
X137082955Y-99724760D01*
X137082956Y-99724762D01*
X137143464Y-99870842D01*
X137215774Y-99965078D01*
X137240968Y-100030247D01*
X137226930Y-100098692D01*
X137212203Y-100118612D01*
X137212775Y-100119051D01*
X137207829Y-100125496D01*
X137207827Y-100125498D01*
X137131695Y-100224716D01*
X137111572Y-100250940D01*
X137051065Y-100397017D01*
X137051064Y-100397019D01*
X137030427Y-100553778D01*
X137030427Y-100553782D01*
X137038354Y-100614000D01*
X137027588Y-100683035D01*
X137003096Y-100717865D01*
X135032007Y-102688953D01*
X135012153Y-102705077D01*
X135003064Y-102711015D01*
X135003063Y-102711016D01*
X134981262Y-102739024D01*
X134976185Y-102744775D01*
X134973383Y-102747578D01*
X134973373Y-102747589D01*
X134959804Y-102766596D01*
X134926091Y-102809909D01*
X134922346Y-102816830D01*
X134918887Y-102823905D01*
X134903228Y-102876504D01*
X134885399Y-102928439D01*
X134884105Y-102936193D01*
X134883130Y-102944012D01*
X134885399Y-102998856D01*
X134885399Y-108986577D01*
X134865714Y-109053616D01*
X134812910Y-109099371D01*
X134743752Y-109109315D01*
X134729310Y-109106353D01*
X134725962Y-109105456D01*
X134569201Y-109084818D01*
X134569199Y-109084818D01*
X134412439Y-109105455D01*
X134412437Y-109105456D01*
X134266358Y-109165964D01*
X134247749Y-109180243D01*
X134182579Y-109205435D01*
X134114134Y-109191395D01*
X134084584Y-109169546D01*
X131094819Y-106179781D01*
X131061334Y-106118458D01*
X131058500Y-106092100D01*
X131058500Y-100635804D01*
X131061139Y-100610359D01*
X131061785Y-100607275D01*
X131063367Y-100599732D01*
X131061406Y-100583998D01*
X131058977Y-100564506D01*
X131058500Y-100556830D01*
X131058500Y-100552889D01*
X131058498Y-100552876D01*
X131054657Y-100529859D01*
X131047866Y-100475376D01*
X131047866Y-100475374D01*
X131047864Y-100475370D01*
X131045622Y-100467840D01*
X131043065Y-100460392D01*
X131043065Y-100460390D01*
X131016944Y-100412122D01*
X130992826Y-100362789D01*
X130992824Y-100362787D01*
X130992824Y-100362786D01*
X130988276Y-100356416D01*
X130983420Y-100350176D01*
X130983419Y-100350174D01*
X130983397Y-100350154D01*
X130953126Y-100322287D01*
X130943029Y-100312992D01*
X130323024Y-99692986D01*
X130306897Y-99673127D01*
X130300961Y-99664042D01*
X130300958Y-99664038D01*
X130272949Y-99642238D01*
X130267185Y-99637147D01*
X130264388Y-99634350D01*
X130260471Y-99631032D01*
X130261789Y-99629474D01*
X130224056Y-99581362D01*
X130217506Y-99511800D01*
X130229442Y-99477793D01*
X130230831Y-99475145D01*
X130230836Y-99475139D01*
X130286853Y-99327434D01*
X130305894Y-99170616D01*
X130301745Y-99136441D01*
X130286853Y-99013797D01*
X130256210Y-98933000D01*
X130230836Y-98866093D01*
X130141099Y-98736086D01*
X130022856Y-98631333D01*
X130022854Y-98631332D01*
X130022853Y-98631331D01*
X129882981Y-98557919D01*
X129729602Y-98520116D01*
X129729601Y-98520116D01*
X129571631Y-98520116D01*
X129571630Y-98520116D01*
X129418250Y-98557919D01*
X129278378Y-98631331D01*
X129257664Y-98649682D01*
X129170954Y-98726500D01*
X129160132Y-98736087D01*
X129070397Y-98866091D01*
X129070396Y-98866092D01*
X129014378Y-99013797D01*
X128995337Y-99170615D01*
X128995337Y-99170616D01*
X129014379Y-99327434D01*
X129033709Y-99378404D01*
X129039076Y-99448067D01*
X129005928Y-99509573D01*
X128944790Y-99543395D01*
X128917767Y-99546375D01*
X128672433Y-99546375D01*
X128605394Y-99526690D01*
X128574059Y-99497863D01*
X128570784Y-99493596D01*
X128570782Y-99493593D01*
X128445341Y-99397339D01*
X128443786Y-99396695D01*
X128323846Y-99347014D01*
X128269443Y-99303173D01*
X128247378Y-99236879D01*
X128254016Y-99192195D01*
X128264500Y-99161660D01*
X128264500Y-99161655D01*
X128264501Y-99161653D01*
X128265795Y-99153895D01*
X128266769Y-99146086D01*
X128264500Y-99091231D01*
X128264500Y-86990503D01*
X128284185Y-86923464D01*
X128336989Y-86877709D01*
X128341012Y-86875957D01*
X128445841Y-86832536D01*
X128571282Y-86736282D01*
X128667536Y-86610841D01*
X128728044Y-86464762D01*
X128748682Y-86308000D01*
X128728044Y-86151238D01*
X128667536Y-86005159D01*
X128571282Y-85879718D01*
X128445841Y-85783464D01*
X128299762Y-85722956D01*
X128299760Y-85722955D01*
X128143001Y-85702318D01*
X128142999Y-85702318D01*
X127986239Y-85722955D01*
X127986237Y-85722956D01*
X127840160Y-85783463D01*
X127714718Y-85879718D01*
X127618463Y-86005160D01*
X127557956Y-86151237D01*
X127557955Y-86151239D01*
X127537318Y-86307998D01*
X127537318Y-86308001D01*
X127544755Y-86364492D01*
X127540660Y-86416061D01*
X127531329Y-86447403D01*
X127513500Y-86499338D01*
X127512206Y-86507092D01*
X127511231Y-86514911D01*
X127513500Y-86569755D01*
X127513500Y-98892099D01*
X127493815Y-98959138D01*
X127477181Y-98979780D01*
X127148199Y-99308761D01*
X127086876Y-99342246D01*
X127044343Y-99344020D01*
X127039007Y-99343318D01*
X127038998Y-99343318D01*
X126880185Y-99364226D01*
X126811150Y-99353460D01*
X126758894Y-99307080D01*
X126740000Y-99241287D01*
X126740000Y-93537374D01*
X126740000Y-87823028D01*
X126742638Y-87797594D01*
X126744867Y-87786966D01*
X126742787Y-87770286D01*
X126740477Y-87751743D01*
X126740000Y-87744067D01*
X126740000Y-87740124D01*
X126739999Y-87740118D01*
X126736155Y-87717081D01*
X126729365Y-87662608D01*
X126727117Y-87655062D01*
X126724565Y-87647625D01*
X126698442Y-87599354D01*
X126679056Y-87559699D01*
X126667298Y-87490826D01*
X126667518Y-87489052D01*
X126669901Y-87470953D01*
X126669901Y-87470952D01*
X126649263Y-87314193D01*
X126649263Y-87314192D01*
X126588755Y-87168113D01*
X126492501Y-87042672D01*
X126367060Y-86946418D01*
X126220981Y-86885910D01*
X126220979Y-86885909D01*
X126064220Y-86865272D01*
X126064218Y-86865272D01*
X125907458Y-86885909D01*
X125907456Y-86885910D01*
X125761379Y-86946417D01*
X125635937Y-87042672D01*
X125539682Y-87168114D01*
X125479175Y-87314191D01*
X125479174Y-87314193D01*
X125458537Y-87470952D01*
X125458537Y-87470955D01*
X125479174Y-87627714D01*
X125479175Y-87627716D01*
X125526894Y-87742921D01*
X125539683Y-87773795D01*
X125635937Y-87899236D01*
X125637094Y-87900124D01*
X125637823Y-87901122D01*
X125641684Y-87904983D01*
X125641082Y-87905584D01*
X125678297Y-87956549D01*
X125682454Y-88026295D01*
X125648243Y-88087216D01*
X125586526Y-88119971D01*
X125561609Y-88122500D01*
X125524014Y-88122500D01*
X125370634Y-88160303D01*
X125230762Y-88233715D01*
X125112516Y-88338471D01*
X125022781Y-88468475D01*
X125022780Y-88468476D01*
X125004247Y-88517345D01*
X124966763Y-88616182D01*
X124957730Y-88690583D01*
X124957404Y-88693264D01*
X124929783Y-88757442D01*
X124871849Y-88796499D01*
X124848898Y-88800056D01*
X124849057Y-88801257D01*
X124684239Y-88822955D01*
X124684237Y-88822956D01*
X124538160Y-88883463D01*
X124412718Y-88979718D01*
X124316463Y-89105160D01*
X124255956Y-89251237D01*
X124255955Y-89251239D01*
X124235318Y-89407998D01*
X124235318Y-89408001D01*
X124255955Y-89564760D01*
X124255956Y-89564762D01*
X124296232Y-89661998D01*
X124316464Y-89710841D01*
X124412718Y-89836282D01*
X124530944Y-89927000D01*
X124543986Y-89937007D01*
X124585189Y-89993435D01*
X124592500Y-90035383D01*
X124592499Y-91748287D01*
X124572814Y-91815327D01*
X124520010Y-91861081D01*
X124452314Y-91871226D01*
X124293501Y-91850318D01*
X124293499Y-91850318D01*
X124136739Y-91870955D01*
X124136737Y-91870956D01*
X123990660Y-91931463D01*
X123865218Y-92027718D01*
X123768963Y-92153160D01*
X123708456Y-92299237D01*
X123708455Y-92299239D01*
X123687818Y-92455998D01*
X123687818Y-92456001D01*
X123708455Y-92612760D01*
X123708456Y-92612762D01*
X123768964Y-92758842D01*
X123865215Y-92884279D01*
X123865216Y-92884280D01*
X123865218Y-92884282D01*
X123869482Y-92887554D01*
X123910687Y-92943978D01*
X123918000Y-92985932D01*
X123918000Y-99993448D01*
X123898315Y-100060487D01*
X123869488Y-100091822D01*
X123825602Y-100125498D01*
X123786218Y-100155718D01*
X123689963Y-100281160D01*
X123629456Y-100427237D01*
X123629455Y-100427239D01*
X123608818Y-100583998D01*
X123608818Y-100584001D01*
X123617369Y-100648955D01*
X123613276Y-100700519D01*
X123608004Y-100718227D01*
X123590174Y-100770165D01*
X123588881Y-100777917D01*
X123587906Y-100785736D01*
X123590175Y-100840580D01*
X123590175Y-116077604D01*
X123570490Y-116144643D01*
X123528173Y-116184992D01*
X123522158Y-116188464D01*
X123396719Y-116284716D01*
X123300463Y-116410160D01*
X123239956Y-116556237D01*
X123239955Y-116556239D01*
X123219318Y-116712998D01*
X123219318Y-116713001D01*
X115276150Y-116713001D01*
X115425401Y-116608495D01*
X115592495Y-116441401D01*
X115728035Y-116247830D01*
X115827903Y-116033663D01*
X115889063Y-115805408D01*
X115909659Y-115570000D01*
X115889063Y-115334592D01*
X115827903Y-115106337D01*
X115728035Y-114892171D01*
X115728034Y-114892169D01*
X115592494Y-114698597D01*
X115425402Y-114531505D01*
X115231830Y-114395965D01*
X115231828Y-114395964D01*
X115124746Y-114346030D01*
X115017663Y-114296097D01*
X115017659Y-114296096D01*
X115017655Y-114296094D01*
X114789413Y-114234938D01*
X114789403Y-114234936D01*
X114612966Y-114219500D01*
X114495034Y-114219500D01*
X114318596Y-114234936D01*
X114318586Y-114234938D01*
X114090344Y-114296094D01*
X114090335Y-114296098D01*
X113876171Y-114395964D01*
X113876169Y-114395965D01*
X113682597Y-114531505D01*
X113515506Y-114698597D01*
X113515501Y-114698604D01*
X113379967Y-114892165D01*
X113379965Y-114892169D01*
X113280098Y-115106335D01*
X113280094Y-115106344D01*
X113218938Y-115334586D01*
X113218936Y-115334596D01*
X113198341Y-115569999D01*
X113198341Y-115570000D01*
X98140500Y-115570000D01*
X98140500Y-114808000D01*
X102214722Y-114808000D01*
X102233762Y-114964818D01*
X102287433Y-115106335D01*
X102289780Y-115112523D01*
X102379517Y-115242530D01*
X102497760Y-115347283D01*
X102497762Y-115347284D01*
X102637634Y-115420696D01*
X102791014Y-115458500D01*
X102791015Y-115458500D01*
X102948985Y-115458500D01*
X103102365Y-115420696D01*
X103102365Y-115420695D01*
X103242240Y-115347283D01*
X103360483Y-115242530D01*
X103450220Y-115112523D01*
X103506237Y-114964818D01*
X103525278Y-114808000D01*
X103511995Y-114698599D01*
X103506237Y-114651181D01*
X103484992Y-114595164D01*
X103450220Y-114503477D01*
X103360483Y-114373470D01*
X103242240Y-114268717D01*
X103242238Y-114268716D01*
X103242237Y-114268715D01*
X103102365Y-114195303D01*
X102948986Y-114157500D01*
X102948985Y-114157500D01*
X102791015Y-114157500D01*
X102791014Y-114157500D01*
X102637634Y-114195303D01*
X102497762Y-114268715D01*
X102379516Y-114373471D01*
X102289781Y-114503475D01*
X102289780Y-114503476D01*
X102233762Y-114651181D01*
X102214722Y-114807999D01*
X102214722Y-114808000D01*
X98140500Y-114808000D01*
X98140500Y-112395000D01*
X108437722Y-112395000D01*
X108456762Y-112551818D01*
X108512780Y-112699522D01*
X108512780Y-112699523D01*
X108602517Y-112829530D01*
X108720760Y-112934283D01*
X108720762Y-112934284D01*
X108860634Y-113007696D01*
X109014014Y-113045500D01*
X109014015Y-113045500D01*
X109171985Y-113045500D01*
X109325365Y-113007696D01*
X109375930Y-112981157D01*
X109465240Y-112934283D01*
X109583483Y-112829530D01*
X109673220Y-112699523D01*
X109729237Y-112551818D01*
X109748278Y-112395000D01*
X109739292Y-112320988D01*
X109729237Y-112238181D01*
X109692380Y-112140999D01*
X109673220Y-112090477D01*
X109583483Y-111960470D01*
X109465240Y-111855717D01*
X109465238Y-111855716D01*
X109465237Y-111855715D01*
X109325365Y-111782303D01*
X109171986Y-111744500D01*
X109171985Y-111744500D01*
X109014015Y-111744500D01*
X109014014Y-111744500D01*
X108860634Y-111782303D01*
X108720762Y-111855715D01*
X108660896Y-111908751D01*
X108610708Y-111953214D01*
X108602516Y-111960471D01*
X108512781Y-112090475D01*
X108512780Y-112090476D01*
X108456762Y-112238181D01*
X108437722Y-112394999D01*
X108437722Y-112395000D01*
X98140500Y-112395000D01*
X98140500Y-109347000D01*
X115676721Y-109347000D01*
X115695762Y-109503818D01*
X115743807Y-109630499D01*
X115751780Y-109651523D01*
X115841517Y-109781530D01*
X115959760Y-109886283D01*
X115959762Y-109886284D01*
X116099634Y-109959696D01*
X116253014Y-109997500D01*
X116253015Y-109997500D01*
X116410985Y-109997500D01*
X116564365Y-109959696D01*
X116611956Y-109934718D01*
X116704240Y-109886283D01*
X116822483Y-109781530D01*
X116912220Y-109651523D01*
X116968237Y-109503818D01*
X116987278Y-109347000D01*
X119359721Y-109347000D01*
X119378762Y-109503818D01*
X119426807Y-109630499D01*
X119434780Y-109651523D01*
X119524517Y-109781530D01*
X119642760Y-109886283D01*
X119642762Y-109886284D01*
X119782634Y-109959696D01*
X119936014Y-109997500D01*
X119936015Y-109997500D01*
X120093985Y-109997500D01*
X120247365Y-109959696D01*
X120294956Y-109934718D01*
X120387240Y-109886283D01*
X120505483Y-109781530D01*
X120595220Y-109651523D01*
X120597558Y-109645357D01*
X120639735Y-109589655D01*
X120705332Y-109565597D01*
X120773523Y-109580823D01*
X120822656Y-109630499D01*
X120829441Y-109645357D01*
X120831780Y-109651523D01*
X120921517Y-109781530D01*
X121039760Y-109886283D01*
X121039762Y-109886284D01*
X121179634Y-109959696D01*
X121333014Y-109997500D01*
X121333015Y-109997500D01*
X121490985Y-109997500D01*
X121644365Y-109959696D01*
X121691956Y-109934718D01*
X121784240Y-109886283D01*
X121902483Y-109781530D01*
X121992220Y-109651523D01*
X122048237Y-109503818D01*
X122067278Y-109347000D01*
X122058937Y-109278301D01*
X122048237Y-109190181D01*
X122013797Y-109099371D01*
X121992220Y-109042477D01*
X121902483Y-108912470D01*
X121784240Y-108807717D01*
X121784238Y-108807716D01*
X121784237Y-108807715D01*
X121644365Y-108734303D01*
X121490986Y-108696500D01*
X121490985Y-108696500D01*
X121333015Y-108696500D01*
X121333014Y-108696500D01*
X121179634Y-108734303D01*
X121039762Y-108807715D01*
X120921516Y-108912471D01*
X120831781Y-109042475D01*
X120831779Y-109042478D01*
X120829441Y-109048644D01*
X120787262Y-109104346D01*
X120721665Y-109128402D01*
X120653475Y-109113174D01*
X120604342Y-109063497D01*
X120597559Y-109048644D01*
X120595220Y-109042478D01*
X120595220Y-109042477D01*
X120505483Y-108912470D01*
X120387240Y-108807717D01*
X120387238Y-108807716D01*
X120387237Y-108807715D01*
X120247365Y-108734303D01*
X120093986Y-108696500D01*
X120093985Y-108696500D01*
X119936015Y-108696500D01*
X119936014Y-108696500D01*
X119782634Y-108734303D01*
X119642762Y-108807715D01*
X119524516Y-108912471D01*
X119434781Y-109042475D01*
X119434780Y-109042476D01*
X119378762Y-109190181D01*
X119359721Y-109346999D01*
X119359721Y-109347000D01*
X116987278Y-109347000D01*
X116978937Y-109278301D01*
X116968237Y-109190181D01*
X116933797Y-109099371D01*
X116912220Y-109042477D01*
X116822483Y-108912470D01*
X116704240Y-108807717D01*
X116704238Y-108807716D01*
X116704237Y-108807715D01*
X116564365Y-108734303D01*
X116410986Y-108696500D01*
X116410985Y-108696500D01*
X116253015Y-108696500D01*
X116253014Y-108696500D01*
X116099634Y-108734303D01*
X115959762Y-108807715D01*
X115841516Y-108912471D01*
X115751781Y-109042475D01*
X115751780Y-109042476D01*
X115695762Y-109190181D01*
X115676721Y-109346999D01*
X115676721Y-109347000D01*
X98140500Y-109347000D01*
X98140500Y-108458000D01*
X112247722Y-108458000D01*
X112266762Y-108614818D01*
X112312078Y-108734304D01*
X112322780Y-108762523D01*
X112412517Y-108892530D01*
X112530760Y-108997283D01*
X112530762Y-108997284D01*
X112670634Y-109070696D01*
X112824014Y-109108500D01*
X112824015Y-109108500D01*
X112981985Y-109108500D01*
X113135365Y-109070696D01*
X113189135Y-109042475D01*
X113275240Y-108997283D01*
X113393483Y-108892530D01*
X113483220Y-108762523D01*
X113539237Y-108614818D01*
X113558278Y-108458000D01*
X113552144Y-108407477D01*
X113539237Y-108301181D01*
X113517992Y-108245164D01*
X113483220Y-108153477D01*
X113393483Y-108023470D01*
X113275240Y-107918717D01*
X113275238Y-107918716D01*
X113275237Y-107918715D01*
X113135365Y-107845303D01*
X112981986Y-107807500D01*
X112981985Y-107807500D01*
X112824015Y-107807500D01*
X112824014Y-107807500D01*
X112670634Y-107845303D01*
X112530762Y-107918715D01*
X112412516Y-108023471D01*
X112322781Y-108153475D01*
X112322780Y-108153476D01*
X112266762Y-108301181D01*
X112247722Y-108457999D01*
X112247722Y-108458000D01*
X98140500Y-108458000D01*
X98140500Y-107732478D01*
X106290700Y-107732478D01*
X106305232Y-107805535D01*
X106305233Y-107805539D01*
X106323605Y-107833035D01*
X106360599Y-107888401D01*
X106440314Y-107941664D01*
X106443460Y-107943766D01*
X106443464Y-107943767D01*
X106516521Y-107958299D01*
X106516524Y-107958300D01*
X106516526Y-107958300D01*
X108265876Y-107958300D01*
X108265877Y-107958299D01*
X108338940Y-107943766D01*
X108421801Y-107888401D01*
X108477166Y-107805540D01*
X108491700Y-107732474D01*
X108491700Y-106857800D01*
X108825985Y-106857800D01*
X108844802Y-107060882D01*
X108900617Y-107257047D01*
X108900622Y-107257060D01*
X108991527Y-107439621D01*
X109114437Y-107602381D01*
X109265158Y-107739780D01*
X109265160Y-107739782D01*
X109364341Y-107801192D01*
X109438563Y-107847148D01*
X109628744Y-107920824D01*
X109829224Y-107958300D01*
X109829226Y-107958300D01*
X110033174Y-107958300D01*
X110033176Y-107958300D01*
X110233656Y-107920824D01*
X110423837Y-107847148D01*
X110597241Y-107739781D01*
X110747964Y-107602379D01*
X110870873Y-107439621D01*
X110961782Y-107257050D01*
X111017597Y-107060883D01*
X111036415Y-106857800D01*
X111030175Y-106790463D01*
X111017597Y-106654717D01*
X111017596Y-106654717D01*
X110961782Y-106458550D01*
X110870873Y-106275979D01*
X110747964Y-106113221D01*
X110747962Y-106113218D01*
X110597241Y-105975819D01*
X110597239Y-105975817D01*
X110423842Y-105868455D01*
X110423835Y-105868451D01*
X110300729Y-105820760D01*
X110233656Y-105794776D01*
X110033176Y-105757300D01*
X109829224Y-105757300D01*
X109628744Y-105794776D01*
X109628741Y-105794776D01*
X109628741Y-105794777D01*
X109438564Y-105868451D01*
X109438557Y-105868455D01*
X109265160Y-105975817D01*
X109265158Y-105975819D01*
X109114437Y-106113218D01*
X108991527Y-106275978D01*
X108900622Y-106458539D01*
X108900617Y-106458552D01*
X108844802Y-106654717D01*
X108825985Y-106857799D01*
X108825985Y-106857800D01*
X108491700Y-106857800D01*
X108491700Y-105983126D01*
X108491700Y-105983125D01*
X108491700Y-105983123D01*
X108491699Y-105983121D01*
X108477167Y-105910064D01*
X108477166Y-105910060D01*
X108475484Y-105907543D01*
X108421801Y-105827199D01*
X108338940Y-105771834D01*
X108338939Y-105771833D01*
X108338935Y-105771832D01*
X108265877Y-105757300D01*
X108265874Y-105757300D01*
X106516526Y-105757300D01*
X106516523Y-105757300D01*
X106443464Y-105771832D01*
X106443460Y-105771833D01*
X106360599Y-105827199D01*
X106305233Y-105910060D01*
X106305232Y-105910064D01*
X106290700Y-105983121D01*
X106290700Y-107732478D01*
X98140500Y-107732478D01*
X98140500Y-104317800D01*
X106285985Y-104317800D01*
X106304802Y-104520882D01*
X106360617Y-104717047D01*
X106360622Y-104717060D01*
X106451527Y-104899621D01*
X106574437Y-105062381D01*
X106725158Y-105199780D01*
X106725160Y-105199782D01*
X106783199Y-105235718D01*
X106898563Y-105307148D01*
X107088744Y-105380824D01*
X107289224Y-105418300D01*
X107289226Y-105418300D01*
X107493174Y-105418300D01*
X107493176Y-105418300D01*
X107693656Y-105380824D01*
X107883837Y-105307148D01*
X108057241Y-105199781D01*
X108207964Y-105062379D01*
X108330873Y-104899621D01*
X108421782Y-104717050D01*
X108477597Y-104520883D01*
X108496415Y-104317800D01*
X108825985Y-104317800D01*
X108844802Y-104520882D01*
X108900617Y-104717047D01*
X108900622Y-104717060D01*
X108991527Y-104899621D01*
X109114437Y-105062381D01*
X109265158Y-105199780D01*
X109265160Y-105199782D01*
X109323199Y-105235718D01*
X109438563Y-105307148D01*
X109628744Y-105380824D01*
X109829224Y-105418300D01*
X109829226Y-105418300D01*
X110033174Y-105418300D01*
X110033176Y-105418300D01*
X110233656Y-105380824D01*
X110423837Y-105307148D01*
X110597241Y-105199781D01*
X110747964Y-105062379D01*
X110870873Y-104899621D01*
X110961782Y-104717050D01*
X111017597Y-104520883D01*
X111036415Y-104317800D01*
X111036389Y-104317524D01*
X111017597Y-104114717D01*
X111003520Y-104065241D01*
X110961782Y-103918550D01*
X110870873Y-103735979D01*
X110747964Y-103573221D01*
X110747962Y-103573218D01*
X110597241Y-103435819D01*
X110597239Y-103435817D01*
X110423842Y-103328455D01*
X110423835Y-103328451D01*
X110300729Y-103280760D01*
X110233656Y-103254776D01*
X110033176Y-103217300D01*
X109829224Y-103217300D01*
X109628744Y-103254776D01*
X109628741Y-103254776D01*
X109628741Y-103254777D01*
X109438564Y-103328451D01*
X109438557Y-103328455D01*
X109265160Y-103435817D01*
X109265158Y-103435819D01*
X109114437Y-103573218D01*
X108991527Y-103735978D01*
X108900622Y-103918539D01*
X108900617Y-103918552D01*
X108844802Y-104114717D01*
X108825985Y-104317799D01*
X108825985Y-104317800D01*
X108496415Y-104317800D01*
X108496389Y-104317524D01*
X108477597Y-104114717D01*
X108463520Y-104065241D01*
X108421782Y-103918550D01*
X108330873Y-103735979D01*
X108207964Y-103573221D01*
X108207962Y-103573218D01*
X108057241Y-103435819D01*
X108057239Y-103435817D01*
X107883842Y-103328455D01*
X107883835Y-103328451D01*
X107760729Y-103280760D01*
X107693656Y-103254776D01*
X107493176Y-103217300D01*
X107289224Y-103217300D01*
X107088744Y-103254776D01*
X107088741Y-103254776D01*
X107088741Y-103254777D01*
X106898564Y-103328451D01*
X106898557Y-103328455D01*
X106725160Y-103435817D01*
X106725158Y-103435819D01*
X106574437Y-103573218D01*
X106451527Y-103735978D01*
X106360622Y-103918539D01*
X106360617Y-103918552D01*
X106304802Y-104114717D01*
X106285985Y-104317799D01*
X106285985Y-104317800D01*
X98140500Y-104317800D01*
X98140500Y-102362001D01*
X113694318Y-102362001D01*
X113714955Y-102518760D01*
X113714956Y-102518762D01*
X113775464Y-102664841D01*
X113871718Y-102790282D01*
X113997159Y-102886536D01*
X114143238Y-102947044D01*
X114221619Y-102957363D01*
X114299999Y-102967682D01*
X114300000Y-102967682D01*
X114300001Y-102967682D01*
X114352254Y-102960802D01*
X114456762Y-102947044D01*
X114602841Y-102886536D01*
X114728282Y-102790282D01*
X114824536Y-102664841D01*
X114885044Y-102518762D01*
X114905682Y-102362000D01*
X114899020Y-102311400D01*
X114885044Y-102205239D01*
X114885044Y-102205238D01*
X114824536Y-102059159D01*
X114728282Y-101933718D01*
X114602841Y-101837464D01*
X114570908Y-101824237D01*
X114456762Y-101776956D01*
X114456760Y-101776955D01*
X114300001Y-101756318D01*
X114299999Y-101756318D01*
X114143239Y-101776955D01*
X114143237Y-101776956D01*
X113997160Y-101837463D01*
X113871718Y-101933718D01*
X113775463Y-102059160D01*
X113714956Y-102205237D01*
X113714955Y-102205239D01*
X113694318Y-102361998D01*
X113694318Y-102362001D01*
X98140500Y-102362001D01*
X98140500Y-89662001D01*
X113694318Y-89662001D01*
X113714955Y-89818760D01*
X113714956Y-89818762D01*
X113775464Y-89964841D01*
X113871718Y-90090282D01*
X113997159Y-90186536D01*
X114143238Y-90247044D01*
X114300000Y-90267682D01*
X114305327Y-90266980D01*
X114374360Y-90277741D01*
X114409200Y-90302237D01*
X114650181Y-90543217D01*
X114683666Y-90604540D01*
X114686500Y-90630898D01*
X114686500Y-100081155D01*
X114683862Y-100106593D01*
X114681633Y-100117227D01*
X114681633Y-100117228D01*
X114681633Y-100117230D01*
X114686023Y-100152450D01*
X114686500Y-100160126D01*
X114686500Y-100164075D01*
X114690342Y-100187100D01*
X114697134Y-100241586D01*
X114699373Y-100249106D01*
X114701934Y-100256567D01*
X114701935Y-100256569D01*
X114727973Y-100304685D01*
X114728055Y-100304836D01*
X114752174Y-100354170D01*
X114756742Y-100360568D01*
X114761582Y-100366786D01*
X114801970Y-100403967D01*
X115593230Y-101195227D01*
X115626715Y-101256550D01*
X115621731Y-101326242D01*
X115603926Y-101358393D01*
X115553464Y-101424158D01*
X115492956Y-101570237D01*
X115492955Y-101570239D01*
X115472318Y-101726998D01*
X115472318Y-101727001D01*
X115492955Y-101883760D01*
X115492956Y-101883762D01*
X115533232Y-101980998D01*
X115553464Y-102029841D01*
X115649718Y-102155282D01*
X115775159Y-102251536D01*
X115921238Y-102312044D01*
X115999618Y-102322363D01*
X116077999Y-102332682D01*
X116078000Y-102332682D01*
X116078001Y-102332682D01*
X116130254Y-102325802D01*
X116234762Y-102312044D01*
X116380841Y-102251536D01*
X116506282Y-102155282D01*
X116602536Y-102029841D01*
X116663044Y-101883762D01*
X116679822Y-101756318D01*
X116683682Y-101727001D01*
X116683682Y-101726998D01*
X116663044Y-101570239D01*
X116663044Y-101570238D01*
X116602536Y-101424159D01*
X116506282Y-101298718D01*
X116506280Y-101298716D01*
X116506279Y-101298715D01*
X116502680Y-101295954D01*
X116461477Y-101239526D01*
X116456806Y-101172134D01*
X116458367Y-101164691D01*
X116456731Y-101151566D01*
X116453977Y-101129465D01*
X116453500Y-101121789D01*
X116453500Y-101117848D01*
X116453498Y-101117835D01*
X116449657Y-101094818D01*
X116449306Y-101091998D01*
X116442866Y-101040333D01*
X116442864Y-101040329D01*
X116440622Y-101032799D01*
X116438065Y-101025351D01*
X116438065Y-101025349D01*
X116411944Y-100977081D01*
X116387826Y-100927748D01*
X116387824Y-100927746D01*
X116387824Y-100927745D01*
X116383276Y-100921375D01*
X116378420Y-100915135D01*
X116378419Y-100915133D01*
X116338029Y-100877951D01*
X115756219Y-100296140D01*
X115722735Y-100234819D01*
X115727719Y-100165127D01*
X115769591Y-100109194D01*
X115835055Y-100084777D01*
X115873575Y-100088064D01*
X115887516Y-100091500D01*
X115887517Y-100091500D01*
X116045487Y-100091500D01*
X116198867Y-100053696D01*
X116208474Y-100048654D01*
X116338742Y-99980283D01*
X116456985Y-99875530D01*
X116546722Y-99745523D01*
X116602739Y-99597818D01*
X116621780Y-99441000D01*
X116618167Y-99411239D01*
X116602739Y-99284181D01*
X116559669Y-99170616D01*
X116546722Y-99136477D01*
X116456985Y-99006470D01*
X116338742Y-98901717D01*
X116338740Y-98901716D01*
X116338739Y-98901715D01*
X116198867Y-98828303D01*
X116045488Y-98790500D01*
X116045487Y-98790500D01*
X115887517Y-98790500D01*
X115887516Y-98790500D01*
X115734137Y-98828303D01*
X115619124Y-98888667D01*
X115550616Y-98902391D01*
X115485563Y-98876899D01*
X115444619Y-98820283D01*
X115437500Y-98778875D01*
X115437500Y-98076000D01*
X119962721Y-98076000D01*
X119981762Y-98232818D01*
X120025006Y-98346841D01*
X120037780Y-98380523D01*
X120127517Y-98510530D01*
X120245760Y-98615283D01*
X120245762Y-98615284D01*
X120385634Y-98688696D01*
X120539014Y-98726500D01*
X120539015Y-98726500D01*
X120696985Y-98726500D01*
X120850365Y-98688696D01*
X120871093Y-98677817D01*
X120990240Y-98615283D01*
X121108483Y-98510530D01*
X121198220Y-98380523D01*
X121254237Y-98232818D01*
X121273278Y-98076000D01*
X121261309Y-97977427D01*
X121272769Y-97908505D01*
X121319673Y-97856719D01*
X121354731Y-97842085D01*
X121426382Y-97824425D01*
X121435270Y-97819760D01*
X121566257Y-97751012D01*
X121684500Y-97646259D01*
X121774237Y-97516252D01*
X121830254Y-97368547D01*
X121849295Y-97211729D01*
X121846028Y-97184818D01*
X121830254Y-97054910D01*
X121809009Y-96998893D01*
X121774237Y-96907206D01*
X121684500Y-96777199D01*
X121566257Y-96672446D01*
X121566255Y-96672445D01*
X121566254Y-96672444D01*
X121426382Y-96599032D01*
X121273003Y-96561229D01*
X121273002Y-96561229D01*
X121115032Y-96561229D01*
X121115031Y-96561229D01*
X120961651Y-96599032D01*
X120821779Y-96672444D01*
X120703533Y-96777200D01*
X120613798Y-96907204D01*
X120613797Y-96907205D01*
X120557779Y-97054910D01*
X120538739Y-97211728D01*
X120538739Y-97211729D01*
X120550707Y-97310300D01*
X120539246Y-97379224D01*
X120492342Y-97431009D01*
X120457287Y-97445643D01*
X120385632Y-97463304D01*
X120245762Y-97536715D01*
X120127516Y-97641471D01*
X120037781Y-97771475D01*
X120037780Y-97771476D01*
X119981762Y-97919181D01*
X119962721Y-98075999D01*
X119962721Y-98076000D01*
X115437500Y-98076000D01*
X115437500Y-95377000D01*
X121137721Y-95377000D01*
X121156762Y-95533818D01*
X121203569Y-95657235D01*
X121212780Y-95681523D01*
X121302517Y-95811530D01*
X121420760Y-95916283D01*
X121420762Y-95916284D01*
X121560634Y-95989696D01*
X121714014Y-96027500D01*
X121714015Y-96027500D01*
X121871985Y-96027500D01*
X122025365Y-95989696D01*
X122025364Y-95989696D01*
X122165240Y-95916283D01*
X122283483Y-95811530D01*
X122373220Y-95681523D01*
X122429237Y-95533818D01*
X122448278Y-95377000D01*
X122429237Y-95220182D01*
X122373220Y-95072477D01*
X122283483Y-94942470D01*
X122165240Y-94837717D01*
X122165238Y-94837716D01*
X122165237Y-94837715D01*
X122025365Y-94764303D01*
X121871986Y-94726500D01*
X121871985Y-94726500D01*
X121714015Y-94726500D01*
X121714014Y-94726500D01*
X121560634Y-94764303D01*
X121420762Y-94837715D01*
X121302516Y-94942471D01*
X121212781Y-95072475D01*
X121212780Y-95072476D01*
X121156762Y-95220181D01*
X121137721Y-95376999D01*
X121137721Y-95377000D01*
X115437500Y-95377000D01*
X115437500Y-90475803D01*
X115440139Y-90450358D01*
X115441120Y-90445678D01*
X115442367Y-90439732D01*
X115440325Y-90423353D01*
X115437977Y-90404507D01*
X115437500Y-90396831D01*
X115437500Y-90392889D01*
X115437498Y-90392876D01*
X115433657Y-90369859D01*
X115426866Y-90315376D01*
X115426866Y-90315374D01*
X115426864Y-90315370D01*
X115424622Y-90307840D01*
X115422065Y-90300392D01*
X115422065Y-90300390D01*
X115395944Y-90252122D01*
X115371826Y-90202789D01*
X115371824Y-90202787D01*
X115371824Y-90202786D01*
X115367276Y-90196416D01*
X115362420Y-90190176D01*
X115362419Y-90190174D01*
X115322029Y-90152992D01*
X114940235Y-89771198D01*
X114906752Y-89709877D01*
X114904980Y-89667330D01*
X114905682Y-89662000D01*
X114885044Y-89505238D01*
X114824536Y-89359159D01*
X114728282Y-89233718D01*
X114602841Y-89137464D01*
X114576108Y-89126391D01*
X114456762Y-89076956D01*
X114456760Y-89076955D01*
X114300001Y-89056318D01*
X114299999Y-89056318D01*
X114143239Y-89076955D01*
X114143237Y-89076956D01*
X113997160Y-89137463D01*
X113871718Y-89233718D01*
X113775463Y-89359160D01*
X113714956Y-89505237D01*
X113714955Y-89505239D01*
X113694318Y-89661998D01*
X113694318Y-89662001D01*
X98140500Y-89662001D01*
X98140500Y-88821868D01*
X117531816Y-88821868D01*
X117550856Y-88978686D01*
X117598822Y-89105159D01*
X117606874Y-89126391D01*
X117696611Y-89256398D01*
X117814854Y-89361151D01*
X117814856Y-89361152D01*
X117954728Y-89434564D01*
X118108108Y-89472368D01*
X118108109Y-89472368D01*
X118266079Y-89472368D01*
X118419459Y-89434564D01*
X118470070Y-89408001D01*
X118559334Y-89361151D01*
X118677577Y-89256398D01*
X118767314Y-89126391D01*
X118823331Y-88978686D01*
X118842372Y-88821868D01*
X118839870Y-88801257D01*
X118823331Y-88665049D01*
X118802086Y-88609032D01*
X118767314Y-88517345D01*
X118677577Y-88387338D01*
X118559334Y-88282585D01*
X118559332Y-88282584D01*
X118559331Y-88282583D01*
X118419459Y-88209171D01*
X118266080Y-88171368D01*
X118266079Y-88171368D01*
X118108109Y-88171368D01*
X118108108Y-88171368D01*
X117954728Y-88209171D01*
X117814856Y-88282583D01*
X117696610Y-88387339D01*
X117606875Y-88517343D01*
X117606874Y-88517344D01*
X117550856Y-88665049D01*
X117531816Y-88821867D01*
X117531816Y-88821868D01*
X98140500Y-88821868D01*
X98140500Y-83382001D01*
X98666505Y-83382001D01*
X98686460Y-83661013D01*
X98745917Y-83934328D01*
X98745919Y-83934335D01*
X98795960Y-84068500D01*
X98843671Y-84196420D01*
X98843673Y-84196424D01*
X98977723Y-84441918D01*
X98977728Y-84441926D01*
X99145350Y-84665843D01*
X99145366Y-84665861D01*
X99343138Y-84863633D01*
X99343156Y-84863649D01*
X99567073Y-85031271D01*
X99567081Y-85031276D01*
X99812575Y-85165326D01*
X99812579Y-85165328D01*
X99812581Y-85165329D01*
X100074665Y-85263081D01*
X100201015Y-85290567D01*
X100347986Y-85322539D01*
X100347988Y-85322539D01*
X100347992Y-85322540D01*
X100595934Y-85340273D01*
X100626999Y-85342495D01*
X100627000Y-85342495D01*
X100627001Y-85342495D01*
X100654952Y-85340495D01*
X100906008Y-85322540D01*
X101179335Y-85263081D01*
X101441419Y-85165329D01*
X101686924Y-85031273D01*
X101910851Y-84863643D01*
X101938494Y-84836000D01*
X108353785Y-84836000D01*
X108372602Y-85039082D01*
X108428417Y-85235247D01*
X108428422Y-85235260D01*
X108519327Y-85417821D01*
X108642237Y-85580581D01*
X108792958Y-85717980D01*
X108792960Y-85717982D01*
X108851931Y-85754495D01*
X108966363Y-85825348D01*
X109156544Y-85899024D01*
X109357024Y-85936500D01*
X109357026Y-85936500D01*
X109560974Y-85936500D01*
X109560976Y-85936500D01*
X109761456Y-85899024D01*
X109951637Y-85825348D01*
X110125041Y-85717981D01*
X110275764Y-85580579D01*
X110398673Y-85417821D01*
X110489582Y-85235250D01*
X110545397Y-85039083D01*
X110564215Y-84836000D01*
X110893785Y-84836000D01*
X110912602Y-85039082D01*
X110968417Y-85235247D01*
X110968422Y-85235260D01*
X111059327Y-85417821D01*
X111182237Y-85580581D01*
X111332958Y-85717980D01*
X111332960Y-85717982D01*
X111391931Y-85754495D01*
X111506363Y-85825348D01*
X111696544Y-85899024D01*
X111897024Y-85936500D01*
X111897026Y-85936500D01*
X112100974Y-85936500D01*
X112100976Y-85936500D01*
X112301456Y-85899024D01*
X112491637Y-85825348D01*
X112665041Y-85717981D01*
X112673052Y-85710678D01*
X113438500Y-85710678D01*
X113453032Y-85783735D01*
X113453033Y-85783739D01*
X113460663Y-85795158D01*
X113508399Y-85866601D01*
X113582837Y-85916338D01*
X113591260Y-85921966D01*
X113591264Y-85921967D01*
X113664321Y-85936499D01*
X113664324Y-85936500D01*
X113664326Y-85936500D01*
X115413676Y-85936500D01*
X115413677Y-85936499D01*
X115486740Y-85921966D01*
X115569601Y-85866601D01*
X115624966Y-85783740D01*
X115639500Y-85710674D01*
X115639500Y-83961326D01*
X115639500Y-83961325D01*
X115639500Y-83961323D01*
X115639499Y-83961321D01*
X115624967Y-83888264D01*
X115624966Y-83888260D01*
X115612735Y-83869955D01*
X115569601Y-83805399D01*
X115514235Y-83768405D01*
X115486739Y-83750033D01*
X115486735Y-83750032D01*
X115413677Y-83735500D01*
X115413674Y-83735500D01*
X113664326Y-83735500D01*
X113664323Y-83735500D01*
X113591264Y-83750032D01*
X113591260Y-83750033D01*
X113508399Y-83805399D01*
X113453033Y-83888260D01*
X113453032Y-83888264D01*
X113438500Y-83961321D01*
X113438500Y-85710678D01*
X112673052Y-85710678D01*
X112815764Y-85580579D01*
X112938673Y-85417821D01*
X113029582Y-85235250D01*
X113085397Y-85039083D01*
X113104215Y-84836000D01*
X113096972Y-84757839D01*
X113085397Y-84632917D01*
X113079377Y-84611760D01*
X113029582Y-84436750D01*
X112938673Y-84254179D01*
X112815764Y-84091421D01*
X112815762Y-84091418D01*
X112665041Y-83954019D01*
X112665039Y-83954017D01*
X112491642Y-83846655D01*
X112491635Y-83846651D01*
X112385150Y-83805399D01*
X112301456Y-83772976D01*
X112100976Y-83735500D01*
X111897024Y-83735500D01*
X111696544Y-83772976D01*
X111696541Y-83772976D01*
X111696541Y-83772977D01*
X111506364Y-83846651D01*
X111506357Y-83846655D01*
X111332960Y-83954017D01*
X111332958Y-83954019D01*
X111182237Y-84091418D01*
X111059327Y-84254178D01*
X110968422Y-84436739D01*
X110968417Y-84436752D01*
X110912602Y-84632917D01*
X110893785Y-84835999D01*
X110893785Y-84836000D01*
X110564215Y-84836000D01*
X110556972Y-84757839D01*
X110545397Y-84632917D01*
X110539377Y-84611760D01*
X110489582Y-84436750D01*
X110398673Y-84254179D01*
X110275764Y-84091421D01*
X110275762Y-84091418D01*
X110125041Y-83954019D01*
X110125039Y-83954017D01*
X109951642Y-83846655D01*
X109951635Y-83846651D01*
X109845150Y-83805399D01*
X109761456Y-83772976D01*
X109560976Y-83735500D01*
X109357024Y-83735500D01*
X109156544Y-83772976D01*
X109156541Y-83772976D01*
X109156541Y-83772977D01*
X108966364Y-83846651D01*
X108966357Y-83846655D01*
X108792960Y-83954017D01*
X108792958Y-83954019D01*
X108642237Y-84091418D01*
X108519327Y-84254178D01*
X108428422Y-84436739D01*
X108428417Y-84436752D01*
X108372602Y-84632917D01*
X108353785Y-84835999D01*
X108353785Y-84836000D01*
X101938494Y-84836000D01*
X102108643Y-84665851D01*
X102276273Y-84441924D01*
X102410329Y-84196419D01*
X102508081Y-83934335D01*
X102567540Y-83661008D01*
X102587495Y-83382000D01*
X102567540Y-83102992D01*
X102564095Y-83087157D01*
X102508082Y-82829671D01*
X102508081Y-82829665D01*
X102410329Y-82567581D01*
X102375382Y-82503581D01*
X102276276Y-82322081D01*
X102276271Y-82322073D01*
X102108649Y-82098156D01*
X102108633Y-82098138D01*
X101910861Y-81900366D01*
X101910843Y-81900350D01*
X101749891Y-81779863D01*
X103946500Y-81779863D01*
X103946501Y-81779882D01*
X103952908Y-81839481D01*
X104003202Y-81974327D01*
X104003203Y-81974328D01*
X104003204Y-81974330D01*
X104089454Y-82089546D01*
X104204670Y-82175796D01*
X104204671Y-82175796D01*
X104204672Y-82175797D01*
X104339518Y-82226091D01*
X104339517Y-82226091D01*
X104346445Y-82226835D01*
X104399128Y-82232500D01*
X104399137Y-82232500D01*
X105494863Y-82232500D01*
X105494872Y-82232500D01*
X105554482Y-82226091D01*
X105689330Y-82175796D01*
X105804546Y-82089546D01*
X105890796Y-81974330D01*
X105941091Y-81839482D01*
X105947500Y-81779872D01*
X105947500Y-81232000D01*
X106941659Y-81232000D01*
X106960975Y-81428129D01*
X106960976Y-81428132D01*
X107017534Y-81614579D01*
X107018188Y-81616733D01*
X107111086Y-81790532D01*
X107111090Y-81790539D01*
X107236116Y-81942883D01*
X107388460Y-82067909D01*
X107388467Y-82067913D01*
X107562266Y-82160811D01*
X107562269Y-82160811D01*
X107562273Y-82160814D01*
X107750868Y-82218024D01*
X107947000Y-82237341D01*
X108143132Y-82218024D01*
X108331727Y-82160814D01*
X108505538Y-82067910D01*
X108657883Y-81942883D01*
X108782910Y-81790538D01*
X108875814Y-81616727D01*
X108933024Y-81428132D01*
X108952341Y-81232000D01*
X108933024Y-81035868D01*
X108875814Y-80847273D01*
X108875811Y-80847269D01*
X108875811Y-80847266D01*
X108782913Y-80673467D01*
X108782909Y-80673460D01*
X108657883Y-80521116D01*
X108505539Y-80396090D01*
X108505532Y-80396086D01*
X108331733Y-80303188D01*
X108331727Y-80303186D01*
X108143132Y-80245976D01*
X108143129Y-80245975D01*
X107947000Y-80226659D01*
X107750870Y-80245975D01*
X107562266Y-80303188D01*
X107388467Y-80396086D01*
X107388460Y-80396090D01*
X107236116Y-80521116D01*
X107111090Y-80673460D01*
X107111086Y-80673467D01*
X107018188Y-80847266D01*
X106960975Y-81035870D01*
X106941659Y-81232000D01*
X105947500Y-81232000D01*
X105947500Y-80684128D01*
X105941091Y-80624518D01*
X105905721Y-80529685D01*
X105890797Y-80489672D01*
X105890796Y-80489671D01*
X105890796Y-80489670D01*
X105804546Y-80374454D01*
X105689330Y-80288204D01*
X105689328Y-80288203D01*
X105689327Y-80288202D01*
X105554481Y-80237908D01*
X105554482Y-80237908D01*
X105494882Y-80231501D01*
X105494880Y-80231500D01*
X105494872Y-80231500D01*
X104399128Y-80231500D01*
X104399120Y-80231500D01*
X104399117Y-80231501D01*
X104339518Y-80237908D01*
X104204672Y-80288202D01*
X104204670Y-80288204D01*
X104089454Y-80374454D01*
X104003204Y-80489670D01*
X104003202Y-80489672D01*
X103952908Y-80624518D01*
X103946501Y-80684117D01*
X103946500Y-80684136D01*
X103946500Y-81779863D01*
X101749891Y-81779863D01*
X101686926Y-81732728D01*
X101686918Y-81732723D01*
X101441424Y-81598673D01*
X101441420Y-81598671D01*
X101342059Y-81561611D01*
X101179335Y-81500919D01*
X101179331Y-81500918D01*
X101179328Y-81500917D01*
X100906013Y-81441460D01*
X100627001Y-81421505D01*
X100626999Y-81421505D01*
X100347986Y-81441460D01*
X100074671Y-81500917D01*
X100074666Y-81500918D01*
X100074665Y-81500919D01*
X100011300Y-81524552D01*
X99812579Y-81598671D01*
X99812575Y-81598673D01*
X99567081Y-81732723D01*
X99567073Y-81732728D01*
X99343156Y-81900350D01*
X99343138Y-81900366D01*
X99145366Y-82098138D01*
X99145350Y-82098156D01*
X98977728Y-82322073D01*
X98977723Y-82322081D01*
X98843673Y-82567575D01*
X98843671Y-82567579D01*
X98745917Y-82829671D01*
X98686460Y-83102986D01*
X98666505Y-83381998D01*
X98666505Y-83382001D01*
X98140500Y-83382001D01*
X98140500Y-80010000D01*
X116753721Y-80010000D01*
X116772762Y-80166818D01*
X116824480Y-80303186D01*
X116828780Y-80314523D01*
X116918517Y-80444530D01*
X117036760Y-80549283D01*
X117036762Y-80549284D01*
X117176634Y-80622696D01*
X117330014Y-80660500D01*
X117330015Y-80660500D01*
X117487985Y-80660500D01*
X117641365Y-80622696D01*
X117664602Y-80610500D01*
X117781240Y-80549283D01*
X117899483Y-80444530D01*
X117989220Y-80314523D01*
X118045237Y-80166818D01*
X118064278Y-80010000D01*
X118058207Y-79960000D01*
X121913721Y-79960000D01*
X121932762Y-80116818D01*
X121981746Y-80245975D01*
X121988780Y-80264523D01*
X122078517Y-80394530D01*
X122196760Y-80499283D01*
X122196762Y-80499284D01*
X122336634Y-80572696D01*
X122490014Y-80610500D01*
X122490015Y-80610500D01*
X122647985Y-80610500D01*
X122801365Y-80572696D01*
X122845974Y-80549283D01*
X122941240Y-80499283D01*
X123059483Y-80394530D01*
X123149220Y-80264523D01*
X123205237Y-80116818D01*
X123224278Y-79960000D01*
X123205237Y-79803182D01*
X123149220Y-79655477D01*
X123059483Y-79525470D01*
X122941240Y-79420717D01*
X122941238Y-79420716D01*
X122941237Y-79420715D01*
X122801365Y-79347303D01*
X122647986Y-79309500D01*
X122647985Y-79309500D01*
X122490015Y-79309500D01*
X122490014Y-79309500D01*
X122336634Y-79347303D01*
X122196762Y-79420715D01*
X122078516Y-79525471D01*
X121988781Y-79655475D01*
X121988780Y-79655476D01*
X121932762Y-79803181D01*
X121913721Y-79959999D01*
X121913721Y-79960000D01*
X118058207Y-79960000D01*
X118045237Y-79853182D01*
X117989220Y-79705477D01*
X117899483Y-79575470D01*
X117781240Y-79470717D01*
X117781238Y-79470716D01*
X117781237Y-79470715D01*
X117641365Y-79397303D01*
X117487986Y-79359500D01*
X117487985Y-79359500D01*
X117330015Y-79359500D01*
X117330014Y-79359500D01*
X117176634Y-79397303D01*
X117036762Y-79470715D01*
X116918516Y-79575471D01*
X116828781Y-79705475D01*
X116828780Y-79705476D01*
X116772762Y-79853181D01*
X116753721Y-80009999D01*
X116753721Y-80010000D01*
X98140500Y-80010000D01*
X98140500Y-76472688D01*
X121484818Y-76472688D01*
X121505455Y-76629447D01*
X121505456Y-76629449D01*
X121565964Y-76775528D01*
X121662218Y-76900969D01*
X121787659Y-76997223D01*
X121933738Y-77057731D01*
X122090500Y-77078369D01*
X122127077Y-77073553D01*
X122196109Y-77084318D01*
X122230942Y-77108811D01*
X122915323Y-77793192D01*
X122948808Y-77854515D01*
X122943824Y-77924207D01*
X122942205Y-77928322D01*
X122933956Y-77948237D01*
X122933955Y-77948239D01*
X122913318Y-78104998D01*
X122913318Y-78105001D01*
X122933955Y-78261760D01*
X122933956Y-78261762D01*
X122994464Y-78407841D01*
X123090718Y-78533282D01*
X123216159Y-78629536D01*
X123362238Y-78690044D01*
X123440618Y-78700363D01*
X123518999Y-78710682D01*
X123519000Y-78710682D01*
X123519001Y-78710682D01*
X123571254Y-78703802D01*
X123675762Y-78690044D01*
X123821841Y-78629536D01*
X123947282Y-78533282D01*
X124043536Y-78407841D01*
X124104044Y-78261762D01*
X124107961Y-78232007D01*
X129570671Y-78232007D01*
X129589964Y-78526363D01*
X129589965Y-78526373D01*
X129589966Y-78526380D01*
X129635294Y-78754264D01*
X129647518Y-78815716D01*
X129647521Y-78815730D01*
X129742349Y-79095080D01*
X129872825Y-79359660D01*
X129872829Y-79359667D01*
X130036725Y-79604955D01*
X130231241Y-79826758D01*
X130453044Y-80021274D01*
X130596036Y-80116818D01*
X130698335Y-80185172D01*
X130962923Y-80315652D01*
X131242278Y-80410481D01*
X131531620Y-80468034D01*
X131559888Y-80469886D01*
X131825993Y-80487329D01*
X131826000Y-80487329D01*
X131826007Y-80487329D01*
X131988494Y-80476678D01*
X137735500Y-80476678D01*
X137750032Y-80549735D01*
X137750033Y-80549739D01*
X137750034Y-80549740D01*
X137805399Y-80632601D01*
X137882516Y-80684128D01*
X137888260Y-80687966D01*
X137888264Y-80687967D01*
X137961321Y-80702499D01*
X137961324Y-80702500D01*
X137961326Y-80702500D01*
X139610676Y-80702500D01*
X139610677Y-80702499D01*
X139683740Y-80687966D01*
X139766601Y-80632601D01*
X139821966Y-80549740D01*
X139836500Y-80476674D01*
X139836500Y-79652000D01*
X140500417Y-79652000D01*
X140502632Y-79674497D01*
X140520699Y-79857932D01*
X140520700Y-79857934D01*
X140580768Y-80055954D01*
X140678315Y-80238450D01*
X140699713Y-80264524D01*
X140809589Y-80398410D01*
X140894429Y-80468035D01*
X140969550Y-80529685D01*
X141152046Y-80627232D01*
X141350066Y-80687300D01*
X141350065Y-80687300D01*
X141368529Y-80689118D01*
X141556000Y-80707583D01*
X141761934Y-80687300D01*
X141959954Y-80627232D01*
X142142450Y-80529685D01*
X142302410Y-80398410D01*
X142433685Y-80238450D01*
X142531232Y-80055954D01*
X142591300Y-79857934D01*
X142611583Y-79652000D01*
X143270417Y-79652000D01*
X143272632Y-79674497D01*
X143290699Y-79857932D01*
X143290700Y-79857934D01*
X143350768Y-80055954D01*
X143448315Y-80238450D01*
X143469713Y-80264524D01*
X143579589Y-80398410D01*
X143664429Y-80468035D01*
X143739550Y-80529685D01*
X143922046Y-80627232D01*
X144120066Y-80687300D01*
X144120065Y-80687300D01*
X144138529Y-80689118D01*
X144326000Y-80707583D01*
X144531934Y-80687300D01*
X144729954Y-80627232D01*
X144912450Y-80529685D01*
X145072410Y-80398410D01*
X145203685Y-80238450D01*
X145301232Y-80055954D01*
X145361300Y-79857934D01*
X145381583Y-79652000D01*
X146040417Y-79652000D01*
X146042632Y-79674497D01*
X146060699Y-79857932D01*
X146060700Y-79857934D01*
X146120768Y-80055954D01*
X146218315Y-80238450D01*
X146239713Y-80264524D01*
X146349589Y-80398410D01*
X146434429Y-80468035D01*
X146509550Y-80529685D01*
X146692046Y-80627232D01*
X146890066Y-80687300D01*
X146890065Y-80687300D01*
X146908529Y-80689118D01*
X147096000Y-80707583D01*
X147301934Y-80687300D01*
X147499954Y-80627232D01*
X147682450Y-80529685D01*
X147842410Y-80398410D01*
X147973685Y-80238450D01*
X148071232Y-80055954D01*
X148131300Y-79857934D01*
X148151583Y-79652000D01*
X148810417Y-79652000D01*
X148812632Y-79674497D01*
X148830699Y-79857932D01*
X148830700Y-79857934D01*
X148890768Y-80055954D01*
X148988315Y-80238450D01*
X149009713Y-80264524D01*
X149119589Y-80398410D01*
X149204429Y-80468035D01*
X149279550Y-80529685D01*
X149462046Y-80627232D01*
X149660066Y-80687300D01*
X149660065Y-80687300D01*
X149678529Y-80689118D01*
X149866000Y-80707583D01*
X150071934Y-80687300D01*
X150269954Y-80627232D01*
X150452450Y-80529685D01*
X150612410Y-80398410D01*
X150743685Y-80238450D01*
X150841232Y-80055954D01*
X150901300Y-79857934D01*
X150921583Y-79652000D01*
X150901300Y-79446066D01*
X150841232Y-79248046D01*
X150743685Y-79065550D01*
X150691702Y-79002209D01*
X150612410Y-78905589D01*
X150452452Y-78774317D01*
X150452453Y-78774317D01*
X150452450Y-78774315D01*
X150269954Y-78676768D01*
X150071934Y-78616700D01*
X150071932Y-78616699D01*
X150071934Y-78616699D01*
X149884463Y-78598235D01*
X149866000Y-78596417D01*
X149865999Y-78596417D01*
X149660067Y-78616699D01*
X149462043Y-78676769D01*
X149351898Y-78735643D01*
X149279550Y-78774315D01*
X149279548Y-78774316D01*
X149279547Y-78774317D01*
X149119589Y-78905589D01*
X148988317Y-79065547D01*
X148988315Y-79065550D01*
X148972531Y-79095080D01*
X148890769Y-79248043D01*
X148830699Y-79446067D01*
X148815050Y-79604957D01*
X148810417Y-79652000D01*
X148151583Y-79652000D01*
X148131300Y-79446066D01*
X148071232Y-79248046D01*
X147973685Y-79065550D01*
X147921702Y-79002209D01*
X147842410Y-78905589D01*
X147682452Y-78774317D01*
X147682453Y-78774317D01*
X147682450Y-78774315D01*
X147499954Y-78676768D01*
X147301934Y-78616700D01*
X147301932Y-78616699D01*
X147301934Y-78616699D01*
X147096000Y-78596417D01*
X146890067Y-78616699D01*
X146692043Y-78676769D01*
X146581897Y-78735643D01*
X146509550Y-78774315D01*
X146509548Y-78774316D01*
X146509547Y-78774317D01*
X146349589Y-78905589D01*
X146218317Y-79065547D01*
X146218315Y-79065550D01*
X146202531Y-79095080D01*
X146120769Y-79248043D01*
X146060699Y-79446067D01*
X146045050Y-79604957D01*
X146040417Y-79652000D01*
X145381583Y-79652000D01*
X145361300Y-79446066D01*
X145301232Y-79248046D01*
X145203685Y-79065550D01*
X145151702Y-79002209D01*
X145072410Y-78905589D01*
X144912452Y-78774317D01*
X144912453Y-78774317D01*
X144912450Y-78774315D01*
X144729954Y-78676768D01*
X144531934Y-78616700D01*
X144531932Y-78616699D01*
X144531934Y-78616699D01*
X144326000Y-78596417D01*
X144120067Y-78616699D01*
X143922043Y-78676769D01*
X143811898Y-78735643D01*
X143739550Y-78774315D01*
X143739548Y-78774316D01*
X143739547Y-78774317D01*
X143579589Y-78905589D01*
X143448317Y-79065547D01*
X143448315Y-79065550D01*
X143432531Y-79095080D01*
X143350769Y-79248043D01*
X143290699Y-79446067D01*
X143275050Y-79604957D01*
X143270417Y-79652000D01*
X142611583Y-79652000D01*
X142591300Y-79446066D01*
X142531232Y-79248046D01*
X142433685Y-79065550D01*
X142381702Y-79002209D01*
X142302410Y-78905589D01*
X142142452Y-78774317D01*
X142142453Y-78774317D01*
X142142450Y-78774315D01*
X141959954Y-78676768D01*
X141761934Y-78616700D01*
X141761932Y-78616699D01*
X141761934Y-78616699D01*
X141556000Y-78596417D01*
X141350067Y-78616699D01*
X141152043Y-78676769D01*
X141041897Y-78735643D01*
X140969550Y-78774315D01*
X140969548Y-78774316D01*
X140969547Y-78774317D01*
X140809589Y-78905589D01*
X140678317Y-79065547D01*
X140678315Y-79065550D01*
X140662531Y-79095080D01*
X140580769Y-79248043D01*
X140520699Y-79446067D01*
X140505050Y-79604957D01*
X140500417Y-79652000D01*
X139836500Y-79652000D01*
X139836500Y-78827326D01*
X139836500Y-78827323D01*
X139836499Y-78827321D01*
X139821967Y-78754264D01*
X139821966Y-78754260D01*
X139766601Y-78671399D01*
X139684737Y-78616700D01*
X139683739Y-78616033D01*
X139683735Y-78616032D01*
X139610677Y-78601500D01*
X139610674Y-78601500D01*
X137961326Y-78601500D01*
X137961323Y-78601500D01*
X137888264Y-78616032D01*
X137888260Y-78616033D01*
X137805399Y-78671399D01*
X137750033Y-78754260D01*
X137750032Y-78754264D01*
X137735500Y-78827321D01*
X137735500Y-80476678D01*
X131988494Y-80476678D01*
X132061675Y-80471881D01*
X132120380Y-80468034D01*
X132409722Y-80410481D01*
X132689077Y-80315652D01*
X132953665Y-80185172D01*
X133198957Y-80021273D01*
X133420758Y-79826758D01*
X133615273Y-79604957D01*
X133779172Y-79359665D01*
X133909652Y-79095077D01*
X134004481Y-78815722D01*
X134062034Y-78526380D01*
X134069804Y-78407839D01*
X134081329Y-78232007D01*
X154570671Y-78232007D01*
X154589964Y-78526363D01*
X154589965Y-78526373D01*
X154589966Y-78526380D01*
X154635294Y-78754264D01*
X154647518Y-78815716D01*
X154647521Y-78815730D01*
X154742349Y-79095080D01*
X154872825Y-79359660D01*
X154872829Y-79359667D01*
X155036725Y-79604955D01*
X155231241Y-79826758D01*
X155453044Y-80021274D01*
X155596036Y-80116818D01*
X155698335Y-80185172D01*
X155962923Y-80315652D01*
X156242278Y-80410481D01*
X156531620Y-80468034D01*
X156559888Y-80469886D01*
X156825993Y-80487329D01*
X156826000Y-80487329D01*
X156826007Y-80487329D01*
X157061675Y-80471881D01*
X157120380Y-80468034D01*
X157409722Y-80410481D01*
X157689077Y-80315652D01*
X157953665Y-80185172D01*
X158198957Y-80021273D01*
X158420758Y-79826758D01*
X158615273Y-79604957D01*
X158779172Y-79359665D01*
X158909652Y-79095077D01*
X159004481Y-78815722D01*
X159062034Y-78526380D01*
X159069804Y-78407839D01*
X159081329Y-78232007D01*
X159081329Y-78231992D01*
X159062035Y-77937636D01*
X159062034Y-77937620D01*
X159004481Y-77648278D01*
X158909652Y-77368923D01*
X158779172Y-77104336D01*
X158765796Y-77084318D01*
X158707602Y-76997223D01*
X158615273Y-76859043D01*
X158542030Y-76775526D01*
X158420758Y-76637241D01*
X158198955Y-76442725D01*
X157953667Y-76278829D01*
X157953660Y-76278825D01*
X157689080Y-76148349D01*
X157409730Y-76053521D01*
X157409724Y-76053519D01*
X157409722Y-76053519D01*
X157120380Y-75995966D01*
X157120373Y-75995965D01*
X157120363Y-75995964D01*
X156826007Y-75976671D01*
X156825993Y-75976671D01*
X156531636Y-75995964D01*
X156531624Y-75995965D01*
X156531620Y-75995966D01*
X156531612Y-75995967D01*
X156531609Y-75995968D01*
X156242283Y-76053518D01*
X156242269Y-76053521D01*
X155962919Y-76148349D01*
X155698334Y-76278828D01*
X155453041Y-76442728D01*
X155231241Y-76637241D01*
X155036728Y-76859041D01*
X154872828Y-77104334D01*
X154742349Y-77368919D01*
X154647521Y-77648269D01*
X154647518Y-77648283D01*
X154589968Y-77937609D01*
X154589964Y-77937636D01*
X154570671Y-78231992D01*
X154570671Y-78232007D01*
X134081329Y-78232007D01*
X134081329Y-78231992D01*
X134062035Y-77937636D01*
X134062034Y-77937620D01*
X134004481Y-77648278D01*
X133909652Y-77368923D01*
X133779172Y-77104336D01*
X133765796Y-77084318D01*
X133707602Y-76997223D01*
X133615273Y-76859043D01*
X133574017Y-76812000D01*
X139115417Y-76812000D01*
X139135699Y-77017932D01*
X139155837Y-77084318D01*
X139195768Y-77215954D01*
X139293315Y-77398450D01*
X139293317Y-77398452D01*
X139424589Y-77558410D01*
X139521209Y-77637702D01*
X139584550Y-77689685D01*
X139767046Y-77787232D01*
X139965066Y-77847300D01*
X139965065Y-77847300D01*
X139985347Y-77849297D01*
X140171000Y-77867583D01*
X140376934Y-77847300D01*
X140574954Y-77787232D01*
X140757450Y-77689685D01*
X140917410Y-77558410D01*
X141048685Y-77398450D01*
X141146232Y-77215954D01*
X141206300Y-77017934D01*
X141226583Y-76812000D01*
X141885417Y-76812000D01*
X141905699Y-77017932D01*
X141925837Y-77084318D01*
X141965768Y-77215954D01*
X142063315Y-77398450D01*
X142063317Y-77398452D01*
X142194589Y-77558410D01*
X142291209Y-77637702D01*
X142354550Y-77689685D01*
X142537046Y-77787232D01*
X142735066Y-77847300D01*
X142735065Y-77847300D01*
X142753529Y-77849118D01*
X142941000Y-77867583D01*
X143146934Y-77847300D01*
X143344954Y-77787232D01*
X143527450Y-77689685D01*
X143687410Y-77558410D01*
X143818685Y-77398450D01*
X143916232Y-77215954D01*
X143976300Y-77017934D01*
X143996583Y-76812000D01*
X144655417Y-76812000D01*
X144675699Y-77017932D01*
X144695837Y-77084318D01*
X144735768Y-77215954D01*
X144833315Y-77398450D01*
X144833317Y-77398452D01*
X144964589Y-77558410D01*
X145061209Y-77637702D01*
X145124550Y-77689685D01*
X145307046Y-77787232D01*
X145505066Y-77847300D01*
X145505065Y-77847300D01*
X145525348Y-77849297D01*
X145711000Y-77867583D01*
X145916934Y-77847300D01*
X146114954Y-77787232D01*
X146297450Y-77689685D01*
X146457410Y-77558410D01*
X146588685Y-77398450D01*
X146686232Y-77215954D01*
X146746300Y-77017934D01*
X146766583Y-76812000D01*
X147425417Y-76812000D01*
X147445699Y-77017932D01*
X147465837Y-77084318D01*
X147505768Y-77215954D01*
X147603315Y-77398450D01*
X147603317Y-77398452D01*
X147734589Y-77558410D01*
X147831209Y-77637702D01*
X147894550Y-77689685D01*
X148077046Y-77787232D01*
X148275066Y-77847300D01*
X148275065Y-77847300D01*
X148293529Y-77849118D01*
X148481000Y-77867583D01*
X148686934Y-77847300D01*
X148884954Y-77787232D01*
X149067450Y-77689685D01*
X149227410Y-77558410D01*
X149358685Y-77398450D01*
X149456232Y-77215954D01*
X149516300Y-77017934D01*
X149536583Y-76812000D01*
X149516300Y-76606066D01*
X149456232Y-76408046D01*
X149358685Y-76225550D01*
X149295327Y-76148348D01*
X149227410Y-76065589D01*
X149067452Y-75934317D01*
X149067453Y-75934317D01*
X149067450Y-75934315D01*
X148884954Y-75836768D01*
X148686934Y-75776700D01*
X148686932Y-75776699D01*
X148686934Y-75776699D01*
X148481000Y-75756417D01*
X148275067Y-75776699D01*
X148077043Y-75836769D01*
X147981868Y-75887642D01*
X147894550Y-75934315D01*
X147894548Y-75934316D01*
X147894547Y-75934317D01*
X147734589Y-76065589D01*
X147603317Y-76225547D01*
X147505769Y-76408043D01*
X147445699Y-76606067D01*
X147425417Y-76812000D01*
X146766583Y-76812000D01*
X146746300Y-76606066D01*
X146686232Y-76408046D01*
X146588685Y-76225550D01*
X146525327Y-76148348D01*
X146457410Y-76065589D01*
X146297452Y-75934317D01*
X146297453Y-75934317D01*
X146297450Y-75934315D01*
X146114954Y-75836768D01*
X145916934Y-75776700D01*
X145916932Y-75776699D01*
X145916934Y-75776699D01*
X145711000Y-75756417D01*
X145505067Y-75776699D01*
X145307043Y-75836769D01*
X145211868Y-75887642D01*
X145124550Y-75934315D01*
X145124548Y-75934316D01*
X145124547Y-75934317D01*
X144964589Y-76065589D01*
X144833317Y-76225547D01*
X144735769Y-76408043D01*
X144675699Y-76606067D01*
X144655417Y-76812000D01*
X143996583Y-76812000D01*
X143976300Y-76606066D01*
X143916232Y-76408046D01*
X143818685Y-76225550D01*
X143755327Y-76148348D01*
X143687410Y-76065589D01*
X143527452Y-75934317D01*
X143527453Y-75934317D01*
X143527450Y-75934315D01*
X143344954Y-75836768D01*
X143146934Y-75776700D01*
X143146932Y-75776699D01*
X143146934Y-75776699D01*
X142959463Y-75758235D01*
X142941000Y-75756417D01*
X142940999Y-75756417D01*
X142735067Y-75776699D01*
X142537043Y-75836769D01*
X142441868Y-75887642D01*
X142354550Y-75934315D01*
X142354548Y-75934316D01*
X142354547Y-75934317D01*
X142194589Y-76065589D01*
X142063317Y-76225547D01*
X141965769Y-76408043D01*
X141905699Y-76606067D01*
X141885417Y-76812000D01*
X141226583Y-76812000D01*
X141206300Y-76606066D01*
X141146232Y-76408046D01*
X141048685Y-76225550D01*
X140985327Y-76148348D01*
X140917410Y-76065589D01*
X140757452Y-75934317D01*
X140757453Y-75934317D01*
X140757450Y-75934315D01*
X140574954Y-75836768D01*
X140376934Y-75776700D01*
X140376932Y-75776699D01*
X140376934Y-75776699D01*
X140189463Y-75758235D01*
X140171000Y-75756417D01*
X140170999Y-75756417D01*
X139965067Y-75776699D01*
X139767043Y-75836769D01*
X139671868Y-75887642D01*
X139584550Y-75934315D01*
X139584548Y-75934316D01*
X139584547Y-75934317D01*
X139424589Y-76065589D01*
X139293317Y-76225547D01*
X139195769Y-76408043D01*
X139135699Y-76606067D01*
X139115417Y-76812000D01*
X133574017Y-76812000D01*
X133542030Y-76775526D01*
X133420758Y-76637241D01*
X133198955Y-76442725D01*
X132953667Y-76278829D01*
X132953660Y-76278825D01*
X132689080Y-76148349D01*
X132409730Y-76053521D01*
X132409724Y-76053519D01*
X132409722Y-76053519D01*
X132120380Y-75995966D01*
X132120373Y-75995965D01*
X132120363Y-75995964D01*
X131826007Y-75976671D01*
X131825993Y-75976671D01*
X131531636Y-75995964D01*
X131531624Y-75995965D01*
X131531620Y-75995966D01*
X131531612Y-75995967D01*
X131531609Y-75995968D01*
X131242283Y-76053518D01*
X131242269Y-76053521D01*
X130962919Y-76148349D01*
X130698334Y-76278828D01*
X130453041Y-76442728D01*
X130231241Y-76637241D01*
X130036728Y-76859041D01*
X129872828Y-77104334D01*
X129742349Y-77368919D01*
X129647521Y-77648269D01*
X129647518Y-77648283D01*
X129589968Y-77937609D01*
X129589964Y-77937636D01*
X129570671Y-78231992D01*
X129570671Y-78232007D01*
X124107961Y-78232007D01*
X124124682Y-78105000D01*
X124104044Y-77948238D01*
X124043536Y-77802159D01*
X123947282Y-77676718D01*
X123821841Y-77580464D01*
X123675762Y-77519956D01*
X123668764Y-77519034D01*
X123604869Y-77490767D01*
X123597272Y-77483777D01*
X122726624Y-76613129D01*
X122693139Y-76551806D01*
X122691366Y-76509266D01*
X122696182Y-76472687D01*
X122675544Y-76315925D01*
X122615036Y-76169846D01*
X122518782Y-76044405D01*
X122393341Y-75948151D01*
X122285662Y-75903549D01*
X122247262Y-75887643D01*
X122247260Y-75887642D01*
X122090501Y-75867005D01*
X122090499Y-75867005D01*
X121933739Y-75887642D01*
X121933737Y-75887643D01*
X121787660Y-75948150D01*
X121662218Y-76044405D01*
X121565963Y-76169847D01*
X121505456Y-76315924D01*
X121505455Y-76315926D01*
X121484818Y-76472685D01*
X121484818Y-76472688D01*
X98140500Y-76472688D01*
X98140500Y-75232000D01*
X103941659Y-75232000D01*
X103960975Y-75428129D01*
X104018188Y-75616733D01*
X104111086Y-75790532D01*
X104111090Y-75790539D01*
X104236116Y-75942883D01*
X104388460Y-76067909D01*
X104388467Y-76067913D01*
X104562266Y-76160811D01*
X104562269Y-76160811D01*
X104562273Y-76160814D01*
X104750868Y-76218024D01*
X104947000Y-76237341D01*
X105143132Y-76218024D01*
X105331727Y-76160814D01*
X105355048Y-76148349D01*
X105505532Y-76067913D01*
X105505538Y-76067910D01*
X105657883Y-75942883D01*
X105782910Y-75790538D01*
X105875814Y-75616727D01*
X105933024Y-75428132D01*
X105952341Y-75232000D01*
X106941659Y-75232000D01*
X106960975Y-75428129D01*
X107018188Y-75616733D01*
X107111086Y-75790532D01*
X107111090Y-75790539D01*
X107236116Y-75942883D01*
X107388460Y-76067909D01*
X107388467Y-76067913D01*
X107562266Y-76160811D01*
X107562269Y-76160811D01*
X107562273Y-76160814D01*
X107750868Y-76218024D01*
X107947000Y-76237341D01*
X108143132Y-76218024D01*
X108331727Y-76160814D01*
X108355048Y-76148349D01*
X108505532Y-76067913D01*
X108505538Y-76067910D01*
X108657883Y-75942883D01*
X108782910Y-75790538D01*
X108875814Y-75616727D01*
X108933024Y-75428132D01*
X108937127Y-75386469D01*
X118810796Y-75386469D01*
X118810797Y-75386471D01*
X118840245Y-75553485D01*
X118840246Y-75553488D01*
X118840247Y-75553492D01*
X118907421Y-75709219D01*
X119008698Y-75845258D01*
X119138617Y-75954273D01*
X119290175Y-76030388D01*
X119455201Y-76069500D01*
X119455203Y-76069500D01*
X119882249Y-76069500D01*
X119882256Y-76069500D01*
X120008451Y-76054750D01*
X120167820Y-75996744D01*
X120309517Y-75903549D01*
X120425902Y-75780188D01*
X120510701Y-75633312D01*
X120559342Y-75470839D01*
X120564256Y-75386469D01*
X123810796Y-75386469D01*
X123810797Y-75386471D01*
X123840245Y-75553485D01*
X123840246Y-75553488D01*
X123840247Y-75553492D01*
X123907421Y-75709219D01*
X124008698Y-75845258D01*
X124138617Y-75954273D01*
X124290175Y-76030388D01*
X124455201Y-76069500D01*
X124455203Y-76069500D01*
X124882249Y-76069500D01*
X124882256Y-76069500D01*
X125008451Y-76054750D01*
X125167820Y-75996744D01*
X125309517Y-75903549D01*
X125425902Y-75780188D01*
X125510701Y-75633312D01*
X125559342Y-75470839D01*
X125569203Y-75301529D01*
X125539753Y-75134508D01*
X125472579Y-74978781D01*
X125371302Y-74842742D01*
X125241383Y-74733727D01*
X125236493Y-74731271D01*
X125089828Y-74657613D01*
X125089826Y-74657612D01*
X125089825Y-74657612D01*
X124924799Y-74618500D01*
X124497744Y-74618500D01*
X124387323Y-74631406D01*
X124371548Y-74633250D01*
X124212181Y-74691255D01*
X124151340Y-74731271D01*
X124070483Y-74784451D01*
X124070482Y-74784451D01*
X124070482Y-74784452D01*
X123954098Y-74907810D01*
X123869300Y-75054685D01*
X123820658Y-75217159D01*
X123820657Y-75217165D01*
X123810796Y-75386469D01*
X120564256Y-75386469D01*
X120569203Y-75301529D01*
X120539753Y-75134508D01*
X120472579Y-74978781D01*
X120371302Y-74842742D01*
X120241383Y-74733727D01*
X120236493Y-74731271D01*
X120089828Y-74657613D01*
X120089826Y-74657612D01*
X120089825Y-74657612D01*
X119924799Y-74618500D01*
X119497744Y-74618500D01*
X119387323Y-74631406D01*
X119371548Y-74633250D01*
X119212181Y-74691255D01*
X119151340Y-74731271D01*
X119070483Y-74784451D01*
X119070482Y-74784451D01*
X119070482Y-74784452D01*
X118954098Y-74907810D01*
X118869300Y-75054685D01*
X118820658Y-75217159D01*
X118820657Y-75217165D01*
X118810796Y-75386469D01*
X108937127Y-75386469D01*
X108952341Y-75232000D01*
X108933024Y-75035868D01*
X108875814Y-74847273D01*
X108875811Y-74847269D01*
X108875811Y-74847266D01*
X108782913Y-74673467D01*
X108782909Y-74673460D01*
X108657883Y-74521116D01*
X108505539Y-74396090D01*
X108505532Y-74396086D01*
X108331733Y-74303188D01*
X108331727Y-74303186D01*
X108143132Y-74245976D01*
X108143129Y-74245975D01*
X107947000Y-74226659D01*
X107750870Y-74245975D01*
X107562266Y-74303188D01*
X107388467Y-74396086D01*
X107388460Y-74396090D01*
X107236116Y-74521116D01*
X107111090Y-74673460D01*
X107111086Y-74673467D01*
X107018188Y-74847266D01*
X106960975Y-75035870D01*
X106941659Y-75232000D01*
X105952341Y-75232000D01*
X105933024Y-75035868D01*
X105875814Y-74847273D01*
X105875811Y-74847269D01*
X105875811Y-74847266D01*
X105782913Y-74673467D01*
X105782909Y-74673460D01*
X105657883Y-74521116D01*
X105505539Y-74396090D01*
X105505532Y-74396086D01*
X105331733Y-74303188D01*
X105331727Y-74303186D01*
X105143132Y-74245976D01*
X105143129Y-74245975D01*
X104947000Y-74226659D01*
X104750870Y-74245975D01*
X104562266Y-74303188D01*
X104388467Y-74396086D01*
X104388460Y-74396090D01*
X104236116Y-74521116D01*
X104111090Y-74673460D01*
X104111086Y-74673467D01*
X104018188Y-74847266D01*
X103960975Y-75035870D01*
X103941659Y-75232000D01*
X98140500Y-75232000D01*
X98140500Y-71154500D01*
X98160185Y-71087461D01*
X98212989Y-71041706D01*
X98264500Y-71030500D01*
X99844290Y-71030500D01*
X99911329Y-71050185D01*
G37*
%TD.AperFunction*%
%TD*%
M02*
