%TF.GenerationSoftware,KiCad,Pcbnew,7.0.6*%
%TF.CreationDate,2023-10-09T12:22:10-06:00*%
%TF.ProjectId,CAN-USB RF Module,43414e2d-5553-4422-9052-46204d6f6475,2.0*%
%TF.SameCoordinates,Original*%
%TF.FileFunction,Paste,Top*%
%TF.FilePolarity,Positive*%
%FSLAX46Y46*%
G04 Gerber Fmt 4.6, Leading zero omitted, Abs format (unit mm)*
G04 Created by KiCad (PCBNEW 7.0.6) date 2023-10-09 12:22:10*
%MOMM*%
%LPD*%
G01*
G04 APERTURE LIST*
G04 Aperture macros list*
%AMRoundRect*
0 Rectangle with rounded corners*
0 $1 Rounding radius*
0 $2 $3 $4 $5 $6 $7 $8 $9 X,Y pos of 4 corners*
0 Add a 4 corners polygon primitive as box body*
4,1,4,$2,$3,$4,$5,$6,$7,$8,$9,$2,$3,0*
0 Add four circle primitives for the rounded corners*
1,1,$1+$1,$2,$3*
1,1,$1+$1,$4,$5*
1,1,$1+$1,$6,$7*
1,1,$1+$1,$8,$9*
0 Add four rect primitives between the rounded corners*
20,1,$1+$1,$2,$3,$4,$5,0*
20,1,$1+$1,$4,$5,$6,$7,0*
20,1,$1+$1,$6,$7,$8,$9,0*
20,1,$1+$1,$8,$9,$2,$3,0*%
G04 Aperture macros list end*
%ADD10RoundRect,0.200000X-0.200000X-0.275000X0.200000X-0.275000X0.200000X0.275000X-0.200000X0.275000X0*%
%ADD11RoundRect,0.218750X0.256250X-0.218750X0.256250X0.218750X-0.256250X0.218750X-0.256250X-0.218750X0*%
%ADD12RoundRect,0.200000X0.275000X-0.200000X0.275000X0.200000X-0.275000X0.200000X-0.275000X-0.200000X0*%
%ADD13R,2.000000X1.500000*%
%ADD14R,2.000000X3.800000*%
%ADD15RoundRect,0.218750X-0.218750X-0.256250X0.218750X-0.256250X0.218750X0.256250X-0.218750X0.256250X0*%
%ADD16R,1.200000X1.400000*%
%ADD17RoundRect,0.200000X-0.275000X0.200000X-0.275000X-0.200000X0.275000X-0.200000X0.275000X0.200000X0*%
%ADD18RoundRect,0.200000X0.200000X0.275000X-0.200000X0.275000X-0.200000X-0.275000X0.200000X-0.275000X0*%
%ADD19RoundRect,0.140000X-0.170000X0.140000X-0.170000X-0.140000X0.170000X-0.140000X0.170000X0.140000X0*%
%ADD20RoundRect,0.250000X-0.475000X0.250000X-0.475000X-0.250000X0.475000X-0.250000X0.475000X0.250000X0*%
%ADD21R,1.050000X0.650000*%
%ADD22RoundRect,0.140000X-0.140000X-0.170000X0.140000X-0.170000X0.140000X0.170000X-0.140000X0.170000X0*%
%ADD23RoundRect,0.225000X-0.250000X0.225000X-0.250000X-0.225000X0.250000X-0.225000X0.250000X0.225000X0*%
%ADD24RoundRect,0.250000X1.500000X0.550000X-1.500000X0.550000X-1.500000X-0.550000X1.500000X-0.550000X0*%
%ADD25RoundRect,0.140000X0.140000X0.170000X-0.140000X0.170000X-0.140000X-0.170000X0.140000X-0.170000X0*%
%ADD26RoundRect,0.250000X0.262500X0.450000X-0.262500X0.450000X-0.262500X-0.450000X0.262500X-0.450000X0*%
%ADD27RoundRect,0.225000X-0.225000X-0.250000X0.225000X-0.250000X0.225000X0.250000X-0.225000X0.250000X0*%
%ADD28O,0.890000X1.550000*%
%ADD29O,1.250000X0.950000*%
%ADD30R,0.400000X1.350000*%
%ADD31R,1.200000X1.550000*%
%ADD32R,1.500000X1.550000*%
%ADD33RoundRect,0.225000X0.225000X0.250000X-0.225000X0.250000X-0.225000X-0.250000X0.225000X-0.250000X0*%
%ADD34R,2.200000X2.150000*%
%ADD35R,1.000000X0.800000*%
%ADD36R,0.700000X1.500000*%
%ADD37RoundRect,0.250000X0.250000X0.475000X-0.250000X0.475000X-0.250000X-0.475000X0.250000X-0.475000X0*%
%ADD38R,4.560000X0.850000*%
%ADD39R,4.560000X1.000000*%
%ADD40R,1.200000X0.400000*%
%ADD41RoundRect,0.218750X-0.256250X0.218750X-0.256250X-0.218750X0.256250X-0.218750X0.256250X0.218750X0*%
%ADD42RoundRect,0.250000X-0.250000X-0.475000X0.250000X-0.475000X0.250000X0.475000X-0.250000X0.475000X0*%
%ADD43R,0.600000X1.200000*%
%ADD44RoundRect,0.140000X0.170000X-0.140000X0.170000X0.140000X-0.170000X0.140000X-0.170000X-0.140000X0*%
%ADD45R,1.800000X2.600000*%
%ADD46RoundRect,0.230000X0.375000X-0.230000X0.375000X0.230000X-0.375000X0.230000X-0.375000X-0.230000X0*%
%ADD47RoundRect,0.150000X0.150000X-0.825000X0.150000X0.825000X-0.150000X0.825000X-0.150000X-0.825000X0*%
%ADD48RoundRect,0.225000X0.250000X-0.225000X0.250000X0.225000X-0.250000X0.225000X-0.250000X-0.225000X0*%
%ADD49R,0.610000X1.910000*%
%ADD50R,0.930000X0.723000*%
%ADD51RoundRect,0.150000X-0.150000X0.587500X-0.150000X-0.587500X0.150000X-0.587500X0.150000X0.587500X0*%
%ADD52R,0.650000X0.250000*%
%ADD53R,1.700000X2.500000*%
%ADD54RoundRect,0.232500X-0.232500X-0.232500X0.232500X-0.232500X0.232500X0.232500X-0.232500X0.232500X0*%
%ADD55RoundRect,0.062500X-0.375000X-0.062500X0.375000X-0.062500X0.375000X0.062500X-0.375000X0.062500X0*%
%ADD56RoundRect,0.062500X-0.062500X-0.375000X0.062500X-0.375000X0.062500X0.375000X-0.062500X0.375000X0*%
%ADD57R,0.400000X0.510000*%
G04 APERTURE END LIST*
D10*
%TO.C,R9*%
X113475000Y-103251000D03*
X115125000Y-103251000D03*
%TD*%
D11*
%TO.C,D7*%
X120142000Y-102260500D03*
X120142000Y-100685500D03*
%TD*%
D12*
%TO.C,R15*%
X123712000Y-85453000D03*
X123712000Y-83803000D03*
%TD*%
D13*
%TO.C,U5*%
X104164600Y-110095000D03*
X104164600Y-112395000D03*
D14*
X110464600Y-112395000D03*
D13*
X104164600Y-114695000D03*
%TD*%
D10*
%TO.C,R7*%
X112713000Y-88900000D03*
X114363000Y-88900000D03*
%TD*%
D15*
%TO.C,D5*%
X108051500Y-90424000D03*
X109626500Y-90424000D03*
%TD*%
D16*
%TO.C,U1*%
X130136000Y-107780000D03*
X130136000Y-105580000D03*
X128436000Y-105580000D03*
X128436000Y-107780000D03*
%TD*%
D17*
%TO.C,R12*%
X120142000Y-97600000D03*
X120142000Y-99250000D03*
%TD*%
D18*
%TO.C,R10*%
X114236000Y-101727000D03*
X112586000Y-101727000D03*
%TD*%
%TO.C,FB1*%
X126967500Y-103604000D03*
X125317500Y-103604000D03*
%TD*%
D19*
%TO.C,C1*%
X118618000Y-116741000D03*
X118618000Y-117701000D03*
%TD*%
D20*
%TO.C,C23*%
X152908000Y-95062000D03*
X152908000Y-96962000D03*
%TD*%
D21*
%TO.C,SW3*%
X145331000Y-117320000D03*
X141181000Y-117320000D03*
X145331000Y-115170000D03*
X141181000Y-115170000D03*
%TD*%
D22*
%TO.C,C19*%
X120565000Y-82550000D03*
X121525000Y-82550000D03*
%TD*%
D20*
%TO.C,C14*%
X123698000Y-107889000D03*
X123698000Y-109789000D03*
%TD*%
D23*
%TO.C,C13*%
X112903000Y-109156200D03*
X112903000Y-110706200D03*
%TD*%
D24*
%TO.C,C10*%
X108337000Y-98679000D03*
X102737000Y-98679000D03*
%TD*%
D25*
%TO.C,C24*%
X145260000Y-111760000D03*
X144300000Y-111760000D03*
%TD*%
D17*
%TO.C,R11*%
X123190000Y-97600000D03*
X123190000Y-99250000D03*
%TD*%
%TO.C,R13*%
X121666000Y-97600000D03*
X121666000Y-99250000D03*
%TD*%
D11*
%TO.C,D6*%
X123190000Y-102260500D03*
X123190000Y-100685500D03*
%TD*%
D26*
%TO.C,R18*%
X142644500Y-113284000D03*
X140819500Y-113284000D03*
%TD*%
D23*
%TO.C,C16*%
X118632000Y-88298000D03*
X118632000Y-89848000D03*
%TD*%
D11*
%TO.C,D2*%
X137287000Y-116465750D03*
X137287000Y-114890750D03*
%TD*%
D22*
%TO.C,C15*%
X125631000Y-88265000D03*
X126591000Y-88265000D03*
%TD*%
D11*
%TO.C,D3*%
X138811000Y-116465750D03*
X138811000Y-114890750D03*
%TD*%
D27*
%TO.C,C45*%
X137909000Y-92329000D03*
X139459000Y-92329000D03*
%TD*%
D19*
%TO.C,C17*%
X119902000Y-88311000D03*
X119902000Y-89271000D03*
%TD*%
%TO.C,C5*%
X127000000Y-106708000D03*
X127000000Y-107668000D03*
%TD*%
D26*
%TO.C,R17*%
X146073500Y-113284000D03*
X144248500Y-113284000D03*
%TD*%
D28*
%TO.C,J4*%
X125690000Y-72644000D03*
D29*
X124690000Y-75344000D03*
X119690000Y-75344000D03*
D28*
X118690000Y-72644000D03*
D30*
X123490000Y-75344000D03*
X122840000Y-75344000D03*
X122190000Y-75344000D03*
X121540000Y-75344000D03*
X120890000Y-75344000D03*
D31*
X125090000Y-72644000D03*
D32*
X123190000Y-72644000D03*
X121190000Y-72644000D03*
D31*
X119290000Y-72644000D03*
%TD*%
D33*
%TO.C,C46*%
X143777000Y-85344000D03*
X142227000Y-85344000D03*
%TD*%
D34*
%TO.C,D4*%
X161680000Y-84423500D03*
X157280000Y-84423500D03*
%TD*%
D12*
%TO.C,R16*%
X121426000Y-85453000D03*
X121426000Y-83803000D03*
%TD*%
D35*
%TO.C,SW2*%
X126525000Y-115298000D03*
X126525000Y-117508000D03*
X133825000Y-115298000D03*
X133825000Y-117508000D03*
D36*
X127925000Y-114648000D03*
X130925000Y-114648000D03*
X132425000Y-114648000D03*
%TD*%
D37*
%TO.C,C12*%
X102042000Y-114808000D03*
X100142000Y-114808000D03*
%TD*%
D12*
%TO.C,R2*%
X135763000Y-113455250D03*
X135763000Y-111805250D03*
%TD*%
D38*
%TO.C,J5*%
X167499500Y-98803250D03*
D39*
X167499500Y-101573250D03*
X167499500Y-96033250D03*
%TD*%
D40*
%TO.C,IC1*%
X153638000Y-85439500D03*
X153638000Y-84789500D03*
X153638000Y-84139500D03*
X151738000Y-84139500D03*
X151738000Y-85439500D03*
%TD*%
D41*
%TO.C,D9*%
X120918000Y-93746500D03*
X120918000Y-95321500D03*
%TD*%
D10*
%TO.C,R8*%
X115634000Y-101727000D03*
X117284000Y-101727000D03*
%TD*%
D12*
%TO.C,R4*%
X138811000Y-113455250D03*
X138811000Y-111805250D03*
%TD*%
D13*
%TO.C,U6*%
X121387000Y-111647000D03*
X121387000Y-109347000D03*
D14*
X115087000Y-109347000D03*
D13*
X121387000Y-107047000D03*
%TD*%
D11*
%TO.C,D1*%
X135763000Y-116465750D03*
X135763000Y-114890750D03*
%TD*%
D18*
%TO.C,R5*%
X111315000Y-88900000D03*
X109665000Y-88900000D03*
%TD*%
D42*
%TO.C,C2*%
X137226000Y-104902000D03*
X139126000Y-104902000D03*
%TD*%
D43*
%TO.C,D10*%
X121619000Y-81160000D03*
X122569000Y-81160000D03*
X123519000Y-81160000D03*
X123519000Y-78860000D03*
X122569000Y-78860000D03*
X121619000Y-78860000D03*
%TD*%
D12*
%TO.C,R3*%
X137287000Y-113455250D03*
X137287000Y-111805250D03*
%TD*%
D44*
%TO.C,C3*%
X128936500Y-99131000D03*
X128936500Y-98171000D03*
%TD*%
D27*
%TO.C,C21*%
X113779000Y-92075000D03*
X115329000Y-92075000D03*
%TD*%
D19*
%TO.C,C8*%
X125253500Y-104775000D03*
X125253500Y-105735000D03*
%TD*%
D45*
%TO.C,MOD1*%
X149337000Y-99353000D03*
X151337000Y-99353000D03*
X153337000Y-99353000D03*
X155337000Y-99353000D03*
X157337000Y-99353000D03*
X159337000Y-99353000D03*
X161337000Y-99353000D03*
X163337000Y-99353000D03*
X163337000Y-113753000D03*
X161337000Y-113753000D03*
X159337000Y-113753000D03*
X157337000Y-113753000D03*
X155337000Y-113753000D03*
X153337000Y-113753000D03*
X151337000Y-113753000D03*
X149337000Y-113753000D03*
%TD*%
D46*
%TO.C,U10*%
X137990000Y-88428000D03*
X139490000Y-88428000D03*
X137990000Y-87288000D03*
X139490000Y-87288000D03*
D47*
X136835000Y-90333000D03*
X138105000Y-90333000D03*
X139375000Y-90333000D03*
X140645000Y-90333000D03*
X140645000Y-85383000D03*
X139375000Y-85383000D03*
X138105000Y-85383000D03*
X136835000Y-85383000D03*
%TD*%
D25*
%TO.C,C20*%
X125293000Y-77089000D03*
X124333000Y-77089000D03*
%TD*%
D48*
%TO.C,C11*%
X102108000Y-112281000D03*
X102108000Y-110731000D03*
%TD*%
D21*
%TO.C,SW1*%
X120127202Y-115257000D03*
X124277202Y-115257000D03*
X120127202Y-117407000D03*
X124277202Y-117407000D03*
%TD*%
D19*
%TO.C,C7*%
X127031500Y-104775000D03*
X127031500Y-105735000D03*
%TD*%
D44*
%TO.C,C22*%
X154432000Y-97254000D03*
X154432000Y-96294000D03*
%TD*%
D49*
%TO.C,U3*%
X115062000Y-94135000D03*
X113792000Y-94135000D03*
X112522000Y-94135000D03*
X111252000Y-94135000D03*
X111252000Y-99695000D03*
X112522000Y-99695000D03*
X113792000Y-99695000D03*
X115062000Y-99695000D03*
D50*
X113932000Y-96312500D03*
X112382000Y-96312500D03*
X113932000Y-97517500D03*
X112382000Y-97517500D03*
%TD*%
D51*
%TO.C,U4*%
X117409000Y-78564500D03*
X115509000Y-78564500D03*
X116459000Y-80439500D03*
%TD*%
D25*
%TO.C,C6*%
X127003500Y-102334000D03*
X126043500Y-102334000D03*
%TD*%
D33*
%TO.C,C9*%
X111278000Y-92075000D03*
X109728000Y-92075000D03*
%TD*%
D25*
%TO.C,C18*%
X124547000Y-82550000D03*
X123587000Y-82550000D03*
%TD*%
D10*
%TO.C,R1*%
X130302000Y-112776000D03*
X131952000Y-112776000D03*
%TD*%
D52*
%TO.C,U7*%
X121019000Y-86932000D03*
X121019000Y-87382000D03*
X121019000Y-87832000D03*
X121019000Y-88282000D03*
X121019000Y-88732000D03*
X121019000Y-89182000D03*
X124119000Y-89182000D03*
X124119000Y-88732000D03*
X124119000Y-88282000D03*
X124119000Y-87832000D03*
X124119000Y-87382000D03*
X124119000Y-86932000D03*
D53*
X122569000Y-88057000D03*
%TD*%
D54*
%TO.C,U2*%
X131445000Y-100224000D03*
X131445000Y-101374000D03*
X131445000Y-102524000D03*
X132595000Y-100224000D03*
X132595000Y-101374000D03*
X132595000Y-102524000D03*
X133745000Y-100224000D03*
X133745000Y-101374000D03*
X133745000Y-102524000D03*
D55*
X130157500Y-99624000D03*
X130157500Y-100124000D03*
X130157500Y-100624000D03*
X130157500Y-101124000D03*
X130157500Y-101624000D03*
X130157500Y-102124000D03*
X130157500Y-102624000D03*
X130157500Y-103124000D03*
D56*
X130845000Y-103811500D03*
X131345000Y-103811500D03*
X131845000Y-103811500D03*
X132345000Y-103811500D03*
X132845000Y-103811500D03*
X133345000Y-103811500D03*
X133845000Y-103811500D03*
X134345000Y-103811500D03*
D55*
X135032500Y-103124000D03*
X135032500Y-102624000D03*
X135032500Y-102124000D03*
X135032500Y-101624000D03*
X135032500Y-101124000D03*
X135032500Y-100624000D03*
X135032500Y-100124000D03*
X135032500Y-99624000D03*
D56*
X134345000Y-98936500D03*
X133845000Y-98936500D03*
X133345000Y-98936500D03*
X132845000Y-98936500D03*
X132345000Y-98936500D03*
X131845000Y-98936500D03*
X131345000Y-98936500D03*
X130845000Y-98936500D03*
%TD*%
D17*
%TO.C,R14*%
X120918000Y-90598000D03*
X120918000Y-92248000D03*
%TD*%
D57*
%TO.C,Q1*%
X117467000Y-103876000D03*
X116467000Y-103876000D03*
X116967000Y-105166000D03*
%TD*%
D22*
%TO.C,C4*%
X136299000Y-103251000D03*
X137259000Y-103251000D03*
%TD*%
D11*
%TO.C,D8*%
X121666000Y-102260500D03*
X121666000Y-100685500D03*
%TD*%
D18*
%TO.C,R6*%
X112712000Y-90424000D03*
X111062000Y-90424000D03*
%TD*%
M02*
