M48
; DRILL file {KiCad 7.0.6} date Mon Oct  9 12:22:09 2023
; FORMAT={-:-/ absolute / metric / decimal}
; #@! TF.CreationDate,2023-10-09T12:22:09-06:00
; #@! TF.GenerationSoftware,Kicad,Pcbnew,7.0.6
; #@! TF.FileFunction,MixedPlating,1,4
FMAT,2
METRIC
; #@! TA.AperFunction,Plated,PTH,ViaDrill
T1C0.300
; #@! TA.AperFunction,Plated,PTH,ViaDrill
T2C0.400
; #@! TA.AperFunction,Plated,PTH,ComponentDrill
T3C0.500
; #@! TA.AperFunction,Plated,PTH,ComponentDrill
T4C0.550
; #@! TA.AperFunction,Plated,PTH,ComponentDrill
T5C1.000
; #@! TA.AperFunction,Plated,PTH,ComponentDrill
T6C1.020
; #@! TA.AperFunction,Plated,PTH,ComponentDrill
T7C2.410
; #@! TA.AperFunction,Plated,PTH,ComponentDrill
T8C3.200
; #@! TA.AperFunction,NonPlated,NPTH,ComponentDrill
T9C0.900
; #@! TA.AperFunction,NonPlated,NPTH,ComponentDrill
T10C2.200
%
G90
G05
T1
X100.582Y-75.857
X100.582Y-86.017
X100.582Y-93.637
X100.582Y-101.257
X100.582Y-108.877
X103.122Y-80.937
X103.122Y-116.497
X105.662Y-73.317
X105.662Y-88.557
X105.662Y-96.177
X110.742Y-78.397
X110.742Y-116.497
X114.3Y-89.662
X114.3Y-102.362
X115.822Y-75.857
X115.822Y-113.957
X116.078Y-101.727
X118.362Y-83.477
X118.362Y-91.097
X118.362Y-98.717
X122.09Y-76.473
X123.519Y-78.105
X123.825Y-116.713
X124.215Y-100.584
X124.293Y-92.456
X124.841Y-89.408
X125.982Y-75.857
X125.982Y-108.877
X125.982Y-116.497
X126.064Y-87.471
X127.039Y-99.949
X128.142Y-99.922
X128.143Y-86.308
X128.522Y-80.937
X128.69Y-104.33
X128.816Y-102.896
X129.558Y-103.544
X130.556Y-98.044
X131.062Y-73.317
X131.062Y-91.097
X131.062Y-111.417
X132.842Y-92.329
X133.602Y-83.477
X133.602Y-116.497
X134.112Y-96.774
X134.239Y-111.289
X134.569Y-109.691
X134.586Y-103.834
X135.019Y-98.933
X135.763Y-112.506
X136.017Y-98.044
X136.142Y-75.857
X136.779Y-91.567
X136.906Y-98.627
X137.287Y-112.478
X137.636Y-100.554
X137.668Y-99.568
X137.922Y-101.473
X138.684Y-97.663
X138.977Y-103.505
X138.977Y-109.691
X139.827Y-103.084
X140.501Y-91.56
X140.589Y-93.892
X140.629Y-101.981
X141.193Y-93.226
X141.222Y-73.317
X141.732Y-110.363
X142.792Y-104.474
X142.835Y-95.377
X143.002Y-81.894
X143.002Y-82.793
X143.002Y-83.693
X143.51Y-94.615
X143.51Y-99.06
X143.762Y-88.557
X143.762Y-116.497
X144.907Y-96.432
X144.962Y-113.284
X145.415Y-84.455
X146.302Y-93.637
X148.842Y-73.317
X148.842Y-80.937
X151.257Y-101.092
X151.257Y-105.322
X151.382Y-116.497
X151.384Y-108.164
X151.384Y-112.014
X153.289Y-107.315
X153.416Y-101.092
X153.416Y-105.664
X153.416Y-112.014
X153.638Y-85.82
X153.67Y-83.39
X153.922Y-75.857
X153.922Y-93.637
X155.321Y-109.347
X155.321Y-112.014
X156.462Y-80.937
X157.138Y-103.124
X157.226Y-101.092
X159.002Y-73.317
X159.002Y-96.177
X159.002Y-103.797
X159.002Y-116.497
X161.542Y-78.397
X161.542Y-108.877
X164.082Y-83.477
X164.082Y-101.257
X166.622Y-75.857
X166.622Y-88.557
X166.622Y-106.337
X169.162Y-80.937
X169.162Y-111.417
T2
X100.203Y-113.792
X100.203Y-115.824
X100.711Y-98.679
X101.346Y-105.156
X101.346Y-110.744
X102.87Y-114.808
X103.632Y-109.982
X103.787Y-78.232
X104.34Y-86.995
X104.648Y-110.236
X104.775Y-98.679
X105.537Y-93.345
X108.839Y-92.075
X108.966Y-78.232
X109.093Y-112.395
X112.395Y-96.393
X112.395Y-97.536
X112.507Y-110.193
X112.903Y-108.458
X113.919Y-96.393
X113.919Y-97.536
X115.57Y-103.251
X115.967Y-99.441
X116.332Y-109.347
X116.967Y-104.65
X117.409Y-80.01
X117.856Y-101.727
X117.983Y-116.731
X118.187Y-88.822
X120.015Y-109.347
X120.142Y-101.722
X120.486Y-83.104
X120.618Y-98.076
X120.904Y-111.379
X121.194Y-97.212
X121.412Y-109.347
X121.666Y-101.722
X121.793Y-95.377
X121.793Y-111.887
X122.174Y-115.257
X122.503Y-82.042
X122.569Y-79.96
X122.569Y-88.057
X122.569Y-88.951
X122.58Y-87.173
X124.69Y-103.632
X124.69Y-109.64
X124.841Y-102.362
X124.931Y-82.55
X125.222Y-77.597
X125.222Y-106.172
X125.603Y-88.773
X127.0Y-106.172
X127.09Y-88.265
X127.127Y-95.758
X128.27Y-108.712
X128.27Y-114.681
X129.032Y-97.663
X129.413Y-90.805
X129.651Y-99.171
X129.921Y-96.012
X130.048Y-93.853
X130.302Y-83.947
X130.429Y-108.712
X131.476Y-100.175
X131.476Y-102.588
X131.496Y-101.42
X132.493Y-100.175
X132.493Y-102.588
X132.52Y-101.445
X132.969Y-113.538
X133.636Y-100.175
X133.636Y-102.588
X133.655Y-101.42
X135.763Y-117.094
X136.654Y-104.013
X137.287Y-117.094
X137.523Y-103.32
X137.795Y-87.249
X138.409Y-92.329
X138.684Y-88.519
X138.811Y-117.094
X139.337Y-91.699
X139.7Y-87.249
X139.827Y-104.902
X140.335Y-117.348
X140.716Y-112.141
X142.24Y-86.233
X144.309Y-85.433
X145.796Y-89.789
X145.796Y-99.822
X145.923Y-111.76
X146.05Y-117.348
X147.193Y-116.586
X147.32Y-95.885
X149.352Y-94.107
X149.352Y-112.014
X149.352Y-115.57
X151.155Y-89.504
X151.638Y-97.028
X151.892Y-95.123
X154.305Y-86.614
X154.94Y-96.266
X156.559Y-83.407
X156.559Y-85.185
X156.559Y-87.344
X157.48Y-95.631
X157.829Y-85.185
X157.843Y-83.447
X159.099Y-87.218
X159.258Y-107.061
X160.115Y-84.296
X161.036Y-96.52
X161.29Y-97.663
X161.417Y-101.092
X162.179Y-96.266
X162.306Y-104.775
X162.433Y-97.282
X162.433Y-101.346
X163.322Y-94.996
X163.322Y-96.139
X163.322Y-97.282
X163.322Y-101.346
X163.322Y-112.014
X163.322Y-115.443
X163.576Y-102.362
X164.084Y-94.107
X164.211Y-103.251
X164.465Y-95.25
X164.465Y-96.139
X164.465Y-97.155
X164.592Y-101.981
X165.227Y-93.853
X165.354Y-94.869
X165.354Y-97.663
X165.354Y-99.949
X165.354Y-102.743
X165.481Y-103.759
X166.243Y-94.869
X166.243Y-99.949
X166.243Y-102.743
X166.37Y-93.726
X166.37Y-97.663
X167.005Y-103.759
X167.132Y-94.869
X167.132Y-99.949
X167.132Y-102.743
X167.386Y-97.663
X167.386Y-107.823
X167.64Y-93.726
X168.021Y-94.869
X168.021Y-97.663
X168.021Y-102.743
X168.148Y-99.949
X168.529Y-103.886
X168.91Y-94.869
X168.91Y-97.663
X168.91Y-99.949
X168.91Y-102.743
X169.037Y-93.726
X169.672Y-94.361
X169.672Y-97.663
X169.672Y-99.949
X169.799Y-102.743
X169.799Y-103.759
T5
X107.391Y-104.318
X107.391Y-106.858
X109.459Y-84.836
X109.931Y-104.318
X109.931Y-106.858
X111.999Y-84.836
X114.539Y-84.836
X138.786Y-79.652
X140.171Y-76.812
X141.556Y-79.652
X142.941Y-76.812
X144.326Y-79.652
X145.711Y-76.812
X147.096Y-79.652
X148.481Y-76.812
X149.866Y-79.652
X151.606Y-88.487
X151.606Y-91.027
X154.146Y-88.487
X154.146Y-91.027
X156.686Y-88.487
X156.686Y-91.027
X159.226Y-88.487
X159.226Y-91.027
X161.766Y-88.487
X161.766Y-91.027
T6
X104.947Y-75.232
X104.947Y-78.232
X104.947Y-81.232
X107.947Y-75.232
X107.947Y-78.232
X107.947Y-81.232
T7
X100.627Y-73.082
X100.627Y-83.382
T8
X131.826Y-78.232
X156.826Y-78.232
T9
X128.675Y-116.408
X131.675Y-116.408
T10
X114.554Y-73.914
X114.554Y-115.57
X167.386Y-73.914
X167.386Y-115.57
T3
G00X118.69Y-72.969
M15
G01X118.69Y-72.319
M16
G05
G00X125.69Y-72.969
M15
G01X125.69Y-72.319
M16
G05
T4
G00X119.84Y-75.344
M15
G01X119.54Y-75.344
M16
G05
G00X124.84Y-75.344
M15
G01X124.54Y-75.344
M16
G05
T0
M30
