%TF.GenerationSoftware,KiCad,Pcbnew,7.0.6*%
%TF.CreationDate,2023-10-09T12:22:11-06:00*%
%TF.ProjectId,CAN-USB RF Module,43414e2d-5553-4422-9052-46204d6f6475,2.0*%
%TF.SameCoordinates,Original*%
%TF.FileFunction,Legend,Top*%
%TF.FilePolarity,Positive*%
%FSLAX46Y46*%
G04 Gerber Fmt 4.6, Leading zero omitted, Abs format (unit mm)*
G04 Created by KiCad (PCBNEW 7.0.6) date 2023-10-09 12:22:11*
%MOMM*%
%LPD*%
G01*
G04 APERTURE LIST*
%ADD10C,0.150000*%
%ADD11C,0.160000*%
%ADD12C,0.254000*%
%ADD13C,0.120000*%
%ADD14C,0.200000*%
%ADD15C,0.127000*%
%ADD16C,0.300000*%
%ADD17C,0.100000*%
G04 APERTURE END LIST*
D10*
X111883693Y-105838571D02*
X111836074Y-105790952D01*
X111836074Y-105790952D02*
X111740836Y-105648095D01*
X111740836Y-105648095D02*
X111693217Y-105552857D01*
X111693217Y-105552857D02*
X111645598Y-105410000D01*
X111645598Y-105410000D02*
X111597979Y-105171904D01*
X111597979Y-105171904D02*
X111597979Y-104981428D01*
X111597979Y-104981428D02*
X111645598Y-104743333D01*
X111645598Y-104743333D02*
X111693217Y-104600476D01*
X111693217Y-104600476D02*
X111740836Y-104505238D01*
X111740836Y-104505238D02*
X111836074Y-104362380D01*
X111836074Y-104362380D02*
X111883693Y-104314761D01*
X112693217Y-104790952D02*
X112693217Y-105457619D01*
X112455122Y-104410000D02*
X112217027Y-105124285D01*
X112217027Y-105124285D02*
X112836074Y-105124285D01*
X113121789Y-105838571D02*
X113169408Y-105790952D01*
X113169408Y-105790952D02*
X113264646Y-105648095D01*
X113264646Y-105648095D02*
X113312265Y-105552857D01*
X113312265Y-105552857D02*
X113359884Y-105410000D01*
X113359884Y-105410000D02*
X113407503Y-105171904D01*
X113407503Y-105171904D02*
X113407503Y-104981428D01*
X113407503Y-104981428D02*
X113359884Y-104743333D01*
X113359884Y-104743333D02*
X113312265Y-104600476D01*
X113312265Y-104600476D02*
X113264646Y-104505238D01*
X113264646Y-104505238D02*
X113169408Y-104362380D01*
X113169408Y-104362380D02*
X113121789Y-104314761D01*
X111883693Y-108438571D02*
X111836074Y-108390952D01*
X111836074Y-108390952D02*
X111740836Y-108248095D01*
X111740836Y-108248095D02*
X111693217Y-108152857D01*
X111693217Y-108152857D02*
X111645598Y-108010000D01*
X111645598Y-108010000D02*
X111597979Y-107771904D01*
X111597979Y-107771904D02*
X111597979Y-107581428D01*
X111597979Y-107581428D02*
X111645598Y-107343333D01*
X111645598Y-107343333D02*
X111693217Y-107200476D01*
X111693217Y-107200476D02*
X111740836Y-107105238D01*
X111740836Y-107105238D02*
X111836074Y-106962380D01*
X111836074Y-106962380D02*
X111883693Y-106914761D01*
X112169408Y-107057619D02*
X112788455Y-107057619D01*
X112788455Y-107057619D02*
X112455122Y-107438571D01*
X112455122Y-107438571D02*
X112597979Y-107438571D01*
X112597979Y-107438571D02*
X112693217Y-107486190D01*
X112693217Y-107486190D02*
X112740836Y-107533809D01*
X112740836Y-107533809D02*
X112788455Y-107629047D01*
X112788455Y-107629047D02*
X112788455Y-107867142D01*
X112788455Y-107867142D02*
X112740836Y-107962380D01*
X112740836Y-107962380D02*
X112693217Y-108010000D01*
X112693217Y-108010000D02*
X112597979Y-108057619D01*
X112597979Y-108057619D02*
X112312265Y-108057619D01*
X112312265Y-108057619D02*
X112217027Y-108010000D01*
X112217027Y-108010000D02*
X112169408Y-107962380D01*
X113121789Y-108438571D02*
X113169408Y-108390952D01*
X113169408Y-108390952D02*
X113264646Y-108248095D01*
X113264646Y-108248095D02*
X113312265Y-108152857D01*
X113312265Y-108152857D02*
X113359884Y-108010000D01*
X113359884Y-108010000D02*
X113407503Y-107771904D01*
X113407503Y-107771904D02*
X113407503Y-107581428D01*
X113407503Y-107581428D02*
X113359884Y-107343333D01*
X113359884Y-107343333D02*
X113312265Y-107200476D01*
X113312265Y-107200476D02*
X113264646Y-107105238D01*
X113264646Y-107105238D02*
X113169408Y-106962380D01*
X113169408Y-106962380D02*
X113121789Y-106914761D01*
X104254493Y-105914771D02*
X104206874Y-105867152D01*
X104206874Y-105867152D02*
X104111636Y-105724295D01*
X104111636Y-105724295D02*
X104064017Y-105629057D01*
X104064017Y-105629057D02*
X104016398Y-105486200D01*
X104016398Y-105486200D02*
X103968779Y-105248104D01*
X103968779Y-105248104D02*
X103968779Y-105057628D01*
X103968779Y-105057628D02*
X104016398Y-104819533D01*
X104016398Y-104819533D02*
X104064017Y-104676676D01*
X104064017Y-104676676D02*
X104111636Y-104581438D01*
X104111636Y-104581438D02*
X104206874Y-104438580D01*
X104206874Y-104438580D02*
X104254493Y-104390961D01*
X104587827Y-104629057D02*
X104635446Y-104581438D01*
X104635446Y-104581438D02*
X104730684Y-104533819D01*
X104730684Y-104533819D02*
X104968779Y-104533819D01*
X104968779Y-104533819D02*
X105064017Y-104581438D01*
X105064017Y-104581438D02*
X105111636Y-104629057D01*
X105111636Y-104629057D02*
X105159255Y-104724295D01*
X105159255Y-104724295D02*
X105159255Y-104819533D01*
X105159255Y-104819533D02*
X105111636Y-104962390D01*
X105111636Y-104962390D02*
X104540208Y-105533819D01*
X104540208Y-105533819D02*
X105159255Y-105533819D01*
X105492589Y-105914771D02*
X105540208Y-105867152D01*
X105540208Y-105867152D02*
X105635446Y-105724295D01*
X105635446Y-105724295D02*
X105683065Y-105629057D01*
X105683065Y-105629057D02*
X105730684Y-105486200D01*
X105730684Y-105486200D02*
X105778303Y-105248104D01*
X105778303Y-105248104D02*
X105778303Y-105057628D01*
X105778303Y-105057628D02*
X105730684Y-104819533D01*
X105730684Y-104819533D02*
X105683065Y-104676676D01*
X105683065Y-104676676D02*
X105635446Y-104581438D01*
X105635446Y-104581438D02*
X105540208Y-104438580D01*
X105540208Y-104438580D02*
X105492589Y-104390961D01*
D11*
G36*
X106841700Y-91875282D02*
G01*
X106808333Y-91942015D01*
X106779071Y-91971276D01*
X106712339Y-92004643D01*
X106607252Y-92004643D01*
X106540518Y-91971276D01*
X106511257Y-91942014D01*
X106477891Y-91875282D01*
X106477891Y-91593215D01*
X106841700Y-91593215D01*
X106841700Y-91875282D01*
G37*
G36*
X106841700Y-89732424D02*
G01*
X106808333Y-89799158D01*
X106779071Y-89828419D01*
X106712339Y-89861786D01*
X106607252Y-89861786D01*
X106540518Y-89828419D01*
X106511257Y-89799157D01*
X106477891Y-89732425D01*
X106477891Y-89450358D01*
X106841700Y-89450358D01*
X106841700Y-89732424D01*
G37*
G36*
X107144557Y-92307500D02*
G01*
X105698983Y-92307500D01*
X105698983Y-91499323D01*
X105842915Y-91499323D01*
X105852418Y-91553215D01*
X105894338Y-91588390D01*
X105921700Y-91593215D01*
X106317891Y-91593215D01*
X106317891Y-91709657D01*
X105875823Y-92019104D01*
X105844429Y-92063926D01*
X105849190Y-92118442D01*
X105887880Y-92157143D01*
X105942394Y-92161920D01*
X105967577Y-92150182D01*
X106318731Y-91904373D01*
X106326337Y-91929944D01*
X106373956Y-92025182D01*
X106375222Y-92026381D01*
X106388941Y-92045974D01*
X106436560Y-92093592D01*
X106438141Y-92094329D01*
X106457352Y-92108578D01*
X106552590Y-92156197D01*
X106557341Y-92156743D01*
X106561005Y-92159818D01*
X106588367Y-92164643D01*
X106731224Y-92164643D01*
X106735718Y-92163006D01*
X106740370Y-92164118D01*
X106767001Y-92156197D01*
X106862239Y-92108578D01*
X106863438Y-92107311D01*
X106883031Y-92093593D01*
X106930649Y-92045974D01*
X106931386Y-92044392D01*
X106945635Y-92025182D01*
X106993254Y-91929944D01*
X106993800Y-91925192D01*
X106996875Y-91921529D01*
X107001700Y-91894167D01*
X107001700Y-91513215D01*
X106994591Y-91493683D01*
X106990982Y-91473215D01*
X106985452Y-91468575D01*
X106982984Y-91461792D01*
X106964982Y-91451398D01*
X106949062Y-91438040D01*
X106938670Y-91436207D01*
X106935592Y-91434430D01*
X106932091Y-91435047D01*
X106921700Y-91433215D01*
X105921700Y-91433215D01*
X105870277Y-91451931D01*
X105842915Y-91499323D01*
X105698983Y-91499323D01*
X105698983Y-90517949D01*
X105841840Y-90517949D01*
X105845172Y-90525652D01*
X105844451Y-90534013D01*
X105855755Y-90550116D01*
X105863567Y-90568174D01*
X105871069Y-90571932D01*
X105875892Y-90578802D01*
X105901087Y-90590514D01*
X106325501Y-90703691D01*
X105901087Y-90816868D01*
X105894206Y-90821673D01*
X105885870Y-90822639D01*
X105872352Y-90836936D01*
X105856223Y-90848202D01*
X105854041Y-90856304D01*
X105848275Y-90862404D01*
X105847110Y-90882046D01*
X105841996Y-90901044D01*
X105845533Y-90908654D01*
X105845037Y-90917032D01*
X105856770Y-90932826D01*
X105865064Y-90950668D01*
X105872665Y-90954223D01*
X105877670Y-90960960D01*
X105903170Y-90971991D01*
X106903170Y-91210087D01*
X106957530Y-91203791D01*
X106995125Y-91164025D01*
X106998363Y-91109398D01*
X106965730Y-91065470D01*
X106940230Y-91054438D01*
X106248649Y-90889776D01*
X106656599Y-90780990D01*
X106662595Y-90776802D01*
X106669882Y-90776156D01*
X106684498Y-90761505D01*
X106701464Y-90749656D01*
X106703365Y-90742592D01*
X106708532Y-90737414D01*
X106710310Y-90716797D01*
X106715691Y-90696814D01*
X106712607Y-90690180D01*
X106713236Y-90682893D01*
X106701347Y-90665958D01*
X106692623Y-90647190D01*
X106685995Y-90644089D01*
X106681794Y-90638105D01*
X106656599Y-90626392D01*
X106248651Y-90517606D01*
X106940230Y-90352944D01*
X106985919Y-90322827D01*
X107001560Y-90270386D01*
X106979833Y-90220161D01*
X106930906Y-90195652D01*
X106903170Y-90197295D01*
X105903170Y-90435390D01*
X105896163Y-90440008D01*
X105887804Y-90440750D01*
X105873908Y-90454679D01*
X105857481Y-90465508D01*
X105855082Y-90473550D01*
X105849155Y-90479492D01*
X105847463Y-90499093D01*
X105841840Y-90517949D01*
X105698983Y-90517949D01*
X105698983Y-89356466D01*
X105842915Y-89356466D01*
X105852418Y-89410358D01*
X105894338Y-89445533D01*
X105921700Y-89450358D01*
X106317891Y-89450358D01*
X106317891Y-89751310D01*
X106319527Y-89755804D01*
X106318416Y-89760456D01*
X106326337Y-89787087D01*
X106373956Y-89882325D01*
X106375222Y-89883524D01*
X106388941Y-89903117D01*
X106436560Y-89950735D01*
X106438141Y-89951472D01*
X106457352Y-89965721D01*
X106552590Y-90013340D01*
X106557341Y-90013886D01*
X106561005Y-90016961D01*
X106588367Y-90021786D01*
X106731224Y-90021786D01*
X106735718Y-90020149D01*
X106740370Y-90021261D01*
X106767001Y-90013340D01*
X106862239Y-89965721D01*
X106863438Y-89964454D01*
X106883031Y-89950736D01*
X106930649Y-89903117D01*
X106931386Y-89901535D01*
X106945635Y-89882325D01*
X106993254Y-89787087D01*
X106993800Y-89782335D01*
X106996875Y-89778672D01*
X107001700Y-89751310D01*
X107001700Y-89370358D01*
X106994591Y-89350826D01*
X106990982Y-89330358D01*
X106985452Y-89325718D01*
X106982984Y-89318935D01*
X106964982Y-89308541D01*
X106949062Y-89295183D01*
X106938670Y-89293350D01*
X106935592Y-89291573D01*
X106932091Y-89292190D01*
X106921700Y-89290358D01*
X105921700Y-89290358D01*
X105870277Y-89309074D01*
X105842915Y-89356466D01*
X105698983Y-89356466D01*
X105698983Y-89147501D01*
X107144557Y-89147501D01*
X107144557Y-92307500D01*
G37*
G36*
X120681157Y-105806748D02*
G01*
X119235443Y-105806748D01*
X119235443Y-105393415D01*
X119378300Y-105393415D01*
X119379936Y-105397910D01*
X119378825Y-105402562D01*
X119386746Y-105429193D01*
X119434366Y-105524431D01*
X119435634Y-105525632D01*
X119449351Y-105545222D01*
X119496970Y-105592840D01*
X119498551Y-105593577D01*
X119517762Y-105607826D01*
X119613000Y-105655445D01*
X119617751Y-105655991D01*
X119621415Y-105659066D01*
X119648777Y-105663891D01*
X119886872Y-105663891D01*
X119891366Y-105662254D01*
X119896018Y-105663366D01*
X119922649Y-105655445D01*
X120017887Y-105607826D01*
X120019086Y-105606559D01*
X120038679Y-105592841D01*
X120086297Y-105545222D01*
X120087034Y-105543640D01*
X120101283Y-105524430D01*
X120148902Y-105429192D01*
X120149448Y-105424440D01*
X120151622Y-105421849D01*
X120405620Y-105644097D01*
X120425727Y-105651890D01*
X120444408Y-105662676D01*
X120450693Y-105661567D01*
X120456644Y-105663874D01*
X120477060Y-105656918D01*
X120498300Y-105653173D01*
X120502401Y-105648284D01*
X120508444Y-105646226D01*
X120519613Y-105627772D01*
X120533475Y-105611253D01*
X120535062Y-105602247D01*
X120536780Y-105599411D01*
X120536210Y-105595739D01*
X120538300Y-105583891D01*
X120538300Y-104964844D01*
X120519584Y-104913421D01*
X120472192Y-104886059D01*
X120418300Y-104895562D01*
X120383125Y-104937482D01*
X120378300Y-104964844D01*
X120378299Y-105407590D01*
X120130028Y-105190352D01*
X120109920Y-105182558D01*
X120091240Y-105171773D01*
X120084954Y-105172881D01*
X120079004Y-105170575D01*
X120058587Y-105177530D01*
X120037348Y-105181276D01*
X120033246Y-105186164D01*
X120027204Y-105188223D01*
X120016035Y-105206675D01*
X120002173Y-105223196D01*
X120000584Y-105232202D01*
X119998868Y-105235039D01*
X119999437Y-105238710D01*
X119997348Y-105250558D01*
X119997348Y-105374529D01*
X119963981Y-105441263D01*
X119934719Y-105470524D01*
X119867987Y-105503891D01*
X119667662Y-105503891D01*
X119600928Y-105470524D01*
X119571667Y-105441262D01*
X119538300Y-105374528D01*
X119538300Y-105126587D01*
X119571667Y-105059853D01*
X119610107Y-105021413D01*
X119633235Y-104971817D01*
X119619071Y-104918958D01*
X119574244Y-104887570D01*
X119519730Y-104892340D01*
X119496970Y-104908276D01*
X119449351Y-104955894D01*
X119448610Y-104957482D01*
X119434366Y-104976685D01*
X119386746Y-105071923D01*
X119386199Y-105076675D01*
X119383125Y-105080339D01*
X119378300Y-105107701D01*
X119378300Y-105393415D01*
X119235443Y-105393415D01*
X119235443Y-104405150D01*
X119379165Y-104405150D01*
X119380261Y-104407175D01*
X119379924Y-104409453D01*
X119393168Y-104431010D01*
X119405222Y-104453271D01*
X119407364Y-104454117D01*
X119408570Y-104456080D01*
X119433002Y-104469310D01*
X120433001Y-104802643D01*
X120487704Y-104801148D01*
X120528649Y-104764841D01*
X120536675Y-104710709D01*
X120508030Y-104664083D01*
X120483598Y-104650853D01*
X119711283Y-104393415D01*
X120483598Y-104135977D01*
X120526463Y-104101960D01*
X120537435Y-104048347D01*
X120511377Y-104000226D01*
X120460485Y-103980112D01*
X120433001Y-103984187D01*
X119433002Y-104317520D01*
X119431197Y-104318952D01*
X119428896Y-104319015D01*
X119409967Y-104335799D01*
X119390136Y-104351537D01*
X119389674Y-104353794D01*
X119387951Y-104355322D01*
X119384238Y-104380354D01*
X119379165Y-104405150D01*
X119235443Y-104405150D01*
X119235443Y-103583891D01*
X119378300Y-103583891D01*
X119379936Y-103588386D01*
X119378825Y-103593038D01*
X119386746Y-103619669D01*
X119434366Y-103714907D01*
X119435634Y-103716108D01*
X119449351Y-103735698D01*
X119496970Y-103783316D01*
X119498551Y-103784053D01*
X119517762Y-103798302D01*
X119613000Y-103845921D01*
X119617751Y-103846467D01*
X119621415Y-103849542D01*
X119648777Y-103854367D01*
X119886872Y-103854367D01*
X119891366Y-103852730D01*
X119896018Y-103853842D01*
X119922649Y-103845921D01*
X120017887Y-103798302D01*
X120019086Y-103797035D01*
X120038679Y-103783317D01*
X120086297Y-103735698D01*
X120087034Y-103734116D01*
X120101283Y-103714906D01*
X120148902Y-103619668D01*
X120149448Y-103614916D01*
X120151622Y-103612325D01*
X120405620Y-103834573D01*
X120425727Y-103842366D01*
X120444408Y-103853152D01*
X120450693Y-103852043D01*
X120456644Y-103854350D01*
X120477060Y-103847394D01*
X120498300Y-103843649D01*
X120502401Y-103838760D01*
X120508444Y-103836702D01*
X120519613Y-103818248D01*
X120533475Y-103801729D01*
X120535062Y-103792723D01*
X120536780Y-103789887D01*
X120536210Y-103786215D01*
X120538300Y-103774367D01*
X120538300Y-103155320D01*
X120519584Y-103103897D01*
X120472192Y-103076535D01*
X120418300Y-103086038D01*
X120383125Y-103127958D01*
X120378300Y-103155320D01*
X120378299Y-103598066D01*
X120130028Y-103380828D01*
X120109920Y-103373034D01*
X120091240Y-103362249D01*
X120084954Y-103363357D01*
X120079004Y-103361051D01*
X120058587Y-103368006D01*
X120037348Y-103371752D01*
X120033246Y-103376640D01*
X120027204Y-103378699D01*
X120016035Y-103397151D01*
X120002173Y-103413672D01*
X120000584Y-103422678D01*
X119998868Y-103425515D01*
X119999437Y-103429186D01*
X119997348Y-103441034D01*
X119997348Y-103565005D01*
X119963981Y-103631739D01*
X119934719Y-103661000D01*
X119867987Y-103694367D01*
X119667662Y-103694367D01*
X119600928Y-103661000D01*
X119571667Y-103631738D01*
X119538300Y-103565004D01*
X119538300Y-103317063D01*
X119571667Y-103250329D01*
X119610107Y-103211889D01*
X119633235Y-103162293D01*
X119619071Y-103109434D01*
X119574244Y-103078046D01*
X119519730Y-103082816D01*
X119496970Y-103098752D01*
X119449351Y-103146370D01*
X119448610Y-103147958D01*
X119434366Y-103167161D01*
X119386746Y-103262399D01*
X119386199Y-103267151D01*
X119383125Y-103270815D01*
X119378300Y-103298177D01*
X119378300Y-103583891D01*
X119235443Y-103583891D01*
X119235443Y-102933678D01*
X120681157Y-102933678D01*
X120681157Y-105806748D01*
G37*
D10*
X104254493Y-108454771D02*
X104206874Y-108407152D01*
X104206874Y-108407152D02*
X104111636Y-108264295D01*
X104111636Y-108264295D02*
X104064017Y-108169057D01*
X104064017Y-108169057D02*
X104016398Y-108026200D01*
X104016398Y-108026200D02*
X103968779Y-107788104D01*
X103968779Y-107788104D02*
X103968779Y-107597628D01*
X103968779Y-107597628D02*
X104016398Y-107359533D01*
X104016398Y-107359533D02*
X104064017Y-107216676D01*
X104064017Y-107216676D02*
X104111636Y-107121438D01*
X104111636Y-107121438D02*
X104206874Y-106978580D01*
X104206874Y-106978580D02*
X104254493Y-106930961D01*
X105159255Y-108073819D02*
X104587827Y-108073819D01*
X104873541Y-108073819D02*
X104873541Y-107073819D01*
X104873541Y-107073819D02*
X104778303Y-107216676D01*
X104778303Y-107216676D02*
X104683065Y-107311914D01*
X104683065Y-107311914D02*
X104587827Y-107359533D01*
X105492589Y-108454771D02*
X105540208Y-108407152D01*
X105540208Y-108407152D02*
X105635446Y-108264295D01*
X105635446Y-108264295D02*
X105683065Y-108169057D01*
X105683065Y-108169057D02*
X105730684Y-108026200D01*
X105730684Y-108026200D02*
X105778303Y-107788104D01*
X105778303Y-107788104D02*
X105778303Y-107597628D01*
X105778303Y-107597628D02*
X105730684Y-107359533D01*
X105730684Y-107359533D02*
X105683065Y-107216676D01*
X105683065Y-107216676D02*
X105635446Y-107121438D01*
X105635446Y-107121438D02*
X105540208Y-106978580D01*
X105540208Y-106978580D02*
X105492589Y-106930961D01*
D11*
G36*
X120533157Y-113282665D02*
G01*
X120562419Y-113311926D01*
X120595786Y-113378660D01*
X120595786Y-113483746D01*
X120562419Y-113550480D01*
X120533157Y-113579741D01*
X120466425Y-113613108D01*
X120184358Y-113613108D01*
X120184358Y-113249299D01*
X120466425Y-113249299D01*
X120533157Y-113282665D01*
G37*
G36*
X124516476Y-114392156D02*
G01*
X119881501Y-114392156D01*
X119881501Y-114169299D01*
X120024358Y-114169299D01*
X120043074Y-114220722D01*
X120090466Y-114248084D01*
X120144358Y-114238581D01*
X120179533Y-114196661D01*
X120184358Y-114169299D01*
X120184358Y-113773108D01*
X120300800Y-113773108D01*
X120610248Y-114215176D01*
X120655069Y-114246571D01*
X120709586Y-114241809D01*
X120748286Y-114203119D01*
X120751250Y-114169299D01*
X121024358Y-114169299D01*
X121031466Y-114188830D01*
X121035076Y-114209299D01*
X121040605Y-114213938D01*
X121043074Y-114220722D01*
X121061075Y-114231115D01*
X121076996Y-114244474D01*
X121087387Y-114246306D01*
X121090466Y-114248084D01*
X121093966Y-114247466D01*
X121104358Y-114249299D01*
X121580548Y-114249299D01*
X121631971Y-114230583D01*
X121659333Y-114183191D01*
X121649830Y-114129299D01*
X121607910Y-114094124D01*
X121580548Y-114089299D01*
X121184358Y-114089299D01*
X121184358Y-113725489D01*
X121437691Y-113725489D01*
X121489114Y-113706773D01*
X121516476Y-113659381D01*
X121506973Y-113605489D01*
X121465053Y-113570314D01*
X121437691Y-113565489D01*
X121184358Y-113565489D01*
X121184358Y-113455013D01*
X121881501Y-113455013D01*
X121883137Y-113459507D01*
X121882026Y-113464159D01*
X121889947Y-113490790D01*
X121937566Y-113586028D01*
X121938832Y-113587227D01*
X121952551Y-113606820D01*
X122000170Y-113654438D01*
X122001751Y-113655175D01*
X122020962Y-113669424D01*
X122116200Y-113717043D01*
X122119964Y-113717476D01*
X122132574Y-113723100D01*
X122314529Y-113768588D01*
X122390300Y-113806474D01*
X122419562Y-113835735D01*
X122452929Y-113902468D01*
X122452929Y-113959937D01*
X122419561Y-114026671D01*
X122390301Y-114055932D01*
X122323568Y-114089299D01*
X122117341Y-114089299D01*
X121986799Y-114045785D01*
X121932097Y-114047280D01*
X121891152Y-114083587D01*
X121883125Y-114137718D01*
X121911771Y-114184345D01*
X121936203Y-114197575D01*
X122079059Y-114245194D01*
X122080807Y-114245146D01*
X122104358Y-114249299D01*
X122342453Y-114249299D01*
X122346947Y-114247662D01*
X122351599Y-114248774D01*
X122378230Y-114240853D01*
X122473468Y-114193234D01*
X122474668Y-114191966D01*
X122494260Y-114178248D01*
X122503209Y-114169299D01*
X122881501Y-114169299D01*
X122888609Y-114188830D01*
X122892219Y-114209299D01*
X122897748Y-114213938D01*
X122900217Y-114220722D01*
X122918218Y-114231115D01*
X122934139Y-114244474D01*
X122944530Y-114246306D01*
X122947609Y-114248084D01*
X122951109Y-114247466D01*
X122961501Y-114249299D01*
X123437691Y-114249299D01*
X123489114Y-114230583D01*
X123516476Y-114183191D01*
X123506973Y-114129299D01*
X123465053Y-114094124D01*
X123437691Y-114089299D01*
X123041501Y-114089299D01*
X123041501Y-113725489D01*
X123294834Y-113725489D01*
X123346257Y-113706773D01*
X123373619Y-113659381D01*
X123364116Y-113605489D01*
X123322196Y-113570314D01*
X123294834Y-113565489D01*
X123041501Y-113565489D01*
X123041501Y-113249299D01*
X123437691Y-113249299D01*
X123489114Y-113230583D01*
X123516476Y-113183191D01*
X123511577Y-113155407D01*
X123644621Y-113155407D01*
X123654124Y-113209299D01*
X123696044Y-113244474D01*
X123723406Y-113249299D01*
X123929120Y-113249299D01*
X123929120Y-114169299D01*
X123947836Y-114220722D01*
X123995228Y-114248084D01*
X124049120Y-114238581D01*
X124084295Y-114196661D01*
X124089120Y-114169299D01*
X124089120Y-113249299D01*
X124294834Y-113249299D01*
X124346257Y-113230583D01*
X124373619Y-113183191D01*
X124364116Y-113129299D01*
X124322196Y-113094124D01*
X124294834Y-113089299D01*
X123723406Y-113089299D01*
X123671983Y-113108015D01*
X123644621Y-113155407D01*
X123511577Y-113155407D01*
X123506973Y-113129299D01*
X123465053Y-113094124D01*
X123437691Y-113089299D01*
X122961501Y-113089299D01*
X122941969Y-113096407D01*
X122921501Y-113100017D01*
X122916861Y-113105546D01*
X122910078Y-113108015D01*
X122899684Y-113126016D01*
X122886326Y-113141937D01*
X122884493Y-113152328D01*
X122882716Y-113155407D01*
X122883333Y-113158907D01*
X122881501Y-113169299D01*
X122881501Y-114169299D01*
X122503209Y-114169299D01*
X122541879Y-114130628D01*
X122542617Y-114129045D01*
X122556864Y-114109837D01*
X122604483Y-114014599D01*
X122605029Y-114009847D01*
X122608104Y-114006184D01*
X122612929Y-113978822D01*
X122612929Y-113883584D01*
X122611292Y-113879089D01*
X122612404Y-113874438D01*
X122604483Y-113847807D01*
X122556864Y-113752569D01*
X122555594Y-113751366D01*
X122541878Y-113731777D01*
X122494260Y-113684158D01*
X122492672Y-113683417D01*
X122473468Y-113669173D01*
X122378230Y-113621554D01*
X122374464Y-113621120D01*
X122361856Y-113615497D01*
X122179900Y-113570008D01*
X122104128Y-113532122D01*
X122074867Y-113502860D01*
X122041501Y-113436127D01*
X122041501Y-113378660D01*
X122074867Y-113311927D01*
X122104128Y-113282665D01*
X122170862Y-113249299D01*
X122377089Y-113249299D01*
X122507630Y-113292813D01*
X122562333Y-113291318D01*
X122603278Y-113255011D01*
X122611304Y-113200879D01*
X122582659Y-113154253D01*
X122558227Y-113141023D01*
X122415370Y-113093404D01*
X122413621Y-113093451D01*
X122390072Y-113089299D01*
X122151977Y-113089299D01*
X122147482Y-113090935D01*
X122142831Y-113089824D01*
X122116200Y-113097745D01*
X122020962Y-113145364D01*
X122019759Y-113146633D01*
X122000170Y-113160350D01*
X121952551Y-113207968D01*
X121951810Y-113209555D01*
X121937566Y-113228760D01*
X121889947Y-113323998D01*
X121889400Y-113328749D01*
X121886326Y-113332413D01*
X121881501Y-113359775D01*
X121881501Y-113455013D01*
X121184358Y-113455013D01*
X121184358Y-113249299D01*
X121580548Y-113249299D01*
X121631971Y-113230583D01*
X121659333Y-113183191D01*
X121649830Y-113129299D01*
X121607910Y-113094124D01*
X121580548Y-113089299D01*
X121104358Y-113089299D01*
X121084826Y-113096407D01*
X121064358Y-113100017D01*
X121059718Y-113105546D01*
X121052935Y-113108015D01*
X121042541Y-113126016D01*
X121029183Y-113141937D01*
X121027350Y-113152328D01*
X121025573Y-113155407D01*
X121026190Y-113158907D01*
X121024358Y-113169299D01*
X121024358Y-114169299D01*
X120751250Y-114169299D01*
X120753063Y-114148605D01*
X120741325Y-114123422D01*
X120495517Y-113772267D01*
X120521087Y-113764662D01*
X120616325Y-113717043D01*
X120617524Y-113715776D01*
X120637117Y-113702058D01*
X120684735Y-113654439D01*
X120685472Y-113652857D01*
X120699721Y-113633647D01*
X120747340Y-113538409D01*
X120747886Y-113533657D01*
X120750961Y-113529994D01*
X120755786Y-113502632D01*
X120755786Y-113359775D01*
X120754149Y-113355280D01*
X120755261Y-113350629D01*
X120747340Y-113323998D01*
X120699721Y-113228760D01*
X120698451Y-113227557D01*
X120684735Y-113207968D01*
X120637117Y-113160349D01*
X120635529Y-113159608D01*
X120616325Y-113145364D01*
X120521087Y-113097745D01*
X120516335Y-113097198D01*
X120512672Y-113094124D01*
X120485310Y-113089299D01*
X120104358Y-113089299D01*
X120084826Y-113096407D01*
X120064358Y-113100017D01*
X120059718Y-113105546D01*
X120052935Y-113108015D01*
X120042541Y-113126016D01*
X120029183Y-113141937D01*
X120027350Y-113152328D01*
X120025573Y-113155407D01*
X120026190Y-113158907D01*
X120024358Y-113169299D01*
X120024358Y-114169299D01*
X119881501Y-114169299D01*
X119881501Y-112946442D01*
X124516476Y-112946442D01*
X124516476Y-114392156D01*
G37*
G36*
X124006777Y-105618238D02*
G01*
X122283443Y-105618238D01*
X122283443Y-105096990D01*
X122427515Y-105096990D01*
X122437018Y-105150882D01*
X122478938Y-105186057D01*
X122506300Y-105190882D01*
X123426300Y-105190882D01*
X123426300Y-105396596D01*
X123445016Y-105448019D01*
X123492408Y-105475381D01*
X123546300Y-105465878D01*
X123581475Y-105423958D01*
X123586300Y-105396596D01*
X123586300Y-105391835D01*
X123703920Y-105391835D01*
X123722636Y-105443258D01*
X123770028Y-105470620D01*
X123823920Y-105461117D01*
X123859095Y-105419197D01*
X123863920Y-105391835D01*
X123863920Y-103163263D01*
X123845204Y-103111840D01*
X123797812Y-103084478D01*
X123743920Y-103093981D01*
X123708745Y-103135901D01*
X123703920Y-103163263D01*
X123703920Y-105391835D01*
X123586300Y-105391835D01*
X123586300Y-104825168D01*
X123567584Y-104773745D01*
X123520192Y-104746383D01*
X123466300Y-104755886D01*
X123431125Y-104797806D01*
X123426300Y-104825168D01*
X123426300Y-105030882D01*
X122506300Y-105030882D01*
X122454877Y-105049598D01*
X122427515Y-105096990D01*
X122283443Y-105096990D01*
X122283443Y-104634691D01*
X122426300Y-104634691D01*
X122445016Y-104686114D01*
X122492408Y-104713476D01*
X122546300Y-104703973D01*
X122581475Y-104662053D01*
X122586300Y-104634691D01*
X122586300Y-104238501D01*
X123506300Y-104238501D01*
X123557723Y-104219785D01*
X123585085Y-104172393D01*
X123575582Y-104118501D01*
X123533662Y-104083326D01*
X123506300Y-104078501D01*
X122506300Y-104078501D01*
X122486768Y-104085609D01*
X122466300Y-104089219D01*
X122461660Y-104094748D01*
X122454877Y-104097217D01*
X122444483Y-104115218D01*
X122431125Y-104131139D01*
X122429292Y-104141530D01*
X122427515Y-104144609D01*
X122428132Y-104148109D01*
X122426300Y-104158501D01*
X122426300Y-104634691D01*
X122283443Y-104634691D01*
X122283443Y-103287466D01*
X122427515Y-103287466D01*
X122437018Y-103341358D01*
X122478938Y-103376533D01*
X122506300Y-103381358D01*
X122950110Y-103381358D01*
X122950110Y-103634691D01*
X122968826Y-103686114D01*
X123016218Y-103713476D01*
X123070110Y-103703973D01*
X123105285Y-103662053D01*
X123110110Y-103634691D01*
X123110110Y-103381358D01*
X123426300Y-103381358D01*
X123426300Y-103777548D01*
X123445016Y-103828971D01*
X123492408Y-103856333D01*
X123546300Y-103846830D01*
X123581475Y-103804910D01*
X123586300Y-103777548D01*
X123586300Y-103301358D01*
X123579191Y-103281826D01*
X123575582Y-103261358D01*
X123570052Y-103256718D01*
X123567584Y-103249935D01*
X123549582Y-103239541D01*
X123533662Y-103226183D01*
X123523270Y-103224350D01*
X123520192Y-103222573D01*
X123516691Y-103223190D01*
X123506300Y-103221358D01*
X122506300Y-103221358D01*
X122454877Y-103240074D01*
X122427515Y-103287466D01*
X122283443Y-103287466D01*
X122283443Y-102941621D01*
X124006777Y-102941621D01*
X124006777Y-105618238D01*
G37*
G36*
X123002510Y-95627707D02*
G01*
X122964968Y-95740333D01*
X122939881Y-95765419D01*
X122873149Y-95798786D01*
X122768062Y-95798786D01*
X122701328Y-95765419D01*
X122672067Y-95736157D01*
X122638700Y-95669423D01*
X122638700Y-95387358D01*
X123002510Y-95387358D01*
X123002510Y-95627707D01*
G37*
G36*
X123478700Y-95621805D02*
G01*
X123445333Y-95688539D01*
X123416071Y-95717800D01*
X123349339Y-95751167D01*
X123291871Y-95751167D01*
X123225137Y-95717800D01*
X123195876Y-95688538D01*
X123162510Y-95621805D01*
X123162510Y-95387358D01*
X123478700Y-95387358D01*
X123478700Y-95621805D01*
G37*
G36*
X123781557Y-96101643D02*
G01*
X122335843Y-96101643D01*
X122335843Y-95688310D01*
X122478700Y-95688310D01*
X122480336Y-95692805D01*
X122479225Y-95697457D01*
X122487146Y-95724088D01*
X122534766Y-95819326D01*
X122536034Y-95820527D01*
X122549751Y-95840117D01*
X122597370Y-95887735D01*
X122598951Y-95888472D01*
X122618162Y-95902721D01*
X122713400Y-95950340D01*
X122718151Y-95950886D01*
X122721815Y-95953961D01*
X122749177Y-95958786D01*
X122892034Y-95958786D01*
X122896528Y-95957149D01*
X122901180Y-95958261D01*
X122927811Y-95950340D01*
X123023049Y-95902721D01*
X123024248Y-95901454D01*
X123043841Y-95887736D01*
X123091459Y-95840117D01*
X123093480Y-95835781D01*
X123097556Y-95833278D01*
X123103452Y-95822389D01*
X123121179Y-95840116D01*
X123122760Y-95840853D01*
X123141971Y-95855102D01*
X123237209Y-95902721D01*
X123241960Y-95903267D01*
X123245624Y-95906342D01*
X123272986Y-95911167D01*
X123368224Y-95911167D01*
X123372718Y-95909530D01*
X123377370Y-95910642D01*
X123404001Y-95902721D01*
X123499239Y-95855102D01*
X123500438Y-95853835D01*
X123520031Y-95840117D01*
X123567649Y-95792498D01*
X123568386Y-95790916D01*
X123582635Y-95771706D01*
X123630254Y-95676468D01*
X123630800Y-95671716D01*
X123633875Y-95668053D01*
X123638700Y-95640691D01*
X123638700Y-95307358D01*
X123631591Y-95287826D01*
X123627982Y-95267358D01*
X123622452Y-95262718D01*
X123619984Y-95255935D01*
X123601982Y-95245541D01*
X123586062Y-95232183D01*
X123575670Y-95230350D01*
X123572592Y-95228573D01*
X123569091Y-95229190D01*
X123558700Y-95227358D01*
X122558700Y-95227358D01*
X122539168Y-95234466D01*
X122518700Y-95238076D01*
X122514060Y-95243605D01*
X122507277Y-95246074D01*
X122496883Y-95264075D01*
X122483525Y-95279996D01*
X122481692Y-95290387D01*
X122479915Y-95293466D01*
X122480532Y-95296966D01*
X122478700Y-95307358D01*
X122478700Y-95688310D01*
X122335843Y-95688310D01*
X122335843Y-94688310D01*
X122478700Y-94688310D01*
X122480336Y-94692805D01*
X122479225Y-94697457D01*
X122487146Y-94724088D01*
X122534766Y-94819326D01*
X122536034Y-94820527D01*
X122549751Y-94840117D01*
X122597370Y-94887735D01*
X122598951Y-94888472D01*
X122618162Y-94902721D01*
X122713400Y-94950340D01*
X122718151Y-94950886D01*
X122721815Y-94953961D01*
X122749177Y-94958786D01*
X122844415Y-94958786D01*
X122848909Y-94957149D01*
X122853561Y-94958261D01*
X122880192Y-94950340D01*
X122975430Y-94902721D01*
X122976629Y-94901454D01*
X122996222Y-94887736D01*
X123043840Y-94840117D01*
X123044577Y-94838535D01*
X123058826Y-94819325D01*
X123106445Y-94724087D01*
X123106878Y-94720322D01*
X123112502Y-94707713D01*
X123157991Y-94525756D01*
X123195876Y-94449986D01*
X123225137Y-94420724D01*
X123291871Y-94387358D01*
X123349339Y-94387358D01*
X123416071Y-94420724D01*
X123445333Y-94449985D01*
X123478700Y-94516719D01*
X123478700Y-94722946D01*
X123435186Y-94853488D01*
X123436681Y-94908190D01*
X123472988Y-94949135D01*
X123527119Y-94957162D01*
X123573746Y-94928516D01*
X123586976Y-94904084D01*
X123634595Y-94761228D01*
X123634547Y-94759479D01*
X123638700Y-94735929D01*
X123638700Y-94497834D01*
X123637063Y-94493339D01*
X123638175Y-94488688D01*
X123630254Y-94462057D01*
X123582635Y-94366819D01*
X123581365Y-94365616D01*
X123567649Y-94346027D01*
X123520031Y-94298408D01*
X123518443Y-94297667D01*
X123499239Y-94283423D01*
X123404001Y-94235804D01*
X123399249Y-94235257D01*
X123395586Y-94232183D01*
X123368224Y-94227358D01*
X123272986Y-94227358D01*
X123268491Y-94228994D01*
X123263840Y-94227883D01*
X123237209Y-94235804D01*
X123141971Y-94283423D01*
X123140768Y-94284692D01*
X123121179Y-94298409D01*
X123073560Y-94346027D01*
X123072819Y-94347614D01*
X123058575Y-94366819D01*
X123010956Y-94462057D01*
X123010522Y-94465822D01*
X123004899Y-94478431D01*
X122959410Y-94660386D01*
X122921524Y-94736158D01*
X122892262Y-94765419D01*
X122825530Y-94798786D01*
X122768062Y-94798786D01*
X122701328Y-94765419D01*
X122672067Y-94736157D01*
X122638700Y-94669423D01*
X122638700Y-94463199D01*
X122682215Y-94332657D01*
X122680721Y-94277954D01*
X122644414Y-94237009D01*
X122590282Y-94228982D01*
X122543656Y-94257627D01*
X122530426Y-94282059D01*
X122482805Y-94424916D01*
X122482852Y-94426665D01*
X122478700Y-94450215D01*
X122478700Y-94688310D01*
X122335843Y-94688310D01*
X122335843Y-93688310D01*
X122478700Y-93688310D01*
X122480336Y-93692805D01*
X122479225Y-93697457D01*
X122487146Y-93724088D01*
X122534766Y-93819326D01*
X122536034Y-93820527D01*
X122549751Y-93840117D01*
X122597370Y-93887735D01*
X122598951Y-93888472D01*
X122618162Y-93902721D01*
X122713400Y-93950340D01*
X122718151Y-93950886D01*
X122721815Y-93953961D01*
X122749177Y-93958786D01*
X123558700Y-93958786D01*
X123610123Y-93940070D01*
X123637485Y-93892678D01*
X123627982Y-93838786D01*
X123586062Y-93803611D01*
X123558700Y-93798786D01*
X122768062Y-93798786D01*
X122701328Y-93765419D01*
X122672067Y-93736157D01*
X122638700Y-93669423D01*
X122638700Y-93516720D01*
X122672067Y-93449986D01*
X122701328Y-93420724D01*
X122768062Y-93387358D01*
X123558700Y-93387358D01*
X123610123Y-93368642D01*
X123637485Y-93321250D01*
X123627982Y-93267358D01*
X123586062Y-93232183D01*
X123558700Y-93227358D01*
X122749177Y-93227358D01*
X122744682Y-93228994D01*
X122740031Y-93227883D01*
X122713400Y-93235804D01*
X122618162Y-93283423D01*
X122616959Y-93284692D01*
X122597370Y-93298409D01*
X122549751Y-93346027D01*
X122549010Y-93347615D01*
X122534766Y-93366818D01*
X122487146Y-93462056D01*
X122486599Y-93466808D01*
X122483525Y-93470472D01*
X122478700Y-93497834D01*
X122478700Y-93688310D01*
X122335843Y-93688310D01*
X122335843Y-93084501D01*
X123781557Y-93084501D01*
X123781557Y-96101643D01*
G37*
D10*
G36*
X112520180Y-82471883D02*
G01*
X112485922Y-82540398D01*
X112455514Y-82570806D01*
X112386999Y-82605064D01*
X112279552Y-82605064D01*
X112211036Y-82570806D01*
X112180628Y-82540398D01*
X112146371Y-82471883D01*
X112146371Y-82183636D01*
X112520180Y-82183636D01*
X112520180Y-82471883D01*
G37*
G36*
X113653990Y-82286942D02*
G01*
X113615819Y-82401455D01*
X113589324Y-82427949D01*
X113520809Y-82462207D01*
X113413362Y-82462207D01*
X113344846Y-82427949D01*
X113314438Y-82397541D01*
X113280180Y-82329024D01*
X113280180Y-82040779D01*
X113653990Y-82040779D01*
X113653990Y-82286942D01*
G37*
G36*
X114130180Y-82281407D02*
G01*
X114095922Y-82349923D01*
X114065515Y-82380329D01*
X113996999Y-82414588D01*
X113937171Y-82414588D01*
X113868655Y-82380330D01*
X113838247Y-82349922D01*
X113803990Y-82281407D01*
X113803990Y-82040779D01*
X114130180Y-82040779D01*
X114130180Y-82281407D01*
G37*
G36*
X112520180Y-80329025D02*
G01*
X112485922Y-80397541D01*
X112455514Y-80427949D01*
X112386999Y-80462207D01*
X112279552Y-80462207D01*
X112211036Y-80427948D01*
X112180629Y-80397542D01*
X112146371Y-80329025D01*
X112146371Y-80040779D01*
X112520180Y-80040779D01*
X112520180Y-80329025D01*
G37*
G36*
X114423037Y-82897921D02*
G01*
X109767323Y-82897921D01*
X109767323Y-82072018D01*
X109910991Y-82072018D01*
X109912019Y-82073917D01*
X109911703Y-82076053D01*
X109924121Y-82096266D01*
X109935420Y-82117132D01*
X109937427Y-82117925D01*
X109938558Y-82119765D01*
X109961463Y-82132168D01*
X110961463Y-82465501D01*
X111012746Y-82464100D01*
X111051132Y-82430062D01*
X111058657Y-82379314D01*
X111031802Y-82335601D01*
X111008897Y-82323199D01*
X110326135Y-82095612D01*
X111521319Y-82095612D01*
X111530228Y-82146136D01*
X111569528Y-82179113D01*
X111595180Y-82183636D01*
X111996371Y-82183636D01*
X111996371Y-82307681D01*
X111552170Y-82618622D01*
X111522739Y-82660643D01*
X111527202Y-82711751D01*
X111563474Y-82748033D01*
X111614581Y-82752511D01*
X111638190Y-82741506D01*
X111996716Y-82490537D01*
X111997904Y-82493801D01*
X111996863Y-82498162D01*
X112004289Y-82523129D01*
X112051908Y-82618367D01*
X112053097Y-82619492D01*
X112065957Y-82637859D01*
X112113576Y-82685478D01*
X112115057Y-82686169D01*
X112133068Y-82699527D01*
X112228306Y-82747146D01*
X112232759Y-82747658D01*
X112236195Y-82750541D01*
X112261847Y-82755064D01*
X112404704Y-82755064D01*
X112408917Y-82753530D01*
X112413278Y-82754572D01*
X112438245Y-82747146D01*
X112533483Y-82699527D01*
X112534608Y-82698337D01*
X112552975Y-82685478D01*
X112600594Y-82637859D01*
X112601285Y-82636377D01*
X112614643Y-82618367D01*
X112662262Y-82523129D01*
X112662774Y-82518675D01*
X112665657Y-82515240D01*
X112670180Y-82489588D01*
X112670180Y-82346731D01*
X113130180Y-82346731D01*
X113131713Y-82350944D01*
X113130672Y-82355306D01*
X113138098Y-82380273D01*
X113185718Y-82475511D01*
X113186909Y-82476638D01*
X113199767Y-82495002D01*
X113247386Y-82542621D01*
X113248867Y-82543312D01*
X113266878Y-82556670D01*
X113362116Y-82604289D01*
X113366569Y-82604801D01*
X113370005Y-82607684D01*
X113395657Y-82612207D01*
X113538514Y-82612207D01*
X113542727Y-82610673D01*
X113547088Y-82611715D01*
X113572055Y-82604289D01*
X113667293Y-82556670D01*
X113668418Y-82555480D01*
X113686785Y-82542621D01*
X113734404Y-82495002D01*
X113736299Y-82490937D01*
X113740119Y-82488591D01*
X113748783Y-82472590D01*
X113771195Y-82495002D01*
X113772676Y-82495693D01*
X113790687Y-82509051D01*
X113885925Y-82556670D01*
X113890378Y-82557182D01*
X113893814Y-82560065D01*
X113919466Y-82564588D01*
X114014704Y-82564588D01*
X114018917Y-82563054D01*
X114023278Y-82564096D01*
X114048245Y-82556670D01*
X114143483Y-82509051D01*
X114144608Y-82507861D01*
X114162975Y-82495002D01*
X114210594Y-82447383D01*
X114211285Y-82445901D01*
X114224643Y-82427891D01*
X114272262Y-82332653D01*
X114272774Y-82328199D01*
X114275657Y-82324764D01*
X114280180Y-82299112D01*
X114280180Y-81965779D01*
X114273516Y-81947470D01*
X114270132Y-81928279D01*
X114264947Y-81923928D01*
X114262633Y-81917570D01*
X114245759Y-81907827D01*
X114230832Y-81895302D01*
X114221089Y-81893584D01*
X114218204Y-81891918D01*
X114214921Y-81892496D01*
X114205180Y-81890779D01*
X113205180Y-81890779D01*
X113186871Y-81897442D01*
X113167680Y-81900827D01*
X113163329Y-81906011D01*
X113156971Y-81908326D01*
X113147228Y-81925199D01*
X113134703Y-81940127D01*
X113132985Y-81949869D01*
X113131319Y-81952755D01*
X113131897Y-81956037D01*
X113130180Y-81965779D01*
X113130180Y-82346731D01*
X112670180Y-82346731D01*
X112670180Y-82108636D01*
X112663516Y-82090327D01*
X112660132Y-82071136D01*
X112654947Y-82066785D01*
X112652633Y-82060427D01*
X112635759Y-82050684D01*
X112620832Y-82038159D01*
X112611089Y-82036441D01*
X112608204Y-82034775D01*
X112604921Y-82035353D01*
X112595180Y-82033636D01*
X111595180Y-82033636D01*
X111546971Y-82051183D01*
X111521319Y-82095612D01*
X110326135Y-82095612D01*
X110222350Y-82061017D01*
X111008897Y-81798835D01*
X111049083Y-81766944D01*
X111059369Y-81716683D01*
X111034940Y-81671569D01*
X110987228Y-81652712D01*
X110961463Y-81656533D01*
X109961463Y-81989866D01*
X109959771Y-81991208D01*
X109957613Y-81991267D01*
X109939851Y-82007016D01*
X109921277Y-82021757D01*
X109920844Y-82023870D01*
X109919228Y-82025304D01*
X109915747Y-82048774D01*
X109910991Y-82072018D01*
X109767323Y-82072018D01*
X109767323Y-81441969D01*
X109910180Y-81441969D01*
X109927727Y-81490178D01*
X109972156Y-81515830D01*
X110022680Y-81506921D01*
X110055657Y-81467621D01*
X110060180Y-81441969D01*
X110060180Y-81003987D01*
X110503576Y-81447383D01*
X110507640Y-81449278D01*
X110509987Y-81453098D01*
X110532892Y-81465501D01*
X110675748Y-81513120D01*
X110677383Y-81513075D01*
X110699466Y-81516969D01*
X110794704Y-81516969D01*
X110798917Y-81515435D01*
X110803278Y-81516477D01*
X110828245Y-81509051D01*
X110923483Y-81461432D01*
X110924608Y-81460242D01*
X110942975Y-81447383D01*
X110990594Y-81399764D01*
X110991285Y-81398282D01*
X111004643Y-81380272D01*
X111052262Y-81285034D01*
X111052774Y-81280580D01*
X111055657Y-81277145D01*
X111060180Y-81251493D01*
X111060180Y-81113074D01*
X111520311Y-81113074D01*
X111523435Y-81120296D01*
X111522759Y-81128134D01*
X111533356Y-81143230D01*
X111540680Y-81160160D01*
X111547714Y-81163683D01*
X111552235Y-81170124D01*
X111575855Y-81181104D01*
X112018386Y-81299112D01*
X111575855Y-81417120D01*
X111569403Y-81421625D01*
X111561589Y-81422531D01*
X111548915Y-81435936D01*
X111533795Y-81446497D01*
X111531750Y-81454091D01*
X111526344Y-81459810D01*
X111525252Y-81478223D01*
X111520457Y-81496035D01*
X111523774Y-81503171D01*
X111523309Y-81511024D01*
X111534306Y-81525828D01*
X111542083Y-81542557D01*
X111549210Y-81545890D01*
X111553902Y-81552207D01*
X111577808Y-81562548D01*
X112577808Y-81800644D01*
X112628771Y-81794741D01*
X112664016Y-81757462D01*
X112667051Y-81706248D01*
X112636458Y-81665065D01*
X112612551Y-81654724D01*
X111901695Y-81485471D01*
X112328791Y-81371580D01*
X112334413Y-81367652D01*
X112341244Y-81367047D01*
X112354949Y-81353309D01*
X112364368Y-81346731D01*
X113130180Y-81346731D01*
X113131713Y-81350944D01*
X113130672Y-81355306D01*
X113138098Y-81380273D01*
X113185718Y-81475511D01*
X113186909Y-81476638D01*
X113199767Y-81495002D01*
X113247386Y-81542621D01*
X113248867Y-81543312D01*
X113266878Y-81556670D01*
X113362116Y-81604289D01*
X113366569Y-81604801D01*
X113370005Y-81607684D01*
X113395657Y-81612207D01*
X113490895Y-81612207D01*
X113495108Y-81610673D01*
X113499469Y-81611715D01*
X113524436Y-81604289D01*
X113619674Y-81556670D01*
X113620799Y-81555480D01*
X113639166Y-81542621D01*
X113686785Y-81495002D01*
X113687476Y-81493520D01*
X113700834Y-81475510D01*
X113748453Y-81380272D01*
X113748859Y-81376743D01*
X113754132Y-81364921D01*
X113799754Y-81182431D01*
X113838247Y-81105444D01*
X113868655Y-81075037D01*
X113937171Y-81040779D01*
X113996999Y-81040779D01*
X114065515Y-81075037D01*
X114095922Y-81105444D01*
X114130180Y-81173960D01*
X114130180Y-81382180D01*
X114086410Y-81513490D01*
X114087811Y-81564774D01*
X114121848Y-81603159D01*
X114172597Y-81610684D01*
X114216309Y-81583829D01*
X114228712Y-81560924D01*
X114276331Y-81418068D01*
X114276286Y-81416432D01*
X114280180Y-81394350D01*
X114280180Y-81156255D01*
X114278646Y-81152041D01*
X114279688Y-81147680D01*
X114272262Y-81122714D01*
X114224643Y-81027476D01*
X114223453Y-81026350D01*
X114210594Y-81007984D01*
X114162975Y-80960365D01*
X114161493Y-80959674D01*
X114143483Y-80946316D01*
X114048245Y-80898697D01*
X114043791Y-80898184D01*
X114040356Y-80895302D01*
X114014704Y-80890779D01*
X113919466Y-80890779D01*
X113915252Y-80892312D01*
X113910891Y-80891271D01*
X113885925Y-80898697D01*
X113790687Y-80946316D01*
X113789561Y-80947505D01*
X113771195Y-80960365D01*
X113723576Y-81007984D01*
X113722885Y-81009465D01*
X113709527Y-81027476D01*
X113661908Y-81122714D01*
X113661501Y-81126242D01*
X113656229Y-81138065D01*
X113610606Y-81320555D01*
X113572112Y-81397542D01*
X113541705Y-81427949D01*
X113473190Y-81462207D01*
X113413362Y-81462207D01*
X113344846Y-81427949D01*
X113314438Y-81397541D01*
X113280180Y-81329024D01*
X113280180Y-81120807D01*
X113323951Y-80989496D01*
X113322550Y-80938212D01*
X113288513Y-80899827D01*
X113237765Y-80892301D01*
X113194052Y-80919156D01*
X113181649Y-80942061D01*
X113134029Y-81084918D01*
X113134073Y-81086553D01*
X113130180Y-81108636D01*
X113130180Y-81346731D01*
X112364368Y-81346731D01*
X112370851Y-81342203D01*
X112372633Y-81335584D01*
X112377478Y-81330728D01*
X112379146Y-81311394D01*
X112384189Y-81292665D01*
X112381298Y-81286446D01*
X112381888Y-81279614D01*
X112370741Y-81263735D01*
X112362563Y-81246142D01*
X112356350Y-81243236D01*
X112352411Y-81237624D01*
X112328791Y-81226644D01*
X111901696Y-81112752D01*
X112612552Y-80943501D01*
X112655385Y-80915265D01*
X112670049Y-80866103D01*
X112649680Y-80819017D01*
X112603811Y-80796039D01*
X112577809Y-80797581D01*
X111577808Y-81035676D01*
X111571239Y-81040005D01*
X111563402Y-81040701D01*
X111550372Y-81053761D01*
X111534975Y-81063912D01*
X111532726Y-81071450D01*
X111527169Y-81077021D01*
X111525583Y-81095397D01*
X111520311Y-81113074D01*
X111060180Y-81113074D01*
X111060180Y-81013398D01*
X111058646Y-81009184D01*
X111059688Y-81004823D01*
X111052262Y-80979857D01*
X111004643Y-80884619D01*
X111003453Y-80883493D01*
X110990594Y-80865127D01*
X110942975Y-80817508D01*
X110896478Y-80795827D01*
X110846924Y-80809104D01*
X110817497Y-80851130D01*
X110821969Y-80902237D01*
X110836909Y-80923574D01*
X110875921Y-80962586D01*
X110910180Y-81031102D01*
X110910180Y-81233787D01*
X110875922Y-81302303D01*
X110845514Y-81332711D01*
X110776999Y-81366969D01*
X110711636Y-81366969D01*
X110597122Y-81328797D01*
X110038213Y-80769889D01*
X110017759Y-80760351D01*
X109998204Y-80749061D01*
X109994823Y-80749657D01*
X109991716Y-80748208D01*
X109969913Y-80754049D01*
X109947680Y-80757970D01*
X109945475Y-80760597D01*
X109942162Y-80761485D01*
X109929213Y-80779976D01*
X109914703Y-80797270D01*
X109913894Y-80801854D01*
X109912735Y-80803511D01*
X109913022Y-80806799D01*
X109910180Y-80822922D01*
X109910180Y-81441969D01*
X109767323Y-81441969D01*
X109767323Y-80489588D01*
X109910180Y-80489588D01*
X109927727Y-80537797D01*
X109972156Y-80563449D01*
X110022680Y-80554540D01*
X110055657Y-80515240D01*
X110060180Y-80489588D01*
X110060180Y-80278874D01*
X110985180Y-80278874D01*
X110989233Y-80277398D01*
X110993423Y-80278419D01*
X111012935Y-80268771D01*
X111033389Y-80261327D01*
X111035544Y-80257592D01*
X111039412Y-80255681D01*
X111048158Y-80235746D01*
X111059041Y-80216898D01*
X111058292Y-80212650D01*
X111060025Y-80208701D01*
X111053911Y-80187806D01*
X111050132Y-80166374D01*
X111046829Y-80163602D01*
X111045618Y-80159463D01*
X111026783Y-80141470D01*
X110890103Y-80050350D01*
X110808724Y-79968971D01*
X110800616Y-79952755D01*
X111521319Y-79952755D01*
X111530228Y-80003279D01*
X111569528Y-80036256D01*
X111595180Y-80040779D01*
X111996371Y-80040779D01*
X111996371Y-80346731D01*
X111997904Y-80350944D01*
X111996863Y-80355305D01*
X112004289Y-80380272D01*
X112051908Y-80475510D01*
X112053097Y-80476635D01*
X112065957Y-80495002D01*
X112113576Y-80542621D01*
X112115057Y-80543312D01*
X112133068Y-80556670D01*
X112228306Y-80604289D01*
X112232759Y-80604801D01*
X112236195Y-80607684D01*
X112261847Y-80612207D01*
X112404704Y-80612207D01*
X112408917Y-80610673D01*
X112413278Y-80611715D01*
X112438245Y-80604289D01*
X112533483Y-80556670D01*
X112534608Y-80555480D01*
X112552975Y-80542621D01*
X112600594Y-80495002D01*
X112601285Y-80493520D01*
X112614643Y-80475510D01*
X112662262Y-80380272D01*
X112662774Y-80375818D01*
X112665657Y-80372383D01*
X112670180Y-80346731D01*
X113130180Y-80346731D01*
X113131713Y-80350944D01*
X113130672Y-80355306D01*
X113138098Y-80380273D01*
X113185718Y-80475511D01*
X113186909Y-80476638D01*
X113199767Y-80495002D01*
X113247386Y-80542621D01*
X113248867Y-80543312D01*
X113266878Y-80556670D01*
X113362116Y-80604289D01*
X113366569Y-80604801D01*
X113370005Y-80607684D01*
X113395657Y-80612207D01*
X114205180Y-80612207D01*
X114253389Y-80594660D01*
X114279041Y-80550231D01*
X114270132Y-80499707D01*
X114230832Y-80466730D01*
X114205180Y-80462207D01*
X113413362Y-80462207D01*
X113344846Y-80427949D01*
X113314438Y-80397541D01*
X113280180Y-80329024D01*
X113280180Y-80173961D01*
X113314438Y-80105444D01*
X113344845Y-80075037D01*
X113413362Y-80040779D01*
X114205180Y-80040779D01*
X114253389Y-80023232D01*
X114279041Y-79978803D01*
X114270132Y-79928279D01*
X114230832Y-79895302D01*
X114205180Y-79890779D01*
X113395657Y-79890779D01*
X113391443Y-79892312D01*
X113387082Y-79891271D01*
X113362116Y-79898697D01*
X113266878Y-79946316D01*
X113265752Y-79947505D01*
X113247386Y-79960365D01*
X113199767Y-80007984D01*
X113199075Y-80009466D01*
X113185718Y-80027475D01*
X113138098Y-80122713D01*
X113137585Y-80127167D01*
X113134703Y-80130603D01*
X113130180Y-80156255D01*
X113130180Y-80346731D01*
X112670180Y-80346731D01*
X112670180Y-79965779D01*
X112663516Y-79947470D01*
X112660132Y-79928279D01*
X112654947Y-79923928D01*
X112652633Y-79917570D01*
X112635759Y-79907827D01*
X112620832Y-79895302D01*
X112611089Y-79893584D01*
X112608204Y-79891918D01*
X112604921Y-79892496D01*
X112595180Y-79890779D01*
X111595180Y-79890779D01*
X111546971Y-79908326D01*
X111521319Y-79952755D01*
X110800616Y-79952755D01*
X110766548Y-79884619D01*
X110729294Y-79849347D01*
X110678083Y-79846272D01*
X110636878Y-79876836D01*
X110624958Y-79926734D01*
X110632384Y-79951701D01*
X110680003Y-80046939D01*
X110681192Y-80048064D01*
X110694052Y-80066431D01*
X110756495Y-80128874D01*
X110060180Y-80128874D01*
X110060180Y-79918160D01*
X110042633Y-79869951D01*
X109998204Y-79844299D01*
X109947680Y-79853208D01*
X109914703Y-79892508D01*
X109910180Y-79918160D01*
X109910180Y-80489588D01*
X109767323Y-80489588D01*
X109767323Y-79701442D01*
X114423037Y-79701442D01*
X114423037Y-82897921D01*
G37*
D11*
G36*
X122230557Y-104996300D02*
G01*
X120784843Y-104996300D01*
X120784843Y-104455950D01*
X120928565Y-104455950D01*
X120929661Y-104457975D01*
X120929324Y-104460253D01*
X120942568Y-104481810D01*
X120954622Y-104504071D01*
X120956764Y-104504917D01*
X120957970Y-104506880D01*
X120982402Y-104520110D01*
X121982401Y-104853443D01*
X122037104Y-104851948D01*
X122078049Y-104815641D01*
X122086075Y-104761509D01*
X122057430Y-104714883D01*
X122032998Y-104701653D01*
X121260683Y-104444215D01*
X122032998Y-104186777D01*
X122075863Y-104152760D01*
X122086835Y-104099147D01*
X122060777Y-104051026D01*
X122009885Y-104030912D01*
X121982401Y-104034987D01*
X120982402Y-104368320D01*
X120980597Y-104369752D01*
X120978296Y-104369815D01*
X120959367Y-104386599D01*
X120939536Y-104402337D01*
X120939074Y-104404594D01*
X120937351Y-104406122D01*
X120933638Y-104431154D01*
X120928565Y-104455950D01*
X120784843Y-104455950D01*
X120784843Y-103634691D01*
X120927700Y-103634691D01*
X120929336Y-103639186D01*
X120928225Y-103643838D01*
X120936146Y-103670469D01*
X120983766Y-103765707D01*
X120985034Y-103766908D01*
X120998751Y-103786498D01*
X121046370Y-103834116D01*
X121047951Y-103834853D01*
X121067162Y-103849102D01*
X121162400Y-103896721D01*
X121167151Y-103897267D01*
X121170815Y-103900342D01*
X121198177Y-103905167D01*
X121436272Y-103905167D01*
X121440766Y-103903530D01*
X121445418Y-103904642D01*
X121472049Y-103896721D01*
X121567287Y-103849102D01*
X121568486Y-103847835D01*
X121588079Y-103834117D01*
X121635697Y-103786498D01*
X121636434Y-103784916D01*
X121650683Y-103765706D01*
X121698302Y-103670468D01*
X121698848Y-103665716D01*
X121701923Y-103662053D01*
X121706748Y-103634691D01*
X121706748Y-103396596D01*
X121705111Y-103392101D01*
X121706223Y-103387450D01*
X121698302Y-103360819D01*
X121693037Y-103350290D01*
X121927700Y-103373757D01*
X121927700Y-103777548D01*
X121946416Y-103828971D01*
X121993808Y-103856333D01*
X122047700Y-103846830D01*
X122082875Y-103804910D01*
X122087700Y-103777548D01*
X122087700Y-103301358D01*
X122081889Y-103285392D01*
X122080618Y-103268450D01*
X122072809Y-103260445D01*
X122068984Y-103249935D01*
X122054267Y-103241438D01*
X122042406Y-103229279D01*
X122024465Y-103224232D01*
X122021592Y-103222573D01*
X122019733Y-103222900D01*
X122015660Y-103221755D01*
X121539470Y-103174136D01*
X121538960Y-103174265D01*
X121538483Y-103174043D01*
X121512498Y-103181005D01*
X121486440Y-103187642D01*
X121486132Y-103188069D01*
X121485624Y-103188206D01*
X121470205Y-103210226D01*
X121454498Y-103232077D01*
X121454537Y-103232602D01*
X121454236Y-103233033D01*
X121456579Y-103259821D01*
X121458592Y-103286647D01*
X121458959Y-103287023D01*
X121459005Y-103287548D01*
X121474941Y-103310308D01*
X121513381Y-103348747D01*
X121546748Y-103415480D01*
X121546748Y-103615806D01*
X121513381Y-103682539D01*
X121484119Y-103711800D01*
X121417387Y-103745167D01*
X121217062Y-103745167D01*
X121150328Y-103711800D01*
X121121067Y-103682538D01*
X121087700Y-103615804D01*
X121087700Y-103415482D01*
X121121067Y-103348748D01*
X121159507Y-103310308D01*
X121182635Y-103260712D01*
X121168471Y-103207853D01*
X121123644Y-103176465D01*
X121069130Y-103181235D01*
X121046370Y-103197171D01*
X120998751Y-103244789D01*
X120998010Y-103246377D01*
X120983766Y-103265580D01*
X120936146Y-103360818D01*
X120935599Y-103365570D01*
X120932525Y-103369234D01*
X120927700Y-103396596D01*
X120927700Y-103634691D01*
X120784843Y-103634691D01*
X120784843Y-103031186D01*
X122230557Y-103031186D01*
X122230557Y-104996300D01*
G37*
D10*
X114133333Y-105102819D02*
X113800000Y-104626628D01*
X113561905Y-105102819D02*
X113561905Y-104102819D01*
X113561905Y-104102819D02*
X113942857Y-104102819D01*
X113942857Y-104102819D02*
X114038095Y-104150438D01*
X114038095Y-104150438D02*
X114085714Y-104198057D01*
X114085714Y-104198057D02*
X114133333Y-104293295D01*
X114133333Y-104293295D02*
X114133333Y-104436152D01*
X114133333Y-104436152D02*
X114085714Y-104531390D01*
X114085714Y-104531390D02*
X114038095Y-104579009D01*
X114038095Y-104579009D02*
X113942857Y-104626628D01*
X113942857Y-104626628D02*
X113561905Y-104626628D01*
X114609524Y-105102819D02*
X114800000Y-105102819D01*
X114800000Y-105102819D02*
X114895238Y-105055200D01*
X114895238Y-105055200D02*
X114942857Y-105007580D01*
X114942857Y-105007580D02*
X115038095Y-104864723D01*
X115038095Y-104864723D02*
X115085714Y-104674247D01*
X115085714Y-104674247D02*
X115085714Y-104293295D01*
X115085714Y-104293295D02*
X115038095Y-104198057D01*
X115038095Y-104198057D02*
X114990476Y-104150438D01*
X114990476Y-104150438D02*
X114895238Y-104102819D01*
X114895238Y-104102819D02*
X114704762Y-104102819D01*
X114704762Y-104102819D02*
X114609524Y-104150438D01*
X114609524Y-104150438D02*
X114561905Y-104198057D01*
X114561905Y-104198057D02*
X114514286Y-104293295D01*
X114514286Y-104293295D02*
X114514286Y-104531390D01*
X114514286Y-104531390D02*
X114561905Y-104626628D01*
X114561905Y-104626628D02*
X114609524Y-104674247D01*
X114609524Y-104674247D02*
X114704762Y-104721866D01*
X114704762Y-104721866D02*
X114895238Y-104721866D01*
X114895238Y-104721866D02*
X114990476Y-104674247D01*
X114990476Y-104674247D02*
X115038095Y-104626628D01*
X115038095Y-104626628D02*
X115085714Y-104531390D01*
X118183819Y-99036094D02*
X117183819Y-99036094D01*
X117183819Y-99036094D02*
X117183819Y-98797999D01*
X117183819Y-98797999D02*
X117231438Y-98655142D01*
X117231438Y-98655142D02*
X117326676Y-98559904D01*
X117326676Y-98559904D02*
X117421914Y-98512285D01*
X117421914Y-98512285D02*
X117612390Y-98464666D01*
X117612390Y-98464666D02*
X117755247Y-98464666D01*
X117755247Y-98464666D02*
X117945723Y-98512285D01*
X117945723Y-98512285D02*
X118040961Y-98559904D01*
X118040961Y-98559904D02*
X118136200Y-98655142D01*
X118136200Y-98655142D02*
X118183819Y-98797999D01*
X118183819Y-98797999D02*
X118183819Y-99036094D01*
X117183819Y-98131332D02*
X117183819Y-97464666D01*
X117183819Y-97464666D02*
X118183819Y-97893237D01*
X125676819Y-85224857D02*
X125200628Y-85558190D01*
X125676819Y-85796285D02*
X124676819Y-85796285D01*
X124676819Y-85796285D02*
X124676819Y-85415333D01*
X124676819Y-85415333D02*
X124724438Y-85320095D01*
X124724438Y-85320095D02*
X124772057Y-85272476D01*
X124772057Y-85272476D02*
X124867295Y-85224857D01*
X124867295Y-85224857D02*
X125010152Y-85224857D01*
X125010152Y-85224857D02*
X125105390Y-85272476D01*
X125105390Y-85272476D02*
X125153009Y-85320095D01*
X125153009Y-85320095D02*
X125200628Y-85415333D01*
X125200628Y-85415333D02*
X125200628Y-85796285D01*
X125676819Y-84272476D02*
X125676819Y-84843904D01*
X125676819Y-84558190D02*
X124676819Y-84558190D01*
X124676819Y-84558190D02*
X124819676Y-84653428D01*
X124819676Y-84653428D02*
X124914914Y-84748666D01*
X124914914Y-84748666D02*
X124962533Y-84843904D01*
X124676819Y-83367714D02*
X124676819Y-83843904D01*
X124676819Y-83843904D02*
X125153009Y-83891523D01*
X125153009Y-83891523D02*
X125105390Y-83843904D01*
X125105390Y-83843904D02*
X125057771Y-83748666D01*
X125057771Y-83748666D02*
X125057771Y-83510571D01*
X125057771Y-83510571D02*
X125105390Y-83415333D01*
X125105390Y-83415333D02*
X125153009Y-83367714D01*
X125153009Y-83367714D02*
X125248247Y-83320095D01*
X125248247Y-83320095D02*
X125486342Y-83320095D01*
X125486342Y-83320095D02*
X125581580Y-83367714D01*
X125581580Y-83367714D02*
X125629200Y-83415333D01*
X125629200Y-83415333D02*
X125676819Y-83510571D01*
X125676819Y-83510571D02*
X125676819Y-83748666D01*
X125676819Y-83748666D02*
X125629200Y-83843904D01*
X125629200Y-83843904D02*
X125581580Y-83891523D01*
X141484285Y-101197580D02*
X141430713Y-101245200D01*
X141430713Y-101245200D02*
X141281904Y-101292819D01*
X141281904Y-101292819D02*
X141186666Y-101292819D01*
X141186666Y-101292819D02*
X141049761Y-101245200D01*
X141049761Y-101245200D02*
X140966428Y-101149961D01*
X140966428Y-101149961D02*
X140930713Y-101054723D01*
X140930713Y-101054723D02*
X140906904Y-100864247D01*
X140906904Y-100864247D02*
X140924761Y-100721390D01*
X140924761Y-100721390D02*
X140996189Y-100530914D01*
X140996189Y-100530914D02*
X141055713Y-100435676D01*
X141055713Y-100435676D02*
X141162856Y-100340438D01*
X141162856Y-100340438D02*
X141311666Y-100292819D01*
X141311666Y-100292819D02*
X141406904Y-100292819D01*
X141406904Y-100292819D02*
X141543809Y-100340438D01*
X141543809Y-100340438D02*
X141585475Y-100388057D01*
X142377142Y-101292819D02*
X141900951Y-101292819D01*
X141900951Y-101292819D02*
X142025951Y-100292819D01*
X142710475Y-101292819D02*
X142835475Y-100292819D01*
X143281904Y-101292819D02*
X142924761Y-100721390D01*
X143406904Y-100292819D02*
X142764047Y-100864247D01*
X143460475Y-101388057D02*
X144222380Y-101388057D01*
X144454523Y-100292819D02*
X145025952Y-100292819D01*
X144615238Y-101292819D02*
X144740238Y-100292819D01*
X145299762Y-100769009D02*
X145633095Y-100769009D01*
X145710476Y-101292819D02*
X145234285Y-101292819D01*
X145234285Y-101292819D02*
X145359285Y-100292819D01*
X145359285Y-100292819D02*
X145835476Y-100292819D01*
X146097381Y-101245200D02*
X146234285Y-101292819D01*
X146234285Y-101292819D02*
X146472381Y-101292819D01*
X146472381Y-101292819D02*
X146573571Y-101245200D01*
X146573571Y-101245200D02*
X146627143Y-101197580D01*
X146627143Y-101197580D02*
X146686666Y-101102342D01*
X146686666Y-101102342D02*
X146698571Y-101007104D01*
X146698571Y-101007104D02*
X146662857Y-100911866D01*
X146662857Y-100911866D02*
X146621190Y-100864247D01*
X146621190Y-100864247D02*
X146531905Y-100816628D01*
X146531905Y-100816628D02*
X146347381Y-100769009D01*
X146347381Y-100769009D02*
X146258095Y-100721390D01*
X146258095Y-100721390D02*
X146216428Y-100673771D01*
X146216428Y-100673771D02*
X146180714Y-100578533D01*
X146180714Y-100578533D02*
X146192619Y-100483295D01*
X146192619Y-100483295D02*
X146252143Y-100388057D01*
X146252143Y-100388057D02*
X146305714Y-100340438D01*
X146305714Y-100340438D02*
X146406905Y-100292819D01*
X146406905Y-100292819D02*
X146645000Y-100292819D01*
X146645000Y-100292819D02*
X146781905Y-100340438D01*
X147073571Y-100292819D02*
X147645000Y-100292819D01*
X147234286Y-101292819D02*
X147359286Y-100292819D01*
X106553095Y-116167819D02*
X106553095Y-116977342D01*
X106553095Y-116977342D02*
X106600714Y-117072580D01*
X106600714Y-117072580D02*
X106648333Y-117120200D01*
X106648333Y-117120200D02*
X106743571Y-117167819D01*
X106743571Y-117167819D02*
X106934047Y-117167819D01*
X106934047Y-117167819D02*
X107029285Y-117120200D01*
X107029285Y-117120200D02*
X107076904Y-117072580D01*
X107076904Y-117072580D02*
X107124523Y-116977342D01*
X107124523Y-116977342D02*
X107124523Y-116167819D01*
X108076904Y-116167819D02*
X107600714Y-116167819D01*
X107600714Y-116167819D02*
X107553095Y-116644009D01*
X107553095Y-116644009D02*
X107600714Y-116596390D01*
X107600714Y-116596390D02*
X107695952Y-116548771D01*
X107695952Y-116548771D02*
X107934047Y-116548771D01*
X107934047Y-116548771D02*
X108029285Y-116596390D01*
X108029285Y-116596390D02*
X108076904Y-116644009D01*
X108076904Y-116644009D02*
X108124523Y-116739247D01*
X108124523Y-116739247D02*
X108124523Y-116977342D01*
X108124523Y-116977342D02*
X108076904Y-117072580D01*
X108076904Y-117072580D02*
X108029285Y-117120200D01*
X108029285Y-117120200D02*
X107934047Y-117167819D01*
X107934047Y-117167819D02*
X107695952Y-117167819D01*
X107695952Y-117167819D02*
X107600714Y-117120200D01*
X107600714Y-117120200D02*
X107553095Y-117072580D01*
X115911333Y-89354819D02*
X115578000Y-88878628D01*
X115339905Y-89354819D02*
X115339905Y-88354819D01*
X115339905Y-88354819D02*
X115720857Y-88354819D01*
X115720857Y-88354819D02*
X115816095Y-88402438D01*
X115816095Y-88402438D02*
X115863714Y-88450057D01*
X115863714Y-88450057D02*
X115911333Y-88545295D01*
X115911333Y-88545295D02*
X115911333Y-88688152D01*
X115911333Y-88688152D02*
X115863714Y-88783390D01*
X115863714Y-88783390D02*
X115816095Y-88831009D01*
X115816095Y-88831009D02*
X115720857Y-88878628D01*
X115720857Y-88878628D02*
X115339905Y-88878628D01*
X116244667Y-88354819D02*
X116911333Y-88354819D01*
X116911333Y-88354819D02*
X116482762Y-89354819D01*
X107338905Y-89354819D02*
X107338905Y-88354819D01*
X107338905Y-88354819D02*
X107577000Y-88354819D01*
X107577000Y-88354819D02*
X107719857Y-88402438D01*
X107719857Y-88402438D02*
X107815095Y-88497676D01*
X107815095Y-88497676D02*
X107862714Y-88592914D01*
X107862714Y-88592914D02*
X107910333Y-88783390D01*
X107910333Y-88783390D02*
X107910333Y-88926247D01*
X107910333Y-88926247D02*
X107862714Y-89116723D01*
X107862714Y-89116723D02*
X107815095Y-89211961D01*
X107815095Y-89211961D02*
X107719857Y-89307200D01*
X107719857Y-89307200D02*
X107577000Y-89354819D01*
X107577000Y-89354819D02*
X107338905Y-89354819D01*
X108815095Y-88354819D02*
X108338905Y-88354819D01*
X108338905Y-88354819D02*
X108291286Y-88831009D01*
X108291286Y-88831009D02*
X108338905Y-88783390D01*
X108338905Y-88783390D02*
X108434143Y-88735771D01*
X108434143Y-88735771D02*
X108672238Y-88735771D01*
X108672238Y-88735771D02*
X108767476Y-88783390D01*
X108767476Y-88783390D02*
X108815095Y-88831009D01*
X108815095Y-88831009D02*
X108862714Y-88926247D01*
X108862714Y-88926247D02*
X108862714Y-89164342D01*
X108862714Y-89164342D02*
X108815095Y-89259580D01*
X108815095Y-89259580D02*
X108767476Y-89307200D01*
X108767476Y-89307200D02*
X108672238Y-89354819D01*
X108672238Y-89354819D02*
X108434143Y-89354819D01*
X108434143Y-89354819D02*
X108338905Y-89307200D01*
X108338905Y-89307200D02*
X108291286Y-89259580D01*
X131153819Y-107441904D02*
X131963342Y-107441904D01*
X131963342Y-107441904D02*
X132058580Y-107394285D01*
X132058580Y-107394285D02*
X132106200Y-107346666D01*
X132106200Y-107346666D02*
X132153819Y-107251428D01*
X132153819Y-107251428D02*
X132153819Y-107060952D01*
X132153819Y-107060952D02*
X132106200Y-106965714D01*
X132106200Y-106965714D02*
X132058580Y-106918095D01*
X132058580Y-106918095D02*
X131963342Y-106870476D01*
X131963342Y-106870476D02*
X131153819Y-106870476D01*
X132153819Y-105870476D02*
X132153819Y-106441904D01*
X132153819Y-106156190D02*
X131153819Y-106156190D01*
X131153819Y-106156190D02*
X131296676Y-106251428D01*
X131296676Y-106251428D02*
X131391914Y-106346666D01*
X131391914Y-106346666D02*
X131439533Y-106441904D01*
X127962819Y-98559857D02*
X127486628Y-98893190D01*
X127962819Y-99131285D02*
X126962819Y-99131285D01*
X126962819Y-99131285D02*
X126962819Y-98750333D01*
X126962819Y-98750333D02*
X127010438Y-98655095D01*
X127010438Y-98655095D02*
X127058057Y-98607476D01*
X127058057Y-98607476D02*
X127153295Y-98559857D01*
X127153295Y-98559857D02*
X127296152Y-98559857D01*
X127296152Y-98559857D02*
X127391390Y-98607476D01*
X127391390Y-98607476D02*
X127439009Y-98655095D01*
X127439009Y-98655095D02*
X127486628Y-98750333D01*
X127486628Y-98750333D02*
X127486628Y-99131285D01*
X127962819Y-97607476D02*
X127962819Y-98178904D01*
X127962819Y-97893190D02*
X126962819Y-97893190D01*
X126962819Y-97893190D02*
X127105676Y-97988428D01*
X127105676Y-97988428D02*
X127200914Y-98083666D01*
X127200914Y-98083666D02*
X127248533Y-98178904D01*
X127058057Y-97226523D02*
X127010438Y-97178904D01*
X127010438Y-97178904D02*
X126962819Y-97083666D01*
X126962819Y-97083666D02*
X126962819Y-96845571D01*
X126962819Y-96845571D02*
X127010438Y-96750333D01*
X127010438Y-96750333D02*
X127058057Y-96702714D01*
X127058057Y-96702714D02*
X127153295Y-96655095D01*
X127153295Y-96655095D02*
X127248533Y-96655095D01*
X127248533Y-96655095D02*
X127391390Y-96702714D01*
X127391390Y-96702714D02*
X127962819Y-97274142D01*
X127962819Y-97274142D02*
X127962819Y-96655095D01*
X109847142Y-102181819D02*
X109513809Y-101705628D01*
X109275714Y-102181819D02*
X109275714Y-101181819D01*
X109275714Y-101181819D02*
X109656666Y-101181819D01*
X109656666Y-101181819D02*
X109751904Y-101229438D01*
X109751904Y-101229438D02*
X109799523Y-101277057D01*
X109799523Y-101277057D02*
X109847142Y-101372295D01*
X109847142Y-101372295D02*
X109847142Y-101515152D01*
X109847142Y-101515152D02*
X109799523Y-101610390D01*
X109799523Y-101610390D02*
X109751904Y-101658009D01*
X109751904Y-101658009D02*
X109656666Y-101705628D01*
X109656666Y-101705628D02*
X109275714Y-101705628D01*
X110799523Y-102181819D02*
X110228095Y-102181819D01*
X110513809Y-102181819D02*
X110513809Y-101181819D01*
X110513809Y-101181819D02*
X110418571Y-101324676D01*
X110418571Y-101324676D02*
X110323333Y-101419914D01*
X110323333Y-101419914D02*
X110228095Y-101467533D01*
X111418571Y-101181819D02*
X111513809Y-101181819D01*
X111513809Y-101181819D02*
X111609047Y-101229438D01*
X111609047Y-101229438D02*
X111656666Y-101277057D01*
X111656666Y-101277057D02*
X111704285Y-101372295D01*
X111704285Y-101372295D02*
X111751904Y-101562771D01*
X111751904Y-101562771D02*
X111751904Y-101800866D01*
X111751904Y-101800866D02*
X111704285Y-101991342D01*
X111704285Y-101991342D02*
X111656666Y-102086580D01*
X111656666Y-102086580D02*
X111609047Y-102134200D01*
X111609047Y-102134200D02*
X111513809Y-102181819D01*
X111513809Y-102181819D02*
X111418571Y-102181819D01*
X111418571Y-102181819D02*
X111323333Y-102134200D01*
X111323333Y-102134200D02*
X111275714Y-102086580D01*
X111275714Y-102086580D02*
X111228095Y-101991342D01*
X111228095Y-101991342D02*
X111180476Y-101800866D01*
X111180476Y-101800866D02*
X111180476Y-101562771D01*
X111180476Y-101562771D02*
X111228095Y-101372295D01*
X111228095Y-101372295D02*
X111275714Y-101277057D01*
X111275714Y-101277057D02*
X111323333Y-101229438D01*
X111323333Y-101229438D02*
X111418571Y-101181819D01*
X125531666Y-100769009D02*
X125198333Y-100769009D01*
X125198333Y-101292819D02*
X125198333Y-100292819D01*
X125198333Y-100292819D02*
X125674523Y-100292819D01*
X126388809Y-100769009D02*
X126531666Y-100816628D01*
X126531666Y-100816628D02*
X126579285Y-100864247D01*
X126579285Y-100864247D02*
X126626904Y-100959485D01*
X126626904Y-100959485D02*
X126626904Y-101102342D01*
X126626904Y-101102342D02*
X126579285Y-101197580D01*
X126579285Y-101197580D02*
X126531666Y-101245200D01*
X126531666Y-101245200D02*
X126436428Y-101292819D01*
X126436428Y-101292819D02*
X126055476Y-101292819D01*
X126055476Y-101292819D02*
X126055476Y-100292819D01*
X126055476Y-100292819D02*
X126388809Y-100292819D01*
X126388809Y-100292819D02*
X126484047Y-100340438D01*
X126484047Y-100340438D02*
X126531666Y-100388057D01*
X126531666Y-100388057D02*
X126579285Y-100483295D01*
X126579285Y-100483295D02*
X126579285Y-100578533D01*
X126579285Y-100578533D02*
X126531666Y-100673771D01*
X126531666Y-100673771D02*
X126484047Y-100721390D01*
X126484047Y-100721390D02*
X126388809Y-100769009D01*
X126388809Y-100769009D02*
X126055476Y-100769009D01*
X127579285Y-101292819D02*
X127007857Y-101292819D01*
X127293571Y-101292819D02*
X127293571Y-100292819D01*
X127293571Y-100292819D02*
X127198333Y-100435676D01*
X127198333Y-100435676D02*
X127103095Y-100530914D01*
X127103095Y-100530914D02*
X127007857Y-100578533D01*
X118169131Y-115845580D02*
X118121512Y-115893200D01*
X118121512Y-115893200D02*
X117978655Y-115940819D01*
X117978655Y-115940819D02*
X117883417Y-115940819D01*
X117883417Y-115940819D02*
X117740560Y-115893200D01*
X117740560Y-115893200D02*
X117645322Y-115797961D01*
X117645322Y-115797961D02*
X117597703Y-115702723D01*
X117597703Y-115702723D02*
X117550084Y-115512247D01*
X117550084Y-115512247D02*
X117550084Y-115369390D01*
X117550084Y-115369390D02*
X117597703Y-115178914D01*
X117597703Y-115178914D02*
X117645322Y-115083676D01*
X117645322Y-115083676D02*
X117740560Y-114988438D01*
X117740560Y-114988438D02*
X117883417Y-114940819D01*
X117883417Y-114940819D02*
X117978655Y-114940819D01*
X117978655Y-114940819D02*
X118121512Y-114988438D01*
X118121512Y-114988438D02*
X118169131Y-115036057D01*
X119121512Y-115940819D02*
X118550084Y-115940819D01*
X118835798Y-115940819D02*
X118835798Y-114940819D01*
X118835798Y-114940819D02*
X118740560Y-115083676D01*
X118740560Y-115083676D02*
X118645322Y-115178914D01*
X118645322Y-115178914D02*
X118550084Y-115226533D01*
X152265142Y-93958580D02*
X152217523Y-94006200D01*
X152217523Y-94006200D02*
X152074666Y-94053819D01*
X152074666Y-94053819D02*
X151979428Y-94053819D01*
X151979428Y-94053819D02*
X151836571Y-94006200D01*
X151836571Y-94006200D02*
X151741333Y-93910961D01*
X151741333Y-93910961D02*
X151693714Y-93815723D01*
X151693714Y-93815723D02*
X151646095Y-93625247D01*
X151646095Y-93625247D02*
X151646095Y-93482390D01*
X151646095Y-93482390D02*
X151693714Y-93291914D01*
X151693714Y-93291914D02*
X151741333Y-93196676D01*
X151741333Y-93196676D02*
X151836571Y-93101438D01*
X151836571Y-93101438D02*
X151979428Y-93053819D01*
X151979428Y-93053819D02*
X152074666Y-93053819D01*
X152074666Y-93053819D02*
X152217523Y-93101438D01*
X152217523Y-93101438D02*
X152265142Y-93149057D01*
X152646095Y-93149057D02*
X152693714Y-93101438D01*
X152693714Y-93101438D02*
X152788952Y-93053819D01*
X152788952Y-93053819D02*
X153027047Y-93053819D01*
X153027047Y-93053819D02*
X153122285Y-93101438D01*
X153122285Y-93101438D02*
X153169904Y-93149057D01*
X153169904Y-93149057D02*
X153217523Y-93244295D01*
X153217523Y-93244295D02*
X153217523Y-93339533D01*
X153217523Y-93339533D02*
X153169904Y-93482390D01*
X153169904Y-93482390D02*
X152598476Y-94053819D01*
X152598476Y-94053819D02*
X153217523Y-94053819D01*
X153550857Y-93053819D02*
X154169904Y-93053819D01*
X154169904Y-93053819D02*
X153836571Y-93434771D01*
X153836571Y-93434771D02*
X153979428Y-93434771D01*
X153979428Y-93434771D02*
X154074666Y-93482390D01*
X154074666Y-93482390D02*
X154122285Y-93530009D01*
X154122285Y-93530009D02*
X154169904Y-93625247D01*
X154169904Y-93625247D02*
X154169904Y-93863342D01*
X154169904Y-93863342D02*
X154122285Y-93958580D01*
X154122285Y-93958580D02*
X154074666Y-94006200D01*
X154074666Y-94006200D02*
X153979428Y-94053819D01*
X153979428Y-94053819D02*
X153693714Y-94053819D01*
X153693714Y-94053819D02*
X153598476Y-94006200D01*
X153598476Y-94006200D02*
X153550857Y-93958580D01*
X147510667Y-117882200D02*
X147653524Y-117929819D01*
X147653524Y-117929819D02*
X147891619Y-117929819D01*
X147891619Y-117929819D02*
X147986857Y-117882200D01*
X147986857Y-117882200D02*
X148034476Y-117834580D01*
X148034476Y-117834580D02*
X148082095Y-117739342D01*
X148082095Y-117739342D02*
X148082095Y-117644104D01*
X148082095Y-117644104D02*
X148034476Y-117548866D01*
X148034476Y-117548866D02*
X147986857Y-117501247D01*
X147986857Y-117501247D02*
X147891619Y-117453628D01*
X147891619Y-117453628D02*
X147701143Y-117406009D01*
X147701143Y-117406009D02*
X147605905Y-117358390D01*
X147605905Y-117358390D02*
X147558286Y-117310771D01*
X147558286Y-117310771D02*
X147510667Y-117215533D01*
X147510667Y-117215533D02*
X147510667Y-117120295D01*
X147510667Y-117120295D02*
X147558286Y-117025057D01*
X147558286Y-117025057D02*
X147605905Y-116977438D01*
X147605905Y-116977438D02*
X147701143Y-116929819D01*
X147701143Y-116929819D02*
X147939238Y-116929819D01*
X147939238Y-116929819D02*
X148082095Y-116977438D01*
X148415429Y-116929819D02*
X148653524Y-117929819D01*
X148653524Y-117929819D02*
X148844000Y-117215533D01*
X148844000Y-117215533D02*
X149034476Y-117929819D01*
X149034476Y-117929819D02*
X149272572Y-116929819D01*
X149558286Y-116929819D02*
X150177333Y-116929819D01*
X150177333Y-116929819D02*
X149844000Y-117310771D01*
X149844000Y-117310771D02*
X149986857Y-117310771D01*
X149986857Y-117310771D02*
X150082095Y-117358390D01*
X150082095Y-117358390D02*
X150129714Y-117406009D01*
X150129714Y-117406009D02*
X150177333Y-117501247D01*
X150177333Y-117501247D02*
X150177333Y-117739342D01*
X150177333Y-117739342D02*
X150129714Y-117834580D01*
X150129714Y-117834580D02*
X150082095Y-117882200D01*
X150082095Y-117882200D02*
X149986857Y-117929819D01*
X149986857Y-117929819D02*
X149701143Y-117929819D01*
X149701143Y-117929819D02*
X149605905Y-117882200D01*
X149605905Y-117882200D02*
X149558286Y-117834580D01*
X117975142Y-82909580D02*
X117927523Y-82957200D01*
X117927523Y-82957200D02*
X117784666Y-83004819D01*
X117784666Y-83004819D02*
X117689428Y-83004819D01*
X117689428Y-83004819D02*
X117546571Y-82957200D01*
X117546571Y-82957200D02*
X117451333Y-82861961D01*
X117451333Y-82861961D02*
X117403714Y-82766723D01*
X117403714Y-82766723D02*
X117356095Y-82576247D01*
X117356095Y-82576247D02*
X117356095Y-82433390D01*
X117356095Y-82433390D02*
X117403714Y-82242914D01*
X117403714Y-82242914D02*
X117451333Y-82147676D01*
X117451333Y-82147676D02*
X117546571Y-82052438D01*
X117546571Y-82052438D02*
X117689428Y-82004819D01*
X117689428Y-82004819D02*
X117784666Y-82004819D01*
X117784666Y-82004819D02*
X117927523Y-82052438D01*
X117927523Y-82052438D02*
X117975142Y-82100057D01*
X118927523Y-83004819D02*
X118356095Y-83004819D01*
X118641809Y-83004819D02*
X118641809Y-82004819D01*
X118641809Y-82004819D02*
X118546571Y-82147676D01*
X118546571Y-82147676D02*
X118451333Y-82242914D01*
X118451333Y-82242914D02*
X118356095Y-82290533D01*
X119403714Y-83004819D02*
X119594190Y-83004819D01*
X119594190Y-83004819D02*
X119689428Y-82957200D01*
X119689428Y-82957200D02*
X119737047Y-82909580D01*
X119737047Y-82909580D02*
X119832285Y-82766723D01*
X119832285Y-82766723D02*
X119879904Y-82576247D01*
X119879904Y-82576247D02*
X119879904Y-82195295D01*
X119879904Y-82195295D02*
X119832285Y-82100057D01*
X119832285Y-82100057D02*
X119784666Y-82052438D01*
X119784666Y-82052438D02*
X119689428Y-82004819D01*
X119689428Y-82004819D02*
X119498952Y-82004819D01*
X119498952Y-82004819D02*
X119403714Y-82052438D01*
X119403714Y-82052438D02*
X119356095Y-82100057D01*
X119356095Y-82100057D02*
X119308476Y-82195295D01*
X119308476Y-82195295D02*
X119308476Y-82433390D01*
X119308476Y-82433390D02*
X119356095Y-82528628D01*
X119356095Y-82528628D02*
X119403714Y-82576247D01*
X119403714Y-82576247D02*
X119498952Y-82623866D01*
X119498952Y-82623866D02*
X119689428Y-82623866D01*
X119689428Y-82623866D02*
X119784666Y-82576247D01*
X119784666Y-82576247D02*
X119832285Y-82528628D01*
X119832285Y-82528628D02*
X119879904Y-82433390D01*
X123436142Y-111738580D02*
X123388523Y-111786200D01*
X123388523Y-111786200D02*
X123245666Y-111833819D01*
X123245666Y-111833819D02*
X123150428Y-111833819D01*
X123150428Y-111833819D02*
X123007571Y-111786200D01*
X123007571Y-111786200D02*
X122912333Y-111690961D01*
X122912333Y-111690961D02*
X122864714Y-111595723D01*
X122864714Y-111595723D02*
X122817095Y-111405247D01*
X122817095Y-111405247D02*
X122817095Y-111262390D01*
X122817095Y-111262390D02*
X122864714Y-111071914D01*
X122864714Y-111071914D02*
X122912333Y-110976676D01*
X122912333Y-110976676D02*
X123007571Y-110881438D01*
X123007571Y-110881438D02*
X123150428Y-110833819D01*
X123150428Y-110833819D02*
X123245666Y-110833819D01*
X123245666Y-110833819D02*
X123388523Y-110881438D01*
X123388523Y-110881438D02*
X123436142Y-110929057D01*
X124388523Y-111833819D02*
X123817095Y-111833819D01*
X124102809Y-111833819D02*
X124102809Y-110833819D01*
X124102809Y-110833819D02*
X124007571Y-110976676D01*
X124007571Y-110976676D02*
X123912333Y-111071914D01*
X123912333Y-111071914D02*
X123817095Y-111119533D01*
X125245666Y-111167152D02*
X125245666Y-111833819D01*
X125007571Y-110786200D02*
X124769476Y-111500485D01*
X124769476Y-111500485D02*
X125388523Y-111500485D01*
X113262580Y-113545857D02*
X113310200Y-113593476D01*
X113310200Y-113593476D02*
X113357819Y-113736333D01*
X113357819Y-113736333D02*
X113357819Y-113831571D01*
X113357819Y-113831571D02*
X113310200Y-113974428D01*
X113310200Y-113974428D02*
X113214961Y-114069666D01*
X113214961Y-114069666D02*
X113119723Y-114117285D01*
X113119723Y-114117285D02*
X112929247Y-114164904D01*
X112929247Y-114164904D02*
X112786390Y-114164904D01*
X112786390Y-114164904D02*
X112595914Y-114117285D01*
X112595914Y-114117285D02*
X112500676Y-114069666D01*
X112500676Y-114069666D02*
X112405438Y-113974428D01*
X112405438Y-113974428D02*
X112357819Y-113831571D01*
X112357819Y-113831571D02*
X112357819Y-113736333D01*
X112357819Y-113736333D02*
X112405438Y-113593476D01*
X112405438Y-113593476D02*
X112453057Y-113545857D01*
X113357819Y-112593476D02*
X113357819Y-113164904D01*
X113357819Y-112879190D02*
X112357819Y-112879190D01*
X112357819Y-112879190D02*
X112500676Y-112974428D01*
X112500676Y-112974428D02*
X112595914Y-113069666D01*
X112595914Y-113069666D02*
X112643533Y-113164904D01*
X112357819Y-112260142D02*
X112357819Y-111641095D01*
X112357819Y-111641095D02*
X112738771Y-111974428D01*
X112738771Y-111974428D02*
X112738771Y-111831571D01*
X112738771Y-111831571D02*
X112786390Y-111736333D01*
X112786390Y-111736333D02*
X112834009Y-111688714D01*
X112834009Y-111688714D02*
X112929247Y-111641095D01*
X112929247Y-111641095D02*
X113167342Y-111641095D01*
X113167342Y-111641095D02*
X113262580Y-111688714D01*
X113262580Y-111688714D02*
X113310200Y-111736333D01*
X113310200Y-111736333D02*
X113357819Y-111831571D01*
X113357819Y-111831571D02*
X113357819Y-112117285D01*
X113357819Y-112117285D02*
X113310200Y-112212523D01*
X113310200Y-112212523D02*
X113262580Y-112260142D01*
X104767142Y-94847580D02*
X104719523Y-94895200D01*
X104719523Y-94895200D02*
X104576666Y-94942819D01*
X104576666Y-94942819D02*
X104481428Y-94942819D01*
X104481428Y-94942819D02*
X104338571Y-94895200D01*
X104338571Y-94895200D02*
X104243333Y-94799961D01*
X104243333Y-94799961D02*
X104195714Y-94704723D01*
X104195714Y-94704723D02*
X104148095Y-94514247D01*
X104148095Y-94514247D02*
X104148095Y-94371390D01*
X104148095Y-94371390D02*
X104195714Y-94180914D01*
X104195714Y-94180914D02*
X104243333Y-94085676D01*
X104243333Y-94085676D02*
X104338571Y-93990438D01*
X104338571Y-93990438D02*
X104481428Y-93942819D01*
X104481428Y-93942819D02*
X104576666Y-93942819D01*
X104576666Y-93942819D02*
X104719523Y-93990438D01*
X104719523Y-93990438D02*
X104767142Y-94038057D01*
X105719523Y-94942819D02*
X105148095Y-94942819D01*
X105433809Y-94942819D02*
X105433809Y-93942819D01*
X105433809Y-93942819D02*
X105338571Y-94085676D01*
X105338571Y-94085676D02*
X105243333Y-94180914D01*
X105243333Y-94180914D02*
X105148095Y-94228533D01*
X106338571Y-93942819D02*
X106433809Y-93942819D01*
X106433809Y-93942819D02*
X106529047Y-93990438D01*
X106529047Y-93990438D02*
X106576666Y-94038057D01*
X106576666Y-94038057D02*
X106624285Y-94133295D01*
X106624285Y-94133295D02*
X106671904Y-94323771D01*
X106671904Y-94323771D02*
X106671904Y-94561866D01*
X106671904Y-94561866D02*
X106624285Y-94752342D01*
X106624285Y-94752342D02*
X106576666Y-94847580D01*
X106576666Y-94847580D02*
X106529047Y-94895200D01*
X106529047Y-94895200D02*
X106433809Y-94942819D01*
X106433809Y-94942819D02*
X106338571Y-94942819D01*
X106338571Y-94942819D02*
X106243333Y-94895200D01*
X106243333Y-94895200D02*
X106195714Y-94847580D01*
X106195714Y-94847580D02*
X106148095Y-94752342D01*
X106148095Y-94752342D02*
X106100476Y-94561866D01*
X106100476Y-94561866D02*
X106100476Y-94323771D01*
X106100476Y-94323771D02*
X106148095Y-94133295D01*
X106148095Y-94133295D02*
X106195714Y-94038057D01*
X106195714Y-94038057D02*
X106243333Y-93990438D01*
X106243333Y-93990438D02*
X106338571Y-93942819D01*
X144264142Y-109071580D02*
X144216523Y-109119200D01*
X144216523Y-109119200D02*
X144073666Y-109166819D01*
X144073666Y-109166819D02*
X143978428Y-109166819D01*
X143978428Y-109166819D02*
X143835571Y-109119200D01*
X143835571Y-109119200D02*
X143740333Y-109023961D01*
X143740333Y-109023961D02*
X143692714Y-108928723D01*
X143692714Y-108928723D02*
X143645095Y-108738247D01*
X143645095Y-108738247D02*
X143645095Y-108595390D01*
X143645095Y-108595390D02*
X143692714Y-108404914D01*
X143692714Y-108404914D02*
X143740333Y-108309676D01*
X143740333Y-108309676D02*
X143835571Y-108214438D01*
X143835571Y-108214438D02*
X143978428Y-108166819D01*
X143978428Y-108166819D02*
X144073666Y-108166819D01*
X144073666Y-108166819D02*
X144216523Y-108214438D01*
X144216523Y-108214438D02*
X144264142Y-108262057D01*
X144645095Y-108262057D02*
X144692714Y-108214438D01*
X144692714Y-108214438D02*
X144787952Y-108166819D01*
X144787952Y-108166819D02*
X145026047Y-108166819D01*
X145026047Y-108166819D02*
X145121285Y-108214438D01*
X145121285Y-108214438D02*
X145168904Y-108262057D01*
X145168904Y-108262057D02*
X145216523Y-108357295D01*
X145216523Y-108357295D02*
X145216523Y-108452533D01*
X145216523Y-108452533D02*
X145168904Y-108595390D01*
X145168904Y-108595390D02*
X144597476Y-109166819D01*
X144597476Y-109166819D02*
X145216523Y-109166819D01*
X146073666Y-108500152D02*
X146073666Y-109166819D01*
X145835571Y-108119200D02*
X145597476Y-108833485D01*
X145597476Y-108833485D02*
X146216523Y-108833485D01*
X125295819Y-98686857D02*
X124819628Y-99020190D01*
X125295819Y-99258285D02*
X124295819Y-99258285D01*
X124295819Y-99258285D02*
X124295819Y-98877333D01*
X124295819Y-98877333D02*
X124343438Y-98782095D01*
X124343438Y-98782095D02*
X124391057Y-98734476D01*
X124391057Y-98734476D02*
X124486295Y-98686857D01*
X124486295Y-98686857D02*
X124629152Y-98686857D01*
X124629152Y-98686857D02*
X124724390Y-98734476D01*
X124724390Y-98734476D02*
X124772009Y-98782095D01*
X124772009Y-98782095D02*
X124819628Y-98877333D01*
X124819628Y-98877333D02*
X124819628Y-99258285D01*
X125295819Y-97734476D02*
X125295819Y-98305904D01*
X125295819Y-98020190D02*
X124295819Y-98020190D01*
X124295819Y-98020190D02*
X124438676Y-98115428D01*
X124438676Y-98115428D02*
X124533914Y-98210666D01*
X124533914Y-98210666D02*
X124581533Y-98305904D01*
X125295819Y-96782095D02*
X125295819Y-97353523D01*
X125295819Y-97067809D02*
X124295819Y-97067809D01*
X124295819Y-97067809D02*
X124438676Y-97163047D01*
X124438676Y-97163047D02*
X124533914Y-97258285D01*
X124533914Y-97258285D02*
X124581533Y-97353523D01*
X126692819Y-98686857D02*
X126216628Y-99020190D01*
X126692819Y-99258285D02*
X125692819Y-99258285D01*
X125692819Y-99258285D02*
X125692819Y-98877333D01*
X125692819Y-98877333D02*
X125740438Y-98782095D01*
X125740438Y-98782095D02*
X125788057Y-98734476D01*
X125788057Y-98734476D02*
X125883295Y-98686857D01*
X125883295Y-98686857D02*
X126026152Y-98686857D01*
X126026152Y-98686857D02*
X126121390Y-98734476D01*
X126121390Y-98734476D02*
X126169009Y-98782095D01*
X126169009Y-98782095D02*
X126216628Y-98877333D01*
X126216628Y-98877333D02*
X126216628Y-99258285D01*
X126692819Y-97734476D02*
X126692819Y-98305904D01*
X126692819Y-98020190D02*
X125692819Y-98020190D01*
X125692819Y-98020190D02*
X125835676Y-98115428D01*
X125835676Y-98115428D02*
X125930914Y-98210666D01*
X125930914Y-98210666D02*
X125978533Y-98305904D01*
X125692819Y-97401142D02*
X125692819Y-96782095D01*
X125692819Y-96782095D02*
X126073771Y-97115428D01*
X126073771Y-97115428D02*
X126073771Y-96972571D01*
X126073771Y-96972571D02*
X126121390Y-96877333D01*
X126121390Y-96877333D02*
X126169009Y-96829714D01*
X126169009Y-96829714D02*
X126264247Y-96782095D01*
X126264247Y-96782095D02*
X126502342Y-96782095D01*
X126502342Y-96782095D02*
X126597580Y-96829714D01*
X126597580Y-96829714D02*
X126645200Y-96877333D01*
X126645200Y-96877333D02*
X126692819Y-96972571D01*
X126692819Y-96972571D02*
X126692819Y-97258285D01*
X126692819Y-97258285D02*
X126645200Y-97353523D01*
X126645200Y-97353523D02*
X126597580Y-97401142D01*
X119326819Y-99036094D02*
X118326819Y-99036094D01*
X118326819Y-99036094D02*
X118326819Y-98797999D01*
X118326819Y-98797999D02*
X118374438Y-98655142D01*
X118374438Y-98655142D02*
X118469676Y-98559904D01*
X118469676Y-98559904D02*
X118564914Y-98512285D01*
X118564914Y-98512285D02*
X118755390Y-98464666D01*
X118755390Y-98464666D02*
X118898247Y-98464666D01*
X118898247Y-98464666D02*
X119088723Y-98512285D01*
X119088723Y-98512285D02*
X119183961Y-98559904D01*
X119183961Y-98559904D02*
X119279200Y-98655142D01*
X119279200Y-98655142D02*
X119326819Y-98797999D01*
X119326819Y-98797999D02*
X119326819Y-99036094D01*
X118326819Y-97607523D02*
X118326819Y-97797999D01*
X118326819Y-97797999D02*
X118374438Y-97893237D01*
X118374438Y-97893237D02*
X118422057Y-97940856D01*
X118422057Y-97940856D02*
X118564914Y-98036094D01*
X118564914Y-98036094D02*
X118755390Y-98083713D01*
X118755390Y-98083713D02*
X119136342Y-98083713D01*
X119136342Y-98083713D02*
X119231580Y-98036094D01*
X119231580Y-98036094D02*
X119279200Y-97988475D01*
X119279200Y-97988475D02*
X119326819Y-97893237D01*
X119326819Y-97893237D02*
X119326819Y-97702761D01*
X119326819Y-97702761D02*
X119279200Y-97607523D01*
X119279200Y-97607523D02*
X119231580Y-97559904D01*
X119231580Y-97559904D02*
X119136342Y-97512285D01*
X119136342Y-97512285D02*
X118898247Y-97512285D01*
X118898247Y-97512285D02*
X118803009Y-97559904D01*
X118803009Y-97559904D02*
X118755390Y-97607523D01*
X118755390Y-97607523D02*
X118707771Y-97702761D01*
X118707771Y-97702761D02*
X118707771Y-97893237D01*
X118707771Y-97893237D02*
X118755390Y-97988475D01*
X118755390Y-97988475D02*
X118803009Y-98036094D01*
X118803009Y-98036094D02*
X118898247Y-98083713D01*
X140708142Y-111706819D02*
X140374809Y-111230628D01*
X140136714Y-111706819D02*
X140136714Y-110706819D01*
X140136714Y-110706819D02*
X140517666Y-110706819D01*
X140517666Y-110706819D02*
X140612904Y-110754438D01*
X140612904Y-110754438D02*
X140660523Y-110802057D01*
X140660523Y-110802057D02*
X140708142Y-110897295D01*
X140708142Y-110897295D02*
X140708142Y-111040152D01*
X140708142Y-111040152D02*
X140660523Y-111135390D01*
X140660523Y-111135390D02*
X140612904Y-111183009D01*
X140612904Y-111183009D02*
X140517666Y-111230628D01*
X140517666Y-111230628D02*
X140136714Y-111230628D01*
X141660523Y-111706819D02*
X141089095Y-111706819D01*
X141374809Y-111706819D02*
X141374809Y-110706819D01*
X141374809Y-110706819D02*
X141279571Y-110849676D01*
X141279571Y-110849676D02*
X141184333Y-110944914D01*
X141184333Y-110944914D02*
X141089095Y-110992533D01*
X142231952Y-111135390D02*
X142136714Y-111087771D01*
X142136714Y-111087771D02*
X142089095Y-111040152D01*
X142089095Y-111040152D02*
X142041476Y-110944914D01*
X142041476Y-110944914D02*
X142041476Y-110897295D01*
X142041476Y-110897295D02*
X142089095Y-110802057D01*
X142089095Y-110802057D02*
X142136714Y-110754438D01*
X142136714Y-110754438D02*
X142231952Y-110706819D01*
X142231952Y-110706819D02*
X142422428Y-110706819D01*
X142422428Y-110706819D02*
X142517666Y-110754438D01*
X142517666Y-110754438D02*
X142565285Y-110802057D01*
X142565285Y-110802057D02*
X142612904Y-110897295D01*
X142612904Y-110897295D02*
X142612904Y-110944914D01*
X142612904Y-110944914D02*
X142565285Y-111040152D01*
X142565285Y-111040152D02*
X142517666Y-111087771D01*
X142517666Y-111087771D02*
X142422428Y-111135390D01*
X142422428Y-111135390D02*
X142231952Y-111135390D01*
X142231952Y-111135390D02*
X142136714Y-111183009D01*
X142136714Y-111183009D02*
X142089095Y-111230628D01*
X142089095Y-111230628D02*
X142041476Y-111325866D01*
X142041476Y-111325866D02*
X142041476Y-111516342D01*
X142041476Y-111516342D02*
X142089095Y-111611580D01*
X142089095Y-111611580D02*
X142136714Y-111659200D01*
X142136714Y-111659200D02*
X142231952Y-111706819D01*
X142231952Y-111706819D02*
X142422428Y-111706819D01*
X142422428Y-111706819D02*
X142517666Y-111659200D01*
X142517666Y-111659200D02*
X142565285Y-111611580D01*
X142565285Y-111611580D02*
X142612904Y-111516342D01*
X142612904Y-111516342D02*
X142612904Y-111325866D01*
X142612904Y-111325866D02*
X142565285Y-111230628D01*
X142565285Y-111230628D02*
X142517666Y-111183009D01*
X142517666Y-111183009D02*
X142422428Y-111135390D01*
X117086142Y-87354580D02*
X117038523Y-87402200D01*
X117038523Y-87402200D02*
X116895666Y-87449819D01*
X116895666Y-87449819D02*
X116800428Y-87449819D01*
X116800428Y-87449819D02*
X116657571Y-87402200D01*
X116657571Y-87402200D02*
X116562333Y-87306961D01*
X116562333Y-87306961D02*
X116514714Y-87211723D01*
X116514714Y-87211723D02*
X116467095Y-87021247D01*
X116467095Y-87021247D02*
X116467095Y-86878390D01*
X116467095Y-86878390D02*
X116514714Y-86687914D01*
X116514714Y-86687914D02*
X116562333Y-86592676D01*
X116562333Y-86592676D02*
X116657571Y-86497438D01*
X116657571Y-86497438D02*
X116800428Y-86449819D01*
X116800428Y-86449819D02*
X116895666Y-86449819D01*
X116895666Y-86449819D02*
X117038523Y-86497438D01*
X117038523Y-86497438D02*
X117086142Y-86545057D01*
X118038523Y-87449819D02*
X117467095Y-87449819D01*
X117752809Y-87449819D02*
X117752809Y-86449819D01*
X117752809Y-86449819D02*
X117657571Y-86592676D01*
X117657571Y-86592676D02*
X117562333Y-86687914D01*
X117562333Y-86687914D02*
X117467095Y-86735533D01*
X118895666Y-86449819D02*
X118705190Y-86449819D01*
X118705190Y-86449819D02*
X118609952Y-86497438D01*
X118609952Y-86497438D02*
X118562333Y-86545057D01*
X118562333Y-86545057D02*
X118467095Y-86687914D01*
X118467095Y-86687914D02*
X118419476Y-86878390D01*
X118419476Y-86878390D02*
X118419476Y-87259342D01*
X118419476Y-87259342D02*
X118467095Y-87354580D01*
X118467095Y-87354580D02*
X118514714Y-87402200D01*
X118514714Y-87402200D02*
X118609952Y-87449819D01*
X118609952Y-87449819D02*
X118800428Y-87449819D01*
X118800428Y-87449819D02*
X118895666Y-87402200D01*
X118895666Y-87402200D02*
X118943285Y-87354580D01*
X118943285Y-87354580D02*
X118990904Y-87259342D01*
X118990904Y-87259342D02*
X118990904Y-87021247D01*
X118990904Y-87021247D02*
X118943285Y-86926009D01*
X118943285Y-86926009D02*
X118895666Y-86878390D01*
X118895666Y-86878390D02*
X118800428Y-86830771D01*
X118800428Y-86830771D02*
X118609952Y-86830771D01*
X118609952Y-86830771D02*
X118514714Y-86878390D01*
X118514714Y-86878390D02*
X118467095Y-86926009D01*
X118467095Y-86926009D02*
X118419476Y-87021247D01*
X137741819Y-110720094D02*
X136741819Y-110720094D01*
X136741819Y-110720094D02*
X136741819Y-110481999D01*
X136741819Y-110481999D02*
X136789438Y-110339142D01*
X136789438Y-110339142D02*
X136884676Y-110243904D01*
X136884676Y-110243904D02*
X136979914Y-110196285D01*
X136979914Y-110196285D02*
X137170390Y-110148666D01*
X137170390Y-110148666D02*
X137313247Y-110148666D01*
X137313247Y-110148666D02*
X137503723Y-110196285D01*
X137503723Y-110196285D02*
X137598961Y-110243904D01*
X137598961Y-110243904D02*
X137694200Y-110339142D01*
X137694200Y-110339142D02*
X137741819Y-110481999D01*
X137741819Y-110481999D02*
X137741819Y-110720094D01*
X136837057Y-109767713D02*
X136789438Y-109720094D01*
X136789438Y-109720094D02*
X136741819Y-109624856D01*
X136741819Y-109624856D02*
X136741819Y-109386761D01*
X136741819Y-109386761D02*
X136789438Y-109291523D01*
X136789438Y-109291523D02*
X136837057Y-109243904D01*
X136837057Y-109243904D02*
X136932295Y-109196285D01*
X136932295Y-109196285D02*
X137027533Y-109196285D01*
X137027533Y-109196285D02*
X137170390Y-109243904D01*
X137170390Y-109243904D02*
X137741819Y-109815332D01*
X137741819Y-109815332D02*
X137741819Y-109196285D01*
X128389142Y-88624580D02*
X128341523Y-88672200D01*
X128341523Y-88672200D02*
X128198666Y-88719819D01*
X128198666Y-88719819D02*
X128103428Y-88719819D01*
X128103428Y-88719819D02*
X127960571Y-88672200D01*
X127960571Y-88672200D02*
X127865333Y-88576961D01*
X127865333Y-88576961D02*
X127817714Y-88481723D01*
X127817714Y-88481723D02*
X127770095Y-88291247D01*
X127770095Y-88291247D02*
X127770095Y-88148390D01*
X127770095Y-88148390D02*
X127817714Y-87957914D01*
X127817714Y-87957914D02*
X127865333Y-87862676D01*
X127865333Y-87862676D02*
X127960571Y-87767438D01*
X127960571Y-87767438D02*
X128103428Y-87719819D01*
X128103428Y-87719819D02*
X128198666Y-87719819D01*
X128198666Y-87719819D02*
X128341523Y-87767438D01*
X128341523Y-87767438D02*
X128389142Y-87815057D01*
X129341523Y-88719819D02*
X128770095Y-88719819D01*
X129055809Y-88719819D02*
X129055809Y-87719819D01*
X129055809Y-87719819D02*
X128960571Y-87862676D01*
X128960571Y-87862676D02*
X128865333Y-87957914D01*
X128865333Y-87957914D02*
X128770095Y-88005533D01*
X130246285Y-87719819D02*
X129770095Y-87719819D01*
X129770095Y-87719819D02*
X129722476Y-88196009D01*
X129722476Y-88196009D02*
X129770095Y-88148390D01*
X129770095Y-88148390D02*
X129865333Y-88100771D01*
X129865333Y-88100771D02*
X130103428Y-88100771D01*
X130103428Y-88100771D02*
X130198666Y-88148390D01*
X130198666Y-88148390D02*
X130246285Y-88196009D01*
X130246285Y-88196009D02*
X130293904Y-88291247D01*
X130293904Y-88291247D02*
X130293904Y-88529342D01*
X130293904Y-88529342D02*
X130246285Y-88624580D01*
X130246285Y-88624580D02*
X130198666Y-88672200D01*
X130198666Y-88672200D02*
X130103428Y-88719819D01*
X130103428Y-88719819D02*
X129865333Y-88719819D01*
X129865333Y-88719819D02*
X129770095Y-88672200D01*
X129770095Y-88672200D02*
X129722476Y-88624580D01*
X139265819Y-110720094D02*
X138265819Y-110720094D01*
X138265819Y-110720094D02*
X138265819Y-110481999D01*
X138265819Y-110481999D02*
X138313438Y-110339142D01*
X138313438Y-110339142D02*
X138408676Y-110243904D01*
X138408676Y-110243904D02*
X138503914Y-110196285D01*
X138503914Y-110196285D02*
X138694390Y-110148666D01*
X138694390Y-110148666D02*
X138837247Y-110148666D01*
X138837247Y-110148666D02*
X139027723Y-110196285D01*
X139027723Y-110196285D02*
X139122961Y-110243904D01*
X139122961Y-110243904D02*
X139218200Y-110339142D01*
X139218200Y-110339142D02*
X139265819Y-110481999D01*
X139265819Y-110481999D02*
X139265819Y-110720094D01*
X138265819Y-109815332D02*
X138265819Y-109196285D01*
X138265819Y-109196285D02*
X138646771Y-109529618D01*
X138646771Y-109529618D02*
X138646771Y-109386761D01*
X138646771Y-109386761D02*
X138694390Y-109291523D01*
X138694390Y-109291523D02*
X138742009Y-109243904D01*
X138742009Y-109243904D02*
X138837247Y-109196285D01*
X138837247Y-109196285D02*
X139075342Y-109196285D01*
X139075342Y-109196285D02*
X139170580Y-109243904D01*
X139170580Y-109243904D02*
X139218200Y-109291523D01*
X139218200Y-109291523D02*
X139265819Y-109386761D01*
X139265819Y-109386761D02*
X139265819Y-109672475D01*
X139265819Y-109672475D02*
X139218200Y-109767713D01*
X139218200Y-109767713D02*
X139170580Y-109815332D01*
X138041142Y-94212580D02*
X137993523Y-94260200D01*
X137993523Y-94260200D02*
X137850666Y-94307819D01*
X137850666Y-94307819D02*
X137755428Y-94307819D01*
X137755428Y-94307819D02*
X137612571Y-94260200D01*
X137612571Y-94260200D02*
X137517333Y-94164961D01*
X137517333Y-94164961D02*
X137469714Y-94069723D01*
X137469714Y-94069723D02*
X137422095Y-93879247D01*
X137422095Y-93879247D02*
X137422095Y-93736390D01*
X137422095Y-93736390D02*
X137469714Y-93545914D01*
X137469714Y-93545914D02*
X137517333Y-93450676D01*
X137517333Y-93450676D02*
X137612571Y-93355438D01*
X137612571Y-93355438D02*
X137755428Y-93307819D01*
X137755428Y-93307819D02*
X137850666Y-93307819D01*
X137850666Y-93307819D02*
X137993523Y-93355438D01*
X137993523Y-93355438D02*
X138041142Y-93403057D01*
X138898285Y-93641152D02*
X138898285Y-94307819D01*
X138660190Y-93260200D02*
X138422095Y-93974485D01*
X138422095Y-93974485D02*
X139041142Y-93974485D01*
X139898285Y-93307819D02*
X139422095Y-93307819D01*
X139422095Y-93307819D02*
X139374476Y-93784009D01*
X139374476Y-93784009D02*
X139422095Y-93736390D01*
X139422095Y-93736390D02*
X139517333Y-93688771D01*
X139517333Y-93688771D02*
X139755428Y-93688771D01*
X139755428Y-93688771D02*
X139850666Y-93736390D01*
X139850666Y-93736390D02*
X139898285Y-93784009D01*
X139898285Y-93784009D02*
X139945904Y-93879247D01*
X139945904Y-93879247D02*
X139945904Y-94117342D01*
X139945904Y-94117342D02*
X139898285Y-94212580D01*
X139898285Y-94212580D02*
X139850666Y-94260200D01*
X139850666Y-94260200D02*
X139755428Y-94307819D01*
X139755428Y-94307819D02*
X139517333Y-94307819D01*
X139517333Y-94307819D02*
X139422095Y-94260200D01*
X139422095Y-94260200D02*
X139374476Y-94212580D01*
X120247580Y-86367857D02*
X120295200Y-86415476D01*
X120295200Y-86415476D02*
X120342819Y-86558333D01*
X120342819Y-86558333D02*
X120342819Y-86653571D01*
X120342819Y-86653571D02*
X120295200Y-86796428D01*
X120295200Y-86796428D02*
X120199961Y-86891666D01*
X120199961Y-86891666D02*
X120104723Y-86939285D01*
X120104723Y-86939285D02*
X119914247Y-86986904D01*
X119914247Y-86986904D02*
X119771390Y-86986904D01*
X119771390Y-86986904D02*
X119580914Y-86939285D01*
X119580914Y-86939285D02*
X119485676Y-86891666D01*
X119485676Y-86891666D02*
X119390438Y-86796428D01*
X119390438Y-86796428D02*
X119342819Y-86653571D01*
X119342819Y-86653571D02*
X119342819Y-86558333D01*
X119342819Y-86558333D02*
X119390438Y-86415476D01*
X119390438Y-86415476D02*
X119438057Y-86367857D01*
X120342819Y-85415476D02*
X120342819Y-85986904D01*
X120342819Y-85701190D02*
X119342819Y-85701190D01*
X119342819Y-85701190D02*
X119485676Y-85796428D01*
X119485676Y-85796428D02*
X119580914Y-85891666D01*
X119580914Y-85891666D02*
X119628533Y-85986904D01*
X119342819Y-85082142D02*
X119342819Y-84415476D01*
X119342819Y-84415476D02*
X120342819Y-84844047D01*
X127359580Y-111672666D02*
X127407200Y-111720285D01*
X127407200Y-111720285D02*
X127454819Y-111863142D01*
X127454819Y-111863142D02*
X127454819Y-111958380D01*
X127454819Y-111958380D02*
X127407200Y-112101237D01*
X127407200Y-112101237D02*
X127311961Y-112196475D01*
X127311961Y-112196475D02*
X127216723Y-112244094D01*
X127216723Y-112244094D02*
X127026247Y-112291713D01*
X127026247Y-112291713D02*
X126883390Y-112291713D01*
X126883390Y-112291713D02*
X126692914Y-112244094D01*
X126692914Y-112244094D02*
X126597676Y-112196475D01*
X126597676Y-112196475D02*
X126502438Y-112101237D01*
X126502438Y-112101237D02*
X126454819Y-111958380D01*
X126454819Y-111958380D02*
X126454819Y-111863142D01*
X126454819Y-111863142D02*
X126502438Y-111720285D01*
X126502438Y-111720285D02*
X126550057Y-111672666D01*
X126454819Y-110767904D02*
X126454819Y-111244094D01*
X126454819Y-111244094D02*
X126931009Y-111291713D01*
X126931009Y-111291713D02*
X126883390Y-111244094D01*
X126883390Y-111244094D02*
X126835771Y-111148856D01*
X126835771Y-111148856D02*
X126835771Y-110910761D01*
X126835771Y-110910761D02*
X126883390Y-110815523D01*
X126883390Y-110815523D02*
X126931009Y-110767904D01*
X126931009Y-110767904D02*
X127026247Y-110720285D01*
X127026247Y-110720285D02*
X127264342Y-110720285D01*
X127264342Y-110720285D02*
X127359580Y-110767904D01*
X127359580Y-110767904D02*
X127407200Y-110815523D01*
X127407200Y-110815523D02*
X127454819Y-110910761D01*
X127454819Y-110910761D02*
X127454819Y-111148856D01*
X127454819Y-111148856D02*
X127407200Y-111244094D01*
X127407200Y-111244094D02*
X127359580Y-111291713D01*
X144391142Y-110690819D02*
X144057809Y-110214628D01*
X143819714Y-110690819D02*
X143819714Y-109690819D01*
X143819714Y-109690819D02*
X144200666Y-109690819D01*
X144200666Y-109690819D02*
X144295904Y-109738438D01*
X144295904Y-109738438D02*
X144343523Y-109786057D01*
X144343523Y-109786057D02*
X144391142Y-109881295D01*
X144391142Y-109881295D02*
X144391142Y-110024152D01*
X144391142Y-110024152D02*
X144343523Y-110119390D01*
X144343523Y-110119390D02*
X144295904Y-110167009D01*
X144295904Y-110167009D02*
X144200666Y-110214628D01*
X144200666Y-110214628D02*
X143819714Y-110214628D01*
X145343523Y-110690819D02*
X144772095Y-110690819D01*
X145057809Y-110690819D02*
X145057809Y-109690819D01*
X145057809Y-109690819D02*
X144962571Y-109833676D01*
X144962571Y-109833676D02*
X144867333Y-109928914D01*
X144867333Y-109928914D02*
X144772095Y-109976533D01*
X145676857Y-109690819D02*
X146343523Y-109690819D01*
X146343523Y-109690819D02*
X145914952Y-110690819D01*
X142359142Y-87133580D02*
X142311523Y-87181200D01*
X142311523Y-87181200D02*
X142168666Y-87228819D01*
X142168666Y-87228819D02*
X142073428Y-87228819D01*
X142073428Y-87228819D02*
X141930571Y-87181200D01*
X141930571Y-87181200D02*
X141835333Y-87085961D01*
X141835333Y-87085961D02*
X141787714Y-86990723D01*
X141787714Y-86990723D02*
X141740095Y-86800247D01*
X141740095Y-86800247D02*
X141740095Y-86657390D01*
X141740095Y-86657390D02*
X141787714Y-86466914D01*
X141787714Y-86466914D02*
X141835333Y-86371676D01*
X141835333Y-86371676D02*
X141930571Y-86276438D01*
X141930571Y-86276438D02*
X142073428Y-86228819D01*
X142073428Y-86228819D02*
X142168666Y-86228819D01*
X142168666Y-86228819D02*
X142311523Y-86276438D01*
X142311523Y-86276438D02*
X142359142Y-86324057D01*
X143216285Y-86562152D02*
X143216285Y-87228819D01*
X142978190Y-86181200D02*
X142740095Y-86895485D01*
X142740095Y-86895485D02*
X143359142Y-86895485D01*
X144168666Y-86228819D02*
X143978190Y-86228819D01*
X143978190Y-86228819D02*
X143882952Y-86276438D01*
X143882952Y-86276438D02*
X143835333Y-86324057D01*
X143835333Y-86324057D02*
X143740095Y-86466914D01*
X143740095Y-86466914D02*
X143692476Y-86657390D01*
X143692476Y-86657390D02*
X143692476Y-87038342D01*
X143692476Y-87038342D02*
X143740095Y-87133580D01*
X143740095Y-87133580D02*
X143787714Y-87181200D01*
X143787714Y-87181200D02*
X143882952Y-87228819D01*
X143882952Y-87228819D02*
X144073428Y-87228819D01*
X144073428Y-87228819D02*
X144168666Y-87181200D01*
X144168666Y-87181200D02*
X144216285Y-87133580D01*
X144216285Y-87133580D02*
X144263904Y-87038342D01*
X144263904Y-87038342D02*
X144263904Y-86800247D01*
X144263904Y-86800247D02*
X144216285Y-86705009D01*
X144216285Y-86705009D02*
X144168666Y-86657390D01*
X144168666Y-86657390D02*
X144073428Y-86609771D01*
X144073428Y-86609771D02*
X143882952Y-86609771D01*
X143882952Y-86609771D02*
X143787714Y-86657390D01*
X143787714Y-86657390D02*
X143740095Y-86705009D01*
X143740095Y-86705009D02*
X143692476Y-86800247D01*
D12*
X160733618Y-81981318D02*
X160733618Y-80711318D01*
X160733618Y-80711318D02*
X161035999Y-80711318D01*
X161035999Y-80711318D02*
X161217428Y-80771794D01*
X161217428Y-80771794D02*
X161338380Y-80892746D01*
X161338380Y-80892746D02*
X161398857Y-81013699D01*
X161398857Y-81013699D02*
X161459333Y-81255603D01*
X161459333Y-81255603D02*
X161459333Y-81437032D01*
X161459333Y-81437032D02*
X161398857Y-81678937D01*
X161398857Y-81678937D02*
X161338380Y-81799889D01*
X161338380Y-81799889D02*
X161217428Y-81920842D01*
X161217428Y-81920842D02*
X161035999Y-81981318D01*
X161035999Y-81981318D02*
X160733618Y-81981318D01*
X162547904Y-81134651D02*
X162547904Y-81981318D01*
X162245523Y-80650842D02*
X161943142Y-81557984D01*
X161943142Y-81557984D02*
X162729333Y-81557984D01*
D10*
X118818819Y-85224857D02*
X118342628Y-85558190D01*
X118818819Y-85796285D02*
X117818819Y-85796285D01*
X117818819Y-85796285D02*
X117818819Y-85415333D01*
X117818819Y-85415333D02*
X117866438Y-85320095D01*
X117866438Y-85320095D02*
X117914057Y-85272476D01*
X117914057Y-85272476D02*
X118009295Y-85224857D01*
X118009295Y-85224857D02*
X118152152Y-85224857D01*
X118152152Y-85224857D02*
X118247390Y-85272476D01*
X118247390Y-85272476D02*
X118295009Y-85320095D01*
X118295009Y-85320095D02*
X118342628Y-85415333D01*
X118342628Y-85415333D02*
X118342628Y-85796285D01*
X118818819Y-84272476D02*
X118818819Y-84843904D01*
X118818819Y-84558190D02*
X117818819Y-84558190D01*
X117818819Y-84558190D02*
X117961676Y-84653428D01*
X117961676Y-84653428D02*
X118056914Y-84748666D01*
X118056914Y-84748666D02*
X118104533Y-84843904D01*
X117818819Y-83415333D02*
X117818819Y-83605809D01*
X117818819Y-83605809D02*
X117866438Y-83701047D01*
X117866438Y-83701047D02*
X117914057Y-83748666D01*
X117914057Y-83748666D02*
X118056914Y-83843904D01*
X118056914Y-83843904D02*
X118247390Y-83891523D01*
X118247390Y-83891523D02*
X118628342Y-83891523D01*
X118628342Y-83891523D02*
X118723580Y-83843904D01*
X118723580Y-83843904D02*
X118771200Y-83796285D01*
X118771200Y-83796285D02*
X118818819Y-83701047D01*
X118818819Y-83701047D02*
X118818819Y-83510571D01*
X118818819Y-83510571D02*
X118771200Y-83415333D01*
X118771200Y-83415333D02*
X118723580Y-83367714D01*
X118723580Y-83367714D02*
X118628342Y-83320095D01*
X118628342Y-83320095D02*
X118390247Y-83320095D01*
X118390247Y-83320095D02*
X118295009Y-83367714D01*
X118295009Y-83367714D02*
X118247390Y-83415333D01*
X118247390Y-83415333D02*
X118199771Y-83510571D01*
X118199771Y-83510571D02*
X118199771Y-83701047D01*
X118199771Y-83701047D02*
X118247390Y-83796285D01*
X118247390Y-83796285D02*
X118295009Y-83843904D01*
X118295009Y-83843904D02*
X118390247Y-83891523D01*
X100449142Y-116847580D02*
X100401523Y-116895200D01*
X100401523Y-116895200D02*
X100258666Y-116942819D01*
X100258666Y-116942819D02*
X100163428Y-116942819D01*
X100163428Y-116942819D02*
X100020571Y-116895200D01*
X100020571Y-116895200D02*
X99925333Y-116799961D01*
X99925333Y-116799961D02*
X99877714Y-116704723D01*
X99877714Y-116704723D02*
X99830095Y-116514247D01*
X99830095Y-116514247D02*
X99830095Y-116371390D01*
X99830095Y-116371390D02*
X99877714Y-116180914D01*
X99877714Y-116180914D02*
X99925333Y-116085676D01*
X99925333Y-116085676D02*
X100020571Y-115990438D01*
X100020571Y-115990438D02*
X100163428Y-115942819D01*
X100163428Y-115942819D02*
X100258666Y-115942819D01*
X100258666Y-115942819D02*
X100401523Y-115990438D01*
X100401523Y-115990438D02*
X100449142Y-116038057D01*
X101401523Y-116942819D02*
X100830095Y-116942819D01*
X101115809Y-116942819D02*
X101115809Y-115942819D01*
X101115809Y-115942819D02*
X101020571Y-116085676D01*
X101020571Y-116085676D02*
X100925333Y-116180914D01*
X100925333Y-116180914D02*
X100830095Y-116228533D01*
X101782476Y-116038057D02*
X101830095Y-115990438D01*
X101830095Y-115990438D02*
X101925333Y-115942819D01*
X101925333Y-115942819D02*
X102163428Y-115942819D01*
X102163428Y-115942819D02*
X102258666Y-115990438D01*
X102258666Y-115990438D02*
X102306285Y-116038057D01*
X102306285Y-116038057D02*
X102353904Y-116133295D01*
X102353904Y-116133295D02*
X102353904Y-116228533D01*
X102353904Y-116228533D02*
X102306285Y-116371390D01*
X102306285Y-116371390D02*
X101734857Y-116942819D01*
X101734857Y-116942819D02*
X102353904Y-116942819D01*
X136217819Y-108116666D02*
X135741628Y-108449999D01*
X136217819Y-108688094D02*
X135217819Y-108688094D01*
X135217819Y-108688094D02*
X135217819Y-108307142D01*
X135217819Y-108307142D02*
X135265438Y-108211904D01*
X135265438Y-108211904D02*
X135313057Y-108164285D01*
X135313057Y-108164285D02*
X135408295Y-108116666D01*
X135408295Y-108116666D02*
X135551152Y-108116666D01*
X135551152Y-108116666D02*
X135646390Y-108164285D01*
X135646390Y-108164285D02*
X135694009Y-108211904D01*
X135694009Y-108211904D02*
X135741628Y-108307142D01*
X135741628Y-108307142D02*
X135741628Y-108688094D01*
X135313057Y-107735713D02*
X135265438Y-107688094D01*
X135265438Y-107688094D02*
X135217819Y-107592856D01*
X135217819Y-107592856D02*
X135217819Y-107354761D01*
X135217819Y-107354761D02*
X135265438Y-107259523D01*
X135265438Y-107259523D02*
X135313057Y-107211904D01*
X135313057Y-107211904D02*
X135408295Y-107164285D01*
X135408295Y-107164285D02*
X135503533Y-107164285D01*
X135503533Y-107164285D02*
X135646390Y-107211904D01*
X135646390Y-107211904D02*
X136217819Y-107783332D01*
X136217819Y-107783332D02*
X136217819Y-107164285D01*
D12*
X148146237Y-84220818D02*
X148146237Y-82950818D01*
X149476714Y-84099865D02*
X149416238Y-84160342D01*
X149416238Y-84160342D02*
X149234809Y-84220818D01*
X149234809Y-84220818D02*
X149113857Y-84220818D01*
X149113857Y-84220818D02*
X148932428Y-84160342D01*
X148932428Y-84160342D02*
X148811476Y-84039389D01*
X148811476Y-84039389D02*
X148750999Y-83918437D01*
X148750999Y-83918437D02*
X148690523Y-83676532D01*
X148690523Y-83676532D02*
X148690523Y-83495103D01*
X148690523Y-83495103D02*
X148750999Y-83253199D01*
X148750999Y-83253199D02*
X148811476Y-83132246D01*
X148811476Y-83132246D02*
X148932428Y-83011294D01*
X148932428Y-83011294D02*
X149113857Y-82950818D01*
X149113857Y-82950818D02*
X149234809Y-82950818D01*
X149234809Y-82950818D02*
X149416238Y-83011294D01*
X149416238Y-83011294D02*
X149476714Y-83071770D01*
X150686238Y-84220818D02*
X149960523Y-84220818D01*
X150323380Y-84220818D02*
X150323380Y-82950818D01*
X150323380Y-82950818D02*
X150202428Y-83132246D01*
X150202428Y-83132246D02*
X150081476Y-83253199D01*
X150081476Y-83253199D02*
X149960523Y-83313675D01*
D10*
X119834819Y-95226094D02*
X118834819Y-95226094D01*
X118834819Y-95226094D02*
X118834819Y-94987999D01*
X118834819Y-94987999D02*
X118882438Y-94845142D01*
X118882438Y-94845142D02*
X118977676Y-94749904D01*
X118977676Y-94749904D02*
X119072914Y-94702285D01*
X119072914Y-94702285D02*
X119263390Y-94654666D01*
X119263390Y-94654666D02*
X119406247Y-94654666D01*
X119406247Y-94654666D02*
X119596723Y-94702285D01*
X119596723Y-94702285D02*
X119691961Y-94749904D01*
X119691961Y-94749904D02*
X119787200Y-94845142D01*
X119787200Y-94845142D02*
X119834819Y-94987999D01*
X119834819Y-94987999D02*
X119834819Y-95226094D01*
X119834819Y-94178475D02*
X119834819Y-93987999D01*
X119834819Y-93987999D02*
X119787200Y-93892761D01*
X119787200Y-93892761D02*
X119739580Y-93845142D01*
X119739580Y-93845142D02*
X119596723Y-93749904D01*
X119596723Y-93749904D02*
X119406247Y-93702285D01*
X119406247Y-93702285D02*
X119025295Y-93702285D01*
X119025295Y-93702285D02*
X118930057Y-93749904D01*
X118930057Y-93749904D02*
X118882438Y-93797523D01*
X118882438Y-93797523D02*
X118834819Y-93892761D01*
X118834819Y-93892761D02*
X118834819Y-94083237D01*
X118834819Y-94083237D02*
X118882438Y-94178475D01*
X118882438Y-94178475D02*
X118930057Y-94226094D01*
X118930057Y-94226094D02*
X119025295Y-94273713D01*
X119025295Y-94273713D02*
X119263390Y-94273713D01*
X119263390Y-94273713D02*
X119358628Y-94226094D01*
X119358628Y-94226094D02*
X119406247Y-94178475D01*
X119406247Y-94178475D02*
X119453866Y-94083237D01*
X119453866Y-94083237D02*
X119453866Y-93892761D01*
X119453866Y-93892761D02*
X119406247Y-93797523D01*
X119406247Y-93797523D02*
X119358628Y-93749904D01*
X119358628Y-93749904D02*
X119263390Y-93702285D01*
X117181333Y-100911819D02*
X116848000Y-100435628D01*
X116609905Y-100911819D02*
X116609905Y-99911819D01*
X116609905Y-99911819D02*
X116990857Y-99911819D01*
X116990857Y-99911819D02*
X117086095Y-99959438D01*
X117086095Y-99959438D02*
X117133714Y-100007057D01*
X117133714Y-100007057D02*
X117181333Y-100102295D01*
X117181333Y-100102295D02*
X117181333Y-100245152D01*
X117181333Y-100245152D02*
X117133714Y-100340390D01*
X117133714Y-100340390D02*
X117086095Y-100388009D01*
X117086095Y-100388009D02*
X116990857Y-100435628D01*
X116990857Y-100435628D02*
X116609905Y-100435628D01*
X117752762Y-100340390D02*
X117657524Y-100292771D01*
X117657524Y-100292771D02*
X117609905Y-100245152D01*
X117609905Y-100245152D02*
X117562286Y-100149914D01*
X117562286Y-100149914D02*
X117562286Y-100102295D01*
X117562286Y-100102295D02*
X117609905Y-100007057D01*
X117609905Y-100007057D02*
X117657524Y-99959438D01*
X117657524Y-99959438D02*
X117752762Y-99911819D01*
X117752762Y-99911819D02*
X117943238Y-99911819D01*
X117943238Y-99911819D02*
X118038476Y-99959438D01*
X118038476Y-99959438D02*
X118086095Y-100007057D01*
X118086095Y-100007057D02*
X118133714Y-100102295D01*
X118133714Y-100102295D02*
X118133714Y-100149914D01*
X118133714Y-100149914D02*
X118086095Y-100245152D01*
X118086095Y-100245152D02*
X118038476Y-100292771D01*
X118038476Y-100292771D02*
X117943238Y-100340390D01*
X117943238Y-100340390D02*
X117752762Y-100340390D01*
X117752762Y-100340390D02*
X117657524Y-100388009D01*
X117657524Y-100388009D02*
X117609905Y-100435628D01*
X117609905Y-100435628D02*
X117562286Y-100530866D01*
X117562286Y-100530866D02*
X117562286Y-100721342D01*
X117562286Y-100721342D02*
X117609905Y-100816580D01*
X117609905Y-100816580D02*
X117657524Y-100864200D01*
X117657524Y-100864200D02*
X117752762Y-100911819D01*
X117752762Y-100911819D02*
X117943238Y-100911819D01*
X117943238Y-100911819D02*
X118038476Y-100864200D01*
X118038476Y-100864200D02*
X118086095Y-100816580D01*
X118086095Y-100816580D02*
X118133714Y-100721342D01*
X118133714Y-100721342D02*
X118133714Y-100530866D01*
X118133714Y-100530866D02*
X118086095Y-100435628D01*
X118086095Y-100435628D02*
X118038476Y-100388009D01*
X118038476Y-100388009D02*
X117943238Y-100340390D01*
X139265819Y-108116666D02*
X138789628Y-108449999D01*
X139265819Y-108688094D02*
X138265819Y-108688094D01*
X138265819Y-108688094D02*
X138265819Y-108307142D01*
X138265819Y-108307142D02*
X138313438Y-108211904D01*
X138313438Y-108211904D02*
X138361057Y-108164285D01*
X138361057Y-108164285D02*
X138456295Y-108116666D01*
X138456295Y-108116666D02*
X138599152Y-108116666D01*
X138599152Y-108116666D02*
X138694390Y-108164285D01*
X138694390Y-108164285D02*
X138742009Y-108211904D01*
X138742009Y-108211904D02*
X138789628Y-108307142D01*
X138789628Y-108307142D02*
X138789628Y-108688094D01*
X138599152Y-107259523D02*
X139265819Y-107259523D01*
X138218200Y-107497618D02*
X138932485Y-107735713D01*
X138932485Y-107735713D02*
X138932485Y-107116666D01*
X116840095Y-113246819D02*
X116840095Y-114056342D01*
X116840095Y-114056342D02*
X116887714Y-114151580D01*
X116887714Y-114151580D02*
X116935333Y-114199200D01*
X116935333Y-114199200D02*
X117030571Y-114246819D01*
X117030571Y-114246819D02*
X117221047Y-114246819D01*
X117221047Y-114246819D02*
X117316285Y-114199200D01*
X117316285Y-114199200D02*
X117363904Y-114151580D01*
X117363904Y-114151580D02*
X117411523Y-114056342D01*
X117411523Y-114056342D02*
X117411523Y-113246819D01*
X118316285Y-113246819D02*
X118125809Y-113246819D01*
X118125809Y-113246819D02*
X118030571Y-113294438D01*
X118030571Y-113294438D02*
X117982952Y-113342057D01*
X117982952Y-113342057D02*
X117887714Y-113484914D01*
X117887714Y-113484914D02*
X117840095Y-113675390D01*
X117840095Y-113675390D02*
X117840095Y-114056342D01*
X117840095Y-114056342D02*
X117887714Y-114151580D01*
X117887714Y-114151580D02*
X117935333Y-114199200D01*
X117935333Y-114199200D02*
X118030571Y-114246819D01*
X118030571Y-114246819D02*
X118221047Y-114246819D01*
X118221047Y-114246819D02*
X118316285Y-114199200D01*
X118316285Y-114199200D02*
X118363904Y-114151580D01*
X118363904Y-114151580D02*
X118411523Y-114056342D01*
X118411523Y-114056342D02*
X118411523Y-113818247D01*
X118411523Y-113818247D02*
X118363904Y-113723009D01*
X118363904Y-113723009D02*
X118316285Y-113675390D01*
X118316285Y-113675390D02*
X118221047Y-113627771D01*
X118221047Y-113627771D02*
X118030571Y-113627771D01*
X118030571Y-113627771D02*
X117935333Y-113675390D01*
X117935333Y-113675390D02*
X117887714Y-113723009D01*
X117887714Y-113723009D02*
X117840095Y-113818247D01*
X139454095Y-97625819D02*
X140025523Y-97625819D01*
X139739809Y-98625819D02*
X139739809Y-97625819D01*
X140358857Y-98625819D02*
X140358857Y-97625819D01*
X140358857Y-97625819D02*
X140739809Y-97625819D01*
X140739809Y-97625819D02*
X140835047Y-97673438D01*
X140835047Y-97673438D02*
X140882666Y-97721057D01*
X140882666Y-97721057D02*
X140930285Y-97816295D01*
X140930285Y-97816295D02*
X140930285Y-97959152D01*
X140930285Y-97959152D02*
X140882666Y-98054390D01*
X140882666Y-98054390D02*
X140835047Y-98102009D01*
X140835047Y-98102009D02*
X140739809Y-98149628D01*
X140739809Y-98149628D02*
X140358857Y-98149628D01*
X141311238Y-97721057D02*
X141358857Y-97673438D01*
X141358857Y-97673438D02*
X141454095Y-97625819D01*
X141454095Y-97625819D02*
X141692190Y-97625819D01*
X141692190Y-97625819D02*
X141787428Y-97673438D01*
X141787428Y-97673438D02*
X141835047Y-97721057D01*
X141835047Y-97721057D02*
X141882666Y-97816295D01*
X141882666Y-97816295D02*
X141882666Y-97911533D01*
X141882666Y-97911533D02*
X141835047Y-98054390D01*
X141835047Y-98054390D02*
X141263619Y-98625819D01*
X141263619Y-98625819D02*
X141882666Y-98625819D01*
X136217819Y-110669294D02*
X135217819Y-110669294D01*
X135217819Y-110669294D02*
X135217819Y-110431199D01*
X135217819Y-110431199D02*
X135265438Y-110288342D01*
X135265438Y-110288342D02*
X135360676Y-110193104D01*
X135360676Y-110193104D02*
X135455914Y-110145485D01*
X135455914Y-110145485D02*
X135646390Y-110097866D01*
X135646390Y-110097866D02*
X135789247Y-110097866D01*
X135789247Y-110097866D02*
X135979723Y-110145485D01*
X135979723Y-110145485D02*
X136074961Y-110193104D01*
X136074961Y-110193104D02*
X136170200Y-110288342D01*
X136170200Y-110288342D02*
X136217819Y-110431199D01*
X136217819Y-110431199D02*
X136217819Y-110669294D01*
X136217819Y-109145485D02*
X136217819Y-109716913D01*
X136217819Y-109431199D02*
X135217819Y-109431199D01*
X135217819Y-109431199D02*
X135360676Y-109526437D01*
X135360676Y-109526437D02*
X135455914Y-109621675D01*
X135455914Y-109621675D02*
X135503533Y-109716913D01*
X110069333Y-87830819D02*
X109736000Y-87354628D01*
X109497905Y-87830819D02*
X109497905Y-86830819D01*
X109497905Y-86830819D02*
X109878857Y-86830819D01*
X109878857Y-86830819D02*
X109974095Y-86878438D01*
X109974095Y-86878438D02*
X110021714Y-86926057D01*
X110021714Y-86926057D02*
X110069333Y-87021295D01*
X110069333Y-87021295D02*
X110069333Y-87164152D01*
X110069333Y-87164152D02*
X110021714Y-87259390D01*
X110021714Y-87259390D02*
X109974095Y-87307009D01*
X109974095Y-87307009D02*
X109878857Y-87354628D01*
X109878857Y-87354628D02*
X109497905Y-87354628D01*
X110974095Y-86830819D02*
X110497905Y-86830819D01*
X110497905Y-86830819D02*
X110450286Y-87307009D01*
X110450286Y-87307009D02*
X110497905Y-87259390D01*
X110497905Y-87259390D02*
X110593143Y-87211771D01*
X110593143Y-87211771D02*
X110831238Y-87211771D01*
X110831238Y-87211771D02*
X110926476Y-87259390D01*
X110926476Y-87259390D02*
X110974095Y-87307009D01*
X110974095Y-87307009D02*
X111021714Y-87402247D01*
X111021714Y-87402247D02*
X111021714Y-87640342D01*
X111021714Y-87640342D02*
X110974095Y-87735580D01*
X110974095Y-87735580D02*
X110926476Y-87783200D01*
X110926476Y-87783200D02*
X110831238Y-87830819D01*
X110831238Y-87830819D02*
X110593143Y-87830819D01*
X110593143Y-87830819D02*
X110497905Y-87783200D01*
X110497905Y-87783200D02*
X110450286Y-87735580D01*
X140676333Y-105261580D02*
X140628714Y-105309200D01*
X140628714Y-105309200D02*
X140485857Y-105356819D01*
X140485857Y-105356819D02*
X140390619Y-105356819D01*
X140390619Y-105356819D02*
X140247762Y-105309200D01*
X140247762Y-105309200D02*
X140152524Y-105213961D01*
X140152524Y-105213961D02*
X140104905Y-105118723D01*
X140104905Y-105118723D02*
X140057286Y-104928247D01*
X140057286Y-104928247D02*
X140057286Y-104785390D01*
X140057286Y-104785390D02*
X140104905Y-104594914D01*
X140104905Y-104594914D02*
X140152524Y-104499676D01*
X140152524Y-104499676D02*
X140247762Y-104404438D01*
X140247762Y-104404438D02*
X140390619Y-104356819D01*
X140390619Y-104356819D02*
X140485857Y-104356819D01*
X140485857Y-104356819D02*
X140628714Y-104404438D01*
X140628714Y-104404438D02*
X140676333Y-104452057D01*
X141057286Y-104452057D02*
X141104905Y-104404438D01*
X141104905Y-104404438D02*
X141200143Y-104356819D01*
X141200143Y-104356819D02*
X141438238Y-104356819D01*
X141438238Y-104356819D02*
X141533476Y-104404438D01*
X141533476Y-104404438D02*
X141581095Y-104452057D01*
X141581095Y-104452057D02*
X141628714Y-104547295D01*
X141628714Y-104547295D02*
X141628714Y-104642533D01*
X141628714Y-104642533D02*
X141581095Y-104785390D01*
X141581095Y-104785390D02*
X141009667Y-105356819D01*
X141009667Y-105356819D02*
X141628714Y-105356819D01*
X120596819Y-81097285D02*
X119596819Y-81097285D01*
X119596819Y-81097285D02*
X119596819Y-80859190D01*
X119596819Y-80859190D02*
X119644438Y-80716333D01*
X119644438Y-80716333D02*
X119739676Y-80621095D01*
X119739676Y-80621095D02*
X119834914Y-80573476D01*
X119834914Y-80573476D02*
X120025390Y-80525857D01*
X120025390Y-80525857D02*
X120168247Y-80525857D01*
X120168247Y-80525857D02*
X120358723Y-80573476D01*
X120358723Y-80573476D02*
X120453961Y-80621095D01*
X120453961Y-80621095D02*
X120549200Y-80716333D01*
X120549200Y-80716333D02*
X120596819Y-80859190D01*
X120596819Y-80859190D02*
X120596819Y-81097285D01*
X120596819Y-79573476D02*
X120596819Y-80144904D01*
X120596819Y-79859190D02*
X119596819Y-79859190D01*
X119596819Y-79859190D02*
X119739676Y-79954428D01*
X119739676Y-79954428D02*
X119834914Y-80049666D01*
X119834914Y-80049666D02*
X119882533Y-80144904D01*
X119596819Y-78954428D02*
X119596819Y-78859190D01*
X119596819Y-78859190D02*
X119644438Y-78763952D01*
X119644438Y-78763952D02*
X119692057Y-78716333D01*
X119692057Y-78716333D02*
X119787295Y-78668714D01*
X119787295Y-78668714D02*
X119977771Y-78621095D01*
X119977771Y-78621095D02*
X120215866Y-78621095D01*
X120215866Y-78621095D02*
X120406342Y-78668714D01*
X120406342Y-78668714D02*
X120501580Y-78716333D01*
X120501580Y-78716333D02*
X120549200Y-78763952D01*
X120549200Y-78763952D02*
X120596819Y-78859190D01*
X120596819Y-78859190D02*
X120596819Y-78954428D01*
X120596819Y-78954428D02*
X120549200Y-79049666D01*
X120549200Y-79049666D02*
X120501580Y-79097285D01*
X120501580Y-79097285D02*
X120406342Y-79144904D01*
X120406342Y-79144904D02*
X120215866Y-79192523D01*
X120215866Y-79192523D02*
X119977771Y-79192523D01*
X119977771Y-79192523D02*
X119787295Y-79144904D01*
X119787295Y-79144904D02*
X119692057Y-79097285D01*
X119692057Y-79097285D02*
X119644438Y-79049666D01*
X119644438Y-79049666D02*
X119596819Y-78954428D01*
X137741819Y-108116666D02*
X137265628Y-108449999D01*
X137741819Y-108688094D02*
X136741819Y-108688094D01*
X136741819Y-108688094D02*
X136741819Y-108307142D01*
X136741819Y-108307142D02*
X136789438Y-108211904D01*
X136789438Y-108211904D02*
X136837057Y-108164285D01*
X136837057Y-108164285D02*
X136932295Y-108116666D01*
X136932295Y-108116666D02*
X137075152Y-108116666D01*
X137075152Y-108116666D02*
X137170390Y-108164285D01*
X137170390Y-108164285D02*
X137218009Y-108211904D01*
X137218009Y-108211904D02*
X137265628Y-108307142D01*
X137265628Y-108307142D02*
X137265628Y-108688094D01*
X136741819Y-107783332D02*
X136741819Y-107164285D01*
X136741819Y-107164285D02*
X137122771Y-107497618D01*
X137122771Y-107497618D02*
X137122771Y-107354761D01*
X137122771Y-107354761D02*
X137170390Y-107259523D01*
X137170390Y-107259523D02*
X137218009Y-107211904D01*
X137218009Y-107211904D02*
X137313247Y-107164285D01*
X137313247Y-107164285D02*
X137551342Y-107164285D01*
X137551342Y-107164285D02*
X137646580Y-107211904D01*
X137646580Y-107211904D02*
X137694200Y-107259523D01*
X137694200Y-107259523D02*
X137741819Y-107354761D01*
X137741819Y-107354761D02*
X137741819Y-107640475D01*
X137741819Y-107640475D02*
X137694200Y-107735713D01*
X137694200Y-107735713D02*
X137646580Y-107783332D01*
X129296080Y-96912666D02*
X129343700Y-96960285D01*
X129343700Y-96960285D02*
X129391319Y-97103142D01*
X129391319Y-97103142D02*
X129391319Y-97198380D01*
X129391319Y-97198380D02*
X129343700Y-97341237D01*
X129343700Y-97341237D02*
X129248461Y-97436475D01*
X129248461Y-97436475D02*
X129153223Y-97484094D01*
X129153223Y-97484094D02*
X128962747Y-97531713D01*
X128962747Y-97531713D02*
X128819890Y-97531713D01*
X128819890Y-97531713D02*
X128629414Y-97484094D01*
X128629414Y-97484094D02*
X128534176Y-97436475D01*
X128534176Y-97436475D02*
X128438938Y-97341237D01*
X128438938Y-97341237D02*
X128391319Y-97198380D01*
X128391319Y-97198380D02*
X128391319Y-97103142D01*
X128391319Y-97103142D02*
X128438938Y-96960285D01*
X128438938Y-96960285D02*
X128486557Y-96912666D01*
X128391319Y-96579332D02*
X128391319Y-95960285D01*
X128391319Y-95960285D02*
X128772271Y-96293618D01*
X128772271Y-96293618D02*
X128772271Y-96150761D01*
X128772271Y-96150761D02*
X128819890Y-96055523D01*
X128819890Y-96055523D02*
X128867509Y-96007904D01*
X128867509Y-96007904D02*
X128962747Y-95960285D01*
X128962747Y-95960285D02*
X129200842Y-95960285D01*
X129200842Y-95960285D02*
X129296080Y-96007904D01*
X129296080Y-96007904D02*
X129343700Y-96055523D01*
X129343700Y-96055523D02*
X129391319Y-96150761D01*
X129391319Y-96150761D02*
X129391319Y-96436475D01*
X129391319Y-96436475D02*
X129343700Y-96531713D01*
X129343700Y-96531713D02*
X129296080Y-96579332D01*
X114165142Y-91037580D02*
X114117523Y-91085200D01*
X114117523Y-91085200D02*
X113974666Y-91132819D01*
X113974666Y-91132819D02*
X113879428Y-91132819D01*
X113879428Y-91132819D02*
X113736571Y-91085200D01*
X113736571Y-91085200D02*
X113641333Y-90989961D01*
X113641333Y-90989961D02*
X113593714Y-90894723D01*
X113593714Y-90894723D02*
X113546095Y-90704247D01*
X113546095Y-90704247D02*
X113546095Y-90561390D01*
X113546095Y-90561390D02*
X113593714Y-90370914D01*
X113593714Y-90370914D02*
X113641333Y-90275676D01*
X113641333Y-90275676D02*
X113736571Y-90180438D01*
X113736571Y-90180438D02*
X113879428Y-90132819D01*
X113879428Y-90132819D02*
X113974666Y-90132819D01*
X113974666Y-90132819D02*
X114117523Y-90180438D01*
X114117523Y-90180438D02*
X114165142Y-90228057D01*
X114546095Y-90228057D02*
X114593714Y-90180438D01*
X114593714Y-90180438D02*
X114688952Y-90132819D01*
X114688952Y-90132819D02*
X114927047Y-90132819D01*
X114927047Y-90132819D02*
X115022285Y-90180438D01*
X115022285Y-90180438D02*
X115069904Y-90228057D01*
X115069904Y-90228057D02*
X115117523Y-90323295D01*
X115117523Y-90323295D02*
X115117523Y-90418533D01*
X115117523Y-90418533D02*
X115069904Y-90561390D01*
X115069904Y-90561390D02*
X114498476Y-91132819D01*
X114498476Y-91132819D02*
X115117523Y-91132819D01*
X116069904Y-91132819D02*
X115498476Y-91132819D01*
X115784190Y-91132819D02*
X115784190Y-90132819D01*
X115784190Y-90132819D02*
X115688952Y-90275676D01*
X115688952Y-90275676D02*
X115593714Y-90370914D01*
X115593714Y-90370914D02*
X115498476Y-90418533D01*
X125835580Y-107862666D02*
X125883200Y-107910285D01*
X125883200Y-107910285D02*
X125930819Y-108053142D01*
X125930819Y-108053142D02*
X125930819Y-108148380D01*
X125930819Y-108148380D02*
X125883200Y-108291237D01*
X125883200Y-108291237D02*
X125787961Y-108386475D01*
X125787961Y-108386475D02*
X125692723Y-108434094D01*
X125692723Y-108434094D02*
X125502247Y-108481713D01*
X125502247Y-108481713D02*
X125359390Y-108481713D01*
X125359390Y-108481713D02*
X125168914Y-108434094D01*
X125168914Y-108434094D02*
X125073676Y-108386475D01*
X125073676Y-108386475D02*
X124978438Y-108291237D01*
X124978438Y-108291237D02*
X124930819Y-108148380D01*
X124930819Y-108148380D02*
X124930819Y-108053142D01*
X124930819Y-108053142D02*
X124978438Y-107910285D01*
X124978438Y-107910285D02*
X125026057Y-107862666D01*
X125359390Y-107291237D02*
X125311771Y-107386475D01*
X125311771Y-107386475D02*
X125264152Y-107434094D01*
X125264152Y-107434094D02*
X125168914Y-107481713D01*
X125168914Y-107481713D02*
X125121295Y-107481713D01*
X125121295Y-107481713D02*
X125026057Y-107434094D01*
X125026057Y-107434094D02*
X124978438Y-107386475D01*
X124978438Y-107386475D02*
X124930819Y-107291237D01*
X124930819Y-107291237D02*
X124930819Y-107100761D01*
X124930819Y-107100761D02*
X124978438Y-107005523D01*
X124978438Y-107005523D02*
X125026057Y-106957904D01*
X125026057Y-106957904D02*
X125121295Y-106910285D01*
X125121295Y-106910285D02*
X125168914Y-106910285D01*
X125168914Y-106910285D02*
X125264152Y-106957904D01*
X125264152Y-106957904D02*
X125311771Y-107005523D01*
X125311771Y-107005523D02*
X125359390Y-107100761D01*
X125359390Y-107100761D02*
X125359390Y-107291237D01*
X125359390Y-107291237D02*
X125407009Y-107386475D01*
X125407009Y-107386475D02*
X125454628Y-107434094D01*
X125454628Y-107434094D02*
X125549866Y-107481713D01*
X125549866Y-107481713D02*
X125740342Y-107481713D01*
X125740342Y-107481713D02*
X125835580Y-107434094D01*
X125835580Y-107434094D02*
X125883200Y-107386475D01*
X125883200Y-107386475D02*
X125930819Y-107291237D01*
X125930819Y-107291237D02*
X125930819Y-107100761D01*
X125930819Y-107100761D02*
X125883200Y-107005523D01*
X125883200Y-107005523D02*
X125835580Y-106957904D01*
X125835580Y-106957904D02*
X125740342Y-106910285D01*
X125740342Y-106910285D02*
X125549866Y-106910285D01*
X125549866Y-106910285D02*
X125454628Y-106957904D01*
X125454628Y-106957904D02*
X125407009Y-107005523D01*
X125407009Y-107005523D02*
X125359390Y-107100761D01*
X116323819Y-85669333D02*
X117038104Y-85669333D01*
X117038104Y-85669333D02*
X117180961Y-85716952D01*
X117180961Y-85716952D02*
X117276200Y-85812190D01*
X117276200Y-85812190D02*
X117323819Y-85955047D01*
X117323819Y-85955047D02*
X117323819Y-86050285D01*
X117323819Y-85193142D02*
X116323819Y-85193142D01*
X116323819Y-85193142D02*
X116323819Y-84812190D01*
X116323819Y-84812190D02*
X116371438Y-84716952D01*
X116371438Y-84716952D02*
X116419057Y-84669333D01*
X116419057Y-84669333D02*
X116514295Y-84621714D01*
X116514295Y-84621714D02*
X116657152Y-84621714D01*
X116657152Y-84621714D02*
X116752390Y-84669333D01*
X116752390Y-84669333D02*
X116800009Y-84716952D01*
X116800009Y-84716952D02*
X116847628Y-84812190D01*
X116847628Y-84812190D02*
X116847628Y-85193142D01*
X117323819Y-83669333D02*
X117323819Y-84240761D01*
X117323819Y-83955047D02*
X116323819Y-83955047D01*
X116323819Y-83955047D02*
X116466676Y-84050285D01*
X116466676Y-84050285D02*
X116561914Y-84145523D01*
X116561914Y-84145523D02*
X116609533Y-84240761D01*
X166189819Y-108386332D02*
X165189819Y-108386332D01*
X165189819Y-108386332D02*
X165904104Y-108052999D01*
X165904104Y-108052999D02*
X165189819Y-107719666D01*
X165189819Y-107719666D02*
X166189819Y-107719666D01*
X165189819Y-107052999D02*
X165189819Y-106862523D01*
X165189819Y-106862523D02*
X165237438Y-106767285D01*
X165237438Y-106767285D02*
X165332676Y-106672047D01*
X165332676Y-106672047D02*
X165523152Y-106624428D01*
X165523152Y-106624428D02*
X165856485Y-106624428D01*
X165856485Y-106624428D02*
X166046961Y-106672047D01*
X166046961Y-106672047D02*
X166142200Y-106767285D01*
X166142200Y-106767285D02*
X166189819Y-106862523D01*
X166189819Y-106862523D02*
X166189819Y-107052999D01*
X166189819Y-107052999D02*
X166142200Y-107148237D01*
X166142200Y-107148237D02*
X166046961Y-107243475D01*
X166046961Y-107243475D02*
X165856485Y-107291094D01*
X165856485Y-107291094D02*
X165523152Y-107291094D01*
X165523152Y-107291094D02*
X165332676Y-107243475D01*
X165332676Y-107243475D02*
X165237438Y-107148237D01*
X165237438Y-107148237D02*
X165189819Y-107052999D01*
X166189819Y-106195856D02*
X165189819Y-106195856D01*
X165189819Y-106195856D02*
X165189819Y-105957761D01*
X165189819Y-105957761D02*
X165237438Y-105814904D01*
X165237438Y-105814904D02*
X165332676Y-105719666D01*
X165332676Y-105719666D02*
X165427914Y-105672047D01*
X165427914Y-105672047D02*
X165618390Y-105624428D01*
X165618390Y-105624428D02*
X165761247Y-105624428D01*
X165761247Y-105624428D02*
X165951723Y-105672047D01*
X165951723Y-105672047D02*
X166046961Y-105719666D01*
X166046961Y-105719666D02*
X166142200Y-105814904D01*
X166142200Y-105814904D02*
X166189819Y-105957761D01*
X166189819Y-105957761D02*
X166189819Y-106195856D01*
X166189819Y-104672047D02*
X166189819Y-105243475D01*
X166189819Y-104957761D02*
X165189819Y-104957761D01*
X165189819Y-104957761D02*
X165332676Y-105052999D01*
X165332676Y-105052999D02*
X165427914Y-105148237D01*
X165427914Y-105148237D02*
X165475533Y-105243475D01*
X134794819Y-89096094D02*
X135604342Y-89096094D01*
X135604342Y-89096094D02*
X135699580Y-89048475D01*
X135699580Y-89048475D02*
X135747200Y-89000856D01*
X135747200Y-89000856D02*
X135794819Y-88905618D01*
X135794819Y-88905618D02*
X135794819Y-88715142D01*
X135794819Y-88715142D02*
X135747200Y-88619904D01*
X135747200Y-88619904D02*
X135699580Y-88572285D01*
X135699580Y-88572285D02*
X135604342Y-88524666D01*
X135604342Y-88524666D02*
X134794819Y-88524666D01*
X135794819Y-87524666D02*
X135794819Y-88096094D01*
X135794819Y-87810380D02*
X134794819Y-87810380D01*
X134794819Y-87810380D02*
X134937676Y-87905618D01*
X134937676Y-87905618D02*
X135032914Y-88000856D01*
X135032914Y-88000856D02*
X135080533Y-88096094D01*
X134794819Y-86905618D02*
X134794819Y-86810380D01*
X134794819Y-86810380D02*
X134842438Y-86715142D01*
X134842438Y-86715142D02*
X134890057Y-86667523D01*
X134890057Y-86667523D02*
X134985295Y-86619904D01*
X134985295Y-86619904D02*
X135175771Y-86572285D01*
X135175771Y-86572285D02*
X135413866Y-86572285D01*
X135413866Y-86572285D02*
X135604342Y-86619904D01*
X135604342Y-86619904D02*
X135699580Y-86667523D01*
X135699580Y-86667523D02*
X135747200Y-86715142D01*
X135747200Y-86715142D02*
X135794819Y-86810380D01*
X135794819Y-86810380D02*
X135794819Y-86905618D01*
X135794819Y-86905618D02*
X135747200Y-87000856D01*
X135747200Y-87000856D02*
X135699580Y-87048475D01*
X135699580Y-87048475D02*
X135604342Y-87096094D01*
X135604342Y-87096094D02*
X135413866Y-87143713D01*
X135413866Y-87143713D02*
X135175771Y-87143713D01*
X135175771Y-87143713D02*
X134985295Y-87096094D01*
X134985295Y-87096094D02*
X134890057Y-87048475D01*
X134890057Y-87048475D02*
X134842438Y-87000856D01*
X134842438Y-87000856D02*
X134794819Y-86905618D01*
X126611142Y-77448580D02*
X126563523Y-77496200D01*
X126563523Y-77496200D02*
X126420666Y-77543819D01*
X126420666Y-77543819D02*
X126325428Y-77543819D01*
X126325428Y-77543819D02*
X126182571Y-77496200D01*
X126182571Y-77496200D02*
X126087333Y-77400961D01*
X126087333Y-77400961D02*
X126039714Y-77305723D01*
X126039714Y-77305723D02*
X125992095Y-77115247D01*
X125992095Y-77115247D02*
X125992095Y-76972390D01*
X125992095Y-76972390D02*
X126039714Y-76781914D01*
X126039714Y-76781914D02*
X126087333Y-76686676D01*
X126087333Y-76686676D02*
X126182571Y-76591438D01*
X126182571Y-76591438D02*
X126325428Y-76543819D01*
X126325428Y-76543819D02*
X126420666Y-76543819D01*
X126420666Y-76543819D02*
X126563523Y-76591438D01*
X126563523Y-76591438D02*
X126611142Y-76639057D01*
X126992095Y-76639057D02*
X127039714Y-76591438D01*
X127039714Y-76591438D02*
X127134952Y-76543819D01*
X127134952Y-76543819D02*
X127373047Y-76543819D01*
X127373047Y-76543819D02*
X127468285Y-76591438D01*
X127468285Y-76591438D02*
X127515904Y-76639057D01*
X127515904Y-76639057D02*
X127563523Y-76734295D01*
X127563523Y-76734295D02*
X127563523Y-76829533D01*
X127563523Y-76829533D02*
X127515904Y-76972390D01*
X127515904Y-76972390D02*
X126944476Y-77543819D01*
X126944476Y-77543819D02*
X127563523Y-77543819D01*
X128182571Y-76543819D02*
X128277809Y-76543819D01*
X128277809Y-76543819D02*
X128373047Y-76591438D01*
X128373047Y-76591438D02*
X128420666Y-76639057D01*
X128420666Y-76639057D02*
X128468285Y-76734295D01*
X128468285Y-76734295D02*
X128515904Y-76924771D01*
X128515904Y-76924771D02*
X128515904Y-77162866D01*
X128515904Y-77162866D02*
X128468285Y-77353342D01*
X128468285Y-77353342D02*
X128420666Y-77448580D01*
X128420666Y-77448580D02*
X128373047Y-77496200D01*
X128373047Y-77496200D02*
X128277809Y-77543819D01*
X128277809Y-77543819D02*
X128182571Y-77543819D01*
X128182571Y-77543819D02*
X128087333Y-77496200D01*
X128087333Y-77496200D02*
X128039714Y-77448580D01*
X128039714Y-77448580D02*
X127992095Y-77353342D01*
X127992095Y-77353342D02*
X127944476Y-77162866D01*
X127944476Y-77162866D02*
X127944476Y-76924771D01*
X127944476Y-76924771D02*
X127992095Y-76734295D01*
X127992095Y-76734295D02*
X128039714Y-76639057D01*
X128039714Y-76639057D02*
X128087333Y-76591438D01*
X128087333Y-76591438D02*
X128182571Y-76543819D01*
X101037580Y-112148857D02*
X101085200Y-112196476D01*
X101085200Y-112196476D02*
X101132819Y-112339333D01*
X101132819Y-112339333D02*
X101132819Y-112434571D01*
X101132819Y-112434571D02*
X101085200Y-112577428D01*
X101085200Y-112577428D02*
X100989961Y-112672666D01*
X100989961Y-112672666D02*
X100894723Y-112720285D01*
X100894723Y-112720285D02*
X100704247Y-112767904D01*
X100704247Y-112767904D02*
X100561390Y-112767904D01*
X100561390Y-112767904D02*
X100370914Y-112720285D01*
X100370914Y-112720285D02*
X100275676Y-112672666D01*
X100275676Y-112672666D02*
X100180438Y-112577428D01*
X100180438Y-112577428D02*
X100132819Y-112434571D01*
X100132819Y-112434571D02*
X100132819Y-112339333D01*
X100132819Y-112339333D02*
X100180438Y-112196476D01*
X100180438Y-112196476D02*
X100228057Y-112148857D01*
X101132819Y-111196476D02*
X101132819Y-111767904D01*
X101132819Y-111482190D02*
X100132819Y-111482190D01*
X100132819Y-111482190D02*
X100275676Y-111577428D01*
X100275676Y-111577428D02*
X100370914Y-111672666D01*
X100370914Y-111672666D02*
X100418533Y-111767904D01*
X101132819Y-110244095D02*
X101132819Y-110815523D01*
X101132819Y-110529809D02*
X100132819Y-110529809D01*
X100132819Y-110529809D02*
X100275676Y-110625047D01*
X100275676Y-110625047D02*
X100370914Y-110720285D01*
X100370914Y-110720285D02*
X100418533Y-110815523D01*
X125031667Y-113437200D02*
X125174524Y-113484819D01*
X125174524Y-113484819D02*
X125412619Y-113484819D01*
X125412619Y-113484819D02*
X125507857Y-113437200D01*
X125507857Y-113437200D02*
X125555476Y-113389580D01*
X125555476Y-113389580D02*
X125603095Y-113294342D01*
X125603095Y-113294342D02*
X125603095Y-113199104D01*
X125603095Y-113199104D02*
X125555476Y-113103866D01*
X125555476Y-113103866D02*
X125507857Y-113056247D01*
X125507857Y-113056247D02*
X125412619Y-113008628D01*
X125412619Y-113008628D02*
X125222143Y-112961009D01*
X125222143Y-112961009D02*
X125126905Y-112913390D01*
X125126905Y-112913390D02*
X125079286Y-112865771D01*
X125079286Y-112865771D02*
X125031667Y-112770533D01*
X125031667Y-112770533D02*
X125031667Y-112675295D01*
X125031667Y-112675295D02*
X125079286Y-112580057D01*
X125079286Y-112580057D02*
X125126905Y-112532438D01*
X125126905Y-112532438D02*
X125222143Y-112484819D01*
X125222143Y-112484819D02*
X125460238Y-112484819D01*
X125460238Y-112484819D02*
X125603095Y-112532438D01*
X125936429Y-112484819D02*
X126174524Y-113484819D01*
X126174524Y-113484819D02*
X126365000Y-112770533D01*
X126365000Y-112770533D02*
X126555476Y-113484819D01*
X126555476Y-113484819D02*
X126793572Y-112484819D01*
X127698333Y-113484819D02*
X127126905Y-113484819D01*
X127412619Y-113484819D02*
X127412619Y-112484819D01*
X127412619Y-112484819D02*
X127317381Y-112627676D01*
X127317381Y-112627676D02*
X127222143Y-112722914D01*
X127222143Y-112722914D02*
X127126905Y-112770533D01*
X127359580Y-109259666D02*
X127407200Y-109307285D01*
X127407200Y-109307285D02*
X127454819Y-109450142D01*
X127454819Y-109450142D02*
X127454819Y-109545380D01*
X127454819Y-109545380D02*
X127407200Y-109688237D01*
X127407200Y-109688237D02*
X127311961Y-109783475D01*
X127311961Y-109783475D02*
X127216723Y-109831094D01*
X127216723Y-109831094D02*
X127026247Y-109878713D01*
X127026247Y-109878713D02*
X126883390Y-109878713D01*
X126883390Y-109878713D02*
X126692914Y-109831094D01*
X126692914Y-109831094D02*
X126597676Y-109783475D01*
X126597676Y-109783475D02*
X126502438Y-109688237D01*
X126502438Y-109688237D02*
X126454819Y-109545380D01*
X126454819Y-109545380D02*
X126454819Y-109450142D01*
X126454819Y-109450142D02*
X126502438Y-109307285D01*
X126502438Y-109307285D02*
X126550057Y-109259666D01*
X126454819Y-108926332D02*
X126454819Y-108259666D01*
X126454819Y-108259666D02*
X127454819Y-108688237D01*
X154805142Y-95482580D02*
X154757523Y-95530200D01*
X154757523Y-95530200D02*
X154614666Y-95577819D01*
X154614666Y-95577819D02*
X154519428Y-95577819D01*
X154519428Y-95577819D02*
X154376571Y-95530200D01*
X154376571Y-95530200D02*
X154281333Y-95434961D01*
X154281333Y-95434961D02*
X154233714Y-95339723D01*
X154233714Y-95339723D02*
X154186095Y-95149247D01*
X154186095Y-95149247D02*
X154186095Y-95006390D01*
X154186095Y-95006390D02*
X154233714Y-94815914D01*
X154233714Y-94815914D02*
X154281333Y-94720676D01*
X154281333Y-94720676D02*
X154376571Y-94625438D01*
X154376571Y-94625438D02*
X154519428Y-94577819D01*
X154519428Y-94577819D02*
X154614666Y-94577819D01*
X154614666Y-94577819D02*
X154757523Y-94625438D01*
X154757523Y-94625438D02*
X154805142Y-94673057D01*
X155186095Y-94673057D02*
X155233714Y-94625438D01*
X155233714Y-94625438D02*
X155328952Y-94577819D01*
X155328952Y-94577819D02*
X155567047Y-94577819D01*
X155567047Y-94577819D02*
X155662285Y-94625438D01*
X155662285Y-94625438D02*
X155709904Y-94673057D01*
X155709904Y-94673057D02*
X155757523Y-94768295D01*
X155757523Y-94768295D02*
X155757523Y-94863533D01*
X155757523Y-94863533D02*
X155709904Y-95006390D01*
X155709904Y-95006390D02*
X155138476Y-95577819D01*
X155138476Y-95577819D02*
X155757523Y-95577819D01*
X156138476Y-94673057D02*
X156186095Y-94625438D01*
X156186095Y-94625438D02*
X156281333Y-94577819D01*
X156281333Y-94577819D02*
X156519428Y-94577819D01*
X156519428Y-94577819D02*
X156614666Y-94625438D01*
X156614666Y-94625438D02*
X156662285Y-94673057D01*
X156662285Y-94673057D02*
X156709904Y-94768295D01*
X156709904Y-94768295D02*
X156709904Y-94863533D01*
X156709904Y-94863533D02*
X156662285Y-95006390D01*
X156662285Y-95006390D02*
X156090857Y-95577819D01*
X156090857Y-95577819D02*
X156709904Y-95577819D01*
X116040819Y-97281904D02*
X116850342Y-97281904D01*
X116850342Y-97281904D02*
X116945580Y-97234285D01*
X116945580Y-97234285D02*
X116993200Y-97186666D01*
X116993200Y-97186666D02*
X117040819Y-97091428D01*
X117040819Y-97091428D02*
X117040819Y-96900952D01*
X117040819Y-96900952D02*
X116993200Y-96805714D01*
X116993200Y-96805714D02*
X116945580Y-96758095D01*
X116945580Y-96758095D02*
X116850342Y-96710476D01*
X116850342Y-96710476D02*
X116040819Y-96710476D01*
X116040819Y-96329523D02*
X116040819Y-95710476D01*
X116040819Y-95710476D02*
X116421771Y-96043809D01*
X116421771Y-96043809D02*
X116421771Y-95900952D01*
X116421771Y-95900952D02*
X116469390Y-95805714D01*
X116469390Y-95805714D02*
X116517009Y-95758095D01*
X116517009Y-95758095D02*
X116612247Y-95710476D01*
X116612247Y-95710476D02*
X116850342Y-95710476D01*
X116850342Y-95710476D02*
X116945580Y-95758095D01*
X116945580Y-95758095D02*
X116993200Y-95805714D01*
X116993200Y-95805714D02*
X117040819Y-95900952D01*
X117040819Y-95900952D02*
X117040819Y-96186666D01*
X117040819Y-96186666D02*
X116993200Y-96281904D01*
X116993200Y-96281904D02*
X116945580Y-96329523D01*
X118313819Y-80263904D02*
X119123342Y-80263904D01*
X119123342Y-80263904D02*
X119218580Y-80216285D01*
X119218580Y-80216285D02*
X119266200Y-80168666D01*
X119266200Y-80168666D02*
X119313819Y-80073428D01*
X119313819Y-80073428D02*
X119313819Y-79882952D01*
X119313819Y-79882952D02*
X119266200Y-79787714D01*
X119266200Y-79787714D02*
X119218580Y-79740095D01*
X119218580Y-79740095D02*
X119123342Y-79692476D01*
X119123342Y-79692476D02*
X118313819Y-79692476D01*
X118647152Y-78787714D02*
X119313819Y-78787714D01*
X118266200Y-79025809D02*
X118980485Y-79263904D01*
X118980485Y-79263904D02*
X118980485Y-78644857D01*
X128230333Y-102340580D02*
X128182714Y-102388200D01*
X128182714Y-102388200D02*
X128039857Y-102435819D01*
X128039857Y-102435819D02*
X127944619Y-102435819D01*
X127944619Y-102435819D02*
X127801762Y-102388200D01*
X127801762Y-102388200D02*
X127706524Y-102292961D01*
X127706524Y-102292961D02*
X127658905Y-102197723D01*
X127658905Y-102197723D02*
X127611286Y-102007247D01*
X127611286Y-102007247D02*
X127611286Y-101864390D01*
X127611286Y-101864390D02*
X127658905Y-101673914D01*
X127658905Y-101673914D02*
X127706524Y-101578676D01*
X127706524Y-101578676D02*
X127801762Y-101483438D01*
X127801762Y-101483438D02*
X127944619Y-101435819D01*
X127944619Y-101435819D02*
X128039857Y-101435819D01*
X128039857Y-101435819D02*
X128182714Y-101483438D01*
X128182714Y-101483438D02*
X128230333Y-101531057D01*
X129087476Y-101435819D02*
X128897000Y-101435819D01*
X128897000Y-101435819D02*
X128801762Y-101483438D01*
X128801762Y-101483438D02*
X128754143Y-101531057D01*
X128754143Y-101531057D02*
X128658905Y-101673914D01*
X128658905Y-101673914D02*
X128611286Y-101864390D01*
X128611286Y-101864390D02*
X128611286Y-102245342D01*
X128611286Y-102245342D02*
X128658905Y-102340580D01*
X128658905Y-102340580D02*
X128706524Y-102388200D01*
X128706524Y-102388200D02*
X128801762Y-102435819D01*
X128801762Y-102435819D02*
X128992238Y-102435819D01*
X128992238Y-102435819D02*
X129087476Y-102388200D01*
X129087476Y-102388200D02*
X129135095Y-102340580D01*
X129135095Y-102340580D02*
X129182714Y-102245342D01*
X129182714Y-102245342D02*
X129182714Y-102007247D01*
X129182714Y-102007247D02*
X129135095Y-101912009D01*
X129135095Y-101912009D02*
X129087476Y-101864390D01*
X129087476Y-101864390D02*
X128992238Y-101816771D01*
X128992238Y-101816771D02*
X128801762Y-101816771D01*
X128801762Y-101816771D02*
X128706524Y-101864390D01*
X128706524Y-101864390D02*
X128658905Y-101912009D01*
X128658905Y-101912009D02*
X128611286Y-102007247D01*
X109307333Y-93831580D02*
X109259714Y-93879200D01*
X109259714Y-93879200D02*
X109116857Y-93926819D01*
X109116857Y-93926819D02*
X109021619Y-93926819D01*
X109021619Y-93926819D02*
X108878762Y-93879200D01*
X108878762Y-93879200D02*
X108783524Y-93783961D01*
X108783524Y-93783961D02*
X108735905Y-93688723D01*
X108735905Y-93688723D02*
X108688286Y-93498247D01*
X108688286Y-93498247D02*
X108688286Y-93355390D01*
X108688286Y-93355390D02*
X108735905Y-93164914D01*
X108735905Y-93164914D02*
X108783524Y-93069676D01*
X108783524Y-93069676D02*
X108878762Y-92974438D01*
X108878762Y-92974438D02*
X109021619Y-92926819D01*
X109021619Y-92926819D02*
X109116857Y-92926819D01*
X109116857Y-92926819D02*
X109259714Y-92974438D01*
X109259714Y-92974438D02*
X109307333Y-93022057D01*
X109783524Y-93926819D02*
X109974000Y-93926819D01*
X109974000Y-93926819D02*
X110069238Y-93879200D01*
X110069238Y-93879200D02*
X110116857Y-93831580D01*
X110116857Y-93831580D02*
X110212095Y-93688723D01*
X110212095Y-93688723D02*
X110259714Y-93498247D01*
X110259714Y-93498247D02*
X110259714Y-93117295D01*
X110259714Y-93117295D02*
X110212095Y-93022057D01*
X110212095Y-93022057D02*
X110164476Y-92974438D01*
X110164476Y-92974438D02*
X110069238Y-92926819D01*
X110069238Y-92926819D02*
X109878762Y-92926819D01*
X109878762Y-92926819D02*
X109783524Y-92974438D01*
X109783524Y-92974438D02*
X109735905Y-93022057D01*
X109735905Y-93022057D02*
X109688286Y-93117295D01*
X109688286Y-93117295D02*
X109688286Y-93355390D01*
X109688286Y-93355390D02*
X109735905Y-93450628D01*
X109735905Y-93450628D02*
X109783524Y-93498247D01*
X109783524Y-93498247D02*
X109878762Y-93545866D01*
X109878762Y-93545866D02*
X110069238Y-93545866D01*
X110069238Y-93545866D02*
X110164476Y-93498247D01*
X110164476Y-93498247D02*
X110212095Y-93450628D01*
X110212095Y-93450628D02*
X110259714Y-93355390D01*
X126230142Y-82909580D02*
X126182523Y-82957200D01*
X126182523Y-82957200D02*
X126039666Y-83004819D01*
X126039666Y-83004819D02*
X125944428Y-83004819D01*
X125944428Y-83004819D02*
X125801571Y-82957200D01*
X125801571Y-82957200D02*
X125706333Y-82861961D01*
X125706333Y-82861961D02*
X125658714Y-82766723D01*
X125658714Y-82766723D02*
X125611095Y-82576247D01*
X125611095Y-82576247D02*
X125611095Y-82433390D01*
X125611095Y-82433390D02*
X125658714Y-82242914D01*
X125658714Y-82242914D02*
X125706333Y-82147676D01*
X125706333Y-82147676D02*
X125801571Y-82052438D01*
X125801571Y-82052438D02*
X125944428Y-82004819D01*
X125944428Y-82004819D02*
X126039666Y-82004819D01*
X126039666Y-82004819D02*
X126182523Y-82052438D01*
X126182523Y-82052438D02*
X126230142Y-82100057D01*
X127182523Y-83004819D02*
X126611095Y-83004819D01*
X126896809Y-83004819D02*
X126896809Y-82004819D01*
X126896809Y-82004819D02*
X126801571Y-82147676D01*
X126801571Y-82147676D02*
X126706333Y-82242914D01*
X126706333Y-82242914D02*
X126611095Y-82290533D01*
X127753952Y-82433390D02*
X127658714Y-82385771D01*
X127658714Y-82385771D02*
X127611095Y-82338152D01*
X127611095Y-82338152D02*
X127563476Y-82242914D01*
X127563476Y-82242914D02*
X127563476Y-82195295D01*
X127563476Y-82195295D02*
X127611095Y-82100057D01*
X127611095Y-82100057D02*
X127658714Y-82052438D01*
X127658714Y-82052438D02*
X127753952Y-82004819D01*
X127753952Y-82004819D02*
X127944428Y-82004819D01*
X127944428Y-82004819D02*
X128039666Y-82052438D01*
X128039666Y-82052438D02*
X128087285Y-82100057D01*
X128087285Y-82100057D02*
X128134904Y-82195295D01*
X128134904Y-82195295D02*
X128134904Y-82242914D01*
X128134904Y-82242914D02*
X128087285Y-82338152D01*
X128087285Y-82338152D02*
X128039666Y-82385771D01*
X128039666Y-82385771D02*
X127944428Y-82433390D01*
X127944428Y-82433390D02*
X127753952Y-82433390D01*
X127753952Y-82433390D02*
X127658714Y-82481009D01*
X127658714Y-82481009D02*
X127611095Y-82528628D01*
X127611095Y-82528628D02*
X127563476Y-82623866D01*
X127563476Y-82623866D02*
X127563476Y-82814342D01*
X127563476Y-82814342D02*
X127611095Y-82909580D01*
X127611095Y-82909580D02*
X127658714Y-82957200D01*
X127658714Y-82957200D02*
X127753952Y-83004819D01*
X127753952Y-83004819D02*
X127944428Y-83004819D01*
X127944428Y-83004819D02*
X128039666Y-82957200D01*
X128039666Y-82957200D02*
X128087285Y-82909580D01*
X128087285Y-82909580D02*
X128134904Y-82814342D01*
X128134904Y-82814342D02*
X128134904Y-82623866D01*
X128134904Y-82623866D02*
X128087285Y-82528628D01*
X128087285Y-82528628D02*
X128039666Y-82481009D01*
X128039666Y-82481009D02*
X127944428Y-82433390D01*
X130960333Y-111800819D02*
X130627000Y-111324628D01*
X130388905Y-111800819D02*
X130388905Y-110800819D01*
X130388905Y-110800819D02*
X130769857Y-110800819D01*
X130769857Y-110800819D02*
X130865095Y-110848438D01*
X130865095Y-110848438D02*
X130912714Y-110896057D01*
X130912714Y-110896057D02*
X130960333Y-110991295D01*
X130960333Y-110991295D02*
X130960333Y-111134152D01*
X130960333Y-111134152D02*
X130912714Y-111229390D01*
X130912714Y-111229390D02*
X130865095Y-111277009D01*
X130865095Y-111277009D02*
X130769857Y-111324628D01*
X130769857Y-111324628D02*
X130388905Y-111324628D01*
X131912714Y-111800819D02*
X131341286Y-111800819D01*
X131627000Y-111800819D02*
X131627000Y-110800819D01*
X131627000Y-110800819D02*
X131531762Y-110943676D01*
X131531762Y-110943676D02*
X131436524Y-111038914D01*
X131436524Y-111038914D02*
X131341286Y-111086533D01*
X126708819Y-86486904D02*
X127518342Y-86486904D01*
X127518342Y-86486904D02*
X127613580Y-86439285D01*
X127613580Y-86439285D02*
X127661200Y-86391666D01*
X127661200Y-86391666D02*
X127708819Y-86296428D01*
X127708819Y-86296428D02*
X127708819Y-86105952D01*
X127708819Y-86105952D02*
X127661200Y-86010714D01*
X127661200Y-86010714D02*
X127613580Y-85963095D01*
X127613580Y-85963095D02*
X127518342Y-85915476D01*
X127518342Y-85915476D02*
X126708819Y-85915476D01*
X126708819Y-85534523D02*
X126708819Y-84867857D01*
X126708819Y-84867857D02*
X127708819Y-85296428D01*
X131833095Y-97008819D02*
X131833095Y-97818342D01*
X131833095Y-97818342D02*
X131880714Y-97913580D01*
X131880714Y-97913580D02*
X131928333Y-97961200D01*
X131928333Y-97961200D02*
X132023571Y-98008819D01*
X132023571Y-98008819D02*
X132214047Y-98008819D01*
X132214047Y-98008819D02*
X132309285Y-97961200D01*
X132309285Y-97961200D02*
X132356904Y-97913580D01*
X132356904Y-97913580D02*
X132404523Y-97818342D01*
X132404523Y-97818342D02*
X132404523Y-97008819D01*
X132833095Y-97104057D02*
X132880714Y-97056438D01*
X132880714Y-97056438D02*
X132975952Y-97008819D01*
X132975952Y-97008819D02*
X133214047Y-97008819D01*
X133214047Y-97008819D02*
X133309285Y-97056438D01*
X133309285Y-97056438D02*
X133356904Y-97104057D01*
X133356904Y-97104057D02*
X133404523Y-97199295D01*
X133404523Y-97199295D02*
X133404523Y-97294533D01*
X133404523Y-97294533D02*
X133356904Y-97437390D01*
X133356904Y-97437390D02*
X132785476Y-98008819D01*
X132785476Y-98008819D02*
X133404523Y-98008819D01*
X119834819Y-92590857D02*
X119358628Y-92924190D01*
X119834819Y-93162285D02*
X118834819Y-93162285D01*
X118834819Y-93162285D02*
X118834819Y-92781333D01*
X118834819Y-92781333D02*
X118882438Y-92686095D01*
X118882438Y-92686095D02*
X118930057Y-92638476D01*
X118930057Y-92638476D02*
X119025295Y-92590857D01*
X119025295Y-92590857D02*
X119168152Y-92590857D01*
X119168152Y-92590857D02*
X119263390Y-92638476D01*
X119263390Y-92638476D02*
X119311009Y-92686095D01*
X119311009Y-92686095D02*
X119358628Y-92781333D01*
X119358628Y-92781333D02*
X119358628Y-93162285D01*
X119834819Y-91638476D02*
X119834819Y-92209904D01*
X119834819Y-91924190D02*
X118834819Y-91924190D01*
X118834819Y-91924190D02*
X118977676Y-92019428D01*
X118977676Y-92019428D02*
X119072914Y-92114666D01*
X119072914Y-92114666D02*
X119120533Y-92209904D01*
X119168152Y-90781333D02*
X119834819Y-90781333D01*
X118787200Y-91019428D02*
X119501485Y-91257523D01*
X119501485Y-91257523D02*
X119501485Y-90638476D01*
X119168057Y-103854238D02*
X119120438Y-103949476D01*
X119120438Y-103949476D02*
X119025200Y-104044714D01*
X119025200Y-104044714D02*
X118882342Y-104187571D01*
X118882342Y-104187571D02*
X118834723Y-104282809D01*
X118834723Y-104282809D02*
X118834723Y-104378047D01*
X119072819Y-104330428D02*
X119025200Y-104425666D01*
X119025200Y-104425666D02*
X118929961Y-104520904D01*
X118929961Y-104520904D02*
X118739485Y-104568523D01*
X118739485Y-104568523D02*
X118406152Y-104568523D01*
X118406152Y-104568523D02*
X118215676Y-104520904D01*
X118215676Y-104520904D02*
X118120438Y-104425666D01*
X118120438Y-104425666D02*
X118072819Y-104330428D01*
X118072819Y-104330428D02*
X118072819Y-104139952D01*
X118072819Y-104139952D02*
X118120438Y-104044714D01*
X118120438Y-104044714D02*
X118215676Y-103949476D01*
X118215676Y-103949476D02*
X118406152Y-103901857D01*
X118406152Y-103901857D02*
X118739485Y-103901857D01*
X118739485Y-103901857D02*
X118929961Y-103949476D01*
X118929961Y-103949476D02*
X119025200Y-104044714D01*
X119025200Y-104044714D02*
X119072819Y-104139952D01*
X119072819Y-104139952D02*
X119072819Y-104330428D01*
X119072819Y-102949476D02*
X119072819Y-103520904D01*
X119072819Y-103235190D02*
X118072819Y-103235190D01*
X118072819Y-103235190D02*
X118215676Y-103330428D01*
X118215676Y-103330428D02*
X118310914Y-103425666D01*
X118310914Y-103425666D02*
X118358533Y-103520904D01*
X135342333Y-105515580D02*
X135294714Y-105563200D01*
X135294714Y-105563200D02*
X135151857Y-105610819D01*
X135151857Y-105610819D02*
X135056619Y-105610819D01*
X135056619Y-105610819D02*
X134913762Y-105563200D01*
X134913762Y-105563200D02*
X134818524Y-105467961D01*
X134818524Y-105467961D02*
X134770905Y-105372723D01*
X134770905Y-105372723D02*
X134723286Y-105182247D01*
X134723286Y-105182247D02*
X134723286Y-105039390D01*
X134723286Y-105039390D02*
X134770905Y-104848914D01*
X134770905Y-104848914D02*
X134818524Y-104753676D01*
X134818524Y-104753676D02*
X134913762Y-104658438D01*
X134913762Y-104658438D02*
X135056619Y-104610819D01*
X135056619Y-104610819D02*
X135151857Y-104610819D01*
X135151857Y-104610819D02*
X135294714Y-104658438D01*
X135294714Y-104658438D02*
X135342333Y-104706057D01*
X136199476Y-104944152D02*
X136199476Y-105610819D01*
X135961381Y-104563200D02*
X135723286Y-105277485D01*
X135723286Y-105277485D02*
X136342333Y-105277485D01*
X117040819Y-99036094D02*
X116040819Y-99036094D01*
X116040819Y-99036094D02*
X116040819Y-98797999D01*
X116040819Y-98797999D02*
X116088438Y-98655142D01*
X116088438Y-98655142D02*
X116183676Y-98559904D01*
X116183676Y-98559904D02*
X116278914Y-98512285D01*
X116278914Y-98512285D02*
X116469390Y-98464666D01*
X116469390Y-98464666D02*
X116612247Y-98464666D01*
X116612247Y-98464666D02*
X116802723Y-98512285D01*
X116802723Y-98512285D02*
X116897961Y-98559904D01*
X116897961Y-98559904D02*
X116993200Y-98655142D01*
X116993200Y-98655142D02*
X117040819Y-98797999D01*
X117040819Y-98797999D02*
X117040819Y-99036094D01*
X116469390Y-97893237D02*
X116421771Y-97988475D01*
X116421771Y-97988475D02*
X116374152Y-98036094D01*
X116374152Y-98036094D02*
X116278914Y-98083713D01*
X116278914Y-98083713D02*
X116231295Y-98083713D01*
X116231295Y-98083713D02*
X116136057Y-98036094D01*
X116136057Y-98036094D02*
X116088438Y-97988475D01*
X116088438Y-97988475D02*
X116040819Y-97893237D01*
X116040819Y-97893237D02*
X116040819Y-97702761D01*
X116040819Y-97702761D02*
X116088438Y-97607523D01*
X116088438Y-97607523D02*
X116136057Y-97559904D01*
X116136057Y-97559904D02*
X116231295Y-97512285D01*
X116231295Y-97512285D02*
X116278914Y-97512285D01*
X116278914Y-97512285D02*
X116374152Y-97559904D01*
X116374152Y-97559904D02*
X116421771Y-97607523D01*
X116421771Y-97607523D02*
X116469390Y-97702761D01*
X116469390Y-97702761D02*
X116469390Y-97893237D01*
X116469390Y-97893237D02*
X116517009Y-97988475D01*
X116517009Y-97988475D02*
X116564628Y-98036094D01*
X116564628Y-98036094D02*
X116659866Y-98083713D01*
X116659866Y-98083713D02*
X116850342Y-98083713D01*
X116850342Y-98083713D02*
X116945580Y-98036094D01*
X116945580Y-98036094D02*
X116993200Y-97988475D01*
X116993200Y-97988475D02*
X117040819Y-97893237D01*
X117040819Y-97893237D02*
X117040819Y-97702761D01*
X117040819Y-97702761D02*
X116993200Y-97607523D01*
X116993200Y-97607523D02*
X116945580Y-97559904D01*
X116945580Y-97559904D02*
X116850342Y-97512285D01*
X116850342Y-97512285D02*
X116659866Y-97512285D01*
X116659866Y-97512285D02*
X116564628Y-97559904D01*
X116564628Y-97559904D02*
X116517009Y-97607523D01*
X116517009Y-97607523D02*
X116469390Y-97702761D01*
X116927333Y-91132819D02*
X116594000Y-90656628D01*
X116355905Y-91132819D02*
X116355905Y-90132819D01*
X116355905Y-90132819D02*
X116736857Y-90132819D01*
X116736857Y-90132819D02*
X116832095Y-90180438D01*
X116832095Y-90180438D02*
X116879714Y-90228057D01*
X116879714Y-90228057D02*
X116927333Y-90323295D01*
X116927333Y-90323295D02*
X116927333Y-90466152D01*
X116927333Y-90466152D02*
X116879714Y-90561390D01*
X116879714Y-90561390D02*
X116832095Y-90609009D01*
X116832095Y-90609009D02*
X116736857Y-90656628D01*
X116736857Y-90656628D02*
X116355905Y-90656628D01*
X117784476Y-90132819D02*
X117594000Y-90132819D01*
X117594000Y-90132819D02*
X117498762Y-90180438D01*
X117498762Y-90180438D02*
X117451143Y-90228057D01*
X117451143Y-90228057D02*
X117355905Y-90370914D01*
X117355905Y-90370914D02*
X117308286Y-90561390D01*
X117308286Y-90561390D02*
X117308286Y-90942342D01*
X117308286Y-90942342D02*
X117355905Y-91037580D01*
X117355905Y-91037580D02*
X117403524Y-91085200D01*
X117403524Y-91085200D02*
X117498762Y-91132819D01*
X117498762Y-91132819D02*
X117689238Y-91132819D01*
X117689238Y-91132819D02*
X117784476Y-91085200D01*
X117784476Y-91085200D02*
X117832095Y-91037580D01*
X117832095Y-91037580D02*
X117879714Y-90942342D01*
X117879714Y-90942342D02*
X117879714Y-90704247D01*
X117879714Y-90704247D02*
X117832095Y-90609009D01*
X117832095Y-90609009D02*
X117784476Y-90561390D01*
X117784476Y-90561390D02*
X117689238Y-90513771D01*
X117689238Y-90513771D02*
X117498762Y-90513771D01*
X117498762Y-90513771D02*
X117403524Y-90561390D01*
X117403524Y-90561390D02*
X117355905Y-90609009D01*
X117355905Y-90609009D02*
X117308286Y-90704247D01*
D13*
%TO.C,R9*%
X114062742Y-102728500D02*
X114537258Y-102728500D01*
X114062742Y-103773500D02*
X114537258Y-103773500D01*
%TO.C,D7*%
X119407000Y-102958000D02*
X120877000Y-102958000D01*
X120877000Y-102958000D02*
X120877000Y-100673000D01*
X119407000Y-100673000D02*
X119407000Y-102958000D01*
%TO.C,R15*%
X123189500Y-84865258D02*
X123189500Y-84390742D01*
X124234500Y-84865258D02*
X124234500Y-84390742D01*
%TO.C,TP1*%
X140400000Y-100838000D02*
G75*
G03*
X140400000Y-100838000I-700000J0D01*
G01*
%TO.C,U5*%
X103214600Y-108985000D02*
X109224600Y-108985000D01*
X105464600Y-115805000D02*
X109224600Y-115805000D01*
X109224600Y-108985000D02*
X109224600Y-110245000D01*
X109224600Y-115805000D02*
X109224600Y-114545000D01*
%TO.C,R7*%
X113300742Y-88377500D02*
X113775258Y-88377500D01*
X113300742Y-89422500D02*
X113775258Y-89422500D01*
%TO.C,D5*%
X107354000Y-89689000D02*
X107354000Y-91159000D01*
X107354000Y-91159000D02*
X109639000Y-91159000D01*
X109639000Y-89689000D02*
X107354000Y-89689000D01*
%TO.C,U1*%
X127636000Y-108680000D02*
X130936000Y-108680000D01*
X130936000Y-108680000D02*
X130936000Y-104680000D01*
%TO.C,R12*%
X120664500Y-98187742D02*
X120664500Y-98662258D01*
X119619500Y-98187742D02*
X119619500Y-98662258D01*
%TO.C,R10*%
X113648258Y-102249500D02*
X113173742Y-102249500D01*
X113648258Y-101204500D02*
X113173742Y-101204500D01*
%TO.C,FB1*%
X126379758Y-104126500D02*
X125905242Y-104126500D01*
X126379758Y-103081500D02*
X125905242Y-103081500D01*
%TO.C,C1*%
X118978000Y-117113164D02*
X118978000Y-117328836D01*
X118258000Y-117113164D02*
X118258000Y-117328836D01*
%TO.C,C23*%
X153643000Y-95750748D02*
X153643000Y-96273252D01*
X152173000Y-95750748D02*
X152173000Y-96273252D01*
%TO.C,SW3*%
X145456000Y-117945000D02*
X145456000Y-117825000D01*
X145456000Y-116815000D02*
X145456000Y-115675000D01*
X145456000Y-114665000D02*
X145456000Y-114545000D01*
X145456000Y-114545000D02*
X141056000Y-114545000D01*
X141056000Y-117945000D02*
X145456000Y-117945000D01*
X141056000Y-117825000D02*
X141056000Y-117945000D01*
X141056000Y-115675000D02*
X141056000Y-116815000D01*
X141056000Y-114545000D02*
X141056000Y-114665000D01*
%TO.C,C19*%
X120937164Y-82190000D02*
X121152836Y-82190000D01*
X120937164Y-82910000D02*
X121152836Y-82910000D01*
%TO.C,C14*%
X124433000Y-108577748D02*
X124433000Y-109100252D01*
X122963000Y-108577748D02*
X122963000Y-109100252D01*
%TO.C,C13*%
X113413000Y-109790620D02*
X113413000Y-110071780D01*
X112393000Y-109790620D02*
X112393000Y-110071780D01*
%TO.C,C10*%
X109974500Y-100526500D02*
X109187000Y-100526500D01*
X109580750Y-100920250D02*
X109580750Y-100132750D01*
X108947000Y-101024563D02*
X108947000Y-99739000D01*
X108947000Y-101024563D02*
X107882563Y-102089000D01*
X108947000Y-96333437D02*
X108947000Y-97619000D01*
X108947000Y-96333437D02*
X107882563Y-95269000D01*
X107882563Y-102089000D02*
X102127000Y-102089000D01*
X107882563Y-95269000D02*
X102127000Y-95269000D01*
X102127000Y-102089000D02*
X102127000Y-99739000D01*
X102127000Y-95269000D02*
X102127000Y-97619000D01*
%TO.C,C24*%
X144887836Y-112120000D02*
X144672164Y-112120000D01*
X144887836Y-111400000D02*
X144672164Y-111400000D01*
%TO.C,R11*%
X123712500Y-98187742D02*
X123712500Y-98662258D01*
X122667500Y-98187742D02*
X122667500Y-98662258D01*
%TO.C,R13*%
X122188500Y-98187742D02*
X122188500Y-98662258D01*
X121143500Y-98187742D02*
X121143500Y-98662258D01*
%TO.C,D6*%
X122455000Y-102958000D02*
X123925000Y-102958000D01*
X123925000Y-102958000D02*
X123925000Y-100673000D01*
X122455000Y-100673000D02*
X122455000Y-102958000D01*
%TO.C,R18*%
X141959064Y-114019000D02*
X141504936Y-114019000D01*
X141959064Y-112549000D02*
X141504936Y-112549000D01*
%TO.C,C16*%
X119142000Y-88932420D02*
X119142000Y-89213580D01*
X118122000Y-88932420D02*
X118122000Y-89213580D01*
%TO.C,D2*%
X136552000Y-117163250D02*
X138022000Y-117163250D01*
X138022000Y-117163250D02*
X138022000Y-114878250D01*
X136552000Y-114878250D02*
X136552000Y-117163250D01*
%TO.C,C15*%
X126003164Y-87905000D02*
X126218836Y-87905000D01*
X126003164Y-88625000D02*
X126218836Y-88625000D01*
%TO.C,D3*%
X138076000Y-117163250D02*
X139546000Y-117163250D01*
X139546000Y-117163250D02*
X139546000Y-114878250D01*
X138076000Y-114878250D02*
X138076000Y-117163250D01*
%TO.C,C45*%
X138543420Y-91819000D02*
X138824580Y-91819000D01*
X138543420Y-92839000D02*
X138824580Y-92839000D01*
%TO.C,C17*%
X120262000Y-88683164D02*
X120262000Y-88898836D01*
X119542000Y-88683164D02*
X119542000Y-88898836D01*
%TO.C,C5*%
X127360000Y-107080164D02*
X127360000Y-107295836D01*
X126640000Y-107080164D02*
X126640000Y-107295836D01*
%TO.C,R17*%
X145388064Y-114019000D02*
X144933936Y-114019000D01*
X145388064Y-112549000D02*
X144933936Y-112549000D01*
%TO.C,J3*%
X106061200Y-108187800D02*
X106061200Y-106857800D01*
X107391200Y-108187800D02*
X106061200Y-108187800D01*
X108661200Y-108187800D02*
X111261200Y-108187800D01*
X108661200Y-108187800D02*
X108661200Y-105587800D01*
X111261200Y-108187800D02*
X111261200Y-102987800D01*
X106061200Y-105587800D02*
X106061200Y-102987800D01*
X108661200Y-105587800D02*
X106061200Y-105587800D01*
X106061200Y-102987800D02*
X111261200Y-102987800D01*
%TO.C,J6*%
X128841000Y-81512000D02*
X128841000Y-69172000D01*
X138536000Y-82406338D02*
X138786000Y-81973325D01*
X138786000Y-81973325D02*
X139036000Y-82406338D01*
X139036000Y-82406338D02*
X138536000Y-82406338D01*
X159811000Y-69172000D02*
X159811000Y-81512000D01*
X159811000Y-81512000D02*
X128841000Y-81512000D01*
%TO.C,J4*%
X125950000Y-75604000D02*
X125530000Y-75604000D01*
X125950000Y-73624000D02*
X125950000Y-75604000D01*
X125950000Y-71254000D02*
X125950000Y-71654000D01*
X123950000Y-75834000D02*
X123950000Y-76284000D01*
X123500000Y-76284000D02*
X123950000Y-76284000D01*
X118430000Y-75604000D02*
X118850000Y-75604000D01*
X118430000Y-73624000D02*
X118430000Y-75604000D01*
X118430000Y-71654000D02*
X118430000Y-71254000D01*
%TO.C,C46*%
X143142580Y-85854000D02*
X142861420Y-85854000D01*
X143142580Y-84834000D02*
X142861420Y-84834000D01*
D14*
%TO.C,D4*%
X162155000Y-82611500D02*
X156805000Y-82611500D01*
X156805000Y-86235500D02*
X162755000Y-86235500D01*
D13*
%TO.C,R16*%
X120903500Y-84865258D02*
X120903500Y-84390742D01*
X121948500Y-84865258D02*
X121948500Y-84390742D01*
%TO.C,SW2*%
X126725000Y-116008000D02*
X126725000Y-116798000D01*
X127325000Y-117808000D02*
X133025000Y-117808000D01*
X128575000Y-114958000D02*
X130275000Y-114958000D01*
X128775000Y-117808000D02*
X128775000Y-119098000D01*
X128775000Y-119098000D02*
X128975000Y-119308000D01*
X128975000Y-119308000D02*
X129875000Y-119308000D01*
X130075000Y-119098000D02*
X129875000Y-119308000D01*
X130075000Y-119098000D02*
X130075000Y-117808000D01*
X131575000Y-114958000D02*
X131775000Y-114958000D01*
X133625000Y-116798000D02*
X133625000Y-116008000D01*
%TO.C,C12*%
X101353252Y-115543000D02*
X100830748Y-115543000D01*
X101353252Y-114073000D02*
X100830748Y-114073000D01*
%TO.C,R2*%
X135240500Y-112867508D02*
X135240500Y-112392992D01*
X136285500Y-112867508D02*
X136285500Y-112392992D01*
D15*
%TO.C,J5*%
X165979500Y-100703250D02*
X165979500Y-99603250D01*
X169779500Y-100703250D02*
X169779500Y-99603250D01*
X165979500Y-98003250D02*
X165979500Y-96903250D01*
X169779500Y-98003250D02*
X169779500Y-96903250D01*
D16*
X164711500Y-98876250D02*
G75*
G03*
X164711500Y-98876250I-100000J0D01*
G01*
D14*
%TO.C,IC1*%
X154238000Y-85889500D02*
X153038000Y-85889500D01*
D13*
%TO.C,J2*%
X96917000Y-84917000D02*
X95917000Y-83917000D01*
X99032000Y-84917000D02*
X96917000Y-84917000D01*
X102222000Y-84917000D02*
X106047000Y-84917000D01*
X106047000Y-84917000D02*
X106047000Y-71547000D01*
X95917000Y-83917000D02*
X95917000Y-72547000D01*
X95917000Y-72547000D02*
X96917000Y-71547000D01*
X96917000Y-71547000D02*
X99032000Y-71547000D01*
X106047000Y-71547000D02*
X102222000Y-71547000D01*
%TO.C,D9*%
X121653000Y-93049000D02*
X120183000Y-93049000D01*
X120183000Y-93049000D02*
X120183000Y-95334000D01*
X121653000Y-95334000D02*
X121653000Y-93049000D01*
%TO.C,R8*%
X116221742Y-101204500D02*
X116696258Y-101204500D01*
X116221742Y-102249500D02*
X116696258Y-102249500D01*
%TO.C,R4*%
X138288500Y-112867508D02*
X138288500Y-112392992D01*
X139333500Y-112867508D02*
X139333500Y-112392992D01*
%TO.C,U6*%
X122337000Y-112757000D02*
X116327000Y-112757000D01*
X120087000Y-105937000D02*
X116327000Y-105937000D01*
X116327000Y-112757000D02*
X116327000Y-111497000D01*
X116327000Y-105937000D02*
X116327000Y-107197000D01*
%TO.C,TP2*%
X140016000Y-95693000D02*
X141416000Y-95693000D01*
X140016000Y-97093000D02*
X140016000Y-95693000D01*
X141416000Y-95693000D02*
X141416000Y-97093000D01*
X141416000Y-97093000D02*
X140016000Y-97093000D01*
%TO.C,D1*%
X135028000Y-117163250D02*
X136498000Y-117163250D01*
X136498000Y-117163250D02*
X136498000Y-114878250D01*
X135028000Y-114878250D02*
X135028000Y-117163250D01*
%TO.C,R5*%
X110727258Y-89422500D02*
X110252742Y-89422500D01*
X110727258Y-88377500D02*
X110252742Y-88377500D01*
%TO.C,C2*%
X137914748Y-104167000D02*
X138437252Y-104167000D01*
X137914748Y-105637000D02*
X138437252Y-105637000D01*
D17*
%TO.C,D10*%
X120919000Y-79010000D02*
X120919000Y-79360000D01*
X120919000Y-80510000D02*
X121244000Y-80835000D01*
X121244000Y-80835000D02*
X121244000Y-81535000D01*
X121269000Y-79010000D02*
X120919000Y-79010000D01*
X123869000Y-79010000D02*
X124219000Y-79010000D01*
X124219000Y-79010000D02*
X124219000Y-79310000D01*
X124219000Y-80685000D02*
X124219000Y-81010000D01*
X124219000Y-81010000D02*
X123919000Y-81010000D01*
D13*
%TO.C,R3*%
X136764500Y-112867508D02*
X136764500Y-112392992D01*
X137809500Y-112867508D02*
X137809500Y-112392992D01*
%TO.C,J1*%
X163096000Y-87157500D02*
X163096000Y-88487500D01*
X161766000Y-87157500D02*
X163096000Y-87157500D01*
X160496000Y-87157500D02*
X150276000Y-87157500D01*
X160496000Y-87157500D02*
X160496000Y-89757500D01*
X150276000Y-87157500D02*
X150276000Y-92357500D01*
X163096000Y-89757500D02*
X163096000Y-92357500D01*
X160496000Y-89757500D02*
X163096000Y-89757500D01*
X163096000Y-92357500D02*
X150276000Y-92357500D01*
%TO.C,C3*%
X128576500Y-98758836D02*
X128576500Y-98543164D01*
X129296500Y-98758836D02*
X129296500Y-98543164D01*
%TO.C,C21*%
X114413420Y-91565000D02*
X114694580Y-91565000D01*
X114413420Y-92585000D02*
X114694580Y-92585000D01*
%TO.C,C8*%
X125613500Y-105147164D02*
X125613500Y-105362836D01*
X124893500Y-105147164D02*
X124893500Y-105362836D01*
%TO.C,JP1*%
X115869000Y-83506000D02*
X115869000Y-84836000D01*
X114539000Y-83506000D02*
X115869000Y-83506000D01*
X113269000Y-83506000D02*
X108129000Y-83506000D01*
X113269000Y-83506000D02*
X113269000Y-86166000D01*
X108129000Y-83506000D02*
X108129000Y-86166000D01*
X113269000Y-86166000D02*
X108129000Y-86166000D01*
D17*
%TO.C,MOD1*%
X164437000Y-98453000D02*
X164437000Y-99253000D01*
X164337000Y-98453000D02*
X164437000Y-98453000D01*
X148237000Y-98453000D02*
X148337000Y-98453000D01*
X148237000Y-99153000D02*
X148237000Y-98453000D01*
X148237000Y-113553000D02*
X148237000Y-114153000D01*
X148237000Y-114153000D02*
X148337000Y-114253000D01*
X148337000Y-114253000D02*
X148337000Y-114953000D01*
X164437000Y-114653000D02*
X164437000Y-113853000D01*
X164337000Y-114653000D02*
X164437000Y-114653000D01*
D13*
%TO.C,U10*%
X136180000Y-87858000D02*
X136180000Y-91308000D01*
X136180000Y-87858000D02*
X136180000Y-85908000D01*
X141300000Y-87858000D02*
X141300000Y-89808000D01*
X141300000Y-87858000D02*
X141300000Y-85908000D01*
%TO.C,C20*%
X124920836Y-77449000D02*
X124705164Y-77449000D01*
X124920836Y-76729000D02*
X124705164Y-76729000D01*
%TO.C,C11*%
X101598000Y-111646580D02*
X101598000Y-111365420D01*
X102618000Y-111646580D02*
X102618000Y-111365420D01*
%TO.C,SW1*%
X120002202Y-114632000D02*
X120002202Y-114752000D01*
X120002202Y-115762000D02*
X120002202Y-116902000D01*
X120002202Y-117912000D02*
X120002202Y-118032000D01*
X120002202Y-118032000D02*
X124402202Y-118032000D01*
X124402202Y-114632000D02*
X120002202Y-114632000D01*
X124402202Y-114752000D02*
X124402202Y-114632000D01*
X124402202Y-116902000D02*
X124402202Y-115762000D01*
X124402202Y-118032000D02*
X124402202Y-117912000D01*
%TO.C,C7*%
X127391500Y-105147164D02*
X127391500Y-105362836D01*
X126671500Y-105147164D02*
X126671500Y-105362836D01*
%TO.C,C22*%
X154072000Y-96881836D02*
X154072000Y-96666164D01*
X154792000Y-96881836D02*
X154792000Y-96666164D01*
D10*
%TO.C,U3*%
X115732000Y-94840000D02*
X115532000Y-94840000D01*
X115732000Y-94840000D02*
X115732000Y-98990000D01*
X115532000Y-94840000D02*
X115532000Y-93540000D01*
X110582000Y-94840000D02*
X110782000Y-94840000D01*
X110582000Y-94840000D02*
X110582000Y-98990000D01*
X115732000Y-98990000D02*
X115532000Y-98990000D01*
X110582000Y-98990000D02*
X110782000Y-98990000D01*
D13*
%TO.C,U4*%
X118019000Y-79502000D02*
X118019000Y-77827000D01*
X118019000Y-79502000D02*
X118019000Y-80152000D01*
X114899000Y-79502000D02*
X114899000Y-78852000D01*
X114899000Y-79502000D02*
X114899000Y-80152000D01*
%TO.C,C6*%
X126631336Y-102694000D02*
X126415664Y-102694000D01*
X126631336Y-101974000D02*
X126415664Y-101974000D01*
%TO.C,C9*%
X110643580Y-92585000D02*
X110362420Y-92585000D01*
X110643580Y-91565000D02*
X110362420Y-91565000D01*
%TO.C,C18*%
X124174836Y-82910000D02*
X123959164Y-82910000D01*
X124174836Y-82190000D02*
X123959164Y-82190000D01*
%TO.C,R1*%
X130889742Y-112253500D02*
X131364258Y-112253500D01*
X130889742Y-113298500D02*
X131364258Y-113298500D01*
D17*
%TO.C,U7*%
X124169000Y-86457000D02*
X123869000Y-86457000D01*
X124169000Y-86457000D02*
X124169000Y-86757000D01*
X121669000Y-86457000D02*
X121294000Y-86457000D01*
X121294000Y-86457000D02*
X120994000Y-86757000D01*
X120994000Y-86757000D02*
X120719000Y-86757000D01*
X124169000Y-89657000D02*
X124169000Y-89357000D01*
X124169000Y-89657000D02*
X123869000Y-89657000D01*
X120969000Y-89657000D02*
X120969000Y-89357000D01*
X120969000Y-89657000D02*
X121269000Y-89657000D01*
D13*
%TO.C,U2*%
X129985000Y-103984000D02*
X129985000Y-103509000D01*
X130460000Y-98764000D02*
X129985000Y-98764000D01*
X130460000Y-103984000D02*
X129985000Y-103984000D01*
X134730000Y-98764000D02*
X135205000Y-98764000D01*
X134730000Y-103984000D02*
X135205000Y-103984000D01*
X135205000Y-98764000D02*
X135205000Y-99239000D01*
X135205000Y-103984000D02*
X135205000Y-103509000D01*
%TO.C,R14*%
X121440500Y-91185742D02*
X121440500Y-91660258D01*
X120395500Y-91185742D02*
X120395500Y-91660258D01*
%TO.C,Q1*%
X117867000Y-103521000D02*
X117867000Y-105171000D01*
X116067000Y-105171000D02*
X116067000Y-103871000D01*
%TO.C,C4*%
X136671164Y-102891000D02*
X136886836Y-102891000D01*
X136671164Y-103611000D02*
X136886836Y-103611000D01*
%TO.C,D8*%
X120931000Y-102958000D02*
X122401000Y-102958000D01*
X122401000Y-102958000D02*
X122401000Y-100673000D01*
X120931000Y-100673000D02*
X120931000Y-102958000D01*
%TO.C,R6*%
X112124258Y-90946500D02*
X111649742Y-90946500D01*
X112124258Y-89901500D02*
X111649742Y-89901500D01*
%TD*%
M02*
